<?xml version="1.0" encoding="UTF-8" standalone="no"?>
<!DOCTYPE svg PUBLIC "-//W3C//DTD SVG 1.1//EN"
 "http://www.w3.org/Graphics/SVG/1.1/DTD/svg11.dtd">
<!-- Generated by graphviz version 2.38.0 (20140413.2041)
 -->
<!-- Title: tdsdump_col Pages: 1 -->
<svg width="1040pt" height="496pt"
 viewBox="0.00 0.00 1040.00 496.00" xmlns="http://www.w3.org/2000/svg" xmlns:xlink="http://www.w3.org/1999/xlink">
<g id="graph0" class="graph" transform="scale(1 1) rotate(0) translate(4 492)">
<title>tdsdump_col</title>
<polygon fill="white" stroke="none" points="-4,4 -4,-492 1036,-492 1036,4 -4,4"/>
<!-- Node1 -->
<g id="node1" class="node"><title>Node1</title>
<polygon fill="#bfbfbf" stroke="black" points="0,-256.5 0,-275.5 76,-275.5 76,-256.5 0,-256.5"/>
<text text-anchor="middle" x="38" y="-263.5" font-family="Helvetica,sans-Serif" font-size="10.00">tdsdump_col</text>
</g>
<!-- Node2 -->
<g id="node2" class="node"><title>Node2</title>
<g id="a_node2"><a xlink:href="a00359.html#gacb3354443bcefe7a500a500a4904cc05" target="_top" xlink:title="process output parameters of a stored procedure. ">
<polygon fill="white" stroke="black" points="112,-256.5 112,-275.5 254,-275.5 254,-256.5 112,-256.5"/>
<text text-anchor="middle" x="183" y="-263.5" font-family="Helvetica,sans-Serif" font-size="10.00">tds_process_param_result</text>
</a>
</g>
</g>
<!-- Node1&#45;&gt;Node2 -->
<g id="edge1" class="edge"><title>Node1&#45;&gt;Node2</title>
<path fill="none" stroke="midnightblue" d="M86.3378,-266C94.5782,-266 103.304,-266 112,-266"/>
<polygon fill="midnightblue" stroke="midnightblue" points="86.1983,-262.5 76.1983,-266 86.1982,-269.5 86.1983,-262.5"/>
</g>
<!-- Node3 -->
<g id="node3" class="node"><title>Node3</title>
<g id="a_node3"><a xlink:href="a00359.html#gabfc9de1d1fe718818caf63a4be4035a6" target="_top" xlink:title="process all streams. ">
<polygon fill="white" stroke="black" points="616,-240.5 616,-259.5 728,-259.5 728,-240.5 616,-240.5"/>
<text text-anchor="middle" x="672" y="-247.5" font-family="Helvetica,sans-Serif" font-size="10.00">tds_process_tokens</text>
</a>
</g>
</g>
<!-- Node2&#45;&gt;Node3 -->
<g id="edge2" class="edge"><title>Node2&#45;&gt;Node3</title>
<path fill="none" stroke="midnightblue" d="M264.284,-267.675C272.964,-267.808 281.666,-267.921 290,-268 418.911,-269.216 451.558,-273.049 580,-262 591.59,-261.003 603.97,-259.599 615.746,-258.101"/>
<polygon fill="midnightblue" stroke="midnightblue" points="264.185,-264.173 254.129,-267.51 264.071,-271.172 264.185,-264.173"/>
</g>
<!-- Node17 -->
<g id="node17" class="node"><title>Node17</title>
<g id="a_node17"><a xlink:href="a00359.html#ga9fdef8228d29cab7fa9098f07fa73fba" target="_top" xlink:title="Process parameters from networks. ">
<polygon fill="white" stroke="black" points="290,-229 290,-259 432,-259 432,-229 290,-229"/>
<text text-anchor="start" x="298" y="-247" font-family="Helvetica,sans-Serif" font-size="10.00">tds_process_param_result</text>
<text text-anchor="middle" x="361" y="-236" font-family="Helvetica,sans-Serif" font-size="10.00">_tokens</text>
</a>
</g>
</g>
<!-- Node2&#45;&gt;Node17 -->
<g id="edge18" class="edge"><title>Node2&#45;&gt;Node17</title>
<path fill="none" stroke="midnightblue" d="M264.101,-255.987C272.706,-254.912 281.412,-253.823 289.888,-252.764"/>
<polygon fill="midnightblue" stroke="midnightblue" points="263.554,-252.528 254.066,-257.242 264.423,-259.474 263.554,-252.528"/>
</g>
<!-- Node4 -->
<g id="node4" class="node"><title>Node4</title>
<g id="a_node4"><a xlink:href="a00344.html#gae67546338cb9542a4902aa914f57f314" target="_top" xlink:title="_bcp_exec_out">
<polygon fill="white" stroke="red" points="775.5,-468.5 775.5,-487.5 863.5,-487.5 863.5,-468.5 775.5,-468.5"/>
<text text-anchor="middle" x="819.5" y="-475.5" font-family="Helvetica,sans-Serif" font-size="10.00">_bcp_exec_out</text>
</a>
</g>
</g>
<!-- Node3&#45;&gt;Node4 -->
<g id="edge3" class="edge"><title>Node3&#45;&gt;Node4</title>
<path fill="none" stroke="midnightblue" d="M676.171,-269.774C683.777,-310.852 706.855,-405.999 764,-459 768.188,-462.884 773.212,-465.98 778.494,-468.447"/>
<polygon fill="midnightblue" stroke="midnightblue" points="679.617,-269.165 674.454,-259.913 672.721,-270.365 679.617,-269.165"/>
</g>
<!-- Node5 -->
<g id="node5" class="node"><title>Node5</title>
<g id="a_node5"><a xlink:href="a00341.html#gaf1879b85e8238c015b9648d077665285" target="_top" xlink:title="_dbresults">
<polygon fill="white" stroke="red" points="787,-430.5 787,-449.5 852,-449.5 852,-430.5 787,-430.5"/>
<text text-anchor="middle" x="819.5" y="-437.5" font-family="Helvetica,sans-Serif" font-size="10.00">_dbresults</text>
</a>
</g>
</g>
<!-- Node3&#45;&gt;Node5 -->
<g id="edge4" class="edge"><title>Node3&#45;&gt;Node5</title>
<path fill="none" stroke="midnightblue" d="M678.288,-269.726C688.748,-305.058 715.385,-379.332 764,-421 770.543,-426.608 778.84,-430.592 786.975,-433.411"/>
<polygon fill="midnightblue" stroke="midnightblue" points="681.545,-268.381 675.453,-259.713 674.809,-270.288 681.545,-268.381"/>
</g>
<!-- Node6 -->
<g id="node6" class="node"><title>Node6</title>
<g id="a_node6"><a xlink:href="a00342.html#gaff09873008411a0573f6d1a9e6c7cf4b" target="_top" xlink:title="Get count of output parameters filled by a stored procedure. ">
<polygon fill="white" stroke="red" points="787,-392.5 787,-411.5 852,-411.5 852,-392.5 787,-392.5"/>
<text text-anchor="middle" x="819.5" y="-399.5" font-family="Helvetica,sans-Serif" font-size="10.00">dbnumrets</text>
</a>
</g>
</g>
<!-- Node3&#45;&gt;Node6 -->
<g id="edge5" class="edge"><title>Node3&#45;&gt;Node6</title>
<path fill="none" stroke="midnightblue" d="M681.151,-268.885C694.442,-297.545 723.431,-351.96 764,-383 770.685,-388.115 778.851,-391.918 786.806,-394.721"/>
<polygon fill="midnightblue" stroke="midnightblue" points="684.263,-267.271 676.972,-259.583 677.877,-270.139 684.263,-267.271"/>
</g>
<!-- Node7 -->
<g id="node7" class="node"><title>Node7</title>
<g id="a_node7"><a xlink:href="a00341.html#gae1f50a6a2c31fda57cb481922b06841e" target="_top" xlink:title="Wait for results of a query from the server. ">
<polygon fill="white" stroke="red" points="793,-354.5 793,-373.5 846,-373.5 846,-354.5 793,-354.5"/>
<text text-anchor="middle" x="819.5" y="-361.5" font-family="Helvetica,sans-Serif" font-size="10.00">dbsqlok</text>
</a>
</g>
</g>
<!-- Node3&#45;&gt;Node7 -->
<g id="edge6" class="edge"><title>Node3&#45;&gt;Node7</title>
<path fill="none" stroke="midnightblue" d="M687.149,-267.414C703.853,-287.093 733.272,-319.098 764,-340 772.805,-345.989 783.347,-351.044 792.803,-354.947"/>
<polygon fill="midnightblue" stroke="midnightblue" points="689.696,-265.004 680.605,-259.563 684.319,-269.486 689.696,-265.004"/>
</g>
<!-- Node8 -->
<g id="node8" class="node"><title>Node8</title>
<g id="a_node8"><a xlink:href="a00341.html#ga548153eb2eae76c48aa9d4b72258dc1c" target="_top" xlink:title="Send text or image data to the server. ">
<polygon fill="white" stroke="black" points="937.5,-335.5 937.5,-354.5 1005.5,-354.5 1005.5,-335.5 937.5,-335.5"/>
<text text-anchor="middle" x="971.5" y="-342.5" font-family="Helvetica,sans-Serif" font-size="10.00">dbwritetext</text>
</a>
</g>
</g>
<!-- Node3&#45;&gt;Node8 -->
<g id="edge9" class="edge"><title>Node3&#45;&gt;Node8</title>
<path fill="none" stroke="midnightblue" d="M693.223,-265.824C710.915,-278.867 737.811,-296.819 764,-307 822.438,-329.719 895.567,-339.063 937.267,-342.749"/>
<polygon fill="midnightblue" stroke="midnightblue" points="694.954,-262.746 684.863,-259.518 690.739,-268.335 694.954,-262.746"/>
</g>
<!-- Node9 -->
<g id="node9" class="node"><title>Node9</title>
<g id="a_node9"><a xlink:href="a00341.html#ga559e24ba70d0d96c3469eb6ab8f74e05" target="_top" xlink:title="Cancel the query currently being retrieved, discarding all pending rows. ">
<polygon fill="white" stroke="red" points="784,-278.5 784,-297.5 855,-297.5 855,-278.5 784,-278.5"/>
<text text-anchor="middle" x="819.5" y="-285.5" font-family="Helvetica,sans-Serif" font-size="10.00">dbcanquery</text>
</a>
</g>
</g>
<!-- Node3&#45;&gt;Node9 -->
<g id="edge8" class="edge"><title>Node3&#45;&gt;Node9</title>
<path fill="none" stroke="midnightblue" d="M719.642,-262.181C740.473,-267.622 764.597,-273.922 783.799,-278.937"/>
<polygon fill="midnightblue" stroke="midnightblue" points="720.276,-258.73 709.716,-259.589 718.507,-265.502 720.276,-258.73"/>
</g>
<!-- Node10 -->
<g id="node10" class="node"><title>Node10</title>
<g id="a_node10"><a xlink:href="a00341.html#gadd5685565c8c6c86079e17b8a73b324c" target="_top" xlink:title="Fetch part of a text or image value from the server. ">
<polygon fill="white" stroke="black" points="786,-240.5 786,-259.5 853,-259.5 853,-240.5 786,-240.5"/>
<text text-anchor="middle" x="819.5" y="-247.5" font-family="Helvetica,sans-Serif" font-size="10.00">dbreadtext</text>
</a>
</g>
</g>
<!-- Node3&#45;&gt;Node10 -->
<g id="edge10" class="edge"><title>Node3&#45;&gt;Node10</title>
<path fill="none" stroke="midnightblue" d="M738.178,-250C754.672,-250 771.691,-250 785.793,-250"/>
<polygon fill="midnightblue" stroke="midnightblue" points="738.007,-246.5 728.007,-250 738.007,-253.5 738.007,-246.5"/>
</g>
<!-- Node11 -->
<g id="node11" class="node"><title>Node11</title>
<g id="a_node11"><a xlink:href="a00341.html#gac980139b9cea03cf93e373d425991481" target="_top" xlink:title="Transmit the command buffer to the server. ">
<polygon fill="white" stroke="red" points="787,-202.5 787,-221.5 852,-221.5 852,-202.5 787,-202.5"/>
<text text-anchor="middle" x="819.5" y="-209.5" font-family="Helvetica,sans-Serif" font-size="10.00">dbsqlsend</text>
</a>
</g>
</g>
<!-- Node3&#45;&gt;Node11 -->
<g id="edge11" class="edge"><title>Node3&#45;&gt;Node11</title>
<path fill="none" stroke="midnightblue" d="M719.503,-237.855C741.442,-232.125 767.06,-225.435 786.738,-220.295"/>
<polygon fill="midnightblue" stroke="midnightblue" points="718.507,-234.498 709.716,-240.411 720.276,-241.27 718.507,-234.498"/>
</g>
<!-- Node12 -->
<g id="node12" class="node"><title>Node12</title>
<g id="a_node12"><a xlink:href="a00356.html#gaf0da49585d39e99780a004ee2ca23479" target="_top" xlink:title="Send option commands to server. ">
<polygon fill="white" stroke="black" points="911,-104.5 911,-123.5 1032,-123.5 1032,-104.5 911,-104.5"/>
<text text-anchor="middle" x="971.5" y="-111.5" font-family="Helvetica,sans-Serif" font-size="10.00">tds_submit_optioncmd</text>
</a>
</g>
</g>
<!-- Node3&#45;&gt;Node12 -->
<g id="edge12" class="edge"><title>Node3&#45;&gt;Node12</title>
<path fill="none" stroke="midnightblue" d="M694.562,-234.506C712.509,-222.106 739.064,-204.883 764,-193 811.072,-170.568 826.341,-173.743 875,-155 900.929,-145.012 930.222,-132.204 949.448,-123.583"/>
<polygon fill="midnightblue" stroke="midnightblue" points="692.195,-231.891 686.016,-240.497 696.213,-237.623 692.195,-231.891"/>
</g>
<!-- Node13 -->
<g id="node13" class="node"><title>Node13</title>
<g id="a_node13"><a xlink:href="a00193.html#ac6610c72bd31bad5378f760fa9b12d66" target="_top" xlink:title="Initialize BCP information. ">
<polygon fill="white" stroke="red" points="783,-126.5 783,-145.5 856,-145.5 856,-126.5 783,-126.5"/>
<text text-anchor="middle" x="819.5" y="-133.5" font-family="Helvetica,sans-Serif" font-size="10.00">tds_bcp_init</text>
</a>
</g>
</g>
<!-- Node3&#45;&gt;Node13 -->
<g id="edge13" class="edge"><title>Node3&#45;&gt;Node13</title>
<path fill="none" stroke="midnightblue" d="M687.149,-232.586C703.853,-212.907 733.272,-180.902 764,-160 772.463,-154.243 782.531,-149.35 791.697,-145.513"/>
<polygon fill="midnightblue" stroke="midnightblue" points="684.319,-230.514 680.605,-240.437 689.696,-234.996 684.319,-230.514"/>
</g>
<!-- Node14 -->
<g id="node14" class="node"><title>Node14</title>
<g id="a_node14"><a xlink:href="a00359.html#ga55f27c3e05d42c9b07ace1c74b11c5ab" target="_top" xlink:title="Retrieve and set @spid. ">
<polygon fill="white" stroke="red" points="781,-88.5 781,-107.5 858,-107.5 858,-88.5 781,-88.5"/>
<text text-anchor="middle" x="819.5" y="-95.5" font-family="Helvetica,sans-Serif" font-size="10.00">tds_set_spid</text>
</a>
</g>
</g>
<!-- Node3&#45;&gt;Node14 -->
<g id="edge14" class="edge"><title>Node3&#45;&gt;Node14</title>
<path fill="none" stroke="midnightblue" d="M681.151,-231.115C694.442,-202.455 723.431,-148.04 764,-117 769.014,-113.164 774.86,-110.065 780.826,-107.574"/>
<polygon fill="midnightblue" stroke="midnightblue" points="677.877,-229.861 676.972,-240.417 684.263,-232.729 677.877,-229.861"/>
</g>
<!-- Node15 -->
<g id="node15" class="node"><title>Node15</title>
<g id="a_node15"><a xlink:href="a00359.html#gaeeb1562044786ea17bea361ed83e6946" target="_top" xlink:title="Process results for simple query as &quot;SET TEXTSIZE&quot; or &quot;USE dbname&quot; If the statement returns results...">
<polygon fill="white" stroke="red" points="764.5,-39 764.5,-69 874.5,-69 874.5,-39 764.5,-39"/>
<text text-anchor="start" x="772.5" y="-57" font-family="Helvetica,sans-Serif" font-size="10.00">tds_process_simple</text>
<text text-anchor="middle" x="819.5" y="-46" font-family="Helvetica,sans-Serif" font-size="10.00">_query</text>
</a>
</g>
</g>
<!-- Node3&#45;&gt;Node15 -->
<g id="edge15" class="edge"><title>Node3&#45;&gt;Node15</title>
<path fill="none" stroke="midnightblue" d="M678.846,-230.223C690.048,-195.404 717.631,-122.713 764,-79 768.015,-75.2155 772.703,-71.9264 777.614,-69.0899"/>
<polygon fill="midnightblue" stroke="midnightblue" points="675.398,-229.525 675.781,-240.113 682.084,-231.597 675.398,-229.525"/>
</g>
<!-- Node16 -->
<g id="node16" class="node"><title>Node16</title>
<g id="a_node16"><a xlink:href="a00359.html#gaf233e79967f82f4e0dd4d11524917a34" target="_top" xlink:title="tds_process_cancel">
<polygon fill="white" stroke="red" points="764,-0.5 764,-19.5 875,-19.5 875,-0.5 764,-0.5"/>
<text text-anchor="middle" x="819.5" y="-7.5" font-family="Helvetica,sans-Serif" font-size="10.00">tds_process_cancel</text>
</a>
</g>
</g>
<!-- Node3&#45;&gt;Node16 -->
<g id="edge17" class="edge"><title>Node3&#45;&gt;Node16</title>
<path fill="none" stroke="midnightblue" d="M675.585,-230.579C682.261,-188.02 703.965,-85.8117 764,-29 768.076,-25.1431 772.976,-22.0644 778.146,-19.608"/>
<polygon fill="midnightblue" stroke="midnightblue" points="672.121,-230.084 674.139,-240.484 679.047,-231.095 672.121,-230.084"/>
</g>
<!-- Node7&#45;&gt;Node8 -->
<g id="edge7" class="edge"><title>Node7&#45;&gt;Node8</title>
<path fill="none" stroke="midnightblue" d="M856.316,-359.463C880.951,-356.343 913.428,-352.229 937.446,-349.187"/>
<polygon fill="midnightblue" stroke="midnightblue" points="855.767,-356.005 846.286,-360.734 856.646,-362.949 855.767,-356.005"/>
</g>
<!-- Node15&#45;&gt;Node12 -->
<g id="edge16" class="edge"><title>Node15&#45;&gt;Node12</title>
<path fill="none" stroke="midnightblue" d="M867.761,-72.9046C894.031,-83.4125 925.586,-96.0343 946.732,-104.493"/>
<polygon fill="midnightblue" stroke="midnightblue" points="868.936,-69.6048 858.351,-69.1405 866.336,-76.1042 868.936,-69.6048"/>
</g>
<!-- Node17&#45;&gt;Node3 -->
<g id="edge21" class="edge"><title>Node17&#45;&gt;Node3</title>
<path fill="none" stroke="midnightblue" d="M442.429,-245.562C496.85,-246.618 567.334,-247.987 615.556,-248.923"/>
<polygon fill="midnightblue" stroke="midnightblue" points="442.183,-242.056 432.117,-245.361 442.047,-249.055 442.183,-242.056"/>
</g>
<!-- Node18 -->
<g id="node18" class="node"><title>Node18</title>
<g id="a_node18"><a xlink:href="a00359.html#ga39453d084f3f780ac4602d4abf2839f7" target="_top" xlink:title="tds_process_default_tokens() is a catch all function that is called to process tokens not known to ot...">
<polygon fill="white" stroke="red" points="468,-191 468,-221 580,-221 580,-191 468,-191"/>
<text text-anchor="start" x="476" y="-209" font-family="Helvetica,sans-Serif" font-size="10.00">tds_process_default</text>
<text text-anchor="middle" x="524" y="-198" font-family="Helvetica,sans-Serif" font-size="10.00">_tokens</text>
</a>
</g>
</g>
<!-- Node17&#45;&gt;Node18 -->
<g id="edge19" class="edge"><title>Node17&#45;&gt;Node18</title>
<path fill="none" stroke="midnightblue" d="M435.552,-226.64C446.431,-224.072 457.481,-221.464 467.899,-219.005"/>
<polygon fill="midnightblue" stroke="midnightblue" points="434.56,-223.278 425.631,-228.981 436.168,-230.091 434.56,-223.278"/>
</g>
<!-- Node18&#45;&gt;Node3 -->
<g id="edge20" class="edge"><title>Node18&#45;&gt;Node3</title>
<path fill="none" stroke="midnightblue" d="M584.494,-223.93C603.229,-229.576 623.194,-235.593 639.218,-240.422"/>
<polygon fill="midnightblue" stroke="midnightblue" points="585.421,-220.554 574.837,-221.019 583.401,-227.256 585.421,-220.554"/>
</g>
</g>
</svg>
