<?xml version="1.0" encoding="UTF-8" standalone="no"?>
<!DOCTYPE svg PUBLIC "-//W3C//DTD SVG 1.1//EN"
 "http://www.w3.org/Graphics/SVG/1.1/DTD/svg11.dtd">
<!-- Generated by graphviz version 2.38.0 (20140413.2041)
 -->
<!-- Title: tds_bcp_start_copy_in Pages: 1 -->
<svg width="1119pt" height="368pt"
 viewBox="0.00 0.00 1119.00 367.73" xmlns="http://www.w3.org/2000/svg" xmlns:xlink="http://www.w3.org/1999/xlink">
<g id="graph0" class="graph" transform="scale(1 1) rotate(0) translate(4 363.727)">
<title>tds_bcp_start_copy_in</title>
<polygon fill="white" stroke="none" points="-4,4 -4,-363.727 1115,-363.727 1115,4 -4,4"/>
<!-- Node1 -->
<g id="node1" class="node"><title>Node1</title>
<polygon fill="#bfbfbf" stroke="black" points="0,-150.5 0,-169.5 123,-169.5 123,-150.5 0,-150.5"/>
<text text-anchor="middle" x="61.5" y="-157.5" font-family="Helvetica,sans-Serif" font-size="10.00">tds_bcp_start_copy_in</text>
</g>
<!-- Node2 -->
<g id="node2" class="node"><title>Node2</title>
<g id="a_node2"><a xlink:href="a00193.html#ab45c291105027e69836002e1dd586141" target="_top" xlink:title="Write a message to the debug log. ">
<polygon fill="white" stroke="black" points="1034,-171.5 1034,-190.5 1111,-190.5 1111,-171.5 1034,-171.5"/>
<text text-anchor="middle" x="1072.5" y="-178.5" font-family="Helvetica,sans-Serif" font-size="10.00">tdsdump_log</text>
</a>
</g>
</g>
<!-- Node1&#45;&gt;Node2 -->
<g id="edge1" class="edge"><title>Node1&#45;&gt;Node2</title>
<path fill="none" stroke="midnightblue" d="M70.692,-169.521C104.989,-208.263 242.007,-352 387,-352 387,-352 387,-352 741,-352 856.217,-352 903.231,-383.527 998,-318 1038.93,-289.699 1059.03,-231.109 1067.07,-200.533"/>
<polygon fill="midnightblue" stroke="midnightblue" points="1070.51,-201.19 1069.5,-190.644 1063.72,-199.517 1070.51,-201.19"/>
</g>
<!-- Node3 -->
<g id="node3" class="node"><title>Node3</title>
<g id="a_node3"><a xlink:href="a00294.html#ab4d7e5309152f54613d52c8469a07fd8" target="_top" xlink:title="Prepare the query to be sent to server to request BCP information. ">
<polygon fill="white" stroke="black" points="159,-180.5 159,-199.5 297,-199.5 297,-180.5 159,-180.5"/>
<text text-anchor="middle" x="228" y="-187.5" font-family="Helvetica,sans-Serif" font-size="10.00">tds_bcp_start_insert_stmt</text>
</a>
</g>
</g>
<!-- Node1&#45;&gt;Node3 -->
<g id="edge2" class="edge"><title>Node1&#45;&gt;Node3</title>
<path fill="none" stroke="midnightblue" d="M115.001,-169.575C130.808,-172.457 148.309,-175.649 164.688,-178.636"/>
<polygon fill="midnightblue" stroke="midnightblue" points="164.25,-182.114 174.715,-180.465 165.506,-175.227 164.25,-182.114"/>
</g>
<!-- Node8 -->
<g id="node8" class="node"><title>Node8</title>
<g id="a_node8"><a xlink:href="a00294.html#a8208eef2a3974ae1f0cf3c8c8ab011ce" target="_top" xlink:title="Start sending BCP data to server. ">
<polygon fill="white" stroke="black" points="188,-120.5 188,-139.5 268,-139.5 268,-120.5 188,-120.5"/>
<text text-anchor="middle" x="228" y="-127.5" font-family="Helvetica,sans-Serif" font-size="10.00">tds_bcp_start</text>
</a>
</g>
</g>
<!-- Node1&#45;&gt;Node8 -->
<g id="edge10" class="edge"><title>Node1&#45;&gt;Node8</title>
<path fill="none" stroke="midnightblue" d="M115.001,-150.425C135.099,-146.76 157.935,-142.595 177.721,-138.987"/>
<polygon fill="midnightblue" stroke="midnightblue" points="178.549,-142.394 187.759,-137.156 177.293,-135.507 178.549,-142.394"/>
</g>
<!-- Node16 -->
<g id="node16" class="node"><title>Node16</title>
<g id="a_node16"><a xlink:href="a00294.html#a7c4f2b050cd1a747604aa305d6877de7" target="_top" xlink:title="Free row data allocated in the result set. ">
<polygon fill="white" stroke="black" points="177.5,-82.5 177.5,-101.5 278.5,-101.5 278.5,-82.5 177.5,-82.5"/>
<text text-anchor="middle" x="228" y="-89.5" font-family="Helvetica,sans-Serif" font-size="10.00">tds_bcp_row_free</text>
</a>
</g>
</g>
<!-- Node1&#45;&gt;Node16 -->
<g id="edge27" class="edge"><title>Node1&#45;&gt;Node16</title>
<path fill="none" stroke="midnightblue" d="M78.7777,-150.477C97.6019,-139.765 129.758,-122.381 159,-111 164.997,-108.666 171.394,-106.49 177.775,-104.506"/>
<polygon fill="midnightblue" stroke="midnightblue" points="179.14,-107.752 187.73,-101.55 177.147,-101.041 179.14,-107.752"/>
</g>
<!-- Node4 -->
<g id="node4" class="node"><title>Node4</title>
<g id="a_node4"><a xlink:href="a00294.html#a3118c7232bc9c3e47f8ba872bb39e967" target="_top" xlink:title="Help to build query to be sent to server. ">
<polygon fill="white" stroke="black" points="667,-228.5 667,-247.5 813,-247.5 813,-228.5 667,-228.5"/>
<text text-anchor="middle" x="740" y="-235.5" font-family="Helvetica,sans-Serif" font-size="10.00">tds7_build_bulk_insert_stmt</text>
</a>
</g>
</g>
<!-- Node3&#45;&gt;Node4 -->
<g id="edge3" class="edge"><title>Node3&#45;&gt;Node4</title>
<path fill="none" stroke="midnightblue" d="M297.252,-196.424C390.278,-205.179 556.704,-220.843 656.579,-230.243"/>
<polygon fill="midnightblue" stroke="midnightblue" points="656.344,-233.736 666.628,-231.189 657,-226.767 656.344,-233.736"/>
</g>
<!-- Node4&#45;&gt;Node2 -->
<g id="edge4" class="edge"><title>Node4&#45;&gt;Node2</title>
<path fill="none" stroke="midnightblue" d="M754.11,-247.662C773.612,-261.372 811.957,-285.825 849,-295 913.28,-310.922 939.855,-326.694 998,-295 1034.89,-274.891 1056.06,-227.438 1065.5,-200.524"/>
<polygon fill="midnightblue" stroke="midnightblue" points="1068.94,-201.287 1068.75,-190.694 1062.29,-199.092 1068.94,-201.287"/>
</g>
<!-- Node5 -->
<g id="node5" class="node"><title>Node5</title>
<g id="a_node5"><a xlink:href="a00356.html#ga50d62edeb2a432e2dc668263f3f958ff" target="_top" xlink:title="Return declaration for column (like &quot;varchar(20)&quot;) ">
<polygon fill="white" stroke="red" points="849,-228.5 849,-247.5 998,-247.5 998,-228.5 849,-228.5"/>
<text text-anchor="middle" x="923.5" y="-235.5" font-family="Helvetica,sans-Serif" font-size="10.00">tds_get_column_declaration</text>
</a>
</g>
</g>
<!-- Node4&#45;&gt;Node5 -->
<g id="edge5" class="edge"><title>Node4&#45;&gt;Node5</title>
<path fill="none" stroke="midnightblue" d="M813.255,-238C821.548,-238 830.057,-238 838.487,-238"/>
<polygon fill="midnightblue" stroke="midnightblue" points="838.712,-241.5 848.712,-238 838.712,-234.5 838.712,-241.5"/>
</g>
<!-- Node6 -->
<g id="node6" class="node"><title>Node6</title>
<g id="a_node6"><a xlink:href="a00193.html#abf18b98efef6ce2dc0b97d658a3a1918" target="_top" xlink:title="Call the client library&#39;s error handler (for library&#45;generated errors only) ">
<polygon fill="white" stroke="red" points="896.5,-190.5 896.5,-209.5 950.5,-209.5 950.5,-190.5 896.5,-190.5"/>
<text text-anchor="middle" x="923.5" y="-197.5" font-family="Helvetica,sans-Serif" font-size="10.00">tdserror</text>
</a>
</g>
</g>
<!-- Node4&#45;&gt;Node6 -->
<g id="edge7" class="edge"><title>Node4&#45;&gt;Node6</title>
<path fill="none" stroke="midnightblue" d="M786.8,-228.411C817.665,-221.949 857.81,-213.544 886.411,-207.556"/>
<polygon fill="midnightblue" stroke="midnightblue" points="887.316,-210.942 896.387,-205.467 885.882,-204.091 887.316,-210.942"/>
</g>
<!-- Node7 -->
<g id="node7" class="node"><title>Node7</title>
<g id="a_node7"><a xlink:href="a00356.html#ga8d8f2f1c91635ee95f30722208ae3043" target="_top" xlink:title="Quote an id. ">
<polygon fill="white" stroke="red" points="885,-266.5 885,-285.5 962,-285.5 962,-266.5 885,-266.5"/>
<text text-anchor="middle" x="923.5" y="-273.5" font-family="Helvetica,sans-Serif" font-size="10.00">tds_quote_id</text>
</a>
</g>
</g>
<!-- Node4&#45;&gt;Node7 -->
<g id="edge9" class="edge"><title>Node4&#45;&gt;Node7</title>
<path fill="none" stroke="midnightblue" d="M786.8,-247.589C813.712,-253.223 847.678,-260.335 874.896,-266.033"/>
<polygon fill="midnightblue" stroke="midnightblue" points="874.464,-269.519 884.969,-268.142 875.898,-262.667 874.464,-269.519"/>
</g>
<!-- Node5&#45;&gt;Node2 -->
<g id="edge6" class="edge"><title>Node5&#45;&gt;Node2</title>
<path fill="none" stroke="midnightblue" d="M968.147,-228.437C978.094,-225.786 988.52,-222.623 998,-219 1014.79,-212.583 1032.73,-203.361 1046.68,-195.609"/>
<polygon fill="midnightblue" stroke="midnightblue" points="1048.66,-198.506 1055.63,-190.529 1045.21,-192.417 1048.66,-198.506"/>
</g>
<!-- Node6&#45;&gt;Node2 -->
<g id="edge8" class="edge"><title>Node6&#45;&gt;Node2</title>
<path fill="none" stroke="midnightblue" d="M950.781,-196.603C971.013,-193.988 999.525,-190.303 1023.76,-187.171"/>
<polygon fill="midnightblue" stroke="midnightblue" points="1024.38,-190.62 1033.85,-185.867 1023.48,-183.678 1024.38,-190.62"/>
</g>
<!-- Node8&#45;&gt;Node2 -->
<g id="edge11" class="edge"><title>Node8&#45;&gt;Node2</title>
<path fill="none" stroke="midnightblue" d="M261.468,-139.583C281.821,-145.144 308.713,-151.688 333,-155 467.087,-173.288 881.72,-179.091 1023.44,-180.567"/>
<polygon fill="midnightblue" stroke="midnightblue" points="1023.52,-184.068 1033.56,-180.67 1023.59,-177.068 1023.52,-184.068"/>
</g>
<!-- Node9 -->
<g id="node9" class="node"><title>Node9</title>
<g id="a_node9"><a xlink:href="a00356.html#ga5a29ae7f99d089dc3cea85ec6ee5f3ab" target="_top" xlink:title="tds_submit_query() sends a language string to the database server for processing. ...">
<polygon fill="white" stroke="black" points="339,-76.5 339,-95.5 437,-95.5 437,-76.5 339,-76.5"/>
<text text-anchor="middle" x="388" y="-83.5" font-family="Helvetica,sans-Serif" font-size="10.00">tds_submit_query</text>
</a>
</g>
</g>
<!-- Node8&#45;&gt;Node9 -->
<g id="edge12" class="edge"><title>Node8&#45;&gt;Node9</title>
<path fill="none" stroke="midnightblue" d="M263.284,-120.453C286.68,-113.937 317.878,-105.249 343.091,-98.2278"/>
<polygon fill="midnightblue" stroke="midnightblue" points="344.089,-101.583 352.783,-95.5287 342.211,-94.8398 344.089,-101.583"/>
</g>
<!-- Node11 -->
<g id="node11" class="node"><title>Node11</title>
<g id="a_node11"><a xlink:href="a00193.html#a16db200d2281f76fe46fc1cbe37ca9df" target="_top" xlink:title="Set state of TDS connection, with logging and checking. ">
<polygon fill="white" stroke="black" points="700,-76.5 700,-95.5 780,-95.5 780,-76.5 700,-76.5"/>
<text text-anchor="middle" x="740" y="-83.5" font-family="Helvetica,sans-Serif" font-size="10.00">tds_set_state</text>
</a>
</g>
</g>
<!-- Node8&#45;&gt;Node11 -->
<g id="edge22" class="edge"><title>Node8&#45;&gt;Node11</title>
<path fill="none" stroke="midnightblue" d="M268.168,-123.422C278.096,-120.614 288.38,-116.632 297,-111 318.152,-97.1792 310.167,-77.8201 333,-67 452.686,-10.2833 499.057,-55.4824 631,-67 650.443,-68.6972 671.633,-72.082 690.053,-75.5306"/>
<polygon fill="midnightblue" stroke="midnightblue" points="689.491,-78.9866 699.973,-77.4427 690.816,-72.1132 689.491,-78.9866"/>
</g>
<!-- Node13 -->
<g id="node13" class="node"><title>Node13</title>
<g id="a_node13"><a xlink:href="a00359.html#gaeeb1562044786ea17bea361ed83e6946" target="_top" xlink:title="Process results for simple query as &quot;SET TEXTSIZE&quot; or &quot;USE dbname&quot; If the statement returns results...">
<polygon fill="white" stroke="black" points="333,-115 333,-145 443,-145 443,-115 333,-115"/>
<text text-anchor="start" x="341" y="-133" font-family="Helvetica,sans-Serif" font-size="10.00">tds_process_simple</text>
<text text-anchor="middle" x="388" y="-122" font-family="Helvetica,sans-Serif" font-size="10.00">_query</text>
</a>
</g>
</g>
<!-- Node8&#45;&gt;Node13 -->
<g id="edge18" class="edge"><title>Node8&#45;&gt;Node13</title>
<path fill="none" stroke="midnightblue" d="M268.056,-130C284.557,-130 304.212,-130 322.745,-130"/>
<polygon fill="midnightblue" stroke="midnightblue" points="322.898,-133.5 332.898,-130 322.898,-126.5 322.898,-133.5"/>
</g>
<!-- Node15 -->
<g id="node15" class="node"><title>Node15</title>
<g id="a_node15"><a xlink:href="a00294.html#a4daaa551e54dbd978650e2eef89e09ff" target="_top" xlink:title="Send BCP metadata to server. ">
<polygon fill="white" stroke="black" points="479,-0.5 479,-19.5 631,-19.5 631,-0.5 479,-0.5"/>
<text text-anchor="middle" x="555" y="-7.5" font-family="Helvetica,sans-Serif" font-size="10.00">tds7_bcp_send_colmetadata</text>
</a>
</g>
</g>
<!-- Node8&#45;&gt;Node15 -->
<g id="edge23" class="edge"><title>Node8&#45;&gt;Node15</title>
<path fill="none" stroke="midnightblue" d="M268.14,-125.105C278.404,-122.297 288.864,-117.894 297,-111 325.822,-86.5774 302.271,-55.9753 333,-34 371.734,-6.29939 424.471,0.274027 468.713,-0.348853"/>
<polygon fill="midnightblue" stroke="midnightblue" points="468.797,-3.85222 478.886,-0.618819 468.983,3.14531 468.797,-3.85222"/>
</g>
<!-- Node10 -->
<g id="node10" class="node"><title>Node10</title>
<g id="a_node10"><a xlink:href="a00356.html#ga95e0fccedc459a4404f496eec74a369a" target="_top" xlink:title="tds_submit_query_params() sends a language string to the database server for processing. ">
<polygon fill="white" stroke="red" points="485,-76.5 485,-95.5 625,-95.5 625,-76.5 485,-76.5"/>
<text text-anchor="middle" x="555" y="-83.5" font-family="Helvetica,sans-Serif" font-size="10.00">tds_submit_query_params</text>
</a>
</g>
</g>
<!-- Node9&#45;&gt;Node10 -->
<g id="edge13" class="edge"><title>Node9&#45;&gt;Node10</title>
<path fill="none" stroke="midnightblue" d="M437.168,-86C448.952,-86 461.873,-86 474.692,-86"/>
<polygon fill="midnightblue" stroke="midnightblue" points="474.926,-89.5001 484.926,-86 474.926,-82.5001 474.926,-89.5001"/>
</g>
<!-- Node10&#45;&gt;Node11 -->
<g id="edge14" class="edge"><title>Node10&#45;&gt;Node11</title>
<path fill="none" stroke="midnightblue" d="M625.184,-86C646.732,-86 670.039,-86 689.916,-86"/>
<polygon fill="midnightblue" stroke="midnightblue" points="689.97,-89.5001 699.97,-86 689.97,-82.5001 689.97,-89.5001"/>
</g>
<!-- Node12 -->
<g id="node12" class="node"><title>Node12</title>
<g id="a_node12"><a xlink:href="a00357.html#ga1fcaf8d488cc1390f106ce3ad0bf37b4" target="_top" xlink:title="Output a string to wire automatic translate string to unicode if needed. ">
<polygon fill="white" stroke="red" points="698.5,-38.5 698.5,-57.5 781.5,-57.5 781.5,-38.5 698.5,-38.5"/>
<text text-anchor="middle" x="740" y="-45.5" font-family="Helvetica,sans-Serif" font-size="10.00">tds_put_string</text>
</a>
</g>
</g>
<!-- Node10&#45;&gt;Node12 -->
<g id="edge17" class="edge"><title>Node10&#45;&gt;Node12</title>
<path fill="none" stroke="midnightblue" d="M602.179,-76.411C628.467,-70.9521 661.434,-64.1066 688.42,-58.503"/>
<polygon fill="midnightblue" stroke="midnightblue" points="689.364,-61.8818 698.443,-56.4216 687.94,-55.028 689.364,-61.8818"/>
</g>
<!-- Node11&#45;&gt;Node2 -->
<g id="edge15" class="edge"><title>Node11&#45;&gt;Node2</title>
<path fill="none" stroke="midnightblue" d="M780.055,-81.8887C832.271,-78.0747 926.534,-77.1716 998,-110 1023.67,-121.793 1045.85,-146.387 1058.94,-163.293"/>
<polygon fill="midnightblue" stroke="midnightblue" points="1056.15,-165.401 1064.93,-171.325 1061.76,-161.216 1056.15,-165.401"/>
</g>
<!-- Node11&#45;&gt;Node6 -->
<g id="edge16" class="edge"><title>Node11&#45;&gt;Node6</title>
<path fill="none" stroke="midnightblue" d="M756.162,-95.5235C787.658,-115.306 860.386,-160.986 898.386,-184.854"/>
<polygon fill="midnightblue" stroke="midnightblue" points="896.923,-188.068 907.253,-190.423 900.647,-182.141 896.923,-188.068"/>
</g>
<!-- Node14 -->
<g id="node14" class="node"><title>Node14</title>
<g id="a_node14"><a xlink:href="a00359.html#gabfc9de1d1fe718818caf63a4be4035a6" target="_top" xlink:title="process all streams. ">
<polygon fill="white" stroke="red" points="499,-114.5 499,-133.5 611,-133.5 611,-114.5 499,-114.5"/>
<text text-anchor="middle" x="555" y="-121.5" font-family="Helvetica,sans-Serif" font-size="10.00">tds_process_tokens</text>
</a>
</g>
</g>
<!-- Node13&#45;&gt;Node14 -->
<g id="edge19" class="edge"><title>Node13&#45;&gt;Node14</title>
<path fill="none" stroke="midnightblue" d="M443.027,-128.035C457.536,-127.508 473.385,-126.931 488.446,-126.384"/>
<polygon fill="midnightblue" stroke="midnightblue" points="488.854,-129.871 498.72,-126.01 488.6,-122.876 488.854,-129.871"/>
</g>
<!-- Node14&#45;&gt;Node2 -->
<g id="edge20" class="edge"><title>Node14&#45;&gt;Node2</title>
<path fill="none" stroke="midnightblue" d="M611.026,-120.602C695.565,-116.801 861.895,-114.963 998,-148 1014.68,-152.048 1032.25,-159.795 1046.03,-166.767"/>
<polygon fill="midnightblue" stroke="midnightblue" points="1044.42,-169.876 1054.91,-171.414 1047.67,-163.675 1044.42,-169.876"/>
</g>
<!-- Node14&#45;&gt;Node11 -->
<g id="edge21" class="edge"><title>Node14&#45;&gt;Node11</title>
<path fill="none" stroke="midnightblue" d="M602.179,-114.411C628.937,-108.855 662.613,-101.862 689.86,-96.204"/>
<polygon fill="midnightblue" stroke="midnightblue" points="690.88,-99.5669 699.959,-94.1068 689.457,-92.7131 690.88,-99.5669"/>
</g>
<!-- Node15&#45;&gt;Node2 -->
<g id="edge24" class="edge"><title>Node15&#45;&gt;Node2</title>
<path fill="none" stroke="midnightblue" d="M631.242,-2.44074C725.463,3.07446 887.86,-0.884479 998,-77 1029.37,-98.6801 1051.83,-138.355 1063.15,-161.936"/>
<polygon fill="midnightblue" stroke="midnightblue" points="1060.07,-163.619 1067.44,-171.236 1066.43,-160.689 1060.07,-163.619"/>
</g>
<!-- Node15&#45;&gt;Node11 -->
<g id="edge25" class="edge"><title>Node15&#45;&gt;Node11</title>
<path fill="none" stroke="midnightblue" d="M596.673,-19.5179C608.205,-23.1313 620.476,-27.8928 631,-34 649.773,-44.8944 647.952,-56.5945 667,-67 674.179,-70.9215 682.207,-74.0652 690.227,-76.576"/>
<polygon fill="midnightblue" stroke="midnightblue" points="689.371,-79.9714 699.947,-79.3346 691.282,-73.2373 689.371,-79.9714"/>
</g>
<!-- Node15&#45;&gt;Node12 -->
<g id="edge26" class="edge"><title>Node15&#45;&gt;Node12</title>
<path fill="none" stroke="midnightblue" d="M602.179,-19.589C628.467,-25.0479 661.434,-31.8934 688.42,-37.497"/>
<polygon fill="midnightblue" stroke="midnightblue" points="687.94,-40.972 698.443,-39.5784 689.364,-34.1182 687.94,-40.972"/>
</g>
</g>
</svg>
