<?xml version="1.0" encoding="UTF-8" standalone="no"?>
<!DOCTYPE svg PUBLIC "-//W3C//DTD SVG 1.1//EN"
 "http://www.w3.org/Graphics/SVG/1.1/DTD/svg11.dtd">
<!-- Generated by graphviz version 2.38.0 (20140413.2041)
 -->
<!-- Title: tds_set_column_type Pages: 1 -->
<svg width="1115pt" height="530pt"
 viewBox="0.00 0.00 1115.00 530.43" xmlns="http://www.w3.org/2000/svg" xmlns:xlink="http://www.w3.org/1999/xlink">
<g id="graph0" class="graph" transform="scale(1 1) rotate(0) translate(4 526.426)">
<title>tds_set_column_type</title>
<polygon fill="white" stroke="none" points="-4,4 -4,-526.426 1111,-526.426 1111,4 -4,4"/>
<!-- Node1 -->
<g id="node1" class="node"><title>Node1</title>
<polygon fill="#bfbfbf" stroke="black" points="0,-350.926 0,-369.926 116,-369.926 116,-350.926 0,-350.926"/>
<text text-anchor="middle" x="58" y="-357.926" font-family="Helvetica,sans-Serif" font-size="10.00">tds_set_column_type</text>
</g>
<!-- Node2 -->
<g id="node2" class="node"><title>Node2</title>
<g id="a_node2"><a xlink:href="a00193.html#a86768d86059c5addf9a3f89edb1ef44e" target="_top" xlink:title="Set type of column initializing all dependency. ">
<polygon fill="white" stroke="black" points="152,-502.926 152,-521.926 265,-521.926 265,-502.926 152,-502.926"/>
<text text-anchor="middle" x="208.5" y="-509.926" font-family="Helvetica,sans-Serif" font-size="10.00">tds_set_param_type</text>
</a>
</g>
</g>
<!-- Node1&#45;&gt;Node2 -->
<g id="edge1" class="edge"><title>Node1&#45;&gt;Node2</title>
<path fill="none" stroke="midnightblue" d="M68.3264,-379.037C82.8406,-406.343 113.238,-457.381 152,-488.426 159.456,-494.398 168.624,-499.157 177.345,-502.811"/>
<polygon fill="midnightblue" stroke="midnightblue" points="71.4201,-377.4 63.7116,-370.131 65.205,-380.62 71.4201,-377.4"/>
</g>
<!-- Node3 -->
<g id="node3" class="node"><title>Node3</title>
<g id="a_node3"><a xlink:href="a00359.html#ga4e3dd9d3614f5f0433b78b761dd68741" target="_top" xlink:title="tds_process_col_fmt() is the other half of result set processing under TDS 4.2. ">
<polygon fill="white" stroke="black" points="493,-274.926 493,-293.926 607,-293.926 607,-274.926 493,-274.926"/>
<text text-anchor="middle" x="550" y="-281.926" font-family="Helvetica,sans-Serif" font-size="10.00">tds_process_col_fmt</text>
</a>
</g>
</g>
<!-- Node1&#45;&gt;Node3 -->
<g id="edge2" class="edge"><title>Node1&#45;&gt;Node3</title>
<path fill="none" stroke="midnightblue" d="M112.935,-348.847C125.715,-346.259 139.317,-343.63 152,-341.426 273.083,-320.384 415.916,-301.262 492.952,-291.415"/>
<polygon fill="midnightblue" stroke="midnightblue" points="111.989,-345.468 102.896,-350.905 113.395,-352.325 111.989,-345.468"/>
</g>
<!-- Node8 -->
<g id="node8" class="node"><title>Node8</title>
<g id="a_node8"><a xlink:href="a00359.html#gae3368ea80d0d8b13791ceb13ee5f19c9" target="_top" xlink:title="tds_process_compute_result() processes compute result sets. ">
<polygon fill="white" stroke="black" points="660,-476.426 660,-506.426 780,-506.426 780,-476.426 660,-476.426"/>
<text text-anchor="start" x="668" y="-494.426" font-family="Helvetica,sans-Serif" font-size="10.00">tds_process_compute</text>
<text text-anchor="middle" x="720" y="-483.426" font-family="Helvetica,sans-Serif" font-size="10.00">_result</text>
</a>
</g>
</g>
<!-- Node1&#45;&gt;Node8 -->
<g id="edge10" class="edge"><title>Node1&#45;&gt;Node8</title>
<path fill="none" stroke="midnightblue" d="M90.1175,-373.854C107.954,-381.114 130.922,-389.732 152,-395.426 333.924,-444.57 555.813,-473.433 659.837,-485.206"/>
<polygon fill="midnightblue" stroke="midnightblue" points="91.3589,-370.58 80.7806,-369.988 88.6809,-377.048 91.3589,-370.58"/>
</g>
<!-- Node9 -->
<g id="node9" class="node"><title>Node9</title>
<g id="a_node9"><a xlink:href="a00359.html#ga07cee55fd522cca16fb59b7a8f0b1376" target="_top" xlink:title="Reads data information from wire. ">
<polygon fill="white" stroke="black" points="318,-388.926 318,-407.926 426,-407.926 426,-388.926 318,-388.926"/>
<text text-anchor="middle" x="372" y="-395.926" font-family="Helvetica,sans-Serif" font-size="10.00">tds7_get_data_info</text>
</a>
</g>
</g>
<!-- Node1&#45;&gt;Node9 -->
<g id="edge12" class="edge"><title>Node1&#45;&gt;Node9</title>
<path fill="none" stroke="midnightblue" d="M126.134,-370.861C134.829,-372.116 143.621,-373.337 152,-374.426 208.515,-381.774 273.431,-388.699 317.824,-393.204"/>
<polygon fill="midnightblue" stroke="midnightblue" points="126.403,-367.363 116.001,-369.378 125.389,-374.289 126.403,-367.363"/>
</g>
<!-- Node12 -->
<g id="node12" class="node"><title>Node12</title>
<g id="a_node12"><a xlink:href="a00359.html#gad9b6b86f48be077fb44ac603845a0c27" target="_top" xlink:title="Reads data metadata from wire. ">
<polygon fill="white" stroke="black" points="157.5,-163.926 157.5,-182.926 259.5,-182.926 259.5,-163.926 157.5,-163.926"/>
<text text-anchor="middle" x="208.5" y="-170.926" font-family="Helvetica,sans-Serif" font-size="10.00">tds_get_data_info</text>
</a>
</g>
</g>
<!-- Node1&#45;&gt;Node12 -->
<g id="edge18" class="edge"><title>Node1&#45;&gt;Node12</title>
<path fill="none" stroke="midnightblue" d="M73.118,-342.648C103.863,-303.932 176.018,-213.071 199.769,-183.162"/>
<polygon fill="midnightblue" stroke="midnightblue" points="70.0463,-340.888 66.5683,-350.896 75.528,-345.241 70.0463,-340.888"/>
</g>
<!-- Node17 -->
<g id="node17" class="node"><title>Node17</title>
<g id="a_node17"><a xlink:href="a00359.html#ga547b2f48659f77a69aa802d861ac827d" target="_top" xlink:title="tds5_process_result() is the new TDS 5.0 result set processing routine. ">
<polygon fill="white" stroke="black" points="494,-350.926 494,-369.926 606,-369.926 606,-350.926 494,-350.926"/>
<text text-anchor="middle" x="550" y="-357.926" font-family="Helvetica,sans-Serif" font-size="10.00">tds5_process_result</text>
</a>
</g>
</g>
<!-- Node1&#45;&gt;Node17 -->
<g id="edge30" class="edge"><title>Node1&#45;&gt;Node17</title>
<path fill="none" stroke="midnightblue" d="M126.223,-360.426C223.895,-360.426 403.227,-360.426 493.699,-360.426"/>
<polygon fill="midnightblue" stroke="midnightblue" points="126.168,-356.926 116.168,-360.426 126.168,-363.926 126.168,-356.926"/>
</g>
<!-- Node18 -->
<g id="node18" class="node"><title>Node18</title>
<g id="a_node18"><a xlink:href="a00359.html#gae688b515631141acfbc41bbb91c8b921" target="_top" xlink:title="Process new TDS 5.0 token for describing output parameters. ">
<polygon fill="white" stroke="black" points="479.5,-312.926 479.5,-331.926 620.5,-331.926 620.5,-312.926 479.5,-312.926"/>
<text text-anchor="middle" x="550" y="-319.926" font-family="Helvetica,sans-Serif" font-size="10.00">tds5_process_dyn_result2</text>
</a>
</g>
</g>
<!-- Node1&#45;&gt;Node18 -->
<g id="edge33" class="edge"><title>Node1&#45;&gt;Node18</title>
<path fill="none" stroke="midnightblue" d="M126.277,-355.209C218.983,-348.019 385.185,-335.13 479.203,-327.839"/>
<polygon fill="midnightblue" stroke="midnightblue" points="125.868,-351.73 116.168,-355.993 126.409,-358.709 125.868,-351.73"/>
</g>
<!-- Node4 -->
<g id="node4" class="node"><title>Node4</title>
<g id="a_node4"><a xlink:href="a00359.html#ga39453d084f3f780ac4602d4abf2839f7" target="_top" xlink:title="tds_process_default_tokens() is a catch all function that is called to process tokens not known to ot...">
<polygon fill="white" stroke="black" points="664,-193.426 664,-223.426 776,-223.426 776,-193.426 664,-193.426"/>
<text text-anchor="start" x="672" y="-211.426" font-family="Helvetica,sans-Serif" font-size="10.00">tds_process_default</text>
<text text-anchor="middle" x="720" y="-200.426" font-family="Helvetica,sans-Serif" font-size="10.00">_tokens</text>
</a>
</g>
</g>
<!-- Node3&#45;&gt;Node4 -->
<g id="edge3" class="edge"><title>Node3&#45;&gt;Node4</title>
<path fill="none" stroke="midnightblue" d="M581.649,-270.561C611.096,-257.24 655.465,-237.168 685.752,-223.467"/>
<polygon fill="midnightblue" stroke="midnightblue" points="579.946,-267.49 572.277,-274.801 582.831,-273.868 579.946,-267.49"/>
</g>
<!-- Node6 -->
<g id="node6" class="node"><title>Node6</title>
<g id="a_node6"><a xlink:href="a00359.html#gabfc9de1d1fe718818caf63a4be4035a6" target="_top" xlink:title="process all streams. ">
<polygon fill="white" stroke="red" points="995,-236.926 995,-255.926 1107,-255.926 1107,-236.926 995,-236.926"/>
<text text-anchor="middle" x="1051" y="-243.926" font-family="Helvetica,sans-Serif" font-size="10.00">tds_process_tokens</text>
</a>
</g>
</g>
<!-- Node3&#45;&gt;Node6 -->
<g id="edge9" class="edge"><title>Node3&#45;&gt;Node6</title>
<path fill="none" stroke="midnightblue" d="M617.053,-284.575C697.971,-284.016 839.088,-280.638 959,-265.426 976.292,-263.233 995.19,-259.508 1011.26,-255.935"/>
<polygon fill="midnightblue" stroke="midnightblue" points="616.987,-281.075 607.008,-284.632 617.027,-288.075 616.987,-281.075"/>
</g>
<!-- Node5 -->
<g id="node5" class="node"><title>Node5</title>
<g id="a_node5"><a xlink:href="a00359.html#ga93945b42d45ee28ae1296b35a1c1e9bb" target="_top" xlink:title="tds_process_login_tokens() is called after sending the login packet to the server. ">
<polygon fill="white" stroke="black" points="819,-236.926 819,-255.926 959,-255.926 959,-236.926 819,-236.926"/>
<text text-anchor="middle" x="889" y="-243.926" font-family="Helvetica,sans-Serif" font-size="10.00">tds_process_login_tokens</text>
</a>
</g>
</g>
<!-- Node4&#45;&gt;Node5 -->
<g id="edge4" class="edge"><title>Node4&#45;&gt;Node5</title>
<path fill="none" stroke="midnightblue" d="M785.932,-223.201C806.165,-227.805 827.929,-232.757 846.142,-236.902"/>
<polygon fill="midnightblue" stroke="midnightblue" points="786.672,-219.78 776.145,-220.974 785.119,-226.606 786.672,-219.78"/>
</g>
<!-- Node4&#45;&gt;Node6 -->
<g id="edge5" class="edge"><title>Node4&#45;&gt;Node6</title>
<path fill="none" stroke="midnightblue" d="M786.29,-211.415C834.251,-214.15 900.899,-219.076 959,-227.426 975.774,-229.837 994.097,-233.467 1009.88,-236.91"/>
<polygon fill="midnightblue" stroke="midnightblue" points="786.224,-207.906 776.046,-210.848 785.837,-214.895 786.224,-207.906"/>
</g>
<!-- Node7 -->
<g id="node7" class="node"><title>Node7</title>
<g id="a_node7"><a xlink:href="a00359.html#ga81cdf0ed9e8d29cf1ddf66e18efc407d" target="_top" xlink:title="tds_process_msg() is called for MSG, ERR, or EED tokens and is responsible for calling the CLI&#39;s mess...">
<polygon fill="white" stroke="black" points="839,-160.926 839,-179.926 939,-179.926 939,-160.926 839,-160.926"/>
<text text-anchor="middle" x="889" y="-167.926" font-family="Helvetica,sans-Serif" font-size="10.00">tds_process_msg</text>
</a>
</g>
</g>
<!-- Node4&#45;&gt;Node7 -->
<g id="edge6" class="edge"><title>Node4&#45;&gt;Node7</title>
<path fill="none" stroke="midnightblue" d="M771.284,-190.733C792.641,-185.198 817.462,-179.561 838.71,-175.423"/>
<polygon fill="midnightblue" stroke="midnightblue" points="770.194,-187.401 761.426,-193.349 771.989,-194.167 770.194,-187.401"/>
</g>
<!-- Node7&#45;&gt;Node4 -->
<g id="edge7" class="edge"><title>Node7&#45;&gt;Node4</title>
<path fill="none" stroke="midnightblue" d="M856.952,-182.881C834.304,-189.407 803.004,-196.863 776.145,-202.27"/>
<polygon fill="midnightblue" stroke="midnightblue" points="858.128,-186.182 866.702,-179.958 856.118,-179.477 858.128,-186.182"/>
</g>
<!-- Node7&#45;&gt;Node6 -->
<g id="edge8" class="edge"><title>Node7&#45;&gt;Node6</title>
<path fill="none" stroke="midnightblue" d="M930.922,-183.263C940.279,-186.581 950.089,-190.372 959,-194.426 986.991,-207.16 1017.68,-225.743 1035.31,-236.903"/>
<polygon fill="midnightblue" stroke="midnightblue" points="931.986,-179.928 921.391,-179.985 929.709,-186.547 931.986,-179.928"/>
</g>
<!-- Node8&#45;&gt;Node6 -->
<g id="edge11" class="edge"><title>Node8&#45;&gt;Node6</title>
<path fill="none" stroke="midnightblue" d="M790.3,-494.232C841.879,-492.779 911.318,-482.925 959,-445.426 1023.2,-394.936 1043.75,-288.891 1048.69,-256.219"/>
<polygon fill="midnightblue" stroke="midnightblue" points="790.168,-490.734 780.234,-494.416 790.296,-497.732 790.168,-490.734"/>
</g>
<!-- Node10 -->
<g id="node10" class="node"><title>Node10</title>
<g id="a_node10"><a xlink:href="a00359.html#gaca56fc22d65a24a96d1bef310ade73aa" target="_top" xlink:title="tds7_process_result() is the TDS 7.0 result set processing routine. ">
<polygon fill="white" stroke="black" points="494,-388.926 494,-407.926 606,-407.926 606,-388.926 494,-388.926"/>
<text text-anchor="middle" x="550" y="-395.926" font-family="Helvetica,sans-Serif" font-size="10.00">tds7_process_result</text>
</a>
</g>
</g>
<!-- Node9&#45;&gt;Node10 -->
<g id="edge13" class="edge"><title>Node9&#45;&gt;Node10</title>
<path fill="none" stroke="midnightblue" d="M436.504,-398.426C455.242,-398.426 475.591,-398.426 493.764,-398.426"/>
<polygon fill="midnightblue" stroke="midnightblue" points="436.283,-394.926 426.283,-398.426 436.283,-401.926 436.283,-394.926"/>
</g>
<!-- Node11 -->
<g id="node11" class="node"><title>Node11</title>
<g id="a_node11"><a xlink:href="a00359.html#ga6728e344caa20aea1def85f58dea138b" target="_top" xlink:title="tds7_process_compute_result() processes compute result sets for TDS 7/8. ">
<polygon fill="white" stroke="black" points="657,-427.426 657,-457.426 783,-457.426 783,-427.426 657,-427.426"/>
<text text-anchor="start" x="665" y="-445.426" font-family="Helvetica,sans-Serif" font-size="10.00">tds7_process_compute</text>
<text text-anchor="middle" x="720" y="-434.426" font-family="Helvetica,sans-Serif" font-size="10.00">_result</text>
</a>
</g>
</g>
<!-- Node9&#45;&gt;Node11 -->
<g id="edge16" class="edge"><title>Node9&#45;&gt;Node11</title>
<path fill="none" stroke="midnightblue" d="M431.602,-409.725C446.987,-412.473 463.587,-415.245 479,-417.426 539.248,-425.952 608.39,-432.851 656.939,-437.225"/>
<polygon fill="midnightblue" stroke="midnightblue" points="432.157,-406.268 421.693,-407.929 430.908,-413.156 432.157,-406.268"/>
</g>
<!-- Node10&#45;&gt;Node4 -->
<g id="edge14" class="edge"><title>Node10&#45;&gt;Node4</title>
<path fill="none" stroke="midnightblue" d="M613.564,-384.342C616.17,-382.864 618.664,-381.23 621,-379.426 675.023,-337.696 704.362,-257.157 714.681,-223.64"/>
<polygon fill="midnightblue" stroke="midnightblue" points="611.833,-381.291 604.353,-388.794 614.879,-387.594 611.833,-381.291"/>
</g>
<!-- Node10&#45;&gt;Node6 -->
<g id="edge15" class="edge"><title>Node10&#45;&gt;Node6</title>
<path fill="none" stroke="midnightblue" d="M616.424,-403.934C700.796,-408.066 849.666,-405.075 959,-346.426 999.957,-324.456 1032,-276.651 1044.41,-256.116"/>
<polygon fill="midnightblue" stroke="midnightblue" points="616.385,-400.427 606.211,-403.383 616.008,-407.417 616.385,-400.427"/>
</g>
<!-- Node11&#45;&gt;Node6 -->
<g id="edge17" class="edge"><title>Node11&#45;&gt;Node6</title>
<path fill="none" stroke="midnightblue" d="M793.261,-449.72C843.816,-451.146 910.678,-445.299 959,-412.426 1016.61,-373.236 1041.21,-285.113 1047.96,-255.979"/>
<polygon fill="midnightblue" stroke="midnightblue" points="793.183,-446.214 783.056,-449.328 792.914,-453.209 793.183,-446.214"/>
</g>
<!-- Node13 -->
<g id="node13" class="node"><title>Node13</title>
<g id="a_node13"><a xlink:href="a00359.html#gacb3354443bcefe7a500a500a4904cc05" target="_top" xlink:title="process output parameters of a stored procedure. ">
<polygon fill="white" stroke="black" points="301,-68.9263 301,-87.9263 443,-87.9263 443,-68.9263 301,-68.9263"/>
<text text-anchor="middle" x="372" y="-75.9263" font-family="Helvetica,sans-Serif" font-size="10.00">tds_process_param_result</text>
</a>
</g>
</g>
<!-- Node12&#45;&gt;Node13 -->
<g id="edge19" class="edge"><title>Node12&#45;&gt;Node13</title>
<path fill="none" stroke="midnightblue" d="M234.603,-158.66C268.039,-138.991 326.258,-104.745 354.582,-88.0837"/>
<polygon fill="midnightblue" stroke="midnightblue" points="232.719,-155.707 225.874,-163.794 236.268,-161.741 232.719,-155.707"/>
</g>
<!-- Node15 -->
<g id="node15" class="node"><title>Node15</title>
<g id="a_node15"><a xlink:href="a00359.html#ga9a101b8bbd978e22ec7306491e5554c7" target="_top" xlink:title="tds_process_result() is the TDS 5.0 result set processing routine. ">
<polygon fill="white" stroke="black" points="497,-182.926 497,-201.926 603,-201.926 603,-182.926 497,-182.926"/>
<text text-anchor="middle" x="550" y="-189.926" font-family="Helvetica,sans-Serif" font-size="10.00">tds_process_result</text>
</a>
</g>
</g>
<!-- Node12&#45;&gt;Node15 -->
<g id="edge24" class="edge"><title>Node12&#45;&gt;Node15</title>
<path fill="none" stroke="midnightblue" d="M269.615,-176.791C334.098,-180.399 435.471,-186.073 496.746,-189.502"/>
<polygon fill="midnightblue" stroke="midnightblue" points="269.774,-173.294 259.594,-176.23 269.383,-180.283 269.774,-173.294"/>
</g>
<!-- Node16 -->
<g id="node16" class="node"><title>Node16</title>
<g id="a_node16"><a xlink:href="a00359.html#ga416cf119c1d4a0fca27dc5b50c261358" target="_top" xlink:title="Process results from dynamic. ">
<polygon fill="white" stroke="black" points="485.5,-144.926 485.5,-163.926 614.5,-163.926 614.5,-144.926 485.5,-144.926"/>
<text text-anchor="middle" x="550" y="-151.926" font-family="Helvetica,sans-Serif" font-size="10.00">tds_process_dyn_result</text>
</a>
</g>
</g>
<!-- Node12&#45;&gt;Node16 -->
<g id="edge27" class="edge"><title>Node12&#45;&gt;Node16</title>
<path fill="none" stroke="midnightblue" d="M269.78,-170.053C330.422,-166.659 423.568,-161.446 485.373,-157.987"/>
<polygon fill="midnightblue" stroke="midnightblue" points="269.383,-166.569 259.594,-170.623 269.774,-173.558 269.383,-166.569"/>
</g>
<!-- Node13&#45;&gt;Node6 -->
<g id="edge20" class="edge"><title>Node13&#45;&gt;Node6</title>
<path fill="none" stroke="midnightblue" d="M405.846,-65.3359C500.756,-29.8267 779.993,58.0971 959,-58.4263 1024.34,-100.958 1044.11,-204.653 1048.77,-236.777"/>
<polygon fill="midnightblue" stroke="midnightblue" points="404.579,-62.0731 396.475,-68.8975 407.066,-68.6164 404.579,-62.0731"/>
</g>
<!-- Node14 -->
<g id="node14" class="node"><title>Node14</title>
<g id="a_node14"><a xlink:href="a00359.html#ga9fdef8228d29cab7fa9098f07fa73fba" target="_top" xlink:title="Process parameters from networks. ">
<polygon fill="white" stroke="black" points="479,-63.4263 479,-93.4263 621,-93.4263 621,-63.4263 479,-63.4263"/>
<text text-anchor="start" x="487" y="-81.4263" font-family="Helvetica,sans-Serif" font-size="10.00">tds_process_param_result</text>
<text text-anchor="middle" x="550" y="-70.4263" font-family="Helvetica,sans-Serif" font-size="10.00">_tokens</text>
</a>
</g>
</g>
<!-- Node13&#45;&gt;Node14 -->
<g id="edge21" class="edge"><title>Node13&#45;&gt;Node14</title>
<path fill="none" stroke="midnightblue" d="M453.101,-78.4263C461.706,-78.4263 470.412,-78.4263 478.888,-78.4263"/>
<polygon fill="midnightblue" stroke="midnightblue" points="453.066,-74.9264 443.066,-78.4263 453.066,-81.9264 453.066,-74.9264"/>
</g>
<!-- Node14&#45;&gt;Node4 -->
<g id="edge22" class="edge"><title>Node14&#45;&gt;Node4</title>
<path fill="none" stroke="midnightblue" d="M578.741,-99.8926C612.818,-126.262 669.757,-170.322 699.524,-193.356"/>
<polygon fill="midnightblue" stroke="midnightblue" points="580.651,-96.9452 570.601,-93.5933 576.367,-102.481 580.651,-96.9452"/>
</g>
<!-- Node14&#45;&gt;Node6 -->
<g id="edge23" class="edge"><title>Node14&#45;&gt;Node6</title>
<path fill="none" stroke="midnightblue" d="M631.174,-63.6597C718.202,-51.9588 858.217,-46.1215 959,-105.426 1011.23,-136.16 1038.66,-210.033 1047.11,-236.655"/>
<polygon fill="midnightblue" stroke="midnightblue" points="630.509,-60.2187 621.092,-65.0734 631.481,-67.1508 630.509,-60.2187"/>
</g>
<!-- Node15&#45;&gt;Node4 -->
<g id="edge25" class="edge"><title>Node15&#45;&gt;Node4</title>
<path fill="none" stroke="midnightblue" d="M613.375,-198.367C629.95,-199.945 647.731,-201.639 663.889,-203.178"/>
<polygon fill="midnightblue" stroke="midnightblue" points="613.522,-194.865 603.235,-197.401 612.858,-201.833 613.522,-194.865"/>
</g>
<!-- Node15&#45;&gt;Node6 -->
<g id="edge26" class="edge"><title>Node15&#45;&gt;Node6</title>
<path fill="none" stroke="midnightblue" d="M604.038,-180.765C699.555,-160.801 896.38,-124.696 959,-151.426 1000.59,-169.18 1032.28,-216.3 1044.51,-236.741"/>
<polygon fill="midnightblue" stroke="midnightblue" points="603.075,-177.391 594.012,-182.879 604.519,-184.24 603.075,-177.391"/>
</g>
<!-- Node16&#45;&gt;Node4 -->
<g id="edge28" class="edge"><title>Node16&#45;&gt;Node4</title>
<path fill="none" stroke="midnightblue" d="M597.884,-166.609C605.636,-168.779 613.566,-171.094 621,-173.426 640.306,-179.484 661.477,-186.94 679.186,-193.412"/>
<polygon fill="midnightblue" stroke="midnightblue" points="598.782,-163.226 588.212,-163.948 596.925,-169.975 598.782,-163.226"/>
</g>
<!-- Node16&#45;&gt;Node6 -->
<g id="edge29" class="edge"><title>Node16&#45;&gt;Node6</title>
<path fill="none" stroke="midnightblue" d="M589.398,-141.82C664.503,-119.477 834.38,-80.47 959,-138.426 1003.91,-159.312 1034.6,-214.48 1045.56,-236.825"/>
<polygon fill="midnightblue" stroke="midnightblue" points="587.991,-138.589 579.444,-144.85 590.03,-145.286 587.991,-138.589"/>
</g>
<!-- Node17&#45;&gt;Node4 -->
<g id="edge31" class="edge"><title>Node17&#45;&gt;Node4</title>
<path fill="none" stroke="midnightblue" d="M611.624,-346.86C614.901,-345.248 618.053,-343.444 621,-341.426 666.201,-310.476 698.506,-251.674 711.997,-223.809"/>
<polygon fill="midnightblue" stroke="midnightblue" points="609.948,-343.77 602.127,-350.917 612.698,-350.207 609.948,-343.77"/>
</g>
<!-- Node17&#45;&gt;Node6 -->
<g id="edge32" class="edge"><title>Node17&#45;&gt;Node6</title>
<path fill="none" stroke="midnightblue" d="M616.294,-363.053C698.991,-364.133 844.502,-358.452 959,-313.426 992.594,-300.215 1024.91,-271.383 1040.43,-256.21"/>
<polygon fill="midnightblue" stroke="midnightblue" points="616.339,-359.553 606.281,-362.885 616.221,-366.552 616.339,-359.553"/>
</g>
<!-- Node18&#45;&gt;Node4 -->
<g id="edge34" class="edge"><title>Node18&#45;&gt;Node4</title>
<path fill="none" stroke="midnightblue" d="M608.564,-309.393C612.881,-307.639 617.077,-305.659 621,-303.426 657.657,-282.562 690.717,-244.783 707.46,-223.699"/>
<polygon fill="midnightblue" stroke="midnightblue" points="607.18,-306.172 598.981,-312.883 609.575,-312.75 607.18,-306.172"/>
</g>
<!-- Node18&#45;&gt;Node6 -->
<g id="edge35" class="edge"><title>Node18&#45;&gt;Node6</title>
<path fill="none" stroke="midnightblue" d="M630.877,-323C714.078,-321.839 847.586,-315.002 959,-286.426 985.913,-279.523 1014.97,-265.482 1032.82,-256.011"/>
<polygon fill="midnightblue" stroke="midnightblue" points="630.693,-319.502 620.734,-323.117 630.774,-326.502 630.693,-319.502"/>
</g>
</g>
</svg>
