<?xml version="1.0" encoding="UTF-8" standalone="no"?>
<!DOCTYPE svg PUBLIC "-//W3C//DTD SVG 1.1//EN"
 "http://www.w3.org/Graphics/SVG/1.1/DTD/svg11.dtd">
<!-- Generated by graphviz version 2.38.0 (20140413.2041)
 -->
<!-- Title: tds_get_conversion_type Pages: 1 -->
<svg width="1098pt" height="733pt"
 viewBox="0.00 0.00 1098.00 732.90" xmlns="http://www.w3.org/2000/svg" xmlns:xlink="http://www.w3.org/1999/xlink">
<g id="graph0" class="graph" transform="scale(1 1) rotate(0) translate(4 728.902)">
<title>tds_get_conversion_type</title>
<polygon fill="white" stroke="none" points="-4,4 -4,-728.902 1094,-728.902 1094,4 -4,4"/>
<!-- Node1 -->
<g id="node1" class="node"><title>Node1</title>
<polygon fill="#bfbfbf" stroke="black" points="0,-341.5 0,-360.5 136,-360.5 136,-341.5 0,-341.5"/>
<text text-anchor="middle" x="68" y="-348.5" font-family="Helvetica,sans-Serif" font-size="10.00">tds_get_conversion_type</text>
</g>
<!-- Node2 -->
<g id="node2" class="node"><title>Node2</title>
<g id="a_node2"><a xlink:href="a00233.html#a230fa5b56ae4e3509a69bd266495732b" target="_top" xlink:title="Convert column for output (usually to a file) Conversion is slightly different from input as: ...">
<polygon fill="white" stroke="black" points="728.5,-670.5 728.5,-689.5 829.5,-689.5 829.5,-670.5 728.5,-670.5"/>
<text text-anchor="middle" x="779" y="-677.5" font-family="Helvetica,sans-Serif" font-size="10.00">_bcp_convert_out</text>
</a>
</g>
</g>
<!-- Node1&#45;&gt;Node2 -->
<g id="edge1" class="edge"><title>Node1&#45;&gt;Node2</title>
<path fill="none" stroke="midnightblue" d="M69.5474,-370.592C72.1609,-423.086 87.1053,-567.542 172,-636 344.849,-775.384 643.172,-715.296 743.756,-689.533"/>
<polygon fill="midnightblue" stroke="midnightblue" points="73.0443,-370.442 69.1485,-360.589 66.0498,-370.72 73.0443,-370.442"/>
</g>
<!-- Node5 -->
<g id="node5" class="node"><title>Node5</title>
<g id="a_node5"><a xlink:href="a00344.html#ga065757a7d0dce354660900de4aa79e2f" target="_top" xlink:title="_bcp_read_hostfile">
<polygon fill="white" stroke="black" points="562.5,-531.5 562.5,-550.5 669.5,-550.5 669.5,-531.5 562.5,-531.5"/>
<text text-anchor="middle" x="616" y="-538.5" font-family="Helvetica,sans-Serif" font-size="10.00">_bcp_read_hostfile</text>
</a>
</g>
</g>
<!-- Node1&#45;&gt;Node5 -->
<g id="edge4" class="edge"><title>Node1&#45;&gt;Node5</title>
<path fill="none" stroke="midnightblue" d="M74.1883,-370.749C85.1394,-407.976 114.475,-487.848 172,-522 236.456,-560.267 459.22,-551.307 562.126,-544.829"/>
<polygon fill="midnightblue" stroke="midnightblue" points="77.4319,-369.352 71.3691,-360.663 70.6903,-371.236 77.4319,-369.352"/>
</g>
<!-- Node7 -->
<g id="node7" class="node"><title>Node7</title>
<g id="a_node7"><a xlink:href="a00344.html#ga0f8def4cad04c5c1e27c2b653d482dd8" target="_top" xlink:title="For a bcp in from program variables, get the data from the host variable. ">
<polygon fill="white" stroke="black" points="193,-493.5 193,-512.5 300,-512.5 300,-493.5 193,-493.5"/>
<text text-anchor="middle" x="246.5" y="-500.5" font-family="Helvetica,sans-Serif" font-size="10.00">_bcp_get_col_data</text>
</a>
</g>
</g>
<!-- Node1&#45;&gt;Node7 -->
<g id="edge7" class="edge"><title>Node1&#45;&gt;Node7</title>
<path fill="none" stroke="midnightblue" d="M78.3656,-369.925C93.7729,-399.042 127.273,-454.543 172,-484 178.274,-488.132 185.398,-491.366 192.682,-493.897"/>
<polygon fill="midnightblue" stroke="midnightblue" points="81.3659,-368.106 73.6816,-360.812 75.1401,-371.306 81.3659,-368.106"/>
</g>
<!-- Node9 -->
<g id="node9" class="node"><title>Node9</title>
<g id="a_node9"><a xlink:href="a00341.html#ga873bc0f4663165e711655ade1dfae795" target="_top" xlink:title="Tie a host variable to a resultset column. ">
<polygon fill="white" stroke="black" points="223,-455.5 223,-474.5 270,-474.5 270,-455.5 223,-455.5"/>
<text text-anchor="middle" x="246.5" y="-462.5" font-family="Helvetica,sans-Serif" font-size="10.00">dbbind</text>
</a>
</g>
</g>
<!-- Node1&#45;&gt;Node9 -->
<g id="edge9" class="edge"><title>Node1&#45;&gt;Node9</title>
<path fill="none" stroke="midnightblue" d="M83.0771,-368.45C101.335,-389.913 135.228,-425.96 172,-446 187.855,-454.641 207.79,-459.475 222.897,-462.102"/>
<polygon fill="midnightblue" stroke="midnightblue" points="85.7505,-366.191 76.6625,-360.745 80.3708,-370.669 85.7505,-366.191"/>
</g>
<!-- Node11 -->
<g id="node11" class="node"><title>Node11</title>
<g id="a_node11"><a xlink:href="a00341.html#ga636e6f1b64743f3cf22158a56eef371f" target="_top" xlink:title="Get the datatype of a regular result set column. ">
<polygon fill="white" stroke="black" points="215.5,-417.5 215.5,-436.5 277.5,-436.5 277.5,-417.5 215.5,-417.5"/>
<text text-anchor="middle" x="246.5" y="-424.5" font-family="Helvetica,sans-Serif" font-size="10.00">dbcoltype</text>
</a>
</g>
</g>
<!-- Node1&#45;&gt;Node11 -->
<g id="edge11" class="edge"><title>Node1&#45;&gt;Node11</title>
<path fill="none" stroke="midnightblue" d="M91.9945,-365.945C112.34,-378.619 143.188,-396.519 172,-408 185.835,-413.513 201.777,-417.861 215.27,-420.999"/>
<polygon fill="midnightblue" stroke="midnightblue" points="93.7538,-362.917 83.4309,-360.532 90.0135,-368.834 93.7538,-362.917"/>
</g>
<!-- Node13 -->
<g id="node13" class="node"><title>Node13</title>
<g id="a_node13"><a xlink:href="a00341.html#gaf641c8e3d34607ca8b7ac2afed3e6d67" target="_top" xlink:title="Print a regular result row to a buffer. ">
<polygon fill="white" stroke="black" points="213.5,-303.5 213.5,-322.5 279.5,-322.5 279.5,-303.5 213.5,-303.5"/>
<text text-anchor="middle" x="246.5" y="-310.5" font-family="Helvetica,sans-Serif" font-size="10.00">dbspr1row</text>
</a>
</g>
</g>
<!-- Node1&#45;&gt;Node13 -->
<g id="edge14" class="edge"><title>Node1&#45;&gt;Node13</title>
<path fill="none" stroke="midnightblue" d="M123.657,-339.232C153.027,-332.909 188.232,-325.33 213.23,-319.948"/>
<polygon fill="midnightblue" stroke="midnightblue" points="122.578,-335.885 113.538,-341.411 124.051,-342.728 122.578,-335.885"/>
</g>
<!-- Node14 -->
<g id="node14" class="node"><title>Node14</title>
<g id="a_node14"><a xlink:href="a00341.html#gaa30be3414a97aac6139af2e928db91ca" target="_top" xlink:title="Print a result set to stdout. ">
<polygon fill="white" stroke="black" points="405.5,-360.5 405.5,-379.5 460.5,-379.5 460.5,-360.5 405.5,-360.5"/>
<text text-anchor="middle" x="433" y="-367.5" font-family="Helvetica,sans-Serif" font-size="10.00">dbprrow</text>
</a>
</g>
</g>
<!-- Node1&#45;&gt;Node14 -->
<g id="edge15" class="edge"><title>Node1&#45;&gt;Node14</title>
<path fill="none" stroke="midnightblue" d="M146.21,-355.041C227.641,-359.304 351.465,-365.785 405.37,-368.606"/>
<polygon fill="midnightblue" stroke="midnightblue" points="146.172,-351.535 136.003,-354.507 145.806,-358.525 146.172,-351.535"/>
</g>
<!-- Node15 -->
<g id="node15" class="node"><title>Node15</title>
<g id="a_node15"><a xlink:href="a00341.html#gaa85171e020dc606f2bd3395ad1d3ab4f" target="_top" xlink:title="Get datatype for a compute column. ">
<polygon fill="white" stroke="black" points="217,-379.5 217,-398.5 276,-398.5 276,-379.5 217,-379.5"/>
<text text-anchor="middle" x="246.5" y="-386.5" font-family="Helvetica,sans-Serif" font-size="10.00">dbalttype</text>
</a>
</g>
</g>
<!-- Node1&#45;&gt;Node15 -->
<g id="edge16" class="edge"><title>Node1&#45;&gt;Node15</title>
<path fill="none" stroke="midnightblue" d="M123.7,-362.777C154.466,-369.401 191.623,-377.4 216.743,-382.809"/>
<polygon fill="midnightblue" stroke="midnightblue" points="124.051,-359.272 113.538,-360.589 122.578,-366.115 124.051,-359.272"/>
</g>
<!-- Node16 -->
<g id="node16" class="node"><title>Node16</title>
<g id="a_node16"><a xlink:href="a00341.html#gafefd17e15b22adda84366c817178dd7d" target="_top" xlink:title="Bind a compute column to a program variable. ">
<polygon fill="white" stroke="black" points="217,-265.5 217,-284.5 276,-284.5 276,-265.5 217,-265.5"/>
<text text-anchor="middle" x="246.5" y="-272.5" font-family="Helvetica,sans-Serif" font-size="10.00">dbaltbind</text>
</a>
</g>
</g>
<!-- Node1&#45;&gt;Node16 -->
<g id="edge19" class="edge"><title>Node1&#45;&gt;Node16</title>
<path fill="none" stroke="midnightblue" d="M91.9945,-336.055C112.34,-323.381 143.188,-305.481 172,-294 186.325,-288.292 202.909,-283.832 216.694,-280.673"/>
<polygon fill="midnightblue" stroke="midnightblue" points="90.0135,-333.166 83.4309,-341.468 93.7538,-339.083 90.0135,-333.166"/>
</g>
<!-- Node17 -->
<g id="node17" class="node"><title>Node17</title>
<g id="a_node17"><a xlink:href="a00342.html#gaa478c8b96923bca02d158d966172ec1b" target="_top" xlink:title="Get datatype of a stored procedure&#39;s return parameter. ">
<polygon fill="white" stroke="black" points="216,-227.5 216,-246.5 277,-246.5 277,-227.5 216,-227.5"/>
<text text-anchor="middle" x="246.5" y="-234.5" font-family="Helvetica,sans-Serif" font-size="10.00">dbrettype</text>
</a>
</g>
</g>
<!-- Node1&#45;&gt;Node17 -->
<g id="edge20" class="edge"><title>Node1&#45;&gt;Node17</title>
<path fill="none" stroke="midnightblue" d="M83.0771,-333.55C101.335,-312.087 135.228,-276.04 172,-256 185.54,-248.621 202.056,-244.018 216,-241.195"/>
<polygon fill="midnightblue" stroke="midnightblue" points="80.3708,-331.331 76.6625,-341.255 85.7505,-335.809 80.3708,-331.331"/>
</g>
<!-- Node18 -->
<g id="node18" class="node"><title>Node18</title>
<g id="a_node18"><a xlink:href="a00341.html#ga9804fc70ae6ed35c92cd75d410dad570" target="_top" xlink:title="describe table column attributes with a single call (Freetds&#45;only API function modelled on dbcolinfo)...">
<polygon fill="white" stroke="black" points="392.5,-258.5 392.5,-277.5 473.5,-277.5 473.5,-258.5 392.5,-258.5"/>
<text text-anchor="middle" x="433" y="-265.5" font-family="Helvetica,sans-Serif" font-size="10.00">dbtablecolinfo</text>
</a>
</g>
</g>
<!-- Node1&#45;&gt;Node18 -->
<g id="edge21" class="edge"><title>Node1&#45;&gt;Node18</title>
<path fill="none" stroke="midnightblue" d="M76.9572,-331.959C90.9627,-301.274 123.234,-241.914 172,-218 231.458,-188.843 258.917,-194.954 321,-218 340.795,-225.348 338.267,-239.259 357,-249 367.845,-254.639 380.456,-258.67 392.208,-261.523"/>
<polygon fill="midnightblue" stroke="midnightblue" points="73.7271,-330.61 72.9103,-341.173 80.1362,-333.425 73.7271,-330.61"/>
</g>
<!-- Node19 -->
<g id="node19" class="node"><title>Node19</title>
<g id="a_node19"><a xlink:href="a00356.html#ga50d62edeb2a432e2dc668263f3f958ff" target="_top" xlink:title="Return declaration for column (like &quot;varchar(20)&quot;) ">
<polygon fill="white" stroke="black" points="172,-151.5 172,-170.5 321,-170.5 321,-151.5 172,-151.5"/>
<text text-anchor="middle" x="246.5" y="-158.5" font-family="Helvetica,sans-Serif" font-size="10.00">tds_get_column_declaration</text>
</a>
</g>
</g>
<!-- Node1&#45;&gt;Node19 -->
<g id="edge22" class="edge"><title>Node1&#45;&gt;Node19</title>
<path fill="none" stroke="midnightblue" d="M75.8358,-331.693C89.0211,-297.195 121.228,-224.857 172,-185 180.025,-178.701 189.763,-174.026 199.489,-170.567"/>
<polygon fill="midnightblue" stroke="midnightblue" points="72.5404,-330.514 72.3551,-341.107 79.106,-332.941 72.5404,-330.514"/>
</g>
<!-- Node30 -->
<g id="node30" class="node"><title>Node30</title>
<g id="a_node30"><a xlink:href="a00356.html#ga0e2e7230c425e925402d7856ff5b4b18" target="_top" xlink:title="Send a parameter to server. ">
<polygon fill="white" stroke="black" points="178,-113.5 178,-132.5 315,-132.5 315,-113.5 178,-113.5"/>
<text text-anchor="middle" x="246.5" y="-120.5" font-family="Helvetica,sans-Serif" font-size="10.00">tds_put_param_as_string</text>
</a>
</g>
</g>
<!-- Node1&#45;&gt;Node30 -->
<g id="edge35" class="edge"><title>Node1&#45;&gt;Node30</title>
<path fill="none" stroke="midnightblue" d="M72.9177,-331.372C82.2709,-289.79 109.913,-192.51 172,-142 176.703,-138.174 182.089,-135.109 187.761,-132.656"/>
<polygon fill="midnightblue" stroke="midnightblue" points="69.4577,-330.815 70.7938,-341.326 76.3036,-332.276 69.4577,-330.815"/>
</g>
<!-- Node33 -->
<g id="node33" class="node"><title>Node33</title>
<g id="a_node33"><a xlink:href="a00356.html#gaf0da49585d39e99780a004ee2ca23479" target="_top" xlink:title="Send option commands to server. ">
<polygon fill="white" stroke="black" points="871,-569.5 871,-588.5 992,-588.5 992,-569.5 871,-569.5"/>
<text text-anchor="middle" x="931.5" y="-576.5" font-family="Helvetica,sans-Serif" font-size="10.00">tds_submit_optioncmd</text>
</a>
</g>
</g>
<!-- Node1&#45;&gt;Node33 -->
<g id="edge40" class="edge"><title>Node1&#45;&gt;Node33</title>
<path fill="none" stroke="midnightblue" d="M72.8119,-370.533C81.9057,-411.377 108.989,-505.614 172,-549 267.808,-614.968 315.678,-579 432,-579 432,-579 432,-579 617,-579 705.444,-579 807.923,-579 870.983,-579"/>
<polygon fill="midnightblue" stroke="midnightblue" points="76.1889,-369.583 70.7092,-360.515 69.3382,-371.021 76.1889,-369.583"/>
</g>
<!-- Node34 -->
<g id="node34" class="node"><title>Node34</title>
<g id="a_node34"><a xlink:href="a00298.html#abac4d689e0e31e80587f89247c6395a4" target="_top" xlink:title="Read a data from wire. ">
<polygon fill="white" stroke="black" points="200,-75.5 200,-94.5 293,-94.5 293,-75.5 200,-75.5"/>
<text text-anchor="middle" x="246.5" y="-82.5" font-family="Helvetica,sans-Serif" font-size="10.00">tds_generic_get</text>
</a>
</g>
</g>
<!-- Node1&#45;&gt;Node34 -->
<g id="edge41" class="edge"><title>Node1&#45;&gt;Node34</title>
<path fill="none" stroke="midnightblue" d="M71.2747,-331.416C77.7783,-284.64 100.819,-165.721 172,-104 179.867,-97.1788 189.877,-92.7582 199.96,-89.9062"/>
<polygon fill="midnightblue" stroke="midnightblue" points="67.7894,-331.078 69.9855,-341.443 74.7323,-331.971 67.7894,-331.078"/>
</g>
<!-- Node35 -->
<g id="node35" class="node"><title>Node35</title>
<g id="a_node35"><a xlink:href="a00298.html#a84e17808683ba2dd956e811a42e23176" target="_top" xlink:title="Write data to wire. ">
<polygon fill="white" stroke="black" points="200.5,-37.5 200.5,-56.5 292.5,-56.5 292.5,-37.5 200.5,-37.5"/>
<text text-anchor="middle" x="246.5" y="-44.5" font-family="Helvetica,sans-Serif" font-size="10.00">tds_generic_put</text>
</a>
</g>
</g>
<!-- Node1&#45;&gt;Node35 -->
<g id="edge42" class="edge"><title>Node1&#45;&gt;Node35</title>
<path fill="none" stroke="midnightblue" d="M70.0585,-331.275C73.9309,-279.574 91.7025,-139.096 172,-66 179.895,-58.8135 190.152,-54.2725 200.486,-51.4225"/>
<polygon fill="midnightblue" stroke="midnightblue" points="66.5556,-331.208 69.3974,-341.414 73.5407,-331.663 66.5556,-331.208"/>
</g>
<!-- Node36 -->
<g id="node36" class="node"><title>Node36</title>
<g id="a_node36"><a xlink:href="a00193.html#aaee3fe5c514ce5570c9548de9b16e0d9" target="_top" xlink:title="Write a column value to the debug log. ">
<polygon fill="white" stroke="black" points="208.5,-607.5 208.5,-626.5 284.5,-626.5 284.5,-607.5 208.5,-607.5"/>
<text text-anchor="middle" x="246.5" y="-614.5" font-family="Helvetica,sans-Serif" font-size="10.00">tdsdump_col</text>
</a>
</g>
</g>
<!-- Node1&#45;&gt;Node36 -->
<g id="edge43" class="edge"><title>Node1&#45;&gt;Node36</title>
<path fill="none" stroke="midnightblue" d="M71.8076,-370.852C79.337,-416.717 104.216,-530.857 172,-593 181.994,-602.162 195.542,-607.83 208.285,-611.335"/>
<polygon fill="midnightblue" stroke="midnightblue" points="75.2666,-370.318 70.2846,-360.967 68.3482,-371.383 75.2666,-370.318"/>
</g>
<!-- Node3 -->
<g id="node3" class="node"><title>Node3</title>
<g id="a_node3"><a xlink:href="a00344.html#gae67546338cb9542a4902aa914f57f314" target="_top" xlink:title="_bcp_exec_out">
<polygon fill="white" stroke="black" points="887.5,-607.5 887.5,-626.5 975.5,-626.5 975.5,-607.5 887.5,-607.5"/>
<text text-anchor="middle" x="931.5" y="-614.5" font-family="Helvetica,sans-Serif" font-size="10.00">_bcp_exec_out</text>
</a>
</g>
</g>
<!-- Node2&#45;&gt;Node3 -->
<g id="edge2" class="edge"><title>Node2&#45;&gt;Node3</title>
<path fill="none" stroke="midnightblue" d="M812.416,-666.43C841.031,-654.452 882.035,-637.288 907.427,-626.658"/>
<polygon fill="midnightblue" stroke="midnightblue" points="810.731,-663.342 802.858,-670.432 813.434,-669.799 810.731,-663.342"/>
</g>
<!-- Node4 -->
<g id="node4" class="node"><title>Node4</title>
<g id="a_node4"><a xlink:href="a00343.html#ga7a184158b27a50f713e9cfae3b746209" target="_top" xlink:title="Write a datafile to a table. ">
<polygon fill="white" stroke="black" points="1028,-569.5 1028,-588.5 1090,-588.5 1090,-569.5 1028,-569.5"/>
<text text-anchor="middle" x="1059" y="-576.5" font-family="Helvetica,sans-Serif" font-size="10.00">bcp_exec</text>
</a>
</g>
</g>
<!-- Node3&#45;&gt;Node4 -->
<g id="edge3" class="edge"><title>Node3&#45;&gt;Node4</title>
<path fill="none" stroke="midnightblue" d="M974.13,-604.395C991.616,-599.1 1011.58,-593.056 1027.64,-588.193"/>
<polygon fill="midnightblue" stroke="midnightblue" points="972.726,-601.163 964.169,-607.411 974.754,-607.863 972.726,-601.163"/>
</g>
<!-- Node6 -->
<g id="node6" class="node"><title>Node6</title>
<g id="a_node6"><a xlink:href="a00344.html#ga7370f1223f13510d6b33e98f2de09fb5" target="_top" xlink:title="_bcp_exec_in">
<polygon fill="white" stroke="black" points="738,-531.5 738,-550.5 820,-550.5 820,-531.5 738,-531.5"/>
<text text-anchor="middle" x="779" y="-538.5" font-family="Helvetica,sans-Serif" font-size="10.00">_bcp_exec_in</text>
</a>
</g>
</g>
<!-- Node5&#45;&gt;Node6 -->
<g id="edge5" class="edge"><title>Node5&#45;&gt;Node6</title>
<path fill="none" stroke="midnightblue" d="M679.786,-541C699.347,-541 720.376,-541 737.937,-541"/>
<polygon fill="midnightblue" stroke="midnightblue" points="679.717,-537.5 669.717,-541 679.717,-544.5 679.717,-537.5"/>
</g>
<!-- Node6&#45;&gt;Node4 -->
<g id="edge6" class="edge"><title>Node6&#45;&gt;Node4</title>
<path fill="none" stroke="midnightblue" d="M830.413,-542.809C873.601,-545.003 937.302,-549.773 992,-560 1004.42,-562.323 1017.87,-565.98 1029.37,-569.467"/>
<polygon fill="midnightblue" stroke="midnightblue" points="830.322,-539.301 820.166,-542.318 829.986,-546.293 830.322,-539.301"/>
</g>
<!-- Node8 -->
<g id="node8" class="node"><title>Node8</title>
<g id="a_node8"><a xlink:href="a00343.html#gaf1130ac97f6af55e86ec70b0aa4f5b40" target="_top" xlink:title="Write data in host variables to the table. ">
<polygon fill="white" stroke="black" points="393,-493.5 393,-512.5 473,-512.5 473,-493.5 393,-493.5"/>
<text text-anchor="middle" x="433" y="-500.5" font-family="Helvetica,sans-Serif" font-size="10.00">bcp_sendrow</text>
</a>
</g>
</g>
<!-- Node7&#45;&gt;Node8 -->
<g id="edge8" class="edge"><title>Node7&#45;&gt;Node8</title>
<path fill="none" stroke="midnightblue" d="M310.626,-503C337.929,-503 369.025,-503 392.907,-503"/>
<polygon fill="midnightblue" stroke="midnightblue" points="310.37,-499.5 300.37,-503 310.37,-506.5 310.37,-499.5"/>
</g>
<!-- Node10 -->
<g id="node10" class="node"><title>Node10</title>
<g id="a_node10"><a xlink:href="a00207.html#af8ada101cd189eff87b3533cbeaaa23b" target="_top" xlink:title="Pivot the rows, creating a new resultset. ">
<polygon fill="white" stroke="black" points="408,-436.5 408,-455.5 458,-455.5 458,-436.5 408,-436.5"/>
<text text-anchor="middle" x="433" y="-443.5" font-family="Helvetica,sans-Serif" font-size="10.00">dbpivot</text>
</a>
</g>
</g>
<!-- Node9&#45;&gt;Node10 -->
<g id="edge10" class="edge"><title>Node9&#45;&gt;Node10</title>
<path fill="none" stroke="midnightblue" d="M280.263,-461.626C316.801,-457.863 375.048,-451.865 407.726,-448.5"/>
<polygon fill="midnightblue" stroke="midnightblue" points="279.712,-458.164 270.123,-462.67 280.429,-465.127 279.712,-458.164"/>
</g>
<!-- Node11&#45;&gt;Node10 -->
<g id="edge13" class="edge"><title>Node11&#45;&gt;Node10</title>
<path fill="none" stroke="midnightblue" d="M287.898,-431.16C324.552,-434.935 377.381,-440.375 407.847,-443.513"/>
<polygon fill="midnightblue" stroke="midnightblue" points="287.86,-427.638 277.554,-430.095 287.143,-434.601 287.86,-427.638"/>
</g>
<!-- Node12 -->
<g id="node12" class="node"><title>Node12</title>
<g id="a_node12"><a xlink:href="a00207.html#a9b73fd1afa2c3ccfca481635212d2e43" target="_top" xlink:title="Get a bunch of column attributes with a single call (Microsoft&#45;compatibility feature). ">
<polygon fill="white" stroke="black" points="403.5,-398.5 403.5,-417.5 462.5,-417.5 462.5,-398.5 403.5,-398.5"/>
<text text-anchor="middle" x="433" y="-405.5" font-family="Helvetica,sans-Serif" font-size="10.00">dbcolinfo</text>
</a>
</g>
</g>
<!-- Node11&#45;&gt;Node12 -->
<g id="edge12" class="edge"><title>Node11&#45;&gt;Node12</title>
<path fill="none" stroke="midnightblue" d="M287.893,-422.84C322.851,-419.24 372.523,-414.125 403.476,-410.937"/>
<polygon fill="midnightblue" stroke="midnightblue" points="287.143,-419.399 277.554,-423.905 287.86,-426.362 287.143,-419.399"/>
</g>
<!-- Node15&#45;&gt;Node12 -->
<g id="edge17" class="edge"><title>Node15&#45;&gt;Node12</title>
<path fill="none" stroke="midnightblue" d="M286.649,-393.032C321.625,-396.633 372.044,-401.826 403.374,-405.052"/>
<polygon fill="midnightblue" stroke="midnightblue" points="286.634,-389.512 276.328,-391.969 285.917,-396.475 286.634,-389.512"/>
</g>
<!-- Node15&#45;&gt;Node14 -->
<g id="edge18" class="edge"><title>Node15&#45;&gt;Node14</title>
<path fill="none" stroke="midnightblue" d="M286.41,-384.993C322.184,-381.309 374.26,-375.946 405.467,-372.732"/>
<polygon fill="midnightblue" stroke="midnightblue" points="285.917,-381.525 276.328,-386.031 286.634,-388.488 285.917,-381.525"/>
</g>
<!-- Node19&#45;&gt;Node18 -->
<g id="edge23" class="edge"><title>Node19&#45;&gt;Node18</title>
<path fill="none" stroke="midnightblue" d="M304.141,-174.593C310.187,-177.436 315.96,-180.866 321,-185 346.232,-205.698 331.084,-229.165 357,-249 367.133,-256.756 380.074,-261.372 392.343,-264.11"/>
<polygon fill="midnightblue" stroke="midnightblue" points="305.059,-171.185 294.481,-170.591 302.38,-177.652 305.059,-171.185"/>
</g>
<!-- Node20 -->
<g id="node20" class="node"><title>Node20</title>
<g id="a_node20"><a xlink:href="a00356.html#gab775332d378c7fe083750d624441b303" target="_top" xlink:title="Return string with parameters definition, useful for TDS7+. ">
<polygon fill="white" stroke="black" points="372.5,-122 372.5,-152 493.5,-152 493.5,-122 372.5,-122"/>
<text text-anchor="start" x="380.5" y="-140" font-family="Helvetica,sans-Serif" font-size="10.00">tds7_build_param_def</text>
<text text-anchor="middle" x="433" y="-129" font-family="Helvetica,sans-Serif" font-size="10.00">_from_query</text>
</a>
</g>
</g>
<!-- Node19&#45;&gt;Node20 -->
<g id="edge24" class="edge"><title>Node19&#45;&gt;Node20</title>
<path fill="none" stroke="midnightblue" d="M330.792,-150.165C344.766,-148.348 359.016,-146.494 372.244,-144.773"/>
<polygon fill="midnightblue" stroke="midnightblue" points="330.149,-146.719 320.684,-151.48 331.052,-153.661 330.149,-146.719"/>
</g>
<!-- Node25 -->
<g id="node25" class="node"><title>Node25</title>
<g id="a_node25"><a xlink:href="a00356.html#gac8d5497c2d1b9fadb724111660bd03bd" target="_top" xlink:title="Return string with parameters definition, useful for TDS7+. ">
<polygon fill="white" stroke="black" points="372.5,-171 372.5,-201 493.5,-201 493.5,-171 372.5,-171"/>
<text text-anchor="start" x="380.5" y="-189" font-family="Helvetica,sans-Serif" font-size="10.00">tds7_build_param_def</text>
<text text-anchor="middle" x="433" y="-178" font-family="Helvetica,sans-Serif" font-size="10.00">_from_params</text>
</a>
</g>
</g>
<!-- Node19&#45;&gt;Node25 -->
<g id="edge29" class="edge"><title>Node19&#45;&gt;Node25</title>
<path fill="none" stroke="midnightblue" d="M328.023,-171.911C342.945,-173.933 358.283,-176.011 372.441,-177.93"/>
<polygon fill="midnightblue" stroke="midnightblue" points="328.157,-168.397 317.778,-170.523 327.217,-175.334 328.157,-168.397"/>
</g>
<!-- Node26 -->
<g id="node26" class="node"><title>Node26</title>
<g id="a_node26"><a xlink:href="a00356.html#gaf614c75ea8f7ad411e53dac0e2f91be4" target="_top" xlink:title="Send RPC as string query. ">
<polygon fill="white" stroke="black" points="368,-83.5 368,-102.5 498,-102.5 498,-83.5 368,-83.5"/>
<text text-anchor="middle" x="433" y="-90.5" font-family="Helvetica,sans-Serif" font-size="10.00">tds_send_emulated_rpc</text>
</a>
</g>
</g>
<!-- Node19&#45;&gt;Node26 -->
<g id="edge31" class="edge"><title>Node19&#45;&gt;Node26</title>
<path fill="none" stroke="midnightblue" d="M306.543,-148.244C311.54,-146.417 316.426,-144.346 321,-142 339.533,-132.496 338.444,-121.459 357,-112 364.539,-108.157 372.91,-105.055 381.246,-102.561"/>
<polygon fill="midnightblue" stroke="midnightblue" points="305.237,-144.99 296.85,-151.464 307.443,-151.633 305.237,-144.99"/>
</g>
<!-- Node28 -->
<g id="node28" class="node"><title>Node28</title>
<g id="a_node28"><a xlink:href="a00294.html#a3118c7232bc9c3e47f8ba872bb39e967" target="_top" xlink:title="Help to build query to be sent to server. ">
<polygon fill="white" stroke="black" points="360,-220.5 360,-239.5 506,-239.5 506,-220.5 360,-220.5"/>
<text text-anchor="middle" x="433" y="-227.5" font-family="Helvetica,sans-Serif" font-size="10.00">tds7_build_bulk_insert_stmt</text>
</a>
</g>
</g>
<!-- Node19&#45;&gt;Node28 -->
<g id="edge33" class="edge"><title>Node19&#45;&gt;Node28</title>
<path fill="none" stroke="midnightblue" d="M294.061,-173.784C303.202,-176.962 312.565,-180.709 321,-185 338.592,-193.948 339.117,-202.651 357,-211 365.155,-214.807 374.178,-217.923 383.057,-220.449"/>
<polygon fill="midnightblue" stroke="midnightblue" points="294.877,-170.367 284.284,-170.56 292.685,-177.015 294.877,-170.367"/>
</g>
<!-- Node21 -->
<g id="node21" class="node"><title>Node21</title>
<g id="a_node21"><a xlink:href="a00356.html#ga95e0fccedc459a4404f496eec74a369a" target="_top" xlink:title="tds_submit_query_params() sends a language string to the database server for processing. ">
<polygon fill="white" stroke="red" points="546,-190.5 546,-209.5 686,-209.5 686,-190.5 546,-190.5"/>
<text text-anchor="middle" x="616" y="-197.5" font-family="Helvetica,sans-Serif" font-size="10.00">tds_submit_query_params</text>
</a>
</g>
</g>
<!-- Node20&#45;&gt;Node21 -->
<g id="edge25" class="edge"><title>Node20&#45;&gt;Node21</title>
<path fill="none" stroke="midnightblue" d="M493.045,-155.66C498.483,-157.685 503.872,-159.81 509,-162 525.637,-169.107 528.168,-174.368 545,-181 554.138,-184.601 564.206,-187.771 573.789,-190.439"/>
<polygon fill="midnightblue" stroke="midnightblue" points="493.844,-152.228 483.249,-152.131 491.471,-158.813 493.844,-152.228"/>
</g>
<!-- Node22 -->
<g id="node22" class="node"><title>Node22</title>
<g id="a_node22"><a xlink:href="a00356.html#ga74eb08c3a1c85be8ac9db428842c8b9d" target="_top" xlink:title="tds_submit_prepare() creates a temporary stored procedure in the server. ">
<polygon fill="white" stroke="black" points="561,-152.5 561,-171.5 671,-171.5 671,-152.5 561,-152.5"/>
<text text-anchor="middle" x="616" y="-159.5" font-family="Helvetica,sans-Serif" font-size="10.00">tds_submit_prepare</text>
</a>
</g>
</g>
<!-- Node20&#45;&gt;Node22 -->
<g id="edge26" class="edge"><title>Node20&#45;&gt;Node22</title>
<path fill="none" stroke="midnightblue" d="M503.621,-146.616C522.634,-149.242 542.947,-152.048 560.949,-154.534"/>
<polygon fill="midnightblue" stroke="midnightblue" points="503.902,-143.122 493.517,-145.221 502.944,-150.056 503.902,-143.122"/>
</g>
<!-- Node23 -->
<g id="node23" class="node"><title>Node23</title>
<g id="a_node23"><a xlink:href="a00356.html#gae603aed795a4c5bb26ab159a11256996" target="_top" xlink:title="Submit a prepared query with parameters. ">
<polygon fill="white" stroke="black" points="555.5,-38.5 555.5,-57.5 676.5,-57.5 676.5,-38.5 555.5,-38.5"/>
<text text-anchor="middle" x="616" y="-45.5" font-family="Helvetica,sans-Serif" font-size="10.00">tds_submit_execdirect</text>
</a>
</g>
</g>
<!-- Node20&#45;&gt;Node23 -->
<g id="edge27" class="edge"><title>Node20&#45;&gt;Node23</title>
<path fill="none" stroke="midnightblue" d="M500.02,-117.516C503.142,-115.819 506.155,-113.983 509,-112 530.009,-97.3505 523.584,-81.048 545,-67 550.896,-63.1322 557.563,-60.0474 564.38,-57.5881"/>
<polygon fill="midnightblue" stroke="midnightblue" points="498.428,-114.399 490.988,-121.942 501.508,-120.685 498.428,-114.399"/>
</g>
<!-- Node24 -->
<g id="node24" class="node"><title>Node24</title>
<g id="a_node24"><a xlink:href="a00356.html#ga08877c101704bebe4fa57e0849dc272d" target="_top" xlink:title="tds71_submit_prepexec() creates a temporary stored procedure in the server. ">
<polygon fill="white" stroke="black" points="552,-114.5 552,-133.5 680,-133.5 680,-114.5 552,-114.5"/>
<text text-anchor="middle" x="616" y="-121.5" font-family="Helvetica,sans-Serif" font-size="10.00">tds71_submit_prepexec</text>
</a>
</g>
</g>
<!-- Node20&#45;&gt;Node24 -->
<g id="edge28" class="edge"><title>Node20&#45;&gt;Node24</title>
<path fill="none" stroke="midnightblue" d="M503.742,-131.991C519.53,-130.857 536.208,-129.659 551.712,-128.546"/>
<polygon fill="midnightblue" stroke="midnightblue" points="503.24,-128.518 493.517,-132.725 503.742,-135.5 503.24,-128.518"/>
</g>
<!-- Node25&#45;&gt;Node21 -->
<g id="edge30" class="edge"><title>Node25&#45;&gt;Node21</title>
<path fill="none" stroke="midnightblue" d="M503.864,-191.404C517.595,-192.466 531.995,-193.58 545.707,-194.64"/>
<polygon fill="midnightblue" stroke="midnightblue" points="503.757,-187.885 493.517,-190.604 503.217,-194.864 503.757,-187.885"/>
</g>
<!-- Node27 -->
<g id="node27" class="node"><title>Node27</title>
<g id="a_node27"><a xlink:href="a00356.html#ga5f071b94ad7889690762dc85646c74ab" target="_top" xlink:title="tds_submit_rpc() call a RPC from server. ">
<polygon fill="white" stroke="red" points="572.5,-76.5 572.5,-95.5 659.5,-95.5 659.5,-76.5 572.5,-76.5"/>
<text text-anchor="middle" x="616" y="-83.5" font-family="Helvetica,sans-Serif" font-size="10.00">tds_submit_rpc</text>
</a>
</g>
</g>
<!-- Node26&#45;&gt;Node27 -->
<g id="edge32" class="edge"><title>Node26&#45;&gt;Node27</title>
<path fill="none" stroke="midnightblue" d="M508.302,-90.1264C530.09,-89.2838 553.173,-88.3911 572.275,-87.6524"/>
<polygon fill="midnightblue" stroke="midnightblue" points="507.926,-86.6383 498.069,-90.5222 508.196,-93.6331 507.926,-86.6383"/>
</g>
<!-- Node29 -->
<g id="node29" class="node"><title>Node29</title>
<g id="a_node29"><a xlink:href="a00294.html#ab4d7e5309152f54613d52c8469a07fd8" target="_top" xlink:title="Prepare the query to be sent to server to request BCP information. ">
<polygon fill="white" stroke="red" points="547,-228.5 547,-247.5 685,-247.5 685,-228.5 547,-228.5"/>
<text text-anchor="middle" x="616" y="-235.5" font-family="Helvetica,sans-Serif" font-size="10.00">tds_bcp_start_insert_stmt</text>
</a>
</g>
</g>
<!-- Node28&#45;&gt;Node29 -->
<g id="edge34" class="edge"><title>Node28&#45;&gt;Node29</title>
<path fill="none" stroke="midnightblue" d="M516.198,-233.633C526.407,-234.084 536.757,-234.542 546.725,-234.982"/>
<polygon fill="midnightblue" stroke="midnightblue" points="516.201,-230.13 506.056,-233.185 515.892,-237.123 516.201,-230.13"/>
</g>
<!-- Node30&#45;&gt;Node26 -->
<g id="edge36" class="edge"><title>Node30&#45;&gt;Node26</title>
<path fill="none" stroke="midnightblue" d="M316.145,-111.838C335.01,-108.771 355.287,-105.474 373.522,-102.509"/>
<polygon fill="midnightblue" stroke="midnightblue" points="315.439,-108.407 306.13,-113.467 316.563,-115.316 315.439,-108.407"/>
</g>
<!-- Node31 -->
<g id="node31" class="node"><title>Node31</title>
<g id="a_node31"><a xlink:href="a00356.html#ga02c6ce3ff96369603a6ee4efee64caae" target="_top" xlink:title="Emulate prepared execute traslating to a normal language. ">
<polygon fill="white" stroke="black" points="357,-38.5 357,-57.5 509,-57.5 509,-38.5 357,-38.5"/>
<text text-anchor="middle" x="433" y="-45.5" font-family="Helvetica,sans-Serif" font-size="10.00">tds_send_emulated_execute</text>
</a>
</g>
</g>
<!-- Node30&#45;&gt;Node31 -->
<g id="edge37" class="edge"><title>Node30&#45;&gt;Node31</title>
<path fill="none" stroke="midnightblue" d="M306.543,-110.244C311.54,-108.417 316.426,-106.346 321,-104 339.533,-94.4961 338.866,-84.244 357,-74 369.119,-67.1539 383.349,-61.6628 396.139,-57.5231"/>
<polygon fill="midnightblue" stroke="midnightblue" points="305.237,-106.99 296.85,-113.464 307.443,-113.633 305.237,-106.99"/>
</g>
<!-- Node31&#45;&gt;Node23 -->
<g id="edge38" class="edge"><title>Node31&#45;&gt;Node23</title>
<path fill="none" stroke="midnightblue" d="M519.391,-48C531.596,-48 543.924,-48 555.486,-48"/>
<polygon fill="midnightblue" stroke="midnightblue" points="519.188,-44.5001 509.188,-48 519.188,-51.5001 519.188,-44.5001"/>
</g>
<!-- Node32 -->
<g id="node32" class="node"><title>Node32</title>
<g id="a_node32"><a xlink:href="a00356.html#ga3e7b4793c6f799fbc6c174f673bb5b32" target="_top" xlink:title="tds_submit_execute() sends a previously prepared dynamic statement to the server. ...">
<polygon fill="white" stroke="black" points="561.5,-0.5 561.5,-19.5 670.5,-19.5 670.5,-0.5 561.5,-0.5"/>
<text text-anchor="middle" x="616" y="-7.5" font-family="Helvetica,sans-Serif" font-size="10.00">tds_submit_execute</text>
</a>
</g>
</g>
<!-- Node31&#45;&gt;Node32 -->
<g id="edge39" class="edge"><title>Node31&#45;&gt;Node32</title>
<path fill="none" stroke="midnightblue" d="M489.638,-36.319C515.307,-30.9301 545.391,-24.6139 569.654,-19.5201"/>
<polygon fill="midnightblue" stroke="midnightblue" points="488.741,-32.9309 479.674,-38.411 490.18,-39.7816 488.741,-32.9309"/>
</g>
<!-- Node37 -->
<g id="node37" class="node"><title>Node37</title>
<g id="a_node37"><a xlink:href="a00359.html#gacb3354443bcefe7a500a500a4904cc05" target="_top" xlink:title="process output parameters of a stored procedure. ">
<polygon fill="white" stroke="black" points="362,-607.5 362,-626.5 504,-626.5 504,-607.5 362,-607.5"/>
<text text-anchor="middle" x="433" y="-614.5" font-family="Helvetica,sans-Serif" font-size="10.00">tds_process_param_result</text>
</a>
</g>
</g>
<!-- Node36&#45;&gt;Node37 -->
<g id="edge44" class="edge"><title>Node36&#45;&gt;Node37</title>
<path fill="none" stroke="midnightblue" d="M295.091,-617C315.422,-617 339.568,-617 361.878,-617"/>
<polygon fill="midnightblue" stroke="midnightblue" points="294.836,-613.5 284.836,-617 294.836,-620.5 294.836,-613.5"/>
</g>
<!-- Node38 -->
<g id="node38" class="node"><title>Node38</title>
<g id="a_node38"><a xlink:href="a00359.html#gabfc9de1d1fe718818caf63a4be4035a6" target="_top" xlink:title="process all streams. ">
<polygon fill="white" stroke="red" points="723,-607.5 723,-626.5 835,-626.5 835,-607.5 723,-607.5"/>
<text text-anchor="middle" x="779" y="-614.5" font-family="Helvetica,sans-Serif" font-size="10.00">tds_process_tokens</text>
</a>
</g>
</g>
<!-- Node37&#45;&gt;Node38 -->
<g id="edge45" class="edge"><title>Node37&#45;&gt;Node38</title>
<path fill="none" stroke="midnightblue" d="M514.098,-617C578.186,-617 666.372,-617 722.789,-617"/>
<polygon fill="midnightblue" stroke="midnightblue" points="514.028,-613.5 504.028,-617 514.028,-620.5 514.028,-613.5"/>
</g>
<!-- Node39 -->
<g id="node39" class="node"><title>Node39</title>
<g id="a_node39"><a xlink:href="a00359.html#ga9fdef8228d29cab7fa9098f07fa73fba" target="_top" xlink:title="Process parameters from networks. ">
<polygon fill="white" stroke="red" points="545,-646 545,-676 687,-676 687,-646 545,-646"/>
<text text-anchor="start" x="553" y="-664" font-family="Helvetica,sans-Serif" font-size="10.00">tds_process_param_result</text>
<text text-anchor="middle" x="616" y="-653" font-family="Helvetica,sans-Serif" font-size="10.00">_tokens</text>
</a>
</g>
</g>
<!-- Node37&#45;&gt;Node39 -->
<g id="edge48" class="edge"><title>Node37&#45;&gt;Node39</title>
<path fill="none" stroke="midnightblue" d="M483.179,-628.955C504.71,-634.189 530.215,-640.389 553.027,-645.935"/>
<polygon fill="midnightblue" stroke="midnightblue" points="483.818,-625.509 473.274,-626.547 482.165,-632.311 483.818,-625.509"/>
</g>
<!-- Node38&#45;&gt;Node3 -->
<g id="edge46" class="edge"><title>Node38&#45;&gt;Node3</title>
<path fill="none" stroke="midnightblue" d="M845.356,-617C859.477,-617 874.071,-617 887.102,-617"/>
<polygon fill="midnightblue" stroke="midnightblue" points="845.186,-613.5 835.186,-617 845.186,-620.5 845.186,-613.5"/>
</g>
<!-- Node38&#45;&gt;Node33 -->
<g id="edge47" class="edge"><title>Node38&#45;&gt;Node33</title>
<path fill="none" stroke="midnightblue" d="M827.685,-604.96C848.71,-599.651 873.067,-593.501 892.796,-588.52"/>
<polygon fill="midnightblue" stroke="midnightblue" points="826.816,-601.569 817.978,-607.411 828.53,-608.356 826.816,-601.569"/>
</g>
<!-- Node39&#45;&gt;Node38 -->
<g id="edge49" class="edge"><title>Node39&#45;&gt;Node38</title>
<path fill="none" stroke="midnightblue" d="M681.755,-643.303C702.66,-637.59 725.039,-631.474 742.952,-626.578"/>
<polygon fill="midnightblue" stroke="midnightblue" points="680.68,-639.968 671.957,-645.981 682.526,-646.721 680.68,-639.968"/>
</g>
</g>
</svg>
