<?xml version="1.0" encoding="UTF-8" standalone="no"?>
<!DOCTYPE svg PUBLIC "-//W3C//DTD SVG 1.1//EN"
 "http://www.w3.org/Graphics/SVG/1.1/DTD/svg11.dtd">
<!-- Generated by graphviz version 2.38.0 (20140413.2041)
 -->
<!-- Title: dbgetnull Pages: 1 -->
<svg width="273pt" height="47pt"
 viewBox="0.00 0.00 273.00 47.00" xmlns="http://www.w3.org/2000/svg" xmlns:xlink="http://www.w3.org/1999/xlink">
<g id="graph0" class="graph" transform="scale(1 1) rotate(0) translate(4 43)">
<title>dbgetnull</title>
<polygon fill="white" stroke="none" points="-4,4 -4,-43 269,-43 269,4 -4,4"/>
<!-- Node1 -->
<g id="node1" class="node"><title>Node1</title>
<polygon fill="#bfbfbf" stroke="black" points="0,-19.5 0,-38.5 59,-38.5 59,-19.5 0,-19.5"/>
<text text-anchor="middle" x="29.5" y="-26.5" font-family="Helvetica,sans-Serif" font-size="10.00">dbgetnull</text>
</g>
<!-- Node2 -->
<g id="node2" class="node"><title>Node2</title>
<g id="a_node2"><a xlink:href="a00193.html#ab45c291105027e69836002e1dd586141" target="_top" xlink:title="Write a message to the debug log. ">
<polygon fill="white" stroke="black" points="188,-19.5 188,-38.5 265,-38.5 265,-19.5 188,-19.5"/>
<text text-anchor="middle" x="226.5" y="-26.5" font-family="Helvetica,sans-Serif" font-size="10.00">tdsdump_log</text>
</a>
</g>
</g>
<!-- Node1&#45;&gt;Node2 -->
<g id="edge1" class="edge"><title>Node1&#45;&gt;Node2</title>
<path fill="none" stroke="midnightblue" d="M59.2729,-29C90.4548,-29 140.718,-29 177.82,-29"/>
<polygon fill="midnightblue" stroke="midnightblue" points="177.909,-32.5001 187.909,-29 177.909,-25.5001 177.909,-32.5001"/>
</g>
<!-- Node3 -->
<g id="node3" class="node"><title>Node3</title>
<g id="a_node3"><a xlink:href="a00347.html#ga302a4ce6559b81808e3be51615cd1b67" target="_top" xlink:title="Call client&#45;installed error handler. ">
<polygon fill="white" stroke="black" points="95,-0.5 95,-19.5 152,-19.5 152,-0.5 95,-0.5"/>
<text text-anchor="middle" x="123.5" y="-7.5" font-family="Helvetica,sans-Serif" font-size="10.00">dbperror</text>
</a>
</g>
</g>
<!-- Node1&#45;&gt;Node3 -->
<g id="edge2" class="edge"><title>Node1&#45;&gt;Node3</title>
<path fill="none" stroke="midnightblue" d="M59.1051,-23.0924C67.2941,-21.4012 76.3458,-19.5319 84.9839,-17.7479"/>
<polygon fill="midnightblue" stroke="midnightblue" points="85.7726,-21.159 94.858,-15.7087 84.3567,-14.3036 85.7726,-21.159"/>
</g>
<!-- Node3&#45;&gt;Node2 -->
<g id="edge3" class="edge"><title>Node3&#45;&gt;Node2</title>
<path fill="none" stroke="midnightblue" d="M152.099,-15.1918C160.077,-16.6926 169.022,-18.3755 177.851,-20.0363"/>
<polygon fill="midnightblue" stroke="midnightblue" points="177.237,-23.4822 187.712,-21.8913 178.531,-16.6028 177.237,-23.4822"/>
</g>
</g>
</svg>
