<?xml version="1.0" encoding="UTF-8" standalone="no"?>
<!DOCTYPE svg PUBLIC "-//W3C//DTD SVG 1.1//EN"
 "http://www.w3.org/Graphics/SVG/1.1/DTD/svg11.dtd">
<!-- Generated by graphviz version 2.38.0 (20140413.2041)
 -->
<!-- Title: tds7_build_bulk_insert_stmt Pages: 1 -->
<svg width="643pt" height="221pt"
 viewBox="0.00 0.00 643.00 220.89" xmlns="http://www.w3.org/2000/svg" xmlns:xlink="http://www.w3.org/1999/xlink">
<g id="graph0" class="graph" transform="scale(1 1) rotate(0) translate(4 216.895)">
<title>tds7_build_bulk_insert_stmt</title>
<polygon fill="white" stroke="none" points="-4,4 -4,-216.895 639,-216.895 639,4 -4,4"/>
<!-- Node1 -->
<g id="node1" class="node"><title>Node1</title>
<polygon fill="#bfbfbf" stroke="black" points="0,-104.5 0,-123.5 146,-123.5 146,-104.5 0,-104.5"/>
<text text-anchor="middle" x="73" y="-111.5" font-family="Helvetica,sans-Serif" font-size="10.00">tds7_build_bulk_insert_stmt</text>
</g>
<!-- Node2 -->
<g id="node2" class="node"><title>Node2</title>
<g id="a_node2"><a xlink:href="a00193.html#ab45c291105027e69836002e1dd586141" target="_top" xlink:title="Write a message to the debug log. ">
<polygon fill="white" stroke="black" points="548.5,-133.5 548.5,-152.5 625.5,-152.5 625.5,-133.5 548.5,-133.5"/>
<text text-anchor="middle" x="587" y="-140.5" font-family="Helvetica,sans-Serif" font-size="10.00">tdsdump_log</text>
</a>
</g>
</g>
<!-- Node1&#45;&gt;Node2 -->
<g id="edge1" class="edge"><title>Node1&#45;&gt;Node2</title>
<path fill="none" stroke="midnightblue" d="M91.4745,-123.516C150.407,-154.337 346.893,-246.738 503,-199 527.966,-191.365 552.205,-173.415 567.978,-159.88"/>
<polygon fill="midnightblue" stroke="midnightblue" points="570.672,-162.168 575.82,-152.908 566.021,-156.936 570.672,-162.168"/>
</g>
<!-- Node3 -->
<g id="node3" class="node"><title>Node3</title>
<g id="a_node3"><a xlink:href="a00356.html#ga50d62edeb2a432e2dc668263f3f958ff" target="_top" xlink:title="Return declaration for column (like &quot;varchar(20)&quot;) ">
<polygon fill="white" stroke="black" points="182,-133.5 182,-152.5 331,-152.5 331,-133.5 182,-133.5"/>
<text text-anchor="middle" x="256.5" y="-140.5" font-family="Helvetica,sans-Serif" font-size="10.00">tds_get_column_declaration</text>
</a>
</g>
</g>
<!-- Node1&#45;&gt;Node3 -->
<g id="edge2" class="edge"><title>Node1&#45;&gt;Node3</title>
<path fill="none" stroke="midnightblue" d="M133.681,-123.536C150.351,-126.199 168.611,-129.117 185.803,-131.864"/>
<polygon fill="midnightblue" stroke="midnightblue" points="185.356,-135.337 195.783,-133.458 186.46,-128.424 185.356,-135.337"/>
</g>
<!-- Node6 -->
<g id="node6" class="node"><title>Node6</title>
<g id="a_node6"><a xlink:href="a00193.html#abf18b98efef6ce2dc0b97d658a3a1918" target="_top" xlink:title="Call the client library&#39;s error handler (for library&#45;generated errors only) ">
<polygon fill="white" stroke="black" points="229.5,-76.5 229.5,-95.5 283.5,-95.5 283.5,-76.5 229.5,-76.5"/>
<text text-anchor="middle" x="256.5" y="-83.5" font-family="Helvetica,sans-Serif" font-size="10.00">tdserror</text>
</a>
</g>
</g>
<!-- Node1&#45;&gt;Node6 -->
<g id="edge6" class="edge"><title>Node1&#45;&gt;Node6</title>
<path fill="none" stroke="midnightblue" d="M135.701,-104.481C163.452,-100.2 195.255,-95.294 219.116,-91.6129"/>
<polygon fill="midnightblue" stroke="midnightblue" points="219.799,-95.0491 229.149,-90.0652 218.732,-88.1309 219.799,-95.0491"/>
</g>
<!-- Node9 -->
<g id="node9" class="node"><title>Node9</title>
<g id="a_node9"><a xlink:href="a00356.html#ga8d8f2f1c91635ee95f30722208ae3043" target="_top" xlink:title="Quote an id. ">
<polygon fill="white" stroke="black" points="218,-19.5 218,-38.5 295,-38.5 295,-19.5 218,-19.5"/>
<text text-anchor="middle" x="256.5" y="-26.5" font-family="Helvetica,sans-Serif" font-size="10.00">tds_quote_id</text>
</a>
</g>
</g>
<!-- Node1&#45;&gt;Node9 -->
<g id="edge11" class="edge"><title>Node1&#45;&gt;Node9</title>
<path fill="none" stroke="midnightblue" d="M94.4675,-104.415C126.552,-89.389 188.835,-60.2207 225.834,-42.8933"/>
<polygon fill="midnightblue" stroke="midnightblue" points="227.536,-45.9612 235.107,-38.5503 224.567,-39.6219 227.536,-45.9612"/>
</g>
<!-- Node3&#45;&gt;Node2 -->
<g id="edge5" class="edge"><title>Node3&#45;&gt;Node2</title>
<path fill="none" stroke="midnightblue" d="M278.348,-152.59C299.98,-161.973 335.053,-175.614 367,-181 426.603,-191.048 443.943,-193.876 503,-181 523.84,-176.456 545.708,-166.187 561.763,-157.469"/>
<polygon fill="midnightblue" stroke="midnightblue" points="563.485,-160.516 570.493,-152.57 560.059,-154.411 563.485,-160.516"/>
</g>
<!-- Node4 -->
<g id="node4" class="node"><title>Node4</title>
<g id="a_node4"><a xlink:href="a00356.html#ga440f0f469afad1eac4c008979873ccdd" target="_top" xlink:title="Get column size for wire. ">
<polygon fill="white" stroke="black" points="379.5,-152.5 379.5,-171.5 490.5,-171.5 490.5,-152.5 379.5,-152.5"/>
<text text-anchor="middle" x="435" y="-159.5" font-family="Helvetica,sans-Serif" font-size="10.00">tds_fix_column_size</text>
</a>
</g>
</g>
<!-- Node3&#45;&gt;Node4 -->
<g id="edge3" class="edge"><title>Node3&#45;&gt;Node4</title>
<path fill="none" stroke="midnightblue" d="M331.074,-150.92C343.71,-152.28 356.76,-153.685 369.147,-155.019"/>
<polygon fill="midnightblue" stroke="midnightblue" points="369.055,-158.529 379.372,-156.119 369.804,-151.569 369.055,-158.529"/>
</g>
<!-- Node5 -->
<g id="node5" class="node"><title>Node5</title>
<g id="a_node5"><a xlink:href="a00193.html#ae7f4c4d5f7352f1c814284c536659e6f" target="_top" xlink:title="Return type suitable for conversions (convert all nullable types to fixed type) ">
<polygon fill="white" stroke="black" points="367,-114.5 367,-133.5 503,-133.5 503,-114.5 367,-114.5"/>
<text text-anchor="middle" x="435" y="-121.5" font-family="Helvetica,sans-Serif" font-size="10.00">tds_get_conversion_type</text>
</a>
</g>
</g>
<!-- Node3&#45;&gt;Node5 -->
<g id="edge4" class="edge"><title>Node3&#45;&gt;Node5</title>
<path fill="none" stroke="midnightblue" d="M331.074,-135.08C339.572,-134.165 348.257,-133.23 356.802,-132.31"/>
<polygon fill="midnightblue" stroke="midnightblue" points="357.18,-135.79 366.748,-131.24 356.431,-128.83 357.18,-135.79"/>
</g>
<!-- Node6&#45;&gt;Node2 -->
<g id="edge7" class="edge"><title>Node6&#45;&gt;Node2</title>
<path fill="none" stroke="midnightblue" d="M283.794,-85.0466C329.267,-84.0539 425.196,-84.8603 503,-105 523.202,-110.229 544.58,-120.132 560.58,-128.518"/>
<polygon fill="midnightblue" stroke="midnightblue" points="559.326,-131.818 569.788,-133.487 562.65,-125.658 559.326,-131.818"/>
</g>
<!-- Node7 -->
<g id="node7" class="node"><title>Node7</title>
<g id="a_node7"><a xlink:href="a00356.html#ga11338742dc30fd0c2711f58eb830316f" target="_top" xlink:title="tds_send_cancel() sends an empty packet (8 byte header only) tds_process_cancel should be called dire...">
<polygon fill="white" stroke="black" points="386.5,-38.5 386.5,-57.5 483.5,-57.5 483.5,-38.5 386.5,-38.5"/>
<text text-anchor="middle" x="435" y="-45.5" font-family="Helvetica,sans-Serif" font-size="10.00">tds_send_cancel</text>
</a>
</g>
</g>
<!-- Node6&#45;&gt;Node7 -->
<g id="edge8" class="edge"><title>Node6&#45;&gt;Node7</title>
<path fill="none" stroke="midnightblue" d="M283.543,-80.393C308.723,-74.9719 347.648,-66.5913 379.598,-59.7126"/>
<polygon fill="midnightblue" stroke="midnightblue" points="380.661,-63.0641 389.7,-57.5377 379.187,-56.2209 380.661,-63.0641"/>
</g>
<!-- Node7&#45;&gt;Node2 -->
<g id="edge9" class="edge"><title>Node7&#45;&gt;Node2</title>
<path fill="none" stroke="midnightblue" d="M470.122,-57.5473C481.004,-61.2848 492.848,-66.1087 503,-72 528.699,-86.9126 554.032,-110.168 569.821,-125.968"/>
<polygon fill="midnightblue" stroke="midnightblue" points="567.663,-128.767 577.158,-133.466 572.666,-123.871 567.663,-128.767"/>
</g>
<!-- Node8 -->
<g id="node8" class="node"><title>Node8</title>
<g id="a_node8"><a xlink:href="a00357.html#ga5feb53554e8917a81bbbc332163a61fb" target="_top" xlink:title="Flush packet to server. ">
<polygon fill="white" stroke="black" points="539,-38.5 539,-57.5 635,-57.5 635,-38.5 539,-38.5"/>
<text text-anchor="middle" x="587" y="-45.5" font-family="Helvetica,sans-Serif" font-size="10.00">tds_flush_packet</text>
</a>
</g>
</g>
<!-- Node7&#45;&gt;Node8 -->
<g id="edge10" class="edge"><title>Node7&#45;&gt;Node8</title>
<path fill="none" stroke="midnightblue" d="M483.873,-48C498.154,-48 513.952,-48 528.768,-48"/>
<polygon fill="midnightblue" stroke="midnightblue" points="528.837,-51.5001 538.837,-48 528.837,-44.5001 528.837,-51.5001"/>
</g>
<!-- Node10 -->
<g id="node10" class="node"><title>Node10</title>
<g id="a_node10"><a xlink:href="a00356.html#ga7efaa23c3b21158ffc963f85fbc3fdf4" target="_top" xlink:title="Quote a string properly. ">
<polygon fill="white" stroke="black" points="403.5,-0.5 403.5,-19.5 466.5,-19.5 466.5,-0.5 403.5,-0.5"/>
<text text-anchor="middle" x="435" y="-7.5" font-family="Helvetica,sans-Serif" font-size="10.00">tds_quote</text>
</a>
</g>
</g>
<!-- Node9&#45;&gt;Node10 -->
<g id="edge12" class="edge"><title>Node9&#45;&gt;Node10</title>
<path fill="none" stroke="midnightblue" d="M295.364,-24.924C324.177,-21.8223 363.768,-17.5604 393.266,-14.3849"/>
<polygon fill="midnightblue" stroke="midnightblue" points="393.677,-17.861 403.245,-13.3107 392.928,-10.9012 393.677,-17.861"/>
</g>
</g>
</svg>
