<?xml version="1.0" encoding="UTF-8" standalone="no"?>
<!DOCTYPE svg PUBLIC "-//W3C//DTD SVG 1.1//EN"
 "http://www.w3.org/Graphics/SVG/1.1/DTD/svg11.dtd">
<!-- Generated by graphviz version 2.38.0 (20140413.2041)
 -->
<!-- Title: dbpivot Pages: 1 -->
<svg width="569pt" height="345pt"
 viewBox="0.00 0.00 569.00 344.93" xmlns="http://www.w3.org/2000/svg" xmlns:xlink="http://www.w3.org/1999/xlink">
<g id="graph0" class="graph" transform="scale(1 1) rotate(0) translate(4 340.935)">
<title>dbpivot</title>
<polygon fill="white" stroke="none" points="-4,4 -4,-340.935 565,-340.935 565,4 -4,4"/>
<!-- Node1 -->
<g id="node1" class="node"><title>Node1</title>
<polygon fill="#bfbfbf" stroke="black" points="0,-208.51 0,-227.51 50,-227.51 50,-208.51 0,-208.51"/>
<text text-anchor="middle" x="25" y="-215.51" font-family="Helvetica,sans-Serif" font-size="10.00">dbpivot</text>
</g>
<!-- Node2 -->
<g id="node2" class="node"><title>Node2</title>
<g id="a_node2"><a xlink:href="a00193.html#ab45c291105027e69836002e1dd586141" target="_top" xlink:title="Write a message to the debug log. ">
<polygon fill="white" stroke="black" points="484,-156.51 484,-175.51 561,-175.51 561,-156.51 484,-156.51"/>
<text text-anchor="middle" x="522.5" y="-163.51" font-family="Helvetica,sans-Serif" font-size="10.00">tdsdump_log</text>
</a>
</g>
</g>
<!-- Node1&#45;&gt;Node2 -->
<g id="edge1" class="edge"><title>Node1&#45;&gt;Node2</title>
<path fill="none" stroke="midnightblue" d="M33.228,-227.748C43.6719,-241.297 64.1407,-265.975 86,-282.01 173.854,-346.456 217.275,-339.109 326,-332.01 380.57,-328.447 403.581,-347.909 448,-316.01 492.038,-284.384 510.955,-218.95 517.955,-185.955"/>
<polygon fill="midnightblue" stroke="midnightblue" points="521.467,-186.233 519.956,-175.746 514.598,-184.886 521.467,-186.233"/>
</g>
<!-- Node3 -->
<g id="node3" class="node"><title>Node3</title>
<g id="a_node3"><a xlink:href="a00341.html#ga636e6f1b64743f3cf22158a56eef371f" target="_top" xlink:title="Get the datatype of a regular result set column. ">
<polygon fill="white" stroke="black" points="89,-227.51 89,-246.51 151,-246.51 151,-227.51 89,-227.51"/>
<text text-anchor="middle" x="120" y="-234.51" font-family="Helvetica,sans-Serif" font-size="10.00">dbcoltype</text>
</a>
</g>
</g>
<!-- Node1&#45;&gt;Node3 -->
<g id="edge2" class="edge"><title>Node1&#45;&gt;Node3</title>
<path fill="none" stroke="midnightblue" d="M50.4347,-223.002C59.1421,-224.781 69.1933,-226.834 78.8695,-228.811"/>
<polygon fill="midnightblue" stroke="midnightblue" points="78.2471,-232.256 88.7453,-230.829 79.6483,-225.398 78.2471,-232.256"/>
</g>
<!-- Node5 -->
<g id="node5" class="node"><title>Node5</title>
<g id="a_node5"><a xlink:href="a00341.html#ga89fc5589b4bf41932324d2cfc6ad6433" target="_top" xlink:title="Get size of a regular result column. ">
<polygon fill="white" stroke="black" points="230,-303.51 230,-322.51 286,-322.51 286,-303.51 230,-303.51"/>
<text text-anchor="middle" x="258" y="-310.51" font-family="Helvetica,sans-Serif" font-size="10.00">dbcollen</text>
</a>
</g>
</g>
<!-- Node1&#45;&gt;Node5 -->
<g id="edge5" class="edge"><title>Node1&#45;&gt;Node5</title>
<path fill="none" stroke="midnightblue" d="M39.2784,-227.75C51.091,-236.084 69.0687,-247.973 86,-256.01 130.385,-277.077 184.646,-293.743 219.974,-303.482"/>
<polygon fill="midnightblue" stroke="midnightblue" points="219.288,-306.922 229.855,-306.161 221.12,-300.166 219.288,-306.922"/>
</g>
<!-- Node6 -->
<g id="node6" class="node"><title>Node6</title>
<g id="a_node6"><a xlink:href="a00341.html#ga873bc0f4663165e711655ade1dfae795" target="_top" xlink:title="Tie a host variable to a resultset column. ">
<polygon fill="white" stroke="black" points="96.5,-189.51 96.5,-208.51 143.5,-208.51 143.5,-189.51 96.5,-189.51"/>
<text text-anchor="middle" x="120" y="-196.51" font-family="Helvetica,sans-Serif" font-size="10.00">dbbind</text>
</a>
</g>
</g>
<!-- Node1&#45;&gt;Node6 -->
<g id="edge7" class="edge"><title>Node1&#45;&gt;Node6</title>
<path fill="none" stroke="midnightblue" d="M50.4347,-213.018C61.4234,-210.773 74.5524,-208.09 86.3668,-205.677"/>
<polygon fill="midnightblue" stroke="midnightblue" points="87.227,-209.073 96.324,-203.642 85.8258,-202.215 87.227,-209.073"/>
</g>
<!-- Node10 -->
<g id="node10" class="node"><title>Node10</title>
<g id="a_node10"><a xlink:href="a00341.html#ga85dcc40c3615f94be96b09b2ec043533" target="_top" xlink:title="Tie a null&#45;indicator to a regular result column. ">
<polygon fill="white" stroke="black" points="373.5,-42.5097 373.5,-61.5097 436.5,-61.5097 436.5,-42.5097 373.5,-42.5097"/>
<text text-anchor="middle" x="405" y="-49.5097" font-family="Helvetica,sans-Serif" font-size="10.00">dbnullbind</text>
</a>
</g>
</g>
<!-- Node1&#45;&gt;Node10 -->
<g id="edge16" class="edge"><title>Node1&#45;&gt;Node10</title>
<path fill="none" stroke="midnightblue" d="M36.656,-208.446C61.5892,-186.578 126.443,-132.614 190,-104.01 247.293,-78.2241 319.209,-64.1162 363.368,-57.3188"/>
<polygon fill="midnightblue" stroke="midnightblue" points="364.055,-60.7552 373.431,-55.8226 363.025,-53.8313 364.055,-60.7552"/>
</g>
<!-- Node11 -->
<g id="node11" class="node"><title>Node11</title>
<g id="a_node11"><a xlink:href="a00341.html#gad06f5deddac18604dfa858b2580e232f" target="_top" xlink:title="Return name of a regular result column. ">
<polygon fill="white" stroke="black" points="86,-23.5097 86,-42.5097 154,-42.5097 154,-23.5097 86,-23.5097"/>
<text text-anchor="middle" x="120" y="-30.5097" font-family="Helvetica,sans-Serif" font-size="10.00">dbcolname</text>
</a>
</g>
</g>
<!-- Node1&#45;&gt;Node11 -->
<g id="edge18" class="edge"><title>Node1&#45;&gt;Node11</title>
<path fill="none" stroke="midnightblue" d="M28.3032,-208.472C34.6247,-183.52 53.9386,-114.873 86,-66.0097 89.792,-60.2304 94.7215,-54.6382 99.6092,-49.7501"/>
<polygon fill="midnightblue" stroke="midnightblue" points="102.196,-52.1219 107.086,-42.7229 97.4022,-47.0212 102.196,-52.1219"/>
</g>
<!-- Node3&#45;&gt;Node2 -->
<g id="edge3" class="edge"><title>Node3&#45;&gt;Node2</title>
<path fill="none" stroke="midnightblue" d="M148.845,-246.512C161.279,-250.276 176.209,-254.146 190,-256.01 249.9,-264.106 266.82,-268.309 326,-256.01 392.157,-242.26 462.403,-203.025 497.948,-181.172"/>
<polygon fill="midnightblue" stroke="midnightblue" points="499.988,-184.025 506.618,-175.761 496.282,-178.087 499.988,-184.025"/>
</g>
<!-- Node4 -->
<g id="node4" class="node"><title>Node4</title>
<g id="a_node4"><a xlink:href="a00193.html#ae7f4c4d5f7352f1c814284c536659e6f" target="_top" xlink:title="Return type suitable for conversions (convert all nullable types to fixed type) ">
<polygon fill="white" stroke="black" points="190,-227.51 190,-246.51 326,-246.51 326,-227.51 190,-227.51"/>
<text text-anchor="middle" x="258" y="-234.51" font-family="Helvetica,sans-Serif" font-size="10.00">tds_get_conversion_type</text>
</a>
</g>
</g>
<!-- Node3&#45;&gt;Node4 -->
<g id="edge4" class="edge"><title>Node3&#45;&gt;Node4</title>
<path fill="none" stroke="midnightblue" d="M151.183,-237.01C159.81,-237.01 169.629,-237.01 179.726,-237.01"/>
<polygon fill="midnightblue" stroke="midnightblue" points="179.881,-240.51 189.881,-237.01 179.881,-233.51 179.881,-240.51"/>
</g>
<!-- Node5&#45;&gt;Node2 -->
<g id="edge6" class="edge"><title>Node5&#45;&gt;Node2</title>
<path fill="none" stroke="midnightblue" d="M286.234,-316.567C325.384,-320.232 398.313,-321.509 448,-289.01 485.493,-264.486 506.609,-213.594 515.835,-185.57"/>
<polygon fill="midnightblue" stroke="midnightblue" points="519.266,-186.323 518.891,-175.734 512.582,-184.246 519.266,-186.323"/>
</g>
<!-- Node6&#45;&gt;Node2 -->
<g id="edge8" class="edge"><title>Node6&#45;&gt;Node2</title>
<path fill="none" stroke="midnightblue" d="M143.753,-199.67C197.191,-200.866 334.752,-201.88 448,-185.01 458.768,-183.406 470.239,-180.859 480.839,-178.144"/>
<polygon fill="midnightblue" stroke="midnightblue" points="481.924,-181.477 490.683,-175.516 480.119,-174.714 481.924,-181.477"/>
</g>
<!-- Node6&#45;&gt;Node4 -->
<g id="edge11" class="edge"><title>Node6&#45;&gt;Node4</title>
<path fill="none" stroke="midnightblue" d="M143.763,-205.37C162.602,-210.634 189.918,-218.266 213.001,-224.716"/>
<polygon fill="midnightblue" stroke="midnightblue" points="212.357,-228.17 222.93,-227.49 214.24,-221.428 212.357,-228.17"/>
</g>
<!-- Node7 -->
<g id="node7" class="node"><title>Node7</title>
<g id="a_node7"><a xlink:href="a00347.html#ga302a4ce6559b81808e3be51615cd1b67" target="_top" xlink:title="Call client&#45;installed error handler. ">
<polygon fill="white" stroke="black" points="376.5,-156.51 376.5,-175.51 433.5,-175.51 433.5,-156.51 376.5,-156.51"/>
<text text-anchor="middle" x="405" y="-163.51" font-family="Helvetica,sans-Serif" font-size="10.00">dbperror</text>
</a>
</g>
</g>
<!-- Node6&#45;&gt;Node7 -->
<g id="edge9" class="edge"><title>Node6&#45;&gt;Node7</title>
<path fill="none" stroke="midnightblue" d="M143.575,-193.767C156.997,-190.815 174.396,-187.278 190,-185.01 251.379,-176.087 323.313,-170.739 366.191,-168.087"/>
<polygon fill="midnightblue" stroke="midnightblue" points="366.411,-171.58 376.183,-167.485 365.991,-164.593 366.411,-171.58"/>
</g>
<!-- Node8 -->
<g id="node8" class="node"><title>Node8</title>
<g id="a_node8"><a xlink:href="a00341.html#gaaf8349999c16b3c36caf5947747a2915" target="_top" xlink:title="Test whether or not a datatype can be converted to another datatype. ">
<polygon fill="white" stroke="black" points="219.5,-113.51 219.5,-132.51 296.5,-132.51 296.5,-113.51 219.5,-113.51"/>
<text text-anchor="middle" x="258" y="-120.51" font-family="Helvetica,sans-Serif" font-size="10.00">dbwillconvert</text>
</a>
</g>
</g>
<!-- Node6&#45;&gt;Node8 -->
<g id="edge12" class="edge"><title>Node6&#45;&gt;Node8</title>
<path fill="none" stroke="midnightblue" d="M131.531,-189.448C144.495,-178.078 167.559,-159.121 190,-147.01 197.659,-142.876 206.175,-139.201 214.498,-136.044"/>
<polygon fill="midnightblue" stroke="midnightblue" points="215.893,-139.261 224.115,-132.579 213.521,-132.675 215.893,-139.261"/>
</g>
<!-- Node7&#45;&gt;Node2 -->
<g id="edge10" class="edge"><title>Node7&#45;&gt;Node2</title>
<path fill="none" stroke="midnightblue" d="M433.665,-166.01C445.578,-166.01 459.86,-166.01 473.412,-166.01"/>
<polygon fill="midnightblue" stroke="midnightblue" points="473.581,-169.51 483.581,-166.01 473.581,-162.51 473.581,-169.51"/>
</g>
<!-- Node8&#45;&gt;Node2 -->
<g id="edge13" class="edge"><title>Node8&#45;&gt;Node2</title>
<path fill="none" stroke="midnightblue" d="M289.732,-113.467C327.934,-103.228 394.614,-90.7346 448,-109.01 470.988,-116.879 492.345,-135.189 506.046,-148.949"/>
<polygon fill="midnightblue" stroke="midnightblue" points="503.742,-151.603 513.184,-156.41 508.801,-146.765 503.742,-151.603"/>
</g>
<!-- Node9 -->
<g id="node9" class="node"><title>Node9</title>
<g id="a_node9"><a xlink:href="a00353.html#ga80487b313213f60d8be71a50a002bb2c" target="_top" xlink:title="Test if a conversion is possible. ">
<polygon fill="white" stroke="black" points="362,-118.51 362,-137.51 448,-137.51 448,-118.51 362,-118.51"/>
<text text-anchor="middle" x="405" y="-125.51" font-family="Helvetica,sans-Serif" font-size="10.00">tds_willconvert</text>
</a>
</g>
</g>
<!-- Node8&#45;&gt;Node9 -->
<g id="edge14" class="edge"><title>Node8&#45;&gt;Node9</title>
<path fill="none" stroke="midnightblue" d="M296.719,-124.31C313.491,-124.889 333.518,-125.579 351.703,-126.206"/>
<polygon fill="midnightblue" stroke="midnightblue" points="351.755,-129.71 361.87,-126.557 351.996,-122.714 351.755,-129.71"/>
</g>
<!-- Node9&#45;&gt;Node2 -->
<g id="edge15" class="edge"><title>Node9&#45;&gt;Node2</title>
<path fill="none" stroke="midnightblue" d="M435.146,-137.599C449.508,-142.324 467.029,-148.089 482.526,-153.187"/>
<polygon fill="midnightblue" stroke="midnightblue" points="481.771,-156.623 492.364,-156.424 483.959,-149.974 481.771,-156.623"/>
</g>
<!-- Node10&#45;&gt;Node2 -->
<g id="edge17" class="edge"><title>Node10&#45;&gt;Node2</title>
<path fill="none" stroke="midnightblue" d="M426.213,-61.6064C433.467,-65.5401 441.462,-70.4745 448,-76.0097 473.271,-97.4063 496.352,-128.364 509.662,-147.827"/>
<polygon fill="midnightblue" stroke="midnightblue" points="506.907,-150.002 515.378,-156.365 512.724,-146.108 506.907,-150.002"/>
</g>
<!-- Node11&#45;&gt;Node2 -->
<g id="edge19" class="edge"><title>Node11&#45;&gt;Node2</title>
<path fill="none" stroke="midnightblue" d="M151.61,-23.4289C212.83,-6.20432 352.651,23.2376 448,-33.0097 489.891,-57.7217 509.565,-115.817 517.295,-146.398"/>
<polygon fill="midnightblue" stroke="midnightblue" points="513.929,-147.372 519.622,-156.307 520.743,-145.771 513.929,-147.372"/>
</g>
</g>
</svg>
