<?xml version="1.0" encoding="UTF-8" standalone="no"?>
<!DOCTYPE svg PUBLIC "-//W3C//DTD SVG 1.1//EN"
 "http://www.w3.org/Graphics/SVG/1.1/DTD/svg11.dtd">
<!-- Generated by graphviz version 2.38.0 (20140413.2041)
 -->
<!-- Title: tds_bcp_start_insert_stmt Pages: 1 -->
<svg width="798pt" height="217pt"
 viewBox="0.00 0.00 798.00 217.36" xmlns="http://www.w3.org/2000/svg" xmlns:xlink="http://www.w3.org/1999/xlink">
<g id="graph0" class="graph" transform="scale(1 1) rotate(0) translate(4 213.364)">
<title>tds_bcp_start_insert_stmt</title>
<polygon fill="white" stroke="none" points="-4,4 -4,-213.364 794,-213.364 794,4 -4,4"/>
<!-- Node1 -->
<g id="node1" class="node"><title>Node1</title>
<polygon fill="#bfbfbf" stroke="black" points="0,-104.5 0,-123.5 138,-123.5 138,-104.5 0,-104.5"/>
<text text-anchor="middle" x="69" y="-111.5" font-family="Helvetica,sans-Serif" font-size="10.00">tds_bcp_start_insert_stmt</text>
</g>
<!-- Node2 -->
<g id="node2" class="node"><title>Node2</title>
<g id="a_node2"><a xlink:href="a00294.html#a3118c7232bc9c3e47f8ba872bb39e967" target="_top" xlink:title="Help to build query to be sent to server. ">
<polygon fill="white" stroke="black" points="174,-104.5 174,-123.5 320,-123.5 320,-104.5 174,-104.5"/>
<text text-anchor="middle" x="247" y="-111.5" font-family="Helvetica,sans-Serif" font-size="10.00">tds7_build_bulk_insert_stmt</text>
</a>
</g>
</g>
<!-- Node1&#45;&gt;Node2 -->
<g id="edge1" class="edge"><title>Node1&#45;&gt;Node2</title>
<path fill="none" stroke="midnightblue" d="M138.046,-114C146.459,-114 155.128,-114 163.724,-114"/>
<polygon fill="midnightblue" stroke="midnightblue" points="163.762,-117.5 173.762,-114 163.762,-110.5 163.762,-117.5"/>
</g>
<!-- Node3 -->
<g id="node3" class="node"><title>Node3</title>
<g id="a_node3"><a xlink:href="a00193.html#ab45c291105027e69836002e1dd586141" target="_top" xlink:title="Write a message to the debug log. ">
<polygon fill="white" stroke="black" points="713,-133.5 713,-152.5 790,-152.5 790,-133.5 713,-133.5"/>
<text text-anchor="middle" x="751.5" y="-140.5" font-family="Helvetica,sans-Serif" font-size="10.00">tdsdump_log</text>
</a>
</g>
</g>
<!-- Node2&#45;&gt;Node3 -->
<g id="edge2" class="edge"><title>Node2&#45;&gt;Node3</title>
<path fill="none" stroke="midnightblue" d="M266.243,-123.606C287.335,-134.355 323.345,-151.618 356,-162 435.91,-187.404 457.558,-190.738 541,-199 601.15,-204.956 619.73,-218.331 677,-199 699.616,-191.366 720.773,-173.687 734.526,-160.22"/>
<polygon fill="midnightblue" stroke="midnightblue" points="737.218,-162.474 741.723,-152.885 732.221,-157.571 737.218,-162.474"/>
</g>
<!-- Node4 -->
<g id="node4" class="node"><title>Node4</title>
<g id="a_node4"><a xlink:href="a00356.html#ga50d62edeb2a432e2dc668263f3f958ff" target="_top" xlink:title="Return declaration for column (like &quot;varchar(20)&quot;) ">
<polygon fill="white" stroke="black" points="356,-133.5 356,-152.5 505,-152.5 505,-133.5 356,-133.5"/>
<text text-anchor="middle" x="430.5" y="-140.5" font-family="Helvetica,sans-Serif" font-size="10.00">tds_get_column_declaration</text>
</a>
</g>
</g>
<!-- Node2&#45;&gt;Node4 -->
<g id="edge3" class="edge"><title>Node2&#45;&gt;Node4</title>
<path fill="none" stroke="midnightblue" d="M307.681,-123.536C324.351,-126.199 342.611,-129.117 359.803,-131.864"/>
<polygon fill="midnightblue" stroke="midnightblue" points="359.356,-135.337 369.783,-133.458 360.46,-128.424 359.356,-135.337"/>
</g>
<!-- Node7 -->
<g id="node7" class="node"><title>Node7</title>
<g id="a_node7"><a xlink:href="a00193.html#abf18b98efef6ce2dc0b97d658a3a1918" target="_top" xlink:title="Call the client library&#39;s error handler (for library&#45;generated errors only) ">
<polygon fill="white" stroke="black" points="403.5,-76.5 403.5,-95.5 457.5,-95.5 457.5,-76.5 403.5,-76.5"/>
<text text-anchor="middle" x="430.5" y="-83.5" font-family="Helvetica,sans-Serif" font-size="10.00">tdserror</text>
</a>
</g>
</g>
<!-- Node2&#45;&gt;Node7 -->
<g id="edge7" class="edge"><title>Node2&#45;&gt;Node7</title>
<path fill="none" stroke="midnightblue" d="M309.701,-104.481C337.452,-100.2 369.255,-95.294 393.116,-91.6129"/>
<polygon fill="midnightblue" stroke="midnightblue" points="393.799,-95.0491 403.149,-90.0652 392.732,-88.1309 393.799,-95.0491"/>
</g>
<!-- Node9 -->
<g id="node9" class="node"><title>Node9</title>
<g id="a_node9"><a xlink:href="a00356.html#ga8d8f2f1c91635ee95f30722208ae3043" target="_top" xlink:title="Quote an id. ">
<polygon fill="white" stroke="black" points="392,-19.5 392,-38.5 469,-38.5 469,-19.5 392,-19.5"/>
<text text-anchor="middle" x="430.5" y="-26.5" font-family="Helvetica,sans-Serif" font-size="10.00">tds_quote_id</text>
</a>
</g>
</g>
<!-- Node2&#45;&gt;Node9 -->
<g id="edge11" class="edge"><title>Node2&#45;&gt;Node9</title>
<path fill="none" stroke="midnightblue" d="M268.468,-104.415C300.552,-89.389 362.835,-60.2207 399.834,-42.8933"/>
<polygon fill="midnightblue" stroke="midnightblue" points="401.536,-45.9612 409.107,-38.5503 398.567,-39.6219 401.536,-45.9612"/>
</g>
<!-- Node4&#45;&gt;Node3 -->
<g id="edge6" class="edge"><title>Node4&#45;&gt;Node3</title>
<path fill="none" stroke="midnightblue" d="M452.348,-152.59C473.98,-161.973 509.053,-175.614 541,-181 600.603,-191.048 618.268,-195.284 677,-181 695.434,-176.517 714.41,-166.545 728.463,-157.942"/>
<polygon fill="midnightblue" stroke="midnightblue" points="730.371,-160.876 736.931,-152.557 726.615,-154.97 730.371,-160.876"/>
</g>
<!-- Node5 -->
<g id="node5" class="node"><title>Node5</title>
<g id="a_node5"><a xlink:href="a00356.html#ga440f0f469afad1eac4c008979873ccdd" target="_top" xlink:title="Get column size for wire. ">
<polygon fill="white" stroke="black" points="553.5,-152.5 553.5,-171.5 664.5,-171.5 664.5,-152.5 553.5,-152.5"/>
<text text-anchor="middle" x="609" y="-159.5" font-family="Helvetica,sans-Serif" font-size="10.00">tds_fix_column_size</text>
</a>
</g>
</g>
<!-- Node4&#45;&gt;Node5 -->
<g id="edge4" class="edge"><title>Node4&#45;&gt;Node5</title>
<path fill="none" stroke="midnightblue" d="M505.074,-150.92C517.71,-152.28 530.76,-153.685 543.147,-155.019"/>
<polygon fill="midnightblue" stroke="midnightblue" points="543.055,-158.529 553.372,-156.119 543.804,-151.569 543.055,-158.529"/>
</g>
<!-- Node6 -->
<g id="node6" class="node"><title>Node6</title>
<g id="a_node6"><a xlink:href="a00193.html#ae7f4c4d5f7352f1c814284c536659e6f" target="_top" xlink:title="Return type suitable for conversions (convert all nullable types to fixed type) ">
<polygon fill="white" stroke="black" points="541,-114.5 541,-133.5 677,-133.5 677,-114.5 541,-114.5"/>
<text text-anchor="middle" x="609" y="-121.5" font-family="Helvetica,sans-Serif" font-size="10.00">tds_get_conversion_type</text>
</a>
</g>
</g>
<!-- Node4&#45;&gt;Node6 -->
<g id="edge5" class="edge"><title>Node4&#45;&gt;Node6</title>
<path fill="none" stroke="midnightblue" d="M505.074,-135.08C513.572,-134.165 522.257,-133.23 530.802,-132.31"/>
<polygon fill="midnightblue" stroke="midnightblue" points="531.18,-135.79 540.748,-131.24 530.431,-128.83 531.18,-135.79"/>
</g>
<!-- Node7&#45;&gt;Node3 -->
<g id="edge8" class="edge"><title>Node7&#45;&gt;Node3</title>
<path fill="none" stroke="midnightblue" d="M457.538,-84.6668C503.023,-83.0695 599.494,-82.9477 677,-105 694.849,-110.079 713.401,-119.709 727.401,-128.003"/>
<polygon fill="midnightblue" stroke="midnightblue" points="725.947,-131.217 736.302,-133.46 729.605,-125.249 725.947,-131.217"/>
</g>
<!-- Node8 -->
<g id="node8" class="node"><title>Node8</title>
<g id="a_node8"><a xlink:href="a00356.html#ga11338742dc30fd0c2711f58eb830316f" target="_top" xlink:title="tds_send_cancel() sends an empty packet (8 byte header only) tds_process_cancel should be called dire...">
<polygon fill="white" stroke="red" points="560.5,-38.5 560.5,-57.5 657.5,-57.5 657.5,-38.5 560.5,-38.5"/>
<text text-anchor="middle" x="609" y="-45.5" font-family="Helvetica,sans-Serif" font-size="10.00">tds_send_cancel</text>
</a>
</g>
</g>
<!-- Node7&#45;&gt;Node8 -->
<g id="edge9" class="edge"><title>Node7&#45;&gt;Node8</title>
<path fill="none" stroke="midnightblue" d="M457.543,-80.393C482.723,-74.9719 521.648,-66.5913 553.598,-59.7126"/>
<polygon fill="midnightblue" stroke="midnightblue" points="554.661,-63.0641 563.7,-57.5377 553.187,-56.2209 554.661,-63.0641"/>
</g>
<!-- Node8&#45;&gt;Node3 -->
<g id="edge10" class="edge"><title>Node8&#45;&gt;Node3</title>
<path fill="none" stroke="midnightblue" d="M645.373,-57.542C655.977,-61.213 667.345,-66.0001 677,-72 700.395,-86.5383 722.446,-109.555 736.179,-125.42"/>
<polygon fill="midnightblue" stroke="midnightblue" points="733.786,-128.012 742.908,-133.399 739.136,-123.499 733.786,-128.012"/>
</g>
<!-- Node10 -->
<g id="node10" class="node"><title>Node10</title>
<g id="a_node10"><a xlink:href="a00356.html#ga7efaa23c3b21158ffc963f85fbc3fdf4" target="_top" xlink:title="Quote a string properly. ">
<polygon fill="white" stroke="black" points="577.5,-0.5 577.5,-19.5 640.5,-19.5 640.5,-0.5 577.5,-0.5"/>
<text text-anchor="middle" x="609" y="-7.5" font-family="Helvetica,sans-Serif" font-size="10.00">tds_quote</text>
</a>
</g>
</g>
<!-- Node9&#45;&gt;Node10 -->
<g id="edge12" class="edge"><title>Node9&#45;&gt;Node10</title>
<path fill="none" stroke="midnightblue" d="M469.364,-24.924C498.177,-21.8223 537.768,-17.5604 567.266,-14.3849"/>
<polygon fill="midnightblue" stroke="midnightblue" points="567.677,-17.861 577.245,-13.3107 566.928,-10.9012 567.677,-17.861"/>
</g>
</g>
</svg>
