<?xml version="1.0" encoding="UTF-8" standalone="no"?>
<!DOCTYPE svg PUBLIC "-//W3C//DTD SVG 1.1//EN"
 "http://www.w3.org/Graphics/SVG/1.1/DTD/svg11.dtd">
<!-- Generated by graphviz version 2.38.0 (20140413.2041)
 -->
<!-- Title: tds_staticin_stream_init Pages: 1 -->
<svg width="943pt" height="376pt"
 viewBox="0.00 0.00 943.00 376.13" xmlns="http://www.w3.org/2000/svg" xmlns:xlink="http://www.w3.org/1999/xlink">
<g id="graph0" class="graph" transform="scale(1 1) rotate(0) translate(4 372.126)">
<title>tds_staticin_stream_init</title>
<polygon fill="white" stroke="none" points="-4,4 -4,-372.126 939,-372.126 939,4 -4,4"/>
<!-- Node1 -->
<g id="node1" class="node"><title>Node1</title>
<polygon fill="#bfbfbf" stroke="black" points="0,-127.829 0,-146.829 128,-146.829 128,-127.829 0,-127.829"/>
<text text-anchor="middle" x="64" y="-134.829" font-family="Helvetica,sans-Serif" font-size="10.00">tds_staticin_stream_init</text>
</g>
<!-- Node2 -->
<g id="node2" class="node"><title>Node2</title>
<g id="a_node2"><a xlink:href="a00357.html#ga1fcaf8d488cc1390f106ce3ad0bf37b4" target="_top" xlink:title="Output a string to wire automatic translate string to unicode if needed. ">
<polygon fill="white" stroke="black" points="164,-127.829 164,-146.829 247,-146.829 247,-127.829 164,-127.829"/>
<text text-anchor="middle" x="205.5" y="-134.829" font-family="Helvetica,sans-Serif" font-size="10.00">tds_put_string</text>
</a>
</g>
</g>
<!-- Node1&#45;&gt;Node2 -->
<g id="edge1" class="edge"><title>Node1&#45;&gt;Node2</title>
<path fill="none" stroke="midnightblue" d="M138.468,-137.329C147.196,-137.329 155.846,-137.329 163.87,-137.329"/>
<polygon fill="midnightblue" stroke="midnightblue" points="138.219,-133.829 128.219,-137.329 138.219,-140.829 138.219,-133.829"/>
</g>
<!-- Node3 -->
<g id="node3" class="node"><title>Node3</title>
<g id="a_node3"><a xlink:href="a00356.html#ga95e0fccedc459a4404f496eec74a369a" target="_top" xlink:title="tds_submit_query_params() sends a language string to the database server for processing. ">
<polygon fill="white" stroke="black" points="450,-304.829 450,-323.829 590,-323.829 590,-304.829 450,-304.829"/>
<text text-anchor="middle" x="520" y="-311.829" font-family="Helvetica,sans-Serif" font-size="10.00">tds_submit_query_params</text>
</a>
</g>
</g>
<!-- Node2&#45;&gt;Node3 -->
<g id="edge2" class="edge"><title>Node2&#45;&gt;Node3</title>
<path fill="none" stroke="midnightblue" d="M213.294,-156.298C223.894,-183.086 246.967,-231.598 283,-257.329 331.881,-292.235 399.468,-305.942 449.79,-311.235"/>
<polygon fill="midnightblue" stroke="midnightblue" points="216.544,-154.996 209.731,-146.882 209.997,-157.474 216.544,-154.996"/>
</g>
<!-- Node6 -->
<g id="node6" class="node"><title>Node6</title>
<g id="a_node6"><a xlink:href="a00356.html#ga6e42b4a1d1d3898229ea2fe4afc2ecec" target="_top" xlink:title="Output params types and query (required by sp_prepare/sp_executesql/sp_prepexec) ">
<polygon fill="white" stroke="black" points="283,-228.829 283,-247.829 414,-247.829 414,-228.829 283,-228.829"/>
<text text-anchor="middle" x="348.5" y="-235.829" font-family="Helvetica,sans-Serif" font-size="10.00">tds7_put_query_params</text>
</a>
</g>
</g>
<!-- Node2&#45;&gt;Node6 -->
<g id="edge5" class="edge"><title>Node2&#45;&gt;Node6</title>
<path fill="none" stroke="midnightblue" d="M228.157,-152.842C257.705,-174.008 309.762,-211.298 334.168,-228.779"/>
<polygon fill="midnightblue" stroke="midnightblue" points="229.933,-149.809 219.765,-146.831 225.856,-155.5 229.933,-149.809"/>
</g>
<!-- Node10 -->
<g id="node10" class="node"><title>Node10</title>
<g id="a_node10"><a xlink:href="a00356.html#gaf573d8d4d2660c8c27770573fca05ff5" target="_top" xlink:title="Send a unprepare request for a prepared query. ">
<polygon fill="white" stroke="black" points="288,-146.829 288,-165.829 409,-165.829 409,-146.829 288,-146.829"/>
<text text-anchor="middle" x="348.5" y="-153.829" font-family="Helvetica,sans-Serif" font-size="10.00">tds_submit_unprepare</text>
</a>
</g>
</g>
<!-- Node2&#45;&gt;Node10 -->
<g id="edge10" class="edge"><title>Node2&#45;&gt;Node10</title>
<path fill="none" stroke="midnightblue" d="M257.373,-144.185C267.286,-145.52 277.762,-146.932 287.927,-148.302"/>
<polygon fill="midnightblue" stroke="midnightblue" points="257.661,-140.692 247.283,-142.825 256.726,-147.629 257.661,-140.692"/>
</g>
<!-- Node12 -->
<g id="node12" class="node"><title>Node12</title>
<g id="a_node12"><a xlink:href="a00356.html#gaf614c75ea8f7ad411e53dac0e2f91be4" target="_top" xlink:title="Send RPC as string query. ">
<polygon fill="white" stroke="black" points="637,-21.8294 637,-40.8294 767,-40.8294 767,-21.8294 637,-21.8294"/>
<text text-anchor="middle" x="702" y="-28.8294" font-family="Helvetica,sans-Serif" font-size="10.00">tds_send_emulated_rpc</text>
</a>
</g>
</g>
<!-- Node2&#45;&gt;Node12 -->
<g id="edge12" class="edge"><title>Node2&#45;&gt;Node12</title>
<path fill="none" stroke="midnightblue" d="M214.808,-118.511C226.313,-95.0668 249.533,-56.0591 283,-39.3294 409.924,24.1192 586.767,-4.67447 663.264,-21.8276"/>
<polygon fill="midnightblue" stroke="midnightblue" points="211.542,-117.233 210.475,-127.774 217.883,-120.199 211.542,-117.233"/>
</g>
<!-- Node14 -->
<g id="node14" class="node"><title>Node14</title>
<g id="a_node14"><a xlink:href="a00356.html#ga26b26296d060dca75f6a43e9ac41e58d" target="_top" xlink:title="Send a string to server while quoting it. ">
<polygon fill="white" stroke="black" points="295,-70.8294 295,-89.8294 402,-89.8294 402,-70.8294 295,-70.8294"/>
<text text-anchor="middle" x="348.5" y="-77.8294" font-family="Helvetica,sans-Serif" font-size="10.00">tds_quote_and_put</text>
</a>
</g>
</g>
<!-- Node2&#45;&gt;Node14 -->
<g id="edge14" class="edge"><title>Node2&#45;&gt;Node14</title>
<path fill="none" stroke="midnightblue" d="M236.968,-123.763C250.928,-117.656 267.731,-110.459 283,-104.329 295.419,-99.3442 309.317,-94.1273 321.023,-89.8357"/>
<polygon fill="midnightblue" stroke="midnightblue" points="235.556,-120.56 227.811,-127.79 238.374,-126.968 235.556,-120.56"/>
</g>
<!-- Node15 -->
<g id="node15" class="node"><title>Node15</title>
<g id="a_node15"><a xlink:href="a00356.html#ga0e2e7230c425e925402d7856ff5b4b18" target="_top" xlink:title="Send a parameter to server. ">
<polygon fill="white" stroke="black" points="451.5,-48.8294 451.5,-67.8294 588.5,-67.8294 588.5,-48.8294 451.5,-48.8294"/>
<text text-anchor="middle" x="520" y="-55.8294" font-family="Helvetica,sans-Serif" font-size="10.00">tds_put_param_as_string</text>
</a>
</g>
</g>
<!-- Node2&#45;&gt;Node15 -->
<g id="edge19" class="edge"><title>Node2&#45;&gt;Node15</title>
<path fill="none" stroke="midnightblue" d="M218.216,-119.337C231.43,-100.855 254.795,-73.1686 283,-61.3294 344.018,-35.7171 421.973,-41.2263 471.21,-48.7838"/>
<polygon fill="midnightblue" stroke="midnightblue" points="215.185,-117.569 212.414,-127.795 220.957,-121.529 215.185,-117.569"/>
</g>
<!-- Node16 -->
<g id="node16" class="node"><title>Node16</title>
<g id="a_node16"><a xlink:href="a00356.html#ga02c6ce3ff96369603a6ee4efee64caae" target="_top" xlink:title="Emulate prepared execute traslating to a normal language. ">
<polygon fill="white" stroke="red" points="626,-102.829 626,-121.829 778,-121.829 778,-102.829 626,-102.829"/>
<text text-anchor="middle" x="702" y="-109.829" font-family="Helvetica,sans-Serif" font-size="10.00">tds_send_emulated_execute</text>
</a>
</g>
</g>
<!-- Node2&#45;&gt;Node16 -->
<g id="edge20" class="edge"><title>Node2&#45;&gt;Node16</title>
<path fill="none" stroke="midnightblue" d="M257.599,-134.746C345.144,-130.32 524.187,-121.268 625.943,-116.124"/>
<polygon fill="midnightblue" stroke="midnightblue" points="257.198,-131.262 247.388,-135.262 257.552,-138.253 257.198,-131.262"/>
</g>
<!-- Node17 -->
<g id="node17" class="node"><title>Node17</title>
<g id="a_node17"><a xlink:href="a00294.html#a4daaa551e54dbd978650e2eef89e09ff" target="_top" xlink:title="Send BCP metadata to server. ">
<polygon fill="white" stroke="black" points="626,-342.829 626,-361.829 778,-361.829 778,-342.829 626,-342.829"/>
<text text-anchor="middle" x="702" y="-349.829" font-family="Helvetica,sans-Serif" font-size="10.00">tds7_bcp_send_colmetadata</text>
</a>
</g>
</g>
<!-- Node2&#45;&gt;Node17 -->
<g id="edge21" class="edge"><title>Node2&#45;&gt;Node17</title>
<path fill="none" stroke="midnightblue" d="M210.192,-157.089C217.623,-191.083 237.705,-260.43 283,-296.329 387.146,-378.873 553.728,-372.521 641.863,-361.834"/>
<polygon fill="midnightblue" stroke="midnightblue" points="213.566,-156.115 208.139,-147.015 206.707,-157.513 213.566,-156.115"/>
</g>
<!-- Node4 -->
<g id="node4" class="node"><title>Node4</title>
<g id="a_node4"><a xlink:href="a00356.html#ga5a29ae7f99d089dc3cea85ec6ee5f3ab" target="_top" xlink:title="tds_submit_query() sends a language string to the database server for processing. ...">
<polygon fill="white" stroke="red" points="653,-304.829 653,-323.829 751,-323.829 751,-304.829 653,-304.829"/>
<text text-anchor="middle" x="702" y="-311.829" font-family="Helvetica,sans-Serif" font-size="10.00">tds_submit_query</text>
</a>
</g>
</g>
<!-- Node3&#45;&gt;Node4 -->
<g id="edge3" class="edge"><title>Node3&#45;&gt;Node4</title>
<path fill="none" stroke="midnightblue" d="M600.481,-314.329C618.297,-314.329 636.67,-314.329 652.756,-314.329"/>
<polygon fill="midnightblue" stroke="midnightblue" points="600.078,-310.829 590.078,-314.329 600.078,-317.829 600.078,-310.829"/>
</g>
<!-- Node5 -->
<g id="node5" class="node"><title>Node5</title>
<g id="a_node5"><a xlink:href="a00193.html#a8208eef2a3974ae1f0cf3c8c8ab011ce" target="_top" xlink:title="Start sending BCP data to server. ">
<polygon fill="white" stroke="red" points="834.5,-323.829 834.5,-342.829 914.5,-342.829 914.5,-323.829 834.5,-323.829"/>
<text text-anchor="middle" x="874.5" y="-330.829" font-family="Helvetica,sans-Serif" font-size="10.00">tds_bcp_start</text>
</a>
</g>
</g>
<!-- Node4&#45;&gt;Node5 -->
<g id="edge4" class="edge"><title>Node4&#45;&gt;Node5</title>
<path fill="none" stroke="midnightblue" d="M761.505,-320.849C785.592,-323.533 812.848,-326.571 834.441,-328.977"/>
<polygon fill="midnightblue" stroke="midnightblue" points="761.729,-317.352 751.402,-319.723 760.953,-324.309 761.729,-317.352"/>
</g>
<!-- Node6&#45;&gt;Node3 -->
<g id="edge6" class="edge"><title>Node6&#45;&gt;Node3</title>
<path fill="none" stroke="midnightblue" d="M372.539,-253.584C392.389,-266.184 422.159,-283.81 450,-295.329 458.84,-298.987 468.605,-302.164 477.938,-304.817"/>
<polygon fill="midnightblue" stroke="midnightblue" points="374.204,-250.493 363.901,-248.02 370.413,-256.378 374.204,-250.493"/>
</g>
<!-- Node7 -->
<g id="node7" class="node"><title>Node7</title>
<g id="a_node7"><a xlink:href="a00356.html#ga74eb08c3a1c85be8ac9db428842c8b9d" target="_top" xlink:title="tds_submit_prepare() creates a temporary stored procedure in the server. ">
<polygon fill="white" stroke="black" points="465,-266.829 465,-285.829 575,-285.829 575,-266.829 465,-266.829"/>
<text text-anchor="middle" x="520" y="-273.829" font-family="Helvetica,sans-Serif" font-size="10.00">tds_submit_prepare</text>
</a>
</g>
</g>
<!-- Node6&#45;&gt;Node7 -->
<g id="edge7" class="edge"><title>Node6&#45;&gt;Node7</title>
<path fill="none" stroke="midnightblue" d="M402.242,-250.154C426.139,-255.511 454.015,-261.761 476.536,-266.809"/>
<polygon fill="midnightblue" stroke="midnightblue" points="402.795,-246.691 392.272,-247.918 401.264,-253.521 402.795,-246.691"/>
</g>
<!-- Node8 -->
<g id="node8" class="node"><title>Node8</title>
<g id="a_node8"><a xlink:href="a00356.html#gae603aed795a4c5bb26ab159a11256996" target="_top" xlink:title="Submit a prepared query with parameters. ">
<polygon fill="white" stroke="black" points="814,-146.829 814,-165.829 935,-165.829 935,-146.829 814,-146.829"/>
<text text-anchor="middle" x="874.5" y="-153.829" font-family="Helvetica,sans-Serif" font-size="10.00">tds_submit_execdirect</text>
</a>
</g>
</g>
<!-- Node6&#45;&gt;Node8 -->
<g id="edge8" class="edge"><title>Node6&#45;&gt;Node8</title>
<path fill="none" stroke="midnightblue" d="M407.645,-226.936C421.506,-224.331 436.263,-221.649 450,-219.329 579.367,-197.487 731.658,-175.816 813.769,-164.463"/>
<polygon fill="midnightblue" stroke="midnightblue" points="406.912,-223.513 397.738,-228.813 408.215,-230.39 406.912,-223.513"/>
</g>
<!-- Node9 -->
<g id="node9" class="node"><title>Node9</title>
<g id="a_node9"><a xlink:href="a00356.html#ga08877c101704bebe4fa57e0849dc272d" target="_top" xlink:title="tds71_submit_prepexec() creates a temporary stored procedure in the server. ">
<polygon fill="white" stroke="black" points="456,-228.829 456,-247.829 584,-247.829 584,-228.829 456,-228.829"/>
<text text-anchor="middle" x="520" y="-235.829" font-family="Helvetica,sans-Serif" font-size="10.00">tds71_submit_prepexec</text>
</a>
</g>
</g>
<!-- Node6&#45;&gt;Node9 -->
<g id="edge9" class="edge"><title>Node6&#45;&gt;Node9</title>
<path fill="none" stroke="midnightblue" d="M424.097,-238.329C434.653,-238.329 445.422,-238.329 455.736,-238.329"/>
<polygon fill="midnightblue" stroke="midnightblue" points="424.064,-234.829 414.064,-238.329 424.064,-241.829 424.064,-234.829"/>
</g>
<!-- Node11 -->
<g id="node11" class="node"><title>Node11</title>
<g id="a_node11"><a xlink:href="a00359.html#ga69902dffb299d62a799888e0fa3ccd68" target="_top" xlink:title="Attempt to close all deferred closes (dynamics and cursors). ">
<polygon fill="white" stroke="red" points="460.5,-141.329 460.5,-171.329 579.5,-171.329 579.5,-141.329 460.5,-141.329"/>
<text text-anchor="start" x="468.5" y="-159.329" font-family="Helvetica,sans-Serif" font-size="10.00">tds_process_pending</text>
<text text-anchor="middle" x="520" y="-148.329" font-family="Helvetica,sans-Serif" font-size="10.00">_closes</text>
</a>
</g>
</g>
<!-- Node10&#45;&gt;Node11 -->
<g id="edge11" class="edge"><title>Node10&#45;&gt;Node11</title>
<path fill="none" stroke="midnightblue" d="M419.515,-156.329C433.09,-156.329 447.186,-156.329 460.351,-156.329"/>
<polygon fill="midnightblue" stroke="midnightblue" points="419.259,-152.829 409.259,-156.329 419.259,-159.829 419.259,-152.829"/>
</g>
<!-- Node13 -->
<g id="node13" class="node"><title>Node13</title>
<g id="a_node13"><a xlink:href="a00356.html#ga5f071b94ad7889690762dc85646c74ab" target="_top" xlink:title="tds_submit_rpc() call a RPC from server. ">
<polygon fill="white" stroke="red" points="831,-21.8294 831,-40.8294 918,-40.8294 918,-21.8294 831,-21.8294"/>
<text text-anchor="middle" x="874.5" y="-28.8294" font-family="Helvetica,sans-Serif" font-size="10.00">tds_submit_rpc</text>
</a>
</g>
</g>
<!-- Node12&#45;&gt;Node13 -->
<g id="edge13" class="edge"><title>Node12&#45;&gt;Node13</title>
<path fill="none" stroke="midnightblue" d="M777.517,-31.3294C795.785,-31.3294 814.72,-31.3294 830.897,-31.3294"/>
<polygon fill="midnightblue" stroke="midnightblue" points="777.459,-27.8295 767.459,-31.3294 777.459,-34.8295 777.459,-27.8295"/>
</g>
<!-- Node14&#45;&gt;Node15 -->
<g id="edge15" class="edge"><title>Node14&#45;&gt;Node15</title>
<path fill="none" stroke="midnightblue" d="M412.243,-72.1858C424.983,-70.5321 438.437,-68.7859 451.339,-67.1113"/>
<polygon fill="midnightblue" stroke="midnightblue" points="411.668,-68.7309 402.202,-73.489 412.569,-75.6727 411.668,-68.7309"/>
</g>
<!-- Node15&#45;&gt;Node12 -->
<g id="edge16" class="edge"><title>Node15&#45;&gt;Node12</title>
<path fill="none" stroke="midnightblue" d="M594.685,-47.2766C608.891,-45.1458 623.657,-42.9308 637.505,-40.8536"/>
<polygon fill="midnightblue" stroke="midnightblue" points="593.831,-43.8654 584.461,-48.8102 594.87,-50.788 593.831,-43.8654"/>
</g>
<!-- Node15&#45;&gt;Node16 -->
<g id="edge17" class="edge"><title>Node15&#45;&gt;Node16</title>
<path fill="none" stroke="midnightblue" d="M562.438,-70.7609C594.949,-80.5142 639.528,-93.8879 669.249,-102.804"/>
<polygon fill="midnightblue" stroke="midnightblue" points="563.35,-67.3803 552.766,-67.8592 561.339,-74.0851 563.35,-67.3803"/>
</g>
<!-- Node16&#45;&gt;Node8 -->
<g id="edge18" class="edge"><title>Node16&#45;&gt;Node8</title>
<path fill="none" stroke="midnightblue" d="M749.739,-124.391C777.084,-131.448 811.122,-140.232 836.576,-146.801"/>
<polygon fill="midnightblue" stroke="midnightblue" points="750.553,-120.987 739.996,-121.877 748.804,-127.765 750.553,-120.987"/>
</g>
<!-- Node17&#45;&gt;Node5 -->
<g id="edge22" class="edge"><title>Node17&#45;&gt;Node5</title>
<path fill="none" stroke="midnightblue" d="M788.256,-342.829C804.311,-341.04 820.366,-339.25 834.143,-337.715"/>
<polygon fill="midnightblue" stroke="midnightblue" points="787.831,-339.354 778.28,-343.94 788.606,-346.311 787.831,-339.354"/>
</g>
</g>
</svg>
