<?xml version="1.0" encoding="UTF-8" standalone="no"?>
<!DOCTYPE svg PUBLIC "-//W3C//DTD SVG 1.1//EN"
 "http://www.w3.org/Graphics/SVG/1.1/DTD/svg11.dtd">
<!-- Generated by graphviz version 2.38.0 (20140413.2041)
 -->
<!-- Title: dbcolinfo Pages: 1 -->
<svg width="354pt" height="370pt"
 viewBox="0.00 0.00 354.00 370.00" xmlns="http://www.w3.org/2000/svg" xmlns:xlink="http://www.w3.org/1999/xlink">
<g id="graph0" class="graph" transform="scale(1 1) rotate(0) translate(4 366)">
<title>dbcolinfo</title>
<polygon fill="white" stroke="none" points="-4,4 -4,-366 350,-366 350,4 -4,4"/>
<!-- Node1 -->
<g id="node1" class="node"><title>Node1</title>
<polygon fill="#bfbfbf" stroke="black" points="0,-171.5 0,-190.5 59,-190.5 59,-171.5 0,-171.5"/>
<text text-anchor="middle" x="29.5" y="-178.5" font-family="Helvetica,sans-Serif" font-size="10.00">dbcolinfo</text>
</g>
<!-- Node2 -->
<g id="node2" class="node"><title>Node2</title>
<g id="a_node2"><a xlink:href="a00193.html#ab45c291105027e69836002e1dd586141" target="_top" xlink:title="Write a message to the debug log. ">
<polygon fill="white" stroke="black" points="239.5,-171.5 239.5,-190.5 316.5,-190.5 316.5,-171.5 239.5,-171.5"/>
<text text-anchor="middle" x="278" y="-178.5" font-family="Helvetica,sans-Serif" font-size="10.00">tdsdump_log</text>
</a>
</g>
</g>
<!-- Node1&#45;&gt;Node2 -->
<g id="edge1" class="edge"><title>Node1&#45;&gt;Node2</title>
<path fill="none" stroke="midnightblue" d="M42.4444,-171.284C54.7579,-161.947 74.9376,-148.47 95,-143 148.942,-128.292 213.21,-150.884 249.135,-167.034"/>
<polygon fill="midnightblue" stroke="midnightblue" points="247.94,-170.339 258.484,-171.382 250.892,-163.992 247.94,-170.339"/>
</g>
<!-- Node3 -->
<g id="node3" class="node"><title>Node3</title>
<g id="a_node3"><a xlink:href="a00341.html#gad06f5deddac18604dfa858b2580e232f" target="_top" xlink:title="Return name of a regular result column. ">
<polygon fill="white" stroke="black" points="100.5,-76.5 100.5,-95.5 168.5,-95.5 168.5,-76.5 100.5,-76.5"/>
<text text-anchor="middle" x="134.5" y="-83.5" font-family="Helvetica,sans-Serif" font-size="10.00">dbcolname</text>
</a>
</g>
</g>
<!-- Node1&#45;&gt;Node3 -->
<g id="edge2" class="edge"><title>Node1&#45;&gt;Node3</title>
<path fill="none" stroke="midnightblue" d="M37.719,-171.5C48.9458,-157.112 71.7284,-129.418 95,-110 98.8062,-106.824 103.068,-103.759 107.331,-100.943"/>
<polygon fill="midnightblue" stroke="midnightblue" points="109.32,-103.827 115.938,-95.554 105.605,-97.8937 109.32,-103.827"/>
</g>
<!-- Node4 -->
<g id="node4" class="node"><title>Node4</title>
<g id="a_node4"><a xlink:href="a00341.html#ga636e6f1b64743f3cf22158a56eef371f" target="_top" xlink:title="Get the datatype of a regular result set column. ">
<polygon fill="white" stroke="black" points="103.5,-38.5 103.5,-57.5 165.5,-57.5 165.5,-38.5 103.5,-38.5"/>
<text text-anchor="middle" x="134.5" y="-45.5" font-family="Helvetica,sans-Serif" font-size="10.00">dbcoltype</text>
</a>
</g>
</g>
<!-- Node1&#45;&gt;Node4 -->
<g id="edge4" class="edge"><title>Node1&#45;&gt;Node4</title>
<path fill="none" stroke="midnightblue" d="M33.7775,-171.185C41.3794,-149.727 62.1115,-98.0826 95,-67 96.4626,-65.6177 98.045,-64.3156 99.7056,-63.0922"/>
<polygon fill="midnightblue" stroke="midnightblue" points="101.838,-65.8874 108.468,-57.6237 98.1314,-59.9489 101.838,-65.8874"/>
</g>
<!-- Node6 -->
<g id="node6" class="node"><title>Node6</title>
<g id="a_node6"><a xlink:href="a00341.html#gab33d2f4fd44f50e55b6c71902db4fdae" target="_top" xlink:title="Get user&#45;defined datatype of a regular result column. ">
<polygon fill="white" stroke="black" points="101,-342.5 101,-361.5 168,-361.5 168,-342.5 101,-342.5"/>
<text text-anchor="middle" x="134.5" y="-349.5" font-family="Helvetica,sans-Serif" font-size="10.00">dbcolutype</text>
</a>
</g>
</g>
<!-- Node1&#45;&gt;Node6 -->
<g id="edge7" class="edge"><title>Node1&#45;&gt;Node6</title>
<path fill="none" stroke="midnightblue" d="M32.2064,-190.833C37.2311,-217.104 54.256,-289.859 95,-333 96.3434,-334.422 97.8162,-335.753 99.3775,-336.995"/>
<polygon fill="midnightblue" stroke="midnightblue" points="97.4568,-339.921 107.735,-342.492 101.303,-334.073 97.4568,-339.921"/>
</g>
<!-- Node7 -->
<g id="node7" class="node"><title>Node7</title>
<g id="a_node7"><a xlink:href="a00341.html#ga89fc5589b4bf41932324d2cfc6ad6433" target="_top" xlink:title="Get size of a regular result column. ">
<polygon fill="white" stroke="black" points="106.5,-304.5 106.5,-323.5 162.5,-323.5 162.5,-304.5 106.5,-304.5"/>
<text text-anchor="middle" x="134.5" y="-311.5" font-family="Helvetica,sans-Serif" font-size="10.00">dbcollen</text>
</a>
</g>
</g>
<!-- Node1&#45;&gt;Node7 -->
<g id="edge9" class="edge"><title>Node1&#45;&gt;Node7</title>
<path fill="none" stroke="midnightblue" d="M33.7775,-190.815C41.3794,-212.273 62.1115,-263.917 95,-295 96.4626,-296.382 98.045,-297.684 99.7056,-298.908"/>
<polygon fill="midnightblue" stroke="midnightblue" points="98.1314,-302.051 108.468,-304.376 101.838,-296.113 98.1314,-302.051"/>
</g>
<!-- Node8 -->
<g id="node8" class="node"><title>Node8</title>
<g id="a_node8"><a xlink:href="a00341.html#ga57c856964a9a0b4cc43f5192647c51e7" target="_top" xlink:title="Determine whether a column can vary in size. ">
<polygon fill="white" stroke="black" points="103.5,-266.5 103.5,-285.5 165.5,-285.5 165.5,-266.5 103.5,-266.5"/>
<text text-anchor="middle" x="134.5" y="-273.5" font-family="Helvetica,sans-Serif" font-size="10.00">dbvarylen</text>
</a>
</g>
</g>
<!-- Node1&#45;&gt;Node8 -->
<g id="edge11" class="edge"><title>Node1&#45;&gt;Node8</title>
<path fill="none" stroke="midnightblue" d="M36.9796,-191.004C47.5596,-206.718 69.8985,-237.408 95,-257 97.0051,-258.565 99.1597,-260.05 101.388,-261.45"/>
<polygon fill="midnightblue" stroke="midnightblue" points="99.7605,-264.55 110.192,-266.405 103.194,-258.45 99.7605,-264.55"/>
</g>
<!-- Node9 -->
<g id="node9" class="node"><title>Node9</title>
<g id="a_node9"><a xlink:href="a00341.html#ga3c33e72c41b40e08dbcfdfa0d16bc399" target="_top" xlink:title="Get precision and scale information for a regular result column. ">
<polygon fill="white" stroke="black" points="95,-228.5 95,-247.5 174,-247.5 174,-228.5 95,-228.5"/>
<text text-anchor="middle" x="134.5" y="-235.5" font-family="Helvetica,sans-Serif" font-size="10.00">dbcoltypeinfo</text>
</a>
</g>
</g>
<!-- Node1&#45;&gt;Node9 -->
<g id="edge13" class="edge"><title>Node1&#45;&gt;Node9</title>
<path fill="none" stroke="midnightblue" d="M45.9557,-190.541C58.9082,-198.431 77.9631,-209.794 95,-219 97.9509,-220.595 101.054,-222.216 104.165,-223.805"/>
<polygon fill="midnightblue" stroke="midnightblue" points="102.865,-227.068 113.374,-228.417 106,-220.809 102.865,-227.068"/>
</g>
<!-- Node10 -->
<g id="node10" class="node"><title>Node10</title>
<g id="a_node10"><a xlink:href="a00341.html#gaa85171e020dc606f2bd3395ad1d3ab4f" target="_top" xlink:title="Get datatype for a compute column. ">
<polygon fill="white" stroke="black" points="105,-0.5 105,-19.5 164,-19.5 164,-0.5 105,-0.5"/>
<text text-anchor="middle" x="134.5" y="-7.5" font-family="Helvetica,sans-Serif" font-size="10.00">dbalttype</text>
</a>
</g>
</g>
<!-- Node1&#45;&gt;Node10 -->
<g id="edge15" class="edge"><title>Node1&#45;&gt;Node10</title>
<path fill="none" stroke="midnightblue" d="M32.2064,-171.167C37.2311,-144.896 54.256,-72.1406 95,-29 96.3434,-27.5775 97.8162,-26.247 99.3775,-25.0045"/>
<polygon fill="midnightblue" stroke="midnightblue" points="101.303,-27.9271 107.735,-19.5078 97.4568,-22.0787 101.303,-27.9271"/>
</g>
<!-- Node11 -->
<g id="node11" class="node"><title>Node11</title>
<g id="a_node11"><a xlink:href="a00341.html#gaf1c00d83dfa88dc99a3fb449c49660ea" target="_top" xlink:title="Get user&#45;defined datatype of a compute column. ">
<polygon fill="white" stroke="black" points="102,-190.5 102,-209.5 167,-209.5 167,-190.5 102,-190.5"/>
<text text-anchor="middle" x="134.5" y="-197.5" font-family="Helvetica,sans-Serif" font-size="10.00">dbaltutype</text>
</a>
</g>
</g>
<!-- Node1&#45;&gt;Node11 -->
<g id="edge18" class="edge"><title>Node1&#45;&gt;Node11</title>
<path fill="none" stroke="midnightblue" d="M59.1912,-186.293C69.3087,-188.159 80.8978,-190.297 91.8667,-192.32"/>
<polygon fill="midnightblue" stroke="midnightblue" points="91.2366,-195.763 101.706,-194.135 92.5065,-188.879 91.2366,-195.763"/>
</g>
<!-- Node12 -->
<g id="node12" class="node"><title>Node12</title>
<g id="a_node12"><a xlink:href="a00341.html#ga9a35c8d3cd0e35c10555baf8f6a01e93" target="_top" xlink:title="Get size of data in compute column. ">
<polygon fill="white" stroke="black" points="108,-152.5 108,-171.5 161,-171.5 161,-152.5 108,-152.5"/>
<text text-anchor="middle" x="134.5" y="-159.5" font-family="Helvetica,sans-Serif" font-size="10.00">dbaltlen</text>
</a>
</g>
</g>
<!-- Node1&#45;&gt;Node12 -->
<g id="edge20" class="edge"><title>Node1&#45;&gt;Node12</title>
<path fill="none" stroke="midnightblue" d="M59.1912,-175.707C71.0963,-173.511 85.0391,-170.939 97.6112,-168.62"/>
<polygon fill="midnightblue" stroke="midnightblue" points="98.5753,-172.002 107.774,-166.745 97.3054,-165.118 98.5753,-172.002"/>
</g>
<!-- Node3&#45;&gt;Node2 -->
<g id="edge3" class="edge"><title>Node3&#45;&gt;Node2</title>
<path fill="none" stroke="midnightblue" d="M151.339,-95.646C158.332,-99.9636 166.623,-105.162 174,-110 202.318,-128.572 234.351,-150.86 255.068,-165.448"/>
<polygon fill="midnightblue" stroke="midnightblue" points="253.286,-168.473 263.474,-171.381 257.322,-162.754 253.286,-168.473"/>
</g>
<!-- Node4&#45;&gt;Node2 -->
<g id="edge5" class="edge"><title>Node4&#45;&gt;Node2</title>
<path fill="none" stroke="midnightblue" d="M158.729,-57.6987C163.976,-60.361 169.362,-63.4943 174,-67 211.548,-95.381 246.27,-138.8 264.223,-163.042"/>
<polygon fill="midnightblue" stroke="midnightblue" points="261.537,-165.299 270.253,-171.322 267.195,-161.178 261.537,-165.299"/>
</g>
<!-- Node5 -->
<g id="node5" class="node"><title>Node5</title>
<g id="a_node5"><a xlink:href="a00193.html#ae7f4c4d5f7352f1c814284c536659e6f" target="_top" xlink:title="Return type suitable for conversions (convert all nullable types to fixed type) ">
<polygon fill="white" stroke="black" points="210,-19.5 210,-38.5 346,-38.5 346,-19.5 210,-19.5"/>
<text text-anchor="middle" x="278" y="-26.5" font-family="Helvetica,sans-Serif" font-size="10.00">tds_get_conversion_type</text>
</a>
</g>
</g>
<!-- Node4&#45;&gt;Node5 -->
<g id="edge6" class="edge"><title>Node4&#45;&gt;Node5</title>
<path fill="none" stroke="midnightblue" d="M165.509,-43.9706C175.649,-42.6089 187.484,-41.0199 199.581,-39.3955"/>
<polygon fill="midnightblue" stroke="midnightblue" points="200.327,-42.8268 209.772,-38.027 199.396,-35.8891 200.327,-42.8268"/>
</g>
<!-- Node6&#45;&gt;Node2 -->
<g id="edge8" class="edge"><title>Node6&#45;&gt;Node2</title>
<path fill="none" stroke="midnightblue" d="M159.904,-342.34C164.871,-339.74 169.842,-336.624 174,-333 218.693,-294.05 252.809,-231.473 268.129,-200.153"/>
<polygon fill="midnightblue" stroke="midnightblue" points="271.44,-201.342 272.591,-190.81 265.123,-198.325 271.44,-201.342"/>
</g>
<!-- Node7&#45;&gt;Node2 -->
<g id="edge10" class="edge"><title>Node7&#45;&gt;Node2</title>
<path fill="none" stroke="midnightblue" d="M158.729,-304.301C163.976,-301.639 169.362,-298.506 174,-295 211.548,-266.619 246.27,-223.2 264.223,-198.958"/>
<polygon fill="midnightblue" stroke="midnightblue" points="267.195,-200.822 270.253,-190.678 261.537,-196.701 267.195,-200.822"/>
</g>
<!-- Node8&#45;&gt;Node2 -->
<g id="edge12" class="edge"><title>Node8&#45;&gt;Node2</title>
<path fill="none" stroke="midnightblue" d="M156.642,-266.403C162.384,-263.573 168.525,-260.334 174,-257 204.557,-238.388 237.418,-213.127 257.599,-196.941"/>
<polygon fill="midnightblue" stroke="midnightblue" points="259.856,-199.617 265.428,-190.606 255.452,-194.176 259.856,-199.617"/>
</g>
<!-- Node9&#45;&gt;Node2 -->
<g id="edge14" class="edge"><title>Node9&#45;&gt;Node2</title>
<path fill="none" stroke="midnightblue" d="M159.184,-228.459C182.345,-219.13 217.822,-204.838 243.795,-194.376"/>
<polygon fill="midnightblue" stroke="midnightblue" points="245.271,-197.555 253.239,-190.572 242.655,-191.062 245.271,-197.555"/>
</g>
<!-- Node10&#45;&gt;Node2 -->
<g id="edge16" class="edge"><title>Node10&#45;&gt;Node2</title>
<path fill="none" stroke="midnightblue" d="M159.904,-19.6602C164.871,-22.2597 169.842,-25.3761 174,-29 218.693,-67.9497 252.809,-130.527 268.129,-161.847"/>
<polygon fill="midnightblue" stroke="midnightblue" points="265.123,-163.675 272.591,-171.19 271.44,-160.658 265.123,-163.675"/>
</g>
<!-- Node10&#45;&gt;Node5 -->
<g id="edge17" class="edge"><title>Node10&#45;&gt;Node5</title>
<path fill="none" stroke="midnightblue" d="M164.135,-13.8449C174.585,-15.2481 186.963,-16.9102 199.626,-18.6105"/>
<polygon fill="midnightblue" stroke="midnightblue" points="199.434,-22.1162 209.811,-19.9782 200.366,-15.1784 199.434,-22.1162"/>
</g>
<!-- Node11&#45;&gt;Node2 -->
<g id="edge19" class="edge"><title>Node11&#45;&gt;Node2</title>
<path fill="none" stroke="midnightblue" d="M167.255,-195.736C185.518,-193.284 208.822,-190.155 229.254,-187.411"/>
<polygon fill="midnightblue" stroke="midnightblue" points="229.881,-190.858 239.326,-186.059 228.949,-183.921 229.881,-190.858"/>
</g>
<!-- Node12&#45;&gt;Node2 -->
<g id="edge21" class="edge"><title>Node12&#45;&gt;Node2</title>
<path fill="none" stroke="midnightblue" d="M161.125,-165.441C180.048,-167.982 206.364,-171.515 229.135,-174.573"/>
<polygon fill="midnightblue" stroke="midnightblue" points="228.932,-178.077 239.309,-175.939 229.863,-171.139 228.932,-178.077"/>
</g>
</g>
</svg>
