<?xml version="1.0" encoding="UTF-8" standalone="no"?>
<!DOCTYPE svg PUBLIC "-//W3C//DTD SVG 1.1//EN"
 "http://www.w3.org/Graphics/SVG/1.1/DTD/svg11.dtd">
<!-- Generated by graphviz version 2.38.0 (20140413.2041)
 -->
<!-- Title: tds7_bcp_send_colmetadata Pages: 1 -->
<svg width="863pt" height="334pt"
 viewBox="0.00 0.00 863.00 333.50" xmlns="http://www.w3.org/2000/svg" xmlns:xlink="http://www.w3.org/1999/xlink">
<g id="graph0" class="graph" transform="scale(1 1) rotate(0) translate(4 329.5)">
<title>tds7_bcp_send_colmetadata</title>
<polygon fill="white" stroke="none" points="-4,4 -4,-329.5 859,-329.5 859,4 -4,4"/>
<!-- Node1 -->
<g id="node1" class="node"><title>Node1</title>
<polygon fill="#bfbfbf" stroke="black" points="0,-259 0,-278 152,-278 152,-259 0,-259"/>
<text text-anchor="middle" x="76" y="-266" font-family="Helvetica,sans-Serif" font-size="10.00">tds7_bcp_send_colmetadata</text>
</g>
<!-- Node2 -->
<g id="node2" class="node"><title>Node2</title>
<g id="a_node2"><a xlink:href="a00193.html#ab45c291105027e69836002e1dd586141" target="_top" xlink:title="Write a message to the debug log. ">
<polygon fill="white" stroke="black" points="778,-221 778,-240 855,-240 855,-221 778,-221"/>
<text text-anchor="middle" x="816.5" y="-228" font-family="Helvetica,sans-Serif" font-size="10.00">tdsdump_log</text>
</a>
</g>
</g>
<!-- Node1&#45;&gt;Node2 -->
<g id="edge1" class="edge"><title>Node1&#45;&gt;Node2</title>
<path fill="none" stroke="midnightblue" d="M106.264,-278.041C158.717,-294.267 272.475,-325.5 371,-325.5 371,-325.5 371,-325.5 542,-325.5 638.638,-325.5 744.379,-271.921 791.047,-245.237"/>
<polygon fill="midnightblue" stroke="midnightblue" points="792.943,-248.184 799.829,-240.132 789.425,-242.132 792.943,-248.184"/>
</g>
<!-- Node3 -->
<g id="node3" class="node"><title>Node3</title>
<g id="a_node3"><a xlink:href="a00193.html#a16db200d2281f76fe46fc1cbe37ca9df" target="_top" xlink:title="Set state of TDS connection, with logging and checking. ">
<polygon fill="white" stroke="black" points="332,-259 332,-278 412,-278 412,-259 332,-259"/>
<text text-anchor="middle" x="372" y="-266" font-family="Helvetica,sans-Serif" font-size="10.00">tds_set_state</text>
</a>
</g>
</g>
<!-- Node1&#45;&gt;Node3 -->
<g id="edge2" class="edge"><title>Node1&#45;&gt;Node3</title>
<path fill="none" stroke="midnightblue" d="M152.331,-268.5C205.634,-268.5 275.583,-268.5 321.846,-268.5"/>
<polygon fill="midnightblue" stroke="midnightblue" points="321.919,-272 331.919,-268.5 321.919,-265 321.919,-272"/>
</g>
<!-- Node6 -->
<g id="node6" class="node"><title>Node6</title>
<g id="a_node6"><a xlink:href="a00357.html#ga1fcaf8d488cc1390f106ce3ad0bf37b4" target="_top" xlink:title="Output a string to wire automatic translate string to unicode if needed. ">
<polygon fill="white" stroke="black" points="188,-107 188,-126 271,-126 271,-107 188,-107"/>
<text text-anchor="middle" x="229.5" y="-114" font-family="Helvetica,sans-Serif" font-size="10.00">tds_put_string</text>
</a>
</g>
</g>
<!-- Node1&#45;&gt;Node6 -->
<g id="edge8" class="edge"><title>Node1&#45;&gt;Node6</title>
<path fill="none" stroke="midnightblue" d="M86.477,-258.992C111.559,-233.827 179.925,-165.235 211.767,-133.288"/>
<polygon fill="midnightblue" stroke="midnightblue" points="214.446,-135.558 219.027,-126.005 209.488,-130.617 214.446,-135.558"/>
</g>
<!-- Node3&#45;&gt;Node2 -->
<g id="edge3" class="edge"><title>Node3&#45;&gt;Node2</title>
<path fill="none" stroke="midnightblue" d="M412.202,-267.537C479.771,-265.523 622.433,-259.717 742,-244.5 750.428,-243.427 759.348,-241.989 767.957,-240.442"/>
<polygon fill="midnightblue" stroke="midnightblue" points="768.685,-243.866 777.873,-238.591 767.401,-236.985 768.685,-243.866"/>
</g>
<!-- Node4 -->
<g id="node4" class="node"><title>Node4</title>
<g id="a_node4"><a xlink:href="a00193.html#abf18b98efef6ce2dc0b97d658a3a1918" target="_top" xlink:title="Call the client library&#39;s error handler (for library&#45;generated errors only) ">
<polygon fill="white" stroke="black" points="514,-221 514,-240 568,-240 568,-221 514,-221"/>
<text text-anchor="middle" x="541" y="-228" font-family="Helvetica,sans-Serif" font-size="10.00">tdserror</text>
</a>
</g>
</g>
<!-- Node3&#45;&gt;Node4 -->
<g id="edge4" class="edge"><title>Node3&#45;&gt;Node4</title>
<path fill="none" stroke="midnightblue" d="M412.154,-259.591C439.937,-253.269 476.947,-244.847 503.995,-238.693"/>
<polygon fill="midnightblue" stroke="midnightblue" points="504.86,-242.086 513.834,-236.454 503.306,-235.26 504.86,-242.086"/>
</g>
<!-- Node4&#45;&gt;Node2 -->
<g id="edge5" class="edge"><title>Node4&#45;&gt;Node2</title>
<path fill="none" stroke="midnightblue" d="M568.224,-230.5C614.135,-230.5 709.688,-230.5 767.645,-230.5"/>
<polygon fill="midnightblue" stroke="midnightblue" points="767.66,-234 777.66,-230.5 767.659,-227 767.66,-234"/>
</g>
<!-- Node5 -->
<g id="node5" class="node"><title>Node5</title>
<g id="a_node5"><a xlink:href="a00356.html#ga11338742dc30fd0c2711f58eb830316f" target="_top" xlink:title="tds_send_cancel() sends an empty packet (8 byte header only) tds_process_cancel should be called dire...">
<polygon fill="white" stroke="red" points="645,-202 645,-221 742,-221 742,-202 645,-202"/>
<text text-anchor="middle" x="693.5" y="-209" font-family="Helvetica,sans-Serif" font-size="10.00">tds_send_cancel</text>
</a>
</g>
</g>
<!-- Node4&#45;&gt;Node5 -->
<g id="edge6" class="edge"><title>Node4&#45;&gt;Node5</title>
<path fill="none" stroke="midnightblue" d="M568.215,-227.19C586.555,-224.875 611.779,-221.691 634.712,-218.796"/>
<polygon fill="midnightblue" stroke="midnightblue" points="635.23,-222.258 644.713,-217.533 634.353,-215.313 635.23,-222.258"/>
</g>
<!-- Node5&#45;&gt;Node2 -->
<g id="edge7" class="edge"><title>Node5&#45;&gt;Node2</title>
<path fill="none" stroke="midnightblue" d="M742.322,-219.009C750.682,-220.322 759.379,-221.688 767.737,-223"/>
<polygon fill="midnightblue" stroke="midnightblue" points="767.296,-226.474 777.718,-224.567 768.382,-219.558 767.296,-226.474"/>
</g>
<!-- Node7 -->
<g id="node7" class="node"><title>Node7</title>
<g id="a_node7"><a xlink:href="a00263.html#aa9e1e45f0305622dd6aed9f8fe158581" target="_top" xlink:title="Initialize an input stream for read from a static allocated buffer. ">
<polygon fill="white" stroke="black" points="308,-77 308,-96 436,-96 436,-77 308,-77"/>
<text text-anchor="middle" x="372" y="-84" font-family="Helvetica,sans-Serif" font-size="10.00">tds_staticin_stream_init</text>
</a>
</g>
</g>
<!-- Node6&#45;&gt;Node7 -->
<g id="edge9" class="edge"><title>Node6&#45;&gt;Node7</title>
<path fill="none" stroke="midnightblue" d="M271.138,-107.823C285.098,-104.842 300.968,-101.453 315.882,-98.2689"/>
<polygon fill="midnightblue" stroke="midnightblue" points="316.971,-101.615 326.02,-96.1044 315.509,-94.7697 316.971,-101.615"/>
</g>
<!-- Node9 -->
<g id="node9" class="node"><title>Node9</title>
<g id="a_node9"><a xlink:href="a00263.html#aa038a9125979f8f0915dbd53cbf27e5a" target="_top" xlink:title="Initialize a data output stream. ">
<polygon fill="white" stroke="black" points="307,-17 307,-36 437,-36 437,-17 307,-17"/>
<text text-anchor="middle" x="372" y="-24" font-family="Helvetica,sans-Serif" font-size="10.00">tds_dataout_stream_init</text>
</a>
</g>
</g>
<!-- Node6&#45;&gt;Node9 -->
<g id="edge11" class="edge"><title>Node6&#45;&gt;Node9</title>
<path fill="none" stroke="midnightblue" d="M245.536,-106.868C269.937,-91.2376 318.349,-60.2268 347.382,-41.6291"/>
<polygon fill="midnightblue" stroke="midnightblue" points="349.539,-44.4035 356.072,-36.0623 345.764,-38.5091 349.539,-44.4035"/>
</g>
<!-- Node11 -->
<g id="node11" class="node"><title>Node11</title>
<g id="a_node11"><a xlink:href="a00263.html#a9d8eb43a81ff58ab423dce0ce95b9564" target="_top" xlink:title="Reads and writes from a stream converting characters. ">
<polygon fill="white" stroke="black" points="317,-126 317,-145 427,-145 427,-126 317,-126"/>
<text text-anchor="middle" x="372" y="-133" font-family="Helvetica,sans-Serif" font-size="10.00">tds_convert_stream</text>
</a>
</g>
</g>
<!-- Node6&#45;&gt;Node11 -->
<g id="edge13" class="edge"><title>Node6&#45;&gt;Node11</title>
<path fill="none" stroke="midnightblue" d="M271.138,-121.996C282.282,-123.503 294.643,-125.174 306.763,-126.813"/>
<polygon fill="midnightblue" stroke="midnightblue" points="306.476,-130.306 316.855,-128.178 307.414,-123.369 306.476,-130.306"/>
</g>
<!-- Node8 -->
<g id="node8" class="node"><title>Node8</title>
<g id="a_node8"><a xlink:href="a00263.html#a76b02f1fa5b79dc7e1ef2651a9afe3f7" target="_top" xlink:title="Reads data from a static allocated buffer. ">
<polygon fill="white" stroke="black" points="473,-50 473,-69 609,-69 609,-50 473,-50"/>
<text text-anchor="middle" x="541" y="-57" font-family="Helvetica,sans-Serif" font-size="10.00">tds_staticin_stream_read</text>
</a>
</g>
</g>
<!-- Node7&#45;&gt;Node8 -->
<g id="edge10" class="edge"><title>Node7&#45;&gt;Node8</title>
<path fill="none" stroke="midnightblue" d="M431.878,-76.9808C444.475,-74.9442 457.892,-72.7749 470.836,-70.6821"/>
<polygon fill="midnightblue" stroke="midnightblue" points="471.778,-74.0755 481.091,-69.0242 470.66,-67.1652 471.778,-74.0755"/>
</g>
<!-- Node10 -->
<g id="node10" class="node"><title>Node10</title>
<g id="a_node10"><a xlink:href="a00263.html#ae38a590ee08cf398e7adef536ac94538" target="_top" xlink:title="Writes data to network for output stream. ">
<polygon fill="white" stroke="black" points="486,-0.5 486,-30.5 596,-30.5 596,-0.5 486,-0.5"/>
<text text-anchor="start" x="494" y="-18.5" font-family="Helvetica,sans-Serif" font-size="10.00">tds_dataout_stream</text>
<text text-anchor="middle" x="541" y="-7.5" font-family="Helvetica,sans-Serif" font-size="10.00">_write</text>
</a>
</g>
</g>
<!-- Node9&#45;&gt;Node10 -->
<g id="edge12" class="edge"><title>Node9&#45;&gt;Node10</title>
<path fill="none" stroke="midnightblue" d="M437.089,-22.2786C449.79,-21.4419 463.126,-20.5635 475.83,-19.7267"/>
<polygon fill="midnightblue" stroke="midnightblue" points="476.111,-23.2159 485.859,-19.0662 475.651,-16.2311 476.111,-23.2159"/>
</g>
<!-- Node11&#45;&gt;Node2 -->
<g id="edge16" class="edge"><title>Node11&#45;&gt;Node2</title>
<path fill="none" stroke="midnightblue" d="M427.11,-143.389C525.998,-157.871 727.171,-187.664 742,-192.5 759.421,-198.181 777.731,-207.635 791.717,-215.692"/>
<polygon fill="midnightblue" stroke="midnightblue" points="790.258,-218.896 800.646,-220.983 793.827,-212.874 790.258,-218.896"/>
</g>
<!-- Node11&#45;&gt;Node4 -->
<g id="edge18" class="edge"><title>Node11&#45;&gt;Node4</title>
<path fill="none" stroke="midnightblue" d="M389.932,-145.132C419.189,-161.775 479.388,-196.02 513.99,-215.704"/>
<polygon fill="midnightblue" stroke="midnightblue" points="512.601,-218.94 523.023,-220.843 516.062,-212.856 512.601,-218.94"/>
</g>
<!-- Node12 -->
<g id="node12" class="node"><title>Node12</title>
<g id="a_node12"><a xlink:href="a00354.html#ga87db49044919f1bc84c0ff5e9ab00304" target="_top" xlink:title="Wrapper around iconv(3). ">
<polygon fill="white" stroke="red" points="662.5,-126 662.5,-145 724.5,-145 724.5,-126 662.5,-126"/>
<text text-anchor="middle" x="693.5" y="-133" font-family="Helvetica,sans-Serif" font-size="10.00">tds_iconv</text>
</a>
</g>
</g>
<!-- Node11&#45;&gt;Node12 -->
<g id="edge14" class="edge"><title>Node11&#45;&gt;Node12</title>
<path fill="none" stroke="midnightblue" d="M427.199,-135.5C490.889,-135.5 595.093,-135.5 652.105,-135.5"/>
<polygon fill="midnightblue" stroke="midnightblue" points="652.181,-139 662.181,-135.5 652.181,-132 652.181,-139"/>
</g>
<!-- Node13 -->
<g id="node13" class="node"><title>Node13</title>
<g id="a_node13"><a xlink:href="a00193.html#a79449d2f35a8acc8ed0585044f75524d" target="_top" xlink:title="Dump the contents of data into the log file in a human readable format. ">
<polygon fill="white" stroke="black" points="487.5,-88 487.5,-107 594.5,-107 594.5,-88 487.5,-88"/>
<text text-anchor="middle" x="541" y="-95" font-family="Helvetica,sans-Serif" font-size="10.00">tdsdump_dump_buf</text>
</a>
</g>
</g>
<!-- Node11&#45;&gt;Node13 -->
<g id="edge17" class="edge"><title>Node11&#45;&gt;Node13</title>
<path fill="none" stroke="midnightblue" d="M415.141,-125.911C437.377,-120.851 464.848,-114.6 488.356,-109.251"/>
<polygon fill="midnightblue" stroke="midnightblue" points="489.188,-112.652 498.162,-107.02 487.635,-105.826 489.188,-112.652"/>
</g>
<!-- Node12&#45;&gt;Node2 -->
<g id="edge15" class="edge"><title>Node12&#45;&gt;Node2</title>
<path fill="none" stroke="midnightblue" d="M717.048,-145.178C725.218,-149.121 734.319,-154.04 742,-159.5 764.206,-175.285 786.218,-197.68 800.279,-213.075"/>
<polygon fill="midnightblue" stroke="midnightblue" points="797.942,-215.712 807.223,-220.822 803.154,-211.039 797.942,-215.712"/>
</g>
</g>
</svg>
