<?xml version="1.0" encoding="UTF-8" standalone="no"?>
<!DOCTYPE svg PUBLIC "-//W3C//DTD SVG 1.1//EN"
 "http://www.w3.org/Graphics/SVG/1.1/DTD/svg11.dtd">
<!-- Generated by graphviz version 2.38.0 (20140413.2041)
 -->
<!-- Title: _bcp_convert_out Pages: 1 -->
<svg width="281pt" height="142pt"
 viewBox="0.00 0.00 281.00 142.00" xmlns="http://www.w3.org/2000/svg" xmlns:xlink="http://www.w3.org/1999/xlink">
<g id="graph0" class="graph" transform="scale(1 1) rotate(0) translate(4 138)">
<title>_bcp_convert_out</title>
<polygon fill="white" stroke="none" points="-4,4 -4,-138 277,-138 277,4 -4,4"/>
<!-- Node1 -->
<g id="node1" class="node"><title>Node1</title>
<polygon fill="#bfbfbf" stroke="black" points="0,-57.5 0,-76.5 101,-76.5 101,-57.5 0,-57.5"/>
<text text-anchor="middle" x="50.5" y="-64.5" font-family="Helvetica,sans-Serif" font-size="10.00">_bcp_convert_out</text>
</g>
<!-- Node2 -->
<g id="node2" class="node"><title>Node2</title>
<g id="a_node2"><a xlink:href="a00193.html#ae7f4c4d5f7352f1c814284c536659e6f" target="_top" xlink:title="Return type suitable for conversions (convert all nullable types to fixed type) ">
<polygon fill="white" stroke="black" points="137,-114.5 137,-133.5 273,-133.5 273,-114.5 137,-114.5"/>
<text text-anchor="middle" x="205" y="-121.5" font-family="Helvetica,sans-Serif" font-size="10.00">tds_get_conversion_type</text>
</a>
</g>
</g>
<!-- Node1&#45;&gt;Node2 -->
<g id="edge1" class="edge"><title>Node1&#45;&gt;Node2</title>
<path fill="none" stroke="midnightblue" d="M70.8725,-76.5583C87.9944,-84.776 113.783,-96.5969 137,-105 143.416,-107.322 150.26,-109.544 157.03,-111.597"/>
<polygon fill="midnightblue" stroke="midnightblue" points="156.259,-115.018 166.84,-114.475 158.23,-108.301 156.259,-115.018"/>
</g>
<!-- Node3 -->
<g id="node3" class="node"><title>Node3</title>
<g id="a_node3"><a xlink:href="a00353.html#ga883855e6e3793de6684b21db39c756c4" target="_top" xlink:title="Convert from db date format to a structured date format. ">
<polygon fill="white" stroke="black" points="163.5,-76.5 163.5,-95.5 246.5,-95.5 246.5,-76.5 163.5,-76.5"/>
<text text-anchor="middle" x="205" y="-83.5" font-family="Helvetica,sans-Serif" font-size="10.00">tds_datecrack</text>
</a>
</g>
</g>
<!-- Node1&#45;&gt;Node3 -->
<g id="edge2" class="edge"><title>Node1&#45;&gt;Node3</title>
<path fill="none" stroke="midnightblue" d="M101.012,-73.1688C117.722,-75.2506 136.392,-77.5767 153.2,-79.6708"/>
<polygon fill="midnightblue" stroke="midnightblue" points="153.033,-83.177 163.389,-80.9403 153.899,-76.2307 153.033,-83.177"/>
</g>
<!-- Node4 -->
<g id="node4" class="node"><title>Node4</title>
<g id="a_node4"><a xlink:href="a00353.html#ga8c9652e8b1f3e56a3289fd71b12cee1d" target="_top" xlink:title="format a date string according to an &quot;extended&quot; strftime(3) formatting definition. ">
<polygon fill="white" stroke="black" points="169.5,-38.5 169.5,-57.5 240.5,-57.5 240.5,-38.5 169.5,-38.5"/>
<text text-anchor="middle" x="205" y="-45.5" font-family="Helvetica,sans-Serif" font-size="10.00">tds_strftime</text>
</a>
</g>
</g>
<!-- Node1&#45;&gt;Node4 -->
<g id="edge3" class="edge"><title>Node1&#45;&gt;Node4</title>
<path fill="none" stroke="midnightblue" d="M101.012,-60.8312C119.711,-58.5016 140.866,-55.8659 159.117,-53.592"/>
<polygon fill="midnightblue" stroke="midnightblue" points="159.714,-57.0447 169.205,-52.3352 158.849,-50.0984 159.714,-57.0447"/>
</g>
<!-- Node5 -->
<g id="node5" class="node"><title>Node5</title>
<g id="a_node5"><a xlink:href="a00353.html#gaa865e08f7ad70ef92b111c2ea3657457" target="_top" xlink:title="tds_convert convert a type to another. ">
<polygon fill="white" stroke="black" points="169,-0.5 169,-19.5 241,-19.5 241,-0.5 169,-0.5"/>
<text text-anchor="middle" x="205" y="-7.5" font-family="Helvetica,sans-Serif" font-size="10.00">tds_convert</text>
</a>
</g>
</g>
<!-- Node1&#45;&gt;Node5 -->
<g id="edge4" class="edge"><title>Node1&#45;&gt;Node5</title>
<path fill="none" stroke="midnightblue" d="M70.8725,-57.4417C87.9944,-49.224 113.783,-37.4031 137,-29 144.114,-26.425 151.754,-23.9735 159.237,-21.7391"/>
<polygon fill="midnightblue" stroke="midnightblue" points="160.294,-25.0769 168.927,-18.9347 158.348,-18.3529 160.294,-25.0769"/>
</g>
</g>
</svg>
