<?xml version="1.0" encoding="UTF-8" standalone="no"?>
<!DOCTYPE svg PUBLIC "-//W3C//DTD SVG 1.1//EN"
 "http://www.w3.org/Graphics/SVG/1.1/DTD/svg11.dtd">
<!-- Generated by graphviz version 2.38.0 (20140413.2041)
 -->
<!-- Title: dbgetnull Pages: 1 -->
<svg width="282pt" height="142pt"
 viewBox="0.00 0.00 282.00 142.00" xmlns="http://www.w3.org/2000/svg" xmlns:xlink="http://www.w3.org/1999/xlink">
<g id="graph0" class="graph" transform="scale(1 1) rotate(0) translate(4 138)">
<title>dbgetnull</title>
<polygon fill="white" stroke="none" points="-4,4 -4,-138 278,-138 278,4 -4,4"/>
<!-- Node1 -->
<g id="node1" class="node"><title>Node1</title>
<polygon fill="#bfbfbf" stroke="black" points="0,-57.5 0,-76.5 59,-76.5 59,-57.5 0,-57.5"/>
<text text-anchor="middle" x="29.5" y="-64.5" font-family="Helvetica,sans-Serif" font-size="10.00">dbgetnull</text>
</g>
<!-- Node2 -->
<g id="node2" class="node"><title>Node2</title>
<g id="a_node2"><a xlink:href="a00341.html#ga32eb72f6fb3edb130e59fb3dd0766e7e" target="_top" xlink:title="Convert one datatype to another. ">
<polygon fill="white" stroke="black" points="95,-57.5 95,-76.5 158,-76.5 158,-57.5 95,-57.5"/>
<text text-anchor="middle" x="126.5" y="-64.5" font-family="Helvetica,sans-Serif" font-size="10.00">dbconvert</text>
</a>
</g>
</g>
<!-- Node1&#45;&gt;Node2 -->
<g id="edge1" class="edge"><title>Node1&#45;&gt;Node2</title>
<path fill="none" stroke="midnightblue" d="M69.1167,-67C77.6319,-67 86.542,-67 94.6993,-67"/>
<polygon fill="midnightblue" stroke="midnightblue" points="69.0032,-63.5001 59.0031,-67 69.0031,-70.5001 69.0032,-63.5001"/>
</g>
<!-- Node3 -->
<g id="node3" class="node"><title>Node3</title>
<g id="a_node3"><a xlink:href="a00341.html#gac617cfeabee6c2ccefaa73636da38f3a" target="_top" xlink:title="cf. ">
<polygon fill="white" stroke="black" points="194,-114.5 194,-133.5 274,-133.5 274,-114.5 194,-114.5"/>
<text text-anchor="middle" x="234" y="-121.5" font-family="Helvetica,sans-Serif" font-size="10.00">dbconvert_ps</text>
</a>
</g>
</g>
<!-- Node2&#45;&gt;Node3 -->
<g id="edge2" class="edge"><title>Node2&#45;&gt;Node3</title>
<path fill="none" stroke="midnightblue" d="M152.315,-81.6959C164.726,-88.9135 180.042,-97.622 194,-105 199.993,-108.168 206.592,-111.456 212.631,-114.389"/>
<polygon fill="midnightblue" stroke="midnightblue" points="153.859,-78.5443 143.461,-76.5138 150.323,-84.5857 153.859,-78.5443"/>
</g>
<!-- Node4 -->
<g id="node4" class="node"><title>Node4</title>
<g id="a_node4"><a xlink:href="a00341.html#gaf641c8e3d34607ca8b7ac2afed3e6d67" target="_top" xlink:title="Print a regular result row to a buffer. ">
<polygon fill="white" stroke="black" points="201,-76.5 201,-95.5 267,-95.5 267,-76.5 201,-76.5"/>
<text text-anchor="middle" x="234" y="-83.5" font-family="Helvetica,sans-Serif" font-size="10.00">dbspr1row</text>
</a>
</g>
</g>
<!-- Node2&#45;&gt;Node4 -->
<g id="edge3" class="edge"><title>Node2&#45;&gt;Node4</title>
<path fill="none" stroke="midnightblue" d="M168.09,-74.3101C178.895,-76.2561 190.421,-78.3317 200.715,-80.1856"/>
<polygon fill="midnightblue" stroke="midnightblue" points="168.477,-70.8235 158.015,-72.4956 167.236,-77.7127 168.477,-70.8235"/>
</g>
<!-- Node5 -->
<g id="node5" class="node"><title>Node5</title>
<g id="a_node5"><a xlink:href="a00341.html#gaa30be3414a97aac6139af2e928db91ca" target="_top" xlink:title="Print a result set to stdout. ">
<polygon fill="white" stroke="black" points="206.5,-38.5 206.5,-57.5 261.5,-57.5 261.5,-38.5 206.5,-38.5"/>
<text text-anchor="middle" x="234" y="-45.5" font-family="Helvetica,sans-Serif" font-size="10.00">dbprrow</text>
</a>
</g>
</g>
<!-- Node2&#45;&gt;Node5 -->
<g id="edge4" class="edge"><title>Node2&#45;&gt;Node5</title>
<path fill="none" stroke="midnightblue" d="M168.066,-59.6943C180.952,-57.3736 194.864,-54.8681 206.493,-52.7738"/>
<polygon fill="midnightblue" stroke="midnightblue" points="167.236,-56.2873 158.015,-61.5044 168.477,-63.1765 167.236,-56.2873"/>
</g>
<!-- Node6 -->
<g id="node6" class="node"><title>Node6</title>
<g id="a_node6"><a xlink:href="a00341.html#ga548153eb2eae76c48aa9d4b72258dc1c" target="_top" xlink:title="Send text or image data to the server. ">
<polygon fill="white" stroke="black" points="200,-0.5 200,-19.5 268,-19.5 268,-0.5 200,-0.5"/>
<text text-anchor="middle" x="234" y="-7.5" font-family="Helvetica,sans-Serif" font-size="10.00">dbwritetext</text>
</a>
</g>
</g>
<!-- Node2&#45;&gt;Node6 -->
<g id="edge5" class="edge"><title>Node2&#45;&gt;Node6</title>
<path fill="none" stroke="midnightblue" d="M152.315,-52.3041C164.726,-45.0865 180.042,-36.378 194,-29 199.993,-25.8324 206.592,-22.5437 212.631,-19.6105"/>
<polygon fill="midnightblue" stroke="midnightblue" points="150.323,-49.4143 143.461,-57.4862 153.859,-55.4557 150.323,-49.4143"/>
</g>
</g>
</svg>
