<?xml version="1.0" encoding="UTF-8" standalone="no"?>
<!DOCTYPE svg PUBLIC "-//W3C//DTD SVG 1.1//EN"
 "http://www.w3.org/Graphics/SVG/1.1/DTD/svg11.dtd">
<!-- Generated by graphviz version 2.38.0 (20140413.2041)
 -->
<!-- Title: dbopen Pages: 1 -->
<svg width="717pt" height="524pt"
 viewBox="0.00 0.00 717.00 523.97" xmlns="http://www.w3.org/2000/svg" xmlns:xlink="http://www.w3.org/1999/xlink">
<g id="graph0" class="graph" transform="scale(1 1) rotate(0) translate(4 519.969)">
<title>dbopen</title>
<polygon fill="white" stroke="none" points="-4,4 -4,-519.969 713,-519.969 713,4 -4,4"/>
<!-- Node1 -->
<g id="node1" class="node"><title>Node1</title>
<polygon fill="#bfbfbf" stroke="black" points="0,-192.469 0,-211.469 52,-211.469 52,-192.469 0,-192.469"/>
<text text-anchor="middle" x="26" y="-199.469" font-family="Helvetica,sans-Serif" font-size="10.00">dbopen</text>
</g>
<!-- Node2 -->
<g id="node2" class="node"><title>Node2</title>
<g id="a_node2"><a xlink:href="a00347.html#ga2c99ec565452279e9a382451d89642eb" target="_top" xlink:title="Form a connection with the server. ">
<polygon fill="white" stroke="black" points="88,-192.469 88,-211.469 154,-211.469 154,-192.469 88,-192.469"/>
<text text-anchor="middle" x="121" y="-199.469" font-family="Helvetica,sans-Serif" font-size="10.00">tdsdbopen</text>
</a>
</g>
</g>
<!-- Node1&#45;&gt;Node2 -->
<g id="edge1" class="edge"><title>Node1&#45;&gt;Node2</title>
<path fill="none" stroke="midnightblue" d="M52.4127,-201.969C60.2982,-201.969 69.2102,-201.969 77.9141,-201.969"/>
<polygon fill="midnightblue" stroke="midnightblue" points="77.9622,-205.469 87.9621,-201.969 77.9621,-198.469 77.9622,-205.469"/>
</g>
<!-- Node3 -->
<g id="node3" class="node"><title>Node3</title>
<g id="a_node3"><a xlink:href="a00193.html#a24471508ddfde7cc0f8577801e70c42f" target="_top" xlink:title="Create and truncate a human readable dump file for the TDS traffic. ">
<polygon fill="white" stroke="black" points="469.5,-192.469 469.5,-211.469 555.5,-211.469 555.5,-192.469 469.5,-192.469"/>
<text text-anchor="middle" x="512.5" y="-199.469" font-family="Helvetica,sans-Serif" font-size="10.00">tdsdump_open</text>
</a>
</g>
</g>
<!-- Node2&#45;&gt;Node3 -->
<g id="edge2" class="edge"><title>Node2&#45;&gt;Node3</title>
<path fill="none" stroke="midnightblue" d="M154.206,-201.969C221.499,-201.969 377.534,-201.969 459.333,-201.969"/>
<polygon fill="midnightblue" stroke="midnightblue" points="459.408,-205.469 469.408,-201.969 459.408,-198.469 459.408,-205.469"/>
</g>
<!-- Node4 -->
<g id="node4" class="node"><title>Node4</title>
<g id="a_node4"><a xlink:href="a00193.html#ab45c291105027e69836002e1dd586141" target="_top" xlink:title="Write a message to the debug log. ">
<polygon fill="white" stroke="black" points="629,-173.469 629,-192.469 706,-192.469 706,-173.469 629,-173.469"/>
<text text-anchor="middle" x="667.5" y="-180.469" font-family="Helvetica,sans-Serif" font-size="10.00">tdsdump_log</text>
</a>
</g>
</g>
<!-- Node2&#45;&gt;Node4 -->
<g id="edge4" class="edge"><title>Node2&#45;&gt;Node4</title>
<path fill="none" stroke="midnightblue" d="M154.413,-199.351C211.207,-194.911 332.427,-186.079 435,-182.969 498.491,-181.044 571.823,-181.496 618.645,-182.123"/>
<polygon fill="midnightblue" stroke="midnightblue" points="618.749,-185.625 628.798,-182.268 618.848,-178.626 618.749,-185.625"/>
</g>
<!-- Node5 -->
<g id="node5" class="node"><title>Node5</title>
<g id="a_node5"><a xlink:href="a00347.html#ga302a4ce6559b81808e3be51615cd1b67" target="_top" xlink:title="Call client&#45;installed error handler. ">
<polygon fill="white" stroke="black" points="190,-116.469 190,-135.469 247,-135.469 247,-116.469 190,-116.469"/>
<text text-anchor="middle" x="218.5" y="-123.469" font-family="Helvetica,sans-Serif" font-size="10.00">dbperror</text>
</a>
</g>
</g>
<!-- Node2&#45;&gt;Node5 -->
<g id="edge5" class="edge"><title>Node2&#45;&gt;Node5</title>
<path fill="none" stroke="midnightblue" d="M134.095,-192.344C150.097,-179.609 178.511,-156.997 197.674,-141.747"/>
<polygon fill="midnightblue" stroke="midnightblue" points="199.858,-144.482 205.503,-135.516 195.499,-139.005 199.858,-144.482"/>
</g>
<!-- Node6 -->
<g id="node6" class="node"><title>Node6</title>
<g id="a_node6"><a xlink:href="a00193.html#ad511d50edc54847d606ce4c9a4945a62" target="_top" xlink:title="Set the servername in a TDSLOGIN structure. ">
<polygon fill="white" stroke="black" points="469,-496.469 469,-515.469 556,-515.469 556,-496.469 469,-496.469"/>
<text text-anchor="middle" x="512.5" y="-503.469" font-family="Helvetica,sans-Serif" font-size="10.00">tds_set_server</text>
</a>
</g>
</g>
<!-- Node2&#45;&gt;Node6 -->
<g id="edge7" class="edge"><title>Node2&#45;&gt;Node6</title>
<path fill="none" stroke="midnightblue" d="M129.982,-211.705C142.303,-226.54 166.947,-255.455 190,-277.969 292.394,-377.972 307.709,-421.53 435,-486.969 442.523,-490.836 450.873,-493.944 459.212,-496.433"/>
<polygon fill="midnightblue" stroke="midnightblue" points="458.378,-499.833 468.946,-499.079 460.215,-493.079 458.378,-499.833"/>
</g>
<!-- Node8 -->
<g id="node8" class="node"><title>Node8</title>
<g id="a_node8"><a xlink:href="a00352.html#ga9af192306186ddf39e09be0fd4ad8aaf" target="_top" xlink:title="tds_read_config_info() will fill the tds connection structure based on configuration information gath...">
<polygon fill="white" stroke="black" points="283,-287.469 283,-306.469 399,-306.469 399,-287.469 283,-287.469"/>
<text text-anchor="middle" x="341" y="-294.469" font-family="Helvetica,sans-Serif" font-size="10.00">tds_read_config_info</text>
</a>
</g>
</g>
<!-- Node2&#45;&gt;Node8 -->
<g id="edge10" class="edge"><title>Node2&#45;&gt;Node8</title>
<path fill="none" stroke="midnightblue" d="M132.225,-211.788C144.849,-223.411 167.429,-242.617 190,-253.969 217.913,-268.008 251.122,-278.125 279.188,-285.005"/>
<polygon fill="midnightblue" stroke="midnightblue" points="278.739,-288.495 289.277,-287.394 280.352,-281.684 278.739,-288.495"/>
</g>
<!-- Node14 -->
<g id="node14" class="node"><title>Node14</title>
<g id="a_node14"><a xlink:href="a00352.html#gacee4f06ba749b10ee9f2e5bb1c4a8910" target="_top" xlink:title="Fix configuration after reading it. ">
<polygon fill="white" stroke="black" points="474.5,-230.469 474.5,-249.469 550.5,-249.469 550.5,-230.469 474.5,-230.469"/>
<text text-anchor="middle" x="512.5" y="-237.469" font-family="Helvetica,sans-Serif" font-size="10.00">tds_fix_login</text>
</a>
</g>
</g>
<!-- Node2&#45;&gt;Node14 -->
<g id="edge32" class="edge"><title>Node2&#45;&gt;Node14</title>
<path fill="none" stroke="midnightblue" d="M154.022,-209.445C165.335,-211.851 178.182,-214.318 190,-215.969 286.881,-229.501 401.324,-235.742 464.197,-238.341"/>
<polygon fill="midnightblue" stroke="midnightblue" points="464.074,-241.838 474.206,-238.741 464.354,-234.844 464.074,-241.838"/>
</g>
<!-- Node16 -->
<g id="node16" class="node"><title>Node16</title>
<g id="a_node16"><a xlink:href="a00341.html#gaef740b394b44eb33925c2718f7b30d69" target="_top" xlink:title="Close a connection to the server and free associated resources. ">
<polygon fill="white" stroke="black" points="192,-78.469 192,-97.469 245,-97.469 245,-78.469 192,-78.469"/>
<text text-anchor="middle" x="218.5" y="-85.469" font-family="Helvetica,sans-Serif" font-size="10.00">dbclose</text>
</a>
</g>
</g>
<!-- Node2&#45;&gt;Node16 -->
<g id="edge26" class="edge"><title>Node2&#45;&gt;Node16</title>
<path fill="none" stroke="midnightblue" d="M127.419,-192.245C137.867,-174.06 162.235,-134.276 190,-106.969 191.086,-105.901 192.239,-104.852 193.432,-103.83"/>
<polygon fill="midnightblue" stroke="midnightblue" points="195.831,-106.402 201.646,-97.5456 191.577,-100.842 195.831,-106.402"/>
</g>
<!-- Node3&#45;&gt;Node4 -->
<g id="edge3" class="edge"><title>Node3&#45;&gt;Node4</title>
<path fill="none" stroke="midnightblue" d="M555.713,-196.727C575.311,-194.293 598.694,-191.389 618.916,-188.878"/>
<polygon fill="midnightblue" stroke="midnightblue" points="619.369,-192.349 628.861,-187.643 618.506,-185.402 619.369,-192.349"/>
</g>
<!-- Node5&#45;&gt;Node4 -->
<g id="edge6" class="edge"><title>Node5&#45;&gt;Node4</title>
<path fill="none" stroke="midnightblue" d="M247.003,-122.763C287.919,-118.172 367.273,-109.949 435,-106.969 503.822,-103.941 526.312,-80.7107 590,-106.969 618.28,-118.629 641.624,-146.365 654.813,-164.906"/>
<polygon fill="midnightblue" stroke="midnightblue" points="652.076,-167.105 660.603,-173.394 657.859,-163.161 652.076,-167.105"/>
</g>
<!-- Node6&#45;&gt;Node4 -->
<g id="edge8" class="edge"><title>Node6&#45;&gt;Node4</title>
<path fill="none" stroke="midnightblue" d="M556.085,-503.598C568.426,-500.919 580.987,-495.954 590,-486.969 630.916,-446.179 656.583,-263.945 664.152,-202.94"/>
<polygon fill="midnightblue" stroke="midnightblue" points="667.661,-203.074 665.389,-192.726 660.712,-202.233 667.661,-203.074"/>
</g>
<!-- Node7 -->
<g id="node7" class="node"><title>Node7</title>
<g id="a_node7"><a xlink:href="a00358.html#gad96366d9fa93bfc283cef1299fbe97ab" target="_top" xlink:title="copy a string from another ">
<polygon fill="white" stroke="red" points="626,-439.469 626,-458.469 709,-458.469 709,-439.469 626,-439.469"/>
<text text-anchor="middle" x="667.5" y="-446.469" font-family="Helvetica,sans-Serif" font-size="10.00">tds_dstr_copy</text>
</a>
</g>
</g>
<!-- Node6&#45;&gt;Node7 -->
<g id="edge9" class="edge"><title>Node6&#45;&gt;Node7</title>
<path fill="none" stroke="midnightblue" d="M556.084,-497.134C567.265,-494.344 579.211,-490.935 590,-486.969 607.584,-480.506 626.442,-471.168 641.035,-463.366"/>
<polygon fill="midnightblue" stroke="midnightblue" points="642.846,-466.365 649.953,-458.507 639.497,-460.219 642.846,-466.365"/>
</g>
<!-- Node8&#45;&gt;Node3 -->
<g id="edge13" class="edge"><title>Node8&#45;&gt;Node3</title>
<path fill="none" stroke="midnightblue" d="M350.78,-287.446C366.224,-271.282 399.949,-238.523 435,-220.969 442.651,-217.137 451.129,-214.044 459.573,-211.556"/>
<polygon fill="midnightblue" stroke="midnightblue" points="460.672,-214.885 469.419,-208.907 458.853,-208.126 460.672,-214.885"/>
</g>
<!-- Node8&#45;&gt;Node4 -->
<g id="edge14" class="edge"><title>Node8&#45;&gt;Node4</title>
<path fill="none" stroke="midnightblue" d="M358.555,-306.47C400.681,-329.266 513.98,-381.814 590,-334.969 637.453,-305.728 656.512,-237.026 663.256,-202.912"/>
<polygon fill="midnightblue" stroke="midnightblue" points="666.753,-203.24 665.094,-192.776 659.866,-201.991 666.753,-203.24"/>
</g>
<!-- Node9 -->
<g id="node9" class="node"><title>Node9</title>
<g id="a_node9"><a xlink:href="a00355.html#ga2ef389ac3b0cddec76bf8f1c0951bc9c" target="_top" xlink:title="Initialize login structure with locale information and other stuff for connection. ">
<polygon fill="white" stroke="red" points="473,-420.469 473,-439.469 552,-439.469 552,-420.469 473,-420.469"/>
<text text-anchor="middle" x="512.5" y="-427.469" font-family="Helvetica,sans-Serif" font-size="10.00">tds_init_login</text>
</a>
</g>
</g>
<!-- Node8&#45;&gt;Node9 -->
<g id="edge11" class="edge"><title>Node8&#45;&gt;Node9</title>
<path fill="none" stroke="midnightblue" d="M347.029,-306.688C359.036,-328.881 391.638,-383.482 435,-410.969 443.495,-416.354 453.418,-420.213 463.249,-422.979"/>
<polygon fill="midnightblue" stroke="midnightblue" points="462.445,-426.385 472.993,-425.395 464.13,-419.591 462.445,-426.385"/>
</g>
<!-- Node10 -->
<g id="node10" class="node"><title>Node10</title>
<g id="a_node10"><a xlink:href="a00352.html#ga0a63cb612f245fd85e56cfea98ff8f3b" target="_top" xlink:title="Read configuration info for given server return 0 on error. ">
<polygon fill="white" stroke="red" points="460.5,-306.469 460.5,-325.469 564.5,-325.469 564.5,-306.469 460.5,-306.469"/>
<text text-anchor="middle" x="512.5" y="-313.469" font-family="Helvetica,sans-Serif" font-size="10.00">tds_read_conf_file</text>
</a>
</g>
</g>
<!-- Node8&#45;&gt;Node10 -->
<g id="edge15" class="edge"><title>Node8&#45;&gt;Node10</title>
<path fill="none" stroke="midnightblue" d="M399.385,-303.401C415.769,-305.238 433.682,-307.246 450.285,-309.107"/>
<polygon fill="midnightblue" stroke="midnightblue" points="450.101,-312.608 460.429,-310.244 450.881,-305.652 450.101,-312.608"/>
</g>
<!-- Node11 -->
<g id="node11" class="node"><title>Node11</title>
<g id="a_node11"><a xlink:href="a00352.html#gaa9670914093b354e7a123b10ba877813" target="_top" xlink:title="Check the server name to find port info first Warning: connection&#45;&gt; &amp; login&#45;&gt; are all modified when n...">
<polygon fill="white" stroke="red" points="435,-458.469 435,-477.469 590,-477.469 590,-458.469 435,-458.469"/>
<text text-anchor="middle" x="512.5" y="-465.469" font-family="Helvetica,sans-Serif" font-size="10.00">parse_server_name_for_port</text>
</a>
</g>
</g>
<!-- Node8&#45;&gt;Node11 -->
<g id="edge17" class="edge"><title>Node8&#45;&gt;Node11</title>
<path fill="none" stroke="midnightblue" d="M344.98,-306.592C353.866,-333.622 382.854,-410.742 435,-448.969 437.649,-450.911 440.473,-452.655 443.417,-454.223"/>
<polygon fill="midnightblue" stroke="midnightblue" points="442.003,-457.425 452.552,-458.414 444.922,-451.062 442.003,-457.425"/>
</g>
<!-- Node12 -->
<g id="node12" class="node"><title>Node12</title>
<g id="a_node12"><a xlink:href="a00352.html#ga6631af35ee817f93827c62bbda41674a" target="_top" xlink:title="Try to find the IP number and port for a (possibly) logical server name. ">
<polygon fill="white" stroke="red" points="457,-382.469 457,-401.469 568,-401.469 568,-382.469 457,-382.469"/>
<text text-anchor="middle" x="512.5" y="-389.469" font-family="Helvetica,sans-Serif" font-size="10.00">tds_read_interfaces</text>
</a>
</g>
</g>
<!-- Node8&#45;&gt;Node12 -->
<g id="edge19" class="edge"><title>Node8&#45;&gt;Node12</title>
<path fill="none" stroke="midnightblue" d="M352.056,-306.578C368.289,-321.619 401.813,-350.775 435,-367.969 443.531,-372.389 453.023,-376.17 462.337,-379.336"/>
<polygon fill="midnightblue" stroke="midnightblue" points="461.341,-382.692 471.932,-382.413 463.478,-376.026 461.341,-382.692"/>
</g>
<!-- Node13 -->
<g id="node13" class="node"><title>Node13</title>
<g id="a_node13"><a xlink:href="a00193.html#abf18b98efef6ce2dc0b97d658a3a1918" target="_top" xlink:title="Call the client library&#39;s error handler (for library&#45;generated errors only) ">
<polygon fill="white" stroke="red" points="485.5,-116.469 485.5,-135.469 539.5,-135.469 539.5,-116.469 485.5,-116.469"/>
<text text-anchor="middle" x="512.5" y="-123.469" font-family="Helvetica,sans-Serif" font-size="10.00">tdserror</text>
</a>
</g>
</g>
<!-- Node8&#45;&gt;Node13 -->
<g id="edge22" class="edge"><title>Node8&#45;&gt;Node13</title>
<path fill="none" stroke="midnightblue" d="M348.532,-287.45C362.811,-267.009 398.462,-217.936 435,-182.969 451.405,-167.27 472.178,-152.038 487.937,-141.276"/>
<polygon fill="midnightblue" stroke="midnightblue" points="490.211,-143.965 496.565,-135.486 486.311,-138.152 490.211,-143.965"/>
</g>
<!-- Node8&#45;&gt;Node14 -->
<g id="edge24" class="edge"><title>Node8&#45;&gt;Node14</title>
<path fill="none" stroke="midnightblue" d="M363.098,-287.325C381.738,-279.053 409.799,-267.199 435,-258.969 444.365,-255.91 454.513,-253.069 464.263,-250.566"/>
<polygon fill="midnightblue" stroke="midnightblue" points="465.371,-253.897 474.229,-248.084 463.68,-247.104 465.371,-253.897"/>
</g>
<!-- Node15 -->
<g id="node15" class="node"><title>Node15</title>
<g id="a_node15"><a xlink:href="a00193.html#a2f00fc0907d3bb04ce0eeb9738e08d0c" target="_top" xlink:title="Close the TDS dump log file. ">
<polygon fill="white" stroke="black" points="469,-268.469 469,-287.469 556,-287.469 556,-268.469 469,-268.469"/>
<text text-anchor="middle" x="512.5" y="-275.469" font-family="Helvetica,sans-Serif" font-size="10.00">tdsdump_close</text>
</a>
</g>
</g>
<!-- Node8&#45;&gt;Node15 -->
<g id="edge25" class="edge"><title>Node8&#45;&gt;Node15</title>
<path fill="none" stroke="midnightblue" d="M399.385,-290.536C418.59,-288.384 439.896,-285.995 458.731,-283.884"/>
<polygon fill="midnightblue" stroke="midnightblue" points="459.365,-287.335 468.913,-282.743 458.585,-280.379 459.365,-287.335"/>
</g>
<!-- Node9&#45;&gt;Node7 -->
<g id="edge12" class="edge"><title>Node9&#45;&gt;Node7</title>
<path fill="none" stroke="midnightblue" d="M552.108,-434.763C571.432,-437.163 595.07,-440.099 615.833,-442.677"/>
<polygon fill="midnightblue" stroke="midnightblue" points="615.407,-446.151 625.763,-443.91 616.27,-439.204 615.407,-446.151"/>
</g>
<!-- Node10&#45;&gt;Node4 -->
<g id="edge16" class="edge"><title>Node10&#45;&gt;Node4</title>
<path fill="none" stroke="midnightblue" d="M564.748,-308.8C573.676,-306.044 582.493,-302.233 590,-296.969 624.474,-272.792 647.798,-227.695 658.945,-202.065"/>
<polygon fill="midnightblue" stroke="midnightblue" points="662.238,-203.262 662.855,-192.685 655.777,-200.568 662.238,-203.262"/>
</g>
<!-- Node11&#45;&gt;Node7 -->
<g id="edge18" class="edge"><title>Node11&#45;&gt;Node7</title>
<path fill="none" stroke="midnightblue" d="M590.448,-458.413C599.029,-457.348 607.602,-456.283 615.736,-455.273"/>
<polygon fill="midnightblue" stroke="midnightblue" points="616.28,-458.732 625.772,-454.027 615.417,-451.786 616.28,-458.732"/>
</g>
<!-- Node12&#45;&gt;Node4 -->
<g id="edge20" class="edge"><title>Node12&#45;&gt;Node4</title>
<path fill="none" stroke="midnightblue" d="M565.775,-382.338C574.603,-378.912 583.121,-374.267 590,-367.969 639.482,-322.665 657.837,-240.498 663.873,-202.818"/>
<polygon fill="midnightblue" stroke="midnightblue" points="667.377,-203.046 665.372,-192.643 660.452,-202.026 667.377,-203.046"/>
</g>
<!-- Node12&#45;&gt;Node7 -->
<g id="edge21" class="edge"><title>Node12&#45;&gt;Node7</title>
<path fill="none" stroke="midnightblue" d="M558.894,-401.514C569.248,-404.166 580.11,-407.334 590,-410.969 607.584,-417.432 626.442,-426.77 641.035,-434.572"/>
<polygon fill="midnightblue" stroke="midnightblue" points="639.497,-437.719 649.953,-439.431 642.846,-431.573 639.497,-437.719"/>
</g>
<!-- Node13&#45;&gt;Node4 -->
<g id="edge23" class="edge"><title>Node13&#45;&gt;Node4</title>
<path fill="none" stroke="midnightblue" d="M539.575,-133.421C554.472,-137.859 573.428,-143.814 590,-149.969 605.644,-155.779 622.725,-163.055 636.771,-169.296"/>
<polygon fill="midnightblue" stroke="midnightblue" points="635.399,-172.516 645.955,-173.42 638.266,-166.13 635.399,-172.516"/>
</g>
<!-- Node16&#45;&gt;Node4 -->
<g id="edge27" class="edge"><title>Node16&#45;&gt;Node4</title>
<path fill="none" stroke="midnightblue" d="M245.068,-78.4691C256.5,-74.706 270.248,-70.8359 283,-68.969 418.352,-49.1535 469.684,-25.8786 590,-90.969 621.054,-107.769 644.594,-142.816 656.909,-164.474"/>
<polygon fill="midnightblue" stroke="midnightblue" points="653.901,-166.268 661.764,-173.369 660.046,-162.915 653.901,-166.268"/>
</g>
<!-- Node17 -->
<g id="node17" class="node"><title>Node17</title>
<g id="a_node17"><a xlink:href="a00357.html#ga3e3f76009fce5ceedb2f42bb2c9aed2e" target="_top" xlink:title="Close current socket for last socket close entire connection for MARS send FIN request. ">
<polygon fill="white" stroke="red" points="292,-78.469 292,-97.469 390,-97.469 390,-78.469 292,-78.469"/>
<text text-anchor="middle" x="341" y="-85.469" font-family="Helvetica,sans-Serif" font-size="10.00">tds_close_socket</text>
</a>
</g>
</g>
<!-- Node16&#45;&gt;Node17 -->
<g id="edge28" class="edge"><title>Node16&#45;&gt;Node17</title>
<path fill="none" stroke="midnightblue" d="M245.055,-87.969C255.739,-87.969 268.632,-87.969 281.424,-87.969"/>
<polygon fill="midnightblue" stroke="midnightblue" points="281.617,-91.4691 291.617,-87.969 281.617,-84.4691 281.617,-91.4691"/>
</g>
<!-- Node18 -->
<g id="node18" class="node"><title>Node18</title>
<g id="a_node18"><a xlink:href="a00341.html#ga0fcfcf6846442dac9dd5584d270ec72a" target="_top" xlink:title="Erase the command buffer, in case DBNOAUTOFREE was set with dbsetopt(). ">
<polygon fill="white" stroke="black" points="311,-2.46896 311,-21.469 371,-21.469 371,-2.46896 311,-2.46896"/>
<text text-anchor="middle" x="341" y="-9.46896" font-family="Helvetica,sans-Serif" font-size="10.00">dbfreebuf</text>
</a>
</g>
</g>
<!-- Node16&#45;&gt;Node18 -->
<g id="edge30" class="edge"><title>Node16&#45;&gt;Node18</title>
<path fill="none" stroke="midnightblue" d="M229.583,-78.1397C241.557,-66.858 262.497,-48.3246 283,-35.969 289.386,-32.1208 296.501,-28.5944 303.48,-25.4985"/>
<polygon fill="midnightblue" stroke="midnightblue" points="304.978,-28.6653 312.831,-21.5537 302.257,-22.2157 304.978,-28.6653"/>
</g>
<!-- Node17&#45;&gt;Node13 -->
<g id="edge29" class="edge"><title>Node17&#45;&gt;Node13</title>
<path fill="none" stroke="midnightblue" d="M384.772,-97.558C412.651,-103.808 448.637,-111.876 475.134,-117.816"/>
<polygon fill="midnightblue" stroke="midnightblue" points="474.62,-121.288 485.144,-120.06 476.151,-114.457 474.62,-121.288"/>
</g>
<!-- Node18&#45;&gt;Node4 -->
<g id="edge31" class="edge"><title>Node18&#45;&gt;Node4</title>
<path fill="none" stroke="midnightblue" d="M371.327,-6.45827C420.986,1.18806 522.774,9.40547 590,-35.969 634.583,-66.0599 654.848,-130.601 662.537,-163.225"/>
<polygon fill="midnightblue" stroke="midnightblue" points="659.191,-164.307 664.751,-173.325 666.028,-162.808 659.191,-164.307"/>
</g>
</g>
</svg>
