<?xml version="1.0" encoding="UTF-8" standalone="no"?>
<!DOCTYPE svg PUBLIC "-//W3C//DTD SVG 1.1//EN"
 "http://www.w3.org/Graphics/SVG/1.1/DTD/svg11.dtd">
<!-- Generated by graphviz version 2.38.0 (20140413.2041)
 -->
<!-- Title: _bcp_no_get_col_data Pages: 1 -->
<svg width="349pt" height="28pt"
 viewBox="0.00 0.00 349.00 28.00" xmlns="http://www.w3.org/2000/svg" xmlns:xlink="http://www.w3.org/1999/xlink">
<g id="graph0" class="graph" transform="scale(1 1) rotate(0) translate(4 24)">
<title>_bcp_no_get_col_data</title>
<polygon fill="white" stroke="none" points="-4,4 -4,-24 345,-24 345,4 -4,4"/>
<!-- Node1 -->
<g id="node1" class="node"><title>Node1</title>
<polygon fill="#bfbfbf" stroke="black" points="0,-0.5 0,-19.5 125,-19.5 125,-0.5 0,-0.5"/>
<text text-anchor="middle" x="62.5" y="-7.5" font-family="Helvetica,sans-Serif" font-size="10.00">_bcp_no_get_col_data</text>
</g>
<!-- Node2 -->
<g id="node2" class="node"><title>Node2</title>
<g id="a_node2"><a xlink:href="a00344.html#ga7370f1223f13510d6b33e98f2de09fb5" target="_top" xlink:title="_bcp_exec_in">
<polygon fill="white" stroke="black" points="161,-0.5 161,-19.5 243,-19.5 243,-0.5 161,-0.5"/>
<text text-anchor="middle" x="202" y="-7.5" font-family="Helvetica,sans-Serif" font-size="10.00">_bcp_exec_in</text>
</a>
</g>
</g>
<!-- Node1&#45;&gt;Node2 -->
<g id="edge1" class="edge"><title>Node1&#45;&gt;Node2</title>
<path fill="none" stroke="midnightblue" d="M135.019,-10C143.889,-10 152.697,-10 160.851,-10"/>
<polygon fill="midnightblue" stroke="midnightblue" points="135.011,-6.5001 125.011,-10 135.011,-13.5001 135.011,-6.5001"/>
</g>
<!-- Node3 -->
<g id="node3" class="node"><title>Node3</title>
<g id="a_node3"><a xlink:href="a00343.html#ga7a184158b27a50f713e9cfae3b746209" target="_top" xlink:title="Write a datafile to a table. ">
<polygon fill="white" stroke="black" points="279,-0.5 279,-19.5 341,-19.5 341,-0.5 279,-0.5"/>
<text text-anchor="middle" x="310" y="-7.5" font-family="Helvetica,sans-Serif" font-size="10.00">bcp_exec</text>
</a>
</g>
</g>
<!-- Node2&#45;&gt;Node3 -->
<g id="edge2" class="edge"><title>Node2&#45;&gt;Node3</title>
<path fill="none" stroke="midnightblue" d="M253.227,-10C261.964,-10 270.801,-10 278.786,-10"/>
<polygon fill="midnightblue" stroke="midnightblue" points="253.074,-6.5001 243.074,-10 253.074,-13.5001 253.074,-6.5001"/>
</g>
</g>
</svg>
