<?xml version="1.0" encoding="UTF-8" standalone="no"?>
<!DOCTYPE svg PUBLIC "-//W3C//DTD SVG 1.1//EN"
 "http://www.w3.org/Graphics/SVG/1.1/DTD/svg11.dtd">
<!-- Generated by graphviz version 2.38.0 (20140413.2041)
 -->
<!-- Title: tds_dataout_stream_init Pages: 1 -->
<svg width="945pt" height="376pt"
 viewBox="0.00 0.00 945.00 376.13" xmlns="http://www.w3.org/2000/svg" xmlns:xlink="http://www.w3.org/1999/xlink">
<g id="graph0" class="graph" transform="scale(1 1) rotate(0) translate(4 372.126)">
<title>tds_dataout_stream_init</title>
<polygon fill="white" stroke="none" points="-4,4 -4,-372.126 941,-372.126 941,4 -4,4"/>
<!-- Node1 -->
<g id="node1" class="node"><title>Node1</title>
<polygon fill="#bfbfbf" stroke="black" points="0,-127.829 0,-146.829 130,-146.829 130,-127.829 0,-127.829"/>
<text text-anchor="middle" x="65" y="-134.829" font-family="Helvetica,sans-Serif" font-size="10.00">tds_dataout_stream_init</text>
</g>
<!-- Node2 -->
<g id="node2" class="node"><title>Node2</title>
<g id="a_node2"><a xlink:href="a00357.html#ga1fcaf8d488cc1390f106ce3ad0bf37b4" target="_top" xlink:title="Output a string to wire automatic translate string to unicode if needed. ">
<polygon fill="white" stroke="black" points="166,-127.829 166,-146.829 249,-146.829 249,-127.829 166,-127.829"/>
<text text-anchor="middle" x="207.5" y="-134.829" font-family="Helvetica,sans-Serif" font-size="10.00">tds_put_string</text>
</a>
</g>
</g>
<!-- Node1&#45;&gt;Node2 -->
<g id="edge1" class="edge"><title>Node1&#45;&gt;Node2</title>
<path fill="none" stroke="midnightblue" d="M140.368,-137.329C149.124,-137.329 157.794,-137.329 165.832,-137.329"/>
<polygon fill="midnightblue" stroke="midnightblue" points="140.083,-133.829 130.083,-137.329 140.083,-140.829 140.083,-133.829"/>
</g>
<!-- Node3 -->
<g id="node3" class="node"><title>Node3</title>
<g id="a_node3"><a xlink:href="a00356.html#ga95e0fccedc459a4404f496eec74a369a" target="_top" xlink:title="tds_submit_query_params() sends a language string to the database server for processing. ">
<polygon fill="white" stroke="black" points="452,-304.829 452,-323.829 592,-323.829 592,-304.829 452,-304.829"/>
<text text-anchor="middle" x="522" y="-311.829" font-family="Helvetica,sans-Serif" font-size="10.00">tds_submit_query_params</text>
</a>
</g>
</g>
<!-- Node2&#45;&gt;Node3 -->
<g id="edge2" class="edge"><title>Node2&#45;&gt;Node3</title>
<path fill="none" stroke="midnightblue" d="M215.294,-156.298C225.894,-183.086 248.967,-231.598 285,-257.329 333.881,-292.235 401.468,-305.942 451.79,-311.235"/>
<polygon fill="midnightblue" stroke="midnightblue" points="218.544,-154.996 211.731,-146.882 211.997,-157.474 218.544,-154.996"/>
</g>
<!-- Node6 -->
<g id="node6" class="node"><title>Node6</title>
<g id="a_node6"><a xlink:href="a00356.html#ga6e42b4a1d1d3898229ea2fe4afc2ecec" target="_top" xlink:title="Output params types and query (required by sp_prepare/sp_executesql/sp_prepexec) ">
<polygon fill="white" stroke="black" points="285,-228.829 285,-247.829 416,-247.829 416,-228.829 285,-228.829"/>
<text text-anchor="middle" x="350.5" y="-235.829" font-family="Helvetica,sans-Serif" font-size="10.00">tds7_put_query_params</text>
</a>
</g>
</g>
<!-- Node2&#45;&gt;Node6 -->
<g id="edge5" class="edge"><title>Node2&#45;&gt;Node6</title>
<path fill="none" stroke="midnightblue" d="M230.157,-152.842C259.705,-174.008 311.762,-211.298 336.168,-228.779"/>
<polygon fill="midnightblue" stroke="midnightblue" points="231.933,-149.809 221.765,-146.831 227.856,-155.5 231.933,-149.809"/>
</g>
<!-- Node10 -->
<g id="node10" class="node"><title>Node10</title>
<g id="a_node10"><a xlink:href="a00356.html#gaf573d8d4d2660c8c27770573fca05ff5" target="_top" xlink:title="Send a unprepare request for a prepared query. ">
<polygon fill="white" stroke="black" points="290,-146.829 290,-165.829 411,-165.829 411,-146.829 290,-146.829"/>
<text text-anchor="middle" x="350.5" y="-153.829" font-family="Helvetica,sans-Serif" font-size="10.00">tds_submit_unprepare</text>
</a>
</g>
</g>
<!-- Node2&#45;&gt;Node10 -->
<g id="edge10" class="edge"><title>Node2&#45;&gt;Node10</title>
<path fill="none" stroke="midnightblue" d="M259.373,-144.185C269.286,-145.52 279.762,-146.932 289.927,-148.302"/>
<polygon fill="midnightblue" stroke="midnightblue" points="259.661,-140.692 249.283,-142.825 258.726,-147.629 259.661,-140.692"/>
</g>
<!-- Node12 -->
<g id="node12" class="node"><title>Node12</title>
<g id="a_node12"><a xlink:href="a00356.html#gaf614c75ea8f7ad411e53dac0e2f91be4" target="_top" xlink:title="Send RPC as string query. ">
<polygon fill="white" stroke="black" points="639,-21.8294 639,-40.8294 769,-40.8294 769,-21.8294 639,-21.8294"/>
<text text-anchor="middle" x="704" y="-28.8294" font-family="Helvetica,sans-Serif" font-size="10.00">tds_send_emulated_rpc</text>
</a>
</g>
</g>
<!-- Node2&#45;&gt;Node12 -->
<g id="edge12" class="edge"><title>Node2&#45;&gt;Node12</title>
<path fill="none" stroke="midnightblue" d="M216.808,-118.511C228.313,-95.0668 251.533,-56.0591 285,-39.3294 411.924,24.1192 588.767,-4.67447 665.264,-21.8276"/>
<polygon fill="midnightblue" stroke="midnightblue" points="213.542,-117.233 212.475,-127.774 219.883,-120.199 213.542,-117.233"/>
</g>
<!-- Node14 -->
<g id="node14" class="node"><title>Node14</title>
<g id="a_node14"><a xlink:href="a00356.html#ga26b26296d060dca75f6a43e9ac41e58d" target="_top" xlink:title="Send a string to server while quoting it. ">
<polygon fill="white" stroke="black" points="297,-70.8294 297,-89.8294 404,-89.8294 404,-70.8294 297,-70.8294"/>
<text text-anchor="middle" x="350.5" y="-77.8294" font-family="Helvetica,sans-Serif" font-size="10.00">tds_quote_and_put</text>
</a>
</g>
</g>
<!-- Node2&#45;&gt;Node14 -->
<g id="edge14" class="edge"><title>Node2&#45;&gt;Node14</title>
<path fill="none" stroke="midnightblue" d="M238.968,-123.763C252.928,-117.656 269.731,-110.459 285,-104.329 297.419,-99.3442 311.317,-94.1273 323.023,-89.8357"/>
<polygon fill="midnightblue" stroke="midnightblue" points="237.556,-120.56 229.811,-127.79 240.374,-126.968 237.556,-120.56"/>
</g>
<!-- Node15 -->
<g id="node15" class="node"><title>Node15</title>
<g id="a_node15"><a xlink:href="a00356.html#ga0e2e7230c425e925402d7856ff5b4b18" target="_top" xlink:title="Send a parameter to server. ">
<polygon fill="white" stroke="black" points="453.5,-48.8294 453.5,-67.8294 590.5,-67.8294 590.5,-48.8294 453.5,-48.8294"/>
<text text-anchor="middle" x="522" y="-55.8294" font-family="Helvetica,sans-Serif" font-size="10.00">tds_put_param_as_string</text>
</a>
</g>
</g>
<!-- Node2&#45;&gt;Node15 -->
<g id="edge19" class="edge"><title>Node2&#45;&gt;Node15</title>
<path fill="none" stroke="midnightblue" d="M220.216,-119.337C233.43,-100.855 256.795,-73.1686 285,-61.3294 346.018,-35.7171 423.973,-41.2263 473.21,-48.7838"/>
<polygon fill="midnightblue" stroke="midnightblue" points="217.185,-117.569 214.414,-127.795 222.957,-121.529 217.185,-117.569"/>
</g>
<!-- Node16 -->
<g id="node16" class="node"><title>Node16</title>
<g id="a_node16"><a xlink:href="a00356.html#ga02c6ce3ff96369603a6ee4efee64caae" target="_top" xlink:title="Emulate prepared execute traslating to a normal language. ">
<polygon fill="white" stroke="red" points="628,-102.829 628,-121.829 780,-121.829 780,-102.829 628,-102.829"/>
<text text-anchor="middle" x="704" y="-109.829" font-family="Helvetica,sans-Serif" font-size="10.00">tds_send_emulated_execute</text>
</a>
</g>
</g>
<!-- Node2&#45;&gt;Node16 -->
<g id="edge20" class="edge"><title>Node2&#45;&gt;Node16</title>
<path fill="none" stroke="midnightblue" d="M259.599,-134.746C347.144,-130.32 526.187,-121.268 627.943,-116.124"/>
<polygon fill="midnightblue" stroke="midnightblue" points="259.198,-131.262 249.388,-135.262 259.552,-138.253 259.198,-131.262"/>
</g>
<!-- Node17 -->
<g id="node17" class="node"><title>Node17</title>
<g id="a_node17"><a xlink:href="a00294.html#a4daaa551e54dbd978650e2eef89e09ff" target="_top" xlink:title="Send BCP metadata to server. ">
<polygon fill="white" stroke="black" points="628,-342.829 628,-361.829 780,-361.829 780,-342.829 628,-342.829"/>
<text text-anchor="middle" x="704" y="-349.829" font-family="Helvetica,sans-Serif" font-size="10.00">tds7_bcp_send_colmetadata</text>
</a>
</g>
</g>
<!-- Node2&#45;&gt;Node17 -->
<g id="edge21" class="edge"><title>Node2&#45;&gt;Node17</title>
<path fill="none" stroke="midnightblue" d="M212.192,-157.089C219.623,-191.083 239.705,-260.43 285,-296.329 389.146,-378.873 555.728,-372.521 643.863,-361.834"/>
<polygon fill="midnightblue" stroke="midnightblue" points="215.566,-156.115 210.139,-147.015 208.707,-157.513 215.566,-156.115"/>
</g>
<!-- Node4 -->
<g id="node4" class="node"><title>Node4</title>
<g id="a_node4"><a xlink:href="a00356.html#ga5a29ae7f99d089dc3cea85ec6ee5f3ab" target="_top" xlink:title="tds_submit_query() sends a language string to the database server for processing. ...">
<polygon fill="white" stroke="red" points="655,-304.829 655,-323.829 753,-323.829 753,-304.829 655,-304.829"/>
<text text-anchor="middle" x="704" y="-311.829" font-family="Helvetica,sans-Serif" font-size="10.00">tds_submit_query</text>
</a>
</g>
</g>
<!-- Node3&#45;&gt;Node4 -->
<g id="edge3" class="edge"><title>Node3&#45;&gt;Node4</title>
<path fill="none" stroke="midnightblue" d="M602.481,-314.329C620.297,-314.329 638.67,-314.329 654.756,-314.329"/>
<polygon fill="midnightblue" stroke="midnightblue" points="602.078,-310.829 592.078,-314.329 602.078,-317.829 602.078,-310.829"/>
</g>
<!-- Node5 -->
<g id="node5" class="node"><title>Node5</title>
<g id="a_node5"><a xlink:href="a00193.html#a8208eef2a3974ae1f0cf3c8c8ab011ce" target="_top" xlink:title="Start sending BCP data to server. ">
<polygon fill="white" stroke="red" points="836.5,-323.829 836.5,-342.829 916.5,-342.829 916.5,-323.829 836.5,-323.829"/>
<text text-anchor="middle" x="876.5" y="-330.829" font-family="Helvetica,sans-Serif" font-size="10.00">tds_bcp_start</text>
</a>
</g>
</g>
<!-- Node4&#45;&gt;Node5 -->
<g id="edge4" class="edge"><title>Node4&#45;&gt;Node5</title>
<path fill="none" stroke="midnightblue" d="M763.505,-320.849C787.592,-323.533 814.848,-326.571 836.441,-328.977"/>
<polygon fill="midnightblue" stroke="midnightblue" points="763.729,-317.352 753.402,-319.723 762.953,-324.309 763.729,-317.352"/>
</g>
<!-- Node6&#45;&gt;Node3 -->
<g id="edge6" class="edge"><title>Node6&#45;&gt;Node3</title>
<path fill="none" stroke="midnightblue" d="M374.539,-253.584C394.389,-266.184 424.159,-283.81 452,-295.329 460.84,-298.987 470.605,-302.164 479.938,-304.817"/>
<polygon fill="midnightblue" stroke="midnightblue" points="376.204,-250.493 365.901,-248.02 372.413,-256.378 376.204,-250.493"/>
</g>
<!-- Node7 -->
<g id="node7" class="node"><title>Node7</title>
<g id="a_node7"><a xlink:href="a00356.html#ga74eb08c3a1c85be8ac9db428842c8b9d" target="_top" xlink:title="tds_submit_prepare() creates a temporary stored procedure in the server. ">
<polygon fill="white" stroke="black" points="467,-266.829 467,-285.829 577,-285.829 577,-266.829 467,-266.829"/>
<text text-anchor="middle" x="522" y="-273.829" font-family="Helvetica,sans-Serif" font-size="10.00">tds_submit_prepare</text>
</a>
</g>
</g>
<!-- Node6&#45;&gt;Node7 -->
<g id="edge7" class="edge"><title>Node6&#45;&gt;Node7</title>
<path fill="none" stroke="midnightblue" d="M404.242,-250.154C428.139,-255.511 456.015,-261.761 478.536,-266.809"/>
<polygon fill="midnightblue" stroke="midnightblue" points="404.795,-246.691 394.272,-247.918 403.264,-253.521 404.795,-246.691"/>
</g>
<!-- Node8 -->
<g id="node8" class="node"><title>Node8</title>
<g id="a_node8"><a xlink:href="a00356.html#gae603aed795a4c5bb26ab159a11256996" target="_top" xlink:title="Submit a prepared query with parameters. ">
<polygon fill="white" stroke="black" points="816,-146.829 816,-165.829 937,-165.829 937,-146.829 816,-146.829"/>
<text text-anchor="middle" x="876.5" y="-153.829" font-family="Helvetica,sans-Serif" font-size="10.00">tds_submit_execdirect</text>
</a>
</g>
</g>
<!-- Node6&#45;&gt;Node8 -->
<g id="edge8" class="edge"><title>Node6&#45;&gt;Node8</title>
<path fill="none" stroke="midnightblue" d="M409.645,-226.936C423.506,-224.331 438.263,-221.649 452,-219.329 581.367,-197.487 733.658,-175.816 815.769,-164.463"/>
<polygon fill="midnightblue" stroke="midnightblue" points="408.912,-223.513 399.738,-228.813 410.215,-230.39 408.912,-223.513"/>
</g>
<!-- Node9 -->
<g id="node9" class="node"><title>Node9</title>
<g id="a_node9"><a xlink:href="a00356.html#ga08877c101704bebe4fa57e0849dc272d" target="_top" xlink:title="tds71_submit_prepexec() creates a temporary stored procedure in the server. ">
<polygon fill="white" stroke="black" points="458,-228.829 458,-247.829 586,-247.829 586,-228.829 458,-228.829"/>
<text text-anchor="middle" x="522" y="-235.829" font-family="Helvetica,sans-Serif" font-size="10.00">tds71_submit_prepexec</text>
</a>
</g>
</g>
<!-- Node6&#45;&gt;Node9 -->
<g id="edge9" class="edge"><title>Node6&#45;&gt;Node9</title>
<path fill="none" stroke="midnightblue" d="M426.097,-238.329C436.653,-238.329 447.422,-238.329 457.736,-238.329"/>
<polygon fill="midnightblue" stroke="midnightblue" points="426.064,-234.829 416.064,-238.329 426.064,-241.829 426.064,-234.829"/>
</g>
<!-- Node11 -->
<g id="node11" class="node"><title>Node11</title>
<g id="a_node11"><a xlink:href="a00359.html#ga69902dffb299d62a799888e0fa3ccd68" target="_top" xlink:title="Attempt to close all deferred closes (dynamics and cursors). ">
<polygon fill="white" stroke="red" points="462.5,-141.329 462.5,-171.329 581.5,-171.329 581.5,-141.329 462.5,-141.329"/>
<text text-anchor="start" x="470.5" y="-159.329" font-family="Helvetica,sans-Serif" font-size="10.00">tds_process_pending</text>
<text text-anchor="middle" x="522" y="-148.329" font-family="Helvetica,sans-Serif" font-size="10.00">_closes</text>
</a>
</g>
</g>
<!-- Node10&#45;&gt;Node11 -->
<g id="edge11" class="edge"><title>Node10&#45;&gt;Node11</title>
<path fill="none" stroke="midnightblue" d="M421.515,-156.329C435.09,-156.329 449.186,-156.329 462.351,-156.329"/>
<polygon fill="midnightblue" stroke="midnightblue" points="421.259,-152.829 411.259,-156.329 421.259,-159.829 421.259,-152.829"/>
</g>
<!-- Node13 -->
<g id="node13" class="node"><title>Node13</title>
<g id="a_node13"><a xlink:href="a00356.html#ga5f071b94ad7889690762dc85646c74ab" target="_top" xlink:title="tds_submit_rpc() call a RPC from server. ">
<polygon fill="white" stroke="red" points="833,-21.8294 833,-40.8294 920,-40.8294 920,-21.8294 833,-21.8294"/>
<text text-anchor="middle" x="876.5" y="-28.8294" font-family="Helvetica,sans-Serif" font-size="10.00">tds_submit_rpc</text>
</a>
</g>
</g>
<!-- Node12&#45;&gt;Node13 -->
<g id="edge13" class="edge"><title>Node12&#45;&gt;Node13</title>
<path fill="none" stroke="midnightblue" d="M779.517,-31.3294C797.785,-31.3294 816.72,-31.3294 832.897,-31.3294"/>
<polygon fill="midnightblue" stroke="midnightblue" points="779.459,-27.8295 769.459,-31.3294 779.459,-34.8295 779.459,-27.8295"/>
</g>
<!-- Node14&#45;&gt;Node15 -->
<g id="edge15" class="edge"><title>Node14&#45;&gt;Node15</title>
<path fill="none" stroke="midnightblue" d="M414.243,-72.1858C426.983,-70.5321 440.437,-68.7859 453.339,-67.1113"/>
<polygon fill="midnightblue" stroke="midnightblue" points="413.668,-68.7309 404.202,-73.489 414.569,-75.6727 413.668,-68.7309"/>
</g>
<!-- Node15&#45;&gt;Node12 -->
<g id="edge16" class="edge"><title>Node15&#45;&gt;Node12</title>
<path fill="none" stroke="midnightblue" d="M596.685,-47.2766C610.891,-45.1458 625.657,-42.9308 639.505,-40.8536"/>
<polygon fill="midnightblue" stroke="midnightblue" points="595.831,-43.8654 586.461,-48.8102 596.87,-50.788 595.831,-43.8654"/>
</g>
<!-- Node15&#45;&gt;Node16 -->
<g id="edge17" class="edge"><title>Node15&#45;&gt;Node16</title>
<path fill="none" stroke="midnightblue" d="M564.438,-70.7609C596.949,-80.5142 641.528,-93.8879 671.249,-102.804"/>
<polygon fill="midnightblue" stroke="midnightblue" points="565.35,-67.3803 554.766,-67.8592 563.339,-74.0851 565.35,-67.3803"/>
</g>
<!-- Node16&#45;&gt;Node8 -->
<g id="edge18" class="edge"><title>Node16&#45;&gt;Node8</title>
<path fill="none" stroke="midnightblue" d="M751.739,-124.391C779.084,-131.448 813.122,-140.232 838.576,-146.801"/>
<polygon fill="midnightblue" stroke="midnightblue" points="752.553,-120.987 741.996,-121.877 750.804,-127.765 752.553,-120.987"/>
</g>
<!-- Node17&#45;&gt;Node5 -->
<g id="edge22" class="edge"><title>Node17&#45;&gt;Node5</title>
<path fill="none" stroke="midnightblue" d="M790.256,-342.829C806.311,-341.04 822.366,-339.25 836.143,-337.715"/>
<polygon fill="midnightblue" stroke="midnightblue" points="789.831,-339.354 780.28,-343.94 790.606,-346.311 789.831,-339.354"/>
</g>
</g>
</svg>
