<?xml version="1.0" encoding="UTF-8" standalone="no"?>
<!DOCTYPE svg PUBLIC "-//W3C//DTD SVG 1.1//EN"
 "http://www.w3.org/Graphics/SVG/1.1/DTD/svg11.dtd">
<!-- Generated by graphviz version 2.38.0 (20140413.2041)
 -->
<!-- Title: bcp_batch Pages: 1 -->
<svg width="848pt" height="330pt"
 viewBox="0.00 0.00 848.00 330.15" xmlns="http://www.w3.org/2000/svg" xmlns:xlink="http://www.w3.org/1999/xlink">
<g id="graph0" class="graph" transform="scale(1 1) rotate(0) translate(4 326.151)">
<title>bcp_batch</title>
<polygon fill="white" stroke="none" points="-4,4 -4,-326.151 844,-326.151 844,4 -4,4"/>
<!-- Node1 -->
<g id="node1" class="node"><title>Node1</title>
<polygon fill="#bfbfbf" stroke="black" points="0,-217.651 0,-236.651 65,-236.651 65,-217.651 0,-217.651"/>
<text text-anchor="middle" x="32.5" y="-224.651" font-family="Helvetica,sans-Serif" font-size="10.00">bcp_batch</text>
</g>
<!-- Node2 -->
<g id="node2" class="node"><title>Node2</title>
<g id="a_node2"><a xlink:href="a00193.html#ab45c291105027e69836002e1dd586141" target="_top" xlink:title="Write a message to the debug log. ">
<polygon fill="white" stroke="black" points="763,-148.651 763,-167.651 840,-167.651 840,-148.651 763,-148.651"/>
<text text-anchor="middle" x="801.5" y="-155.651" font-family="Helvetica,sans-Serif" font-size="10.00">tdsdump_log</text>
</a>
</g>
</g>
<!-- Node1&#45;&gt;Node2 -->
<g id="edge1" class="edge"><title>Node1&#45;&gt;Node2</title>
<path fill="none" stroke="midnightblue" d="M47.114,-236.783C82.6286,-260.935 181.745,-322.151 274,-322.151 274,-322.151 274,-322.151 596.5,-322.151 660.337,-322.151 677.899,-302.946 727,-262.151 756.183,-237.905 779.268,-199.433 791.318,-176.702"/>
<polygon fill="midnightblue" stroke="midnightblue" points="794.465,-178.236 795.926,-167.742 788.24,-175.034 794.465,-178.236"/>
</g>
<!-- Node3 -->
<g id="node3" class="node"><title>Node3</title>
<g id="a_node3"><a xlink:href="a00294.html#ade7df2db455b61edc83819ad60edb339" target="_top" xlink:title="Tell we finished sending BCP data to server. ">
<polygon fill="white" stroke="black" points="101,-217.651 101,-236.651 184,-236.651 184,-217.651 101,-217.651"/>
<text text-anchor="middle" x="142.5" y="-224.651" font-family="Helvetica,sans-Serif" font-size="10.00">tds_bcp_done</text>
</a>
</g>
</g>
<!-- Node1&#45;&gt;Node3 -->
<g id="edge2" class="edge"><title>Node1&#45;&gt;Node3</title>
<path fill="none" stroke="midnightblue" d="M65.0284,-227.151C73.0834,-227.151 81.9504,-227.151 90.7046,-227.151"/>
<polygon fill="midnightblue" stroke="midnightblue" points="90.8742,-230.652 100.874,-227.151 90.8742,-223.652 90.8742,-230.652"/>
</g>
<!-- Node9 -->
<g id="node9" class="node"><title>Node9</title>
<g id="a_node9"><a xlink:href="a00294.html#a8208eef2a3974ae1f0cf3c8c8ab011ce" target="_top" xlink:title="Start sending BCP data to server. ">
<polygon fill="white" stroke="black" points="102.5,-91.6515 102.5,-110.651 182.5,-110.651 182.5,-91.6515 102.5,-91.6515"/>
<text text-anchor="middle" x="142.5" y="-98.6515" font-family="Helvetica,sans-Serif" font-size="10.00">tds_bcp_start</text>
</a>
</g>
</g>
<!-- Node1&#45;&gt;Node9 -->
<g id="edge13" class="edge"><title>Node1&#45;&gt;Node9</title>
<path fill="none" stroke="midnightblue" d="M41.9746,-217.264C60.192,-196.011 103.295,-145.724 126.343,-118.835"/>
<polygon fill="midnightblue" stroke="midnightblue" points="129.214,-120.863 133.065,-110.993 123.899,-116.307 129.214,-120.863"/>
</g>
<!-- Node3&#45;&gt;Node2 -->
<g id="edge3" class="edge"><title>Node3&#45;&gt;Node2</title>
<path fill="none" stroke="midnightblue" d="M158.631,-236.813C173.587,-245.833 197.44,-258.825 220,-265.151 314.923,-291.77 342.415,-284.151 441,-284.151 441,-284.151 441,-284.151 596.5,-284.151 677.856,-284.151 753.889,-210.716 785.31,-175.97"/>
<polygon fill="midnightblue" stroke="midnightblue" points="788.318,-177.851 792.313,-168.039 783.071,-173.218 788.318,-177.851"/>
</g>
<!-- Node4 -->
<g id="node4" class="node"><title>Node4</title>
<g id="a_node4"><a xlink:href="a00193.html#a16db200d2281f76fe46fc1cbe37ca9df" target="_top" xlink:title="Set state of TDS connection, with logging and checking. ">
<polygon fill="white" stroke="black" points="555.5,-110.651 555.5,-129.651 635.5,-129.651 635.5,-110.651 555.5,-110.651"/>
<text text-anchor="middle" x="595.5" y="-117.651" font-family="Helvetica,sans-Serif" font-size="10.00">tds_set_state</text>
</a>
</g>
</g>
<!-- Node3&#45;&gt;Node4 -->
<g id="edge4" class="edge"><title>Node3&#45;&gt;Node4</title>
<path fill="none" stroke="midnightblue" d="M184.234,-225.263C268.405,-220.894 458.606,-208.469 518,-183.151 542.305,-172.791 564.978,-152.191 579.231,-137.364"/>
<polygon fill="midnightblue" stroke="midnightblue" points="581.996,-139.53 586.24,-129.823 576.868,-134.765 581.996,-139.53"/>
</g>
<!-- Node6 -->
<g id="node6" class="node"><title>Node6</title>
<g id="a_node6"><a xlink:href="a00357.html#ga5feb53554e8917a81bbbc332163a61fb" target="_top" xlink:title="Flush packet to server. ">
<polygon fill="white" stroke="black" points="227,-236.651 227,-255.651 323,-255.651 323,-236.651 227,-236.651"/>
<text text-anchor="middle" x="275" y="-243.651" font-family="Helvetica,sans-Serif" font-size="10.00">tds_flush_packet</text>
</a>
</g>
</g>
<!-- Node3&#45;&gt;Node6 -->
<g id="edge8" class="edge"><title>Node3&#45;&gt;Node6</title>
<path fill="none" stroke="midnightblue" d="M184.076,-233.059C194.387,-234.56 205.662,-236.202 216.636,-237.8"/>
<polygon fill="midnightblue" stroke="midnightblue" points="216.192,-241.272 226.592,-239.249 217.201,-234.345 216.192,-241.272"/>
</g>
<!-- Node7 -->
<g id="node7" class="node"><title>Node7</title>
<g id="a_node7"><a xlink:href="a00359.html#gaeeb1562044786ea17bea361ed83e6946" target="_top" xlink:title="Process results for simple query as &quot;SET TEXTSIZE&quot; or &quot;USE dbname&quot; If the statement returns results...">
<polygon fill="white" stroke="black" points="220,-149.151 220,-179.151 330,-179.151 330,-149.151 220,-149.151"/>
<text text-anchor="start" x="228" y="-167.151" font-family="Helvetica,sans-Serif" font-size="10.00">tds_process_simple</text>
<text text-anchor="middle" x="275" y="-156.151" font-family="Helvetica,sans-Serif" font-size="10.00">_query</text>
</a>
</g>
</g>
<!-- Node3&#45;&gt;Node7 -->
<g id="edge9" class="edge"><title>Node3&#45;&gt;Node7</title>
<path fill="none" stroke="midnightblue" d="M163.32,-217.583C181.952,-208.588 210.396,-194.857 233.783,-183.567"/>
<polygon fill="midnightblue" stroke="midnightblue" points="235.31,-186.716 242.794,-179.217 232.267,-180.412 235.31,-186.716"/>
</g>
<!-- Node4&#45;&gt;Node2 -->
<g id="edge5" class="edge"><title>Node4&#45;&gt;Node2</title>
<path fill="none" stroke="midnightblue" d="M631.762,-129.657C644.675,-132.94 659.442,-136.464 673,-139.151 699.316,-144.368 728.943,-148.865 753.01,-152.173"/>
<polygon fill="midnightblue" stroke="midnightblue" points="752.58,-155.646 762.958,-153.516 753.517,-148.709 752.58,-155.646"/>
</g>
<!-- Node5 -->
<g id="node5" class="node"><title>Node5</title>
<g id="a_node5"><a xlink:href="a00193.html#abf18b98efef6ce2dc0b97d658a3a1918" target="_top" xlink:title="Call the client library&#39;s error handler (for library&#45;generated errors only) ">
<polygon fill="white" stroke="red" points="673,-110.651 673,-129.651 727,-129.651 727,-110.651 673,-110.651"/>
<text text-anchor="middle" x="700" y="-117.651" font-family="Helvetica,sans-Serif" font-size="10.00">tdserror</text>
</a>
</g>
</g>
<!-- Node4&#45;&gt;Node5 -->
<g id="edge6" class="edge"><title>Node4&#45;&gt;Node5</title>
<path fill="none" stroke="midnightblue" d="M635.543,-120.151C644.392,-120.151 653.756,-120.151 662.495,-120.151"/>
<polygon fill="midnightblue" stroke="midnightblue" points="662.768,-123.652 672.768,-120.151 662.768,-116.652 662.768,-123.652"/>
</g>
<!-- Node5&#45;&gt;Node2 -->
<g id="edge7" class="edge"><title>Node5&#45;&gt;Node2</title>
<path fill="none" stroke="midnightblue" d="M726.108,-129.74C738.128,-134.331 752.715,-139.902 765.777,-144.89"/>
<polygon fill="midnightblue" stroke="midnightblue" points="764.809,-148.267 775.4,-148.566 767.307,-141.728 764.809,-148.267"/>
</g>
<!-- Node8 -->
<g id="node8" class="node"><title>Node8</title>
<g id="a_node8"><a xlink:href="a00359.html#gabfc9de1d1fe718818caf63a4be4035a6" target="_top" xlink:title="process all streams. ">
<polygon fill="white" stroke="red" points="386,-154.651 386,-173.651 498,-173.651 498,-154.651 386,-154.651"/>
<text text-anchor="middle" x="442" y="-161.651" font-family="Helvetica,sans-Serif" font-size="10.00">tds_process_tokens</text>
</a>
</g>
</g>
<!-- Node7&#45;&gt;Node8 -->
<g id="edge10" class="edge"><title>Node7&#45;&gt;Node8</title>
<path fill="none" stroke="midnightblue" d="M330.027,-164.151C344.536,-164.151 360.385,-164.151 375.446,-164.151"/>
<polygon fill="midnightblue" stroke="midnightblue" points="375.72,-167.652 385.72,-164.151 375.72,-160.652 375.72,-167.652"/>
</g>
<!-- Node8&#45;&gt;Node2 -->
<g id="edge11" class="edge"><title>Node8&#45;&gt;Node2</title>
<path fill="none" stroke="midnightblue" d="M498.076,-163.227C567.795,-162.057 686.747,-160.061 752.778,-158.952"/>
<polygon fill="midnightblue" stroke="midnightblue" points="752.965,-162.45 762.905,-158.782 752.848,-155.451 752.965,-162.45"/>
</g>
<!-- Node8&#45;&gt;Node4 -->
<g id="edge12" class="edge"><title>Node8&#45;&gt;Node4</title>
<path fill="none" stroke="midnightblue" d="M475.873,-154.604C498.208,-148.118 527.957,-139.477 552.076,-132.473"/>
<polygon fill="midnightblue" stroke="midnightblue" points="553.064,-135.83 561.691,-129.68 551.112,-129.108 553.064,-135.83"/>
</g>
<!-- Node9&#45;&gt;Node2 -->
<g id="edge14" class="edge"><title>Node9&#45;&gt;Node2</title>
<path fill="none" stroke="midnightblue" d="M149.697,-91.5838C161.22,-74.727 187.726,-40.107 220,-25.1515 309.447,16.2983 342.415,-6.15149 441,-6.15149 441,-6.15149 441,-6.15149 596.5,-6.15149 685.416,-6.15149 760.644,-100.152 788.724,-140.309"/>
<polygon fill="midnightblue" stroke="midnightblue" points="785.884,-142.357 794.412,-148.643 791.666,-138.41 785.884,-142.357"/>
</g>
<!-- Node9&#45;&gt;Node4 -->
<g id="edge20" class="edge"><title>Node9&#45;&gt;Node4</title>
<path fill="none" stroke="midnightblue" d="M182.799,-103.931C194.741,-104.719 207.904,-105.53 220,-106.151 336.586,-112.139 473.713,-116.611 545.317,-118.75"/>
<polygon fill="midnightblue" stroke="midnightblue" points="545.297,-122.251 555.396,-119.049 545.504,-115.254 545.297,-122.251"/>
</g>
<!-- Node9&#45;&gt;Node7 -->
<g id="edge19" class="edge"><title>Node9&#45;&gt;Node7</title>
<path fill="none" stroke="midnightblue" d="M163.32,-110.72C181.952,-119.715 210.396,-133.446 233.783,-144.736"/>
<polygon fill="midnightblue" stroke="midnightblue" points="232.267,-147.891 242.794,-149.086 235.31,-141.587 232.267,-147.891"/>
</g>
<!-- Node10 -->
<g id="node10" class="node"><title>Node10</title>
<g id="a_node10"><a xlink:href="a00356.html#ga5a29ae7f99d089dc3cea85ec6ee5f3ab" target="_top" xlink:title="tds_submit_query() sends a language string to the database server for processing. ...">
<polygon fill="white" stroke="black" points="226,-34.6515 226,-53.6515 324,-53.6515 324,-34.6515 226,-34.6515"/>
<text text-anchor="middle" x="275" y="-41.6515" font-family="Helvetica,sans-Serif" font-size="10.00">tds_submit_query</text>
</a>
</g>
</g>
<!-- Node9&#45;&gt;Node10 -->
<g id="edge15" class="edge"><title>Node9&#45;&gt;Node10</title>
<path fill="none" stroke="midnightblue" d="M165.343,-91.611C186.515,-82.3632 218.847,-68.2413 242.741,-57.8047"/>
<polygon fill="midnightblue" stroke="midnightblue" points="244.323,-60.9333 252.086,-53.7231 241.521,-54.5185 244.323,-60.9333"/>
</g>
<!-- Node13 -->
<g id="node13" class="node"><title>Node13</title>
<g id="a_node13"><a xlink:href="a00294.html#a4daaa551e54dbd978650e2eef89e09ff" target="_top" xlink:title="Send BCP metadata to server. ">
<polygon fill="white" stroke="black" points="366,-72.6515 366,-91.6515 518,-91.6515 518,-72.6515 366,-72.6515"/>
<text text-anchor="middle" x="442" y="-79.6515" font-family="Helvetica,sans-Serif" font-size="10.00">tds7_bcp_send_colmetadata</text>
</a>
</g>
</g>
<!-- Node9&#45;&gt;Node13 -->
<g id="edge21" class="edge"><title>Node9&#45;&gt;Node13</title>
<path fill="none" stroke="midnightblue" d="M182.699,-98.648C226.534,-95.8485 298.85,-91.23 355.832,-87.5908"/>
<polygon fill="midnightblue" stroke="midnightblue" points="356.164,-91.0768 365.92,-86.9465 355.718,-84.0911 356.164,-91.0768"/>
</g>
<!-- Node11 -->
<g id="node11" class="node"><title>Node11</title>
<g id="a_node11"><a xlink:href="a00356.html#ga95e0fccedc459a4404f496eec74a369a" target="_top" xlink:title="tds_submit_query_params() sends a language string to the database server for processing. ">
<polygon fill="white" stroke="red" points="372,-34.6515 372,-53.6515 512,-53.6515 512,-34.6515 372,-34.6515"/>
<text text-anchor="middle" x="442" y="-41.6515" font-family="Helvetica,sans-Serif" font-size="10.00">tds_submit_query_params</text>
</a>
</g>
</g>
<!-- Node10&#45;&gt;Node11 -->
<g id="edge16" class="edge"><title>Node10&#45;&gt;Node11</title>
<path fill="none" stroke="midnightblue" d="M324.168,-44.1515C335.952,-44.1515 348.873,-44.1515 361.692,-44.1515"/>
<polygon fill="midnightblue" stroke="midnightblue" points="361.926,-47.6516 371.926,-44.1515 361.926,-40.6516 361.926,-47.6516"/>
</g>
<!-- Node11&#45;&gt;Node4 -->
<g id="edge17" class="edge"><title>Node11&#45;&gt;Node4</title>
<path fill="none" stroke="midnightblue" d="M492.387,-53.7179C501.133,-56.2332 509.995,-59.3415 518,-63.1515 540.003,-73.6239 561.982,-90.8856 576.698,-103.674"/>
<polygon fill="midnightblue" stroke="midnightblue" points="574.675,-106.559 584.468,-110.602 579.333,-101.334 574.675,-106.559"/>
</g>
<!-- Node12 -->
<g id="node12" class="node"><title>Node12</title>
<g id="a_node12"><a xlink:href="a00357.html#ga1fcaf8d488cc1390f106ce3ad0bf37b4" target="_top" xlink:title="Output a string to wire automatic translate string to unicode if needed. ">
<polygon fill="white" stroke="red" points="554,-34.6515 554,-53.6515 637,-53.6515 637,-34.6515 554,-34.6515"/>
<text text-anchor="middle" x="595.5" y="-41.6515" font-family="Helvetica,sans-Serif" font-size="10.00">tds_put_string</text>
</a>
</g>
</g>
<!-- Node11&#45;&gt;Node12 -->
<g id="edge18" class="edge"><title>Node11&#45;&gt;Node12</title>
<path fill="none" stroke="midnightblue" d="M512.1,-44.1515C522.641,-44.1515 533.356,-44.1515 543.419,-44.1515"/>
<polygon fill="midnightblue" stroke="midnightblue" points="543.635,-47.6516 553.634,-44.1515 543.634,-40.6516 543.635,-47.6516"/>
</g>
<!-- Node13&#45;&gt;Node2 -->
<g id="edge22" class="edge"><title>Node13&#45;&gt;Node2</title>
<path fill="none" stroke="midnightblue" d="M518.192,-75.4502C576.955,-72.9526 659.675,-75.5629 727,-101.151 749.46,-109.688 770.642,-127.558 784.444,-141.027"/>
<polygon fill="midnightblue" stroke="midnightblue" points="782.154,-143.69 791.671,-148.345 787.134,-138.771 782.154,-143.69"/>
</g>
<!-- Node13&#45;&gt;Node4 -->
<g id="edge23" class="edge"><title>Node13&#45;&gt;Node4</title>
<path fill="none" stroke="midnightblue" d="M481.23,-91.7405C501.132,-96.7324 525.657,-102.884 546.791,-108.185"/>
<polygon fill="midnightblue" stroke="midnightblue" points="545.994,-111.593 556.545,-110.631 547.697,-104.804 545.994,-111.593"/>
</g>
<!-- Node13&#45;&gt;Node12 -->
<g id="edge24" class="edge"><title>Node13&#45;&gt;Node12</title>
<path fill="none" stroke="midnightblue" d="M481.23,-72.5625C501.132,-67.5706 525.657,-61.4191 546.791,-56.1181"/>
<polygon fill="midnightblue" stroke="midnightblue" points="547.697,-59.4993 556.545,-53.6715 545.994,-52.7097 547.697,-59.4993"/>
</g>
</g>
</svg>
