<?xml version="1.0" encoding="UTF-8" standalone="no"?>
<!DOCTYPE svg PUBLIC "-//W3C//DTD SVG 1.1//EN"
 "http://www.w3.org/Graphics/SVG/1.1/DTD/svg11.dtd">
<!-- Generated by graphviz version 2.38.0 (20140413.2041)
 -->
<!-- Title: tds_submit_execute Pages: 1 -->
<svg width="1394pt" height="496pt"
 viewBox="0.00 0.00 1394.00 495.69" xmlns="http://www.w3.org/2000/svg" xmlns:xlink="http://www.w3.org/1999/xlink">
<g id="graph0" class="graph" transform="scale(1 1) rotate(0) translate(4 491.693)">
<title>tds_submit_execute</title>
<polygon fill="white" stroke="none" points="-4,4 -4,-491.693 1390,-491.693 1390,4 -4,4"/>
<!-- Node1 -->
<g id="node1" class="node"><title>Node1</title>
<polygon fill="#bfbfbf" stroke="black" points="0,-340.515 0,-359.515 109,-359.515 109,-340.515 0,-340.515"/>
<text text-anchor="middle" x="54.5" y="-347.515" font-family="Helvetica,sans-Serif" font-size="10.00">tds_submit_execute</text>
</g>
<!-- Node2 -->
<g id="node2" class="node"><title>Node2</title>
<g id="a_node2"><a xlink:href="a00193.html#ab45c291105027e69836002e1dd586141" target="_top" xlink:title="Write a message to the debug log. ">
<polygon fill="white" stroke="black" points="1299.5,-283.515 1299.5,-302.515 1376.5,-302.515 1376.5,-283.515 1299.5,-283.515"/>
<text text-anchor="middle" x="1338" y="-290.515" font-family="Helvetica,sans-Serif" font-size="10.00">tdsdump_log</text>
</a>
</g>
</g>
<!-- Node1&#45;&gt;Node2 -->
<g id="edge1" class="edge"><title>Node1&#45;&gt;Node2</title>
<path fill="none" stroke="midnightblue" d="M60.7013,-359.573C72.5524,-380.303 103.757,-429.273 145,-451.015 246.237,-504.384 286.057,-483.015 400.5,-483.015 400.5,-483.015 400.5,-483.015 884,-483.015 1053.78,-483.015 1109.44,-477.048 1254,-388.015 1285.68,-368.506 1311.86,-333.061 1325.89,-311.417"/>
<polygon fill="midnightblue" stroke="midnightblue" points="1328.94,-313.14 1331.3,-302.812 1323.02,-309.415 1328.94,-313.14"/>
</g>
<!-- Node3 -->
<g id="node3" class="node"><title>Node3</title>
<g id="a_node3"><a xlink:href="a00193.html#a16db200d2281f76fe46fc1cbe37ca9df" target="_top" xlink:title="Set state of TDS connection, with logging and checking. ">
<polygon fill="white" stroke="black" points="690,-359.515 690,-378.515 770,-378.515 770,-359.515 690,-359.515"/>
<text text-anchor="middle" x="730" y="-366.515" font-family="Helvetica,sans-Serif" font-size="10.00">tds_set_state</text>
</a>
</g>
</g>
<!-- Node1&#45;&gt;Node3 -->
<g id="edge2" class="edge"><title>Node1&#45;&gt;Node3</title>
<path fill="none" stroke="midnightblue" d="M88.8192,-359.519C105.551,-363.955 126.211,-368.926 145,-372.015 363.075,-407.872 422.273,-411.729 642,-388.015 655.719,-386.535 670.446,-383.777 683.812,-380.813"/>
<polygon fill="midnightblue" stroke="midnightblue" points="684.771,-384.184 693.727,-378.524 683.196,-377.363 684.771,-384.184"/>
</g>
<!-- Node7 -->
<g id="node7" class="node"><title>Node7</title>
<g id="a_node7"><a xlink:href="a00356.html#gae8b7db85af16701fc0604eb117cbd4e4" target="_top" xlink:title="Set current dynamic. ">
<polygon fill="white" stroke="black" points="173.5,-207.515 173.5,-226.515 268.5,-226.515 268.5,-207.515 173.5,-207.515"/>
<text text-anchor="middle" x="221" y="-214.515" font-family="Helvetica,sans-Serif" font-size="10.00">tds_set_cur_dyn</text>
</a>
</g>
</g>
<!-- Node1&#45;&gt;Node7 -->
<g id="edge9" class="edge"><title>Node1&#45;&gt;Node7</title>
<path fill="none" stroke="midnightblue" d="M60.8399,-340.281C72.9674,-319.069 104.689,-268.388 145,-241.015 151.442,-236.641 158.729,-233.026 166.167,-230.047"/>
<polygon fill="midnightblue" stroke="midnightblue" points="167.418,-233.317 175.617,-226.607 165.023,-226.739 167.418,-233.317"/>
</g>
<!-- Node8 -->
<g id="node8" class="node"><title>Node8</title>
<g id="a_node8"><a xlink:href="a00356.html#gab543692776c2bc0afc3bd056f074080c" target="_top" xlink:title="Start query packet of a given type. ">
<polygon fill="white" stroke="black" points="356.5,-359.515 356.5,-378.515 446.5,-378.515 446.5,-359.515 356.5,-359.515"/>
<text text-anchor="middle" x="401.5" y="-366.515" font-family="Helvetica,sans-Serif" font-size="10.00">tds_start_query</text>
</a>
</g>
</g>
<!-- Node1&#45;&gt;Node8 -->
<g id="edge10" class="edge"><title>Node1&#45;&gt;Node8</title>
<path fill="none" stroke="midnightblue" d="M109.028,-352.963C173.614,-356.52 281.583,-362.466 346.417,-366.037"/>
<polygon fill="midnightblue" stroke="midnightblue" points="346.261,-369.533 356.438,-366.589 346.646,-362.544 346.261,-369.533"/>
</g>
<!-- Node11 -->
<g id="node11" class="node"><title>Node11</title>
<g id="a_node11"><a xlink:href="a00356.html#gab71e2dc686eafe926dbebbce00d27dc4" target="_top" xlink:title="Send dynamic request on TDS 7+ to be executed. ">
<polygon fill="white" stroke="black" points="347,-55.5153 347,-74.5153 456,-74.5153 456,-55.5153 347,-55.5153"/>
<text text-anchor="middle" x="401.5" y="-62.5153" font-family="Helvetica,sans-Serif" font-size="10.00">tds7_send_execute</text>
</a>
</g>
</g>
<!-- Node1&#45;&gt;Node11 -->
<g id="edge14" class="edge"><title>Node1&#45;&gt;Node11</title>
<path fill="none" stroke="midnightblue" d="M76.1844,-340.354C94.1391,-332.182 120.957,-320.482 145,-312.015 211.22,-288.695 249.337,-320.564 297,-269.015 352.387,-209.113 279.617,-150.71 333,-89.0153 336.237,-85.2737 340.099,-82.1154 344.312,-79.4495"/>
<polygon fill="midnightblue" stroke="midnightblue" points="346.177,-82.4219 353.366,-74.6397 342.893,-76.24 346.177,-82.4219"/>
</g>
<!-- Node14 -->
<g id="node14" class="node"><title>Node14</title>
<g id="a_node14"><a xlink:href="a00356.html#gada27f4cfce925240ad33b71b63ca692d" target="_top" xlink:title="Flush query packet. ">
<polygon fill="white" stroke="black" points="510,-435.515 510,-454.515 638,-454.515 638,-435.515 510,-435.515"/>
<text text-anchor="middle" x="574" y="-442.515" font-family="Helvetica,sans-Serif" font-size="10.00">tds_query_flush_packet</text>
</a>
</g>
</g>
<!-- Node1&#45;&gt;Node14 -->
<g id="edge19" class="edge"><title>Node1&#45;&gt;Node14</title>
<path fill="none" stroke="midnightblue" d="M63.7123,-359.578C78.2163,-375.685 110.147,-407.764 145,-421.015 262.937,-465.856 412.378,-461.83 499.871,-453.996"/>
<polygon fill="midnightblue" stroke="midnightblue" points="500.336,-457.468 509.966,-453.051 499.684,-450.499 500.336,-457.468"/>
</g>
<!-- Node15 -->
<g id="node15" class="node"><title>Node15</title>
<g id="a_node15"><a xlink:href="a00356.html#ga02c6ce3ff96369603a6ee4efee64caae" target="_top" xlink:title="Emulate prepared execute traslating to a normal language. ">
<polygon fill="white" stroke="black" points="145,-321.515 145,-340.515 297,-340.515 297,-321.515 145,-321.515"/>
<text text-anchor="middle" x="221" y="-328.515" font-family="Helvetica,sans-Serif" font-size="10.00">tds_send_emulated_execute</text>
</a>
</g>
</g>
<!-- Node1&#45;&gt;Node15 -->
<g id="edge22" class="edge"><title>Node1&#45;&gt;Node15</title>
<path fill="none" stroke="midnightblue" d="M109.363,-343.794C117.513,-342.853 126.085,-341.863 134.703,-340.867"/>
<polygon fill="midnightblue" stroke="midnightblue" points="135.285,-344.323 144.817,-339.699 134.481,-337.37 135.285,-344.323"/>
</g>
<!-- Node26 -->
<g id="node26" class="node"><title>Node26</title>
<g id="a_node26"><a xlink:href="a00356.html#ga28264995cf9616661f1fa788ac0d246d" target="_top" xlink:title="Send parameters to server. ">
<polygon fill="white" stroke="black" points="355.5,-17.5153 355.5,-36.5153 447.5,-36.5153 447.5,-17.5153 355.5,-17.5153"/>
<text text-anchor="middle" x="401.5" y="-24.5153" font-family="Helvetica,sans-Serif" font-size="10.00">tds_put_params</text>
</a>
</g>
</g>
<!-- Node1&#45;&gt;Node26 -->
<g id="edge40" class="edge"><title>Node1&#45;&gt;Node26</title>
<path fill="none" stroke="midnightblue" d="M63.2172,-340.269C77.4385,-323.017 109.584,-287.214 145,-269.015 206.486,-237.419 248.771,-285.541 297,-236.015 356.962,-174.441 274.931,-109.378 333,-46.0153 336.609,-42.0774 340.963,-38.9312 345.702,-36.4211"/>
<polygon fill="midnightblue" stroke="midnightblue" points="347.391,-39.5047 355.193,-32.3368 344.624,-33.0748 347.391,-39.5047"/>
</g>
<!-- Node3&#45;&gt;Node2 -->
<g id="edge3" class="edge"><title>Node3&#45;&gt;Node2</title>
<path fill="none" stroke="midnightblue" d="M770.123,-365.041C857.222,-356.049 1073.66,-332.897 1254,-307.015 1265.52,-305.361 1277.91,-303.381 1289.51,-301.438"/>
<polygon fill="midnightblue" stroke="midnightblue" points="1290.19,-304.873 1299.46,-299.749 1289.02,-297.972 1290.19,-304.873"/>
</g>
<!-- Node4 -->
<g id="node4" class="node"><title>Node4</title>
<g id="a_node4"><a xlink:href="a00193.html#abf18b98efef6ce2dc0b97d658a3a1918" target="_top" xlink:title="Call the client library&#39;s error handler (for library&#45;generated errors only) ">
<polygon fill="white" stroke="black" points="1025.5,-283.515 1025.5,-302.515 1079.5,-302.515 1079.5,-283.515 1025.5,-283.515"/>
<text text-anchor="middle" x="1052.5" y="-290.515" font-family="Helvetica,sans-Serif" font-size="10.00">tdserror</text>
</a>
</g>
</g>
<!-- Node3&#45;&gt;Node4 -->
<g id="edge4" class="edge"><title>Node3&#45;&gt;Node4</title>
<path fill="none" stroke="midnightblue" d="M743.116,-359.397C759.193,-347.219 788.942,-326.663 818,-317.015 884.918,-294.797 968.043,-291.649 1014.9,-291.942"/>
<polygon fill="midnightblue" stroke="midnightblue" points="1015.12,-295.445 1025.16,-292.066 1015.21,-288.446 1015.12,-295.445"/>
</g>
<!-- Node4&#45;&gt;Node2 -->
<g id="edge5" class="edge"><title>Node4&#45;&gt;Node2</title>
<path fill="none" stroke="midnightblue" d="M1079.66,-293.015C1127.35,-293.015 1229.03,-293.015 1289.32,-293.015"/>
<polygon fill="midnightblue" stroke="midnightblue" points="1289.35,-296.515 1299.35,-293.015 1289.35,-289.515 1289.35,-296.515"/>
</g>
<!-- Node5 -->
<g id="node5" class="node"><title>Node5</title>
<g id="a_node5"><a xlink:href="a00356.html#ga11338742dc30fd0c2711f58eb830316f" target="_top" xlink:title="tds_send_cancel() sends an empty packet (8 byte header only) tds_process_cancel should be called dire...">
<polygon fill="white" stroke="black" points="1157,-359.515 1157,-378.515 1254,-378.515 1254,-359.515 1157,-359.515"/>
<text text-anchor="middle" x="1205.5" y="-366.515" font-family="Helvetica,sans-Serif" font-size="10.00">tds_send_cancel</text>
</a>
</g>
</g>
<!-- Node4&#45;&gt;Node5 -->
<g id="edge6" class="edge"><title>Node4&#45;&gt;Node5</title>
<path fill="none" stroke="midnightblue" d="M1072.62,-302.641C1098.83,-315.832 1146.1,-339.622 1176.35,-354.849"/>
<polygon fill="midnightblue" stroke="midnightblue" points="1175.03,-358.098 1185.53,-359.468 1178.17,-351.846 1175.03,-358.098"/>
</g>
<!-- Node5&#45;&gt;Node2 -->
<g id="edge7" class="edge"><title>Node5&#45;&gt;Node2</title>
<path fill="none" stroke="midnightblue" d="M1226.59,-359.375C1235.13,-355.144 1245.15,-350.01 1254,-345.015 1274.74,-333.31 1297.63,-318.848 1314.11,-308.149"/>
<polygon fill="midnightblue" stroke="midnightblue" points="1316.1,-311.033 1322.55,-302.634 1312.27,-305.173 1316.1,-311.033"/>
</g>
<!-- Node6 -->
<g id="node6" class="node"><title>Node6</title>
<g id="a_node6"><a xlink:href="a00357.html#ga5feb53554e8917a81bbbc332163a61fb" target="_top" xlink:title="Flush packet to server. ">
<polygon fill="white" stroke="black" points="1290,-397.515 1290,-416.515 1386,-416.515 1386,-397.515 1290,-397.515"/>
<text text-anchor="middle" x="1338" y="-404.515" font-family="Helvetica,sans-Serif" font-size="10.00">tds_flush_packet</text>
</a>
</g>
</g>
<!-- Node5&#45;&gt;Node6 -->
<g id="edge8" class="edge"><title>Node5&#45;&gt;Node6</title>
<path fill="none" stroke="midnightblue" d="M1239.43,-378.604C1256.12,-383.465 1276.59,-389.424 1294.46,-394.628"/>
<polygon fill="midnightblue" stroke="midnightblue" points="1293.5,-397.994 1304.08,-397.429 1295.46,-391.273 1293.5,-397.994"/>
</g>
<!-- Node9 -->
<g id="node9" class="node"><title>Node9</title>
<g id="a_node9"><a xlink:href="a00356.html#ga9ad2e6defce530a8778791cce0166ccd" target="_top" xlink:title="Start query packet of a given type. ">
<polygon fill="white" stroke="black" points="514,-359.515 514,-378.515 634,-378.515 634,-359.515 514,-359.515"/>
<text text-anchor="middle" x="574" y="-366.515" font-family="Helvetica,sans-Serif" font-size="10.00">tds_start_query_head</text>
</a>
</g>
</g>
<!-- Node8&#45;&gt;Node9 -->
<g id="edge11" class="edge"><title>Node8&#45;&gt;Node9</title>
<path fill="none" stroke="midnightblue" d="M446.852,-369.015C464.165,-369.015 484.427,-369.015 503.583,-369.015"/>
<polygon fill="midnightblue" stroke="midnightblue" points="503.781,-372.515 513.781,-369.015 503.781,-365.515 503.781,-372.515"/>
</g>
<!-- Node9&#45;&gt;Node3 -->
<g id="edge13" class="edge"><title>Node9&#45;&gt;Node3</title>
<path fill="none" stroke="midnightblue" d="M634.1,-369.015C649.116,-369.015 665.094,-369.015 679.573,-369.015"/>
<polygon fill="midnightblue" stroke="midnightblue" points="679.816,-372.515 689.816,-369.015 679.816,-365.515 679.816,-372.515"/>
</g>
<!-- Node10 -->
<g id="node10" class="node"><title>Node10</title>
<g id="a_node10"><a xlink:href="a00356.html#ga024bc5482366735070befd6f4af59f71" target="_top" xlink:title="Convert a string in an allocated buffer. ">
<polygon fill="white" stroke="red" points="678,-283.515 678,-302.515 782,-302.515 782,-283.515 678,-283.515"/>
<text text-anchor="middle" x="730" y="-290.515" font-family="Helvetica,sans-Serif" font-size="10.00">tds_convert_string</text>
</a>
</g>
</g>
<!-- Node9&#45;&gt;Node10 -->
<g id="edge12" class="edge"><title>Node9&#45;&gt;Node10</title>
<path fill="none" stroke="midnightblue" d="M616.1,-359.493C624.828,-356.885 633.861,-353.73 642,-350.015 666.48,-338.842 691.941,-321.362 708.945,-308.704"/>
<polygon fill="midnightblue" stroke="midnightblue" points="711.163,-311.414 717.016,-302.583 706.933,-305.837 711.163,-311.414"/>
</g>
<!-- Node12 -->
<g id="node12" class="node"><title>Node12</title>
<g id="a_node12"><a xlink:href="a00356.html#gafd74652c4722ddce4d642cc4209449d4" target="_top" xlink:title="Put data information to wire. ">
<polygon fill="white" stroke="black" points="523.5,-17.5153 523.5,-36.5153 624.5,-36.5153 624.5,-17.5153 523.5,-17.5153"/>
<text text-anchor="middle" x="574" y="-24.5153" font-family="Helvetica,sans-Serif" font-size="10.00">tds_put_data_info</text>
</a>
</g>
</g>
<!-- Node11&#45;&gt;Node12 -->
<g id="edge15" class="edge"><title>Node11&#45;&gt;Node12</title>
<path fill="none" stroke="midnightblue" d="M445.524,-55.4262C468.226,-50.3666 496.273,-44.1157 520.274,-38.7665"/>
<polygon fill="midnightblue" stroke="midnightblue" points="521.286,-42.1269 530.285,-36.5353 519.763,-35.2946 521.286,-42.1269"/>
</g>
<!-- Node13 -->
<g id="node13" class="node"><title>Node13</title>
<g id="a_node13"><a xlink:href="a00356.html#ga9fcc0a3932dcad530511395ef8a767fb" target="_top" xlink:title="Write data to wire. ">
<polygon fill="white" stroke="black" points="535,-55.5153 535,-74.5153 613,-74.5153 613,-55.5153 535,-55.5153"/>
<text text-anchor="middle" x="574" y="-62.5153" font-family="Helvetica,sans-Serif" font-size="10.00">tds_put_data</text>
</a>
</g>
</g>
<!-- Node11&#45;&gt;Node13 -->
<g id="edge18" class="edge"><title>Node11&#45;&gt;Node13</title>
<path fill="none" stroke="midnightblue" d="M456.447,-65.0153C478.33,-65.0153 503.408,-65.0153 524.682,-65.0153"/>
<polygon fill="midnightblue" stroke="midnightblue" points="524.79,-68.5154 534.79,-65.0153 524.79,-61.5154 524.79,-68.5154"/>
</g>
<!-- Node12&#45;&gt;Node2 -->
<g id="edge16" class="edge"><title>Node12&#45;&gt;Node2</title>
<path fill="none" stroke="midnightblue" d="M615.987,-36.5558C687.095,-52.7823 830.637,-84.0153 882,-84.0153 882,-84.0153 882,-84.0153 1053.5,-84.0153 1181.87,-84.0153 1290.35,-224.565 1325.23,-275.148"/>
<polygon fill="midnightblue" stroke="midnightblue" points="1322.38,-277.171 1330.88,-283.492 1328.17,-273.248 1322.38,-277.171"/>
</g>
<!-- Node12&#45;&gt;Node10 -->
<g id="edge17" class="edge"><title>Node12&#45;&gt;Node10</title>
<path fill="none" stroke="midnightblue" d="M624.654,-34.3316C631.159,-37.1102 637.215,-40.8889 642,-46.0153 694.996,-102.791 647.808,-145.458 678,-217.015 687.105,-238.596 702.634,-260.522 714.17,-275.241"/>
<polygon fill="midnightblue" stroke="midnightblue" points="711.746,-277.811 720.744,-283.406 717.199,-273.422 711.746,-277.811"/>
</g>
<!-- Node14&#45;&gt;Node3 -->
<g id="edge20" class="edge"><title>Node14&#45;&gt;Node3</title>
<path fill="none" stroke="midnightblue" d="M605.523,-435.485C617.145,-431.494 630.381,-426.504 642,-421.015 664.687,-410.297 689.093,-395.386 706.264,-384.278"/>
<polygon fill="midnightblue" stroke="midnightblue" points="708.558,-386.959 715.002,-378.549 704.72,-381.105 708.558,-386.959"/>
</g>
<!-- Node14&#45;&gt;Node6 -->
<g id="edge21" class="edge"><title>Node14&#45;&gt;Node6</title>
<path fill="none" stroke="midnightblue" d="M638.206,-445.015C700.275,-445.015 797.655,-445.015 882,-445.015 882,-445.015 882,-445.015 1053.5,-445.015 1134.08,-445.015 1226.4,-429.75 1283.21,-418.57"/>
<polygon fill="midnightblue" stroke="midnightblue" points="1283.93,-421.995 1293.05,-416.604 1282.56,-415.131 1283.93,-421.995"/>
</g>
<!-- Node15&#45;&gt;Node8 -->
<g id="edge25" class="edge"><title>Node15&#45;&gt;Node8</title>
<path fill="none" stroke="midnightblue" d="M267.043,-340.604C291.205,-345.748 321.15,-352.123 346.548,-357.53"/>
<polygon fill="midnightblue" stroke="midnightblue" points="345.888,-360.968 356.398,-359.627 347.346,-354.121 345.888,-360.968"/>
</g>
<!-- Node16 -->
<g id="node16" class="node"><title>Node16</title>
<g id="a_node16"><a xlink:href="a00356.html#gaaa7b4d37bf796019e72f25c6e7fe7bea" target="_top" xlink:title="Count the number of placeholders in query. ">
<polygon fill="white" stroke="black" points="337,-283.515 337,-302.515 466,-302.515 466,-283.515 337,-283.515"/>
<text text-anchor="middle" x="401.5" y="-290.515" font-family="Helvetica,sans-Serif" font-size="10.00">tds_count_placeholders</text>
</a>
</g>
</g>
<!-- Node15&#45;&gt;Node16 -->
<g id="edge23" class="edge"><title>Node15&#45;&gt;Node16</title>
<path fill="none" stroke="midnightblue" d="M267.043,-321.426C291.023,-316.321 320.698,-310.004 345.972,-304.623"/>
<polygon fill="midnightblue" stroke="midnightblue" points="346.729,-308.041 355.781,-302.535 345.271,-301.194 346.729,-308.041"/>
</g>
<!-- Node17 -->
<g id="node17" class="node"><title>Node17</title>
<g id="a_node17"><a xlink:href="a00356.html#ga6455b2991afbf7da90270787f2059d31" target="_top" xlink:title="Get position of next placeholder. ">
<polygon fill="white" stroke="red" points="514.5,-321.515 514.5,-340.515 633.5,-340.515 633.5,-321.515 514.5,-321.515"/>
<text text-anchor="middle" x="574" y="-328.515" font-family="Helvetica,sans-Serif" font-size="10.00">tds_next_placeholder</text>
</a>
</g>
</g>
<!-- Node15&#45;&gt;Node17 -->
<g id="edge32" class="edge"><title>Node15&#45;&gt;Node17</title>
<path fill="none" stroke="midnightblue" d="M297.298,-331.015C358.709,-331.015 444.736,-331.015 504.291,-331.015"/>
<polygon fill="midnightblue" stroke="midnightblue" points="504.352,-334.515 514.352,-331.015 504.352,-327.515 504.352,-334.515"/>
</g>
<!-- Node18 -->
<g id="node18" class="node"><title>Node18</title>
<g id="a_node18"><a xlink:href="a00357.html#ga1fcaf8d488cc1390f106ce3ad0bf37b4" target="_top" xlink:title="Output a string to wire automatic translate string to unicode if needed. ">
<polygon fill="white" stroke="black" points="688.5,-188.515 688.5,-207.515 771.5,-207.515 771.5,-188.515 688.5,-188.515"/>
<text text-anchor="middle" x="730" y="-195.515" font-family="Helvetica,sans-Serif" font-size="10.00">tds_put_string</text>
</a>
</g>
</g>
<!-- Node15&#45;&gt;Node18 -->
<g id="edge26" class="edge"><title>Node15&#45;&gt;Node18</title>
<path fill="none" stroke="midnightblue" d="M267.467,-321.409C278.145,-317.435 288.79,-311.85 297,-304.015 327.274,-275.126 303.44,-246.635 333,-217.015 391.829,-158.066 424.332,-161.331 506,-145.015 565.273,-133.173 583.803,-128.685 642,-145.015 667.666,-152.218 693.268,-169.312 709.984,-182.153"/>
<polygon fill="midnightblue" stroke="midnightblue" points="707.859,-184.934 717.869,-188.405 712.208,-179.449 707.859,-184.934"/>
</g>
<!-- Node22 -->
<g id="node22" class="node"><title>Node22</title>
<g id="a_node22"><a xlink:href="a00356.html#ga0e2e7230c425e925402d7856ff5b4b18" target="_top" xlink:title="Send a parameter to server. ">
<polygon fill="white" stroke="black" points="333,-226.515 333,-245.515 470,-245.515 470,-226.515 333,-226.515"/>
<text text-anchor="middle" x="401.5" y="-233.515" font-family="Helvetica,sans-Serif" font-size="10.00">tds_put_param_as_string</text>
</a>
</g>
</g>
<!-- Node15&#45;&gt;Node22 -->
<g id="edge33" class="edge"><title>Node15&#45;&gt;Node22</title>
<path fill="none" stroke="midnightblue" d="M262.673,-321.497C274.205,-317.884 286.476,-313.122 297,-307.015 315.773,-296.121 315.428,-286.756 333,-274.015 345.146,-265.208 359.525,-256.861 371.884,-250.245"/>
<polygon fill="midnightblue" stroke="midnightblue" points="373.632,-253.28 380.871,-245.544 370.388,-247.078 373.632,-253.28"/>
</g>
<!-- Node16&#45;&gt;Node17 -->
<g id="edge24" class="edge"><title>Node16&#45;&gt;Node17</title>
<path fill="none" stroke="midnightblue" d="M445.524,-302.604C468.226,-307.664 496.273,-313.915 520.274,-319.264"/>
<polygon fill="midnightblue" stroke="midnightblue" points="519.763,-322.736 530.285,-321.495 521.286,-315.904 519.763,-322.736"/>
</g>
<!-- Node19 -->
<g id="node19" class="node"><title>Node19</title>
<g id="a_node19"><a xlink:href="a00263.html#aa9e1e45f0305622dd6aed9f8fe158581" target="_top" xlink:title="Initialize an input stream for read from a static allocated buffer. ">
<polygon fill="white" stroke="red" points="819,-245.515 819,-264.515 947,-264.515 947,-245.515 819,-245.515"/>
<text text-anchor="middle" x="883" y="-252.515" font-family="Helvetica,sans-Serif" font-size="10.00">tds_staticin_stream_init</text>
</a>
</g>
</g>
<!-- Node18&#45;&gt;Node19 -->
<g id="edge27" class="edge"><title>Node18&#45;&gt;Node19</title>
<path fill="none" stroke="midnightblue" d="M751.103,-207.64C768.555,-215.79 794.623,-227.477 818,-236.015 824.073,-238.233 830.538,-240.387 836.936,-242.399"/>
<polygon fill="midnightblue" stroke="midnightblue" points="836.282,-245.859 846.868,-245.433 838.327,-239.164 836.282,-245.859"/>
</g>
<!-- Node20 -->
<g id="node20" class="node"><title>Node20</title>
<g id="a_node20"><a xlink:href="a00263.html#aa038a9125979f8f0915dbd53cbf27e5a" target="_top" xlink:title="Initialize a data output stream. ">
<polygon fill="white" stroke="red" points="818,-207.515 818,-226.515 948,-226.515 948,-207.515 818,-207.515"/>
<text text-anchor="middle" x="883" y="-214.515" font-family="Helvetica,sans-Serif" font-size="10.00">tds_dataout_stream_init</text>
</a>
</g>
</g>
<!-- Node18&#45;&gt;Node20 -->
<g id="edge28" class="edge"><title>Node18&#45;&gt;Node20</title>
<path fill="none" stroke="midnightblue" d="M771.863,-203.157C782.917,-204.548 795.236,-206.098 807.519,-207.643"/>
<polygon fill="midnightblue" stroke="midnightblue" points="807.441,-211.161 817.8,-208.937 808.315,-204.216 807.441,-211.161"/>
</g>
<!-- Node21 -->
<g id="node21" class="node"><title>Node21</title>
<g id="a_node21"><a xlink:href="a00263.html#a9d8eb43a81ff58ab423dce0ce95b9564" target="_top" xlink:title="Reads and writes from a stream converting characters. ">
<polygon fill="white" stroke="red" points="828,-169.515 828,-188.515 938,-188.515 938,-169.515 828,-169.515"/>
<text text-anchor="middle" x="883" y="-176.515" font-family="Helvetica,sans-Serif" font-size="10.00">tds_convert_stream</text>
</a>
</g>
</g>
<!-- Node18&#45;&gt;Node21 -->
<g id="edge29" class="edge"><title>Node18&#45;&gt;Node21</title>
<path fill="none" stroke="midnightblue" d="M771.863,-192.874C785.977,-191.098 802.154,-189.062 817.685,-187.108"/>
<polygon fill="midnightblue" stroke="midnightblue" points="818.285,-190.56 827.77,-185.839 817.411,-183.615 818.285,-190.56"/>
</g>
<!-- Node21&#45;&gt;Node2 -->
<g id="edge30" class="edge"><title>Node21&#45;&gt;Node2</title>
<path fill="none" stroke="midnightblue" d="M921.843,-188.539C1004.14,-209.248 1199.21,-258.339 1289.56,-281.076"/>
<polygon fill="midnightblue" stroke="midnightblue" points="1288.71,-284.473 1299.26,-283.519 1290.42,-277.684 1288.71,-284.473"/>
</g>
<!-- Node21&#45;&gt;Node4 -->
<g id="edge31" class="edge"><title>Node21&#45;&gt;Node4</title>
<path fill="none" stroke="midnightblue" d="M926.096,-188.531C933.64,-191.06 941.244,-194.186 948,-198.015 948.311,-198.191 1003.62,-249.008 1033.25,-276.237"/>
<polygon fill="midnightblue" stroke="midnightblue" points="1031.12,-279.039 1040.85,-283.229 1035.86,-273.885 1031.12,-279.039"/>
</g>
<!-- Node22&#45;&gt;Node10 -->
<g id="edge35" class="edge"><title>Node22&#45;&gt;Node10</title>
<path fill="none" stroke="midnightblue" d="M423.41,-245.577C443.97,-254.523 476.475,-267.461 506,-274.015 559.842,-285.967 622.535,-290.506 667.71,-292.179"/>
<polygon fill="midnightblue" stroke="midnightblue" points="667.824,-295.684 677.936,-292.519 668.058,-288.688 667.824,-295.684"/>
</g>
<!-- Node22&#45;&gt;Node18 -->
<g id="edge34" class="edge"><title>Node22&#45;&gt;Node18</title>
<path fill="none" stroke="midnightblue" d="M411.304,-226.369C427.839,-209.055 465.538,-173.275 506,-160.015 563.439,-141.192 582.832,-147.657 642,-160.015 663.714,-164.551 686.643,-174.82 703.507,-183.541"/>
<polygon fill="midnightblue" stroke="midnightblue" points="702.211,-186.817 712.681,-188.442 705.51,-180.642 702.211,-186.817"/>
</g>
<!-- Node23 -->
<g id="node23" class="node"><title>Node23</title>
<g id="a_node23"><a xlink:href="a00356.html#ga26b26296d060dca75f6a43e9ac41e58d" target="_top" xlink:title="Send a string to server while quoting it. ">
<polygon fill="white" stroke="black" points="520.5,-245.515 520.5,-264.515 627.5,-264.515 627.5,-245.515 520.5,-245.515"/>
<text text-anchor="middle" x="574" y="-252.515" font-family="Helvetica,sans-Serif" font-size="10.00">tds_quote_and_put</text>
</a>
</g>
</g>
<!-- Node22&#45;&gt;Node23 -->
<g id="edge36" class="edge"><title>Node22&#45;&gt;Node23</title>
<path fill="none" stroke="midnightblue" d="M470.376,-243.579C483.492,-245.041 497.182,-246.566 510.13,-248.009"/>
<polygon fill="midnightblue" stroke="midnightblue" points="510.004,-251.517 520.33,-249.146 510.78,-244.56 510.004,-251.517"/>
</g>
<!-- Node24 -->
<g id="node24" class="node"><title>Node24</title>
<g id="a_node24"><a xlink:href="a00353.html#gaa865e08f7ad70ef92b111c2ea3657457" target="_top" xlink:title="tds_convert convert a type to another. ">
<polygon fill="white" stroke="black" points="538,-207.515 538,-226.515 610,-226.515 610,-207.515 538,-207.515"/>
<text text-anchor="middle" x="574" y="-214.515" font-family="Helvetica,sans-Serif" font-size="10.00">tds_convert</text>
</a>
</g>
</g>
<!-- Node22&#45;&gt;Node24 -->
<g id="edge38" class="edge"><title>Node22&#45;&gt;Node24</title>
<path fill="none" stroke="midnightblue" d="M470.376,-228.451C489.628,-226.306 510.115,-224.023 527.68,-222.066"/>
<polygon fill="midnightblue" stroke="midnightblue" points="528.102,-225.54 537.653,-220.954 527.327,-218.583 528.102,-225.54"/>
</g>
<!-- Node25 -->
<g id="node25" class="node"><title>Node25</title>
<g id="a_node25"><a xlink:href="a00193.html#ae7f4c4d5f7352f1c814284c536659e6f" target="_top" xlink:title="Return type suitable for conversions (convert all nullable types to fixed type) ">
<polygon fill="white" stroke="black" points="506,-169.515 506,-188.515 642,-188.515 642,-169.515 506,-169.515"/>
<text text-anchor="middle" x="574" y="-176.515" font-family="Helvetica,sans-Serif" font-size="10.00">tds_get_conversion_type</text>
</a>
</g>
</g>
<!-- Node22&#45;&gt;Node25 -->
<g id="edge39" class="edge"><title>Node22&#45;&gt;Node25</title>
<path fill="none" stroke="midnightblue" d="M426.994,-226.428C447.852,-218.408 478.692,-206.886 506,-198.015 512.957,-195.755 520.368,-193.502 527.629,-191.379"/>
<polygon fill="midnightblue" stroke="midnightblue" points="528.738,-194.702 537.382,-188.576 526.804,-187.975 528.738,-194.702"/>
</g>
<!-- Node23&#45;&gt;Node18 -->
<g id="edge37" class="edge"><title>Node23&#45;&gt;Node18</title>
<path fill="none" stroke="midnightblue" d="M612.145,-245.449C621.939,-242.664 632.439,-239.441 642,-236.015 661.715,-228.951 683.292,-219.538 700.026,-211.848"/>
<polygon fill="midnightblue" stroke="midnightblue" points="701.676,-214.94 709.268,-207.55 698.725,-208.593 701.676,-214.94"/>
</g>
<!-- Node26&#45;&gt;Node12 -->
<g id="edge43" class="edge"><title>Node26&#45;&gt;Node12</title>
<path fill="none" stroke="midnightblue" d="M447.743,-27.0153C467.843,-27.0153 491.779,-27.0153 513.317,-27.0153"/>
<polygon fill="midnightblue" stroke="midnightblue" points="513.344,-30.5154 523.344,-27.0153 513.344,-23.5154 513.344,-30.5154"/>
</g>
<!-- Node26&#45;&gt;Node13 -->
<g id="edge44" class="edge"><title>Node26&#45;&gt;Node13</title>
<path fill="none" stroke="midnightblue" d="M445.524,-36.6043C469.715,-41.9957 499.974,-48.7397 524.941,-54.3041"/>
<polygon fill="midnightblue" stroke="midnightblue" points="524.407,-57.7709 534.929,-56.5302 525.93,-50.9386 524.407,-57.7709"/>
</g>
<!-- Node27 -->
<g id="node27" class="node"><title>Node27</title>
<g id="a_node27"><a xlink:href="a00356.html#ga319d610d59b2cc669b7fe20c793122af" target="_top" xlink:title="Calc information length in bytes (useful for calculating full packet length) ">
<polygon fill="white" stroke="black" points="984,-8.51525 984,-27.5153 1121,-27.5153 1121,-8.51525 984,-8.51525"/>
<text text-anchor="middle" x="1052.5" y="-15.5153" font-family="Helvetica,sans-Serif" font-size="10.00">tds_put_data_info_length</text>
</a>
</g>
</g>
<!-- Node26&#45;&gt;Node27 -->
<g id="edge41" class="edge"><title>Node26&#45;&gt;Node27</title>
<path fill="none" stroke="midnightblue" d="M444.56,-17.5039C463.265,-13.7387 485.623,-9.87011 506,-8.01525 672.088,7.10327 867.754,-3.30482 973.747,-11.278"/>
<polygon fill="midnightblue" stroke="midnightblue" points="973.482,-14.7679 983.72,-12.041 974.016,-7.78829 973.482,-14.7679"/>
</g>
<!-- Node27&#45;&gt;Node2 -->
<g id="edge42" class="edge"><title>Node27&#45;&gt;Node2</title>
<path fill="none" stroke="midnightblue" d="M1121.38,-20.0871C1164.17,-24.8098 1217.96,-37.4919 1254,-70.0153 1315.09,-125.144 1331.36,-229.499 1335.58,-273.094"/>
<polygon fill="midnightblue" stroke="midnightblue" points="1332.11,-273.58 1336.44,-283.247 1339.08,-272.986 1332.11,-273.58"/>
</g>
</g>
</svg>
