<?xml version="1.0" encoding="UTF-8" standalone="no"?>
<!DOCTYPE svg PUBLIC "-//W3C//DTD SVG 1.1//EN"
 "http://www.w3.org/Graphics/SVG/1.1/DTD/svg11.dtd">
<!-- Generated by graphviz version 2.38.0 (20140413.2041)
 -->
<!-- Title: tds7_put_query_params Pages: 1 -->
<svg width="731pt" height="318pt"
 viewBox="0.00 0.00 731.00 318.47" xmlns="http://www.w3.org/2000/svg" xmlns:xlink="http://www.w3.org/1999/xlink">
<g id="graph0" class="graph" transform="scale(1 1) rotate(0) translate(4 314.469)">
<title>tds7_put_query_params</title>
<polygon fill="white" stroke="none" points="-4,4 -4,-314.469 727,-314.469 727,4 -4,4"/>
<!-- Node1 -->
<g id="node1" class="node"><title>Node1</title>
<polygon fill="#bfbfbf" stroke="black" points="0,-95.5 0,-114.5 131,-114.5 131,-95.5 0,-95.5"/>
<text text-anchor="middle" x="65.5" y="-102.5" font-family="Helvetica,sans-Serif" font-size="10.00">tds7_put_query_params</text>
</g>
<!-- Node2 -->
<g id="node2" class="node"><title>Node2</title>
<g id="a_node2"><a xlink:href="a00356.html#ga95e0fccedc459a4404f496eec74a369a" target="_top" xlink:title="tds_submit_query_params() sends a language string to the database server for processing. ">
<polygon fill="white" stroke="black" points="167,-152.5 167,-171.5 307,-171.5 307,-152.5 167,-152.5"/>
<text text-anchor="middle" x="237" y="-159.5" font-family="Helvetica,sans-Serif" font-size="10.00">tds_submit_query_params</text>
</a>
</g>
</g>
<!-- Node1&#45;&gt;Node2 -->
<g id="edge1" class="edge"><title>Node1&#45;&gt;Node2</title>
<path fill="none" stroke="midnightblue" d="M99.1898,-118.24C118.712,-125.926 144.091,-135.532 167,-143 177.278,-146.35 188.539,-149.618 198.928,-152.472"/>
<polygon fill="midnightblue" stroke="midnightblue" points="100.422,-114.964 89.8364,-114.529 97.8404,-121.47 100.422,-114.964"/>
</g>
<!-- Node13 -->
<g id="node13" class="node"><title>Node13</title>
<g id="a_node13"><a xlink:href="a00356.html#ga74eb08c3a1c85be8ac9db428842c8b9d" target="_top" xlink:title="tds_submit_prepare() creates a temporary stored procedure in the server. ">
<polygon fill="white" stroke="black" points="182,-114.5 182,-133.5 292,-133.5 292,-114.5 182,-114.5"/>
<text text-anchor="middle" x="237" y="-121.5" font-family="Helvetica,sans-Serif" font-size="10.00">tds_submit_prepare</text>
</a>
</g>
</g>
<!-- Node1&#45;&gt;Node13 -->
<g id="edge13" class="edge"><title>Node1&#45;&gt;Node13</title>
<path fill="none" stroke="midnightblue" d="M141.384,-113.394C154.997,-114.92 168.955,-116.485 181.826,-117.927"/>
<polygon fill="midnightblue" stroke="midnightblue" points="141.392,-109.873 131.064,-112.237 140.612,-116.83 141.392,-109.873"/>
</g>
<!-- Node14 -->
<g id="node14" class="node"><title>Node14</title>
<g id="a_node14"><a xlink:href="a00356.html#gae603aed795a4c5bb26ab159a11256996" target="_top" xlink:title="Submit a prepared query with parameters. ">
<polygon fill="white" stroke="black" points="176.5,-76.5 176.5,-95.5 297.5,-95.5 297.5,-76.5 176.5,-76.5"/>
<text text-anchor="middle" x="237" y="-83.5" font-family="Helvetica,sans-Serif" font-size="10.00">tds_submit_execdirect</text>
</a>
</g>
</g>
<!-- Node1&#45;&gt;Node14 -->
<g id="edge14" class="edge"><title>Node1&#45;&gt;Node14</title>
<path fill="none" stroke="midnightblue" d="M141.287,-96.6167C153.023,-95.3013 165.016,-93.9569 176.351,-92.6863"/>
<polygon fill="midnightblue" stroke="midnightblue" points="140.612,-93.1704 131.064,-97.7627 141.392,-100.127 140.612,-93.1704"/>
</g>
<!-- Node15 -->
<g id="node15" class="node"><title>Node15</title>
<g id="a_node15"><a xlink:href="a00356.html#ga08877c101704bebe4fa57e0849dc272d" target="_top" xlink:title="tds71_submit_prepexec() creates a temporary stored procedure in the server. ">
<polygon fill="white" stroke="black" points="173,-38.5 173,-57.5 301,-57.5 301,-38.5 173,-38.5"/>
<text text-anchor="middle" x="237" y="-45.5" font-family="Helvetica,sans-Serif" font-size="10.00">tds71_submit_prepexec</text>
</a>
</g>
</g>
<!-- Node1&#45;&gt;Node15 -->
<g id="edge15" class="edge"><title>Node1&#45;&gt;Node15</title>
<path fill="none" stroke="midnightblue" d="M99.1898,-91.76C118.712,-84.0743 144.091,-74.4675 167,-67 177.278,-63.6499 188.539,-60.3825 198.928,-57.5284"/>
<polygon fill="midnightblue" stroke="midnightblue" points="97.8404,-88.5299 89.8364,-95.4715 100.422,-95.0364 97.8404,-88.5299"/>
</g>
<!-- Node3 -->
<g id="node3" class="node"><title>Node3</title>
<g id="a_node3"><a xlink:href="a00356.html#ga5a29ae7f99d089dc3cea85ec6ee5f3ab" target="_top" xlink:title="tds_submit_query() sends a language string to the database server for processing. ...">
<polygon fill="white" stroke="black" points="343,-152.5 343,-171.5 441,-171.5 441,-152.5 343,-152.5"/>
<text text-anchor="middle" x="392" y="-159.5" font-family="Helvetica,sans-Serif" font-size="10.00">tds_submit_query</text>
</a>
</g>
</g>
<!-- Node2&#45;&gt;Node3 -->
<g id="edge2" class="edge"><title>Node2&#45;&gt;Node3</title>
<path fill="none" stroke="midnightblue" d="M317.507,-162C326.173,-162 334.788,-162 342.905,-162"/>
<polygon fill="midnightblue" stroke="midnightblue" points="317.337,-158.5 307.337,-162 317.337,-165.5 317.337,-158.5"/>
</g>
<!-- Node4 -->
<g id="node4" class="node"><title>Node4</title>
<g id="a_node4"><a xlink:href="a00344.html#gae67546338cb9542a4902aa914f57f314" target="_top" xlink:title="_bcp_exec_out">
<polygon fill="white" stroke="red" points="635,-266.5 635,-285.5 723,-285.5 723,-266.5 635,-266.5"/>
<text text-anchor="middle" x="679" y="-273.5" font-family="Helvetica,sans-Serif" font-size="10.00">_bcp_exec_out</text>
</a>
</g>
</g>
<!-- Node3&#45;&gt;Node4 -->
<g id="edge3" class="edge"><title>Node3&#45;&gt;Node4</title>
<path fill="none" stroke="midnightblue" d="M398.694,-181.708C408.757,-212.421 432.906,-270.697 477,-295 535.325,-327.147 617.793,-301.11 656.439,-285.548"/>
<polygon fill="midnightblue" stroke="midnightblue" points="401.913,-180.271 395.613,-171.753 395.226,-182.341 401.913,-180.271"/>
</g>
<!-- Node5 -->
<g id="node5" class="node"><title>Node5</title>
<g id="a_node5"><a xlink:href="a00341.html#gac980139b9cea03cf93e373d425991481" target="_top" xlink:title="Transmit the command buffer to the server. ">
<polygon fill="white" stroke="red" points="505.5,-266.5 505.5,-285.5 570.5,-285.5 570.5,-266.5 505.5,-266.5"/>
<text text-anchor="middle" x="538" y="-273.5" font-family="Helvetica,sans-Serif" font-size="10.00">dbsqlsend</text>
</a>
</g>
</g>
<!-- Node3&#45;&gt;Node5 -->
<g id="edge4" class="edge"><title>Node3&#45;&gt;Node5</title>
<path fill="none" stroke="midnightblue" d="M404.483,-180.102C418.922,-201.452 445.652,-236.608 477,-257 485.518,-262.541 495.766,-266.564 505.362,-269.44"/>
<polygon fill="midnightblue" stroke="midnightblue" points="407.325,-178.054 398.905,-171.624 401.477,-181.902 407.325,-178.054"/>
</g>
<!-- Node6 -->
<g id="node6" class="node"><title>Node6</title>
<g id="a_node6"><a xlink:href="a00356.html#gad695defcbf663b0023851a198206a772" target="_top" xlink:title="Format and submit a query. ">
<polygon fill="white" stroke="red" points="487.5,-228.5 487.5,-247.5 588.5,-247.5 588.5,-228.5 487.5,-228.5"/>
<text text-anchor="middle" x="538" y="-235.5" font-family="Helvetica,sans-Serif" font-size="10.00">tds_submit_queryf</text>
</a>
</g>
</g>
<!-- Node3&#45;&gt;Node6 -->
<g id="edge5" class="edge"><title>Node3&#45;&gt;Node6</title>
<path fill="none" stroke="midnightblue" d="M413.101,-178.102C429.513,-190.625 453.718,-207.712 477,-219 484.472,-222.623 492.796,-225.769 500.807,-228.403"/>
<polygon fill="midnightblue" stroke="midnightblue" points="414.884,-175.054 404.841,-171.68 410.588,-180.581 414.884,-175.054"/>
</g>
<!-- Node7 -->
<g id="node7" class="node"><title>Node7</title>
<g id="a_node7"><a xlink:href="a00356.html#gaf0da49585d39e99780a004ee2ca23479" target="_top" xlink:title="Send option commands to server. ">
<polygon fill="white" stroke="black" points="477.5,-190.5 477.5,-209.5 598.5,-209.5 598.5,-190.5 477.5,-190.5"/>
<text text-anchor="middle" x="538" y="-197.5" font-family="Helvetica,sans-Serif" font-size="10.00">tds_submit_optioncmd</text>
</a>
</g>
</g>
<!-- Node3&#45;&gt;Node7 -->
<g id="edge7" class="edge"><title>Node3&#45;&gt;Node7</title>
<path fill="none" stroke="midnightblue" d="M439.172,-174.184C459.164,-179.46 482.219,-185.544 500.924,-190.48"/>
<polygon fill="midnightblue" stroke="midnightblue" points="439.899,-170.756 429.337,-171.589 438.113,-177.525 439.899,-170.756"/>
</g>
<!-- Node8 -->
<g id="node8" class="node"><title>Node8</title>
<g id="a_node8"><a xlink:href="a00356.html#ga7bf3670d3d6dabed469b9eb117298079" target="_top" xlink:title="Send a rollback request. ">
<polygon fill="white" stroke="black" points="477,-152.5 477,-171.5 599,-171.5 599,-152.5 477,-152.5"/>
<text text-anchor="middle" x="538" y="-159.5" font-family="Helvetica,sans-Serif" font-size="10.00">tds_submit_begin_tran</text>
</a>
</g>
</g>
<!-- Node3&#45;&gt;Node8 -->
<g id="edge8" class="edge"><title>Node3&#45;&gt;Node8</title>
<path fill="none" stroke="midnightblue" d="M451.389,-162C459.748,-162 468.361,-162 476.755,-162"/>
<polygon fill="midnightblue" stroke="midnightblue" points="451.351,-158.5 441.351,-162 451.35,-165.5 451.351,-158.5"/>
</g>
<!-- Node9 -->
<g id="node9" class="node"><title>Node9</title>
<g id="a_node9"><a xlink:href="a00356.html#ga9c1cdcc388506a2ca3c0aaee8c461ba6" target="_top" xlink:title="Send a rollback request. ">
<polygon fill="white" stroke="black" points="484,-114.5 484,-133.5 592,-133.5 592,-114.5 484,-114.5"/>
<text text-anchor="middle" x="538" y="-121.5" font-family="Helvetica,sans-Serif" font-size="10.00">tds_submit_rollback</text>
</a>
</g>
</g>
<!-- Node3&#45;&gt;Node9 -->
<g id="edge9" class="edge"><title>Node3&#45;&gt;Node9</title>
<path fill="none" stroke="midnightblue" d="M439.172,-149.816C459.164,-144.54 482.219,-138.456 500.924,-133.52"/>
<polygon fill="midnightblue" stroke="midnightblue" points="438.113,-146.475 429.337,-152.411 439.899,-153.244 438.113,-146.475"/>
</g>
<!-- Node10 -->
<g id="node10" class="node"><title>Node10</title>
<g id="a_node10"><a xlink:href="a00356.html#ga530538c4c975524cf0b771a550fc94a3" target="_top" xlink:title="Send a commit request. ">
<polygon fill="white" stroke="black" points="485.5,-76.5 485.5,-95.5 590.5,-95.5 590.5,-76.5 485.5,-76.5"/>
<text text-anchor="middle" x="538" y="-83.5" font-family="Helvetica,sans-Serif" font-size="10.00">tds_submit_commit</text>
</a>
</g>
</g>
<!-- Node3&#45;&gt;Node10 -->
<g id="edge10" class="edge"><title>Node3&#45;&gt;Node10</title>
<path fill="none" stroke="midnightblue" d="M413.101,-145.898C429.513,-133.375 453.718,-116.288 477,-105 484.472,-101.377 492.796,-98.2309 500.807,-95.5975"/>
<polygon fill="midnightblue" stroke="midnightblue" points="410.588,-143.419 404.841,-152.32 414.884,-148.946 410.588,-143.419"/>
</g>
<!-- Node11 -->
<g id="node11" class="node"><title>Node11</title>
<g id="a_node11"><a xlink:href="a00193.html#a8208eef2a3974ae1f0cf3c8c8ab011ce" target="_top" xlink:title="Start sending BCP data to server. ">
<polygon fill="white" stroke="red" points="498,-38.5 498,-57.5 578,-57.5 578,-38.5 498,-38.5"/>
<text text-anchor="middle" x="538" y="-45.5" font-family="Helvetica,sans-Serif" font-size="10.00">tds_bcp_start</text>
</a>
</g>
</g>
<!-- Node3&#45;&gt;Node11 -->
<g id="edge11" class="edge"><title>Node3&#45;&gt;Node11</title>
<path fill="none" stroke="midnightblue" d="M404.483,-143.898C418.922,-122.548 445.652,-87.3917 477,-67 483.32,-62.889 490.592,-59.6138 497.843,-57.0224"/>
<polygon fill="midnightblue" stroke="midnightblue" points="401.477,-142.098 398.905,-152.376 407.325,-145.946 401.477,-142.098"/>
</g>
<!-- Node12 -->
<g id="node12" class="node"><title>Node12</title>
<g id="a_node12"><a xlink:href="a00359.html#ga55f27c3e05d42c9b07ace1c74b11c5ab" target="_top" xlink:title="Retrieve and set @spid. ">
<polygon fill="white" stroke="red" points="499.5,-0.5 499.5,-19.5 576.5,-19.5 576.5,-0.5 499.5,-0.5"/>
<text text-anchor="middle" x="538" y="-7.5" font-family="Helvetica,sans-Serif" font-size="10.00">tds_set_spid</text>
</a>
</g>
</g>
<!-- Node3&#45;&gt;Node12 -->
<g id="edge12" class="edge"><title>Node3&#45;&gt;Node12</title>
<path fill="none" stroke="midnightblue" d="M400.023,-142.971C411.628,-114.12 437.52,-59.456 477,-29 483.575,-23.9278 491.534,-20.1927 499.476,-17.4477"/>
<polygon fill="midnightblue" stroke="midnightblue" points="396.742,-141.75 396.395,-152.339 403.27,-144.278 396.742,-141.75"/>
</g>
<!-- Node6&#45;&gt;Node4 -->
<g id="edge6" class="edge"><title>Node6&#45;&gt;Node4</title>
<path fill="none" stroke="midnightblue" d="M583.795,-250.246C602.955,-255.484 624.994,-261.509 642.936,-266.414"/>
<polygon fill="midnightblue" stroke="midnightblue" points="584.645,-246.85 574.076,-247.589 582.799,-253.602 584.645,-246.85"/>
</g>
</g>
</svg>
