<?xml version="1.0" encoding="UTF-8" standalone="no"?>
<!DOCTYPE svg PUBLIC "-//W3C//DTD SVG 1.1//EN"
 "http://www.w3.org/Graphics/SVG/1.1/DTD/svg11.dtd">
<!-- Generated by graphviz version 2.38.0 (20140413.2041)
 -->
<!-- Title: bcp_bind Pages: 1 -->
<svg width="274pt" height="78pt"
 viewBox="0.00 0.00 274.00 77.65" xmlns="http://www.w3.org/2000/svg" xmlns:xlink="http://www.w3.org/1999/xlink">
<g id="graph0" class="graph" transform="scale(1 1) rotate(0) translate(4 73.6528)">
<title>bcp_bind</title>
<polygon fill="white" stroke="none" points="-4,4 -4,-73.6528 270,-73.6528 270,4 -4,4"/>
<!-- Node1 -->
<g id="node1" class="node"><title>Node1</title>
<polygon fill="#bfbfbf" stroke="black" points="0,-38.5 0,-57.5 59,-57.5 59,-38.5 0,-38.5"/>
<text text-anchor="middle" x="29.5" y="-45.5" font-family="Helvetica,sans-Serif" font-size="10.00">bcp_bind</text>
</g>
<!-- Node2 -->
<g id="node2" class="node"><title>Node2</title>
<g id="a_node2"><a xlink:href="a00193.html#ab45c291105027e69836002e1dd586141" target="_top" xlink:title="Write a message to the debug log. ">
<polygon fill="white" stroke="black" points="189,-38.5 189,-57.5 266,-57.5 266,-38.5 189,-38.5"/>
<text text-anchor="middle" x="227.5" y="-45.5" font-family="Helvetica,sans-Serif" font-size="10.00">tdsdump_log</text>
</a>
</g>
</g>
<!-- Node1&#45;&gt;Node2 -->
<g id="edge1" class="edge"><title>Node1&#45;&gt;Node2</title>
<path fill="none" stroke="midnightblue" d="M56.4819,-57.5004C68.0961,-61.2637 82.0594,-65.1337 95,-67 120.514,-70.6797 127.428,-70.2518 153,-67 164.211,-65.5743 176.159,-62.972 187.091,-60.1412"/>
<polygon fill="midnightblue" stroke="midnightblue" points="188.063,-63.5041 196.795,-57.5044 186.227,-56.749 188.063,-63.5041"/>
</g>
<!-- Node3 -->
<g id="node3" class="node"><title>Node3</title>
<g id="a_node3"><a xlink:href="a00341.html#gac25ae21ca19777ffab1c013bd6049ebf" target="_top" xlink:title="Print a token value&#39;s name to a buffer. ">
<polygon fill="white" stroke="black" points="95,-0.5 95,-19.5 153,-19.5 153,-0.5 95,-0.5"/>
<text text-anchor="middle" x="124" y="-7.5" font-family="Helvetica,sans-Serif" font-size="10.00">dbprtype</text>
</a>
</g>
</g>
<!-- Node1&#45;&gt;Node3 -->
<g id="edge2" class="edge"><title>Node1&#45;&gt;Node3</title>
<path fill="none" stroke="midnightblue" d="M53.8417,-38.411C64.9061,-33.8656 78.3108,-28.3588 90.3618,-23.4081"/>
<polygon fill="midnightblue" stroke="midnightblue" points="91.7459,-26.6234 99.6658,-19.5859 89.0859,-20.1485 91.7459,-26.6234"/>
</g>
<!-- Node5 -->
<g id="node5" class="node"><title>Node5</title>
<g id="a_node5"><a xlink:href="a00347.html#ga302a4ce6559b81808e3be51615cd1b67" target="_top" xlink:title="Call client&#45;installed error handler. ">
<polygon fill="white" stroke="black" points="95.5,-38.5 95.5,-57.5 152.5,-57.5 152.5,-38.5 95.5,-38.5"/>
<text text-anchor="middle" x="124" y="-45.5" font-family="Helvetica,sans-Serif" font-size="10.00">dbperror</text>
</a>
</g>
</g>
<!-- Node1&#45;&gt;Node5 -->
<g id="edge5" class="edge"><title>Node1&#45;&gt;Node5</title>
<path fill="none" stroke="midnightblue" d="M59.0078,-48C67.3253,-48 76.5452,-48 85.3361,-48"/>
<polygon fill="midnightblue" stroke="midnightblue" points="85.3791,-51.5001 95.3791,-48 85.3791,-44.5001 85.3791,-51.5001"/>
</g>
<!-- Node3&#45;&gt;Node2 -->
<g id="edge3" class="edge"><title>Node3&#45;&gt;Node2</title>
<path fill="none" stroke="midnightblue" d="M150.613,-19.589C162.994,-24.2244 178.046,-29.8596 191.47,-34.8853"/>
<polygon fill="midnightblue" stroke="midnightblue" points="190.303,-38.1856 200.895,-38.4141 192.757,-31.63 190.303,-38.1856"/>
</g>
<!-- Node4 -->
<g id="node4" class="node"><title>Node4</title>
<g id="a_node4"><a xlink:href="a00359.html#ga0cf7e719115b0ae476753442d10505ab" target="_top" xlink:title="Returns string representation of the given type. ">
<polygon fill="white" stroke="black" points="194,-0.5 194,-19.5 261,-19.5 261,-0.5 194,-0.5"/>
<text text-anchor="middle" x="227.5" y="-7.5" font-family="Helvetica,sans-Serif" font-size="10.00">tds_prtype</text>
</a>
</g>
</g>
<!-- Node3&#45;&gt;Node4 -->
<g id="edge4" class="edge"><title>Node3&#45;&gt;Node4</title>
<path fill="none" stroke="midnightblue" d="M153.004,-10C162.51,-10 173.358,-10 183.748,-10"/>
<polygon fill="midnightblue" stroke="midnightblue" points="183.918,-13.5001 193.918,-10 183.918,-6.5001 183.918,-13.5001"/>
</g>
<!-- Node5&#45;&gt;Node2 -->
<g id="edge6" class="edge"><title>Node5&#45;&gt;Node2</title>
<path fill="none" stroke="midnightblue" d="M152.735,-48C160.838,-48 169.934,-48 178.898,-48"/>
<polygon fill="midnightblue" stroke="midnightblue" points="178.903,-51.5001 188.903,-48 178.903,-44.5001 178.903,-51.5001"/>
</g>
</g>
</svg>
