<?xml version="1.0" encoding="UTF-8" standalone="no"?>
<!DOCTYPE svg PUBLIC "-//W3C//DTD SVG 1.1//EN"
 "http://www.w3.org/Graphics/SVG/1.1/DTD/svg11.dtd">
<!-- Generated by graphviz version 2.38.0 (20140413.2041)
 -->
<!-- Title: dbsetopt Pages: 1 -->
<svg width="271pt" height="47pt"
 viewBox="0.00 0.00 271.00 47.00" xmlns="http://www.w3.org/2000/svg" xmlns:xlink="http://www.w3.org/1999/xlink">
<g id="graph0" class="graph" transform="scale(1 1) rotate(0) translate(4 43)">
<title>dbsetopt</title>
<polygon fill="white" stroke="none" points="-4,4 -4,-43 267,-43 267,4 -4,4"/>
<!-- Node1 -->
<g id="node1" class="node"><title>Node1</title>
<polygon fill="#bfbfbf" stroke="black" points="0,-19.5 0,-38.5 57,-38.5 57,-19.5 0,-19.5"/>
<text text-anchor="middle" x="28.5" y="-26.5" font-family="Helvetica,sans-Serif" font-size="10.00">dbsetopt</text>
</g>
<!-- Node2 -->
<g id="node2" class="node"><title>Node2</title>
<g id="a_node2"><a xlink:href="a00193.html#ab45c291105027e69836002e1dd586141" target="_top" xlink:title="Write a message to the debug log. ">
<polygon fill="white" stroke="black" points="186,-19.5 186,-38.5 263,-38.5 263,-19.5 186,-19.5"/>
<text text-anchor="middle" x="224.5" y="-26.5" font-family="Helvetica,sans-Serif" font-size="10.00">tdsdump_log</text>
</a>
</g>
</g>
<!-- Node1&#45;&gt;Node2 -->
<g id="edge1" class="edge"><title>Node1&#45;&gt;Node2</title>
<path fill="none" stroke="midnightblue" d="M57.2955,-29C88.1325,-29 138.44,-29 175.642,-29"/>
<polygon fill="midnightblue" stroke="midnightblue" points="175.76,-32.5001 185.76,-29 175.76,-25.5001 175.76,-32.5001"/>
</g>
<!-- Node3 -->
<g id="node3" class="node"><title>Node3</title>
<g id="a_node3"><a xlink:href="a00347.html#ga302a4ce6559b81808e3be51615cd1b67" target="_top" xlink:title="Call client&#45;installed error handler. ">
<polygon fill="white" stroke="black" points="93,-0.5 93,-19.5 150,-19.5 150,-0.5 93,-0.5"/>
<text text-anchor="middle" x="121.5" y="-7.5" font-family="Helvetica,sans-Serif" font-size="10.00">dbperror</text>
</a>
</g>
</g>
<!-- Node1&#45;&gt;Node3 -->
<g id="edge2" class="edge"><title>Node1&#45;&gt;Node3</title>
<path fill="none" stroke="midnightblue" d="M57.2975,-23.1961C65.4121,-21.5019 74.4168,-19.6218 83.0256,-17.8243"/>
<polygon fill="midnightblue" stroke="midnightblue" points="83.7992,-21.2384 92.8728,-15.7683 82.3685,-14.3861 83.7992,-21.2384"/>
</g>
<!-- Node3&#45;&gt;Node2 -->
<g id="edge3" class="edge"><title>Node3&#45;&gt;Node2</title>
<path fill="none" stroke="midnightblue" d="M150.099,-15.1918C158.077,-16.6926 167.022,-18.3755 175.851,-20.0363"/>
<polygon fill="midnightblue" stroke="midnightblue" points="175.237,-23.4822 185.712,-21.8913 176.531,-16.6028 175.237,-23.4822"/>
</g>
</g>
</svg>
