<?xml version="1.0" encoding="UTF-8" standalone="no"?>
<!DOCTYPE svg PUBLIC "-//W3C//DTD SVG 1.1//EN"
 "http://www.w3.org/Graphics/SVG/1.1/DTD/svg11.dtd">
<!-- Generated by graphviz version 2.38.0 (20140413.2041)
 -->
<!-- Title: tds_submit_query Pages: 1 -->
<svg width="656pt" height="333pt"
 viewBox="0.00 0.00 656.00 332.80" xmlns="http://www.w3.org/2000/svg" xmlns:xlink="http://www.w3.org/1999/xlink">
<g id="graph0" class="graph" transform="scale(1 1) rotate(0) translate(4 328.803)">
<title>tds_submit_query</title>
<polygon fill="white" stroke="none" points="-4,4 -4,-328.803 652,-328.803 652,4 -4,4"/>
<!-- Node1 -->
<g id="node1" class="node"><title>Node1</title>
<polygon fill="#bfbfbf" stroke="black" points="0,-152.5 0,-171.5 98,-171.5 98,-152.5 0,-152.5"/>
<text text-anchor="middle" x="49" y="-159.5" font-family="Helvetica,sans-Serif" font-size="10.00">tds_submit_query</text>
</g>
<!-- Node2 -->
<g id="node2" class="node"><title>Node2</title>
<g id="a_node2"><a xlink:href="a00344.html#gae67546338cb9542a4902aa914f57f314" target="_top" xlink:title="_bcp_exec_out">
<polygon fill="white" stroke="black" points="318,-304.5 318,-323.5 406,-323.5 406,-304.5 318,-304.5"/>
<text text-anchor="middle" x="362" y="-311.5" font-family="Helvetica,sans-Serif" font-size="10.00">_bcp_exec_out</text>
</a>
</g>
</g>
<!-- Node1&#45;&gt;Node2 -->
<g id="edge1" class="edge"><title>Node1&#45;&gt;Node2</title>
<path fill="none" stroke="midnightblue" d="M55.941,-181.28C66.3458,-211.403 90.9585,-268.877 134,-295 190.29,-329.164 269.382,-326.925 317.804,-321.184"/>
<polygon fill="midnightblue" stroke="midnightblue" points="59.1849,-179.94 52.7427,-171.529 52.5336,-182.122 59.1849,-179.94"/>
</g>
<!-- Node4 -->
<g id="node4" class="node"><title>Node4</title>
<g id="a_node4"><a xlink:href="a00341.html#gac980139b9cea03cf93e373d425991481" target="_top" xlink:title="Transmit the command buffer to the server. ">
<polygon fill="white" stroke="black" points="162.5,-266.5 162.5,-285.5 227.5,-285.5 227.5,-266.5 162.5,-266.5"/>
<text text-anchor="middle" x="195" y="-273.5" font-family="Helvetica,sans-Serif" font-size="10.00">dbsqlsend</text>
</a>
</g>
</g>
<!-- Node1&#45;&gt;Node4 -->
<g id="edge3" class="edge"><title>Node1&#45;&gt;Node4</title>
<path fill="none" stroke="midnightblue" d="M61.4831,-180.102C75.922,-201.452 102.652,-236.608 134,-257 142.518,-262.541 152.766,-266.564 162.362,-269.44"/>
<polygon fill="midnightblue" stroke="midnightblue" points="64.3254,-178.054 55.9054,-171.624 58.4774,-181.902 64.3254,-178.054"/>
</g>
<!-- Node7 -->
<g id="node7" class="node"><title>Node7</title>
<g id="a_node7"><a xlink:href="a00356.html#gad695defcbf663b0023851a198206a772" target="_top" xlink:title="Format and submit a query. ">
<polygon fill="white" stroke="black" points="144.5,-228.5 144.5,-247.5 245.5,-247.5 245.5,-228.5 144.5,-228.5"/>
<text text-anchor="middle" x="195" y="-235.5" font-family="Helvetica,sans-Serif" font-size="10.00">tds_submit_queryf</text>
</a>
</g>
</g>
<!-- Node1&#45;&gt;Node7 -->
<g id="edge6" class="edge"><title>Node1&#45;&gt;Node7</title>
<path fill="none" stroke="midnightblue" d="M70.1014,-178.102C86.5133,-190.625 110.718,-207.712 134,-219 141.472,-222.623 149.796,-225.769 157.807,-228.403"/>
<polygon fill="midnightblue" stroke="midnightblue" points="71.884,-175.054 61.8408,-171.68 67.5877,-180.581 71.884,-175.054"/>
</g>
<!-- Node12 -->
<g id="node12" class="node"><title>Node12</title>
<g id="a_node12"><a xlink:href="a00356.html#gaf0da49585d39e99780a004ee2ca23479" target="_top" xlink:title="Send option commands to server. ">
<polygon fill="white" stroke="black" points="134.5,-190.5 134.5,-209.5 255.5,-209.5 255.5,-190.5 134.5,-190.5"/>
<text text-anchor="middle" x="195" y="-197.5" font-family="Helvetica,sans-Serif" font-size="10.00">tds_submit_optioncmd</text>
</a>
</g>
</g>
<!-- Node1&#45;&gt;Node12 -->
<g id="edge12" class="edge"><title>Node1&#45;&gt;Node12</title>
<path fill="none" stroke="midnightblue" d="M96.1722,-174.184C116.164,-179.46 139.219,-185.544 157.924,-190.48"/>
<polygon fill="midnightblue" stroke="midnightblue" points="96.8994,-170.756 86.3373,-171.589 95.1132,-177.525 96.8994,-170.756"/>
</g>
<!-- Node13 -->
<g id="node13" class="node"><title>Node13</title>
<g id="a_node13"><a xlink:href="a00356.html#ga7bf3670d3d6dabed469b9eb117298079" target="_top" xlink:title="Send a rollback request. ">
<polygon fill="white" stroke="black" points="134,-152.5 134,-171.5 256,-171.5 256,-152.5 134,-152.5"/>
<text text-anchor="middle" x="195" y="-159.5" font-family="Helvetica,sans-Serif" font-size="10.00">tds_submit_begin_tran</text>
</a>
</g>
</g>
<!-- Node1&#45;&gt;Node13 -->
<g id="edge13" class="edge"><title>Node1&#45;&gt;Node13</title>
<path fill="none" stroke="midnightblue" d="M108.389,-162C116.748,-162 125.361,-162 133.755,-162"/>
<polygon fill="midnightblue" stroke="midnightblue" points="108.351,-158.5 98.3505,-162 108.35,-165.5 108.351,-158.5"/>
</g>
<!-- Node14 -->
<g id="node14" class="node"><title>Node14</title>
<g id="a_node14"><a xlink:href="a00356.html#ga9c1cdcc388506a2ca3c0aaee8c461ba6" target="_top" xlink:title="Send a rollback request. ">
<polygon fill="white" stroke="black" points="141,-114.5 141,-133.5 249,-133.5 249,-114.5 141,-114.5"/>
<text text-anchor="middle" x="195" y="-121.5" font-family="Helvetica,sans-Serif" font-size="10.00">tds_submit_rollback</text>
</a>
</g>
</g>
<!-- Node1&#45;&gt;Node14 -->
<g id="edge14" class="edge"><title>Node1&#45;&gt;Node14</title>
<path fill="none" stroke="midnightblue" d="M96.1722,-149.816C116.164,-144.54 139.219,-138.456 157.924,-133.52"/>
<polygon fill="midnightblue" stroke="midnightblue" points="95.1132,-146.475 86.3373,-152.411 96.8994,-153.244 95.1132,-146.475"/>
</g>
<!-- Node15 -->
<g id="node15" class="node"><title>Node15</title>
<g id="a_node15"><a xlink:href="a00356.html#ga530538c4c975524cf0b771a550fc94a3" target="_top" xlink:title="Send a commit request. ">
<polygon fill="white" stroke="black" points="142.5,-76.5 142.5,-95.5 247.5,-95.5 247.5,-76.5 142.5,-76.5"/>
<text text-anchor="middle" x="195" y="-83.5" font-family="Helvetica,sans-Serif" font-size="10.00">tds_submit_commit</text>
</a>
</g>
</g>
<!-- Node1&#45;&gt;Node15 -->
<g id="edge15" class="edge"><title>Node1&#45;&gt;Node15</title>
<path fill="none" stroke="midnightblue" d="M70.1014,-145.898C86.5133,-133.375 110.718,-116.288 134,-105 141.472,-101.377 149.796,-98.2309 157.807,-95.5975"/>
<polygon fill="midnightblue" stroke="midnightblue" points="67.5877,-143.419 61.8408,-152.32 71.884,-148.946 67.5877,-143.419"/>
</g>
<!-- Node16 -->
<g id="node16" class="node"><title>Node16</title>
<g id="a_node16"><a xlink:href="a00193.html#a8208eef2a3974ae1f0cf3c8c8ab011ce" target="_top" xlink:title="Start sending BCP data to server. ">
<polygon fill="white" stroke="black" points="155,-38.5 155,-57.5 235,-57.5 235,-38.5 155,-38.5"/>
<text text-anchor="middle" x="195" y="-45.5" font-family="Helvetica,sans-Serif" font-size="10.00">tds_bcp_start</text>
</a>
</g>
</g>
<!-- Node1&#45;&gt;Node16 -->
<g id="edge16" class="edge"><title>Node1&#45;&gt;Node16</title>
<path fill="none" stroke="midnightblue" d="M61.4831,-143.898C75.922,-122.548 102.652,-87.3917 134,-67 140.32,-62.889 147.592,-59.6138 154.843,-57.0224"/>
<polygon fill="midnightblue" stroke="midnightblue" points="58.4774,-142.098 55.9054,-152.376 64.3254,-145.946 58.4774,-142.098"/>
</g>
<!-- Node21 -->
<g id="node21" class="node"><title>Node21</title>
<g id="a_node21"><a xlink:href="a00359.html#ga55f27c3e05d42c9b07ace1c74b11c5ab" target="_top" xlink:title="Retrieve and set @spid. ">
<polygon fill="white" stroke="black" points="156.5,-0.5 156.5,-19.5 233.5,-19.5 233.5,-0.5 156.5,-0.5"/>
<text text-anchor="middle" x="195" y="-7.5" font-family="Helvetica,sans-Serif" font-size="10.00">tds_set_spid</text>
</a>
</g>
</g>
<!-- Node1&#45;&gt;Node21 -->
<g id="edge23" class="edge"><title>Node1&#45;&gt;Node21</title>
<path fill="none" stroke="midnightblue" d="M57.0229,-142.971C68.6276,-114.12 94.5202,-59.456 134,-29 140.575,-23.9278 148.534,-20.1927 156.476,-17.4477"/>
<polygon fill="midnightblue" stroke="midnightblue" points="53.7423,-141.75 53.3952,-152.339 60.27,-144.278 53.7423,-141.75"/>
</g>
<!-- Node3 -->
<g id="node3" class="node"><title>Node3</title>
<g id="a_node3"><a xlink:href="a00343.html#ga7a184158b27a50f713e9cfae3b746209" target="_top" xlink:title="Write a datafile to a table. ">
<polygon fill="white" stroke="black" points="586,-209.5 586,-228.5 648,-228.5 648,-209.5 586,-209.5"/>
<text text-anchor="middle" x="617" y="-216.5" font-family="Helvetica,sans-Serif" font-size="10.00">bcp_exec</text>
</a>
</g>
</g>
<!-- Node2&#45;&gt;Node3 -->
<g id="edge2" class="edge"><title>Node2&#45;&gt;Node3</title>
<path fill="none" stroke="midnightblue" d="M416.137,-318.727C455.273,-319.884 508.65,-316.447 550,-295 579.474,-279.712 601.553,-245.253 610.979,-228.501"/>
<polygon fill="midnightblue" stroke="midnightblue" points="416.139,-315.225 406.005,-318.317 415.855,-322.219 416.139,-315.225"/>
</g>
<!-- Node5 -->
<g id="node5" class="node"><title>Node5</title>
<g id="a_node5"><a xlink:href="a00341.html#gaae889abeb145ec41f7361aa8f597fe46" target="_top" xlink:title="send the SQL command to the server and wait for an answer. ">
<polygon fill="white" stroke="black" points="330,-266.5 330,-285.5 394,-285.5 394,-266.5 330,-266.5"/>
<text text-anchor="middle" x="362" y="-273.5" font-family="Helvetica,sans-Serif" font-size="10.00">dbsqlexec</text>
</a>
</g>
</g>
<!-- Node4&#45;&gt;Node5 -->
<g id="edge4" class="edge"><title>Node4&#45;&gt;Node5</title>
<path fill="none" stroke="midnightblue" d="M237.929,-276C266.549,-276 303.843,-276 329.844,-276"/>
<polygon fill="midnightblue" stroke="midnightblue" points="237.814,-272.5 227.814,-276 237.814,-279.5 237.814,-272.5"/>
</g>
<!-- Node6 -->
<g id="node6" class="node"><title>Node6</title>
<g id="a_node6"><a xlink:href="a00341.html#ga66ea891910f0a357cc78107d6ab7d962" target="_top" xlink:title="Change current database. ">
<polygon fill="white" stroke="black" points="487,-266.5 487,-285.5 531,-285.5 531,-266.5 487,-266.5"/>
<text text-anchor="middle" x="509" y="-273.5" font-family="Helvetica,sans-Serif" font-size="10.00">dbuse</text>
</a>
</g>
</g>
<!-- Node5&#45;&gt;Node6 -->
<g id="edge5" class="edge"><title>Node5&#45;&gt;Node6</title>
<path fill="none" stroke="midnightblue" d="M404.399,-276C431.296,-276 465.239,-276 486.79,-276"/>
<polygon fill="midnightblue" stroke="midnightblue" points="404.106,-272.5 394.106,-276 404.106,-279.5 404.106,-272.5"/>
</g>
<!-- Node7&#45;&gt;Node2 -->
<g id="edge7" class="edge"><title>Node7&#45;&gt;Node2</title>
<path fill="none" stroke="midnightblue" d="M245.359,-251.339C249.065,-253.026 252.658,-254.907 256,-257 275.717,-269.349 272.053,-283.028 292,-295 299.884,-299.732 308.975,-303.315 317.917,-306.02"/>
<polygon fill="midnightblue" stroke="midnightblue" points="246.575,-248.055 235.992,-247.537 243.942,-254.541 246.575,-248.055"/>
</g>
<!-- Node8 -->
<g id="node8" class="node"><title>Node8</title>
<g id="a_node8"><a xlink:href="a00193.html#ac6610c72bd31bad5378f760fa9b12d66" target="_top" xlink:title="Initialize BCP information. ">
<polygon fill="white" stroke="black" points="325.5,-228.5 325.5,-247.5 398.5,-247.5 398.5,-228.5 325.5,-228.5"/>
<text text-anchor="middle" x="362" y="-235.5" font-family="Helvetica,sans-Serif" font-size="10.00">tds_bcp_init</text>
</a>
</g>
</g>
<!-- Node7&#45;&gt;Node8 -->
<g id="edge8" class="edge"><title>Node7&#45;&gt;Node8</title>
<path fill="none" stroke="midnightblue" d="M255.682,-238C279.059,-238 305.088,-238 325.421,-238"/>
<polygon fill="midnightblue" stroke="midnightblue" points="255.505,-234.5 245.505,-238 255.505,-241.5 255.505,-234.5"/>
</g>
<!-- Node10 -->
<g id="node10" class="node"><title>Node10</title>
<g id="a_node10"><a xlink:href="a00193.html#a7711612cc544a7da2c7aa212b870acb2" target="_top" xlink:title="Start writing writetext request. ">
<polygon fill="white" stroke="black" points="310,-190.5 310,-209.5 414,-209.5 414,-190.5 310,-190.5"/>
<text text-anchor="middle" x="362" y="-197.5" font-family="Helvetica,sans-Serif" font-size="10.00">tds_writetext_start</text>
</a>
</g>
</g>
<!-- Node7&#45;&gt;Node10 -->
<g id="edge10" class="edge"><title>Node7&#45;&gt;Node10</title>
<path fill="none" stroke="midnightblue" d="M247.654,-226.104C270.846,-220.763 297.838,-214.546 319.663,-209.52"/>
<polygon fill="midnightblue" stroke="midnightblue" points="246.596,-222.756 237.636,-228.411 248.167,-229.577 246.596,-222.756"/>
</g>
<!-- Node9 -->
<g id="node9" class="node"><title>Node9</title>
<g id="a_node9"><a xlink:href="a00343.html#gada8e987c4a6225b9276c05ba3a4f47a0" target="_top" xlink:title="Prepare for bulk copy operation on a table. ">
<polygon fill="white" stroke="black" points="482.5,-228.5 482.5,-247.5 535.5,-247.5 535.5,-228.5 482.5,-228.5"/>
<text text-anchor="middle" x="509" y="-235.5" font-family="Helvetica,sans-Serif" font-size="10.00">bcp_init</text>
</a>
</g>
</g>
<!-- Node8&#45;&gt;Node9 -->
<g id="edge9" class="edge"><title>Node8&#45;&gt;Node9</title>
<path fill="none" stroke="midnightblue" d="M408.886,-238C433.064,-238 461.827,-238 482.124,-238"/>
<polygon fill="midnightblue" stroke="midnightblue" points="408.843,-234.5 398.843,-238 408.843,-241.5 408.843,-234.5"/>
</g>
<!-- Node11 -->
<g id="node11" class="node"><title>Node11</title>
<g id="a_node11"><a xlink:href="a00341.html#ga548153eb2eae76c48aa9d4b72258dc1c" target="_top" xlink:title="Send text or image data to the server. ">
<polygon fill="white" stroke="black" points="475,-190.5 475,-209.5 543,-209.5 543,-190.5 475,-190.5"/>
<text text-anchor="middle" x="509" y="-197.5" font-family="Helvetica,sans-Serif" font-size="10.00">dbwritetext</text>
</a>
</g>
</g>
<!-- Node10&#45;&gt;Node11 -->
<g id="edge11" class="edge"><title>Node10&#45;&gt;Node11</title>
<path fill="none" stroke="midnightblue" d="M424.239,-200C441.651,-200 459.951,-200 474.99,-200"/>
<polygon fill="midnightblue" stroke="midnightblue" points="424.122,-196.5 414.122,-200 424.122,-203.5 424.122,-196.5"/>
</g>
<!-- Node17 -->
<g id="node17" class="node"><title>Node17</title>
<g id="a_node17"><a xlink:href="a00344.html#ga7370f1223f13510d6b33e98f2de09fb5" target="_top" xlink:title="_bcp_exec_in">
<polygon fill="white" stroke="black" points="468,-114.5 468,-133.5 550,-133.5 550,-114.5 468,-114.5"/>
<text text-anchor="middle" x="509" y="-121.5" font-family="Helvetica,sans-Serif" font-size="10.00">_bcp_exec_in</text>
</a>
</g>
</g>
<!-- Node16&#45;&gt;Node17 -->
<g id="edge17" class="edge"><title>Node16&#45;&gt;Node17</title>
<path fill="none" stroke="midnightblue" d="M244.52,-60.9616C248.522,-62.7437 252.406,-64.749 256,-67 275.717,-79.3488 271.052,-94.8791 292,-105 348.437,-132.267 422.831,-132.103 467.951,-128.655"/>
<polygon fill="midnightblue" stroke="midnightblue" points="245.631,-57.6368 235.045,-57.1972 243.046,-64.1422 245.631,-57.6368"/>
</g>
<!-- Node18 -->
<g id="node18" class="node"><title>Node18</title>
<g id="a_node18"><a xlink:href="a00343.html#gaa23f8e5c7f437a94746c90292dd1cb01" target="_top" xlink:title="Commit a set of rows to the table. ">
<polygon fill="white" stroke="black" points="329.5,-76.5 329.5,-95.5 394.5,-95.5 394.5,-76.5 329.5,-76.5"/>
<text text-anchor="middle" x="362" y="-83.5" font-family="Helvetica,sans-Serif" font-size="10.00">bcp_batch</text>
</a>
</g>
</g>
<!-- Node16&#45;&gt;Node18 -->
<g id="edge19" class="edge"><title>Node16&#45;&gt;Node18</title>
<path fill="none" stroke="midnightblue" d="M244.871,-59.2552C272.192,-65.5473 305.449,-73.2065 329.36,-78.7133"/>
<polygon fill="midnightblue" stroke="midnightblue" points="245.633,-55.8391 235.103,-57.0055 244.062,-62.6605 245.633,-55.8391"/>
</g>
<!-- Node19 -->
<g id="node19" class="node"><title>Node19</title>
<g id="a_node19"><a xlink:href="a00193.html#a5eec23828b0610c58de248c4edb53879" target="_top" xlink:title="Start bulk copy to server. ">
<polygon fill="white" stroke="black" points="300.5,-38.5 300.5,-57.5 423.5,-57.5 423.5,-38.5 300.5,-38.5"/>
<text text-anchor="middle" x="362" y="-45.5" font-family="Helvetica,sans-Serif" font-size="10.00">tds_bcp_start_copy_in</text>
</a>
</g>
</g>
<!-- Node16&#45;&gt;Node19 -->
<g id="edge20" class="edge"><title>Node16&#45;&gt;Node19</title>
<path fill="none" stroke="midnightblue" d="M245.491,-48C262.707,-48 282.219,-48 300.241,-48"/>
<polygon fill="midnightblue" stroke="midnightblue" points="245.103,-44.5001 235.103,-48 245.103,-51.5001 245.103,-44.5001"/>
</g>
<!-- Node17&#45;&gt;Node3 -->
<g id="edge18" class="edge"><title>Node17&#45;&gt;Node3</title>
<path fill="none" stroke="midnightblue" d="M528.417,-140.506C550.633,-160.416 587.236,-193.221 605.273,-209.386"/>
<polygon fill="midnightblue" stroke="midnightblue" points="530.727,-137.877 520.945,-133.809 526.056,-143.089 530.727,-137.877"/>
</g>
<!-- Node19&#45;&gt;Node17 -->
<g id="edge22" class="edge"><title>Node19&#45;&gt;Node17</title>
<path fill="none" stroke="midnightblue" d="M417.199,-60.8089C422.299,-62.6412 427.31,-64.6989 432,-67 457.764,-79.6401 483.615,-101.43 497.533,-114.093"/>
<polygon fill="midnightblue" stroke="midnightblue" points="417.936,-57.3668 407.343,-57.5586 415.744,-64.0146 417.936,-57.3668"/>
</g>
<!-- Node20 -->
<g id="node20" class="node"><title>Node20</title>
<g id="a_node20"><a xlink:href="a00343.html#gaf1130ac97f6af55e86ec70b0aa4f5b40" target="_top" xlink:title="Write data in host variables to the table. ">
<polygon fill="white" stroke="black" points="469,-38.5 469,-57.5 549,-57.5 549,-38.5 469,-38.5"/>
<text text-anchor="middle" x="509" y="-45.5" font-family="Helvetica,sans-Serif" font-size="10.00">bcp_sendrow</text>
</a>
</g>
</g>
<!-- Node19&#45;&gt;Node20 -->
<g id="edge21" class="edge"><title>Node19&#45;&gt;Node20</title>
<path fill="none" stroke="midnightblue" d="M433.708,-48C445.732,-48 457.822,-48 468.653,-48"/>
<polygon fill="midnightblue" stroke="midnightblue" points="433.653,-44.5001 423.653,-48 433.653,-51.5001 433.653,-44.5001"/>
</g>
<!-- Node22 -->
<g id="node22" class="node"><title>Node22</title>
<g id="a_node22"><a xlink:href="a00359.html#ga93945b42d45ee28ae1296b35a1c1e9bb" target="_top" xlink:title="tds_process_login_tokens() is called after sending the login packet to the server. ">
<polygon fill="white" stroke="black" points="292,-0.5 292,-19.5 432,-19.5 432,-0.5 292,-0.5"/>
<text text-anchor="middle" x="362" y="-7.5" font-family="Helvetica,sans-Serif" font-size="10.00">tds_process_login_tokens</text>
</a>
</g>
</g>
<!-- Node21&#45;&gt;Node22 -->
<g id="edge24" class="edge"><title>Node21&#45;&gt;Node22</title>
<path fill="none" stroke="midnightblue" d="M243.901,-10C258.889,-10 275.736,-10 291.881,-10"/>
<polygon fill="midnightblue" stroke="midnightblue" points="243.854,-6.5001 233.854,-10 243.854,-13.5001 243.854,-6.5001"/>
</g>
</g>
</svg>
