<?xml version="1.0" encoding="UTF-8" standalone="no"?>
<!DOCTYPE svg PUBLIC "-//W3C//DTD SVG 1.1//EN"
 "http://www.w3.org/Graphics/SVG/1.1/DTD/svg11.dtd">
<!-- Generated by graphviz version 2.38.0 (20140413.2041)
 -->
<!-- Title: bcp_colfmt Pages: 1 -->
<svg width="281pt" height="47pt"
 viewBox="0.00 0.00 281.00 47.00" xmlns="http://www.w3.org/2000/svg" xmlns:xlink="http://www.w3.org/1999/xlink">
<g id="graph0" class="graph" transform="scale(1 1) rotate(0) translate(4 43)">
<title>bcp_colfmt</title>
<polygon fill="white" stroke="none" points="-4,4 -4,-43 277,-43 277,4 -4,4"/>
<!-- Node1 -->
<g id="node1" class="node"><title>Node1</title>
<polygon fill="#bfbfbf" stroke="black" points="0,-19.5 0,-38.5 67,-38.5 67,-19.5 0,-19.5"/>
<text text-anchor="middle" x="33.5" y="-26.5" font-family="Helvetica,sans-Serif" font-size="10.00">bcp_colfmt</text>
</g>
<!-- Node2 -->
<g id="node2" class="node"><title>Node2</title>
<g id="a_node2"><a xlink:href="a00193.html#ab45c291105027e69836002e1dd586141" target="_top" xlink:title="Write a message to the debug log. ">
<polygon fill="white" stroke="black" points="196,-19.5 196,-38.5 273,-38.5 273,-19.5 196,-19.5"/>
<text text-anchor="middle" x="234.5" y="-26.5" font-family="Helvetica,sans-Serif" font-size="10.00">tdsdump_log</text>
</a>
</g>
</g>
<!-- Node1&#45;&gt;Node2 -->
<g id="edge1" class="edge"><title>Node1&#45;&gt;Node2</title>
<path fill="none" stroke="midnightblue" d="M67.3608,-29C99.513,-29 148.846,-29 185.41,-29"/>
<polygon fill="midnightblue" stroke="midnightblue" points="185.836,-32.5001 195.836,-29 185.836,-25.5001 185.836,-32.5001"/>
</g>
<!-- Node3 -->
<g id="node3" class="node"><title>Node3</title>
<g id="a_node3"><a xlink:href="a00347.html#ga302a4ce6559b81808e3be51615cd1b67" target="_top" xlink:title="Call client&#45;installed error handler. ">
<polygon fill="white" stroke="black" points="103,-0.5 103,-19.5 160,-19.5 160,-0.5 103,-0.5"/>
<text text-anchor="middle" x="131.5" y="-7.5" font-family="Helvetica,sans-Serif" font-size="10.00">dbperror</text>
</a>
</g>
</g>
<!-- Node1&#45;&gt;Node3 -->
<g id="edge2" class="edge"><title>Node1&#45;&gt;Node3</title>
<path fill="none" stroke="midnightblue" d="M67.0012,-22.5675C75.2769,-20.9296 84.2412,-19.1554 92.7541,-17.4705"/>
<polygon fill="midnightblue" stroke="midnightblue" points="93.7073,-20.8499 102.837,-15.4749 92.3482,-13.9831 93.7073,-20.8499"/>
</g>
<!-- Node3&#45;&gt;Node2 -->
<g id="edge3" class="edge"><title>Node3&#45;&gt;Node2</title>
<path fill="none" stroke="midnightblue" d="M160.099,-15.1918C168.077,-16.6926 177.022,-18.3755 185.851,-20.0363"/>
<polygon fill="midnightblue" stroke="midnightblue" points="185.237,-23.4822 195.712,-21.8913 186.531,-16.6028 185.237,-23.4822"/>
</g>
</g>
</svg>
