<?xml version="1.0" encoding="UTF-8" standalone="no"?>
<!DOCTYPE svg PUBLIC "-//W3C//DTD SVG 1.1//EN"
 "http://www.w3.org/Graphics/SVG/1.1/DTD/svg11.dtd">
<!-- Generated by graphviz version 2.38.0 (20140413.2041)
 -->
<!-- Title: include/fakepoll.h Pages: 1 -->
<svg width="217pt" height="84pt"
 viewBox="0.00 0.00 217.00 84.00" xmlns="http://www.w3.org/2000/svg" xmlns:xlink="http://www.w3.org/1999/xlink">
<g id="graph0" class="graph" transform="scale(1 1) rotate(0) translate(4 80)">
<title>include/fakepoll.h</title>
<polygon fill="white" stroke="none" points="-4,4 -4,-80 213,-80 213,4 -4,4"/>
<!-- Node1 -->
<g id="node1" class="node"><title>Node1</title>
<polygon fill="#bfbfbf" stroke="black" points="46.5,-56.5 46.5,-75.5 144.5,-75.5 144.5,-56.5 46.5,-56.5"/>
<text text-anchor="middle" x="95.5" y="-63.5" font-family="Helvetica,sans-Serif" font-size="10.00">include/fakepoll.h</text>
</g>
<!-- Node2 -->
<g id="node2" class="node"><title>Node2</title>
<g id="a_node2"><a xlink:href="a00170_source.html" target="_top" xlink:title="config.h">
<polygon fill="white" stroke="black" points="0,-0.5 0,-19.5 53,-19.5 53,-0.5 0,-0.5"/>
<text text-anchor="middle" x="26.5" y="-7.5" font-family="Helvetica,sans-Serif" font-size="10.00">config.h</text>
</a>
</g>
</g>
<!-- Node1&#45;&gt;Node2 -->
<g id="edge1" class="edge"><title>Node1&#45;&gt;Node2</title>
<path fill="none" stroke="midnightblue" d="M84.414,-56.324C74.014,-48.1849 58.2394,-35.8395 45.7784,-26.0874"/>
<polygon fill="midnightblue" stroke="midnightblue" points="47.8199,-23.2407 37.7878,-19.8339 43.5057,-28.7533 47.8199,-23.2407"/>
</g>
<!-- Node3 -->
<g id="node3" class="node"><title>Node3</title>
<polygon fill="white" stroke="#bfbfbf" points="71.5,-0.5 71.5,-19.5 119.5,-19.5 119.5,-0.5 71.5,-0.5"/>
<text text-anchor="middle" x="95.5" y="-7.5" font-family="Helvetica,sans-Serif" font-size="10.00">limits.h</text>
</g>
<!-- Node1&#45;&gt;Node3 -->
<g id="edge2" class="edge"><title>Node1&#45;&gt;Node3</title>
<path fill="none" stroke="midnightblue" d="M95.5,-56.083C95.5,-49.0059 95.5,-38.8611 95.5,-29.9865"/>
<polygon fill="midnightblue" stroke="midnightblue" points="99.0001,-29.751 95.5,-19.7511 92.0001,-29.7511 99.0001,-29.751"/>
</g>
<!-- Node4 -->
<g id="node4" class="node"><title>Node4</title>
<polygon fill="white" stroke="#bfbfbf" points="138,-0.5 138,-19.5 209,-19.5 209,-0.5 138,-0.5"/>
<text text-anchor="middle" x="173.5" y="-7.5" font-family="Helvetica,sans-Serif" font-size="10.00">sys/select.h</text>
</g>
<!-- Node1&#45;&gt;Node4 -->
<g id="edge3" class="edge"><title>Node1&#45;&gt;Node4</title>
<path fill="none" stroke="midnightblue" d="M108.032,-56.324C120.086,-47.979 138.527,-35.2122 152.769,-25.3524"/>
<polygon fill="midnightblue" stroke="midnightblue" points="154.769,-28.2243 160.999,-19.6545 150.785,-22.469 154.769,-28.2243"/>
</g>
</g>
</svg>
