<?xml version="1.0" encoding="UTF-8" standalone="no"?>
<!DOCTYPE svg PUBLIC "-//W3C//DTD SVG 1.1//EN"
 "http://www.w3.org/Graphics/SVG/1.1/DTD/svg11.dtd">
<!-- Generated by graphviz version 2.38.0 (20140413.2041)
 -->
<!-- Title: tds_dstr_copyn Pages: 1 -->
<svg width="887pt" height="525pt"
 viewBox="0.00 0.00 887.00 525.00" xmlns="http://www.w3.org/2000/svg" xmlns:xlink="http://www.w3.org/1999/xlink">
<g id="graph0" class="graph" transform="scale(1 1) rotate(0) translate(4 521)">
<title>tds_dstr_copyn</title>
<polygon fill="white" stroke="none" points="-4,4 -4,-521 883,-521 883,4 -4,4"/>
<!-- Node1 -->
<g id="node1" class="node"><title>Node1</title>
<polygon fill="#bfbfbf" stroke="black" points="0,-354.5 0,-373.5 89,-373.5 89,-354.5 0,-354.5"/>
<text text-anchor="middle" x="44.5" y="-361.5" font-family="Helvetica,sans-Serif" font-size="10.00">tds_dstr_copyn</text>
</g>
<!-- Node2 -->
<g id="node2" class="node"><title>Node2</title>
<g id="a_node2"><a xlink:href="a00352.html#gaa9670914093b354e7a123b10ba877813" target="_top" xlink:title="Check the server name to find port info first Warning: connection&#45;&gt; &amp; login&#45;&gt; are all modified when n...">
<polygon fill="white" stroke="black" points="244,-497.5 244,-516.5 399,-516.5 399,-497.5 244,-497.5"/>
<text text-anchor="middle" x="321.5" y="-504.5" font-family="Helvetica,sans-Serif" font-size="10.00">parse_server_name_for_port</text>
</a>
</g>
</g>
<!-- Node1&#45;&gt;Node2 -->
<g id="edge1" class="edge"><title>Node1&#45;&gt;Node2</title>
<path fill="none" stroke="midnightblue" d="M72.4702,-378.252C110.608,-398.377 182.507,-436.217 244,-468 263.6,-478.13 286.106,-489.582 301.607,-497.442"/>
<polygon fill="midnightblue" stroke="midnightblue" points="74.0059,-375.105 63.5286,-373.532 70.7379,-381.295 74.0059,-375.105"/>
</g>
<!-- Node5 -->
<g id="node5" class="node"><title>Node5</title>
<g id="a_node5"><a xlink:href="a00358.html#gad96366d9fa93bfc283cef1299fbe97ab" target="_top" xlink:title="copy a string from another ">
<polygon fill="white" stroke="black" points="125,-288.5 125,-307.5 208,-307.5 208,-288.5 125,-288.5"/>
<text text-anchor="middle" x="166.5" y="-295.5" font-family="Helvetica,sans-Serif" font-size="10.00">tds_dstr_copy</text>
</a>
</g>
</g>
<!-- Node1&#45;&gt;Node5 -->
<g id="edge4" class="edge"><title>Node1&#45;&gt;Node5</title>
<path fill="none" stroke="midnightblue" d="M71.8942,-349.483C95.0367,-336.755 128.025,-318.611 148.03,-307.609"/>
<polygon fill="midnightblue" stroke="midnightblue" points="70.0245,-346.517 62.949,-354.403 73.3979,-352.651 70.0245,-346.517"/>
</g>
<!-- Node3 -->
<g id="node3" class="node"><title>Node3</title>
<g id="a_node3"><a xlink:href="a00352.html#ga9af192306186ddf39e09be0fd4ad8aaf" target="_top" xlink:title="tds_read_config_info() will fill the tds connection structure based on configuration information gath...">
<polygon fill="white" stroke="black" points="613,-378.5 613,-397.5 729,-397.5 729,-378.5 613,-378.5"/>
<text text-anchor="middle" x="671" y="-385.5" font-family="Helvetica,sans-Serif" font-size="10.00">tds_read_config_info</text>
</a>
</g>
</g>
<!-- Node2&#45;&gt;Node3 -->
<g id="edge2" class="edge"><title>Node2&#45;&gt;Node3</title>
<path fill="none" stroke="midnightblue" d="M406.054,-495.815C456.379,-487.221 520.966,-472.853 575,-450 607.469,-436.268 640.978,-411.427 658.199,-397.726"/>
<polygon fill="midnightblue" stroke="midnightblue" points="405.476,-492.363 396.186,-497.457 406.625,-499.268 405.476,-492.363"/>
</g>
<!-- Node4 -->
<g id="node4" class="node"><title>Node4</title>
<g id="a_node4"><a xlink:href="a00347.html#ga2c99ec565452279e9a382451d89642eb" target="_top" xlink:title="Form a connection with the server. ">
<polygon fill="white" stroke="red" points="790,-349.5 790,-368.5 856,-368.5 856,-349.5 790,-349.5"/>
<text text-anchor="middle" x="823" y="-356.5" font-family="Helvetica,sans-Serif" font-size="10.00">tdsdbopen</text>
</a>
</g>
</g>
<!-- Node3&#45;&gt;Node4 -->
<g id="edge3" class="edge"><title>Node3&#45;&gt;Node4</title>
<path fill="none" stroke="midnightblue" d="M731.489,-376.499C751.45,-372.64 772.945,-368.484 789.976,-365.191"/>
<polygon fill="midnightblue" stroke="midnightblue" points="730.685,-373.089 721.531,-378.424 732.014,-379.962 730.685,-373.089"/>
</g>
<!-- Node5&#45;&gt;Node2 -->
<g id="edge10" class="edge"><title>Node5&#45;&gt;Node2</title>
<path fill="none" stroke="midnightblue" d="M174.367,-317.142C190.611,-362.014 231.007,-471.104 244,-483 250.879,-489.298 259.397,-493.943 268.225,-497.369"/>
<polygon fill="midnightblue" stroke="midnightblue" points="177.637,-315.891 170.953,-307.671 171.052,-318.266 177.637,-315.891"/>
</g>
<!-- Node6 -->
<g id="node6" class="node"><title>Node6</title>
<g id="a_node6"><a xlink:href="a00347.html#gae1fc46447c4f8a9ff7f66607b8cd23b6" target="_top" xlink:title="Set the value of a string in a LOGINREC structure. ">
<polygon fill="white" stroke="black" points="286,-383.5 286,-402.5 357,-402.5 357,-383.5 286,-383.5"/>
<text text-anchor="middle" x="321.5" y="-390.5" font-family="Helvetica,sans-Serif" font-size="10.00">dbsetlname</text>
</a>
</g>
</g>
<!-- Node5&#45;&gt;Node6 -->
<g id="edge5" class="edge"><title>Node5&#45;&gt;Node6</title>
<path fill="none" stroke="midnightblue" d="M182.021,-315.329C196.292,-331.341 219.447,-354.744 244,-369 256.76,-376.409 272.069,-381.797 285.628,-385.568"/>
<polygon fill="midnightblue" stroke="midnightblue" points="184.608,-312.97 175.408,-307.717 179.324,-317.561 184.608,-312.97"/>
</g>
<!-- Node7 -->
<g id="node7" class="node"><title>Node7</title>
<g id="a_node7"><a xlink:href="a00352.html#gaca20b6e5f5a5ac1727126712dd39564b" target="_top" xlink:title="Open and read the file &#39;file&#39; searching for a logical server by the name of &#39;host&#39;. ">
<polygon fill="white" stroke="black" points="263.5,-421.5 263.5,-440.5 379.5,-440.5 379.5,-421.5 263.5,-421.5"/>
<text text-anchor="middle" x="321.5" y="-428.5" font-family="Helvetica,sans-Serif" font-size="10.00">search_interface_file</text>
</a>
</g>
</g>
<!-- Node5&#45;&gt;Node7 -->
<g id="edge6" class="edge"><title>Node5&#45;&gt;Node7</title>
<path fill="none" stroke="midnightblue" d="M175.055,-317.096C186.202,-342.726 209.526,-387.823 244,-412 249.826,-416.086 256.442,-419.296 263.286,-421.817"/>
<polygon fill="midnightblue" stroke="midnightblue" points="178.223,-315.599 171.145,-307.716 171.762,-318.293 178.223,-315.599"/>
</g>
<!-- Node8 -->
<g id="node8" class="node"><title>Node8</title>
<g id="a_node8"><a xlink:href="a00352.html#ga6631af35ee817f93827c62bbda41674a" target="_top" xlink:title="Try to find the IP number and port for a (possibly) logical server name. ">
<polygon fill="white" stroke="black" points="449.5,-421.5 449.5,-440.5 560.5,-440.5 560.5,-421.5 449.5,-421.5"/>
<text text-anchor="middle" x="505" y="-428.5" font-family="Helvetica,sans-Serif" font-size="10.00">tds_read_interfaces</text>
</a>
</g>
</g>
<!-- Node5&#45;&gt;Node8 -->
<g id="edge9" class="edge"><title>Node5&#45;&gt;Node8</title>
<path fill="none" stroke="midnightblue" d="M170.744,-317.943C177.488,-352.058 196.547,-420.759 244,-450 278.822,-471.458 394.085,-453.143 458.838,-440.522"/>
<polygon fill="midnightblue" stroke="midnightblue" points="174.134,-317.022 168.906,-307.807 167.247,-318.271 174.134,-317.022"/>
</g>
<!-- Node9 -->
<g id="node9" class="node"><title>Node9</title>
<g id="a_node9"><a xlink:href="a00193.html#ad511d50edc54847d606ce4c9a4945a62" target="_top" xlink:title="Set the servername in a TDSLOGIN structure. ">
<polygon fill="white" stroke="black" points="627.5,-321.5 627.5,-340.5 714.5,-340.5 714.5,-321.5 627.5,-321.5"/>
<text text-anchor="middle" x="671" y="-328.5" font-family="Helvetica,sans-Serif" font-size="10.00">tds_set_server</text>
</a>
</g>
</g>
<!-- Node5&#45;&gt;Node9 -->
<g id="edge11" class="edge"><title>Node5&#45;&gt;Node9</title>
<path fill="none" stroke="midnightblue" d="M218.258,-301.333C317.321,-307.839 534.789,-322.12 627.149,-328.186"/>
<polygon fill="midnightblue" stroke="midnightblue" points="218.404,-297.835 208.196,-300.673 217.945,-304.82 218.404,-297.835"/>
</g>
<!-- Node10 -->
<g id="node10" class="node"><title>Node10</title>
<g id="a_node10"><a xlink:href="a00356.html#ga3a5d1771cacc947521c4077551f0d3a4" target="_top" xlink:title="Substitute ?&#45;style placeholders with named (@param) ones. ">
<polygon fill="white" stroke="black" points="268,-269.5 268,-288.5 375,-288.5 375,-269.5 268,-269.5"/>
<text text-anchor="middle" x="321.5" y="-276.5" font-family="Helvetica,sans-Serif" font-size="10.00">tds5_fix_dot_query</text>
</a>
</g>
</g>
<!-- Node5&#45;&gt;Node10 -->
<g id="edge13" class="edge"><title>Node5&#45;&gt;Node10</title>
<path fill="none" stroke="midnightblue" d="M218.288,-291.693C234.214,-289.715 251.821,-287.529 267.87,-285.536"/>
<polygon fill="midnightblue" stroke="midnightblue" points="217.592,-288.252 208.1,-292.958 218.455,-295.199 217.592,-288.252"/>
</g>
<!-- Node12 -->
<g id="node12" class="node"><title>Node12</title>
<g id="a_node12"><a xlink:href="a00355.html#ga2ef389ac3b0cddec76bf8f1c0951bc9c" target="_top" xlink:title="Initialize login structure with locale information and other stuff for connection. ">
<polygon fill="white" stroke="black" points="465.5,-369.5 465.5,-388.5 544.5,-388.5 544.5,-369.5 465.5,-369.5"/>
<text text-anchor="middle" x="505" y="-376.5" font-family="Helvetica,sans-Serif" font-size="10.00">tds_init_login</text>
</a>
</g>
</g>
<!-- Node5&#45;&gt;Node12 -->
<g id="edge15" class="edge"><title>Node5&#45;&gt;Node12</title>
<path fill="none" stroke="midnightblue" d="M195.762,-312.001C209.954,-318.562 227.583,-326.013 244,-331 320.86,-354.347 414.136,-368.205 465.468,-374.637"/>
<polygon fill="midnightblue" stroke="midnightblue" points="197.079,-308.753 186.543,-307.643 194.087,-315.081 197.079,-308.753"/>
</g>
<!-- Node13 -->
<g id="node13" class="node"><title>Node13</title>
<g id="a_node13"><a xlink:href="a00358.html#gab78cc59b110df2817b00f9bed74c6ff1" target="_top" xlink:title="set a string from another buffer. ">
<polygon fill="white" stroke="black" points="284,-193.5 284,-212.5 359,-212.5 359,-193.5 284,-193.5"/>
<text text-anchor="middle" x="321.5" y="-200.5" font-family="Helvetica,sans-Serif" font-size="10.00">tds_dstr_set</text>
</a>
</g>
</g>
<!-- Node5&#45;&gt;Node13 -->
<g id="edge17" class="edge"><title>Node5&#45;&gt;Node13</title>
<path fill="none" stroke="midnightblue" d="M182.021,-280.671C196.292,-264.659 219.447,-241.256 244,-227 256.158,-219.941 270.63,-214.716 283.698,-210.977"/>
<polygon fill="midnightblue" stroke="midnightblue" points="179.324,-278.439 175.408,-288.283 184.608,-283.03 179.324,-278.439"/>
</g>
<!-- Node14 -->
<g id="node14" class="node"><title>Node14</title>
<g id="a_node14"><a xlink:href="a00359.html#ga905d2fa5e1b602817bd16bb0fcf9eadb" target="_top" xlink:title="tds_process_col_name() is one half of the result set under TDS 4.2 it contains all the column names...">
<polygon fill="white" stroke="black" points="442,-79.5 442,-98.5 568,-98.5 568,-79.5 442,-79.5"/>
<text text-anchor="middle" x="505" y="-86.5" font-family="Helvetica,sans-Serif" font-size="10.00">tds_process_col_name</text>
</a>
</g>
</g>
<!-- Node5&#45;&gt;Node14 -->
<g id="edge18" class="edge"><title>Node5&#45;&gt;Node14</title>
<path fill="none" stroke="midnightblue" d="M169.185,-278.21C173.655,-239.308 189.516,-153.175 244,-113 305.112,-67.9379 397.56,-71.5693 454.176,-79.4654"/>
<polygon fill="midnightblue" stroke="midnightblue" points="165.692,-277.958 168.168,-288.26 172.657,-278.663 165.692,-277.958"/>
</g>
<!-- Node17 -->
<g id="node17" class="node"><title>Node17</title>
<g id="a_node17"><a xlink:href="a00359.html#ga22c7f413d43fc0d511e122a3de389166" target="_top" xlink:title="Reads column information. ">
<polygon fill="white" stroke="black" points="266,-38.5 266,-57.5 377,-57.5 377,-38.5 266,-38.5"/>
<text text-anchor="middle" x="321.5" y="-45.5" font-family="Helvetica,sans-Serif" font-size="10.00">tds_process_colinfo</text>
</a>
</g>
</g>
<!-- Node5&#45;&gt;Node17 -->
<g id="edge22" class="edge"><title>Node5&#45;&gt;Node17</title>
<path fill="none" stroke="midnightblue" d="M168.673,-278.215C172.272,-235.279 186.725,-132.783 244,-75 251.833,-67.0977 262.116,-61.5014 272.592,-57.5404"/>
<polygon fill="midnightblue" stroke="midnightblue" points="165.164,-278.216 167.932,-288.442 172.146,-278.721 165.164,-278.216"/>
</g>
<!-- Node19 -->
<g id="node19" class="node"><title>Node19</title>
<g id="a_node19"><a xlink:href="a00359.html#gae3368ea80d0d8b13791ceb13ee5f19c9" target="_top" xlink:title="tds_process_compute_result() processes compute result sets. ">
<polygon fill="white" stroke="black" points="611,-169 611,-199 731,-199 731,-169 611,-169"/>
<text text-anchor="start" x="619" y="-187" font-family="Helvetica,sans-Serif" font-size="10.00">tds_process_compute</text>
<text text-anchor="middle" x="671" y="-176" font-family="Helvetica,sans-Serif" font-size="10.00">_result</text>
</a>
</g>
</g>
<!-- Node5&#45;&gt;Node19 -->
<g id="edge27" class="edge"><title>Node5&#45;&gt;Node19</title>
<path fill="none" stroke="midnightblue" d="M173.846,-278.807C183.899,-251.924 206.309,-204.098 244,-184 364.405,-119.796 532.527,-148.136 617.047,-168.975"/>
<polygon fill="midnightblue" stroke="midnightblue" points="170.526,-277.697 170.489,-288.292 177.125,-280.033 170.526,-277.697"/>
</g>
<!-- Node20 -->
<g id="node20" class="node"><title>Node20</title>
<g id="a_node20"><a xlink:href="a00359.html#gae5b3e01f3d665f9e377de091f46f1ab9" target="_top" xlink:title="tds_process_compute_names() processes compute result sets. ">
<polygon fill="white" stroke="black" points="611,-120 611,-150 731,-150 731,-120 611,-120"/>
<text text-anchor="start" x="619" y="-138" font-family="Helvetica,sans-Serif" font-size="10.00">tds_process_compute</text>
<text text-anchor="middle" x="671" y="-127" font-family="Helvetica,sans-Serif" font-size="10.00">_names</text>
</a>
</g>
</g>
<!-- Node5&#45;&gt;Node20 -->
<g id="edge29" class="edge"><title>Node5&#45;&gt;Node20</title>
<path fill="none" stroke="midnightblue" d="M170.528,-278.13C176.996,-243.449 195.724,-172.648 244,-142 303.169,-104.437 508.165,-118.649 610.675,-128.568"/>
<polygon fill="midnightblue" stroke="midnightblue" points="167.008,-277.95 168.779,-288.396 173.909,-279.126 167.008,-277.95"/>
</g>
<!-- Node21 -->
<g id="node21" class="node"><title>Node21</title>
<g id="a_node21"><a xlink:href="a00359.html#ga6728e344caa20aea1def85f58dea138b" target="_top" xlink:title="tds7_process_compute_result() processes compute result sets for TDS 7/8. ">
<polygon fill="white" stroke="black" points="442,-218 442,-248 568,-248 568,-218 442,-218"/>
<text text-anchor="start" x="450" y="-236" font-family="Helvetica,sans-Serif" font-size="10.00">tds7_process_compute</text>
<text text-anchor="middle" x="505" y="-225" font-family="Helvetica,sans-Serif" font-size="10.00">_result</text>
</a>
</g>
</g>
<!-- Node5&#45;&gt;Node21 -->
<g id="edge31" class="edge"><title>Node5&#45;&gt;Node21</title>
<path fill="none" stroke="midnightblue" d="M191.53,-283.273C206.163,-275.026 225.54,-265.353 244,-260 309.815,-240.914 388.447,-234.95 441.878,-233.268"/>
<polygon fill="midnightblue" stroke="midnightblue" points="189.545,-280.378 182.656,-288.426 193.061,-286.431 189.545,-280.378"/>
</g>
<!-- Node7&#45;&gt;Node8 -->
<g id="edge7" class="edge"><title>Node7&#45;&gt;Node8</title>
<path fill="none" stroke="midnightblue" d="M390.008,-431C409.596,-431 430.732,-431 449.421,-431"/>
<polygon fill="midnightblue" stroke="midnightblue" points="389.928,-427.5 379.928,-431 389.928,-434.5 389.928,-427.5"/>
</g>
<!-- Node8&#45;&gt;Node3 -->
<g id="edge8" class="edge"><title>Node8&#45;&gt;Node3</title>
<path fill="none" stroke="midnightblue" d="M552.324,-418.854C578.106,-412.094 609.734,-403.802 633.705,-397.516"/>
<polygon fill="midnightblue" stroke="midnightblue" points="551.182,-415.535 542.397,-421.457 552.958,-422.306 551.182,-415.535"/>
</g>
<!-- Node9&#45;&gt;Node4 -->
<g id="edge12" class="edge"><title>Node9&#45;&gt;Node4</title>
<path fill="none" stroke="midnightblue" d="M724.66,-340.83C746.375,-344.883 770.839,-349.45 789.81,-352.991"/>
<polygon fill="midnightblue" stroke="midnightblue" points="725.055,-337.343 714.583,-338.949 723.771,-344.224 725.055,-337.343"/>
</g>
<!-- Node11 -->
<g id="node11" class="node"><title>Node11</title>
<g id="a_node11"><a xlink:href="a00356.html#ga95e0fccedc459a4404f496eec74a369a" target="_top" xlink:title="tds_submit_query_params() sends a language string to the database server for processing. ">
<polygon fill="white" stroke="red" points="435,-269.5 435,-288.5 575,-288.5 575,-269.5 435,-269.5"/>
<text text-anchor="middle" x="505" y="-276.5" font-family="Helvetica,sans-Serif" font-size="10.00">tds_submit_query_params</text>
</a>
</g>
</g>
<!-- Node10&#45;&gt;Node11 -->
<g id="edge14" class="edge"><title>Node10&#45;&gt;Node11</title>
<path fill="none" stroke="midnightblue" d="M385.693,-279C401.533,-279 418.61,-279 434.728,-279"/>
<polygon fill="midnightblue" stroke="midnightblue" points="385.485,-275.5 375.485,-279 385.485,-282.5 385.485,-275.5"/>
</g>
<!-- Node12&#45;&gt;Node3 -->
<g id="edge16" class="edge"><title>Node12&#45;&gt;Node3</title>
<path fill="none" stroke="midnightblue" d="M554.952,-381.686C573.133,-382.684 593.918,-383.825 612.774,-384.86"/>
<polygon fill="midnightblue" stroke="midnightblue" points="555.043,-378.186 544.866,-381.133 554.659,-385.176 555.043,-378.186"/>
</g>
<!-- Node15 -->
<g id="node15" class="node"><title>Node15</title>
<g id="a_node15"><a xlink:href="a00359.html#ga39453d084f3f780ac4602d4abf2839f7" target="_top" xlink:title="tds_process_default_tokens() is a catch all function that is called to process tokens not known to ot...">
<polygon fill="white" stroke="red" points="615,-32 615,-62 727,-62 727,-32 615,-32"/>
<text text-anchor="start" x="623" y="-50" font-family="Helvetica,sans-Serif" font-size="10.00">tds_process_default</text>
<text text-anchor="middle" x="671" y="-39" font-family="Helvetica,sans-Serif" font-size="10.00">_tokens</text>
</a>
</g>
</g>
<!-- Node14&#45;&gt;Node15 -->
<g id="edge19" class="edge"><title>Node14&#45;&gt;Node15</title>
<path fill="none" stroke="midnightblue" d="M552.991,-76.9657C572.3,-72.0207 594.797,-66.2592 614.877,-61.1169"/>
<polygon fill="midnightblue" stroke="midnightblue" points="552.033,-73.598 543.214,-79.4695 553.77,-80.3791 552.033,-73.598"/>
</g>
<!-- Node16 -->
<g id="node16" class="node"><title>Node16</title>
<g id="a_node16"><a xlink:href="a00359.html#gabfc9de1d1fe718818caf63a4be4035a6" target="_top" xlink:title="process all streams. ">
<polygon fill="white" stroke="red" points="767,-103.5 767,-122.5 879,-122.5 879,-103.5 767,-103.5"/>
<text text-anchor="middle" x="823" y="-110.5" font-family="Helvetica,sans-Serif" font-size="10.00">tds_process_tokens</text>
</a>
</g>
</g>
<!-- Node14&#45;&gt;Node16 -->
<g id="edge21" class="edge"><title>Node14&#45;&gt;Node16</title>
<path fill="none" stroke="midnightblue" d="M578.144,-94.4793C635.523,-98.8372 714.595,-104.843 766.953,-108.819"/>
<polygon fill="midnightblue" stroke="midnightblue" points="578.291,-90.9804 568.054,-93.713 577.761,-97.9603 578.291,-90.9804"/>
</g>
<!-- Node15&#45;&gt;Node16 -->
<g id="edge20" class="edge"><title>Node15&#45;&gt;Node16</title>
<path fill="none" stroke="midnightblue" d="M715.905,-66.3184C743.645,-78.524 778.282,-93.764 800.278,-103.442"/>
<polygon fill="midnightblue" stroke="midnightblue" points="716.976,-62.9656 706.413,-62.1417 714.157,-69.3728 716.976,-62.9656"/>
</g>
<!-- Node17&#45;&gt;Node15 -->
<g id="edge23" class="edge"><title>Node17&#45;&gt;Node15</title>
<path fill="none" stroke="midnightblue" d="M387.384,-47.8133C452.886,-47.6248 552.959,-47.3368 614.779,-47.1589"/>
<polygon fill="midnightblue" stroke="midnightblue" points="387.169,-44.3138 377.179,-47.8426 387.189,-51.3138 387.169,-44.3138"/>
</g>
<!-- Node18 -->
<g id="node18" class="node"><title>Node18</title>
<g id="a_node18"><a xlink:href="a00359.html#gaeec59bca9bd0c5388e245f0d19d9c81a" target="_top" xlink:title="Process list of table from network. ">
<polygon fill="white" stroke="black" points="444.5,-0.5 444.5,-19.5 565.5,-19.5 565.5,-0.5 444.5,-0.5"/>
<text text-anchor="middle" x="505" y="-7.5" font-family="Helvetica,sans-Serif" font-size="10.00">tds_process_tabname</text>
</a>
</g>
</g>
<!-- Node17&#45;&gt;Node18 -->
<g id="edge24" class="edge"><title>Node17&#45;&gt;Node18</title>
<path fill="none" stroke="midnightblue" d="M378.292,-36.319C404.031,-30.9301 434.199,-24.6139 458.529,-19.5201"/>
<polygon fill="midnightblue" stroke="midnightblue" points="377.371,-32.936 368.3,-38.411 378.805,-39.7874 377.371,-32.936"/>
</g>
<!-- Node18&#45;&gt;Node15 -->
<g id="edge25" class="edge"><title>Node18&#45;&gt;Node15</title>
<path fill="none" stroke="midnightblue" d="M558.042,-21.7411C576.163,-25.8296 596.549,-30.4286 614.909,-34.571"/>
<polygon fill="midnightblue" stroke="midnightblue" points="558.759,-18.3151 548.234,-19.5284 557.219,-25.1435 558.759,-18.3151"/>
</g>
<!-- Node18&#45;&gt;Node16 -->
<g id="edge26" class="edge"><title>Node18&#45;&gt;Node16</title>
<path fill="none" stroke="midnightblue" d="M575.735,-1.1723C621.768,1.69984 682.338,-0.30725 731,-22 770.997,-39.8301 803.091,-83.7004 815.938,-103.285"/>
<polygon fill="midnightblue" stroke="midnightblue" points="575.275,2.30389 565.551,-1.90128 575.775,-4.67825 575.275,2.30389"/>
</g>
<!-- Node19&#45;&gt;Node16 -->
<g id="edge28" class="edge"><title>Node19&#45;&gt;Node16</title>
<path fill="none" stroke="midnightblue" d="M718.175,-164.787C722.527,-162.87 726.858,-160.922 731,-159 756.693,-147.079 785.817,-132.091 804.046,-122.526"/>
<polygon fill="midnightblue" stroke="midnightblue" points="716.456,-161.717 708.677,-168.91 719.244,-168.138 716.456,-161.717"/>
</g>
<!-- Node20&#45;&gt;Node16 -->
<g id="edge30" class="edge"><title>Node20&#45;&gt;Node16</title>
<path fill="none" stroke="midnightblue" d="M741.194,-124.852C749.698,-123.604 758.302,-122.342 766.565,-121.13"/>
<polygon fill="midnightblue" stroke="midnightblue" points="740.67,-121.391 731.284,-126.305 741.686,-128.317 740.67,-121.391"/>
</g>
<!-- Node21&#45;&gt;Node16 -->
<g id="edge32" class="edge"><title>Node21&#45;&gt;Node16</title>
<path fill="none" stroke="midnightblue" d="M578.552,-237.269C624.457,-237.069 683.824,-231.302 731,-208 771.34,-188.075 803.483,-142.559 816.155,-122.637"/>
<polygon fill="midnightblue" stroke="midnightblue" points="578.394,-233.768 568.378,-237.224 578.362,-240.768 578.394,-233.768"/>
</g>
</g>
</svg>
