<?xml version="1.0" encoding="UTF-8" standalone="no"?>
<!DOCTYPE svg PUBLIC "-//W3C//DTD SVG 1.1//EN"
 "http://www.w3.org/Graphics/SVG/1.1/DTD/svg11.dtd">
<!-- Generated by graphviz version 2.38.0 (20140413.2041)
 -->
<!-- Title: include/fakepoll.h Pages: 1 -->
<svg width="1291pt" height="196pt"
 viewBox="0.00 0.00 1290.50 196.00" xmlns="http://www.w3.org/2000/svg" xmlns:xlink="http://www.w3.org/1999/xlink">
<g id="graph0" class="graph" transform="scale(1 1) rotate(0) translate(4 192)">
<title>include/fakepoll.h</title>
<polygon fill="white" stroke="none" points="-4,4 -4,-192 1286.5,-192 1286.5,4 -4,4"/>
<!-- Node1 -->
<g id="node1" class="node"><title>Node1</title>
<polygon fill="#bfbfbf" stroke="black" points="194,-168.5 194,-187.5 292,-187.5 292,-168.5 194,-168.5"/>
<text text-anchor="middle" x="243" y="-175.5" font-family="Helvetica,sans-Serif" font-size="10.00">include/fakepoll.h</text>
</g>
<!-- Node2 -->
<g id="node2" class="node"><title>Node2</title>
<g id="a_node2"><a xlink:href="a00202_source.html" target="_top" xlink:title="include/replacements.h">
<polygon fill="white" stroke="black" points="180.5,-112.5 180.5,-131.5 305.5,-131.5 305.5,-112.5 180.5,-112.5"/>
<text text-anchor="middle" x="243" y="-119.5" font-family="Helvetica,sans-Serif" font-size="10.00">include/replacements.h</text>
</a>
</g>
</g>
<!-- Node1&#45;&gt;Node2 -->
<g id="edge1" class="edge"><title>Node1&#45;&gt;Node2</title>
<path fill="none" stroke="midnightblue" d="M243,-157.805C243,-148.91 243,-138.78 243,-131.751"/>
<polygon fill="midnightblue" stroke="midnightblue" points="239.5,-158.083 243,-168.083 246.5,-158.083 239.5,-158.083"/>
</g>
<!-- Node3 -->
<g id="node3" class="node"><title>Node3</title>
<g id="a_node3"><a xlink:href="a00233.html" target="_top" xlink:title="Implementation of db&#45;lib bulk copy functions. ">
<polygon fill="white" stroke="black" points="0,-0.5 0,-19.5 82,-19.5 82,-0.5 0,-0.5"/>
<text text-anchor="middle" x="41" y="-7.5" font-family="Helvetica,sans-Serif" font-size="10.00">src/dblib/bcp.c</text>
</a>
</g>
</g>
<!-- Node2&#45;&gt;Node3 -->
<g id="edge2" class="edge"><title>Node2&#45;&gt;Node3</title>
<path fill="none" stroke="midnightblue" d="M218.111,-107.446C175.968,-84.4973 91.74,-38.6307 56.777,-19.5914"/>
<polygon fill="midnightblue" stroke="midnightblue" points="216.693,-110.66 227.149,-112.368 220.041,-104.512 216.693,-110.66"/>
</g>
<!-- Node4 -->
<g id="node4" class="node"><title>Node4</title>
<g id="a_node4"><a xlink:href="a00235.html" target="_top" xlink:title="Main implementation file for db&#45;lib. ">
<polygon fill="white" stroke="black" points="100,-0.5 100,-19.5 186,-19.5 186,-0.5 100,-0.5"/>
<text text-anchor="middle" x="143" y="-7.5" font-family="Helvetica,sans-Serif" font-size="10.00">src/dblib/dblib.c</text>
</a>
</g>
</g>
<!-- Node2&#45;&gt;Node4 -->
<g id="edge3" class="edge"><title>Node2&#45;&gt;Node4</title>
<path fill="none" stroke="midnightblue" d="M228.361,-104.897C206.862,-81.2486 167.499,-37.9493 150.81,-19.5914"/>
<polygon fill="midnightblue" stroke="midnightblue" points="225.837,-107.323 235.153,-112.368 231.016,-102.615 225.837,-107.323"/>
</g>
<!-- Node5 -->
<g id="node5" class="node"><title>Node5</title>
<g id="a_node5"><a xlink:href="a00294.html" target="_top" xlink:title="Handle bulk copy. ">
<polygon fill="white" stroke="black" points="204.5,-0.5 204.5,-19.5 281.5,-19.5 281.5,-0.5 204.5,-0.5"/>
<text text-anchor="middle" x="243" y="-7.5" font-family="Helvetica,sans-Serif" font-size="10.00">src/tds/bulk.c</text>
</a>
</g>
</g>
<!-- Node2&#45;&gt;Node5 -->
<g id="edge4" class="edge"><title>Node2&#45;&gt;Node5</title>
<path fill="none" stroke="midnightblue" d="M243,-102.348C243,-78.2538 243,-37.3079 243,-19.5914"/>
<polygon fill="midnightblue" stroke="midnightblue" points="239.5,-102.368 243,-112.368 246.5,-102.369 239.5,-102.368"/>
</g>
<!-- Node6 -->
<g id="node6" class="node"><title>Node6</title>
<g id="a_node6"><a xlink:href="a00326.html" target="_top" xlink:title="Contains all routines to get replies from server. ">
<polygon fill="white" stroke="black" points="299.5,-0.5 299.5,-19.5 384.5,-19.5 384.5,-0.5 299.5,-0.5"/>
<text text-anchor="middle" x="342" y="-7.5" font-family="Helvetica,sans-Serif" font-size="10.00">src/tds/token.c</text>
</a>
</g>
</g>
<!-- Node2&#45;&gt;Node6 -->
<g id="edge5" class="edge"><title>Node2&#45;&gt;Node6</title>
<path fill="none" stroke="midnightblue" d="M257.493,-104.897C278.776,-81.2486 317.746,-37.9493 334.268,-19.5914"/>
<polygon fill="midnightblue" stroke="midnightblue" points="254.857,-102.594 250.768,-112.368 260.06,-107.277 254.857,-102.594"/>
</g>
<!-- Node7 -->
<g id="node7" class="node"><title>Node7</title>
<g id="a_node7"><a xlink:href="a00193.html" target="_top" xlink:title="Main include file for libtds. ">
<polygon fill="white" stroke="black" points="491.5,-56.5 491.5,-75.5 602.5,-75.5 602.5,-56.5 491.5,-56.5"/>
<text text-anchor="middle" x="547" y="-63.5" font-family="Helvetica,sans-Serif" font-size="10.00">include/freetds/tds.h</text>
</a>
</g>
</g>
<!-- Node2&#45;&gt;Node7 -->
<g id="edge6" class="edge"><title>Node2&#45;&gt;Node7</title>
<path fill="none" stroke="midnightblue" d="M301.187,-110.664C358.637,-100.459 445.449,-85.0386 499.056,-75.5164"/>
<polygon fill="midnightblue" stroke="midnightblue" points="300.403,-107.248 291.17,-112.444 301.628,-114.141 300.403,-107.248"/>
</g>
<!-- Node7&#45;&gt;Node3 -->
<g id="edge7" class="edge"><title>Node7&#45;&gt;Node3</title>
<path fill="none" stroke="midnightblue" d="M481.183,-60.1619C392.366,-53.2551 229.32,-39.2425 91,-20 88.1171,-19.5989 85.1467,-19.1517 82.1591,-18.6769"/>
<polygon fill="midnightblue" stroke="midnightblue" points="481.138,-63.6687 491.378,-60.9487 481.677,-56.6895 481.138,-63.6687"/>
</g>
<!-- Node7&#45;&gt;Node4 -->
<g id="edge8" class="edge"><title>Node7&#45;&gt;Node4</title>
<path fill="none" stroke="midnightblue" d="M481.305,-57.4816C410.51,-49.174 294.586,-34.9761 195,-20 192.101,-19.564 189.114,-19.0964 186.106,-18.6118"/>
<polygon fill="midnightblue" stroke="midnightblue" points="481.077,-60.9786 491.416,-58.6639 481.89,-54.026 481.077,-60.9786"/>
</g>
<!-- Node7&#45;&gt;Node5 -->
<g id="edge11" class="edge"><title>Node7&#45;&gt;Node5</title>
<path fill="none" stroke="midnightblue" d="M486.651,-54.7112C434.539,-45.7601 357.25,-32.3256 290,-20 287.303,-19.5057 284.521,-18.9894 281.72,-18.4648"/>
<polygon fill="midnightblue" stroke="midnightblue" points="486.28,-58.1985 496.728,-56.44 487.463,-51.2993 486.28,-58.1985"/>
</g>
<!-- Node7&#45;&gt;Node6 -->
<g id="edge16" class="edge"><title>Node7&#45;&gt;Node6</title>
<path fill="none" stroke="midnightblue" d="M504.592,-53.8291C465.886,-43.6333 409.507,-28.7823 374.331,-19.5164"/>
<polygon fill="midnightblue" stroke="midnightblue" points="503.955,-57.2808 514.517,-56.4435 505.739,-50.5117 503.955,-57.2808"/>
</g>
<!-- Node8 -->
<g id="node8" class="node"><title>Node8</title>
<g id="a_node8"><a xlink:href="a00261_source.html" target="_top" xlink:title="src/pool/pool.h">
<polygon fill="white" stroke="black" points="845,-0.5 845,-19.5 931,-19.5 931,-0.5 845,-0.5"/>
<text text-anchor="middle" x="888" y="-7.5" font-family="Helvetica,sans-Serif" font-size="10.00">src/pool/pool.h</text>
</a>
</g>
</g>
<!-- Node7&#45;&gt;Node8 -->
<g id="edge9" class="edge"><title>Node7&#45;&gt;Node8</title>
<path fill="none" stroke="midnightblue" d="M612.948,-55.0559C671.557,-46.1409 759.544,-32.5678 836,-20 838.893,-19.5244 841.875,-19.0272 844.879,-18.521"/>
<polygon fill="midnightblue" stroke="midnightblue" points="612.078,-51.6477 602.717,-56.6101 613.13,-58.5683 612.078,-51.6477"/>
</g>
<!-- Node9 -->
<g id="node9" class="node"><title>Node9</title>
<g id="a_node9"><a xlink:href="a00274.html" target="_top" xlink:title="This file implements a very simple iconv. ">
<polygon fill="white" stroke="black" points="949.5,-0.5 949.5,-19.5 1082.5,-19.5 1082.5,-0.5 949.5,-0.5"/>
<text text-anchor="middle" x="1016" y="-7.5" font-family="Helvetica,sans-Serif" font-size="10.00">src/replacements/iconv.c</text>
</a>
</g>
</g>
<!-- Node7&#45;&gt;Node9 -->
<g id="edge10" class="edge"><title>Node7&#45;&gt;Node9</title>
<path fill="none" stroke="midnightblue" d="M612.822,-57.5418C690.887,-48.6782 824.939,-33.4002 940,-20 943.035,-19.6465 946.139,-19.2839 949.274,-18.9166"/>
<polygon fill="midnightblue" stroke="midnightblue" points="612.194,-54.0905 602.653,-58.6961 612.984,-61.0458 612.194,-54.0905"/>
</g>
<!-- Node10 -->
<g id="node10" class="node"><title>Node10</title>
<g id="a_node10"><a xlink:href="a00298.html" target="_top" xlink:title="Handle different data handling from network. ">
<polygon fill="white" stroke="black" points="1101,-0.5 1101,-19.5 1181,-19.5 1181,-0.5 1101,-0.5"/>
<text text-anchor="middle" x="1141" y="-7.5" font-family="Helvetica,sans-Serif" font-size="10.00">src/tds/data.c</text>
</a>
</g>
</g>
<!-- Node7&#45;&gt;Node10 -->
<g id="edge12" class="edge"><title>Node7&#45;&gt;Node10</title>
<path fill="none" stroke="midnightblue" d="M612.717,-61.6852C715.355,-56.0332 919.803,-42.8656 1092,-20 1094.92,-19.6129 1097.92,-19.1699 1100.94,-18.6926"/>
<polygon fill="midnightblue" stroke="midnightblue" points="612.303,-58.2025 602.508,-62.2411 612.684,-65.1922 612.303,-58.2025"/>
</g>
<!-- Node11 -->
<g id="node11" class="node"><title>Node11</title>
<g id="a_node11"><a xlink:href="a00275.html" target="_top" xlink:title="Handle character conversions to/from server. ">
<polygon fill="white" stroke="black" points="1199.5,-0.5 1199.5,-19.5 1282.5,-19.5 1282.5,-0.5 1199.5,-0.5"/>
<text text-anchor="middle" x="1241" y="-7.5" font-family="Helvetica,sans-Serif" font-size="10.00">src/tds/iconv.c</text>
</a>
</g>
</g>
<!-- Node7&#45;&gt;Node11 -->
<g id="edge13" class="edge"><title>Node7&#45;&gt;Node11</title>
<path fill="none" stroke="midnightblue" d="M612.857,-62.6705C729.528,-58.036 980.029,-45.8021 1190,-20 1193.03,-19.6272 1196.16,-19.1946 1199.3,-18.7248"/>
<polygon fill="midnightblue" stroke="midnightblue" points="612.519,-59.1809 602.664,-63.0695 612.793,-66.1756 612.519,-59.1809"/>
</g>
<!-- Node12 -->
<g id="node12" class="node"><title>Node12</title>
<g id="a_node12"><a xlink:href="a00315.html" target="_top" xlink:title="Grab data from TDS packets. ">
<polygon fill="white" stroke="black" points="403,-0.5 403,-19.5 483,-19.5 483,-0.5 403,-0.5"/>
<text text-anchor="middle" x="443" y="-7.5" font-family="Helvetica,sans-Serif" font-size="10.00">src/tds/read.c</text>
</a>
</g>
</g>
<!-- Node7&#45;&gt;Node12 -->
<g id="edge14" class="edge"><title>Node7&#45;&gt;Node12</title>
<path fill="none" stroke="midnightblue" d="M521.172,-51.5895C501.943,-41.6052 476.255,-28.2672 459.668,-19.6545"/>
<polygon fill="midnightblue" stroke="midnightblue" points="519.803,-54.822 530.291,-56.324 523.029,-48.6095 519.803,-54.822"/>
</g>
<!-- Node13 -->
<g id="node13" class="node"><title>Node13</title>
<g id="a_node13"><a xlink:href="a00263.html" target="_top" xlink:title="Handle stream of data. ">
<polygon fill="white" stroke="black" points="501.5,-0.5 501.5,-19.5 592.5,-19.5 592.5,-0.5 501.5,-0.5"/>
<text text-anchor="middle" x="547" y="-7.5" font-family="Helvetica,sans-Serif" font-size="10.00">src/tds/stream.c</text>
</a>
</g>
</g>
<!-- Node7&#45;&gt;Node13 -->
<g id="edge15" class="edge"><title>Node7&#45;&gt;Node13</title>
<path fill="none" stroke="midnightblue" d="M547,-45.8045C547,-36.9102 547,-26.7798 547,-19.7511"/>
<polygon fill="midnightblue" stroke="midnightblue" points="543.5,-46.083 547,-56.083 550.5,-46.083 543.5,-46.083"/>
</g>
<!-- Node14 -->
<g id="node14" class="node"><title>Node14</title>
<g id="a_node14"><a xlink:href="a00174_source.html" target="_top" xlink:title="include/ctlib.h">
<polygon fill="white" stroke="black" points="610.5,-0.5 610.5,-19.5 689.5,-19.5 689.5,-0.5 610.5,-0.5"/>
<text text-anchor="middle" x="650" y="-7.5" font-family="Helvetica,sans-Serif" font-size="10.00">include/ctlib.h</text>
</a>
</g>
</g>
<!-- Node7&#45;&gt;Node14 -->
<g id="edge17" class="edge"><title>Node7&#45;&gt;Node14</title>
<path fill="none" stroke="midnightblue" d="M572.579,-51.5895C591.623,-41.6052 617.064,-28.2672 633.492,-19.6545"/>
<polygon fill="midnightblue" stroke="midnightblue" points="570.78,-48.5808 563.549,-56.324 574.031,-54.7805 570.78,-48.5808"/>
</g>
<!-- Node15 -->
<g id="node15" class="node"><title>Node15</title>
<g id="a_node15"><a xlink:href="a00185_source.html" target="_top" xlink:title="include/freetds/odbc.h">
<polygon fill="white" stroke="black" points="707.5,-0.5 707.5,-19.5 826.5,-19.5 826.5,-0.5 707.5,-0.5"/>
<text text-anchor="middle" x="767" y="-7.5" font-family="Helvetica,sans-Serif" font-size="10.00">include/freetds/odbc.h</text>
</a>
</g>
</g>
<!-- Node7&#45;&gt;Node15 -->
<g id="edge18" class="edge"><title>Node7&#45;&gt;Node15</title>
<path fill="none" stroke="midnightblue" d="M591.718,-54.0237C633.276,-43.8232 694.313,-28.8414 732.303,-19.5164"/>
<polygon fill="midnightblue" stroke="midnightblue" points="590.737,-50.6606 581.86,-56.4435 592.406,-57.4588 590.737,-50.6606"/>
</g>
</g>
</svg>
