<?xml version="1.0" encoding="UTF-8" standalone="no"?>
<!DOCTYPE svg PUBLIC "-//W3C//DTD SVG 1.1//EN"
 "http://www.w3.org/Graphics/SVG/1.1/DTD/svg11.dtd">
<!-- Generated by graphviz version 2.38.0 (20140413.2041)
 -->
<!-- Title: tds_process_col_name Pages: 1 -->
<svg width="889pt" height="517pt"
 viewBox="0.00 0.00 889.00 516.76" xmlns="http://www.w3.org/2000/svg" xmlns:xlink="http://www.w3.org/1999/xlink">
<g id="graph0" class="graph" transform="scale(1 1) rotate(0) translate(4 512.76)">
<title>tds_process_col_name</title>
<polygon fill="white" stroke="none" points="-4,4 -4,-512.76 885,-512.76 885,4 -4,4"/>
<!-- Node1 -->
<g id="node1" class="node"><title>Node1</title>
<polygon fill="#bfbfbf" stroke="black" points="0,-484.916 0,-503.916 126,-503.916 126,-484.916 0,-484.916"/>
<text text-anchor="middle" x="63" y="-491.916" font-family="Helvetica,sans-Serif" font-size="10.00">tds_process_col_name</text>
</g>
<!-- Node2 -->
<g id="node2" class="node"><title>Node2</title>
<g id="a_node2"><a xlink:href="a00359.html#ga39453d084f3f780ac4602d4abf2839f7" target="_top" xlink:title="tds_process_default_tokens() is a catch all function that is called to process tokens not known to ot...">
<polygon fill="white" stroke="black" points="162,-425.416 162,-455.416 274,-455.416 274,-425.416 162,-425.416"/>
<text text-anchor="start" x="170" y="-443.416" font-family="Helvetica,sans-Serif" font-size="10.00">tds_process_default</text>
<text text-anchor="middle" x="218" y="-432.416" font-family="Helvetica,sans-Serif" font-size="10.00">_tokens</text>
</a>
</g>
</g>
<!-- Node1&#45;&gt;Node2 -->
<g id="edge1" class="edge"><title>Node1&#45;&gt;Node2</title>
<path fill="none" stroke="midnightblue" d="M100.712,-481.459C122.883,-473.634 151.233,-463.628 174.39,-455.455"/>
<polygon fill="midnightblue" stroke="midnightblue" points="99.2662,-478.258 91.0011,-484.886 101.596,-484.859 99.2662,-478.258"/>
</g>
<!-- Node4 -->
<g id="node4" class="node"><title>Node4</title>
<g id="a_node4"><a xlink:href="a00359.html#gabfc9de1d1fe718818caf63a4be4035a6" target="_top" xlink:title="process all streams. ">
<polygon fill="white" stroke="black" points="446,-292.916 446,-311.916 558,-311.916 558,-292.916 446,-292.916"/>
<text text-anchor="middle" x="502" y="-299.916" font-family="Helvetica,sans-Serif" font-size="10.00">tds_process_tokens</text>
</a>
</g>
</g>
<!-- Node1&#45;&gt;Node4 -->
<g id="edge23" class="edge"><title>Node1&#45;&gt;Node4</title>
<path fill="none" stroke="midnightblue" d="M134.638,-505.002C209.192,-512.379 327.153,-512.888 410,-459.416 465.852,-423.368 491.455,-340.087 498.73,-311.923"/>
<polygon fill="midnightblue" stroke="midnightblue" points="134.727,-501.491 124.414,-503.92 133.991,-508.453 134.727,-501.491"/>
</g>
<!-- Node3 -->
<g id="node3" class="node"><title>Node3</title>
<g id="a_node3"><a xlink:href="a00359.html#ga93945b42d45ee28ae1296b35a1c1e9bb" target="_top" xlink:title="tds_process_login_tokens() is called after sending the login packet to the server. ">
<polygon fill="white" stroke="black" points="741,-444.916 741,-463.916 881,-463.916 881,-444.916 741,-444.916"/>
<text text-anchor="middle" x="811" y="-451.916" font-family="Helvetica,sans-Serif" font-size="10.00">tds_process_login_tokens</text>
</a>
</g>
</g>
<!-- Node2&#45;&gt;Node3 -->
<g id="edge2" class="edge"><title>Node2&#45;&gt;Node3</title>
<path fill="none" stroke="midnightblue" d="M280.887,-458.059C373.593,-482.006 553.795,-518.936 705,-492.416 735.743,-487.024 769.347,-473.385 790.054,-464.004"/>
<polygon fill="midnightblue" stroke="midnightblue" points="281.668,-454.646 271.107,-455.497 279.893,-461.417 281.668,-454.646"/>
</g>
<!-- Node2&#45;&gt;Node4 -->
<g id="edge3" class="edge"><title>Node2&#45;&gt;Node4</title>
<path fill="none" stroke="midnightblue" d="M258.708,-420.985C319.981,-391 435.307,-334.564 481.317,-312.048"/>
<polygon fill="midnightblue" stroke="midnightblue" points="257.159,-417.846 249.716,-425.385 260.236,-424.133 257.159,-417.846"/>
</g>
<!-- Node18 -->
<g id="node18" class="node"><title>Node18</title>
<g id="a_node18"><a xlink:href="a00359.html#ga81cdf0ed9e8d29cf1ddf66e18efc407d" target="_top" xlink:title="tds_process_msg() is called for MSG, ERR, or EED tokens and is responsible for calling the CLI&#39;s mess...">
<polygon fill="white" stroke="black" points="310,-430.916 310,-449.916 410,-449.916 410,-430.916 310,-430.916"/>
<text text-anchor="middle" x="360" y="-437.916" font-family="Helvetica,sans-Serif" font-size="10.00">tds_process_msg</text>
</a>
</g>
</g>
<!-- Node2&#45;&gt;Node18 -->
<g id="edge20" class="edge"><title>Node2&#45;&gt;Node18</title>
<path fill="none" stroke="midnightblue" d="M284.369,-433.679C292.983,-433.63 301.69,-433.718 309.967,-433.943"/>
<polygon fill="midnightblue" stroke="midnightblue" points="284.289,-430.18 274.332,-433.8 284.373,-437.18 284.289,-430.18"/>
</g>
<!-- Node5 -->
<g id="node5" class="node"><title>Node5</title>
<g id="a_node5"><a xlink:href="a00344.html#gae67546338cb9542a4902aa914f57f314" target="_top" xlink:title="_bcp_exec_out">
<polygon fill="white" stroke="red" points="605.5,-349.916 605.5,-368.916 693.5,-368.916 693.5,-349.916 605.5,-349.916"/>
<text text-anchor="middle" x="649.5" y="-356.916" font-family="Helvetica,sans-Serif" font-size="10.00">_bcp_exec_out</text>
</a>
</g>
</g>
<!-- Node4&#45;&gt;Node5 -->
<g id="edge4" class="edge"><title>Node4&#45;&gt;Node5</title>
<path fill="none" stroke="midnightblue" d="M534.585,-316.155C552.006,-323.594 574.084,-332.794 594,-340.416 602.423,-343.64 611.659,-346.945 620.096,-349.876"/>
<polygon fill="midnightblue" stroke="midnightblue" points="535.487,-312.733 524.917,-312.004 532.725,-319.165 535.487,-312.733"/>
</g>
<!-- Node6 -->
<g id="node6" class="node"><title>Node6</title>
<g id="a_node6"><a xlink:href="a00341.html#gaf1879b85e8238c015b9648d077665285" target="_top" xlink:title="_dbresults">
<polygon fill="white" stroke="red" points="617,-311.916 617,-330.916 682,-330.916 682,-311.916 617,-311.916"/>
<text text-anchor="middle" x="649.5" y="-318.916" font-family="Helvetica,sans-Serif" font-size="10.00">_dbresults</text>
</a>
</g>
</g>
<!-- Node4&#45;&gt;Node6 -->
<g id="edge5" class="edge"><title>Node4&#45;&gt;Node6</title>
<path fill="none" stroke="midnightblue" d="M568.348,-310.95C585.118,-313.14 602.418,-315.399 616.634,-317.255"/>
<polygon fill="midnightblue" stroke="midnightblue" points="568.376,-307.424 558.007,-309.599 567.47,-314.365 568.376,-307.424"/>
</g>
<!-- Node7 -->
<g id="node7" class="node"><title>Node7</title>
<g id="a_node7"><a xlink:href="a00342.html#gaff09873008411a0573f6d1a9e6c7cf4b" target="_top" xlink:title="Get count of output parameters filled by a stored procedure. ">
<polygon fill="white" stroke="red" points="617,-273.916 617,-292.916 682,-292.916 682,-273.916 617,-273.916"/>
<text text-anchor="middle" x="649.5" y="-280.916" font-family="Helvetica,sans-Serif" font-size="10.00">dbnumrets</text>
</a>
</g>
</g>
<!-- Node4&#45;&gt;Node7 -->
<g id="edge6" class="edge"><title>Node4&#45;&gt;Node7</title>
<path fill="none" stroke="midnightblue" d="M568.348,-293.883C585.118,-291.693 602.418,-289.434 616.634,-287.577"/>
<polygon fill="midnightblue" stroke="midnightblue" points="567.47,-290.468 558.007,-295.233 568.376,-297.409 567.47,-290.468"/>
</g>
<!-- Node8 -->
<g id="node8" class="node"><title>Node8</title>
<g id="a_node8"><a xlink:href="a00341.html#gae1f50a6a2c31fda57cb481922b06841e" target="_top" xlink:title="Wait for results of a query from the server. ">
<polygon fill="white" stroke="red" points="623,-235.916 623,-254.916 676,-254.916 676,-235.916 623,-235.916"/>
<text text-anchor="middle" x="649.5" y="-242.916" font-family="Helvetica,sans-Serif" font-size="10.00">dbsqlok</text>
</a>
</g>
</g>
<!-- Node4&#45;&gt;Node8 -->
<g id="edge7" class="edge"><title>Node4&#45;&gt;Node8</title>
<path fill="none" stroke="midnightblue" d="M534.585,-288.678C552.006,-281.239 574.084,-272.038 594,-264.416 603.358,-260.835 613.722,-257.152 622.877,-253.994"/>
<polygon fill="midnightblue" stroke="midnightblue" points="532.725,-285.667 524.917,-292.829 535.487,-292.099 532.725,-285.667"/>
</g>
<!-- Node9 -->
<g id="node9" class="node"><title>Node9</title>
<g id="a_node9"><a xlink:href="a00341.html#ga548153eb2eae76c48aa9d4b72258dc1c" target="_top" xlink:title="Send text or image data to the server. ">
<polygon fill="white" stroke="black" points="777,-216.916 777,-235.916 845,-235.916 845,-216.916 777,-216.916"/>
<text text-anchor="middle" x="811" y="-223.916" font-family="Helvetica,sans-Serif" font-size="10.00">dbwritetext</text>
</a>
</g>
</g>
<!-- Node4&#45;&gt;Node9 -->
<g id="edge10" class="edge"><title>Node4&#45;&gt;Node9</title>
<path fill="none" stroke="midnightblue" d="M517.031,-285.037C533.279,-266.437 561.949,-238.04 594,-226.416 655.517,-204.106 733.53,-212.211 776.967,-219.633"/>
<polygon fill="midnightblue" stroke="midnightblue" points="514.254,-282.901 510.473,-292.798 519.6,-287.419 514.254,-282.901"/>
</g>
<!-- Node10 -->
<g id="node10" class="node"><title>Node10</title>
<g id="a_node10"><a xlink:href="a00341.html#ga559e24ba70d0d96c3469eb6ab8f74e05" target="_top" xlink:title="Cancel the query currently being retrieved, discarding all pending rows. ">
<polygon fill="white" stroke="red" points="614,-159.916 614,-178.916 685,-178.916 685,-159.916 614,-159.916"/>
<text text-anchor="middle" x="649.5" y="-166.916" font-family="Helvetica,sans-Serif" font-size="10.00">dbcanquery</text>
</a>
</g>
</g>
<!-- Node4&#45;&gt;Node10 -->
<g id="edge9" class="edge"><title>Node4&#45;&gt;Node10</title>
<path fill="none" stroke="midnightblue" d="M514.472,-283.977C529.994,-260.303 559.719,-219.207 594,-193.416 601.849,-187.512 611.377,-182.684 620.258,-178.948"/>
<polygon fill="midnightblue" stroke="midnightblue" points="511.34,-282.377 508.89,-292.685 517.233,-286.155 511.34,-282.377"/>
</g>
<!-- Node11 -->
<g id="node11" class="node"><title>Node11</title>
<g id="a_node11"><a xlink:href="a00341.html#gadd5685565c8c6c86079e17b8a73b324c" target="_top" xlink:title="Fetch part of a text or image value from the server. ">
<polygon fill="white" stroke="black" points="616,-121.916 616,-140.916 683,-140.916 683,-121.916 616,-121.916"/>
<text text-anchor="middle" x="649.5" y="-128.916" font-family="Helvetica,sans-Serif" font-size="10.00">dbreadtext</text>
</a>
</g>
</g>
<!-- Node4&#45;&gt;Node11 -->
<g id="edge11" class="edge"><title>Node4&#45;&gt;Node11</title>
<path fill="none" stroke="midnightblue" d="M509.573,-283.092C521.44,-251.012 549.431,-186.709 594,-150.416 600.294,-145.291 608.061,-141.507 615.739,-138.729"/>
<polygon fill="midnightblue" stroke="midnightblue" points="506.227,-282.055 506.166,-292.649 512.821,-284.405 506.227,-282.055"/>
</g>
<!-- Node12 -->
<g id="node12" class="node"><title>Node12</title>
<g id="a_node12"><a xlink:href="a00341.html#gac980139b9cea03cf93e373d425991481" target="_top" xlink:title="Transmit the command buffer to the server. ">
<polygon fill="white" stroke="red" points="617,-83.9163 617,-102.916 682,-102.916 682,-83.9163 617,-83.9163"/>
<text text-anchor="middle" x="649.5" y="-90.9163" font-family="Helvetica,sans-Serif" font-size="10.00">dbsqlsend</text>
</a>
</g>
</g>
<!-- Node4&#45;&gt;Node12 -->
<g id="edge12" class="edge"><title>Node4&#45;&gt;Node12</title>
<path fill="none" stroke="midnightblue" d="M507.141,-282.624C516.161,-244.324 541.154,-159.689 594,-112.416 600.423,-106.671 608.681,-102.641 616.816,-99.8235"/>
<polygon fill="midnightblue" stroke="midnightblue" points="503.692,-282.009 504.925,-292.532 510.523,-283.536 503.692,-282.009"/>
</g>
<!-- Node13 -->
<g id="node13" class="node"><title>Node13</title>
<g id="a_node13"><a xlink:href="a00356.html#gaf0da49585d39e99780a004ee2ca23479" target="_top" xlink:title="Send option commands to server. ">
<polygon fill="white" stroke="black" points="750.5,-17.9163 750.5,-36.9163 871.5,-36.9163 871.5,-17.9163 750.5,-17.9163"/>
<text text-anchor="middle" x="811" y="-24.9163" font-family="Helvetica,sans-Serif" font-size="10.00">tds_submit_optioncmd</text>
</a>
</g>
</g>
<!-- Node4&#45;&gt;Node13 -->
<g id="edge13" class="edge"><title>Node4&#45;&gt;Node13</title>
<path fill="none" stroke="midnightblue" d="M502.373,-282.763C501.9,-230.2 508.767,-86.1992 594,-24.4163 650.783,16.7441 739.864,-3.82903 783.759,-17.9094"/>
<polygon fill="midnightblue" stroke="midnightblue" points="498.874,-282.857 502.567,-292.787 505.872,-282.721 498.874,-282.857"/>
</g>
<!-- Node14 -->
<g id="node14" class="node"><title>Node14</title>
<g id="a_node14"><a xlink:href="a00193.html#ac6610c72bd31bad5378f760fa9b12d66" target="_top" xlink:title="Initialize BCP information. ">
<polygon fill="white" stroke="red" points="613,-463.916 613,-482.916 686,-482.916 686,-463.916 613,-463.916"/>
<text text-anchor="middle" x="649.5" y="-470.916" font-family="Helvetica,sans-Serif" font-size="10.00">tds_bcp_init</text>
</a>
</g>
</g>
<!-- Node4&#45;&gt;Node14 -->
<g id="edge14" class="edge"><title>Node4&#45;&gt;Node14</title>
<path fill="none" stroke="midnightblue" d="M509.573,-321.74C521.44,-353.821 549.431,-418.124 594,-454.416 599.517,-458.909 606.166,-462.37 612.894,-465.028"/>
<polygon fill="midnightblue" stroke="midnightblue" points="512.821,-320.427 506.166,-312.183 506.227,-322.778 512.821,-320.427"/>
</g>
<!-- Node15 -->
<g id="node15" class="node"><title>Node15</title>
<g id="a_node15"><a xlink:href="a00359.html#ga55f27c3e05d42c9b07ace1c74b11c5ab" target="_top" xlink:title="Retrieve and set @spid. ">
<polygon fill="white" stroke="black" points="611,-387.916 611,-406.916 688,-406.916 688,-387.916 611,-387.916"/>
<text text-anchor="middle" x="649.5" y="-394.916" font-family="Helvetica,sans-Serif" font-size="10.00">tds_set_spid</text>
</a>
</g>
</g>
<!-- Node4&#45;&gt;Node15 -->
<g id="edge15" class="edge"><title>Node4&#45;&gt;Node15</title>
<path fill="none" stroke="midnightblue" d="M519.288,-319.202C536.504,-336.133 565.116,-362.045 594,-378.416 600.538,-382.122 607.923,-385.287 615.097,-387.91"/>
<polygon fill="midnightblue" stroke="midnightblue" points="521.762,-316.726 512.22,-312.121 516.808,-321.671 521.762,-316.726"/>
</g>
<!-- Node16 -->
<g id="node16" class="node"><title>Node16</title>
<g id="a_node16"><a xlink:href="a00359.html#gaeeb1562044786ea17bea361ed83e6946" target="_top" xlink:title="Process results for simple query as &quot;SET TEXTSIZE&quot; or &quot;USE dbname&quot; If the statement returns results...">
<polygon fill="white" stroke="red" points="594.5,-34.4163 594.5,-64.4163 704.5,-64.4163 704.5,-34.4163 594.5,-34.4163"/>
<text text-anchor="start" x="602.5" y="-52.4163" font-family="Helvetica,sans-Serif" font-size="10.00">tds_process_simple</text>
<text text-anchor="middle" x="649.5" y="-41.4163" font-family="Helvetica,sans-Serif" font-size="10.00">_query</text>
</a>
</g>
</g>
<!-- Node4&#45;&gt;Node16 -->
<g id="edge17" class="edge"><title>Node4&#45;&gt;Node16</title>
<path fill="none" stroke="midnightblue" d="M505.812,-282.81C512.941,-239.766 535.498,-135.94 594,-74.4163 597.658,-70.569 602.022,-67.2624 606.665,-64.4338"/>
<polygon fill="midnightblue" stroke="midnightblue" points="502.333,-282.401 504.255,-292.82 509.25,-283.477 502.333,-282.401"/>
</g>
<!-- Node17 -->
<g id="node17" class="node"><title>Node17</title>
<g id="a_node17"><a xlink:href="a00359.html#gaf233e79967f82f4e0dd4d11524917a34" target="_top" xlink:title="tds_process_cancel">
<polygon fill="white" stroke="red" points="594,-425.916 594,-444.916 705,-444.916 705,-425.916 594,-425.916"/>
<text text-anchor="middle" x="649.5" y="-432.916" font-family="Helvetica,sans-Serif" font-size="10.00">tds_process_cancel</text>
</a>
</g>
</g>
<!-- Node4&#45;&gt;Node17 -->
<g id="edge19" class="edge"><title>Node4&#45;&gt;Node17</title>
<path fill="none" stroke="midnightblue" d="M513.309,-321.069C528.069,-346.149 557.513,-390.572 594,-416.416 599.397,-420.239 605.633,-423.353 611.918,-425.871"/>
<polygon fill="midnightblue" stroke="midnightblue" points="516.232,-319.131 508.225,-312.192 510.158,-322.609 516.232,-319.131"/>
</g>
<!-- Node8&#45;&gt;Node9 -->
<g id="edge8" class="edge"><title>Node8&#45;&gt;Node9</title>
<path fill="none" stroke="midnightblue" d="M686.371,-241.143C713.525,-237.909 750.532,-233.5 776.965,-230.351"/>
<polygon fill="midnightblue" stroke="midnightblue" points="685.642,-237.705 676.126,-242.364 686.47,-244.656 685.642,-237.705"/>
</g>
<!-- Node15&#45;&gt;Node3 -->
<g id="edge16" class="edge"><title>Node15&#45;&gt;Node3</title>
<path fill="none" stroke="midnightblue" d="M687.583,-410.279C693.416,-412.321 699.375,-414.418 705,-416.416 731.854,-425.956 762.489,-437.07 783.708,-444.804"/>
<polygon fill="midnightblue" stroke="midnightblue" points="688.563,-406.914 677.968,-406.922 686.256,-413.522 688.563,-406.914"/>
</g>
<!-- Node16&#45;&gt;Node13 -->
<g id="edge18" class="edge"><title>Node16&#45;&gt;Node13</title>
<path fill="none" stroke="midnightblue" d="M715.05,-40.5128C726.711,-38.9044 738.823,-37.2338 750.337,-35.6457"/>
<polygon fill="midnightblue" stroke="midnightblue" points="714.373,-37.073 704.945,-41.9067 715.329,-44.0074 714.373,-37.073"/>
</g>
<!-- Node18&#45;&gt;Node2 -->
<g id="edge21" class="edge"><title>Node18&#45;&gt;Node2</title>
<path fill="none" stroke="midnightblue" d="M299.806,-447.094C291.36,-447.208 282.7,-447.187 274.332,-447.033"/>
<polygon fill="midnightblue" stroke="midnightblue" points="300.04,-450.59 309.967,-446.89 299.899,-443.592 300.04,-450.59"/>
</g>
<!-- Node18&#45;&gt;Node4 -->
<g id="edge22" class="edge"><title>Node18&#45;&gt;Node4</title>
<path fill="none" stroke="midnightblue" d="M378.237,-423.425C407.833,-394.252 467.403,-335.533 491.023,-312.251"/>
<polygon fill="midnightblue" stroke="midnightblue" points="375.733,-420.979 371.068,-430.492 380.647,-425.964 375.733,-420.979"/>
</g>
</g>
</svg>
