<?xml version="1.0" encoding="UTF-8" standalone="no"?>
<!DOCTYPE svg PUBLIC "-//W3C//DTD SVG 1.1//EN"
 "http://www.w3.org/Graphics/SVG/1.1/DTD/svg11.dtd">
<!-- Generated by graphviz version 2.38.0 (20140413.2041)
 -->
<!-- Title: dbaltbind Pages: 1 -->
<svg width="474pt" height="124pt"
 viewBox="0.00 0.00 474.00 124.22" xmlns="http://www.w3.org/2000/svg" xmlns:xlink="http://www.w3.org/1999/xlink">
<g id="graph0" class="graph" transform="scale(1 1) rotate(0) translate(4 120.219)">
<title>dbaltbind</title>
<polygon fill="white" stroke="none" points="-4,4 -4,-120.219 470,-120.219 470,4 -4,4"/>
<!-- Node1 -->
<g id="node1" class="node"><title>Node1</title>
<polygon fill="#bfbfbf" stroke="black" points="0,-57.5 0,-76.5 59,-76.5 59,-57.5 0,-57.5"/>
<text text-anchor="middle" x="29.5" y="-64.5" font-family="Helvetica,sans-Serif" font-size="10.00">dbaltbind</text>
</g>
<!-- Node2 -->
<g id="node2" class="node"><title>Node2</title>
<g id="a_node2"><a xlink:href="a00193.html#ab45c291105027e69836002e1dd586141" target="_top" xlink:title="Write a message to the debug log. ">
<polygon fill="white" stroke="black" points="389,-57.5 389,-76.5 466,-76.5 466,-57.5 389,-57.5"/>
<text text-anchor="middle" x="427.5" y="-64.5" font-family="Helvetica,sans-Serif" font-size="10.00">tdsdump_log</text>
</a>
</g>
</g>
<!-- Node1&#45;&gt;Node2 -->
<g id="edge1" class="edge"><title>Node1&#45;&gt;Node2</title>
<path fill="none" stroke="midnightblue" d="M42.4444,-76.7156C54.7579,-86.0534 74.9376,-99.5295 95,-105 199.824,-133.583 328.991,-99.8855 390.564,-79.8248"/>
<polygon fill="midnightblue" stroke="midnightblue" points="391.821,-83.0951 400.203,-76.6143 389.609,-76.4538 391.821,-83.0951"/>
</g>
<!-- Node3 -->
<g id="node3" class="node"><title>Node3</title>
<g id="a_node3"><a xlink:href="a00193.html#ae7f4c4d5f7352f1c814284c536659e6f" target="_top" xlink:title="Return type suitable for conversions (convert all nullable types to fixed type) ">
<polygon fill="white" stroke="black" points="95,-76.5 95,-95.5 231,-95.5 231,-76.5 95,-76.5"/>
<text text-anchor="middle" x="163" y="-83.5" font-family="Helvetica,sans-Serif" font-size="10.00">tds_get_conversion_type</text>
</a>
</g>
</g>
<!-- Node1&#45;&gt;Node3 -->
<g id="edge2" class="edge"><title>Node1&#45;&gt;Node3</title>
<path fill="none" stroke="midnightblue" d="M59.0335,-71.1227C67.1627,-72.2973 76.4235,-73.6353 85.9812,-75.0163"/>
<polygon fill="midnightblue" stroke="midnightblue" points="85.616,-78.4998 96.0137,-76.4659 86.617,-71.5717 85.616,-78.4998"/>
</g>
<!-- Node4 -->
<g id="node4" class="node"><title>Node4</title>
<g id="a_node4"><a xlink:href="a00341.html#gaaf8349999c16b3c36caf5947747a2915" target="_top" xlink:title="Test whether or not a datatype can be converted to another datatype. ">
<polygon fill="white" stroke="black" points="124.5,-38.5 124.5,-57.5 201.5,-57.5 201.5,-38.5 124.5,-38.5"/>
<text text-anchor="middle" x="163" y="-45.5" font-family="Helvetica,sans-Serif" font-size="10.00">dbwillconvert</text>
</a>
</g>
</g>
<!-- Node1&#45;&gt;Node4 -->
<g id="edge3" class="edge"><title>Node1&#45;&gt;Node4</title>
<path fill="none" stroke="midnightblue" d="M59.0335,-62.8773C75.0947,-60.5567 95.5736,-57.5977 114.031,-54.9309"/>
<polygon fill="midnightblue" stroke="midnightblue" points="114.64,-58.3794 124.036,-53.4852 113.639,-51.4513 114.64,-58.3794"/>
</g>
<!-- Node6 -->
<g id="node6" class="node"><title>Node6</title>
<g id="a_node6"><a xlink:href="a00347.html#ga302a4ce6559b81808e3be51615cd1b67" target="_top" xlink:title="Call client&#45;installed error handler. ">
<polygon fill="white" stroke="black" points="281.5,-0.5 281.5,-19.5 338.5,-19.5 338.5,-0.5 281.5,-0.5"/>
<text text-anchor="middle" x="310" y="-7.5" font-family="Helvetica,sans-Serif" font-size="10.00">dbperror</text>
</a>
</g>
</g>
<!-- Node1&#45;&gt;Node6 -->
<g id="edge7" class="edge"><title>Node1&#45;&gt;Node6</title>
<path fill="none" stroke="midnightblue" d="M43.0235,-57.3155C55.4603,-48.2783 75.4469,-35.2737 95,-29 154.387,-9.94558 227.494,-7.67679 271.061,-8.39506"/>
<polygon fill="midnightblue" stroke="midnightblue" points="271.134,-11.8975 281.211,-8.62591 271.294,-4.89933 271.134,-11.8975"/>
</g>
<!-- Node4&#45;&gt;Node2 -->
<g id="edge4" class="edge"><title>Node4&#45;&gt;Node2</title>
<path fill="none" stroke="midnightblue" d="M201.924,-56.7068C221.28,-60.7136 245.27,-65.0126 267,-67 304.287,-70.4103 346.682,-70.2181 378.387,-69.2775"/>
<polygon fill="midnightblue" stroke="midnightblue" points="378.828,-72.7648 388.706,-68.934 378.596,-65.7687 378.828,-72.7648"/>
</g>
<!-- Node5 -->
<g id="node5" class="node"><title>Node5</title>
<g id="a_node5"><a xlink:href="a00353.html#ga80487b313213f60d8be71a50a002bb2c" target="_top" xlink:title="Test if a conversion is possible. ">
<polygon fill="white" stroke="black" points="267,-38.5 267,-57.5 353,-57.5 353,-38.5 267,-38.5"/>
<text text-anchor="middle" x="310" y="-45.5" font-family="Helvetica,sans-Serif" font-size="10.00">tds_willconvert</text>
</a>
</g>
</g>
<!-- Node4&#45;&gt;Node5 -->
<g id="edge5" class="edge"><title>Node4&#45;&gt;Node5</title>
<path fill="none" stroke="midnightblue" d="M201.719,-48C218.491,-48 238.518,-48 256.703,-48"/>
<polygon fill="midnightblue" stroke="midnightblue" points="256.87,-51.5001 266.87,-48 256.87,-44.5001 256.87,-51.5001"/>
</g>
<!-- Node5&#45;&gt;Node2 -->
<g id="edge6" class="edge"><title>Node5&#45;&gt;Node2</title>
<path fill="none" stroke="midnightblue" d="M353.025,-54.9132C361.462,-56.3012 370.385,-57.7689 378.993,-59.185"/>
<polygon fill="midnightblue" stroke="midnightblue" points="378.471,-62.6462 388.907,-60.8159 379.608,-55.739 378.471,-62.6462"/>
</g>
<!-- Node6&#45;&gt;Node2 -->
<g id="edge8" class="edge"><title>Node6&#45;&gt;Node2</title>
<path fill="none" stroke="midnightblue" d="M332.9,-19.6461C339.402,-22.5802 346.517,-25.8606 353,-29 368.547,-36.529 385.705,-45.3693 399.531,-52.6278"/>
<polygon fill="midnightblue" stroke="midnightblue" points="398.032,-55.794 408.51,-57.3646 401.298,-49.6028 398.032,-55.794"/>
</g>
</g>
</svg>
