<?xml version="1.0" encoding="UTF-8" standalone="no"?>
<!DOCTYPE svg PUBLIC "-//W3C//DTD SVG 1.1//EN"
 "http://www.w3.org/Graphics/SVG/1.1/DTD/svg11.dtd">
<!-- Generated by graphviz version 2.38.0 (20140413.2041)
 -->
<!-- Title: tds_process_end Pages: 1 -->
<svg width="848pt" height="508pt"
 viewBox="0.00 0.00 848.00 508.43" xmlns="http://www.w3.org/2000/svg" xmlns:xlink="http://www.w3.org/1999/xlink">
<g id="graph0" class="graph" transform="scale(1 1) rotate(0) translate(4 504.43)">
<title>tds_process_end</title>
<polygon fill="white" stroke="none" points="-4,4 -4,-504.43 844,-504.43 844,4 -4,4"/>
<!-- Node1 -->
<g id="node1" class="node"><title>Node1</title>
<polygon fill="#bfbfbf" stroke="black" points="0,-408.362 0,-427.362 98,-427.362 98,-408.362 0,-408.362"/>
<text text-anchor="middle" x="49" y="-415.362" font-family="Helvetica,sans-Serif" font-size="10.00">tds_process_end</text>
</g>
<!-- Node2 -->
<g id="node2" class="node"><title>Node2</title>
<g id="a_node2"><a xlink:href="a00357.html#gad38aa5b9547817854ccba1fcc7855861" target="_top" xlink:title="Get an int16 from the server. ">
<polygon fill="white" stroke="black" points="144.5,-446.362 144.5,-465.362 242.5,-465.362 242.5,-446.362 144.5,-446.362"/>
<text text-anchor="middle" x="193.5" y="-453.362" font-family="Helvetica,sans-Serif" font-size="10.00">tds_get_usmallint</text>
</a>
</g>
</g>
<!-- Node1&#45;&gt;Node2 -->
<g id="edge1" class="edge"><title>Node1&#45;&gt;Node2</title>
<path fill="none" stroke="midnightblue" d="M85.9588,-427.451C104.439,-432.379 127.156,-438.437 146.859,-443.691"/>
<polygon fill="midnightblue" stroke="midnightblue" points="145.989,-447.081 156.553,-446.276 147.792,-440.317 145.989,-447.081"/>
</g>
<!-- Node5 -->
<g id="node5" class="node"><title>Node5</title>
<g id="a_node5"><a xlink:href="a00193.html#ab45c291105027e69836002e1dd586141" target="_top" xlink:title="Write a message to the debug log. ">
<polygon fill="white" stroke="black" points="763,-299.362 763,-318.362 840,-318.362 840,-299.362 763,-299.362"/>
<text text-anchor="middle" x="801.5" y="-306.362" font-family="Helvetica,sans-Serif" font-size="10.00">tdsdump_log</text>
</a>
</g>
</g>
<!-- Node1&#45;&gt;Node5 -->
<g id="edge5" class="edge"><title>Node1&#45;&gt;Node5</title>
<path fill="none" stroke="midnightblue" d="M60.4123,-427.58C75.3819,-440.889 104.449,-464.333 134,-474.862 224.155,-506.984 252.793,-493.862 348.5,-493.862 348.5,-493.862 348.5,-493.862 521.5,-493.862 613.677,-493.862 652.746,-520.479 727,-465.862 772.742,-432.217 790.983,-362.887 797.414,-328.747"/>
<polygon fill="midnightblue" stroke="midnightblue" points="800.91,-329.07 799.165,-318.62 794.012,-327.878 800.91,-329.07"/>
</g>
<!-- Node6 -->
<g id="node6" class="node"><title>Node6</title>
<g id="a_node6"><a xlink:href="a00193.html#a16db200d2281f76fe46fc1cbe37ca9df" target="_top" xlink:title="Set state of TDS connection, with logging and checking. ">
<polygon fill="white" stroke="red" points="639,-161.362 639,-180.362 719,-180.362 719,-161.362 639,-161.362"/>
<text text-anchor="middle" x="679" y="-168.362" font-family="Helvetica,sans-Serif" font-size="10.00">tds_set_state</text>
</a>
</g>
</g>
<!-- Node1&#45;&gt;Node6 -->
<g id="edge6" class="edge"><title>Node1&#45;&gt;Node6</title>
<path fill="none" stroke="midnightblue" d="M53.7442,-408.075C71.7817,-362.309 154.408,-167.776 289,-75.8619 402.173,1.42466 475.157,28.6135 595,-37.8619 638.88,-62.2016 662.605,-120.461 672.447,-151.163"/>
<polygon fill="midnightblue" stroke="midnightblue" points="669.211,-152.555 675.457,-161.113 675.912,-150.528 669.211,-152.555"/>
</g>
<!-- Node7 -->
<g id="node7" class="node"><title>Node7</title>
<g id="a_node7"><a xlink:href="a00359.html#ga69902dffb299d62a799888e0fa3ccd68" target="_top" xlink:title="Attempt to close all deferred closes (dynamics and cursors). ">
<polygon fill="white" stroke="black" points="134,-314.862 134,-344.862 253,-344.862 253,-314.862 134,-314.862"/>
<text text-anchor="start" x="142" y="-332.862" font-family="Helvetica,sans-Serif" font-size="10.00">tds_process_pending</text>
<text text-anchor="middle" x="193.5" y="-321.862" font-family="Helvetica,sans-Serif" font-size="10.00">_closes</text>
</a>
</g>
</g>
<!-- Node1&#45;&gt;Node7 -->
<g id="edge8" class="edge"><title>Node1&#45;&gt;Node7</title>
<path fill="none" stroke="midnightblue" d="M65.5213,-408.277C87.8785,-394.47 129.699,-368.645 159.225,-350.41"/>
<polygon fill="midnightblue" stroke="midnightblue" points="161.29,-353.249 167.959,-345.017 157.612,-347.293 161.29,-353.249"/>
</g>
<!-- Node3 -->
<g id="node3" class="node"><title>Node3</title>
<g id="a_node3"><a xlink:href="a00357.html#gae7d9c4e1a079e1d0aa0252732631e8c4" target="_top" xlink:title="Get N bytes from the buffer and return them in the already allocated space given to us...">
<polygon fill="white" stroke="black" points="317.5,-446.362 317.5,-465.362 381.5,-465.362 381.5,-446.362 317.5,-446.362"/>
<text text-anchor="middle" x="349.5" y="-453.362" font-family="Helvetica,sans-Serif" font-size="10.00">tds_get_n</text>
</a>
</g>
</g>
<!-- Node2&#45;&gt;Node3 -->
<g id="edge2" class="edge"><title>Node2&#45;&gt;Node3</title>
<path fill="none" stroke="midnightblue" d="M242.804,-455.862C263.441,-455.862 287.287,-455.862 307.1,-455.862"/>
<polygon fill="midnightblue" stroke="midnightblue" points="307.35,-459.362 317.35,-455.862 307.35,-452.362 307.35,-459.362"/>
</g>
<!-- Node4 -->
<g id="node4" class="node"><title>Node4</title>
<g id="a_node4"><a xlink:href="a00357.html#ga410619783bdf2bb60b0f27a5578e0e07" target="_top" xlink:title="Read in one &#39;packet&#39; from the server. ">
<polygon fill="white" stroke="red" points="631,-437.362 631,-456.362 727,-456.362 727,-437.362 631,-437.362"/>
<text text-anchor="middle" x="679" y="-444.362" font-family="Helvetica,sans-Serif" font-size="10.00">tds_read_packet</text>
</a>
</g>
</g>
<!-- Node3&#45;&gt;Node4 -->
<g id="edge3" class="edge"><title>Node3&#45;&gt;Node4</title>
<path fill="none" stroke="midnightblue" d="M381.606,-455.007C436.431,-453.5 551.029,-450.351 620.568,-448.44"/>
<polygon fill="midnightblue" stroke="midnightblue" points="621.006,-451.93 630.906,-448.156 620.814,-444.932 621.006,-451.93"/>
</g>
<!-- Node4&#45;&gt;Node5 -->
<g id="edge4" class="edge"><title>Node4&#45;&gt;Node5</title>
<path fill="none" stroke="midnightblue" d="M691.722,-437.127C701.558,-428.731 715.763,-416.066 727,-403.862 750.29,-378.567 774.07,-346.446 788.047,-326.785"/>
<polygon fill="midnightblue" stroke="midnightblue" points="791.014,-328.65 793.909,-318.458 785.29,-324.62 791.014,-328.65"/>
</g>
<!-- Node6&#45;&gt;Node5 -->
<g id="edge7" class="edge"><title>Node6&#45;&gt;Node5</title>
<path fill="none" stroke="midnightblue" d="M691.722,-180.596C701.558,-188.993 715.763,-201.658 727,-213.862 750.29,-239.157 774.07,-271.278 788.047,-290.939"/>
<polygon fill="midnightblue" stroke="midnightblue" points="785.29,-293.103 793.909,-299.265 791.014,-289.074 785.29,-293.103"/>
</g>
<!-- Node8 -->
<g id="node8" class="node"><title>Node8</title>
<g id="a_node8"><a xlink:href="a00359.html#gaeeb1562044786ea17bea361ed83e6946" target="_top" xlink:title="Process results for simple query as &quot;SET TEXTSIZE&quot; or &quot;USE dbname&quot; If the statement returns results...">
<polygon fill="white" stroke="black" points="294.5,-358.862 294.5,-388.862 404.5,-388.862 404.5,-358.862 294.5,-358.862"/>
<text text-anchor="start" x="302.5" y="-376.862" font-family="Helvetica,sans-Serif" font-size="10.00">tds_process_simple</text>
<text text-anchor="middle" x="349.5" y="-365.862" font-family="Helvetica,sans-Serif" font-size="10.00">_query</text>
</a>
</g>
</g>
<!-- Node7&#45;&gt;Node8 -->
<g id="edge9" class="edge"><title>Node7&#45;&gt;Node8</title>
<path fill="none" stroke="midnightblue" d="M247.067,-344.881C259.635,-348.472 273.172,-352.34 286.134,-356.043"/>
<polygon fill="midnightblue" stroke="midnightblue" points="285.331,-359.454 295.908,-358.836 287.255,-352.723 285.331,-359.454"/>
</g>
<!-- Node11 -->
<g id="node11" class="node"><title>Node11</title>
<g id="a_node11"><a xlink:href="a00356.html#gab25de0567ac096e8f8e88490eeddf562" target="_top" xlink:title="Send a deallocation request to server. ">
<polygon fill="white" stroke="black" points="296.5,-85.3619 296.5,-104.362 402.5,-104.362 402.5,-85.3619 296.5,-85.3619"/>
<text text-anchor="middle" x="349.5" y="-92.3619" font-family="Helvetica,sans-Serif" font-size="10.00">tds_cursor_dealloc</text>
</a>
</g>
</g>
<!-- Node7&#45;&gt;Node11 -->
<g id="edge15" class="edge"><title>Node7&#45;&gt;Node11</title>
<path fill="none" stroke="midnightblue" d="M204.368,-314.804C231.514,-273.38 307.235,-157.832 336.626,-112.982"/>
<polygon fill="midnightblue" stroke="midnightblue" points="339.606,-114.819 342.16,-104.537 333.751,-110.982 339.606,-114.819"/>
</g>
<!-- Node15 -->
<g id="node15" class="node"><title>Node15</title>
<g id="a_node15"><a xlink:href="a00356.html#gaf573d8d4d2660c8c27770573fca05ff5" target="_top" xlink:title="Send a unprepare request for a prepared query. ">
<polygon fill="white" stroke="black" points="289,-256.362 289,-275.362 410,-275.362 410,-256.362 289,-256.362"/>
<text text-anchor="middle" x="349.5" y="-263.362" font-family="Helvetica,sans-Serif" font-size="10.00">tds_submit_unprepare</text>
</a>
</g>
</g>
<!-- Node7&#45;&gt;Node15 -->
<g id="edge22" class="edge"><title>Node7&#45;&gt;Node15</title>
<path fill="none" stroke="midnightblue" d="M230.606,-314.857C256.506,-304.093 291.101,-289.716 316.111,-279.322"/>
<polygon fill="midnightblue" stroke="midnightblue" points="317.63,-282.481 325.521,-275.411 314.944,-276.017 317.63,-282.481"/>
</g>
<!-- Node18 -->
<g id="node18" class="node"><title>Node18</title>
<g id="a_node18"><a xlink:href="a00355.html#gabf2fdb0def5388508602ee7dd2f49506" target="_top" xlink:title="Frees dynamic statement. ">
<polygon fill="white" stroke="black" points="291,-320.362 291,-339.362 408,-339.362 408,-320.362 291,-320.362"/>
<text text-anchor="middle" x="349.5" y="-327.362" font-family="Helvetica,sans-Serif" font-size="10.00">tds_release_dynamic</text>
</a>
</g>
</g>
<!-- Node7&#45;&gt;Node18 -->
<g id="edge29" class="edge"><title>Node7&#45;&gt;Node18</title>
<path fill="none" stroke="midnightblue" d="M253.16,-329.862C262.115,-329.862 271.421,-329.862 280.555,-329.862"/>
<polygon fill="midnightblue" stroke="midnightblue" points="280.767,-333.362 290.767,-329.862 280.767,-326.362 280.767,-333.362"/>
</g>
<!-- Node9 -->
<g id="node9" class="node"><title>Node9</title>
<g id="a_node9"><a xlink:href="a00359.html#gabfc9de1d1fe718818caf63a4be4035a6" target="_top" xlink:title="process all streams. ">
<polygon fill="white" stroke="red" points="464.5,-408.362 464.5,-427.362 576.5,-427.362 576.5,-408.362 464.5,-408.362"/>
<text text-anchor="middle" x="520.5" y="-415.362" font-family="Helvetica,sans-Serif" font-size="10.00">tds_process_tokens</text>
</a>
</g>
</g>
<!-- Node8&#45;&gt;Node9 -->
<g id="edge10" class="edge"><title>Node8&#45;&gt;Node9</title>
<path fill="none" stroke="midnightblue" d="M404.533,-388.038C418.071,-391.581 432.565,-395.367 446,-398.862 454.619,-401.104 463.808,-403.486 472.667,-405.778"/>
<polygon fill="midnightblue" stroke="midnightblue" points="471.922,-409.201 482.48,-408.316 473.675,-402.424 471.922,-409.201"/>
</g>
<!-- Node9&#45;&gt;Node1 -->
<g id="edge14" class="edge"><title>Node9&#45;&gt;Node1</title>
<path fill="none" stroke="midnightblue" d="M464.317,-417.862C374.968,-417.862 199.453,-417.862 108.203,-417.862"/>
<polygon fill="midnightblue" stroke="midnightblue" points="108.038,-414.362 98.0383,-417.862 108.038,-421.362 108.038,-414.362"/>
</g>
<!-- Node9&#45;&gt;Node5 -->
<g id="edge11" class="edge"><title>Node9&#45;&gt;Node5</title>
<path fill="none" stroke="midnightblue" d="M576.849,-410.203C619.479,-402.828 679.037,-389.252 727,-365.862 748.354,-355.448 769.439,-338.178 783.512,-325.371"/>
<polygon fill="midnightblue" stroke="midnightblue" points="786.021,-327.818 790.937,-318.433 781.241,-322.704 786.021,-327.818"/>
</g>
<!-- Node9&#45;&gt;Node6 -->
<g id="edge12" class="edge"><title>Node9&#45;&gt;Node6</title>
<path fill="none" stroke="midnightblue" d="M576.728,-409.979C583.415,-407.258 589.731,-403.647 595,-398.862 611.23,-384.122 655.956,-242.564 672.095,-190.205"/>
<polygon fill="midnightblue" stroke="midnightblue" points="675.497,-191.051 675.085,-180.464 668.805,-188.997 675.497,-191.051"/>
</g>
<!-- Node10 -->
<g id="node10" class="node"><title>Node10</title>
<g id="a_node10"><a xlink:href="a00356.html#gae8b7db85af16701fc0604eb117cbd4e4" target="_top" xlink:title="Set current dynamic. ">
<polygon fill="white" stroke="black" points="631.5,-337.362 631.5,-356.362 726.5,-356.362 726.5,-337.362 631.5,-337.362"/>
<text text-anchor="middle" x="679" y="-344.362" font-family="Helvetica,sans-Serif" font-size="10.00">tds_set_cur_dyn</text>
</a>
</g>
</g>
<!-- Node9&#45;&gt;Node10 -->
<g id="edge13" class="edge"><title>Node9&#45;&gt;Node10</title>
<path fill="none" stroke="midnightblue" d="M567.734,-408.29C576.947,-405.724 586.421,-402.598 595,-398.862 612.407,-391.281 614.92,-385.958 631,-375.862 638.308,-371.273 646.287,-366.327 653.561,-361.841"/>
<polygon fill="midnightblue" stroke="midnightblue" points="655.612,-364.688 662.295,-356.467 651.944,-358.727 655.612,-364.688"/>
</g>
<!-- Node11&#45;&gt;Node5 -->
<g id="edge17" class="edge"><title>Node11&#45;&gt;Node5</title>
<path fill="none" stroke="midnightblue" d="M361.894,-85.2164C378.893,-71.5273 412.495,-47.1006 446,-37.8619 509.84,-20.2588 532.934,-14.7705 595,-37.8619 667.652,-64.8918 680.202,-90.0649 727,-151.862 760.643,-196.289 784.071,-258.586 794.46,-289.659"/>
<polygon fill="midnightblue" stroke="midnightblue" points="791.164,-290.84 797.586,-299.267 797.82,-288.674 791.164,-290.84"/>
</g>
<!-- Node11&#45;&gt;Node6 -->
<g id="edge18" class="edge"><title>Node11&#45;&gt;Node6</title>
<path fill="none" stroke="midnightblue" d="M368.224,-85.2494C410.143,-63.9181 517.664,-17.5059 595,-56.8619 634.102,-76.7607 659.133,-124.666 670.631,-151.615"/>
<polygon fill="midnightblue" stroke="midnightblue" points="667.488,-153.178 674.496,-161.125 673.973,-150.543 667.488,-153.178"/>
</g>
<!-- Node12 -->
<g id="node12" class="node"><title>Node12</title>
<g id="a_node12"><a xlink:href="a00356.html#ga2c6da4886cc30af02546a3bc2ebcae5d" target="_top" xlink:title="Check if a cursor is allocated into the server. ">
<polygon fill="white" stroke="black" points="446,-66.3619 446,-85.3619 595,-85.3619 595,-66.3619 446,-66.3619"/>
<text text-anchor="middle" x="520.5" y="-73.3619" font-family="Helvetica,sans-Serif" font-size="10.00">tds_cursor_check_allocated</text>
</a>
</g>
</g>
<!-- Node11&#45;&gt;Node12 -->
<g id="edge16" class="edge"><title>Node11&#45;&gt;Node12</title>
<path fill="none" stroke="midnightblue" d="M402.585,-89.0063C413.161,-87.8172 424.536,-86.5383 435.89,-85.2618"/>
<polygon fill="midnightblue" stroke="midnightblue" points="436.295,-88.7384 445.842,-84.143 435.513,-81.7823 436.295,-88.7384"/>
</g>
<!-- Node13 -->
<g id="node13" class="node"><title>Node13</title>
<g id="a_node13"><a xlink:href="a00356.html#ga34fb1084682cc31fe02a4a7946955a5a" target="_top" xlink:title="Set current cursor. ">
<polygon fill="white" stroke="black" points="467,-104.362 467,-123.362 574,-123.362 574,-104.362 467,-104.362"/>
<text text-anchor="middle" x="520.5" y="-111.362" font-family="Helvetica,sans-Serif" font-size="10.00">tds_set_cur_cursor</text>
</a>
</g>
</g>
<!-- Node11&#45;&gt;Node13 -->
<g id="edge19" class="edge"><title>Node11&#45;&gt;Node13</title>
<path fill="none" stroke="midnightblue" d="M402.585,-100.718C419.61,-102.632 438.705,-104.778 456.448,-106.773"/>
<polygon fill="midnightblue" stroke="midnightblue" points="456.385,-110.288 466.713,-107.927 457.167,-103.332 456.385,-110.288"/>
</g>
<!-- Node14 -->
<g id="node14" class="node"><title>Node14</title>
<g id="a_node14"><a xlink:href="a00356.html#gada27f4cfce925240ad33b71b63ca692d" target="_top" xlink:title="Flush query packet. ">
<polygon fill="white" stroke="red" points="456.5,-142.362 456.5,-161.362 584.5,-161.362 584.5,-142.362 456.5,-142.362"/>
<text text-anchor="middle" x="520.5" y="-149.362" font-family="Helvetica,sans-Serif" font-size="10.00">tds_query_flush_packet</text>
</a>
</g>
</g>
<!-- Node11&#45;&gt;Node14 -->
<g id="edge20" class="edge"><title>Node11&#45;&gt;Node14</title>
<path fill="none" stroke="midnightblue" d="M372.213,-104.41C391.385,-112.62 420.218,-124.437 446,-132.862 453.399,-135.28 461.297,-137.593 469.068,-139.722"/>
<polygon fill="midnightblue" stroke="midnightblue" points="468.235,-143.122 478.799,-142.313 470.036,-136.358 468.235,-143.122"/>
</g>
<!-- Node14&#45;&gt;Node6 -->
<g id="edge21" class="edge"><title>Node14&#45;&gt;Node6</title>
<path fill="none" stroke="midnightblue" d="M584.703,-159.535C599.305,-161.308 614.634,-163.169 628.55,-164.858"/>
<polygon fill="midnightblue" stroke="midnightblue" points="628.532,-168.382 638.881,-166.113 629.375,-161.433 628.532,-168.382"/>
</g>
<!-- Node15&#45;&gt;Node5 -->
<g id="edge23" class="edge"><title>Node15&#45;&gt;Node5</title>
<path fill="none" stroke="midnightblue" d="M389.271,-256.352C406.523,-252.587 427.158,-248.718 446,-246.862 511.903,-240.37 529.487,-237.194 595,-246.862 657.534,-256.09 727.42,-280.309 767.461,-295.602"/>
<polygon fill="midnightblue" stroke="midnightblue" points="766.386,-298.939 776.975,-299.283 768.912,-292.41 766.386,-298.939"/>
</g>
<!-- Node15&#45;&gt;Node6 -->
<g id="edge24" class="edge"><title>Node15&#45;&gt;Node6</title>
<path fill="none" stroke="midnightblue" d="M364.714,-256.247C382.807,-244.461 415.398,-224.719 446,-213.862 506.964,-192.232 580.993,-180.926 628.772,-175.436"/>
<polygon fill="midnightblue" stroke="midnightblue" points="629.296,-178.9 638.85,-174.32 628.526,-171.942 629.296,-178.9"/>
</g>
<!-- Node15&#45;&gt;Node10 -->
<g id="edge25" class="edge"><title>Node15&#45;&gt;Node10</title>
<path fill="none" stroke="midnightblue" d="M362.61,-275.496C379.953,-288.705 413.382,-312.031 446,-322.862 503.642,-342.002 573.382,-346.952 621.255,-347.77"/>
<polygon fill="midnightblue" stroke="midnightblue" points="621.387,-351.272 631.427,-347.887 621.468,-344.272 621.387,-351.272"/>
</g>
<!-- Node15&#45;&gt;Node14 -->
<g id="edge27" class="edge"><title>Node15&#45;&gt;Node14</title>
<path fill="none" stroke="midnightblue" d="M358.135,-256.271C373.11,-238.062 408.19,-198.305 446,-175.862 453.384,-171.479 461.667,-167.788 469.939,-164.717"/>
<polygon fill="midnightblue" stroke="midnightblue" points="471.275,-167.958 479.589,-161.391 468.995,-161.34 471.275,-167.958"/>
</g>
<!-- Node16 -->
<g id="node16" class="node"><title>Node16</title>
<g id="a_node16"><a xlink:href="a00356.html#gab543692776c2bc0afc3bd056f074080c" target="_top" xlink:title="Start query packet of a given type. ">
<polygon fill="white" stroke="red" points="475.5,-256.362 475.5,-275.362 565.5,-275.362 565.5,-256.362 475.5,-256.362"/>
<text text-anchor="middle" x="520.5" y="-263.362" font-family="Helvetica,sans-Serif" font-size="10.00">tds_start_query</text>
</a>
</g>
</g>
<!-- Node15&#45;&gt;Node16 -->
<g id="edge26" class="edge"><title>Node15&#45;&gt;Node16</title>
<path fill="none" stroke="midnightblue" d="M410.083,-265.862C428.037,-265.862 447.638,-265.862 465.227,-265.862"/>
<polygon fill="midnightblue" stroke="midnightblue" points="465.323,-269.362 475.323,-265.862 465.323,-262.362 465.323,-269.362"/>
</g>
<!-- Node17 -->
<g id="node17" class="node"><title>Node17</title>
<g id="a_node17"><a xlink:href="a00357.html#ga1fcaf8d488cc1390f106ce3ad0bf37b4" target="_top" xlink:title="Output a string to wire automatic translate string to unicode if needed. ">
<polygon fill="white" stroke="red" points="479,-294.362 479,-313.362 562,-313.362 562,-294.362 479,-294.362"/>
<text text-anchor="middle" x="520.5" y="-301.362" font-family="Helvetica,sans-Serif" font-size="10.00">tds_put_string</text>
</a>
</g>
</g>
<!-- Node15&#45;&gt;Node17 -->
<g id="edge28" class="edge"><title>Node15&#45;&gt;Node17</title>
<path fill="none" stroke="midnightblue" d="M393.146,-275.451C416.161,-280.626 444.719,-287.047 468.86,-292.475"/>
<polygon fill="midnightblue" stroke="midnightblue" points="468.382,-295.955 478.906,-294.734 469.918,-289.126 468.382,-295.955"/>
</g>
<!-- Node19 -->
<g id="node19" class="node"><title>Node19</title>
<g id="a_node19"><a xlink:href="a00355.html#gabdc5fee73b22345c02ab894e49ad7f95" target="_top" xlink:title="Frees all allocated input parameters of a dynamic statement. ">
<polygon fill="white" stroke="black" points="458,-370.362 458,-389.362 583,-389.362 583,-370.362 458,-370.362"/>
<text text-anchor="middle" x="520.5" y="-377.362" font-family="Helvetica,sans-Serif" font-size="10.00">tds_free_input_params</text>
</a>
</g>
</g>
<!-- Node18&#45;&gt;Node19 -->
<g id="edge30" class="edge"><title>Node18&#45;&gt;Node19</title>
<path fill="none" stroke="midnightblue" d="M382.685,-339.384C409.5,-347.317 447.901,-358.679 477.198,-367.347"/>
<polygon fill="midnightblue" stroke="midnightblue" points="476.565,-370.809 487.147,-370.29 478.551,-364.097 476.565,-370.809"/>
</g>
</g>
</svg>
