<?xml version="1.0" encoding="UTF-8" standalone="no"?>
<!DOCTYPE svg PUBLIC "-//W3C//DTD SVG 1.1//EN"
 "http://www.w3.org/Graphics/SVG/1.1/DTD/svg11.dtd">
<!-- Generated by graphviz version 2.38.0 (20140413.2041)
 -->
<!-- Title: tds_put_data Pages: 1 -->
<svg width="842pt" height="365pt"
 viewBox="0.00 0.00 842.00 365.00" xmlns="http://www.w3.org/2000/svg" xmlns:xlink="http://www.w3.org/1999/xlink">
<g id="graph0" class="graph" transform="scale(1 1) rotate(0) translate(4 361)">
<title>tds_put_data</title>
<polygon fill="white" stroke="none" points="-4,4 -4,-361 838,-361 838,4 -4,4"/>
<!-- Node1 -->
<g id="node1" class="node"><title>Node1</title>
<polygon fill="#bfbfbf" stroke="black" points="0,-95.5 0,-114.5 78,-114.5 78,-95.5 0,-95.5"/>
<text text-anchor="middle" x="39" y="-102.5" font-family="Helvetica,sans-Serif" font-size="10.00">tds_put_data</text>
</g>
<!-- Node2 -->
<g id="node2" class="node"><title>Node2</title>
<g id="a_node2"><a xlink:href="a00356.html#ga95e0fccedc459a4404f496eec74a369a" target="_top" xlink:title="tds_submit_query_params() sends a language string to the database server for processing. ">
<polygon fill="white" stroke="black" points="278,-185.5 278,-204.5 418,-204.5 418,-185.5 278,-185.5"/>
<text text-anchor="middle" x="348" y="-192.5" font-family="Helvetica,sans-Serif" font-size="10.00">tds_submit_query_params</text>
</a>
</g>
</g>
<!-- Node1&#45;&gt;Node2 -->
<g id="edge1" class="edge"><title>Node1&#45;&gt;Node2</title>
<path fill="none" stroke="midnightblue" d="M56.2287,-122.333C70.1616,-136.043 91.507,-154.419 114,-164 166.092,-186.189 230.162,-193.432 277.924,-195.412"/>
<polygon fill="midnightblue" stroke="midnightblue" points="58.4337,-119.583 48.9292,-114.902 53.4398,-124.489 58.4337,-119.583"/>
</g>
<!-- Node13 -->
<g id="node13" class="node"><title>Node13</title>
<g id="a_node13"><a xlink:href="a00356.html#gae603aed795a4c5bb26ab159a11256996" target="_top" xlink:title="Submit a prepared query with parameters. ">
<polygon fill="white" stroke="black" points="287.5,-138.5 287.5,-157.5 408.5,-157.5 408.5,-138.5 287.5,-138.5"/>
<text text-anchor="middle" x="348" y="-145.5" font-family="Helvetica,sans-Serif" font-size="10.00">tds_submit_execdirect</text>
</a>
</g>
</g>
<!-- Node1&#45;&gt;Node13 -->
<g id="edge13" class="edge"><title>Node1&#45;&gt;Node13</title>
<path fill="none" stroke="midnightblue" d="M62.5003,-119.963C76.6395,-128.478 95.6243,-138.348 114,-143 171.462,-157.546 239.462,-157.081 287.12,-154.022"/>
<polygon fill="midnightblue" stroke="midnightblue" points="64.2995,-116.96 53.9637,-114.631 60.5914,-122.897 64.2995,-116.96"/>
</g>
<!-- Node14 -->
<g id="node14" class="node"><title>Node14</title>
<g id="a_node14"><a xlink:href="a00356.html#ga08877c101704bebe4fa57e0849dc272d" target="_top" xlink:title="tds71_submit_prepexec() creates a temporary stored procedure in the server. ">
<polygon fill="white" stroke="black" points="114,-0.5 114,-19.5 242,-19.5 242,-0.5 114,-0.5"/>
<text text-anchor="middle" x="178" y="-7.5" font-family="Helvetica,sans-Serif" font-size="10.00">tds71_submit_prepexec</text>
</a>
</g>
</g>
<!-- Node1&#45;&gt;Node14 -->
<g id="edge14" class="edge"><title>Node1&#45;&gt;Node14</title>
<path fill="none" stroke="midnightblue" d="M54.511,-87.5347C68.4016,-71.7489 90.645,-48.7842 114,-34 123.296,-28.1154 134.259,-23.3165 144.412,-19.5993"/>
<polygon fill="midnightblue" stroke="midnightblue" points="51.558,-85.6013 47.6993,-95.4685 56.869,-90.1612 51.558,-85.6013"/>
</g>
<!-- Node15 -->
<g id="node15" class="node"><title>Node15</title>
<g id="a_node15"><a xlink:href="a00356.html#gab71e2dc686eafe926dbebbce00d27dc4" target="_top" xlink:title="Send dynamic request on TDS 7+ to be executed. ">
<polygon fill="white" stroke="black" points="123.5,-76.5 123.5,-95.5 232.5,-95.5 232.5,-76.5 123.5,-76.5"/>
<text text-anchor="middle" x="178" y="-83.5" font-family="Helvetica,sans-Serif" font-size="10.00">tds7_send_execute</text>
</a>
</g>
</g>
<!-- Node1&#45;&gt;Node15 -->
<g id="edge15" class="edge"><title>Node1&#45;&gt;Node15</title>
<path fill="none" stroke="midnightblue" d="M88.325,-98.298C99.6841,-96.7226 111.856,-95.0346 123.43,-93.4294"/>
<polygon fill="midnightblue" stroke="midnightblue" points="87.5865,-94.8668 78.1621,-99.7074 88.5482,-101.8 87.5865,-94.8668"/>
</g>
<!-- Node17 -->
<g id="node17" class="node"><title>Node17</title>
<g id="a_node17"><a xlink:href="a00356.html#ga28264995cf9616661f1fa788ac0d246d" target="_top" xlink:title="Send parameters to server. ">
<polygon fill="white" stroke="black" points="132,-114.5 132,-133.5 224,-133.5 224,-114.5 132,-114.5"/>
<text text-anchor="middle" x="178" y="-121.5" font-family="Helvetica,sans-Serif" font-size="10.00">tds_put_params</text>
</a>
</g>
</g>
<!-- Node1&#45;&gt;Node17 -->
<g id="edge17" class="edge"><title>Node1&#45;&gt;Node17</title>
<path fill="none" stroke="midnightblue" d="M88.2072,-111.686C102.365,-113.649 117.793,-115.789 131.758,-117.726"/>
<polygon fill="midnightblue" stroke="midnightblue" points="88.5482,-108.2 78.1621,-110.293 87.5865,-115.133 88.5482,-108.2"/>
</g>
<!-- Node18 -->
<g id="node18" class="node"><title>Node18</title>
<g id="a_node18"><a xlink:href="a00356.html#ga5f071b94ad7889690762dc85646c74ab" target="_top" xlink:title="tds_submit_rpc() call a RPC from server. ">
<polygon fill="white" stroke="black" points="304.5,-43.5 304.5,-62.5 391.5,-62.5 391.5,-43.5 304.5,-43.5"/>
<text text-anchor="middle" x="348" y="-50.5" font-family="Helvetica,sans-Serif" font-size="10.00">tds_submit_rpc</text>
</a>
</g>
</g>
<!-- Node1&#45;&gt;Node18 -->
<g id="edge23" class="edge"><title>Node1&#45;&gt;Node18</title>
<path fill="none" stroke="midnightblue" d="M62.8328,-90.1309C76.9676,-81.7433 95.8317,-71.9736 114,-67 178.688,-49.2915 257.117,-48.6284 304.484,-50.3726"/>
<polygon fill="midnightblue" stroke="midnightblue" points="60.9741,-87.165 54.282,-95.3788 64.6357,-93.131 60.9741,-87.165"/>
</g>
<!-- Node3 -->
<g id="node3" class="node"><title>Node3</title>
<g id="a_node3"><a xlink:href="a00356.html#ga5a29ae7f99d089dc3cea85ec6ee5f3ab" target="_top" xlink:title="tds_submit_query() sends a language string to the database server for processing. ...">
<polygon fill="white" stroke="black" points="454,-185.5 454,-204.5 552,-204.5 552,-185.5 454,-185.5"/>
<text text-anchor="middle" x="503" y="-192.5" font-family="Helvetica,sans-Serif" font-size="10.00">tds_submit_query</text>
</a>
</g>
</g>
<!-- Node2&#45;&gt;Node3 -->
<g id="edge2" class="edge"><title>Node2&#45;&gt;Node3</title>
<path fill="none" stroke="midnightblue" d="M428.507,-195C437.173,-195 445.788,-195 453.905,-195"/>
<polygon fill="midnightblue" stroke="midnightblue" points="428.337,-191.5 418.337,-195 428.337,-198.5 428.337,-191.5"/>
</g>
<!-- Node4 -->
<g id="node4" class="node"><title>Node4</title>
<g id="a_node4"><a xlink:href="a00344.html#gae67546338cb9542a4902aa914f57f314" target="_top" xlink:title="_bcp_exec_out">
<polygon fill="white" stroke="red" points="746,-318.5 746,-337.5 834,-337.5 834,-318.5 746,-318.5"/>
<text text-anchor="middle" x="790" y="-325.5" font-family="Helvetica,sans-Serif" font-size="10.00">_bcp_exec_out</text>
</a>
</g>
</g>
<!-- Node3&#45;&gt;Node4 -->
<g id="edge3" class="edge"><title>Node3&#45;&gt;Node4</title>
<path fill="none" stroke="midnightblue" d="M514.872,-213.415C528.868,-235.372 555.321,-271.427 588,-290 637.247,-317.989 703.153,-325.852 745.843,-327.803"/>
<polygon fill="midnightblue" stroke="midnightblue" points="517.724,-211.372 509.497,-204.696 511.766,-215.045 517.724,-211.372"/>
</g>
<!-- Node5 -->
<g id="node5" class="node"><title>Node5</title>
<g id="a_node5"><a xlink:href="a00341.html#gac980139b9cea03cf93e373d425991481" target="_top" xlink:title="Transmit the command buffer to the server. ">
<polygon fill="white" stroke="red" points="616.5,-261.5 616.5,-280.5 681.5,-280.5 681.5,-261.5 616.5,-261.5"/>
<text text-anchor="middle" x="649" y="-268.5" font-family="Helvetica,sans-Serif" font-size="10.00">dbsqlsend</text>
</a>
</g>
</g>
<!-- Node3&#45;&gt;Node5 -->
<g id="edge4" class="edge"><title>Node3&#45;&gt;Node5</title>
<path fill="none" stroke="midnightblue" d="M524.101,-211.102C540.513,-223.625 564.718,-240.712 588,-252 596.849,-256.29 606.891,-259.912 616.195,-262.805"/>
<polygon fill="midnightblue" stroke="midnightblue" points="525.884,-208.054 515.841,-204.68 521.588,-213.581 525.884,-208.054"/>
</g>
<!-- Node6 -->
<g id="node6" class="node"><title>Node6</title>
<g id="a_node6"><a xlink:href="a00356.html#gad695defcbf663b0023851a198206a772" target="_top" xlink:title="Format and submit a query. ">
<polygon fill="white" stroke="red" points="598.5,-337.5 598.5,-356.5 699.5,-356.5 699.5,-337.5 598.5,-337.5"/>
<text text-anchor="middle" x="649" y="-344.5" font-family="Helvetica,sans-Serif" font-size="10.00">tds_submit_queryf</text>
</a>
</g>
</g>
<!-- Node3&#45;&gt;Node6 -->
<g id="edge5" class="edge"><title>Node3&#45;&gt;Node6</title>
<path fill="none" stroke="midnightblue" d="M512.019,-214.138C524.476,-241.738 550.956,-292.72 588,-323 595.47,-329.106 604.693,-333.818 613.647,-337.384"/>
<polygon fill="midnightblue" stroke="midnightblue" points="515.149,-212.559 507.939,-204.796 508.734,-215.361 515.149,-212.559"/>
</g>
<!-- Node7 -->
<g id="node7" class="node"><title>Node7</title>
<g id="a_node7"><a xlink:href="a00356.html#gaf0da49585d39e99780a004ee2ca23479" target="_top" xlink:title="Send option commands to server. ">
<polygon fill="white" stroke="black" points="588.5,-223.5 588.5,-242.5 709.5,-242.5 709.5,-223.5 588.5,-223.5"/>
<text text-anchor="middle" x="649" y="-230.5" font-family="Helvetica,sans-Serif" font-size="10.00">tds_submit_optioncmd</text>
</a>
</g>
</g>
<!-- Node3&#45;&gt;Node7 -->
<g id="edge7" class="edge"><title>Node3&#45;&gt;Node7</title>
<path fill="none" stroke="midnightblue" d="M550.172,-207.184C570.164,-212.46 593.219,-218.544 611.924,-223.48"/>
<polygon fill="midnightblue" stroke="midnightblue" points="550.899,-203.756 540.337,-204.589 549.113,-210.525 550.899,-203.756"/>
</g>
<!-- Node8 -->
<g id="node8" class="node"><title>Node8</title>
<g id="a_node8"><a xlink:href="a00356.html#ga7bf3670d3d6dabed469b9eb117298079" target="_top" xlink:title="Send a rollback request. ">
<polygon fill="white" stroke="black" points="588,-185.5 588,-204.5 710,-204.5 710,-185.5 588,-185.5"/>
<text text-anchor="middle" x="649" y="-192.5" font-family="Helvetica,sans-Serif" font-size="10.00">tds_submit_begin_tran</text>
</a>
</g>
</g>
<!-- Node3&#45;&gt;Node8 -->
<g id="edge8" class="edge"><title>Node3&#45;&gt;Node8</title>
<path fill="none" stroke="midnightblue" d="M562.389,-195C570.748,-195 579.361,-195 587.755,-195"/>
<polygon fill="midnightblue" stroke="midnightblue" points="562.351,-191.5 552.351,-195 562.35,-198.5 562.351,-191.5"/>
</g>
<!-- Node9 -->
<g id="node9" class="node"><title>Node9</title>
<g id="a_node9"><a xlink:href="a00356.html#ga9c1cdcc388506a2ca3c0aaee8c461ba6" target="_top" xlink:title="Send a rollback request. ">
<polygon fill="white" stroke="black" points="595,-147.5 595,-166.5 703,-166.5 703,-147.5 595,-147.5"/>
<text text-anchor="middle" x="649" y="-154.5" font-family="Helvetica,sans-Serif" font-size="10.00">tds_submit_rollback</text>
</a>
</g>
</g>
<!-- Node3&#45;&gt;Node9 -->
<g id="edge9" class="edge"><title>Node3&#45;&gt;Node9</title>
<path fill="none" stroke="midnightblue" d="M550.172,-182.816C570.164,-177.54 593.219,-171.456 611.924,-166.52"/>
<polygon fill="midnightblue" stroke="midnightblue" points="549.113,-179.475 540.337,-185.411 550.899,-186.244 549.113,-179.475"/>
</g>
<!-- Node10 -->
<g id="node10" class="node"><title>Node10</title>
<g id="a_node10"><a xlink:href="a00356.html#ga530538c4c975524cf0b771a550fc94a3" target="_top" xlink:title="Send a commit request. ">
<polygon fill="white" stroke="black" points="596.5,-109.5 596.5,-128.5 701.5,-128.5 701.5,-109.5 596.5,-109.5"/>
<text text-anchor="middle" x="649" y="-116.5" font-family="Helvetica,sans-Serif" font-size="10.00">tds_submit_commit</text>
</a>
</g>
</g>
<!-- Node3&#45;&gt;Node10 -->
<g id="edge10" class="edge"><title>Node3&#45;&gt;Node10</title>
<path fill="none" stroke="midnightblue" d="M524.101,-178.898C540.513,-166.375 564.718,-149.288 588,-138 595.472,-134.377 603.796,-131.231 611.807,-128.597"/>
<polygon fill="midnightblue" stroke="midnightblue" points="521.588,-176.419 515.841,-185.32 525.884,-181.946 521.588,-176.419"/>
</g>
<!-- Node11 -->
<g id="node11" class="node"><title>Node11</title>
<g id="a_node11"><a xlink:href="a00193.html#a8208eef2a3974ae1f0cf3c8c8ab011ce" target="_top" xlink:title="Start sending BCP data to server. ">
<polygon fill="white" stroke="red" points="609,-71.5 609,-90.5 689,-90.5 689,-71.5 609,-71.5"/>
<text text-anchor="middle" x="649" y="-78.5" font-family="Helvetica,sans-Serif" font-size="10.00">tds_bcp_start</text>
</a>
</g>
</g>
<!-- Node3&#45;&gt;Node11 -->
<g id="edge11" class="edge"><title>Node3&#45;&gt;Node11</title>
<path fill="none" stroke="midnightblue" d="M515.483,-176.898C529.922,-155.548 556.652,-120.392 588,-100 594.32,-95.889 601.592,-92.6138 608.843,-90.0224"/>
<polygon fill="midnightblue" stroke="midnightblue" points="512.477,-175.098 509.905,-185.376 518.325,-178.946 512.477,-175.098"/>
</g>
<!-- Node12 -->
<g id="node12" class="node"><title>Node12</title>
<g id="a_node12"><a xlink:href="a00359.html#ga55f27c3e05d42c9b07ace1c74b11c5ab" target="_top" xlink:title="Retrieve and set @spid. ">
<polygon fill="white" stroke="red" points="610.5,-33.5 610.5,-52.5 687.5,-52.5 687.5,-33.5 610.5,-33.5"/>
<text text-anchor="middle" x="649" y="-40.5" font-family="Helvetica,sans-Serif" font-size="10.00">tds_set_spid</text>
</a>
</g>
</g>
<!-- Node3&#45;&gt;Node12 -->
<g id="edge12" class="edge"><title>Node3&#45;&gt;Node12</title>
<path fill="none" stroke="midnightblue" d="M511.023,-175.971C522.628,-147.12 548.52,-92.456 588,-62 594.575,-56.9278 602.534,-53.1927 610.476,-50.4477"/>
<polygon fill="midnightblue" stroke="midnightblue" points="507.742,-174.75 507.395,-185.339 514.27,-177.278 507.742,-174.75"/>
</g>
<!-- Node6&#45;&gt;Node4 -->
<g id="edge6" class="edge"><title>Node6&#45;&gt;Node4</title>
<path fill="none" stroke="midnightblue" d="M709.868,-338.817C722.019,-337.156 734.57,-335.44 745.997,-333.878"/>
<polygon fill="midnightblue" stroke="midnightblue" points="709.223,-335.372 699.79,-340.194 710.171,-342.308 709.223,-335.372"/>
</g>
<!-- Node16 -->
<g id="node16" class="node"><title>Node16</title>
<g id="a_node16"><a xlink:href="a00356.html#ga3e7b4793c6f799fbc6c174f673bb5b32" target="_top" xlink:title="tds_submit_execute() sends a previously prepared dynamic statement to the server. ...">
<polygon fill="white" stroke="black" points="293.5,-81.5 293.5,-100.5 402.5,-100.5 402.5,-81.5 293.5,-81.5"/>
<text text-anchor="middle" x="348" y="-88.5" font-family="Helvetica,sans-Serif" font-size="10.00">tds_submit_execute</text>
</a>
</g>
</g>
<!-- Node15&#45;&gt;Node16 -->
<g id="edge16" class="edge"><title>Node15&#45;&gt;Node16</title>
<path fill="none" stroke="midnightblue" d="M242.816,-87.8993C259.469,-88.3949 277.247,-88.924 293.315,-89.4022"/>
<polygon fill="midnightblue" stroke="midnightblue" points="242.718,-84.3949 232.618,-87.5958 242.51,-91.3918 242.718,-84.3949"/>
</g>
<!-- Node17&#45;&gt;Node2 -->
<g id="edge18" class="edge"><title>Node17&#45;&gt;Node2</title>
<path fill="none" stroke="midnightblue" d="M209.865,-137.635C229.354,-146.188 255.091,-157.378 278,-167 292.899,-173.258 309.699,-180.08 322.992,-185.424"/>
<polygon fill="midnightblue" stroke="midnightblue" points="211.128,-134.367 200.565,-133.546 208.311,-140.775 211.128,-134.367"/>
</g>
<!-- Node17&#45;&gt;Node13 -->
<g id="edge19" class="edge"><title>Node17&#45;&gt;Node13</title>
<path fill="none" stroke="midnightblue" d="M234.332,-131.905C251.308,-134.33 270.058,-137.008 287.311,-139.473"/>
<polygon fill="midnightblue" stroke="midnightblue" points="234.415,-128.381 224.021,-130.432 233.425,-135.311 234.415,-128.381"/>
</g>
<!-- Node17&#45;&gt;Node16 -->
<g id="edge20" class="edge"><title>Node17&#45;&gt;Node16</title>
<path fill="none" stroke="midnightblue" d="M234.01,-113.194C254.858,-109.099 278.42,-104.471 298.613,-100.504"/>
<polygon fill="midnightblue" stroke="midnightblue" points="233.159,-109.795 224.021,-115.157 234.508,-116.663 233.159,-109.795"/>
</g>
<!-- Node17&#45;&gt;Node18 -->
<g id="edge21" class="edge"><title>Node17&#45;&gt;Node18</title>
<path fill="none" stroke="midnightblue" d="M229.799,-110.903C234.03,-109.15 238.154,-107.189 242,-105 260.864,-94.2636 259.008,-82.5073 278,-72 286.045,-67.549 295.205,-64.0837 304.162,-61.406"/>
<polygon fill="midnightblue" stroke="midnightblue" points="228.57,-107.626 220.435,-114.414 231.028,-114.18 228.57,-107.626"/>
</g>
<!-- Node19 -->
<g id="node19" class="node"><title>Node19</title>
<g id="a_node19"><a xlink:href="a00342.html#gafa4dfd181be21e49c397f7daaa9cf96c" target="_top" xlink:title="Execute the procedure and free associated memory. ">
<polygon fill="white" stroke="black" points="470,-43.5 470,-62.5 536,-62.5 536,-43.5 470,-43.5"/>
<text text-anchor="middle" x="503" y="-50.5" font-family="Helvetica,sans-Serif" font-size="10.00">dbrpcsend</text>
</a>
</g>
</g>
<!-- Node18&#45;&gt;Node19 -->
<g id="edge22" class="edge"><title>Node18&#45;&gt;Node19</title>
<path fill="none" stroke="midnightblue" d="M401.765,-53C424.389,-53 450.087,-53 469.798,-53"/>
<polygon fill="midnightblue" stroke="midnightblue" points="401.619,-49.5001 391.619,-53 401.619,-56.5001 401.619,-49.5001"/>
</g>
</g>
</svg>
