<?xml version="1.0" encoding="UTF-8" standalone="no"?>
<!DOCTYPE svg PUBLIC "-//W3C//DTD SVG 1.1//EN"
 "http://www.w3.org/Graphics/SVG/1.1/DTD/svg11.dtd">
<!-- Generated by graphviz version 2.38.0 (20140413.2041)
 -->
<!-- Title: tds_process_result Pages: 1 -->
<svg width="869pt" height="516pt"
 viewBox="0.00 0.00 869.00 515.95" xmlns="http://www.w3.org/2000/svg" xmlns:xlink="http://www.w3.org/1999/xlink">
<g id="graph0" class="graph" transform="scale(1 1) rotate(0) translate(4 511.949)">
<title>tds_process_result</title>
<polygon fill="white" stroke="none" points="-4,4 -4,-511.949 865,-511.949 865,4 -4,4"/>
<!-- Node1 -->
<g id="node1" class="node"><title>Node1</title>
<polygon fill="#bfbfbf" stroke="black" points="0,-484.916 0,-503.916 106,-503.916 106,-484.916 0,-484.916"/>
<text text-anchor="middle" x="53" y="-491.916" font-family="Helvetica,sans-Serif" font-size="10.00">tds_process_result</text>
</g>
<!-- Node2 -->
<g id="node2" class="node"><title>Node2</title>
<g id="a_node2"><a xlink:href="a00359.html#ga39453d084f3f780ac4602d4abf2839f7" target="_top" xlink:title="tds_process_default_tokens() is a catch all function that is called to process tokens not known to ot...">
<polygon fill="white" stroke="black" points="142,-425.416 142,-455.416 254,-455.416 254,-425.416 142,-425.416"/>
<text text-anchor="start" x="150" y="-443.416" font-family="Helvetica,sans-Serif" font-size="10.00">tds_process_default</text>
<text text-anchor="middle" x="198" y="-432.416" font-family="Helvetica,sans-Serif" font-size="10.00">_tokens</text>
</a>
</g>
</g>
<!-- Node1&#45;&gt;Node2 -->
<g id="edge1" class="edge"><title>Node1&#45;&gt;Node2</title>
<path fill="none" stroke="midnightblue" d="M88.5932,-481.353C109.273,-473.544 135.629,-463.591 157.175,-455.455"/>
<polygon fill="midnightblue" stroke="midnightblue" points="87.3551,-478.079 79.2364,-484.886 89.828,-484.628 87.3551,-478.079"/>
</g>
<!-- Node4 -->
<g id="node4" class="node"><title>Node4</title>
<g id="a_node4"><a xlink:href="a00359.html#gabfc9de1d1fe718818caf63a4be4035a6" target="_top" xlink:title="process all streams. ">
<polygon fill="white" stroke="black" points="426,-292.916 426,-311.916 538,-311.916 538,-292.916 426,-292.916"/>
<text text-anchor="middle" x="482" y="-299.916" font-family="Helvetica,sans-Serif" font-size="10.00">tds_process_tokens</text>
</a>
</g>
</g>
<!-- Node1&#45;&gt;Node4 -->
<g id="edge23" class="edge"><title>Node1&#45;&gt;Node4</title>
<path fill="none" stroke="midnightblue" d="M116.51,-503.839C188.454,-511.309 307.301,-512.967 390,-459.416 445.533,-423.456 471.192,-340.846 478.621,-312.319"/>
<polygon fill="midnightblue" stroke="midnightblue" points="116.571,-500.324 106.246,-502.7 115.799,-507.281 116.571,-500.324"/>
</g>
<!-- Node3 -->
<g id="node3" class="node"><title>Node3</title>
<g id="a_node3"><a xlink:href="a00359.html#ga93945b42d45ee28ae1296b35a1c1e9bb" target="_top" xlink:title="tds_process_login_tokens() is called after sending the login packet to the server. ">
<polygon fill="white" stroke="black" points="721,-444.916 721,-463.916 861,-463.916 861,-444.916 721,-444.916"/>
<text text-anchor="middle" x="791" y="-451.916" font-family="Helvetica,sans-Serif" font-size="10.00">tds_process_login_tokens</text>
</a>
</g>
</g>
<!-- Node2&#45;&gt;Node3 -->
<g id="edge2" class="edge"><title>Node2&#45;&gt;Node3</title>
<path fill="none" stroke="midnightblue" d="M260.887,-458.059C353.593,-482.006 533.795,-518.936 685,-492.416 715.743,-487.024 749.347,-473.385 770.054,-464.004"/>
<polygon fill="midnightblue" stroke="midnightblue" points="261.668,-454.646 251.107,-455.497 259.893,-461.417 261.668,-454.646"/>
</g>
<!-- Node2&#45;&gt;Node4 -->
<g id="edge3" class="edge"><title>Node2&#45;&gt;Node4</title>
<path fill="none" stroke="midnightblue" d="M238.708,-420.985C299.981,-391 415.307,-334.564 461.317,-312.048"/>
<polygon fill="midnightblue" stroke="midnightblue" points="237.159,-417.846 229.716,-425.385 240.236,-424.133 237.159,-417.846"/>
</g>
<!-- Node18 -->
<g id="node18" class="node"><title>Node18</title>
<g id="a_node18"><a xlink:href="a00359.html#ga81cdf0ed9e8d29cf1ddf66e18efc407d" target="_top" xlink:title="tds_process_msg() is called for MSG, ERR, or EED tokens and is responsible for calling the CLI&#39;s mess...">
<polygon fill="white" stroke="black" points="290,-430.916 290,-449.916 390,-449.916 390,-430.916 290,-430.916"/>
<text text-anchor="middle" x="340" y="-437.916" font-family="Helvetica,sans-Serif" font-size="10.00">tds_process_msg</text>
</a>
</g>
</g>
<!-- Node2&#45;&gt;Node18 -->
<g id="edge20" class="edge"><title>Node2&#45;&gt;Node18</title>
<path fill="none" stroke="midnightblue" d="M264.369,-433.679C272.983,-433.63 281.69,-433.718 289.967,-433.943"/>
<polygon fill="midnightblue" stroke="midnightblue" points="264.289,-430.18 254.332,-433.8 264.373,-437.18 264.289,-430.18"/>
</g>
<!-- Node5 -->
<g id="node5" class="node"><title>Node5</title>
<g id="a_node5"><a xlink:href="a00344.html#gae67546338cb9542a4902aa914f57f314" target="_top" xlink:title="_bcp_exec_out">
<polygon fill="white" stroke="red" points="585.5,-349.916 585.5,-368.916 673.5,-368.916 673.5,-349.916 585.5,-349.916"/>
<text text-anchor="middle" x="629.5" y="-356.916" font-family="Helvetica,sans-Serif" font-size="10.00">_bcp_exec_out</text>
</a>
</g>
</g>
<!-- Node4&#45;&gt;Node5 -->
<g id="edge4" class="edge"><title>Node4&#45;&gt;Node5</title>
<path fill="none" stroke="midnightblue" d="M514.585,-316.155C532.006,-323.594 554.084,-332.794 574,-340.416 582.423,-343.64 591.659,-346.945 600.096,-349.876"/>
<polygon fill="midnightblue" stroke="midnightblue" points="515.487,-312.733 504.917,-312.004 512.725,-319.165 515.487,-312.733"/>
</g>
<!-- Node6 -->
<g id="node6" class="node"><title>Node6</title>
<g id="a_node6"><a xlink:href="a00341.html#gaf1879b85e8238c015b9648d077665285" target="_top" xlink:title="_dbresults">
<polygon fill="white" stroke="red" points="597,-311.916 597,-330.916 662,-330.916 662,-311.916 597,-311.916"/>
<text text-anchor="middle" x="629.5" y="-318.916" font-family="Helvetica,sans-Serif" font-size="10.00">_dbresults</text>
</a>
</g>
</g>
<!-- Node4&#45;&gt;Node6 -->
<g id="edge5" class="edge"><title>Node4&#45;&gt;Node6</title>
<path fill="none" stroke="midnightblue" d="M548.348,-310.95C565.118,-313.14 582.418,-315.399 596.634,-317.255"/>
<polygon fill="midnightblue" stroke="midnightblue" points="548.376,-307.424 538.007,-309.599 547.47,-314.365 548.376,-307.424"/>
</g>
<!-- Node7 -->
<g id="node7" class="node"><title>Node7</title>
<g id="a_node7"><a xlink:href="a00342.html#gaff09873008411a0573f6d1a9e6c7cf4b" target="_top" xlink:title="Get count of output parameters filled by a stored procedure. ">
<polygon fill="white" stroke="red" points="597,-273.916 597,-292.916 662,-292.916 662,-273.916 597,-273.916"/>
<text text-anchor="middle" x="629.5" y="-280.916" font-family="Helvetica,sans-Serif" font-size="10.00">dbnumrets</text>
</a>
</g>
</g>
<!-- Node4&#45;&gt;Node7 -->
<g id="edge6" class="edge"><title>Node4&#45;&gt;Node7</title>
<path fill="none" stroke="midnightblue" d="M548.348,-293.883C565.118,-291.693 582.418,-289.434 596.634,-287.577"/>
<polygon fill="midnightblue" stroke="midnightblue" points="547.47,-290.468 538.007,-295.233 548.376,-297.409 547.47,-290.468"/>
</g>
<!-- Node8 -->
<g id="node8" class="node"><title>Node8</title>
<g id="a_node8"><a xlink:href="a00341.html#gae1f50a6a2c31fda57cb481922b06841e" target="_top" xlink:title="Wait for results of a query from the server. ">
<polygon fill="white" stroke="red" points="603,-235.916 603,-254.916 656,-254.916 656,-235.916 603,-235.916"/>
<text text-anchor="middle" x="629.5" y="-242.916" font-family="Helvetica,sans-Serif" font-size="10.00">dbsqlok</text>
</a>
</g>
</g>
<!-- Node4&#45;&gt;Node8 -->
<g id="edge7" class="edge"><title>Node4&#45;&gt;Node8</title>
<path fill="none" stroke="midnightblue" d="M514.585,-288.678C532.006,-281.239 554.084,-272.038 574,-264.416 583.358,-260.835 593.722,-257.152 602.877,-253.994"/>
<polygon fill="midnightblue" stroke="midnightblue" points="512.725,-285.667 504.917,-292.829 515.487,-292.099 512.725,-285.667"/>
</g>
<!-- Node9 -->
<g id="node9" class="node"><title>Node9</title>
<g id="a_node9"><a xlink:href="a00341.html#ga548153eb2eae76c48aa9d4b72258dc1c" target="_top" xlink:title="Send text or image data to the server. ">
<polygon fill="white" stroke="black" points="757,-216.916 757,-235.916 825,-235.916 825,-216.916 757,-216.916"/>
<text text-anchor="middle" x="791" y="-223.916" font-family="Helvetica,sans-Serif" font-size="10.00">dbwritetext</text>
</a>
</g>
</g>
<!-- Node4&#45;&gt;Node9 -->
<g id="edge10" class="edge"><title>Node4&#45;&gt;Node9</title>
<path fill="none" stroke="midnightblue" d="M497.031,-285.037C513.279,-266.437 541.949,-238.04 574,-226.416 635.517,-204.106 713.53,-212.211 756.967,-219.633"/>
<polygon fill="midnightblue" stroke="midnightblue" points="494.254,-282.901 490.473,-292.798 499.6,-287.419 494.254,-282.901"/>
</g>
<!-- Node10 -->
<g id="node10" class="node"><title>Node10</title>
<g id="a_node10"><a xlink:href="a00341.html#ga559e24ba70d0d96c3469eb6ab8f74e05" target="_top" xlink:title="Cancel the query currently being retrieved, discarding all pending rows. ">
<polygon fill="white" stroke="red" points="594,-159.916 594,-178.916 665,-178.916 665,-159.916 594,-159.916"/>
<text text-anchor="middle" x="629.5" y="-166.916" font-family="Helvetica,sans-Serif" font-size="10.00">dbcanquery</text>
</a>
</g>
</g>
<!-- Node4&#45;&gt;Node10 -->
<g id="edge9" class="edge"><title>Node4&#45;&gt;Node10</title>
<path fill="none" stroke="midnightblue" d="M494.472,-283.977C509.994,-260.303 539.719,-219.207 574,-193.416 581.849,-187.512 591.377,-182.684 600.258,-178.948"/>
<polygon fill="midnightblue" stroke="midnightblue" points="491.34,-282.377 488.89,-292.685 497.233,-286.155 491.34,-282.377"/>
</g>
<!-- Node11 -->
<g id="node11" class="node"><title>Node11</title>
<g id="a_node11"><a xlink:href="a00341.html#gadd5685565c8c6c86079e17b8a73b324c" target="_top" xlink:title="Fetch part of a text or image value from the server. ">
<polygon fill="white" stroke="black" points="596,-121.916 596,-140.916 663,-140.916 663,-121.916 596,-121.916"/>
<text text-anchor="middle" x="629.5" y="-128.916" font-family="Helvetica,sans-Serif" font-size="10.00">dbreadtext</text>
</a>
</g>
</g>
<!-- Node4&#45;&gt;Node11 -->
<g id="edge11" class="edge"><title>Node4&#45;&gt;Node11</title>
<path fill="none" stroke="midnightblue" d="M489.573,-283.092C501.44,-251.012 529.431,-186.709 574,-150.416 580.294,-145.291 588.061,-141.507 595.739,-138.729"/>
<polygon fill="midnightblue" stroke="midnightblue" points="486.227,-282.055 486.166,-292.649 492.821,-284.405 486.227,-282.055"/>
</g>
<!-- Node12 -->
<g id="node12" class="node"><title>Node12</title>
<g id="a_node12"><a xlink:href="a00341.html#gac980139b9cea03cf93e373d425991481" target="_top" xlink:title="Transmit the command buffer to the server. ">
<polygon fill="white" stroke="red" points="597,-83.9163 597,-102.916 662,-102.916 662,-83.9163 597,-83.9163"/>
<text text-anchor="middle" x="629.5" y="-90.9163" font-family="Helvetica,sans-Serif" font-size="10.00">dbsqlsend</text>
</a>
</g>
</g>
<!-- Node4&#45;&gt;Node12 -->
<g id="edge12" class="edge"><title>Node4&#45;&gt;Node12</title>
<path fill="none" stroke="midnightblue" d="M487.141,-282.624C496.161,-244.324 521.154,-159.689 574,-112.416 580.423,-106.671 588.681,-102.641 596.816,-99.8235"/>
<polygon fill="midnightblue" stroke="midnightblue" points="483.692,-282.009 484.925,-292.532 490.523,-283.536 483.692,-282.009"/>
</g>
<!-- Node13 -->
<g id="node13" class="node"><title>Node13</title>
<g id="a_node13"><a xlink:href="a00356.html#gaf0da49585d39e99780a004ee2ca23479" target="_top" xlink:title="Send option commands to server. ">
<polygon fill="white" stroke="black" points="730.5,-17.9163 730.5,-36.9163 851.5,-36.9163 851.5,-17.9163 730.5,-17.9163"/>
<text text-anchor="middle" x="791" y="-24.9163" font-family="Helvetica,sans-Serif" font-size="10.00">tds_submit_optioncmd</text>
</a>
</g>
</g>
<!-- Node4&#45;&gt;Node13 -->
<g id="edge13" class="edge"><title>Node4&#45;&gt;Node13</title>
<path fill="none" stroke="midnightblue" d="M482.373,-282.763C481.9,-230.2 488.767,-86.1992 574,-24.4163 630.783,16.7441 719.864,-3.82903 763.759,-17.9094"/>
<polygon fill="midnightblue" stroke="midnightblue" points="478.874,-282.857 482.567,-292.787 485.872,-282.721 478.874,-282.857"/>
</g>
<!-- Node14 -->
<g id="node14" class="node"><title>Node14</title>
<g id="a_node14"><a xlink:href="a00193.html#ac6610c72bd31bad5378f760fa9b12d66" target="_top" xlink:title="Initialize BCP information. ">
<polygon fill="white" stroke="red" points="593,-463.916 593,-482.916 666,-482.916 666,-463.916 593,-463.916"/>
<text text-anchor="middle" x="629.5" y="-470.916" font-family="Helvetica,sans-Serif" font-size="10.00">tds_bcp_init</text>
</a>
</g>
</g>
<!-- Node4&#45;&gt;Node14 -->
<g id="edge14" class="edge"><title>Node4&#45;&gt;Node14</title>
<path fill="none" stroke="midnightblue" d="M489.573,-321.74C501.44,-353.821 529.431,-418.124 574,-454.416 579.517,-458.909 586.166,-462.37 592.894,-465.028"/>
<polygon fill="midnightblue" stroke="midnightblue" points="492.821,-320.427 486.166,-312.183 486.227,-322.778 492.821,-320.427"/>
</g>
<!-- Node15 -->
<g id="node15" class="node"><title>Node15</title>
<g id="a_node15"><a xlink:href="a00359.html#ga55f27c3e05d42c9b07ace1c74b11c5ab" target="_top" xlink:title="Retrieve and set @spid. ">
<polygon fill="white" stroke="black" points="591,-387.916 591,-406.916 668,-406.916 668,-387.916 591,-387.916"/>
<text text-anchor="middle" x="629.5" y="-394.916" font-family="Helvetica,sans-Serif" font-size="10.00">tds_set_spid</text>
</a>
</g>
</g>
<!-- Node4&#45;&gt;Node15 -->
<g id="edge15" class="edge"><title>Node4&#45;&gt;Node15</title>
<path fill="none" stroke="midnightblue" d="M499.288,-319.202C516.504,-336.133 545.116,-362.045 574,-378.416 580.538,-382.122 587.923,-385.287 595.097,-387.91"/>
<polygon fill="midnightblue" stroke="midnightblue" points="501.762,-316.726 492.22,-312.121 496.808,-321.671 501.762,-316.726"/>
</g>
<!-- Node16 -->
<g id="node16" class="node"><title>Node16</title>
<g id="a_node16"><a xlink:href="a00359.html#gaeeb1562044786ea17bea361ed83e6946" target="_top" xlink:title="Process results for simple query as &quot;SET TEXTSIZE&quot; or &quot;USE dbname&quot; If the statement returns results...">
<polygon fill="white" stroke="red" points="574.5,-34.4163 574.5,-64.4163 684.5,-64.4163 684.5,-34.4163 574.5,-34.4163"/>
<text text-anchor="start" x="582.5" y="-52.4163" font-family="Helvetica,sans-Serif" font-size="10.00">tds_process_simple</text>
<text text-anchor="middle" x="629.5" y="-41.4163" font-family="Helvetica,sans-Serif" font-size="10.00">_query</text>
</a>
</g>
</g>
<!-- Node4&#45;&gt;Node16 -->
<g id="edge17" class="edge"><title>Node4&#45;&gt;Node16</title>
<path fill="none" stroke="midnightblue" d="M485.812,-282.81C492.941,-239.766 515.498,-135.94 574,-74.4163 577.658,-70.569 582.022,-67.2624 586.665,-64.4338"/>
<polygon fill="midnightblue" stroke="midnightblue" points="482.333,-282.401 484.255,-292.82 489.25,-283.477 482.333,-282.401"/>
</g>
<!-- Node17 -->
<g id="node17" class="node"><title>Node17</title>
<g id="a_node17"><a xlink:href="a00359.html#gaf233e79967f82f4e0dd4d11524917a34" target="_top" xlink:title="tds_process_cancel">
<polygon fill="white" stroke="red" points="574,-425.916 574,-444.916 685,-444.916 685,-425.916 574,-425.916"/>
<text text-anchor="middle" x="629.5" y="-432.916" font-family="Helvetica,sans-Serif" font-size="10.00">tds_process_cancel</text>
</a>
</g>
</g>
<!-- Node4&#45;&gt;Node17 -->
<g id="edge19" class="edge"><title>Node4&#45;&gt;Node17</title>
<path fill="none" stroke="midnightblue" d="M493.309,-321.069C508.069,-346.149 537.513,-390.572 574,-416.416 579.397,-420.239 585.633,-423.353 591.918,-425.871"/>
<polygon fill="midnightblue" stroke="midnightblue" points="496.232,-319.131 488.225,-312.192 490.158,-322.609 496.232,-319.131"/>
</g>
<!-- Node8&#45;&gt;Node9 -->
<g id="edge8" class="edge"><title>Node8&#45;&gt;Node9</title>
<path fill="none" stroke="midnightblue" d="M666.371,-241.143C693.525,-237.909 730.532,-233.5 756.965,-230.351"/>
<polygon fill="midnightblue" stroke="midnightblue" points="665.642,-237.705 656.126,-242.364 666.47,-244.656 665.642,-237.705"/>
</g>
<!-- Node15&#45;&gt;Node3 -->
<g id="edge16" class="edge"><title>Node15&#45;&gt;Node3</title>
<path fill="none" stroke="midnightblue" d="M667.583,-410.279C673.416,-412.321 679.375,-414.418 685,-416.416 711.854,-425.956 742.489,-437.07 763.708,-444.804"/>
<polygon fill="midnightblue" stroke="midnightblue" points="668.563,-406.914 657.968,-406.922 666.256,-413.522 668.563,-406.914"/>
</g>
<!-- Node16&#45;&gt;Node13 -->
<g id="edge18" class="edge"><title>Node16&#45;&gt;Node13</title>
<path fill="none" stroke="midnightblue" d="M695.05,-40.5128C706.711,-38.9044 718.823,-37.2338 730.337,-35.6457"/>
<polygon fill="midnightblue" stroke="midnightblue" points="694.373,-37.073 684.945,-41.9067 695.329,-44.0074 694.373,-37.073"/>
</g>
<!-- Node18&#45;&gt;Node2 -->
<g id="edge21" class="edge"><title>Node18&#45;&gt;Node2</title>
<path fill="none" stroke="midnightblue" d="M279.806,-447.094C271.36,-447.208 262.7,-447.187 254.332,-447.033"/>
<polygon fill="midnightblue" stroke="midnightblue" points="280.04,-450.59 289.967,-446.89 279.899,-443.592 280.04,-450.59"/>
</g>
<!-- Node18&#45;&gt;Node4 -->
<g id="edge22" class="edge"><title>Node18&#45;&gt;Node4</title>
<path fill="none" stroke="midnightblue" d="M358.237,-423.425C387.833,-394.252 447.403,-335.533 471.023,-312.251"/>
<polygon fill="midnightblue" stroke="midnightblue" points="355.733,-420.979 351.068,-430.492 360.647,-425.964 355.733,-420.979"/>
</g>
</g>
</svg>
