<?xml version="1.0" encoding="UTF-8" standalone="no"?>
<!DOCTYPE svg PUBLIC "-//W3C//DTD SVG 1.1//EN"
 "http://www.w3.org/Graphics/SVG/1.1/DTD/svg11.dtd">
<!-- Generated by graphviz version 2.38.0 (20140413.2041)
 -->
<!-- Title: tds_process_params_result_token Pages: 1 -->
<svg width="879pt" height="518pt"
 viewBox="0.00 0.00 879.00 517.92" xmlns="http://www.w3.org/2000/svg" xmlns:xlink="http://www.w3.org/1999/xlink">
<g id="graph0" class="graph" transform="scale(1 1) rotate(0) translate(4 513.916)">
<title>tds_process_params_result_token</title>
<polygon fill="white" stroke="none" points="-4,4 -4,-513.916 875,-513.916 875,4 -4,4"/>
<!-- Node1 -->
<g id="node1" class="node"><title>Node1</title>
<polygon fill="#bfbfbf" stroke="black" points="0,-479.416 0,-509.416 116,-509.416 116,-479.416 0,-479.416"/>
<text text-anchor="start" x="8" y="-497.416" font-family="Helvetica,sans-Serif" font-size="10.00">tds_process_params</text>
<text text-anchor="middle" x="58" y="-486.416" font-family="Helvetica,sans-Serif" font-size="10.00">_result_token</text>
</g>
<!-- Node2 -->
<g id="node2" class="node"><title>Node2</title>
<g id="a_node2"><a xlink:href="a00359.html#ga39453d084f3f780ac4602d4abf2839f7" target="_top" xlink:title="tds_process_default_tokens() is a catch all function that is called to process tokens not known to ot...">
<polygon fill="white" stroke="black" points="152,-425.416 152,-455.416 264,-455.416 264,-425.416 152,-425.416"/>
<text text-anchor="start" x="160" y="-443.416" font-family="Helvetica,sans-Serif" font-size="10.00">tds_process_default</text>
<text text-anchor="middle" x="208" y="-432.416" font-family="Helvetica,sans-Serif" font-size="10.00">_tokens</text>
</a>
</g>
</g>
<!-- Node1&#45;&gt;Node2 -->
<g id="edge1" class="edge"><title>Node1&#45;&gt;Node2</title>
<path fill="none" stroke="midnightblue" d="M109.83,-475.87C128.074,-469.214 148.407,-461.795 165.738,-455.471"/>
<polygon fill="midnightblue" stroke="midnightblue" points="108.421,-472.659 100.226,-479.374 110.82,-479.235 108.421,-472.659"/>
</g>
<!-- Node4 -->
<g id="node4" class="node"><title>Node4</title>
<g id="a_node4"><a xlink:href="a00359.html#gabfc9de1d1fe718818caf63a4be4035a6" target="_top" xlink:title="process all streams. ">
<polygon fill="white" stroke="black" points="436,-292.916 436,-311.916 548,-311.916 548,-292.916 436,-292.916"/>
<text text-anchor="middle" x="492" y="-299.916" font-family="Helvetica,sans-Serif" font-size="10.00">tds_process_tokens</text>
</a>
</g>
</g>
<!-- Node1&#45;&gt;Node4 -->
<g id="edge23" class="edge"><title>Node1&#45;&gt;Node4</title>
<path fill="none" stroke="midnightblue" d="M126.067,-504.471C199.388,-511.854 317.422,-512.801 400,-459.416 455.825,-423.327 481.446,-340.073 488.728,-311.919"/>
<polygon fill="midnightblue" stroke="midnightblue" points="126.343,-500.981 116.026,-503.391 125.594,-507.94 126.343,-500.981"/>
</g>
<!-- Node3 -->
<g id="node3" class="node"><title>Node3</title>
<g id="a_node3"><a xlink:href="a00359.html#ga93945b42d45ee28ae1296b35a1c1e9bb" target="_top" xlink:title="tds_process_login_tokens() is called after sending the login packet to the server. ">
<polygon fill="white" stroke="black" points="731,-444.916 731,-463.916 871,-463.916 871,-444.916 731,-444.916"/>
<text text-anchor="middle" x="801" y="-451.916" font-family="Helvetica,sans-Serif" font-size="10.00">tds_process_login_tokens</text>
</a>
</g>
</g>
<!-- Node2&#45;&gt;Node3 -->
<g id="edge2" class="edge"><title>Node2&#45;&gt;Node3</title>
<path fill="none" stroke="midnightblue" d="M270.887,-458.059C363.593,-482.006 543.795,-518.936 695,-492.416 725.743,-487.024 759.347,-473.385 780.054,-464.004"/>
<polygon fill="midnightblue" stroke="midnightblue" points="271.668,-454.646 261.107,-455.497 269.893,-461.417 271.668,-454.646"/>
</g>
<!-- Node2&#45;&gt;Node4 -->
<g id="edge3" class="edge"><title>Node2&#45;&gt;Node4</title>
<path fill="none" stroke="midnightblue" d="M248.708,-420.985C309.981,-391 425.307,-334.564 471.317,-312.048"/>
<polygon fill="midnightblue" stroke="midnightblue" points="247.159,-417.846 239.716,-425.385 250.236,-424.133 247.159,-417.846"/>
</g>
<!-- Node18 -->
<g id="node18" class="node"><title>Node18</title>
<g id="a_node18"><a xlink:href="a00359.html#ga81cdf0ed9e8d29cf1ddf66e18efc407d" target="_top" xlink:title="tds_process_msg() is called for MSG, ERR, or EED tokens and is responsible for calling the CLI&#39;s mess...">
<polygon fill="white" stroke="black" points="300,-430.916 300,-449.916 400,-449.916 400,-430.916 300,-430.916"/>
<text text-anchor="middle" x="350" y="-437.916" font-family="Helvetica,sans-Serif" font-size="10.00">tds_process_msg</text>
</a>
</g>
</g>
<!-- Node2&#45;&gt;Node18 -->
<g id="edge20" class="edge"><title>Node2&#45;&gt;Node18</title>
<path fill="none" stroke="midnightblue" d="M274.369,-433.679C282.983,-433.63 291.69,-433.718 299.967,-433.943"/>
<polygon fill="midnightblue" stroke="midnightblue" points="274.289,-430.18 264.332,-433.8 274.373,-437.18 274.289,-430.18"/>
</g>
<!-- Node5 -->
<g id="node5" class="node"><title>Node5</title>
<g id="a_node5"><a xlink:href="a00344.html#gae67546338cb9542a4902aa914f57f314" target="_top" xlink:title="_bcp_exec_out">
<polygon fill="white" stroke="red" points="595.5,-349.916 595.5,-368.916 683.5,-368.916 683.5,-349.916 595.5,-349.916"/>
<text text-anchor="middle" x="639.5" y="-356.916" font-family="Helvetica,sans-Serif" font-size="10.00">_bcp_exec_out</text>
</a>
</g>
</g>
<!-- Node4&#45;&gt;Node5 -->
<g id="edge4" class="edge"><title>Node4&#45;&gt;Node5</title>
<path fill="none" stroke="midnightblue" d="M524.585,-316.155C542.006,-323.594 564.084,-332.794 584,-340.416 592.423,-343.64 601.659,-346.945 610.096,-349.876"/>
<polygon fill="midnightblue" stroke="midnightblue" points="525.487,-312.733 514.917,-312.004 522.725,-319.165 525.487,-312.733"/>
</g>
<!-- Node6 -->
<g id="node6" class="node"><title>Node6</title>
<g id="a_node6"><a xlink:href="a00341.html#gaf1879b85e8238c015b9648d077665285" target="_top" xlink:title="_dbresults">
<polygon fill="white" stroke="red" points="607,-311.916 607,-330.916 672,-330.916 672,-311.916 607,-311.916"/>
<text text-anchor="middle" x="639.5" y="-318.916" font-family="Helvetica,sans-Serif" font-size="10.00">_dbresults</text>
</a>
</g>
</g>
<!-- Node4&#45;&gt;Node6 -->
<g id="edge5" class="edge"><title>Node4&#45;&gt;Node6</title>
<path fill="none" stroke="midnightblue" d="M558.348,-310.95C575.118,-313.14 592.418,-315.399 606.634,-317.255"/>
<polygon fill="midnightblue" stroke="midnightblue" points="558.376,-307.424 548.007,-309.599 557.47,-314.365 558.376,-307.424"/>
</g>
<!-- Node7 -->
<g id="node7" class="node"><title>Node7</title>
<g id="a_node7"><a xlink:href="a00342.html#gaff09873008411a0573f6d1a9e6c7cf4b" target="_top" xlink:title="Get count of output parameters filled by a stored procedure. ">
<polygon fill="white" stroke="red" points="607,-273.916 607,-292.916 672,-292.916 672,-273.916 607,-273.916"/>
<text text-anchor="middle" x="639.5" y="-280.916" font-family="Helvetica,sans-Serif" font-size="10.00">dbnumrets</text>
</a>
</g>
</g>
<!-- Node4&#45;&gt;Node7 -->
<g id="edge6" class="edge"><title>Node4&#45;&gt;Node7</title>
<path fill="none" stroke="midnightblue" d="M558.348,-293.883C575.118,-291.693 592.418,-289.434 606.634,-287.577"/>
<polygon fill="midnightblue" stroke="midnightblue" points="557.47,-290.468 548.007,-295.233 558.376,-297.409 557.47,-290.468"/>
</g>
<!-- Node8 -->
<g id="node8" class="node"><title>Node8</title>
<g id="a_node8"><a xlink:href="a00341.html#gae1f50a6a2c31fda57cb481922b06841e" target="_top" xlink:title="Wait for results of a query from the server. ">
<polygon fill="white" stroke="red" points="613,-235.916 613,-254.916 666,-254.916 666,-235.916 613,-235.916"/>
<text text-anchor="middle" x="639.5" y="-242.916" font-family="Helvetica,sans-Serif" font-size="10.00">dbsqlok</text>
</a>
</g>
</g>
<!-- Node4&#45;&gt;Node8 -->
<g id="edge7" class="edge"><title>Node4&#45;&gt;Node8</title>
<path fill="none" stroke="midnightblue" d="M524.585,-288.678C542.006,-281.239 564.084,-272.038 584,-264.416 593.358,-260.835 603.722,-257.152 612.877,-253.994"/>
<polygon fill="midnightblue" stroke="midnightblue" points="522.725,-285.667 514.917,-292.829 525.487,-292.099 522.725,-285.667"/>
</g>
<!-- Node9 -->
<g id="node9" class="node"><title>Node9</title>
<g id="a_node9"><a xlink:href="a00341.html#ga548153eb2eae76c48aa9d4b72258dc1c" target="_top" xlink:title="Send text or image data to the server. ">
<polygon fill="white" stroke="black" points="767,-216.916 767,-235.916 835,-235.916 835,-216.916 767,-216.916"/>
<text text-anchor="middle" x="801" y="-223.916" font-family="Helvetica,sans-Serif" font-size="10.00">dbwritetext</text>
</a>
</g>
</g>
<!-- Node4&#45;&gt;Node9 -->
<g id="edge10" class="edge"><title>Node4&#45;&gt;Node9</title>
<path fill="none" stroke="midnightblue" d="M507.031,-285.037C523.279,-266.437 551.949,-238.04 584,-226.416 645.517,-204.106 723.53,-212.211 766.967,-219.633"/>
<polygon fill="midnightblue" stroke="midnightblue" points="504.254,-282.901 500.473,-292.798 509.6,-287.419 504.254,-282.901"/>
</g>
<!-- Node10 -->
<g id="node10" class="node"><title>Node10</title>
<g id="a_node10"><a xlink:href="a00341.html#ga559e24ba70d0d96c3469eb6ab8f74e05" target="_top" xlink:title="Cancel the query currently being retrieved, discarding all pending rows. ">
<polygon fill="white" stroke="red" points="604,-159.916 604,-178.916 675,-178.916 675,-159.916 604,-159.916"/>
<text text-anchor="middle" x="639.5" y="-166.916" font-family="Helvetica,sans-Serif" font-size="10.00">dbcanquery</text>
</a>
</g>
</g>
<!-- Node4&#45;&gt;Node10 -->
<g id="edge9" class="edge"><title>Node4&#45;&gt;Node10</title>
<path fill="none" stroke="midnightblue" d="M504.472,-283.977C519.994,-260.303 549.719,-219.207 584,-193.416 591.849,-187.512 601.377,-182.684 610.258,-178.948"/>
<polygon fill="midnightblue" stroke="midnightblue" points="501.34,-282.377 498.89,-292.685 507.233,-286.155 501.34,-282.377"/>
</g>
<!-- Node11 -->
<g id="node11" class="node"><title>Node11</title>
<g id="a_node11"><a xlink:href="a00341.html#gadd5685565c8c6c86079e17b8a73b324c" target="_top" xlink:title="Fetch part of a text or image value from the server. ">
<polygon fill="white" stroke="black" points="606,-121.916 606,-140.916 673,-140.916 673,-121.916 606,-121.916"/>
<text text-anchor="middle" x="639.5" y="-128.916" font-family="Helvetica,sans-Serif" font-size="10.00">dbreadtext</text>
</a>
</g>
</g>
<!-- Node4&#45;&gt;Node11 -->
<g id="edge11" class="edge"><title>Node4&#45;&gt;Node11</title>
<path fill="none" stroke="midnightblue" d="M499.573,-283.092C511.44,-251.012 539.431,-186.709 584,-150.416 590.294,-145.291 598.061,-141.507 605.739,-138.729"/>
<polygon fill="midnightblue" stroke="midnightblue" points="496.227,-282.055 496.166,-292.649 502.821,-284.405 496.227,-282.055"/>
</g>
<!-- Node12 -->
<g id="node12" class="node"><title>Node12</title>
<g id="a_node12"><a xlink:href="a00341.html#gac980139b9cea03cf93e373d425991481" target="_top" xlink:title="Transmit the command buffer to the server. ">
<polygon fill="white" stroke="red" points="607,-83.9163 607,-102.916 672,-102.916 672,-83.9163 607,-83.9163"/>
<text text-anchor="middle" x="639.5" y="-90.9163" font-family="Helvetica,sans-Serif" font-size="10.00">dbsqlsend</text>
</a>
</g>
</g>
<!-- Node4&#45;&gt;Node12 -->
<g id="edge12" class="edge"><title>Node4&#45;&gt;Node12</title>
<path fill="none" stroke="midnightblue" d="M497.141,-282.624C506.161,-244.324 531.154,-159.689 584,-112.416 590.423,-106.671 598.681,-102.641 606.816,-99.8235"/>
<polygon fill="midnightblue" stroke="midnightblue" points="493.692,-282.009 494.925,-292.532 500.523,-283.536 493.692,-282.009"/>
</g>
<!-- Node13 -->
<g id="node13" class="node"><title>Node13</title>
<g id="a_node13"><a xlink:href="a00356.html#gaf0da49585d39e99780a004ee2ca23479" target="_top" xlink:title="Send option commands to server. ">
<polygon fill="white" stroke="black" points="740.5,-17.9163 740.5,-36.9163 861.5,-36.9163 861.5,-17.9163 740.5,-17.9163"/>
<text text-anchor="middle" x="801" y="-24.9163" font-family="Helvetica,sans-Serif" font-size="10.00">tds_submit_optioncmd</text>
</a>
</g>
</g>
<!-- Node4&#45;&gt;Node13 -->
<g id="edge13" class="edge"><title>Node4&#45;&gt;Node13</title>
<path fill="none" stroke="midnightblue" d="M492.373,-282.763C491.9,-230.2 498.767,-86.1992 584,-24.4163 640.783,16.7441 729.864,-3.82903 773.759,-17.9094"/>
<polygon fill="midnightblue" stroke="midnightblue" points="488.874,-282.857 492.567,-292.787 495.872,-282.721 488.874,-282.857"/>
</g>
<!-- Node14 -->
<g id="node14" class="node"><title>Node14</title>
<g id="a_node14"><a xlink:href="a00193.html#ac6610c72bd31bad5378f760fa9b12d66" target="_top" xlink:title="Initialize BCP information. ">
<polygon fill="white" stroke="red" points="603,-463.916 603,-482.916 676,-482.916 676,-463.916 603,-463.916"/>
<text text-anchor="middle" x="639.5" y="-470.916" font-family="Helvetica,sans-Serif" font-size="10.00">tds_bcp_init</text>
</a>
</g>
</g>
<!-- Node4&#45;&gt;Node14 -->
<g id="edge14" class="edge"><title>Node4&#45;&gt;Node14</title>
<path fill="none" stroke="midnightblue" d="M499.573,-321.74C511.44,-353.821 539.431,-418.124 584,-454.416 589.517,-458.909 596.166,-462.37 602.894,-465.028"/>
<polygon fill="midnightblue" stroke="midnightblue" points="502.821,-320.427 496.166,-312.183 496.227,-322.778 502.821,-320.427"/>
</g>
<!-- Node15 -->
<g id="node15" class="node"><title>Node15</title>
<g id="a_node15"><a xlink:href="a00359.html#ga55f27c3e05d42c9b07ace1c74b11c5ab" target="_top" xlink:title="Retrieve and set @spid. ">
<polygon fill="white" stroke="black" points="601,-387.916 601,-406.916 678,-406.916 678,-387.916 601,-387.916"/>
<text text-anchor="middle" x="639.5" y="-394.916" font-family="Helvetica,sans-Serif" font-size="10.00">tds_set_spid</text>
</a>
</g>
</g>
<!-- Node4&#45;&gt;Node15 -->
<g id="edge15" class="edge"><title>Node4&#45;&gt;Node15</title>
<path fill="none" stroke="midnightblue" d="M509.288,-319.202C526.504,-336.133 555.116,-362.045 584,-378.416 590.538,-382.122 597.923,-385.287 605.097,-387.91"/>
<polygon fill="midnightblue" stroke="midnightblue" points="511.762,-316.726 502.22,-312.121 506.808,-321.671 511.762,-316.726"/>
</g>
<!-- Node16 -->
<g id="node16" class="node"><title>Node16</title>
<g id="a_node16"><a xlink:href="a00359.html#gaeeb1562044786ea17bea361ed83e6946" target="_top" xlink:title="Process results for simple query as &quot;SET TEXTSIZE&quot; or &quot;USE dbname&quot; If the statement returns results...">
<polygon fill="white" stroke="red" points="584.5,-34.4163 584.5,-64.4163 694.5,-64.4163 694.5,-34.4163 584.5,-34.4163"/>
<text text-anchor="start" x="592.5" y="-52.4163" font-family="Helvetica,sans-Serif" font-size="10.00">tds_process_simple</text>
<text text-anchor="middle" x="639.5" y="-41.4163" font-family="Helvetica,sans-Serif" font-size="10.00">_query</text>
</a>
</g>
</g>
<!-- Node4&#45;&gt;Node16 -->
<g id="edge17" class="edge"><title>Node4&#45;&gt;Node16</title>
<path fill="none" stroke="midnightblue" d="M495.812,-282.81C502.941,-239.766 525.498,-135.94 584,-74.4163 587.658,-70.569 592.022,-67.2624 596.665,-64.4338"/>
<polygon fill="midnightblue" stroke="midnightblue" points="492.333,-282.401 494.255,-292.82 499.25,-283.477 492.333,-282.401"/>
</g>
<!-- Node17 -->
<g id="node17" class="node"><title>Node17</title>
<g id="a_node17"><a xlink:href="a00359.html#gaf233e79967f82f4e0dd4d11524917a34" target="_top" xlink:title="tds_process_cancel">
<polygon fill="white" stroke="red" points="584,-425.916 584,-444.916 695,-444.916 695,-425.916 584,-425.916"/>
<text text-anchor="middle" x="639.5" y="-432.916" font-family="Helvetica,sans-Serif" font-size="10.00">tds_process_cancel</text>
</a>
</g>
</g>
<!-- Node4&#45;&gt;Node17 -->
<g id="edge19" class="edge"><title>Node4&#45;&gt;Node17</title>
<path fill="none" stroke="midnightblue" d="M503.309,-321.069C518.069,-346.149 547.513,-390.572 584,-416.416 589.397,-420.239 595.633,-423.353 601.918,-425.871"/>
<polygon fill="midnightblue" stroke="midnightblue" points="506.232,-319.131 498.225,-312.192 500.158,-322.609 506.232,-319.131"/>
</g>
<!-- Node8&#45;&gt;Node9 -->
<g id="edge8" class="edge"><title>Node8&#45;&gt;Node9</title>
<path fill="none" stroke="midnightblue" d="M676.371,-241.143C703.525,-237.909 740.532,-233.5 766.965,-230.351"/>
<polygon fill="midnightblue" stroke="midnightblue" points="675.642,-237.705 666.126,-242.364 676.47,-244.656 675.642,-237.705"/>
</g>
<!-- Node15&#45;&gt;Node3 -->
<g id="edge16" class="edge"><title>Node15&#45;&gt;Node3</title>
<path fill="none" stroke="midnightblue" d="M677.583,-410.279C683.416,-412.321 689.375,-414.418 695,-416.416 721.854,-425.956 752.489,-437.07 773.708,-444.804"/>
<polygon fill="midnightblue" stroke="midnightblue" points="678.563,-406.914 667.968,-406.922 676.256,-413.522 678.563,-406.914"/>
</g>
<!-- Node16&#45;&gt;Node13 -->
<g id="edge18" class="edge"><title>Node16&#45;&gt;Node13</title>
<path fill="none" stroke="midnightblue" d="M705.05,-40.5128C716.711,-38.9044 728.823,-37.2338 740.337,-35.6457"/>
<polygon fill="midnightblue" stroke="midnightblue" points="704.373,-37.073 694.945,-41.9067 705.329,-44.0074 704.373,-37.073"/>
</g>
<!-- Node18&#45;&gt;Node2 -->
<g id="edge21" class="edge"><title>Node18&#45;&gt;Node2</title>
<path fill="none" stroke="midnightblue" d="M289.806,-447.094C281.36,-447.208 272.7,-447.187 264.332,-447.033"/>
<polygon fill="midnightblue" stroke="midnightblue" points="290.04,-450.59 299.967,-446.89 289.899,-443.592 290.04,-450.59"/>
</g>
<!-- Node18&#45;&gt;Node4 -->
<g id="edge22" class="edge"><title>Node18&#45;&gt;Node4</title>
<path fill="none" stroke="midnightblue" d="M368.237,-423.425C397.833,-394.252 457.403,-335.533 481.023,-312.251"/>
<polygon fill="midnightblue" stroke="midnightblue" points="365.733,-420.979 361.068,-430.492 370.647,-425.964 365.733,-420.979"/>
</g>
</g>
</svg>
