<?xml version="1.0" encoding="UTF-8" standalone="no"?>
<!DOCTYPE svg PUBLIC "-//W3C//DTD SVG 1.1//EN"
 "http://www.w3.org/Graphics/SVG/1.1/DTD/svg11.dtd">
<!-- Generated by graphviz version 2.38.0 (20140413.2041)
 -->
<!-- Title: dbtablecolinfo Pages: 1 -->
<svg width="446pt" height="104pt"
 viewBox="0.00 0.00 446.00 104.00" xmlns="http://www.w3.org/2000/svg" xmlns:xlink="http://www.w3.org/1999/xlink">
<g id="graph0" class="graph" transform="scale(1 1) rotate(0) translate(4 100)">
<title>dbtablecolinfo</title>
<polygon fill="white" stroke="none" points="-4,4 -4,-100 442,-100 442,4 -4,4"/>
<!-- Node1 -->
<g id="node1" class="node"><title>Node1</title>
<polygon fill="#bfbfbf" stroke="black" points="0,-38.5 0,-57.5 81,-57.5 81,-38.5 0,-38.5"/>
<text text-anchor="middle" x="40.5" y="-45.5" font-family="Helvetica,sans-Serif" font-size="10.00">dbtablecolinfo</text>
</g>
<!-- Node2 -->
<g id="node2" class="node"><title>Node2</title>
<g id="a_node2"><a xlink:href="a00193.html#ab45c291105027e69836002e1dd586141" target="_top" xlink:title="Write a message to the debug log. ">
<polygon fill="white" stroke="black" points="331.5,-76.5 331.5,-95.5 408.5,-95.5 408.5,-76.5 331.5,-76.5"/>
<text text-anchor="middle" x="370" y="-83.5" font-family="Helvetica,sans-Serif" font-size="10.00">tdsdump_log</text>
</a>
</g>
</g>
<!-- Node1&#45;&gt;Node2 -->
<g id="edge1" class="edge"><title>Node1&#45;&gt;Node2</title>
<path fill="none" stroke="midnightblue" d="M74.3205,-57.5611C87.4827,-61.0527 102.858,-64.7047 117,-67 187.498,-78.4417 270.234,-83.0149 321.139,-84.8282"/>
<polygon fill="midnightblue" stroke="midnightblue" points="321.081,-88.3281 331.192,-85.165 321.315,-81.332 321.081,-88.3281"/>
</g>
<!-- Node3 -->
<g id="node3" class="node"><title>Node3</title>
<g id="a_node3"><a xlink:href="a00193.html#ae7f4c4d5f7352f1c814284c536659e6f" target="_top" xlink:title="Return type suitable for conversions (convert all nullable types to fixed type) ">
<polygon fill="white" stroke="black" points="302,-0.5 302,-19.5 438,-19.5 438,-0.5 302,-0.5"/>
<text text-anchor="middle" x="370" y="-7.5" font-family="Helvetica,sans-Serif" font-size="10.00">tds_get_conversion_type</text>
</a>
</g>
</g>
<!-- Node1&#45;&gt;Node3 -->
<g id="edge2" class="edge"><title>Node1&#45;&gt;Node3</title>
<path fill="none" stroke="midnightblue" d="M74.3205,-38.4389C87.4827,-34.9473 102.858,-31.2953 117,-29 175.141,-19.5639 241.605,-14.7994 291.673,-12.4019"/>
<polygon fill="midnightblue" stroke="midnightblue" points="291.95,-15.893 301.78,-11.9393 291.63,-8.90029 291.95,-15.893"/>
</g>
<!-- Node4 -->
<g id="node4" class="node"><title>Node4</title>
<g id="a_node4"><a xlink:href="a00356.html#ga50d62edeb2a432e2dc668263f3f958ff" target="_top" xlink:title="Return declaration for column (like &quot;varchar(20)&quot;) ">
<polygon fill="white" stroke="black" points="117,-38.5 117,-57.5 266,-57.5 266,-38.5 117,-38.5"/>
<text text-anchor="middle" x="191.5" y="-45.5" font-family="Helvetica,sans-Serif" font-size="10.00">tds_get_column_declaration</text>
</a>
</g>
</g>
<!-- Node1&#45;&gt;Node4 -->
<g id="edge3" class="edge"><title>Node1&#45;&gt;Node4</title>
<path fill="none" stroke="midnightblue" d="M81.0381,-48C89.0561,-48 97.7728,-48 106.67,-48"/>
<polygon fill="midnightblue" stroke="midnightblue" points="106.764,-51.5001 116.764,-48 106.764,-44.5001 106.764,-51.5001"/>
</g>
<!-- Node4&#45;&gt;Node2 -->
<g id="edge6" class="edge"><title>Node4&#45;&gt;Node2</title>
<path fill="none" stroke="midnightblue" d="M237.038,-57.589C262.733,-63.1209 295.041,-70.0767 321.257,-75.7211"/>
<polygon fill="midnightblue" stroke="midnightblue" points="320.833,-79.21 331.346,-77.8932 322.307,-72.3668 320.833,-79.21"/>
</g>
<!-- Node4&#45;&gt;Node3 -->
<g id="edge5" class="edge"><title>Node4&#45;&gt;Node3</title>
<path fill="none" stroke="midnightblue" d="M237.038,-38.411C260.644,-33.3287 289.832,-27.0446 314.751,-21.6797"/>
<polygon fill="midnightblue" stroke="midnightblue" points="315.743,-25.0465 324.782,-19.5201 314.269,-18.2033 315.743,-25.0465"/>
</g>
<!-- Node5 -->
<g id="node5" class="node"><title>Node5</title>
<g id="a_node5"><a xlink:href="a00356.html#ga440f0f469afad1eac4c008979873ccdd" target="_top" xlink:title="Get column size for wire. ">
<polygon fill="white" stroke="black" points="314.5,-38.5 314.5,-57.5 425.5,-57.5 425.5,-38.5 314.5,-38.5"/>
<text text-anchor="middle" x="370" y="-45.5" font-family="Helvetica,sans-Serif" font-size="10.00">tds_fix_column_size</text>
</a>
</g>
</g>
<!-- Node4&#45;&gt;Node5 -->
<g id="edge4" class="edge"><title>Node4&#45;&gt;Node5</title>
<path fill="none" stroke="midnightblue" d="M266.074,-48C278.71,-48 291.76,-48 304.147,-48"/>
<polygon fill="midnightblue" stroke="midnightblue" points="304.372,-51.5001 314.372,-48 304.372,-44.5001 304.372,-51.5001"/>
</g>
</g>
</svg>
