<?xml version="1.0" encoding="UTF-8" standalone="no"?>
<!DOCTYPE svg PUBLIC "-//W3C//DTD SVG 1.1//EN"
 "http://www.w3.org/Graphics/SVG/1.1/DTD/svg11.dtd">
<!-- Generated by graphviz version 2.38.0 (20140413.2041)
 -->
<!-- Title: dbrpcparam Pages: 1 -->
<svg width="287pt" height="47pt"
 viewBox="0.00 0.00 287.00 47.00" xmlns="http://www.w3.org/2000/svg" xmlns:xlink="http://www.w3.org/1999/xlink">
<g id="graph0" class="graph" transform="scale(1 1) rotate(0) translate(4 43)">
<title>dbrpcparam</title>
<polygon fill="white" stroke="none" points="-4,4 -4,-43 283,-43 283,4 -4,4"/>
<!-- Node1 -->
<g id="node1" class="node"><title>Node1</title>
<polygon fill="#bfbfbf" stroke="black" points="0,-19.5 0,-38.5 73,-38.5 73,-19.5 0,-19.5"/>
<text text-anchor="middle" x="36.5" y="-26.5" font-family="Helvetica,sans-Serif" font-size="10.00">dbrpcparam</text>
</g>
<!-- Node2 -->
<g id="node2" class="node"><title>Node2</title>
<g id="a_node2"><a xlink:href="a00193.html#ab45c291105027e69836002e1dd586141" target="_top" xlink:title="Write a message to the debug log. ">
<polygon fill="white" stroke="black" points="202,-19.5 202,-38.5 279,-38.5 279,-19.5 202,-19.5"/>
<text text-anchor="middle" x="240.5" y="-26.5" font-family="Helvetica,sans-Serif" font-size="10.00">tdsdump_log</text>
</a>
</g>
</g>
<!-- Node1&#45;&gt;Node2 -->
<g id="edge1" class="edge"><title>Node1&#45;&gt;Node2</title>
<path fill="none" stroke="midnightblue" d="M73.1486,-29C106.033,-29 155.115,-29 191.45,-29"/>
<polygon fill="midnightblue" stroke="midnightblue" points="191.81,-32.5001 201.81,-29 191.81,-25.5001 191.81,-32.5001"/>
</g>
<!-- Node3 -->
<g id="node3" class="node"><title>Node3</title>
<g id="a_node3"><a xlink:href="a00347.html#ga302a4ce6559b81808e3be51615cd1b67" target="_top" xlink:title="Call client&#45;installed error handler. ">
<polygon fill="white" stroke="black" points="109,-0.5 109,-19.5 166,-19.5 166,-0.5 109,-0.5"/>
<text text-anchor="middle" x="137.5" y="-7.5" font-family="Helvetica,sans-Serif" font-size="10.00">dbperror</text>
</a>
</g>
</g>
<!-- Node1&#45;&gt;Node3 -->
<g id="edge2" class="edge"><title>Node1&#45;&gt;Node3</title>
<path fill="none" stroke="midnightblue" d="M73.2413,-22.1406C81.5889,-20.5385 90.5036,-18.8276 98.9281,-17.2108"/>
<polygon fill="midnightblue" stroke="midnightblue" points="99.729,-20.621 108.89,-15.2989 98.4096,-13.7465 99.729,-20.621"/>
</g>
<!-- Node3&#45;&gt;Node2 -->
<g id="edge3" class="edge"><title>Node3&#45;&gt;Node2</title>
<path fill="none" stroke="midnightblue" d="M166.099,-15.1918C174.077,-16.6926 183.022,-18.3755 191.851,-20.0363"/>
<polygon fill="midnightblue" stroke="midnightblue" points="191.237,-23.4822 201.712,-21.8913 192.531,-16.6028 191.237,-23.4822"/>
</g>
</g>
</svg>
