<?xml version="1.0" encoding="UTF-8" standalone="no"?>
<!DOCTYPE svg PUBLIC "-//W3C//DTD SVG 1.1//EN"
 "http://www.w3.org/Graphics/SVG/1.1/DTD/svg11.dtd">
<!-- Generated by graphviz version 2.38.0 (20140413.2041)
 -->
<!-- Title: tds_get_uint Pages: 1 -->
<svg width="1014pt" height="504pt"
 viewBox="0.00 0.00 1014.00 503.58" xmlns="http://www.w3.org/2000/svg" xmlns:xlink="http://www.w3.org/1999/xlink">
<g id="graph0" class="graph" transform="scale(1 1) rotate(0) translate(4 499.579)">
<title>tds_get_uint</title>
<polygon fill="white" stroke="none" points="-4,4 -4,-499.579 1010,-499.579 1010,4 -4,4"/>
<!-- Node1 -->
<g id="node1" class="node"><title>Node1</title>
<polygon fill="#bfbfbf" stroke="black" points="0,-218.5 0,-237.5 74,-237.5 74,-218.5 0,-218.5"/>
<text text-anchor="middle" x="37" y="-225.5" font-family="Helvetica,sans-Serif" font-size="10.00">tds_get_uint</text>
</g>
<!-- Node2 -->
<g id="node2" class="node"><title>Node2</title>
<g id="a_node2"><a xlink:href="a00359.html#ga39453d084f3f780ac4602d4abf2839f7" target="_top" xlink:title="tds_process_default_tokens() is a catch all function that is called to process tokens not known to ot...">
<polygon fill="white" stroke="black" points="287,-175 287,-205 399,-205 399,-175 287,-175"/>
<text text-anchor="start" x="295" y="-193" font-family="Helvetica,sans-Serif" font-size="10.00">tds_process_default</text>
<text text-anchor="middle" x="343" y="-182" font-family="Helvetica,sans-Serif" font-size="10.00">_tokens</text>
</a>
</g>
</g>
<!-- Node1&#45;&gt;Node2 -->
<g id="edge1" class="edge"><title>Node1&#45;&gt;Node2</title>
<path fill="none" stroke="midnightblue" d="M79.0363,-215.837C89.0884,-213.228 99.8702,-210.737 110,-209 169.946,-198.719 239.591,-193.959 286.813,-191.782"/>
<polygon fill="midnightblue" stroke="midnightblue" points="78.0265,-212.484 69.2787,-218.461 79.8446,-219.243 78.0265,-212.484"/>
</g>
<!-- Node19 -->
<g id="node19" class="node"><title>Node19</title>
<g id="a_node19"><a xlink:href="a00359.html#ga547b2f48659f77a69aa802d861ac827d" target="_top" xlink:title="tds5_process_result() is the new TDS 5.0 result set processing routine. ">
<polygon fill="white" stroke="black" points="124.5,-256.5 124.5,-275.5 236.5,-275.5 236.5,-256.5 124.5,-256.5"/>
<text text-anchor="middle" x="180.5" y="-263.5" font-family="Helvetica,sans-Serif" font-size="10.00">tds5_process_result</text>
</a>
</g>
</g>
<!-- Node1&#45;&gt;Node19 -->
<g id="edge23" class="edge"><title>Node1&#45;&gt;Node19</title>
<path fill="none" stroke="midnightblue" d="M83.601,-240.246C103.105,-245.484 125.54,-251.509 143.805,-256.414"/>
<polygon fill="midnightblue" stroke="midnightblue" points="84.272,-236.802 73.7064,-237.589 82.4564,-243.563 84.272,-236.802"/>
</g>
<!-- Node20 -->
<g id="node20" class="node"><title>Node20</title>
<g id="a_node20"><a xlink:href="a00359.html#gae688b515631141acfbc41bbb91c8b921" target="_top" xlink:title="Process new TDS 5.0 token for describing output parameters. ">
<polygon fill="white" stroke="black" points="110,-218.5 110,-237.5 251,-237.5 251,-218.5 110,-218.5"/>
<text text-anchor="middle" x="180.5" y="-225.5" font-family="Helvetica,sans-Serif" font-size="10.00">tds5_process_dyn_result2</text>
</a>
</g>
</g>
<!-- Node1&#45;&gt;Node20 -->
<g id="edge26" class="edge"><title>Node1&#45;&gt;Node20</title>
<path fill="none" stroke="midnightblue" d="M84.1954,-228C92.4328,-228 101.177,-228 109.898,-228"/>
<polygon fill="midnightblue" stroke="midnightblue" points="84.0726,-224.5 74.0725,-228 84.0725,-231.5 84.0726,-224.5"/>
</g>
<!-- Node3 -->
<g id="node3" class="node"><title>Node3</title>
<g id="a_node3"><a xlink:href="a00359.html#ga93945b42d45ee28ae1296b35a1c1e9bb" target="_top" xlink:title="tds_process_login_tokens() is called after sending the login packet to the server. ">
<polygon fill="white" stroke="black" points="866,-0.5 866,-19.5 1006,-19.5 1006,-0.5 866,-0.5"/>
<text text-anchor="middle" x="936" y="-7.5" font-family="Helvetica,sans-Serif" font-size="10.00">tds_process_login_tokens</text>
</a>
</g>
</g>
<!-- Node2&#45;&gt;Node3 -->
<g id="edge2" class="edge"><title>Node2&#45;&gt;Node3</title>
<path fill="none" stroke="midnightblue" d="M374.875,-169.184C436.823,-128.823 582.086,-41.1576 719,-10 767.083,0.942317 822.762,0.643113 865.546,-2.23593"/>
<polygon fill="midnightblue" stroke="midnightblue" points="372.788,-166.368 366.351,-174.783 376.631,-172.218 372.788,-166.368"/>
</g>
<!-- Node4 -->
<g id="node4" class="node"><title>Node4</title>
<g id="a_node4"><a xlink:href="a00359.html#gabfc9de1d1fe718818caf63a4be4035a6" target="_top" xlink:title="process all streams. ">
<polygon fill="white" stroke="black" points="571,-240.5 571,-259.5 683,-259.5 683,-240.5 571,-240.5"/>
<text text-anchor="middle" x="627" y="-247.5" font-family="Helvetica,sans-Serif" font-size="10.00">tds_process_tokens</text>
</a>
</g>
</g>
<!-- Node2&#45;&gt;Node4 -->
<g id="edge3" class="edge"><title>Node2&#45;&gt;Node4</title>
<path fill="none" stroke="midnightblue" d="M408.986,-203.827C461.789,-215.062 534.88,-230.613 581.302,-240.49"/>
<polygon fill="midnightblue" stroke="midnightblue" points="409.551,-200.369 399.042,-201.711 408.095,-207.216 409.551,-200.369"/>
</g>
<!-- Node18 -->
<g id="node18" class="node"><title>Node18</title>
<g id="a_node18"><a xlink:href="a00359.html#ga81cdf0ed9e8d29cf1ddf66e18efc407d" target="_top" xlink:title="tds_process_msg() is called for MSG, ERR, or EED tokens and is responsible for calling the CLI&#39;s mess...">
<polygon fill="white" stroke="black" points="435,-164.5 435,-183.5 535,-183.5 535,-164.5 435,-164.5"/>
<text text-anchor="middle" x="485" y="-171.5" font-family="Helvetica,sans-Serif" font-size="10.00">tds_process_msg</text>
</a>
</g>
</g>
<!-- Node2&#45;&gt;Node18 -->
<g id="edge20" class="edge"><title>Node2&#45;&gt;Node18</title>
<path fill="none" stroke="midnightblue" d="M409.369,-175.792C417.983,-174.759 426.69,-173.852 434.967,-173.13"/>
<polygon fill="midnightblue" stroke="midnightblue" points="408.814,-172.335 399.332,-177.06 409.691,-179.279 408.814,-172.335"/>
</g>
<!-- Node5 -->
<g id="node5" class="node"><title>Node5</title>
<g id="a_node5"><a xlink:href="a00344.html#gae67546338cb9542a4902aa914f57f314" target="_top" xlink:title="_bcp_exec_out">
<polygon fill="white" stroke="red" points="730.5,-335.5 730.5,-354.5 818.5,-354.5 818.5,-335.5 730.5,-335.5"/>
<text text-anchor="middle" x="774.5" y="-342.5" font-family="Helvetica,sans-Serif" font-size="10.00">_bcp_exec_out</text>
</a>
</g>
</g>
<!-- Node4&#45;&gt;Node5 -->
<g id="edge4" class="edge"><title>Node4&#45;&gt;Node5</title>
<path fill="none" stroke="midnightblue" d="M644.288,-266.786C661.504,-283.717 690.116,-309.629 719,-326 725.538,-329.706 732.923,-332.871 740.097,-335.494"/>
<polygon fill="midnightblue" stroke="midnightblue" points="646.762,-264.31 637.22,-259.705 641.808,-269.255 646.762,-264.31"/>
</g>
<!-- Node6 -->
<g id="node6" class="node"><title>Node6</title>
<g id="a_node6"><a xlink:href="a00341.html#gaf1879b85e8238c015b9648d077665285" target="_top" xlink:title="_dbresults">
<polygon fill="white" stroke="red" points="742,-297.5 742,-316.5 807,-316.5 807,-297.5 742,-297.5"/>
<text text-anchor="middle" x="774.5" y="-304.5" font-family="Helvetica,sans-Serif" font-size="10.00">_dbresults</text>
</a>
</g>
</g>
<!-- Node4&#45;&gt;Node6 -->
<g id="edge5" class="edge"><title>Node4&#45;&gt;Node6</title>
<path fill="none" stroke="midnightblue" d="M659.585,-263.739C677.006,-271.177 699.084,-280.378 719,-288 727.423,-291.223 736.659,-294.529 745.096,-297.46"/>
<polygon fill="midnightblue" stroke="midnightblue" points="660.487,-260.317 649.917,-259.588 657.725,-266.749 660.487,-260.317"/>
</g>
<!-- Node7 -->
<g id="node7" class="node"><title>Node7</title>
<g id="a_node7"><a xlink:href="a00342.html#gaff09873008411a0573f6d1a9e6c7cf4b" target="_top" xlink:title="Get count of output parameters filled by a stored procedure. ">
<polygon fill="white" stroke="red" points="742,-259.5 742,-278.5 807,-278.5 807,-259.5 742,-259.5"/>
<text text-anchor="middle" x="774.5" y="-266.5" font-family="Helvetica,sans-Serif" font-size="10.00">dbnumrets</text>
</a>
</g>
</g>
<!-- Node4&#45;&gt;Node7 -->
<g id="edge6" class="edge"><title>Node4&#45;&gt;Node7</title>
<path fill="none" stroke="midnightblue" d="M693.348,-258.533C710.118,-260.723 727.418,-262.982 741.634,-264.839"/>
<polygon fill="midnightblue" stroke="midnightblue" points="693.376,-255.007 683.007,-257.183 692.47,-261.949 693.376,-255.007"/>
</g>
<!-- Node8 -->
<g id="node8" class="node"><title>Node8</title>
<g id="a_node8"><a xlink:href="a00341.html#gae1f50a6a2c31fda57cb481922b06841e" target="_top" xlink:title="Wait for results of a query from the server. ">
<polygon fill="white" stroke="red" points="748,-373.5 748,-392.5 801,-392.5 801,-373.5 748,-373.5"/>
<text text-anchor="middle" x="774.5" y="-380.5" font-family="Helvetica,sans-Serif" font-size="10.00">dbsqlok</text>
</a>
</g>
</g>
<!-- Node4&#45;&gt;Node8 -->
<g id="edge7" class="edge"><title>Node4&#45;&gt;Node8</title>
<path fill="none" stroke="midnightblue" d="M638.309,-268.653C653.069,-293.733 682.513,-338.156 719,-364 727.586,-370.081 738.297,-374.371 747.946,-377.314"/>
<polygon fill="midnightblue" stroke="midnightblue" points="641.232,-266.714 633.225,-259.776 635.158,-270.193 641.232,-266.714"/>
</g>
<!-- Node9 -->
<g id="node9" class="node"><title>Node9</title>
<g id="a_node9"><a xlink:href="a00341.html#ga548153eb2eae76c48aa9d4b72258dc1c" target="_top" xlink:title="Send text or image data to the server. ">
<polygon fill="white" stroke="black" points="902,-430.5 902,-449.5 970,-449.5 970,-430.5 902,-430.5"/>
<text text-anchor="middle" x="936" y="-437.5" font-family="Helvetica,sans-Serif" font-size="10.00">dbwritetext</text>
</a>
</g>
</g>
<!-- Node4&#45;&gt;Node9 -->
<g id="edge10" class="edge"><title>Node4&#45;&gt;Node9</title>
<path fill="none" stroke="midnightblue" d="M628.931,-269.783C632.291,-315.793 647.767,-429.734 719,-478 783.146,-521.464 881.8,-471.815 919.566,-449.623"/>
<polygon fill="midnightblue" stroke="midnightblue" points="632.414,-269.399 628.311,-259.63 625.427,-269.825 632.414,-269.399"/>
</g>
<!-- Node10 -->
<g id="node10" class="node"><title>Node10</title>
<g id="a_node10"><a xlink:href="a00341.html#ga559e24ba70d0d96c3469eb6ab8f74e05" target="_top" xlink:title="Cancel the query currently being retrieved, discarding all pending rows. ">
<polygon fill="white" stroke="red" points="739,-133.5 739,-152.5 810,-152.5 810,-133.5 739,-133.5"/>
<text text-anchor="middle" x="774.5" y="-140.5" font-family="Helvetica,sans-Serif" font-size="10.00">dbcanquery</text>
</a>
</g>
</g>
<!-- Node4&#45;&gt;Node10 -->
<g id="edge9" class="edge"><title>Node4&#45;&gt;Node10</title>
<path fill="none" stroke="midnightblue" d="M641.943,-232.554C658.459,-212.926 687.703,-181.277 719,-162 725.058,-158.269 731.947,-155.146 738.741,-152.581"/>
<polygon fill="midnightblue" stroke="midnightblue" points="639.138,-230.455 635.482,-240.399 644.541,-234.905 639.138,-230.455"/>
</g>
<!-- Node11 -->
<g id="node11" class="node"><title>Node11</title>
<g id="a_node11"><a xlink:href="a00341.html#gadd5685565c8c6c86079e17b8a73b324c" target="_top" xlink:title="Fetch part of a text or image value from the server. ">
<polygon fill="white" stroke="black" points="741,-95.5 741,-114.5 808,-114.5 808,-95.5 741,-95.5"/>
<text text-anchor="middle" x="774.5" y="-102.5" font-family="Helvetica,sans-Serif" font-size="10.00">dbreadtext</text>
</a>
</g>
</g>
<!-- Node4&#45;&gt;Node11 -->
<g id="edge11" class="edge"><title>Node4&#45;&gt;Node11</title>
<path fill="none" stroke="midnightblue" d="M637,-230.954C650.885,-203.526 680.052,-153.021 719,-124 725.428,-119.21 733.161,-115.559 740.755,-112.802"/>
<polygon fill="midnightblue" stroke="midnightblue" points="633.705,-229.724 632.438,-240.243 639.988,-232.81 633.705,-229.724"/>
</g>
<!-- Node12 -->
<g id="node12" class="node"><title>Node12</title>
<g id="a_node12"><a xlink:href="a00341.html#gac980139b9cea03cf93e373d425991481" target="_top" xlink:title="Transmit the command buffer to the server. ">
<polygon fill="white" stroke="red" points="742,-57.5 742,-76.5 807,-76.5 807,-57.5 742,-57.5"/>
<text text-anchor="middle" x="774.5" y="-64.5" font-family="Helvetica,sans-Serif" font-size="10.00">dbsqlsend</text>
</a>
</g>
</g>
<!-- Node4&#45;&gt;Node12 -->
<g id="edge12" class="edge"><title>Node4&#45;&gt;Node12</title>
<path fill="none" stroke="midnightblue" d="M633.678,-230.591C644.617,-196.505 671.801,-125.741 719,-86 725.515,-80.5141 733.712,-76.5766 741.756,-73.7639"/>
<polygon fill="midnightblue" stroke="midnightblue" points="630.291,-229.696 630.692,-240.284 636.981,-231.757 630.291,-229.696"/>
</g>
<!-- Node13 -->
<g id="node13" class="node"><title>Node13</title>
<g id="a_node13"><a xlink:href="a00356.html#gaf0da49585d39e99780a004ee2ca23479" target="_top" xlink:title="Send option commands to server. ">
<polygon fill="white" stroke="black" points="875.5,-199.5 875.5,-218.5 996.5,-218.5 996.5,-199.5 875.5,-199.5"/>
<text text-anchor="middle" x="936" y="-206.5" font-family="Helvetica,sans-Serif" font-size="10.00">tds_submit_optioncmd</text>
</a>
</g>
</g>
<!-- Node4&#45;&gt;Node13 -->
<g id="edge13" class="edge"><title>Node4&#45;&gt;Node13</title>
<path fill="none" stroke="midnightblue" d="M693.384,-241.268C747.327,-234.064 823.224,-223.928 875.487,-216.948"/>
<polygon fill="midnightblue" stroke="midnightblue" points="692.689,-237.83 683.24,-242.623 693.615,-244.768 692.689,-237.83"/>
</g>
<!-- Node14 -->
<g id="node14" class="node"><title>Node14</title>
<g id="a_node14"><a xlink:href="a00193.html#ac6610c72bd31bad5378f760fa9b12d66" target="_top" xlink:title="Initialize BCP information. ">
<polygon fill="white" stroke="red" points="738,-449.5 738,-468.5 811,-468.5 811,-449.5 738,-449.5"/>
<text text-anchor="middle" x="774.5" y="-456.5" font-family="Helvetica,sans-Serif" font-size="10.00">tds_bcp_init</text>
</a>
</g>
</g>
<!-- Node4&#45;&gt;Node14 -->
<g id="edge14" class="edge"><title>Node4&#45;&gt;Node14</title>
<path fill="none" stroke="midnightblue" d="M632.141,-269.792C641.161,-308.092 666.154,-392.727 719,-440 724.377,-444.81 731.041,-448.417 737.842,-451.118"/>
<polygon fill="midnightblue" stroke="midnightblue" points="635.523,-268.88 629.925,-259.885 628.692,-270.408 635.523,-268.88"/>
</g>
<!-- Node15 -->
<g id="node15" class="node"><title>Node15</title>
<g id="a_node15"><a xlink:href="a00359.html#ga55f27c3e05d42c9b07ace1c74b11c5ab" target="_top" xlink:title="Retrieve and set @spid. ">
<polygon fill="white" stroke="black" points="736,-19.5 736,-38.5 813,-38.5 813,-19.5 736,-19.5"/>
<text text-anchor="middle" x="774.5" y="-26.5" font-family="Helvetica,sans-Serif" font-size="10.00">tds_set_spid</text>
</a>
</g>
</g>
<!-- Node4&#45;&gt;Node15 -->
<g id="edge15" class="edge"><title>Node4&#45;&gt;Node15</title>
<path fill="none" stroke="midnightblue" d="M631.478,-230.367C639.571,-190.372 663.374,-98.9437 719,-48 723.803,-43.6011 729.681,-40.2111 735.778,-37.6012"/>
<polygon fill="midnightblue" stroke="midnightblue" points="627.998,-229.935 629.562,-240.414 634.874,-231.247 627.998,-229.935"/>
</g>
<!-- Node16 -->
<g id="node16" class="node"><title>Node16</title>
<g id="a_node16"><a xlink:href="a00359.html#gaeeb1562044786ea17bea361ed83e6946" target="_top" xlink:title="Process results for simple query as &quot;SET TEXTSIZE&quot; or &quot;USE dbname&quot; If the statement returns results...">
<polygon fill="white" stroke="red" points="719.5,-172 719.5,-202 829.5,-202 829.5,-172 719.5,-172"/>
<text text-anchor="start" x="727.5" y="-190" font-family="Helvetica,sans-Serif" font-size="10.00">tds_process_simple</text>
<text text-anchor="middle" x="774.5" y="-179" font-family="Helvetica,sans-Serif" font-size="10.00">_query</text>
</a>
</g>
</g>
<!-- Node4&#45;&gt;Node16 -->
<g id="edge17" class="edge"><title>Node4&#45;&gt;Node16</title>
<path fill="none" stroke="midnightblue" d="M659.534,-236.346C682.865,-226.244 714.636,-212.487 738.707,-202.065"/>
<polygon fill="midnightblue" stroke="midnightblue" points="657.884,-233.246 650.098,-240.432 660.666,-239.67 657.884,-233.246"/>
</g>
<!-- Node17 -->
<g id="node17" class="node"><title>Node17</title>
<g id="a_node17"><a xlink:href="a00359.html#gaf233e79967f82f4e0dd4d11524917a34" target="_top" xlink:title="tds_process_cancel">
<polygon fill="white" stroke="red" points="719,-411.5 719,-430.5 830,-430.5 830,-411.5 719,-411.5"/>
<text text-anchor="middle" x="774.5" y="-418.5" font-family="Helvetica,sans-Serif" font-size="10.00">tds_process_cancel</text>
</a>
</g>
</g>
<!-- Node4&#45;&gt;Node17 -->
<g id="edge19" class="edge"><title>Node4&#45;&gt;Node17</title>
<path fill="none" stroke="midnightblue" d="M634.573,-269.324C646.44,-301.404 674.431,-365.708 719,-402 723.74,-405.86 729.315,-408.959 735.059,-411.44"/>
<polygon fill="midnightblue" stroke="midnightblue" points="637.821,-268.011 631.166,-259.767 631.227,-270.362 637.821,-268.011"/>
</g>
<!-- Node8&#45;&gt;Node9 -->
<g id="edge8" class="edge"><title>Node8&#45;&gt;Node9</title>
<path fill="none" stroke="midnightblue" d="M810.812,-395.242C817.203,-397.477 823.804,-399.799 830,-402 856.854,-411.54 887.489,-422.653 908.708,-430.388"/>
<polygon fill="midnightblue" stroke="midnightblue" points="811.625,-391.819 801.03,-391.831 809.32,-398.429 811.625,-391.819"/>
</g>
<!-- Node15&#45;&gt;Node3 -->
<g id="edge16" class="edge"><title>Node15&#45;&gt;Node3</title>
<path fill="none" stroke="midnightblue" d="M823.245,-23.3125C836.661,-21.7143 851.527,-19.9435 865.92,-18.229"/>
<polygon fill="midnightblue" stroke="midnightblue" points="822.815,-19.8389 813.299,-24.4973 823.643,-26.7897 822.815,-19.8389"/>
</g>
<!-- Node16&#45;&gt;Node13 -->
<g id="edge18" class="edge"><title>Node16&#45;&gt;Node13</title>
<path fill="none" stroke="midnightblue" d="M840.05,-195.903C851.711,-197.512 863.823,-199.182 875.337,-200.771"/>
<polygon fill="midnightblue" stroke="midnightblue" points="840.329,-192.409 829.945,-194.51 839.373,-199.343 840.329,-192.409"/>
</g>
<!-- Node18&#45;&gt;Node2 -->
<g id="edge21" class="edge"><title>Node18&#45;&gt;Node2</title>
<path fill="none" stroke="midnightblue" d="M441.045,-185.19C427.878,-187.174 413.203,-188.963 399.332,-190.293"/>
<polygon fill="midnightblue" stroke="midnightblue" points="441.914,-188.595 451.237,-183.561 440.81,-181.683 441.914,-188.595"/>
</g>
<!-- Node18&#45;&gt;Node4 -->
<g id="edge22" class="edge"><title>Node18&#45;&gt;Node4</title>
<path fill="none" stroke="midnightblue" d="M515.368,-188.006C521.872,-191.213 528.702,-194.662 535,-198 561.69,-212.143 592.029,-229.809 610.063,-240.482"/>
<polygon fill="midnightblue" stroke="midnightblue" points="516.694,-184.759 506.172,-183.523 513.626,-191.051 516.694,-184.759"/>
</g>
<!-- Node19&#45;&gt;Node2 -->
<g id="edge24" class="edge"><title>Node19&#45;&gt;Node2</title>
<path fill="none" stroke="midnightblue" d="M233.916,-253.456C239.766,-251.532 245.569,-249.381 251,-247 276.78,-235.696 303.808,-217.896 321.642,-205.196"/>
<polygon fill="midnightblue" stroke="midnightblue" points="232.611,-250.196 224.081,-256.481 234.669,-256.886 232.611,-250.196"/>
</g>
<!-- Node19&#45;&gt;Node4 -->
<g id="edge25" class="edge"><title>Node19&#45;&gt;Node4</title>
<path fill="none" stroke="midnightblue" d="M246.856,-268.497C317.896,-270.542 434.702,-271.956 535,-264 547.27,-263.027 560.391,-261.372 572.742,-259.535"/>
<polygon fill="midnightblue" stroke="midnightblue" points="246.815,-264.994 236.714,-268.191 246.604,-271.991 246.815,-264.994"/>
</g>
<!-- Node20&#45;&gt;Node2 -->
<g id="edge27" class="edge"><title>Node20&#45;&gt;Node2</title>
<path fill="none" stroke="midnightblue" d="M232.005,-216.042C249.478,-211.905 269.143,-207.25 286.961,-203.031"/>
<polygon fill="midnightblue" stroke="midnightblue" points="230.926,-212.701 222.001,-218.411 232.538,-219.513 230.926,-212.701"/>
</g>
<!-- Node20&#45;&gt;Node4 -->
<g id="edge28" class="edge"><title>Node20&#45;&gt;Node4</title>
<path fill="none" stroke="midnightblue" d="M261.531,-231.961C350.883,-236.383 493.119,-243.423 570.846,-247.27"/>
<polygon fill="midnightblue" stroke="midnightblue" points="261.603,-228.46 251.442,-231.462 261.257,-235.452 261.603,-228.46"/>
</g>
</g>
</svg>
