<?xml version="1.0" encoding="UTF-8" standalone="no"?>
<!DOCTYPE svg PUBLIC "-//W3C//DTD SVG 1.1//EN"
 "http://www.w3.org/Graphics/SVG/1.1/DTD/svg11.dtd">
<!-- Generated by graphviz version 2.38.0 (20140413.2041)
 -->
<!-- Title: src/tds/stream.c Pages: 1 -->
<svg width="1341pt" height="252pt"
 viewBox="0.00 0.00 1340.78 252.00" xmlns="http://www.w3.org/2000/svg" xmlns:xlink="http://www.w3.org/1999/xlink">
<g id="graph0" class="graph" transform="scale(1 1) rotate(0) translate(4 248)">
<title>src/tds/stream.c</title>
<polygon fill="white" stroke="none" points="-4,4 -4,-248 1336.78,-248 1336.78,4 -4,4"/>
<!-- Node1 -->
<g id="node1" class="node"><title>Node1</title>
<polygon fill="#bfbfbf" stroke="black" points="647,-224.5 647,-243.5 738,-243.5 738,-224.5 647,-224.5"/>
<text text-anchor="middle" x="692.5" y="-231.5" font-family="Helvetica,sans-Serif" font-size="10.00">src/tds/stream.c</text>
</g>
<!-- Node2 -->
<g id="node2" class="node"><title>Node2</title>
<polygon fill="white" stroke="#bfbfbf" points="511,-168.5 511,-187.5 564,-187.5 564,-168.5 511,-168.5"/>
<text text-anchor="middle" x="537.5" y="-175.5" font-family="Helvetica,sans-Serif" font-size="10.00">config.h</text>
</g>
<!-- Node1&#45;&gt;Node2 -->
<g id="edge1" class="edge"><title>Node1&#45;&gt;Node2</title>
<path fill="none" stroke="midnightblue" d="M667.94,-224.444C641.977,-215.399 600.832,-201.064 571.703,-190.916"/>
<polygon fill="midnightblue" stroke="midnightblue" points="572.54,-187.501 561.945,-187.516 570.237,-194.112 572.54,-187.501"/>
</g>
<!-- Node3 -->
<g id="node3" class="node"><title>Node3</title>
<polygon fill="white" stroke="#bfbfbf" points="582.5,-168.5 582.5,-187.5 636.5,-187.5 636.5,-168.5 582.5,-168.5"/>
<text text-anchor="middle" x="609.5" y="-175.5" font-family="Helvetica,sans-Serif" font-size="10.00">assert.h</text>
</g>
<!-- Node1&#45;&gt;Node3 -->
<g id="edge2" class="edge"><title>Node1&#45;&gt;Node3</title>
<path fill="none" stroke="midnightblue" d="M679.165,-224.324C666.338,-215.979 646.715,-203.212 631.56,-193.352"/>
<polygon fill="midnightblue" stroke="midnightblue" points="633.093,-190.174 622.802,-187.655 629.276,-196.042 633.093,-190.174"/>
</g>
<!-- Node4 -->
<g id="node4" class="node"><title>Node4</title>
<g id="a_node4"><a xlink:href="a00193.html" target="_top" xlink:title="Main include file for libtds. ">
<polygon fill="white" stroke="black" points="655,-168.5 655,-187.5 730,-187.5 730,-168.5 655,-168.5"/>
<text text-anchor="middle" x="692.5" y="-175.5" font-family="Helvetica,sans-Serif" font-size="10.00">freetds/tds.h</text>
</a>
</g>
</g>
<!-- Node1&#45;&gt;Node4 -->
<g id="edge3" class="edge"><title>Node1&#45;&gt;Node4</title>
<path fill="none" stroke="midnightblue" d="M692.5,-224.083C692.5,-217.006 692.5,-206.861 692.5,-197.986"/>
<polygon fill="midnightblue" stroke="midnightblue" points="696,-197.751 692.5,-187.751 689,-197.751 696,-197.751"/>
</g>
<!-- Node19 -->
<g id="node19" class="node"><title>Node19</title>
<g id="a_node19"><a xlink:href="a00184_source.html" target="_top" xlink:title="freetds/iconv.h">
<polygon fill="white" stroke="black" points="1117.5,-56.5 1117.5,-75.5 1203.5,-75.5 1203.5,-56.5 1117.5,-56.5"/>
<text text-anchor="middle" x="1160.5" y="-63.5" font-family="Helvetica,sans-Serif" font-size="10.00">freetds/iconv.h</text>
</a>
</g>
</g>
<!-- Node1&#45;&gt;Node19 -->
<g id="edge24" class="edge"><title>Node1&#45;&gt;Node19</title>
<path fill="none" stroke="midnightblue" d="M716.676,-224.425C794.265,-196.904 1037.14,-110.757 1126.8,-78.9526"/>
<polygon fill="midnightblue" stroke="midnightblue" points="1128.21,-82.1657 1136.47,-75.5241 1125.87,-75.5684 1128.21,-82.1657"/>
</g>
<!-- Node20 -->
<g id="node20" class="node"><title>Node20</title>
<g id="a_node20"><a xlink:href="a00190_source.html" target="_top" xlink:title="freetds/stream.h">
<polygon fill="white" stroke="black" points="1222,-56.5 1222,-75.5 1315,-75.5 1315,-56.5 1222,-56.5"/>
<text text-anchor="middle" x="1268.5" y="-63.5" font-family="Helvetica,sans-Serif" font-size="10.00">freetds/stream.h</text>
</a>
</g>
</g>
<!-- Node1&#45;&gt;Node20 -->
<g id="edge27" class="edge"><title>Node1&#45;&gt;Node20</title>
<path fill="none" stroke="midnightblue" d="M724.492,-224.479C757.773,-215.566 811.366,-201.081 857.5,-188 995.218,-148.952 1158.15,-100.232 1230.55,-78.4492"/>
<polygon fill="midnightblue" stroke="midnightblue" points="1231.59,-81.7921 1240.15,-75.5581 1229.57,-75.0892 1231.59,-81.7921"/>
</g>
<!-- Node5 -->
<g id="node5" class="node"><title>Node5</title>
<polygon fill="white" stroke="#bfbfbf" points="1044,-56.5 1044,-75.5 1099,-75.5 1099,-56.5 1044,-56.5"/>
<text text-anchor="middle" x="1071.5" y="-63.5" font-family="Helvetica,sans-Serif" font-size="10.00">stdarg.h</text>
</g>
<!-- Node4&#45;&gt;Node5 -->
<g id="edge4" class="edge"><title>Node4&#45;&gt;Node5</title>
<path fill="none" stroke="midnightblue" d="M730.239,-169.764C770.146,-161.792 834.772,-147.963 889.5,-132 943.526,-116.242 1004.89,-93.23 1040.78,-79.234"/>
<polygon fill="midnightblue" stroke="midnightblue" points="1042.17,-82.4488 1050.2,-75.539 1039.61,-75.9321 1042.17,-82.4488"/>
</g>
<!-- Node6 -->
<g id="node6" class="node"><title>Node6</title>
<polygon fill="white" stroke="#bfbfbf" points="0,-112.5 0,-131.5 47,-131.5 47,-112.5 0,-112.5"/>
<text text-anchor="middle" x="23.5" y="-119.5" font-family="Helvetica,sans-Serif" font-size="10.00">stdio.h</text>
</g>
<!-- Node4&#45;&gt;Node6 -->
<g id="edge5" class="edge"><title>Node4&#45;&gt;Node6</title>
<path fill="none" stroke="midnightblue" d="M654.858,-169.352C651.7,-168.844 648.55,-168.384 645.5,-168 388.588,-135.686 317.071,-173.738 57.2801,-131.739"/>
<polygon fill="midnightblue" stroke="midnightblue" points="57.5992,-128.244 47.1643,-130.078 56.4655,-135.152 57.5992,-128.244"/>
</g>
<!-- Node7 -->
<g id="node7" class="node"><title>Node7</title>
<g id="a_node7"><a xlink:href="a00195_source.html" target="_top" xlink:title="time.h">
<polygon fill="white" stroke="black" points="65.5,-112.5 65.5,-131.5 109.5,-131.5 109.5,-112.5 65.5,-112.5"/>
<text text-anchor="middle" x="87.5" y="-119.5" font-family="Helvetica,sans-Serif" font-size="10.00">time.h</text>
</a>
</g>
</g>
<!-- Node4&#45;&gt;Node7 -->
<g id="edge6" class="edge"><title>Node4&#45;&gt;Node7</title>
<path fill="none" stroke="midnightblue" d="M654.854,-169.384C651.697,-168.869 648.548,-168.398 645.5,-168 420.624,-138.622 361.486,-160.529 136.5,-132 131.167,-131.324 125.535,-130.445 120.063,-129.503"/>
<polygon fill="midnightblue" stroke="midnightblue" points="120.325,-125.993 109.861,-127.647 119.073,-132.88 120.325,-125.993"/>
</g>
<!-- Node8 -->
<g id="node8" class="node"><title>Node8</title>
<g id="a_node8"><a xlink:href="a00197_source.html" target="_top" xlink:title="freetds/version.h">
<polygon fill="white" stroke="black" points="146,-112.5 146,-131.5 241,-131.5 241,-112.5 146,-112.5"/>
<text text-anchor="middle" x="193.5" y="-119.5" font-family="Helvetica,sans-Serif" font-size="10.00">freetds/version.h</text>
</a>
</g>
</g>
<!-- Node4&#45;&gt;Node8 -->
<g id="edge8" class="edge"><title>Node4&#45;&gt;Node8</title>
<path fill="none" stroke="midnightblue" d="M654.844,-169.451C651.69,-168.922 648.544,-168.429 645.5,-168 473.749,-143.809 426.586,-153.65 251.213,-132.137"/>
<polygon fill="midnightblue" stroke="midnightblue" points="251.482,-128.643 241.127,-130.883 250.619,-135.59 251.482,-128.643"/>
</g>
<!-- Node9 -->
<g id="node9" class="node"><title>Node9</title>
<polygon fill="white" stroke="#bfbfbf" points="259,-112.5 259,-131.5 370,-131.5 370,-112.5 259,-112.5"/>
<text text-anchor="middle" x="314.5" y="-119.5" font-family="Helvetica,sans-Serif" font-size="10.00">tds_sysdep_public.h</text>
</g>
<!-- Node4&#45;&gt;Node9 -->
<g id="edge9" class="edge"><title>Node4&#45;&gt;Node9</title>
<path fill="none" stroke="midnightblue" d="M654.822,-169.596C651.673,-169.034 648.534,-168.495 645.5,-168 530.551,-149.26 498.838,-148.373 380.214,-132.223"/>
<polygon fill="midnightblue" stroke="midnightblue" points="380.383,-128.714 370,-130.824 379.433,-135.649 380.383,-128.714"/>
</g>
<!-- Node10 -->
<g id="node10" class="node"><title>Node10</title>
<g id="a_node10"><a xlink:href="a00192_source.html" target="_top" xlink:title="freetds/sysdep_private.h">
<polygon fill="white" stroke="black" points="388,-112.5 388,-131.5 521,-131.5 521,-112.5 388,-112.5"/>
<text text-anchor="middle" x="454.5" y="-119.5" font-family="Helvetica,sans-Serif" font-size="10.00">freetds/sysdep_private.h</text>
</a>
</g>
</g>
<!-- Node4&#45;&gt;Node10 -->
<g id="edge10" class="edge"><title>Node4&#45;&gt;Node10</title>
<path fill="none" stroke="midnightblue" d="M654.788,-168.444C613.357,-159.043 546.743,-143.929 501.833,-133.739"/>
<polygon fill="midnightblue" stroke="midnightblue" points="502.562,-130.316 492.035,-131.516 501.013,-137.142 502.562,-130.316"/>
</g>
<!-- Node11 -->
<g id="node11" class="node"><title>Node11</title>
<g id="a_node11"><a xlink:href="a00194_source.html" target="_top" xlink:title="freetds/thread.h">
<polygon fill="white" stroke="black" points="539.5,-112.5 539.5,-131.5 631.5,-131.5 631.5,-112.5 539.5,-112.5"/>
<text text-anchor="middle" x="585.5" y="-119.5" font-family="Helvetica,sans-Serif" font-size="10.00">freetds/thread.h</text>
</a>
</g>
</g>
<!-- Node4&#45;&gt;Node11 -->
<g id="edge11" class="edge"><title>Node4&#45;&gt;Node11</title>
<path fill="none" stroke="midnightblue" d="M675.309,-168.324C658.149,-159.664 631.554,-146.242 611.753,-136.249"/>
<polygon fill="midnightblue" stroke="midnightblue" points="613.153,-133.035 602.649,-131.655 609.999,-139.285 613.153,-133.035"/>
</g>
<!-- Node12 -->
<g id="node12" class="node"><title>Node12</title>
<g id="a_node12"><a xlink:href="a00202_source.html" target="_top" xlink:title="replacements.h">
<polygon fill="white" stroke="black" points="792,-112.5 792,-131.5 881,-131.5 881,-112.5 792,-112.5"/>
<text text-anchor="middle" x="836.5" y="-119.5" font-family="Helvetica,sans-Serif" font-size="10.00">replacements.h</text>
</a>
</g>
</g>
<!-- Node4&#45;&gt;Node12 -->
<g id="edge12" class="edge"><title>Node4&#45;&gt;Node12</title>
<path fill="none" stroke="midnightblue" d="M715.317,-168.444C739.332,-159.438 777.329,-145.189 804.369,-135.049"/>
<polygon fill="midnightblue" stroke="midnightblue" points="805.655,-138.305 813.79,-131.516 803.197,-131.751 805.655,-138.305"/>
</g>
<!-- Node15 -->
<g id="node15" class="node"><title>Node15</title>
<g id="a_node15"><a xlink:href="a00188_source.html" target="_top" xlink:title="freetds/pushvis.h">
<polygon fill="white" stroke="black" points="855.5,-0.5 855.5,-19.5 951.5,-19.5 951.5,-0.5 855.5,-0.5"/>
<text text-anchor="middle" x="903.5" y="-7.5" font-family="Helvetica,sans-Serif" font-size="10.00">freetds/pushvis.h</text>
</a>
</g>
</g>
<!-- Node4&#45;&gt;Node15 -->
<g id="edge21" class="edge"><title>Node4&#45;&gt;Node15</title>
<path fill="none" stroke="midnightblue" d="M708.243,-168.318C728.962,-155.798 760.932,-131.979 744.5,-112 690.472,-46.3075 505.416,-119.947 561.5,-56 579.888,-35.0338 752.576,-20.7544 845.29,-14.5308"/>
<polygon fill="midnightblue" stroke="midnightblue" points="845.62,-18.0167 855.368,-13.8649 845.158,-11.032 845.62,-18.0167"/>
</g>
<!-- Node16 -->
<g id="node16" class="node"><title>Node16</title>
<g id="a_node16"><a xlink:href="a00186_source.html" target="_top" xlink:title="freetds/popvis.h">
<polygon fill="white" stroke="black" points="1114.5,-0.5 1114.5,-19.5 1206.5,-19.5 1206.5,-0.5 1114.5,-0.5"/>
<text text-anchor="middle" x="1160.5" y="-7.5" font-family="Helvetica,sans-Serif" font-size="10.00">freetds/popvis.h</text>
</a>
</g>
</g>
<!-- Node4&#45;&gt;Node16 -->
<g id="edge23" class="edge"><title>Node4&#45;&gt;Node16</title>
<path fill="none" stroke="midnightblue" d="M730.409,-177.049C854.812,-176.328 1247.08,-166.777 1324.5,-76 1357.94,-36.7895 1276.57,-21.0424 1216.87,-14.8543"/>
<polygon fill="midnightblue" stroke="midnightblue" points="1217.04,-11.3548 1206.75,-13.8736 1216.37,-18.3221 1217.04,-11.3548"/>
</g>
<!-- Node18 -->
<g id="node18" class="node"><title>Node18</title>
<g id="a_node18"><a xlink:href="a00187_source.html" target="_top" xlink:title="freetds/proto.h">
<polygon fill="white" stroke="black" points="649.5,-112.5 649.5,-131.5 735.5,-131.5 735.5,-112.5 649.5,-112.5"/>
<text text-anchor="middle" x="692.5" y="-119.5" font-family="Helvetica,sans-Serif" font-size="10.00">freetds/proto.h</text>
</a>
</g>
</g>
<!-- Node4&#45;&gt;Node18 -->
<g id="edge22" class="edge"><title>Node4&#45;&gt;Node18</title>
<path fill="none" stroke="midnightblue" d="M692.5,-168.083C692.5,-161.006 692.5,-150.861 692.5,-141.986"/>
<polygon fill="midnightblue" stroke="midnightblue" points="696,-141.751 692.5,-131.751 689,-141.751 696,-141.751"/>
</g>
<!-- Node7&#45;&gt;Node7 -->
<g id="edge7" class="edge"><title>Node7&#45;&gt;Node7</title>
<path fill="none" stroke="midnightblue" d="M104.768,-131.575C116.287,-134.27 127.5,-131.078 127.5,-122 127.5,-115.759 122.2,-112.3 115.145,-111.623"/>
<polygon fill="midnightblue" stroke="midnightblue" points="114.469,-108.165 104.768,-112.425 115.008,-115.144 114.469,-108.165"/>
</g>
<!-- Node12&#45;&gt;Node5 -->
<g id="edge13" class="edge"><title>Node12&#45;&gt;Node5</title>
<path fill="none" stroke="midnightblue" d="M873.736,-112.444C917.589,-102.367 990.013,-85.7247 1033.99,-75.6203"/>
<polygon fill="midnightblue" stroke="midnightblue" points="1035.02,-78.9737 1043.98,-73.323 1033.45,-72.1514 1035.02,-78.9737"/>
</g>
<!-- Node13 -->
<g id="node13" class="node"><title>Node13</title>
<g id="a_node13"><a xlink:href="a00210_source.html" target="_top" xlink:title="tds_sysdep_public.h">
<polygon fill="white" stroke="black" points="571,-56.5 571,-75.5 682,-75.5 682,-56.5 571,-56.5"/>
<text text-anchor="middle" x="626.5" y="-63.5" font-family="Helvetica,sans-Serif" font-size="10.00">tds_sysdep_public.h</text>
</a>
</g>
</g>
<!-- Node12&#45;&gt;Node13 -->
<g id="edge14" class="edge"><title>Node12&#45;&gt;Node13</title>
<path fill="none" stroke="midnightblue" d="M803.225,-112.444C767.052,-103.142 709.123,-88.246 669.519,-78.062"/>
<polygon fill="midnightblue" stroke="midnightblue" points="670.176,-74.6172 659.619,-75.5164 668.433,-81.3966 670.176,-74.6172"/>
</g>
<!-- Node14 -->
<g id="node14" class="node"><title>Node14</title>
<g id="a_node14"><a xlink:href="a00203_source.html" target="_top" xlink:title="replacements/readpassphrase.h">
<polygon fill="white" stroke="black" points="819,-56.5 819,-75.5 988,-75.5 988,-56.5 819,-56.5"/>
<text text-anchor="middle" x="903.5" y="-63.5" font-family="Helvetica,sans-Serif" font-size="10.00">replacements/readpassphrase.h</text>
</a>
</g>
</g>
<!-- Node12&#45;&gt;Node14 -->
<g id="edge15" class="edge"><title>Node12&#45;&gt;Node14</title>
<path fill="none" stroke="midnightblue" d="M847.265,-112.324C857.266,-104.263 872.387,-92.0765 884.43,-82.3695"/>
<polygon fill="midnightblue" stroke="midnightblue" points="886.95,-84.8343 892.539,-75.8339 882.557,-79.3841 886.95,-84.8343"/>
</g>
<!-- Node12&#45;&gt;Node15 -->
<g id="edge19" class="edge"><title>Node12&#45;&gt;Node15</title>
<path fill="none" stroke="midnightblue" d="M795.453,-112.498C756.818,-102.59 707.877,-83.9272 729.5,-56 743.752,-37.5934 800.504,-25.3559 845.371,-18.3494"/>
<polygon fill="midnightblue" stroke="midnightblue" points="845.956,-21.8007 855.323,-16.849 844.913,-14.8789 845.956,-21.8007"/>
</g>
<!-- Node12&#45;&gt;Node16 -->
<g id="edge20" class="edge"><title>Node12&#45;&gt;Node16</title>
<path fill="none" stroke="midnightblue" d="M875.398,-112.487C908.272,-104.722 956.294,-92.0274 996.5,-76 1014.23,-68.9329 1017.03,-63.6732 1034.5,-56 1063.79,-43.1387 1098.03,-31.092 1123.42,-22.7056"/>
<polygon fill="midnightblue" stroke="midnightblue" points="1124.61,-25.9984 1133.03,-19.566 1122.44,-19.3445 1124.61,-25.9984"/>
</g>
<!-- Node17 -->
<g id="node17" class="node"><title>Node17</title>
<g id="a_node17"><a xlink:href="a00178.html" target="_top" xlink:title="Provide poll call where missing. ">
<polygon fill="white" stroke="red" points="738.5,-56.5 738.5,-75.5 800.5,-75.5 800.5,-56.5 738.5,-56.5"/>
<text text-anchor="middle" x="769.5" y="-63.5" font-family="Helvetica,sans-Serif" font-size="10.00">fakepoll.h</text>
</a>
</g>
</g>
<!-- Node12&#45;&gt;Node17 -->
<g id="edge18" class="edge"><title>Node12&#45;&gt;Node17</title>
<path fill="none" stroke="midnightblue" d="M825.735,-112.324C815.734,-104.263 800.613,-92.0765 788.57,-82.3695"/>
<polygon fill="midnightblue" stroke="midnightblue" points="790.443,-79.3841 780.461,-75.8339 786.05,-84.8343 790.443,-79.3841"/>
</g>
<!-- Node14&#45;&gt;Node15 -->
<g id="edge16" class="edge"><title>Node14&#45;&gt;Node15</title>
<path fill="none" stroke="midnightblue" d="M903.5,-56.083C903.5,-49.0059 903.5,-38.8611 903.5,-29.9865"/>
<polygon fill="midnightblue" stroke="midnightblue" points="907,-29.751 903.5,-19.7511 900,-29.7511 907,-29.751"/>
</g>
<!-- Node14&#45;&gt;Node16 -->
<g id="edge17" class="edge"><title>Node14&#45;&gt;Node16</title>
<path fill="none" stroke="midnightblue" d="M944.222,-56.4435C989.149,-47.0036 1061.5,-31.802 1110,-21.6111"/>
<polygon fill="midnightblue" stroke="midnightblue" points="1110.9,-24.998 1119.97,-19.5164 1109.46,-18.1476 1110.9,-24.998"/>
</g>
<!-- Node19&#45;&gt;Node15 -->
<g id="edge25" class="edge"><title>Node19&#45;&gt;Node15</title>
<path fill="none" stroke="midnightblue" d="M1119.78,-56.4435C1074.85,-47.0036 1002.5,-31.802 954.001,-21.6111"/>
<polygon fill="midnightblue" stroke="midnightblue" points="954.538,-18.1476 944.032,-19.5164 953.098,-24.998 954.538,-18.1476"/>
</g>
<!-- Node19&#45;&gt;Node16 -->
<g id="edge26" class="edge"><title>Node19&#45;&gt;Node16</title>
<path fill="none" stroke="midnightblue" d="M1160.5,-56.083C1160.5,-49.0059 1160.5,-38.8611 1160.5,-29.9865"/>
<polygon fill="midnightblue" stroke="midnightblue" points="1164,-29.751 1160.5,-19.7511 1157,-29.7511 1164,-29.751"/>
</g>
<!-- Node20&#45;&gt;Node15 -->
<g id="edge28" class="edge"><title>Node20&#45;&gt;Node15</title>
<path fill="none" stroke="midnightblue" d="M1221.76,-57.435C1218.63,-56.9444 1215.52,-56.4622 1212.5,-56 1125.19,-42.6274 1023.85,-28.0489 961.708,-19.2162"/>
<polygon fill="midnightblue" stroke="midnightblue" points="962.096,-15.7362 951.703,-17.7956 961.112,-22.6667 962.096,-15.7362"/>
</g>
<!-- Node20&#45;&gt;Node16 -->
<g id="edge29" class="edge"><title>Node20&#45;&gt;Node16</title>
<path fill="none" stroke="midnightblue" d="M1251.15,-56.324C1233.83,-47.6641 1206.98,-34.2424 1187,-24.249"/>
<polygon fill="midnightblue" stroke="midnightblue" points="1188.32,-20.9962 1177.81,-19.6545 1185.19,-27.2572 1188.32,-20.9962"/>
</g>
</g>
</svg>
