<?xml version="1.0" encoding="UTF-8" standalone="no"?>
<!DOCTYPE svg PUBLIC "-//W3C//DTD SVG 1.1//EN"
 "http://www.w3.org/Graphics/SVG/1.1/DTD/svg11.dtd">
<!-- Generated by graphviz version 2.38.0 (20140413.2041)
 -->
<!-- Title: tds_next_placeholder Pages: 1 -->
<svg width="637pt" height="137pt"
 viewBox="0.00 0.00 637.00 137.00" xmlns="http://www.w3.org/2000/svg" xmlns:xlink="http://www.w3.org/1999/xlink">
<g id="graph0" class="graph" transform="scale(1 1) rotate(0) translate(4 133)">
<title>tds_next_placeholder</title>
<polygon fill="white" stroke="none" points="-4,4 -4,-133 633,-133 633,4 -4,4"/>
<!-- Node1 -->
<g id="node1" class="node"><title>Node1</title>
<polygon fill="#bfbfbf" stroke="black" points="0,-52.5 0,-71.5 119,-71.5 119,-52.5 0,-52.5"/>
<text text-anchor="middle" x="59.5" y="-59.5" font-family="Helvetica,sans-Serif" font-size="10.00">tds_next_placeholder</text>
</g>
<!-- Node2 -->
<g id="node2" class="node"><title>Node2</title>
<g id="a_node2"><a xlink:href="a00356.html#ga3a5d1771cacc947521c4077551f0d3a4" target="_top" xlink:title="Substitute ?&#45;style placeholders with named (@param) ones. ">
<polygon fill="white" stroke="black" points="166,-109.5 166,-128.5 273,-128.5 273,-109.5 166,-109.5"/>
<text text-anchor="middle" x="219.5" y="-116.5" font-family="Helvetica,sans-Serif" font-size="10.00">tds5_fix_dot_query</text>
</a>
</g>
</g>
<!-- Node1&#45;&gt;Node2 -->
<g id="edge1" class="edge"><title>Node1&#45;&gt;Node2</title>
<path fill="none" stroke="midnightblue" d="M96.7166,-75.0655C125.759,-85.5428 165.847,-100.005 191.968,-109.428"/>
<polygon fill="midnightblue" stroke="midnightblue" points="97.54,-71.6418 86.9456,-71.5405 95.1645,-78.2264 97.54,-71.6418"/>
</g>
<!-- Node3 -->
<g id="node3" class="node"><title>Node3</title>
<g id="a_node3"><a xlink:href="a00356.html#ga95e0fccedc459a4404f496eec74a369a" target="_top" xlink:title="tds_submit_query_params() sends a language string to the database server for processing. ">
<polygon fill="white" stroke="black" points="326,-90.5 326,-109.5 466,-109.5 466,-90.5 326,-90.5"/>
<text text-anchor="middle" x="396" y="-97.5" font-family="Helvetica,sans-Serif" font-size="10.00">tds_submit_query_params</text>
</a>
</g>
</g>
<!-- Node1&#45;&gt;Node3 -->
<g id="edge4" class="edge"><title>Node1&#45;&gt;Node3</title>
<path fill="none" stroke="midnightblue" d="M129.22,-69.8067C186.637,-76.3294 268.131,-85.5874 325.708,-92.1282"/>
<polygon fill="midnightblue" stroke="midnightblue" points="129.479,-66.3138 119.148,-68.6626 128.689,-73.2691 129.479,-66.3138"/>
</g>
<!-- Node5 -->
<g id="node5" class="node"><title>Node5</title>
<g id="a_node5"><a xlink:href="a00356.html#gaaa7b4d37bf796019e72f25c6e7fe7bea" target="_top" xlink:title="Count the number of placeholders in query. ">
<polygon fill="white" stroke="black" points="155,-33.5 155,-52.5 284,-52.5 284,-33.5 155,-33.5"/>
<text text-anchor="middle" x="219.5" y="-40.5" font-family="Helvetica,sans-Serif" font-size="10.00">tds_count_placeholders</text>
</a>
</g>
</g>
<!-- Node1&#45;&gt;Node5 -->
<g id="edge5" class="edge"><title>Node1&#45;&gt;Node5</title>
<path fill="none" stroke="midnightblue" d="M129.506,-53.7019C137.929,-52.6889 146.507,-51.6574 154.847,-50.6544"/>
<polygon fill="midnightblue" stroke="midnightblue" points="128.844,-50.2561 119.333,-54.9251 129.68,-57.2061 128.844,-50.2561"/>
</g>
<!-- Node6 -->
<g id="node6" class="node"><title>Node6</title>
<g id="a_node6"><a xlink:href="a00356.html#ga02c6ce3ff96369603a6ee4efee64caae" target="_top" xlink:title="Emulate prepared execute traslating to a normal language. ">
<polygon fill="white" stroke="black" points="320,-9.5 320,-28.5 472,-28.5 472,-9.5 320,-9.5"/>
<text text-anchor="middle" x="396" y="-16.5" font-family="Helvetica,sans-Serif" font-size="10.00">tds_send_emulated_execute</text>
</a>
</g>
</g>
<!-- Node1&#45;&gt;Node6 -->
<g id="edge9" class="edge"><title>Node1&#45;&gt;Node6</title>
<path fill="none" stroke="midnightblue" d="M87.9473,-47.8808C106.379,-39.1812 131.503,-28.8017 155,-24 209.408,-12.8813 272.2,-11.9827 319.906,-13.6773"/>
<polygon fill="midnightblue" stroke="midnightblue" points="86.1739,-44.8509 78.7061,-52.3664 89.2306,-51.1483 86.1739,-44.8509"/>
</g>
<!-- Node2&#45;&gt;Node3 -->
<g id="edge2" class="edge"><title>Node2&#45;&gt;Node3</title>
<path fill="none" stroke="midnightblue" d="M283.634,-112.126C297.362,-110.631 311.955,-109.042 325.901,-107.524"/>
<polygon fill="midnightblue" stroke="midnightblue" points="282.892,-108.686 273.329,-113.248 283.649,-115.645 282.892,-108.686"/>
</g>
<!-- Node4 -->
<g id="node4" class="node"><title>Node4</title>
<g id="a_node4"><a xlink:href="a00356.html#ga5a29ae7f99d089dc3cea85ec6ee5f3ab" target="_top" xlink:title="tds_submit_query() sends a language string to the database server for processing. ...">
<polygon fill="white" stroke="red" points="519.5,-90.5 519.5,-109.5 617.5,-109.5 617.5,-90.5 519.5,-90.5"/>
<text text-anchor="middle" x="568.5" y="-97.5" font-family="Helvetica,sans-Serif" font-size="10.00">tds_submit_query</text>
</a>
</g>
</g>
<!-- Node3&#45;&gt;Node4 -->
<g id="edge3" class="edge"><title>Node3&#45;&gt;Node4</title>
<path fill="none" stroke="midnightblue" d="M476.437,-100C491.094,-100 505.98,-100 519.354,-100"/>
<polygon fill="midnightblue" stroke="midnightblue" points="476.349,-96.5001 466.349,-100 476.349,-103.5 476.349,-96.5001"/>
</g>
<!-- Node5&#45;&gt;Node6 -->
<g id="edge6" class="edge"><title>Node5&#45;&gt;Node6</title>
<path fill="none" stroke="midnightblue" d="M294.681,-32.7975C304.98,-31.381 315.527,-29.9304 325.731,-28.5269"/>
<polygon fill="midnightblue" stroke="midnightblue" points="293.916,-29.3696 284.486,-34.1996 294.87,-36.3043 293.916,-29.3696"/>
</g>
<!-- Node7 -->
<g id="node7" class="node"><title>Node7</title>
<g id="a_node7"><a xlink:href="a00356.html#gae603aed795a4c5bb26ab159a11256996" target="_top" xlink:title="Submit a prepared query with parameters. ">
<polygon fill="white" stroke="black" points="508,-38.5 508,-57.5 629,-57.5 629,-38.5 508,-38.5"/>
<text text-anchor="middle" x="568.5" y="-45.5" font-family="Helvetica,sans-Serif" font-size="10.00">tds_submit_execdirect</text>
</a>
</g>
</g>
<!-- Node6&#45;&gt;Node7 -->
<g id="edge7" class="edge"><title>Node6&#45;&gt;Node7</title>
<path fill="none" stroke="midnightblue" d="M463.572,-30.3231C479.439,-33.0219 496.214,-35.8752 511.549,-38.4835"/>
<polygon fill="midnightblue" stroke="midnightblue" points="463.746,-26.8025 453.301,-28.5761 462.572,-33.7034 463.746,-26.8025"/>
</g>
<!-- Node8 -->
<g id="node8" class="node"><title>Node8</title>
<g id="a_node8"><a xlink:href="a00356.html#ga3e7b4793c6f799fbc6c174f673bb5b32" target="_top" xlink:title="tds_submit_execute() sends a previously prepared dynamic statement to the server. ...">
<polygon fill="white" stroke="black" points="514,-0.5 514,-19.5 623,-19.5 623,-0.5 514,-0.5"/>
<text text-anchor="middle" x="568.5" y="-7.5" font-family="Helvetica,sans-Serif" font-size="10.00">tds_submit_execute</text>
</a>
</g>
</g>
<!-- Node6&#45;&gt;Node8 -->
<g id="edge8" class="edge"><title>Node6&#45;&gt;Node8</title>
<path fill="none" stroke="midnightblue" d="M482.498,-14.4869C493.177,-13.9232 503.851,-13.3598 513.849,-12.832"/>
<polygon fill="midnightblue" stroke="midnightblue" points="482.082,-11.0039 472.28,-15.0263 482.451,-17.9942 482.082,-11.0039"/>
</g>
</g>
</svg>
