<?xml version="1.0" encoding="UTF-8" standalone="no"?>
<!DOCTYPE svg PUBLIC "-//W3C//DTD SVG 1.1//EN"
 "http://www.w3.org/Graphics/SVG/1.1/DTD/svg11.dtd">
<!-- Generated by graphviz version 2.38.0 (20140413.2041)
 -->
<!-- Title: parse_server_name_for_port Pages: 1 -->
<svg width="407pt" height="47pt"
 viewBox="0.00 0.00 407.00 47.00" xmlns="http://www.w3.org/2000/svg" xmlns:xlink="http://www.w3.org/1999/xlink">
<g id="graph0" class="graph" transform="scale(1 1) rotate(0) translate(4 43)">
<title>parse_server_name_for_port</title>
<polygon fill="white" stroke="none" points="-4,4 -4,-43 403,-43 403,4 -4,4"/>
<!-- Node1 -->
<g id="node1" class="node"><title>Node1</title>
<polygon fill="#bfbfbf" stroke="black" points="0,-0.5 0,-19.5 155,-19.5 155,-0.5 0,-0.5"/>
<text text-anchor="middle" x="77.5" y="-7.5" font-family="Helvetica,sans-Serif" font-size="10.00">parse_server_name_for_port</text>
</g>
<!-- Node2 -->
<g id="node2" class="node"><title>Node2</title>
<g id="a_node2"><a xlink:href="a00358.html#gad96366d9fa93bfc283cef1299fbe97ab" target="_top" xlink:title="copy a string from another ">
<polygon fill="white" stroke="black" points="191,-19.5 191,-38.5 274,-38.5 274,-19.5 191,-19.5"/>
<text text-anchor="middle" x="232.5" y="-26.5" font-family="Helvetica,sans-Serif" font-size="10.00">tds_dstr_copy</text>
</a>
</g>
</g>
<!-- Node1&#45;&gt;Node2 -->
<g id="edge1" class="edge"><title>Node1&#45;&gt;Node2</title>
<path fill="none" stroke="midnightblue" d="M155.448,-19.5557C164.029,-20.6213 172.602,-21.6859 180.736,-22.696"/>
<polygon fill="midnightblue" stroke="midnightblue" points="180.417,-26.1831 190.772,-23.9423 181.28,-19.2365 180.417,-26.1831"/>
</g>
<!-- Node3 -->
<g id="node3" class="node"><title>Node3</title>
<g id="a_node3"><a xlink:href="a00358.html#ga656718f240d7403f986ae887d84a6ca1" target="_top" xlink:title="Set string to a given buffer of characters. ">
<polygon fill="white" stroke="black" points="310,-0.5 310,-19.5 399,-19.5 399,-0.5 310,-0.5"/>
<text text-anchor="middle" x="354.5" y="-7.5" font-family="Helvetica,sans-Serif" font-size="10.00">tds_dstr_copyn</text>
</a>
</g>
</g>
<!-- Node1&#45;&gt;Node3 -->
<g id="edge3" class="edge"><title>Node1&#45;&gt;Node3</title>
<path fill="none" stroke="midnightblue" d="M155.103,-10C201.107,-10 258.509,-10 299.715,-10"/>
<polygon fill="midnightblue" stroke="midnightblue" points="299.826,-13.5001 309.826,-10 299.826,-6.5001 299.826,-13.5001"/>
</g>
<!-- Node2&#45;&gt;Node3 -->
<g id="edge2" class="edge"><title>Node2&#45;&gt;Node3</title>
<path fill="none" stroke="midnightblue" d="M274.127,-22.5675C282.337,-21.2675 291.089,-19.8817 299.671,-18.5229"/>
<polygon fill="midnightblue" stroke="midnightblue" points="300.296,-21.9677 309.625,-16.9468 299.201,-15.0538 300.296,-21.9677"/>
</g>
</g>
</svg>
