<?xml version="1.0" encoding="UTF-8" standalone="no"?>
<!DOCTYPE svg PUBLIC "-//W3C//DTD SVG 1.1//EN"
 "http://www.w3.org/Graphics/SVG/1.1/DTD/svg11.dtd">
<!-- Generated by graphviz version 2.38.0 (20140413.2041)
 -->
<!-- Title: dbsetlbool Pages: 1 -->
<svg width="278pt" height="47pt"
 viewBox="0.00 0.00 278.00 47.00" xmlns="http://www.w3.org/2000/svg" xmlns:xlink="http://www.w3.org/1999/xlink">
<g id="graph0" class="graph" transform="scale(1 1) rotate(0) translate(4 43)">
<title>dbsetlbool</title>
<polygon fill="white" stroke="none" points="-4,4 -4,-43 274,-43 274,4 -4,4"/>
<!-- Node1 -->
<g id="node1" class="node"><title>Node1</title>
<polygon fill="#bfbfbf" stroke="black" points="0,-19.5 0,-38.5 64,-38.5 64,-19.5 0,-19.5"/>
<text text-anchor="middle" x="32" y="-26.5" font-family="Helvetica,sans-Serif" font-size="10.00">dbsetlbool</text>
</g>
<!-- Node2 -->
<g id="node2" class="node"><title>Node2</title>
<g id="a_node2"><a xlink:href="a00193.html#ab45c291105027e69836002e1dd586141" target="_top" xlink:title="Write a message to the debug log. ">
<polygon fill="white" stroke="black" points="193,-19.5 193,-38.5 270,-38.5 270,-19.5 193,-19.5"/>
<text text-anchor="middle" x="231.5" y="-26.5" font-family="Helvetica,sans-Serif" font-size="10.00">tdsdump_log</text>
</a>
</g>
</g>
<!-- Node1&#45;&gt;Node2 -->
<g id="edge1" class="edge"><title>Node1&#45;&gt;Node2</title>
<path fill="none" stroke="midnightblue" d="M64.2945,-29C96.2088,-29 146.129,-29 182.936,-29"/>
<polygon fill="midnightblue" stroke="midnightblue" points="182.944,-32.5001 192.944,-29 182.944,-25.5001 182.944,-32.5001"/>
</g>
<!-- Node3 -->
<g id="node3" class="node"><title>Node3</title>
<g id="a_node3"><a xlink:href="a00347.html#ga302a4ce6559b81808e3be51615cd1b67" target="_top" xlink:title="Call client&#45;installed error handler. ">
<polygon fill="white" stroke="black" points="100,-0.5 100,-19.5 157,-19.5 157,-0.5 100,-0.5"/>
<text text-anchor="middle" x="128.5" y="-7.5" font-family="Helvetica,sans-Serif" font-size="10.00">dbperror</text>
</a>
</g>
</g>
<!-- Node1&#45;&gt;Node3 -->
<g id="edge2" class="edge"><title>Node1&#45;&gt;Node3</title>
<path fill="none" stroke="midnightblue" d="M64.2047,-22.726C72.384,-21.0815 81.2912,-19.2907 89.7715,-17.5856"/>
<polygon fill="midnightblue" stroke="midnightblue" points="90.7123,-20.9666 99.8262,-15.564 89.3324,-14.1039 90.7123,-20.9666"/>
</g>
<!-- Node3&#45;&gt;Node2 -->
<g id="edge3" class="edge"><title>Node3&#45;&gt;Node2</title>
<path fill="none" stroke="midnightblue" d="M157.099,-15.1918C165.077,-16.6926 174.022,-18.3755 182.851,-20.0363"/>
<polygon fill="midnightblue" stroke="midnightblue" points="182.237,-23.4822 192.712,-21.8913 183.531,-16.6028 182.237,-23.4822"/>
</g>
</g>
</svg>
