<?xml version="1.0" encoding="UTF-8" standalone="no"?>
<!DOCTYPE svg PUBLIC "-//W3C//DTD SVG 1.1//EN"
 "http://www.w3.org/Graphics/SVG/1.1/DTD/svg11.dtd">
<!-- Generated by graphviz version 2.38.0 (20140413.2041)
 -->
<!-- Title: dbfcmd Pages: 1 -->
<svg width="350pt" height="120pt"
 viewBox="0.00 0.00 350.00 119.60" xmlns="http://www.w3.org/2000/svg" xmlns:xlink="http://www.w3.org/1999/xlink">
<g id="graph0" class="graph" transform="scale(1 1) rotate(0) translate(4 115.597)">
<title>dbfcmd</title>
<polygon fill="white" stroke="none" points="-4,4 -4,-115.597 346,-115.597 346,4 -4,4"/>
<!-- Node1 -->
<g id="node1" class="node"><title>Node1</title>
<polygon fill="#bfbfbf" stroke="black" points="0,-76.5 0,-95.5 50,-95.5 50,-76.5 0,-76.5"/>
<text text-anchor="middle" x="25" y="-83.5" font-family="Helvetica,sans-Serif" font-size="10.00">dbfcmd</text>
</g>
<!-- Node2 -->
<g id="node2" class="node"><title>Node2</title>
<g id="a_node2"><a xlink:href="a00193.html#ab45c291105027e69836002e1dd586141" target="_top" xlink:title="Write a message to the debug log. ">
<polygon fill="white" stroke="black" points="265,-57.5 265,-76.5 342,-76.5 342,-57.5 265,-57.5"/>
<text text-anchor="middle" x="303.5" y="-64.5" font-family="Helvetica,sans-Serif" font-size="10.00">tdsdump_log</text>
</a>
</g>
</g>
<!-- Node1&#45;&gt;Node2 -->
<g id="edge1" class="edge"><title>Node1&#45;&gt;Node2</title>
<path fill="none" stroke="midnightblue" d="M50.1224,-93.316C88.5316,-103.843 165.714,-120.392 229,-105 247.434,-100.517 266.41,-90.5453 280.463,-81.9419"/>
<polygon fill="midnightblue" stroke="midnightblue" points="282.371,-84.8765 288.931,-76.5571 278.615,-78.9695 282.371,-84.8765"/>
</g>
<!-- Node3 -->
<g id="node3" class="node"><title>Node3</title>
<g id="a_node3"><a xlink:href="a00347.html#ga302a4ce6559b81808e3be51615cd1b67" target="_top" xlink:title="Call client&#45;installed error handler. ">
<polygon fill="white" stroke="black" points="170.5,-76.5 170.5,-95.5 227.5,-95.5 227.5,-76.5 170.5,-76.5"/>
<text text-anchor="middle" x="199" y="-83.5" font-family="Helvetica,sans-Serif" font-size="10.00">dbperror</text>
</a>
</g>
</g>
<!-- Node1&#45;&gt;Node3 -->
<g id="edge2" class="edge"><title>Node1&#45;&gt;Node3</title>
<path fill="none" stroke="midnightblue" d="M50.2786,-86C78.8555,-86 126.65,-86 160.114,-86"/>
<polygon fill="midnightblue" stroke="midnightblue" points="160.432,-89.5001 170.432,-86 160.432,-82.5001 160.432,-89.5001"/>
</g>
<!-- Node4 -->
<g id="node4" class="node"><title>Node4</title>
<g id="a_node4"><a xlink:href="a00341.html#ga87b39d9863316b4ba85654b0885d53a0" target="_top" xlink:title="Append SQL to the command buffer. ">
<polygon fill="white" stroke="black" points="86,-38.5 86,-57.5 133,-57.5 133,-38.5 86,-38.5"/>
<text text-anchor="middle" x="109.5" y="-45.5" font-family="Helvetica,sans-Serif" font-size="10.00">dbcmd</text>
</a>
</g>
</g>
<!-- Node1&#45;&gt;Node4 -->
<g id="edge4" class="edge"><title>Node1&#45;&gt;Node4</title>
<path fill="none" stroke="midnightblue" d="M46.8182,-76.411C56.3934,-72.0006 67.9337,-66.6851 78.4294,-61.8507"/>
<polygon fill="midnightblue" stroke="midnightblue" points="80.0699,-64.9486 87.6884,-57.5859 77.1413,-58.5906 80.0699,-64.9486"/>
</g>
<!-- Node3&#45;&gt;Node2 -->
<g id="edge3" class="edge"><title>Node3&#45;&gt;Node2</title>
<path fill="none" stroke="midnightblue" d="M227.738,-80.8583C236.098,-79.3087 245.523,-77.5616 254.793,-75.8433"/>
<polygon fill="midnightblue" stroke="midnightblue" points="255.539,-79.2648 264.733,-74.0007 254.263,-72.382 255.539,-79.2648"/>
</g>
<!-- Node4&#45;&gt;Node2 -->
<g id="edge5" class="edge"><title>Node4&#45;&gt;Node2</title>
<path fill="none" stroke="midnightblue" d="M133.279,-50.2542C163.096,-53.2049 216.117,-58.4516 254.884,-62.288"/>
<polygon fill="midnightblue" stroke="midnightblue" points="254.613,-65.7781 264.909,-63.28 255.302,-58.8122 254.613,-65.7781"/>
</g>
<!-- Node4&#45;&gt;Node3 -->
<g id="edge8" class="edge"><title>Node4&#45;&gt;Node3</title>
<path fill="none" stroke="midnightblue" d="M132.58,-57.589C142.839,-62.0444 155.225,-67.4235 166.447,-72.2971"/>
<polygon fill="midnightblue" stroke="midnightblue" points="165.361,-75.6409 175.927,-76.4141 168.149,-69.2202 165.361,-75.6409"/>
</g>
<!-- Node5 -->
<g id="node5" class="node"><title>Node5</title>
<g id="a_node5"><a xlink:href="a00341.html#ga0fcfcf6846442dac9dd5584d270ec72a" target="_top" xlink:title="Erase the command buffer, in case DBNOAUTOFREE was set with dbsetopt(). ">
<polygon fill="white" stroke="black" points="169,-0.5 169,-19.5 229,-19.5 229,-0.5 169,-0.5"/>
<text text-anchor="middle" x="199" y="-7.5" font-family="Helvetica,sans-Serif" font-size="10.00">dbfreebuf</text>
</a>
</g>
</g>
<!-- Node4&#45;&gt;Node5 -->
<g id="edge6" class="edge"><title>Node4&#45;&gt;Node5</title>
<path fill="none" stroke="midnightblue" d="M132.58,-38.411C142.839,-33.9556 155.225,-28.5765 166.447,-23.7029"/>
<polygon fill="midnightblue" stroke="midnightblue" points="168.149,-26.7798 175.927,-19.5859 165.361,-20.3591 168.149,-26.7798"/>
</g>
<!-- Node5&#45;&gt;Node2 -->
<g id="edge7" class="edge"><title>Node5&#45;&gt;Node2</title>
<path fill="none" stroke="midnightblue" d="M217.388,-19.6693C233.61,-28.6903 258.025,-42.2673 276.551,-52.5698"/>
<polygon fill="midnightblue" stroke="midnightblue" points="274.928,-55.6723 285.369,-57.4735 278.331,-49.5546 274.928,-55.6723"/>
</g>
</g>
</svg>
