<?xml version="1.0" encoding="UTF-8" standalone="no"?>
<!DOCTYPE svg PUBLIC "-//W3C//DTD SVG 1.1//EN"
 "http://www.w3.org/Graphics/SVG/1.1/DTD/svg11.dtd">
<!-- Generated by graphviz version 2.38.0 (20140413.2041)
 -->
<!-- Title: tds_process_login_tokens Pages: 1 -->
<svg width="1845pt" height="1765pt"
 viewBox="0.00 0.00 1845.00 1764.96" xmlns="http://www.w3.org/2000/svg" xmlns:xlink="http://www.w3.org/1999/xlink">
<g id="graph0" class="graph" transform="scale(1 1) rotate(0) translate(4 1760.96)">
<title>tds_process_login_tokens</title>
<polygon fill="white" stroke="none" points="-4,4 -4,-1760.96 1841,-1760.96 1841,4 -4,4"/>
<!-- Node1 -->
<g id="node1" class="node"><title>Node1</title>
<polygon fill="#bfbfbf" stroke="black" points="0,-1393.46 0,-1412.46 140,-1412.46 140,-1393.46 0,-1393.46"/>
<text text-anchor="middle" x="70" y="-1400.46" font-family="Helvetica,sans-Serif" font-size="10.00">tds_process_login_tokens</text>
</g>
<!-- Node2 -->
<g id="node2" class="node"><title>Node2</title>
<g id="a_node2"><a xlink:href="a00193.html#ab45c291105027e69836002e1dd586141" target="_top" xlink:title="Write a message to the debug log. ">
<polygon fill="white" stroke="black" points="1760,-628.458 1760,-647.458 1837,-647.458 1837,-628.458 1760,-628.458"/>
<text text-anchor="middle" x="1798.5" y="-635.458" font-family="Helvetica,sans-Serif" font-size="10.00">tdsdump_log</text>
</a>
</g>
</g>
<!-- Node1&#45;&gt;Node2 -->
<g id="edge1" class="edge"><title>Node1&#45;&gt;Node2</title>
<path fill="none" stroke="midnightblue" d="M72.7565,-1412.88C79.66,-1449.41 107.963,-1578.27 176,-1656.96 232.833,-1722.69 257.107,-1756.96 344,-1756.96 344,-1756.96 344,-1756.96 1595,-1756.96 1615.89,-1756.96 1696.39,-1722.76 1724,-1676.96 1778.59,-1586.38 1794.79,-793.752 1797.17,-657.77"/>
<polygon fill="midnightblue" stroke="midnightblue" points="1800.68,-657.646 1797.35,-647.587 1793.68,-657.526 1800.68,-657.646"/>
</g>
<!-- Node3 -->
<g id="node3" class="node"><title>Node3</title>
<g id="a_node3"><a xlink:href="a00357.html#ga0cb72d3f6943795c39db1fa692be0a58" target="_top" xlink:title="Return a single byte from the input buffer. ">
<polygon fill="white" stroke="black" points="961,-861.458 961,-880.458 1038,-880.458 1038,-861.458 961,-861.458"/>
<text text-anchor="middle" x="999.5" y="-868.458" font-family="Helvetica,sans-Serif" font-size="10.00">tds_get_byte</text>
</a>
</g>
</g>
<!-- Node1&#45;&gt;Node3 -->
<g id="edge2" class="edge"><title>Node1&#45;&gt;Node3</title>
<path fill="none" stroke="midnightblue" d="M72.4125,-1393.3C85.2001,-1307.62 184.195,-680.958 344,-680.958 344,-680.958 344,-680.958 657,-680.958 798.741,-680.958 936.57,-807.492 982.476,-854.039"/>
<polygon fill="midnightblue" stroke="midnightblue" points="980.026,-856.54 989.504,-861.275 985.047,-851.663 980.026,-856.54"/>
</g>
<!-- Node9 -->
<g id="node9" class="node"><title>Node9</title>
<g id="a_node9"><a xlink:href="a00359.html#ga7f24a7af985cd320788122e98072b7af" target="_top" xlink:title="Returns string representation for a given token type. ">
<polygon fill="white" stroke="black" points="608.5,-1659.46 608.5,-1678.46 703.5,-1678.46 703.5,-1659.46 608.5,-1659.46"/>
<text text-anchor="middle" x="656" y="-1666.46" font-family="Helvetica,sans-Serif" font-size="10.00">tds_token_name</text>
</a>
</g>
</g>
<!-- Node1&#45;&gt;Node9 -->
<g id="edge13" class="edge"><title>Node1&#45;&gt;Node9</title>
<path fill="none" stroke="midnightblue" d="M81.3602,-1412.46C122.527,-1449.61 279.943,-1585.71 437,-1642.96 489.492,-1662.09 553.344,-1667.84 598.337,-1669.26"/>
<polygon fill="midnightblue" stroke="midnightblue" points="598.408,-1672.76 608.494,-1669.51 598.585,-1665.76 598.408,-1672.76"/>
</g>
<!-- Node10 -->
<g id="node10" class="node"><title>Node10</title>
<g id="a_node10"><a xlink:href="a00357.html#gad38aa5b9547817854ccba1fcc7855861" target="_top" xlink:title="Get an int16 from the server. ">
<polygon fill="white" stroke="black" points="950.5,-1139.46 950.5,-1158.46 1048.5,-1158.46 1048.5,-1139.46 950.5,-1139.46"/>
<text text-anchor="middle" x="999.5" y="-1146.46" font-family="Helvetica,sans-Serif" font-size="10.00">tds_get_usmallint</text>
</a>
</g>
</g>
<!-- Node1&#45;&gt;Node10 -->
<g id="edge14" class="edge"><title>Node1&#45;&gt;Node10</title>
<path fill="none" stroke="midnightblue" d="M140.219,-1396.39C328.659,-1378.02 840.984,-1324.67 904,-1281.96 906.865,-1280.02 960.481,-1203.45 985.651,-1167.39"/>
<polygon fill="midnightblue" stroke="midnightblue" points="988.811,-1168.98 991.661,-1158.78 983.069,-1164.97 988.811,-1168.98"/>
</g>
<!-- Node12 -->
<g id="node12" class="node"><title>Node12</title>
<g id="a_node12"><a xlink:href="a00359.html#gafb26aba5d935e40b87b95e21a5185848" target="_top" xlink:title="Reads a string from wire in a new allocated buffer. ">
<polygon fill="white" stroke="black" points="777.5,-1633.46 777.5,-1652.46 889.5,-1652.46 889.5,-1633.46 777.5,-1633.46"/>
<text text-anchor="middle" x="833.5" y="-1640.46" font-family="Helvetica,sans-Serif" font-size="10.00">tds_alloc_get_string</text>
</a>
</g>
</g>
<!-- Node1&#45;&gt;Node12 -->
<g id="edge17" class="edge"><title>Node1&#45;&gt;Node12</title>
<path fill="none" stroke="midnightblue" d="M74.1628,-1412.73C91.6785,-1464.76 181.912,-1706.96 344,-1706.96 344,-1706.96 344,-1706.96 494,-1706.96 597.899,-1706.96 626.135,-1712.88 727,-1687.96 754.869,-1681.07 784.808,-1667.67 805.646,-1657.27"/>
<polygon fill="midnightblue" stroke="midnightblue" points="807.498,-1660.26 814.818,-1652.6 804.319,-1654.02 807.498,-1660.26"/>
</g>
<!-- Node15 -->
<g id="node15" class="node"><title>Node15</title>
<g id="a_node15"><a xlink:href="a00359.html#ga39453d084f3f780ac4602d4abf2839f7" target="_top" xlink:title="tds_process_default_tokens() is a catch all function that is called to process tokens not known to ot...">
<polygon fill="white" stroke="black" points="437,-877.958 437,-907.958 549,-907.958 549,-877.958 437,-877.958"/>
<text text-anchor="start" x="445" y="-895.958" font-family="Helvetica,sans-Serif" font-size="10.00">tds_process_default</text>
<text text-anchor="middle" x="493" y="-884.958" font-family="Helvetica,sans-Serif" font-size="10.00">_tokens</text>
</a>
</g>
</g>
<!-- Node1&#45;&gt;Node15 -->
<g id="edge21" class="edge"><title>Node1&#45;&gt;Node15</title>
<path fill="none" stroke="midnightblue" d="M79.0341,-1393.23C129.086,-1332.59 398.451,-1006.28 472.915,-916.077"/>
<polygon fill="midnightblue" stroke="midnightblue" points="475.832,-918.041 479.499,-908.101 470.434,-913.585 475.832,-918.041"/>
</g>
<!-- Node39 -->
<g id="node39" class="node"><title>Node39</title>
<g id="a_node39"><a xlink:href="a00359.html#ga55f27c3e05d42c9b07ace1c74b11c5ab" target="_top" xlink:title="Retrieve and set @spid. ">
<polygon fill="white" stroke="black" points="176,-548.458 176,-567.458 253,-567.458 253,-548.458 176,-548.458"/>
<text text-anchor="middle" x="214.5" y="-555.458" font-family="Helvetica,sans-Serif" font-size="10.00">tds_set_spid</text>
</a>
</g>
</g>
<!-- Node1&#45;&gt;Node39 -->
<g id="edge114" class="edge"><title>Node1&#45;&gt;Node39</title>
<path fill="none" stroke="midnightblue" d="M71.6838,-1393.28C76.3568,-1329.18 105.528,-959.321 176,-666.958 183.778,-634.69 197.218,-598.48 205.719,-576.981"/>
<polygon fill="midnightblue" stroke="midnightblue" points="208.971,-578.275 209.449,-567.691 202.475,-575.667 208.971,-578.275"/>
</g>
<!-- Node4 -->
<g id="node4" class="node"><title>Node4</title>
<g id="a_node4"><a xlink:href="a00357.html#ga410619783bdf2bb60b0f27a5578e0e07" target="_top" xlink:title="Read in one &#39;packet&#39; from the server. ">
<polygon fill="white" stroke="black" points="1257,-800.458 1257,-819.458 1353,-819.458 1353,-800.458 1257,-800.458"/>
<text text-anchor="middle" x="1305" y="-807.458" font-family="Helvetica,sans-Serif" font-size="10.00">tds_read_packet</text>
</a>
</g>
</g>
<!-- Node3&#45;&gt;Node4 -->
<g id="edge3" class="edge"><title>Node3&#45;&gt;Node4</title>
<path fill="none" stroke="midnightblue" d="M1038.02,-863.417C1090.38,-852.894 1185.79,-833.716 1246.97,-821.419"/>
<polygon fill="midnightblue" stroke="midnightblue" points="1247.75,-824.834 1256.86,-819.432 1246.37,-817.971 1247.75,-824.834"/>
</g>
<!-- Node4&#45;&gt;Node2 -->
<g id="edge4" class="edge"><title>Node4&#45;&gt;Node2</title>
<path fill="none" stroke="midnightblue" d="M1353.37,-808.746C1396.75,-806.768 1462.48,-801.573 1518,-787.958 1623.83,-762.007 1733.04,-686.561 1777.18,-653.635"/>
<polygon fill="midnightblue" stroke="midnightblue" points="1779.48,-656.283 1785.35,-647.465 1775.26,-650.696 1779.48,-656.283"/>
</g>
<!-- Node5 -->
<g id="node5" class="node"><title>Node5</title>
<g id="a_node5"><a xlink:href="a00193.html#abf18b98efef6ce2dc0b97d658a3a1918" target="_top" xlink:title="Call the client library&#39;s error handler (for library&#45;generated errors only) ">
<polygon fill="white" stroke="red" points="1670,-647.458 1670,-666.458 1724,-666.458 1724,-647.458 1670,-647.458"/>
<text text-anchor="middle" x="1697" y="-654.458" font-family="Helvetica,sans-Serif" font-size="10.00">tdserror</text>
</a>
</g>
</g>
<!-- Node4&#45;&gt;Node5 -->
<g id="edge5" class="edge"><title>Node4&#45;&gt;Node5</title>
<path fill="none" stroke="midnightblue" d="M1353.13,-801.605C1419,-788.594 1540.97,-759.576 1634,-708.958 1651.04,-699.684 1667.75,-685.279 1679.51,-673.981"/>
<polygon fill="midnightblue" stroke="midnightblue" points="1682.17,-676.278 1686.81,-666.756 1677.24,-671.302 1682.17,-676.278"/>
</g>
<!-- Node6 -->
<g id="node6" class="node"><title>Node6</title>
<g id="a_node6"><a xlink:href="a00357.html#ga3e3f76009fce5ceedb2f42bb2c9aed2e" target="_top" xlink:title="Close current socket for last socket close entire connection for MARS send FIN request. ">
<polygon fill="white" stroke="black" points="1415.5,-647.458 1415.5,-666.458 1513.5,-666.458 1513.5,-647.458 1415.5,-647.458"/>
<text text-anchor="middle" x="1464.5" y="-654.458" font-family="Helvetica,sans-Serif" font-size="10.00">tds_close_socket</text>
</a>
</g>
</g>
<!-- Node4&#45;&gt;Node6 -->
<g id="edge7" class="edge"><title>Node4&#45;&gt;Node6</title>
<path fill="none" stroke="midnightblue" d="M1315.85,-800.387C1341.93,-775.057 1413,-706.014 1446.1,-673.857"/>
<polygon fill="midnightblue" stroke="midnightblue" points="1448.92,-676.003 1453.65,-666.525 1444.04,-670.982 1448.92,-676.003"/>
</g>
<!-- Node8 -->
<g id="node8" class="node"><title>Node8</title>
<g id="a_node8"><a xlink:href="a00193.html#a79449d2f35a8acc8ed0585044f75524d" target="_top" xlink:title="Dump the contents of data into the log file in a human readable format. ">
<polygon fill="white" stroke="black" points="1411,-1036.46 1411,-1055.46 1518,-1055.46 1518,-1036.46 1411,-1036.46"/>
<text text-anchor="middle" x="1464.5" y="-1043.46" font-family="Helvetica,sans-Serif" font-size="10.00">tdsdump_dump_buf</text>
</a>
</g>
</g>
<!-- Node4&#45;&gt;Node8 -->
<g id="edge12" class="edge"><title>Node4&#45;&gt;Node8</title>
<path fill="none" stroke="midnightblue" d="M1312.37,-819.502C1336.16,-855.154 1420.07,-980.889 1451.5,-1027.98"/>
<polygon fill="midnightblue" stroke="midnightblue" points="1448.59,-1029.92 1457.05,-1036.3 1454.41,-1026.03 1448.59,-1029.92"/>
</g>
<!-- Node5&#45;&gt;Node2 -->
<g id="edge6" class="edge"><title>Node5&#45;&gt;Node2</title>
<path fill="none" stroke="midnightblue" d="M1724.14,-651.966C1732.09,-650.448 1741.09,-648.73 1749.99,-647.031"/>
<polygon fill="midnightblue" stroke="midnightblue" points="1750.77,-650.445 1759.93,-645.132 1749.45,-643.57 1750.77,-650.445"/>
</g>
<!-- Node6&#45;&gt;Node5 -->
<g id="edge11" class="edge"><title>Node6&#45;&gt;Node5</title>
<path fill="none" stroke="midnightblue" d="M1513.54,-656.958C1557.05,-656.958 1620.2,-656.958 1659.65,-656.958"/>
<polygon fill="midnightblue" stroke="midnightblue" points="1659.86,-660.458 1669.86,-656.958 1659.86,-653.458 1659.86,-660.458"/>
</g>
<!-- Node7 -->
<g id="node7" class="node"><title>Node7</title>
<g id="a_node7"><a xlink:href="a00193.html#a16db200d2281f76fe46fc1cbe37ca9df" target="_top" xlink:title="Set state of TDS connection, with logging and checking. ">
<polygon fill="white" stroke="black" points="1554,-342.458 1554,-361.458 1634,-361.458 1634,-342.458 1554,-342.458"/>
<text text-anchor="middle" x="1594" y="-349.458" font-family="Helvetica,sans-Serif" font-size="10.00">tds_set_state</text>
</a>
</g>
</g>
<!-- Node6&#45;&gt;Node7 -->
<g id="edge8" class="edge"><title>Node6&#45;&gt;Node7</title>
<path fill="none" stroke="midnightblue" d="M1469.6,-647.155C1487.69,-603.864 1560.64,-429.379 1585.02,-371.053"/>
<polygon fill="midnightblue" stroke="midnightblue" points="1588.35,-372.148 1588.98,-361.572 1581.89,-369.448 1588.35,-372.148"/>
</g>
<!-- Node7&#45;&gt;Node2 -->
<g id="edge9" class="edge"><title>Node7&#45;&gt;Node2</title>
<path fill="none" stroke="midnightblue" d="M1634.16,-349.01C1662.52,-349.065 1699.96,-353.978 1724,-375.958 1760.46,-409.289 1786.4,-563.001 1794.68,-618.175"/>
<polygon fill="midnightblue" stroke="midnightblue" points="1791.26,-618.987 1796.17,-628.374 1798.18,-617.972 1791.26,-618.987"/>
</g>
<!-- Node7&#45;&gt;Node5 -->
<g id="edge10" class="edge"><title>Node7&#45;&gt;Node5</title>
<path fill="none" stroke="midnightblue" d="M1598.25,-361.76C1612.55,-404.962 1670.12,-578.814 1689.56,-637.498"/>
<polygon fill="midnightblue" stroke="midnightblue" points="1686.35,-638.951 1692.82,-647.344 1693,-636.751 1686.35,-638.951"/>
</g>
<!-- Node11 -->
<g id="node11" class="node"><title>Node11</title>
<g id="a_node11"><a xlink:href="a00357.html#gae7d9c4e1a079e1d0aa0252732631e8c4" target="_top" xlink:title="Get N bytes from the buffer and return them in the already allocated space given to us...">
<polygon fill="white" stroke="black" points="1115,-1177.46 1115,-1196.46 1179,-1196.46 1179,-1177.46 1115,-1177.46"/>
<text text-anchor="middle" x="1147" y="-1184.46" font-family="Helvetica,sans-Serif" font-size="10.00">tds_get_n</text>
</a>
</g>
</g>
<!-- Node10&#45;&gt;Node11 -->
<g id="edge15" class="edge"><title>Node10&#45;&gt;Node11</title>
<path fill="none" stroke="midnightblue" d="M1037.22,-1158.55C1057.86,-1163.94 1083.67,-1170.68 1104.98,-1176.24"/>
<polygon fill="midnightblue" stroke="midnightblue" points="1104.16,-1179.65 1114.72,-1178.79 1105.93,-1172.88 1104.16,-1179.65"/>
</g>
<!-- Node11&#45;&gt;Node4 -->
<g id="edge16" class="edge"><title>Node11&#45;&gt;Node4</title>
<path fill="none" stroke="midnightblue" d="M1152.01,-1177.26C1172.75,-1127.15 1267.85,-897.321 1296.08,-829.101"/>
<polygon fill="midnightblue" stroke="midnightblue" points="1299.42,-830.17 1300.01,-819.592 1292.96,-827.494 1299.42,-830.17"/>
</g>
<!-- Node13 -->
<g id="node13" class="node"><title>Node13</title>
<g id="a_node13"><a xlink:href="a00357.html#ga90f080e6e9448feac15dee1370d66802" target="_top" xlink:title="Fetch a string from the wire. ">
<polygon fill="white" stroke="black" points="957.5,-1557.46 957.5,-1576.46 1041.5,-1576.46 1041.5,-1557.46 957.5,-1557.46"/>
<text text-anchor="middle" x="999.5" y="-1564.46" font-family="Helvetica,sans-Serif" font-size="10.00">tds_get_string</text>
</a>
</g>
</g>
<!-- Node12&#45;&gt;Node13 -->
<g id="edge18" class="edge"><title>Node12&#45;&gt;Node13</title>
<path fill="none" stroke="midnightblue" d="M865.729,-1633.43C877.856,-1629.41 891.749,-1624.4 904,-1618.96 928.598,-1608.04 955.361,-1592.99 974.106,-1581.89"/>
<polygon fill="midnightblue" stroke="midnightblue" points="976.089,-1584.78 982.871,-1576.64 972.493,-1578.78 976.089,-1584.78"/>
</g>
<!-- Node13&#45;&gt;Node11 -->
<g id="edge19" class="edge"><title>Node13&#45;&gt;Node11</title>
<path fill="none" stroke="midnightblue" d="M1007.09,-1557.42C1018.83,-1540.07 1043.58,-1501.93 1059,-1466.96 1100.46,-1372.94 1130.63,-1253.1 1141.53,-1206.62"/>
<polygon fill="midnightblue" stroke="midnightblue" points="1144.99,-1207.2 1143.84,-1196.67 1138.17,-1205.62 1144.99,-1207.2"/>
</g>
<!-- Node14 -->
<g id="node14" class="node"><title>Node14</title>
<g id="a_node14"><a xlink:href="a00357.html#ga676c4dee6522815b16fdc8e448e43590" target="_top" xlink:title="For UTF&#45;8 and similar, tds_iconv() may encounter a partial sequence when the chunk boundary is not al...">
<polygon fill="white" stroke="red" points="1095,-1557.46 1095,-1576.46 1199,-1576.46 1199,-1557.46 1095,-1557.46"/>
<text text-anchor="middle" x="1147" y="-1564.46" font-family="Helvetica,sans-Serif" font-size="10.00">read_and_convert</text>
</a>
</g>
</g>
<!-- Node13&#45;&gt;Node14 -->
<g id="edge20" class="edge"><title>Node13&#45;&gt;Node14</title>
<path fill="none" stroke="midnightblue" d="M1041.81,-1566.96C1055.06,-1566.96 1070.03,-1566.96 1084.41,-1566.96"/>
<polygon fill="midnightblue" stroke="midnightblue" points="1084.74,-1570.46 1094.74,-1566.96 1084.74,-1563.46 1084.74,-1570.46"/>
</g>
<!-- Node15&#45;&gt;Node2 -->
<g id="edge22" class="edge"><title>Node15&#45;&gt;Node2</title>
<path fill="none" stroke="midnightblue" d="M494.193,-908.225C495.601,-998.359 506.602,-1460.85 585,-1573.96 625.778,-1632.79 670.93,-1605.46 727,-1649.96 745.995,-1665.03 741.539,-1679.67 763,-1690.96 856.283,-1740.03 893.096,-1718.96 998.5,-1718.96 998.5,-1718.96 998.5,-1718.96 1595,-1718.96 1617.52,-1718.96 1697.41,-1681.73 1724,-1636.96 1775.83,-1549.69 1794.25,-790.801 1797.1,-657.808"/>
<polygon fill="midnightblue" stroke="midnightblue" points="1800.6,-657.583 1797.31,-647.512 1793.6,-657.437 1800.6,-657.583"/>
</g>
<!-- Node15&#45;&gt;Node3 -->
<g id="edge53" class="edge"><title>Node15&#45;&gt;Node3</title>
<path fill="none" stroke="midnightblue" d="M549.433,-890.541C649.108,-886.194 856.925,-877.132 950.733,-873.041"/>
<polygon fill="midnightblue" stroke="midnightblue" points="950.952,-876.535 960.79,-872.602 950.647,-869.541 950.952,-876.535"/>
</g>
<!-- Node15&#45;&gt;Node5 -->
<g id="edge113" class="edge"><title>Node15&#45;&gt;Node5</title>
<path fill="none" stroke="midnightblue" d="M498.656,-877.907C509.078,-846.589 537.198,-773.923 585,-732.958 636.269,-689.021 674.384,-721.273 727,-678.958 749.766,-660.649 737.3,-637.852 763,-623.958 915.292,-541.625 972.878,-694.958 1146,-694.958 1146,-694.958 1146,-694.958 1465.5,-694.958 1535.11,-694.958 1614.99,-677.878 1660.08,-666.619"/>
<polygon fill="midnightblue" stroke="midnightblue" points="1661.13,-669.963 1669.96,-664.105 1659.4,-663.179 1661.13,-669.963"/>
</g>
<!-- Node15&#45;&gt;Node6 -->
<g id="edge24" class="edge"><title>Node15&#45;&gt;Node6</title>
<path fill="none" stroke="midnightblue" d="M494.831,-877.922C499.142,-805.266 521.272,-491.207 585,-421.958 588.478,-418.179 757.912,-372.659 763,-371.958 825.08,-363.404 846.269,-347.58 904,-371.958 925.137,-380.883 921.337,-395.613 940,-408.958 1104.99,-526.937 1334.95,-612.952 1425.09,-644.138"/>
<polygon fill="midnightblue" stroke="midnightblue" points="1424.03,-647.475 1434.63,-647.413 1426.31,-640.855 1424.03,-647.475"/>
</g>
<!-- Node15&#45;&gt;Node9 -->
<g id="edge23" class="edge"><title>Node15&#45;&gt;Node9</title>
<path fill="none" stroke="midnightblue" d="M493.724,-908.109C492.274,-1003.99 488.92,-1526.26 585,-1644.96 588.832,-1649.69 593.645,-1653.5 598.944,-1656.55"/>
<polygon fill="midnightblue" stroke="midnightblue" points="597.706,-1659.84 608.235,-1661.02 600.74,-1653.53 597.706,-1659.84"/>
</g>
<!-- Node15&#45;&gt;Node10 -->
<g id="edge52" class="edge"><title>Node15&#45;&gt;Node10</title>
<path fill="none" stroke="midnightblue" d="M502.171,-908.065C516.189,-932.757 547.015,-982.003 585,-1011.96 639.214,-1054.71 673.813,-1030.93 727,-1074.96 748.654,-1092.88 738.736,-1112.77 763,-1126.96 816.888,-1158.47 889.825,-1160.32 940.181,-1156.61"/>
<polygon fill="midnightblue" stroke="midnightblue" points="940.578,-1160.09 950.254,-1155.78 939.999,-1153.12 940.578,-1160.09"/>
</g>
<!-- Node15&#45;&gt;Node11 -->
<g id="edge41" class="edge"><title>Node15&#45;&gt;Node11</title>
<path fill="none" stroke="midnightblue" d="M495.454,-908.171C502.451,-978.958 534.405,-1275.85 585,-1351.96 637.818,-1431.41 671.756,-1444.07 763,-1471.96 822.931,-1490.27 847.219,-1498.47 904,-1471.96 926.583,-1461.41 919.15,-1442.62 940,-1428.96 986.116,-1398.75 1017.9,-1430.7 1059,-1393.96 1116.11,-1342.9 1136.81,-1248.24 1143.34,-1207.02"/>
<polygon fill="midnightblue" stroke="midnightblue" points="1146.84,-1207.29 1144.83,-1196.89 1139.91,-1206.27 1146.84,-1207.29"/>
</g>
<!-- Node16 -->
<g id="node16" class="node"><title>Node16</title>
<g id="a_node16"><a xlink:href="a00359.html#ga4e1e52e09b0c27a9b9f53eb6b539afce" target="_top" xlink:title="Process authentication token. ">
<polygon fill="white" stroke="black" points="783,-1519.46 783,-1538.46 884,-1538.46 884,-1519.46 783,-1519.46"/>
<text text-anchor="middle" x="833.5" y="-1526.46" font-family="Helvetica,sans-Serif" font-size="10.00">tds_process_auth</text>
</a>
</g>
</g>
<!-- Node15&#45;&gt;Node16 -->
<g id="edge25" class="edge"><title>Node15&#45;&gt;Node16</title>
<path fill="none" stroke="midnightblue" d="M493.967,-908.175C494.112,-993.103 499.253,-1407.73 585,-1492.96 610.688,-1518.49 708,-1526.03 772.678,-1528.19"/>
<polygon fill="midnightblue" stroke="midnightblue" points="772.662,-1531.69 782.763,-1528.49 772.872,-1524.69 772.662,-1531.69"/>
</g>
<!-- Node17 -->
<g id="node17" class="node"><title>Node17</title>
<g id="a_node17"><a xlink:href="a00359.html#ga3e1b4df4410a86a563a8c155e7799720" target="_top" xlink:title="tds_process_env_chg() when ever certain things change on the server, such as database, character set, language, or block size. ">
<polygon fill="white" stroke="black" points="595.5,-1545.46 595.5,-1564.46 716.5,-1564.46 716.5,-1545.46 595.5,-1545.46"/>
<text text-anchor="middle" x="656" y="-1552.46" font-family="Helvetica,sans-Serif" font-size="10.00">tds_process_env_chg</text>
</a>
</g>
</g>
<!-- Node15&#45;&gt;Node17 -->
<g id="edge28" class="edge"><title>Node15&#45;&gt;Node17</title>
<path fill="none" stroke="midnightblue" d="M494.085,-908.012C494.87,-994.884 502.901,-1431.7 585,-1530.96 588.112,-1534.72 591.842,-1537.89 595.938,-1540.57"/>
<polygon fill="midnightblue" stroke="midnightblue" points="594.327,-1543.68 604.781,-1545.4 597.682,-1537.53 594.327,-1543.68"/>
</g>
<!-- Node18 -->
<g id="node18" class="node"><title>Node18</title>
<g id="a_node18"><a xlink:href="a00359.html#ga7a081cf9bb8f04ead12f0299fb7c4cd9" target="_top" xlink:title="tds_process_end() processes any of the DONE, DONEPROC, or DONEINPROC tokens. ">
<polygon fill="white" stroke="black" points="784.5,-215.458 784.5,-234.458 882.5,-234.458 882.5,-215.458 784.5,-215.458"/>
<text text-anchor="middle" x="833.5" y="-222.458" font-family="Helvetica,sans-Serif" font-size="10.00">tds_process_end</text>
</a>
</g>
</g>
<!-- Node15&#45;&gt;Node18 -->
<g id="edge36" class="edge"><title>Node15&#45;&gt;Node18</title>
<path fill="none" stroke="midnightblue" d="M494.664,-877.93C498.296,-802.36 518.117,-464.53 585,-388.958 628.788,-339.48 671.555,-380.892 727,-344.958 768.879,-317.815 804,-269.558 821.178,-243.268"/>
<polygon fill="midnightblue" stroke="midnightblue" points="824.245,-244.968 826.675,-234.655 818.344,-241.202 824.245,-244.968"/>
</g>
<!-- Node20 -->
<g id="node20" class="node"><title>Node20</title>
<g id="a_node20"><a xlink:href="a00357.html#ga221e98a9c8be96ec6c8547891e1b53af" target="_top" xlink:title="Reads a byte from the TDS stream without removing it. ">
<polygon fill="white" stroke="black" points="626,-595.458 626,-614.458 686,-614.458 686,-595.458 626,-595.458"/>
<text text-anchor="middle" x="656" y="-602.458" font-family="Helvetica,sans-Serif" font-size="10.00">tds_peek</text>
</a>
</g>
</g>
<!-- Node15&#45;&gt;Node20 -->
<g id="edge42" class="edge"><title>Node15&#45;&gt;Node20</title>
<path fill="none" stroke="midnightblue" d="M494.758,-877.736C497.801,-833.083 512.78,-701.059 585,-628.958 593.438,-620.533 604.959,-615.063 616.218,-611.512"/>
<polygon fill="midnightblue" stroke="midnightblue" points="617.231,-614.863 625.96,-608.859 615.392,-608.109 617.231,-614.863"/>
</g>
<!-- Node21 -->
<g id="node21" class="node"><title>Node21</title>
<g id="a_node21"><a xlink:href="a00359.html#ga81cdf0ed9e8d29cf1ddf66e18efc407d" target="_top" xlink:title="tds_process_msg() is called for MSG, ERR, or EED tokens and is responsible for calling the CLI&#39;s mess...">
<polygon fill="white" stroke="black" points="606,-823.458 606,-842.458 706,-842.458 706,-823.458 606,-823.458"/>
<text text-anchor="middle" x="656" y="-830.458" font-family="Helvetica,sans-Serif" font-size="10.00">tds_process_msg</text>
</a>
</g>
</g>
<!-- Node15&#45;&gt;Node21 -->
<g id="edge44" class="edge"><title>Node15&#45;&gt;Node21</title>
<path fill="none" stroke="midnightblue" d="M513.78,-877.824C532.145,-868.349 560.294,-857.075 585,-847.958 588.691,-846.596 592.501,-845.216 596.348,-843.858"/>
<polygon fill="midnightblue" stroke="midnightblue" points="597.63,-847.118 605.942,-840.549 595.347,-840.501 597.63,-847.118"/>
</g>
<!-- Node22 -->
<g id="node22" class="node"><title>Node22</title>
<g id="a_node22"><a xlink:href="a00357.html#gad70d59fb317d098b0c9fd29dd77131a8" target="_top" xlink:title="Unget will always work as long as you don&#39;t call it twice in a row. ">
<polygon fill="white" stroke="black" points="789,-443.458 789,-462.458 878,-462.458 878,-443.458 789,-443.458"/>
<text text-anchor="middle" x="833.5" y="-450.458" font-family="Helvetica,sans-Serif" font-size="10.00">tds_unget_byte</text>
</a>
</g>
</g>
<!-- Node15&#45;&gt;Node22 -->
<g id="edge54" class="edge"><title>Node15&#45;&gt;Node22</title>
<path fill="none" stroke="midnightblue" d="M494.614,-877.737C497.292,-829.658 511.443,-678.748 585,-585.958 630.135,-529.021 666.615,-545.364 727,-504.958 743.846,-493.685 745.18,-486.618 763,-476.958 770.827,-472.714 779.549,-469.002 788.096,-465.846"/>
<polygon fill="midnightblue" stroke="midnightblue" points="789.329,-469.122 797.615,-462.52 787.02,-462.514 789.329,-469.122"/>
</g>
<!-- Node23 -->
<g id="node23" class="node"><title>Node23</title>
<g id="a_node23"><a xlink:href="a00359.html#ga9fdef8228d29cab7fa9098f07fa73fba" target="_top" xlink:title="Process parameters from networks. ">
<polygon fill="white" stroke="red" points="585,-431.958 585,-461.958 727,-461.958 727,-431.958 585,-431.958"/>
<text text-anchor="start" x="593" y="-449.958" font-family="Helvetica,sans-Serif" font-size="10.00">tds_process_param_result</text>
<text text-anchor="middle" x="656" y="-438.958" font-family="Helvetica,sans-Serif" font-size="10.00">_tokens</text>
</a>
</g>
</g>
<!-- Node15&#45;&gt;Node23 -->
<g id="edge55" class="edge"><title>Node15&#45;&gt;Node23</title>
<path fill="none" stroke="midnightblue" d="M496.268,-877.795C503.942,-828.945 531.497,-671.942 585,-552.958 598.691,-522.511 620.666,-491.009 636.341,-470.345"/>
<polygon fill="midnightblue" stroke="midnightblue" points="639.297,-472.244 642.631,-462.187 633.753,-467.969 639.297,-472.244"/>
</g>
<!-- Node24 -->
<g id="node24" class="node"><title>Node24</title>
<g id="a_node24"><a xlink:href="a00359.html#gaca56fc22d65a24a96d1bef310ade73aa" target="_top" xlink:title="tds7_process_result() is the TDS 7.0 result set processing routine. ">
<polygon fill="white" stroke="red" points="600,-115.458 600,-134.458 712,-134.458 712,-115.458 600,-115.458"/>
<text text-anchor="middle" x="656" y="-122.458" font-family="Helvetica,sans-Serif" font-size="10.00">tds7_process_result</text>
</a>
</g>
</g>
<!-- Node15&#45;&gt;Node24 -->
<g id="edge59" class="edge"><title>Node15&#45;&gt;Node24</title>
<path fill="none" stroke="midnightblue" d="M494.975,-877.915C499.673,-809.622 522.38,-522.304 585,-295.958 600.831,-238.737 630.358,-174.876 645.504,-143.884"/>
<polygon fill="midnightblue" stroke="midnightblue" points="648.755,-145.206 650.049,-134.69 642.48,-142.104 648.755,-145.206"/>
</g>
<!-- Node25 -->
<g id="node25" class="node"><title>Node25</title>
<g id="a_node25"><a xlink:href="a00359.html#gaa6a7e5aeb10a1322911c47be9c43e2d2" target="_top" xlink:title="Process option cmd results. ">
<polygon fill="white" stroke="black" points="766,-1253.46 766,-1272.46 901,-1272.46 901,-1253.46 766,-1253.46"/>
<text text-anchor="middle" x="833.5" y="-1260.46" font-family="Helvetica,sans-Serif" font-size="10.00">tds5_process_optioncmd</text>
</a>
</g>
</g>
<!-- Node15&#45;&gt;Node25 -->
<g id="edge61" class="edge"><title>Node15&#45;&gt;Node25</title>
<path fill="none" stroke="midnightblue" d="M495.944,-908.198C501.791,-947.776 522.832,-1054.78 585,-1112.96 633.641,-1158.48 672.434,-1122.74 727,-1160.96 747.978,-1175.65 745,-1187.74 763,-1205.96 777.985,-1221.13 796.774,-1236.34 811.036,-1247.23"/>
<polygon fill="midnightblue" stroke="midnightblue" points="809.162,-1250.2 819.257,-1253.41 813.369,-1244.61 809.162,-1250.2"/>
</g>
<!-- Node26 -->
<g id="node26" class="node"><title>Node26</title>
<g id="a_node26"><a xlink:href="a00359.html#ga9a101b8bbd978e22ec7306491e5554c7" target="_top" xlink:title="tds_process_result() is the TDS 5.0 result set processing routine. ">
<polygon fill="white" stroke="red" points="780.5,-975.458 780.5,-994.458 886.5,-994.458 886.5,-975.458 780.5,-975.458"/>
<text text-anchor="middle" x="833.5" y="-982.458" font-family="Helvetica,sans-Serif" font-size="10.00">tds_process_result</text>
</a>
</g>
</g>
<!-- Node15&#45;&gt;Node26 -->
<g id="edge66" class="edge"><title>Node15&#45;&gt;Node26</title>
<path fill="none" stroke="midnightblue" d="M524.137,-908.089C541.573,-916.362 564.132,-926.259 585,-932.958 646.796,-952.795 719.745,-967.06 770.365,-975.575"/>
<polygon fill="midnightblue" stroke="midnightblue" points="770.061,-979.072 780.499,-977.253 771.205,-972.166 770.061,-979.072"/>
</g>
<!-- Node27 -->
<g id="node27" class="node"><title>Node27</title>
<g id="a_node27"><a xlink:href="a00359.html#ga547b2f48659f77a69aa802d861ac827d" target="_top" xlink:title="tds5_process_result() is the new TDS 5.0 result set processing routine. ">
<polygon fill="white" stroke="red" points="777.5,-1329.46 777.5,-1348.46 889.5,-1348.46 889.5,-1329.46 777.5,-1329.46"/>
<text text-anchor="middle" x="833.5" y="-1336.46" font-family="Helvetica,sans-Serif" font-size="10.00">tds5_process_result</text>
</a>
</g>
</g>
<!-- Node15&#45;&gt;Node27 -->
<g id="edge70" class="edge"><title>Node15&#45;&gt;Node27</title>
<path fill="none" stroke="midnightblue" d="M494.882,-908.168C498.253,-952.167 514.011,-1080.89 585,-1150.96 632.415,-1197.75 677.973,-1153.85 727,-1198.96 756.591,-1226.18 738.776,-1249.86 763,-1281.96 775.457,-1298.46 793.637,-1313.15 808.279,-1323.48"/>
<polygon fill="midnightblue" stroke="midnightblue" points="806.622,-1326.59 816.856,-1329.33 810.565,-1320.8 806.622,-1326.59"/>
</g>
<!-- Node28 -->
<g id="node28" class="node"><title>Node28</title>
<g id="a_node28"><a xlink:href="a00357.html#ga9ac121c269e203337a48c5bf8afc48c3" target="_top" xlink:title="Get an int32 from the server. ">
<polygon fill="white" stroke="black" points="962.5,-1329.46 962.5,-1348.46 1036.5,-1348.46 1036.5,-1329.46 962.5,-1329.46"/>
<text text-anchor="middle" x="999.5" y="-1336.46" font-family="Helvetica,sans-Serif" font-size="10.00">tds_get_uint</text>
</a>
</g>
</g>
<!-- Node15&#45;&gt;Node28 -->
<g id="edge109" class="edge"><title>Node15&#45;&gt;Node28</title>
<path fill="none" stroke="midnightblue" d="M504.162,-908.156C516.62,-927.497 537.493,-962.323 549,-994.958 578.162,-1077.66 526.512,-1123.62 585,-1188.96 628.98,-1238.09 680.741,-1184.96 727,-1231.96 767.857,-1273.46 716.503,-1322.89 763,-1357.96 791.789,-1379.67 892.125,-1362.6 952.146,-1349.77"/>
<polygon fill="midnightblue" stroke="midnightblue" points="953.11,-1353.14 962.137,-1347.6 951.621,-1346.3 953.11,-1353.14"/>
</g>
<!-- Node29 -->
<g id="node29" class="node"><title>Node29</title>
<g id="a_node29"><a xlink:href="a00359.html#ga905d2fa5e1b602817bd16bb0fcf9eadb" target="_top" xlink:title="tds_process_col_name() is one half of the result set under TDS 4.2 it contains all the column names...">
<polygon fill="white" stroke="red" points="593,-1241.46 593,-1260.46 719,-1260.46 719,-1241.46 593,-1241.46"/>
<text text-anchor="middle" x="656" y="-1248.46" font-family="Helvetica,sans-Serif" font-size="10.00">tds_process_col_name</text>
</a>
</g>
</g>
<!-- Node15&#45;&gt;Node29 -->
<g id="edge77" class="edge"><title>Node15&#45;&gt;Node29</title>
<path fill="none" stroke="midnightblue" d="M497.68,-907.993C513.266,-971.461 573.567,-1214.76 585,-1226.96 588.641,-1230.84 592.938,-1234.1 597.582,-1236.82"/>
<polygon fill="midnightblue" stroke="midnightblue" points="596.35,-1240.12 606.861,-1241.45 599.472,-1233.86 596.35,-1240.12"/>
</g>
<!-- Node30 -->
<g id="node30" class="node"><title>Node30</title>
<g id="a_node30"><a xlink:href="a00359.html#ga4e3dd9d3614f5f0433b78b761dd68741" target="_top" xlink:title="tds_process_col_fmt() is the other half of result set processing under TDS 4.2. ">
<polygon fill="white" stroke="red" points="776.5,-633.458 776.5,-652.458 890.5,-652.458 890.5,-633.458 776.5,-633.458"/>
<text text-anchor="middle" x="833.5" y="-640.458" font-family="Helvetica,sans-Serif" font-size="10.00">tds_process_col_fmt</text>
</a>
</g>
</g>
<!-- Node15&#45;&gt;Node30 -->
<g id="edge79" class="edge"><title>Node15&#45;&gt;Node30</title>
<path fill="none" stroke="midnightblue" d="M501.842,-877.577C515.386,-852.542 545.548,-803.059 585,-775.958 639.353,-738.622 669.136,-764.581 727,-732.958 736.669,-727.674 786.457,-683.925 814.043,-659.425"/>
<polygon fill="midnightblue" stroke="midnightblue" points="816.678,-661.766 821.822,-652.504 812.024,-656.536 816.678,-661.766"/>
</g>
<!-- Node31 -->
<g id="node31" class="node"><title>Node31</title>
<g id="a_node31"><a xlink:href="a00359.html#gaad814dd6e35aee8332035d06dc8b5d65" target="_top" xlink:title="tds_process_row() processes rows and places them in the row buffer. ">
<polygon fill="white" stroke="black" points="607,-77.4579 607,-96.4579 705,-96.4579 705,-77.4579 607,-77.4579"/>
<text text-anchor="middle" x="656" y="-84.4579" font-family="Helvetica,sans-Serif" font-size="10.00">tds_process_row</text>
</a>
</g>
</g>
<!-- Node15&#45;&gt;Node31 -->
<g id="edge83" class="edge"><title>Node15&#45;&gt;Node31</title>
<path fill="none" stroke="midnightblue" d="M494.738,-877.872C499.949,-773.988 532.525,-166.955 585,-105.958 588.503,-101.886 592.782,-98.6434 597.482,-96.0669"/>
<polygon fill="midnightblue" stroke="midnightblue" points="599.208,-99.1307 606.943,-91.8904 596.381,-92.7268 599.208,-99.1307"/>
</g>
<!-- Node32 -->
<g id="node32" class="node"><title>Node32</title>
<g id="a_node32"><a xlink:href="a00359.html#ga416cf119c1d4a0fca27dc5b50c261358" target="_top" xlink:title="Process results from dynamic. ">
<polygon fill="white" stroke="red" points="769,-1177.46 769,-1196.46 898,-1196.46 898,-1177.46 769,-1177.46"/>
<text text-anchor="middle" x="833.5" y="-1184.46" font-family="Helvetica,sans-Serif" font-size="10.00">tds_process_dyn_result</text>
</a>
</g>
</g>
<!-- Node15&#45;&gt;Node32 -->
<g id="edge85" class="edge"><title>Node15&#45;&gt;Node32</title>
<path fill="none" stroke="midnightblue" d="M497.382,-908.092C505.894,-942.721 531.456,-1028.32 585,-1074.96 635.236,-1118.71 671.348,-1086.34 727,-1122.96 746.98,-1136.1 743.063,-1149.75 763,-1162.96 769.509,-1167.27 776.876,-1170.89 784.319,-1173.91"/>
<polygon fill="midnightblue" stroke="midnightblue" points="783.135,-1177.2 793.728,-1177.41 785.576,-1170.64 783.135,-1177.2"/>
</g>
<!-- Node33 -->
<g id="node33" class="node"><title>Node33</title>
<g id="a_node33"><a xlink:href="a00359.html#gae688b515631141acfbc41bbb91c8b921" target="_top" xlink:title="Process new TDS 5.0 token for describing output parameters. ">
<polygon fill="white" stroke="red" points="763,-1443.46 763,-1462.46 904,-1462.46 904,-1443.46 763,-1443.46"/>
<text text-anchor="middle" x="833.5" y="-1450.46" font-family="Helvetica,sans-Serif" font-size="10.00">tds5_process_dyn_result2</text>
</a>
</g>
</g>
<!-- Node15&#45;&gt;Node33 -->
<g id="edge89" class="edge"><title>Node15&#45;&gt;Node33</title>
<path fill="none" stroke="midnightblue" d="M494.484,-908.181C496.815,-961.722 510.143,-1144.87 585,-1269.96 639.473,-1360.98 671.518,-1375.26 763,-1428.96 770.2,-1433.18 778.258,-1436.82 786.265,-1439.89"/>
<polygon fill="midnightblue" stroke="midnightblue" points="785.351,-1443.28 795.946,-1443.35 787.709,-1436.68 785.351,-1443.28"/>
</g>
<!-- Node34 -->
<g id="node34" class="node"><title>Node34</title>
<g id="a_node34"><a xlink:href="a00359.html#ga7b18c0911a9dc69939577b39eb64725d" target="_top" xlink:title="tds_process_params_result_token() processes params on TDS5. ">
<polygon fill="white" stroke="black" points="598,-305.958 598,-335.958 714,-335.958 714,-305.958 598,-305.958"/>
<text text-anchor="start" x="606" y="-323.958" font-family="Helvetica,sans-Serif" font-size="10.00">tds_process_params</text>
<text text-anchor="middle" x="656" y="-312.958" font-family="Helvetica,sans-Serif" font-size="10.00">_result_token</text>
</a>
</g>
</g>
<!-- Node15&#45;&gt;Node34 -->
<g id="edge95" class="edge"><title>Node15&#45;&gt;Node34</title>
<path fill="none" stroke="midnightblue" d="M494.627,-877.735C498.158,-798.791 517.859,-436.383 585,-350.958 587.712,-347.508 590.896,-344.448 594.386,-341.736"/>
<polygon fill="midnightblue" stroke="midnightblue" points="596.608,-344.462 603.004,-336.016 592.737,-338.63 596.608,-344.462"/>
</g>
<!-- Node35 -->
<g id="node35" class="node"><title>Node35</title>
<g id="a_node35"><a xlink:href="a00359.html#ga315d875d90c64d12d61fc9e33b4dee96" target="_top" xlink:title="Reads cursor command results. ">
<polygon fill="white" stroke="black" points="778.5,-1051.96 778.5,-1081.96 888.5,-1081.96 888.5,-1051.96 778.5,-1051.96"/>
<text text-anchor="start" x="786.5" y="-1069.96" font-family="Helvetica,sans-Serif" font-size="10.00">tds_process_cursor</text>
<text text-anchor="middle" x="833.5" y="-1058.96" font-family="Helvetica,sans-Serif" font-size="10.00">_tokens</text>
</a>
</g>
</g>
<!-- Node15&#45;&gt;Node35 -->
<g id="edge96" class="edge"><title>Node15&#45;&gt;Node35</title>
<path fill="none" stroke="midnightblue" d="M510.087,-907.986C527.524,-923.704 556.67,-948.354 585,-964.958 646.775,-1001.16 723.84,-1030.74 775.415,-1048.54"/>
<polygon fill="midnightblue" stroke="midnightblue" points="774.463,-1051.92 785.058,-1051.84 776.727,-1045.29 774.463,-1051.92"/>
</g>
<!-- Node36 -->
<g id="node36" class="node"><title>Node36</title>
<g id="a_node36"><a xlink:href="a00359.html#gaeec59bca9bd0c5388e245f0d19d9c81a" target="_top" xlink:title="Process list of table from network. ">
<polygon fill="white" stroke="red" points="595.5,-785.458 595.5,-804.458 716.5,-804.458 716.5,-785.458 595.5,-785.458"/>
<text text-anchor="middle" x="656" y="-792.458" font-family="Helvetica,sans-Serif" font-size="10.00">tds_process_tabname</text>
</a>
</g>
</g>
<!-- Node15&#45;&gt;Node36 -->
<g id="edge100" class="edge"><title>Node15&#45;&gt;Node36</title>
<path fill="none" stroke="midnightblue" d="M507.285,-877.868C523.786,-860.041 553.618,-830.696 585,-813.958 589.288,-811.671 593.874,-809.641 598.571,-807.844"/>
<polygon fill="midnightblue" stroke="midnightblue" points="600.003,-811.052 608.307,-804.472 597.713,-804.437 600.003,-811.052"/>
</g>
<!-- Node37 -->
<g id="node37" class="node"><title>Node37</title>
<g id="a_node37"><a xlink:href="a00359.html#ga22c7f413d43fc0d511e122a3de389166" target="_top" xlink:title="Reads column information. ">
<polygon fill="white" stroke="red" points="778,-937.458 778,-956.458 889,-956.458 889,-937.458 778,-937.458"/>
<text text-anchor="middle" x="833.5" y="-944.458" font-family="Helvetica,sans-Serif" font-size="10.00">tds_process_colinfo</text>
</a>
</g>
</g>
<!-- Node15&#45;&gt;Node37 -->
<g id="edge108" class="edge"><title>Node15&#45;&gt;Node37</title>
<path fill="none" stroke="midnightblue" d="M549.139,-901.754C609.067,-911.314 704.721,-926.574 768.066,-936.679"/>
<polygon fill="midnightblue" stroke="midnightblue" points="767.519,-940.136 777.945,-938.255 768.622,-933.223 767.519,-940.136"/>
</g>
<!-- Node38 -->
<g id="node38" class="node"><title>Node38</title>
<g id="a_node38"><a xlink:href="a00359.html#gaf7264c9eb3aa7a73358a4c65f02d3d3c" target="_top" xlink:title="tds_process_nbcrow() processes rows and places them in the row buffer. ">
<polygon fill="white" stroke="black" points="942.5,-380.458 942.5,-399.458 1056.5,-399.458 1056.5,-380.458 942.5,-380.458"/>
<text text-anchor="middle" x="999.5" y="-387.458" font-family="Helvetica,sans-Serif" font-size="10.00">tds_process_nbcrow</text>
</a>
</g>
</g>
<!-- Node15&#45;&gt;Node38 -->
<g id="edge110" class="edge"><title>Node15&#45;&gt;Node38</title>
<path fill="none" stroke="midnightblue" d="M497.977,-877.77C507.655,-843.31 535.357,-758.075 585,-704.958 634.611,-651.875 676.901,-676.58 727,-623.958 751.396,-598.334 738.643,-578.619 763,-552.958 812.753,-500.539 845.099,-513.836 904,-471.958 932.708,-451.547 962.965,-424.091 981.289,-406.706"/>
<polygon fill="midnightblue" stroke="midnightblue" points="984.022,-408.934 988.82,-399.488 979.179,-403.88 984.022,-408.934"/>
</g>
<!-- Node16&#45;&gt;Node2 -->
<g id="edge26" class="edge"><title>Node16&#45;&gt;Node2</title>
<path fill="none" stroke="midnightblue" d="M842.318,-1538.53C858.371,-1557.43 897.159,-1599.3 940,-1617.96 1024.56,-1654.79 1053.77,-1642.96 1146,-1642.96 1146,-1642.96 1146,-1642.96 1595,-1642.96 1620.68,-1642.96 1699.22,-1599.87 1724,-1556.96 1770.52,-1476.4 1793.17,-784.193 1796.93,-657.745"/>
<polygon fill="midnightblue" stroke="midnightblue" points="1800.43,-657.691 1797.23,-647.592 1793.44,-657.485 1800.43,-657.691"/>
</g>
<!-- Node16&#45;&gt;Node10 -->
<g id="edge27" class="edge"><title>Node16&#45;&gt;Node10</title>
<path fill="none" stroke="midnightblue" d="M851.82,-1519.3C867.823,-1509.47 891.023,-1492.74 904,-1471.96 940.773,-1413.07 920.741,-1386.66 940,-1319.96 956.117,-1264.14 979.525,-1199.6 991.244,-1168.17"/>
<polygon fill="midnightblue" stroke="midnightblue" points="994.637,-1169.09 994.871,-1158.5 988.083,-1166.63 994.637,-1169.09"/>
</g>
<!-- Node17&#45;&gt;Node2 -->
<g id="edge30" class="edge"><title>Node17&#45;&gt;Node2</title>
<path fill="none" stroke="midnightblue" d="M668.952,-1564.48C683.353,-1576.18 707.98,-1596.96 727,-1616.96 744.651,-1635.52 740.381,-1649.94 763,-1661.96 855.736,-1711.22 893.493,-1680.96 998.5,-1680.96 998.5,-1680.96 998.5,-1680.96 1595,-1680.96 1619.11,-1680.96 1698.35,-1640.77 1724,-1596.96 1773.13,-1513.03 1793.71,-787.649 1797.02,-657.809"/>
<polygon fill="midnightblue" stroke="midnightblue" points="1800.52,-657.799 1797.27,-647.715 1793.52,-657.624 1800.52,-657.799"/>
</g>
<!-- Node17&#45;&gt;Node3 -->
<g id="edge32" class="edge"><title>Node17&#45;&gt;Node3</title>
<path fill="none" stroke="midnightblue" d="M659.906,-1545.22C670.567,-1509.11 707.896,-1379.37 727,-1269.96 740.144,-1194.68 712.662,-985.456 763,-927.958 775.411,-913.781 885.8,-891.529 950.946,-879.449"/>
<polygon fill="midnightblue" stroke="midnightblue" points="951.789,-882.852 960.991,-877.6 950.522,-875.968 951.789,-882.852"/>
</g>
<!-- Node17&#45;&gt;Node6 -->
<g id="edge31" class="edge"><title>Node17&#45;&gt;Node6</title>
<path fill="none" stroke="midnightblue" d="M659.948,-1545.22C670.753,-1509.14 708.52,-1379.48 727,-1269.96 741.26,-1185.45 712.695,-955.35 763,-885.958 915.388,-675.749 1266.33,-654.906 1405.3,-655.299"/>
<polygon fill="midnightblue" stroke="midnightblue" points="1405.31,-658.799 1415.33,-655.366 1405.35,-651.799 1405.31,-658.799"/>
</g>
<!-- Node17&#45;&gt;Node8 -->
<g id="edge33" class="edge"><title>Node17&#45;&gt;Node8</title>
<path fill="none" stroke="midnightblue" d="M688.265,-1564.46C735.986,-1577.38 829.324,-1596.34 904,-1572.96 922.589,-1567.14 923.329,-1558.03 940,-1547.96 991.039,-1517.11 1011.66,-1522.23 1059,-1485.96 1237.59,-1349.1 1403.85,-1128.41 1450.53,-1064.09"/>
<polygon fill="midnightblue" stroke="midnightblue" points="1453.53,-1065.92 1456.54,-1055.76 1447.85,-1061.83 1453.53,-1065.92"/>
</g>
<!-- Node17&#45;&gt;Node10 -->
<g id="edge29" class="edge"><title>Node17&#45;&gt;Node10</title>
<path fill="none" stroke="midnightblue" d="M663.497,-1545.45C678.791,-1523.58 719.101,-1468.94 763,-1433.96 818.673,-1389.59 855.446,-1410.02 904,-1357.96 957.375,-1300.73 984.492,-1208.2 994.211,-1168.29"/>
<polygon fill="midnightblue" stroke="midnightblue" points="997.63,-1169.04 996.498,-1158.51 990.814,-1167.45 997.63,-1169.04"/>
</g>
<!-- Node17&#45;&gt;Node11 -->
<g id="edge34" class="edge"><title>Node17&#45;&gt;Node11</title>
<path fill="none" stroke="midnightblue" d="M715.491,-1564.47C767.076,-1570.31 843.272,-1572.58 904,-1547.96 924.115,-1539.8 923.176,-1528.67 940,-1514.96 990.581,-1473.73 1019.77,-1481.1 1059,-1428.96 1112.59,-1357.74 1135.5,-1250.44 1143,-1206.64"/>
<polygon fill="midnightblue" stroke="midnightblue" points="1146.46,-1207.14 1144.61,-1196.71 1139.55,-1206.01 1146.46,-1207.14"/>
</g>
<!-- Node17&#45;&gt;Node12 -->
<g id="edge35" class="edge"><title>Node17&#45;&gt;Node12</title>
<path fill="none" stroke="midnightblue" d="M670.873,-1564.64C690.635,-1578.13 728.345,-1602.73 763,-1618.96 771.66,-1623.01 781.202,-1626.75 790.369,-1630.01"/>
<polygon fill="midnightblue" stroke="midnightblue" points="789.515,-1633.41 800.11,-1633.35 791.785,-1626.79 789.515,-1633.41"/>
</g>
<!-- Node18&#45;&gt;Node2 -->
<g id="edge38" class="edge"><title>Node18&#45;&gt;Node2</title>
<path fill="none" stroke="midnightblue" d="M882.557,-229.306C1019.57,-241.639 1405.98,-275.958 1463.5,-275.958 1463.5,-275.958 1463.5,-275.958 1595,-275.958 1660.88,-275.958 1684,-296.612 1724,-348.958 1788.44,-433.302 1796.81,-567.919 1797.58,-618.181"/>
<polygon fill="midnightblue" stroke="midnightblue" points="1794.08,-618.35 1797.65,-628.327 1801.08,-618.304 1794.08,-618.35"/>
</g>
<!-- Node18&#45;&gt;Node7 -->
<g id="edge39" class="edge"><title>Node18&#45;&gt;Node7</title>
<path fill="none" stroke="midnightblue" d="M874.596,-234.532C884.743,-238.069 895.238,-242.778 904,-248.958 924.93,-263.72 917.479,-281.759 940,-293.958 1020.88,-337.769 1054.01,-313.958 1146,-313.958 1146,-313.958 1146,-313.958 1306,-313.958 1390.16,-313.958 1487.01,-330.215 1543.95,-341.463"/>
<polygon fill="midnightblue" stroke="midnightblue" points="1543.26,-344.896 1553.76,-343.43 1544.64,-338.032 1543.26,-344.896"/>
</g>
<!-- Node18&#45;&gt;Node10 -->
<g id="edge37" class="edge"><title>Node18&#45;&gt;Node10</title>
<path fill="none" stroke="midnightblue" d="M838.702,-234.731C851.153,-264.176 887.978,-354.882 904,-433.958 944.371,-633.206 909.527,-688.957 940,-889.958 953.73,-980.521 981.39,-1086.53 993.084,-1129.45"/>
<polygon fill="midnightblue" stroke="midnightblue" points="989.73,-1130.46 995.755,-1139.17 996.48,-1128.6 989.73,-1130.46"/>
</g>
<!-- Node19 -->
<g id="node19" class="node"><title>Node19</title>
<g id="a_node19"><a xlink:href="a00359.html#ga69902dffb299d62a799888e0fa3ccd68" target="_top" xlink:title="Attempt to close all deferred closes (dynamics and cursors). ">
<polygon fill="white" stroke="red" points="940,-254.958 940,-284.958 1059,-284.958 1059,-254.958 940,-254.958"/>
<text text-anchor="start" x="948" y="-272.958" font-family="Helvetica,sans-Serif" font-size="10.00">tds_process_pending</text>
<text text-anchor="middle" x="999.5" y="-261.958" font-family="Helvetica,sans-Serif" font-size="10.00">_closes</text>
</a>
</g>
</g>
<!-- Node18&#45;&gt;Node19 -->
<g id="edge40" class="edge"><title>Node18&#45;&gt;Node19</title>
<path fill="none" stroke="midnightblue" d="M869.28,-234.501C888.118,-239.67 912,-246.223 934.093,-252.285"/>
<polygon fill="midnightblue" stroke="midnightblue" points="933.192,-255.667 943.762,-254.938 935.045,-248.917 933.192,-255.667"/>
</g>
<!-- Node20&#45;&gt;Node3 -->
<g id="edge43" class="edge"><title>Node20&#45;&gt;Node3</title>
<path fill="none" stroke="midnightblue" d="M686.307,-598.032C736.365,-588.021 839.198,-575.601 904,-623.958 978.946,-679.884 994.454,-803.164 997.663,-851.226"/>
<polygon fill="midnightblue" stroke="midnightblue" points="994.171,-851.472 998.222,-861.262 1001.16,-851.083 994.171,-851.472"/>
</g>
<!-- Node21&#45;&gt;Node2 -->
<g id="edge47" class="edge"><title>Node21&#45;&gt;Node2</title>
<path fill="none" stroke="midnightblue" d="M706.114,-827.177C713.97,-824.277 721.356,-820.059 727,-813.958 785.364,-750.867 703.771,-686.238 763,-623.958 837.212,-545.923 890.811,-566.958 998.5,-566.958 998.5,-566.958 998.5,-566.958 1595,-566.958 1662.37,-566.958 1735.61,-602.388 1772.81,-623.191"/>
<polygon fill="midnightblue" stroke="midnightblue" points="1771.47,-626.457 1781.88,-628.382 1774.94,-620.38 1771.47,-626.457"/>
</g>
<!-- Node21&#45;&gt;Node3 -->
<g id="edge45" class="edge"><title>Node21&#45;&gt;Node3</title>
<path fill="none" stroke="midnightblue" d="M706.287,-837.013C756.199,-841.293 835.578,-848.571 904,-856.958 919.248,-858.827 935.833,-861.176 950.792,-863.414"/>
<polygon fill="midnightblue" stroke="midnightblue" points="950.44,-866.9 960.851,-864.937 951.488,-859.979 950.44,-866.9"/>
</g>
<!-- Node21&#45;&gt;Node10 -->
<g id="edge49" class="edge"><title>Node21&#45;&gt;Node10</title>
<path fill="none" stroke="midnightblue" d="M659.709,-842.669C671.797,-885.339 722.005,-1055.63 763,-1090.96 789.272,-1113.6 879.236,-1131.11 940.05,-1140.73"/>
<polygon fill="midnightblue" stroke="midnightblue" points="939.876,-1144.24 950.294,-1142.32 940.949,-1137.33 939.876,-1144.24"/>
</g>
<!-- Node21&#45;&gt;Node11 -->
<g id="edge46" class="edge"><title>Node21&#45;&gt;Node11</title>
<path fill="none" stroke="midnightblue" d="M706.09,-828.172C801.455,-819.984 1006.97,-808.118 1059,-851.958 1108.42,-893.598 1136.21,-1101.74 1143.83,-1167.21"/>
<polygon fill="midnightblue" stroke="midnightblue" points="1140.38,-1167.85 1144.99,-1177.4 1147.34,-1167.07 1140.38,-1167.85"/>
</g>
<!-- Node21&#45;&gt;Node12 -->
<g id="edge48" class="edge"><title>Node21&#45;&gt;Node12</title>
<path fill="none" stroke="midnightblue" d="M658.893,-842.497C667.608,-886.653 704.412,-1075.69 727,-1231.96 747.222,-1371.86 711.553,-1416.3 763,-1547.96 774.932,-1578.49 799.204,-1608.07 815.663,-1625.89"/>
<polygon fill="midnightblue" stroke="midnightblue" points="813.184,-1628.36 822.603,-1633.21 818.265,-1623.55 813.184,-1628.36"/>
</g>
<!-- Node21&#45;&gt;Node15 -->
<g id="edge50" class="edge"><title>Node21&#45;&gt;Node15</title>
<path fill="none" stroke="midnightblue" d="M644.51,-842.56C630.773,-849.913 605.972,-858.219 585,-865.958 576.455,-869.111 567.498,-872.522 558.677,-875.863"/>
<polygon fill="midnightblue" stroke="midnightblue" points="557.305,-872.639 549.184,-879.444 559.775,-879.189 557.305,-872.639"/>
</g>
<!-- Node21&#45;&gt;Node22 -->
<g id="edge51" class="edge"><title>Node21&#45;&gt;Node22</title>
<path fill="none" stroke="midnightblue" d="M706.014,-827.54C713.978,-824.614 721.428,-820.293 727,-813.958 804.337,-726.032 720.414,-662.038 763,-552.958 775.535,-520.85 800.292,-489.08 816.619,-470.24"/>
<polygon fill="midnightblue" stroke="midnightblue" points="819.434,-472.342 823.454,-462.539 814.198,-467.695 819.434,-472.342"/>
</g>
<!-- Node23&#45;&gt;Node2 -->
<g id="edge57" class="edge"><title>Node23&#45;&gt;Node2</title>
<path fill="none" stroke="midnightblue" d="M669.991,-431.744C685.657,-412.663 711.775,-378.38 727,-344.958 753.454,-286.883 712.752,-245.298 763,-205.958 952.335,-57.7259 1063.54,-199.958 1304,-199.958 1304,-199.958 1304,-199.958 1595,-199.958 1782.02,-199.958 1796.85,-533.026 1797.59,-618.274"/>
<polygon fill="midnightblue" stroke="midnightblue" points="1794.09,-618.412 1797.62,-628.402 1801.09,-618.393 1794.09,-618.412"/>
</g>
<!-- Node23&#45;&gt;Node3 -->
<g id="edge56" class="edge"><title>Node23&#45;&gt;Node3</title>
<path fill="none" stroke="midnightblue" d="M692.291,-431.941C703.411,-427.181 715.73,-421.877 727,-416.958 799.392,-385.36 842.89,-350.912 904,-400.958 975.347,-459.388 993.984,-768.839 997.704,-850.946"/>
<polygon fill="midnightblue" stroke="midnightblue" points="994.225,-851.512 998.15,-861.353 1001.22,-851.213 994.225,-851.512"/>
</g>
<!-- Node23&#45;&gt;Node22 -->
<g id="edge58" class="edge"><title>Node23&#45;&gt;Node22</title>
<path fill="none" stroke="midnightblue" d="M727.119,-449.355C744.193,-449.939 762.195,-450.554 778.395,-451.108"/>
<polygon fill="midnightblue" stroke="midnightblue" points="778.638,-454.618 788.752,-451.462 778.878,-447.622 778.638,-454.618"/>
</g>
<!-- Node24&#45;&gt;Node2 -->
<g id="edge60" class="edge"><title>Node24&#45;&gt;Node2</title>
<path fill="none" stroke="midnightblue" d="M712.006,-124.698C779.496,-124.401 897.413,-123.958 998.5,-123.958 998.5,-123.958 998.5,-123.958 1595,-123.958 1666.47,-123.958 1686.49,-159.126 1724,-219.958 1766.22,-288.421 1789.88,-544.119 1795.94,-617.907"/>
<polygon fill="midnightblue" stroke="midnightblue" points="1792.47,-618.443 1796.76,-628.131 1799.44,-617.883 1792.47,-618.443"/>
</g>
<!-- Node25&#45;&gt;Node2 -->
<g id="edge62" class="edge"><title>Node25&#45;&gt;Node2</title>
<path fill="none" stroke="midnightblue" d="M852.597,-1272.53C868.921,-1282.19 892.133,-1298.7 904,-1319.96 962.157,-1424.12 853.867,-1503.41 940,-1585.96 1006.38,-1649.57 1054.06,-1604.96 1146,-1604.96 1146,-1604.96 1146,-1604.96 1595,-1604.96 1667.54,-1604.96 1689.35,-1568.69 1724,-1504.96 1765.81,-1428.06 1792.16,-779.736 1796.77,-657.716"/>
<polygon fill="midnightblue" stroke="midnightblue" points="1800.28,-657.711 1797.15,-647.588 1793.28,-657.45 1800.28,-657.711"/>
</g>
<!-- Node25&#45;&gt;Node3 -->
<g id="edge64" class="edge"><title>Node25&#45;&gt;Node3</title>
<path fill="none" stroke="midnightblue" d="M851.322,-1253.36C867.19,-1243.47 890.5,-1226.59 904,-1205.96 939.427,-1151.82 981.709,-953.846 994.588,-890.555"/>
<polygon fill="midnightblue" stroke="midnightblue" points="998.035,-891.166 996.582,-880.671 991.174,-889.781 998.035,-891.166"/>
</g>
<!-- Node25&#45;&gt;Node10 -->
<g id="edge63" class="edge"><title>Node25&#45;&gt;Node10</title>
<path fill="none" stroke="midnightblue" d="M871.531,-1253.43C882.427,-1249.78 894.077,-1245 904,-1238.96 921.226,-1228.47 960.188,-1189.05 982.329,-1166.01"/>
<polygon fill="midnightblue" stroke="midnightblue" points="985.017,-1168.26 989.395,-1158.61 979.956,-1163.42 985.017,-1168.26"/>
</g>
<!-- Node25&#45;&gt;Node11 -->
<g id="edge65" class="edge"><title>Node25&#45;&gt;Node11</title>
<path fill="none" stroke="midnightblue" d="M873.636,-1253.41C932.797,-1238.98 1044.48,-1211.73 1104.82,-1197"/>
<polygon fill="midnightblue" stroke="midnightblue" points="1105.88,-1200.35 1114.76,-1194.58 1104.22,-1193.55 1105.88,-1200.35"/>
</g>
<!-- Node26&#45;&gt;Node3 -->
<g id="edge69" class="edge"><title>Node26&#45;&gt;Node3</title>
<path fill="none" stroke="midnightblue" d="M882.566,-975.365C890.009,-972.888 897.407,-969.798 904,-965.958 938.299,-945.979 968.856,-910.431 985.424,-888.942"/>
<polygon fill="midnightblue" stroke="midnightblue" points="988.424,-890.776 991.637,-880.68 982.829,-886.568 988.424,-890.776"/>
</g>
<!-- Node26&#45;&gt;Node10 -->
<g id="edge67" class="edge"><title>Node26&#45;&gt;Node10</title>
<path fill="none" stroke="midnightblue" d="M876.395,-994.573C886.075,-998.063 895.9,-1002.74 904,-1008.96 946.862,-1041.87 976.982,-1099.94 990.496,-1129.9"/>
<polygon fill="midnightblue" stroke="midnightblue" points="987.365,-1131.47 994.577,-1139.23 993.779,-1128.67 987.365,-1131.47"/>
</g>
<!-- Node26&#45;&gt;Node11 -->
<g id="edge68" class="edge"><title>Node26&#45;&gt;Node11</title>
<path fill="none" stroke="midnightblue" d="M867.565,-994.575C913.794,-1009.16 998.825,-1040.21 1059,-1086.96 1090.01,-1111.05 1118.33,-1147.45 1133.77,-1169.05"/>
<polygon fill="midnightblue" stroke="midnightblue" points="1130.96,-1171.14 1139.57,-1177.32 1136.7,-1167.12 1130.96,-1171.14"/>
</g>
<!-- Node27&#45;&gt;Node2 -->
<g id="edge71" class="edge"><title>Node27&#45;&gt;Node2</title>
<path fill="none" stroke="midnightblue" d="M882.572,-1329.42C943.574,-1318.16 1052.16,-1300.96 1146,-1300.96 1146,-1300.96 1146,-1300.96 1595,-1300.96 1733.18,-1300.96 1786.4,-767.54 1795.89,-657.622"/>
<polygon fill="midnightblue" stroke="midnightblue" points="1799.39,-657.845 1796.74,-647.586 1792.41,-657.256 1799.39,-657.845"/>
</g>
<!-- Node27&#45;&gt;Node3 -->
<g id="edge75" class="edge"><title>Node27&#45;&gt;Node3</title>
<path fill="none" stroke="midnightblue" d="M851.851,-1329.32C867.876,-1319.5 891.091,-1302.78 904,-1281.96 906.677,-1277.64 975.811,-971.58 994.097,-890.492"/>
<polygon fill="midnightblue" stroke="midnightblue" points="997.543,-891.123 996.328,-880.598 990.714,-889.583 997.543,-891.123"/>
</g>
<!-- Node27&#45;&gt;Node10 -->
<g id="edge74" class="edge"><title>Node27&#45;&gt;Node10</title>
<path fill="none" stroke="midnightblue" d="M878.274,-1329.34C887.457,-1325.88 896.592,-1321.22 904,-1314.96 929.513,-1293.38 923.562,-1278.05 940,-1248.96 956.242,-1220.21 975.705,-1187.22 987.582,-1167.24"/>
<polygon fill="midnightblue" stroke="midnightblue" points="990.646,-1168.94 992.756,-1158.56 984.632,-1165.36 990.646,-1168.94"/>
</g>
<!-- Node27&#45;&gt;Node11 -->
<g id="edge76" class="edge"><title>Node27&#45;&gt;Node11</title>
<path fill="none" stroke="midnightblue" d="M869.385,-1329.4C880.76,-1325.63 893.227,-1320.8 904,-1314.96 921.82,-1305.3 922.505,-1297.19 940,-1286.96 989.515,-1257.99 1007.59,-1262.41 1059,-1236.96 1080.74,-1226.2 1104.56,-1212.35 1121.77,-1201.96"/>
<polygon fill="midnightblue" stroke="midnightblue" points="1123.88,-1204.78 1130.6,-1196.59 1120.24,-1198.8 1123.88,-1204.78"/>
</g>
<!-- Node27&#45;&gt;Node28 -->
<g id="edge72" class="edge"><title>Node27&#45;&gt;Node28</title>
<path fill="none" stroke="midnightblue" d="M889.566,-1338.96C909.916,-1338.96 932.757,-1338.96 952.247,-1338.96"/>
<polygon fill="midnightblue" stroke="midnightblue" points="952.397,-1342.46 962.397,-1338.96 952.397,-1335.46 952.397,-1342.46"/>
</g>
<!-- Node28&#45;&gt;Node11 -->
<g id="edge73" class="edge"><title>Node28&#45;&gt;Node11</title>
<path fill="none" stroke="midnightblue" d="M1009.6,-1329.45C1033.69,-1304.29 1099.35,-1235.69 1129.93,-1203.75"/>
<polygon fill="midnightblue" stroke="midnightblue" points="1132.52,-1206.11 1136.9,-1196.46 1127.46,-1201.27 1132.52,-1206.11"/>
</g>
<!-- Node29&#45;&gt;Node10 -->
<g id="edge78" class="edge"><title>Node29&#45;&gt;Node10</title>
<path fill="none" stroke="midnightblue" d="M719.056,-1245.93C770.039,-1240.33 843.455,-1228.85 904,-1205.96 931.26,-1195.65 959.489,-1177.47 977.91,-1164.41"/>
<polygon fill="midnightblue" stroke="midnightblue" points="980.071,-1167.17 986.119,-1158.47 975.966,-1161.5 980.071,-1167.17"/>
</g>
<!-- Node30&#45;&gt;Node2 -->
<g id="edge82" class="edge"><title>Node30&#45;&gt;Node2</title>
<path fill="none" stroke="midnightblue" d="M890.673,-636.016C952.97,-628.928 1056.5,-618.958 1146,-618.958 1146,-618.958 1146,-618.958 1595,-618.958 1648.22,-618.958 1708.97,-625.544 1749.93,-630.961"/>
<polygon fill="midnightblue" stroke="midnightblue" points="1749.53,-634.438 1759.9,-632.309 1750.46,-627.501 1749.53,-634.438"/>
</g>
<!-- Node30&#45;&gt;Node3 -->
<g id="edge81" class="edge"><title>Node30&#45;&gt;Node3</title>
<path fill="none" stroke="midnightblue" d="M879.308,-652.499C888.227,-655.948 896.991,-660.625 904,-666.958 960.917,-718.382 986.137,-811.073 994.784,-851.368"/>
<polygon fill="midnightblue" stroke="midnightblue" points="991.374,-852.163 996.796,-861.265 998.234,-850.768 991.374,-852.163"/>
</g>
<!-- Node30&#45;&gt;Node10 -->
<g id="edge80" class="edge"><title>Node30&#45;&gt;Node10</title>
<path fill="none" stroke="midnightblue" d="M837.63,-652.614C857.399,-713.61 964.999,-1045.59 992.233,-1129.62"/>
<polygon fill="midnightblue" stroke="midnightblue" points="988.925,-1130.77 995.337,-1139.2 995.584,-1128.61 988.925,-1130.77"/>
</g>
<!-- Node31&#45;&gt;Node2 -->
<g id="edge84" class="edge"><title>Node31&#45;&gt;Node2</title>
<path fill="none" stroke="midnightblue" d="M705.072,-86.7285C771.176,-86.4332 893.856,-85.9579 998.5,-85.9579 998.5,-85.9579 998.5,-85.9579 1595,-85.9579 1658.23,-85.9579 1686.14,-95.3108 1724,-145.958 1781.29,-222.606 1794.47,-535.22 1796.98,-617.848"/>
<polygon fill="midnightblue" stroke="midnightblue" points="1793.49,-618.417 1797.28,-628.314 1800.49,-618.219 1793.49,-618.417"/>
</g>
<!-- Node32&#45;&gt;Node3 -->
<g id="edge88" class="edge"><title>Node32&#45;&gt;Node3</title>
<path fill="none" stroke="midnightblue" d="M842.565,-1177.36C856.376,-1160.6 884.908,-1124.6 904,-1090.96 944.132,-1020.24 978.108,-929.146 991.905,-890.104"/>
<polygon fill="midnightblue" stroke="midnightblue" points="995.254,-891.127 995.249,-880.532 988.646,-888.818 995.254,-891.127"/>
</g>
<!-- Node32&#45;&gt;Node10 -->
<g id="edge86" class="edge"><title>Node32&#45;&gt;Node10</title>
<path fill="none" stroke="midnightblue" d="M875.884,-1177.37C897.623,-1172.33 924.457,-1166.11 947.475,-1160.78"/>
<polygon fill="midnightblue" stroke="midnightblue" points="948.462,-1164.14 957.413,-1158.48 946.881,-1157.33 948.462,-1164.14"/>
</g>
<!-- Node32&#45;&gt;Node11 -->
<g id="edge87" class="edge"><title>Node32&#45;&gt;Node11</title>
<path fill="none" stroke="midnightblue" d="M898.288,-1186.96C960.03,-1186.96 1051.81,-1186.96 1104.59,-1186.96"/>
<polygon fill="midnightblue" stroke="midnightblue" points="1104.6,-1190.46 1114.6,-1186.96 1104.6,-1183.46 1104.6,-1190.46"/>
</g>
<!-- Node33&#45;&gt;Node2 -->
<g id="edge94" class="edge"><title>Node33&#45;&gt;Node2</title>
<path fill="none" stroke="midnightblue" d="M882.572,-1462.5C943.574,-1473.75 1052.16,-1490.96 1146,-1490.96 1146,-1490.96 1146,-1490.96 1595,-1490.96 1772.12,-1490.96 1794.56,-785.956 1797.18,-657.813"/>
<polygon fill="midnightblue" stroke="midnightblue" points="1800.68,-657.601 1797.37,-647.537 1793.68,-657.471 1800.68,-657.601"/>
</g>
<!-- Node33&#45;&gt;Node3 -->
<g id="edge92" class="edge"><title>Node33&#45;&gt;Node3</title>
<path fill="none" stroke="midnightblue" d="M843.974,-1443.41C859.33,-1427.3 889.405,-1393.05 904,-1357.96 943.392,-1263.23 920.689,-1230.71 940,-1129.96 957.243,-1040 982.962,-933.651 993.612,-890.554"/>
<polygon fill="midnightblue" stroke="midnightblue" points="997.023,-891.338 996.034,-880.789 990.229,-889.652 997.023,-891.338"/>
</g>
<!-- Node33&#45;&gt;Node10 -->
<g id="edge91" class="edge"><title>Node33&#45;&gt;Node10</title>
<path fill="none" stroke="midnightblue" d="M848.831,-1443.33C864.304,-1432.29 888.775,-1412.87 904,-1390.96 930.558,-1352.74 975.704,-1218.89 992.214,-1168.42"/>
<polygon fill="midnightblue" stroke="midnightblue" points="995.602,-1169.32 995.367,-1158.72 988.945,-1167.15 995.602,-1169.32"/>
</g>
<!-- Node33&#45;&gt;Node11 -->
<g id="edge93" class="edge"><title>Node33&#45;&gt;Node11</title>
<path fill="none" stroke="midnightblue" d="M869.385,-1443.4C880.76,-1439.63 893.227,-1434.8 904,-1428.96 921.82,-1419.3 922.25,-1410.74 940,-1400.96 989.246,-1373.8 1016.85,-1395.18 1059,-1357.96 1106.53,-1315.98 1131.49,-1241.86 1141.15,-1206.62"/>
<polygon fill="midnightblue" stroke="midnightblue" points="1144.62,-1207.2 1143.76,-1196.64 1137.85,-1205.43 1144.62,-1207.2"/>
</g>
<!-- Node33&#45;&gt;Node28 -->
<g id="edge90" class="edge"><title>Node33&#45;&gt;Node28</title>
<path fill="none" stroke="midnightblue" d="M878.274,-1443.34C887.457,-1439.88 896.592,-1435.22 904,-1428.96 929.513,-1407.38 915.11,-1385.25 940,-1362.96 944.401,-1359.02 949.536,-1355.67 954.903,-1352.85"/>
<polygon fill="midnightblue" stroke="midnightblue" points="956.484,-1355.97 964.065,-1348.57 953.523,-1349.63 956.484,-1355.97"/>
</g>
<!-- Node35&#45;&gt;Node3 -->
<g id="edge98" class="edge"><title>Node35&#45;&gt;Node3</title>
<path fill="none" stroke="midnightblue" d="M853.224,-1051.91C867.828,-1039.73 888.213,-1021.74 904,-1003.96 937.834,-965.852 970.785,-915.62 987.384,-889.124"/>
<polygon fill="midnightblue" stroke="midnightblue" points="990.434,-890.846 992.731,-880.503 984.485,-887.157 990.434,-890.846"/>
</g>
<!-- Node35&#45;&gt;Node10 -->
<g id="edge97" class="edge"><title>Node35&#45;&gt;Node10</title>
<path fill="none" stroke="midnightblue" d="M871.229,-1082.04C881.894,-1086.62 893.495,-1091.81 904,-1096.96 927.884,-1108.65 954.349,-1123.37 973.182,-1134.16"/>
<polygon fill="midnightblue" stroke="midnightblue" points="971.614,-1137.3 982.025,-1139.26 975.111,-1131.24 971.614,-1137.3"/>
</g>
<!-- Node35&#45;&gt;Node11 -->
<g id="edge99" class="edge"><title>Node35&#45;&gt;Node11</title>
<path fill="none" stroke="midnightblue" d="M888.738,-1077.29C935.248,-1087.28 1003.36,-1104.65 1059,-1129.96 1083.5,-1141.1 1108.95,-1158.58 1125.95,-1171.25"/>
<polygon fill="midnightblue" stroke="midnightblue" points="1123.94,-1174.12 1134.02,-1177.38 1128.17,-1168.54 1123.94,-1174.12"/>
</g>
<!-- Node36&#45;&gt;Node3 -->
<g id="edge102" class="edge"><title>Node36&#45;&gt;Node3</title>
<path fill="none" stroke="midnightblue" d="M716.677,-803.019C767.04,-810.433 840.824,-822.732 904,-838.958 924.055,-844.109 945.986,-851.426 963.667,-857.764"/>
<polygon fill="midnightblue" stroke="midnightblue" points="962.947,-861.227 973.541,-861.359 965.342,-854.649 962.947,-861.227"/>
</g>
<!-- Node36&#45;&gt;Node10 -->
<g id="edge101" class="edge"><title>Node36&#45;&gt;Node10</title>
<path fill="none" stroke="midnightblue" d="M714.77,-804.632C719.315,-807.105 723.494,-810.168 727,-813.958 785.364,-877.049 704.579,-940.919 763,-1003.96 807.117,-1051.56 848.85,-1007.74 904,-1041.96 940.998,-1064.91 971.72,-1106.75 987.356,-1130.75"/>
<polygon fill="midnightblue" stroke="midnightblue" points="984.452,-1132.7 992.765,-1139.27 990.363,-1128.95 984.452,-1132.7"/>
</g>
<!-- Node36&#45;&gt;Node22 -->
<g id="edge103" class="edge"><title>Node36&#45;&gt;Node22</title>
<path fill="none" stroke="midnightblue" d="M660.905,-785.372C676.96,-746.075 738.197,-597.289 763,-552.958 780.009,-522.557 803.913,-489.865 818.791,-470.424"/>
<polygon fill="midnightblue" stroke="midnightblue" points="821.586,-472.532 824.935,-462.481 816.048,-468.25 821.586,-472.532"/>
</g>
<!-- Node36&#45;&gt;Node37 -->
<g id="edge104" class="edge"><title>Node36&#45;&gt;Node37</title>
<path fill="none" stroke="midnightblue" d="M707.635,-804.524C714.45,-806.986 721.112,-810.078 727,-813.958 772.13,-843.695 806.739,-899.074 822.742,-928.101"/>
<polygon fill="midnightblue" stroke="midnightblue" points="819.803,-930.025 827.614,-937.184 825.972,-926.717 819.803,-930.025"/>
</g>
<!-- Node37&#45;&gt;Node3 -->
<g id="edge107" class="edge"><title>Node37&#45;&gt;Node3</title>
<path fill="none" stroke="midnightblue" d="M865.729,-937.434C877.856,-933.411 891.749,-928.396 904,-922.958 928.598,-912.039 955.361,-896.991 974.106,-885.891"/>
<polygon fill="midnightblue" stroke="midnightblue" points="976.089,-888.783 982.871,-880.642 972.493,-882.777 976.089,-888.783"/>
</g>
<!-- Node37&#45;&gt;Node10 -->
<g id="edge105" class="edge"><title>Node37&#45;&gt;Node10</title>
<path fill="none" stroke="midnightblue" d="M887.991,-956.572C893.749,-959.025 899.236,-962.101 904,-965.958 957.648,-1009.38 984.121,-1091.37 993.898,-1129.07"/>
<polygon fill="midnightblue" stroke="midnightblue" points="990.617,-1130.39 996.408,-1139.26 997.414,-1128.71 990.617,-1130.39"/>
</g>
<!-- Node37&#45;&gt;Node11 -->
<g id="edge106" class="edge"><title>Node37&#45;&gt;Node11</title>
<path fill="none" stroke="midnightblue" d="M889.317,-952.398C938.776,-959.886 1010.94,-977.545 1059,-1018.96 1106.38,-1059.78 1131.4,-1132.81 1141.12,-1167.56"/>
<polygon fill="midnightblue" stroke="midnightblue" points="1137.79,-1168.64 1143.75,-1177.4 1144.55,-1166.84 1137.79,-1168.64"/>
</g>
<!-- Node38&#45;&gt;Node2 -->
<g id="edge112" class="edge"><title>Node38&#45;&gt;Node2</title>
<path fill="none" stroke="midnightblue" d="M1056.72,-389.958C1117.64,-389.958 1217.72,-389.958 1304,-389.958 1304,-389.958 1304,-389.958 1595,-389.958 1712.76,-389.958 1774.29,-559.788 1792.02,-618.371"/>
<polygon fill="midnightblue" stroke="midnightblue" points="1788.73,-619.62 1794.9,-628.236 1795.45,-617.656 1788.73,-619.62"/>
</g>
<!-- Node38&#45;&gt;Node11 -->
<g id="edge111" class="edge"><title>Node38&#45;&gt;Node11</title>
<path fill="none" stroke="midnightblue" d="M1002.24,-399.464C1017.01,-480.372 1121.58,-1053.22 1142.4,-1167.25"/>
<polygon fill="midnightblue" stroke="midnightblue" points="1139,-1168.12 1144.24,-1177.33 1145.89,-1166.87 1139,-1168.12"/>
</g>
<!-- Node40 -->
<g id="node40" class="node"><title>Node40</title>
<g id="a_node40"><a xlink:href="a00356.html#ga5a29ae7f99d089dc3cea85ec6ee5f3ab" target="_top" xlink:title="tds_submit_query() sends a language string to the database server for processing. ...">
<polygon fill="white" stroke="black" points="296,-232.458 296,-251.458 394,-251.458 394,-232.458 296,-232.458"/>
<text text-anchor="middle" x="345" y="-239.458" font-family="Helvetica,sans-Serif" font-size="10.00">tds_submit_query</text>
</a>
</g>
</g>
<!-- Node39&#45;&gt;Node40 -->
<g id="edge115" class="edge"><title>Node39&#45;&gt;Node40</title>
<path fill="none" stroke="midnightblue" d="M219.487,-548.154C237.55,-503.734 311.886,-320.932 336.237,-261.048"/>
<polygon fill="midnightblue" stroke="midnightblue" points="339.535,-262.229 340.06,-251.647 333.051,-259.592 339.535,-262.229"/>
</g>
<!-- Node42 -->
<g id="node42" class="node"><title>Node42</title>
<g id="a_node42"><a xlink:href="a00359.html#gabfc9de1d1fe718818caf63a4be4035a6" target="_top" xlink:title="process all streams. ">
<polygon fill="white" stroke="red" points="289,-548.458 289,-567.458 401,-567.458 401,-548.458 289,-548.458"/>
<text text-anchor="middle" x="345" y="-555.458" font-family="Helvetica,sans-Serif" font-size="10.00">tds_process_tokens</text>
</a>
</g>
</g>
<!-- Node39&#45;&gt;Node42 -->
<g id="edge118" class="edge"><title>Node39&#45;&gt;Node42</title>
<path fill="none" stroke="midnightblue" d="M253.013,-557.958C261,-557.958 269.657,-557.958 278.349,-557.958"/>
<polygon fill="midnightblue" stroke="midnightblue" points="278.53,-561.458 288.53,-557.958 278.53,-554.458 278.53,-561.458"/>
</g>
<!-- Node41 -->
<g id="node41" class="node"><title>Node41</title>
<g id="a_node41"><a xlink:href="a00356.html#ga95e0fccedc459a4404f496eec74a369a" target="_top" xlink:title="tds_submit_query_params() sends a language string to the database server for processing. ">
<polygon fill="white" stroke="red" points="1235,-228.458 1235,-247.458 1375,-247.458 1375,-228.458 1235,-228.458"/>
<text text-anchor="middle" x="1305" y="-235.458" font-family="Helvetica,sans-Serif" font-size="10.00">tds_submit_query_params</text>
</a>
</g>
</g>
<!-- Node40&#45;&gt;Node41 -->
<g id="edge116" class="edge"><title>Node40&#45;&gt;Node41</title>
<path fill="none" stroke="midnightblue" d="M346.947,-232.004C350.781,-197.797 368.408,-84.3926 437,-33.9579 515.531,23.7846 557.526,-9.95788 655,-9.95788 655,-9.95788 655,-9.95788 834.5,-9.95788 1028.39,-9.95788 1226.17,-169.247 1285.87,-221.543"/>
<polygon fill="midnightblue" stroke="midnightblue" points="1283.86,-224.436 1293.66,-228.451 1288.5,-219.198 1283.86,-224.436"/>
</g>
<!-- Node41&#45;&gt;Node7 -->
<g id="edge117" class="edge"><title>Node41&#45;&gt;Node7</title>
<path fill="none" stroke="midnightblue" d="M1354.77,-247.526C1398.81,-257.248 1464.71,-274.517 1518,-299.958 1538.13,-309.567 1558.8,-324.333 1573.33,-335.679"/>
<polygon fill="midnightblue" stroke="midnightblue" points="1571.53,-338.717 1581.52,-342.224 1575.9,-333.248 1571.53,-338.717"/>
</g>
<!-- Node42&#45;&gt;Node2 -->
<g id="edge119" class="edge"><title>Node42&#45;&gt;Node2</title>
<path fill="none" stroke="midnightblue" d="M347.805,-548.221C360.546,-479.521 436.419,-70.4922 437,-69.9579 508.682,-4.0432 557.619,-47.9579 655,-47.9579 655,-47.9579 655,-47.9579 1595,-47.9579 1656.02,-47.9579 1685.73,-47.4326 1724,-94.9579 1790.67,-177.743 1796.95,-529.757 1797.47,-617.889"/>
<polygon fill="midnightblue" stroke="midnightblue" points="1793.97,-618.13 1797.51,-628.116 1800.97,-618.102 1793.97,-618.13"/>
</g>
<!-- Node42&#45;&gt;Node3 -->
<g id="edge121" class="edge"><title>Node42&#45;&gt;Node3</title>
<path fill="none" stroke="midnightblue" d="M401.326,-549.295C492.937,-534.299 671.542,-502.109 727,-470.958 747.004,-459.721 741.863,-442.883 763,-433.958 820.731,-409.58 855.229,-394.606 904,-433.958 970.51,-487.622 992.519,-772.28 997.375,-850.854"/>
<polygon fill="midnightblue" stroke="midnightblue" points="993.906,-851.491 997.99,-861.267 1000.89,-851.077 993.906,-851.491"/>
</g>
<!-- Node42&#45;&gt;Node7 -->
<g id="edge120" class="edge"><title>Node42&#45;&gt;Node7</title>
<path fill="none" stroke="midnightblue" d="M347.469,-548.288C354.774,-501.602 388.769,-300.278 437,-263.958 489.556,-224.381 519.212,-261.625 585,-260.958 648.108,-260.318 663.953,-258.114 727,-260.958 805.907,-264.517 834.422,-239.568 904,-276.958 926.561,-289.082 917.777,-309.224 940,-321.958 1020.28,-367.957 1053.48,-351.958 1146,-351.958 1146,-351.958 1146,-351.958 1306,-351.958 1389.26,-351.958 1486.11,-351.958 1543.33,-351.958"/>
<polygon fill="midnightblue" stroke="midnightblue" points="1543.54,-355.458 1553.54,-351.958 1543.54,-348.458 1543.54,-355.458"/>
</g>
<!-- Node42&#45;&gt;Node9 -->
<g id="edge122" class="edge"><title>Node42&#45;&gt;Node9</title>
<path fill="none" stroke="midnightblue" d="M346.178,-567.465C348.135,-667.333 366.883,-1522.02 437,-1606.96 457.5,-1631.79 540.898,-1650.21 598.386,-1660.27"/>
<polygon fill="midnightblue" stroke="midnightblue" points="597.995,-1663.76 608.442,-1661.99 599.176,-1656.86 597.995,-1663.76"/>
</g>
<!-- Node42&#45;&gt;Node15 -->
<g id="edge140" class="edge"><title>Node42&#45;&gt;Node15</title>
<path fill="none" stroke="midnightblue" d="M347.917,-567.831C355.28,-604.283 384.012,-734.039 437,-827.958 445.759,-843.483 458.47,-858.804 469.466,-870.669"/>
<polygon fill="midnightblue" stroke="midnightblue" points="466.954,-873.107 476.385,-877.934 472.023,-868.279 466.954,-873.107"/>
</g>
<!-- Node42&#45;&gt;Node18 -->
<g id="edge135" class="edge"><title>Node42&#45;&gt;Node18</title>
<path fill="none" stroke="midnightblue" d="M347.634,-548.35C357.235,-492.427 406.93,-210.544 437,-186.958 548.45,-99.5408 735.569,-176.81 805.261,-210.814"/>
<polygon fill="midnightblue" stroke="midnightblue" points="803.782,-213.987 814.295,-215.303 806.897,-207.718 803.782,-213.987"/>
</g>
<!-- Node42&#45;&gt;Node20 -->
<g id="edge133" class="edge"><title>Node42&#45;&gt;Node20</title>
<path fill="none" stroke="midnightblue" d="M401.243,-566.361C463.051,-575.762 561.612,-590.753 615.918,-599.013"/>
<polygon fill="midnightblue" stroke="midnightblue" points="615.433,-602.48 625.845,-600.523 616.485,-595.559 615.433,-602.48"/>
</g>
<!-- Node42&#45;&gt;Node21 -->
<g id="edge134" class="edge"><title>Node42&#45;&gt;Node21</title>
<path fill="none" stroke="midnightblue" d="M351.699,-567.701C374.932,-606.441 466.888,-750.519 585,-813.958 589.216,-816.222 593.722,-818.233 598.34,-820.015"/>
<polygon fill="midnightblue" stroke="midnightblue" points="597.324,-823.368 607.919,-823.362 599.633,-816.759 597.324,-823.368"/>
</g>
<!-- Node42&#45;&gt;Node22 -->
<g id="edge124" class="edge"><title>Node42&#45;&gt;Node22</title>
<path fill="none" stroke="midnightblue" d="M348.135,-548.227C355.331,-517.531 381.42,-421.494 437,-365.958 488.473,-314.527 514.004,-311.901 585,-295.958 646.578,-282.13 671.302,-266.28 727,-295.958 782.419,-325.487 813.909,-398.498 826.298,-433.558"/>
<polygon fill="midnightblue" stroke="midnightblue" points="823.016,-434.778 829.535,-443.13 829.647,-432.536 823.016,-434.778"/>
</g>
<!-- Node42&#45;&gt;Node23 -->
<g id="edge130" class="edge"><title>Node42&#45;&gt;Node23</title>
<path fill="none" stroke="midnightblue" d="M353.526,-548.215C367.715,-530.637 400.314,-493.873 437,-476.958 479.878,-457.187 532.166,-449.514 574.783,-446.865"/>
<polygon fill="midnightblue" stroke="midnightblue" points="575.041,-450.357 584.837,-446.322 574.662,-443.367 575.041,-450.357"/>
</g>
<!-- Node42&#45;&gt;Node24 -->
<g id="edge123" class="edge"><title>Node42&#45;&gt;Node24</title>
<path fill="none" stroke="midnightblue" d="M347.835,-548.219C359.317,-487.505 421.291,-163.038 437,-148.958 479.486,-110.878 546.923,-109.154 595.546,-114.272"/>
<polygon fill="midnightblue" stroke="midnightblue" points="595.28,-117.764 605.621,-115.457 596.098,-110.812 595.28,-117.764"/>
</g>
<!-- Node42&#45;&gt;Node26 -->
<g id="edge126" class="edge"><title>Node42&#45;&gt;Node26</title>
<path fill="none" stroke="midnightblue" d="M347.186,-567.64C353.711,-619.426 386.781,-863.344 437,-916.958 522.329,-1008.06 681.928,-1004.95 770.052,-994.88"/>
<polygon fill="midnightblue" stroke="midnightblue" points="770.667,-998.331 780.175,-993.656 769.827,-991.381 770.667,-998.331"/>
</g>
<!-- Node42&#45;&gt;Node27 -->
<g id="edge127" class="edge"><title>Node42&#45;&gt;Node27</title>
<path fill="none" stroke="midnightblue" d="M345.948,-567.622C345.722,-643.907 347.643,-1149.07 437,-1264.96 513.469,-1364.14 676.801,-1360.7 767.83,-1349.73"/>
<polygon fill="midnightblue" stroke="midnightblue" points="768.275,-1353.2 777.755,-1348.47 767.393,-1346.25 768.275,-1353.2"/>
</g>
<!-- Node42&#45;&gt;Node29 -->
<g id="edge128" class="edge"><title>Node42&#45;&gt;Node29</title>
<path fill="none" stroke="midnightblue" d="M346.667,-567.651C350.263,-615.989 369.742,-835.161 437,-998.958 482.889,-1110.71 489.759,-1152.63 585,-1226.96 590.376,-1231.15 596.532,-1234.64 602.913,-1237.53"/>
<polygon fill="midnightblue" stroke="midnightblue" points="601.776,-1240.85 612.359,-1241.36 604.404,-1234.36 601.776,-1240.85"/>
</g>
<!-- Node42&#45;&gt;Node30 -->
<g id="edge129" class="edge"><title>Node42&#45;&gt;Node30</title>
<path fill="none" stroke="midnightblue" d="M401.034,-554.435C476.393,-551.296 615.1,-551.58 727,-585.958 757.856,-595.438 790.037,-614.344 810.618,-627.781"/>
<polygon fill="midnightblue" stroke="midnightblue" points="808.69,-630.702 818.951,-633.339 812.574,-624.878 808.69,-630.702"/>
</g>
<!-- Node42&#45;&gt;Node31 -->
<g id="edge131" class="edge"><title>Node42&#45;&gt;Node31</title>
<path fill="none" stroke="midnightblue" d="M347.786,-548.343C359.781,-483.87 428.395,-116.748 437,-108.958 480.573,-69.5136 550.961,-69.6687 599.923,-75.9911"/>
<polygon fill="midnightblue" stroke="midnightblue" points="599.636,-79.4854 610.028,-77.4219 600.618,-72.5545 599.636,-79.4854"/>
</g>
<!-- Node42&#45;&gt;Node32 -->
<g id="edge136" class="edge"><title>Node42&#45;&gt;Node32</title>
<path fill="none" stroke="midnightblue" d="M346.329,-567.883C348.876,-640.053 367.265,-1084.51 437,-1195.96 509.32,-1311.53 606.236,-1359.23 727,-1295.96 751.898,-1282.91 743.949,-1264.63 763,-1243.96 777.364,-1228.37 796.048,-1213.28 810.426,-1202.55"/>
<polygon fill="midnightblue" stroke="midnightblue" points="812.741,-1205.19 818.744,-1196.46 808.607,-1199.54 812.741,-1205.19"/>
</g>
<!-- Node42&#45;&gt;Node33 -->
<g id="edge137" class="edge"><title>Node42&#45;&gt;Node33</title>
<path fill="none" stroke="midnightblue" d="M345.728,-567.687C344.173,-633.707 339.603,-1022.2 437,-1315.96 478.602,-1441.43 470.609,-1507.7 585,-1573.96 639.612,-1605.59 672.522,-1605.82 727,-1573.96 755.171,-1557.48 742.022,-1534.96 763,-1509.96 776.457,-1493.92 794.896,-1479.04 809.4,-1468.5"/>
<polygon fill="midnightblue" stroke="midnightblue" points="811.698,-1471.17 817.843,-1462.54 807.657,-1465.45 811.698,-1471.17"/>
</g>
<!-- Node42&#45;&gt;Node34 -->
<g id="edge138" class="edge"><title>Node42&#45;&gt;Node34</title>
<path fill="none" stroke="midnightblue" d="M352.202,-548.408C365.807,-527.939 400.02,-479.023 437,-445.958 495.268,-393.859 515.953,-387.59 585,-350.958 592.141,-347.169 599.864,-343.479 607.484,-340.057"/>
<polygon fill="midnightblue" stroke="midnightblue" points="608.926,-343.246 616.68,-336.026 606.116,-336.834 608.926,-343.246"/>
</g>
<!-- Node42&#45;&gt;Node35 -->
<g id="edge139" class="edge"><title>Node42&#45;&gt;Node35</title>
<path fill="none" stroke="midnightblue" d="M346.825,-567.659C352.494,-632.968 386.942,-1008.99 437,-1110.96 479.543,-1197.62 496.482,-1231.42 585,-1269.96 642.865,-1295.15 675.48,-1306.41 727,-1269.96 766.245,-1242.19 741.185,-1210.8 763,-1167.96 777.387,-1139.7 798.562,-1110.14 813.754,-1090.35"/>
<polygon fill="midnightblue" stroke="midnightblue" points="816.684,-1092.28 820.065,-1082.24 811.16,-1087.98 816.684,-1092.28"/>
</g>
<!-- Node42&#45;&gt;Node36 -->
<g id="edge125" class="edge"><title>Node42&#45;&gt;Node36</title>
<path fill="none" stroke="midnightblue" d="M358.496,-567.542C405.857,-603.868 574.63,-733.315 634.087,-778.918"/>
<polygon fill="midnightblue" stroke="midnightblue" points="632.284,-781.946 642.349,-785.254 636.544,-776.391 632.284,-781.946"/>
</g>
<!-- Node42&#45;&gt;Node38 -->
<g id="edge132" class="edge"><title>Node42&#45;&gt;Node38</title>
<path fill="none" stroke="midnightblue" d="M346.155,-548.376C347.329,-510.246 357.102,-368.107 437,-300.958 516.551,-234.101 815.966,-269.746 904,-324.958 924.544,-337.842 920.261,-351.872 940,-365.958 945.584,-369.942 951.927,-373.411 958.326,-376.379"/>
<polygon fill="midnightblue" stroke="midnightblue" points="957.089,-379.657 967.659,-380.371 959.841,-373.221 957.089,-379.657"/>
</g>
</g>
</svg>
