<?xml version="1.0" encoding="UTF-8" standalone="no"?>
<!DOCTYPE svg PUBLIC "-//W3C//DTD SVG 1.1//EN"
 "http://www.w3.org/Graphics/SVG/1.1/DTD/svg11.dtd">
<!-- Generated by graphviz version 2.38.0 (20140413.2041)
 -->
<!-- Title: dbcmd Pages: 1 -->
<svg width="264pt" height="78pt"
 viewBox="0.00 0.00 264.00 77.93" xmlns="http://www.w3.org/2000/svg" xmlns:xlink="http://www.w3.org/1999/xlink">
<g id="graph0" class="graph" transform="scale(1 1) rotate(0) translate(4 73.926)">
<title>dbcmd</title>
<polygon fill="white" stroke="none" points="-4,4 -4,-73.926 260,-73.926 260,4 -4,4"/>
<!-- Node1 -->
<g id="node1" class="node"><title>Node1</title>
<polygon fill="#bfbfbf" stroke="black" points="0,-38.5 0,-57.5 47,-57.5 47,-38.5 0,-38.5"/>
<text text-anchor="middle" x="23.5" y="-45.5" font-family="Helvetica,sans-Serif" font-size="10.00">dbcmd</text>
</g>
<!-- Node2 -->
<g id="node2" class="node"><title>Node2</title>
<g id="a_node2"><a xlink:href="a00193.html#ab45c291105027e69836002e1dd586141" target="_top" xlink:title="Write a message to the debug log. ">
<polygon fill="white" stroke="black" points="179,-38.5 179,-57.5 256,-57.5 256,-38.5 179,-38.5"/>
<text text-anchor="middle" x="217.5" y="-45.5" font-family="Helvetica,sans-Serif" font-size="10.00">tdsdump_log</text>
</a>
</g>
</g>
<!-- Node1&#45;&gt;Node2 -->
<g id="edge1" class="edge"><title>Node1&#45;&gt;Node2</title>
<path fill="none" stroke="midnightblue" d="M47.1522,-57.1946C57.8338,-61.0505 70.8708,-65.0797 83,-67 109.339,-71.17 116.546,-70.3639 143,-67 154.211,-65.5743 166.159,-62.972 177.091,-60.1412"/>
<polygon fill="midnightblue" stroke="midnightblue" points="178.063,-63.5041 186.795,-57.5044 176.227,-56.749 178.063,-63.5041"/>
</g>
<!-- Node3 -->
<g id="node3" class="node"><title>Node3</title>
<g id="a_node3"><a xlink:href="a00341.html#ga0fcfcf6846442dac9dd5584d270ec72a" target="_top" xlink:title="Erase the command buffer, in case DBNOAUTOFREE was set with dbsetopt(). ">
<polygon fill="white" stroke="black" points="83,-38.5 83,-57.5 143,-57.5 143,-38.5 83,-38.5"/>
<text text-anchor="middle" x="113" y="-45.5" font-family="Helvetica,sans-Serif" font-size="10.00">dbfreebuf</text>
</a>
</g>
</g>
<!-- Node1&#45;&gt;Node3 -->
<g id="edge2" class="edge"><title>Node1&#45;&gt;Node3</title>
<path fill="none" stroke="midnightblue" d="M47.0334,-48C54.8947,-48 63.9618,-48 72.7807,-48"/>
<polygon fill="midnightblue" stroke="midnightblue" points="72.9322,-51.5001 82.9321,-48 72.9321,-44.5001 72.9322,-51.5001"/>
</g>
<!-- Node4 -->
<g id="node4" class="node"><title>Node4</title>
<g id="a_node4"><a xlink:href="a00347.html#ga302a4ce6559b81808e3be51615cd1b67" target="_top" xlink:title="Call client&#45;installed error handler. ">
<polygon fill="white" stroke="black" points="84.5,-0.5 84.5,-19.5 141.5,-19.5 141.5,-0.5 84.5,-0.5"/>
<text text-anchor="middle" x="113" y="-7.5" font-family="Helvetica,sans-Serif" font-size="10.00">dbperror</text>
</a>
</g>
</g>
<!-- Node1&#45;&gt;Node4 -->
<g id="edge4" class="edge"><title>Node1&#45;&gt;Node4</title>
<path fill="none" stroke="midnightblue" d="M46.5799,-38.411C56.8391,-33.9556 69.2251,-28.5765 80.4474,-23.7029"/>
<polygon fill="midnightblue" stroke="midnightblue" points="82.149,-26.7798 89.9271,-19.5859 79.3605,-20.3591 82.149,-26.7798"/>
</g>
<!-- Node3&#45;&gt;Node2 -->
<g id="edge3" class="edge"><title>Node3&#45;&gt;Node2</title>
<path fill="none" stroke="midnightblue" d="M143.098,-48C151.096,-48 159.985,-48 168.737,-48"/>
<polygon fill="midnightblue" stroke="midnightblue" points="168.888,-51.5001 178.888,-48 168.888,-44.5001 168.888,-51.5001"/>
</g>
<!-- Node4&#45;&gt;Node2 -->
<g id="edge5" class="edge"><title>Node4&#45;&gt;Node2</title>
<path fill="none" stroke="midnightblue" d="M139.865,-19.589C152.368,-24.2244 167.569,-29.8596 181.125,-34.8853"/>
<polygon fill="midnightblue" stroke="midnightblue" points="180.05,-38.2196 190.643,-38.4141 182.483,-31.6561 180.05,-38.2196"/>
</g>
</g>
</svg>
