<?xml version="1.0" encoding="UTF-8" standalone="no"?>
<!DOCTYPE svg PUBLIC "-//W3C//DTD SVG 1.1//EN"
 "http://www.w3.org/Graphics/SVG/1.1/DTD/svg11.dtd">
<!-- Generated by graphviz version 2.38.0 (20140413.2041)
 -->
<!-- Title: tds_put_data_info_length Pages: 1 -->
<svg width="583pt" height="142pt"
 viewBox="0.00 0.00 583.00 142.00" xmlns="http://www.w3.org/2000/svg" xmlns:xlink="http://www.w3.org/1999/xlink">
<g id="graph0" class="graph" transform="scale(1 1) rotate(0) translate(4 138)">
<title>tds_put_data_info_length</title>
<polygon fill="white" stroke="none" points="-4,4 -4,-138 579,-138 579,4 -4,4"/>
<!-- Node1 -->
<g id="node1" class="node"><title>Node1</title>
<polygon fill="#bfbfbf" stroke="black" points="0,-57.5 0,-76.5 137,-76.5 137,-57.5 0,-57.5"/>
<text text-anchor="middle" x="68.5" y="-64.5" font-family="Helvetica,sans-Serif" font-size="10.00">tds_put_data_info_length</text>
</g>
<!-- Node2 -->
<g id="node2" class="node"><title>Node2</title>
<g id="a_node2"><a xlink:href="a00356.html#ga28264995cf9616661f1fa788ac0d246d" target="_top" xlink:title="Send parameters to server. ">
<polygon fill="white" stroke="black" points="173,-57.5 173,-76.5 265,-76.5 265,-57.5 173,-57.5"/>
<text text-anchor="middle" x="219" y="-64.5" font-family="Helvetica,sans-Serif" font-size="10.00">tds_put_params</text>
</a>
</g>
</g>
<!-- Node1&#45;&gt;Node2 -->
<g id="edge1" class="edge"><title>Node1&#45;&gt;Node2</title>
<path fill="none" stroke="midnightblue" d="M147.456,-67C156.163,-67 164.802,-67 172.892,-67"/>
<polygon fill="midnightblue" stroke="midnightblue" points="147.232,-63.5001 137.232,-67 147.232,-70.5001 147.232,-63.5001"/>
</g>
<!-- Node3 -->
<g id="node3" class="node"><title>Node3</title>
<g id="a_node3"><a xlink:href="a00356.html#ga95e0fccedc459a4404f496eec74a369a" target="_top" xlink:title="tds_submit_query_params() sends a language string to the database server for processing. ">
<polygon fill="white" stroke="black" points="301,-114.5 301,-133.5 441,-133.5 441,-114.5 301,-114.5"/>
<text text-anchor="middle" x="371" y="-121.5" font-family="Helvetica,sans-Serif" font-size="10.00">tds_submit_query_params</text>
</a>
</g>
</g>
<!-- Node2&#45;&gt;Node3 -->
<g id="edge2" class="edge"><title>Node2&#45;&gt;Node3</title>
<path fill="none" stroke="midnightblue" d="M246.986,-81.0723C262.508,-88.806 282.537,-98.1835 301,-105 310.558,-108.529 321.072,-111.746 330.95,-114.49"/>
<polygon fill="midnightblue" stroke="midnightblue" points="248.462,-77.8963 237.958,-76.5069 245.303,-84.143 248.462,-77.8963"/>
</g>
<!-- Node5 -->
<g id="node5" class="node"><title>Node5</title>
<g id="a_node5"><a xlink:href="a00356.html#gae603aed795a4c5bb26ab159a11256996" target="_top" xlink:title="Submit a prepared query with parameters. ">
<polygon fill="white" stroke="black" points="310.5,-76.5 310.5,-95.5 431.5,-95.5 431.5,-76.5 310.5,-76.5"/>
<text text-anchor="middle" x="371" y="-83.5" font-family="Helvetica,sans-Serif" font-size="10.00">tds_submit_execdirect</text>
</a>
</g>
</g>
<!-- Node2&#45;&gt;Node5 -->
<g id="edge4" class="edge"><title>Node2&#45;&gt;Node5</title>
<path fill="none" stroke="midnightblue" d="M275.268,-74.0006C286.68,-75.4462 298.749,-76.9748 310.31,-78.4393"/>
<polygon fill="midnightblue" stroke="midnightblue" points="275.366,-70.4851 265.005,-72.7006 274.486,-77.4296 275.366,-70.4851"/>
</g>
<!-- Node6 -->
<g id="node6" class="node"><title>Node6</title>
<g id="a_node6"><a xlink:href="a00356.html#ga3e7b4793c6f799fbc6c174f673bb5b32" target="_top" xlink:title="tds_submit_execute() sends a previously prepared dynamic statement to the server. ...">
<polygon fill="white" stroke="black" points="316.5,-38.5 316.5,-57.5 425.5,-57.5 425.5,-38.5 316.5,-38.5"/>
<text text-anchor="middle" x="371" y="-45.5" font-family="Helvetica,sans-Serif" font-size="10.00">tds_submit_execute</text>
</a>
</g>
</g>
<!-- Node2&#45;&gt;Node6 -->
<g id="edge5" class="edge"><title>Node2&#45;&gt;Node6</title>
<path fill="none" stroke="midnightblue" d="M275.082,-60.023C288.535,-58.3189 302.91,-56.498 316.298,-54.8022"/>
<polygon fill="midnightblue" stroke="midnightblue" points="274.486,-56.5704 265.005,-61.2994 275.366,-63.5149 274.486,-56.5704"/>
</g>
<!-- Node7 -->
<g id="node7" class="node"><title>Node7</title>
<g id="a_node7"><a xlink:href="a00356.html#ga5f071b94ad7889690762dc85646c74ab" target="_top" xlink:title="tds_submit_rpc() call a RPC from server. ">
<polygon fill="white" stroke="black" points="327.5,-0.5 327.5,-19.5 414.5,-19.5 414.5,-0.5 327.5,-0.5"/>
<text text-anchor="middle" x="371" y="-7.5" font-family="Helvetica,sans-Serif" font-size="10.00">tds_submit_rpc</text>
</a>
</g>
</g>
<!-- Node2&#45;&gt;Node7 -->
<g id="edge6" class="edge"><title>Node2&#45;&gt;Node7</title>
<path fill="none" stroke="midnightblue" d="M246.986,-52.9277C262.508,-45.194 282.537,-35.8165 301,-29 310.558,-25.4712 321.072,-22.2536 330.95,-19.51"/>
<polygon fill="midnightblue" stroke="midnightblue" points="245.303,-49.857 237.958,-57.4931 248.462,-56.1037 245.303,-49.857"/>
</g>
<!-- Node4 -->
<g id="node4" class="node"><title>Node4</title>
<g id="a_node4"><a xlink:href="a00356.html#ga5a29ae7f99d089dc3cea85ec6ee5f3ab" target="_top" xlink:title="tds_submit_query() sends a language string to the database server for processing. ...">
<polygon fill="white" stroke="red" points="477,-114.5 477,-133.5 575,-133.5 575,-114.5 477,-114.5"/>
<text text-anchor="middle" x="526" y="-121.5" font-family="Helvetica,sans-Serif" font-size="10.00">tds_submit_query</text>
</a>
</g>
</g>
<!-- Node3&#45;&gt;Node4 -->
<g id="edge3" class="edge"><title>Node3&#45;&gt;Node4</title>
<path fill="none" stroke="midnightblue" d="M451.507,-124C460.173,-124 468.788,-124 476.905,-124"/>
<polygon fill="midnightblue" stroke="midnightblue" points="451.337,-120.5 441.337,-124 451.337,-127.5 451.337,-120.5"/>
</g>
<!-- Node8 -->
<g id="node8" class="node"><title>Node8</title>
<g id="a_node8"><a xlink:href="a00342.html#gafa4dfd181be21e49c397f7daaa9cf96c" target="_top" xlink:title="Execute the procedure and free associated memory. ">
<polygon fill="white" stroke="black" points="493,-0.5 493,-19.5 559,-19.5 559,-0.5 493,-0.5"/>
<text text-anchor="middle" x="526" y="-7.5" font-family="Helvetica,sans-Serif" font-size="10.00">dbrpcsend</text>
</a>
</g>
</g>
<!-- Node7&#45;&gt;Node8 -->
<g id="edge7" class="edge"><title>Node7&#45;&gt;Node8</title>
<path fill="none" stroke="midnightblue" d="M424.765,-10C447.389,-10 473.087,-10 492.798,-10"/>
<polygon fill="midnightblue" stroke="midnightblue" points="424.619,-6.5001 414.619,-10 424.619,-13.5001 424.619,-6.5001"/>
</g>
</g>
</svg>
