<?xml version="1.0" encoding="UTF-8" standalone="no"?>
<!DOCTYPE svg PUBLIC "-//W3C//DTD SVG 1.1//EN"
 "http://www.w3.org/Graphics/SVG/1.1/DTD/svg11.dtd">
<!-- Generated by graphviz version 2.38.0 (20140413.2041)
 -->
<!-- Title: tds7_send_execute Pages: 1 -->
<svg width="605pt" height="66pt"
 viewBox="0.00 0.00 605.00 66.00" xmlns="http://www.w3.org/2000/svg" xmlns:xlink="http://www.w3.org/1999/xlink">
<g id="graph0" class="graph" transform="scale(1 1) rotate(0) translate(4 62)">
<title>tds7_send_execute</title>
<polygon fill="white" stroke="none" points="-4,4 -4,-62 601,-62 601,4 -4,4"/>
<!-- Node1 -->
<g id="node1" class="node"><title>Node1</title>
<polygon fill="#bfbfbf" stroke="black" points="0,-19.5 0,-38.5 109,-38.5 109,-19.5 0,-19.5"/>
<text text-anchor="middle" x="54.5" y="-26.5" font-family="Helvetica,sans-Serif" font-size="10.00">tds7_send_execute</text>
</g>
<!-- Node2 -->
<g id="node2" class="node"><title>Node2</title>
<g id="a_node2"><a xlink:href="a00356.html#gafd74652c4722ddce4d642cc4209449d4" target="_top" xlink:title="Put data information to wire. ">
<polygon fill="white" stroke="black" points="145,-38.5 145,-57.5 246,-57.5 246,-38.5 145,-38.5"/>
<text text-anchor="middle" x="195.5" y="-45.5" font-family="Helvetica,sans-Serif" font-size="10.00">tds_put_data_info</text>
</a>
</g>
</g>
<!-- Node1&#45;&gt;Node2 -->
<g id="edge1" class="edge"><title>Node1&#45;&gt;Node2</title>
<path fill="none" stroke="midnightblue" d="M109.241,-36.3459C117.697,-37.5018 126.482,-38.7025 135.058,-39.8748"/>
<polygon fill="midnightblue" stroke="midnightblue" points="134.615,-43.3467 144.997,-41.2334 135.563,-36.4112 134.615,-43.3467"/>
</g>
<!-- Node6 -->
<g id="node6" class="node"><title>Node6</title>
<g id="a_node6"><a xlink:href="a00356.html#ga9fcc0a3932dcad530511395ef8a767fb" target="_top" xlink:title="Write data to wire. ">
<polygon fill="white" stroke="black" points="156.5,-0.5 156.5,-19.5 234.5,-19.5 234.5,-0.5 156.5,-0.5"/>
<text text-anchor="middle" x="195.5" y="-7.5" font-family="Helvetica,sans-Serif" font-size="10.00">tds_put_data</text>
</a>
</g>
</g>
<!-- Node1&#45;&gt;Node6 -->
<g id="edge6" class="edge"><title>Node1&#45;&gt;Node6</title>
<path fill="none" stroke="midnightblue" d="M109.241,-21.6541C121.413,-19.9903 134.266,-18.2335 146.197,-16.6026"/>
<polygon fill="midnightblue" stroke="midnightblue" points="146.97,-20.0295 156.404,-15.2073 146.022,-13.094 146.97,-20.0295"/>
</g>
<!-- Node3 -->
<g id="node3" class="node"><title>Node3</title>
<g id="a_node3"><a xlink:href="a00193.html#ab45c291105027e69836002e1dd586141" target="_top" xlink:title="Write a message to the debug log. ">
<polygon fill="white" stroke="black" points="520,-38.5 520,-57.5 597,-57.5 597,-38.5 520,-38.5"/>
<text text-anchor="middle" x="558.5" y="-45.5" font-family="Helvetica,sans-Serif" font-size="10.00">tdsdump_log</text>
</a>
</g>
</g>
<!-- Node2&#45;&gt;Node3 -->
<g id="edge2" class="edge"><title>Node2&#45;&gt;Node3</title>
<path fill="none" stroke="midnightblue" d="M246.316,-48C315.952,-48 441.518,-48 509.927,-48"/>
<polygon fill="midnightblue" stroke="midnightblue" points="509.996,-51.5001 519.996,-48 509.996,-44.5001 509.996,-51.5001"/>
</g>
<!-- Node4 -->
<g id="node4" class="node"><title>Node4</title>
<g id="a_node4"><a xlink:href="a00356.html#ga024bc5482366735070befd6f4af59f71" target="_top" xlink:title="Convert a string in an allocated buffer. ">
<polygon fill="white" stroke="black" points="282,-19.5 282,-38.5 386,-38.5 386,-19.5 282,-19.5"/>
<text text-anchor="middle" x="334" y="-26.5" font-family="Helvetica,sans-Serif" font-size="10.00">tds_convert_string</text>
</a>
</g>
</g>
<!-- Node2&#45;&gt;Node4 -->
<g id="edge3" class="edge"><title>Node2&#45;&gt;Node4</title>
<path fill="none" stroke="midnightblue" d="M246.166,-41.0868C254.494,-39.9276 263.221,-38.7128 271.799,-37.5189"/>
<polygon fill="midnightblue" stroke="midnightblue" points="272.344,-40.9768 281.766,-36.1315 271.379,-34.0436 272.344,-40.9768"/>
</g>
<!-- Node5 -->
<g id="node5" class="node"><title>Node5</title>
<g id="a_node5"><a xlink:href="a00354.html#ga87db49044919f1bc84c0ff5e9ab00304" target="_top" xlink:title="Wrapper around iconv(3). ">
<polygon fill="white" stroke="red" points="422,-19.5 422,-38.5 484,-38.5 484,-19.5 422,-19.5"/>
<text text-anchor="middle" x="453" y="-26.5" font-family="Helvetica,sans-Serif" font-size="10.00">tds_iconv</text>
</a>
</g>
</g>
<!-- Node4&#45;&gt;Node5 -->
<g id="edge4" class="edge"><title>Node4&#45;&gt;Node5</title>
<path fill="none" stroke="midnightblue" d="M386.318,-29C394.866,-29 403.621,-29 411.84,-29"/>
<polygon fill="midnightblue" stroke="midnightblue" points="411.906,-32.5001 421.906,-29 411.906,-25.5001 411.906,-32.5001"/>
</g>
<!-- Node5&#45;&gt;Node3 -->
<g id="edge5" class="edge"><title>Node5&#45;&gt;Node3</title>
<path fill="none" stroke="midnightblue" d="M484.215,-34.5467C492.191,-36.011 500.999,-37.6278 509.66,-39.2177"/>
<polygon fill="midnightblue" stroke="midnightblue" points="509.233,-42.6978 519.701,-41.061 510.497,-35.8128 509.233,-42.6978"/>
</g>
</g>
</svg>
