<?xml version="1.0" encoding="UTF-8" standalone="no"?>
<!DOCTYPE svg PUBLIC "-//W3C//DTD SVG 1.1//EN"
 "http://www.w3.org/Graphics/SVG/1.1/DTD/svg11.dtd">
<!-- Generated by graphviz version 2.38.0 (20140413.2041)
 -->
<!-- Title: src/tds/bulk.c Pages: 1 -->
<svg width="1332pt" height="252pt"
 viewBox="0.00 0.00 1331.67 252.00" xmlns="http://www.w3.org/2000/svg" xmlns:xlink="http://www.w3.org/1999/xlink">
<g id="graph0" class="graph" transform="scale(1 1) rotate(0) translate(4 248)">
<title>src/tds/bulk.c</title>
<polygon fill="white" stroke="none" points="-4,4 -4,-248 1327.67,-248 1327.67,4 -4,4"/>
<!-- Node1 -->
<g id="node1" class="node"><title>Node1</title>
<polygon fill="#bfbfbf" stroke="black" points="889.101,-224.5 889.101,-243.5 966.101,-243.5 966.101,-224.5 889.101,-224.5"/>
<text text-anchor="middle" x="927.601" y="-231.5" font-family="Helvetica,sans-Serif" font-size="10.00">src/tds/bulk.c</text>
</g>
<!-- Node2 -->
<g id="node2" class="node"><title>Node2</title>
<polygon fill="white" stroke="#bfbfbf" points="381.101,-168.5 381.101,-187.5 434.101,-187.5 434.101,-168.5 381.101,-168.5"/>
<text text-anchor="middle" x="407.601" y="-175.5" font-family="Helvetica,sans-Serif" font-size="10.00">config.h</text>
</g>
<!-- Node1&#45;&gt;Node2 -->
<g id="edge1" class="edge"><title>Node1&#45;&gt;Node2</title>
<path fill="none" stroke="midnightblue" d="M889.069,-231.412C808.33,-227.657 615.433,-216.446 444.189,-187.827"/>
<polygon fill="midnightblue" stroke="midnightblue" points="444.686,-184.361 434.242,-186.14 443.516,-191.263 444.686,-184.361"/>
</g>
<!-- Node3 -->
<g id="node3" class="node"><title>Node3</title>
<polygon fill="white" stroke="#bfbfbf" points="452.601,-168.5 452.601,-187.5 506.601,-187.5 506.601,-168.5 452.601,-168.5"/>
<text text-anchor="middle" x="479.601" y="-175.5" font-family="Helvetica,sans-Serif" font-size="10.00">assert.h</text>
</g>
<!-- Node1&#45;&gt;Node3 -->
<g id="edge2" class="edge"><title>Node1&#45;&gt;Node3</title>
<path fill="none" stroke="midnightblue" d="M889.011,-230.547C817.491,-225.62 659.41,-212.954 516.877,-187.998"/>
<polygon fill="midnightblue" stroke="midnightblue" points="517.101,-184.483 506.643,-186.18 515.876,-191.375 517.101,-184.483"/>
</g>
<!-- Node4 -->
<g id="node4" class="node"><title>Node4</title>
<g id="a_node4"><a xlink:href="a00193.html" target="_top" xlink:title="Main include file for libtds. ">
<polygon fill="white" stroke="black" points="525.101,-168.5 525.101,-187.5 600.101,-187.5 600.101,-168.5 525.101,-168.5"/>
<text text-anchor="middle" x="562.601" y="-175.5" font-family="Helvetica,sans-Serif" font-size="10.00">freetds/tds.h</text>
</a>
</g>
</g>
<!-- Node1&#45;&gt;Node4 -->
<g id="edge3" class="edge"><title>Node1&#45;&gt;Node4</title>
<path fill="none" stroke="midnightblue" d="M888.885,-227.272C821.735,-217.338 683.857,-196.939 610.684,-186.114"/>
<polygon fill="midnightblue" stroke="midnightblue" points="610.778,-182.589 600.373,-184.588 609.753,-189.514 610.778,-182.589"/>
</g>
<!-- Node12 -->
<g id="node12" class="node"><title>Node12</title>
<g id="a_node12"><a xlink:href="a00202_source.html" target="_top" xlink:title="replacements.h">
<polygon fill="white" stroke="black" points="810.101,-112.5 810.101,-131.5 899.101,-131.5 899.101,-112.5 810.101,-112.5"/>
<text text-anchor="middle" x="854.601" y="-119.5" font-family="Helvetica,sans-Serif" font-size="10.00">replacements.h</text>
</a>
</g>
</g>
<!-- Node1&#45;&gt;Node12 -->
<g id="edge37" class="edge"><title>Node1&#45;&gt;Node12</title>
<path fill="none" stroke="midnightblue" d="M921.873,-224.368C909.826,-206.215 881.679,-163.802 865.877,-139.99"/>
<polygon fill="midnightblue" stroke="midnightblue" points="868.749,-137.988 860.303,-131.591 862.916,-141.859 868.749,-137.988"/>
</g>
<!-- Node19 -->
<g id="node19" class="node"><title>Node19</title>
<g id="a_node19"><a xlink:href="a00320_source.html" target="_top" xlink:title="tds_checks.h">
<polygon fill="white" stroke="black" points="888.601,-56.5 888.601,-75.5 966.601,-75.5 966.601,-56.5 888.601,-56.5"/>
<text text-anchor="middle" x="927.601" y="-63.5" font-family="Helvetica,sans-Serif" font-size="10.00">tds_checks.h</text>
</a>
</g>
</g>
<!-- Node1&#45;&gt;Node19 -->
<g id="edge24" class="edge"><title>Node1&#45;&gt;Node19</title>
<path fill="none" stroke="midnightblue" d="M927.601,-224.075C927.601,-197.945 927.601,-121.211 927.601,-85.577"/>
<polygon fill="midnightblue" stroke="midnightblue" points="931.101,-85.5681 927.601,-75.5681 924.101,-85.5681 931.101,-85.5681"/>
</g>
<!-- Node20 -->
<g id="node20" class="node"><title>Node20</title>
<g id="a_node20"><a xlink:href="a00179_source.html" target="_top" xlink:title="freetds/bytes.h">
<polygon fill="white" stroke="black" points="955.601,-168.5 955.601,-187.5 1041.6,-187.5 1041.6,-168.5 955.601,-168.5"/>
<text text-anchor="middle" x="998.601" y="-175.5" font-family="Helvetica,sans-Serif" font-size="10.00">freetds/bytes.h</text>
</a>
</g>
</g>
<!-- Node1&#45;&gt;Node20 -->
<g id="edge27" class="edge"><title>Node1&#45;&gt;Node20</title>
<path fill="none" stroke="midnightblue" d="M939.009,-224.324C949.71,-216.185 965.942,-203.839 978.764,-194.087"/>
<polygon fill="midnightblue" stroke="midnightblue" points="981.146,-196.673 986.986,-187.834 976.908,-191.102 981.146,-196.673"/>
</g>
<!-- Node21 -->
<g id="node21" class="node"><title>Node21</title>
<g id="a_node21"><a xlink:href="a00184_source.html" target="_top" xlink:title="freetds/iconv.h">
<polygon fill="white" stroke="black" points="984.601,-56.5 984.601,-75.5 1070.6,-75.5 1070.6,-56.5 984.601,-56.5"/>
<text text-anchor="middle" x="1027.6" y="-63.5" font-family="Helvetica,sans-Serif" font-size="10.00">freetds/iconv.h</text>
</a>
</g>
</g>
<!-- Node1&#45;&gt;Node21 -->
<g id="edge28" class="edge"><title>Node1&#45;&gt;Node21</title>
<path fill="none" stroke="midnightblue" d="M966.268,-230.198C994.761,-225.871 1031.71,-215.024 1050.6,-188 1072.66,-156.436 1052.3,-109.399 1038.29,-84.2805"/>
<polygon fill="midnightblue" stroke="midnightblue" points="1041.23,-82.3819 1033.16,-75.5236 1035.19,-85.921 1041.23,-82.3819"/>
</g>
<!-- Node22 -->
<g id="node22" class="node"><title>Node22</title>
<g id="a_node22"><a xlink:href="a00190_source.html" target="_top" xlink:title="freetds/stream.h">
<polygon fill="white" stroke="black" points="1089.1,-56.5 1089.1,-75.5 1182.1,-75.5 1182.1,-56.5 1089.1,-56.5"/>
<text text-anchor="middle" x="1135.6" y="-63.5" font-family="Helvetica,sans-Serif" font-size="10.00">freetds/stream.h</text>
</a>
</g>
</g>
<!-- Node1&#45;&gt;Node22 -->
<g id="edge31" class="edge"><title>Node1&#45;&gt;Node22</title>
<path fill="none" stroke="midnightblue" d="M966.324,-228.556C996.954,-223.315 1039.3,-212.038 1068.6,-188 1102.05,-160.56 1121.6,-111.808 1130.25,-85.3353"/>
<polygon fill="midnightblue" stroke="midnightblue" points="1133.6,-86.364 1133.21,-75.7762 1126.91,-84.2924 1133.6,-86.364"/>
</g>
<!-- Node23 -->
<g id="node23" class="node"><title>Node23</title>
<g id="a_node23"><a xlink:href="a00191_source.html" target="_top" xlink:title="freetds/string.h">
<polygon fill="white" stroke="black" points="1200.1,-56.5 1200.1,-75.5 1287.1,-75.5 1287.1,-56.5 1200.1,-56.5"/>
<text text-anchor="middle" x="1243.6" y="-63.5" font-family="Helvetica,sans-Serif" font-size="10.00">freetds/string.h</text>
</a>
</g>
</g>
<!-- Node1&#45;&gt;Node23 -->
<g id="edge34" class="edge"><title>Node1&#45;&gt;Node23</title>
<path fill="none" stroke="midnightblue" d="M966.325,-226.945C1000.61,-220.538 1051.33,-208.461 1091.6,-188 1147.47,-159.617 1202.3,-108.705 1228.18,-82.9104"/>
<polygon fill="midnightblue" stroke="midnightblue" points="1230.7,-85.3348 1235.25,-75.7644 1225.73,-80.4114 1230.7,-85.3348"/>
</g>
<!-- Node5 -->
<g id="node5" class="node"><title>Node5</title>
<polygon fill="white" stroke="#bfbfbf" points="136.101,-56.5 136.101,-75.5 191.101,-75.5 191.101,-56.5 136.101,-56.5"/>
<text text-anchor="middle" x="163.601" y="-63.5" font-family="Helvetica,sans-Serif" font-size="10.00">stdarg.h</text>
</g>
<!-- Node4&#45;&gt;Node5 -->
<g id="edge4" class="edge"><title>Node4&#45;&gt;Node5</title>
<path fill="none" stroke="midnightblue" d="M524.955,-169.385C521.798,-168.87 518.649,-168.399 515.601,-168 459.603,-160.676 47.095,-173.324 8.6012,-132 -28.1913,-92.5024 69.1229,-76.1469 125.943,-70.1122"/>
<polygon fill="midnightblue" stroke="midnightblue" points="126.438,-73.5803 136.04,-69.1023 125.742,-66.615 126.438,-73.5803"/>
</g>
<!-- Node6 -->
<g id="node6" class="node"><title>Node6</title>
<polygon fill="white" stroke="#bfbfbf" points="422.101,-112.5 422.101,-131.5 469.101,-131.5 469.101,-112.5 422.101,-112.5"/>
<text text-anchor="middle" x="445.601" y="-119.5" font-family="Helvetica,sans-Serif" font-size="10.00">stdio.h</text>
</g>
<!-- Node4&#45;&gt;Node6 -->
<g id="edge5" class="edge"><title>Node4&#45;&gt;Node6</title>
<path fill="none" stroke="midnightblue" d="M544.062,-168.444C524.978,-159.636 495.026,-145.812 473.165,-135.722"/>
<polygon fill="midnightblue" stroke="midnightblue" points="474.6,-132.529 464.053,-131.516 471.666,-138.885 474.6,-132.529"/>
</g>
<!-- Node7 -->
<g id="node7" class="node"><title>Node7</title>
<g id="a_node7"><a xlink:href="a00195_source.html" target="_top" xlink:title="time.h">
<polygon fill="white" stroke="black" points="487.601,-112.5 487.601,-131.5 531.601,-131.5 531.601,-112.5 487.601,-112.5"/>
<text text-anchor="middle" x="509.601" y="-119.5" font-family="Helvetica,sans-Serif" font-size="10.00">time.h</text>
</a>
</g>
</g>
<!-- Node4&#45;&gt;Node7 -->
<g id="edge6" class="edge"><title>Node4&#45;&gt;Node7</title>
<path fill="none" stroke="midnightblue" d="M553.849,-168.083C546.131,-160.22 534.697,-148.569 525.385,-139.081"/>
<polygon fill="midnightblue" stroke="midnightblue" points="527.693,-136.436 518.19,-131.751 522.697,-141.34 527.693,-136.436"/>
</g>
<!-- Node8 -->
<g id="node8" class="node"><title>Node8</title>
<g id="a_node8"><a xlink:href="a00197_source.html" target="_top" xlink:title="freetds/version.h">
<polygon fill="white" stroke="black" points="568.101,-112.5 568.101,-131.5 663.101,-131.5 663.101,-112.5 568.101,-112.5"/>
<text text-anchor="middle" x="615.601" y="-119.5" font-family="Helvetica,sans-Serif" font-size="10.00">freetds/version.h</text>
</a>
</g>
</g>
<!-- Node4&#45;&gt;Node8 -->
<g id="edge8" class="edge"><title>Node4&#45;&gt;Node8</title>
<path fill="none" stroke="midnightblue" d="M571.353,-168.083C579.071,-160.22 590.506,-148.569 599.818,-139.081"/>
<polygon fill="midnightblue" stroke="midnightblue" points="602.505,-141.34 607.012,-131.751 597.51,-136.436 602.505,-141.34"/>
</g>
<!-- Node9 -->
<g id="node9" class="node"><title>Node9</title>
<polygon fill="white" stroke="#bfbfbf" points="681.101,-112.5 681.101,-131.5 792.101,-131.5 792.101,-112.5 681.101,-112.5"/>
<text text-anchor="middle" x="736.601" y="-119.5" font-family="Helvetica,sans-Serif" font-size="10.00">tds_sysdep_public.h</text>
</g>
<!-- Node4&#45;&gt;Node9 -->
<g id="edge9" class="edge"><title>Node4&#45;&gt;Node9</title>
<path fill="none" stroke="midnightblue" d="M590.172,-168.444C619.699,-159.28 666.719,-144.688 699.484,-134.519"/>
<polygon fill="midnightblue" stroke="midnightblue" points="700.646,-137.823 709.159,-131.516 698.571,-131.138 700.646,-137.823"/>
</g>
<!-- Node10 -->
<g id="node10" class="node"><title>Node10</title>
<g id="a_node10"><a xlink:href="a00192_source.html" target="_top" xlink:title="freetds/sysdep_private.h">
<polygon fill="white" stroke="black" points="18.1012,-112.5 18.1012,-131.5 151.101,-131.5 151.101,-112.5 18.1012,-112.5"/>
<text text-anchor="middle" x="84.6012" y="-119.5" font-family="Helvetica,sans-Serif" font-size="10.00">freetds/sysdep_private.h</text>
</a>
</g>
</g>
<!-- Node4&#45;&gt;Node10 -->
<g id="edge10" class="edge"><title>Node4&#45;&gt;Node10</title>
<path fill="none" stroke="midnightblue" d="M524.941,-169.486C521.787,-168.949 518.643,-168.445 515.601,-168 361.9,-145.535 319.947,-149.162 161.434,-132.067"/>
<polygon fill="midnightblue" stroke="midnightblue" points="161.642,-128.569 151.322,-130.965 160.884,-135.528 161.642,-128.569"/>
</g>
<!-- Node11 -->
<g id="node11" class="node"><title>Node11</title>
<g id="a_node11"><a xlink:href="a00194_source.html" target="_top" xlink:title="freetds/thread.h">
<polygon fill="white" stroke="black" points="169.601,-112.5 169.601,-131.5 261.601,-131.5 261.601,-112.5 169.601,-112.5"/>
<text text-anchor="middle" x="215.601" y="-119.5" font-family="Helvetica,sans-Serif" font-size="10.00">freetds/thread.h</text>
</a>
</g>
</g>
<!-- Node4&#45;&gt;Node11 -->
<g id="edge11" class="edge"><title>Node4&#45;&gt;Node11</title>
<path fill="none" stroke="midnightblue" d="M524.917,-169.635C521.769,-169.065 518.632,-168.513 515.601,-168 410.263,-150.184 381.05,-148.947 271.911,-132.178"/>
<polygon fill="midnightblue" stroke="midnightblue" points="272.223,-128.685 261.806,-130.617 271.154,-135.603 272.223,-128.685"/>
</g>
<!-- Node4&#45;&gt;Node12 -->
<g id="edge12" class="edge"><title>Node4&#45;&gt;Node12</title>
<path fill="none" stroke="midnightblue" d="M600.177,-170.051C650.89,-160.673 741.585,-143.9 799.873,-133.121"/>
<polygon fill="midnightblue" stroke="midnightblue" points="800.809,-136.507 810.006,-131.247 799.536,-129.624 800.809,-136.507"/>
</g>
<!-- Node15 -->
<g id="node15" class="node"><title>Node15</title>
<g id="a_node15"><a xlink:href="a00188_source.html" target="_top" xlink:title="freetds/pushvis.h">
<polygon fill="white" stroke="black" points="879.601,-0.5 879.601,-19.5 975.601,-19.5 975.601,-0.5 879.601,-0.5"/>
<text text-anchor="middle" x="927.601" y="-7.5" font-family="Helvetica,sans-Serif" font-size="10.00">freetds/pushvis.h</text>
</a>
</g>
</g>
<!-- Node4&#45;&gt;Node15 -->
<g id="edge21" class="edge"><title>Node4&#45;&gt;Node15</title>
<path fill="none" stroke="midnightblue" d="M526.267,-168.495C484.136,-158.271 419.539,-141.325 412.601,-132 382.748,-91.8765 437.88,-71.9838 473.601,-56 542.869,-25.005 762.804,-15.1981 869.045,-12.2258"/>
<polygon fill="midnightblue" stroke="midnightblue" points="869.368,-15.7185 879.271,-11.9511 869.18,-8.72098 869.368,-15.7185"/>
</g>
<!-- Node16 -->
<g id="node16" class="node"><title>Node16</title>
<g id="a_node16"><a xlink:href="a00186_source.html" target="_top" xlink:title="freetds/popvis.h">
<polygon fill="white" stroke="black" points="1089.6,-0.5 1089.6,-19.5 1181.6,-19.5 1181.6,-0.5 1089.6,-0.5"/>
<text text-anchor="middle" x="1135.6" y="-7.5" font-family="Helvetica,sans-Serif" font-size="10.00">freetds/popvis.h</text>
</a>
</g>
</g>
<!-- Node4&#45;&gt;Node16 -->
<g id="edge23" class="edge"><title>Node4&#45;&gt;Node16</title>
<path fill="none" stroke="midnightblue" d="M600.207,-174.81C745.84,-165.95 1266.99,-130.61 1314.6,-76 1352.14,-32.9475 1257.49,-18.4005 1191.98,-13.4922"/>
<polygon fill="midnightblue" stroke="midnightblue" points="1191.95,-9.9824 1181.74,-12.7843 1191.47,-16.9657 1191.95,-9.9824"/>
</g>
<!-- Node18 -->
<g id="node18" class="node"><title>Node18</title>
<g id="a_node18"><a xlink:href="a00187_source.html" target="_top" xlink:title="freetds/proto.h">
<polygon fill="white" stroke="black" points="279.601,-112.5 279.601,-131.5 365.601,-131.5 365.601,-112.5 279.601,-112.5"/>
<text text-anchor="middle" x="322.601" y="-119.5" font-family="Helvetica,sans-Serif" font-size="10.00">freetds/proto.h</text>
</a>
</g>
</g>
<!-- Node4&#45;&gt;Node18 -->
<g id="edge22" class="edge"><title>Node4&#45;&gt;Node18</title>
<path fill="none" stroke="midnightblue" d="M524.837,-168.503C483.111,-159.115 415.824,-143.975 370.441,-133.764"/>
<polygon fill="midnightblue" stroke="midnightblue" points="371.065,-130.317 360.541,-131.536 369.529,-137.146 371.065,-130.317"/>
</g>
<!-- Node7&#45;&gt;Node7 -->
<g id="edge7" class="edge"><title>Node7&#45;&gt;Node7</title>
<path fill="none" stroke="midnightblue" d="M526.869,-131.575C538.389,-134.27 549.601,-131.078 549.601,-122 549.601,-115.759 544.302,-112.3 537.246,-111.623"/>
<polygon fill="midnightblue" stroke="midnightblue" points="536.57,-108.165 526.869,-112.425 537.109,-115.144 536.57,-108.165"/>
</g>
<!-- Node12&#45;&gt;Node5 -->
<g id="edge13" class="edge"><title>Node12&#45;&gt;Node5</title>
<path fill="none" stroke="midnightblue" d="M809.859,-113.208C806.73,-112.766 803.621,-112.358 800.601,-112 574.073,-85.1823 300.194,-72.4039 201.408,-68.4209"/>
<polygon fill="midnightblue" stroke="midnightblue" points="201.449,-64.9198 191.318,-68.0203 201.171,-71.9143 201.449,-64.9198"/>
</g>
<!-- Node13 -->
<g id="node13" class="node"><title>Node13</title>
<g id="a_node13"><a xlink:href="a00210_source.html" target="_top" xlink:title="tds_sysdep_public.h">
<polygon fill="white" stroke="black" points="492.101,-56.5 492.101,-75.5 603.101,-75.5 603.101,-56.5 492.101,-56.5"/>
<text text-anchor="middle" x="547.601" y="-63.5" font-family="Helvetica,sans-Serif" font-size="10.00">tds_sysdep_public.h</text>
</a>
</g>
</g>
<!-- Node12&#45;&gt;Node13 -->
<g id="edge14" class="edge"><title>Node12&#45;&gt;Node13</title>
<path fill="none" stroke="midnightblue" d="M809.961,-113.148C756.118,-103.677 665.458,-87.7306 606.076,-77.2855"/>
<polygon fill="midnightblue" stroke="midnightblue" points="606.553,-73.8156 596.097,-75.5303 605.34,-80.7098 606.553,-73.8156"/>
</g>
<!-- Node14 -->
<g id="node14" class="node"><title>Node14</title>
<g id="a_node14"><a xlink:href="a00203_source.html" target="_top" xlink:title="replacements/readpassphrase.h">
<polygon fill="white" stroke="black" points="701.101,-56.5 701.101,-75.5 870.101,-75.5 870.101,-56.5 701.101,-56.5"/>
<text text-anchor="middle" x="785.601" y="-63.5" font-family="Helvetica,sans-Serif" font-size="10.00">replacements/readpassphrase.h</text>
</a>
</g>
</g>
<!-- Node12&#45;&gt;Node14 -->
<g id="edge15" class="edge"><title>Node12&#45;&gt;Node14</title>
<path fill="none" stroke="midnightblue" d="M843.515,-112.324C833.115,-104.185 817.341,-91.8395 804.88,-82.0874"/>
<polygon fill="midnightblue" stroke="midnightblue" points="806.921,-79.2407 796.889,-75.8339 802.607,-84.7533 806.921,-79.2407"/>
</g>
<!-- Node12&#45;&gt;Node15 -->
<g id="edge19" class="edge"><title>Node12&#45;&gt;Node15</title>
<path fill="none" stroke="midnightblue" d="M809.84,-113.354C806.716,-112.878 803.613,-112.421 800.601,-112 729.539,-102.063 434.483,-109.229 482.601,-56 508.064,-27.8324 754.396,-16.4379 869.222,-12.6291"/>
<polygon fill="midnightblue" stroke="midnightblue" points="869.368,-16.1263 879.25,-12.3047 869.142,-9.12993 869.368,-16.1263"/>
</g>
<!-- Node12&#45;&gt;Node16 -->
<g id="edge20" class="edge"><title>Node12&#45;&gt;Node16</title>
<path fill="none" stroke="midnightblue" d="M899.425,-119.773C1006.51,-116.379 1270.3,-105.119 1296.6,-76 1330.51,-38.468 1250.8,-22.2119 1191.85,-15.4653"/>
<polygon fill="midnightblue" stroke="midnightblue" points="1192.17,-11.9796 1181.85,-14.3876 1191.42,-18.9393 1192.17,-11.9796"/>
</g>
<!-- Node17 -->
<g id="node17" class="node"><title>Node17</title>
<g id="a_node17"><a xlink:href="a00178.html" target="_top" xlink:title="Provide poll call where missing. ">
<polygon fill="white" stroke="red" points="620.601,-56.5 620.601,-75.5 682.601,-75.5 682.601,-56.5 620.601,-56.5"/>
<text text-anchor="middle" x="651.601" y="-63.5" font-family="Helvetica,sans-Serif" font-size="10.00">fakepoll.h</text>
</a>
</g>
</g>
<!-- Node12&#45;&gt;Node17 -->
<g id="edge18" class="edge"><title>Node12&#45;&gt;Node17</title>
<path fill="none" stroke="midnightblue" d="M822.435,-112.444C787.234,-103.08 730.721,-88.0467 692.421,-77.8585"/>
<polygon fill="midnightblue" stroke="midnightblue" points="693.182,-74.4392 682.618,-75.2508 691.382,-81.2039 693.182,-74.4392"/>
</g>
<!-- Node14&#45;&gt;Node15 -->
<g id="edge16" class="edge"><title>Node14&#45;&gt;Node15</title>
<path fill="none" stroke="midnightblue" d="M808.102,-56.4435C831.679,-47.4776 868.924,-33.314 895.565,-23.1827"/>
<polygon fill="midnightblue" stroke="midnightblue" points="897.103,-26.3424 905.206,-19.5164 894.615,-19.7995 897.103,-26.3424"/>
</g>
<!-- Node14&#45;&gt;Node16 -->
<g id="edge17" class="edge"><title>Node14&#45;&gt;Node16</title>
<path fill="none" stroke="midnightblue" d="M841.06,-56.4435C906.196,-46.394 1013.66,-29.8145 1079.2,-19.7023"/>
<polygon fill="midnightblue" stroke="midnightblue" points="1079.99,-23.1208 1089.34,-18.1368 1078.93,-16.2026 1079.99,-23.1208"/>
</g>
<!-- Node19&#45;&gt;Node15 -->
<g id="edge25" class="edge"><title>Node19&#45;&gt;Node15</title>
<path fill="none" stroke="midnightblue" d="M927.601,-56.083C927.601,-49.0059 927.601,-38.8611 927.601,-29.9865"/>
<polygon fill="midnightblue" stroke="midnightblue" points="931.101,-29.751 927.601,-19.7511 924.101,-29.7511 931.101,-29.751"/>
</g>
<!-- Node19&#45;&gt;Node16 -->
<g id="edge26" class="edge"><title>Node19&#45;&gt;Node16</title>
<path fill="none" stroke="midnightblue" d="M960.559,-56.4435C996.388,-47.1419 1053.76,-32.246 1092.99,-22.062"/>
<polygon fill="midnightblue" stroke="midnightblue" points="1094,-25.4171 1102.8,-19.5164 1092.24,-18.6417 1094,-25.4171"/>
</g>
<!-- Node21&#45;&gt;Node15 -->
<g id="edge29" class="edge"><title>Node21&#45;&gt;Node15</title>
<path fill="none" stroke="midnightblue" d="M1011.53,-56.324C995.643,-47.7428 971.094,-34.486 952.643,-24.5224"/>
<polygon fill="midnightblue" stroke="midnightblue" points="954.09,-21.3264 943.628,-19.6545 950.764,-27.4857 954.09,-21.3264"/>
</g>
<!-- Node21&#45;&gt;Node16 -->
<g id="edge30" class="edge"><title>Node21&#45;&gt;Node16</title>
<path fill="none" stroke="midnightblue" d="M1044.95,-56.324C1062.27,-47.6641 1089.12,-34.2424 1109.1,-24.249"/>
<polygon fill="midnightblue" stroke="midnightblue" points="1110.91,-27.2572 1118.29,-19.6545 1107.78,-20.9962 1110.91,-27.2572"/>
</g>
<!-- Node22&#45;&gt;Node15 -->
<g id="edge32" class="edge"><title>Node22&#45;&gt;Node15</title>
<path fill="none" stroke="midnightblue" d="M1102.64,-56.4435C1066.81,-47.1419 1009.44,-32.246 970.211,-22.062"/>
<polygon fill="midnightblue" stroke="midnightblue" points="970.964,-18.6417 960.405,-19.5164 969.205,-25.4171 970.964,-18.6417"/>
</g>
<!-- Node22&#45;&gt;Node16 -->
<g id="edge33" class="edge"><title>Node22&#45;&gt;Node16</title>
<path fill="none" stroke="midnightblue" d="M1135.6,-56.083C1135.6,-49.0059 1135.6,-38.8611 1135.6,-29.9865"/>
<polygon fill="midnightblue" stroke="midnightblue" points="1139.1,-29.751 1135.6,-19.7511 1132.1,-29.7511 1139.1,-29.751"/>
</g>
<!-- Node23&#45;&gt;Node15 -->
<g id="edge35" class="edge"><title>Node23&#45;&gt;Node15</title>
<path fill="none" stroke="midnightblue" d="M1199.91,-57.4297C1197.1,-56.9451 1194.31,-56.4653 1191.6,-56 1120.79,-43.8364 1039.26,-29.9595 985.765,-20.8706"/>
<polygon fill="midnightblue" stroke="midnightblue" points="986.226,-17.3988 975.781,-19.1747 985.054,-24.3 986.226,-17.3988"/>
</g>
<!-- Node23&#45;&gt;Node16 -->
<g id="edge36" class="edge"><title>Node23&#45;&gt;Node16</title>
<path fill="none" stroke="midnightblue" d="M1226.25,-56.324C1208.93,-47.6641 1182.09,-34.2424 1162.1,-24.249"/>
<polygon fill="midnightblue" stroke="midnightblue" points="1163.42,-20.9962 1152.91,-19.6545 1160.29,-27.2572 1163.42,-20.9962"/>
</g>
</g>
</svg>
