<?xml version="1.0" encoding="UTF-8" standalone="no"?>
<!DOCTYPE svg PUBLIC "-//W3C//DTD SVG 1.1//EN"
 "http://www.w3.org/Graphics/SVG/1.1/DTD/svg11.dtd">
<!-- Generated by graphviz version 2.38.0 (20140413.2041)
 -->
<!-- Title: tds5_process_result Pages: 1 -->
<svg width="870pt" height="484pt"
 viewBox="0.00 0.00 870.00 483.68" xmlns="http://www.w3.org/2000/svg" xmlns:xlink="http://www.w3.org/1999/xlink">
<g id="graph0" class="graph" transform="scale(1 1) rotate(0) translate(4 479.679)">
<title>tds5_process_result</title>
<polygon fill="white" stroke="none" points="-4,4 -4,-479.679 866,-479.679 866,4 -4,4"/>
<!-- Node1 -->
<g id="node1" class="node"><title>Node1</title>
<polygon fill="#bfbfbf" stroke="black" points="0,-247.5 0,-266.5 112,-266.5 112,-247.5 0,-247.5"/>
<text text-anchor="middle" x="56" y="-254.5" font-family="Helvetica,sans-Serif" font-size="10.00">tds5_process_result</text>
</g>
<!-- Node2 -->
<g id="node2" class="node"><title>Node2</title>
<g id="a_node2"><a xlink:href="a00193.html#ab45c291105027e69836002e1dd586141" target="_top" xlink:title="Write a message to the debug log. ">
<polygon fill="white" stroke="black" points="785,-247.5 785,-266.5 862,-266.5 862,-247.5 785,-247.5"/>
<text text-anchor="middle" x="823.5" y="-254.5" font-family="Helvetica,sans-Serif" font-size="10.00">tdsdump_log</text>
</a>
</g>
</g>
<!-- Node1&#45;&gt;Node2 -->
<g id="edge1" class="edge"><title>Node1&#45;&gt;Node2</title>
<path fill="none" stroke="midnightblue" d="M58.7047,-266.804C64.6219,-297.584 87.331,-392.759 148,-435 243.867,-501.748 292.185,-466 409,-466 409,-466 409,-466 566,-466 686.34,-466 781.497,-326.033 812.097,-275.183"/>
<polygon fill="midnightblue" stroke="midnightblue" points="815.138,-276.916 817.198,-266.523 809.107,-273.363 815.138,-276.916"/>
</g>
<!-- Node3 -->
<g id="node3" class="node"><title>Node3</title>
<g id="a_node3"><a xlink:href="a00357.html#ga9ac121c269e203337a48c5bf8afc48c3" target="_top" xlink:title="Get an int32 from the server. ">
<polygon fill="white" stroke="black" points="373,-418.5 373,-437.5 447,-437.5 447,-418.5 373,-418.5"/>
<text text-anchor="middle" x="410" y="-425.5" font-family="Helvetica,sans-Serif" font-size="10.00">tds_get_uint</text>
</a>
</g>
</g>
<!-- Node1&#45;&gt;Node3 -->
<g id="edge2" class="edge"><title>Node1&#45;&gt;Node3</title>
<path fill="none" stroke="midnightblue" d="M59.6813,-266.708C67.7589,-293.902 94.6544,-370.992 148,-404 213.798,-444.712 307.338,-441.929 362.737,-435.47"/>
<polygon fill="midnightblue" stroke="midnightblue" points="363.469,-438.906 372.955,-434.186 362.597,-431.96 363.469,-438.906"/>
</g>
<!-- Node4 -->
<g id="node4" class="node"><title>Node4</title>
<g id="a_node4"><a xlink:href="a00357.html#gae7d9c4e1a079e1d0aa0252732631e8c4" target="_top" xlink:title="Get N bytes from the buffer and return them in the already allocated space given to us...">
<polygon fill="white" stroke="black" points="533,-323.5 533,-342.5 597,-342.5 597,-323.5 533,-323.5"/>
<text text-anchor="middle" x="565" y="-330.5" font-family="Helvetica,sans-Serif" font-size="10.00">tds_get_n</text>
</a>
</g>
</g>
<!-- Node1&#45;&gt;Node4 -->
<g id="edge17" class="edge"><title>Node1&#45;&gt;Node4</title>
<path fill="none" stroke="midnightblue" d="M63.3292,-266.653C76.4302,-285.635 108.613,-327.333 148,-343 276.808,-394.235 446.239,-363.045 523.028,-344.209"/>
<polygon fill="midnightblue" stroke="midnightblue" points="523.952,-347.585 532.798,-341.755 522.247,-340.796 523.952,-347.585"/>
</g>
<!-- Node6 -->
<g id="node6" class="node"><title>Node6</title>
<g id="a_node6"><a xlink:href="a00357.html#gad38aa5b9547817854ccba1fcc7855861" target="_top" xlink:title="Get an int16 from the server. ">
<polygon fill="white" stroke="black" points="178.5,-314.5 178.5,-333.5 276.5,-333.5 276.5,-314.5 178.5,-314.5"/>
<text text-anchor="middle" x="227.5" y="-321.5" font-family="Helvetica,sans-Serif" font-size="10.00">tds_get_usmallint</text>
</a>
</g>
</g>
<!-- Node1&#45;&gt;Node6 -->
<g id="edge6" class="edge"><title>Node1&#45;&gt;Node6</title>
<path fill="none" stroke="midnightblue" d="M81.2852,-266.599C110.486,-278.142 159.671,-297.584 192.602,-310.601"/>
<polygon fill="midnightblue" stroke="midnightblue" points="191.673,-313.997 202.26,-314.418 194.247,-307.487 191.673,-313.997"/>
</g>
<!-- Node7 -->
<g id="node7" class="node"><title>Node7</title>
<g id="a_node7"><a xlink:href="a00357.html#gafae08056186b143f3ef1399307dc9be7" target="_top" xlink:title="Reads a string from wire and put in a DSTR. ">
<polygon fill="white" stroke="black" points="189.5,-247.5 189.5,-266.5 265.5,-266.5 265.5,-247.5 189.5,-247.5"/>
<text text-anchor="middle" x="227.5" y="-254.5" font-family="Helvetica,sans-Serif" font-size="10.00">tds_dstr_get</text>
</a>
</g>
</g>
<!-- Node1&#45;&gt;Node7 -->
<g id="edge8" class="edge"><title>Node1&#45;&gt;Node7</title>
<path fill="none" stroke="midnightblue" d="M112.032,-257C133.698,-257 158.331,-257 179.181,-257"/>
<polygon fill="midnightblue" stroke="midnightblue" points="179.393,-260.5 189.393,-257 179.393,-253.5 179.393,-260.5"/>
</g>
<!-- Node12 -->
<g id="node12" class="node"><title>Node12</title>
<g id="a_node12"><a xlink:href="a00357.html#ga0cb72d3f6943795c39db1fa692be0a58" target="_top" xlink:title="Return a single byte from the input buffer. ">
<polygon fill="white" stroke="black" points="526.5,-171.5 526.5,-190.5 603.5,-190.5 603.5,-171.5 526.5,-171.5"/>
<text text-anchor="middle" x="565" y="-178.5" font-family="Helvetica,sans-Serif" font-size="10.00">tds_get_byte</text>
</a>
</g>
</g>
<!-- Node1&#45;&gt;Node12 -->
<g id="edge15" class="edge"><title>Node1&#45;&gt;Node12</title>
<path fill="none" stroke="midnightblue" d="M83.7388,-247.384C133.802,-229.948 245.443,-193.741 343,-181 402.297,-173.256 471.308,-174.941 516.226,-177.445"/>
<polygon fill="midnightblue" stroke="midnightblue" points="516.079,-180.942 526.268,-178.041 516.493,-173.955 516.079,-180.942"/>
</g>
<!-- Node13 -->
<g id="node13" class="node"><title>Node13</title>
<g id="a_node13"><a xlink:href="a00298.html#a7d6ccf355d1fc24711b5cd5bbc23a931" target="_top" xlink:title="Set type of column initializing all dependency. ">
<polygon fill="white" stroke="black" points="169.5,-114.5 169.5,-133.5 285.5,-133.5 285.5,-114.5 169.5,-114.5"/>
<text text-anchor="middle" x="227.5" y="-121.5" font-family="Helvetica,sans-Serif" font-size="10.00">tds_set_column_type</text>
</a>
</g>
</g>
<!-- Node1&#45;&gt;Node13 -->
<g id="edge18" class="edge"><title>Node1&#45;&gt;Node13</title>
<path fill="none" stroke="midnightblue" d="M62.4462,-247.23C74.8104,-225.945 107.126,-175.127 148,-148 154.596,-143.623 162.025,-140.015 169.615,-137.049"/>
<polygon fill="midnightblue" stroke="midnightblue" points="171.011,-140.268 179.266,-133.626 168.671,-133.67 171.011,-140.268"/>
</g>
<!-- Node16 -->
<g id="node16" class="node"><title>Node16</title>
<g id="a_node16"><a xlink:href="a00359.html#ga91770634ce8c0d6f1fe007b45da186fd" target="_top" xlink:title="Adjust column size according to client&#39;s encoding. ">
<polygon fill="white" stroke="black" points="148,-57.5 148,-76.5 307,-76.5 307,-57.5 148,-57.5"/>
<text text-anchor="middle" x="227.5" y="-64.5" font-family="Helvetica,sans-Serif" font-size="10.00">adjust_character_column_size</text>
</a>
</g>
</g>
<!-- Node1&#45;&gt;Node16 -->
<g id="edge21" class="edge"><title>Node1&#45;&gt;Node16</title>
<path fill="none" stroke="midnightblue" d="M60.5632,-247.15C70.5218,-220.835 101.031,-147.98 148,-105 159.236,-94.7184 173.761,-86.6499 187.256,-80.6426"/>
<polygon fill="midnightblue" stroke="midnightblue" points="188.967,-83.721 196.839,-76.6305 186.263,-77.264 188.967,-83.721"/>
</g>
<!-- Node18 -->
<g id="node18" class="node"><title>Node18</title>
<g id="a_node18"><a xlink:href="a00355.html#ga1224fb9277112dc2ce12531d2b73b145" target="_top" xlink:title="Allocate space for row store return NULL on out of memory. ">
<polygon fill="white" stroke="black" points="186.5,-19.5 186.5,-38.5 268.5,-38.5 268.5,-19.5 186.5,-19.5"/>
<text text-anchor="middle" x="227.5" y="-26.5" font-family="Helvetica,sans-Serif" font-size="10.00">tds_alloc_row</text>
</a>
</g>
</g>
<!-- Node1&#45;&gt;Node18 -->
<g id="edge24" class="edge"><title>Node1&#45;&gt;Node18</title>
<path fill="none" stroke="midnightblue" d="M58.1774,-247.315C62.764,-213.975 82.5542,-102.991 148,-48 156.054,-41.2326 166.129,-36.7999 176.35,-33.9147"/>
<polygon fill="midnightblue" stroke="midnightblue" points="177.208,-37.3083 186.131,-31.5969 175.594,-30.4969 177.208,-37.3083"/>
</g>
<!-- Node3&#45;&gt;Node4 -->
<g id="edge3" class="edge"><title>Node3&#45;&gt;Node4</title>
<path fill="none" stroke="midnightblue" d="M443.853,-418.486C454.751,-414.702 466.717,-409.842 477,-404 503.658,-388.856 530.396,-365.524 547.055,-349.779"/>
<polygon fill="midnightblue" stroke="midnightblue" points="549.602,-352.185 554.379,-342.728 544.747,-347.142 549.602,-352.185"/>
</g>
<!-- Node5 -->
<g id="node5" class="node"><title>Node5</title>
<g id="a_node5"><a xlink:href="a00357.html#ga410619783bdf2bb60b0f27a5578e0e07" target="_top" xlink:title="Read in one &#39;packet&#39; from the server. ">
<polygon fill="white" stroke="red" points="653,-247.5 653,-266.5 749,-266.5 749,-247.5 653,-247.5"/>
<text text-anchor="middle" x="701" y="-254.5" font-family="Helvetica,sans-Serif" font-size="10.00">tds_read_packet</text>
</a>
</g>
</g>
<!-- Node4&#45;&gt;Node5 -->
<g id="edge4" class="edge"><title>Node4&#45;&gt;Node5</title>
<path fill="none" stroke="midnightblue" d="M582.971,-323.375C606.028,-310.297 647.45,-286.804 674.322,-271.563"/>
<polygon fill="midnightblue" stroke="midnightblue" points="676.195,-274.525 683.167,-266.547 672.742,-268.436 676.195,-274.525"/>
</g>
<!-- Node5&#45;&gt;Node2 -->
<g id="edge5" class="edge"><title>Node5&#45;&gt;Node2</title>
<path fill="none" stroke="midnightblue" d="M749.279,-257C757.531,-257 766.124,-257 774.398,-257"/>
<polygon fill="midnightblue" stroke="midnightblue" points="774.659,-260.5 784.659,-257 774.658,-253.5 774.659,-260.5"/>
</g>
<!-- Node6&#45;&gt;Node4 -->
<g id="edge7" class="edge"><title>Node6&#45;&gt;Node4</title>
<path fill="none" stroke="midnightblue" d="M276.686,-325.815C297.134,-326.551 321.229,-327.373 343,-328 405.684,-329.804 478.384,-331.342 522.776,-332.219"/>
<polygon fill="midnightblue" stroke="midnightblue" points="522.821,-335.72 532.888,-332.417 522.958,-328.722 522.821,-335.72"/>
</g>
<!-- Node7&#45;&gt;Node4 -->
<g id="edge10" class="edge"><title>Node7&#45;&gt;Node4</title>
<path fill="none" stroke="midnightblue" d="M253.645,-266.559C276.632,-275.005 311.711,-287.165 343,-295 404.883,-310.496 478.092,-321.723 522.773,-327.798"/>
<polygon fill="midnightblue" stroke="midnightblue" points="522.573,-331.302 532.948,-329.159 523.501,-324.364 522.573,-331.302"/>
</g>
<!-- Node8 -->
<g id="node8" class="node"><title>Node8</title>
<g id="a_node8"><a xlink:href="a00358.html#ga6aa14b8b717b51afcfb65bd55143689d" target="_top" xlink:title="allocate space for length char ">
<polygon fill="white" stroke="black" points="368.5,-266.5 368.5,-285.5 451.5,-285.5 451.5,-266.5 368.5,-266.5"/>
<text text-anchor="middle" x="410" y="-273.5" font-family="Helvetica,sans-Serif" font-size="10.00">tds_dstr_alloc</text>
</a>
</g>
</g>
<!-- Node7&#45;&gt;Node8 -->
<g id="edge9" class="edge"><title>Node7&#45;&gt;Node8</title>
<path fill="none" stroke="midnightblue" d="M265.9,-260.937C292.595,-263.747 328.815,-267.559 358.135,-270.646"/>
<polygon fill="midnightblue" stroke="midnightblue" points="357.88,-274.138 368.192,-271.704 358.613,-267.177 357.88,-274.138"/>
</g>
<!-- Node9 -->
<g id="node9" class="node"><title>Node9</title>
<g id="a_node9"><a xlink:href="a00357.html#ga90f080e6e9448feac15dee1370d66802" target="_top" xlink:title="Fetch a string from the wire. ">
<polygon fill="white" stroke="black" points="368,-228.5 368,-247.5 452,-247.5 452,-228.5 368,-228.5"/>
<text text-anchor="middle" x="410" y="-235.5" font-family="Helvetica,sans-Serif" font-size="10.00">tds_get_string</text>
</a>
</g>
</g>
<!-- Node7&#45;&gt;Node9 -->
<g id="edge11" class="edge"><title>Node7&#45;&gt;Node9</title>
<path fill="none" stroke="midnightblue" d="M265.9,-253.063C292.502,-250.263 328.564,-246.467 357.831,-243.386"/>
<polygon fill="midnightblue" stroke="midnightblue" points="358.294,-246.857 367.872,-242.329 357.561,-239.895 358.294,-246.857"/>
</g>
<!-- Node11 -->
<g id="node11" class="node"><title>Node11</title>
<g id="a_node11"><a xlink:href="a00358.html#ga0cd7863ba7c2d2da4a193234472a3d14" target="_top" xlink:title="limit length of string, MUST be &lt;= current length ">
<polygon fill="white" stroke="black" points="365.5,-190.5 365.5,-209.5 454.5,-209.5 454.5,-190.5 365.5,-190.5"/>
<text text-anchor="middle" x="410" y="-197.5" font-family="Helvetica,sans-Serif" font-size="10.00">tds_dstr_setlen</text>
</a>
</g>
</g>
<!-- Node7&#45;&gt;Node11 -->
<g id="edge14" class="edge"><title>Node7&#45;&gt;Node11</title>
<path fill="none" stroke="midnightblue" d="M256.164,-247.473C279.292,-239.591 313.19,-228.233 343,-219 350.207,-216.768 357.883,-214.478 365.356,-212.296"/>
<polygon fill="midnightblue" stroke="midnightblue" points="366.374,-215.645 375.007,-209.503 364.428,-208.921 366.374,-215.645"/>
</g>
<!-- Node9&#45;&gt;Node4 -->
<g id="edge12" class="edge"><title>Node9&#45;&gt;Node4</title>
<path fill="none" stroke="midnightblue" d="M452.245,-246.859C460.707,-249.498 469.358,-252.833 477,-257 505.298,-272.428 532.351,-298.435 548.572,-315.66"/>
<polygon fill="midnightblue" stroke="midnightblue" points="546.277,-318.335 555.623,-323.325 551.429,-313.596 546.277,-318.335"/>
</g>
<!-- Node10 -->
<g id="node10" class="node"><title>Node10</title>
<g id="a_node10"><a xlink:href="a00357.html#ga676c4dee6522815b16fdc8e448e43590" target="_top" xlink:title="For UTF&#45;8 and similar, tds_iconv() may encounter a partial sequence when the chunk boundary is not al...">
<polygon fill="white" stroke="red" points="513,-228.5 513,-247.5 617,-247.5 617,-228.5 513,-228.5"/>
<text text-anchor="middle" x="565" y="-235.5" font-family="Helvetica,sans-Serif" font-size="10.00">read_and_convert</text>
</a>
</g>
</g>
<!-- Node9&#45;&gt;Node10 -->
<g id="edge13" class="edge"><title>Node9&#45;&gt;Node10</title>
<path fill="none" stroke="midnightblue" d="M452.001,-238C467.468,-238 485.423,-238 502.365,-238"/>
<polygon fill="midnightblue" stroke="midnightblue" points="502.752,-241.5 512.752,-238 502.752,-234.5 502.752,-241.5"/>
</g>
<!-- Node12&#45;&gt;Node5 -->
<g id="edge16" class="edge"><title>Node12&#45;&gt;Node5</title>
<path fill="none" stroke="midnightblue" d="M582.971,-190.625C606.028,-203.703 647.45,-227.196 674.322,-242.437"/>
<polygon fill="midnightblue" stroke="midnightblue" points="672.742,-245.564 683.167,-247.453 676.195,-239.475 672.742,-245.564"/>
</g>
<!-- Node14 -->
<g id="node14" class="node"><title>Node14</title>
<g id="a_node14"><a xlink:href="a00193.html#a68855f1251759a6b7338635306ab0041" target="_top" xlink:title="tds_get_varint_size() returns the size of a variable length integer returned in a TDS 7...">
<polygon fill="white" stroke="black" points="355.5,-114.5 355.5,-133.5 464.5,-133.5 464.5,-114.5 355.5,-114.5"/>
<text text-anchor="middle" x="410" y="-121.5" font-family="Helvetica,sans-Serif" font-size="10.00">tds_get_varint_size</text>
</a>
</g>
</g>
<!-- Node13&#45;&gt;Node14 -->
<g id="edge19" class="edge"><title>Node13&#45;&gt;Node14</title>
<path fill="none" stroke="midnightblue" d="M285.611,-124C304.522,-124 325.686,-124 345.075,-124"/>
<polygon fill="midnightblue" stroke="midnightblue" points="345.333,-127.5 355.333,-124 345.333,-120.5 345.333,-127.5"/>
</g>
<!-- Node15 -->
<g id="node15" class="node"><title>Node15</title>
<g id="a_node15"><a xlink:href="a00193.html#aa70b02ff34ac03040ca41f13d5fd35bd" target="_top" xlink:title="Return the number of bytes needed by specified type. ">
<polygon fill="white" stroke="black" points="350.5,-76.5 350.5,-95.5 469.5,-95.5 469.5,-76.5 350.5,-76.5"/>
<text text-anchor="middle" x="410" y="-83.5" font-family="Helvetica,sans-Serif" font-size="10.00">tds_get_size_by_type</text>
</a>
</g>
</g>
<!-- Node13&#45;&gt;Node15 -->
<g id="edge20" class="edge"><title>Node13&#45;&gt;Node15</title>
<path fill="none" stroke="midnightblue" d="M274.048,-114.411C298.296,-109.306 328.304,-102.989 353.861,-97.6082"/>
<polygon fill="midnightblue" stroke="midnightblue" points="354.715,-101.005 363.78,-95.5201 353.273,-94.1553 354.715,-101.005"/>
</g>
<!-- Node16&#45;&gt;Node2 -->
<g id="edge23" class="edge"><title>Node16&#45;&gt;Node2</title>
<path fill="none" stroke="midnightblue" d="M302.283,-57.4919C352.364,-53.335 419.648,-52.2705 477,-67 612.415,-101.778 751.668,-201.997 802.445,-241.103"/>
<polygon fill="midnightblue" stroke="midnightblue" points="800.572,-244.081 810.614,-247.459 804.871,-238.556 800.572,-244.081"/>
</g>
<!-- Node17 -->
<g id="node17" class="node"><title>Node17</title>
<g id="a_node17"><a xlink:href="a00359.html#ga87209537d51f069fee02bc224da492cb" target="_top" xlink:title="Allow for maximum possible size of converted data, while being careful about integer division truncat...">
<polygon fill="white" stroke="black" points="343,-0.5 343,-19.5 477,-19.5 477,-0.5 343,-0.5"/>
<text text-anchor="middle" x="410" y="-7.5" font-family="Helvetica,sans-Serif" font-size="10.00">determine_adjusted_size</text>
</a>
</g>
</g>
<!-- Node16&#45;&gt;Node17 -->
<g id="edge22" class="edge"><title>Node16&#45;&gt;Node17</title>
<path fill="none" stroke="midnightblue" d="M272.383,-57.4723C283.741,-54.7085 295.896,-51.4858 307,-48 323.379,-42.8582 326.932,-40.0449 343,-34 352.671,-30.3616 363.173,-26.5018 372.894,-22.9661"/>
<polygon fill="midnightblue" stroke="midnightblue" points="374.088,-26.2565 382.297,-19.5586 371.702,-19.6754 374.088,-26.2565"/>
</g>
</g>
</svg>
