<?xml version="1.0" encoding="UTF-8" standalone="no"?>
<!DOCTYPE svg PUBLIC "-//W3C//DTD SVG 1.1//EN"
 "http://www.w3.org/Graphics/SVG/1.1/DTD/svg11.dtd">
<!-- Generated by graphviz version 2.38.0 (20140413.2041)
 -->
<!-- Title: tds_process_param_result_tokens Pages: 1 -->
<svg width="905pt" height="518pt"
 viewBox="0.00 0.00 905.00 517.92" xmlns="http://www.w3.org/2000/svg" xmlns:xlink="http://www.w3.org/1999/xlink">
<g id="graph0" class="graph" transform="scale(1 1) rotate(0) translate(4 513.916)">
<title>tds_process_param_result_tokens</title>
<polygon fill="white" stroke="none" points="-4,4 -4,-513.916 901,-513.916 901,4 -4,4"/>
<!-- Node1 -->
<g id="node1" class="node"><title>Node1</title>
<polygon fill="#bfbfbf" stroke="black" points="0,-479.416 0,-509.416 142,-509.416 142,-479.416 0,-479.416"/>
<text text-anchor="start" x="8" y="-497.416" font-family="Helvetica,sans-Serif" font-size="10.00">tds_process_param_result</text>
<text text-anchor="middle" x="71" y="-486.416" font-family="Helvetica,sans-Serif" font-size="10.00">_tokens</text>
</g>
<!-- Node2 -->
<g id="node2" class="node"><title>Node2</title>
<g id="a_node2"><a xlink:href="a00359.html#ga39453d084f3f780ac4602d4abf2839f7" target="_top" xlink:title="tds_process_default_tokens() is a catch all function that is called to process tokens not known to ot...">
<polygon fill="white" stroke="black" points="178,-425.416 178,-455.416 290,-455.416 290,-425.416 178,-425.416"/>
<text text-anchor="start" x="186" y="-443.416" font-family="Helvetica,sans-Serif" font-size="10.00">tds_process_default</text>
<text text-anchor="middle" x="234" y="-432.416" font-family="Helvetica,sans-Serif" font-size="10.00">_tokens</text>
</a>
</g>
</g>
<!-- Node1&#45;&gt;Node2 -->
<g id="edge1" class="edge"><title>Node1&#45;&gt;Node2</title>
<path fill="none" stroke="midnightblue" d="M126.474,-476.146C146.529,-469.419 168.999,-461.882 188.114,-455.471"/>
<polygon fill="midnightblue" stroke="midnightblue" points="125.215,-472.876 116.847,-479.374 127.441,-479.513 125.215,-472.876"/>
</g>
<!-- Node4 -->
<g id="node4" class="node"><title>Node4</title>
<g id="a_node4"><a xlink:href="a00359.html#gabfc9de1d1fe718818caf63a4be4035a6" target="_top" xlink:title="process all streams. ">
<polygon fill="white" stroke="black" points="462,-292.916 462,-311.916 574,-311.916 574,-292.916 462,-292.916"/>
<text text-anchor="middle" x="518" y="-299.916" font-family="Helvetica,sans-Serif" font-size="10.00">tds_process_tokens</text>
</a>
</g>
</g>
<!-- Node1&#45;&gt;Node4 -->
<g id="edge23" class="edge"><title>Node1&#45;&gt;Node4</title>
<path fill="none" stroke="midnightblue" d="M152.322,-506.222C228.821,-513.186 344.127,-512.128 426,-459.416 481.892,-423.431 507.469,-340.109 514.734,-311.929"/>
<polygon fill="midnightblue" stroke="midnightblue" points="152.552,-502.728 142.259,-505.24 151.872,-509.695 152.552,-502.728"/>
</g>
<!-- Node3 -->
<g id="node3" class="node"><title>Node3</title>
<g id="a_node3"><a xlink:href="a00359.html#ga93945b42d45ee28ae1296b35a1c1e9bb" target="_top" xlink:title="tds_process_login_tokens() is called after sending the login packet to the server. ">
<polygon fill="white" stroke="black" points="757,-444.916 757,-463.916 897,-463.916 897,-444.916 757,-444.916"/>
<text text-anchor="middle" x="827" y="-451.916" font-family="Helvetica,sans-Serif" font-size="10.00">tds_process_login_tokens</text>
</a>
</g>
</g>
<!-- Node2&#45;&gt;Node3 -->
<g id="edge2" class="edge"><title>Node2&#45;&gt;Node3</title>
<path fill="none" stroke="midnightblue" d="M296.887,-458.059C389.593,-482.006 569.795,-518.936 721,-492.416 751.743,-487.024 785.347,-473.385 806.054,-464.004"/>
<polygon fill="midnightblue" stroke="midnightblue" points="297.668,-454.646 287.107,-455.497 295.893,-461.417 297.668,-454.646"/>
</g>
<!-- Node2&#45;&gt;Node4 -->
<g id="edge3" class="edge"><title>Node2&#45;&gt;Node4</title>
<path fill="none" stroke="midnightblue" d="M274.708,-420.985C335.981,-391 451.307,-334.564 497.317,-312.048"/>
<polygon fill="midnightblue" stroke="midnightblue" points="273.159,-417.846 265.716,-425.385 276.236,-424.133 273.159,-417.846"/>
</g>
<!-- Node18 -->
<g id="node18" class="node"><title>Node18</title>
<g id="a_node18"><a xlink:href="a00359.html#ga81cdf0ed9e8d29cf1ddf66e18efc407d" target="_top" xlink:title="tds_process_msg() is called for MSG, ERR, or EED tokens and is responsible for calling the CLI&#39;s mess...">
<polygon fill="white" stroke="black" points="326,-430.916 326,-449.916 426,-449.916 426,-430.916 326,-430.916"/>
<text text-anchor="middle" x="376" y="-437.916" font-family="Helvetica,sans-Serif" font-size="10.00">tds_process_msg</text>
</a>
</g>
</g>
<!-- Node2&#45;&gt;Node18 -->
<g id="edge20" class="edge"><title>Node2&#45;&gt;Node18</title>
<path fill="none" stroke="midnightblue" d="M300.369,-433.679C308.983,-433.63 317.69,-433.718 325.967,-433.943"/>
<polygon fill="midnightblue" stroke="midnightblue" points="300.289,-430.18 290.332,-433.8 300.373,-437.18 300.289,-430.18"/>
</g>
<!-- Node5 -->
<g id="node5" class="node"><title>Node5</title>
<g id="a_node5"><a xlink:href="a00344.html#gae67546338cb9542a4902aa914f57f314" target="_top" xlink:title="_bcp_exec_out">
<polygon fill="white" stroke="red" points="621.5,-349.916 621.5,-368.916 709.5,-368.916 709.5,-349.916 621.5,-349.916"/>
<text text-anchor="middle" x="665.5" y="-356.916" font-family="Helvetica,sans-Serif" font-size="10.00">_bcp_exec_out</text>
</a>
</g>
</g>
<!-- Node4&#45;&gt;Node5 -->
<g id="edge4" class="edge"><title>Node4&#45;&gt;Node5</title>
<path fill="none" stroke="midnightblue" d="M550.585,-316.155C568.006,-323.594 590.084,-332.794 610,-340.416 618.423,-343.64 627.659,-346.945 636.096,-349.876"/>
<polygon fill="midnightblue" stroke="midnightblue" points="551.487,-312.733 540.917,-312.004 548.725,-319.165 551.487,-312.733"/>
</g>
<!-- Node6 -->
<g id="node6" class="node"><title>Node6</title>
<g id="a_node6"><a xlink:href="a00341.html#gaf1879b85e8238c015b9648d077665285" target="_top" xlink:title="_dbresults">
<polygon fill="white" stroke="red" points="633,-311.916 633,-330.916 698,-330.916 698,-311.916 633,-311.916"/>
<text text-anchor="middle" x="665.5" y="-318.916" font-family="Helvetica,sans-Serif" font-size="10.00">_dbresults</text>
</a>
</g>
</g>
<!-- Node4&#45;&gt;Node6 -->
<g id="edge5" class="edge"><title>Node4&#45;&gt;Node6</title>
<path fill="none" stroke="midnightblue" d="M584.348,-310.95C601.118,-313.14 618.418,-315.399 632.634,-317.255"/>
<polygon fill="midnightblue" stroke="midnightblue" points="584.376,-307.424 574.007,-309.599 583.47,-314.365 584.376,-307.424"/>
</g>
<!-- Node7 -->
<g id="node7" class="node"><title>Node7</title>
<g id="a_node7"><a xlink:href="a00342.html#gaff09873008411a0573f6d1a9e6c7cf4b" target="_top" xlink:title="Get count of output parameters filled by a stored procedure. ">
<polygon fill="white" stroke="red" points="633,-273.916 633,-292.916 698,-292.916 698,-273.916 633,-273.916"/>
<text text-anchor="middle" x="665.5" y="-280.916" font-family="Helvetica,sans-Serif" font-size="10.00">dbnumrets</text>
</a>
</g>
</g>
<!-- Node4&#45;&gt;Node7 -->
<g id="edge6" class="edge"><title>Node4&#45;&gt;Node7</title>
<path fill="none" stroke="midnightblue" d="M584.348,-293.883C601.118,-291.693 618.418,-289.434 632.634,-287.577"/>
<polygon fill="midnightblue" stroke="midnightblue" points="583.47,-290.468 574.007,-295.233 584.376,-297.409 583.47,-290.468"/>
</g>
<!-- Node8 -->
<g id="node8" class="node"><title>Node8</title>
<g id="a_node8"><a xlink:href="a00341.html#gae1f50a6a2c31fda57cb481922b06841e" target="_top" xlink:title="Wait for results of a query from the server. ">
<polygon fill="white" stroke="red" points="639,-235.916 639,-254.916 692,-254.916 692,-235.916 639,-235.916"/>
<text text-anchor="middle" x="665.5" y="-242.916" font-family="Helvetica,sans-Serif" font-size="10.00">dbsqlok</text>
</a>
</g>
</g>
<!-- Node4&#45;&gt;Node8 -->
<g id="edge7" class="edge"><title>Node4&#45;&gt;Node8</title>
<path fill="none" stroke="midnightblue" d="M550.585,-288.678C568.006,-281.239 590.084,-272.038 610,-264.416 619.358,-260.835 629.722,-257.152 638.877,-253.994"/>
<polygon fill="midnightblue" stroke="midnightblue" points="548.725,-285.667 540.917,-292.829 551.487,-292.099 548.725,-285.667"/>
</g>
<!-- Node9 -->
<g id="node9" class="node"><title>Node9</title>
<g id="a_node9"><a xlink:href="a00341.html#ga548153eb2eae76c48aa9d4b72258dc1c" target="_top" xlink:title="Send text or image data to the server. ">
<polygon fill="white" stroke="black" points="793,-216.916 793,-235.916 861,-235.916 861,-216.916 793,-216.916"/>
<text text-anchor="middle" x="827" y="-223.916" font-family="Helvetica,sans-Serif" font-size="10.00">dbwritetext</text>
</a>
</g>
</g>
<!-- Node4&#45;&gt;Node9 -->
<g id="edge10" class="edge"><title>Node4&#45;&gt;Node9</title>
<path fill="none" stroke="midnightblue" d="M533.031,-285.037C549.279,-266.437 577.949,-238.04 610,-226.416 671.517,-204.106 749.53,-212.211 792.967,-219.633"/>
<polygon fill="midnightblue" stroke="midnightblue" points="530.254,-282.901 526.473,-292.798 535.6,-287.419 530.254,-282.901"/>
</g>
<!-- Node10 -->
<g id="node10" class="node"><title>Node10</title>
<g id="a_node10"><a xlink:href="a00341.html#ga559e24ba70d0d96c3469eb6ab8f74e05" target="_top" xlink:title="Cancel the query currently being retrieved, discarding all pending rows. ">
<polygon fill="white" stroke="red" points="630,-159.916 630,-178.916 701,-178.916 701,-159.916 630,-159.916"/>
<text text-anchor="middle" x="665.5" y="-166.916" font-family="Helvetica,sans-Serif" font-size="10.00">dbcanquery</text>
</a>
</g>
</g>
<!-- Node4&#45;&gt;Node10 -->
<g id="edge9" class="edge"><title>Node4&#45;&gt;Node10</title>
<path fill="none" stroke="midnightblue" d="M530.472,-283.977C545.994,-260.303 575.719,-219.207 610,-193.416 617.849,-187.512 627.377,-182.684 636.258,-178.948"/>
<polygon fill="midnightblue" stroke="midnightblue" points="527.34,-282.377 524.89,-292.685 533.233,-286.155 527.34,-282.377"/>
</g>
<!-- Node11 -->
<g id="node11" class="node"><title>Node11</title>
<g id="a_node11"><a xlink:href="a00341.html#gadd5685565c8c6c86079e17b8a73b324c" target="_top" xlink:title="Fetch part of a text or image value from the server. ">
<polygon fill="white" stroke="black" points="632,-121.916 632,-140.916 699,-140.916 699,-121.916 632,-121.916"/>
<text text-anchor="middle" x="665.5" y="-128.916" font-family="Helvetica,sans-Serif" font-size="10.00">dbreadtext</text>
</a>
</g>
</g>
<!-- Node4&#45;&gt;Node11 -->
<g id="edge11" class="edge"><title>Node4&#45;&gt;Node11</title>
<path fill="none" stroke="midnightblue" d="M525.573,-283.092C537.44,-251.012 565.431,-186.709 610,-150.416 616.294,-145.291 624.061,-141.507 631.739,-138.729"/>
<polygon fill="midnightblue" stroke="midnightblue" points="522.227,-282.055 522.166,-292.649 528.821,-284.405 522.227,-282.055"/>
</g>
<!-- Node12 -->
<g id="node12" class="node"><title>Node12</title>
<g id="a_node12"><a xlink:href="a00341.html#gac980139b9cea03cf93e373d425991481" target="_top" xlink:title="Transmit the command buffer to the server. ">
<polygon fill="white" stroke="red" points="633,-83.9163 633,-102.916 698,-102.916 698,-83.9163 633,-83.9163"/>
<text text-anchor="middle" x="665.5" y="-90.9163" font-family="Helvetica,sans-Serif" font-size="10.00">dbsqlsend</text>
</a>
</g>
</g>
<!-- Node4&#45;&gt;Node12 -->
<g id="edge12" class="edge"><title>Node4&#45;&gt;Node12</title>
<path fill="none" stroke="midnightblue" d="M523.141,-282.624C532.161,-244.324 557.154,-159.689 610,-112.416 616.423,-106.671 624.681,-102.641 632.816,-99.8235"/>
<polygon fill="midnightblue" stroke="midnightblue" points="519.692,-282.009 520.925,-292.532 526.523,-283.536 519.692,-282.009"/>
</g>
<!-- Node13 -->
<g id="node13" class="node"><title>Node13</title>
<g id="a_node13"><a xlink:href="a00356.html#gaf0da49585d39e99780a004ee2ca23479" target="_top" xlink:title="Send option commands to server. ">
<polygon fill="white" stroke="black" points="766.5,-17.9163 766.5,-36.9163 887.5,-36.9163 887.5,-17.9163 766.5,-17.9163"/>
<text text-anchor="middle" x="827" y="-24.9163" font-family="Helvetica,sans-Serif" font-size="10.00">tds_submit_optioncmd</text>
</a>
</g>
</g>
<!-- Node4&#45;&gt;Node13 -->
<g id="edge13" class="edge"><title>Node4&#45;&gt;Node13</title>
<path fill="none" stroke="midnightblue" d="M518.373,-282.763C517.9,-230.2 524.767,-86.1992 610,-24.4163 666.783,16.7441 755.864,-3.82903 799.759,-17.9094"/>
<polygon fill="midnightblue" stroke="midnightblue" points="514.874,-282.857 518.567,-292.787 521.872,-282.721 514.874,-282.857"/>
</g>
<!-- Node14 -->
<g id="node14" class="node"><title>Node14</title>
<g id="a_node14"><a xlink:href="a00193.html#ac6610c72bd31bad5378f760fa9b12d66" target="_top" xlink:title="Initialize BCP information. ">
<polygon fill="white" stroke="red" points="629,-463.916 629,-482.916 702,-482.916 702,-463.916 629,-463.916"/>
<text text-anchor="middle" x="665.5" y="-470.916" font-family="Helvetica,sans-Serif" font-size="10.00">tds_bcp_init</text>
</a>
</g>
</g>
<!-- Node4&#45;&gt;Node14 -->
<g id="edge14" class="edge"><title>Node4&#45;&gt;Node14</title>
<path fill="none" stroke="midnightblue" d="M525.573,-321.74C537.44,-353.821 565.431,-418.124 610,-454.416 615.517,-458.909 622.166,-462.37 628.894,-465.028"/>
<polygon fill="midnightblue" stroke="midnightblue" points="528.821,-320.427 522.166,-312.183 522.227,-322.778 528.821,-320.427"/>
</g>
<!-- Node15 -->
<g id="node15" class="node"><title>Node15</title>
<g id="a_node15"><a xlink:href="a00359.html#ga55f27c3e05d42c9b07ace1c74b11c5ab" target="_top" xlink:title="Retrieve and set @spid. ">
<polygon fill="white" stroke="black" points="627,-387.916 627,-406.916 704,-406.916 704,-387.916 627,-387.916"/>
<text text-anchor="middle" x="665.5" y="-394.916" font-family="Helvetica,sans-Serif" font-size="10.00">tds_set_spid</text>
</a>
</g>
</g>
<!-- Node4&#45;&gt;Node15 -->
<g id="edge15" class="edge"><title>Node4&#45;&gt;Node15</title>
<path fill="none" stroke="midnightblue" d="M535.288,-319.202C552.504,-336.133 581.116,-362.045 610,-378.416 616.538,-382.122 623.923,-385.287 631.097,-387.91"/>
<polygon fill="midnightblue" stroke="midnightblue" points="537.762,-316.726 528.22,-312.121 532.808,-321.671 537.762,-316.726"/>
</g>
<!-- Node16 -->
<g id="node16" class="node"><title>Node16</title>
<g id="a_node16"><a xlink:href="a00359.html#gaeeb1562044786ea17bea361ed83e6946" target="_top" xlink:title="Process results for simple query as &quot;SET TEXTSIZE&quot; or &quot;USE dbname&quot; If the statement returns results...">
<polygon fill="white" stroke="red" points="610.5,-34.4163 610.5,-64.4163 720.5,-64.4163 720.5,-34.4163 610.5,-34.4163"/>
<text text-anchor="start" x="618.5" y="-52.4163" font-family="Helvetica,sans-Serif" font-size="10.00">tds_process_simple</text>
<text text-anchor="middle" x="665.5" y="-41.4163" font-family="Helvetica,sans-Serif" font-size="10.00">_query</text>
</a>
</g>
</g>
<!-- Node4&#45;&gt;Node16 -->
<g id="edge17" class="edge"><title>Node4&#45;&gt;Node16</title>
<path fill="none" stroke="midnightblue" d="M521.812,-282.81C528.941,-239.766 551.498,-135.94 610,-74.4163 613.658,-70.569 618.022,-67.2624 622.665,-64.4338"/>
<polygon fill="midnightblue" stroke="midnightblue" points="518.333,-282.401 520.255,-292.82 525.25,-283.477 518.333,-282.401"/>
</g>
<!-- Node17 -->
<g id="node17" class="node"><title>Node17</title>
<g id="a_node17"><a xlink:href="a00359.html#gaf233e79967f82f4e0dd4d11524917a34" target="_top" xlink:title="tds_process_cancel">
<polygon fill="white" stroke="red" points="610,-425.916 610,-444.916 721,-444.916 721,-425.916 610,-425.916"/>
<text text-anchor="middle" x="665.5" y="-432.916" font-family="Helvetica,sans-Serif" font-size="10.00">tds_process_cancel</text>
</a>
</g>
</g>
<!-- Node4&#45;&gt;Node17 -->
<g id="edge19" class="edge"><title>Node4&#45;&gt;Node17</title>
<path fill="none" stroke="midnightblue" d="M529.309,-321.069C544.069,-346.149 573.513,-390.572 610,-416.416 615.397,-420.239 621.633,-423.353 627.918,-425.871"/>
<polygon fill="midnightblue" stroke="midnightblue" points="532.232,-319.131 524.225,-312.192 526.158,-322.609 532.232,-319.131"/>
</g>
<!-- Node8&#45;&gt;Node9 -->
<g id="edge8" class="edge"><title>Node8&#45;&gt;Node9</title>
<path fill="none" stroke="midnightblue" d="M702.371,-241.143C729.525,-237.909 766.532,-233.5 792.965,-230.351"/>
<polygon fill="midnightblue" stroke="midnightblue" points="701.642,-237.705 692.126,-242.364 702.47,-244.656 701.642,-237.705"/>
</g>
<!-- Node15&#45;&gt;Node3 -->
<g id="edge16" class="edge"><title>Node15&#45;&gt;Node3</title>
<path fill="none" stroke="midnightblue" d="M703.583,-410.279C709.416,-412.321 715.375,-414.418 721,-416.416 747.854,-425.956 778.489,-437.07 799.708,-444.804"/>
<polygon fill="midnightblue" stroke="midnightblue" points="704.563,-406.914 693.968,-406.922 702.256,-413.522 704.563,-406.914"/>
</g>
<!-- Node16&#45;&gt;Node13 -->
<g id="edge18" class="edge"><title>Node16&#45;&gt;Node13</title>
<path fill="none" stroke="midnightblue" d="M731.05,-40.5128C742.711,-38.9044 754.823,-37.2338 766.337,-35.6457"/>
<polygon fill="midnightblue" stroke="midnightblue" points="730.373,-37.073 720.945,-41.9067 731.329,-44.0074 730.373,-37.073"/>
</g>
<!-- Node18&#45;&gt;Node2 -->
<g id="edge21" class="edge"><title>Node18&#45;&gt;Node2</title>
<path fill="none" stroke="midnightblue" d="M315.806,-447.094C307.36,-447.208 298.7,-447.187 290.332,-447.033"/>
<polygon fill="midnightblue" stroke="midnightblue" points="316.04,-450.59 325.967,-446.89 315.899,-443.592 316.04,-450.59"/>
</g>
<!-- Node18&#45;&gt;Node4 -->
<g id="edge22" class="edge"><title>Node18&#45;&gt;Node4</title>
<path fill="none" stroke="midnightblue" d="M394.237,-423.425C423.833,-394.252 483.403,-335.533 507.023,-312.251"/>
<polygon fill="midnightblue" stroke="midnightblue" points="391.733,-420.979 387.068,-430.492 396.647,-425.964 391.733,-420.979"/>
</g>
</g>
</svg>
