<?xml version="1.0" encoding="UTF-8" standalone="no"?>
<!DOCTYPE svg PUBLIC "-//W3C//DTD SVG 1.1//EN"
 "http://www.w3.org/Graphics/SVG/1.1/DTD/svg11.dtd">
<!-- Generated by graphviz version 2.38.0 (20140413.2041)
 -->
<!-- Title: dbperror Pages: 1 -->
<svg width="459pt" height="1472pt"
 viewBox="0.00 0.00 459.00 1472.00" xmlns="http://www.w3.org/2000/svg" xmlns:xlink="http://www.w3.org/1999/xlink">
<g id="graph0" class="graph" transform="scale(1 1) rotate(0) translate(4 1468)">
<title>dbperror</title>
<polygon fill="white" stroke="none" points="-4,4 -4,-1468 455,-1468 455,4 -4,4"/>
<!-- Node1 -->
<g id="node1" class="node"><title>Node1</title>
<polygon fill="#bfbfbf" stroke="black" points="0,-722.5 0,-741.5 57,-741.5 57,-722.5 0,-722.5"/>
<text text-anchor="middle" x="28.5" y="-729.5" font-family="Helvetica,sans-Serif" font-size="10.00">dbperror</text>
</g>
<!-- Node2 -->
<g id="node2" class="node"><title>Node2</title>
<g id="a_node2"><a xlink:href="a00343.html#gada8e987c4a6225b9276c05ba3a4f47a0" target="_top" xlink:title="Prepare for bulk copy operation on a table. ">
<polygon fill="white" stroke="black" points="125.5,-1444.5 125.5,-1463.5 178.5,-1463.5 178.5,-1444.5 125.5,-1444.5"/>
<text text-anchor="middle" x="152" y="-1451.5" font-family="Helvetica,sans-Serif" font-size="10.00">bcp_init</text>
</a>
</g>
</g>
<!-- Node1&#45;&gt;Node2 -->
<g id="edge1" class="edge"><title>Node1&#45;&gt;Node2</title>
<path fill="none" stroke="midnightblue" d="M30.0064,-751.764C32.9519,-860.207 49.2862,-1380.07 93,-1435 100.785,-1444.78 113.717,-1449.58 125.396,-1451.92"/>
<polygon fill="midnightblue" stroke="midnightblue" points="33.5006,-751.495 29.7371,-741.591 26.5031,-751.68 33.5006,-751.495"/>
</g>
<!-- Node3 -->
<g id="node3" class="node"><title>Node3</title>
<g id="a_node3"><a xlink:href="a00343.html#ga330b9f1028f856a9eec5115550bcb4f7" target="_top" xlink:title="Indicate how many columns are to be found in the datafile. ">
<polygon fill="white" stroke="black" points="113.5,-1330.5 113.5,-1349.5 190.5,-1349.5 190.5,-1330.5 113.5,-1330.5"/>
<text text-anchor="middle" x="152" y="-1337.5" font-family="Helvetica,sans-Serif" font-size="10.00">bcp_columns</text>
</a>
</g>
</g>
<!-- Node1&#45;&gt;Node3 -->
<g id="edge2" class="edge"><title>Node1&#45;&gt;Node3</title>
<path fill="none" stroke="midnightblue" d="M30.3732,-751.819C34.8375,-849.379 56.3383,-1275.74 93,-1321 98.2021,-1327.42 105.619,-1331.69 113.417,-1334.53"/>
<polygon fill="midnightblue" stroke="midnightblue" points="33.8694,-751.653 29.9232,-741.821 26.8765,-751.968 33.8694,-751.653"/>
</g>
<!-- Node4 -->
<g id="node4" class="node"><title>Node4</title>
<g id="a_node4"><a xlink:href="a00343.html#ga963c5e38bca7668afc57f5cc123d10fb" target="_top" xlink:title="Read a format definition file. ">
<polygon fill="white" stroke="black" points="253.5,-1349.5 253.5,-1368.5 328.5,-1368.5 328.5,-1349.5 253.5,-1349.5"/>
<text text-anchor="middle" x="291" y="-1356.5" font-family="Helvetica,sans-Serif" font-size="10.00">bcp_readfmt</text>
</a>
</g>
</g>
<!-- Node1&#45;&gt;Node4 -->
<g id="edge15" class="edge"><title>Node1&#45;&gt;Node4</title>
<path fill="none" stroke="midnightblue" d="M29.9617,-751.73C32.5447,-853.634 46.7895,-1317.23 93,-1359 140.194,-1401.66 222.804,-1382.33 264.453,-1368.57"/>
<polygon fill="midnightblue" stroke="midnightblue" points="33.4576,-751.516 29.7138,-741.605 26.4597,-751.687 33.4576,-751.516"/>
</g>
<!-- Node5 -->
<g id="node5" class="node"><title>Node5</title>
<g id="a_node5"><a xlink:href="a00343.html#ga0ed03c69e698336d015bb315ad755fd5" target="_top" xlink:title="Specify the format of a datafile prior to writing to a table. ">
<polygon fill="white" stroke="black" points="118.5,-1292.5 118.5,-1311.5 185.5,-1311.5 185.5,-1292.5 118.5,-1292.5"/>
<text text-anchor="middle" x="152" y="-1299.5" font-family="Helvetica,sans-Serif" font-size="10.00">bcp_colfmt</text>
</a>
</g>
</g>
<!-- Node1&#45;&gt;Node5 -->
<g id="edge4" class="edge"><title>Node1&#45;&gt;Node5</title>
<path fill="none" stroke="midnightblue" d="M30.5216,-751.696C35.5324,-845.132 58.6632,-1240.93 93,-1283 99.2976,-1290.72 108.79,-1295.33 118.283,-1298.07"/>
<polygon fill="midnightblue" stroke="midnightblue" points="34.0126,-751.431 29.9897,-741.63 27.0224,-751.801 34.0126,-751.431"/>
</g>
<!-- Node6 -->
<g id="node6" class="node"><title>Node6</title>
<g id="a_node6"><a xlink:href="a00343.html#ga244547855b41788fa3a67756956fbc81" target="_top" xlink:title="Set BCP options for uploading a datafile. ">
<polygon fill="white" stroke="black" points="116.5,-1254.5 116.5,-1273.5 187.5,-1273.5 187.5,-1254.5 116.5,-1254.5"/>
<text text-anchor="middle" x="152" y="-1261.5" font-family="Helvetica,sans-Serif" font-size="10.00">bcp_control</text>
</a>
</g>
</g>
<!-- Node1&#45;&gt;Node6 -->
<g id="edge6" class="edge"><title>Node1&#45;&gt;Node6</title>
<path fill="none" stroke="midnightblue" d="M29.2208,-751.796C28.4232,-836.528 29.4757,-1167.83 93,-1245 98.8586,-1252.12 107.434,-1256.59 116.203,-1259.4"/>
<polygon fill="midnightblue" stroke="midnightblue" points="32.7213,-751.764 29.3366,-741.724 25.7218,-751.683 32.7213,-751.764"/>
</g>
<!-- Node7 -->
<g id="node7" class="node"><title>Node7</title>
<g id="a_node7"><a xlink:href="a00343.html#ga6498235e4ef8e41ea43b01494b28998d" target="_top" xlink:title="Override bcp_bind() by pointing to a different host variable. ">
<polygon fill="white" stroke="black" points="119.5,-1216.5 119.5,-1235.5 184.5,-1235.5 184.5,-1216.5 119.5,-1216.5"/>
<text text-anchor="middle" x="152" y="-1223.5" font-family="Helvetica,sans-Serif" font-size="10.00">bcp_colptr</text>
</a>
</g>
</g>
<!-- Node1&#45;&gt;Node7 -->
<g id="edge7" class="edge"><title>Node1&#45;&gt;Node7</title>
<path fill="none" stroke="midnightblue" d="M29.6213,-751.776C30.4864,-831.684 37.4456,-1129.88 93,-1202 99.5172,-1210.46 109.544,-1215.96 119.439,-1219.53"/>
<polygon fill="midnightblue" stroke="midnightblue" points="33.1199,-751.592 29.5328,-741.623 26.1202,-751.653 33.1199,-751.592"/>
</g>
<!-- Node8 -->
<g id="node8" class="node"><title>Node8</title>
<g id="a_node8"><a xlink:href="a00344.html#gae67546338cb9542a4902aa914f57f314" target="_top" xlink:title="_bcp_exec_out">
<polygon fill="white" stroke="black" points="247,-1102.5 247,-1121.5 335,-1121.5 335,-1102.5 247,-1102.5"/>
<text text-anchor="middle" x="291" y="-1109.5" font-family="Helvetica,sans-Serif" font-size="10.00">_bcp_exec_out</text>
</a>
</g>
</g>
<!-- Node1&#45;&gt;Node8 -->
<g id="edge8" class="edge"><title>Node1&#45;&gt;Node8</title>
<path fill="none" stroke="midnightblue" d="M29.9576,-751.813C31.9803,-820.423 42.4344,-1046.23 93,-1093 133.99,-1130.91 202.319,-1128.35 246.763,-1121.42"/>
<polygon fill="midnightblue" stroke="midnightblue" points="33.4493,-751.452 29.685,-741.549 26.4518,-751.638 33.4493,-751.452"/>
</g>
<!-- Node10 -->
<g id="node10" class="node"><title>Node10</title>
<g id="a_node10"><a xlink:href="a00344.html#ga065757a7d0dce354660900de4aa79e2f" target="_top" xlink:title="_bcp_read_hostfile">
<polygon fill="white" stroke="black" points="98.5,-1140.5 98.5,-1159.5 205.5,-1159.5 205.5,-1140.5 98.5,-1140.5"/>
<text text-anchor="middle" x="152" y="-1147.5" font-family="Helvetica,sans-Serif" font-size="10.00">_bcp_read_hostfile</text>
</a>
</g>
</g>
<!-- Node1&#45;&gt;Node10 -->
<g id="edge10" class="edge"><title>Node1&#45;&gt;Node10</title>
<path fill="none" stroke="midnightblue" d="M30.2094,-752.145C33.1178,-824.049 46.2837,-1066.93 93,-1126 98.0022,-1132.33 104.959,-1137 112.322,-1140.45"/>
<polygon fill="midnightblue" stroke="midnightblue" points="33.6931,-751.647 29.8151,-741.787 26.6982,-751.913 33.6931,-751.647"/>
</g>
<!-- Node11 -->
<g id="node11" class="node"><title>Node11</title>
<g id="a_node11"><a xlink:href="a00344.html#ga7370f1223f13510d6b33e98f2de09fb5" target="_top" xlink:title="_bcp_exec_in">
<polygon fill="white" stroke="black" points="250,-1140.5 250,-1159.5 332,-1159.5 332,-1140.5 250,-1140.5"/>
<text text-anchor="middle" x="291" y="-1147.5" font-family="Helvetica,sans-Serif" font-size="10.00">_bcp_exec_in</text>
</a>
</g>
</g>
<!-- Node1&#45;&gt;Node11 -->
<g id="edge14" class="edge"><title>Node1&#45;&gt;Node11</title>
<path fill="none" stroke="midnightblue" d="M29.1331,-752.012C28.1652,-830.24 29.1684,-1113.77 93,-1169 144.189,-1213.29 233.254,-1178.16 271.589,-1159.62"/>
<polygon fill="midnightblue" stroke="midnightblue" points="32.6382,-751.698 29.2895,-741.646 25.6389,-751.592 32.6382,-751.698"/>
</g>
<!-- Node12 -->
<g id="node12" class="node"><title>Node12</title>
<g id="a_node12"><a xlink:href="a00343.html#gaf1130ac97f6af55e86ec70b0aa4f5b40" target="_top" xlink:title="Write data in host variables to the table. ">
<polygon fill="white" stroke="black" points="112,-1064.5 112,-1083.5 192,-1083.5 192,-1064.5 112,-1064.5"/>
<text text-anchor="middle" x="152" y="-1071.5" font-family="Helvetica,sans-Serif" font-size="10.00">bcp_sendrow</text>
</a>
</g>
</g>
<!-- Node1&#45;&gt;Node12 -->
<g id="edge13" class="edge"><title>Node1&#45;&gt;Node12</title>
<path fill="none" stroke="midnightblue" d="M30.8146,-751.796C35.3817,-814.808 52.5439,-1009.26 93,-1055 97.9842,-1060.64 104.665,-1064.61 111.718,-1067.4"/>
<polygon fill="midnightblue" stroke="midnightblue" points="34.2926,-751.358 30.1056,-741.625 27.3095,-751.844 34.2926,-751.358"/>
</g>
<!-- Node13 -->
<g id="node13" class="node"><title>Node13</title>
<g id="a_node13"><a xlink:href="a00344.html#gafc23d62bc86b38fb757e3ac4aadca0a4" target="_top" xlink:title="_bcp_readfmt_colinfo">
<polygon fill="white" stroke="black" points="93,-1406.5 93,-1425.5 211,-1425.5 211,-1406.5 93,-1406.5"/>
<text text-anchor="middle" x="152" y="-1413.5" font-family="Helvetica,sans-Serif" font-size="10.00">_bcp_readfmt_colinfo</text>
</a>
</g>
</g>
<!-- Node1&#45;&gt;Node13 -->
<g id="edge16" class="edge"><title>Node1&#45;&gt;Node13</title>
<path fill="none" stroke="midnightblue" d="M30.2141,-752.129C34.0997,-857.135 53.9716,-1339.27 93,-1392 97.668,-1398.31 104.298,-1402.96 111.417,-1406.4"/>
<polygon fill="midnightblue" stroke="midnightblue" points="33.7052,-751.819 29.8444,-741.953 26.7099,-752.073 33.7052,-751.819"/>
</g>
<!-- Node14 -->
<g id="node14" class="node"><title>Node14</title>
<g id="a_node14"><a xlink:href="a00343.html#gaf08c7f8e74ddf23b83800bc378821b35" target="_top" xlink:title="Bind a program host variable to a database column. ">
<polygon fill="white" stroke="black" points="122.5,-1026.5 122.5,-1045.5 181.5,-1045.5 181.5,-1026.5 122.5,-1026.5"/>
<text text-anchor="middle" x="152" y="-1033.5" font-family="Helvetica,sans-Serif" font-size="10.00">bcp_bind</text>
</a>
</g>
</g>
<!-- Node1&#45;&gt;Node14 -->
<g id="edge18" class="edge"><title>Node1&#45;&gt;Node14</title>
<path fill="none" stroke="midnightblue" d="M31.3709,-751.702C37.2416,-809.563 57.0788,-977.4 93,-1017 100.546,-1025.32 111.787,-1030.01 122.369,-1032.64"/>
<polygon fill="midnightblue" stroke="midnightblue" points="34.8459,-751.276 30.3824,-741.667 27.8797,-751.962 34.8459,-751.276"/>
</g>
<!-- Node15 -->
<g id="node15" class="node"><title>Node15</title>
<g id="a_node15"><a xlink:href="a00235.html#aea6a865806d454280126de940478c214" target="_top" xlink:title="dbgetnull">
<polygon fill="white" stroke="black" points="122.5,-988.5 122.5,-1007.5 181.5,-1007.5 181.5,-988.5 122.5,-988.5"/>
<text text-anchor="middle" x="152" y="-995.5" font-family="Helvetica,sans-Serif" font-size="10.00">dbgetnull</text>
</a>
</g>
</g>
<!-- Node1&#45;&gt;Node15 -->
<g id="edge19" class="edge"><title>Node1&#45;&gt;Node15</title>
<path fill="none" stroke="midnightblue" d="M29.0851,-751.91C29.2166,-797.057 35.7239,-908.37 93,-974 100.595,-982.703 111.845,-988.314 122.42,-991.901"/>
<polygon fill="midnightblue" stroke="midnightblue" points="32.5866,-751.725 29.1665,-741.698 25.5868,-751.669 32.5866,-751.725"/>
</g>
<!-- Node16 -->
<g id="node16" class="node"><title>Node16</title>
<g id="a_node16"><a xlink:href="a00341.html#ga32eb72f6fb3edb130e59fb3dd0766e7e" target="_top" xlink:title="Convert one datatype to another. ">
<polygon fill="white" stroke="black" points="259.5,-950.5 259.5,-969.5 322.5,-969.5 322.5,-950.5 259.5,-950.5"/>
<text text-anchor="middle" x="291" y="-957.5" font-family="Helvetica,sans-Serif" font-size="10.00">dbconvert</text>
</a>
</g>
</g>
<!-- Node1&#45;&gt;Node16 -->
<g id="edge42" class="edge"><title>Node1&#45;&gt;Node16</title>
<path fill="none" stroke="midnightblue" d="M29.119,-751.778C29.4975,-793.198 36.7576,-889.094 93,-936 140.099,-975.28 216.942,-971.539 259.396,-965.613"/>
<polygon fill="midnightblue" stroke="midnightblue" points="32.6195,-751.641 29.1598,-741.627 25.6196,-751.612 32.6195,-751.641"/>
</g>
<!-- Node19 -->
<g id="node19" class="node"><title>Node19</title>
<g id="a_node19"><a xlink:href="a00341.html#gaa30be3414a97aac6139af2e928db91ca" target="_top" xlink:title="Print a result set to stdout. ">
<polygon fill="white" stroke="black" points="383.5,-912.5 383.5,-931.5 438.5,-931.5 438.5,-912.5 383.5,-912.5"/>
<text text-anchor="middle" x="411" y="-919.5" font-family="Helvetica,sans-Serif" font-size="10.00">dbprrow</text>
</a>
</g>
</g>
<!-- Node1&#45;&gt;Node19 -->
<g id="edge46" class="edge"><title>Node1&#45;&gt;Node19</title>
<path fill="none" stroke="midnightblue" d="M30.5489,-751.692C33.6188,-787.477 45.6727,-862.726 93,-898 138.47,-931.89 315.209,-926.836 383.168,-923.523"/>
<polygon fill="midnightblue" stroke="midnightblue" points="34.0293,-751.29 29.8345,-741.561 27.0467,-751.783 34.0293,-751.29"/>
</g>
<!-- Node20 -->
<g id="node20" class="node"><title>Node20</title>
<g id="a_node20"><a xlink:href="a00341.html#ga548153eb2eae76c48aa9d4b72258dc1c" target="_top" xlink:title="Send text or image data to the server. ">
<polygon fill="white" stroke="black" points="377,-874.5 377,-893.5 445,-893.5 445,-874.5 377,-874.5"/>
<text text-anchor="middle" x="411" y="-881.5" font-family="Helvetica,sans-Serif" font-size="10.00">dbwritetext</text>
</a>
</g>
</g>
<!-- Node1&#45;&gt;Node20 -->
<g id="edge53" class="edge"><title>Node1&#45;&gt;Node20</title>
<path fill="none" stroke="midnightblue" d="M32.5185,-751.625C38.3058,-781.78 54.0431,-838.769 93,-865 180.806,-924.124 315.216,-905.249 376.932,-892.117"/>
<polygon fill="midnightblue" stroke="midnightblue" points="35.9198,-750.755 30.7599,-741.501 29.0231,-751.953 35.9198,-750.755"/>
</g>
<!-- Node21 -->
<g id="node21" class="node"><title>Node21</title>
<g id="a_node21"><a xlink:href="a00341.html#ga0984798bb806f7451a53bffa7e2c430f" target="_top" xlink:title="Allocate a LOGINREC structure. ">
<polygon fill="white" stroke="black" points="127,-646.5 127,-665.5 177,-665.5 177,-646.5 127,-646.5"/>
<text text-anchor="middle" x="152" y="-653.5" font-family="Helvetica,sans-Serif" font-size="10.00">dblogin</text>
</a>
</g>
</g>
<!-- Node1&#45;&gt;Node21 -->
<g id="edge25" class="edge"><title>Node1&#45;&gt;Node21</title>
<path fill="none" stroke="midnightblue" d="M45.0405,-714.613C57.0597,-702.082 74.6925,-685.581 93,-675 103.458,-668.956 116.104,-664.527 126.915,-661.473"/>
<polygon fill="midnightblue" stroke="midnightblue" points="42.2552,-712.468 38.0022,-722.172 47.3783,-717.238 42.2552,-712.468"/>
</g>
<!-- Node22 -->
<g id="node22" class="node"><title>Node22</title>
<g id="a_node22"><a xlink:href="a00347.html#gae1fc46447c4f8a9ff7f66607b8cd23b6" target="_top" xlink:title="Set the value of a string in a LOGINREC structure. ">
<polygon fill="white" stroke="black" points="116.5,-608.5 116.5,-627.5 187.5,-627.5 187.5,-608.5 116.5,-608.5"/>
<text text-anchor="middle" x="152" y="-615.5" font-family="Helvetica,sans-Serif" font-size="10.00">dbsetlname</text>
</a>
</g>
</g>
<!-- Node1&#45;&gt;Node22 -->
<g id="edge26" class="edge"><title>Node1&#45;&gt;Node22</title>
<path fill="none" stroke="midnightblue" d="M37.5148,-713.021C47.4949,-691.589 66.5159,-657.095 93,-637 99.8374,-631.812 108.155,-628.005 116.331,-625.224"/>
<polygon fill="midnightblue" stroke="midnightblue" points="34.2213,-711.813 33.3487,-722.372 40.6154,-714.662 34.2213,-711.813"/>
</g>
<!-- Node23 -->
<g id="node23" class="node"><title>Node23</title>
<g id="a_node23"><a xlink:href="a00347.html#gabdcccf4e0d093ff48c0e7048a4bfaf84" target="_top" xlink:title="Set an integer value in a LOGINREC structure. ">
<polygon fill="white" stroke="black" points="119.5,-570.5 119.5,-589.5 184.5,-589.5 184.5,-570.5 119.5,-570.5"/>
<text text-anchor="middle" x="152" y="-577.5" font-family="Helvetica,sans-Serif" font-size="10.00">dbsetllong</text>
</a>
</g>
</g>
<!-- Node1&#45;&gt;Node23 -->
<g id="edge27" class="edge"><title>Node1&#45;&gt;Node23</title>
<path fill="none" stroke="midnightblue" d="M33.7022,-712.303C40.8773,-683.385 58.2159,-629.567 93,-599 100.402,-592.495 110.081,-588.209 119.405,-585.388"/>
<polygon fill="midnightblue" stroke="midnightblue" points="30.2126,-711.858 31.3651,-722.39 37.032,-713.438 30.2126,-711.858"/>
</g>
<!-- Node24 -->
<g id="node24" class="node"><title>Node24</title>
<g id="a_node24"><a xlink:href="a00347.html#ga03e850369aca6fba074da5e9da4effd7" target="_top" xlink:title="Set a boolean value in a LOGINREC structure. ">
<polygon fill="white" stroke="black" points="120,-532.5 120,-551.5 184,-551.5 184,-532.5 120,-532.5"/>
<text text-anchor="middle" x="152" y="-539.5" font-family="Helvetica,sans-Serif" font-size="10.00">dbsetlbool</text>
</a>
</g>
</g>
<!-- Node1&#45;&gt;Node24 -->
<g id="edge28" class="edge"><title>Node1&#45;&gt;Node24</title>
<path fill="none" stroke="midnightblue" d="M31.3113,-712.3C35.6021,-677.008 49.5421,-602.796 93,-561 100.332,-553.949 110.321,-549.514 119.943,-546.725"/>
<polygon fill="midnightblue" stroke="midnightblue" points="27.8253,-711.982 30.2321,-722.3 34.7849,-712.733 27.8253,-711.982"/>
</g>
<!-- Node25 -->
<g id="node25" class="node"><title>Node25</title>
<g id="a_node25"><a xlink:href="a00341.html#gaa22dce1ee0eb83059699c34c47d07c14" target="_top" xlink:title="Set TDS version for future connections. ">
<polygon fill="white" stroke="black" points="112.5,-494.5 112.5,-513.5 191.5,-513.5 191.5,-494.5 112.5,-494.5"/>
<text text-anchor="middle" x="152" y="-501.5" font-family="Helvetica,sans-Serif" font-size="10.00">dbsetlversion</text>
</a>
</g>
</g>
<!-- Node1&#45;&gt;Node25 -->
<g id="edge29" class="edge"><title>Node1&#45;&gt;Node25</title>
<path fill="none" stroke="midnightblue" d="M29.7492,-712.023C31.3575,-670.917 40.8741,-576.264 93,-523 98.336,-517.547 105.258,-513.659 112.453,-510.886"/>
<polygon fill="midnightblue" stroke="midnightblue" points="26.2479,-712.028 29.4764,-722.119 33.2453,-712.217 26.2479,-712.028"/>
</g>
<!-- Node26 -->
<g id="node26" class="node"><title>Node26</title>
<g id="a_node26"><a xlink:href="a00347.html#ga2c99ec565452279e9a382451d89642eb" target="_top" xlink:title="Form a connection with the server. ">
<polygon fill="white" stroke="black" points="119,-456.5 119,-475.5 185,-475.5 185,-456.5 119,-456.5"/>
<text text-anchor="middle" x="152" y="-463.5" font-family="Helvetica,sans-Serif" font-size="10.00">tdsdbopen</text>
</a>
</g>
</g>
<!-- Node1&#45;&gt;Node26 -->
<g id="edge30" class="edge"><title>Node1&#45;&gt;Node26</title>
<path fill="none" stroke="midnightblue" d="M28.6193,-712.303C27.6679,-666.194 31.877,-550.227 93,-485 99.8106,-477.732 109.44,-473.24 118.899,-470.465"/>
<polygon fill="midnightblue" stroke="midnightblue" points="25.1257,-712.562 28.9409,-722.447 32.1222,-712.341 25.1257,-712.562"/>
</g>
<!-- Node28 -->
<g id="node28" class="node"><title>Node28</title>
<g id="a_node28"><a xlink:href="a00341.html#ga43727b10d4cbb7708b374811abe6eadb" target="_top" xlink:title="printf&#45;like way to form SQL to send to the server. ">
<polygon fill="white" stroke="black" points="266,-722.5 266,-741.5 316,-741.5 316,-722.5 266,-722.5"/>
<text text-anchor="middle" x="291" y="-729.5" font-family="Helvetica,sans-Serif" font-size="10.00">dbfcmd</text>
</a>
</g>
</g>
<!-- Node1&#45;&gt;Node28 -->
<g id="edge32" class="edge"><title>Node1&#45;&gt;Node28</title>
<path fill="none" stroke="midnightblue" d="M67.6432,-732C122.038,-732 220.328,-732 265.763,-732"/>
<polygon fill="midnightblue" stroke="midnightblue" points="67.3781,-728.5 57.3781,-732 67.378,-735.5 67.3781,-728.5"/>
</g>
<!-- Node29 -->
<g id="node29" class="node"><title>Node29</title>
<g id="a_node29"><a xlink:href="a00341.html#ga87b39d9863316b4ba85654b0885d53a0" target="_top" xlink:title="Append SQL to the command buffer. ">
<polygon fill="white" stroke="black" points="128.5,-684.5 128.5,-703.5 175.5,-703.5 175.5,-684.5 128.5,-684.5"/>
<text text-anchor="middle" x="152" y="-691.5" font-family="Helvetica,sans-Serif" font-size="10.00">dbcmd</text>
</a>
</g>
</g>
<!-- Node1&#45;&gt;Node29 -->
<g id="edge33" class="edge"><title>Node1&#45;&gt;Node29</title>
<path fill="none" stroke="midnightblue" d="M66.8719,-720.312C86.997,-714.017 111.161,-706.46 128.418,-701.063"/>
<polygon fill="midnightblue" stroke="midnightblue" points="65.5696,-717.052 57.0702,-723.377 67.6591,-723.733 65.5696,-717.052"/>
</g>
<!-- Node30 -->
<g id="node30" class="node"><title>Node30</title>
<g id="a_node30"><a xlink:href="a00341.html#ga66ea891910f0a357cc78107d6ab7d962" target="_top" xlink:title="Change current database. ">
<polygon fill="white" stroke="black" points="389,-779.5 389,-798.5 433,-798.5 433,-779.5 389,-779.5"/>
<text text-anchor="middle" x="411" y="-786.5" font-family="Helvetica,sans-Serif" font-size="10.00">dbuse</text>
</a>
</g>
</g>
<!-- Node1&#45;&gt;Node30 -->
<g id="edge36" class="edge"><title>Node1&#45;&gt;Node30</title>
<path fill="none" stroke="midnightblue" d="M42.6888,-749.395C54.2421,-763.076 72.3781,-781.102 93,-789 197.588,-829.056 336.21,-805.429 388.668,-794.054"/>
<polygon fill="midnightblue" stroke="midnightblue" points="45.3817,-747.158 36.3826,-741.567 39.9306,-751.55 45.3817,-747.158"/>
</g>
<!-- Node31 -->
<g id="node31" class="node"><title>Node31</title>
<g id="a_node31"><a xlink:href="a00341.html#gaf1879b85e8238c015b9648d077665285" target="_top" xlink:title="_dbresults">
<polygon fill="white" stroke="black" points="119.5,-836.5 119.5,-855.5 184.5,-855.5 184.5,-836.5 119.5,-836.5"/>
<text text-anchor="middle" x="152" y="-843.5" font-family="Helvetica,sans-Serif" font-size="10.00">_dbresults</text>
</a>
</g>
</g>
<!-- Node1&#45;&gt;Node31 -->
<g id="edge37" class="edge"><title>Node1&#45;&gt;Node31</title>
<path fill="none" stroke="midnightblue" d="M38.6689,-750.838C49.2741,-770.894 68.466,-802.389 93,-822 100.746,-828.192 110.314,-833.014 119.43,-836.658"/>
<polygon fill="midnightblue" stroke="midnightblue" points="41.7038,-749.084 34.0446,-741.764 35.467,-752.263 41.7038,-749.084"/>
</g>
<!-- Node33 -->
<g id="node33" class="node"><title>Node33</title>
<g id="a_node33"><a xlink:href="a00341.html#ga399512ec78c15ce3db79ea88ef3b1293" target="_top" xlink:title="Define substitution values to be used when binding null values. ">
<polygon fill="white" stroke="black" points="123,-418.5 123,-437.5 181,-437.5 181,-418.5 123,-418.5"/>
<text text-anchor="middle" x="152" y="-425.5" font-family="Helvetica,sans-Serif" font-size="10.00">dbsetnull</text>
</a>
</g>
</g>
<!-- Node1&#45;&gt;Node33 -->
<g id="edge41" class="edge"><title>Node1&#45;&gt;Node33</title>
<path fill="none" stroke="midnightblue" d="M31.3709,-712.298C37.2416,-654.437 57.0788,-486.6 93,-447 100.689,-438.524 112.213,-433.818 122.968,-431.21"/>
<polygon fill="midnightblue" stroke="midnightblue" points="27.8797,-712.038 30.3824,-722.333 34.8459,-712.724 27.8797,-712.038"/>
</g>
<!-- Node34 -->
<g id="node34" class="node"><title>Node34</title>
<g id="a_node34"><a xlink:href="a00341.html#ga873bc0f4663165e711655ade1dfae795" target="_top" xlink:title="Tie a host variable to a resultset column. ">
<polygon fill="white" stroke="black" points="128.5,-380.5 128.5,-399.5 175.5,-399.5 175.5,-380.5 128.5,-380.5"/>
<text text-anchor="middle" x="152" y="-387.5" font-family="Helvetica,sans-Serif" font-size="10.00">dbbind</text>
</a>
</g>
</g>
<!-- Node1&#45;&gt;Node34 -->
<g id="edge43" class="edge"><title>Node1&#45;&gt;Node34</title>
<path fill="none" stroke="midnightblue" d="M30.8146,-712.204C35.3817,-649.192 52.5439,-454.74 93,-409 101.915,-398.92 116.259,-394.165 128.452,-391.933"/>
<polygon fill="midnightblue" stroke="midnightblue" points="27.3095,-712.156 30.1056,-722.375 34.2926,-712.642 27.3095,-712.156"/>
</g>
<!-- Node36 -->
<g id="node36" class="node"><title>Node36</title>
<g id="a_node36"><a xlink:href="a00341.html#ga663350909fec3a1d152316c45a65e708" target="_top" xlink:title="set name and location of the interfaces file FreeTDS should use to look up a servername. ">
<polygon fill="white" stroke="black" points="123,-342.5 123,-361.5 181,-361.5 181,-342.5 123,-342.5"/>
<text text-anchor="middle" x="152" y="-349.5" font-family="Helvetica,sans-Serif" font-size="10.00">dbsetifile</text>
</a>
</g>
</g>
<!-- Node1&#45;&gt;Node36 -->
<g id="edge45" class="edge"><title>Node1&#45;&gt;Node36</title>
<path fill="none" stroke="midnightblue" d="M30.3692,-712.121C33.7256,-644.238 47.9837,-422.933 93,-371 100.496,-362.353 111.989,-357.62 122.774,-355.038"/>
<polygon fill="midnightblue" stroke="midnightblue" points="26.8643,-712.147 29.8923,-722.3 33.8566,-712.474 26.8643,-712.147"/>
</g>
<!-- Node37 -->
<g id="node37" class="node"><title>Node37</title>
<g id="a_node37"><a xlink:href="a00341.html#gaf2ca0e63f800b3839684c894ff651dd4" target="_top" xlink:title="Set maximum simultaneous connections db&#45;lib will open to the server. ">
<polygon fill="white" stroke="black" points="108,-304.5 108,-323.5 196,-323.5 196,-304.5 108,-304.5"/>
<text text-anchor="middle" x="152" y="-311.5" font-family="Helvetica,sans-Serif" font-size="10.00">dbsetmaxprocs</text>
</a>
</g>
</g>
<!-- Node1&#45;&gt;Node37 -->
<g id="edge47" class="edge"><title>Node1&#45;&gt;Node37</title>
<path fill="none" stroke="midnightblue" d="M30.007,-711.953C32.239,-639.316 43.4239,-391.144 93,-333 96.9874,-328.323 102.145,-324.791 107.738,-322.124"/>
<polygon fill="midnightblue" stroke="midnightblue" points="26.4961,-712.294 29.7124,-722.388 33.4933,-712.491 26.4961,-712.294"/>
</g>
<!-- Node38 -->
<g id="node38" class="node"><title>Node38</title>
<g id="a_node38"><a xlink:href="a00341.html#gafefd17e15b22adda84366c817178dd7d" target="_top" xlink:title="Bind a compute column to a program variable. ">
<polygon fill="white" stroke="black" points="122.5,-266.5 122.5,-285.5 181.5,-285.5 181.5,-266.5 122.5,-266.5"/>
<text text-anchor="middle" x="152" y="-273.5" font-family="Helvetica,sans-Serif" font-size="10.00">dbaltbind</text>
</a>
</g>
</g>
<!-- Node1&#45;&gt;Node38 -->
<g id="edge48" class="edge"><title>Node1&#45;&gt;Node38</title>
<path fill="none" stroke="midnightblue" d="M29.6982,-712.042C30.8574,-635.186 38.7887,-359.458 93,-295 100.298,-286.323 111.627,-281.58 122.344,-278.999"/>
<polygon fill="midnightblue" stroke="midnightblue" points="26.1959,-712.206 29.5679,-722.25 33.1953,-712.296 26.1959,-712.206"/>
</g>
<!-- Node39 -->
<g id="node39" class="node"><title>Node39</title>
<g id="a_node39"><a xlink:href="a00341.html#ga9d660d278f3f58871b4086c0e175f4c6" target="_top" xlink:title="Set db&#45;lib or server option. ">
<polygon fill="white" stroke="black" points="123.5,-228.5 123.5,-247.5 180.5,-247.5 180.5,-228.5 123.5,-228.5"/>
<text text-anchor="middle" x="152" y="-235.5" font-family="Helvetica,sans-Serif" font-size="10.00">dbsetopt</text>
</a>
</g>
</g>
<!-- Node1&#45;&gt;Node39 -->
<g id="edge49" class="edge"><title>Node1&#45;&gt;Node39</title>
<path fill="none" stroke="midnightblue" d="M29.4403,-711.894C29.6006,-630.669 34.1947,-327.735 93,-257 100.519,-247.956 112.422,-243.182 123.493,-240.677"/>
<polygon fill="midnightblue" stroke="midnightblue" points="25.9403,-712.216 29.4429,-722.215 32.9403,-712.214 25.9403,-712.216"/>
</g>
<!-- Node40 -->
<g id="node40" class="node"><title>Node40</title>
<g id="a_node40"><a xlink:href="a00341.html#gae658a0cd5270f3bd6f22de17b2cb2e64" target="_top" xlink:title="Get bylist for a compute row. ">
<polygon fill="white" stroke="black" points="126.5,-190.5 126.5,-209.5 177.5,-209.5 177.5,-190.5 126.5,-190.5"/>
<text text-anchor="middle" x="152" y="-197.5" font-family="Helvetica,sans-Serif" font-size="10.00">dbbylist</text>
</a>
</g>
</g>
<!-- Node1&#45;&gt;Node40 -->
<g id="edge50" class="edge"><title>Node1&#45;&gt;Node40</title>
<path fill="none" stroke="midnightblue" d="M29.2208,-712.204C28.4232,-627.472 29.4757,-296.173 93,-219 101.148,-209.101 114.551,-204.315 126.421,-202.02"/>
<polygon fill="midnightblue" stroke="midnightblue" points="25.7218,-712.317 29.3366,-722.276 32.7213,-712.236 25.7218,-712.317"/>
</g>
<!-- Node41 -->
<g id="node41" class="node"><title>Node41</title>
<g id="a_node41"><a xlink:href="a00341.html#gab9aa181fb3081ffb314340cbd71e434d" target="_top" xlink:title="Specify a db&#45;lib version level. ">
<polygon fill="white" stroke="black" points="113.5,-152.5 113.5,-171.5 190.5,-171.5 190.5,-152.5 113.5,-152.5"/>
<text text-anchor="middle" x="152" y="-159.5" font-family="Helvetica,sans-Serif" font-size="10.00">dbsetversion</text>
</a>
</g>
</g>
<!-- Node1&#45;&gt;Node41 -->
<g id="edge51" class="edge"><title>Node1&#45;&gt;Node41</title>
<path fill="none" stroke="midnightblue" d="M30.5216,-712.304C35.5324,-618.868 58.6632,-223.074 93,-181 98.2256,-174.597 105.651,-170.332 113.451,-167.496"/>
<polygon fill="midnightblue" stroke="midnightblue" points="27.0224,-712.199 29.9897,-722.37 34.0126,-712.569 27.0224,-712.199"/>
</g>
<!-- Node42 -->
<g id="node42" class="node"><title>Node42</title>
<g id="a_node42"><a xlink:href="a00341.html#gaf130b12e9e58b1bfd4a6685e33f5b3cd" target="_top" xlink:title="Get a copy of a chunk of the command buffer. ">
<polygon fill="white" stroke="black" points="124,-114.5 124,-133.5 180,-133.5 180,-114.5 124,-114.5"/>
<text text-anchor="middle" x="152" y="-121.5" font-family="Helvetica,sans-Serif" font-size="10.00">dbstrcpy</text>
</a>
</g>
</g>
<!-- Node1&#45;&gt;Node42 -->
<g id="edge52" class="edge"><title>Node1&#45;&gt;Node42</title>
<path fill="none" stroke="midnightblue" d="M30.3732,-712.181C34.8375,-614.621 56.3383,-188.261 93,-143 100.536,-133.696 112.72,-128.904 123.98,-126.453"/>
<polygon fill="midnightblue" stroke="midnightblue" points="26.8765,-712.032 29.9232,-722.179 33.8694,-712.347 26.8765,-712.032"/>
</g>
<!-- Node43 -->
<g id="node43" class="node"><title>Node43</title>
<g id="a_node43"><a xlink:href="a00341.html#gabb14ad9f268b92a8d63fa506098b24dd" target="_top" xlink:title="Record to a file all SQL commands sent to the server. ">
<polygon fill="white" stroke="black" points="122,-76.5 122,-95.5 182,-95.5 182,-76.5 122,-76.5"/>
<text text-anchor="middle" x="152" y="-83.5" font-family="Helvetica,sans-Serif" font-size="10.00">dbrecftos</text>
</a>
</g>
</g>
<!-- Node1&#45;&gt;Node43 -->
<g id="edge54" class="edge"><title>Node1&#45;&gt;Node43</title>
<path fill="none" stroke="midnightblue" d="M30.2487,-711.874C34.2106,-609.924 54.0332,-153.426 93,-105 100.041,-96.2494 111.195,-91.4879 121.849,-88.9123"/>
<polygon fill="midnightblue" stroke="midnightblue" points="26.7448,-711.912 29.8612,-722.038 33.7398,-712.179 26.7448,-711.912"/>
</g>
<!-- Node44 -->
<g id="node44" class="node"><title>Node44</title>
<g id="a_node44"><a xlink:href="a00341.html#gac980139b9cea03cf93e373d425991481" target="_top" xlink:title="Transmit the command buffer to the server. ">
<polygon fill="white" stroke="black" points="119.5,-760.5 119.5,-779.5 184.5,-779.5 184.5,-760.5 119.5,-760.5"/>
<text text-anchor="middle" x="152" y="-767.5" font-family="Helvetica,sans-Serif" font-size="10.00">dbsqlsend</text>
</a>
</g>
</g>
<!-- Node1&#45;&gt;Node44 -->
<g id="edge55" class="edge"><title>Node1&#45;&gt;Node44</title>
<path fill="none" stroke="midnightblue" d="M66.8218,-743.673C84.0554,-749.063 104.259,-755.382 120.554,-760.478"/>
<polygon fill="midnightblue" stroke="midnightblue" points="67.6591,-740.267 57.0702,-740.623 65.5696,-746.948 67.6591,-740.267"/>
</g>
<!-- Node46 -->
<g id="node46" class="node"><title>Node46</title>
<g id="a_node46"><a xlink:href="a00342.html#ga5b4374c13c7a83cd4345b0bfa3e787bd" target="_top" xlink:title="Initialize a remote procedure call. ">
<polygon fill="white" stroke="black" points="124,-38.5 124,-57.5 180,-57.5 180,-38.5 124,-38.5"/>
<text text-anchor="middle" x="152" y="-45.5" font-family="Helvetica,sans-Serif" font-size="10.00">dbrpcinit</text>
</a>
</g>
</g>
<!-- Node1&#45;&gt;Node46 -->
<g id="edge58" class="edge"><title>Node1&#45;&gt;Node46</title>
<path fill="none" stroke="midnightblue" d="M30.111,-712.331C33.5284,-607.646 51.6259,-118.721 93,-67 100.479,-57.6501 112.657,-52.8525 123.927,-50.41"/>
<polygon fill="midnightblue" stroke="midnightblue" points="26.6092,-712.335 29.7881,-722.441 33.6056,-712.558 26.6092,-712.335"/>
</g>
<!-- Node47 -->
<g id="node47" class="node"><title>Node47</title>
<g id="a_node47"><a xlink:href="a00342.html#ga98b9b5db66975dafae8d422218e4de45" target="_top" xlink:title="Add a parameter to a remote procedure call. ">
<polygon fill="white" stroke="black" points="115.5,-0.5 115.5,-19.5 188.5,-19.5 188.5,-0.5 115.5,-0.5"/>
<text text-anchor="middle" x="152" y="-7.5" font-family="Helvetica,sans-Serif" font-size="10.00">dbrpcparam</text>
</a>
</g>
</g>
<!-- Node1&#45;&gt;Node47 -->
<g id="edge59" class="edge"><title>Node1&#45;&gt;Node47</title>
<path fill="none" stroke="midnightblue" d="M30.0064,-712.236C32.9519,-603.793 49.2862,-83.9329 93,-29 98.6082,-21.9525 106.886,-17.4904 115.443,-14.6736"/>
<polygon fill="midnightblue" stroke="midnightblue" points="26.5031,-712.32 29.7371,-722.409 33.5006,-712.505 26.5031,-712.32"/>
</g>
<!-- Node3&#45;&gt;Node4 -->
<g id="edge3" class="edge"><title>Node3&#45;&gt;Node4</title>
<path fill="none" stroke="midnightblue" d="M201.172,-1346.68C218.288,-1349.05 237.266,-1351.69 253.271,-1353.91"/>
<polygon fill="midnightblue" stroke="midnightblue" points="201.185,-1343.15 190.799,-1345.24 200.223,-1350.08 201.185,-1343.15"/>
</g>
<!-- Node5&#45;&gt;Node4 -->
<g id="edge5" class="edge"><title>Node5&#45;&gt;Node4</title>
<path fill="none" stroke="midnightblue" d="M194.09,-1314.71C199.813,-1316.7 205.584,-1318.82 211,-1321 232.321,-1329.58 255.975,-1341.26 271.792,-1349.39"/>
<polygon fill="midnightblue" stroke="midnightblue" points="195.171,-1311.38 184.577,-1311.51 192.936,-1318.02 195.171,-1311.38"/>
</g>
<!-- Node9 -->
<g id="node9" class="node"><title>Node9</title>
<g id="a_node9"><a xlink:href="a00343.html#ga7a184158b27a50f713e9cfae3b746209" target="_top" xlink:title="Write a datafile to a table. ">
<polygon fill="white" stroke="black" points="380,-1121.5 380,-1140.5 442,-1140.5 442,-1121.5 380,-1121.5"/>
<text text-anchor="middle" x="411" y="-1128.5" font-family="Helvetica,sans-Serif" font-size="10.00">bcp_exec</text>
</a>
</g>
</g>
<!-- Node8&#45;&gt;Node9 -->
<g id="edge9" class="edge"><title>Node8&#45;&gt;Node9</title>
<path fill="none" stroke="midnightblue" d="M345.453,-1120.61C357.183,-1122.5 369.207,-1124.43 379.65,-1126.11"/>
<polygon fill="midnightblue" stroke="midnightblue" points="345.698,-1117.1 335.269,-1118.97 344.585,-1124.01 345.698,-1117.1"/>
</g>
<!-- Node10&#45;&gt;Node11 -->
<g id="edge11" class="edge"><title>Node10&#45;&gt;Node11</title>
<path fill="none" stroke="midnightblue" d="M215.651,-1150C227.219,-1150 239.011,-1150 249.694,-1150"/>
<polygon fill="midnightblue" stroke="midnightblue" points="215.576,-1146.5 205.576,-1150 215.576,-1153.5 215.576,-1146.5"/>
</g>
<!-- Node11&#45;&gt;Node9 -->
<g id="edge12" class="edge"><title>Node11&#45;&gt;Node9</title>
<path fill="none" stroke="midnightblue" d="M342.379,-1141.89C355.179,-1139.83 368.533,-1137.68 379.96,-1135.84"/>
<polygon fill="midnightblue" stroke="midnightblue" points="341.595,-1138.47 332.279,-1143.51 342.708,-1145.38 341.595,-1138.47"/>
</g>
<!-- Node13&#45;&gt;Node4 -->
<g id="edge17" class="edge"><title>Node13&#45;&gt;Node4</title>
<path fill="none" stroke="midnightblue" d="M185.543,-1402.56C193.846,-1399.12 202.755,-1395.43 211,-1392 229.94,-1384.13 251.417,-1375.15 267.192,-1368.55"/>
<polygon fill="midnightblue" stroke="midnightblue" points="184.054,-1399.38 176.151,-1406.44 186.729,-1405.85 184.054,-1399.38"/>
</g>
<!-- Node15&#45;&gt;Node16 -->
<g id="edge20" class="edge"><title>Node15&#45;&gt;Node16</title>
<path fill="none" stroke="midnightblue" d="M191.51,-987.318C212.987,-981.361 239.365,-974.045 259.416,-968.483"/>
<polygon fill="midnightblue" stroke="midnightblue" points="190.42,-983.988 181.72,-990.034 192.291,-990.734 190.42,-983.988"/>
</g>
<!-- Node17 -->
<g id="node17" class="node"><title>Node17</title>
<g id="a_node17"><a xlink:href="a00341.html#gac617cfeabee6c2ccefaa73636da38f3a" target="_top" xlink:title="cf. ">
<polygon fill="white" stroke="black" points="371,-988.5 371,-1007.5 451,-1007.5 451,-988.5 371,-988.5"/>
<text text-anchor="middle" x="411" y="-995.5" font-family="Helvetica,sans-Serif" font-size="10.00">dbconvert_ps</text>
</a>
</g>
</g>
<!-- Node16&#45;&gt;Node17 -->
<g id="edge21" class="edge"><title>Node16&#45;&gt;Node17</title>
<path fill="none" stroke="midnightblue" d="M331.376,-972.68C347.32,-977.815 365.421,-983.644 380.233,-988.414"/>
<polygon fill="midnightblue" stroke="midnightblue" points="332.368,-969.323 321.776,-969.589 330.222,-975.986 332.368,-969.323"/>
</g>
<!-- Node18 -->
<g id="node18" class="node"><title>Node18</title>
<g id="a_node18"><a xlink:href="a00341.html#gaf641c8e3d34607ca8b7ac2afed3e6d67" target="_top" xlink:title="Print a regular result row to a buffer. ">
<polygon fill="white" stroke="black" points="378,-950.5 378,-969.5 444,-969.5 444,-950.5 378,-950.5"/>
<text text-anchor="middle" x="411" y="-957.5" font-family="Helvetica,sans-Serif" font-size="10.00">dbspr1row</text>
</a>
</g>
</g>
<!-- Node16&#45;&gt;Node18 -->
<g id="edge22" class="edge"><title>Node16&#45;&gt;Node18</title>
<path fill="none" stroke="midnightblue" d="M333.026,-960C347.692,-960 363.996,-960 377.81,-960"/>
<polygon fill="midnightblue" stroke="midnightblue" points="332.695,-956.5 322.695,-960 332.695,-963.5 332.695,-956.5"/>
</g>
<!-- Node16&#45;&gt;Node19 -->
<g id="edge23" class="edge"><title>Node16&#45;&gt;Node19</title>
<path fill="none" stroke="midnightblue" d="M331.504,-947.279C348.593,-941.775 368.141,-935.48 383.454,-930.549"/>
<polygon fill="midnightblue" stroke="midnightblue" points="330.222,-944.014 321.776,-950.411 332.368,-950.677 330.222,-944.014"/>
</g>
<!-- Node16&#45;&gt;Node20 -->
<g id="edge24" class="edge"><title>Node16&#45;&gt;Node20</title>
<path fill="none" stroke="midnightblue" d="M311.768,-944.277C327.367,-932.234 349.938,-915.602 371,-903 376.558,-899.674 382.783,-896.439 388.6,-893.608"/>
<polygon fill="midnightblue" stroke="midnightblue" points="309.601,-941.528 303.872,-950.441 313.908,-947.046 309.601,-941.528"/>
</g>
<!-- Node27 -->
<g id="node27" class="node"><title>Node27</title>
<g id="a_node27"><a xlink:href="a00207.html#ae408d8e1c2ab0767d8bfd26d00d1ff6a" target="_top" xlink:title="Normally not used. ">
<polygon fill="white" stroke="black" points="265,-456.5 265,-475.5 317,-475.5 317,-456.5 265,-456.5"/>
<text text-anchor="middle" x="291" y="-463.5" font-family="Helvetica,sans-Serif" font-size="10.00">dbopen</text>
</a>
</g>
</g>
<!-- Node26&#45;&gt;Node27 -->
<g id="edge31" class="edge"><title>Node26&#45;&gt;Node27</title>
<path fill="none" stroke="midnightblue" d="M195.239,-466C218.06,-466 245.465,-466 264.919,-466"/>
<polygon fill="midnightblue" stroke="midnightblue" points="195.12,-462.5 185.12,-466 195.12,-469.5 195.12,-462.5"/>
</g>
<!-- Node29&#45;&gt;Node28 -->
<g id="edge34" class="edge"><title>Node29&#45;&gt;Node28</title>
<path fill="none" stroke="midnightblue" d="M185.286,-702.955C210.009,-709.813 243.566,-719.12 265.96,-725.332"/>
<polygon fill="midnightblue" stroke="midnightblue" points="186.194,-699.575 175.623,-700.275 184.323,-706.32 186.194,-699.575"/>
</g>
<!-- Node29&#45;&gt;Node30 -->
<g id="edge35" class="edge"><title>Node29&#45;&gt;Node30</title>
<path fill="none" stroke="midnightblue" d="M186.04,-690.977C223.948,-688.929 287.048,-689.953 335,-713 366.745,-728.257 392.682,-762.731 403.945,-779.492"/>
<polygon fill="midnightblue" stroke="midnightblue" points="185.341,-687.514 175.589,-691.654 185.794,-694.5 185.341,-687.514"/>
</g>
<!-- Node32 -->
<g id="node32" class="node"><title>Node32</title>
<g id="a_node32"><a xlink:href="a00341.html#ga4e26d949be2c3bf71b1a33c75b11d931" target="_top" xlink:title="Set up query results. ">
<polygon fill="white" stroke="black" points="261.5,-836.5 261.5,-855.5 320.5,-855.5 320.5,-836.5 261.5,-836.5"/>
<text text-anchor="middle" x="291" y="-843.5" font-family="Helvetica,sans-Serif" font-size="10.00">dbresults</text>
</a>
</g>
</g>
<!-- Node31&#45;&gt;Node32 -->
<g id="edge38" class="edge"><title>Node31&#45;&gt;Node32</title>
<path fill="none" stroke="midnightblue" d="M194.935,-846C216.399,-846 241.98,-846 261.197,-846"/>
<polygon fill="midnightblue" stroke="midnightblue" points="194.775,-842.5 184.775,-846 194.775,-849.5 194.775,-842.5"/>
</g>
<!-- Node32&#45;&gt;Node20 -->
<g id="edge40" class="edge"><title>Node32&#45;&gt;Node20</title>
<path fill="none" stroke="midnightblue" d="M330.336,-858.345C346.611,-863.587 365.289,-869.602 380.466,-874.489"/>
<polygon fill="midnightblue" stroke="midnightblue" points="331.156,-854.933 320.565,-855.199 329.01,-861.596 331.156,-854.933"/>
</g>
<!-- Node32&#45;&gt;Node30 -->
<g id="edge39" class="edge"><title>Node32&#45;&gt;Node30</title>
<path fill="none" stroke="midnightblue" d="M320.769,-832.103C342.299,-821.703 371.188,-807.748 390.185,-798.572"/>
<polygon fill="midnightblue" stroke="midnightblue" points="319.233,-828.958 311.751,-836.459 322.277,-835.261 319.233,-828.958"/>
</g>
<!-- Node35 -->
<g id="node35" class="node"><title>Node35</title>
<g id="a_node35"><a xlink:href="a00207.html#af8ada101cd189eff87b3533cbeaaa23b" target="_top" xlink:title="Pivot the rows, creating a new resultset. ">
<polygon fill="white" stroke="black" points="266,-380.5 266,-399.5 316,-399.5 316,-380.5 266,-380.5"/>
<text text-anchor="middle" x="291" y="-387.5" font-family="Helvetica,sans-Serif" font-size="10.00">dbpivot</text>
</a>
</g>
</g>
<!-- Node34&#45;&gt;Node35 -->
<g id="edge44" class="edge"><title>Node34&#45;&gt;Node35</title>
<path fill="none" stroke="midnightblue" d="M185.948,-390C210.605,-390 243.765,-390 265.96,-390"/>
<polygon fill="midnightblue" stroke="midnightblue" points="185.623,-386.5 175.623,-390 185.623,-393.5 185.623,-386.5"/>
</g>
<!-- Node45 -->
<g id="node45" class="node"><title>Node45</title>
<g id="a_node45"><a xlink:href="a00341.html#gaae889abeb145ec41f7361aa8f597fe46" target="_top" xlink:title="send the SQL command to the server and wait for an answer. ">
<polygon fill="white" stroke="black" points="259,-760.5 259,-779.5 323,-779.5 323,-760.5 259,-760.5"/>
<text text-anchor="middle" x="291" y="-767.5" font-family="Helvetica,sans-Serif" font-size="10.00">dbsqlexec</text>
</a>
</g>
</g>
<!-- Node44&#45;&gt;Node45 -->
<g id="edge56" class="edge"><title>Node44&#45;&gt;Node45</title>
<path fill="none" stroke="midnightblue" d="M194.857,-770C215.482,-770 239.924,-770 258.87,-770"/>
<polygon fill="midnightblue" stroke="midnightblue" points="194.775,-766.5 184.775,-770 194.775,-773.5 194.775,-766.5"/>
</g>
<!-- Node45&#45;&gt;Node30 -->
<g id="edge57" class="edge"><title>Node45&#45;&gt;Node30</title>
<path fill="none" stroke="midnightblue" d="M333.119,-776.621C351.923,-779.649 373.403,-783.107 388.87,-785.598"/>
<polygon fill="midnightblue" stroke="midnightblue" points="333.432,-773.126 323.003,-774.992 332.32,-780.037 333.432,-773.126"/>
</g>
</g>
</svg>
