<?xml version="1.0" encoding="UTF-8" standalone="no"?>
<!DOCTYPE svg PUBLIC "-//W3C//DTD SVG 1.1//EN"
 "http://www.w3.org/Graphics/SVG/1.1/DTD/svg11.dtd">
<!-- Generated by graphviz version 2.38.0 (20140413.2041)
 -->
<!-- Title: tds_process_tabname Pages: 1 -->
<svg width="807pt" height="370pt"
 viewBox="0.00 0.00 807.00 370.00" xmlns="http://www.w3.org/2000/svg" xmlns:xlink="http://www.w3.org/1999/xlink">
<g id="graph0" class="graph" transform="scale(1 1) rotate(0) translate(4 366)">
<title>tds_process_tabname</title>
<polygon fill="white" stroke="none" points="-4,4 -4,-366 803,-366 803,4 -4,4"/>
<!-- Node1 -->
<g id="node1" class="node"><title>Node1</title>
<polygon fill="#bfbfbf" stroke="black" points="0,-114.5 0,-133.5 121,-133.5 121,-114.5 0,-114.5"/>
<text text-anchor="middle" x="60.5" y="-121.5" font-family="Helvetica,sans-Serif" font-size="10.00">tds_process_tabname</text>
</g>
<!-- Node2 -->
<g id="node2" class="node"><title>Node2</title>
<g id="a_node2"><a xlink:href="a00357.html#gad38aa5b9547817854ccba1fcc7855861" target="_top" xlink:title="Get an int16 from the server. ">
<polygon fill="white" stroke="black" points="337,-190.5 337,-209.5 435,-209.5 435,-190.5 337,-190.5"/>
<text text-anchor="middle" x="386" y="-197.5" font-family="Helvetica,sans-Serif" font-size="10.00">tds_get_usmallint</text>
</a>
</g>
</g>
<!-- Node1&#45;&gt;Node2 -->
<g id="edge1" class="edge"><title>Node1&#45;&gt;Node2</title>
<path fill="none" stroke="midnightblue" d="M81.1568,-133.569C100.147,-142.441 129.934,-155.384 157,-163 213.523,-178.905 279.978,-188.72 326.512,-194.209"/>
<polygon fill="midnightblue" stroke="midnightblue" points="326.381,-197.716 336.715,-195.38 327.18,-190.762 326.381,-197.716"/>
</g>
<!-- Node5 -->
<g id="node5" class="node"><title>Node5</title>
<g id="a_node5"><a xlink:href="a00359.html#ga7482b5730d880fcedbe9fcd609a550ce" target="_top" xlink:title="Reads table names for TDS 7.1+. ">
<polygon fill="white" stroke="black" points="157,-76.5 157,-95.5 294,-95.5 294,-76.5 157,-76.5"/>
<text text-anchor="middle" x="225.5" y="-83.5" font-family="Helvetica,sans-Serif" font-size="10.00">tds71_read_table_names</text>
</a>
</g>
</g>
<!-- Node1&#45;&gt;Node5 -->
<g id="edge4" class="edge"><title>Node1&#45;&gt;Node5</title>
<path fill="none" stroke="midnightblue" d="M102.632,-114.411C124.238,-109.374 150.909,-103.156 173.786,-97.8229"/>
<polygon fill="midnightblue" stroke="midnightblue" points="174.72,-101.199 183.664,-95.5201 173.13,-94.3819 174.72,-101.199"/>
</g>
<!-- Node6 -->
<g id="node6" class="node"><title>Node6</title>
<g id="a_node6"><a xlink:href="a00359.html#ga21e9de33de9c8c492aa2f96c823596bb" target="_top" xlink:title="Frees list of names. ">
<polygon fill="white" stroke="black" points="335.5,-76.5 335.5,-95.5 436.5,-95.5 436.5,-76.5 335.5,-76.5"/>
<text text-anchor="middle" x="386" y="-83.5" font-family="Helvetica,sans-Serif" font-size="10.00">tds_free_namelist</text>
</a>
</g>
</g>
<!-- Node1&#45;&gt;Node6 -->
<g id="edge19" class="edge"><title>Node1&#45;&gt;Node6</title>
<path fill="none" stroke="midnightblue" d="M72.8942,-114.354C89.8927,-100.665 123.495,-76.2386 157,-67 220.321,-49.5399 296.973,-62.565 343.312,-73.9762"/>
<polygon fill="midnightblue" stroke="midnightblue" points="342.45,-77.3685 353.005,-76.4494 344.181,-70.5858 342.45,-77.3685"/>
</g>
<!-- Node7 -->
<g id="node7" class="node"><title>Node7</title>
<g id="a_node7"><a xlink:href="a00357.html#ga0cb72d3f6943795c39db1fa692be0a58" target="_top" xlink:title="Return a single byte from the input buffer. ">
<polygon fill="white" stroke="black" points="347.5,-152.5 347.5,-171.5 424.5,-171.5 424.5,-152.5 347.5,-152.5"/>
<text text-anchor="middle" x="386" y="-159.5" font-family="Helvetica,sans-Serif" font-size="10.00">tds_get_byte</text>
</a>
</g>
</g>
<!-- Node1&#45;&gt;Node7 -->
<g id="edge20" class="edge"><title>Node1&#45;&gt;Node7</title>
<path fill="none" stroke="midnightblue" d="M104.11,-133.55C120.565,-136.956 139.59,-140.551 157,-143 218.982,-151.72 291.048,-156.904 337.299,-159.601"/>
<polygon fill="midnightblue" stroke="midnightblue" points="337.152,-163.098 347.334,-160.171 337.548,-156.109 337.152,-163.098"/>
</g>
<!-- Node12 -->
<g id="node12" class="node"><title>Node12</title>
<g id="a_node12"><a xlink:href="a00359.html#gaeaaed2ea1d8c827da1a0f5b419524ae1" target="_top" xlink:title="Reads list of names (usually table names) ">
<polygon fill="white" stroke="black" points="173.5,-114.5 173.5,-133.5 277.5,-133.5 277.5,-114.5 173.5,-114.5"/>
<text text-anchor="middle" x="225.5" y="-121.5" font-family="Helvetica,sans-Serif" font-size="10.00">tds_read_namelist</text>
</a>
</g>
</g>
<!-- Node1&#45;&gt;Node12 -->
<g id="edge14" class="edge"><title>Node1&#45;&gt;Node12</title>
<path fill="none" stroke="midnightblue" d="M121.27,-124C134.882,-124 149.366,-124 163.047,-124"/>
<polygon fill="midnightblue" stroke="midnightblue" points="163.324,-127.5 173.324,-124 163.324,-120.5 163.324,-127.5"/>
</g>
<!-- Node13 -->
<g id="node13" class="node"><title>Node13</title>
<g id="a_node13"><a xlink:href="a00357.html#gad70d59fb317d098b0c9fd29dd77131a8" target="_top" xlink:title="Unget will always work as long as you don&#39;t call it twice in a row. ">
<polygon fill="white" stroke="black" points="181,-0.5 181,-19.5 270,-19.5 270,-0.5 181,-0.5"/>
<text text-anchor="middle" x="225.5" y="-7.5" font-family="Helvetica,sans-Serif" font-size="10.00">tds_unget_byte</text>
</a>
</g>
</g>
<!-- Node1&#45;&gt;Node13 -->
<g id="edge21" class="edge"><title>Node1&#45;&gt;Node13</title>
<path fill="none" stroke="midnightblue" d="M69.1883,-114.498C84.2556,-96.4411 119.485,-56.9332 157,-34 163.941,-29.7571 171.741,-26.1157 179.509,-23.0452"/>
<polygon fill="midnightblue" stroke="midnightblue" points="180.735,-26.3236 188.907,-19.5812 178.314,-19.7555 180.735,-26.3236"/>
</g>
<!-- Node14 -->
<g id="node14" class="node"><title>Node14</title>
<g id="a_node14"><a xlink:href="a00359.html#ga22c7f413d43fc0d511e122a3de389166" target="_top" xlink:title="Reads column information. ">
<polygon fill="white" stroke="black" points="170,-228.5 170,-247.5 281,-247.5 281,-228.5 170,-228.5"/>
<text text-anchor="middle" x="225.5" y="-235.5" font-family="Helvetica,sans-Serif" font-size="10.00">tds_process_colinfo</text>
</a>
</g>
</g>
<!-- Node1&#45;&gt;Node14 -->
<g id="edge22" class="edge"><title>Node1&#45;&gt;Node14</title>
<path fill="none" stroke="midnightblue" d="M69.1883,-133.502C84.2556,-151.559 119.485,-191.067 157,-214 163.941,-218.243 171.741,-221.884 179.509,-224.955"/>
<polygon fill="midnightblue" stroke="midnightblue" points="178.314,-228.244 188.907,-228.419 180.735,-221.676 178.314,-228.244"/>
</g>
<!-- Node3 -->
<g id="node3" class="node"><title>Node3</title>
<g id="a_node3"><a xlink:href="a00357.html#gae7d9c4e1a079e1d0aa0252732631e8c4" target="_top" xlink:title="Get N bytes from the buffer and return them in the already allocated space given to us...">
<polygon fill="white" stroke="black" points="603,-152.5 603,-171.5 667,-171.5 667,-152.5 603,-152.5"/>
<text text-anchor="middle" x="635" y="-159.5" font-family="Helvetica,sans-Serif" font-size="10.00">tds_get_n</text>
</a>
</g>
</g>
<!-- Node2&#45;&gt;Node3 -->
<g id="edge2" class="edge"><title>Node2&#45;&gt;Node3</title>
<path fill="none" stroke="midnightblue" d="M435.21,-192.583C481.091,-185.524 549.39,-175.017 592.797,-168.339"/>
<polygon fill="midnightblue" stroke="midnightblue" points="593.38,-171.79 602.732,-166.81 592.316,-164.872 593.38,-171.79"/>
</g>
<!-- Node4 -->
<g id="node4" class="node"><title>Node4</title>
<g id="a_node4"><a xlink:href="a00357.html#ga410619783bdf2bb60b0f27a5578e0e07" target="_top" xlink:title="Read in one &#39;packet&#39; from the server. ">
<polygon fill="white" stroke="red" points="703,-114.5 703,-133.5 799,-133.5 799,-114.5 703,-114.5"/>
<text text-anchor="middle" x="751" y="-121.5" font-family="Helvetica,sans-Serif" font-size="10.00">tds_read_packet</text>
</a>
</g>
</g>
<!-- Node3&#45;&gt;Node4 -->
<g id="edge3" class="edge"><title>Node3&#45;&gt;Node4</title>
<path fill="none" stroke="midnightblue" d="M664.767,-152.411C678.943,-147.686 696.237,-141.921 711.532,-136.823"/>
<polygon fill="midnightblue" stroke="midnightblue" points="712.862,-140.069 721.242,-133.586 710.649,-133.428 712.862,-140.069"/>
</g>
<!-- Node5&#45;&gt;Node2 -->
<g id="edge8" class="edge"><title>Node5&#45;&gt;Node2</title>
<path fill="none" stroke="midnightblue" d="M278.589,-95.6278C284.157,-98.0788 289.443,-101.151 294,-105 322.553,-129.118 302.162,-156.061 330,-181 331.742,-182.561 333.62,-183.995 335.593,-185.312"/>
<polygon fill="midnightblue" stroke="midnightblue" points="334.296,-188.595 344.741,-190.372 337.684,-182.469 334.296,-188.595"/>
</g>
<!-- Node5&#45;&gt;Node6 -->
<g id="edge5" class="edge"><title>Node5&#45;&gt;Node6</title>
<path fill="none" stroke="midnightblue" d="M294.178,-86C304.419,-86 314.924,-86 324.989,-86"/>
<polygon fill="midnightblue" stroke="midnightblue" points="325.288,-89.5001 335.288,-86 325.288,-82.5001 325.288,-89.5001"/>
</g>
<!-- Node5&#45;&gt;Node7 -->
<g id="edge6" class="edge"><title>Node5&#45;&gt;Node7</title>
<path fill="none" stroke="midnightblue" d="M273.264,-95.5942C280.484,-98.0716 287.643,-101.16 294,-105 313.913,-117.029 310.445,-130.396 330,-143 333.113,-145.006 336.462,-146.827 339.915,-148.475"/>
<polygon fill="midnightblue" stroke="midnightblue" points="338.64,-151.737 349.212,-152.442 341.387,-145.298 338.64,-151.737"/>
</g>
<!-- Node8 -->
<g id="node8" class="node"><title>Node8</title>
<g id="a_node8"><a xlink:href="a00359.html#gafb26aba5d935e40b87b95e21a5185848" target="_top" xlink:title="Reads a string from wire in a new allocated buffer. ">
<polygon fill="white" stroke="black" points="330,-114.5 330,-133.5 442,-133.5 442,-114.5 330,-114.5"/>
<text text-anchor="middle" x="386" y="-121.5" font-family="Helvetica,sans-Serif" font-size="10.00">tds_alloc_get_string</text>
</a>
</g>
</g>
<!-- Node5&#45;&gt;Node8 -->
<g id="edge9" class="edge"><title>Node5&#45;&gt;Node8</title>
<path fill="none" stroke="midnightblue" d="M266.496,-95.589C287.412,-100.604 313.208,-106.788 335.386,-112.105"/>
<polygon fill="midnightblue" stroke="midnightblue" points="334.751,-115.552 345.291,-114.48 336.383,-108.745 334.751,-115.552"/>
</g>
<!-- Node10 -->
<g id="node10" class="node"><title>Node10</title>
<g id="a_node10"><a xlink:href="a00356.html#ga8d8f2f1c91635ee95f30722208ae3043" target="_top" xlink:title="Quote an id. ">
<polygon fill="white" stroke="black" points="347.5,-38.5 347.5,-57.5 424.5,-57.5 424.5,-38.5 347.5,-38.5"/>
<text text-anchor="middle" x="386" y="-45.5" font-family="Helvetica,sans-Serif" font-size="10.00">tds_quote_id</text>
</a>
</g>
</g>
<!-- Node5&#45;&gt;Node10 -->
<g id="edge12" class="edge"><title>Node5&#45;&gt;Node10</title>
<path fill="none" stroke="midnightblue" d="M266.496,-76.411C288.145,-71.2207 315.023,-64.7768 337.705,-59.3388"/>
<polygon fill="midnightblue" stroke="midnightblue" points="338.561,-62.733 347.469,-56.9979 336.929,-55.9259 338.561,-62.733"/>
</g>
<!-- Node7&#45;&gt;Node4 -->
<g id="edge7" class="edge"><title>Node7&#45;&gt;Node4</title>
<path fill="none" stroke="midnightblue" d="M422.788,-152.442C429.445,-149.897 436.141,-146.776 442,-143 461.555,-130.396 456.629,-114.192 478,-105 556.641,-71.1741 659.912,-94.6208 713.77,-111.303"/>
<polygon fill="midnightblue" stroke="midnightblue" points="712.956,-114.717 723.547,-114.427 715.087,-108.049 712.956,-114.717"/>
</g>
<!-- Node9 -->
<g id="node9" class="node"><title>Node9</title>
<g id="a_node9"><a xlink:href="a00357.html#ga90f080e6e9448feac15dee1370d66802" target="_top" xlink:title="Fetch a string from the wire. ">
<polygon fill="white" stroke="red" points="480.5,-114.5 480.5,-133.5 564.5,-133.5 564.5,-114.5 480.5,-114.5"/>
<text text-anchor="middle" x="522.5" y="-121.5" font-family="Helvetica,sans-Serif" font-size="10.00">tds_get_string</text>
</a>
</g>
</g>
<!-- Node8&#45;&gt;Node9 -->
<g id="edge10" class="edge"><title>Node8&#45;&gt;Node9</title>
<path fill="none" stroke="midnightblue" d="M442.094,-124C451.371,-124 460.967,-124 470.145,-124"/>
<polygon fill="midnightblue" stroke="midnightblue" points="470.289,-127.5 480.289,-124 470.289,-120.5 470.289,-127.5"/>
</g>
<!-- Node9&#45;&gt;Node3 -->
<g id="edge11" class="edge"><title>Node9&#45;&gt;Node3</title>
<path fill="none" stroke="midnightblue" d="M551.384,-133.589C564.994,-138.269 581.568,-143.969 596.289,-149.032"/>
<polygon fill="midnightblue" stroke="midnightblue" points="595.53,-152.472 606.125,-152.414 597.807,-145.852 595.53,-152.472"/>
</g>
<!-- Node11 -->
<g id="node11" class="node"><title>Node11</title>
<g id="a_node11"><a xlink:href="a00356.html#ga7efaa23c3b21158ffc963f85fbc3fdf4" target="_top" xlink:title="Quote a string properly. ">
<polygon fill="white" stroke="black" points="491,-38.5 491,-57.5 554,-57.5 554,-38.5 491,-38.5"/>
<text text-anchor="middle" x="522.5" y="-45.5" font-family="Helvetica,sans-Serif" font-size="10.00">tds_quote</text>
</a>
</g>
</g>
<!-- Node10&#45;&gt;Node11 -->
<g id="edge13" class="edge"><title>Node10&#45;&gt;Node11</title>
<path fill="none" stroke="midnightblue" d="M424.824,-48C442.231,-48 462.914,-48 480.674,-48"/>
<polygon fill="midnightblue" stroke="midnightblue" points="480.746,-51.5001 490.746,-48 480.746,-44.5001 480.746,-51.5001"/>
</g>
<!-- Node12&#45;&gt;Node2 -->
<g id="edge16" class="edge"><title>Node12&#45;&gt;Node2</title>
<path fill="none" stroke="midnightblue" d="M241.856,-133.547C261.703,-145.628 297.567,-166.594 330,-181 334.726,-183.099 339.761,-185.119 344.792,-187.006"/>
<polygon fill="midnightblue" stroke="midnightblue" points="343.787,-190.364 354.381,-190.46 346.159,-183.778 343.787,-190.364"/>
</g>
<!-- Node12&#45;&gt;Node6 -->
<g id="edge15" class="edge"><title>Node12&#45;&gt;Node6</title>
<path fill="none" stroke="midnightblue" d="M266.496,-114.411C287.412,-109.396 313.208,-103.212 335.386,-97.8947"/>
<polygon fill="midnightblue" stroke="midnightblue" points="336.383,-101.255 345.291,-95.5201 334.751,-94.448 336.383,-101.255"/>
</g>
<!-- Node12&#45;&gt;Node7 -->
<g id="edge17" class="edge"><title>Node12&#45;&gt;Node7</title>
<path fill="none" stroke="midnightblue" d="M266.496,-133.589C288.145,-138.779 315.023,-145.223 337.705,-150.661"/>
<polygon fill="midnightblue" stroke="midnightblue" points="336.929,-154.074 347.469,-153.002 338.561,-147.267 336.929,-154.074"/>
</g>
<!-- Node12&#45;&gt;Node8 -->
<g id="edge18" class="edge"><title>Node12&#45;&gt;Node8</title>
<path fill="none" stroke="midnightblue" d="M277.523,-124C290.995,-124 305.719,-124 319.828,-124"/>
<polygon fill="midnightblue" stroke="midnightblue" points="319.966,-127.5 329.966,-124 319.966,-120.5 319.966,-127.5"/>
</g>
<!-- Node14&#45;&gt;Node2 -->
<g id="edge23" class="edge"><title>Node14&#45;&gt;Node2</title>
<path fill="none" stroke="midnightblue" d="M266.496,-228.411C287.412,-223.396 313.208,-217.212 335.386,-211.895"/>
<polygon fill="midnightblue" stroke="midnightblue" points="336.383,-215.255 345.291,-209.52 334.751,-208.448 336.383,-215.255"/>
</g>
<!-- Node14&#45;&gt;Node3 -->
<g id="edge24" class="edge"><title>Node14&#45;&gt;Node3</title>
<path fill="none" stroke="midnightblue" d="M242.169,-247.531C293.227,-277.242 457.79,-362.269 567,-295 607.584,-270.002 624.462,-212.032 630.731,-181.544"/>
<polygon fill="midnightblue" stroke="midnightblue" points="634.18,-182.142 632.584,-171.668 627.3,-180.85 634.18,-182.142"/>
</g>
<!-- Node14&#45;&gt;Node7 -->
<g id="edge27" class="edge"><title>Node14&#45;&gt;Node7</title>
<path fill="none" stroke="midnightblue" d="M241.856,-228.453C261.703,-216.372 297.567,-195.406 330,-181 334.726,-178.901 339.761,-176.881 344.792,-174.994"/>
<polygon fill="midnightblue" stroke="midnightblue" points="346.159,-178.222 354.381,-171.54 343.787,-171.636 346.159,-178.222"/>
</g>
<!-- Node15 -->
<g id="node15" class="node"><title>Node15</title>
<g id="a_node15"><a xlink:href="a00358.html#gad96366d9fa93bfc283cef1299fbe97ab" target="_top" xlink:title="copy a string from another ">
<polygon fill="white" stroke="black" points="344.5,-342.5 344.5,-361.5 427.5,-361.5 427.5,-342.5 344.5,-342.5"/>
<text text-anchor="middle" x="386" y="-349.5" font-family="Helvetica,sans-Serif" font-size="10.00">tds_dstr_copy</text>
</a>
</g>
</g>
<!-- Node14&#45;&gt;Node15 -->
<g id="edge25" class="edge"><title>Node14&#45;&gt;Node15</title>
<path fill="none" stroke="midnightblue" d="M235.693,-247.761C252.862,-265.562 291.553,-303.702 330,-328 335.976,-331.777 342.649,-335.238 349.229,-338.285"/>
<polygon fill="midnightblue" stroke="midnightblue" points="348.146,-341.632 358.71,-342.442 350.957,-335.221 348.146,-341.632"/>
</g>
<!-- Node17 -->
<g id="node17" class="node"><title>Node17</title>
<g id="a_node17"><a xlink:href="a00357.html#gafae08056186b143f3ef1399307dc9be7" target="_top" xlink:title="Reads a string from wire and put in a DSTR. ">
<polygon fill="white" stroke="black" points="348,-228.5 348,-247.5 424,-247.5 424,-228.5 348,-228.5"/>
<text text-anchor="middle" x="386" y="-235.5" font-family="Helvetica,sans-Serif" font-size="10.00">tds_dstr_get</text>
</a>
</g>
</g>
<!-- Node14&#45;&gt;Node17 -->
<g id="edge28" class="edge"><title>Node14&#45;&gt;Node17</title>
<path fill="none" stroke="midnightblue" d="M281.047,-238C299.461,-238 319.853,-238 337.663,-238"/>
<polygon fill="midnightblue" stroke="midnightblue" points="337.817,-241.5 347.817,-238 337.817,-234.5 337.817,-241.5"/>
</g>
<!-- Node16 -->
<g id="node16" class="node"><title>Node16</title>
<g id="a_node16"><a xlink:href="a00358.html#ga656718f240d7403f986ae887d84a6ca1" target="_top" xlink:title="Set string to a given buffer of characters. ">
<polygon fill="white" stroke="black" points="478,-342.5 478,-361.5 567,-361.5 567,-342.5 478,-342.5"/>
<text text-anchor="middle" x="522.5" y="-349.5" font-family="Helvetica,sans-Serif" font-size="10.00">tds_dstr_copyn</text>
</a>
</g>
</g>
<!-- Node15&#45;&gt;Node16 -->
<g id="edge26" class="edge"><title>Node15&#45;&gt;Node16</title>
<path fill="none" stroke="midnightblue" d="M427.719,-352C440.288,-352 454.33,-352 467.642,-352"/>
<polygon fill="midnightblue" stroke="midnightblue" points="467.643,-355.5 477.643,-352 467.643,-348.5 467.643,-355.5"/>
</g>
<!-- Node17&#45;&gt;Node3 -->
<g id="edge30" class="edge"><title>Node17&#45;&gt;Node3</title>
<path fill="none" stroke="midnightblue" d="M422.379,-228.486C458.821,-218.521 517.168,-202.106 567,-186 577.424,-182.631 588.665,-178.717 598.905,-175.039"/>
<polygon fill="midnightblue" stroke="midnightblue" points="600.151,-178.311 608.358,-171.611 597.764,-171.73 600.151,-178.311"/>
</g>
<!-- Node17&#45;&gt;Node9 -->
<g id="edge31" class="edge"><title>Node17&#45;&gt;Node9</title>
<path fill="none" stroke="midnightblue" d="M423.845,-228.389C430.194,-225.878 436.51,-222.783 442,-219 457.852,-208.078 490.409,-165.977 508.556,-141.643"/>
<polygon fill="midnightblue" stroke="midnightblue" points="511.394,-143.692 514.533,-133.573 505.769,-139.526 511.394,-143.692"/>
</g>
<!-- Node18 -->
<g id="node18" class="node"><title>Node18</title>
<g id="a_node18"><a xlink:href="a00358.html#ga6aa14b8b717b51afcfb65bd55143689d" target="_top" xlink:title="allocate space for length char ">
<polygon fill="white" stroke="black" points="481,-266.5 481,-285.5 564,-285.5 564,-266.5 481,-266.5"/>
<text text-anchor="middle" x="522.5" y="-273.5" font-family="Helvetica,sans-Serif" font-size="10.00">tds_dstr_alloc</text>
</a>
</g>
</g>
<!-- Node17&#45;&gt;Node18 -->
<g id="edge29" class="edge"><title>Node17&#45;&gt;Node18</title>
<path fill="none" stroke="midnightblue" d="M420.94,-247.589C438.223,-252.472 459.433,-258.464 477.911,-263.685"/>
<polygon fill="midnightblue" stroke="midnightblue" points="476.996,-267.063 487.571,-266.414 478.899,-260.327 476.996,-267.063"/>
</g>
<!-- Node19 -->
<g id="node19" class="node"><title>Node19</title>
<g id="a_node19"><a xlink:href="a00358.html#ga0cd7863ba7c2d2da4a193234472a3d14" target="_top" xlink:title="limit length of string, MUST be &lt;= current length ">
<polygon fill="white" stroke="black" points="478,-228.5 478,-247.5 567,-247.5 567,-228.5 478,-228.5"/>
<text text-anchor="middle" x="522.5" y="-235.5" font-family="Helvetica,sans-Serif" font-size="10.00">tds_dstr_setlen</text>
</a>
</g>
</g>
<!-- Node17&#45;&gt;Node19 -->
<g id="edge32" class="edge"><title>Node17&#45;&gt;Node19</title>
<path fill="none" stroke="midnightblue" d="M424.109,-238C437.499,-238 452.899,-238 467.442,-238"/>
<polygon fill="midnightblue" stroke="midnightblue" points="467.839,-241.5 477.839,-238 467.839,-234.5 467.839,-241.5"/>
</g>
</g>
</svg>
