<?xml version="1.0" encoding="UTF-8" standalone="no"?>
<!DOCTYPE svg PUBLIC "-//W3C//DTD SVG 1.1//EN"
 "http://www.w3.org/Graphics/SVG/1.1/DTD/svg11.dtd">
<!-- Generated by graphviz version 2.38.0 (20140413.2041)
 -->
<!-- Title: dbuse Pages: 1 -->
<svg width="533pt" height="489pt"
 viewBox="0.00 0.00 533.00 489.38" xmlns="http://www.w3.org/2000/svg" xmlns:xlink="http://www.w3.org/1999/xlink">
<g id="graph0" class="graph" transform="scale(1 1) rotate(0) translate(4 485.379)">
<title>dbuse</title>
<polygon fill="white" stroke="none" points="-4,4 -4,-485.379 529,-485.379 529,4 -4,4"/>
<!-- Node1 -->
<g id="node1" class="node"><title>Node1</title>
<polygon fill="#bfbfbf" stroke="black" points="0,-285.5 0,-304.5 44,-304.5 44,-285.5 0,-285.5"/>
<text text-anchor="middle" x="22" y="-292.5" font-family="Helvetica,sans-Serif" font-size="10.00">dbuse</text>
</g>
<!-- Node2 -->
<g id="node2" class="node"><title>Node2</title>
<g id="a_node2"><a xlink:href="a00193.html#ab45c291105027e69836002e1dd586141" target="_top" xlink:title="Write a message to the debug log. ">
<polygon fill="white" stroke="black" points="448,-304.5 448,-323.5 525,-323.5 525,-304.5 448,-304.5"/>
<text text-anchor="middle" x="486.5" y="-311.5" font-family="Helvetica,sans-Serif" font-size="10.00">tdsdump_log</text>
</a>
</g>
</g>
<!-- Node1&#45;&gt;Node2 -->
<g id="edge1" class="edge"><title>Node1&#45;&gt;Node2</title>
<path fill="none" stroke="midnightblue" d="M23.977,-304.708C27.0596,-329.853 38.9589,-397.407 80,-430 157.704,-491.708 201.137,-459.525 300,-468 349.596,-472.252 369.898,-494.557 412,-468 459.5,-438.038 476.956,-368.004 482.816,-333.675"/>
<polygon fill="midnightblue" stroke="midnightblue" points="486.319,-333.928 484.386,-323.511 479.401,-332.86 486.319,-333.928"/>
</g>
<!-- Node3 -->
<g id="node3" class="node"><title>Node3</title>
<g id="a_node3"><a xlink:href="a00356.html#ga8d8f2f1c91635ee95f30722208ae3043" target="_top" xlink:title="Quote an id. ">
<polygon fill="white" stroke="black" points="80,-38.5 80,-57.5 157,-57.5 157,-38.5 80,-38.5"/>
<text text-anchor="middle" x="118.5" y="-45.5" font-family="Helvetica,sans-Serif" font-size="10.00">tds_quote_id</text>
</a>
</g>
</g>
<!-- Node1&#45;&gt;Node3 -->
<g id="edge2" class="edge"><title>Node1&#45;&gt;Node3</title>
<path fill="none" stroke="midnightblue" d="M26.7045,-285.317C40.7882,-248.506 91.1634,-116.838 110.171,-67.1575"/>
<polygon fill="midnightblue" stroke="midnightblue" points="113.517,-68.2062 113.821,-57.6158 106.979,-65.7049 113.517,-68.2062"/>
</g>
<!-- Node5 -->
<g id="node5" class="node"><title>Node5</title>
<g id="a_node5"><a xlink:href="a00347.html#ga302a4ce6559b81808e3be51615cd1b67" target="_top" xlink:title="Call client&#45;installed error handler. ">
<polygon fill="white" stroke="black" points="327.5,-380.5 327.5,-399.5 384.5,-399.5 384.5,-380.5 327.5,-380.5"/>
<text text-anchor="middle" x="356" y="-387.5" font-family="Helvetica,sans-Serif" font-size="10.00">dbperror</text>
</a>
</g>
</g>
<!-- Node1&#45;&gt;Node5 -->
<g id="edge4" class="edge"><title>Node1&#45;&gt;Node5</title>
<path fill="none" stroke="midnightblue" d="M44.0302,-302.301C54.7531,-305.95 68.0259,-310.352 80,-314 164.179,-339.643 263.961,-366.296 317.15,-380.208"/>
<polygon fill="midnightblue" stroke="midnightblue" points="316.588,-383.679 327.148,-382.816 318.355,-376.905 316.588,-383.679"/>
</g>
<!-- Node6 -->
<g id="node6" class="node"><title>Node6</title>
<g id="a_node6"><a xlink:href="a00341.html#ga87b39d9863316b4ba85654b0885d53a0" target="_top" xlink:title="Append SQL to the command buffer. ">
<polygon fill="white" stroke="black" points="205,-418.5 205,-437.5 252,-437.5 252,-418.5 205,-418.5"/>
<text text-anchor="middle" x="228.5" y="-425.5" font-family="Helvetica,sans-Serif" font-size="10.00">dbcmd</text>
</a>
</g>
</g>
<!-- Node1&#45;&gt;Node6 -->
<g id="edge6" class="edge"><title>Node1&#45;&gt;Node6</title>
<path fill="none" stroke="midnightblue" d="M25.0176,-304.778C30.0582,-326.537 45.3673,-379.006 80,-404 113.55,-428.212 162.539,-431.572 194.712,-430.664"/>
<polygon fill="midnightblue" stroke="midnightblue" points="195.095,-434.15 204.932,-430.216 194.788,-427.157 195.095,-434.15"/>
</g>
<!-- Node8 -->
<g id="node8" class="node"><title>Node8</title>
<g id="a_node8"><a xlink:href="a00341.html#gaae889abeb145ec41f7361aa8f597fe46" target="_top" xlink:title="send the SQL command to the server and wait for an answer. ">
<polygon fill="white" stroke="black" points="86.5,-285.5 86.5,-304.5 150.5,-304.5 150.5,-285.5 86.5,-285.5"/>
<text text-anchor="middle" x="118.5" y="-292.5" font-family="Helvetica,sans-Serif" font-size="10.00">dbsqlexec</text>
</a>
</g>
</g>
<!-- Node1&#45;&gt;Node8 -->
<g id="edge11" class="edge"><title>Node1&#45;&gt;Node8</title>
<path fill="none" stroke="midnightblue" d="M44.4435,-295C53.8525,-295 65.2309,-295 76.178,-295"/>
<polygon fill="midnightblue" stroke="midnightblue" points="76.4631,-298.5 86.4631,-295 76.4631,-291.5 76.4631,-298.5"/>
</g>
<!-- Node14 -->
<g id="node14" class="node"><title>Node14</title>
<g id="a_node14"><a xlink:href="a00341.html#ga4e26d949be2c3bf71b1a33c75b11d931" target="_top" xlink:title="Set up query results. ">
<polygon fill="white" stroke="black" points="89,-228.5 89,-247.5 148,-247.5 148,-228.5 89,-228.5"/>
<text text-anchor="middle" x="118.5" y="-235.5" font-family="Helvetica,sans-Serif" font-size="10.00">dbresults</text>
</a>
</g>
</g>
<!-- Node1&#45;&gt;Node14 -->
<g id="edge23" class="edge"><title>Node1&#45;&gt;Node14</title>
<path fill="none" stroke="midnightblue" d="M39.0306,-285.331C53.7817,-276.433 75.8805,-263.104 92.8714,-252.855"/>
<polygon fill="midnightblue" stroke="midnightblue" points="94.9509,-255.688 101.706,-247.526 91.3354,-249.694 94.9509,-255.688"/>
</g>
<!-- Node16 -->
<g id="node16" class="node"><title>Node16</title>
<g id="a_node16"><a xlink:href="a00341.html#ga559e24ba70d0d96c3469eb6ab8f74e05" target="_top" xlink:title="Cancel the query currently being retrieved, discarding all pending rows. ">
<polygon fill="white" stroke="black" points="193,-38.5 193,-57.5 264,-57.5 264,-38.5 193,-38.5"/>
<text text-anchor="middle" x="228.5" y="-45.5" font-family="Helvetica,sans-Serif" font-size="10.00">dbcanquery</text>
</a>
</g>
</g>
<!-- Node1&#45;&gt;Node16 -->
<g id="edge29" class="edge"><title>Node1&#45;&gt;Node16</title>
<path fill="none" stroke="midnightblue" d="M30.3414,-285.134C41.1604,-270.612 62.0469,-242.644 80,-219 129.834,-153.37 133.361,-128.868 193,-72 196.149,-68.9978 199.702,-66.0922 203.301,-63.401"/>
<polygon fill="midnightblue" stroke="midnightblue" points="205.438,-66.1767 211.612,-57.5661 201.416,-60.4477 205.438,-66.1767"/>
</g>
<!-- Node4 -->
<g id="node4" class="node"><title>Node4</title>
<g id="a_node4"><a xlink:href="a00356.html#ga7efaa23c3b21158ffc963f85fbc3fdf4" target="_top" xlink:title="Quote a string properly. ">
<polygon fill="white" stroke="black" points="197,-0.5 197,-19.5 260,-19.5 260,-0.5 197,-0.5"/>
<text text-anchor="middle" x="228.5" y="-7.5" font-family="Helvetica,sans-Serif" font-size="10.00">tds_quote</text>
</a>
</g>
</g>
<!-- Node3&#45;&gt;Node4 -->
<g id="edge3" class="edge"><title>Node3&#45;&gt;Node4</title>
<path fill="none" stroke="midnightblue" d="M146.753,-38.411C160.055,-33.7306 176.254,-28.0308 190.642,-22.9685"/>
<polygon fill="midnightblue" stroke="midnightblue" points="191.984,-26.2067 200.256,-19.5859 189.661,-19.6035 191.984,-26.2067"/>
</g>
<!-- Node5&#45;&gt;Node2 -->
<g id="edge5" class="edge"><title>Node5&#45;&gt;Node2</title>
<path fill="none" stroke="midnightblue" d="M381.888,-380.41C391.508,-376.378 402.472,-371.374 412,-366 430.941,-355.316 451.003,-340.886 465.373,-329.938"/>
<polygon fill="midnightblue" stroke="midnightblue" points="467.754,-332.521 473.524,-323.636 463.472,-326.984 467.754,-332.521"/>
</g>
<!-- Node6&#45;&gt;Node2 -->
<g id="edge7" class="edge"><title>Node6&#45;&gt;Node2</title>
<path fill="none" stroke="midnightblue" d="M249.803,-437.509C285.383,-452.656 360.144,-477.59 412,-447 453.891,-422.288 473.565,-364.192 481.295,-333.612"/>
<polygon fill="midnightblue" stroke="midnightblue" points="484.743,-334.238 483.622,-323.703 477.929,-332.638 484.743,-334.238"/>
</g>
<!-- Node6&#45;&gt;Node5 -->
<g id="edge10" class="edge"><title>Node6&#45;&gt;Node5</title>
<path fill="none" stroke="midnightblue" d="M252.227,-421.118C270.399,-415.616 296.256,-407.787 317.487,-401.358"/>
<polygon fill="midnightblue" stroke="midnightblue" points="318.621,-404.672 327.178,-398.424 316.593,-397.972 318.621,-404.672"/>
</g>
<!-- Node7 -->
<g id="node7" class="node"><title>Node7</title>
<g id="a_node7"><a xlink:href="a00341.html#ga0fcfcf6846442dac9dd5584d270ec72a" target="_top" xlink:title="Erase the command buffer, in case DBNOAUTOFREE was set with dbsetopt(). ">
<polygon fill="white" stroke="black" points="326,-418.5 326,-437.5 386,-437.5 386,-418.5 326,-418.5"/>
<text text-anchor="middle" x="356" y="-425.5" font-family="Helvetica,sans-Serif" font-size="10.00">dbfreebuf</text>
</a>
</g>
</g>
<!-- Node6&#45;&gt;Node7 -->
<g id="edge8" class="edge"><title>Node6&#45;&gt;Node7</title>
<path fill="none" stroke="midnightblue" d="M252.227,-428C269.872,-428 294.762,-428 315.629,-428"/>
<polygon fill="midnightblue" stroke="midnightblue" points="315.806,-431.5 325.806,-428 315.806,-424.5 315.806,-431.5"/>
</g>
<!-- Node7&#45;&gt;Node2 -->
<g id="edge9" class="edge"><title>Node7&#45;&gt;Node2</title>
<path fill="none" stroke="midnightblue" d="M386.215,-421.363C395.021,-418.483 404.367,-414.478 412,-409 440.52,-388.533 463.314,-353.905 475.58,-332.589"/>
<polygon fill="midnightblue" stroke="midnightblue" points="478.793,-334.013 480.597,-323.573 472.676,-330.61 478.793,-334.013"/>
</g>
<!-- Node8&#45;&gt;Node2 -->
<g id="edge12" class="edge"><title>Node8&#45;&gt;Node2</title>
<path fill="none" stroke="midnightblue" d="M150.311,-304.544C163.35,-308.169 178.785,-311.922 193,-314 278.559,-326.508 379.706,-322.377 437.853,-318.208"/>
<polygon fill="midnightblue" stroke="midnightblue" points="438.137,-321.696 447.848,-317.46 437.615,-314.716 438.137,-321.696"/>
</g>
<!-- Node9 -->
<g id="node9" class="node"><title>Node9</title>
<g id="a_node9"><a xlink:href="a00341.html#gac980139b9cea03cf93e373d425991481" target="_top" xlink:title="Transmit the command buffer to the server. ">
<polygon fill="white" stroke="black" points="196,-285.5 196,-304.5 261,-304.5 261,-285.5 196,-285.5"/>
<text text-anchor="middle" x="228.5" y="-292.5" font-family="Helvetica,sans-Serif" font-size="10.00">dbsqlsend</text>
</a>
</g>
</g>
<!-- Node8&#45;&gt;Node9 -->
<g id="edge13" class="edge"><title>Node8&#45;&gt;Node9</title>
<path fill="none" stroke="midnightblue" d="M150.738,-295C161.724,-295 174.248,-295 185.948,-295"/>
<polygon fill="midnightblue" stroke="midnightblue" points="185.958,-298.5 195.958,-295 185.958,-291.5 185.958,-298.5"/>
</g>
<!-- Node12 -->
<g id="node12" class="node"><title>Node12</title>
<g id="a_node12"><a xlink:href="a00341.html#gae1f50a6a2c31fda57cb481922b06841e" target="_top" xlink:title="Wait for results of a query from the server. ">
<polygon fill="white" stroke="black" points="202,-171.5 202,-190.5 255,-190.5 255,-171.5 202,-171.5"/>
<text text-anchor="middle" x="228.5" y="-178.5" font-family="Helvetica,sans-Serif" font-size="10.00">dbsqlok</text>
</a>
</g>
</g>
<!-- Node8&#45;&gt;Node12 -->
<g id="edge19" class="edge"><title>Node8&#45;&gt;Node12</title>
<path fill="none" stroke="midnightblue" d="M129.139,-285.397C136.763,-277.762 147.645,-266.778 157,-257 175.896,-237.251 197.185,-214.185 211.376,-198.69"/>
<polygon fill="midnightblue" stroke="midnightblue" points="214.307,-200.671 218.47,-190.929 209.14,-195.949 214.307,-200.671"/>
</g>
<!-- Node9&#45;&gt;Node2 -->
<g id="edge14" class="edge"><title>Node9&#45;&gt;Node2</title>
<path fill="none" stroke="midnightblue" d="M261.147,-297.349C305.326,-300.628 385.854,-306.604 437.459,-310.434"/>
<polygon fill="midnightblue" stroke="midnightblue" points="437.46,-313.944 447.691,-311.194 437.978,-306.963 437.46,-313.944"/>
</g>
<!-- Node9&#45;&gt;Node5 -->
<g id="edge17" class="edge"><title>Node9&#45;&gt;Node5</title>
<path fill="none" stroke="midnightblue" d="M242.458,-304.809C264.177,-321.249 308.106,-354.503 334.194,-374.251"/>
<polygon fill="midnightblue" stroke="midnightblue" points="332.214,-377.141 342.299,-380.386 336.439,-371.56 332.214,-377.141"/>
</g>
<!-- Node10 -->
<g id="node10" class="node"><title>Node10</title>
<g id="a_node10"><a xlink:href="a00359.html#gabfc9de1d1fe718818caf63a4be4035a6" target="_top" xlink:title="process all streams. ">
<polygon fill="white" stroke="red" points="300,-190.5 300,-209.5 412,-209.5 412,-190.5 300,-190.5"/>
<text text-anchor="middle" x="356" y="-197.5" font-family="Helvetica,sans-Serif" font-size="10.00">tds_process_tokens</text>
</a>
</g>
</g>
<!-- Node9&#45;&gt;Node10 -->
<g id="edge15" class="edge"><title>Node9&#45;&gt;Node10</title>
<path fill="none" stroke="midnightblue" d="M242.458,-285.191C264.177,-268.751 308.106,-235.497 334.194,-215.749"/>
<polygon fill="midnightblue" stroke="midnightblue" points="336.439,-218.44 342.299,-209.614 332.214,-212.859 336.439,-218.44"/>
</g>
<!-- Node11 -->
<g id="node11" class="node"><title>Node11</title>
<g id="a_node11"><a xlink:href="a00356.html#ga5a29ae7f99d089dc3cea85ec6ee5f3ab" target="_top" xlink:title="tds_submit_query() sends a language string to the database server for processing. ...">
<polygon fill="white" stroke="red" points="307,-266.5 307,-285.5 405,-285.5 405,-266.5 307,-266.5"/>
<text text-anchor="middle" x="356" y="-273.5" font-family="Helvetica,sans-Serif" font-size="10.00">tds_submit_query</text>
</a>
</g>
</g>
<!-- Node9&#45;&gt;Node11 -->
<g id="edge18" class="edge"><title>Node9&#45;&gt;Node11</title>
<path fill="none" stroke="midnightblue" d="M261.169,-290.205C271.948,-288.574 284.363,-286.694 296.56,-284.847"/>
<polygon fill="midnightblue" stroke="midnightblue" points="297.351,-288.268 306.714,-283.31 296.303,-281.347 297.351,-288.268"/>
</g>
<!-- Node10&#45;&gt;Node2 -->
<g id="edge16" class="edge"><title>Node10&#45;&gt;Node2</title>
<path fill="none" stroke="midnightblue" d="M385.824,-209.561C394.708,-213.276 404.196,-218.083 412,-224 438.645,-244.202 461.598,-275.972 474.471,-295.862"/>
<polygon fill="midnightblue" stroke="midnightblue" points="471.511,-297.73 479.803,-304.325 477.433,-293.999 471.511,-297.73"/>
</g>
<!-- Node12&#45;&gt;Node2 -->
<g id="edge20" class="edge"><title>Node12&#45;&gt;Node2</title>
<path fill="none" stroke="midnightblue" d="M255.216,-173.338C292.609,-163.795 362.879,-152.023 412,-181 453.891,-205.712 473.565,-263.808 481.295,-294.388"/>
<polygon fill="midnightblue" stroke="midnightblue" points="477.929,-295.362 483.622,-304.297 484.743,-293.762 477.929,-295.362"/>
</g>
<!-- Node12&#45;&gt;Node10 -->
<g id="edge22" class="edge"><title>Node12&#45;&gt;Node10</title>
<path fill="none" stroke="midnightblue" d="M255.2,-184.891C265.284,-186.418 277.358,-188.245 289.567,-190.094"/>
<polygon fill="midnightblue" stroke="midnightblue" points="289.403,-193.609 299.814,-191.645 290.451,-186.688 289.403,-193.609"/>
</g>
<!-- Node13 -->
<g id="node13" class="node"><title>Node13</title>
<g id="a_node13"><a xlink:href="a00357.html#ga5feb53554e8917a81bbbc332163a61fb" target="_top" xlink:title="Flush packet to server. ">
<polygon fill="white" stroke="black" points="308,-114.5 308,-133.5 404,-133.5 404,-114.5 308,-114.5"/>
<text text-anchor="middle" x="356" y="-121.5" font-family="Helvetica,sans-Serif" font-size="10.00">tds_flush_packet</text>
</a>
</g>
</g>
<!-- Node12&#45;&gt;Node13 -->
<g id="edge21" class="edge"><title>Node12&#45;&gt;Node13</title>
<path fill="none" stroke="midnightblue" d="M249.492,-171.471C263.57,-164.803 282.884,-155.739 300,-148 307.542,-144.59 315.701,-140.985 323.367,-137.634"/>
<polygon fill="midnightblue" stroke="midnightblue" points="324.957,-140.759 332.729,-133.56 322.163,-134.341 324.957,-140.759"/>
</g>
<!-- Node14&#45;&gt;Node2 -->
<g id="edge28" class="edge"><title>Node14&#45;&gt;Node2</title>
<path fill="none" stroke="midnightblue" d="M127.271,-228.17C139.858,-212.695 166.027,-182.326 193,-162 273.322,-101.47 329.928,-46.8638 412,-105 474.521,-149.288 484.247,-251.197 485.484,-294.24"/>
<polygon fill="midnightblue" stroke="midnightblue" points="481.985,-294.342 485.644,-304.285 488.984,-294.231 481.985,-294.342"/>
</g>
<!-- Node15 -->
<g id="node15" class="node"><title>Node15</title>
<g id="a_node15"><a xlink:href="a00341.html#gaf1879b85e8238c015b9648d077665285" target="_top" xlink:title="_dbresults">
<polygon fill="white" stroke="black" points="196,-228.5 196,-247.5 261,-247.5 261,-228.5 196,-228.5"/>
<text text-anchor="middle" x="228.5" y="-235.5" font-family="Helvetica,sans-Serif" font-size="10.00">_dbresults</text>
</a>
</g>
</g>
<!-- Node14&#45;&gt;Node15 -->
<g id="edge24" class="edge"><title>Node14&#45;&gt;Node15</title>
<path fill="none" stroke="midnightblue" d="M148.158,-238C159.583,-238 172.964,-238 185.448,-238"/>
<polygon fill="midnightblue" stroke="midnightblue" points="185.661,-241.5 195.661,-238 185.661,-234.5 185.661,-241.5"/>
</g>
<!-- Node15&#45;&gt;Node2 -->
<g id="edge25" class="edge"><title>Node15&#45;&gt;Node2</title>
<path fill="none" stroke="midnightblue" d="M261.096,-236.144C298.507,-235.09 362.039,-236.947 412,-257 434.299,-265.95 455.507,-283.752 469.359,-297.093"/>
<polygon fill="midnightblue" stroke="midnightblue" points="467.065,-299.749 476.617,-304.332 472.008,-294.792 467.065,-299.749"/>
</g>
<!-- Node15&#45;&gt;Node5 -->
<g id="edge26" class="edge"><title>Node15&#45;&gt;Node5</title>
<path fill="none" stroke="midnightblue" d="M238.463,-247.532C245.53,-255.128 255.565,-266.095 264,-276 292.41,-309.361 323.988,-349.705 341.473,-372.351"/>
<polygon fill="midnightblue" stroke="midnightblue" points="338.777,-374.587 347.65,-380.376 344.324,-370.317 338.777,-374.587"/>
</g>
<!-- Node15&#45;&gt;Node10 -->
<g id="edge27" class="edge"><title>Node15&#45;&gt;Node10</title>
<path fill="none" stroke="midnightblue" d="M261.169,-228.411C277.073,-223.596 296.54,-217.701 313.611,-212.532"/>
<polygon fill="midnightblue" stroke="midnightblue" points="314.785,-215.834 323.341,-209.586 312.756,-209.134 314.785,-215.834"/>
</g>
<!-- Node16&#45;&gt;Node2 -->
<g id="edge30" class="edge"><title>Node16&#45;&gt;Node2</title>
<path fill="none" stroke="midnightblue" d="M264.135,-42.3289C304.469,-37.799 370.81,-37.0698 412,-72 479.908,-129.588 486.352,-247.784 486.096,-294.439"/>
<polygon fill="midnightblue" stroke="midnightblue" points="482.596,-294.388 485.927,-304.446 489.595,-294.507 482.596,-294.388"/>
</g>
<!-- Node16&#45;&gt;Node10 -->
<g id="edge31" class="edge"><title>Node16&#45;&gt;Node10</title>
<path fill="none" stroke="midnightblue" d="M236.111,-57.7509C248.157,-75.3192 274.772,-113.229 300,-143 311.876,-157.014 326.333,-171.922 337.444,-182.976"/>
<polygon fill="midnightblue" stroke="midnightblue" points="335.277,-185.754 344.858,-190.276 340.188,-180.766 335.277,-185.754"/>
</g>
</g>
</svg>
