<?xml version="1.0" encoding="UTF-8" standalone="no"?>
<!DOCTYPE svg PUBLIC "-//W3C//DTD SVG 1.1//EN"
 "http://www.w3.org/Graphics/SVG/1.1/DTD/svg11.dtd">
<!-- Generated by graphviz version 2.38.0 (20140413.2041)
 -->
<!-- Title: bcp_colptr Pages: 1 -->
<svg width="279pt" height="47pt"
 viewBox="0.00 0.00 279.00 47.00" xmlns="http://www.w3.org/2000/svg" xmlns:xlink="http://www.w3.org/1999/xlink">
<g id="graph0" class="graph" transform="scale(1 1) rotate(0) translate(4 43)">
<title>bcp_colptr</title>
<polygon fill="white" stroke="none" points="-4,4 -4,-43 275,-43 275,4 -4,4"/>
<!-- Node1 -->
<g id="node1" class="node"><title>Node1</title>
<polygon fill="#bfbfbf" stroke="black" points="0,-19.5 0,-38.5 65,-38.5 65,-19.5 0,-19.5"/>
<text text-anchor="middle" x="32.5" y="-26.5" font-family="Helvetica,sans-Serif" font-size="10.00">bcp_colptr</text>
</g>
<!-- Node2 -->
<g id="node2" class="node"><title>Node2</title>
<g id="a_node2"><a xlink:href="a00193.html#ab45c291105027e69836002e1dd586141" target="_top" xlink:title="Write a message to the debug log. ">
<polygon fill="white" stroke="black" points="194,-19.5 194,-38.5 271,-38.5 271,-19.5 194,-19.5"/>
<text text-anchor="middle" x="232.5" y="-26.5" font-family="Helvetica,sans-Serif" font-size="10.00">tdsdump_log</text>
</a>
</g>
</g>
<!-- Node1&#45;&gt;Node2 -->
<g id="edge1" class="edge"><title>Node1&#45;&gt;Node2</title>
<path fill="none" stroke="midnightblue" d="M65.3121,-29C97.1505,-29 146.543,-29 183.216,-29"/>
<polygon fill="midnightblue" stroke="midnightblue" points="183.675,-32.5001 193.675,-29 183.675,-25.5001 183.675,-32.5001"/>
</g>
<!-- Node3 -->
<g id="node3" class="node"><title>Node3</title>
<g id="a_node3"><a xlink:href="a00347.html#ga302a4ce6559b81808e3be51615cd1b67" target="_top" xlink:title="Call client&#45;installed error handler. ">
<polygon fill="white" stroke="black" points="101,-0.5 101,-19.5 158,-19.5 158,-0.5 101,-0.5"/>
<text text-anchor="middle" x="129.5" y="-7.5" font-family="Helvetica,sans-Serif" font-size="10.00">dbperror</text>
</a>
</g>
</g>
<!-- Node1&#45;&gt;Node3 -->
<g id="edge2" class="edge"><title>Node1&#45;&gt;Node3</title>
<path fill="none" stroke="midnightblue" d="M65.1336,-22.6733C73.3455,-21.0309 82.2722,-19.2456 90.7638,-17.5472"/>
<polygon fill="midnightblue" stroke="midnightblue" points="91.7092,-20.9276 100.829,-15.5343 90.3364,-14.0635 91.7092,-20.9276"/>
</g>
<!-- Node3&#45;&gt;Node2 -->
<g id="edge3" class="edge"><title>Node3&#45;&gt;Node2</title>
<path fill="none" stroke="midnightblue" d="M158.099,-15.1918C166.077,-16.6926 175.022,-18.3755 183.851,-20.0363"/>
<polygon fill="midnightblue" stroke="midnightblue" points="183.237,-23.4822 193.712,-21.8913 184.531,-16.6028 183.237,-23.4822"/>
</g>
</g>
</svg>
