<?xml version="1.0" encoding="UTF-8" standalone="no"?>
<!DOCTYPE svg PUBLIC "-//W3C//DTD SVG 1.1//EN"
 "http://www.w3.org/Graphics/SVG/1.1/DTD/svg11.dtd">
<!-- Generated by graphviz version 2.38.0 (20140413.2041)
 -->
<!-- Title: tds_alloc_param_result Pages: 1 -->
<svg width="1090pt" height="496pt"
 viewBox="0.00 0.00 1090.00 496.00" xmlns="http://www.w3.org/2000/svg" xmlns:xlink="http://www.w3.org/1999/xlink">
<g id="graph0" class="graph" transform="scale(1 1) rotate(0) translate(4 492)">
<title>tds_alloc_param_result</title>
<polygon fill="white" stroke="none" points="-4,4 -4,-492 1086,-492 1086,4 -4,4"/>
<!-- Node1 -->
<g id="node1" class="node"><title>Node1</title>
<polygon fill="#bfbfbf" stroke="black" points="0,-256.5 0,-275.5 126,-275.5 126,-256.5 0,-256.5"/>
<text text-anchor="middle" x="63" y="-263.5" font-family="Helvetica,sans-Serif" font-size="10.00">tds_alloc_param_result</text>
</g>
<!-- Node2 -->
<g id="node2" class="node"><title>Node2</title>
<g id="a_node2"><a xlink:href="a00359.html#gacb3354443bcefe7a500a500a4904cc05" target="_top" xlink:title="process output parameters of a stored procedure. ">
<polygon fill="white" stroke="black" points="162,-256.5 162,-275.5 304,-275.5 304,-256.5 162,-256.5"/>
<text text-anchor="middle" x="233" y="-263.5" font-family="Helvetica,sans-Serif" font-size="10.00">tds_process_param_result</text>
</a>
</g>
</g>
<!-- Node1&#45;&gt;Node2 -->
<g id="edge1" class="edge"><title>Node1&#45;&gt;Node2</title>
<path fill="none" stroke="midnightblue" d="M136.34,-266C144.838,-266 153.498,-266 161.963,-266"/>
<polygon fill="midnightblue" stroke="midnightblue" points="136.08,-262.5 126.08,-266 136.08,-269.5 136.08,-262.5"/>
</g>
<!-- Node3 -->
<g id="node3" class="node"><title>Node3</title>
<g id="a_node3"><a xlink:href="a00359.html#gabfc9de1d1fe718818caf63a4be4035a6" target="_top" xlink:title="process all streams. ">
<polygon fill="white" stroke="black" points="666,-240.5 666,-259.5 778,-259.5 778,-240.5 666,-240.5"/>
<text text-anchor="middle" x="722" y="-247.5" font-family="Helvetica,sans-Serif" font-size="10.00">tds_process_tokens</text>
</a>
</g>
</g>
<!-- Node2&#45;&gt;Node3 -->
<g id="edge2" class="edge"><title>Node2&#45;&gt;Node3</title>
<path fill="none" stroke="midnightblue" d="M314.284,-267.675C322.964,-267.808 331.666,-267.921 340,-268 468.911,-269.216 501.558,-273.049 630,-262 641.59,-261.003 653.97,-259.599 665.746,-258.101"/>
<polygon fill="midnightblue" stroke="midnightblue" points="314.185,-264.173 304.129,-267.51 314.071,-271.172 314.185,-264.173"/>
</g>
<!-- Node17 -->
<g id="node17" class="node"><title>Node17</title>
<g id="a_node17"><a xlink:href="a00359.html#ga9fdef8228d29cab7fa9098f07fa73fba" target="_top" xlink:title="Process parameters from networks. ">
<polygon fill="white" stroke="black" points="340,-229 340,-259 482,-259 482,-229 340,-229"/>
<text text-anchor="start" x="348" y="-247" font-family="Helvetica,sans-Serif" font-size="10.00">tds_process_param_result</text>
<text text-anchor="middle" x="411" y="-236" font-family="Helvetica,sans-Serif" font-size="10.00">_tokens</text>
</a>
</g>
</g>
<!-- Node2&#45;&gt;Node17 -->
<g id="edge18" class="edge"><title>Node2&#45;&gt;Node17</title>
<path fill="none" stroke="midnightblue" d="M314.101,-255.987C322.706,-254.912 331.412,-253.823 339.888,-252.764"/>
<polygon fill="midnightblue" stroke="midnightblue" points="313.554,-252.528 304.066,-257.242 314.423,-259.474 313.554,-252.528"/>
</g>
<!-- Node4 -->
<g id="node4" class="node"><title>Node4</title>
<g id="a_node4"><a xlink:href="a00344.html#gae67546338cb9542a4902aa914f57f314" target="_top" xlink:title="_bcp_exec_out">
<polygon fill="white" stroke="red" points="825.5,-468.5 825.5,-487.5 913.5,-487.5 913.5,-468.5 825.5,-468.5"/>
<text text-anchor="middle" x="869.5" y="-475.5" font-family="Helvetica,sans-Serif" font-size="10.00">_bcp_exec_out</text>
</a>
</g>
</g>
<!-- Node3&#45;&gt;Node4 -->
<g id="edge3" class="edge"><title>Node3&#45;&gt;Node4</title>
<path fill="none" stroke="midnightblue" d="M726.171,-269.774C733.777,-310.852 756.855,-405.999 814,-459 818.188,-462.884 823.212,-465.98 828.494,-468.447"/>
<polygon fill="midnightblue" stroke="midnightblue" points="729.617,-269.165 724.454,-259.913 722.721,-270.365 729.617,-269.165"/>
</g>
<!-- Node5 -->
<g id="node5" class="node"><title>Node5</title>
<g id="a_node5"><a xlink:href="a00341.html#gaf1879b85e8238c015b9648d077665285" target="_top" xlink:title="_dbresults">
<polygon fill="white" stroke="red" points="837,-430.5 837,-449.5 902,-449.5 902,-430.5 837,-430.5"/>
<text text-anchor="middle" x="869.5" y="-437.5" font-family="Helvetica,sans-Serif" font-size="10.00">_dbresults</text>
</a>
</g>
</g>
<!-- Node3&#45;&gt;Node5 -->
<g id="edge4" class="edge"><title>Node3&#45;&gt;Node5</title>
<path fill="none" stroke="midnightblue" d="M728.288,-269.726C738.748,-305.058 765.385,-379.332 814,-421 820.543,-426.608 828.84,-430.592 836.975,-433.411"/>
<polygon fill="midnightblue" stroke="midnightblue" points="731.545,-268.381 725.453,-259.713 724.809,-270.288 731.545,-268.381"/>
</g>
<!-- Node6 -->
<g id="node6" class="node"><title>Node6</title>
<g id="a_node6"><a xlink:href="a00342.html#gaff09873008411a0573f6d1a9e6c7cf4b" target="_top" xlink:title="Get count of output parameters filled by a stored procedure. ">
<polygon fill="white" stroke="red" points="837,-392.5 837,-411.5 902,-411.5 902,-392.5 837,-392.5"/>
<text text-anchor="middle" x="869.5" y="-399.5" font-family="Helvetica,sans-Serif" font-size="10.00">dbnumrets</text>
</a>
</g>
</g>
<!-- Node3&#45;&gt;Node6 -->
<g id="edge5" class="edge"><title>Node3&#45;&gt;Node6</title>
<path fill="none" stroke="midnightblue" d="M731.151,-268.885C744.442,-297.545 773.431,-351.96 814,-383 820.685,-388.115 828.851,-391.918 836.806,-394.721"/>
<polygon fill="midnightblue" stroke="midnightblue" points="734.263,-267.271 726.972,-259.583 727.877,-270.139 734.263,-267.271"/>
</g>
<!-- Node7 -->
<g id="node7" class="node"><title>Node7</title>
<g id="a_node7"><a xlink:href="a00341.html#gae1f50a6a2c31fda57cb481922b06841e" target="_top" xlink:title="Wait for results of a query from the server. ">
<polygon fill="white" stroke="red" points="843,-354.5 843,-373.5 896,-373.5 896,-354.5 843,-354.5"/>
<text text-anchor="middle" x="869.5" y="-361.5" font-family="Helvetica,sans-Serif" font-size="10.00">dbsqlok</text>
</a>
</g>
</g>
<!-- Node3&#45;&gt;Node7 -->
<g id="edge6" class="edge"><title>Node3&#45;&gt;Node7</title>
<path fill="none" stroke="midnightblue" d="M737.149,-267.414C753.853,-287.093 783.272,-319.098 814,-340 822.805,-345.989 833.347,-351.044 842.803,-354.947"/>
<polygon fill="midnightblue" stroke="midnightblue" points="739.696,-265.004 730.605,-259.563 734.319,-269.486 739.696,-265.004"/>
</g>
<!-- Node8 -->
<g id="node8" class="node"><title>Node8</title>
<g id="a_node8"><a xlink:href="a00341.html#ga548153eb2eae76c48aa9d4b72258dc1c" target="_top" xlink:title="Send text or image data to the server. ">
<polygon fill="white" stroke="black" points="987.5,-335.5 987.5,-354.5 1055.5,-354.5 1055.5,-335.5 987.5,-335.5"/>
<text text-anchor="middle" x="1021.5" y="-342.5" font-family="Helvetica,sans-Serif" font-size="10.00">dbwritetext</text>
</a>
</g>
</g>
<!-- Node3&#45;&gt;Node8 -->
<g id="edge9" class="edge"><title>Node3&#45;&gt;Node8</title>
<path fill="none" stroke="midnightblue" d="M743.223,-265.824C760.915,-278.867 787.811,-296.819 814,-307 872.438,-329.719 945.567,-339.063 987.267,-342.749"/>
<polygon fill="midnightblue" stroke="midnightblue" points="744.954,-262.746 734.863,-259.518 740.739,-268.335 744.954,-262.746"/>
</g>
<!-- Node9 -->
<g id="node9" class="node"><title>Node9</title>
<g id="a_node9"><a xlink:href="a00341.html#ga559e24ba70d0d96c3469eb6ab8f74e05" target="_top" xlink:title="Cancel the query currently being retrieved, discarding all pending rows. ">
<polygon fill="white" stroke="red" points="834,-278.5 834,-297.5 905,-297.5 905,-278.5 834,-278.5"/>
<text text-anchor="middle" x="869.5" y="-285.5" font-family="Helvetica,sans-Serif" font-size="10.00">dbcanquery</text>
</a>
</g>
</g>
<!-- Node3&#45;&gt;Node9 -->
<g id="edge8" class="edge"><title>Node3&#45;&gt;Node9</title>
<path fill="none" stroke="midnightblue" d="M769.642,-262.181C790.473,-267.622 814.597,-273.922 833.799,-278.937"/>
<polygon fill="midnightblue" stroke="midnightblue" points="770.276,-258.73 759.716,-259.589 768.507,-265.502 770.276,-258.73"/>
</g>
<!-- Node10 -->
<g id="node10" class="node"><title>Node10</title>
<g id="a_node10"><a xlink:href="a00341.html#gadd5685565c8c6c86079e17b8a73b324c" target="_top" xlink:title="Fetch part of a text or image value from the server. ">
<polygon fill="white" stroke="black" points="836,-240.5 836,-259.5 903,-259.5 903,-240.5 836,-240.5"/>
<text text-anchor="middle" x="869.5" y="-247.5" font-family="Helvetica,sans-Serif" font-size="10.00">dbreadtext</text>
</a>
</g>
</g>
<!-- Node3&#45;&gt;Node10 -->
<g id="edge10" class="edge"><title>Node3&#45;&gt;Node10</title>
<path fill="none" stroke="midnightblue" d="M788.178,-250C804.672,-250 821.691,-250 835.793,-250"/>
<polygon fill="midnightblue" stroke="midnightblue" points="788.007,-246.5 778.007,-250 788.007,-253.5 788.007,-246.5"/>
</g>
<!-- Node11 -->
<g id="node11" class="node"><title>Node11</title>
<g id="a_node11"><a xlink:href="a00341.html#gac980139b9cea03cf93e373d425991481" target="_top" xlink:title="Transmit the command buffer to the server. ">
<polygon fill="white" stroke="red" points="837,-202.5 837,-221.5 902,-221.5 902,-202.5 837,-202.5"/>
<text text-anchor="middle" x="869.5" y="-209.5" font-family="Helvetica,sans-Serif" font-size="10.00">dbsqlsend</text>
</a>
</g>
</g>
<!-- Node3&#45;&gt;Node11 -->
<g id="edge11" class="edge"><title>Node3&#45;&gt;Node11</title>
<path fill="none" stroke="midnightblue" d="M769.503,-237.855C791.442,-232.125 817.06,-225.435 836.738,-220.295"/>
<polygon fill="midnightblue" stroke="midnightblue" points="768.507,-234.498 759.716,-240.411 770.276,-241.27 768.507,-234.498"/>
</g>
<!-- Node12 -->
<g id="node12" class="node"><title>Node12</title>
<g id="a_node12"><a xlink:href="a00356.html#gaf0da49585d39e99780a004ee2ca23479" target="_top" xlink:title="Send option commands to server. ">
<polygon fill="white" stroke="black" points="961,-104.5 961,-123.5 1082,-123.5 1082,-104.5 961,-104.5"/>
<text text-anchor="middle" x="1021.5" y="-111.5" font-family="Helvetica,sans-Serif" font-size="10.00">tds_submit_optioncmd</text>
</a>
</g>
</g>
<!-- Node3&#45;&gt;Node12 -->
<g id="edge12" class="edge"><title>Node3&#45;&gt;Node12</title>
<path fill="none" stroke="midnightblue" d="M744.562,-234.506C762.509,-222.106 789.064,-204.883 814,-193 861.072,-170.568 876.341,-173.743 925,-155 950.929,-145.012 980.222,-132.204 999.448,-123.583"/>
<polygon fill="midnightblue" stroke="midnightblue" points="742.195,-231.891 736.016,-240.497 746.213,-237.623 742.195,-231.891"/>
</g>
<!-- Node13 -->
<g id="node13" class="node"><title>Node13</title>
<g id="a_node13"><a xlink:href="a00193.html#ac6610c72bd31bad5378f760fa9b12d66" target="_top" xlink:title="Initialize BCP information. ">
<polygon fill="white" stroke="red" points="833,-126.5 833,-145.5 906,-145.5 906,-126.5 833,-126.5"/>
<text text-anchor="middle" x="869.5" y="-133.5" font-family="Helvetica,sans-Serif" font-size="10.00">tds_bcp_init</text>
</a>
</g>
</g>
<!-- Node3&#45;&gt;Node13 -->
<g id="edge13" class="edge"><title>Node3&#45;&gt;Node13</title>
<path fill="none" stroke="midnightblue" d="M737.149,-232.586C753.853,-212.907 783.272,-180.902 814,-160 822.463,-154.243 832.531,-149.35 841.697,-145.513"/>
<polygon fill="midnightblue" stroke="midnightblue" points="734.319,-230.514 730.605,-240.437 739.696,-234.996 734.319,-230.514"/>
</g>
<!-- Node14 -->
<g id="node14" class="node"><title>Node14</title>
<g id="a_node14"><a xlink:href="a00359.html#ga55f27c3e05d42c9b07ace1c74b11c5ab" target="_top" xlink:title="Retrieve and set @spid. ">
<polygon fill="white" stroke="red" points="831,-88.5 831,-107.5 908,-107.5 908,-88.5 831,-88.5"/>
<text text-anchor="middle" x="869.5" y="-95.5" font-family="Helvetica,sans-Serif" font-size="10.00">tds_set_spid</text>
</a>
</g>
</g>
<!-- Node3&#45;&gt;Node14 -->
<g id="edge14" class="edge"><title>Node3&#45;&gt;Node14</title>
<path fill="none" stroke="midnightblue" d="M731.151,-231.115C744.442,-202.455 773.431,-148.04 814,-117 819.014,-113.164 824.86,-110.065 830.826,-107.574"/>
<polygon fill="midnightblue" stroke="midnightblue" points="727.877,-229.861 726.972,-240.417 734.263,-232.729 727.877,-229.861"/>
</g>
<!-- Node15 -->
<g id="node15" class="node"><title>Node15</title>
<g id="a_node15"><a xlink:href="a00359.html#gaeeb1562044786ea17bea361ed83e6946" target="_top" xlink:title="Process results for simple query as &quot;SET TEXTSIZE&quot; or &quot;USE dbname&quot; If the statement returns results...">
<polygon fill="white" stroke="red" points="814.5,-39 814.5,-69 924.5,-69 924.5,-39 814.5,-39"/>
<text text-anchor="start" x="822.5" y="-57" font-family="Helvetica,sans-Serif" font-size="10.00">tds_process_simple</text>
<text text-anchor="middle" x="869.5" y="-46" font-family="Helvetica,sans-Serif" font-size="10.00">_query</text>
</a>
</g>
</g>
<!-- Node3&#45;&gt;Node15 -->
<g id="edge15" class="edge"><title>Node3&#45;&gt;Node15</title>
<path fill="none" stroke="midnightblue" d="M728.846,-230.223C740.048,-195.404 767.631,-122.713 814,-79 818.015,-75.2155 822.703,-71.9264 827.614,-69.0899"/>
<polygon fill="midnightblue" stroke="midnightblue" points="725.398,-229.525 725.781,-240.113 732.084,-231.597 725.398,-229.525"/>
</g>
<!-- Node16 -->
<g id="node16" class="node"><title>Node16</title>
<g id="a_node16"><a xlink:href="a00359.html#gaf233e79967f82f4e0dd4d11524917a34" target="_top" xlink:title="tds_process_cancel">
<polygon fill="white" stroke="red" points="814,-0.5 814,-19.5 925,-19.5 925,-0.5 814,-0.5"/>
<text text-anchor="middle" x="869.5" y="-7.5" font-family="Helvetica,sans-Serif" font-size="10.00">tds_process_cancel</text>
</a>
</g>
</g>
<!-- Node3&#45;&gt;Node16 -->
<g id="edge17" class="edge"><title>Node3&#45;&gt;Node16</title>
<path fill="none" stroke="midnightblue" d="M725.585,-230.579C732.261,-188.02 753.965,-85.8117 814,-29 818.076,-25.1431 822.976,-22.0644 828.146,-19.608"/>
<polygon fill="midnightblue" stroke="midnightblue" points="722.121,-230.084 724.139,-240.484 729.047,-231.095 722.121,-230.084"/>
</g>
<!-- Node7&#45;&gt;Node8 -->
<g id="edge7" class="edge"><title>Node7&#45;&gt;Node8</title>
<path fill="none" stroke="midnightblue" d="M906.316,-359.463C930.951,-356.343 963.428,-352.229 987.446,-349.187"/>
<polygon fill="midnightblue" stroke="midnightblue" points="905.767,-356.005 896.286,-360.734 906.646,-362.949 905.767,-356.005"/>
</g>
<!-- Node15&#45;&gt;Node12 -->
<g id="edge16" class="edge"><title>Node15&#45;&gt;Node12</title>
<path fill="none" stroke="midnightblue" d="M917.761,-72.9046C944.031,-83.4125 975.586,-96.0343 996.732,-104.493"/>
<polygon fill="midnightblue" stroke="midnightblue" points="918.936,-69.6048 908.351,-69.1405 916.336,-76.1042 918.936,-69.6048"/>
</g>
<!-- Node17&#45;&gt;Node3 -->
<g id="edge21" class="edge"><title>Node17&#45;&gt;Node3</title>
<path fill="none" stroke="midnightblue" d="M492.429,-245.562C546.85,-246.618 617.334,-247.987 665.556,-248.923"/>
<polygon fill="midnightblue" stroke="midnightblue" points="492.183,-242.056 482.117,-245.361 492.047,-249.055 492.183,-242.056"/>
</g>
<!-- Node18 -->
<g id="node18" class="node"><title>Node18</title>
<g id="a_node18"><a xlink:href="a00359.html#ga39453d084f3f780ac4602d4abf2839f7" target="_top" xlink:title="tds_process_default_tokens() is a catch all function that is called to process tokens not known to ot...">
<polygon fill="white" stroke="red" points="518,-191 518,-221 630,-221 630,-191 518,-191"/>
<text text-anchor="start" x="526" y="-209" font-family="Helvetica,sans-Serif" font-size="10.00">tds_process_default</text>
<text text-anchor="middle" x="574" y="-198" font-family="Helvetica,sans-Serif" font-size="10.00">_tokens</text>
</a>
</g>
</g>
<!-- Node17&#45;&gt;Node18 -->
<g id="edge19" class="edge"><title>Node17&#45;&gt;Node18</title>
<path fill="none" stroke="midnightblue" d="M485.552,-226.64C496.431,-224.072 507.481,-221.464 517.899,-219.005"/>
<polygon fill="midnightblue" stroke="midnightblue" points="484.56,-223.278 475.631,-228.981 486.168,-230.091 484.56,-223.278"/>
</g>
<!-- Node18&#45;&gt;Node3 -->
<g id="edge20" class="edge"><title>Node18&#45;&gt;Node3</title>
<path fill="none" stroke="midnightblue" d="M634.494,-223.93C653.229,-229.576 673.194,-235.593 689.218,-240.422"/>
<polygon fill="midnightblue" stroke="midnightblue" points="635.421,-220.554 624.837,-221.019 633.401,-227.256 635.421,-220.554"/>
</g>
</g>
</svg>
