<?xml version="1.0" encoding="UTF-8" standalone="no"?>
<!DOCTYPE svg PUBLIC "-//W3C//DTD SVG 1.1//EN"
 "http://www.w3.org/Graphics/SVG/1.1/DTD/svg11.dtd">
<!-- Generated by graphviz version 2.38.0 (20140413.2041)
 -->
<!-- Title: dbrecftos Pages: 1 -->
<svg width="274pt" height="47pt"
 viewBox="0.00 0.00 274.00 47.00" xmlns="http://www.w3.org/2000/svg" xmlns:xlink="http://www.w3.org/1999/xlink">
<g id="graph0" class="graph" transform="scale(1 1) rotate(0) translate(4 43)">
<title>dbrecftos</title>
<polygon fill="white" stroke="none" points="-4,4 -4,-43 270,-43 270,4 -4,4"/>
<!-- Node1 -->
<g id="node1" class="node"><title>Node1</title>
<polygon fill="#bfbfbf" stroke="black" points="0,-19.5 0,-38.5 60,-38.5 60,-19.5 0,-19.5"/>
<text text-anchor="middle" x="30" y="-26.5" font-family="Helvetica,sans-Serif" font-size="10.00">dbrecftos</text>
</g>
<!-- Node2 -->
<g id="node2" class="node"><title>Node2</title>
<g id="a_node2"><a xlink:href="a00193.html#ab45c291105027e69836002e1dd586141" target="_top" xlink:title="Write a message to the debug log. ">
<polygon fill="white" stroke="black" points="189,-19.5 189,-38.5 266,-38.5 266,-19.5 189,-19.5"/>
<text text-anchor="middle" x="227.5" y="-26.5" font-family="Helvetica,sans-Serif" font-size="10.00">tdsdump_log</text>
</a>
</g>
</g>
<!-- Node1&#45;&gt;Node2 -->
<g id="edge1" class="edge"><title>Node1&#45;&gt;Node2</title>
<path fill="none" stroke="midnightblue" d="M60.2683,-29C91.62,-29 141.86,-29 178.911,-29"/>
<polygon fill="midnightblue" stroke="midnightblue" points="178.985,-32.5001 188.985,-29 178.985,-25.5001 178.985,-32.5001"/>
</g>
<!-- Node3 -->
<g id="node3" class="node"><title>Node3</title>
<g id="a_node3"><a xlink:href="a00347.html#ga302a4ce6559b81808e3be51615cd1b67" target="_top" xlink:title="Call client&#45;installed error handler. ">
<polygon fill="white" stroke="black" points="96,-0.5 96,-19.5 153,-19.5 153,-0.5 96,-0.5"/>
<text text-anchor="middle" x="124.5" y="-7.5" font-family="Helvetica,sans-Serif" font-size="10.00">dbperror</text>
</a>
</g>
</g>
<!-- Node1&#45;&gt;Node3 -->
<g id="edge2" class="edge"><title>Node1&#45;&gt;Node3</title>
<path fill="none" stroke="midnightblue" d="M60.0138,-23.0404C68.2394,-21.3508 77.3138,-19.4869 85.9659,-17.7097"/>
<polygon fill="midnightblue" stroke="midnightblue" points="86.7614,-21.1195 95.8527,-15.6789 85.3529,-14.2626 86.7614,-21.1195"/>
</g>
<!-- Node3&#45;&gt;Node2 -->
<g id="edge3" class="edge"><title>Node3&#45;&gt;Node2</title>
<path fill="none" stroke="midnightblue" d="M153.099,-15.1918C161.077,-16.6926 170.022,-18.3755 178.851,-20.0363"/>
<polygon fill="midnightblue" stroke="midnightblue" points="178.237,-23.4822 188.712,-21.8913 179.531,-16.6028 178.237,-23.4822"/>
</g>
</g>
</svg>
