<?xml version="1.0" encoding="UTF-8" standalone="no"?>
<!DOCTYPE svg PUBLIC "-//W3C//DTD SVG 1.1//EN"
 "http://www.w3.org/Graphics/SVG/1.1/DTD/svg11.dtd">
<!-- Generated by graphviz version 2.38.0 (20140413.2041)
 -->
<!-- Title: _cs_blkdesc Pages: 1 -->
<svg width="955pt" height="424pt"
 viewBox="0.00 0.00 955.00 424.27" xmlns="http://www.w3.org/2000/svg" xmlns:xlink="http://www.w3.org/1999/xlink">
<g id="graph0" class="graph" transform="scale(1 1) rotate(0) translate(4 420.265)">
<title>_cs_blkdesc</title>
<polygon fill="white" stroke="none" points="-4,4 -4,-420.265 951,-420.265 951,4 -4,4"/>
<!-- Node1 -->
<g id="node1" class="node"><title>Node1</title>
<polygon fill="#bfbfbf" stroke="black" points="704.5,-80.7653 704.5,-99.7653 778.5,-99.7653 778.5,-80.7653 704.5,-80.7653"/>
<text text-anchor="middle" x="741.5" y="-87.7653" font-family="Helvetica,sans-Serif" font-size="10.00">_cs_blkdesc</text>
</g>
<!-- Node2 -->
<g id="node2" class="node"><title>Node2</title>
<g id="a_node2"><a xlink:href="a00100.html" target="_top" xlink:title="tds_bcpinfo">
<polygon fill="white" stroke="black" points="461,-18.7653 461,-37.7653 532,-37.7653 532,-18.7653 461,-18.7653"/>
<text text-anchor="middle" x="496.5" y="-25.7653" font-family="Helvetica,sans-Serif" font-size="10.00">tds_bcpinfo</text>
</a>
</g>
</g>
<!-- Node2&#45;&gt;Node1 -->
<g id="edge1" class="edge"><title>Node2&#45;&gt;Node1</title>
<path fill="none" stroke="#9a32cd" stroke-dasharray="5,2" d="M541.898,-39.5932C588.6,-51.5089 661.2,-70.0323 704.477,-81.0744"/>
<polygon fill="#9a32cd" stroke="#9a32cd" points="542.613,-36.1635 532.058,-37.0826 540.882,-42.9462 542.613,-36.1635"/>
<text text-anchor="middle" x="596.5" y="-68.2653" font-family="Helvetica,sans-Serif" font-size="10.00"> bcpinfo</text>
</g>
<!-- Node3 -->
<g id="node3" class="node"><title>Node3</title>
<g id="a_node3"><a xlink:href="a00144.html" target="_top" xlink:title="Hold information for any results. ">
<polygon fill="white" stroke="black" points="160,-30.7653 160,-49.7653 246,-49.7653 246,-30.7653 160,-30.7653"/>
<text text-anchor="middle" x="203" y="-37.7653" font-family="Helvetica,sans-Serif" font-size="10.00">tds_result_info</text>
</a>
</g>
</g>
<!-- Node3&#45;&gt;Node2 -->
<g id="edge2" class="edge"><title>Node3&#45;&gt;Node2</title>
<path fill="none" stroke="#9a32cd" stroke-dasharray="5,2" d="M227.716,-25.8042C241.314,-18.3642 259.013,-10.0745 276,-6.26532 341.585,8.44144 420.406,-7.35559 463.492,-18.7447"/>
<polygon fill="#9a32cd" stroke="#9a32cd" points="225.977,-22.7668 219.015,-30.7537 229.438,-28.8511 225.977,-22.7668"/>
<text text-anchor="middle" x="311" y="-9.26532" font-family="Helvetica,sans-Serif" font-size="10.00"> bindinfo</text>
</g>
<!-- Node4 -->
<g id="node4" class="node"><title>Node4</title>
<g id="a_node4"><a xlink:href="a00148.html" target="_top" xlink:title="Information for a server connection. ">
<polygon fill="white" stroke="red" points="369,-111.765 369,-130.765 437,-130.765 437,-111.765 369,-111.765"/>
<text text-anchor="middle" x="403" y="-118.765" font-family="Helvetica,sans-Serif" font-size="10.00">tds_socket</text>
</a>
</g>
</g>
<!-- Node3&#45;&gt;Node4 -->
<g id="edge5" class="edge"><title>Node3&#45;&gt;Node4</title>
<path fill="none" stroke="#9a32cd" stroke-dasharray="5,2" d="M240.597,-27.9208C271.798,-19.874 316.202,-14.5975 346,-37.2653 369.858,-55.4141 344.95,-79.1206 364,-102.265 367.094,-106.024 371.118,-109.107 375.387,-111.614"/>
<polygon fill="#9a32cd" stroke="#9a32cd" points="239.254,-24.6617 230.562,-30.7196 241.134,-31.4044 239.254,-24.6617"/>
<text text-anchor="middle" x="311" y="-73.2653" font-family="Helvetica,sans-Serif" font-size="10.00"> param_info</text>
<text text-anchor="middle" x="311" y="-62.2653" font-family="Helvetica,sans-Serif" font-size="10.00">current_results</text>
<text text-anchor="middle" x="311" y="-51.2653" font-family="Helvetica,sans-Serif" font-size="10.00">res_info</text>
<text text-anchor="middle" x="311" y="-40.2653" font-family="Helvetica,sans-Serif" font-size="10.00">comp_info</text>
</g>
<!-- Node4&#45;&gt;Node3 -->
<g id="edge3" class="edge"><title>Node4&#45;&gt;Node3</title>
<path fill="none" stroke="#9a32cd" stroke-dasharray="5,2" d="M358.902,-110.329C328.595,-102.378 290.894,-91.889 276,-85.2653 254.046,-75.502 230.859,-59.9282 216.91,-49.9013"/>
<polygon fill="#9a32cd" stroke="#9a32cd" points="358.294,-113.787 368.853,-112.918 360.057,-107.012 358.294,-113.787"/>
<text text-anchor="middle" x="311" y="-109.265" font-family="Helvetica,sans-Serif" font-size="10.00"> attached_to</text>
</g>
<!-- Node7 -->
<g id="node7" class="node"><title>Node7</title>
<g id="a_node7"><a xlink:href="a00007.html" target="_top" xlink:title="_cs_connection">
<polygon fill="white" stroke="black" points="551,-157.765 551,-176.765 642,-176.765 642,-157.765 551,-157.765"/>
<text text-anchor="middle" x="596.5" y="-164.765" font-family="Helvetica,sans-Serif" font-size="10.00">_cs_connection</text>
</a>
</g>
</g>
<!-- Node4&#45;&gt;Node7 -->
<g id="edge15" class="edge"><title>Node4&#45;&gt;Node7</title>
<path fill="none" stroke="#9a32cd" stroke-dasharray="5,2" d="M447.063,-125.877C472.383,-129.18 504.849,-134.446 533,-142.265 547.3,-146.238 562.794,-152.421 574.777,-157.645"/>
<polygon fill="#9a32cd" stroke="#9a32cd" points="447.391,-122.391 437.034,-124.622 446.522,-129.336 447.391,-122.391"/>
<text text-anchor="middle" x="496.5" y="-145.265" font-family="Helvetica,sans-Serif" font-size="10.00"> tds_socket</text>
</g>
<!-- Node5 -->
<g id="node5" class="node"><title>Node5</title>
<g id="a_node5"><a xlink:href="a00129.html" target="_top" xlink:title="tds_login">
<polygon fill="white" stroke="red" points="173.5,-119.765 173.5,-138.765 232.5,-138.765 232.5,-119.765 173.5,-119.765"/>
<text text-anchor="middle" x="203" y="-126.765" font-family="Helvetica,sans-Serif" font-size="10.00">tds_login</text>
</a>
</g>
</g>
<!-- Node5&#45;&gt;Node4 -->
<g id="edge4" class="edge"><title>Node5&#45;&gt;Node4</title>
<path fill="none" stroke="#9a32cd" stroke-dasharray="5,2" d="M243.12,-127.685C279.861,-126.2 334.227,-124.004 368.878,-122.604"/>
<polygon fill="#9a32cd" stroke="#9a32cd" points="242.641,-124.201 232.791,-128.102 242.924,-131.195 242.641,-124.201"/>
<text text-anchor="middle" x="311" y="-128.265" font-family="Helvetica,sans-Serif" font-size="10.00"> login</text>
</g>
<!-- Node5&#45;&gt;Node7 -->
<g id="edge16" class="edge"><title>Node5&#45;&gt;Node7</title>
<path fill="none" stroke="#9a32cd" stroke-dasharray="5,2" d="M242.65,-135.66C253.426,-137.309 265.152,-138.98 276,-140.265 373.845,-151.861 489.123,-160.329 550.954,-164.451"/>
<polygon fill="#9a32cd" stroke="#9a32cd" points="243.09,-132.186 232.669,-134.098 242.008,-139.102 243.09,-132.186"/>
<text text-anchor="middle" x="403" y="-159.265" font-family="Helvetica,sans-Serif" font-size="10.00"> tds_login</text>
</g>
<!-- Node6 -->
<g id="node6" class="node"><title>Node6</title>
<g id="a_node6"><a xlink:href="a00104.html" target="_top" xlink:title="Metadata about columns in regular and compute rows. ">
<polygon fill="white" stroke="red" points="0,-30.7653 0,-49.7653 70,-49.7653 70,-30.7653 0,-30.7653"/>
<text text-anchor="middle" x="35" y="-37.7653" font-family="Helvetica,sans-Serif" font-size="10.00">tds_column</text>
</a>
</g>
</g>
<!-- Node6&#45;&gt;Node3 -->
<g id="edge6" class="edge"><title>Node6&#45;&gt;Node3</title>
<path fill="none" stroke="#9a32cd" stroke-dasharray="5,2" d="M80.5792,-40.2653C105.254,-40.2653 135.742,-40.2653 159.994,-40.2653"/>
<polygon fill="#9a32cd" stroke="#9a32cd" points="80.3953,-36.7654 70.3953,-40.2653 80.3953,-43.7654 80.3953,-36.7654"/>
<text text-anchor="middle" x="109" y="-43.2653" font-family="Helvetica,sans-Serif" font-size="10.00"> columns</text>
</g>
<!-- Node7&#45;&gt;Node1 -->
<g id="edge7" class="edge"><title>Node7&#45;&gt;Node1</title>
<path fill="none" stroke="#9a32cd" stroke-dasharray="5,2" d="M624.386,-152.788C653.072,-137.342 697.713,-113.305 722.453,-99.9827"/>
<polygon fill="#9a32cd" stroke="#9a32cd" points="622.467,-149.846 615.322,-157.669 625.786,-156.01 622.467,-149.846"/>
<text text-anchor="middle" x="670.5" y="-136.265" font-family="Helvetica,sans-Serif" font-size="10.00"> con</text>
</g>
<!-- Node9 -->
<g id="node9" class="node"><title>Node9</title>
<g id="a_node9"><a xlink:href="a00004.html" target="_top" xlink:title="_cs_command">
<polygon fill="white" stroke="red" points="699,-196.765 699,-215.765 784,-215.765 784,-196.765 699,-196.765"/>
<text text-anchor="middle" x="741.5" y="-203.765" font-family="Helvetica,sans-Serif" font-size="10.00">_cs_command</text>
</a>
</g>
</g>
<!-- Node7&#45;&gt;Node9 -->
<g id="edge13" class="edge"><title>Node7&#45;&gt;Node9</title>
<path fill="none" stroke="#9a32cd" stroke-dasharray="5,2" d="M642.174,-179.449C662.547,-185.005 686.318,-191.488 705.384,-196.688"/>
<polygon fill="#9a32cd" stroke="#9a32cd" points="643.05,-176.06 632.482,-176.806 641.208,-182.814 643.05,-176.06"/>
<text text-anchor="middle" x="670.5" y="-191.265" font-family="Helvetica,sans-Serif" font-size="10.00"> con</text>
</g>
<!-- Node8 -->
<g id="node8" class="node"><title>Node8</title>
<g id="a_node8"><a xlink:href="a00005.html" target="_top" xlink:title="_cs_command_list">
<polygon fill="white" stroke="black" points="843,-175.765 843,-194.765 947,-194.765 947,-175.765 843,-175.765"/>
<text text-anchor="middle" x="895" y="-182.765" font-family="Helvetica,sans-Serif" font-size="10.00">_cs_command_list</text>
</a>
</g>
</g>
<!-- Node8&#45;&gt;Node7 -->
<g id="edge8" class="edge"><title>Node8&#45;&gt;Node7</title>
<path fill="none" stroke="#9a32cd" stroke-dasharray="5,2" d="M832.612,-179.878C816.782,-178.588 799.763,-177.29 784,-176.265 735.64,-173.121 680.159,-170.58 642.367,-169.01"/>
<polygon fill="#9a32cd" stroke="#9a32cd" points="832.564,-183.385 842.818,-180.72 833.14,-176.409 832.564,-183.385"/>
<text text-anchor="middle" x="741.5" y="-179.265" font-family="Helvetica,sans-Serif" font-size="10.00"> cmds</text>
</g>
<!-- Node8&#45;&gt;Node8 -->
<g id="edge9" class="edge"><title>Node8&#45;&gt;Node8</title>
<path fill="none" stroke="#9a32cd" stroke-dasharray="5,2" d="M880.268,-205.032C881.425,-209.762 886.335,-213.265 895,-213.265 909.219,-213.265 913.329,-203.831 907.33,-195.022"/>
<polygon fill="#9a32cd" stroke="#9a32cd" points="883.739,-205.563 882.67,-195.022 876.933,-203.929 883.739,-205.563"/>
<text text-anchor="middle" x="895" y="-216.265" font-family="Helvetica,sans-Serif" font-size="10.00"> next</text>
</g>
<!-- Node9&#45;&gt;Node8 -->
<g id="edge10" class="edge"><title>Node9&#45;&gt;Node8</title>
<path fill="none" stroke="#9a32cd" stroke-dasharray="5,2" d="M794.357,-199.077C810.045,-196.903 827.256,-194.517 842.895,-192.349"/>
<polygon fill="#9a32cd" stroke="#9a32cd" points="793.724,-195.631 784.299,-200.471 794.685,-202.565 793.724,-195.631"/>
<text text-anchor="middle" x="813.5" y="-200.265" font-family="Helvetica,sans-Serif" font-size="10.00"> cmd</text>
</g>
<!-- Node10 -->
<g id="node10" class="node"><title>Node10</title>
<g id="a_node10"><a xlink:href="a00013.html" target="_top" xlink:title="_cs_dynamic">
<polygon fill="white" stroke="red" points="364,-299.765 364,-318.765 442,-318.765 442,-299.765 364,-299.765"/>
<text text-anchor="middle" x="403" y="-306.765" font-family="Helvetica,sans-Serif" font-size="10.00">_cs_dynamic</text>
</a>
</g>
</g>
<!-- Node10&#45;&gt;Node7 -->
<g id="edge27" class="edge"><title>Node10&#45;&gt;Node7</title>
<path fill="none" stroke="#9a32cd" stroke-dasharray="5,2" d="M432.974,-295.099C436.04,-293.505 439.097,-291.874 442,-290.265 450.2,-285.72 451.837,-283.877 460,-279.265 491.846,-261.274 504.437,-264.114 533,-241.265 557.162,-221.937 578.879,-192.165 589.183,-176.947"/>
<polygon fill="#9a32cd" stroke="#9a32cd" points="431.216,-292.066 423.888,-299.718 434.389,-298.306 431.216,-292.066"/>
<text text-anchor="middle" x="496.5" y="-282.265" font-family="Helvetica,sans-Serif" font-size="10.00"> dynlist</text>
</g>
<!-- Node10&#45;&gt;Node9 -->
<g id="edge11" class="edge"><title>Node10&#45;&gt;Node9</title>
<path fill="none" stroke="#9a32cd" stroke-dasharray="5,2" d="M452.154,-304.932C476.647,-302.036 506.718,-297.41 533,-290.265 604.818,-270.741 685.301,-233.423 721.298,-215.857"/>
<polygon fill="#9a32cd" stroke="#9a32cd" points="451.572,-301.475 442.025,-306.07 452.353,-308.432 451.572,-301.475"/>
<text text-anchor="middle" x="596.5" y="-287.265" font-family="Helvetica,sans-Serif" font-size="10.00"> dyn</text>
</g>
<!-- Node10&#45;&gt;Node10 -->
<g id="edge12" class="edge"><title>Node10&#45;&gt;Node10</title>
<path fill="none" stroke="#9a32cd" stroke-dasharray="5,2" d="M385.964,-328.665C387.102,-333.58 392.78,-337.265 403,-337.265 419.352,-337.265 424.078,-327.831 417.18,-319.022"/>
<polygon fill="#9a32cd" stroke="#9a32cd" points="389.336,-329.605 388.82,-319.022 382.624,-327.617 389.336,-329.605"/>
<text text-anchor="middle" x="403" y="-340.265" font-family="Helvetica,sans-Serif" font-size="10.00"> next</text>
</g>
<!-- Node11 -->
<g id="node11" class="node"><title>Node11</title>
<g id="a_node11"><a xlink:href="a00015.html" target="_top" xlink:title="_cs_locale">
<polygon fill="white" stroke="black" points="369.5,-73.7653 369.5,-92.7653 436.5,-92.7653 436.5,-73.7653 369.5,-73.7653"/>
<text text-anchor="middle" x="403" y="-80.7653" font-family="Helvetica,sans-Serif" font-size="10.00">_cs_locale</text>
</a>
</g>
</g>
<!-- Node11&#45;&gt;Node7 -->
<g id="edge14" class="edge"><title>Node11&#45;&gt;Node7</title>
<path fill="none" stroke="#9a32cd" stroke-dasharray="5,2" d="M446.488,-87.4023C472.561,-91.2271 506.008,-98.5072 533,-112.265 555.407,-123.686 576.228,-144.991 587.267,-157.467"/>
<polygon fill="#9a32cd" stroke="#9a32cd" points="446.906,-83.9271 436.527,-86.0548 445.968,-90.8639 446.906,-83.9271"/>
<text text-anchor="middle" x="496.5" y="-115.265" font-family="Helvetica,sans-Serif" font-size="10.00"> locale</text>
</g>
<!-- Node12 -->
<g id="node12" class="node"><title>Node12</title>
<g id="a_node12"><a xlink:href="a00008.html" target="_top" xlink:title="_cs_context">
<polygon fill="white" stroke="black" points="366,-210.765 366,-229.765 440,-229.765 440,-210.765 366,-210.765"/>
<text text-anchor="middle" x="403" y="-217.765" font-family="Helvetica,sans-Serif" font-size="10.00">_cs_context</text>
</a>
</g>
</g>
<!-- Node12&#45;&gt;Node7 -->
<g id="edge17" class="edge"><title>Node12&#45;&gt;Node7</title>
<path fill="none" stroke="#9a32cd" stroke-dasharray="5,2" d="M448.452,-207.963C482.774,-198.464 529.574,-185.511 561.079,-176.792"/>
<polygon fill="#9a32cd" stroke="#9a32cd" points="447.383,-204.627 438.679,-210.667 449.251,-211.373 447.383,-204.627"/>
<text text-anchor="middle" x="496.5" y="-229.265" font-family="Helvetica,sans-Serif" font-size="10.00"> ctx</text>
<text text-anchor="middle" x="496.5" y="-218.265" font-family="Helvetica,sans-Serif" font-size="10.00">_clientmsg_cb</text>
<text text-anchor="middle" x="496.5" y="-207.265" font-family="Helvetica,sans-Serif" font-size="10.00">_servermsg_cb</text>
</g>
<!-- Node12&#45;&gt;Node12 -->
<g id="edge22" class="edge"><title>Node12&#45;&gt;Node12</title>
<path fill="none" stroke="#9a32cd" stroke-dasharray="5,2" d="M385.964,-239.665C387.102,-244.58 392.78,-248.265 403,-248.265 419.352,-248.265 424.078,-238.831 417.18,-230.022"/>
<polygon fill="#9a32cd" stroke="#9a32cd" points="389.336,-240.605 388.82,-230.022 382.624,-238.617 389.336,-240.605"/>
<text text-anchor="middle" x="403" y="-273.265" font-family="Helvetica,sans-Serif" font-size="10.00"> _clientmsg_cb</text>
<text text-anchor="middle" x="403" y="-262.265" font-family="Helvetica,sans-Serif" font-size="10.00">_servermsg_cb</text>
<text text-anchor="middle" x="403" y="-251.265" font-family="Helvetica,sans-Serif" font-size="10.00">_cslibmsg_cb</text>
</g>
<!-- Node13 -->
<g id="node13" class="node"><title>Node13</title>
<g id="a_node13"><a xlink:href="a00053.html" target="_top" xlink:title="cs_diag_msg_client">
<polygon fill="white" stroke="red" points="148,-367.765 148,-386.765 258,-386.765 258,-367.765 148,-367.765"/>
<text text-anchor="middle" x="203" y="-374.765" font-family="Helvetica,sans-Serif" font-size="10.00">cs_diag_msg_client</text>
</a>
</g>
</g>
<!-- Node13&#45;&gt;Node12 -->
<g id="edge18" class="edge"><title>Node13&#45;&gt;Node12</title>
<path fill="none" stroke="#9a32cd" stroke-dasharray="5,2" d="M268.329,-371.853C295.13,-366.628 324.865,-356.557 346,-337.265 362.521,-322.186 354.644,-310.583 364,-290.265 374.18,-268.159 388.323,-243.363 396.169,-230.024"/>
<polygon fill="#9a32cd" stroke="#9a32cd" points="267.468,-368.45 258.224,-373.627 268.679,-375.345 267.468,-368.45"/>
<text text-anchor="middle" x="311" y="-372.265" font-family="Helvetica,sans-Serif" font-size="10.00"> clientstore</text>
</g>
<!-- Node13&#45;&gt;Node13 -->
<g id="edge19" class="edge"><title>Node13&#45;&gt;Node13</title>
<path fill="none" stroke="#9a32cd" stroke-dasharray="5,2" d="M185.593,-396.665C186.756,-401.58 192.558,-405.265 203,-405.265 219.707,-405.265 224.536,-395.831 217.488,-387.022"/>
<polygon fill="#9a32cd" stroke="#9a32cd" points="188.965,-397.608 188.512,-387.022 182.265,-395.58 188.965,-397.608"/>
<text text-anchor="middle" x="203" y="-408.265" font-family="Helvetica,sans-Serif" font-size="10.00"> next</text>
</g>
<!-- Node14 -->
<g id="node14" class="node"><title>Node14</title>
<g id="a_node14"><a xlink:href="a00109.html" target="_top" xlink:title="tds_context">
<polygon fill="white" stroke="red" points="167.5,-329.765 167.5,-348.765 238.5,-348.765 238.5,-329.765 167.5,-329.765"/>
<text text-anchor="middle" x="203" y="-336.765" font-family="Helvetica,sans-Serif" font-size="10.00">tds_context</text>
</a>
</g>
</g>
<!-- Node14&#45;&gt;Node12 -->
<g id="edge20" class="edge"><title>Node14&#45;&gt;Node12</title>
<path fill="none" stroke="#9a32cd" stroke-dasharray="5,2" d="M248.639,-330.246C278.198,-322.735 316.76,-309.871 346,-289.265 368.953,-273.091 387.574,-245.04 396.421,-230.174"/>
<polygon fill="#9a32cd" stroke="#9a32cd" points="247.482,-326.925 238.589,-332.683 249.132,-333.727 247.482,-326.925"/>
<text text-anchor="middle" x="311" y="-325.265" font-family="Helvetica,sans-Serif" font-size="10.00"> tds_ctx</text>
</g>
<!-- Node15 -->
<g id="node15" class="node"><title>Node15</title>
<g id="a_node15"><a xlink:href="a00006.html" target="_top" xlink:title="_cs_config">
<polygon fill="white" stroke="black" points="169,-291.765 169,-310.765 237,-310.765 237,-291.765 169,-291.765"/>
<text text-anchor="middle" x="203" y="-298.765" font-family="Helvetica,sans-Serif" font-size="10.00">_cs_config</text>
</a>
</g>
</g>
<!-- Node15&#45;&gt;Node12 -->
<g id="edge21" class="edge"><title>Node15&#45;&gt;Node12</title>
<path fill="none" stroke="#9a32cd" stroke-dasharray="5,2" d="M241.814,-288.33C247.267,-286.357 252.793,-284.3 258,-282.265 302.114,-265.031 352.785,-242.582 380.72,-229.969"/>
<polygon fill="#9a32cd" stroke="#9a32cd" points="240.409,-285.115 232.161,-291.765 242.756,-291.71 240.409,-285.115"/>
<text text-anchor="middle" x="311" y="-277.265" font-family="Helvetica,sans-Serif" font-size="10.00"> config</text>
</g>
<!-- Node16 -->
<g id="node16" class="node"><title>Node16</title>
<g id="a_node16"><a xlink:href="a00054.html" target="_top" xlink:title="cs_diag_msg_svr">
<polygon fill="white" stroke="red" points="153.5,-224.765 153.5,-243.765 252.5,-243.765 252.5,-224.765 153.5,-224.765"/>
<text text-anchor="middle" x="203" y="-231.765" font-family="Helvetica,sans-Serif" font-size="10.00">cs_diag_msg_svr</text>
</a>
</g>
</g>
<!-- Node16&#45;&gt;Node12 -->
<g id="edge23" class="edge"><title>Node16&#45;&gt;Node12</title>
<path fill="none" stroke="#9a32cd" stroke-dasharray="5,2" d="M262.825,-230.106C296.315,-227.738 337.193,-224.848 365.954,-222.814"/>
<polygon fill="#9a32cd" stroke="#9a32cd" points="262.418,-226.626 252.69,-230.823 262.912,-233.608 262.418,-226.626"/>
<text text-anchor="middle" x="311" y="-231.265" font-family="Helvetica,sans-Serif" font-size="10.00"> svrstore</text>
</g>
<!-- Node16&#45;&gt;Node16 -->
<g id="edge24" class="edge"><title>Node16&#45;&gt;Node16</title>
<path fill="none" stroke="#9a32cd" stroke-dasharray="5,2" d="M185.593,-253.665C186.756,-258.58 192.558,-262.265 203,-262.265 219.707,-262.265 224.536,-252.831 217.488,-244.022"/>
<polygon fill="#9a32cd" stroke="#9a32cd" points="188.965,-254.608 188.512,-244.022 182.265,-252.58 188.965,-254.608"/>
<text text-anchor="middle" x="203" y="-265.265" font-family="Helvetica,sans-Serif" font-size="10.00"> next</text>
</g>
<!-- Node17 -->
<g id="node17" class="node"><title>Node17</title>
<g id="a_node17"><a xlink:href="a00052.html" target="_top" xlink:title="cs_diag_msg">
<polygon fill="white" stroke="red" points="163.5,-157.765 163.5,-176.765 242.5,-176.765 242.5,-157.765 163.5,-157.765"/>
<text text-anchor="middle" x="203" y="-164.765" font-family="Helvetica,sans-Serif" font-size="10.00">cs_diag_msg</text>
</a>
</g>
</g>
<!-- Node17&#45;&gt;Node12 -->
<g id="edge25" class="edge"><title>Node17&#45;&gt;Node12</title>
<path fill="none" stroke="#9a32cd" stroke-dasharray="5,2" d="M249.961,-179.568C285.448,-189.067 333.836,-202.019 366.41,-210.739"/>
<polygon fill="#9a32cd" stroke="#9a32cd" points="250.421,-176.068 239.856,-176.863 248.611,-182.83 250.421,-176.068"/>
<text text-anchor="middle" x="311" y="-207.265" font-family="Helvetica,sans-Serif" font-size="10.00"> msgstore</text>
</g>
<!-- Node17&#45;&gt;Node17 -->
<g id="edge26" class="edge"><title>Node17&#45;&gt;Node17</title>
<path fill="none" stroke="#9a32cd" stroke-dasharray="5,2" d="M185.593,-186.665C186.756,-191.58 192.558,-195.265 203,-195.265 219.707,-195.265 224.536,-185.831 217.488,-177.022"/>
<polygon fill="#9a32cd" stroke="#9a32cd" points="188.965,-187.608 188.512,-177.022 182.265,-185.58 188.965,-187.608"/>
<text text-anchor="middle" x="203" y="-198.265" font-family="Helvetica,sans-Serif" font-size="10.00"> next</text>
</g>
</g>
</svg>
