<?xml version="1.0" encoding="UTF-8" standalone="no"?>
<!DOCTYPE svg PUBLIC "-//W3C//DTD SVG 1.1//EN"
 "http://www.w3.org/Graphics/SVG/1.1/DTD/svg11.dtd">
<!-- Generated by graphviz version 2.38.0 (20140413.2041)
 -->
<!-- Title: tds_send_emulated_rpc Pages: 1 -->
<svg width="1110pt" height="357pt"
 viewBox="0.00 0.00 1110.00 357.00" xmlns="http://www.w3.org/2000/svg" xmlns:xlink="http://www.w3.org/1999/xlink">
<g id="graph0" class="graph" transform="scale(1 1) rotate(0) translate(4 353)">
<title>tds_send_emulated_rpc</title>
<polygon fill="white" stroke="none" points="-4,4 -4,-353 1106,-353 1106,4 -4,4"/>
<!-- Node1 -->
<g id="node1" class="node"><title>Node1</title>
<polygon fill="#bfbfbf" stroke="black" points="0,-101.5 0,-120.5 130,-120.5 130,-101.5 0,-101.5"/>
<text text-anchor="middle" x="65" y="-108.5" font-family="Helvetica,sans-Serif" font-size="10.00">tds_send_emulated_rpc</text>
</g>
<!-- Node2 -->
<g id="node2" class="node"><title>Node2</title>
<g id="a_node2"><a xlink:href="a00356.html#ga50d62edeb2a432e2dc668263f3f958ff" target="_top" xlink:title="Return declaration for column (like &quot;varchar(20)&quot;) ">
<polygon fill="white" stroke="black" points="166,-272.5 166,-291.5 315,-291.5 315,-272.5 166,-272.5"/>
<text text-anchor="middle" x="240.5" y="-279.5" font-family="Helvetica,sans-Serif" font-size="10.00">tds_get_column_declaration</text>
</a>
</g>
</g>
<!-- Node1&#45;&gt;Node2 -->
<g id="edge1" class="edge"><title>Node1&#45;&gt;Node2</title>
<path fill="none" stroke="midnightblue" d="M75.8252,-120.684C104.216,-148.665 186.619,-229.881 222.487,-265.232"/>
<polygon fill="midnightblue" stroke="midnightblue" points="220.203,-267.896 229.783,-272.423 225.117,-262.91 220.203,-267.896"/>
</g>
<!-- Node6 -->
<g id="node6" class="node"><title>Node6</title>
<g id="a_node6"><a xlink:href="a00357.html#ga1fcaf8d488cc1390f106ce3ad0bf37b4" target="_top" xlink:title="Output a string to wire automatic translate string to unicode if needed. ">
<polygon fill="white" stroke="black" points="545.5,-185.5 545.5,-204.5 628.5,-204.5 628.5,-185.5 545.5,-185.5"/>
<text text-anchor="middle" x="587" y="-192.5" font-family="Helvetica,sans-Serif" font-size="10.00">tds_put_string</text>
</a>
</g>
</g>
<!-- Node1&#45;&gt;Node6 -->
<g id="edge5" class="edge"><title>Node1&#45;&gt;Node6</title>
<path fill="none" stroke="midnightblue" d="M130.269,-103.564C214.482,-96.1227 365.706,-90.7395 487,-130 518.383,-140.158 549.312,-163.112 568.031,-178.834"/>
<polygon fill="midnightblue" stroke="midnightblue" points="565.872,-181.594 575.73,-185.477 570.445,-176.294 565.872,-181.594"/>
</g>
<!-- Node15 -->
<g id="node15" class="node"><title>Node15</title>
<g id="a_node15"><a xlink:href="a00356.html#ga0e2e7230c425e925402d7856ff5b4b18" target="_top" xlink:title="Send a parameter to server. ">
<polygon fill="white" stroke="black" points="172,-158.5 172,-177.5 309,-177.5 309,-158.5 172,-158.5"/>
<text text-anchor="middle" x="240.5" y="-165.5" font-family="Helvetica,sans-Serif" font-size="10.00">tds_put_param_as_string</text>
</a>
</g>
</g>
<!-- Node1&#45;&gt;Node15 -->
<g id="edge17" class="edge"><title>Node1&#45;&gt;Node15</title>
<path fill="none" stroke="midnightblue" d="M95.04,-120.541C123.939,-130.035 168.477,-144.667 200.459,-155.174"/>
<polygon fill="midnightblue" stroke="midnightblue" points="199.772,-158.632 210.365,-158.428 201.957,-151.982 199.772,-158.632"/>
</g>
<!-- Node19 -->
<g id="node19" class="node"><title>Node19</title>
<g id="a_node19"><a xlink:href="a00356.html#gada27f4cfce925240ad33b71b63ca692d" target="_top" xlink:title="Flush query packet. ">
<polygon fill="white" stroke="black" points="523,-25.5 523,-44.5 651,-44.5 651,-25.5 523,-25.5"/>
<text text-anchor="middle" x="587" y="-32.5" font-family="Helvetica,sans-Serif" font-size="10.00">tds_query_flush_packet</text>
</a>
</g>
</g>
<!-- Node1&#45;&gt;Node19 -->
<g id="edge25" class="edge"><title>Node1&#45;&gt;Node19</title>
<path fill="none" stroke="midnightblue" d="M79.7817,-101.403C98.3752,-89.0442 132.981,-68.0779 166,-59 284.087,-26.5344 427.675,-26.3026 512.692,-30.0066"/>
<polygon fill="midnightblue" stroke="midnightblue" points="512.612,-33.5066 522.764,-30.4759 512.938,-26.5141 512.612,-33.5066"/>
</g>
<!-- Node3 -->
<g id="node3" class="node"><title>Node3</title>
<g id="a_node3"><a xlink:href="a00356.html#ga440f0f469afad1eac4c008979873ccdd" target="_top" xlink:title="Get column size for wire. ">
<polygon fill="white" stroke="black" points="363.5,-329.5 363.5,-348.5 474.5,-348.5 474.5,-329.5 363.5,-329.5"/>
<text text-anchor="middle" x="419" y="-336.5" font-family="Helvetica,sans-Serif" font-size="10.00">tds_fix_column_size</text>
</a>
</g>
</g>
<!-- Node2&#45;&gt;Node3 -->
<g id="edge2" class="edge"><title>Node2&#45;&gt;Node3</title>
<path fill="none" stroke="midnightblue" d="M271.042,-291.541C300.569,-301.076 346.142,-315.794 378.705,-326.31"/>
<polygon fill="midnightblue" stroke="midnightblue" points="377.77,-329.686 388.361,-329.428 379.921,-323.024 377.77,-329.686"/>
</g>
<!-- Node4 -->
<g id="node4" class="node"><title>Node4</title>
<g id="a_node4"><a xlink:href="a00193.html#ae7f4c4d5f7352f1c814284c536659e6f" target="_top" xlink:title="Return type suitable for conversions (convert all nullable types to fixed type) ">
<polygon fill="white" stroke="black" points="351,-253.5 351,-272.5 487,-272.5 487,-253.5 351,-253.5"/>
<text text-anchor="middle" x="419" y="-260.5" font-family="Helvetica,sans-Serif" font-size="10.00">tds_get_conversion_type</text>
</a>
</g>
</g>
<!-- Node2&#45;&gt;Node4 -->
<g id="edge3" class="edge"><title>Node2&#45;&gt;Node4</title>
<path fill="none" stroke="midnightblue" d="M315.074,-274.08C323.572,-273.165 332.257,-272.23 340.802,-271.31"/>
<polygon fill="midnightblue" stroke="midnightblue" points="341.18,-274.79 350.748,-270.24 340.431,-267.83 341.18,-274.79"/>
</g>
<!-- Node5 -->
<g id="node5" class="node"><title>Node5</title>
<g id="a_node5"><a xlink:href="a00193.html#ab45c291105027e69836002e1dd586141" target="_top" xlink:title="Write a message to the debug log. ">
<polygon fill="white" stroke="black" points="1025,-89.5 1025,-108.5 1102,-108.5 1102,-89.5 1025,-89.5"/>
<text text-anchor="middle" x="1063.5" y="-96.5" font-family="Helvetica,sans-Serif" font-size="10.00">tdsdump_log</text>
</a>
</g>
</g>
<!-- Node2&#45;&gt;Node5 -->
<g id="edge4" class="edge"><title>Node2&#45;&gt;Node5</title>
<path fill="none" stroke="midnightblue" d="M315.022,-288.406C384.727,-293.922 492.406,-301 586,-301 586,-301 586,-301 753,-301 858.228,-301 904.259,-344.386 989,-282 1042.47,-242.634 1057.11,-157.888 1061.06,-119.111"/>
<polygon fill="midnightblue" stroke="midnightblue" points="1064.59,-118.92 1061.98,-108.653 1057.62,-118.31 1064.59,-118.92"/>
</g>
<!-- Node7 -->
<g id="node7" class="node"><title>Node7</title>
<g id="a_node7"><a xlink:href="a00263.html#aa9e1e45f0305622dd6aed9f8fe158581" target="_top" xlink:title="Initialize an input stream for read from a static allocated buffer. ">
<polygon fill="white" stroke="black" points="688,-246.5 688,-265.5 816,-265.5 816,-246.5 688,-246.5"/>
<text text-anchor="middle" x="752" y="-253.5" font-family="Helvetica,sans-Serif" font-size="10.00">tds_staticin_stream_init</text>
</a>
</g>
</g>
<!-- Node6&#45;&gt;Node7 -->
<g id="edge6" class="edge"><title>Node6&#45;&gt;Node7</title>
<path fill="none" stroke="midnightblue" d="M613.469,-204.531C641.02,-214.842 685.128,-231.349 715.942,-242.88"/>
<polygon fill="midnightblue" stroke="midnightblue" points="714.849,-246.208 725.442,-246.435 717.303,-239.652 714.849,-246.208"/>
</g>
<!-- Node9 -->
<g id="node9" class="node"><title>Node9</title>
<g id="a_node9"><a xlink:href="a00263.html#aa038a9125979f8f0915dbd53cbf27e5a" target="_top" xlink:title="Initialize a data output stream. ">
<polygon fill="white" stroke="black" points="687,-201.5 687,-220.5 817,-220.5 817,-201.5 687,-201.5"/>
<text text-anchor="middle" x="752" y="-208.5" font-family="Helvetica,sans-Serif" font-size="10.00">tds_dataout_stream_init</text>
</a>
</g>
</g>
<!-- Node6&#45;&gt;Node9 -->
<g id="edge8" class="edge"><title>Node6&#45;&gt;Node9</title>
<path fill="none" stroke="midnightblue" d="M628.711,-198.996C643.236,-200.422 660.089,-202.076 676.555,-203.693"/>
<polygon fill="midnightblue" stroke="midnightblue" points="676.439,-207.198 686.733,-204.692 677.123,-200.231 676.439,-207.198"/>
</g>
<!-- Node11 -->
<g id="node11" class="node"><title>Node11</title>
<g id="a_node11"><a xlink:href="a00263.html#a9d8eb43a81ff58ab423dce0ce95b9564" target="_top" xlink:title="Reads and writes from a stream converting characters. ">
<polygon fill="white" stroke="black" points="697,-127.5 697,-146.5 807,-146.5 807,-127.5 697,-127.5"/>
<text text-anchor="middle" x="752" y="-134.5" font-family="Helvetica,sans-Serif" font-size="10.00">tds_convert_stream</text>
</a>
</g>
</g>
<!-- Node6&#45;&gt;Node11 -->
<g id="edge10" class="edge"><title>Node6&#45;&gt;Node11</title>
<path fill="none" stroke="midnightblue" d="M614.916,-185.422C642.05,-175.767 684.123,-160.797 714.304,-150.058"/>
<polygon fill="midnightblue" stroke="midnightblue" points="715.796,-153.242 724.044,-146.592 713.449,-146.647 715.796,-153.242"/>
</g>
<!-- Node8 -->
<g id="node8" class="node"><title>Node8</title>
<g id="a_node8"><a xlink:href="a00263.html#a76b02f1fa5b79dc7e1ef2651a9afe3f7" target="_top" xlink:title="Reads data from a static allocated buffer. ">
<polygon fill="white" stroke="black" points="853,-253.5 853,-272.5 989,-272.5 989,-253.5 853,-253.5"/>
<text text-anchor="middle" x="921" y="-260.5" font-family="Helvetica,sans-Serif" font-size="10.00">tds_staticin_stream_read</text>
</a>
</g>
</g>
<!-- Node7&#45;&gt;Node8 -->
<g id="edge7" class="edge"><title>Node7&#45;&gt;Node8</title>
<path fill="none" stroke="midnightblue" d="M816.136,-258.646C824.86,-259.012 833.9,-259.391 842.843,-259.766"/>
<polygon fill="midnightblue" stroke="midnightblue" points="842.738,-263.264 852.875,-260.186 843.031,-256.271 842.738,-263.264"/>
</g>
<!-- Node10 -->
<g id="node10" class="node"><title>Node10</title>
<g id="a_node10"><a xlink:href="a00263.html#ae38a590ee08cf398e7adef536ac94538" target="_top" xlink:title="Writes data to network for output stream. ">
<polygon fill="white" stroke="black" points="866,-204 866,-234 976,-234 976,-204 866,-204"/>
<text text-anchor="start" x="874" y="-222" font-family="Helvetica,sans-Serif" font-size="10.00">tds_dataout_stream</text>
<text text-anchor="middle" x="921" y="-211" font-family="Helvetica,sans-Serif" font-size="10.00">_write</text>
</a>
</g>
</g>
<!-- Node9&#45;&gt;Node10 -->
<g id="edge9" class="edge"><title>Node9&#45;&gt;Node10</title>
<path fill="none" stroke="midnightblue" d="M817.089,-214.07C829.79,-214.679 843.126,-215.317 855.83,-215.926"/>
<polygon fill="midnightblue" stroke="midnightblue" points="855.703,-219.424 865.859,-216.406 856.038,-212.432 855.703,-219.424"/>
</g>
<!-- Node11&#45;&gt;Node5 -->
<g id="edge13" class="edge"><title>Node11&#45;&gt;Node5</title>
<path fill="none" stroke="midnightblue" d="M781.893,-146.586C827.324,-160.074 917.638,-180.428 989,-156 1011.99,-148.131 1033.34,-129.82 1047.05,-116.061"/>
<polygon fill="midnightblue" stroke="midnightblue" points="1049.8,-118.245 1054.18,-108.599 1044.74,-113.407 1049.8,-118.245"/>
</g>
<!-- Node12 -->
<g id="node12" class="node"><title>Node12</title>
<g id="a_node12"><a xlink:href="a00354.html#ga87db49044919f1bc84c0ff5e9ab00304" target="_top" xlink:title="Wrapper around iconv(3). ">
<polygon fill="white" stroke="red" points="890,-89.5 890,-108.5 952,-108.5 952,-89.5 890,-89.5"/>
<text text-anchor="middle" x="921" y="-96.5" font-family="Helvetica,sans-Serif" font-size="10.00">tds_iconv</text>
</a>
</g>
</g>
<!-- Node11&#45;&gt;Node12 -->
<g id="edge11" class="edge"><title>Node11&#45;&gt;Node12</title>
<path fill="none" stroke="midnightblue" d="M795.141,-127.411C821.244,-121.471 854.56,-113.89 880.212,-108.054"/>
<polygon fill="midnightblue" stroke="midnightblue" points="881.013,-111.461 889.987,-105.829 879.46,-104.635 881.013,-111.461"/>
</g>
<!-- Node13 -->
<g id="node13" class="node"><title>Node13</title>
<g id="a_node13"><a xlink:href="a00193.html#a79449d2f35a8acc8ed0585044f75524d" target="_top" xlink:title="Dump the contents of data into the log file in a human readable format. ">
<polygon fill="white" stroke="black" points="867.5,-127.5 867.5,-146.5 974.5,-146.5 974.5,-127.5 867.5,-127.5"/>
<text text-anchor="middle" x="921" y="-134.5" font-family="Helvetica,sans-Serif" font-size="10.00">tdsdump_dump_buf</text>
</a>
</g>
</g>
<!-- Node11&#45;&gt;Node13 -->
<g id="edge14" class="edge"><title>Node11&#45;&gt;Node13</title>
<path fill="none" stroke="midnightblue" d="M807.22,-137C823.231,-137 840.886,-137 857.38,-137"/>
<polygon fill="midnightblue" stroke="midnightblue" points="857.474,-140.5 867.474,-137 857.474,-133.5 857.474,-140.5"/>
</g>
<!-- Node14 -->
<g id="node14" class="node"><title>Node14</title>
<g id="a_node14"><a xlink:href="a00193.html#abf18b98efef6ce2dc0b97d658a3a1918" target="_top" xlink:title="Call the client library&#39;s error handler (for library&#45;generated errors only) ">
<polygon fill="white" stroke="red" points="894,-51.5 894,-70.5 948,-70.5 948,-51.5 894,-51.5"/>
<text text-anchor="middle" x="921" y="-58.5" font-family="Helvetica,sans-Serif" font-size="10.00">tdserror</text>
</a>
</g>
</g>
<!-- Node11&#45;&gt;Node14 -->
<g id="edge15" class="edge"><title>Node11&#45;&gt;Node14</title>
<path fill="none" stroke="midnightblue" d="M767.338,-127.342C786.261,-114.949 820.936,-93.4507 853,-80 862.784,-75.8959 873.732,-72.3729 883.897,-69.515"/>
<polygon fill="midnightblue" stroke="midnightblue" points="884.976,-72.8497 893.73,-66.8817 883.165,-66.088 884.976,-72.8497"/>
</g>
<!-- Node12&#45;&gt;Node5 -->
<g id="edge12" class="edge"><title>Node12&#45;&gt;Node5</title>
<path fill="none" stroke="midnightblue" d="M952.141,-99C970.351,-99 993.969,-99 1014.68,-99"/>
<polygon fill="midnightblue" stroke="midnightblue" points="1014.89,-102.5 1024.89,-99 1014.89,-95.5001 1014.89,-102.5"/>
</g>
<!-- Node14&#45;&gt;Node5 -->
<g id="edge16" class="edge"><title>Node14&#45;&gt;Node5</title>
<path fill="none" stroke="midnightblue" d="M948.098,-68.0585C967.523,-73.3122 994.522,-80.6146 1017.41,-86.8059"/>
<polygon fill="midnightblue" stroke="midnightblue" points="1016.7,-90.2391 1027.27,-89.4713 1018.53,-83.4818 1016.7,-90.2391"/>
</g>
<!-- Node15&#45;&gt;Node4 -->
<g id="edge24" class="edge"><title>Node15&#45;&gt;Node4</title>
<path fill="none" stroke="midnightblue" d="M254.069,-177.541C273.853,-192.229 313.841,-220.607 351,-239 359.206,-243.062 368.276,-246.783 377.022,-250.021"/>
<polygon fill="midnightblue" stroke="midnightblue" points="376.101,-253.408 386.696,-253.463 378.448,-246.813 376.101,-253.408"/>
</g>
<!-- Node15&#45;&gt;Node6 -->
<g id="edge18" class="edge"><title>Node15&#45;&gt;Node6</title>
<path fill="none" stroke="midnightblue" d="M262.348,-177.59C283.98,-186.973 319.053,-200.614 351,-206 413.849,-216.595 487.396,-210.186 535.246,-203.566"/>
<polygon fill="midnightblue" stroke="midnightblue" points="535.95,-207.001 545.35,-202.112 534.953,-200.073 535.95,-207.001"/>
</g>
<!-- Node16 -->
<g id="node16" class="node"><title>Node16</title>
<g id="a_node16"><a xlink:href="a00356.html#ga024bc5482366735070befd6f4af59f71" target="_top" xlink:title="Convert a string in an allocated buffer. ">
<polygon fill="white" stroke="black" points="535,-95.5 535,-114.5 639,-114.5 639,-95.5 535,-95.5"/>
<text text-anchor="middle" x="587" y="-102.5" font-family="Helvetica,sans-Serif" font-size="10.00">tds_convert_string</text>
</a>
</g>
</g>
<!-- Node15&#45;&gt;Node16 -->
<g id="edge19" class="edge"><title>Node15&#45;&gt;Node16</title>
<path fill="none" stroke="midnightblue" d="M264.129,-158.44C285.97,-149.625 320.169,-136.895 351,-130 409.006,-117.028 476.618,-110.732 524.387,-107.71"/>
<polygon fill="midnightblue" stroke="midnightblue" points="524.799,-111.191 534.571,-107.096 524.378,-104.204 524.799,-111.191"/>
</g>
<!-- Node17 -->
<g id="node17" class="node"><title>Node17</title>
<g id="a_node17"><a xlink:href="a00356.html#ga26b26296d060dca75f6a43e9ac41e58d" target="_top" xlink:title="Send a string to server while quoting it. ">
<polygon fill="white" stroke="black" points="365.5,-177.5 365.5,-196.5 472.5,-196.5 472.5,-177.5 365.5,-177.5"/>
<text text-anchor="middle" x="419" y="-184.5" font-family="Helvetica,sans-Serif" font-size="10.00">tds_quote_and_put</text>
</a>
</g>
</g>
<!-- Node15&#45;&gt;Node17 -->
<g id="edge21" class="edge"><title>Node15&#45;&gt;Node17</title>
<path fill="none" stroke="midnightblue" d="M309.235,-175.292C324.321,-176.916 340.255,-178.631 355.135,-180.233"/>
<polygon fill="midnightblue" stroke="midnightblue" points="354.929,-183.731 365.246,-181.321 355.678,-176.771 354.929,-183.731"/>
</g>
<!-- Node18 -->
<g id="node18" class="node"><title>Node18</title>
<g id="a_node18"><a xlink:href="a00353.html#gaa865e08f7ad70ef92b111c2ea3657457" target="_top" xlink:title="tds_convert convert a type to another. ">
<polygon fill="white" stroke="black" points="383,-139.5 383,-158.5 455,-158.5 455,-139.5 383,-139.5"/>
<text text-anchor="middle" x="419" y="-146.5" font-family="Helvetica,sans-Serif" font-size="10.00">tds_convert</text>
</a>
</g>
</g>
<!-- Node15&#45;&gt;Node18 -->
<g id="edge23" class="edge"><title>Node15&#45;&gt;Node18</title>
<path fill="none" stroke="midnightblue" d="M309.235,-160.708C330.495,-158.42 353.437,-155.95 372.745,-153.872"/>
<polygon fill="midnightblue" stroke="midnightblue" points="373.205,-157.342 382.773,-152.792 372.456,-150.383 373.205,-157.342"/>
</g>
<!-- Node16&#45;&gt;Node12 -->
<g id="edge20" class="edge"><title>Node16&#45;&gt;Node12</title>
<path fill="none" stroke="midnightblue" d="M639.147,-104.076C705.209,-102.882 818.871,-100.828 879.36,-99.7345"/>
<polygon fill="midnightblue" stroke="midnightblue" points="879.723,-103.229 889.658,-99.5483 879.597,-96.2297 879.723,-103.229"/>
</g>
<!-- Node17&#45;&gt;Node6 -->
<g id="edge22" class="edge"><title>Node17&#45;&gt;Node6</title>
<path fill="none" stroke="midnightblue" d="M472.523,-189.531C492.583,-190.498 515.401,-191.598 535.289,-192.556"/>
<polygon fill="midnightblue" stroke="midnightblue" points="535.235,-196.057 545.392,-193.043 535.572,-189.066 535.235,-196.057"/>
</g>
<!-- Node20 -->
<g id="node20" class="node"><title>Node20</title>
<g id="a_node20"><a xlink:href="a00193.html#a16db200d2281f76fe46fc1cbe37ca9df" target="_top" xlink:title="Set state of TDS connection, with logging and checking. ">
<polygon fill="white" stroke="black" points="712,-38.5 712,-57.5 792,-57.5 792,-38.5 712,-38.5"/>
<text text-anchor="middle" x="752" y="-45.5" font-family="Helvetica,sans-Serif" font-size="10.00">tds_set_state</text>
</a>
</g>
</g>
<!-- Node19&#45;&gt;Node20 -->
<g id="edge26" class="edge"><title>Node19&#45;&gt;Node20</title>
<path fill="none" stroke="midnightblue" d="M651.02,-40.0261C667.775,-41.3625 685.631,-42.7865 701.547,-44.0559"/>
<polygon fill="midnightblue" stroke="midnightblue" points="701.448,-47.559 711.695,-44.8652 702.005,-40.5812 701.448,-47.559"/>
</g>
<!-- Node21 -->
<g id="node21" class="node"><title>Node21</title>
<g id="a_node21"><a xlink:href="a00357.html#ga5feb53554e8917a81bbbc332163a61fb" target="_top" xlink:title="Flush packet to server. ">
<polygon fill="white" stroke="black" points="704,-0.5 704,-19.5 800,-19.5 800,-0.5 704,-0.5"/>
<text text-anchor="middle" x="752" y="-7.5" font-family="Helvetica,sans-Serif" font-size="10.00">tds_flush_packet</text>
</a>
</g>
</g>
<!-- Node19&#45;&gt;Node21 -->
<g id="edge29" class="edge"><title>Node19&#45;&gt;Node21</title>
<path fill="none" stroke="midnightblue" d="M650.088,-25.4773C664.423,-23.2787 679.608,-20.9497 693.726,-18.7843"/>
<polygon fill="midnightblue" stroke="midnightblue" points="694.437,-22.2164 703.79,-17.2407 693.375,-15.2973 694.437,-22.2164"/>
</g>
<!-- Node20&#45;&gt;Node5 -->
<g id="edge27" class="edge"><title>Node20&#45;&gt;Node5</title>
<path fill="none" stroke="midnightblue" d="M792.266,-38.8658C840.154,-29.544 922.886,-19.3681 989,-42 1011.99,-49.8692 1033.34,-68.1798 1047.05,-81.9389"/>
<polygon fill="midnightblue" stroke="midnightblue" points="1044.74,-84.5934 1054.18,-89.4008 1049.8,-79.7549 1044.74,-84.5934"/>
</g>
<!-- Node20&#45;&gt;Node14 -->
<g id="edge28" class="edge"><title>Node20&#45;&gt;Node14</title>
<path fill="none" stroke="midnightblue" d="M792.154,-51.0479C819.814,-53.2011 856.621,-56.0663 883.637,-58.1694"/>
<polygon fill="midnightblue" stroke="midnightblue" points="883.592,-61.6764 893.834,-58.9631 884.136,-54.6975 883.592,-61.6764"/>
</g>
</g>
</svg>
