<?xml version="1.0" encoding="UTF-8" standalone="no"?>
<!DOCTYPE svg PUBLIC "-//W3C//DTD SVG 1.1//EN"
 "http://www.w3.org/Graphics/SVG/1.1/DTD/svg11.dtd">
<!-- Generated by graphviz version 2.38.0 (20140413.2041)
 -->
<!-- Title: _bcp_exec_in Pages: 1 -->
<svg width="942pt" height="823pt"
 viewBox="0.00 0.00 942.00 822.98" xmlns="http://www.w3.org/2000/svg" xmlns:xlink="http://www.w3.org/1999/xlink">
<g id="graph0" class="graph" transform="scale(1 1) rotate(0) translate(4 818.98)">
<title>_bcp_exec_in</title>
<polygon fill="white" stroke="none" points="-4,4 -4,-818.98 938,-818.98 938,4 -4,4"/>
<!-- Node1 -->
<g id="node1" class="node"><title>Node1</title>
<polygon fill="#bfbfbf" stroke="black" points="0,-352.48 0,-371.48 82,-371.48 82,-352.48 0,-352.48"/>
<text text-anchor="middle" x="41" y="-359.48" font-family="Helvetica,sans-Serif" font-size="10.00">_bcp_exec_in</text>
</g>
<!-- Node2 -->
<g id="node2" class="node"><title>Node2</title>
<g id="a_node2"><a xlink:href="a00193.html#ab45c291105027e69836002e1dd586141" target="_top" xlink:title="Write a message to the debug log. ">
<polygon fill="white" stroke="black" points="842,-371.48 842,-390.48 919,-390.48 919,-371.48 842,-371.48"/>
<text text-anchor="middle" x="880.5" y="-378.48" font-family="Helvetica,sans-Serif" font-size="10.00">tdsdump_log</text>
</a>
</g>
</g>
<!-- Node1&#45;&gt;Node2 -->
<g id="edge1" class="edge"><title>Node1&#45;&gt;Node2</title>
<path fill="none" stroke="midnightblue" d="M82.4057,-357.858C140.755,-352.269 252.033,-342.98 347,-342.98 347,-342.98 347,-342.98 530,-342.98 638.339,-342.98 764.467,-361.249 831.63,-372.453"/>
<polygon fill="midnightblue" stroke="midnightblue" points="831.448,-375.972 841.891,-374.187 832.614,-369.07 831.448,-375.972"/>
</g>
<!-- Node3 -->
<g id="node3" class="node"><title>Node3</title>
<g id="a_node3"><a xlink:href="a00347.html#ga302a4ce6559b81808e3be51615cd1b67" target="_top" xlink:title="Call client&#45;installed error handler. ">
<polygon fill="white" stroke="black" points="500.5,-485.48 500.5,-504.48 557.5,-504.48 557.5,-485.48 500.5,-485.48"/>
<text text-anchor="middle" x="529" y="-492.48" font-family="Helvetica,sans-Serif" font-size="10.00">dbperror</text>
</a>
</g>
</g>
<!-- Node1&#45;&gt;Node3 -->
<g id="edge2" class="edge"><title>Node1&#45;&gt;Node3</title>
<path fill="none" stroke="midnightblue" d="M72.6271,-371.491C86.4573,-375.723 103.021,-380.705 118,-384.98 254.444,-423.919 417.559,-466.506 490.052,-485.229"/>
<polygon fill="midnightblue" stroke="midnightblue" points="489.519,-488.706 500.077,-487.815 491.268,-481.928 489.519,-488.706"/>
</g>
<!-- Node4 -->
<g id="node4" class="node"><title>Node4</title>
<g id="a_node4"><a xlink:href="a00294.html#a5eec23828b0610c58de248c4edb53879" target="_top" xlink:title="Start bulk copy to server. ">
<polygon fill="white" stroke="black" points="119,-207.48 119,-226.48 242,-226.48 242,-207.48 119,-207.48"/>
<text text-anchor="middle" x="180.5" y="-214.48" font-family="Helvetica,sans-Serif" font-size="10.00">tds_bcp_start_copy_in</text>
</a>
</g>
</g>
<!-- Node1&#45;&gt;Node4 -->
<g id="edge4" class="edge"><title>Node1&#45;&gt;Node4</title>
<path fill="none" stroke="midnightblue" d="M51.0218,-352.466C73.8373,-328.406 134.09,-264.867 163.243,-234.124"/>
<polygon fill="midnightblue" stroke="midnightblue" points="165.923,-236.384 170.265,-226.719 160.844,-231.567 165.923,-236.384"/>
</g>
<!-- Node7 -->
<g id="node7" class="node"><title>Node7</title>
<g id="a_node7"><a xlink:href="a00294.html#a8208eef2a3974ae1f0cf3c8c8ab011ce" target="_top" xlink:title="Start sending BCP data to server. ">
<polygon fill="white" stroke="black" points="308,-226.48 308,-245.48 388,-245.48 388,-226.48 308,-226.48"/>
<text text-anchor="middle" x="348" y="-233.48" font-family="Helvetica,sans-Serif" font-size="10.00">tds_bcp_start</text>
</a>
</g>
</g>
<!-- Node1&#45;&gt;Node7 -->
<g id="edge48" class="edge"><title>Node1&#45;&gt;Node7</title>
<path fill="none" stroke="midnightblue" d="M63.5622,-352.455C78.7442,-345.788 99.5659,-336.724 118,-328.98 187.146,-299.933 268.619,-267.199 313.356,-249.352"/>
<polygon fill="midnightblue" stroke="midnightblue" points="314.861,-252.52 322.854,-245.566 312.269,-246.017 314.861,-252.52"/>
</g>
<!-- Node13 -->
<g id="node13" class="node"><title>Node13</title>
<g id="a_node13"><a xlink:href="a00344.html#ga065757a7d0dce354660900de4aa79e2f" target="_top" xlink:title="_bcp_read_hostfile">
<polygon fill="white" stroke="black" points="294.5,-624.48 294.5,-643.48 401.5,-643.48 401.5,-624.48 294.5,-624.48"/>
<text text-anchor="middle" x="348" y="-631.48" font-family="Helvetica,sans-Serif" font-size="10.00">_bcp_read_hostfile</text>
</a>
</g>
</g>
<!-- Node1&#45;&gt;Node13 -->
<g id="edge19" class="edge"><title>Node1&#45;&gt;Node13</title>
<path fill="none" stroke="midnightblue" d="M43.2272,-371.518C47.5853,-401.577 65.0089,-495.387 118,-546.98 163.422,-591.205 233.589,-613.424 284.284,-624.271"/>
<polygon fill="midnightblue" stroke="midnightblue" points="283.652,-627.714 294.15,-626.292 285.056,-620.856 283.652,-627.714"/>
</g>
<!-- Node25 -->
<g id="node25" class="node"><title>Node25</title>
<g id="a_node25"><a xlink:href="a00294.html#adbc0876f3d1eae0c26e7a1abe37419fe" target="_top" xlink:title="Send one row of data to server. ">
<polygon fill="white" stroke="black" points="469.5,-523.48 469.5,-542.48 588.5,-542.48 588.5,-523.48 469.5,-523.48"/>
<text text-anchor="middle" x="529" y="-530.48" font-family="Helvetica,sans-Serif" font-size="10.00">tds_bcp_send_record</text>
</a>
</g>
</g>
<!-- Node1&#45;&gt;Node25 -->
<g id="edge34" class="edge"><title>Node1&#45;&gt;Node25</title>
<path fill="none" stroke="midnightblue" d="M53.0856,-371.686C67.2507,-383.638 92.946,-403.841 118,-415.98 232.946,-471.672 379.209,-505.443 462.349,-521.542"/>
<polygon fill="midnightblue" stroke="midnightblue" points="461.937,-525.027 472.416,-523.465 463.25,-518.151 461.937,-525.027"/>
</g>
<!-- Node28 -->
<g id="node28" class="node"><title>Node28</title>
<g id="a_node28"><a xlink:href="a00233.html#ad53f508d8f2177a898f8022736834afd" target="_top" xlink:title="Function to read data from file. ">
<polygon fill="white" stroke="black" points="118,-169.48 118,-188.48 243,-188.48 243,-169.48 118,-169.48"/>
<text text-anchor="middle" x="180.5" y="-176.48" font-family="Helvetica,sans-Serif" font-size="10.00">_bcp_no_get_col_data</text>
</a>
</g>
</g>
<!-- Node1&#45;&gt;Node28 -->
<g id="edge42" class="edge"><title>Node1&#45;&gt;Node28</title>
<path fill="none" stroke="midnightblue" d="M43.6734,-352.198C49.0264,-323.923 68.3798,-241.346 118,-197.98 119.951,-196.275 122.053,-194.723 124.263,-193.31"/>
<polygon fill="midnightblue" stroke="midnightblue" points="126.057,-196.32 133.229,-188.522 122.759,-190.145 126.057,-196.32"/>
</g>
<!-- Node29 -->
<g id="node29" class="node"><title>Node29</title>
<g id="a_node29"><a xlink:href="a00294.html#ade7df2db455b61edc83819ad60edb339" target="_top" xlink:title="Tell we finished sending BCP data to server. ">
<polygon fill="white" stroke="black" points="306.5,-371.48 306.5,-390.48 389.5,-390.48 389.5,-371.48 306.5,-371.48"/>
<text text-anchor="middle" x="348" y="-378.48" font-family="Helvetica,sans-Serif" font-size="10.00">tds_bcp_done</text>
</a>
</g>
</g>
<!-- Node1&#45;&gt;Node29 -->
<g id="edge43" class="edge"><title>Node1&#45;&gt;Node29</title>
<path fill="none" stroke="midnightblue" d="M82.1871,-364.484C137.236,-367.913 236.097,-374.072 296.209,-377.816"/>
<polygon fill="midnightblue" stroke="midnightblue" points="296.039,-381.312 306.237,-378.441 296.474,-374.326 296.039,-381.312"/>
</g>
<!-- Node3&#45;&gt;Node2 -->
<g id="edge3" class="edge"><title>Node3&#45;&gt;Node2</title>
<path fill="none" stroke="midnightblue" d="M557.563,-489.205C572.283,-485.386 590.338,-479.489 605,-470.98 623.773,-460.086 621.831,-448.162 641,-437.98 673.698,-420.612 772.065,-400.532 831.77,-389.442"/>
<polygon fill="midnightblue" stroke="midnightblue" points="832.522,-392.863 841.723,-387.61 831.255,-385.978 832.522,-392.863"/>
</g>
<!-- Node4&#45;&gt;Node2 -->
<g id="edge5" class="edge"><title>Node4&#45;&gt;Node2</title>
<path fill="none" stroke="midnightblue" d="M227.74,-207.403C233.265,-204.946 238.524,-201.859 243,-197.98 271.246,-173.503 248.505,-143.59 279,-121.98 465.174,9.95144 608.058,52.3979 791,-83.9803 836.792,-118.117 867.502,-299.919 876.649,-360.97"/>
<polygon fill="midnightblue" stroke="midnightblue" points="873.234,-361.81 878.147,-371.197 880.161,-360.796 873.234,-361.81"/>
</g>
<!-- Node5 -->
<g id="node5" class="node"><title>Node5</title>
<g id="a_node5"><a xlink:href="a00294.html#ab4d7e5309152f54613d52c8469a07fd8" target="_top" xlink:title="Prepare the query to be sent to server to request BCP information. ">
<polygon fill="white" stroke="black" points="279,-131.48 279,-150.48 417,-150.48 417,-131.48 279,-131.48"/>
<text text-anchor="middle" x="348" y="-138.48" font-family="Helvetica,sans-Serif" font-size="10.00">tds_bcp_start_insert_stmt</text>
</a>
</g>
</g>
<!-- Node4&#45;&gt;Node5 -->
<g id="edge6" class="edge"><title>Node4&#45;&gt;Node5</title>
<path fill="none" stroke="midnightblue" d="M216.74,-207.43C225.447,-204.707 234.665,-201.509 243,-197.98 250.921,-194.627 292.816,-171.363 320.956,-155.612"/>
<polygon fill="midnightblue" stroke="midnightblue" points="322.89,-158.54 329.902,-150.598 319.468,-152.434 322.89,-158.54"/>
</g>
<!-- Node4&#45;&gt;Node7 -->
<g id="edge9" class="edge"><title>Node4&#45;&gt;Node7</title>
<path fill="none" stroke="midnightblue" d="M242.186,-223.947C260.54,-226.054 280.457,-228.341 297.95,-230.349"/>
<polygon fill="midnightblue" stroke="midnightblue" points="297.605,-233.832 307.939,-231.496 298.404,-226.878 297.605,-233.832"/>
</g>
<!-- Node12 -->
<g id="node12" class="node"><title>Node12</title>
<g id="a_node12"><a xlink:href="a00294.html#a7c4f2b050cd1a747604aa305d6877de7" target="_top" xlink:title="Free row data allocated in the result set. ">
<polygon fill="white" stroke="black" points="297.5,-188.48 297.5,-207.48 398.5,-207.48 398.5,-188.48 297.5,-188.48"/>
<text text-anchor="middle" x="348" y="-195.48" font-family="Helvetica,sans-Serif" font-size="10.00">tds_bcp_row_free</text>
</a>
</g>
</g>
<!-- Node4&#45;&gt;Node12 -->
<g id="edge18" class="edge"><title>Node4&#45;&gt;Node12</title>
<path fill="none" stroke="midnightblue" d="M242.186,-210.013C256.953,-208.318 272.73,-206.507 287.443,-204.818"/>
<polygon fill="midnightblue" stroke="midnightblue" points="287.898,-208.288 297.434,-203.671 287.1,-201.334 287.898,-208.288"/>
</g>
<!-- Node6 -->
<g id="node6" class="node"><title>Node6</title>
<g id="a_node6"><a xlink:href="a00294.html#a3118c7232bc9c3e47f8ba872bb39e967" target="_top" xlink:title="Help to build query to be sent to server. ">
<polygon fill="white" stroke="red" points="643,-93.4803 643,-112.48 789,-112.48 789,-93.4803 643,-93.4803"/>
<text text-anchor="middle" x="716" y="-100.48" font-family="Helvetica,sans-Serif" font-size="10.00">tds7_build_bulk_insert_stmt</text>
</a>
</g>
</g>
<!-- Node5&#45;&gt;Node6 -->
<g id="edge7" class="edge"><title>Node5&#45;&gt;Node6</title>
<path fill="none" stroke="midnightblue" d="M416.64,-131.451C428.737,-129.868 441.233,-128.311 453,-126.98 513.103,-120.185 581.13,-113.998 632.802,-109.608"/>
<polygon fill="midnightblue" stroke="midnightblue" points="633.241,-113.084 642.911,-108.755 632.652,-106.109 633.241,-113.084"/>
</g>
<!-- Node6&#45;&gt;Node2 -->
<g id="edge8" class="edge"><title>Node6&#45;&gt;Node2</title>
<path fill="none" stroke="midnightblue" d="M767.871,-112.56C776.382,-115.991 784.532,-120.651 791,-126.98 858.679,-193.209 874.668,-313.886 878.391,-361.199"/>
<polygon fill="midnightblue" stroke="midnightblue" points="874.91,-361.596 879.084,-371.334 881.893,-361.119 874.91,-361.596"/>
</g>
<!-- Node7&#45;&gt;Node2 -->
<g id="edge10" class="edge"><title>Node7&#45;&gt;Node2</title>
<path fill="none" stroke="midnightblue" d="M388.302,-230.202C398.339,-227.387 408.643,-223.202 417,-216.98 441.034,-199.087 426.759,-174.444 453,-159.98 512.164,-127.371 538.507,-148.044 605,-159.98 691.784,-175.559 723.528,-172.22 791,-228.98 834.668,-265.715 861.741,-329.815 873.178,-361.753"/>
<polygon fill="midnightblue" stroke="midnightblue" points="869.89,-362.953 876.459,-371.265 876.507,-360.671 869.89,-362.953"/>
</g>
<!-- Node8 -->
<g id="node8" class="node"><title>Node8</title>
<g id="a_node8"><a xlink:href="a00356.html#ga5a29ae7f99d089dc3cea85ec6ee5f3ab" target="_top" xlink:title="tds_submit_query() sends a language string to the database server for processing. ...">
<polygon fill="white" stroke="red" points="480,-169.48 480,-188.48 578,-188.48 578,-169.48 480,-169.48"/>
<text text-anchor="middle" x="529" y="-176.48" font-family="Helvetica,sans-Serif" font-size="10.00">tds_submit_query</text>
</a>
</g>
</g>
<!-- Node7&#45;&gt;Node8 -->
<g id="edge11" class="edge"><title>Node7&#45;&gt;Node8</title>
<path fill="none" stroke="midnightblue" d="M388.311,-226.532C397.833,-223.825 407.89,-220.609 417,-216.98 433.808,-210.286 436.112,-204.47 453,-197.98 459.402,-195.52 466.235,-193.285 473.07,-191.284"/>
<polygon fill="midnightblue" stroke="midnightblue" points="474.338,-194.565 483.039,-188.52 472.467,-187.819 474.338,-194.565"/>
</g>
<!-- Node9 -->
<g id="node9" class="node"><title>Node9</title>
<g id="a_node9"><a xlink:href="a00359.html#gaeeb1562044786ea17bea361ed83e6946" target="_top" xlink:title="Process results for simple query as &quot;SET TEXTSIZE&quot; or &quot;USE dbname&quot; If the statement returns results...">
<polygon fill="white" stroke="red" points="474,-283.98 474,-313.98 584,-313.98 584,-283.98 474,-283.98"/>
<text text-anchor="start" x="482" y="-301.98" font-family="Helvetica,sans-Serif" font-size="10.00">tds_process_simple</text>
<text text-anchor="middle" x="529" y="-290.98" font-family="Helvetica,sans-Serif" font-size="10.00">_query</text>
</a>
</g>
</g>
<!-- Node7&#45;&gt;Node9 -->
<g id="edge12" class="edge"><title>Node7&#45;&gt;Node9</title>
<path fill="none" stroke="midnightblue" d="M376.186,-245.549C402.422,-254.782 442.839,-269.007 475.376,-280.459"/>
<polygon fill="midnightblue" stroke="midnightblue" points="474.601,-283.897 485.196,-283.915 476.925,-277.294 474.601,-283.897"/>
</g>
<!-- Node10 -->
<g id="node10" class="node"><title>Node10</title>
<g id="a_node10"><a xlink:href="a00193.html#a16db200d2281f76fe46fc1cbe37ca9df" target="_top" xlink:title="Set state of TDS connection, with logging and checking. ">
<polygon fill="white" stroke="red" points="676,-295.48 676,-314.48 756,-314.48 756,-295.48 676,-295.48"/>
<text text-anchor="middle" x="716" y="-302.48" font-family="Helvetica,sans-Serif" font-size="10.00">tds_set_state</text>
</a>
</g>
</g>
<!-- Node7&#45;&gt;Node10 -->
<g id="edge13" class="edge"><title>Node7&#45;&gt;Node10</title>
<path fill="none" stroke="midnightblue" d="M388.312,-240.239C438.804,-246.069 528.993,-257.698 605,-273.98 628.508,-279.016 654.407,-286.23 675.166,-292.432"/>
<polygon fill="midnightblue" stroke="midnightblue" points="674.326,-295.834 684.911,-295.381 676.353,-289.134 674.326,-295.834"/>
</g>
<!-- Node11 -->
<g id="node11" class="node"><title>Node11</title>
<g id="a_node11"><a xlink:href="a00294.html#a4daaa551e54dbd978650e2eef89e09ff" target="_top" xlink:title="Send BCP metadata to server. ">
<polygon fill="white" stroke="red" points="453,-207.48 453,-226.48 605,-226.48 605,-207.48 453,-207.48"/>
<text text-anchor="middle" x="529" y="-214.48" font-family="Helvetica,sans-Serif" font-size="10.00">tds7_bcp_send_colmetadata</text>
</a>
</g>
</g>
<!-- Node7&#45;&gt;Node11 -->
<g id="edge15" class="edge"><title>Node7&#45;&gt;Node11</title>
<path fill="none" stroke="midnightblue" d="M388.282,-231.811C404.334,-230.107 423.571,-228.065 442.564,-226.049"/>
<polygon fill="midnightblue" stroke="midnightblue" points="443.186,-229.503 452.761,-224.967 442.447,-222.542 443.186,-229.503"/>
</g>
<!-- Node10&#45;&gt;Node2 -->
<g id="edge14" class="edge"><title>Node10&#45;&gt;Node2</title>
<path fill="none" stroke="midnightblue" d="M751.85,-314.57C764.415,-318.472 778.558,-323.388 791,-328.98 814.392,-339.495 839.452,-354.621 856.912,-365.851"/>
<polygon fill="midnightblue" stroke="midnightblue" points="855.013,-368.791 865.301,-371.323 858.838,-362.928 855.013,-368.791"/>
</g>
<!-- Node11&#45;&gt;Node2 -->
<g id="edge16" class="edge"><title>Node11&#45;&gt;Node2</title>
<path fill="none" stroke="midnightblue" d="M605.208,-225.499C659.844,-234.294 733.903,-251.783 791,-285.98 823.995,-305.742 852.322,-341.363 867.545,-362.924"/>
<polygon fill="midnightblue" stroke="midnightblue" points="864.695,-364.956 873.243,-371.216 870.465,-360.992 864.695,-364.956"/>
</g>
<!-- Node11&#45;&gt;Node10 -->
<g id="edge17" class="edge"><title>Node11&#45;&gt;Node10</title>
<path fill="none" stroke="midnightblue" d="M565.313,-226.552C578.047,-230.452 592.383,-235.371 605,-240.98 636.621,-255.038 670.725,-275.851 692.437,-289.891"/>
<polygon fill="midnightblue" stroke="midnightblue" points="690.656,-292.908 700.94,-295.454 694.488,-287.05 690.656,-292.908"/>
</g>
<!-- Node13&#45;&gt;Node2 -->
<g id="edge20" class="edge"><title>Node13&#45;&gt;Node2</title>
<path fill="none" stroke="midnightblue" d="M370.428,-624.332C391.124,-615.454 423.573,-602.679 453,-595.98 600.172,-562.479 667.092,-649.17 791,-562.98 847.179,-523.903 869.102,-438.934 876.375,-400.526"/>
<polygon fill="midnightblue" stroke="midnightblue" points="879.835,-401.057 878.12,-390.602 872.941,-399.845 879.835,-401.057"/>
</g>
<!-- Node13&#45;&gt;Node3 -->
<g id="edge21" class="edge"><title>Node13&#45;&gt;Node3</title>
<path fill="none" stroke="midnightblue" d="M354.401,-624.456C367.879,-601.596 405.36,-543.347 453,-513.98 464.166,-507.097 477.727,-502.7 490.231,-499.895"/>
<polygon fill="midnightblue" stroke="midnightblue" points="491.273,-503.257 500.41,-497.893 489.922,-496.389 491.273,-503.257"/>
</g>
<!-- Node14 -->
<g id="node14" class="node"><title>Node14</title>
<g id="a_node14"><a xlink:href="a00193.html#aa70b02ff34ac03040ca41f13d5fd35bd" target="_top" xlink:title="Return the number of bytes needed by specified type. ">
<polygon fill="white" stroke="black" points="469.5,-643.48 469.5,-662.48 588.5,-662.48 588.5,-643.48 469.5,-643.48"/>
<text text-anchor="middle" x="529" y="-650.48" font-family="Helvetica,sans-Serif" font-size="10.00">tds_get_size_by_type</text>
</a>
</g>
</g>
<!-- Node13&#45;&gt;Node14 -->
<g id="edge22" class="edge"><title>Node13&#45;&gt;Node14</title>
<path fill="none" stroke="midnightblue" d="M401.738,-639.578C419.745,-641.49 440.156,-643.656 459.236,-645.681"/>
<polygon fill="midnightblue" stroke="midnightblue" points="459.06,-649.182 469.373,-646.757 459.799,-642.221 459.06,-649.182"/>
</g>
<!-- Node15 -->
<g id="node15" class="node"><title>Node15</title>
<g id="a_node15"><a xlink:href="a00294.html#a86ac92bd8a3c61a413d27150ec9bc202" target="_top" xlink:title="Read a data file, passing the data through iconv(). ">
<polygon fill="white" stroke="black" points="487,-757.48 487,-776.48 571,-776.48 571,-757.48 487,-757.48"/>
<text text-anchor="middle" x="529" y="-764.48" font-family="Helvetica,sans-Serif" font-size="10.00">tds_bcp_fread</text>
</a>
</g>
</g>
<!-- Node13&#45;&gt;Node15 -->
<g id="edge23" class="edge"><title>Node13&#45;&gt;Node15</title>
<path fill="none" stroke="midnightblue" d="M354.942,-643.674C369.038,-665.813 406.805,-720.31 453,-747.98 460.371,-752.396 468.742,-755.791 477.151,-758.4"/>
<polygon fill="midnightblue" stroke="midnightblue" points="476.414,-761.827 486.985,-761.115 478.277,-755.079 476.414,-761.827"/>
</g>
<!-- Node21 -->
<g id="node21" class="node"><title>Node21</title>
<g id="a_node21"><a xlink:href="a00193.html#ae7f4c4d5f7352f1c814284c536659e6f" target="_top" xlink:title="Return type suitable for conversions (convert all nullable types to fixed type) ">
<polygon fill="white" stroke="black" points="461,-605.48 461,-624.48 597,-624.48 597,-605.48 461,-605.48"/>
<text text-anchor="middle" x="529" y="-612.48" font-family="Helvetica,sans-Serif" font-size="10.00">tds_get_conversion_type</text>
</a>
</g>
</g>
<!-- Node13&#45;&gt;Node21 -->
<g id="edge30" class="edge"><title>Node13&#45;&gt;Node21</title>
<path fill="none" stroke="midnightblue" d="M401.738,-628.382C417.11,-626.751 434.233,-624.933 450.786,-623.176"/>
<polygon fill="midnightblue" stroke="midnightblue" points="451.422,-626.628 460.997,-622.092 450.683,-619.667 451.422,-626.628"/>
</g>
<!-- Node22 -->
<g id="node22" class="node"><title>Node22</title>
<g id="a_node22"><a xlink:href="a00233.html#a69623a4c4f488f3a8838af6f5ca3da13" target="_top" xlink:title="Convert column for input to a table. ">
<polygon fill="white" stroke="black" points="481.5,-719.48 481.5,-738.48 576.5,-738.48 576.5,-719.48 481.5,-719.48"/>
<text text-anchor="middle" x="529" y="-726.48" font-family="Helvetica,sans-Serif" font-size="10.00">_bcp_convert_in</text>
</a>
</g>
</g>
<!-- Node13&#45;&gt;Node22 -->
<g id="edge31" class="edge"><title>Node13&#45;&gt;Node22</title>
<path fill="none" stroke="midnightblue" d="M359.346,-643.689C377.108,-659.834 415.157,-692.183 453,-709.98 458.823,-712.719 465.093,-715.098 471.439,-717.156"/>
<polygon fill="midnightblue" stroke="midnightblue" points="470.837,-720.628 481.42,-720.131 472.837,-713.92 470.837,-720.628"/>
</g>
<!-- Node24 -->
<g id="node24" class="node"><title>Node24</title>
<g id="a_node24"><a xlink:href="a00344.html#ga4d5be57b25a0654e2170fd656dc35489" target="_top" xlink:title="trim a string of trailing blanks ">
<polygon fill="white" stroke="black" points="510,-681.48 510,-700.48 548,-700.48 548,-681.48 510,-681.48"/>
<text text-anchor="middle" x="529" y="-688.48" font-family="Helvetica,sans-Serif" font-size="10.00">rtrim</text>
</a>
</g>
</g>
<!-- Node13&#45;&gt;Node24 -->
<g id="edge33" class="edge"><title>Node13&#45;&gt;Node24</title>
<path fill="none" stroke="midnightblue" d="M373.137,-643.596C394.064,-651.741 425.263,-663.424 453,-671.98 468.342,-676.713 485.708,-681.168 499.863,-684.574"/>
<polygon fill="midnightblue" stroke="midnightblue" points="499.439,-688.069 509.975,-686.96 501.047,-681.257 499.439,-688.069"/>
</g>
<!-- Node16 -->
<g id="node16" class="node"><title>Node16</title>
<g id="a_node16"><a xlink:href="a00294.html#a1b83c9db016b481aa1fa0352f976d50d" target="_top" xlink:title="Reads a chunk of data from file stream checking for terminator. ">
<polygon fill="white" stroke="black" points="658,-719.48 658,-738.48 774,-738.48 774,-719.48 658,-719.48"/>
<text text-anchor="middle" x="716" y="-726.48" font-family="Helvetica,sans-Serif" font-size="10.00">tds_file_stream_read</text>
</a>
</g>
</g>
<!-- Node15&#45;&gt;Node16 -->
<g id="edge24" class="edge"><title>Node15&#45;&gt;Node16</title>
<path fill="none" stroke="midnightblue" d="M571.057,-758.547C596.75,-753.269 630.207,-746.397 658.398,-740.607"/>
<polygon fill="midnightblue" stroke="midnightblue" points="659.431,-743.968 668.522,-738.527 658.022,-737.111 659.431,-743.968"/>
</g>
<!-- Node17 -->
<g id="node17" class="node"><title>Node17</title>
<g id="a_node17"><a xlink:href="a00263.html#a4f9e40da6941cb9407d0da5bc3030517" target="_top" xlink:title="Initialize a dynamic output stream. ">
<polygon fill="white" stroke="red" points="649,-681.48 649,-700.48 783,-700.48 783,-681.48 649,-681.48"/>
<text text-anchor="middle" x="716" y="-688.48" font-family="Helvetica,sans-Serif" font-size="10.00">tds_dynamic_stream_init</text>
</a>
</g>
</g>
<!-- Node15&#45;&gt;Node17 -->
<g id="edge25" class="edge"><title>Node15&#45;&gt;Node17</title>
<path fill="none" stroke="midnightblue" d="M571.331,-760.896C582.754,-758.072 594.803,-753.959 605,-747.98 625.07,-736.214 620.949,-721.779 641,-709.98 644.833,-707.725 648.932,-705.734 653.16,-703.978"/>
<polygon fill="midnightblue" stroke="midnightblue" points="654.409,-707.247 662.573,-700.495 651.98,-700.682 654.409,-707.247"/>
</g>
<!-- Node18 -->
<g id="node18" class="node"><title>Node18</title>
<g id="a_node18"><a xlink:href="a00263.html#a2b8e3379c38cd2bce28b90cb199c2aa9" target="_top" xlink:title="Reads and writes from a stream to another. ">
<polygon fill="white" stroke="black" points="667,-757.48 667,-776.48 765,-776.48 765,-757.48 667,-757.48"/>
<text text-anchor="middle" x="716" y="-764.48" font-family="Helvetica,sans-Serif" font-size="10.00">tds_copy_stream</text>
</a>
</g>
</g>
<!-- Node15&#45;&gt;Node18 -->
<g id="edge26" class="edge"><title>Node15&#45;&gt;Node18</title>
<path fill="none" stroke="midnightblue" d="M571.057,-766.98C596.276,-766.98 628.975,-766.98 656.832,-766.98"/>
<polygon fill="midnightblue" stroke="midnightblue" points="656.854,-770.48 666.854,-766.98 656.854,-763.48 656.854,-770.48"/>
</g>
<!-- Node19 -->
<g id="node19" class="node"><title>Node19</title>
<g id="a_node19"><a xlink:href="a00263.html#a9d8eb43a81ff58ab423dce0ce95b9564" target="_top" xlink:title="Reads and writes from a stream converting characters. ">
<polygon fill="white" stroke="red" points="661,-795.48 661,-814.48 771,-814.48 771,-795.48 661,-795.48"/>
<text text-anchor="middle" x="716" y="-802.48" font-family="Helvetica,sans-Serif" font-size="10.00">tds_convert_stream</text>
</a>
</g>
</g>
<!-- Node15&#45;&gt;Node19 -->
<g id="edge27" class="edge"><title>Node15&#45;&gt;Node19</title>
<path fill="none" stroke="midnightblue" d="M571.057,-775.414C596.75,-780.691 630.207,-787.563 658.398,-793.354"/>
<polygon fill="midnightblue" stroke="midnightblue" points="658.022,-796.85 668.522,-795.433 659.431,-789.993 658.022,-796.85"/>
</g>
<!-- Node19&#45;&gt;Node2 -->
<g id="edge28" class="edge"><title>Node19&#45;&gt;Node2</title>
<path fill="none" stroke="midnightblue" d="M771.369,-798.55C778.708,-795.659 785.567,-791.613 791,-785.98 804.81,-771.661 860.792,-479.909 875.789,-400.684"/>
<polygon fill="midnightblue" stroke="midnightblue" points="879.278,-401.071 877.694,-390.595 872.399,-399.772 879.278,-401.071"/>
</g>
<!-- Node20 -->
<g id="node20" class="node"><title>Node20</title>
<g id="a_node20"><a xlink:href="a00193.html#a79449d2f35a8acc8ed0585044f75524d" target="_top" xlink:title="Dump the contents of data into the log file in a human readable format. ">
<polygon fill="white" stroke="black" points="827,-662.48 827,-681.48 934,-681.48 934,-662.48 827,-662.48"/>
<text text-anchor="middle" x="880.5" y="-669.48" font-family="Helvetica,sans-Serif" font-size="10.00">tdsdump_dump_buf</text>
</a>
</g>
</g>
<!-- Node19&#45;&gt;Node20 -->
<g id="edge29" class="edge"><title>Node19&#45;&gt;Node20</title>
<path fill="none" stroke="midnightblue" d="M771.328,-795.503C778.259,-793.03 785.013,-789.911 791,-785.98 828.165,-761.578 856.328,-716.233 870.113,-690.702"/>
<polygon fill="midnightblue" stroke="midnightblue" points="873.299,-692.161 874.83,-681.678 867.096,-688.919 873.299,-692.161"/>
</g>
<!-- Node23 -->
<g id="node23" class="node"><title>Node23</title>
<g id="a_node23"><a xlink:href="a00353.html#gaa865e08f7ad70ef92b111c2ea3657457" target="_top" xlink:title="tds_convert convert a type to another. ">
<polygon fill="white" stroke="black" points="680,-643.48 680,-662.48 752,-662.48 752,-643.48 680,-643.48"/>
<text text-anchor="middle" x="716" y="-650.48" font-family="Helvetica,sans-Serif" font-size="10.00">tds_convert</text>
</a>
</g>
</g>
<!-- Node22&#45;&gt;Node23 -->
<g id="edge32" class="edge"><title>Node22&#45;&gt;Node23</title>
<path fill="none" stroke="midnightblue" d="M576.821,-721.448C586.541,-718.716 596.425,-715.007 605,-709.98 625.07,-698.214 620.949,-683.779 641,-671.98 649.831,-666.784 660.071,-662.993 670.065,-660.234"/>
<polygon fill="midnightblue" stroke="midnightblue" points="671.045,-663.597 679.915,-657.804 669.368,-656.801 671.045,-663.597"/>
</g>
<!-- Node25&#45;&gt;Node2 -->
<g id="edge35" class="edge"><title>Node25&#45;&gt;Node2</title>
<path fill="none" stroke="midnightblue" d="M581.442,-523.457C652.211,-510.096 772.941,-486.27 791,-475.98 824.588,-456.842 852.892,-420.711 867.917,-398.943"/>
<polygon fill="midnightblue" stroke="midnightblue" points="870.859,-400.84 873.52,-390.585 865.045,-396.942 870.859,-400.84"/>
</g>
<!-- Node25&#45;&gt;Node10 -->
<g id="edge36" class="edge"><title>Node25&#45;&gt;Node10</title>
<path fill="none" stroke="midnightblue" d="M588.595,-523.685C594.511,-521.168 600.124,-517.99 605,-513.98 633.867,-490.239 623.905,-471.217 641,-437.98 662.339,-396.492 689.444,-348.967 704.21,-323.467"/>
<polygon fill="midnightblue" stroke="midnightblue" points="707.398,-324.947 709.396,-314.542 701.346,-321.43 707.398,-324.947"/>
</g>
<!-- Node26 -->
<g id="node26" class="node"><title>Node26</title>
<g id="a_node26"><a xlink:href="a00294.html#a6d1e3ee3ba4ddeac7d5c9b5e30b185f1" target="_top" xlink:title="Add fixed size columns to the row. ">
<polygon fill="white" stroke="black" points="641,-447.48 641,-466.48 791,-466.48 791,-447.48 641,-447.48"/>
<text text-anchor="middle" x="716" y="-454.48" font-family="Helvetica,sans-Serif" font-size="10.00">tds_bcp_add_fixed_columns</text>
</a>
</g>
</g>
<!-- Node25&#45;&gt;Node26 -->
<g id="edge37" class="edge"><title>Node25&#45;&gt;Node26</title>
<path fill="none" stroke="midnightblue" d="M581.704,-523.478C589.758,-520.989 597.79,-517.873 605,-513.98 624.099,-503.669 622.248,-491.911 641,-480.98 648.464,-476.629 656.818,-472.954 665.152,-469.889"/>
<polygon fill="midnightblue" stroke="midnightblue" points="666.541,-473.113 674.871,-466.566 664.276,-466.489 666.541,-473.113"/>
</g>
<!-- Node27 -->
<g id="node27" class="node"><title>Node27</title>
<g id="a_node27"><a xlink:href="a00294.html#a0184a0b53bd92aeca39b136542238dd4" target="_top" xlink:title="Add variable size columns to the row. ">
<polygon fill="white" stroke="black" points="656,-523.98 656,-553.98 776,-553.98 776,-523.98 656,-523.98"/>
<text text-anchor="start" x="664" y="-541.98" font-family="Helvetica,sans-Serif" font-size="10.00">tds_bcp_add_variable</text>
<text text-anchor="middle" x="716" y="-530.98" font-family="Helvetica,sans-Serif" font-size="10.00">_columns</text>
</a>
</g>
</g>
<!-- Node25&#45;&gt;Node27 -->
<g id="edge39" class="edge"><title>Node25&#45;&gt;Node27</title>
<path fill="none" stroke="midnightblue" d="M588.535,-534.879C606.751,-535.469 627.007,-536.126 645.874,-536.738"/>
<polygon fill="midnightblue" stroke="midnightblue" points="645.784,-540.237 655.893,-537.063 646.011,-533.241 645.784,-540.237"/>
</g>
<!-- Node26&#45;&gt;Node2 -->
<g id="edge38" class="edge"><title>Node26&#45;&gt;Node2</title>
<path fill="none" stroke="midnightblue" d="M751.85,-447.39C764.415,-443.488 778.558,-438.573 791,-432.98 814.392,-422.466 839.452,-407.34 856.912,-396.11"/>
<polygon fill="midnightblue" stroke="midnightblue" points="858.838,-399.032 865.301,-390.637 855.013,-393.17 858.838,-399.032"/>
</g>
<!-- Node27&#45;&gt;Node2 -->
<g id="edge40" class="edge"><title>Node27&#45;&gt;Node2</title>
<path fill="none" stroke="midnightblue" d="M765.821,-523.918C774.719,-519.898 783.535,-514.961 791,-508.98 828.951,-478.572 857.287,-427.642 870.767,-400.084"/>
<polygon fill="midnightblue" stroke="midnightblue" points="874.067,-401.293 875.194,-390.758 867.744,-398.29 874.067,-401.293"/>
</g>
<!-- Node27&#45;&gt;Node20 -->
<g id="edge41" class="edge"><title>Node27&#45;&gt;Node20</title>
<path fill="none" stroke="midnightblue" d="M735.641,-554.237C766.426,-579.434 827.64,-629.535 859.374,-655.508"/>
<polygon fill="midnightblue" stroke="midnightblue" points="857.538,-658.528 867.493,-662.153 861.972,-653.111 857.538,-658.528"/>
</g>
<!-- Node29&#45;&gt;Node2 -->
<g id="edge44" class="edge"><title>Node29&#45;&gt;Node2</title>
<path fill="none" stroke="midnightblue" d="M367.155,-390.573C387.43,-400.698 421.54,-416.003 453,-421.98 519.368,-434.59 540.911,-443.343 605,-421.98 623.974,-415.656 622.22,-401.858 641,-394.98 703.905,-371.942 782.369,-372.401 831.72,-375.878"/>
<polygon fill="midnightblue" stroke="midnightblue" points="831.553,-379.376 841.793,-376.659 832.094,-372.397 831.553,-379.376"/>
</g>
<!-- Node29&#45;&gt;Node9 -->
<g id="edge47" class="edge"><title>Node29&#45;&gt;Node9</title>
<path fill="none" stroke="midnightblue" d="M369.884,-371.413C398.16,-358.46 449.271,-335.046 485.729,-318.345"/>
<polygon fill="midnightblue" stroke="midnightblue" points="487.491,-321.387 495.125,-314.04 484.576,-315.023 487.491,-321.387"/>
</g>
<!-- Node29&#45;&gt;Node10 -->
<g id="edge45" class="edge"><title>Node29&#45;&gt;Node10</title>
<path fill="none" stroke="midnightblue" d="M376.678,-390.598C424.915,-405.739 526.706,-430.435 605,-399.98 625.229,-392.112 624.677,-381.287 641,-366.98 659.123,-351.096 680.231,-333.497 695.255,-321.12"/>
<polygon fill="midnightblue" stroke="midnightblue" points="697.823,-323.54 703.329,-314.488 693.38,-318.13 697.823,-323.54"/>
</g>
<!-- Node30 -->
<g id="node30" class="node"><title>Node30</title>
<g id="a_node30"><a xlink:href="a00357.html#ga5feb53554e8917a81bbbc332163a61fb" target="_top" xlink:title="Flush packet to server. ">
<polygon fill="white" stroke="black" points="481,-371.48 481,-390.48 577,-390.48 577,-371.48 481,-371.48"/>
<text text-anchor="middle" x="529" y="-378.48" font-family="Helvetica,sans-Serif" font-size="10.00">tds_flush_packet</text>
</a>
</g>
</g>
<!-- Node29&#45;&gt;Node30 -->
<g id="edge46" class="edge"><title>Node29&#45;&gt;Node30</title>
<path fill="none" stroke="midnightblue" d="M389.618,-380.98C413.567,-380.98 444.252,-380.98 470.64,-380.98"/>
<polygon fill="midnightblue" stroke="midnightblue" points="470.895,-384.48 480.895,-380.98 470.895,-377.48 470.895,-384.48"/>
</g>
</g>
</svg>
