<?xml version="1.0" encoding="UTF-8" standalone="no"?>
<!DOCTYPE svg PUBLIC "-//W3C//DTD SVG 1.1//EN"
 "http://www.w3.org/Graphics/SVG/1.1/DTD/svg11.dtd">
<!-- Generated by graphviz version 2.38.0 (20140413.2041)
 -->
<!-- Title: tds5_process_dyn_result2 Pages: 1 -->
<svg width="899pt" height="460pt"
 viewBox="0.00 0.00 899.00 459.54" xmlns="http://www.w3.org/2000/svg" xmlns:xlink="http://www.w3.org/1999/xlink">
<g id="graph0" class="graph" transform="scale(1 1) rotate(0) translate(4 455.541)">
<title>tds5_process_dyn_result2</title>
<polygon fill="white" stroke="none" points="-4,4 -4,-455.541 895,-455.541 895,4 -4,4"/>
<!-- Node1 -->
<g id="node1" class="node"><title>Node1</title>
<polygon fill="#bfbfbf" stroke="black" points="0,-176.041 0,-195.041 141,-195.041 141,-176.041 0,-176.041"/>
<text text-anchor="middle" x="70.5" y="-183.041" font-family="Helvetica,sans-Serif" font-size="10.00">tds5_process_dyn_result2</text>
</g>
<!-- Node2 -->
<g id="node2" class="node"><title>Node2</title>
<g id="a_node2"><a xlink:href="a00357.html#ga9ac121c269e203337a48c5bf8afc48c3" target="_top" xlink:title="Get an int32 from the server. ">
<polygon fill="white" stroke="black" points="402,-176.041 402,-195.041 476,-195.041 476,-176.041 402,-176.041"/>
<text text-anchor="middle" x="439" y="-183.041" font-family="Helvetica,sans-Serif" font-size="10.00">tds_get_uint</text>
</a>
</g>
</g>
<!-- Node1&#45;&gt;Node2 -->
<g id="edge1" class="edge"><title>Node1&#45;&gt;Node2</title>
<path fill="none" stroke="midnightblue" d="M141.299,-185.541C214.878,-185.541 328.689,-185.541 391.827,-185.541"/>
<polygon fill="midnightblue" stroke="midnightblue" points="391.884,-189.041 401.884,-185.541 391.884,-182.041 391.884,-189.041"/>
</g>
<!-- Node3 -->
<g id="node3" class="node"><title>Node3</title>
<g id="a_node3"><a xlink:href="a00357.html#gae7d9c4e1a079e1d0aa0252732631e8c4" target="_top" xlink:title="Get N bytes from the buffer and return them in the already allocated space given to us...">
<polygon fill="white" stroke="black" points="562,-261.041 562,-280.041 626,-280.041 626,-261.041 562,-261.041"/>
<text text-anchor="middle" x="594" y="-268.041" font-family="Helvetica,sans-Serif" font-size="10.00">tds_get_n</text>
</a>
</g>
</g>
<!-- Node1&#45;&gt;Node3 -->
<g id="edge22" class="edge"><title>Node1&#45;&gt;Node3</title>
<path fill="none" stroke="midnightblue" d="M98.882,-176.031C170.079,-152.997 365.251,-100.779 506,-166.541 543.677,-184.144 570.784,-226.978 583.967,-251.837"/>
<polygon fill="midnightblue" stroke="midnightblue" points="580.962,-253.649 588.614,-260.976 587.201,-250.475 580.962,-253.649"/>
</g>
<!-- Node5 -->
<g id="node5" class="node"><title>Node5</title>
<g id="a_node5"><a xlink:href="a00193.html#ab45c291105027e69836002e1dd586141" target="_top" xlink:title="Write a message to the debug log. ">
<polygon fill="white" stroke="black" points="814,-356.041 814,-375.041 891,-375.041 891,-356.041 814,-356.041"/>
<text text-anchor="middle" x="852.5" y="-363.041" font-family="Helvetica,sans-Serif" font-size="10.00">tdsdump_log</text>
</a>
</g>
</g>
<!-- Node1&#45;&gt;Node5 -->
<g id="edge23" class="edge"><title>Node1&#45;&gt;Node5</title>
<path fill="none" stroke="midnightblue" d="M74.3033,-195.088C83.6184,-225.146 116.434,-318.722 177,-367.541 271.876,-444.015 316.14,-451.541 438,-451.541 438,-451.541 438,-451.541 595,-451.541 683.827,-451.541 781.4,-404.605 826.317,-380.082"/>
<polygon fill="midnightblue" stroke="midnightblue" points="828.289,-382.99 835.33,-375.073 824.889,-376.871 828.289,-382.99"/>
</g>
<!-- Node6 -->
<g id="node6" class="node"><title>Node6</title>
<g id="a_node6"><a xlink:href="a00357.html#gad38aa5b9547817854ccba1fcc7855861" target="_top" xlink:title="Get an int16 from the server. ">
<polygon fill="white" stroke="black" points="207.5,-214.041 207.5,-233.041 305.5,-233.041 305.5,-214.041 207.5,-214.041"/>
<text text-anchor="middle" x="256.5" y="-221.041" font-family="Helvetica,sans-Serif" font-size="10.00">tds_get_usmallint</text>
</a>
</g>
</g>
<!-- Node1&#45;&gt;Node6 -->
<g id="edge5" class="edge"><title>Node1&#45;&gt;Node6</title>
<path fill="none" stroke="midnightblue" d="M117.931,-195.13C142.649,-200.235 173.239,-206.552 199.292,-211.933"/>
<polygon fill="midnightblue" stroke="midnightblue" points="198.902,-215.426 209.403,-214.021 200.317,-208.57 198.902,-215.426"/>
</g>
<!-- Node7 -->
<g id="node7" class="node"><title>Node7</title>
<g id="a_node7"><a xlink:href="a00357.html#gafae08056186b143f3ef1399307dc9be7" target="_top" xlink:title="Reads a string from wire and put in a DSTR. ">
<polygon fill="white" stroke="black" points="218.5,-290.041 218.5,-309.041 294.5,-309.041 294.5,-290.041 218.5,-290.041"/>
<text text-anchor="middle" x="256.5" y="-297.041" font-family="Helvetica,sans-Serif" font-size="10.00">tds_dstr_get</text>
</a>
</g>
</g>
<!-- Node1&#45;&gt;Node7 -->
<g id="edge7" class="edge"><title>Node1&#45;&gt;Node7</title>
<path fill="none" stroke="midnightblue" d="M86.8713,-195.064C118.936,-214.93 193.156,-260.914 231.542,-284.697"/>
<polygon fill="midnightblue" stroke="midnightblue" points="229.699,-287.673 240.043,-289.964 233.386,-281.722 229.699,-287.673"/>
</g>
<!-- Node12 -->
<g id="node12" class="node"><title>Node12</title>
<g id="a_node12"><a xlink:href="a00357.html#ga0cb72d3f6943795c39db1fa692be0a58" target="_top" xlink:title="Return a single byte from the input buffer. ">
<polygon fill="white" stroke="black" points="555.5,-404.041 555.5,-423.041 632.5,-423.041 632.5,-404.041 555.5,-404.041"/>
<text text-anchor="middle" x="594" y="-411.041" font-family="Helvetica,sans-Serif" font-size="10.00">tds_get_byte</text>
</a>
</g>
</g>
<!-- Node1&#45;&gt;Node12 -->
<g id="edge14" class="edge"><title>Node1&#45;&gt;Node12</title>
<path fill="none" stroke="midnightblue" d="M76.8029,-195.354C90.3555,-219.578 128.628,-282.832 177,-318.541 289.455,-401.556 462.122,-413.807 545.157,-414.51"/>
<polygon fill="midnightblue" stroke="midnightblue" points="545.297,-418.01 555.308,-414.541 545.319,-411.01 545.297,-418.01"/>
</g>
<!-- Node13 -->
<g id="node13" class="node"><title>Node13</title>
<g id="a_node13"><a xlink:href="a00298.html#a7d6ccf355d1fc24711b5cd5bbc23a931" target="_top" xlink:title="Set type of column initializing all dependency. ">
<polygon fill="white" stroke="black" points="198.5,-100.041 198.5,-119.041 314.5,-119.041 314.5,-100.041 198.5,-100.041"/>
<text text-anchor="middle" x="256.5" y="-107.041" font-family="Helvetica,sans-Serif" font-size="10.00">tds_set_column_type</text>
</a>
</g>
</g>
<!-- Node1&#45;&gt;Node13 -->
<g id="edge16" class="edge"><title>Node1&#45;&gt;Node13</title>
<path fill="none" stroke="midnightblue" d="M88.6562,-176.011C109.217,-164.845 144.918,-146.255 177,-133.541 187.549,-129.36 199.13,-125.458 210.081,-122.066"/>
<polygon fill="midnightblue" stroke="midnightblue" points="211.349,-125.339 219.913,-119.101 209.328,-118.637 211.349,-125.339"/>
</g>
<!-- Node16 -->
<g id="node16" class="node"><title>Node16</title>
<g id="a_node16"><a xlink:href="a00359.html#ga91770634ce8c0d6f1fe007b45da186fd" target="_top" xlink:title="Adjust column size according to client&#39;s encoding. ">
<polygon fill="white" stroke="black" points="177,-43.0407 177,-62.0407 336,-62.0407 336,-43.0407 177,-43.0407"/>
<text text-anchor="middle" x="256.5" y="-50.0407" font-family="Helvetica,sans-Serif" font-size="10.00">adjust_character_column_size</text>
</a>
</g>
</g>
<!-- Node1&#45;&gt;Node16 -->
<g id="edge19" class="edge"><title>Node1&#45;&gt;Node16</title>
<path fill="none" stroke="midnightblue" d="M80.351,-175.935C97.607,-157.6 137.524,-117.084 177,-90.5407 190.884,-81.205 207.408,-72.8488 221.706,-66.3657"/>
<polygon fill="midnightblue" stroke="midnightblue" points="223.449,-69.4225 231.189,-62.1878 220.627,-63.0166 223.449,-69.4225"/>
</g>
<!-- Node18 -->
<g id="node18" class="node"><title>Node18</title>
<g id="a_node18"><a xlink:href="a00355.html#ga1224fb9277112dc2ce12531d2b73b145" target="_top" xlink:title="Allocate space for row store return NULL on out of memory. ">
<polygon fill="white" stroke="black" points="215.5,-5.0407 215.5,-24.0407 297.5,-24.0407 297.5,-5.0407 215.5,-5.0407"/>
<text text-anchor="middle" x="256.5" y="-12.0407" font-family="Helvetica,sans-Serif" font-size="10.00">tds_alloc_row</text>
</a>
</g>
</g>
<!-- Node1&#45;&gt;Node18 -->
<g id="edge24" class="edge"><title>Node1&#45;&gt;Node18</title>
<path fill="none" stroke="midnightblue" d="M75.2623,-175.889C86.3472,-148.786 121.619,-71.4907 177,-33.5407 185.415,-27.7744 195.387,-23.751 205.351,-20.9456"/>
<polygon fill="midnightblue" stroke="midnightblue" points="206.37,-24.2995 215.254,-18.5268 204.709,-17.4994 206.37,-24.2995"/>
</g>
<!-- Node2&#45;&gt;Node3 -->
<g id="edge2" class="edge"><title>Node2&#45;&gt;Node3</title>
<path fill="none" stroke="midnightblue" d="M471.609,-195.142C482.75,-199.015 495.186,-203.909 506,-209.541 530.661,-222.384 556.441,-241.249 573.474,-254.594"/>
<polygon fill="midnightblue" stroke="midnightblue" points="571.528,-257.518 581.532,-261.007 575.888,-252.041 571.528,-257.518"/>
</g>
<!-- Node4 -->
<g id="node4" class="node"><title>Node4</title>
<g id="a_node4"><a xlink:href="a00357.html#ga410619783bdf2bb60b0f27a5578e0e07" target="_top" xlink:title="Read in one &#39;packet&#39; from the server. ">
<polygon fill="white" stroke="red" points="682,-356.041 682,-375.041 778,-375.041 778,-356.041 682,-356.041"/>
<text text-anchor="middle" x="730" y="-363.041" font-family="Helvetica,sans-Serif" font-size="10.00">tds_read_packet</text>
</a>
</g>
</g>
<!-- Node3&#45;&gt;Node4 -->
<g id="edge3" class="edge"><title>Node3&#45;&gt;Node4</title>
<path fill="none" stroke="midnightblue" d="M608.836,-280.35C632.126,-296.862 679.339,-330.333 707.147,-350.048"/>
<polygon fill="midnightblue" stroke="midnightblue" points="705.257,-352.998 715.439,-355.927 709.306,-347.288 705.257,-352.998"/>
</g>
<!-- Node4&#45;&gt;Node5 -->
<g id="edge4" class="edge"><title>Node4&#45;&gt;Node5</title>
<path fill="none" stroke="midnightblue" d="M778.279,-365.541C786.531,-365.541 795.124,-365.541 803.398,-365.541"/>
<polygon fill="midnightblue" stroke="midnightblue" points="803.659,-369.041 813.659,-365.541 803.658,-362.041 803.659,-369.041"/>
</g>
<!-- Node6&#45;&gt;Node3 -->
<g id="edge6" class="edge"><title>Node6&#45;&gt;Node3</title>
<path fill="none" stroke="midnightblue" d="M305.588,-223.883C355.976,-225.016 437.218,-229.038 506,-242.541 523.923,-246.059 543.317,-252.074 559.237,-257.63"/>
<polygon fill="midnightblue" stroke="midnightblue" points="558.061,-260.926 568.655,-261.003 560.421,-254.336 558.061,-260.926"/>
</g>
<!-- Node7&#45;&gt;Node3 -->
<g id="edge9" class="edge"><title>Node7&#45;&gt;Node3</title>
<path fill="none" stroke="midnightblue" d="M291.878,-309.107C340.411,-321.061 431.417,-337.751 506,-318.541 530.385,-312.26 555.247,-297.536 572.114,-286.039"/>
<polygon fill="midnightblue" stroke="midnightblue" points="574.447,-288.677 580.608,-280.059 570.417,-282.954 574.447,-288.677"/>
</g>
<!-- Node8 -->
<g id="node8" class="node"><title>Node8</title>
<g id="a_node8"><a xlink:href="a00358.html#ga6aa14b8b717b51afcfb65bd55143689d" target="_top" xlink:title="allocate space for length char ">
<polygon fill="white" stroke="black" points="397.5,-252.041 397.5,-271.041 480.5,-271.041 480.5,-252.041 397.5,-252.041"/>
<text text-anchor="middle" x="439" y="-259.041" font-family="Helvetica,sans-Serif" font-size="10.00">tds_dstr_alloc</text>
</a>
</g>
</g>
<!-- Node7&#45;&gt;Node8 -->
<g id="edge8" class="edge"><title>Node7&#45;&gt;Node8</title>
<path fill="none" stroke="midnightblue" d="M294.9,-291.667C321.595,-286.047 357.815,-278.422 387.135,-272.249"/>
<polygon fill="midnightblue" stroke="midnightblue" points="388.127,-275.617 397.192,-270.132 386.685,-268.767 388.127,-275.617"/>
</g>
<!-- Node9 -->
<g id="node9" class="node"><title>Node9</title>
<g id="a_node9"><a xlink:href="a00357.html#ga90f080e6e9448feac15dee1370d66802" target="_top" xlink:title="Fetch a string from the wire. ">
<polygon fill="white" stroke="black" points="397,-366.041 397,-385.041 481,-385.041 481,-366.041 397,-366.041"/>
<text text-anchor="middle" x="439" y="-373.041" font-family="Helvetica,sans-Serif" font-size="10.00">tds_get_string</text>
</a>
</g>
</g>
<!-- Node7&#45;&gt;Node9 -->
<g id="edge10" class="edge"><title>Node7&#45;&gt;Node9</title>
<path fill="none" stroke="midnightblue" d="M277.563,-309.224C300.263,-320.046 338.446,-337.845 372,-351.541 381.216,-355.302 391.266,-359.106 400.681,-362.541"/>
<polygon fill="midnightblue" stroke="midnightblue" points="399.607,-365.875 410.201,-365.972 401.98,-359.289 399.607,-365.875"/>
</g>
<!-- Node11 -->
<g id="node11" class="node"><title>Node11</title>
<g id="a_node11"><a xlink:href="a00358.html#ga0cd7863ba7c2d2da4a193234472a3d14" target="_top" xlink:title="limit length of string, MUST be &lt;= current length ">
<polygon fill="white" stroke="black" points="394.5,-290.041 394.5,-309.041 483.5,-309.041 483.5,-290.041 394.5,-290.041"/>
<text text-anchor="middle" x="439" y="-297.041" font-family="Helvetica,sans-Serif" font-size="10.00">tds_dstr_setlen</text>
</a>
</g>
</g>
<!-- Node7&#45;&gt;Node11 -->
<g id="edge13" class="edge"><title>Node7&#45;&gt;Node11</title>
<path fill="none" stroke="midnightblue" d="M294.9,-299.541C320.65,-299.541 355.264,-299.541 383.999,-299.541"/>
<polygon fill="midnightblue" stroke="midnightblue" points="384.292,-303.041 394.292,-299.541 384.292,-296.041 384.292,-303.041"/>
</g>
<!-- Node9&#45;&gt;Node3 -->
<g id="edge11" class="edge"><title>Node9&#45;&gt;Node3</title>
<path fill="none" stroke="midnightblue" d="M474.435,-365.941C484.974,-362.246 496.329,-357.46 506,-351.541 534.589,-334.043 561.922,-306.142 578.084,-288.083"/>
<polygon fill="midnightblue" stroke="midnightblue" points="581.123,-289.926 585.078,-280.097 575.857,-285.315 581.123,-289.926"/>
</g>
<!-- Node10 -->
<g id="node10" class="node"><title>Node10</title>
<g id="a_node10"><a xlink:href="a00357.html#ga676c4dee6522815b16fdc8e448e43590" target="_top" xlink:title="For UTF&#45;8 and similar, tds_iconv() may encounter a partial sequence when the chunk boundary is not al...">
<polygon fill="white" stroke="red" points="542,-366.041 542,-385.041 646,-385.041 646,-366.041 542,-366.041"/>
<text text-anchor="middle" x="594" y="-373.041" font-family="Helvetica,sans-Serif" font-size="10.00">read_and_convert</text>
</a>
</g>
</g>
<!-- Node9&#45;&gt;Node10 -->
<g id="edge12" class="edge"><title>Node9&#45;&gt;Node10</title>
<path fill="none" stroke="midnightblue" d="M481.001,-375.541C496.468,-375.541 514.423,-375.541 531.365,-375.541"/>
<polygon fill="midnightblue" stroke="midnightblue" points="531.752,-379.041 541.752,-375.541 531.752,-372.041 531.752,-379.041"/>
</g>
<!-- Node12&#45;&gt;Node4 -->
<g id="edge15" class="edge"><title>Node12&#45;&gt;Node4</title>
<path fill="none" stroke="midnightblue" d="M621.795,-403.943C642.153,-396.65 670.371,-386.542 692.746,-378.527"/>
<polygon fill="midnightblue" stroke="midnightblue" points="694.018,-381.79 702.252,-375.122 691.657,-375.2 694.018,-381.79"/>
</g>
<!-- Node14 -->
<g id="node14" class="node"><title>Node14</title>
<g id="a_node14"><a xlink:href="a00193.html#a68855f1251759a6b7338635306ab0041" target="_top" xlink:title="tds_get_varint_size() returns the size of a variable length integer returned in a TDS 7...">
<polygon fill="white" stroke="black" points="384.5,-62.0407 384.5,-81.0407 493.5,-81.0407 493.5,-62.0407 384.5,-62.0407"/>
<text text-anchor="middle" x="439" y="-69.0407" font-family="Helvetica,sans-Serif" font-size="10.00">tds_get_varint_size</text>
</a>
</g>
</g>
<!-- Node13&#45;&gt;Node14 -->
<g id="edge17" class="edge"><title>Node13&#45;&gt;Node14</title>
<path fill="none" stroke="midnightblue" d="M303.048,-99.9517C327.296,-94.8468 357.304,-88.5294 382.861,-83.1489"/>
<polygon fill="midnightblue" stroke="midnightblue" points="383.715,-86.5459 392.78,-81.0608 382.273,-79.696 383.715,-86.5459"/>
</g>
<!-- Node15 -->
<g id="node15" class="node"><title>Node15</title>
<g id="a_node15"><a xlink:href="a00193.html#aa70b02ff34ac03040ca41f13d5fd35bd" target="_top" xlink:title="Return the number of bytes needed by specified type. ">
<polygon fill="white" stroke="black" points="379.5,-100.041 379.5,-119.041 498.5,-119.041 498.5,-100.041 379.5,-100.041"/>
<text text-anchor="middle" x="439" y="-107.041" font-family="Helvetica,sans-Serif" font-size="10.00">tds_get_size_by_type</text>
</a>
</g>
</g>
<!-- Node13&#45;&gt;Node15 -->
<g id="edge18" class="edge"><title>Node13&#45;&gt;Node15</title>
<path fill="none" stroke="midnightblue" d="M314.611,-109.541C331.96,-109.541 351.205,-109.541 369.236,-109.541"/>
<polygon fill="midnightblue" stroke="midnightblue" points="369.397,-113.041 379.397,-109.541 369.397,-106.041 369.397,-113.041"/>
</g>
<!-- Node16&#45;&gt;Node5 -->
<g id="edge21" class="edge"><title>Node16&#45;&gt;Node5</title>
<path fill="none" stroke="midnightblue" d="M305.398,-42.9509C315.641,-40.347 326.295,-37.211 336,-33.5407 352.922,-27.1413 354.439,-18.8905 372,-14.5407 429.809,-0.221633 451.068,8.46728 506,-14.5407 675.938,-85.7187 804.573,-285.74 841.042,-347.287"/>
<polygon fill="midnightblue" stroke="midnightblue" points="838.028,-349.067 846.096,-355.935 844.072,-345.535 838.028,-349.067"/>
</g>
<!-- Node17 -->
<g id="node17" class="node"><title>Node17</title>
<g id="a_node17"><a xlink:href="a00359.html#ga87209537d51f069fee02bc224da492cb" target="_top" xlink:title="Allow for maximum possible size of converted data, while being careful about integer division truncat...">
<polygon fill="white" stroke="black" points="372,-24.0407 372,-43.0407 506,-43.0407 506,-24.0407 372,-24.0407"/>
<text text-anchor="middle" x="439" y="-31.0407" font-family="Helvetica,sans-Serif" font-size="10.00">determine_adjusted_size</text>
</a>
</g>
</g>
<!-- Node16&#45;&gt;Node17 -->
<g id="edge20" class="edge"><title>Node16&#45;&gt;Node17</title>
<path fill="none" stroke="midnightblue" d="M336.145,-44.2623C344.587,-43.3736 353.168,-42.4704 361.584,-41.5845"/>
<polygon fill="midnightblue" stroke="midnightblue" points="362.169,-45.0424 371.747,-40.5147 361.436,-38.0808 362.169,-45.0424"/>
</g>
</g>
</svg>
