<?xml version="1.0" encoding="UTF-8" standalone="no"?>
<!DOCTYPE svg PUBLIC "-//W3C//DTD SVG 1.1//EN"
 "http://www.w3.org/Graphics/SVG/1.1/DTD/svg11.dtd">
<!-- Generated by graphviz version 2.38.0 (20140413.2041)
 -->
<!-- Title: tds_strftime Pages: 1 -->
<svg width="438pt" height="104pt"
 viewBox="0.00 0.00 438.00 104.00" xmlns="http://www.w3.org/2000/svg" xmlns:xlink="http://www.w3.org/1999/xlink">
<g id="graph0" class="graph" transform="scale(1 1) rotate(0) translate(4 100)">
<title>tds_strftime</title>
<polygon fill="white" stroke="none" points="-4,4 -4,-100 434,-100 434,4 -4,4"/>
<!-- Node1 -->
<g id="node1" class="node"><title>Node1</title>
<polygon fill="#bfbfbf" stroke="black" points="0,-38.5 0,-57.5 71,-57.5 71,-38.5 0,-38.5"/>
<text text-anchor="middle" x="35.5" y="-45.5" font-family="Helvetica,sans-Serif" font-size="10.00">tds_strftime</text>
</g>
<!-- Node2 -->
<g id="node2" class="node"><title>Node2</title>
<g id="a_node2"><a xlink:href="a00233.html#a230fa5b56ae4e3509a69bd266495732b" target="_top" xlink:title="Convert column for output (usually to a file) Conversion is slightly different from input as: ...">
<polygon fill="white" stroke="black" points="107,-76.5 107,-95.5 208,-95.5 208,-76.5 107,-76.5"/>
<text text-anchor="middle" x="157.5" y="-83.5" font-family="Helvetica,sans-Serif" font-size="10.00">_bcp_convert_out</text>
</a>
</g>
</g>
<!-- Node1&#45;&gt;Node2 -->
<g id="edge1" class="edge"><title>Node1&#45;&gt;Node2</title>
<path fill="none" stroke="midnightblue" d="M76.5435,-60.6804C92.7574,-65.8148 111.166,-71.6441 126.229,-76.4141"/>
<polygon fill="midnightblue" stroke="midnightblue" points="77.3711,-57.2713 66.7811,-57.589 75.2578,-63.9447 77.3711,-57.2713"/>
</g>
<!-- Node5 -->
<g id="node5" class="node"><title>Node5</title>
<g id="a_node5"><a xlink:href="a00341.html#gaf641c8e3d34607ca8b7ac2afed3e6d67" target="_top" xlink:title="Print a regular result row to a buffer. ">
<polygon fill="white" stroke="black" points="124.5,-38.5 124.5,-57.5 190.5,-57.5 190.5,-38.5 124.5,-38.5"/>
<text text-anchor="middle" x="157.5" y="-45.5" font-family="Helvetica,sans-Serif" font-size="10.00">dbspr1row</text>
</a>
</g>
</g>
<!-- Node1&#45;&gt;Node5 -->
<g id="edge4" class="edge"><title>Node1&#45;&gt;Node5</title>
<path fill="none" stroke="midnightblue" d="M81.342,-48C95.6251,-48 111.135,-48 124.335,-48"/>
<polygon fill="midnightblue" stroke="midnightblue" points="81.209,-44.5001 71.209,-48 81.2089,-51.5001 81.209,-44.5001"/>
</g>
<!-- Node6 -->
<g id="node6" class="node"><title>Node6</title>
<g id="a_node6"><a xlink:href="a00341.html#gaa30be3414a97aac6139af2e928db91ca" target="_top" xlink:title="Print a result set to stdout. ">
<polygon fill="white" stroke="black" points="130,-0.5 130,-19.5 185,-19.5 185,-0.5 130,-0.5"/>
<text text-anchor="middle" x="157.5" y="-7.5" font-family="Helvetica,sans-Serif" font-size="10.00">dbprrow</text>
</a>
</g>
</g>
<!-- Node1&#45;&gt;Node6 -->
<g id="edge5" class="edge"><title>Node1&#45;&gt;Node6</title>
<path fill="none" stroke="midnightblue" d="M76.7467,-35.2552C94.2577,-29.71 114.295,-23.3648 129.905,-18.4216"/>
<polygon fill="midnightblue" stroke="midnightblue" points="75.2578,-32.0553 66.7811,-38.411 77.3711,-38.7287 75.2578,-32.0553"/>
</g>
<!-- Node3 -->
<g id="node3" class="node"><title>Node3</title>
<g id="a_node3"><a xlink:href="a00344.html#gae67546338cb9542a4902aa914f57f314" target="_top" xlink:title="_bcp_exec_out">
<polygon fill="white" stroke="black" points="244,-76.5 244,-95.5 332,-95.5 332,-76.5 244,-76.5"/>
<text text-anchor="middle" x="288" y="-83.5" font-family="Helvetica,sans-Serif" font-size="10.00">_bcp_exec_out</text>
</a>
</g>
</g>
<!-- Node2&#45;&gt;Node3 -->
<g id="edge2" class="edge"><title>Node2&#45;&gt;Node3</title>
<path fill="none" stroke="midnightblue" d="M218.198,-86C226.806,-86 235.522,-86 243.727,-86"/>
<polygon fill="midnightblue" stroke="midnightblue" points="218.181,-82.5001 208.181,-86 218.181,-89.5001 218.181,-82.5001"/>
</g>
<!-- Node4 -->
<g id="node4" class="node"><title>Node4</title>
<g id="a_node4"><a xlink:href="a00343.html#ga7a184158b27a50f713e9cfae3b746209" target="_top" xlink:title="Write a datafile to a table. ">
<polygon fill="white" stroke="black" points="368,-76.5 368,-95.5 430,-95.5 430,-76.5 368,-76.5"/>
<text text-anchor="middle" x="399" y="-83.5" font-family="Helvetica,sans-Serif" font-size="10.00">bcp_exec</text>
</a>
</g>
</g>
<!-- Node3&#45;&gt;Node4 -->
<g id="edge3" class="edge"><title>Node3&#45;&gt;Node4</title>
<path fill="none" stroke="midnightblue" d="M342.351,-86C351.163,-86 360.015,-86 367.985,-86"/>
<polygon fill="midnightblue" stroke="midnightblue" points="342.08,-82.5001 332.08,-86 342.08,-89.5001 342.08,-82.5001"/>
</g>
</g>
</svg>
