<?xml version="1.0" encoding="UTF-8" standalone="no"?>
<!DOCTYPE svg PUBLIC "-//W3C//DTD SVG 1.1//EN"
 "http://www.w3.org/Graphics/SVG/1.1/DTD/svg11.dtd">
<!-- Generated by graphviz version 2.38.0 (20140413.2041)
 -->
<!-- Title: tds7_process_result Pages: 1 -->
<svg width="987pt" height="426pt"
 viewBox="0.00 0.00 987.00 426.00" xmlns="http://www.w3.org/2000/svg" xmlns:xlink="http://www.w3.org/1999/xlink">
<g id="graph0" class="graph" transform="scale(1 1) rotate(0) translate(4 422)">
<title>tds7_process_result</title>
<polygon fill="white" stroke="none" points="-4,4 -4,-422 983,-422 983,4 -4,4"/>
<!-- Node1 -->
<g id="node1" class="node"><title>Node1</title>
<polygon fill="#bfbfbf" stroke="black" points="0,-275.5 0,-294.5 112,-294.5 112,-275.5 0,-275.5"/>
<text text-anchor="middle" x="56" y="-282.5" font-family="Helvetica,sans-Serif" font-size="10.00">tds7_process_result</text>
</g>
<!-- Node2 -->
<g id="node2" class="node"><title>Node2</title>
<g id="a_node2"><a xlink:href="a00193.html#ab45c291105027e69836002e1dd586141" target="_top" xlink:title="Write a message to the debug log. ">
<polygon fill="white" stroke="black" points="902,-266.5 902,-285.5 979,-285.5 979,-266.5 902,-266.5"/>
<text text-anchor="middle" x="940.5" y="-273.5" font-family="Helvetica,sans-Serif" font-size="10.00">tdsdump_log</text>
</a>
</g>
</g>
<!-- Node1&#45;&gt;Node2 -->
<g id="edge1" class="edge"><title>Node1&#45;&gt;Node2</title>
<path fill="none" stroke="midnightblue" d="M69.3295,-294.565C109.914,-325.061 243.978,-418 370.5,-418 370.5,-418 370.5,-418 696.5,-418 794.168,-418 887.461,-331.432 923.669,-293.479"/>
<polygon fill="midnightblue" stroke="midnightblue" points="926.611,-295.456 930.882,-285.76 921.497,-290.677 926.611,-295.456"/>
</g>
<!-- Node3 -->
<g id="node3" class="node"><title>Node3</title>
<g id="a_node3"><a xlink:href="a00359.html#ga07cee55fd522cca16fb59b7a8f0b1376" target="_top" xlink:title="Reads data information from wire. ">
<polygon fill="white" stroke="black" points="148,-275.5 148,-294.5 256,-294.5 256,-275.5 148,-275.5"/>
<text text-anchor="middle" x="202" y="-282.5" font-family="Helvetica,sans-Serif" font-size="10.00">tds7_get_data_info</text>
</a>
</g>
</g>
<!-- Node1&#45;&gt;Node3 -->
<g id="edge2" class="edge"><title>Node1&#45;&gt;Node3</title>
<path fill="none" stroke="midnightblue" d="M112.262,-285C120.495,-285 129.036,-285 137.424,-285"/>
<polygon fill="midnightblue" stroke="midnightblue" points="137.546,-288.5 147.546,-285 137.546,-281.5 137.546,-288.5"/>
</g>
<!-- Node17 -->
<g id="node17" class="node"><title>Node17</title>
<g id="a_node17"><a xlink:href="a00355.html#ga1224fb9277112dc2ce12531d2b73b145" target="_top" xlink:title="Allocate space for row store return NULL on out of memory. ">
<polygon fill="white" stroke="black" points="161,-237.5 161,-256.5 243,-256.5 243,-237.5 161,-237.5"/>
<text text-anchor="middle" x="202" y="-244.5" font-family="Helvetica,sans-Serif" font-size="10.00">tds_alloc_row</text>
</a>
</g>
</g>
<!-- Node1&#45;&gt;Node17 -->
<g id="edge21" class="edge"><title>Node1&#45;&gt;Node17</title>
<path fill="none" stroke="midnightblue" d="M93.3373,-275.411C112.083,-270.464 135.143,-264.379 155.107,-259.111"/>
<polygon fill="midnightblue" stroke="midnightblue" points="156.148,-262.456 164.924,-256.52 154.362,-255.688 156.148,-262.456"/>
</g>
<!-- Node3&#45;&gt;Node2 -->
<g id="edge19" class="edge"><title>Node3&#45;&gt;Node2</title>
<path fill="none" stroke="midnightblue" d="M244.566,-294.54C299.636,-306.6 399.979,-326.565 487,-333 546.393,-337.392 561.678,-338.266 621,-333 717.995,-324.389 829.672,-301.304 891.671,-287.295"/>
<polygon fill="midnightblue" stroke="midnightblue" points="892.58,-290.678 901.553,-285.044 891.025,-283.853 892.58,-290.678"/>
</g>
<!-- Node4 -->
<g id="node4" class="node"><title>Node4</title>
<g id="a_node4"><a xlink:href="a00298.html#a7d6ccf355d1fc24711b5cd5bbc23a931" target="_top" xlink:title="Set type of column initializing all dependency. ">
<polygon fill="white" stroke="black" points="313.5,-275.5 313.5,-294.5 429.5,-294.5 429.5,-275.5 313.5,-275.5"/>
<text text-anchor="middle" x="371.5" y="-282.5" font-family="Helvetica,sans-Serif" font-size="10.00">tds_set_column_type</text>
</a>
</g>
</g>
<!-- Node3&#45;&gt;Node4 -->
<g id="edge3" class="edge"><title>Node3&#45;&gt;Node4</title>
<path fill="none" stroke="midnightblue" d="M256.459,-285C271.302,-285 287.613,-285 303.142,-285"/>
<polygon fill="midnightblue" stroke="midnightblue" points="303.21,-288.5 313.21,-285 303.21,-281.5 303.21,-288.5"/>
</g>
<!-- Node7 -->
<g id="node7" class="node"><title>Node7</title>
<g id="a_node7"><a xlink:href="a00357.html#ga0cb72d3f6943795c39db1fa692be0a58" target="_top" xlink:title="Return a single byte from the input buffer. ">
<polygon fill="white" stroke="black" points="657,-152.5 657,-171.5 734,-171.5 734,-152.5 657,-152.5"/>
<text text-anchor="middle" x="695.5" y="-159.5" font-family="Helvetica,sans-Serif" font-size="10.00">tds_get_byte</text>
</a>
</g>
</g>
<!-- Node3&#45;&gt;Node7 -->
<g id="edge6" class="edge"><title>Node3&#45;&gt;Node7</title>
<path fill="none" stroke="midnightblue" d="M238.638,-275.424C244.743,-272.91 250.79,-269.804 256,-266 277.25,-250.483 269.464,-232.582 292,-219 404.805,-151.013 567.041,-151.858 646.692,-157.31"/>
<polygon fill="midnightblue" stroke="midnightblue" points="646.678,-160.818 656.909,-158.066 647.195,-153.837 646.678,-160.818"/>
</g>
<!-- Node9 -->
<g id="node9" class="node"><title>Node9</title>
<g id="a_node9"><a xlink:href="a00359.html#ga91770634ce8c0d6f1fe007b45da186fd" target="_top" xlink:title="Adjust column size according to client&#39;s encoding. ">
<polygon fill="white" stroke="black" points="292,-228.5 292,-247.5 451,-247.5 451,-228.5 292,-228.5"/>
<text text-anchor="middle" x="371.5" y="-235.5" font-family="Helvetica,sans-Serif" font-size="10.00">adjust_character_column_size</text>
</a>
</g>
</g>
<!-- Node3&#45;&gt;Node9 -->
<g id="edge9" class="edge"><title>Node3&#45;&gt;Node9</title>
<path fill="none" stroke="midnightblue" d="M236.896,-275.489C262.693,-268.25 298.412,-258.228 326.427,-250.367"/>
<polygon fill="midnightblue" stroke="midnightblue" points="327.685,-253.649 336.367,-247.578 325.793,-246.909 327.685,-253.649"/>
</g>
<!-- Node11 -->
<g id="node11" class="node"><title>Node11</title>
<g id="a_node11"><a xlink:href="a00357.html#gafae08056186b143f3ef1399307dc9be7" target="_top" xlink:title="Reads a string from wire and put in a DSTR. ">
<polygon fill="white" stroke="black" points="333.5,-76.5 333.5,-95.5 409.5,-95.5 409.5,-76.5 333.5,-76.5"/>
<text text-anchor="middle" x="371.5" y="-83.5" font-family="Helvetica,sans-Serif" font-size="10.00">tds_dstr_get</text>
</a>
</g>
</g>
<!-- Node3&#45;&gt;Node11 -->
<g id="edge12" class="edge"><title>Node3&#45;&gt;Node11</title>
<path fill="none" stroke="midnightblue" d="M242.853,-275.452C247.729,-272.988 252.291,-269.892 256,-266 293.828,-226.308 261.076,-193.278 292,-148 305.388,-128.398 326.859,-112.053 343.964,-101.075"/>
<polygon fill="midnightblue" stroke="midnightblue" points="346.263,-103.769 352.939,-95.5419 342.59,-97.8106 346.263,-103.769"/>
</g>
<!-- Node16 -->
<g id="node16" class="node"><title>Node16</title>
<g id="a_node16"><a xlink:href="a00359.html#ga0cf7e719115b0ae476753442d10505ab" target="_top" xlink:title="Returns string representation of the given type. ">
<polygon fill="white" stroke="black" points="338,-370.5 338,-389.5 405,-389.5 405,-370.5 338,-370.5"/>
<text text-anchor="middle" x="371.5" y="-377.5" font-family="Helvetica,sans-Serif" font-size="10.00">tds_prtype</text>
</a>
</g>
</g>
<!-- Node3&#45;&gt;Node16 -->
<g id="edge20" class="edge"><title>Node3&#45;&gt;Node16</title>
<path fill="none" stroke="midnightblue" d="M212.525,-294.666C227.925,-309.783 259.826,-339.043 292,-356 303.13,-361.866 315.919,-366.54 327.899,-370.147"/>
<polygon fill="midnightblue" stroke="midnightblue" points="327.143,-373.57 337.718,-372.929 329.051,-366.835 327.143,-373.57"/>
</g>
<!-- Node5 -->
<g id="node5" class="node"><title>Node5</title>
<g id="a_node5"><a xlink:href="a00193.html#a68855f1251759a6b7338635306ab0041" target="_top" xlink:title="tds_get_varint_size() returns the size of a variable length integer returned in a TDS 7...">
<polygon fill="white" stroke="black" points="499.5,-266.5 499.5,-285.5 608.5,-285.5 608.5,-266.5 499.5,-266.5"/>
<text text-anchor="middle" x="554" y="-273.5" font-family="Helvetica,sans-Serif" font-size="10.00">tds_get_varint_size</text>
</a>
</g>
</g>
<!-- Node4&#45;&gt;Node5 -->
<g id="edge4" class="edge"><title>Node4&#45;&gt;Node5</title>
<path fill="none" stroke="midnightblue" d="M429.611,-282.152C448.609,-281.205 469.882,-280.144 489.343,-279.174"/>
<polygon fill="midnightblue" stroke="midnightblue" points="489.519,-282.67 499.333,-278.676 489.171,-275.678 489.519,-282.67"/>
</g>
<!-- Node6 -->
<g id="node6" class="node"><title>Node6</title>
<g id="a_node6"><a xlink:href="a00193.html#aa70b02ff34ac03040ca41f13d5fd35bd" target="_top" xlink:title="Return the number of bytes needed by specified type. ">
<polygon fill="white" stroke="black" points="494.5,-304.5 494.5,-323.5 613.5,-323.5 613.5,-304.5 494.5,-304.5"/>
<text text-anchor="middle" x="554" y="-311.5" font-family="Helvetica,sans-Serif" font-size="10.00">tds_get_size_by_type</text>
</a>
</g>
</g>
<!-- Node4&#45;&gt;Node6 -->
<g id="edge5" class="edge"><title>Node4&#45;&gt;Node6</title>
<path fill="none" stroke="midnightblue" d="M429.611,-294.176C447.04,-296.976 466.384,-300.084 484.487,-302.992"/>
<polygon fill="midnightblue" stroke="midnightblue" points="483.968,-306.454 494.397,-304.585 485.079,-299.542 483.968,-306.454"/>
</g>
<!-- Node8 -->
<g id="node8" class="node"><title>Node8</title>
<g id="a_node8"><a xlink:href="a00357.html#ga410619783bdf2bb60b0f27a5578e0e07" target="_top" xlink:title="Read in one &#39;packet&#39; from the server. ">
<polygon fill="white" stroke="red" points="770,-152.5 770,-171.5 866,-171.5 866,-152.5 770,-152.5"/>
<text text-anchor="middle" x="818" y="-159.5" font-family="Helvetica,sans-Serif" font-size="10.00">tds_read_packet</text>
</a>
</g>
</g>
<!-- Node7&#45;&gt;Node8 -->
<g id="edge7" class="edge"><title>Node7&#45;&gt;Node8</title>
<path fill="none" stroke="midnightblue" d="M734.296,-162C742.246,-162 750.803,-162 759.294,-162"/>
<polygon fill="midnightblue" stroke="midnightblue" points="759.571,-165.5 769.571,-162 759.571,-158.5 759.571,-165.5"/>
</g>
<!-- Node8&#45;&gt;Node2 -->
<g id="edge8" class="edge"><title>Node8&#45;&gt;Node2</title>
<path fill="none" stroke="midnightblue" d="M842.626,-171.697C850.488,-175.522 859.013,-180.361 866,-186 891.902,-206.906 914.948,-238.25 928.06,-257.893"/>
<polygon fill="midnightblue" stroke="midnightblue" points="925.275,-260.031 933.667,-266.499 931.14,-256.21 925.275,-260.031"/>
</g>
<!-- Node9&#45;&gt;Node2 -->
<g id="edge11" class="edge"><title>Node9&#45;&gt;Node2</title>
<path fill="none" stroke="midnightblue" d="M419.079,-228.487C439.78,-224.722 464.508,-220.853 487,-219 546.354,-214.109 561.678,-213.734 621,-219 717.995,-227.611 829.672,-250.696 891.671,-264.705"/>
<polygon fill="midnightblue" stroke="midnightblue" points="891.025,-268.147 901.553,-266.956 892.58,-261.322 891.025,-268.147"/>
</g>
<!-- Node10 -->
<g id="node10" class="node"><title>Node10</title>
<g id="a_node10"><a xlink:href="a00359.html#ga87209537d51f069fee02bc224da492cb" target="_top" xlink:title="Allow for maximum possible size of converted data, while being careful about integer division truncat...">
<polygon fill="white" stroke="black" points="487,-228.5 487,-247.5 621,-247.5 621,-228.5 487,-228.5"/>
<text text-anchor="middle" x="554" y="-235.5" font-family="Helvetica,sans-Serif" font-size="10.00">determine_adjusted_size</text>
</a>
</g>
</g>
<!-- Node9&#45;&gt;Node10 -->
<g id="edge10" class="edge"><title>Node9&#45;&gt;Node10</title>
<path fill="none" stroke="midnightblue" d="M451.145,-238C459.587,-238 468.168,-238 476.584,-238"/>
<polygon fill="midnightblue" stroke="midnightblue" points="476.747,-241.5 486.747,-238 476.747,-234.5 476.747,-241.5"/>
</g>
<!-- Node12 -->
<g id="node12" class="node"><title>Node12</title>
<g id="a_node12"><a xlink:href="a00358.html#ga6aa14b8b717b51afcfb65bd55143689d" target="_top" xlink:title="allocate space for length char ">
<polygon fill="white" stroke="black" points="512.5,-0.5 512.5,-19.5 595.5,-19.5 595.5,-0.5 512.5,-0.5"/>
<text text-anchor="middle" x="554" y="-7.5" font-family="Helvetica,sans-Serif" font-size="10.00">tds_dstr_alloc</text>
</a>
</g>
</g>
<!-- Node11&#45;&gt;Node12 -->
<g id="edge13" class="edge"><title>Node11&#45;&gt;Node12</title>
<path fill="none" stroke="midnightblue" d="M389.514,-76.3033C411.496,-64.0641 451.2,-42.931 487,-29 492.907,-26.7015 499.206,-24.5384 505.48,-22.5535"/>
<polygon fill="midnightblue" stroke="midnightblue" points="506.706,-25.8393 515.259,-19.5872 504.674,-19.1407 506.706,-25.8393"/>
</g>
<!-- Node13 -->
<g id="node13" class="node"><title>Node13</title>
<g id="a_node13"><a xlink:href="a00357.html#gae7d9c4e1a079e1d0aa0252732631e8c4" target="_top" xlink:title="Get N bytes from the buffer and return them in the already allocated space given to us...">
<polygon fill="white" stroke="black" points="663.5,-114.5 663.5,-133.5 727.5,-133.5 727.5,-114.5 663.5,-114.5"/>
<text text-anchor="middle" x="695.5" y="-121.5" font-family="Helvetica,sans-Serif" font-size="10.00">tds_get_n</text>
</a>
</g>
</g>
<!-- Node11&#45;&gt;Node13 -->
<g id="edge14" class="edge"><title>Node11&#45;&gt;Node13</title>
<path fill="none" stroke="midnightblue" d="M409.795,-86.8014C458.621,-88.3177 546.731,-92.6609 621,-105 631.641,-106.768 642.991,-109.347 653.508,-112.039"/>
<polygon fill="midnightblue" stroke="midnightblue" points="652.723,-115.452 663.286,-114.631 654.517,-108.685 652.723,-115.452"/>
</g>
<!-- Node14 -->
<g id="node14" class="node"><title>Node14</title>
<g id="a_node14"><a xlink:href="a00357.html#ga90f080e6e9448feac15dee1370d66802" target="_top" xlink:title="Fetch a string from the wire. ">
<polygon fill="white" stroke="red" points="512,-114.5 512,-133.5 596,-133.5 596,-114.5 512,-114.5"/>
<text text-anchor="middle" x="554" y="-121.5" font-family="Helvetica,sans-Serif" font-size="10.00">tds_get_string</text>
</a>
</g>
</g>
<!-- Node11&#45;&gt;Node14 -->
<g id="edge16" class="edge"><title>Node11&#45;&gt;Node14</title>
<path fill="none" stroke="midnightblue" d="M409.9,-93.8736C436.502,-99.4742 472.564,-107.066 501.831,-113.227"/>
<polygon fill="midnightblue" stroke="midnightblue" points="501.366,-116.706 511.872,-115.342 502.808,-109.856 501.366,-116.706"/>
</g>
<!-- Node15 -->
<g id="node15" class="node"><title>Node15</title>
<g id="a_node15"><a xlink:href="a00358.html#ga0cd7863ba7c2d2da4a193234472a3d14" target="_top" xlink:title="limit length of string, MUST be &lt;= current length ">
<polygon fill="white" stroke="black" points="509.5,-38.5 509.5,-57.5 598.5,-57.5 598.5,-38.5 509.5,-38.5"/>
<text text-anchor="middle" x="554" y="-45.5" font-family="Helvetica,sans-Serif" font-size="10.00">tds_dstr_setlen</text>
</a>
</g>
</g>
<!-- Node11&#45;&gt;Node15 -->
<g id="edge18" class="edge"><title>Node11&#45;&gt;Node15</title>
<path fill="none" stroke="midnightblue" d="M409.9,-78.1264C435.763,-72.6814 470.568,-65.3541 499.376,-59.2892"/>
<polygon fill="midnightblue" stroke="midnightblue" points="500.227,-62.6869 509.292,-57.2018 498.785,-55.837 500.227,-62.6869"/>
</g>
<!-- Node13&#45;&gt;Node8 -->
<g id="edge15" class="edge"><title>Node13&#45;&gt;Node8</title>
<path fill="none" stroke="midnightblue" d="M726.907,-133.589C742.035,-138.359 760.52,-144.189 776.8,-149.323"/>
<polygon fill="midnightblue" stroke="midnightblue" points="776.013,-152.744 786.602,-152.414 778.118,-146.069 776.013,-152.744"/>
</g>
<!-- Node14&#45;&gt;Node13 -->
<g id="edge17" class="edge"><title>Node14&#45;&gt;Node13</title>
<path fill="none" stroke="midnightblue" d="M596.1,-124C614.105,-124 635.193,-124 653.219,-124"/>
<polygon fill="midnightblue" stroke="midnightblue" points="653.432,-127.5 663.432,-124 653.432,-120.5 653.432,-127.5"/>
</g>
</g>
</svg>
