<?xml version="1.0" encoding="UTF-8" standalone="no"?>
<!DOCTYPE svg PUBLIC "-//W3C//DTD SVG 1.1//EN"
 "http://www.w3.org/Graphics/SVG/1.1/DTD/svg11.dtd">
<!-- Generated by graphviz version 2.38.0 (20140413.2041)
 -->
<!-- Title: dbconvert_ps Pages: 1 -->
<svg width="548pt" height="189pt"
 viewBox="0.00 0.00 548.00 188.63" xmlns="http://www.w3.org/2000/svg" xmlns:xlink="http://www.w3.org/1999/xlink">
<g id="graph0" class="graph" transform="scale(1 1) rotate(0) translate(4 184.63)">
<title>dbconvert_ps</title>
<polygon fill="white" stroke="none" points="-4,4 -4,-184.63 544,-184.63 544,4 -4,4"/>
<!-- Node1 -->
<g id="node1" class="node"><title>Node1</title>
<polygon fill="#bfbfbf" stroke="black" points="0,-152.5 0,-171.5 80,-171.5 80,-152.5 0,-152.5"/>
<text text-anchor="middle" x="40" y="-159.5" font-family="Helvetica,sans-Serif" font-size="10.00">dbconvert_ps</text>
</g>
<!-- Node2 -->
<g id="node2" class="node"><title>Node2</title>
<g id="a_node2"><a xlink:href="a00193.html#ab45c291105027e69836002e1dd586141" target="_top" xlink:title="Write a message to the debug log. ">
<polygon fill="white" stroke="black" points="463,-133.5 463,-152.5 540,-152.5 540,-133.5 463,-133.5"/>
<text text-anchor="middle" x="501.5" y="-140.5" font-family="Helvetica,sans-Serif" font-size="10.00">tdsdump_log</text>
</a>
</g>
</g>
<!-- Node1&#45;&gt;Node2 -->
<g id="edge1" class="edge"><title>Node1&#45;&gt;Node2</title>
<path fill="none" stroke="midnightblue" d="M80.2667,-167.522C150.457,-176.328 301.819,-190.488 427,-169 441.564,-166.5 457.073,-161.404 470.072,-156.38"/>
<polygon fill="midnightblue" stroke="midnightblue" points="471.498,-159.58 479.467,-152.597 468.883,-153.086 471.498,-159.58"/>
</g>
<!-- Node3 -->
<g id="node3" class="node"><title>Node3</title>
<g id="a_node3"><a xlink:href="a00341.html#ga32eb72f6fb3edb130e59fb3dd0766e7e" target="_top" xlink:title="Convert one datatype to another. ">
<polygon fill="white" stroke="black" points="116,-95.5 116,-114.5 179,-114.5 179,-95.5 116,-95.5"/>
<text text-anchor="middle" x="147.5" y="-102.5" font-family="Helvetica,sans-Serif" font-size="10.00">dbconvert</text>
</a>
</g>
</g>
<!-- Node1&#45;&gt;Node3 -->
<g id="edge2" class="edge"><title>Node1&#45;&gt;Node3</title>
<path fill="none" stroke="midnightblue" d="M58.8966,-152.331C75.6697,-143.269 100.952,-129.609 120.052,-119.289"/>
<polygon fill="midnightblue" stroke="midnightblue" points="121.733,-122.359 128.868,-114.526 118.406,-116.201 121.733,-122.359"/>
</g>
<!-- Node3&#45;&gt;Node2 -->
<g id="edge3" class="edge"><title>Node3&#45;&gt;Node2</title>
<path fill="none" stroke="midnightblue" d="M160.866,-114.72C173.601,-124.061 194.437,-137.539 215,-143 296.177,-164.558 394.979,-157.576 452.505,-150.392"/>
<polygon fill="midnightblue" stroke="midnightblue" points="453.289,-153.819 462.752,-149.055 452.384,-146.878 453.289,-153.819"/>
</g>
<!-- Node4 -->
<g id="node4" class="node"><title>Node4</title>
<g id="a_node4"><a xlink:href="a00193.html#aa70b02ff34ac03040ca41f13d5fd35bd" target="_top" xlink:title="Return the number of bytes needed by specified type. ">
<polygon fill="white" stroke="black" points="215,-114.5 215,-133.5 334,-133.5 334,-114.5 215,-114.5"/>
<text text-anchor="middle" x="274.5" y="-121.5" font-family="Helvetica,sans-Serif" font-size="10.00">tds_get_size_by_type</text>
</a>
</g>
</g>
<!-- Node3&#45;&gt;Node4 -->
<g id="edge4" class="edge"><title>Node3&#45;&gt;Node4</title>
<path fill="none" stroke="midnightblue" d="M179.078,-109.648C186.956,-110.845 195.757,-112.183 204.733,-113.547"/>
<polygon fill="midnightblue" stroke="midnightblue" points="204.489,-117.05 214.902,-115.093 205.541,-110.13 204.489,-117.05"/>
</g>
<!-- Node5 -->
<g id="node5" class="node"><title>Node5</title>
<g id="a_node5"><a xlink:href="a00235.html#aea6a865806d454280126de940478c214" target="_top" xlink:title="dbgetnull">
<polygon fill="white" stroke="black" points="245,-76.5 245,-95.5 304,-95.5 304,-76.5 245,-76.5"/>
<text text-anchor="middle" x="274.5" y="-83.5" font-family="Helvetica,sans-Serif" font-size="10.00">dbgetnull</text>
</a>
</g>
</g>
<!-- Node3&#45;&gt;Node5 -->
<g id="edge5" class="edge"><title>Node3&#45;&gt;Node5</title>
<path fill="none" stroke="midnightblue" d="M179.078,-100.352C195.954,-97.7871 217.073,-94.577 235.056,-91.8435"/>
<polygon fill="midnightblue" stroke="midnightblue" points="235.591,-95.3025 244.951,-90.3394 234.539,-88.382 235.591,-95.3025"/>
</g>
<!-- Node6 -->
<g id="node6" class="node"><title>Node6</title>
<g id="a_node6"><a xlink:href="a00347.html#ga302a4ce6559b81808e3be51615cd1b67" target="_top" xlink:title="Call client&#45;installed error handler. ">
<polygon fill="white" stroke="black" points="370,-76.5 370,-95.5 427,-95.5 427,-76.5 370,-76.5"/>
<text text-anchor="middle" x="398.5" y="-83.5" font-family="Helvetica,sans-Serif" font-size="10.00">dbperror</text>
</a>
</g>
</g>
<!-- Node3&#45;&gt;Node6 -->
<g id="edge9" class="edge"><title>Node3&#45;&gt;Node6</title>
<path fill="none" stroke="midnightblue" d="M160.866,-95.2803C173.601,-85.9393 194.437,-72.4607 215,-67 266.117,-53.4251 281.669,-59.3387 334,-67 343.183,-68.3443 352.882,-70.7273 361.86,-73.3611"/>
<polygon fill="midnightblue" stroke="midnightblue" points="361.037,-76.7705 371.626,-76.3993 363.117,-70.0865 361.037,-76.7705"/>
</g>
<!-- Node7 -->
<g id="node7" class="node"><title>Node7</title>
<g id="a_node7"><a xlink:href="a00353.html#gaa865e08f7ad70ef92b111c2ea3657457" target="_top" xlink:title="tds_convert convert a type to another. ">
<polygon fill="white" stroke="black" points="238.5,-0.5 238.5,-19.5 310.5,-19.5 310.5,-0.5 238.5,-0.5"/>
<text text-anchor="middle" x="274.5" y="-7.5" font-family="Helvetica,sans-Serif" font-size="10.00">tds_convert</text>
</a>
</g>
</g>
<!-- Node3&#45;&gt;Node7 -->
<g id="edge10" class="edge"><title>Node3&#45;&gt;Node7</title>
<path fill="none" stroke="midnightblue" d="M155.251,-95.4969C166.256,-80.6021 189.418,-51.6416 215,-34 220.768,-30.0222 227.297,-26.5359 233.848,-23.5435"/>
<polygon fill="midnightblue" stroke="midnightblue" points="235.53,-26.6323 243.376,-19.5127 232.803,-20.1854 235.53,-26.6323"/>
</g>
<!-- Node5&#45;&gt;Node2 -->
<g id="edge6" class="edge"><title>Node5&#45;&gt;Node2</title>
<path fill="none" stroke="midnightblue" d="M304.454,-93.3351C341.971,-102.839 407.887,-119.538 452.836,-130.925"/>
<polygon fill="midnightblue" stroke="midnightblue" points="452.1,-134.349 462.654,-133.412 453.819,-127.564 452.1,-134.349"/>
</g>
<!-- Node5&#45;&gt;Node6 -->
<g id="edge7" class="edge"><title>Node5&#45;&gt;Node6</title>
<path fill="none" stroke="midnightblue" d="M304.104,-86C320.706,-86 341.819,-86 359.77,-86"/>
<polygon fill="midnightblue" stroke="midnightblue" points="359.915,-89.5001 369.915,-86 359.915,-82.5001 359.915,-89.5001"/>
</g>
<!-- Node6&#45;&gt;Node2 -->
<g id="edge8" class="edge"><title>Node6&#45;&gt;Node2</title>
<path fill="none" stroke="midnightblue" d="M416.633,-95.6693C432.545,-104.649 456.456,-118.143 474.68,-128.429"/>
<polygon fill="midnightblue" stroke="midnightblue" points="473.191,-131.607 483.62,-133.474 476.631,-125.51 473.191,-131.607"/>
</g>
</g>
</svg>
