<?xml version="1.0" encoding="UTF-8" standalone="no"?>
<!DOCTYPE svg PUBLIC "-//W3C//DTD SVG 1.1//EN"
 "http://www.w3.org/Graphics/SVG/1.1/DTD/svg11.dtd">
<!-- Generated by graphviz version 2.38.0 (20140413.2041)
 -->
<!-- Title: tds_process_default_tokens Pages: 1 -->
<svg width="831pt" height="702pt"
 viewBox="0.00 0.00 831.00 702.04" xmlns="http://www.w3.org/2000/svg" xmlns:xlink="http://www.w3.org/1999/xlink">
<g id="graph0" class="graph" transform="scale(1 1) rotate(0) translate(4 698.043)">
<title>tds_process_default_tokens</title>
<polygon fill="white" stroke="none" points="-4,4 -4,-698.043 827,-698.043 827,4 -4,4"/>
<!-- Node1 -->
<g id="node1" class="node"><title>Node1</title>
<polygon fill="#bfbfbf" stroke="black" points="0,-482 0,-512 112,-512 112,-482 0,-482"/>
<text text-anchor="start" x="8" y="-500" font-family="Helvetica,sans-Serif" font-size="10.00">tds_process_default</text>
<text text-anchor="middle" x="56" y="-489" font-family="Helvetica,sans-Serif" font-size="10.00">_tokens</text>
</g>
<!-- Node2 -->
<g id="node2" class="node"><title>Node2</title>
<g id="a_node2"><a xlink:href="a00359.html#ga93945b42d45ee28ae1296b35a1c1e9bb" target="_top" xlink:title="tds_process_login_tokens() is called after sending the login packet to the server. ">
<polygon fill="white" stroke="black" points="579,-658.5 579,-677.5 719,-677.5 719,-658.5 579,-658.5"/>
<text text-anchor="middle" x="649" y="-665.5" font-family="Helvetica,sans-Serif" font-size="10.00">tds_process_login_tokens</text>
</a>
</g>
</g>
<!-- Node1&#45;&gt;Node2 -->
<g id="edge1" class="edge"><title>Node1&#45;&gt;Node2</title>
<path fill="none" stroke="midnightblue" d="M86.3372,-518.027C147.161,-560.173 292.961,-653.787 432,-687 495.16,-702.088 571.276,-688.215 614.21,-677.561"/>
<polygon fill="midnightblue" stroke="midnightblue" points="88.1928,-515.054 77.9908,-512.196 84.1836,-520.792 88.1928,-515.054"/>
</g>
<!-- Node3 -->
<g id="node3" class="node"><title>Node3</title>
<g id="a_node3"><a xlink:href="a00359.html#gabfc9de1d1fe718818caf63a4be4035a6" target="_top" xlink:title="process all streams. ">
<polygon fill="white" stroke="black" points="284,-449.5 284,-468.5 396,-468.5 396,-449.5 284,-449.5"/>
<text text-anchor="middle" x="340" y="-456.5" font-family="Helvetica,sans-Serif" font-size="10.00">tds_process_tokens</text>
</a>
</g>
</g>
<!-- Node1&#45;&gt;Node3 -->
<g id="edge2" class="edge"><title>Node1&#45;&gt;Node3</title>
<path fill="none" stroke="midnightblue" d="M122.227,-482.506C130.869,-480.843 139.63,-479.286 148,-478 193.453,-471.015 245.404,-466.039 283.64,-462.937"/>
<polygon fill="midnightblue" stroke="midnightblue" points="121.3,-479.122 112.17,-484.497 122.659,-485.989 121.3,-479.122"/>
</g>
<!-- Node30 -->
<g id="node30" class="node"><title>Node30</title>
<g id="a_node30"><a xlink:href="a00359.html#ga81cdf0ed9e8d29cf1ddf66e18efc407d" target="_top" xlink:title="tds_process_msg() is called for MSG, ERR, or EED tokens and is responsible for calling the CLI&#39;s mess...">
<polygon fill="white" stroke="black" points="148,-487.5 148,-506.5 248,-506.5 248,-487.5 148,-487.5"/>
<text text-anchor="middle" x="198" y="-494.5" font-family="Helvetica,sans-Serif" font-size="10.00">tds_process_msg</text>
</a>
</g>
</g>
<!-- Node1&#45;&gt;Node30 -->
<g id="edge37" class="edge"><title>Node1&#45;&gt;Node30</title>
<path fill="none" stroke="midnightblue" d="M122.369,-490.263C130.983,-490.214 139.69,-490.302 147.967,-490.527"/>
<polygon fill="midnightblue" stroke="midnightblue" points="122.289,-486.764 112.332,-490.383 122.373,-493.763 122.289,-486.764"/>
</g>
<!-- Node4 -->
<g id="node4" class="node"><title>Node4</title>
<g id="a_node4"><a xlink:href="a00344.html#gae67546338cb9542a4902aa914f57f314" target="_top" xlink:title="_bcp_exec_out">
<polygon fill="white" stroke="black" points="443.5,-506.5 443.5,-525.5 531.5,-525.5 531.5,-506.5 443.5,-506.5"/>
<text text-anchor="middle" x="487.5" y="-513.5" font-family="Helvetica,sans-Serif" font-size="10.00">_bcp_exec_out</text>
</a>
</g>
</g>
<!-- Node3&#45;&gt;Node4 -->
<g id="edge3" class="edge"><title>Node3&#45;&gt;Node4</title>
<path fill="none" stroke="midnightblue" d="M372.585,-472.739C390.006,-480.177 412.084,-489.378 432,-497 440.423,-500.223 449.659,-503.529 458.096,-506.46"/>
<polygon fill="midnightblue" stroke="midnightblue" points="373.487,-469.317 362.917,-468.588 370.725,-475.749 373.487,-469.317"/>
</g>
<!-- Node6 -->
<g id="node6" class="node"><title>Node6</title>
<g id="a_node6"><a xlink:href="a00341.html#gaf1879b85e8238c015b9648d077665285" target="_top" xlink:title="_dbresults">
<polygon fill="white" stroke="black" points="455,-392.5 455,-411.5 520,-411.5 520,-392.5 455,-392.5"/>
<text text-anchor="middle" x="487.5" y="-399.5" font-family="Helvetica,sans-Serif" font-size="10.00">_dbresults</text>
</a>
</g>
</g>
<!-- Node3&#45;&gt;Node6 -->
<g id="edge5" class="edge"><title>Node3&#45;&gt;Node6</title>
<path fill="none" stroke="midnightblue" d="M372.585,-445.261C390.006,-437.823 412.084,-428.622 432,-421 440.423,-417.777 449.659,-414.471 458.096,-411.54"/>
<polygon fill="midnightblue" stroke="midnightblue" points="370.725,-442.251 362.917,-449.412 373.487,-448.683 370.725,-442.251"/>
</g>
<!-- Node9 -->
<g id="node9" class="node"><title>Node9</title>
<g id="a_node9"><a xlink:href="a00341.html#ga548153eb2eae76c48aa9d4b72258dc1c" target="_top" xlink:title="Send text or image data to the server. ">
<polygon fill="white" stroke="black" points="755,-335.5 755,-354.5 823,-354.5 823,-335.5 755,-335.5"/>
<text text-anchor="middle" x="789" y="-342.5" font-family="Helvetica,sans-Serif" font-size="10.00">dbwritetext</text>
</a>
</g>
</g>
<!-- Node3&#45;&gt;Node9 -->
<g id="edge19" class="edge"><title>Node3&#45;&gt;Node9</title>
<path fill="none" stroke="midnightblue" d="M349.438,-440.052C362.622,-413.099 390.925,-364.769 432,-345 540.319,-292.868 689.543,-319.952 754.989,-335.974"/>
<polygon fill="midnightblue" stroke="midnightblue" points="346.21,-438.691 345.13,-449.231 352.547,-441.666 346.21,-438.691"/>
</g>
<!-- Node10 -->
<g id="node10" class="node"><title>Node10</title>
<g id="a_node10"><a xlink:href="a00342.html#gaff09873008411a0573f6d1a9e6c7cf4b" target="_top" xlink:title="Get count of output parameters filled by a stored procedure. ">
<polygon fill="white" stroke="black" points="455,-57.5 455,-76.5 520,-76.5 520,-57.5 455,-57.5"/>
<text text-anchor="middle" x="487.5" y="-64.5" font-family="Helvetica,sans-Serif" font-size="10.00">dbnumrets</text>
</a>
</g>
</g>
<!-- Node3&#45;&gt;Node10 -->
<g id="edge9" class="edge"><title>Node3&#45;&gt;Node10</title>
<path fill="none" stroke="midnightblue" d="M347.484,-439.464C361.954,-396.116 398.267,-288.705 432,-200 449.739,-153.352 473.025,-98.4146 482.364,-76.6118"/>
<polygon fill="midnightblue" stroke="midnightblue" points="344.129,-438.46 344.291,-449.054 350.771,-440.672 344.129,-438.46"/>
</g>
<!-- Node14 -->
<g id="node14" class="node"><title>Node14</title>
<g id="a_node14"><a xlink:href="a00341.html#gae1f50a6a2c31fda57cb481922b06841e" target="_top" xlink:title="Wait for results of a query from the server. ">
<polygon fill="white" stroke="black" points="461,-354.5 461,-373.5 514,-373.5 514,-354.5 461,-354.5"/>
<text text-anchor="middle" x="487.5" y="-361.5" font-family="Helvetica,sans-Serif" font-size="10.00">dbsqlok</text>
</a>
</g>
</g>
<!-- Node3&#45;&gt;Node14 -->
<g id="edge13" class="edge"><title>Node3&#45;&gt;Node14</title>
<path fill="none" stroke="midnightblue" d="M357.288,-442.214C374.504,-425.283 403.116,-399.371 432,-383 440.979,-377.911 451.555,-373.841 460.99,-370.794"/>
<polygon fill="midnightblue" stroke="midnightblue" points="354.808,-439.745 350.22,-449.295 359.762,-444.69 354.808,-439.745"/>
</g>
<!-- Node16 -->
<g id="node16" class="node"><title>Node16</title>
<g id="a_node16"><a xlink:href="a00341.html#ga559e24ba70d0d96c3469eb6ab8f74e05" target="_top" xlink:title="Cancel the query currently being retrieved, discarding all pending rows. ">
<polygon fill="white" stroke="black" points="452,-468.5 452,-487.5 523,-487.5 523,-468.5 452,-468.5"/>
<text text-anchor="middle" x="487.5" y="-475.5" font-family="Helvetica,sans-Serif" font-size="10.00">dbcanquery</text>
</a>
</g>
</g>
<!-- Node3&#45;&gt;Node16 -->
<g id="edge17" class="edge"><title>Node3&#45;&gt;Node16</title>
<path fill="none" stroke="midnightblue" d="M406.202,-467.514C421.865,-469.56 438,-471.667 451.661,-473.451"/>
<polygon fill="midnightblue" stroke="midnightblue" points="406.376,-464.007 396.007,-466.183 405.47,-470.949 406.376,-464.007"/>
</g>
<!-- Node17 -->
<g id="node17" class="node"><title>Node17</title>
<g id="a_node17"><a xlink:href="a00341.html#gadd5685565c8c6c86079e17b8a73b324c" target="_top" xlink:title="Fetch part of a text or image value from the server. ">
<polygon fill="white" stroke="black" points="454,-658.5 454,-677.5 521,-677.5 521,-658.5 454,-658.5"/>
<text text-anchor="middle" x="487.5" y="-665.5" font-family="Helvetica,sans-Serif" font-size="10.00">dbreadtext</text>
</a>
</g>
</g>
<!-- Node3&#45;&gt;Node17 -->
<g id="edge20" class="edge"><title>Node3&#45;&gt;Node17</title>
<path fill="none" stroke="midnightblue" d="M345.141,-478.792C354.161,-517.092 379.154,-601.727 432,-649 438.199,-654.545 446.107,-658.492 453.964,-661.293"/>
<polygon fill="midnightblue" stroke="midnightblue" points="348.523,-477.88 342.925,-468.885 341.692,-479.408 348.523,-477.88"/>
</g>
<!-- Node18 -->
<g id="node18" class="node"><title>Node18</title>
<g id="a_node18"><a xlink:href="a00341.html#gac980139b9cea03cf93e373d425991481" target="_top" xlink:title="Transmit the command buffer to the server. ">
<polygon fill="white" stroke="black" points="455,-430.5 455,-449.5 520,-449.5 520,-430.5 455,-430.5"/>
<text text-anchor="middle" x="487.5" y="-437.5" font-family="Helvetica,sans-Serif" font-size="10.00">dbsqlsend</text>
</a>
</g>
</g>
<!-- Node3&#45;&gt;Node18 -->
<g id="edge21" class="edge"><title>Node3&#45;&gt;Node18</title>
<path fill="none" stroke="midnightblue" d="M406.348,-450.467C423.118,-448.277 440.418,-446.018 454.634,-444.161"/>
<polygon fill="midnightblue" stroke="midnightblue" points="405.47,-447.051 396.007,-451.817 406.376,-453.993 405.47,-447.051"/>
</g>
<!-- Node19 -->
<g id="node19" class="node"><title>Node19</title>
<g id="a_node19"><a xlink:href="a00356.html#gaf0da49585d39e99780a004ee2ca23479" target="_top" xlink:title="Send option commands to server. ">
<polygon fill="white" stroke="black" points="588.5,-278.5 588.5,-297.5 709.5,-297.5 709.5,-278.5 588.5,-278.5"/>
<text text-anchor="middle" x="649" y="-285.5" font-family="Helvetica,sans-Serif" font-size="10.00">tds_submit_optioncmd</text>
</a>
</g>
</g>
<!-- Node3&#45;&gt;Node19 -->
<g id="edge23" class="edge"><title>Node3&#45;&gt;Node19</title>
<path fill="none" stroke="midnightblue" d="M346.793,-439.658C357.646,-407.135 384.356,-342.108 432,-312 478.568,-282.572 542.275,-278.904 588.425,-281.185"/>
<polygon fill="midnightblue" stroke="midnightblue" points="343.408,-438.753 343.713,-449.343 350.079,-440.874 343.408,-438.753"/>
</g>
<!-- Node20 -->
<g id="node20" class="node"><title>Node20</title>
<g id="a_node20"><a xlink:href="a00193.html#ac6610c72bd31bad5378f760fa9b12d66" target="_top" xlink:title="Initialize BCP information. ">
<polygon fill="white" stroke="black" points="451,-582.5 451,-601.5 524,-601.5 524,-582.5 451,-582.5"/>
<text text-anchor="middle" x="487.5" y="-589.5" font-family="Helvetica,sans-Serif" font-size="10.00">tds_bcp_init</text>
</a>
</g>
</g>
<!-- Node3&#45;&gt;Node20 -->
<g id="edge24" class="edge"><title>Node3&#45;&gt;Node20</title>
<path fill="none" stroke="midnightblue" d="M351.309,-477.653C366.069,-502.733 395.513,-547.156 432,-573 437.642,-576.996 444.202,-580.219 450.775,-582.794"/>
<polygon fill="midnightblue" stroke="midnightblue" points="354.232,-475.714 346.225,-468.776 348.158,-479.193 354.232,-475.714"/>
</g>
<!-- Node22 -->
<g id="node22" class="node"><title>Node22</title>
<g id="a_node22"><a xlink:href="a00359.html#ga55f27c3e05d42c9b07ace1c74b11c5ab" target="_top" xlink:title="Retrieve and set @spid. ">
<polygon fill="white" stroke="black" points="449,-620.5 449,-639.5 526,-639.5 526,-620.5 449,-620.5"/>
<text text-anchor="middle" x="487.5" y="-627.5" font-family="Helvetica,sans-Serif" font-size="10.00">tds_set_spid</text>
</a>
</g>
</g>
<!-- Node3&#45;&gt;Node22 -->
<g id="edge26" class="edge"><title>Node3&#45;&gt;Node22</title>
<path fill="none" stroke="midnightblue" d="M347.573,-478.324C359.44,-510.404 387.431,-574.708 432,-611 436.973,-615.049 442.866,-618.262 448.907,-620.802"/>
<polygon fill="midnightblue" stroke="midnightblue" points="350.821,-477.011 344.166,-468.767 344.227,-479.362 350.821,-477.011"/>
</g>
<!-- Node23 -->
<g id="node23" class="node"><title>Node23</title>
<g id="a_node23"><a xlink:href="a00359.html#gaeeb1562044786ea17bea361ed83e6946" target="_top" xlink:title="Process results for simple query as &quot;SET TEXTSIZE&quot; or &quot;USE dbname&quot; If the statement returns results...">
<polygon fill="white" stroke="black" points="432.5,-210 432.5,-240 542.5,-240 542.5,-210 432.5,-210"/>
<text text-anchor="start" x="440.5" y="-228" font-family="Helvetica,sans-Serif" font-size="10.00">tds_process_simple</text>
<text text-anchor="middle" x="487.5" y="-217" font-family="Helvetica,sans-Serif" font-size="10.00">_query</text>
</a>
</g>
</g>
<!-- Node3&#45;&gt;Node23 -->
<g id="edge28" class="edge"><title>Node3&#45;&gt;Node23</title>
<path fill="none" stroke="midnightblue" d="M347.598,-439.941C360.325,-404.839 390.698,-328.577 432,-274 441.674,-261.216 455.028,-249.146 466.096,-240.184"/>
<polygon fill="midnightblue" stroke="midnightblue" points="344.272,-438.848 344.222,-449.443 350.868,-441.192 344.272,-438.848"/>
</g>
<!-- Node28 -->
<g id="node28" class="node"><title>Node28</title>
<g id="a_node28"><a xlink:href="a00359.html#gaf233e79967f82f4e0dd4d11524917a34" target="_top" xlink:title="tds_process_cancel">
<polygon fill="white" stroke="black" points="432,-544.5 432,-563.5 543,-563.5 543,-544.5 432,-544.5"/>
<text text-anchor="middle" x="487.5" y="-551.5" font-family="Helvetica,sans-Serif" font-size="10.00">tds_process_cancel</text>
</a>
</g>
</g>
<!-- Node3&#45;&gt;Node28 -->
<g id="edge35" class="edge"><title>Node3&#45;&gt;Node28</title>
<path fill="none" stroke="midnightblue" d="M357.288,-475.786C374.504,-492.717 403.116,-518.629 432,-535 438.538,-538.706 445.923,-541.871 453.097,-544.494"/>
<polygon fill="midnightblue" stroke="midnightblue" points="359.762,-473.31 350.22,-468.705 354.808,-478.255 359.762,-473.31"/>
</g>
<!-- Node5 -->
<g id="node5" class="node"><title>Node5</title>
<g id="a_node5"><a xlink:href="a00343.html#ga7a184158b27a50f713e9cfae3b746209" target="_top" xlink:title="Write a datafile to a table. ">
<polygon fill="white" stroke="black" points="618,-506.5 618,-525.5 680,-525.5 680,-506.5 618,-506.5"/>
<text text-anchor="middle" x="649" y="-513.5" font-family="Helvetica,sans-Serif" font-size="10.00">bcp_exec</text>
</a>
</g>
</g>
<!-- Node4&#45;&gt;Node5 -->
<g id="edge4" class="edge"><title>Node4&#45;&gt;Node5</title>
<path fill="none" stroke="midnightblue" d="M541.874,-516C567.205,-516 596.536,-516 617.935,-516"/>
<polygon fill="midnightblue" stroke="midnightblue" points="541.663,-512.5 531.663,-516 541.663,-519.5 541.663,-512.5"/>
</g>
<!-- Node7 -->
<g id="node7" class="node"><title>Node7</title>
<g id="a_node7"><a xlink:href="a00341.html#ga4e26d949be2c3bf71b1a33c75b11d931" target="_top" xlink:title="Set up query results. ">
<polygon fill="white" stroke="black" points="619.5,-392.5 619.5,-411.5 678.5,-411.5 678.5,-392.5 619.5,-392.5"/>
<text text-anchor="middle" x="649" y="-399.5" font-family="Helvetica,sans-Serif" font-size="10.00">dbresults</text>
</a>
</g>
</g>
<!-- Node6&#45;&gt;Node7 -->
<g id="edge6" class="edge"><title>Node6&#45;&gt;Node7</title>
<path fill="none" stroke="midnightblue" d="M530.337,-402C558.428,-402 594.698,-402 619.498,-402"/>
<polygon fill="midnightblue" stroke="midnightblue" points="530.012,-398.5 520.012,-402 530.012,-405.5 530.012,-398.5"/>
</g>
<!-- Node8 -->
<g id="node8" class="node"><title>Node8</title>
<g id="a_node8"><a xlink:href="a00341.html#ga66ea891910f0a357cc78107d6ab7d962" target="_top" xlink:title="Change current database. ">
<polygon fill="white" stroke="black" points="767,-430.5 767,-449.5 811,-449.5 811,-430.5 767,-430.5"/>
<text text-anchor="middle" x="789" y="-437.5" font-family="Helvetica,sans-Serif" font-size="10.00">dbuse</text>
</a>
</g>
</g>
<!-- Node7&#45;&gt;Node8 -->
<g id="edge7" class="edge"><title>Node7&#45;&gt;Node8</title>
<path fill="none" stroke="midnightblue" d="M688.26,-412.535C713.562,-419.503 745.795,-428.378 766.66,-434.124"/>
<polygon fill="midnightblue" stroke="midnightblue" points="689.164,-409.154 678.594,-409.874 687.306,-415.903 689.164,-409.154"/>
</g>
<!-- Node7&#45;&gt;Node9 -->
<g id="edge8" class="edge"><title>Node7&#45;&gt;Node9</title>
<path fill="none" stroke="midnightblue" d="M688.517,-389.453C698.525,-385.961 709.236,-382.018 719,-378 736.437,-370.824 755.759,-361.455 769.511,-354.535"/>
<polygon fill="midnightblue" stroke="midnightblue" points="687.129,-386.228 678.803,-392.78 689.397,-392.851 687.129,-386.228"/>
</g>
<!-- Node11 -->
<g id="node11" class="node"><title>Node11</title>
<g id="a_node11"><a xlink:href="a00342.html#ga0311328d63bae5d9bd5aea5ea4914223" target="_top" xlink:title="Get name of an output parameter filled by a stored procedure. ">
<polygon fill="white" stroke="black" points="615.5,-38.5 615.5,-57.5 682.5,-57.5 682.5,-38.5 615.5,-38.5"/>
<text text-anchor="middle" x="649" y="-45.5" font-family="Helvetica,sans-Serif" font-size="10.00">dbretname</text>
</a>
</g>
</g>
<!-- Node10&#45;&gt;Node11 -->
<g id="edge10" class="edge"><title>Node10&#45;&gt;Node11</title>
<path fill="none" stroke="midnightblue" d="M530.184,-62.0345C556.808,-58.863 590.827,-54.8106 615.458,-51.8764"/>
<polygon fill="midnightblue" stroke="midnightblue" points="529.528,-58.5878 520.012,-63.2462 530.356,-65.5387 529.528,-58.5878"/>
</g>
<!-- Node12 -->
<g id="node12" class="node"><title>Node12</title>
<g id="a_node12"><a xlink:href="a00342.html#ga42e187003b74fec6e9ca92d410bfb9c0" target="_top" xlink:title="Get value of an output parameter filled by a stored procedure. ">
<polygon fill="white" stroke="black" points="618,-0.5 618,-19.5 680,-19.5 680,-0.5 618,-0.5"/>
<text text-anchor="middle" x="649" y="-7.5" font-family="Helvetica,sans-Serif" font-size="10.00">dbretdata</text>
</a>
</g>
</g>
<!-- Node10&#45;&gt;Node12 -->
<g id="edge11" class="edge"><title>Node10&#45;&gt;Node12</title>
<path fill="none" stroke="midnightblue" d="M518.188,-53.3945C535.674,-45.6695 558.347,-36.1463 579,-29 591.564,-24.6527 605.679,-20.6202 617.854,-17.3989"/>
<polygon fill="midnightblue" stroke="midnightblue" points="516.756,-50.2006 509.053,-57.4746 519.611,-56.592 516.756,-50.2006"/>
</g>
<!-- Node13 -->
<g id="node13" class="node"><title>Node13</title>
<g id="a_node13"><a xlink:href="a00342.html#gab705bf94be535e9d8fc4edc0f48c98b0" target="_top" xlink:title="Get size of an output parameter filled by a stored procedure. ">
<polygon fill="white" stroke="black" points="621.5,-76.5 621.5,-95.5 676.5,-95.5 676.5,-76.5 621.5,-76.5"/>
<text text-anchor="middle" x="649" y="-83.5" font-family="Helvetica,sans-Serif" font-size="10.00">dbretlen</text>
</a>
</g>
</g>
<!-- Node10&#45;&gt;Node13 -->
<g id="edge12" class="edge"><title>Node10&#45;&gt;Node13</title>
<path fill="none" stroke="midnightblue" d="M530.194,-71.9666C558.999,-75.398 596.457,-79.86 621.317,-82.8215"/>
<polygon fill="midnightblue" stroke="midnightblue" points="530.356,-68.4613 520.012,-70.7538 529.528,-75.4122 530.356,-68.4613"/>
</g>
<!-- Node14&#45;&gt;Node9 -->
<g id="edge16" class="edge"><title>Node14&#45;&gt;Node9</title>
<path fill="none" stroke="midnightblue" d="M524.275,-361.73C582.803,-358.018 698.171,-350.699 754.907,-347.099"/>
<polygon fill="midnightblue" stroke="midnightblue" points="523.794,-358.254 514.035,-362.38 524.237,-365.24 523.794,-358.254"/>
</g>
<!-- Node15 -->
<g id="node15" class="node"><title>Node15</title>
<g id="a_node15"><a xlink:href="a00341.html#gaae889abeb145ec41f7361aa8f597fe46" target="_top" xlink:title="send the SQL command to the server and wait for an answer. ">
<polygon fill="white" stroke="black" points="617,-430.5 617,-449.5 681,-449.5 681,-430.5 617,-430.5"/>
<text text-anchor="middle" x="649" y="-437.5" font-family="Helvetica,sans-Serif" font-size="10.00">dbsqlexec</text>
</a>
</g>
</g>
<!-- Node14&#45;&gt;Node15 -->
<g id="edge14" class="edge"><title>Node14&#45;&gt;Node15</title>
<path fill="none" stroke="midnightblue" d="M523.711,-373.498C530.39,-376.057 537.12,-379.199 543,-383 562.537,-395.631 559.053,-409.028 579,-421 590.399,-427.842 604.324,-432.283 616.671,-435.136"/>
<polygon fill="midnightblue" stroke="midnightblue" points="524.663,-370.124 514.069,-370.157 522.372,-376.738 524.663,-370.124"/>
</g>
<!-- Node15&#45;&gt;Node8 -->
<g id="edge15" class="edge"><title>Node15&#45;&gt;Node8</title>
<path fill="none" stroke="midnightblue" d="M691.535,-440C716.297,-440 746.699,-440 766.674,-440"/>
<polygon fill="midnightblue" stroke="midnightblue" points="691.314,-436.5 681.314,-440 691.314,-443.5 691.314,-436.5"/>
</g>
<!-- Node16&#45;&gt;Node8 -->
<g id="edge18" class="edge"><title>Node16&#45;&gt;Node8</title>
<path fill="none" stroke="midnightblue" d="M533.206,-476.781C579.878,-474.935 655.044,-470.339 719,-459 735.272,-456.115 753.26,-451.099 766.789,-446.946"/>
<polygon fill="midnightblue" stroke="midnightblue" points="532.986,-473.287 523.123,-477.155 533.246,-480.282 532.986,-473.287"/>
</g>
<!-- Node18&#45;&gt;Node15 -->
<g id="edge22" class="edge"><title>Node18&#45;&gt;Node15</title>
<path fill="none" stroke="midnightblue" d="M530.359,-440C557.453,-440 592.15,-440 616.825,-440"/>
<polygon fill="midnightblue" stroke="midnightblue" points="530.012,-436.5 520.012,-440 530.012,-443.5 530.012,-436.5"/>
</g>
<!-- Node21 -->
<g id="node21" class="node"><title>Node21</title>
<g id="a_node21"><a xlink:href="a00343.html#gada8e987c4a6225b9276c05ba3a4f47a0" target="_top" xlink:title="Prepare for bulk copy operation on a table. ">
<polygon fill="white" stroke="black" points="622.5,-582.5 622.5,-601.5 675.5,-601.5 675.5,-582.5 622.5,-582.5"/>
<text text-anchor="middle" x="649" y="-589.5" font-family="Helvetica,sans-Serif" font-size="10.00">bcp_init</text>
</a>
</g>
</g>
<!-- Node20&#45;&gt;Node21 -->
<g id="edge25" class="edge"><title>Node20&#45;&gt;Node21</title>
<path fill="none" stroke="midnightblue" d="M534.45,-592C562.98,-592 598.592,-592 622.249,-592"/>
<polygon fill="midnightblue" stroke="midnightblue" points="534.295,-588.5 524.295,-592 534.295,-595.5 534.295,-588.5"/>
</g>
<!-- Node22&#45;&gt;Node2 -->
<g id="edge27" class="edge"><title>Node22&#45;&gt;Node2</title>
<path fill="none" stroke="midnightblue" d="M536.151,-641.353C559.039,-646.806 586.161,-653.267 607.965,-658.462"/>
<polygon fill="midnightblue" stroke="midnightblue" points="536.838,-637.918 526.299,-639.005 535.216,-644.728 536.838,-637.918"/>
</g>
<!-- Node23&#45;&gt;Node19 -->
<g id="edge29" class="edge"><title>Node23&#45;&gt;Node19</title>
<path fill="none" stroke="midnightblue" d="M525.17,-244.732C541.368,-252.947 560.826,-262.146 579,-269 588.417,-272.551 598.782,-275.757 608.554,-278.481"/>
<polygon fill="midnightblue" stroke="midnightblue" points="526.536,-241.499 516.043,-240.034 523.332,-247.722 526.536,-241.499"/>
</g>
<!-- Node24 -->
<g id="node24" class="node"><title>Node24</title>
<g id="a_node24"><a xlink:href="a00193.html#ade7df2db455b61edc83819ad60edb339" target="_top" xlink:title="Tell we finished sending BCP data to server. ">
<polygon fill="white" stroke="red" points="607.5,-152.5 607.5,-171.5 690.5,-171.5 690.5,-152.5 607.5,-152.5"/>
<text text-anchor="middle" x="649" y="-159.5" font-family="Helvetica,sans-Serif" font-size="10.00">tds_bcp_done</text>
</a>
</g>
</g>
<!-- Node23&#45;&gt;Node24 -->
<g id="edge30" class="edge"><title>Node23&#45;&gt;Node24</title>
<path fill="none" stroke="midnightblue" d="M525.17,-205.268C541.368,-197.053 560.826,-187.854 579,-181 588.417,-177.449 598.782,-174.243 608.554,-171.519"/>
<polygon fill="midnightblue" stroke="midnightblue" points="523.332,-202.278 516.043,-209.966 526.536,-208.501 523.332,-202.278"/>
</g>
<!-- Node25 -->
<g id="node25" class="node"><title>Node25</title>
<g id="a_node25"><a xlink:href="a00193.html#a8208eef2a3974ae1f0cf3c8c8ab011ce" target="_top" xlink:title="Start sending BCP data to server. ">
<polygon fill="white" stroke="red" points="609,-114.5 609,-133.5 689,-133.5 689,-114.5 609,-114.5"/>
<text text-anchor="middle" x="649" y="-121.5" font-family="Helvetica,sans-Serif" font-size="10.00">tds_bcp_start</text>
</a>
</g>
</g>
<!-- Node23&#45;&gt;Node25 -->
<g id="edge31" class="edge"><title>Node23&#45;&gt;Node25</title>
<path fill="none" stroke="midnightblue" d="M507.693,-202.528C524.672,-184.006 551.034,-158.366 579,-143 588.147,-137.974 598.72,-134.201 608.799,-131.399"/>
<polygon fill="midnightblue" stroke="midnightblue" points="505.082,-200.198 501.014,-209.98 510.295,-204.87 505.082,-200.198"/>
</g>
<!-- Node26 -->
<g id="node26" class="node"><title>Node26</title>
<g id="a_node26"><a xlink:href="a00193.html#a7711612cc544a7da2c7aa212b870acb2" target="_top" xlink:title="Start writing writetext request. ">
<polygon fill="white" stroke="black" points="597,-240.5 597,-259.5 701,-259.5 701,-240.5 597,-240.5"/>
<text text-anchor="middle" x="649" y="-247.5" font-family="Helvetica,sans-Serif" font-size="10.00">tds_writetext_start</text>
</a>
</g>
</g>
<!-- Node23&#45;&gt;Node26 -->
<g id="edge32" class="edge"><title>Node23&#45;&gt;Node26</title>
<path fill="none" stroke="midnightblue" d="M552.906,-235.095C567.496,-237.382 582.798,-239.78 596.757,-241.968"/>
<polygon fill="midnightblue" stroke="midnightblue" points="553.366,-231.624 542.945,-233.534 552.282,-238.54 553.366,-231.624"/>
</g>
<!-- Node27 -->
<g id="node27" class="node"><title>Node27</title>
<g id="a_node27"><a xlink:href="a00359.html#ga69902dffb299d62a799888e0fa3ccd68" target="_top" xlink:title="Attempt to close all deferred closes (dynamics and cursors). ">
<polygon fill="white" stroke="red" points="589.5,-191 589.5,-221 708.5,-221 708.5,-191 589.5,-191"/>
<text text-anchor="start" x="597.5" y="-209" font-family="Helvetica,sans-Serif" font-size="10.00">tds_process_pending</text>
<text text-anchor="middle" x="649" y="-198" font-family="Helvetica,sans-Serif" font-size="10.00">_closes</text>
</a>
</g>
</g>
<!-- Node23&#45;&gt;Node27 -->
<g id="edge34" class="edge"><title>Node23&#45;&gt;Node27</title>
<path fill="none" stroke="midnightblue" d="M552.941,-217.324C565.008,-215.886 577.561,-214.391 589.438,-212.976"/>
<polygon fill="midnightblue" stroke="midnightblue" points="552.461,-213.856 542.945,-218.514 553.289,-220.807 552.461,-213.856"/>
</g>
<!-- Node26&#45;&gt;Node9 -->
<g id="edge33" class="edge"><title>Node26&#45;&gt;Node9</title>
<path fill="none" stroke="midnightblue" d="M708.162,-263.36C711.934,-265.028 715.585,-266.901 719,-269 747.542,-286.545 771.375,-319.308 782.023,-335.476"/>
<polygon fill="midnightblue" stroke="midnightblue" points="709.187,-260.003 698.6,-259.617 706.636,-266.521 709.187,-260.003"/>
</g>
<!-- Node29 -->
<g id="node29" class="node"><title>Node29</title>
<g id="a_node29"><a xlink:href="a00341.html#ga5ea23272124fff03b8d87538c1ec3ee5" target="_top" xlink:title="Cancel the current command batch. ">
<polygon fill="white" stroke="black" points="619.5,-544.5 619.5,-563.5 678.5,-563.5 678.5,-544.5 619.5,-544.5"/>
<text text-anchor="middle" x="649" y="-551.5" font-family="Helvetica,sans-Serif" font-size="10.00">dbcancel</text>
</a>
</g>
</g>
<!-- Node28&#45;&gt;Node29 -->
<g id="edge36" class="edge"><title>Node28&#45;&gt;Node29</title>
<path fill="none" stroke="midnightblue" d="M553.451,-554C576.421,-554 601.089,-554 619.467,-554"/>
<polygon fill="midnightblue" stroke="midnightblue" points="553.391,-550.5 543.391,-554 553.391,-557.5 553.391,-550.5"/>
</g>
<!-- Node30&#45;&gt;Node1 -->
<g id="edge38" class="edge"><title>Node30&#45;&gt;Node1</title>
<path fill="none" stroke="midnightblue" d="M137.806,-503.678C129.36,-503.791 120.7,-503.771 112.332,-503.617"/>
<polygon fill="midnightblue" stroke="midnightblue" points="138.04,-507.174 147.967,-503.473 137.899,-500.176 138.04,-507.174"/>
</g>
<!-- Node30&#45;&gt;Node3 -->
<g id="edge39" class="edge"><title>Node30&#45;&gt;Node3</title>
<path fill="none" stroke="midnightblue" d="M244.118,-484.754C263.415,-479.516 285.612,-473.491 303.683,-468.586"/>
<polygon fill="midnightblue" stroke="midnightblue" points="243.062,-481.414 234.328,-487.411 244.896,-488.169 243.062,-481.414"/>
</g>
</g>
</svg>
