<?xml version="1.0" encoding="UTF-8" standalone="no"?>
<!DOCTYPE svg PUBLIC "-//W3C//DTD SVG 1.1//EN"
 "http://www.w3.org/Graphics/SVG/1.1/DTD/svg11.dtd">
<!-- Generated by graphviz version 2.38.0 (20140413.2041)
 -->
<!-- Title: tds_datecrack Pages: 1 -->
<svg width="450pt" height="142pt"
 viewBox="0.00 0.00 450.00 142.00" xmlns="http://www.w3.org/2000/svg" xmlns:xlink="http://www.w3.org/1999/xlink">
<g id="graph0" class="graph" transform="scale(1 1) rotate(0) translate(4 138)">
<title>tds_datecrack</title>
<polygon fill="white" stroke="none" points="-4,4 -4,-138 446,-138 446,4 -4,4"/>
<!-- Node1 -->
<g id="node1" class="node"><title>Node1</title>
<polygon fill="#bfbfbf" stroke="black" points="0,-57.5 0,-76.5 83,-76.5 83,-57.5 0,-57.5"/>
<text text-anchor="middle" x="41.5" y="-64.5" font-family="Helvetica,sans-Serif" font-size="10.00">tds_datecrack</text>
</g>
<!-- Node2 -->
<g id="node2" class="node"><title>Node2</title>
<g id="a_node2"><a xlink:href="a00233.html#a230fa5b56ae4e3509a69bd266495732b" target="_top" xlink:title="Convert column for output (usually to a file) Conversion is slightly different from input as: ...">
<polygon fill="white" stroke="black" points="119,-114.5 119,-133.5 220,-133.5 220,-114.5 119,-114.5"/>
<text text-anchor="middle" x="169.5" y="-121.5" font-family="Helvetica,sans-Serif" font-size="10.00">_bcp_convert_out</text>
</a>
</g>
</g>
<!-- Node1&#45;&gt;Node2 -->
<g id="edge1" class="edge"><title>Node1&#45;&gt;Node2</title>
<path fill="none" stroke="midnightblue" d="M69.45,-81.1659C83.9725,-88.6007 102.293,-97.6635 119,-105 126.501,-108.294 134.77,-111.594 142.365,-114.498"/>
<polygon fill="midnightblue" stroke="midnightblue" points="71.0013,-78.0279 60.51,-76.5498 67.7897,-84.2477 71.0013,-78.0279"/>
</g>
<!-- Node5 -->
<g id="node5" class="node"><title>Node5</title>
<g id="a_node5"><a xlink:href="a00341.html#gaf641c8e3d34607ca8b7ac2afed3e6d67" target="_top" xlink:title="Print a regular result row to a buffer. ">
<polygon fill="white" stroke="black" points="136.5,-76.5 136.5,-95.5 202.5,-95.5 202.5,-76.5 136.5,-76.5"/>
<text text-anchor="middle" x="169.5" y="-83.5" font-family="Helvetica,sans-Serif" font-size="10.00">dbspr1row</text>
</a>
</g>
</g>
<!-- Node1&#45;&gt;Node5 -->
<g id="edge4" class="edge"><title>Node1&#45;&gt;Node5</title>
<path fill="none" stroke="midnightblue" d="M93.0046,-74.6158C107.644,-76.8232 123.22,-79.1721 136.399,-81.1594"/>
<polygon fill="midnightblue" stroke="midnightblue" points="93.4709,-71.1466 83.0608,-73.1163 92.4271,-78.0683 93.4709,-71.1466"/>
</g>
<!-- Node6 -->
<g id="node6" class="node"><title>Node6</title>
<g id="a_node6"><a xlink:href="a00341.html#gaa30be3414a97aac6139af2e928db91ca" target="_top" xlink:title="Print a result set to stdout. ">
<polygon fill="white" stroke="black" points="142,-38.5 142,-57.5 197,-57.5 197,-38.5 142,-38.5"/>
<text text-anchor="middle" x="169.5" y="-45.5" font-family="Helvetica,sans-Serif" font-size="10.00">dbprrow</text>
</a>
</g>
</g>
<!-- Node1&#45;&gt;Node6 -->
<g id="edge5" class="edge"><title>Node1&#45;&gt;Node6</title>
<path fill="none" stroke="midnightblue" d="M93.244,-59.3481C109.917,-56.834 127.781,-54.1402 141.918,-52.0084"/>
<polygon fill="midnightblue" stroke="midnightblue" points="92.4271,-55.9317 83.0608,-60.8837 93.4709,-62.8534 92.4271,-55.9317"/>
</g>
<!-- Node7 -->
<g id="node7" class="node"><title>Node7</title>
<g id="a_node7"><a xlink:href="a00341.html#ga3cfb1c1c8c50a09a9ac4d75800547f7a" target="_top" xlink:title="Break a DBDATETIME value into useful pieces. ">
<polygon fill="white" stroke="black" points="132.5,-0.5 132.5,-19.5 206.5,-19.5 206.5,-0.5 132.5,-0.5"/>
<text text-anchor="middle" x="169.5" y="-7.5" font-family="Helvetica,sans-Serif" font-size="10.00">dbdatecrack</text>
</a>
</g>
</g>
<!-- Node1&#45;&gt;Node7 -->
<g id="edge6" class="edge"><title>Node1&#45;&gt;Node7</title>
<path fill="none" stroke="midnightblue" d="M69.45,-52.8341C83.9725,-45.3993 102.293,-36.3365 119,-29 126.501,-25.7061 134.77,-22.4061 142.365,-19.5023"/>
<polygon fill="midnightblue" stroke="midnightblue" points="67.7897,-49.7523 60.51,-57.4502 71.0013,-55.9721 67.7897,-49.7523"/>
</g>
<!-- Node3 -->
<g id="node3" class="node"><title>Node3</title>
<g id="a_node3"><a xlink:href="a00344.html#gae67546338cb9542a4902aa914f57f314" target="_top" xlink:title="_bcp_exec_out">
<polygon fill="white" stroke="black" points="256,-114.5 256,-133.5 344,-133.5 344,-114.5 256,-114.5"/>
<text text-anchor="middle" x="300" y="-121.5" font-family="Helvetica,sans-Serif" font-size="10.00">_bcp_exec_out</text>
</a>
</g>
</g>
<!-- Node2&#45;&gt;Node3 -->
<g id="edge2" class="edge"><title>Node2&#45;&gt;Node3</title>
<path fill="none" stroke="midnightblue" d="M230.198,-124C238.806,-124 247.522,-124 255.727,-124"/>
<polygon fill="midnightblue" stroke="midnightblue" points="230.181,-120.5 220.181,-124 230.181,-127.5 230.181,-120.5"/>
</g>
<!-- Node4 -->
<g id="node4" class="node"><title>Node4</title>
<g id="a_node4"><a xlink:href="a00343.html#ga7a184158b27a50f713e9cfae3b746209" target="_top" xlink:title="Write a datafile to a table. ">
<polygon fill="white" stroke="black" points="380,-114.5 380,-133.5 442,-133.5 442,-114.5 380,-114.5"/>
<text text-anchor="middle" x="411" y="-121.5" font-family="Helvetica,sans-Serif" font-size="10.00">bcp_exec</text>
</a>
</g>
</g>
<!-- Node3&#45;&gt;Node4 -->
<g id="edge3" class="edge"><title>Node3&#45;&gt;Node4</title>
<path fill="none" stroke="midnightblue" d="M354.351,-124C363.163,-124 372.015,-124 379.985,-124"/>
<polygon fill="midnightblue" stroke="midnightblue" points="354.08,-120.5 344.08,-124 354.08,-127.5 354.08,-120.5"/>
</g>
</g>
</svg>
