<?xml version="1.0" encoding="UTF-8" standalone="no"?>
<!DOCTYPE svg PUBLIC "-//W3C//DTD SVG 1.1//EN"
 "http://www.w3.org/Graphics/SVG/1.1/DTD/svg11.dtd">
<!-- Generated by graphviz version 2.38.0 (20140413.2041)
 -->
<!-- Title: tds_process_tokens Pages: 1 -->
<svg width="824pt" height="683pt"
 viewBox="0.00 0.00 824.00 682.82" xmlns="http://www.w3.org/2000/svg" xmlns:xlink="http://www.w3.org/1999/xlink">
<g id="graph0" class="graph" transform="scale(1 1) rotate(0) translate(4 678.821)">
<title>tds_process_tokens</title>
<polygon fill="white" stroke="none" points="-4,4 -4,-678.821 820,-678.821 820,4 -4,4"/>
<!-- Node1 -->
<g id="node1" class="node"><title>Node1</title>
<polygon fill="#bfbfbf" stroke="black" points="0,-285.5 0,-304.5 112,-304.5 112,-285.5 0,-285.5"/>
<text text-anchor="middle" x="56" y="-292.5" font-family="Helvetica,sans-Serif" font-size="10.00">tds_process_tokens</text>
</g>
<!-- Node2 -->
<g id="node2" class="node"><title>Node2</title>
<g id="a_node2"><a xlink:href="a00344.html#gae67546338cb9542a4902aa914f57f314" target="_top" xlink:title="_bcp_exec_out">
<polygon fill="white" stroke="black" points="630,-620.5 630,-639.5 718,-639.5 718,-620.5 630,-620.5"/>
<text text-anchor="middle" x="674" y="-627.5" font-family="Helvetica,sans-Serif" font-size="10.00">_bcp_exec_out</text>
</a>
</g>
</g>
<!-- Node1&#45;&gt;Node2 -->
<g id="edge1" class="edge"><title>Node1&#45;&gt;Node2</title>
<path fill="none" stroke="midnightblue" d="M58.3208,-314.715C62.5912,-363.61 80.0169,-491.979 148,-568 282.296,-718.175 393.936,-672.72 594,-649 609.689,-647.14 626.771,-643.271 641.025,-639.506"/>
<polygon fill="midnightblue" stroke="midnightblue" points="61.7955,-314.253 57.5281,-304.556 54.8167,-314.798 61.7955,-314.253"/>
</g>
<!-- Node4 -->
<g id="node4" class="node"><title>Node4</title>
<g id="a_node4"><a xlink:href="a00341.html#gaf1879b85e8238c015b9648d077665285" target="_top" xlink:title="_dbresults">
<polygon fill="white" stroke="black" points="171,-304.5 171,-323.5 236,-323.5 236,-304.5 171,-304.5"/>
<text text-anchor="middle" x="203.5" y="-311.5" font-family="Helvetica,sans-Serif" font-size="10.00">_dbresults</text>
</a>
</g>
</g>
<!-- Node1&#45;&gt;Node4 -->
<g id="edge3" class="edge"><title>Node1&#45;&gt;Node4</title>
<path fill="none" stroke="midnightblue" d="M122.348,-303.533C139.118,-305.723 156.418,-307.982 170.634,-309.839"/>
<polygon fill="midnightblue" stroke="midnightblue" points="122.376,-300.007 112.007,-302.183 121.47,-306.949 122.376,-300.007"/>
</g>
<!-- Node7 -->
<g id="node7" class="node"><title>Node7</title>
<g id="a_node7"><a xlink:href="a00341.html#ga548153eb2eae76c48aa9d4b72258dc1c" target="_top" xlink:title="Send text or image data to the server. ">
<polygon fill="white" stroke="black" points="498.5,-361.5 498.5,-380.5 566.5,-380.5 566.5,-361.5 498.5,-361.5"/>
<text text-anchor="middle" x="532.5" y="-368.5" font-family="Helvetica,sans-Serif" font-size="10.00">dbwritetext</text>
</a>
</g>
</g>
<!-- Node1&#45;&gt;Node7 -->
<g id="edge17" class="edge"><title>Node1&#45;&gt;Node7</title>
<path fill="none" stroke="midnightblue" d="M71.3639,-312.466C87.7223,-330.891 116.318,-358.897 148,-371 269.904,-417.57 429.943,-392.829 498.265,-378.674"/>
<polygon fill="midnightblue" stroke="midnightblue" points="73.9161,-310.066 64.7419,-304.767 68.6089,-314.631 73.9161,-310.066"/>
</g>
<!-- Node8 -->
<g id="node8" class="node"><title>Node8</title>
<g id="a_node8"><a xlink:href="a00342.html#gaff09873008411a0573f6d1a9e6c7cf4b" target="_top" xlink:title="Get count of output parameters filled by a stored procedure. ">
<polygon fill="white" stroke="black" points="171,-190.5 171,-209.5 236,-209.5 236,-190.5 171,-190.5"/>
<text text-anchor="middle" x="203.5" y="-197.5" font-family="Helvetica,sans-Serif" font-size="10.00">dbnumrets</text>
</a>
</g>
</g>
<!-- Node1&#45;&gt;Node8 -->
<g id="edge7" class="edge"><title>Node1&#45;&gt;Node8</title>
<path fill="none" stroke="midnightblue" d="M73.288,-278.214C90.5041,-261.283 119.116,-235.371 148,-219 155.061,-214.998 163.11,-211.626 170.815,-208.887"/>
<polygon fill="midnightblue" stroke="midnightblue" points="70.8075,-275.745 66.2197,-285.295 75.7617,-280.69 70.8075,-275.745"/>
</g>
<!-- Node12 -->
<g id="node12" class="node"><title>Node12</title>
<g id="a_node12"><a xlink:href="a00341.html#gae1f50a6a2c31fda57cb481922b06841e" target="_top" xlink:title="Wait for results of a query from the server. ">
<polygon fill="white" stroke="black" points="177,-342.5 177,-361.5 230,-361.5 230,-342.5 177,-342.5"/>
<text text-anchor="middle" x="203.5" y="-349.5" font-family="Helvetica,sans-Serif" font-size="10.00">dbsqlok</text>
</a>
</g>
</g>
<!-- Node1&#45;&gt;Node12 -->
<g id="edge11" class="edge"><title>Node1&#45;&gt;Node12</title>
<path fill="none" stroke="midnightblue" d="M88.5847,-308.739C106.006,-316.177 128.084,-325.378 148,-333 157.358,-336.582 167.722,-340.264 176.877,-343.422"/>
<polygon fill="midnightblue" stroke="midnightblue" points="89.4865,-305.317 78.9168,-304.588 86.7247,-311.749 89.4865,-305.317"/>
</g>
<!-- Node14 -->
<g id="node14" class="node"><title>Node14</title>
<g id="a_node14"><a xlink:href="a00341.html#ga559e24ba70d0d96c3469eb6ab8f74e05" target="_top" xlink:title="Cancel the query currently being retrieved, discarding all pending rows. ">
<polygon fill="white" stroke="black" points="168,-228.5 168,-247.5 239,-247.5 239,-228.5 168,-228.5"/>
<text text-anchor="middle" x="203.5" y="-235.5" font-family="Helvetica,sans-Serif" font-size="10.00">dbcanquery</text>
</a>
</g>
</g>
<!-- Node1&#45;&gt;Node14 -->
<g id="edge15" class="edge"><title>Node1&#45;&gt;Node14</title>
<path fill="none" stroke="midnightblue" d="M88.5847,-281.261C106.006,-273.823 128.084,-264.622 148,-257 156.423,-253.777 165.659,-250.471 174.096,-247.54"/>
<polygon fill="midnightblue" stroke="midnightblue" points="86.7247,-278.251 78.9168,-285.412 89.4865,-284.683 86.7247,-278.251"/>
</g>
<!-- Node15 -->
<g id="node15" class="node"><title>Node15</title>
<g id="a_node15"><a xlink:href="a00341.html#gadd5685565c8c6c86079e17b8a73b324c" target="_top" xlink:title="Fetch part of a text or image value from the server. ">
<polygon fill="white" stroke="black" points="170,-152.5 170,-171.5 237,-171.5 237,-152.5 170,-152.5"/>
<text text-anchor="middle" x="203.5" y="-159.5" font-family="Helvetica,sans-Serif" font-size="10.00">dbreadtext</text>
</a>
</g>
</g>
<!-- Node1&#45;&gt;Node15 -->
<g id="edge18" class="edge"><title>Node1&#45;&gt;Node15</title>
<path fill="none" stroke="midnightblue" d="M67.309,-276.347C82.0689,-251.267 111.513,-206.844 148,-181 154.541,-176.367 162.317,-172.774 169.916,-170.023"/>
<polygon fill="midnightblue" stroke="midnightblue" points="64.1579,-274.807 62.2252,-285.224 70.2322,-278.286 64.1579,-274.807"/>
</g>
<!-- Node16 -->
<g id="node16" class="node"><title>Node16</title>
<g id="a_node16"><a xlink:href="a00341.html#gac980139b9cea03cf93e373d425991481" target="_top" xlink:title="Transmit the command buffer to the server. ">
<polygon fill="white" stroke="black" points="171,-266.5 171,-285.5 236,-285.5 236,-266.5 171,-266.5"/>
<text text-anchor="middle" x="203.5" y="-273.5" font-family="Helvetica,sans-Serif" font-size="10.00">dbsqlsend</text>
</a>
</g>
</g>
<!-- Node1&#45;&gt;Node16 -->
<g id="edge19" class="edge"><title>Node1&#45;&gt;Node16</title>
<path fill="none" stroke="midnightblue" d="M122.348,-286.467C139.118,-284.277 156.418,-282.018 170.634,-280.161"/>
<polygon fill="midnightblue" stroke="midnightblue" points="121.47,-283.051 112.007,-287.817 122.376,-289.993 121.47,-283.051"/>
</g>
<!-- Node17 -->
<g id="node17" class="node"><title>Node17</title>
<g id="a_node17"><a xlink:href="a00356.html#gaf0da49585d39e99780a004ee2ca23479" target="_top" xlink:title="Send option commands to server. ">
<polygon fill="white" stroke="black" points="304.5,-418.5 304.5,-437.5 425.5,-437.5 425.5,-418.5 304.5,-418.5"/>
<text text-anchor="middle" x="365" y="-425.5" font-family="Helvetica,sans-Serif" font-size="10.00">tds_submit_optioncmd</text>
</a>
</g>
</g>
<!-- Node1&#45;&gt;Node17 -->
<g id="edge21" class="edge"><title>Node1&#45;&gt;Node17</title>
<path fill="none" stroke="midnightblue" d="M66.5614,-313.644C80.6291,-338.928 109.464,-383.301 148,-404 196.031,-429.799 258.659,-434.12 304.102,-432.99"/>
<polygon fill="midnightblue" stroke="midnightblue" points="69.5654,-311.84 61.7517,-304.685 63.3979,-315.151 69.5654,-311.84"/>
</g>
<!-- Node18 -->
<g id="node18" class="node"><title>Node18</title>
<g id="a_node18"><a xlink:href="a00193.html#ac6610c72bd31bad5378f760fa9b12d66" target="_top" xlink:title="Initialize BCP information. ">
<polygon fill="white" stroke="black" points="167,-109.5 167,-128.5 240,-128.5 240,-109.5 167,-109.5"/>
<text text-anchor="middle" x="203.5" y="-116.5" font-family="Helvetica,sans-Serif" font-size="10.00">tds_bcp_init</text>
</a>
</g>
</g>
<!-- Node1&#45;&gt;Node18 -->
<g id="edge22" class="edge"><title>Node1&#45;&gt;Node18</title>
<path fill="none" stroke="midnightblue" d="M63.8954,-276.057C76.2361,-244.535 104.906,-181.032 148,-143 154.899,-136.911 163.588,-132.156 171.989,-128.542"/>
<polygon fill="midnightblue" stroke="midnightblue" points="60.6113,-274.846 60.3391,-285.437 67.1568,-277.327 60.6113,-274.846"/>
</g>
<!-- Node20 -->
<g id="node20" class="node"><title>Node20</title>
<g id="a_node20"><a xlink:href="a00359.html#ga55f27c3e05d42c9b07ace1c74b11c5ab" target="_top" xlink:title="Retrieve and set @spid. ">
<polygon fill="white" stroke="black" points="165,-62.5 165,-81.5 242,-81.5 242,-62.5 165,-62.5"/>
<text text-anchor="middle" x="203.5" y="-69.5" font-family="Helvetica,sans-Serif" font-size="10.00">tds_set_spid</text>
</a>
</g>
</g>
<!-- Node1&#45;&gt;Node20 -->
<g id="edge24" class="edge"><title>Node1&#45;&gt;Node20</title>
<path fill="none" stroke="midnightblue" d="M61.603,-275.334C71.4298,-237.155 97.7688,-152.176 148,-100 155.599,-92.1068 165.906,-86.0325 175.511,-81.5913"/>
<polygon fill="midnightblue" stroke="midnightblue" points="58.1673,-274.648 59.1685,-285.195 64.9633,-276.326 58.1673,-274.648"/>
</g>
<!-- Node22 -->
<g id="node22" class="node"><title>Node22</title>
<g id="a_node22"><a xlink:href="a00359.html#gaeeb1562044786ea17bea361ed83e6946" target="_top" xlink:title="Process results for simple query as &quot;SET TEXTSIZE&quot; or &quot;USE dbname&quot; If the statement returns results...">
<polygon fill="white" stroke="black" points="148.5,-473 148.5,-503 258.5,-503 258.5,-473 148.5,-473"/>
<text text-anchor="start" x="156.5" y="-491" font-family="Helvetica,sans-Serif" font-size="10.00">tds_process_simple</text>
<text text-anchor="middle" x="203.5" y="-480" font-family="Helvetica,sans-Serif" font-size="10.00">_query</text>
</a>
</g>
</g>
<!-- Node1&#45;&gt;Node22 -->
<g id="edge26" class="edge"><title>Node1&#45;&gt;Node22</title>
<path fill="none" stroke="midnightblue" d="M66.1321,-313.717C80.9024,-342.931 112.037,-400.332 148,-442 157.951,-453.529 170.921,-464.599 181.711,-472.989"/>
<polygon fill="midnightblue" stroke="midnightblue" points="69.1989,-312.024 61.6091,-304.632 62.9325,-315.144 69.1989,-312.024"/>
</g>
<!-- Node32 -->
<g id="node32" class="node"><title>Node32</title>
<g id="a_node32"><a xlink:href="a00359.html#gaf233e79967f82f4e0dd4d11524917a34" target="_top" xlink:title="tds_process_cancel">
<polygon fill="white" stroke="black" points="148,-5.5 148,-24.5 259,-24.5 259,-5.5 148,-5.5"/>
<text text-anchor="middle" x="203.5" y="-12.5" font-family="Helvetica,sans-Serif" font-size="10.00">tds_process_cancel</text>
</a>
</g>
</g>
<!-- Node1&#45;&gt;Node32 -->
<g id="edge43" class="edge"><title>Node1&#45;&gt;Node32</title>
<path fill="none" stroke="midnightblue" d="M60.2949,-275.252C68.4455,-231.307 93.0064,-123.742 148,-53 157.345,-40.9792 171.543,-31.2518 183.104,-24.6487"/>
<polygon fill="midnightblue" stroke="midnightblue" points="56.8279,-274.759 58.5302,-285.216 63.7206,-275.98 56.8279,-274.759"/>
</g>
<!-- Node3 -->
<g id="node3" class="node"><title>Node3</title>
<g id="a_node3"><a xlink:href="a00343.html#ga7a184158b27a50f713e9cfae3b746209" target="_top" xlink:title="Write a datafile to a table. ">
<polygon fill="white" stroke="black" points="754,-563.5 754,-582.5 816,-582.5 816,-563.5 754,-563.5"/>
<text text-anchor="middle" x="785" y="-570.5" font-family="Helvetica,sans-Serif" font-size="10.00">bcp_exec</text>
</a>
</g>
</g>
<!-- Node2&#45;&gt;Node3 -->
<g id="edge2" class="edge"><title>Node2&#45;&gt;Node3</title>
<path fill="none" stroke="midnightblue" d="M702.368,-615.688C722.2,-605.317 748.468,-591.581 765.783,-582.526"/>
<polygon fill="midnightblue" stroke="midnightblue" points="700.73,-612.595 693.49,-620.331 703.974,-618.798 700.73,-612.595"/>
</g>
<!-- Node5 -->
<g id="node5" class="node"><title>Node5</title>
<g id="a_node5"><a xlink:href="a00341.html#ga4e26d949be2c3bf71b1a33c75b11d931" target="_top" xlink:title="Set up query results. ">
<polygon fill="white" stroke="black" points="335.5,-304.5 335.5,-323.5 394.5,-323.5 394.5,-304.5 335.5,-304.5"/>
<text text-anchor="middle" x="365" y="-311.5" font-family="Helvetica,sans-Serif" font-size="10.00">dbresults</text>
</a>
</g>
</g>
<!-- Node4&#45;&gt;Node5 -->
<g id="edge4" class="edge"><title>Node4&#45;&gt;Node5</title>
<path fill="none" stroke="midnightblue" d="M246.337,-314C274.428,-314 310.698,-314 335.498,-314"/>
<polygon fill="midnightblue" stroke="midnightblue" points="246.012,-310.5 236.012,-314 246.012,-317.5 246.012,-310.5"/>
</g>
<!-- Node6 -->
<g id="node6" class="node"><title>Node6</title>
<g id="a_node6"><a xlink:href="a00341.html#ga66ea891910f0a357cc78107d6ab7d962" target="_top" xlink:title="Change current database. ">
<polygon fill="white" stroke="black" points="510.5,-266.5 510.5,-285.5 554.5,-285.5 554.5,-266.5 510.5,-266.5"/>
<text text-anchor="middle" x="532.5" y="-273.5" font-family="Helvetica,sans-Serif" font-size="10.00">dbuse</text>
</a>
</g>
</g>
<!-- Node5&#45;&gt;Node6 -->
<g id="edge5" class="edge"><title>Node5&#45;&gt;Node6</title>
<path fill="none" stroke="midnightblue" d="M404.598,-305.138C437.562,-297.569 483.746,-286.965 510.35,-280.856"/>
<polygon fill="midnightblue" stroke="midnightblue" points="403.791,-301.732 394.828,-307.381 405.358,-308.554 403.791,-301.732"/>
</g>
<!-- Node5&#45;&gt;Node7 -->
<g id="edge6" class="edge"><title>Node5&#45;&gt;Node7</title>
<path fill="none" stroke="midnightblue" d="M403.538,-326.928C433.99,-337.416 476.229,-351.964 503.709,-361.428"/>
<polygon fill="midnightblue" stroke="midnightblue" points="404.296,-323.488 393.701,-323.541 402.016,-330.106 404.296,-323.488"/>
</g>
<!-- Node9 -->
<g id="node9" class="node"><title>Node9</title>
<g id="a_node9"><a xlink:href="a00342.html#ga0311328d63bae5d9bd5aea5ea4914223" target="_top" xlink:title="Get name of an output parameter filled by a stored procedure. ">
<polygon fill="white" stroke="black" points="331.5,-190.5 331.5,-209.5 398.5,-209.5 398.5,-190.5 331.5,-190.5"/>
<text text-anchor="middle" x="365" y="-197.5" font-family="Helvetica,sans-Serif" font-size="10.00">dbretname</text>
</a>
</g>
</g>
<!-- Node8&#45;&gt;Node9 -->
<g id="edge8" class="edge"><title>Node8&#45;&gt;Node9</title>
<path fill="none" stroke="midnightblue" d="M246.184,-200C272.808,-200 306.827,-200 331.458,-200"/>
<polygon fill="midnightblue" stroke="midnightblue" points="246.012,-196.5 236.012,-200 246.012,-203.5 246.012,-196.5"/>
</g>
<!-- Node10 -->
<g id="node10" class="node"><title>Node10</title>
<g id="a_node10"><a xlink:href="a00342.html#ga42e187003b74fec6e9ca92d410bfb9c0" target="_top" xlink:title="Get value of an output parameter filled by a stored procedure. ">
<polygon fill="white" stroke="black" points="334,-152.5 334,-171.5 396,-171.5 396,-152.5 334,-152.5"/>
<text text-anchor="middle" x="365" y="-159.5" font-family="Helvetica,sans-Serif" font-size="10.00">dbretdata</text>
</a>
</g>
</g>
<!-- Node8&#45;&gt;Node10 -->
<g id="edge9" class="edge"><title>Node8&#45;&gt;Node10</title>
<path fill="none" stroke="midnightblue" d="M245.771,-190.167C273.346,-183.598 308.993,-175.105 333.904,-169.17"/>
<polygon fill="midnightblue" stroke="midnightblue" points="244.929,-186.77 236.012,-192.492 246.551,-193.579 244.929,-186.77"/>
</g>
<!-- Node11 -->
<g id="node11" class="node"><title>Node11</title>
<g id="a_node11"><a xlink:href="a00342.html#gab705bf94be535e9d8fc4edc0f48c98b0" target="_top" xlink:title="Get size of an output parameter filled by a stored procedure. ">
<polygon fill="white" stroke="black" points="337.5,-114.5 337.5,-133.5 392.5,-133.5 392.5,-114.5 337.5,-114.5"/>
<text text-anchor="middle" x="365" y="-121.5" font-family="Helvetica,sans-Serif" font-size="10.00">dbretlen</text>
</a>
</g>
</g>
<!-- Node8&#45;&gt;Node11 -->
<g id="edge10" class="edge"><title>Node8&#45;&gt;Node11</title>
<path fill="none" stroke="midnightblue" d="M245.776,-188.012C250.393,-185.977 254.903,-183.649 259,-181 278.537,-168.369 275.053,-154.972 295,-143 307.891,-135.263 324.011,-130.595 337.427,-127.824"/>
<polygon fill="midnightblue" stroke="midnightblue" points="244.255,-184.849 236.244,-191.782 246.83,-191.358 244.255,-184.849"/>
</g>
<!-- Node12&#45;&gt;Node7 -->
<g id="edge14" class="edge"><title>Node12&#45;&gt;Node7</title>
<path fill="none" stroke="midnightblue" d="M240.532,-354.094C304.404,-357.805 436.558,-365.484 498.327,-369.073"/>
<polygon fill="midnightblue" stroke="midnightblue" points="240.345,-350.577 230.159,-353.491 239.939,-357.565 240.345,-350.577"/>
</g>
<!-- Node13 -->
<g id="node13" class="node"><title>Node13</title>
<g id="a_node13"><a xlink:href="a00341.html#gaae889abeb145ec41f7361aa8f597fe46" target="_top" xlink:title="send the SQL command to the server and wait for an answer. ">
<polygon fill="white" stroke="black" points="333,-266.5 333,-285.5 397,-285.5 397,-266.5 333,-266.5"/>
<text text-anchor="middle" x="365" y="-273.5" font-family="Helvetica,sans-Serif" font-size="10.00">dbsqlexec</text>
</a>
</g>
</g>
<!-- Node12&#45;&gt;Node13 -->
<g id="edge12" class="edge"><title>Node12&#45;&gt;Node13</title>
<path fill="none" stroke="midnightblue" d="M239.711,-342.502C246.39,-339.943 253.12,-336.801 259,-333 278.537,-320.369 275.053,-306.972 295,-295 306.399,-288.158 320.324,-283.717 332.671,-280.864"/>
<polygon fill="midnightblue" stroke="midnightblue" points="238.372,-339.262 230.069,-345.843 240.663,-345.876 238.372,-339.262"/>
</g>
<!-- Node13&#45;&gt;Node6 -->
<g id="edge13" class="edge"><title>Node13&#45;&gt;Node6</title>
<path fill="none" stroke="midnightblue" d="M407.328,-276C440.125,-276 484.621,-276 510.479,-276"/>
<polygon fill="midnightblue" stroke="midnightblue" points="407.129,-272.5 397.129,-276 407.129,-279.5 407.129,-272.5"/>
</g>
<!-- Node14&#45;&gt;Node6 -->
<g id="edge16" class="edge"><title>Node14&#45;&gt;Node6</title>
<path fill="none" stroke="midnightblue" d="M249.455,-240.21C296.031,-242.85 370.851,-248.07 435,-257 461.045,-260.626 490.675,-266.765 510.153,-271.082"/>
<polygon fill="midnightblue" stroke="midnightblue" points="249.566,-236.711 239.389,-239.655 249.181,-243.701 249.566,-236.711"/>
</g>
<!-- Node16&#45;&gt;Node13 -->
<g id="edge20" class="edge"><title>Node16&#45;&gt;Node13</title>
<path fill="none" stroke="midnightblue" d="M246.359,-276C273.453,-276 308.15,-276 332.825,-276"/>
<polygon fill="midnightblue" stroke="midnightblue" points="246.012,-272.5 236.012,-276 246.012,-279.5 246.012,-272.5"/>
</g>
<!-- Node19 -->
<g id="node19" class="node"><title>Node19</title>
<g id="a_node19"><a xlink:href="a00343.html#gada8e987c4a6225b9276c05ba3a4f47a0" target="_top" xlink:title="Prepare for bulk copy operation on a table. ">
<polygon fill="white" stroke="black" points="338.5,-76.5 338.5,-95.5 391.5,-95.5 391.5,-76.5 338.5,-76.5"/>
<text text-anchor="middle" x="365" y="-83.5" font-family="Helvetica,sans-Serif" font-size="10.00">bcp_init</text>
</a>
</g>
</g>
<!-- Node18&#45;&gt;Node19 -->
<g id="edge23" class="edge"><title>Node18&#45;&gt;Node19</title>
<path fill="none" stroke="midnightblue" d="M250.45,-109.493C278.98,-103.59 314.592,-96.2223 338.249,-91.3278"/>
<polygon fill="midnightblue" stroke="midnightblue" points="249.378,-106.141 240.295,-111.594 250.797,-112.995 249.378,-106.141"/>
</g>
<!-- Node21 -->
<g id="node21" class="node"><title>Node21</title>
<g id="a_node21"><a xlink:href="a00359.html#ga93945b42d45ee28ae1296b35a1c1e9bb" target="_top" xlink:title="tds_process_login_tokens() is called after sending the login packet to the server. ">
<polygon fill="white" stroke="black" points="295,-38.5 295,-57.5 435,-57.5 435,-38.5 295,-38.5"/>
<text text-anchor="middle" x="365" y="-45.5" font-family="Helvetica,sans-Serif" font-size="10.00">tds_process_login_tokens</text>
</a>
</g>
</g>
<!-- Node20&#45;&gt;Node21 -->
<g id="edge25" class="edge"><title>Node20&#45;&gt;Node21</title>
<path fill="none" stroke="midnightblue" d="M252.452,-64.7846C267.589,-62.507 284.553,-59.9545 300.594,-57.5407"/>
<polygon fill="midnightblue" stroke="midnightblue" points="251.667,-61.3633 242.299,-66.3123 252.709,-68.2853 251.667,-61.3633"/>
</g>
<!-- Node22&#45;&gt;Node17 -->
<g id="edge27" class="edge"><title>Node22&#45;&gt;Node17</title>
<path fill="none" stroke="midnightblue" d="M243.961,-468.499C259.623,-461.19 277.94,-453.17 295,-447 304.581,-443.535 315.104,-440.34 324.982,-437.598"/>
<polygon fill="midnightblue" stroke="midnightblue" points="242.129,-465.494 234.588,-472.935 245.124,-471.821 242.129,-465.494"/>
</g>
<!-- Node23 -->
<g id="node23" class="node"><title>Node23</title>
<g id="a_node23"><a xlink:href="a00193.html#ade7df2db455b61edc83819ad60edb339" target="_top" xlink:title="Tell we finished sending BCP data to server. ">
<polygon fill="white" stroke="black" points="323.5,-532.5 323.5,-551.5 406.5,-551.5 406.5,-532.5 323.5,-532.5"/>
<text text-anchor="middle" x="365" y="-539.5" font-family="Helvetica,sans-Serif" font-size="10.00">tds_bcp_done</text>
</a>
</g>
</g>
<!-- Node22&#45;&gt;Node23 -->
<g id="edge28" class="edge"><title>Node22&#45;&gt;Node23</title>
<path fill="none" stroke="midnightblue" d="M250.682,-506.887C264.8,-512.383 280.443,-518.194 295,-523 305.147,-526.35 316.263,-529.593 326.553,-532.424"/>
<polygon fill="midnightblue" stroke="midnightblue" points="251.771,-503.555 241.184,-503.15 249.208,-510.069 251.771,-503.555"/>
</g>
<!-- Node27 -->
<g id="node27" class="node"><title>Node27</title>
<g id="a_node27"><a xlink:href="a00193.html#a8208eef2a3974ae1f0cf3c8c8ab011ce" target="_top" xlink:title="Start sending BCP data to server. ">
<polygon fill="white" stroke="black" points="325,-494.5 325,-513.5 405,-513.5 405,-494.5 325,-494.5"/>
<text text-anchor="middle" x="365" y="-501.5" font-family="Helvetica,sans-Serif" font-size="10.00">tds_bcp_start</text>
</a>
</g>
</g>
<!-- Node22&#45;&gt;Node27 -->
<g id="edge33" class="edge"><title>Node22&#45;&gt;Node27</title>
<path fill="none" stroke="midnightblue" d="M269.011,-494.471C287.943,-496.37 308.065,-498.389 324.893,-500.077"/>
<polygon fill="midnightblue" stroke="midnightblue" points="269.244,-490.977 258.945,-493.462 268.545,-497.942 269.244,-490.977"/>
</g>
<!-- Node29 -->
<g id="node29" class="node"><title>Node29</title>
<g id="a_node29"><a xlink:href="a00193.html#a7711612cc544a7da2c7aa212b870acb2" target="_top" xlink:title="Start writing writetext request. ">
<polygon fill="white" stroke="black" points="313,-456.5 313,-475.5 417,-475.5 417,-456.5 313,-456.5"/>
<text text-anchor="middle" x="365" y="-463.5" font-family="Helvetica,sans-Serif" font-size="10.00">tds_writetext_start</text>
</a>
</g>
</g>
<!-- Node22&#45;&gt;Node29 -->
<g id="edge38" class="edge"><title>Node22&#45;&gt;Node29</title>
<path fill="none" stroke="midnightblue" d="M268.906,-479.116C283.496,-477.104 298.798,-474.993 312.757,-473.068"/>
<polygon fill="midnightblue" stroke="midnightblue" points="268.373,-475.657 258.945,-480.49 269.329,-482.591 268.373,-475.657"/>
</g>
<!-- Node30 -->
<g id="node30" class="node"><title>Node30</title>
<g id="a_node30"><a xlink:href="a00359.html#ga69902dffb299d62a799888e0fa3ccd68" target="_top" xlink:title="Attempt to close all deferred closes (dynamics and cursors). ">
<polygon fill="white" stroke="black" points="305.5,-571 305.5,-601 424.5,-601 424.5,-571 305.5,-571"/>
<text text-anchor="start" x="313.5" y="-589" font-family="Helvetica,sans-Serif" font-size="10.00">tds_process_pending</text>
<text text-anchor="middle" x="365" y="-578" font-family="Helvetica,sans-Serif" font-size="10.00">_closes</text>
</a>
</g>
</g>
<!-- Node22&#45;&gt;Node30 -->
<g id="edge40" class="edge"><title>Node22&#45;&gt;Node30</title>
<path fill="none" stroke="midnightblue" d="M227.419,-510.09C244.837,-525.941 269.99,-546.905 295,-561 301.549,-564.691 308.744,-568.008 315.94,-570.928"/>
<polygon fill="midnightblue" stroke="midnightblue" points="229.705,-507.436 219.989,-503.21 224.949,-512.573 229.705,-507.436"/>
</g>
<!-- Node24 -->
<g id="node24" class="node"><title>Node24</title>
<g id="a_node24"><a xlink:href="a00344.html#ga7370f1223f13510d6b33e98f2de09fb5" target="_top" xlink:title="_bcp_exec_in">
<polygon fill="white" stroke="black" points="633,-506.5 633,-525.5 715,-525.5 715,-506.5 633,-506.5"/>
<text text-anchor="middle" x="674" y="-513.5" font-family="Helvetica,sans-Serif" font-size="10.00">_bcp_exec_in</text>
</a>
</g>
</g>
<!-- Node23&#45;&gt;Node24 -->
<g id="edge29" class="edge"><title>Node23&#45;&gt;Node24</title>
<path fill="none" stroke="midnightblue" d="M416.66,-543.41C463.025,-543.999 533.426,-543.126 594,-535 609.239,-532.956 625.823,-529.208 639.844,-525.577"/>
<polygon fill="midnightblue" stroke="midnightblue" points="416.62,-539.909 406.567,-543.254 416.511,-546.908 416.62,-539.909"/>
</g>
<!-- Node25 -->
<g id="node25" class="node"><title>Node25</title>
<g id="a_node25"><a xlink:href="a00343.html#gaa23f8e5c7f437a94746c90292dd1cb01" target="_top" xlink:title="Commit a set of rows to the table. ">
<polygon fill="white" stroke="black" points="500,-506.5 500,-525.5 565,-525.5 565,-506.5 500,-506.5"/>
<text text-anchor="middle" x="532.5" y="-513.5" font-family="Helvetica,sans-Serif" font-size="10.00">bcp_batch</text>
</a>
</g>
</g>
<!-- Node23&#45;&gt;Node25 -->
<g id="edge31" class="edge"><title>Node23&#45;&gt;Node25</title>
<path fill="none" stroke="midnightblue" d="M416.991,-533.989C444.053,-529.738 476.457,-524.647 499.877,-520.968"/>
<polygon fill="midnightblue" stroke="midnightblue" points="416.246,-530.563 406.91,-535.573 417.332,-537.479 416.246,-530.563"/>
</g>
<!-- Node26 -->
<g id="node26" class="node"><title>Node26</title>
<g id="a_node26"><a xlink:href="a00343.html#ga8b85f79f53a62ac7a728fe626d609b65" target="_top" xlink:title="Conclude the transfer of data from program variables. ">
<polygon fill="white" stroke="black" points="501,-582.5 501,-601.5 564,-601.5 564,-582.5 501,-582.5"/>
<text text-anchor="middle" x="532.5" y="-589.5" font-family="Helvetica,sans-Serif" font-size="10.00">bcp_done</text>
</a>
</g>
</g>
<!-- Node23&#45;&gt;Node26 -->
<g id="edge32" class="edge"><title>Node23&#45;&gt;Node26</title>
<path fill="none" stroke="midnightblue" d="M409.206,-554.385C417.762,-556.877 426.672,-559.499 435,-562 457.18,-568.661 482.143,-576.429 501.122,-582.392"/>
<polygon fill="midnightblue" stroke="midnightblue" points="409.958,-550.959 399.379,-551.535 408.008,-557.682 409.958,-550.959"/>
</g>
<!-- Node24&#45;&gt;Node3 -->
<g id="edge30" class="edge"><title>Node24&#45;&gt;Node3</title>
<path fill="none" stroke="midnightblue" d="M702.368,-530.312C722.2,-540.683 748.468,-554.419 765.783,-563.474"/>
<polygon fill="midnightblue" stroke="midnightblue" points="703.974,-527.202 693.49,-525.669 700.73,-533.405 703.974,-527.202"/>
</g>
<!-- Node27&#45;&gt;Node24 -->
<g id="edge34" class="edge"><title>Node27&#45;&gt;Node24</title>
<path fill="none" stroke="midnightblue" d="M415.137,-492.81C421.952,-490.588 428.752,-487.996 435,-485 452.797,-476.467 452.221,-465.072 471,-459 523.015,-442.181 541.981,-442.193 594,-459 622.968,-468.36 650.256,-492.737 663.905,-506.386"/>
<polygon fill="midnightblue" stroke="midnightblue" points="413.767,-489.567 405.204,-495.805 415.788,-496.269 413.767,-489.567"/>
</g>
<!-- Node27&#45;&gt;Node25 -->
<g id="edge35" class="edge"><title>Node27&#45;&gt;Node25</title>
<path fill="none" stroke="midnightblue" d="M415.38,-507.58C442.716,-509.562 475.886,-511.968 499.764,-513.699"/>
<polygon fill="midnightblue" stroke="midnightblue" points="415.448,-504.076 405.221,-506.844 414.942,-511.058 415.448,-504.076"/>
</g>
<!-- Node28 -->
<g id="node28" class="node"><title>Node28</title>
<g id="a_node28"><a xlink:href="a00193.html#a5eec23828b0610c58de248c4edb53879" target="_top" xlink:title="Start bulk copy to server. ">
<polygon fill="white" stroke="red" points="471,-468.5 471,-487.5 594,-487.5 594,-468.5 471,-468.5"/>
<text text-anchor="middle" x="532.5" y="-475.5" font-family="Helvetica,sans-Serif" font-size="10.00">tds_bcp_start_copy_in</text>
</a>
</g>
</g>
<!-- Node27&#45;&gt;Node28 -->
<g id="edge36" class="edge"><title>Node27&#45;&gt;Node28</title>
<path fill="none" stroke="midnightblue" d="M415.203,-496.27C432.68,-493.525 452.56,-490.402 470.878,-487.524"/>
<polygon fill="midnightblue" stroke="midnightblue" points="414.557,-492.829 405.221,-497.838 415.643,-499.744 414.557,-492.829"/>
</g>
<!-- Node28&#45;&gt;Node24 -->
<g id="edge37" class="edge"><title>Node28&#45;&gt;Node24</title>
<path fill="none" stroke="midnightblue" d="M578.456,-490.246C597.685,-495.484 619.803,-501.509 637.81,-506.414"/>
<polygon fill="midnightblue" stroke="midnightblue" points="579.27,-486.84 568.702,-487.589 577.43,-493.594 579.27,-486.84"/>
</g>
<!-- Node29&#45;&gt;Node7 -->
<g id="edge39" class="edge"><title>Node29&#45;&gt;Node7</title>
<path fill="none" stroke="midnightblue" d="M420.478,-453.226C425.489,-451.39 430.405,-449.322 435,-447 470.592,-429.014 505.677,-396.752 522.005,-380.667"/>
<polygon fill="midnightblue" stroke="midnightblue" points="419.151,-449.979 410.781,-456.475 421.374,-456.617 419.151,-449.979"/>
</g>
<!-- Node31 -->
<g id="node31" class="node"><title>Node31</title>
<g id="a_node31"><a xlink:href="a00359.html#ga7a081cf9bb8f04ead12f0299fb7c4cd9" target="_top" xlink:title="tds_process_end() processes any of the DONE, DONEPROC, or DONEINPROC tokens. ">
<polygon fill="white" stroke="red" points="483.5,-620.5 483.5,-639.5 581.5,-639.5 581.5,-620.5 483.5,-620.5"/>
<text text-anchor="middle" x="532.5" y="-627.5" font-family="Helvetica,sans-Serif" font-size="10.00">tds_process_end</text>
</a>
</g>
</g>
<!-- Node30&#45;&gt;Node31 -->
<g id="edge41" class="edge"><title>Node30&#45;&gt;Node31</title>
<path fill="none" stroke="midnightblue" d="M432.273,-603.619C453.846,-609.355 476.976,-615.504 495.473,-620.422"/>
<polygon fill="midnightblue" stroke="midnightblue" points="433.056,-600.206 422.493,-601.019 431.258,-606.971 433.056,-600.206"/>
</g>
<!-- Node31&#45;&gt;Node1 -->
<g id="edge42" class="edge"><title>Node31&#45;&gt;Node1</title>
<path fill="none" stroke="midnightblue" d="M473.279,-633.419C424.345,-634.408 353.262,-631.376 295,-611 220.648,-584.997 197.992,-572.87 148,-512 92.2551,-444.125 65.9585,-337.201 58.9652,-304.692"/>
<polygon fill="midnightblue" stroke="midnightblue" points="473.469,-636.916 483.373,-633.152 473.284,-629.918 473.469,-636.916"/>
</g>
<!-- Node33 -->
<g id="node33" class="node"><title>Node33</title>
<g id="a_node33"><a xlink:href="a00341.html#ga5ea23272124fff03b8d87538c1ec3ee5" target="_top" xlink:title="Cancel the current command batch. ">
<polygon fill="white" stroke="black" points="335.5,-0.5 335.5,-19.5 394.5,-19.5 394.5,-0.5 335.5,-0.5"/>
<text text-anchor="middle" x="365" y="-7.5" font-family="Helvetica,sans-Serif" font-size="10.00">dbcancel</text>
</a>
</g>
</g>
<!-- Node32&#45;&gt;Node33 -->
<g id="edge44" class="edge"><title>Node32&#45;&gt;Node33</title>
<path fill="none" stroke="midnightblue" d="M269.451,-12.9639C292.421,-12.2438 317.089,-11.4706 335.467,-10.8944"/>
<polygon fill="midnightblue" stroke="midnightblue" points="269.276,-9.46758 259.391,-13.2793 269.496,-16.4641 269.276,-9.46758"/>
</g>
</g>
</svg>
