<?xml version="1.0" encoding="UTF-8" standalone="no"?>
<!DOCTYPE svg PUBLIC "-//W3C//DTD SVG 1.1//EN"
 "http://www.w3.org/Graphics/SVG/1.1/DTD/svg11.dtd">
<!-- Generated by graphviz version 2.38.0 (20140413.2041)
 -->
<!-- Title: tds_put_string Pages: 1 -->
<svg width="925pt" height="477pt"
 viewBox="0.00 0.00 925.00 476.50" xmlns="http://www.w3.org/2000/svg" xmlns:xlink="http://www.w3.org/1999/xlink">
<g id="graph0" class="graph" transform="scale(1 1) rotate(0) translate(4 472.5)">
<title>tds_put_string</title>
<polygon fill="white" stroke="none" points="-4,4 -4,-472.5 921,-472.5 921,4 -4,4"/>
<!-- Node1 -->
<g id="node1" class="node"><title>Node1</title>
<polygon fill="#bfbfbf" stroke="black" points="0,-145 0,-164 83,-164 83,-145 0,-145"/>
<text text-anchor="middle" x="41.5" y="-152" font-family="Helvetica,sans-Serif" font-size="10.00">tds_put_string</text>
</g>
<!-- Node2 -->
<g id="node2" class="node"><title>Node2</title>
<g id="a_node2"><a xlink:href="a00356.html#ga95e0fccedc459a4404f496eec74a369a" target="_top" xlink:title="tds_submit_query_params() sends a language string to the database server for processing. ">
<polygon fill="white" stroke="black" points="307,-297 307,-316 447,-316 447,-297 307,-297"/>
<text text-anchor="middle" x="377" y="-304" font-family="Helvetica,sans-Serif" font-size="10.00">tds_submit_query_params</text>
</a>
</g>
</g>
<!-- Node1&#45;&gt;Node2 -->
<g id="edge1" class="edge"><title>Node1&#45;&gt;Node2</title>
<path fill="none" stroke="midnightblue" d="M52.2515,-173.044C64.7246,-194.864 88.4208,-230.517 119,-249.5 176.079,-284.933 252.346,-298.468 306.944,-303.57"/>
<polygon fill="midnightblue" stroke="midnightblue" points="55.2164,-171.172 47.3259,-164.102 49.085,-174.55 55.2164,-171.172"/>
</g>
<!-- Node13 -->
<g id="node13" class="node"><title>Node13</title>
<g id="a_node13"><a xlink:href="a00356.html#ga6e42b4a1d1d3898229ea2fe4afc2ecec" target="_top" xlink:title="Output params types and query (required by sp_prepare/sp_executesql/sp_prepexec) ">
<polygon fill="white" stroke="black" points="129.5,-221 129.5,-240 260.5,-240 260.5,-221 129.5,-221"/>
<text text-anchor="middle" x="195" y="-228" font-family="Helvetica,sans-Serif" font-size="10.00">tds7_put_query_params</text>
</a>
</g>
</g>
<!-- Node1&#45;&gt;Node13 -->
<g id="edge13" class="edge"><title>Node1&#45;&gt;Node13</title>
<path fill="none" stroke="midnightblue" d="M70.9192,-168.756C101.341,-184.017 148.756,-207.803 174.968,-220.953"/>
<polygon fill="midnightblue" stroke="midnightblue" points="72.1953,-165.481 61.6876,-164.125 69.0566,-171.738 72.1953,-165.481"/>
</g>
<!-- Node17 -->
<g id="node17" class="node"><title>Node17</title>
<g id="a_node17"><a xlink:href="a00356.html#gaf573d8d4d2660c8c27770573fca05ff5" target="_top" xlink:title="Send a unprepare request for a prepared query. ">
<polygon fill="white" stroke="black" points="134.5,-9 134.5,-28 255.5,-28 255.5,-9 134.5,-9"/>
<text text-anchor="middle" x="195" y="-16" font-family="Helvetica,sans-Serif" font-size="10.00">tds_submit_unprepare</text>
</a>
</g>
</g>
<!-- Node1&#45;&gt;Node17 -->
<g id="edge18" class="edge"><title>Node1&#45;&gt;Node17</title>
<path fill="none" stroke="midnightblue" d="M51.1521,-135.681C63.1434,-111.556 87.0063,-69.9329 119,-45.5 129.119,-37.7726 141.651,-32.1123 153.555,-28.0312"/>
<polygon fill="midnightblue" stroke="midnightblue" points="47.9239,-134.318 46.7507,-144.848 54.2342,-137.348 47.9239,-134.318"/>
</g>
<!-- Node20 -->
<g id="node20" class="node"><title>Node20</title>
<g id="a_node20"><a xlink:href="a00356.html#gaf614c75ea8f7ad411e53dac0e2f91be4" target="_top" xlink:title="Send RPC as string query. ">
<polygon fill="white" stroke="black" points="494,-60 494,-79 624,-79 624,-60 494,-60"/>
<text text-anchor="middle" x="559" y="-67" font-family="Helvetica,sans-Serif" font-size="10.00">tds_send_emulated_rpc</text>
</a>
</g>
</g>
<!-- Node1&#45;&gt;Node20 -->
<g id="edge21" class="edge"><title>Node1&#45;&gt;Node20</title>
<path fill="none" stroke="midnightblue" d="M54.2347,-136.551C67.4632,-118.105 90.8408,-90.449 119,-78.5 253.034,-21.6245 431.436,-44.608 513.39,-59.946"/>
<polygon fill="midnightblue" stroke="midnightblue" points="51.212,-134.769 48.4248,-144.991 56.978,-138.738 51.212,-134.769"/>
</g>
<!-- Node23 -->
<g id="node23" class="node"><title>Node23</title>
<g id="a_node23"><a xlink:href="a00356.html#ga26b26296d060dca75f6a43e9ac41e58d" target="_top" xlink:title="Send a string to server while quoting it. ">
<polygon fill="white" stroke="black" points="141.5,-88 141.5,-107 248.5,-107 248.5,-88 141.5,-88"/>
<text text-anchor="middle" x="195" y="-95" font-family="Helvetica,sans-Serif" font-size="10.00">tds_quote_and_put</text>
</a>
</g>
</g>
<!-- Node1&#45;&gt;Node23 -->
<g id="edge24" class="edge"><title>Node1&#45;&gt;Node23</title>
<path fill="none" stroke="midnightblue" d="M72.2442,-140.867C86.293,-134.635 103.373,-127.355 119,-121.5 132.826,-116.32 148.335,-111.239 161.646,-107.095"/>
<polygon fill="midnightblue" stroke="midnightblue" points="70.752,-137.7 63.0574,-144.983 73.6144,-144.088 70.752,-137.7"/>
</g>
<!-- Node24 -->
<g id="node24" class="node"><title>Node24</title>
<g id="a_node24"><a xlink:href="a00356.html#ga0e2e7230c425e925402d7856ff5b4b18" target="_top" xlink:title="Send a parameter to server. ">
<polygon fill="white" stroke="black" points="308.5,-98 308.5,-117 445.5,-117 445.5,-98 308.5,-98"/>
<text text-anchor="middle" x="377" y="-105" font-family="Helvetica,sans-Serif" font-size="10.00">tds_put_param_as_string</text>
</a>
</g>
</g>
<!-- Node1&#45;&gt;Node24 -->
<g id="edge29" class="edge"><title>Node1&#45;&gt;Node24</title>
<path fill="none" stroke="midnightblue" d="M92.9983,-147.383C150.452,-139.286 244.554,-126.025 308.325,-117.037"/>
<polygon fill="midnightblue" stroke="midnightblue" points="92.4739,-143.923 83.0602,-148.784 93.4508,-150.854 92.4739,-143.923"/>
</g>
<!-- Node25 -->
<g id="node25" class="node"><title>Node25</title>
<g id="a_node25"><a xlink:href="a00356.html#ga02c6ce3ff96369603a6ee4efee64caae" target="_top" xlink:title="Emulate prepared execute traslating to a normal language. ">
<polygon fill="white" stroke="red" points="483,-107 483,-126 635,-126 635,-107 483,-107"/>
<text text-anchor="middle" x="559" y="-114" font-family="Helvetica,sans-Serif" font-size="10.00">tds_send_emulated_execute</text>
</a>
</g>
</g>
<!-- Node1&#45;&gt;Node25 -->
<g id="edge30" class="edge"><title>Node1&#45;&gt;Node25</title>
<path fill="none" stroke="midnightblue" d="M93.502,-154.06C139.847,-153.394 210.079,-151.717 271,-147.5 343.745,-142.465 426.51,-133.139 484.406,-126.027"/>
<polygon fill="midnightblue" stroke="midnightblue" points="93.3636,-150.562 83.4111,-154.195 93.457,-157.561 93.3636,-150.562"/>
</g>
<!-- Node26 -->
<g id="node26" class="node"><title>Node26</title>
<g id="a_node26"><a xlink:href="a00294.html#a4daaa551e54dbd978650e2eef89e09ff" target="_top" xlink:title="Send BCP metadata to server. ">
<polygon fill="white" stroke="black" points="119,-325 119,-344 271,-344 271,-325 119,-325"/>
<text text-anchor="middle" x="195" y="-332" font-family="Helvetica,sans-Serif" font-size="10.00">tds7_bcp_send_colmetadata</text>
</a>
</g>
</g>
<!-- Node1&#45;&gt;Node26 -->
<g id="edge31" class="edge"><title>Node1&#45;&gt;Node26</title>
<path fill="none" stroke="midnightblue" d="M48.0254,-174.074C57.6599,-204.968 80.2902,-265.24 119,-301.5 130.42,-312.198 145.874,-319.795 159.786,-324.981"/>
<polygon fill="midnightblue" stroke="midnightblue" points="51.2691,-172.704 45.0581,-164.12 44.5608,-174.703 51.2691,-172.704"/>
</g>
<!-- Node3 -->
<g id="node3" class="node"><title>Node3</title>
<g id="a_node3"><a xlink:href="a00356.html#ga5a29ae7f99d089dc3cea85ec6ee5f3ab" target="_top" xlink:title="tds_submit_query() sends a language string to the database server for processing. ...">
<polygon fill="white" stroke="black" points="510,-297 510,-316 608,-316 608,-297 510,-297"/>
<text text-anchor="middle" x="559" y="-304" font-family="Helvetica,sans-Serif" font-size="10.00">tds_submit_query</text>
</a>
</g>
</g>
<!-- Node2&#45;&gt;Node3 -->
<g id="edge2" class="edge"><title>Node2&#45;&gt;Node3</title>
<path fill="none" stroke="midnightblue" d="M457.481,-306.5C475.297,-306.5 493.67,-306.5 509.756,-306.5"/>
<polygon fill="midnightblue" stroke="midnightblue" points="457.078,-303 447.078,-306.5 457.078,-310 457.078,-303"/>
</g>
<!-- Node4 -->
<g id="node4" class="node"><title>Node4</title>
<g id="a_node4"><a xlink:href="a00344.html#gae67546338cb9542a4902aa914f57f314" target="_top" xlink:title="_bcp_exec_out">
<polygon fill="white" stroke="red" points="829,-316 829,-335 917,-335 917,-316 829,-316"/>
<text text-anchor="middle" x="873" y="-323" font-family="Helvetica,sans-Serif" font-size="10.00">_bcp_exec_out</text>
</a>
</g>
</g>
<!-- Node3&#45;&gt;Node4 -->
<g id="edge3" class="edge"><title>Node3&#45;&gt;Node4</title>
<path fill="none" stroke="midnightblue" d="M615.307,-317.865C633.016,-320.993 652.761,-323.95 671,-325.5 725.242,-330.109 788.016,-329.101 828.781,-327.61"/>
<polygon fill="midnightblue" stroke="midnightblue" points="615.607,-314.362 605.141,-316.012 614.352,-321.248 615.607,-314.362"/>
</g>
<!-- Node5 -->
<g id="node5" class="node"><title>Node5</title>
<g id="a_node5"><a xlink:href="a00341.html#gac980139b9cea03cf93e373d425991481" target="_top" xlink:title="Transmit the command buffer to the server. ">
<polygon fill="white" stroke="red" points="699.5,-259 699.5,-278 764.5,-278 764.5,-259 699.5,-259"/>
<text text-anchor="middle" x="732" y="-266" font-family="Helvetica,sans-Serif" font-size="10.00">dbsqlsend</text>
</a>
</g>
</g>
<!-- Node3&#45;&gt;Node5 -->
<g id="edge4" class="edge"><title>Node3&#45;&gt;Node5</title>
<path fill="none" stroke="midnightblue" d="M612.921,-294.74C641.278,-288.438 675.256,-280.888 699.468,-275.507"/>
<polygon fill="midnightblue" stroke="midnightblue" points="612.153,-291.325 603.151,-296.911 613.672,-298.158 612.153,-291.325"/>
</g>
<!-- Node6 -->
<g id="node6" class="node"><title>Node6</title>
<g id="a_node6"><a xlink:href="a00356.html#gad695defcbf663b0023851a198206a772" target="_top" xlink:title="Format and submit a query. ">
<polygon fill="white" stroke="red" points="681.5,-297 681.5,-316 782.5,-316 782.5,-297 681.5,-297"/>
<text text-anchor="middle" x="732" y="-304" font-family="Helvetica,sans-Serif" font-size="10.00">tds_submit_queryf</text>
</a>
</g>
</g>
<!-- Node3&#45;&gt;Node6 -->
<g id="edge5" class="edge"><title>Node3&#45;&gt;Node6</title>
<path fill="none" stroke="midnightblue" d="M618.279,-306.5C638.833,-306.5 661.73,-306.5 681.489,-306.5"/>
<polygon fill="midnightblue" stroke="midnightblue" points="618.088,-303 608.088,-306.5 618.088,-310 618.088,-303"/>
</g>
<!-- Node7 -->
<g id="node7" class="node"><title>Node7</title>
<g id="a_node7"><a xlink:href="a00356.html#gaf0da49585d39e99780a004ee2ca23479" target="_top" xlink:title="Send option commands to server. ">
<polygon fill="white" stroke="black" points="671.5,-221 671.5,-240 792.5,-240 792.5,-221 671.5,-221"/>
<text text-anchor="middle" x="732" y="-228" font-family="Helvetica,sans-Serif" font-size="10.00">tds_submit_optioncmd</text>
</a>
</g>
</g>
<!-- Node3&#45;&gt;Node7 -->
<g id="edge7" class="edge"><title>Node3&#45;&gt;Node7</title>
<path fill="none" stroke="midnightblue" d="M585.271,-291.976C607.403,-279.634 640.677,-261.984 671,-249.5 679.386,-246.048 688.641,-242.837 697.321,-240.073"/>
<polygon fill="midnightblue" stroke="midnightblue" points="583.506,-288.953 576.51,-296.909 586.94,-295.052 583.506,-288.953"/>
</g>
<!-- Node8 -->
<g id="node8" class="node"><title>Node8</title>
<g id="a_node8"><a xlink:href="a00356.html#ga7bf3670d3d6dabed469b9eb117298079" target="_top" xlink:title="Send a rollback request. ">
<polygon fill="white" stroke="black" points="671,-183 671,-202 793,-202 793,-183 671,-183"/>
<text text-anchor="middle" x="732" y="-190" font-family="Helvetica,sans-Serif" font-size="10.00">tds_submit_begin_tran</text>
</a>
</g>
</g>
<!-- Node3&#45;&gt;Node8 -->
<g id="edge8" class="edge"><title>Node3&#45;&gt;Node8</title>
<path fill="none" stroke="midnightblue" d="M580.306,-290.183C595.529,-277.837 616.787,-260.357 635,-244.5 651.37,-230.247 652.211,-222.366 671,-211.5 677.527,-207.726 684.894,-204.606 692.174,-202.061"/>
<polygon fill="midnightblue" stroke="midnightblue" points="577.686,-287.8 572.108,-296.807 582.086,-293.244 577.686,-287.8"/>
</g>
<!-- Node9 -->
<g id="node9" class="node"><title>Node9</title>
<g id="a_node9"><a xlink:href="a00356.html#ga9c1cdcc388506a2ca3c0aaee8c461ba6" target="_top" xlink:title="Send a rollback request. ">
<polygon fill="white" stroke="black" points="678,-145 678,-164 786,-164 786,-145 678,-145"/>
<text text-anchor="middle" x="732" y="-152" font-family="Helvetica,sans-Serif" font-size="10.00">tds_submit_rollback</text>
</a>
</g>
</g>
<!-- Node3&#45;&gt;Node9 -->
<g id="edge9" class="edge"><title>Node3&#45;&gt;Node9</title>
<path fill="none" stroke="midnightblue" d="M583.411,-291.032C599.416,-279.593 620.309,-262.867 635,-244.5 657.099,-216.87 644.034,-196.403 671,-173.5 675.58,-169.61 680.962,-166.514 686.59,-164.051"/>
<polygon fill="midnightblue" stroke="midnightblue" points="581.303,-288.235 575.093,-296.819 585.301,-293.981 581.303,-288.235"/>
</g>
<!-- Node10 -->
<g id="node10" class="node"><title>Node10</title>
<g id="a_node10"><a xlink:href="a00356.html#ga530538c4c975524cf0b771a550fc94a3" target="_top" xlink:title="Send a commit request. ">
<polygon fill="white" stroke="black" points="679.5,-411 679.5,-430 784.5,-430 784.5,-411 679.5,-411"/>
<text text-anchor="middle" x="732" y="-418" font-family="Helvetica,sans-Serif" font-size="10.00">tds_submit_commit</text>
</a>
</g>
</g>
<!-- Node3&#45;&gt;Node10 -->
<g id="edge10" class="edge"><title>Node3&#45;&gt;Node10</title>
<path fill="none" stroke="midnightblue" d="M575.641,-323.572C595.804,-344.645 632.833,-380.287 671,-401.5 677.781,-405.269 685.416,-408.408 692.909,-410.978"/>
<polygon fill="midnightblue" stroke="midnightblue" points="577.939,-320.907 568.54,-316.018 572.839,-325.702 577.939,-320.907"/>
</g>
<!-- Node11 -->
<g id="node11" class="node"><title>Node11</title>
<g id="a_node11"><a xlink:href="a00193.html#a8208eef2a3974ae1f0cf3c8c8ab011ce" target="_top" xlink:title="Start sending BCP data to server. ">
<polygon fill="white" stroke="red" points="692,-449 692,-468 772,-468 772,-449 692,-449"/>
<text text-anchor="middle" x="732" y="-456" font-family="Helvetica,sans-Serif" font-size="10.00">tds_bcp_start</text>
</a>
</g>
</g>
<!-- Node3&#45;&gt;Node11 -->
<g id="edge11" class="edge"><title>Node3&#45;&gt;Node11</title>
<path fill="none" stroke="midnightblue" d="M577.134,-323.562C592.84,-339.53 616.41,-364.334 635,-387.5 652.593,-409.423 648.386,-422.804 671,-439.5 677.153,-444.043 684.428,-447.522 691.75,-450.179"/>
<polygon fill="midnightblue" stroke="midnightblue" points="579.232,-320.707 569.705,-316.072 574.262,-325.637 579.232,-320.707"/>
</g>
<!-- Node12 -->
<g id="node12" class="node"><title>Node12</title>
<g id="a_node12"><a xlink:href="a00359.html#ga55f27c3e05d42c9b07ace1c74b11c5ab" target="_top" xlink:title="Retrieve and set @spid. ">
<polygon fill="white" stroke="red" points="693.5,-373 693.5,-392 770.5,-392 770.5,-373 693.5,-373"/>
<text text-anchor="middle" x="732" y="-380" font-family="Helvetica,sans-Serif" font-size="10.00">tds_set_spid</text>
</a>
</g>
</g>
<!-- Node3&#45;&gt;Node12 -->
<g id="edge12" class="edge"><title>Node3&#45;&gt;Node12</title>
<path fill="none" stroke="midnightblue" d="M588.726,-320.513C611.016,-331.251 642.77,-346.254 671,-358.5 682.425,-363.456 695.222,-368.626 706.054,-372.893"/>
<polygon fill="midnightblue" stroke="midnightblue" points="590.021,-317.252 579.495,-316.049 586.974,-323.554 590.021,-317.252"/>
</g>
<!-- Node6&#45;&gt;Node4 -->
<g id="edge6" class="edge"><title>Node6&#45;&gt;Node4</title>
<path fill="none" stroke="midnightblue" d="M792.868,-314.683C805.019,-316.344 817.57,-318.06 828.997,-319.622"/>
<polygon fill="midnightblue" stroke="midnightblue" points="793.171,-311.192 782.79,-313.306 792.223,-318.128 793.171,-311.192"/>
</g>
<!-- Node13&#45;&gt;Node2 -->
<g id="edge14" class="edge"><title>Node13&#45;&gt;Node2</title>
<path fill="none" stroke="midnightblue" d="M220.774,-245.097C242.83,-257.633 276.268,-275.525 307,-287.5 316.146,-291.064 326.218,-294.237 335.774,-296.922"/>
<polygon fill="midnightblue" stroke="midnightblue" points="222.473,-242.037 212.059,-240.086 218.983,-248.105 222.473,-242.037"/>
</g>
<!-- Node14 -->
<g id="node14" class="node"><title>Node14</title>
<g id="a_node14"><a xlink:href="a00356.html#ga74eb08c3a1c85be8ac9db428842c8b9d" target="_top" xlink:title="tds_submit_prepare() creates a temporary stored procedure in the server. ">
<polygon fill="white" stroke="black" points="322,-259 322,-278 432,-278 432,-259 322,-259"/>
<text text-anchor="middle" x="377" y="-266" font-family="Helvetica,sans-Serif" font-size="10.00">tds_submit_prepare</text>
</a>
</g>
</g>
<!-- Node13&#45;&gt;Node14 -->
<g id="edge15" class="edge"><title>Node13&#45;&gt;Node14</title>
<path fill="none" stroke="midnightblue" d="M251.331,-242.181C276.857,-247.57 306.776,-253.886 330.905,-258.98"/>
<polygon fill="midnightblue" stroke="midnightblue" points="251.929,-238.73 241.422,-240.089 250.483,-245.579 251.929,-238.73"/>
</g>
<!-- Node15 -->
<g id="node15" class="node"><title>Node15</title>
<g id="a_node15"><a xlink:href="a00356.html#gae603aed795a4c5bb26ab159a11256996" target="_top" xlink:title="Submit a prepared query with parameters. ">
<polygon fill="white" stroke="black" points="671.5,-107 671.5,-126 792.5,-126 792.5,-107 671.5,-107"/>
<text text-anchor="middle" x="732" y="-114" font-family="Helvetica,sans-Serif" font-size="10.00">tds_submit_execdirect</text>
</a>
</g>
</g>
<!-- Node13&#45;&gt;Node15 -->
<g id="edge16" class="edge"><title>Node13&#45;&gt;Node15</title>
<path fill="none" stroke="midnightblue" d="M270.711,-229.746C320.985,-228.044 388.514,-223.436 447,-211.5 550.006,-190.477 571.105,-168.259 671,-135.5 680.552,-132.368 690.987,-129.033 700.438,-126.046"/>
<polygon fill="midnightblue" stroke="midnightblue" points="270.463,-226.252 260.575,-230.058 270.678,-233.248 270.463,-226.252"/>
</g>
<!-- Node16 -->
<g id="node16" class="node"><title>Node16</title>
<g id="a_node16"><a xlink:href="a00356.html#ga08877c101704bebe4fa57e0849dc272d" target="_top" xlink:title="tds71_submit_prepexec() creates a temporary stored procedure in the server. ">
<polygon fill="white" stroke="black" points="313,-183 313,-202 441,-202 441,-183 313,-183"/>
<text text-anchor="middle" x="377" y="-190" font-family="Helvetica,sans-Serif" font-size="10.00">tds71_submit_prepexec</text>
</a>
</g>
</g>
<!-- Node13&#45;&gt;Node16 -->
<g id="edge17" class="edge"><title>Node13&#45;&gt;Node16</title>
<path fill="none" stroke="midnightblue" d="M251.331,-218.819C276.857,-213.43 306.776,-207.114 330.905,-202.02"/>
<polygon fill="midnightblue" stroke="midnightblue" points="250.483,-215.421 241.422,-220.911 251.929,-222.27 250.483,-215.421"/>
</g>
<!-- Node18 -->
<g id="node18" class="node"><title>Node18</title>
<g id="a_node18"><a xlink:href="a00359.html#ga69902dffb299d62a799888e0fa3ccd68" target="_top" xlink:title="Attempt to close all deferred closes (dynamics and cursors). ">
<polygon fill="white" stroke="black" points="317.5,-0.5 317.5,-30.5 436.5,-30.5 436.5,-0.5 317.5,-0.5"/>
<text text-anchor="start" x="325.5" y="-18.5" font-family="Helvetica,sans-Serif" font-size="10.00">tds_process_pending</text>
<text text-anchor="middle" x="377" y="-7.5" font-family="Helvetica,sans-Serif" font-size="10.00">_closes</text>
</a>
</g>
</g>
<!-- Node17&#45;&gt;Node18 -->
<g id="edge19" class="edge"><title>Node17&#45;&gt;Node18</title>
<path fill="none" stroke="midnightblue" d="M266.285,-17.3286C283.143,-17.0476 300.97,-16.7505 317.242,-16.4793"/>
<polygon fill="midnightblue" stroke="midnightblue" points="265.878,-13.8348 255.937,-17.501 265.994,-20.8338 265.878,-13.8348"/>
</g>
<!-- Node19 -->
<g id="node19" class="node"><title>Node19</title>
<g id="a_node19"><a xlink:href="a00359.html#ga7a081cf9bb8f04ead12f0299fb7c4cd9" target="_top" xlink:title="tds_process_end() processes any of the DONE, DONEPROC, or DONEINPROC tokens. ">
<polygon fill="white" stroke="red" points="510,-6 510,-25 608,-25 608,-6 510,-6"/>
<text text-anchor="middle" x="559" y="-13" font-family="Helvetica,sans-Serif" font-size="10.00">tds_process_end</text>
</a>
</g>
</g>
<!-- Node18&#45;&gt;Node19 -->
<g id="edge20" class="edge"><title>Node18&#45;&gt;Node19</title>
<path fill="none" stroke="midnightblue" d="M447.058,-15.5C467.978,-15.5 490.495,-15.5 509.741,-15.5"/>
<polygon fill="midnightblue" stroke="midnightblue" points="446.939,-12.0001 436.939,-15.5 446.939,-19.0001 446.939,-12.0001"/>
</g>
<!-- Node21 -->
<g id="node21" class="node"><title>Node21</title>
<g id="a_node21"><a xlink:href="a00356.html#ga5f071b94ad7889690762dc85646c74ab" target="_top" xlink:title="tds_submit_rpc() call a RPC from server. ">
<polygon fill="white" stroke="black" points="688.5,-60 688.5,-79 775.5,-79 775.5,-60 688.5,-60"/>
<text text-anchor="middle" x="732" y="-67" font-family="Helvetica,sans-Serif" font-size="10.00">tds_submit_rpc</text>
</a>
</g>
</g>
<!-- Node20&#45;&gt;Node21 -->
<g id="edge22" class="edge"><title>Node20&#45;&gt;Node21</title>
<path fill="none" stroke="midnightblue" d="M634.318,-69.5C652.772,-69.5 671.933,-69.5 688.282,-69.5"/>
<polygon fill="midnightblue" stroke="midnightblue" points="634.161,-66.0001 624.161,-69.5 634.161,-73.0001 634.161,-66.0001"/>
</g>
<!-- Node22 -->
<g id="node22" class="node"><title>Node22</title>
<g id="a_node22"><a xlink:href="a00342.html#gafa4dfd181be21e49c397f7daaa9cf96c" target="_top" xlink:title="Execute the procedure and free associated memory. ">
<polygon fill="white" stroke="black" points="840,-60 840,-79 906,-79 906,-60 840,-60"/>
<text text-anchor="middle" x="873" y="-67" font-family="Helvetica,sans-Serif" font-size="10.00">dbrpcsend</text>
</a>
</g>
</g>
<!-- Node21&#45;&gt;Node22 -->
<g id="edge23" class="edge"><title>Node21&#45;&gt;Node22</title>
<path fill="none" stroke="midnightblue" d="M785.973,-69.5C804.054,-69.5 823.719,-69.5 839.678,-69.5"/>
<polygon fill="midnightblue" stroke="midnightblue" points="785.839,-66.0001 775.839,-69.5 785.839,-73.0001 785.839,-66.0001"/>
</g>
<!-- Node23&#45;&gt;Node24 -->
<g id="edge25" class="edge"><title>Node23&#45;&gt;Node24</title>
<path fill="none" stroke="midnightblue" d="M258.846,-100.991C274.83,-101.879 292.075,-102.838 308.29,-103.738"/>
<polygon fill="midnightblue" stroke="midnightblue" points="258.726,-97.4795 248.547,-100.419 258.338,-104.469 258.726,-97.4795"/>
</g>
<!-- Node24&#45;&gt;Node20 -->
<g id="edge26" class="edge"><title>Node24&#45;&gt;Node20</title>
<path fill="none" stroke="midnightblue" d="M433.331,-95.819C458.857,-90.4301 488.776,-84.1139 512.905,-79.0201"/>
<polygon fill="midnightblue" stroke="midnightblue" points="432.483,-92.4208 423.422,-97.911 433.929,-99.2699 432.483,-92.4208"/>
</g>
<!-- Node24&#45;&gt;Node25 -->
<g id="edge27" class="edge"><title>Node24&#45;&gt;Node25</title>
<path fill="none" stroke="midnightblue" d="M455.632,-111.382C464.655,-111.833 473.846,-112.292 482.835,-112.742"/>
<polygon fill="midnightblue" stroke="midnightblue" points="455.7,-107.881 445.537,-110.877 455.35,-114.872 455.7,-107.881"/>
</g>
<!-- Node25&#45;&gt;Node15 -->
<g id="edge28" class="edge"><title>Node25&#45;&gt;Node15</title>
<path fill="none" stroke="midnightblue" d="M645.059,-116.5C653.986,-116.5 662.919,-116.5 671.47,-116.5"/>
<polygon fill="midnightblue" stroke="midnightblue" points="645.003,-113 635.003,-116.5 645.003,-120 645.003,-113"/>
</g>
<!-- Node26&#45;&gt;Node11 -->
<g id="edge32" class="edge"><title>Node26&#45;&gt;Node11</title>
<path fill="none" stroke="midnightblue" d="M246.945,-346.308C353.28,-370.954 596.85,-427.407 691.948,-449.449"/>
<polygon fill="midnightblue" stroke="midnightblue" points="247.624,-342.873 237.092,-344.024 246.044,-349.692 247.624,-342.873"/>
</g>
</g>
</svg>
