<?xml version="1.0" encoding="UTF-8" standalone="no"?>
<!DOCTYPE svg PUBLIC "-//W3C//DTD SVG 1.1//EN"
 "http://www.w3.org/Graphics/SVG/1.1/DTD/svg11.dtd">
<!-- Generated by graphviz version 2.38.0 (20140413.2041)
 -->
<!-- Title: tds_unget_byte Pages: 1 -->
<svg width="1030pt" height="534pt"
 viewBox="0.00 0.00 1030.00 534.00" xmlns="http://www.w3.org/2000/svg" xmlns:xlink="http://www.w3.org/1999/xlink">
<g id="graph0" class="graph" transform="scale(1 1) rotate(0) translate(4 530)">
<title>tds_unget_byte</title>
<polygon fill="white" stroke="none" points="-4,4 -4,-530 1026,-530 1026,4 -4,4"/>
<!-- Node1 -->
<g id="node1" class="node"><title>Node1</title>
<polygon fill="#bfbfbf" stroke="black" points="0,-103.5 0,-122.5 89,-122.5 89,-103.5 0,-103.5"/>
<text text-anchor="middle" x="44.5" y="-110.5" font-family="Helvetica,sans-Serif" font-size="10.00">tds_unget_byte</text>
</g>
<!-- Node2 -->
<g id="node2" class="node"><title>Node2</title>
<g id="a_node2"><a xlink:href="a00359.html#ga39453d084f3f780ac4602d4abf2839f7" target="_top" xlink:title="tds_process_default_tokens() is a catch all function that is called to process tokens not known to ot...">
<polygon fill="white" stroke="black" points="303,-54 303,-84 415,-84 415,-54 303,-54"/>
<text text-anchor="start" x="311" y="-72" font-family="Helvetica,sans-Serif" font-size="10.00">tds_process_default</text>
<text text-anchor="middle" x="359" y="-61" font-family="Helvetica,sans-Serif" font-size="10.00">_tokens</text>
</a>
</g>
</g>
<!-- Node1&#45;&gt;Node2 -->
<g id="edge1" class="edge"><title>Node1&#45;&gt;Node2</title>
<path fill="none" stroke="midnightblue" d="M80.4401,-100.158C94.1565,-95.6083 110.146,-90.9033 125,-88 185.146,-76.2442 255.403,-71.7462 302.917,-70.0341"/>
<polygon fill="midnightblue" stroke="midnightblue" points="79.235,-96.8708 70.903,-103.415 81.4975,-103.495 79.235,-96.8708"/>
</g>
<!-- Node4 -->
<g id="node4" class="node"><title>Node4</title>
<g id="a_node4"><a xlink:href="a00359.html#gabfc9de1d1fe718818caf63a4be4035a6" target="_top" xlink:title="process all streams. ">
<polygon fill="white" stroke="black" points="587,-190.5 587,-209.5 699,-209.5 699,-190.5 587,-190.5"/>
<text text-anchor="middle" x="643" y="-197.5" font-family="Helvetica,sans-Serif" font-size="10.00">tds_process_tokens</text>
</a>
</g>
</g>
<!-- Node1&#45;&gt;Node4 -->
<g id="edge23" class="edge"><title>Node1&#45;&gt;Node4</title>
<path fill="none" stroke="midnightblue" d="M60.9268,-130.216C75.6898,-145.357 99.4395,-166.43 125,-176 284.041,-235.547 490.044,-220.251 586.979,-208.165"/>
<polygon fill="midnightblue" stroke="midnightblue" points="63.4687,-127.81 54.0639,-122.932 58.3738,-132.61 63.4687,-127.81"/>
</g>
<!-- Node18 -->
<g id="node18" class="node"><title>Node18</title>
<g id="a_node18"><a xlink:href="a00359.html#ga81cdf0ed9e8d29cf1ddf66e18efc407d" target="_top" xlink:title="tds_process_msg() is called for MSG, ERR, or EED tokens and is responsible for calling the CLI&#39;s mess...">
<polygon fill="white" stroke="black" points="451,-0.5 451,-19.5 551,-19.5 551,-0.5 451,-0.5"/>
<text text-anchor="middle" x="501" y="-7.5" font-family="Helvetica,sans-Serif" font-size="10.00">tds_process_msg</text>
</a>
</g>
</g>
<!-- Node1&#45;&gt;Node18 -->
<g id="edge30" class="edge"><title>Node1&#45;&gt;Node18</title>
<path fill="none" stroke="midnightblue" d="M67.1671,-97.8744C82.5999,-87.8349 104.21,-75.2202 125,-68 237.329,-28.9889 377.682,-16.1557 450.698,-11.9793"/>
<polygon fill="midnightblue" stroke="midnightblue" points="65.2216,-94.9649 58.8473,-103.428 69.1078,-100.787 65.2216,-94.9649"/>
</g>
<!-- Node19 -->
<g id="node19" class="node"><title>Node19</title>
<g id="a_node19"><a xlink:href="a00359.html#gaeec59bca9bd0c5388e245f0d19d9c81a" target="_top" xlink:title="Process list of table from network. ">
<polygon fill="white" stroke="black" points="135.5,-147.5 135.5,-166.5 256.5,-166.5 256.5,-147.5 135.5,-147.5"/>
<text text-anchor="middle" x="196" y="-154.5" font-family="Helvetica,sans-Serif" font-size="10.00">tds_process_tabname</text>
</a>
</g>
</g>
<!-- Node1&#45;&gt;Node19 -->
<g id="edge24" class="edge"><title>Node1&#45;&gt;Node19</title>
<path fill="none" stroke="midnightblue" d="M86.4232,-125.481C98.8056,-129.224 112.448,-133.312 125,-137 136.763,-140.456 149.661,-144.164 161.147,-147.437"/>
<polygon fill="midnightblue" stroke="midnightblue" points="87.3929,-122.118 76.8076,-122.569 85.3635,-128.817 87.3929,-122.118"/>
</g>
<!-- Node20 -->
<g id="node20" class="node"><title>Node20</title>
<g id="a_node20"><a xlink:href="a00359.html#ga9fdef8228d29cab7fa9098f07fa73fba" target="_top" xlink:title="Process parameters from networks. ">
<polygon fill="white" stroke="black" points="125,-98 125,-128 267,-128 267,-98 125,-98"/>
<text text-anchor="start" x="133" y="-116" font-family="Helvetica,sans-Serif" font-size="10.00">tds_process_param_result</text>
<text text-anchor="middle" x="196" y="-105" font-family="Helvetica,sans-Serif" font-size="10.00">_tokens</text>
</a>
</g>
</g>
<!-- Node1&#45;&gt;Node20 -->
<g id="edge27" class="edge"><title>Node1&#45;&gt;Node20</title>
<path fill="none" stroke="midnightblue" d="M99.3882,-113C107.659,-113 116.301,-113 124.862,-113"/>
<polygon fill="midnightblue" stroke="midnightblue" points="99.1435,-109.5 89.1435,-113 99.1434,-116.5 99.1435,-109.5"/>
</g>
<!-- Node3 -->
<g id="node3" class="node"><title>Node3</title>
<g id="a_node3"><a xlink:href="a00359.html#ga93945b42d45ee28ae1296b35a1c1e9bb" target="_top" xlink:title="tds_process_login_tokens() is called after sending the login packet to the server. ">
<polygon fill="white" stroke="black" points="882,-19.5 882,-38.5 1022,-38.5 1022,-19.5 882,-19.5"/>
<text text-anchor="middle" x="952" y="-26.5" font-family="Helvetica,sans-Serif" font-size="10.00">tds_process_login_tokens</text>
</a>
</g>
</g>
<!-- Node2&#45;&gt;Node3 -->
<g id="edge2" class="edge"><title>Node2&#45;&gt;Node3</title>
<path fill="none" stroke="midnightblue" d="M425.323,-59.9029C500.012,-49.9978 626.035,-34.795 735,-29 784.056,-26.3911 839.467,-26.4522 881.884,-27.134"/>
<polygon fill="midnightblue" stroke="midnightblue" points="424.581,-56.4709 415.132,-61.2639 425.507,-63.4093 424.581,-56.4709"/>
</g>
<!-- Node2&#45;&gt;Node4 -->
<g id="edge3" class="edge"><title>Node2&#45;&gt;Node4</title>
<path fill="none" stroke="midnightblue" d="M425.172,-73.7924C463.649,-78.8021 512.248,-89.0477 551,-110 588.919,-130.502 621.627,-171.616 635.245,-190.328"/>
<polygon fill="midnightblue" stroke="midnightblue" points="425.462,-70.302 415.113,-72.5709 424.618,-77.251 425.462,-70.302"/>
</g>
<!-- Node2&#45;&gt;Node18 -->
<g id="edge20" class="edge"><title>Node2&#45;&gt;Node18</title>
<path fill="none" stroke="midnightblue" d="M392.622,-49.4429C413.695,-39.3867 441.164,-27.7367 463.043,-19.5434"/>
<polygon fill="midnightblue" stroke="midnightblue" points="390.881,-46.398 383.433,-53.933 393.954,-52.6874 390.881,-46.398"/>
</g>
<!-- Node5 -->
<g id="node5" class="node"><title>Node5</title>
<g id="a_node5"><a xlink:href="a00344.html#gae67546338cb9542a4902aa914f57f314" target="_top" xlink:title="_bcp_exec_out">
<polygon fill="white" stroke="red" points="746.5,-392.5 746.5,-411.5 834.5,-411.5 834.5,-392.5 746.5,-392.5"/>
<text text-anchor="middle" x="790.5" y="-399.5" font-family="Helvetica,sans-Serif" font-size="10.00">_bcp_exec_out</text>
</a>
</g>
</g>
<!-- Node4&#45;&gt;Node5 -->
<g id="edge4" class="edge"><title>Node4&#45;&gt;Node5</title>
<path fill="none" stroke="midnightblue" d="M648.482,-219.549C657.983,-256.676 683.616,-337.715 735,-383 739.36,-386.843 744.542,-389.919 749.95,-392.38"/>
<polygon fill="midnightblue" stroke="midnightblue" points="651.808,-218.413 646.041,-209.525 645.006,-220.069 651.808,-218.413"/>
</g>
<!-- Node6 -->
<g id="node6" class="node"><title>Node6</title>
<g id="a_node6"><a xlink:href="a00341.html#gaf1879b85e8238c015b9648d077665285" target="_top" xlink:title="_dbresults">
<polygon fill="white" stroke="red" points="758,-354.5 758,-373.5 823,-373.5 823,-354.5 758,-354.5"/>
<text text-anchor="middle" x="790.5" y="-361.5" font-family="Helvetica,sans-Serif" font-size="10.00">_dbresults</text>
</a>
</g>
</g>
<!-- Node4&#45;&gt;Node6 -->
<g id="edge5" class="edge"><title>Node4&#45;&gt;Node6</title>
<path fill="none" stroke="midnightblue" d="M651.16,-219.282C663.575,-250.158 691.963,-310.701 735,-345 741.661,-350.308 749.907,-354.186 757.951,-356.999"/>
<polygon fill="midnightblue" stroke="midnightblue" points="654.319,-217.745 647.438,-209.689 647.793,-220.278 654.319,-217.745"/>
</g>
<!-- Node7 -->
<g id="node7" class="node"><title>Node7</title>
<g id="a_node7"><a xlink:href="a00342.html#gaff09873008411a0573f6d1a9e6c7cf4b" target="_top" xlink:title="Get count of output parameters filled by a stored procedure. ">
<polygon fill="white" stroke="red" points="758,-316.5 758,-335.5 823,-335.5 823,-316.5 758,-316.5"/>
<text text-anchor="middle" x="790.5" y="-323.5" font-family="Helvetica,sans-Serif" font-size="10.00">dbnumrets</text>
</a>
</g>
</g>
<!-- Node4&#45;&gt;Node7 -->
<g id="edge6" class="edge"><title>Node4&#45;&gt;Node7</title>
<path fill="none" stroke="midnightblue" d="M655.249,-218.51C670.529,-242.193 699.993,-283.012 735,-307 741.861,-311.701 750.002,-315.351 757.871,-318.137"/>
<polygon fill="midnightblue" stroke="midnightblue" points="658.049,-216.388 649.763,-209.786 652.123,-220.114 658.049,-216.388"/>
</g>
<!-- Node8 -->
<g id="node8" class="node"><title>Node8</title>
<g id="a_node8"><a xlink:href="a00341.html#gae1f50a6a2c31fda57cb481922b06841e" target="_top" xlink:title="Wait for results of a query from the server. ">
<polygon fill="white" stroke="red" points="764,-506.5 764,-525.5 817,-525.5 817,-506.5 764,-506.5"/>
<text text-anchor="middle" x="790.5" y="-513.5" font-family="Helvetica,sans-Serif" font-size="10.00">dbsqlok</text>
</a>
</g>
</g>
<!-- Node4&#45;&gt;Node8 -->
<g id="edge7" class="edge"><title>Node4&#45;&gt;Node8</title>
<path fill="none" stroke="midnightblue" d="M644.722,-219.785C647.622,-271.157 662.159,-410.449 735,-492 742.576,-500.482 753.704,-506.106 763.932,-509.762"/>
<polygon fill="midnightblue" stroke="midnightblue" points="648.214,-219.524 644.244,-209.701 641.222,-219.856 648.214,-219.524"/>
</g>
<!-- Node9 -->
<g id="node9" class="node"><title>Node9</title>
<g id="a_node9"><a xlink:href="a00341.html#ga548153eb2eae76c48aa9d4b72258dc1c" target="_top" xlink:title="Send text or image data to the server. ">
<polygon fill="white" stroke="black" points="918,-487.5 918,-506.5 986,-506.5 986,-487.5 918,-487.5"/>
<text text-anchor="middle" x="952" y="-494.5" font-family="Helvetica,sans-Serif" font-size="10.00">dbwritetext</text>
</a>
</g>
</g>
<!-- Node4&#45;&gt;Node9 -->
<g id="edge10" class="edge"><title>Node4&#45;&gt;Node9</title>
<path fill="none" stroke="midnightblue" d="M644.556,-219.835C647.076,-268.813 660.81,-396.061 735,-459 762.075,-481.969 864.34,-491.639 917.871,-495.197"/>
<polygon fill="midnightblue" stroke="midnightblue" points="648.045,-219.488 644.141,-209.638 641.051,-219.772 648.045,-219.488"/>
</g>
<!-- Node10 -->
<g id="node10" class="node"><title>Node10</title>
<g id="a_node10"><a xlink:href="a00341.html#ga559e24ba70d0d96c3469eb6ab8f74e05" target="_top" xlink:title="Cancel the query currently being retrieved, discarding all pending rows. ">
<polygon fill="white" stroke="red" points="755,-190.5 755,-209.5 826,-209.5 826,-190.5 755,-190.5"/>
<text text-anchor="middle" x="790.5" y="-197.5" font-family="Helvetica,sans-Serif" font-size="10.00">dbcanquery</text>
</a>
</g>
</g>
<!-- Node4&#45;&gt;Node10 -->
<g id="edge9" class="edge"><title>Node4&#45;&gt;Node10</title>
<path fill="none" stroke="midnightblue" d="M709.202,-200C724.865,-200 741,-200 754.661,-200"/>
<polygon fill="midnightblue" stroke="midnightblue" points="709.007,-196.5 699.007,-200 709.007,-203.5 709.007,-196.5"/>
</g>
<!-- Node11 -->
<g id="node11" class="node"><title>Node11</title>
<g id="a_node11"><a xlink:href="a00341.html#gadd5685565c8c6c86079e17b8a73b324c" target="_top" xlink:title="Fetch part of a text or image value from the server. ">
<polygon fill="white" stroke="black" points="757,-152.5 757,-171.5 824,-171.5 824,-152.5 757,-152.5"/>
<text text-anchor="middle" x="790.5" y="-159.5" font-family="Helvetica,sans-Serif" font-size="10.00">dbreadtext</text>
</a>
</g>
</g>
<!-- Node4&#45;&gt;Node11 -->
<g id="edge11" class="edge"><title>Node4&#45;&gt;Node11</title>
<path fill="none" stroke="midnightblue" d="M690.652,-187.816C712.199,-182.188 737.268,-175.641 756.768,-170.549"/>
<polygon fill="midnightblue" stroke="midnightblue" points="689.507,-184.498 680.716,-190.411 691.276,-191.27 689.507,-184.498"/>
</g>
<!-- Node12 -->
<g id="node12" class="node"><title>Node12</title>
<g id="a_node12"><a xlink:href="a00341.html#gac980139b9cea03cf93e373d425991481" target="_top" xlink:title="Transmit the command buffer to the server. ">
<polygon fill="white" stroke="red" points="758,-114.5 758,-133.5 823,-133.5 823,-114.5 758,-114.5"/>
<text text-anchor="middle" x="790.5" y="-121.5" font-family="Helvetica,sans-Serif" font-size="10.00">dbsqlsend</text>
</a>
</g>
</g>
<!-- Node4&#45;&gt;Node12 -->
<g id="edge12" class="edge"><title>Node4&#45;&gt;Node12</title>
<path fill="none" stroke="midnightblue" d="M665.89,-184.329C683.842,-171.967 710.241,-154.884 735,-143 742.317,-139.488 750.46,-136.296 758.174,-133.573"/>
<polygon fill="midnightblue" stroke="midnightblue" points="663.52,-181.716 657.326,-190.311 667.528,-187.454 663.52,-181.716"/>
</g>
<!-- Node13 -->
<g id="node13" class="node"><title>Node13</title>
<g id="a_node13"><a xlink:href="a00356.html#gaf0da49585d39e99780a004ee2ca23479" target="_top" xlink:title="Send option commands to server. ">
<polygon fill="white" stroke="black" points="891.5,-250.5 891.5,-269.5 1012.5,-269.5 1012.5,-250.5 891.5,-250.5"/>
<text text-anchor="middle" x="952" y="-257.5" font-family="Helvetica,sans-Serif" font-size="10.00">tds_submit_optioncmd</text>
</a>
</g>
</g>
<!-- Node4&#45;&gt;Node13 -->
<g id="edge13" class="edge"><title>Node4&#45;&gt;Node13</title>
<path fill="none" stroke="midnightblue" d="M698.719,-211.594C710.668,-214.078 723.253,-216.659 735,-219 791.15,-230.19 855.657,-242.343 899.45,-250.489"/>
<polygon fill="midnightblue" stroke="midnightblue" points="699.368,-208.154 688.864,-209.537 697.938,-215.006 699.368,-208.154"/>
</g>
<!-- Node14 -->
<g id="node14" class="node"><title>Node14</title>
<g id="a_node14"><a xlink:href="a00193.html#ac6610c72bd31bad5378f760fa9b12d66" target="_top" xlink:title="Initialize BCP information. ">
<polygon fill="white" stroke="red" points="754,-76.5 754,-95.5 827,-95.5 827,-76.5 754,-76.5"/>
<text text-anchor="middle" x="790.5" y="-83.5" font-family="Helvetica,sans-Serif" font-size="10.00">tds_bcp_init</text>
</a>
</g>
</g>
<!-- Node4&#45;&gt;Node14 -->
<g id="edge14" class="edge"><title>Node4&#45;&gt;Node14</title>
<path fill="none" stroke="midnightblue" d="M656.674,-182.379C672.709,-161.253 702.217,-126.067 735,-105 740.901,-101.208 747.649,-98.0691 754.341,-95.5098"/>
<polygon fill="midnightblue" stroke="midnightblue" points="653.804,-180.373 650.656,-190.49 659.426,-184.544 653.804,-180.373"/>
</g>
<!-- Node15 -->
<g id="node15" class="node"><title>Node15</title>
<g id="a_node15"><a xlink:href="a00359.html#ga55f27c3e05d42c9b07ace1c74b11c5ab" target="_top" xlink:title="Retrieve and set @spid. ">
<polygon fill="white" stroke="black" points="752,-38.5 752,-57.5 829,-57.5 829,-38.5 752,-38.5"/>
<text text-anchor="middle" x="790.5" y="-45.5" font-family="Helvetica,sans-Serif" font-size="10.00">tds_set_spid</text>
</a>
</g>
</g>
<!-- Node4&#45;&gt;Node15 -->
<g id="edge15" class="edge"><title>Node4&#45;&gt;Node15</title>
<path fill="none" stroke="midnightblue" d="M652.151,-181.115C665.442,-152.455 694.431,-98.0395 735,-67 740.014,-63.164 745.86,-60.0654 751.826,-57.5735"/>
<polygon fill="midnightblue" stroke="midnightblue" points="648.877,-179.861 647.972,-190.417 655.263,-182.729 648.877,-179.861"/>
</g>
<!-- Node16 -->
<g id="node16" class="node"><title>Node16</title>
<g id="a_node16"><a xlink:href="a00359.html#gaeeb1562044786ea17bea361ed83e6946" target="_top" xlink:title="Process results for simple query as &quot;SET TEXTSIZE&quot; or &quot;USE dbname&quot; If the statement returns results...">
<polygon fill="white" stroke="red" points="735.5,-267 735.5,-297 845.5,-297 845.5,-267 735.5,-267"/>
<text text-anchor="start" x="743.5" y="-285" font-family="Helvetica,sans-Serif" font-size="10.00">tds_process_simple</text>
<text text-anchor="middle" x="790.5" y="-274" font-family="Helvetica,sans-Serif" font-size="10.00">_query</text>
</a>
</g>
</g>
<!-- Node4&#45;&gt;Node16 -->
<g id="edge17" class="edge"><title>Node4&#45;&gt;Node16</title>
<path fill="none" stroke="midnightblue" d="M669.569,-214.755C687.773,-225.225 712.836,-239.569 735,-252 743.761,-256.914 753.349,-262.217 762.007,-266.977"/>
<polygon fill="midnightblue" stroke="midnightblue" points="671.139,-211.621 660.727,-209.664 667.646,-217.687 671.139,-211.621"/>
</g>
<!-- Node17 -->
<g id="node17" class="node"><title>Node17</title>
<g id="a_node17"><a xlink:href="a00359.html#gaf233e79967f82f4e0dd4d11524917a34" target="_top" xlink:title="tds_process_cancel">
<polygon fill="white" stroke="red" points="735,-430.5 735,-449.5 846,-449.5 846,-430.5 735,-430.5"/>
<text text-anchor="middle" x="790.5" y="-437.5" font-family="Helvetica,sans-Serif" font-size="10.00">tds_process_cancel</text>
</a>
</g>
</g>
<!-- Node4&#45;&gt;Node17 -->
<g id="edge19" class="edge"><title>Node4&#45;&gt;Node17</title>
<path fill="none" stroke="midnightblue" d="M646.585,-219.421C653.261,-261.98 674.965,-364.188 735,-421 739.076,-424.857 743.976,-427.936 749.146,-430.392"/>
<polygon fill="midnightblue" stroke="midnightblue" points="650.047,-218.905 645.139,-209.516 643.121,-219.916 650.047,-218.905"/>
</g>
<!-- Node8&#45;&gt;Node9 -->
<g id="edge8" class="edge"><title>Node8&#45;&gt;Node9</title>
<path fill="none" stroke="midnightblue" d="M827.371,-511.727C854.525,-508.492 891.532,-504.084 917.965,-500.935"/>
<polygon fill="midnightblue" stroke="midnightblue" points="826.642,-508.289 817.126,-512.947 827.47,-515.24 826.642,-508.289"/>
</g>
<!-- Node15&#45;&gt;Node3 -->
<g id="edge16" class="edge"><title>Node15&#45;&gt;Node3</title>
<path fill="none" stroke="midnightblue" d="M839.245,-42.3125C852.661,-40.7143 867.527,-38.9435 881.92,-37.229"/>
<polygon fill="midnightblue" stroke="midnightblue" points="838.815,-38.8389 829.299,-43.4973 839.643,-45.7897 838.815,-38.8389"/>
</g>
<!-- Node16&#45;&gt;Node13 -->
<g id="edge18" class="edge"><title>Node16&#45;&gt;Node13</title>
<path fill="none" stroke="midnightblue" d="M856.05,-273.097C867.711,-271.488 879.823,-269.818 891.337,-268.229"/>
<polygon fill="midnightblue" stroke="midnightblue" points="855.373,-269.657 845.945,-274.49 856.329,-276.591 855.373,-269.657"/>
</g>
<!-- Node18&#45;&gt;Node2 -->
<g id="edge21" class="edge"><title>Node18&#45;&gt;Node2</title>
<path fill="none" stroke="midnightblue" d="M477.876,-24.4073C460.043,-33.4355 434.25,-44.788 411.336,-53.8977"/>
<polygon fill="midnightblue" stroke="midnightblue" points="479.677,-27.4147 486.896,-19.6598 476.417,-21.2203 479.677,-27.4147"/>
</g>
<!-- Node18&#45;&gt;Node4 -->
<g id="edge22" class="edge"><title>Node18&#45;&gt;Node4</title>
<path fill="none" stroke="midnightblue" d="M516.308,-27.6112C526.211,-39.9204 539.608,-56.808 551,-72 583.552,-115.41 620.484,-168.677 635.316,-190.245"/>
<polygon fill="midnightblue" stroke="midnightblue" points="518.799,-25.1259 509.792,-19.5472 513.354,-29.5252 518.799,-25.1259"/>
</g>
<!-- Node19&#45;&gt;Node2 -->
<g id="edge25" class="edge"><title>Node19&#45;&gt;Node2</title>
<path fill="none" stroke="midnightblue" d="M249.322,-144.339C255.408,-142.201 261.426,-139.762 267,-137 295.629,-122.815 324.465,-99.3524 341.782,-84.0343"/>
<polygon fill="midnightblue" stroke="midnightblue" points="248.182,-141.03 239.758,-147.455 250.35,-147.685 248.182,-141.03"/>
</g>
<!-- Node19&#45;&gt;Node4 -->
<g id="edge26" class="edge"><title>Node19&#45;&gt;Node4</title>
<path fill="none" stroke="midnightblue" d="M266.865,-161.256C338.373,-165.956 452.646,-174.42 551,-186 562.589,-187.364 574.968,-189.089 586.744,-190.858"/>
<polygon fill="midnightblue" stroke="midnightblue" points="266.838,-157.747 256.631,-160.59 266.383,-164.732 266.838,-157.747"/>
</g>
<!-- Node20&#45;&gt;Node2 -->
<g id="edge28" class="edge"><title>Node20&#45;&gt;Node2</title>
<path fill="none" stroke="midnightblue" d="M261.777,-95.2971C275.448,-91.5608 289.749,-87.6525 303.018,-84.0262"/>
<polygon fill="midnightblue" stroke="midnightblue" points="260.68,-91.9683 251.957,-97.9808 262.526,-98.7206 260.68,-91.9683"/>
</g>
<!-- Node20&#45;&gt;Node4 -->
<g id="edge29" class="edge"><title>Node20&#45;&gt;Node4</title>
<path fill="none" stroke="midnightblue" d="M277,-123.228C349.147,-133.185 457.901,-150.022 551,-172 572.557,-177.089 596.479,-184.522 614.384,-190.451"/>
<polygon fill="midnightblue" stroke="midnightblue" points="277.451,-119.757 267.068,-121.868 276.501,-126.692 277.451,-119.757"/>
</g>
</g>
</svg>
