<?xml version="1.0" encoding="UTF-8" standalone="no"?>
<!DOCTYPE svg PUBLIC "-//W3C//DTD SVG 1.1//EN"
 "http://www.w3.org/Graphics/SVG/1.1/DTD/svg11.dtd">
<!-- Generated by graphviz version 2.38.0 (20140413.2041)
 -->
<!-- Title: tds7_get_instance_port Pages: 1 -->
<svg width="544pt" height="81pt"
 viewBox="0.00 0.00 544.00 80.95" xmlns="http://www.w3.org/2000/svg" xmlns:xlink="http://www.w3.org/1999/xlink">
<g id="graph0" class="graph" transform="scale(1 1) rotate(0) translate(4 76.9497)">
<title>tds7_get_instance_port</title>
<polygon fill="white" stroke="none" points="-4,4 -4,-76.9497 540,-76.9497 540,4 -4,4"/>
<!-- Node1 -->
<g id="node1" class="node"><title>Node1</title>
<polygon fill="#bfbfbf" stroke="black" points="0,-38.5 0,-57.5 128,-57.5 128,-38.5 0,-38.5"/>
<text text-anchor="middle" x="64" y="-45.5" font-family="Helvetica,sans-Serif" font-size="10.00">tds7_get_instance_port</text>
</g>
<!-- Node2 -->
<g id="node2" class="node"><title>Node2</title>
<g id="a_node2"><a xlink:href="a00193.html#ab45c291105027e69836002e1dd586141" target="_top" xlink:title="Write a message to the debug log. ">
<polygon fill="white" stroke="black" points="449.5,-38.5 449.5,-57.5 526.5,-57.5 526.5,-38.5 449.5,-38.5"/>
<text text-anchor="middle" x="488" y="-45.5" font-family="Helvetica,sans-Serif" font-size="10.00">tdsdump_log</text>
</a>
</g>
</g>
<!-- Node1&#45;&gt;Node2 -->
<g id="edge1" class="edge"><title>Node1&#45;&gt;Node2</title>
<path fill="none" stroke="midnightblue" d="M105.211,-57.5106C123.098,-61.2758 144.487,-65.1444 164,-67 270.211,-77.0998 297.868,-72.8995 404,-62 415.468,-60.8222 427.75,-59.0408 439.256,-57.1397"/>
<polygon fill="midnightblue" stroke="midnightblue" points="439.86,-60.5872 449.127,-55.4503 438.679,-53.6875 439.86,-60.5872"/>
</g>
<!-- Node3 -->
<g id="node3" class="node"><title>Node3</title>
<g id="a_node3"><a xlink:href="a00193.html#abf18b98efef6ce2dc0b97d658a3a1918" target="_top" xlink:title="Call the client library&#39;s error handler (for library&#45;generated errors only) ">
<polygon fill="white" stroke="black" points="190.5,-38.5 190.5,-57.5 244.5,-57.5 244.5,-38.5 190.5,-38.5"/>
<text text-anchor="middle" x="217.5" y="-45.5" font-family="Helvetica,sans-Serif" font-size="10.00">tdserror</text>
</a>
</g>
</g>
<!-- Node1&#45;&gt;Node3 -->
<g id="edge2" class="edge"><title>Node1&#45;&gt;Node3</title>
<path fill="none" stroke="midnightblue" d="M128.372,-48C146.028,-48 164.606,-48 180.128,-48"/>
<polygon fill="midnightblue" stroke="midnightblue" points="180.338,-51.5001 190.338,-48 180.338,-44.5001 180.338,-51.5001"/>
</g>
<!-- Node6 -->
<g id="node6" class="node"><title>Node6</title>
<g id="a_node6"><a xlink:href="a00193.html#a79449d2f35a8acc8ed0585044f75524d" target="_top" xlink:title="Dump the contents of data into the log file in a human readable format. ">
<polygon fill="white" stroke="black" points="164,-0.5 164,-19.5 271,-19.5 271,-0.5 164,-0.5"/>
<text text-anchor="middle" x="217.5" y="-7.5" font-family="Helvetica,sans-Serif" font-size="10.00">tdsdump_dump_buf</text>
</a>
</g>
</g>
<!-- Node1&#45;&gt;Node6 -->
<g id="edge7" class="edge"><title>Node1&#45;&gt;Node6</title>
<path fill="none" stroke="midnightblue" d="M103.23,-38.411C123.132,-33.4191 147.657,-27.2676 168.791,-21.9666"/>
<polygon fill="midnightblue" stroke="midnightblue" points="169.697,-25.3479 178.545,-19.5201 167.994,-18.5582 169.697,-25.3479"/>
</g>
<!-- Node3&#45;&gt;Node2 -->
<g id="edge3" class="edge"><title>Node3&#45;&gt;Node2</title>
<path fill="none" stroke="midnightblue" d="M244.734,-48C289.703,-48 382.14,-48 438.932,-48"/>
<polygon fill="midnightblue" stroke="midnightblue" points="439.102,-51.5001 449.102,-48 439.102,-44.5001 439.102,-51.5001"/>
</g>
<!-- Node4 -->
<g id="node4" class="node"><title>Node4</title>
<g id="a_node4"><a xlink:href="a00356.html#ga11338742dc30fd0c2711f58eb830316f" target="_top" xlink:title="tds_send_cancel() sends an empty packet (8 byte header only) tds_process_cancel should be called dire...">
<polygon fill="white" stroke="black" points="307,-0.5 307,-19.5 404,-19.5 404,-0.5 307,-0.5"/>
<text text-anchor="middle" x="355.5" y="-7.5" font-family="Helvetica,sans-Serif" font-size="10.00">tds_send_cancel</text>
</a>
</g>
</g>
<!-- Node3&#45;&gt;Node4 -->
<g id="edge4" class="edge"><title>Node3&#45;&gt;Node4</title>
<path fill="none" stroke="midnightblue" d="M244.722,-40.6732C263.397,-35.4552 288.936,-28.3193 310.682,-22.2433"/>
<polygon fill="midnightblue" stroke="midnightblue" points="311.679,-25.5989 320.368,-19.5369 309.795,-18.8571 311.679,-25.5989"/>
</g>
<!-- Node4&#45;&gt;Node2 -->
<g id="edge5" class="edge"><title>Node4&#45;&gt;Node2</title>
<path fill="none" stroke="midnightblue" d="M389.431,-19.589C406.122,-24.4494 426.589,-30.4091 444.46,-35.6127"/>
<polygon fill="midnightblue" stroke="midnightblue" points="443.5,-38.9787 454.08,-38.4141 445.457,-32.2578 443.5,-38.9787"/>
</g>
<!-- Node5 -->
<g id="node5" class="node"><title>Node5</title>
<g id="a_node5"><a xlink:href="a00357.html#ga5feb53554e8917a81bbbc332163a61fb" target="_top" xlink:title="Flush packet to server. ">
<polygon fill="white" stroke="black" points="440,-0.5 440,-19.5 536,-19.5 536,-0.5 440,-0.5"/>
<text text-anchor="middle" x="488" y="-7.5" font-family="Helvetica,sans-Serif" font-size="10.00">tds_flush_packet</text>
</a>
</g>
</g>
<!-- Node4&#45;&gt;Node5 -->
<g id="edge6" class="edge"><title>Node4&#45;&gt;Node5</title>
<path fill="none" stroke="midnightblue" d="M404.352,-10C412.524,-10 421.087,-10 429.478,-10"/>
<polygon fill="midnightblue" stroke="midnightblue" points="429.59,-13.5001 439.589,-10 429.589,-6.5001 429.59,-13.5001"/>
</g>
</g>
</svg>
