<?xml version="1.0" encoding="UTF-8" standalone="no"?>
<!DOCTYPE svg PUBLIC "-//W3C//DTD SVG 1.1//EN"
 "http://www.w3.org/Graphics/SVG/1.1/DTD/svg11.dtd">
<!-- Generated by graphviz version 2.38.0 (20140413.2041)
 -->
<!-- Title: tds_submit_commit Pages: 1 -->
<svg width="911pt" height="606pt"
 viewBox="0.00 0.00 911.00 606.11" xmlns="http://www.w3.org/2000/svg" xmlns:xlink="http://www.w3.org/1999/xlink">
<g id="graph0" class="graph" transform="scale(1 1) rotate(0) translate(4 602.113)">
<title>tds_submit_commit</title>
<polygon fill="white" stroke="none" points="-4,4 -4,-602.113 907,-602.113 907,4 -4,4"/>
<!-- Node1 -->
<g id="node1" class="node"><title>Node1</title>
<polygon fill="#bfbfbf" stroke="black" points="0,-535.545 0,-554.545 105,-554.545 105,-535.545 0,-535.545"/>
<text text-anchor="middle" x="52.5" y="-542.545" font-family="Helvetica,sans-Serif" font-size="10.00">tds_submit_commit</text>
</g>
<!-- Node2 -->
<g id="node2" class="node"><title>Node2</title>
<g id="a_node2"><a xlink:href="a00356.html#ga5a29ae7f99d089dc3cea85ec6ee5f3ab" target="_top" xlink:title="tds_submit_query() sends a language string to the database server for processing. ...">
<polygon fill="white" stroke="black" points="141,-383.545 141,-402.545 239,-402.545 239,-383.545 141,-383.545"/>
<text text-anchor="middle" x="190" y="-390.545" font-family="Helvetica,sans-Serif" font-size="10.00">tds_submit_query</text>
</a>
</g>
</g>
<!-- Node1&#45;&gt;Node2 -->
<g id="edge1" class="edge"><title>Node1&#45;&gt;Node2</title>
<path fill="none" stroke="midnightblue" d="M61.9761,-535.537C84.3139,-510.479 145.038,-442.361 173.67,-410.242"/>
<polygon fill="midnightblue" stroke="midnightblue" points="176.485,-412.344 180.527,-402.55 171.26,-407.686 176.485,-412.344"/>
</g>
<!-- Node4 -->
<g id="node4" class="node"><title>Node4</title>
<g id="a_node4"><a xlink:href="a00193.html#a16db200d2281f76fe46fc1cbe37ca9df" target="_top" xlink:title="Set state of TDS connection, with logging and checking. ">
<polygon fill="white" stroke="red" points="658.5,-544.545 658.5,-563.545 738.5,-563.545 738.5,-544.545 658.5,-544.545"/>
<text text-anchor="middle" x="698.5" y="-551.545" font-family="Helvetica,sans-Serif" font-size="10.00">tds_set_state</text>
</a>
</g>
</g>
<!-- Node1&#45;&gt;Node4 -->
<g id="edge28" class="edge"><title>Node1&#45;&gt;Node4</title>
<path fill="none" stroke="midnightblue" d="M86.8798,-554.557C103.083,-558.788 122.914,-563.401 141,-566.045 342.114,-595.447 396.788,-611.77 598,-583.045 619.893,-579.92 643.7,-573.111 662.536,-566.876"/>
<polygon fill="midnightblue" stroke="midnightblue" points="663.833,-570.131 672.17,-563.594 661.576,-563.505 663.833,-570.131"/>
</g>
<!-- Node18 -->
<g id="node18" class="node"><title>Node18</title>
<g id="a_node18"><a xlink:href="a00356.html#gada27f4cfce925240ad33b71b63ca692d" target="_top" xlink:title="Flush query packet. ">
<polygon fill="white" stroke="red" points="460.5,-554.545 460.5,-573.545 588.5,-573.545 588.5,-554.545 460.5,-554.545"/>
<text text-anchor="middle" x="524.5" y="-561.545" font-family="Helvetica,sans-Serif" font-size="10.00">tds_query_flush_packet</text>
</a>
</g>
</g>
<!-- Node1&#45;&gt;Node18 -->
<g id="edge31" class="edge"><title>Node1&#45;&gt;Node18</title>
<path fill="none" stroke="midnightblue" d="M105.311,-548.182C117.044,-548.843 129.449,-549.504 141,-550.045 248.517,-555.084 373.107,-559.352 450.122,-561.806"/>
<polygon fill="midnightblue" stroke="midnightblue" points="450.095,-565.307 460.201,-562.126 450.317,-558.311 450.095,-565.307"/>
</g>
<!-- Node19 -->
<g id="node19" class="node"><title>Node19</title>
<g id="a_node19"><a xlink:href="a00356.html#gab543692776c2bc0afc3bd056f074080c" target="_top" xlink:title="Start query packet of a given type. ">
<polygon fill="white" stroke="black" points="300,-516.545 300,-535.545 390,-535.545 390,-516.545 300,-516.545"/>
<text text-anchor="middle" x="345" y="-523.545" font-family="Helvetica,sans-Serif" font-size="10.00">tds_start_query</text>
</a>
</g>
</g>
<!-- Node1&#45;&gt;Node19 -->
<g id="edge29" class="edge"><title>Node1&#45;&gt;Node19</title>
<path fill="none" stroke="midnightblue" d="M105.101,-541.67C156.918,-538.281 236.455,-533.079 289.334,-529.621"/>
<polygon fill="midnightblue" stroke="midnightblue" points="289.787,-533.099 299.538,-528.953 289.331,-526.114 289.787,-533.099"/>
</g>
<!-- Node3 -->
<g id="node3" class="node"><title>Node3</title>
<g id="a_node3"><a xlink:href="a00356.html#ga95e0fccedc459a4404f496eec74a369a" target="_top" xlink:title="tds_submit_query_params() sends a language string to the database server for processing. ">
<polygon fill="white" stroke="black" points="275,-307.545 275,-326.545 415,-326.545 415,-307.545 275,-307.545"/>
<text text-anchor="middle" x="345" y="-314.545" font-family="Helvetica,sans-Serif" font-size="10.00">tds_submit_query_params</text>
</a>
</g>
</g>
<!-- Node2&#45;&gt;Node3 -->
<g id="edge2" class="edge"><title>Node2&#45;&gt;Node3</title>
<path fill="none" stroke="midnightblue" d="M210.378,-383.42C236.934,-370.229 284.827,-346.439 315.482,-331.211"/>
<polygon fill="midnightblue" stroke="midnightblue" points="317.381,-334.176 324.78,-326.593 314.267,-327.907 317.381,-334.176"/>
</g>
<!-- Node3&#45;&gt;Node4 -->
<g id="edge3" class="edge"><title>Node3&#45;&gt;Node4</title>
<path fill="none" stroke="midnightblue" d="M350.081,-326.627C361.739,-352.837 397.815,-426.271 451,-464.045 506.498,-503.462 534.363,-482.879 598,-507.045 623.171,-516.604 650.785,-529.884 670.522,-539.889"/>
<polygon fill="midnightblue" stroke="midnightblue" points="669.038,-543.061 679.533,-544.508 672.231,-536.832 669.038,-543.061"/>
</g>
<!-- Node5 -->
<g id="node5" class="node"><title>Node5</title>
<g id="a_node5"><a xlink:href="a00356.html#ga6455b2991afbf7da90270787f2059d31" target="_top" xlink:title="Get position of next placeholder. ">
<polygon fill="white" stroke="red" points="639,-383.545 639,-402.545 758,-402.545 758,-383.545 639,-383.545"/>
<text text-anchor="middle" x="698.5" y="-390.545" font-family="Helvetica,sans-Serif" font-size="10.00">tds_next_placeholder</text>
</a>
</g>
</g>
<!-- Node3&#45;&gt;Node5 -->
<g id="edge4" class="edge"><title>Node3&#45;&gt;Node5</title>
<path fill="none" stroke="midnightblue" d="M386.853,-326.551C406.269,-331.026 429.814,-336.39 451,-341.045 516.142,-355.36 591.143,-371.072 641.143,-381.438"/>
<polygon fill="midnightblue" stroke="midnightblue" points="640.608,-384.901 651.11,-383.502 642.027,-378.046 640.608,-384.901"/>
</g>
<!-- Node6 -->
<g id="node6" class="node"><title>Node6</title>
<g id="a_node6"><a xlink:href="a00356.html#ga3a5d1771cacc947521c4077551f0d3a4" target="_top" xlink:title="Substitute ?&#45;style placeholders with named (@param) ones. ">
<polygon fill="white" stroke="red" points="471,-402.545 471,-421.545 578,-421.545 578,-402.545 471,-402.545"/>
<text text-anchor="middle" x="524.5" y="-409.545" font-family="Helvetica,sans-Serif" font-size="10.00">tds5_fix_dot_query</text>
</a>
</g>
</g>
<!-- Node3&#45;&gt;Node6 -->
<g id="edge5" class="edge"><title>Node3&#45;&gt;Node6</title>
<path fill="none" stroke="midnightblue" d="M357.93,-326.737C376.736,-341.628 414.865,-370.271 451,-388.045 459.653,-392.302 469.242,-396.077 478.536,-399.3"/>
<polygon fill="midnightblue" stroke="midnightblue" points="477.47,-402.634 488.063,-402.457 479.671,-395.99 477.47,-402.634"/>
</g>
<!-- Node7 -->
<g id="node7" class="node"><title>Node7</title>
<g id="a_node7"><a xlink:href="a00356.html#ga28264995cf9616661f1fa788ac0d246d" target="_top" xlink:title="Send parameters to server. ">
<polygon fill="white" stroke="red" points="478.5,-288.545 478.5,-307.545 570.5,-307.545 570.5,-288.545 478.5,-288.545"/>
<text text-anchor="middle" x="524.5" y="-295.545" font-family="Helvetica,sans-Serif" font-size="10.00">tds_put_params</text>
</a>
</g>
</g>
<!-- Node3&#45;&gt;Node7 -->
<g id="edge7" class="edge"><title>Node3&#45;&gt;Node7</title>
<path fill="none" stroke="midnightblue" d="M415.134,-309.645C432.708,-307.764 451.361,-305.767 468.148,-303.97"/>
<polygon fill="midnightblue" stroke="midnightblue" points="468.762,-307.425 478.333,-302.88 468.017,-300.464 468.762,-307.425"/>
</g>
<!-- Node8 -->
<g id="node8" class="node"><title>Node8</title>
<g id="a_node8"><a xlink:href="a00356.html#gafd74652c4722ddce4d642cc4209449d4" target="_top" xlink:title="Put data information to wire. ">
<polygon fill="white" stroke="red" points="648,-326.545 648,-345.545 749,-345.545 749,-326.545 648,-326.545"/>
<text text-anchor="middle" x="698.5" y="-333.545" font-family="Helvetica,sans-Serif" font-size="10.00">tds_put_data_info</text>
</a>
</g>
</g>
<!-- Node3&#45;&gt;Node8 -->
<g id="edge24" class="edge"><title>Node3&#45;&gt;Node8</title>
<path fill="none" stroke="midnightblue" d="M415.026,-320.776C479.853,-324.281 575.858,-329.47 637.553,-332.805"/>
<polygon fill="midnightblue" stroke="midnightblue" points="637.729,-336.32 647.904,-333.364 638.107,-329.33 637.729,-336.32"/>
</g>
<!-- Node9 -->
<g id="node9" class="node"><title>Node9</title>
<g id="a_node9"><a xlink:href="a00356.html#ga024bc5482366735070befd6f4af59f71" target="_top" xlink:title="Convert a string in an allocated buffer. ">
<polygon fill="white" stroke="red" points="799,-440.545 799,-459.545 903,-459.545 903,-440.545 799,-440.545"/>
<text text-anchor="middle" x="851" y="-447.545" font-family="Helvetica,sans-Serif" font-size="10.00">tds_convert_string</text>
</a>
</g>
</g>
<!-- Node3&#45;&gt;Node9 -->
<g id="edge15" class="edge"><title>Node3&#45;&gt;Node9</title>
<path fill="none" stroke="midnightblue" d="M351.275,-326.708C364.485,-349.79 401.512,-407.927 451,-431.045 509.198,-458.233 692.102,-456.022 788.754,-452.723"/>
<polygon fill="midnightblue" stroke="midnightblue" points="789.097,-456.214 798.966,-452.36 788.848,-449.218 789.097,-456.214"/>
</g>
<!-- Node10 -->
<g id="node10" class="node"><title>Node10</title>
<g id="a_node10"><a xlink:href="a00356.html#ga9fcc0a3932dcad530511395ef8a767fb" target="_top" xlink:title="Write data to wire. ">
<polygon fill="white" stroke="black" points="659.5,-269.545 659.5,-288.545 737.5,-288.545 737.5,-269.545 659.5,-269.545"/>
<text text-anchor="middle" x="698.5" y="-276.545" font-family="Helvetica,sans-Serif" font-size="10.00">tds_put_data</text>
</a>
</g>
</g>
<!-- Node3&#45;&gt;Node10 -->
<g id="edge25" class="edge"><title>Node3&#45;&gt;Node10</title>
<path fill="none" stroke="midnightblue" d="M365.946,-307.458C386.653,-298.077 420.257,-284.437 451,-279.045 518.883,-267.14 598.909,-270.213 648.936,-274.131"/>
<polygon fill="midnightblue" stroke="midnightblue" points="648.886,-277.639 659.141,-274.975 649.463,-270.663 648.886,-277.639"/>
</g>
<!-- Node11 -->
<g id="node11" class="node"><title>Node11</title>
<g id="a_node11"><a xlink:href="a00356.html#ga9ad2e6defce530a8778791cce0166ccd" target="_top" xlink:title="Start query packet of a given type. ">
<polygon fill="white" stroke="black" points="464.5,-516.545 464.5,-535.545 584.5,-535.545 584.5,-516.545 464.5,-516.545"/>
<text text-anchor="middle" x="524.5" y="-523.545" font-family="Helvetica,sans-Serif" font-size="10.00">tds_start_query_head</text>
</a>
</g>
</g>
<!-- Node3&#45;&gt;Node11 -->
<g id="edge11" class="edge"><title>Node3&#45;&gt;Node11</title>
<path fill="none" stroke="midnightblue" d="M348.745,-326.727C357.882,-357.212 390.188,-452.149 451,-502.045 456.045,-506.185 461.83,-509.619 467.884,-512.468"/>
<polygon fill="midnightblue" stroke="midnightblue" points="466.973,-515.879 477.551,-516.477 469.655,-509.413 466.973,-515.879"/>
</g>
<!-- Node12 -->
<g id="node12" class="node"><title>Node12</title>
<g id="a_node12"><a xlink:href="a00357.html#ga1fcaf8d488cc1390f106ce3ad0bf37b4" target="_top" xlink:title="Output a string to wire automatic translate string to unicode if needed. ">
<polygon fill="white" stroke="red" points="657,-18.5453 657,-37.5453 740,-37.5453 740,-18.5453 657,-18.5453"/>
<text text-anchor="middle" x="698.5" y="-25.5453" font-family="Helvetica,sans-Serif" font-size="10.00">tds_put_string</text>
</a>
</g>
</g>
<!-- Node3&#45;&gt;Node12 -->
<g id="edge14" class="edge"><title>Node3&#45;&gt;Node12</title>
<path fill="none" stroke="midnightblue" d="M345.924,-307.282C346.19,-264.95 353.505,-96.3535 451,-28.0453 513.102,15.4654 607.325,-1.25478 659.454,-15.6737"/>
<polygon fill="midnightblue" stroke="midnightblue" points="658.719,-19.1041 669.297,-18.5082 660.656,-12.3774 658.719,-19.1041"/>
</g>
<!-- Node13 -->
<g id="node13" class="node"><title>Node13</title>
<g id="a_node13"><a xlink:href="a00356.html#ga0cd19215e9169ea299a6c9cbf5b2fb60" target="_top" xlink:title="Count number of placeholders (?) in a query. ">
<polygon fill="white" stroke="red" points="634,-163.045 634,-193.045 763,-193.045 763,-163.045 634,-163.045"/>
<text text-anchor="start" x="642" y="-181.045" font-family="Helvetica,sans-Serif" font-size="10.00">tds_count_placeholders</text>
<text text-anchor="middle" x="698.5" y="-170.045" font-family="Helvetica,sans-Serif" font-size="10.00">_ucs2le</text>
</a>
</g>
</g>
<!-- Node3&#45;&gt;Node13 -->
<g id="edge16" class="edge"><title>Node3&#45;&gt;Node13</title>
<path fill="none" stroke="midnightblue" d="M364.716,-307.448C385.524,-296.94 420.257,-279.879 451,-267.045 515.556,-240.097 591.482,-213.415 641.836,-196.401"/>
<polygon fill="midnightblue" stroke="midnightblue" points="643.194,-199.637 651.555,-193.13 640.961,-193.003 643.194,-199.637"/>
</g>
<!-- Node14 -->
<g id="node14" class="node"><title>Node14</title>
<g id="a_node14"><a xlink:href="a00356.html#gac8d5497c2d1b9fadb724111660bd03bd" target="_top" xlink:title="Return string with parameters definition, useful for TDS7+. ">
<polygon fill="white" stroke="red" points="464,-114.045 464,-144.045 585,-144.045 585,-114.045 464,-114.045"/>
<text text-anchor="start" x="472" y="-132.045" font-family="Helvetica,sans-Serif" font-size="10.00">tds7_build_param_def</text>
<text text-anchor="middle" x="524.5" y="-121.045" font-family="Helvetica,sans-Serif" font-size="10.00">_from_params</text>
</a>
</g>
</g>
<!-- Node3&#45;&gt;Node14 -->
<g id="edge17" class="edge"><title>Node3&#45;&gt;Node14</title>
<path fill="none" stroke="midnightblue" d="M349.522,-307.282C360.196,-279.056 394.935,-196.602 451,-153.045 452.786,-151.657 454.657,-150.348 456.592,-149.113"/>
<polygon fill="midnightblue" stroke="midnightblue" points="458.421,-152.1 465.433,-144.157 454.998,-145.994 458.421,-152.1"/>
</g>
<!-- Node15 -->
<g id="node15" class="node"><title>Node15</title>
<g id="a_node15"><a xlink:href="a00356.html#gab775332d378c7fe083750d624441b303" target="_top" xlink:title="Return string with parameters definition, useful for TDS7+. ">
<polygon fill="white" stroke="red" points="464,-163.045 464,-193.045 585,-193.045 585,-163.045 464,-163.045"/>
<text text-anchor="start" x="472" y="-181.045" font-family="Helvetica,sans-Serif" font-size="10.00">tds7_build_param_def</text>
<text text-anchor="middle" x="524.5" y="-170.045" font-family="Helvetica,sans-Serif" font-size="10.00">_from_query</text>
</a>
</g>
</g>
<!-- Node3&#45;&gt;Node15 -->
<g id="edge18" class="edge"><title>Node3&#45;&gt;Node15</title>
<path fill="none" stroke="midnightblue" d="M353.107,-307.307C368.708,-286.526 408.009,-237.344 451,-208.045 456.672,-204.18 462.92,-200.673 469.298,-197.535"/>
<polygon fill="midnightblue" stroke="midnightblue" points="471.072,-200.571 478.683,-193.201 468.137,-194.216 471.072,-200.571"/>
</g>
<!-- Node16 -->
<g id="node16" class="node"><title>Node16</title>
<g id="a_node16"><a xlink:href="a00356.html#ga6e42b4a1d1d3898229ea2fe4afc2ecec" target="_top" xlink:title="Output params types and query (required by sp_prepare/sp_executesql/sp_prepexec) ">
<polygon fill="white" stroke="red" points="459,-37.5453 459,-56.5453 590,-56.5453 590,-37.5453 459,-37.5453"/>
<text text-anchor="middle" x="524.5" y="-44.5453" font-family="Helvetica,sans-Serif" font-size="10.00">tds7_put_query_params</text>
</a>
</g>
</g>
<!-- Node3&#45;&gt;Node16 -->
<g id="edge20" class="edge"><title>Node3&#45;&gt;Node16</title>
<path fill="none" stroke="midnightblue" d="M347.022,-307.341C351.491,-269.967 372.741,-134.056 451,-66.0453 452.795,-64.485 454.704,-63.0506 456.701,-61.7321"/>
<polygon fill="midnightblue" stroke="midnightblue" points="458.857,-64.5416 465.94,-56.6628 455.489,-58.4046 458.857,-64.5416"/>
</g>
<!-- Node17 -->
<g id="node17" class="node"><title>Node17</title>
<g id="a_node17"><a xlink:href="a00356.html#ga0f0b6bf447e9672e3b1ea8453ddeb113" target="_top" xlink:title="Send parameter definition to server. ">
<polygon fill="white" stroke="black" points="451,-75.5453 451,-94.5453 598,-94.5453 598,-75.5453 451,-75.5453"/>
<text text-anchor="middle" x="524.5" y="-82.5453" font-family="Helvetica,sans-Serif" font-size="10.00">tds7_put_params_definition</text>
</a>
</g>
</g>
<!-- Node3&#45;&gt;Node17 -->
<g id="edge23" class="edge"><title>Node3&#45;&gt;Node17</title>
<path fill="none" stroke="midnightblue" d="M347.836,-307.194C354.69,-273.28 382.011,-160.356 451,-104.045 453.073,-102.353 455.28,-100.811 457.588,-99.4044"/>
<polygon fill="midnightblue" stroke="midnightblue" points="459.605,-102.303 466.907,-94.6268 456.412,-96.0741 459.605,-102.303"/>
</g>
<!-- Node3&#45;&gt;Node18 -->
<g id="edge26" class="edge"><title>Node3&#45;&gt;Node18</title>
<path fill="none" stroke="midnightblue" d="M347.442,-326.59C353.246,-361.588 378.201,-484.006 451,-545.045 453.007,-546.728 455.146,-548.263 457.384,-549.664"/>
<polygon fill="midnightblue" stroke="midnightblue" points="455.961,-552.87 466.44,-554.429 459.22,-546.675 455.961,-552.87"/>
</g>
<!-- Node6&#45;&gt;Node5 -->
<g id="edge6" class="edge"><title>Node6&#45;&gt;Node5</title>
<path fill="none" stroke="midnightblue" d="M578.04,-406.241C593.994,-404.479 611.767,-402.516 628.626,-400.654"/>
<polygon fill="midnightblue" stroke="midnightblue" points="629.425,-404.087 638.98,-399.51 628.656,-397.129 629.425,-404.087"/>
</g>
<!-- Node7&#45;&gt;Node8 -->
<g id="edge8" class="edge"><title>Node7&#45;&gt;Node8</title>
<path fill="none" stroke="midnightblue" d="M568.903,-307.634C591.907,-312.717 620.351,-319.001 644.634,-324.366"/>
<polygon fill="midnightblue" stroke="midnightblue" points="643.89,-327.786 654.409,-326.525 645.4,-320.95 643.89,-327.786"/>
</g>
<!-- Node7&#45;&gt;Node10 -->
<g id="edge10" class="edge"><title>Node7&#45;&gt;Node10</title>
<path fill="none" stroke="midnightblue" d="M570.691,-293.053C594.815,-290.388 624.517,-287.107 649.109,-284.391"/>
<polygon fill="midnightblue" stroke="midnightblue" points="649.749,-287.842 659.304,-283.265 648.98,-280.884 649.749,-287.842"/>
</g>
<!-- Node8&#45;&gt;Node9 -->
<g id="edge9" class="edge"><title>Node8&#45;&gt;Node9</title>
<path fill="none" stroke="midnightblue" d="M717.283,-345.558C730.321,-352.799 748.244,-363.317 763,-374.045 788.65,-392.694 815.806,-417.301 832.821,-433.39"/>
<polygon fill="midnightblue" stroke="midnightblue" points="830.659,-436.166 840.309,-440.541 835.494,-431.103 830.659,-436.166"/>
</g>
<!-- Node11&#45;&gt;Node4 -->
<g id="edge13" class="edge"><title>Node11&#45;&gt;Node4</title>
<path fill="none" stroke="midnightblue" d="M584.212,-535.603C605.013,-538.989 628.19,-542.762 648.134,-546.009"/>
<polygon fill="midnightblue" stroke="midnightblue" points="647.807,-549.502 658.239,-547.654 648.932,-542.593 647.807,-549.502"/>
</g>
<!-- Node11&#45;&gt;Node9 -->
<g id="edge12" class="edge"><title>Node11&#45;&gt;Node9</title>
<path fill="none" stroke="midnightblue" d="M566.27,-516.497C625.488,-502.627 735.225,-476.926 799.488,-461.875"/>
<polygon fill="midnightblue" stroke="midnightblue" points="800.459,-465.243 809.397,-459.555 798.863,-458.427 800.459,-465.243"/>
</g>
<!-- Node15&#45;&gt;Node13 -->
<g id="edge19" class="edge"><title>Node15&#45;&gt;Node13</title>
<path fill="none" stroke="midnightblue" d="M585.175,-178.045C597.577,-178.045 610.788,-178.045 623.631,-178.045"/>
<polygon fill="midnightblue" stroke="midnightblue" points="623.83,-181.545 633.83,-178.045 623.83,-174.545 623.83,-181.545"/>
</g>
<!-- Node16&#45;&gt;Node12 -->
<g id="edge22" class="edge"><title>Node16&#45;&gt;Node12</title>
<path fill="none" stroke="midnightblue" d="M590.036,-39.9164C608.762,-37.8478 628.938,-35.619 646.695,-33.6575"/>
<polygon fill="midnightblue" stroke="midnightblue" points="647.286,-37.1136 656.841,-32.5367 646.518,-30.1559 647.286,-37.1136"/>
</g>
<!-- Node16&#45;&gt;Node13 -->
<g id="edge21" class="edge"><title>Node16&#45;&gt;Node13</title>
<path fill="none" stroke="midnightblue" d="M577.358,-56.6072C584.578,-59.0728 591.678,-62.1664 598,-66.0453 634.686,-88.5566 665.521,-128.766 682.739,-154.386"/>
<polygon fill="midnightblue" stroke="midnightblue" points="679.838,-156.344 688.249,-162.786 685.691,-152.505 679.838,-156.344"/>
</g>
<!-- Node18&#45;&gt;Node4 -->
<g id="edge27" class="edge"><title>Node18&#45;&gt;Node4</title>
<path fill="none" stroke="midnightblue" d="M588.57,-560.378C608.308,-559.231 629.785,-557.982 648.412,-556.899"/>
<polygon fill="midnightblue" stroke="midnightblue" points="648.657,-560.391 658.437,-556.316 648.251,-553.403 648.657,-560.391"/>
</g>
<!-- Node19&#45;&gt;Node11 -->
<g id="edge30" class="edge"><title>Node19&#45;&gt;Node11</title>
<path fill="none" stroke="midnightblue" d="M390.333,-526.045C409.658,-526.045 432.768,-526.045 454.27,-526.045"/>
<polygon fill="midnightblue" stroke="midnightblue" points="454.343,-529.545 464.343,-526.045 454.343,-522.545 454.343,-529.545"/>
</g>
</g>
</svg>
