<?xml version="1.0" encoding="UTF-8" standalone="no"?>
<!DOCTYPE svg PUBLIC "-//W3C//DTD SVG 1.1//EN"
 "http://www.w3.org/Graphics/SVG/1.1/DTD/svg11.dtd">
<!-- Generated by graphviz version 2.38.0 (20140413.2041)
 -->
<!-- Title: tds_process_dynamic Pages: 1 -->
<svg width="702pt" height="648pt"
 viewBox="0.00 0.00 702.00 648.00" xmlns="http://www.w3.org/2000/svg" xmlns:xlink="http://www.w3.org/1999/xlink">
<g id="graph0" class="graph" transform="scale(1 1) rotate(0) translate(4 644)">
<title>tds_process_dynamic</title>
<polygon fill="white" stroke="none" points="-4,4 -4,-644 698,-644 698,4 -4,4"/>
<!-- Node1 -->
<g id="node1" class="node"><title>Node1</title>
<polygon fill="#bfbfbf" stroke="black" points="0,-392.5 0,-411.5 119,-411.5 119,-392.5 0,-392.5"/>
<text text-anchor="middle" x="59.5" y="-399.5" font-family="Helvetica,sans-Serif" font-size="10.00">tds_process_dynamic</text>
</g>
<!-- Node2 -->
<g id="node2" class="node"><title>Node2</title>
<g id="a_node2"><a xlink:href="a00359.html#gabfc9de1d1fe718818caf63a4be4035a6" target="_top" xlink:title="process all streams. ">
<polygon fill="white" stroke="black" points="155,-392.5 155,-411.5 267,-411.5 267,-392.5 155,-392.5"/>
<text text-anchor="middle" x="211" y="-399.5" font-family="Helvetica,sans-Serif" font-size="10.00">tds_process_tokens</text>
</a>
</g>
</g>
<!-- Node1&#45;&gt;Node2 -->
<g id="edge1" class="edge"><title>Node1&#45;&gt;Node2</title>
<path fill="none" stroke="midnightblue" d="M129.201,-402C137.824,-402 146.554,-402 154.929,-402"/>
<polygon fill="midnightblue" stroke="midnightblue" points="129.157,-398.5 119.157,-402 129.157,-405.5 129.157,-398.5"/>
</g>
<!-- Node3 -->
<g id="node3" class="node"><title>Node3</title>
<g id="a_node3"><a xlink:href="a00344.html#gae67546338cb9542a4902aa914f57f314" target="_top" xlink:title="_bcp_exec_out">
<polygon fill="white" stroke="black" points="314.5,-620.5 314.5,-639.5 402.5,-639.5 402.5,-620.5 314.5,-620.5"/>
<text text-anchor="middle" x="358.5" y="-627.5" font-family="Helvetica,sans-Serif" font-size="10.00">_bcp_exec_out</text>
</a>
</g>
</g>
<!-- Node2&#45;&gt;Node3 -->
<g id="edge2" class="edge"><title>Node2&#45;&gt;Node3</title>
<path fill="none" stroke="midnightblue" d="M215.171,-421.774C222.777,-462.852 245.855,-557.999 303,-611 307.188,-614.884 312.212,-617.98 317.494,-620.447"/>
<polygon fill="midnightblue" stroke="midnightblue" points="218.617,-421.165 213.454,-411.913 211.721,-422.365 218.617,-421.165"/>
</g>
<!-- Node5 -->
<g id="node5" class="node"><title>Node5</title>
<g id="a_node5"><a xlink:href="a00341.html#gaf1879b85e8238c015b9648d077665285" target="_top" xlink:title="_dbresults">
<polygon fill="white" stroke="black" points="326,-506.5 326,-525.5 391,-525.5 391,-506.5 326,-506.5"/>
<text text-anchor="middle" x="358.5" y="-513.5" font-family="Helvetica,sans-Serif" font-size="10.00">_dbresults</text>
</a>
</g>
</g>
<!-- Node2&#45;&gt;Node5 -->
<g id="edge4" class="edge"><title>Node2&#45;&gt;Node5</title>
<path fill="none" stroke="midnightblue" d="M224.674,-419.621C240.709,-440.747 270.217,-475.933 303,-497 309.912,-501.442 317.988,-504.988 325.773,-507.756"/>
<polygon fill="midnightblue" stroke="midnightblue" points="227.426,-417.456 218.656,-411.51 221.804,-421.627 227.426,-417.456"/>
</g>
<!-- Node8 -->
<g id="node8" class="node"><title>Node8</title>
<g id="a_node8"><a xlink:href="a00341.html#ga548153eb2eae76c48aa9d4b72258dc1c" target="_top" xlink:title="Send text or image data to the server. ">
<polygon fill="white" stroke="black" points="626,-449.5 626,-468.5 694,-468.5 694,-449.5 626,-449.5"/>
<text text-anchor="middle" x="660" y="-456.5" font-family="Helvetica,sans-Serif" font-size="10.00">dbwritetext</text>
</a>
</g>
</g>
<!-- Node2&#45;&gt;Node8 -->
<g id="edge18" class="edge"><title>Node2&#45;&gt;Node8</title>
<path fill="none" stroke="midnightblue" d="M277.343,-412.314C285.965,-413.598 294.691,-414.859 303,-416 421.419,-432.256 562.459,-448.316 625.578,-455.329"/>
<polygon fill="midnightblue" stroke="midnightblue" points="277.709,-408.83 267.299,-410.801 276.667,-415.751 277.709,-408.83"/>
</g>
<!-- Node9 -->
<g id="node9" class="node"><title>Node9</title>
<g id="a_node9"><a xlink:href="a00342.html#gaff09873008411a0573f6d1a9e6c7cf4b" target="_top" xlink:title="Get count of output parameters filled by a stored procedure. ">
<polygon fill="white" stroke="black" points="326,-190.5 326,-209.5 391,-209.5 391,-190.5 326,-190.5"/>
<text text-anchor="middle" x="358.5" y="-197.5" font-family="Helvetica,sans-Serif" font-size="10.00">dbnumrets</text>
</a>
</g>
</g>
<!-- Node2&#45;&gt;Node9 -->
<g id="edge8" class="edge"><title>Node2&#45;&gt;Node9</title>
<path fill="none" stroke="midnightblue" d="M225.031,-383.909C254.952,-342.369 327.751,-241.301 350.553,-209.645"/>
<polygon fill="midnightblue" stroke="midnightblue" points="222.022,-382.097 219.018,-392.257 227.702,-386.189 222.022,-382.097"/>
</g>
<!-- Node13 -->
<g id="node13" class="node"><title>Node13</title>
<g id="a_node13"><a xlink:href="a00341.html#gae1f50a6a2c31fda57cb481922b06841e" target="_top" xlink:title="Wait for results of a query from the server. ">
<polygon fill="white" stroke="black" points="332,-468.5 332,-487.5 385,-487.5 385,-468.5 332,-468.5"/>
<text text-anchor="middle" x="358.5" y="-475.5" font-family="Helvetica,sans-Serif" font-size="10.00">dbsqlok</text>
</a>
</g>
</g>
<!-- Node2&#45;&gt;Node13 -->
<g id="edge12" class="edge"><title>Node2&#45;&gt;Node13</title>
<path fill="none" stroke="midnightblue" d="M236.259,-416.783C254.377,-427.597 279.894,-442.35 303,-454 313.155,-459.12 324.645,-464.271 334.449,-468.481"/>
<polygon fill="midnightblue" stroke="midnightblue" points="237.884,-413.677 227.51,-411.525 234.278,-419.676 237.884,-413.677"/>
</g>
<!-- Node15 -->
<g id="node15" class="node"><title>Node15</title>
<g id="a_node15"><a xlink:href="a00341.html#ga559e24ba70d0d96c3469eb6ab8f74e05" target="_top" xlink:title="Cancel the query currently being retrieved, discarding all pending rows. ">
<polygon fill="white" stroke="black" points="323,-582.5 323,-601.5 394,-601.5 394,-582.5 323,-582.5"/>
<text text-anchor="middle" x="358.5" y="-589.5" font-family="Helvetica,sans-Serif" font-size="10.00">dbcanquery</text>
</a>
</g>
</g>
<!-- Node2&#45;&gt;Node15 -->
<g id="edge16" class="edge"><title>Node2&#45;&gt;Node15</title>
<path fill="none" stroke="midnightblue" d="M217.288,-421.726C227.748,-457.058 254.385,-531.332 303,-573 308.706,-577.891 315.747,-581.547 322.85,-584.271"/>
<polygon fill="midnightblue" stroke="midnightblue" points="220.545,-420.381 214.453,-411.713 213.809,-422.288 220.545,-420.381"/>
</g>
<!-- Node16 -->
<g id="node16" class="node"><title>Node16</title>
<g id="a_node16"><a xlink:href="a00341.html#gadd5685565c8c6c86079e17b8a73b324c" target="_top" xlink:title="Fetch part of a text or image value from the server. ">
<polygon fill="white" stroke="black" points="325,-152.5 325,-171.5 392,-171.5 392,-152.5 325,-152.5"/>
<text text-anchor="middle" x="358.5" y="-159.5" font-family="Helvetica,sans-Serif" font-size="10.00">dbreadtext</text>
</a>
</g>
</g>
<!-- Node2&#45;&gt;Node16 -->
<g id="edge19" class="edge"><title>Node2&#45;&gt;Node16</title>
<path fill="none" stroke="midnightblue" d="M214.585,-382.579C221.261,-340.02 242.965,-237.812 303,-181 309.041,-175.284 316.893,-171.277 324.748,-168.472"/>
<polygon fill="midnightblue" stroke="midnightblue" points="211.121,-382.084 213.139,-392.484 218.047,-383.095 211.121,-382.084"/>
</g>
<!-- Node17 -->
<g id="node17" class="node"><title>Node17</title>
<g id="a_node17"><a xlink:href="a00341.html#gac980139b9cea03cf93e373d425991481" target="_top" xlink:title="Transmit the command buffer to the server. ">
<polygon fill="white" stroke="black" points="326,-544.5 326,-563.5 391,-563.5 391,-544.5 326,-544.5"/>
<text text-anchor="middle" x="358.5" y="-551.5" font-family="Helvetica,sans-Serif" font-size="10.00">dbsqlsend</text>
</a>
</g>
</g>
<!-- Node2&#45;&gt;Node17 -->
<g id="edge20" class="edge"><title>Node2&#45;&gt;Node17</title>
<path fill="none" stroke="midnightblue" d="M220.151,-420.885C233.442,-449.545 262.431,-503.96 303,-535 309.685,-540.115 317.851,-543.918 325.806,-546.721"/>
<polygon fill="midnightblue" stroke="midnightblue" points="223.263,-419.271 215.972,-411.583 216.877,-422.139 223.263,-419.271"/>
</g>
<!-- Node18 -->
<g id="node18" class="node"><title>Node18</title>
<g id="a_node18"><a xlink:href="a00356.html#gaf0da49585d39e99780a004ee2ca23479" target="_top" xlink:title="Send option commands to server. ">
<polygon fill="white" stroke="black" points="459.5,-392.5 459.5,-411.5 580.5,-411.5 580.5,-392.5 459.5,-392.5"/>
<text text-anchor="middle" x="520" y="-399.5" font-family="Helvetica,sans-Serif" font-size="10.00">tds_submit_optioncmd</text>
</a>
</g>
</g>
<!-- Node2&#45;&gt;Node18 -->
<g id="edge22" class="edge"><title>Node2&#45;&gt;Node18</title>
<path fill="none" stroke="midnightblue" d="M277.384,-402C331.327,-402 407.224,-402 459.487,-402"/>
<polygon fill="midnightblue" stroke="midnightblue" points="277.24,-398.5 267.24,-402 277.24,-405.5 277.24,-398.5"/>
</g>
<!-- Node19 -->
<g id="node19" class="node"><title>Node19</title>
<g id="a_node19"><a xlink:href="a00193.html#ac6610c72bd31bad5378f760fa9b12d66" target="_top" xlink:title="Initialize BCP information. ">
<polygon fill="white" stroke="black" points="322,-109.5 322,-128.5 395,-128.5 395,-109.5 322,-109.5"/>
<text text-anchor="middle" x="358.5" y="-116.5" font-family="Helvetica,sans-Serif" font-size="10.00">tds_bcp_init</text>
</a>
</g>
</g>
<!-- Node2&#45;&gt;Node19 -->
<g id="edge23" class="edge"><title>Node2&#45;&gt;Node19</title>
<path fill="none" stroke="midnightblue" d="M213.65,-382.268C218.603,-334.992 237.34,-213.916 303,-143 308.76,-136.779 316.421,-132.081 324.175,-128.569"/>
<polygon fill="midnightblue" stroke="midnightblue" points="210.15,-382.101 212.688,-392.388 217.119,-382.764 210.15,-382.101"/>
</g>
<!-- Node21 -->
<g id="node21" class="node"><title>Node21</title>
<g id="a_node21"><a xlink:href="a00359.html#ga55f27c3e05d42c9b07ace1c74b11c5ab" target="_top" xlink:title="Retrieve and set @spid. ">
<polygon fill="white" stroke="black" points="320,-62.5 320,-81.5 397,-81.5 397,-62.5 320,-62.5"/>
<text text-anchor="middle" x="358.5" y="-69.5" font-family="Helvetica,sans-Serif" font-size="10.00">tds_set_spid</text>
</a>
</g>
</g>
<!-- Node2&#45;&gt;Node21 -->
<g id="edge25" class="edge"><title>Node2&#45;&gt;Node21</title>
<path fill="none" stroke="midnightblue" d="M212.779,-382.156C215.82,-329.953 230.674,-186.844 303,-100 309.739,-91.9077 319.417,-85.8869 328.752,-81.5456"/>
<polygon fill="midnightblue" stroke="midnightblue" points="209.272,-382.216 212.272,-392.377 216.264,-382.563 209.272,-382.216"/>
</g>
<!-- Node23 -->
<g id="node23" class="node"><title>Node23</title>
<g id="a_node23"><a xlink:href="a00359.html#gaeeb1562044786ea17bea361ed83e6946" target="_top" xlink:title="Process results for simple query as &quot;SET TEXTSIZE&quot; or &quot;USE dbname&quot; If the statement returns results...">
<polygon fill="white" stroke="black" points="303.5,-327 303.5,-357 413.5,-357 413.5,-327 303.5,-327"/>
<text text-anchor="start" x="311.5" y="-345" font-family="Helvetica,sans-Serif" font-size="10.00">tds_process_simple</text>
<text text-anchor="middle" x="358.5" y="-334" font-family="Helvetica,sans-Serif" font-size="10.00">_query</text>
</a>
</g>
</g>
<!-- Node2&#45;&gt;Node23 -->
<g id="edge27" class="edge"><title>Node2&#45;&gt;Node23</title>
<path fill="none" stroke="midnightblue" d="M244.57,-388.569C267.229,-379.225 297.465,-366.757 320.949,-357.073"/>
<polygon fill="midnightblue" stroke="midnightblue" points="242.965,-385.445 235.055,-392.493 245.634,-391.916 242.965,-385.445"/>
</g>
<!-- Node28 -->
<g id="node28" class="node"><title>Node28</title>
<g id="a_node28"><a xlink:href="a00359.html#gaf233e79967f82f4e0dd4d11524917a34" target="_top" xlink:title="tds_process_cancel">
<polygon fill="white" stroke="black" points="303,-5.5 303,-24.5 414,-24.5 414,-5.5 303,-5.5"/>
<text text-anchor="middle" x="358.5" y="-12.5" font-family="Helvetica,sans-Serif" font-size="10.00">tds_process_cancel</text>
</a>
</g>
</g>
<!-- Node2&#45;&gt;Node28 -->
<g id="edge34" class="edge"><title>Node2&#45;&gt;Node28</title>
<path fill="none" stroke="midnightblue" d="M212.492,-382.343C214.807,-325.93 227.991,-160.667 303,-53 311.572,-40.6964 325.492,-31.0894 337.118,-24.6131"/>
<polygon fill="midnightblue" stroke="midnightblue" points="208.992,-382.286 212.152,-392.399 215.988,-382.523 208.992,-382.286"/>
</g>
<!-- Node4 -->
<g id="node4" class="node"><title>Node4</title>
<g id="a_node4"><a xlink:href="a00343.html#ga7a184158b27a50f713e9cfae3b746209" target="_top" xlink:title="Write a datafile to a table. ">
<polygon fill="white" stroke="black" points="489,-620.5 489,-639.5 551,-639.5 551,-620.5 489,-620.5"/>
<text text-anchor="middle" x="520" y="-627.5" font-family="Helvetica,sans-Serif" font-size="10.00">bcp_exec</text>
</a>
</g>
</g>
<!-- Node3&#45;&gt;Node4 -->
<g id="edge3" class="edge"><title>Node3&#45;&gt;Node4</title>
<path fill="none" stroke="midnightblue" d="M412.874,-630C438.205,-630 467.536,-630 488.935,-630"/>
<polygon fill="midnightblue" stroke="midnightblue" points="412.663,-626.5 402.663,-630 412.663,-633.5 412.663,-626.5"/>
</g>
<!-- Node6 -->
<g id="node6" class="node"><title>Node6</title>
<g id="a_node6"><a xlink:href="a00341.html#ga4e26d949be2c3bf71b1a33c75b11d931" target="_top" xlink:title="Set up query results. ">
<polygon fill="white" stroke="black" points="490.5,-506.5 490.5,-525.5 549.5,-525.5 549.5,-506.5 490.5,-506.5"/>
<text text-anchor="middle" x="520" y="-513.5" font-family="Helvetica,sans-Serif" font-size="10.00">dbresults</text>
</a>
</g>
</g>
<!-- Node5&#45;&gt;Node6 -->
<g id="edge5" class="edge"><title>Node5&#45;&gt;Node6</title>
<path fill="none" stroke="midnightblue" d="M401.337,-516C429.428,-516 465.698,-516 490.498,-516"/>
<polygon fill="midnightblue" stroke="midnightblue" points="401.012,-512.5 391.012,-516 401.012,-519.5 401.012,-512.5"/>
</g>
<!-- Node7 -->
<g id="node7" class="node"><title>Node7</title>
<g id="a_node7"><a xlink:href="a00341.html#ga66ea891910f0a357cc78107d6ab7d962" target="_top" xlink:title="Change current database. ">
<polygon fill="white" stroke="black" points="638,-544.5 638,-563.5 682,-563.5 682,-544.5 638,-544.5"/>
<text text-anchor="middle" x="660" y="-551.5" font-family="Helvetica,sans-Serif" font-size="10.00">dbuse</text>
</a>
</g>
</g>
<!-- Node6&#45;&gt;Node7 -->
<g id="edge6" class="edge"><title>Node6&#45;&gt;Node7</title>
<path fill="none" stroke="midnightblue" d="M559.26,-526.535C584.562,-533.503 616.795,-542.378 637.66,-548.124"/>
<polygon fill="midnightblue" stroke="midnightblue" points="560.164,-523.154 549.594,-523.874 558.306,-529.903 560.164,-523.154"/>
</g>
<!-- Node6&#45;&gt;Node8 -->
<g id="edge7" class="edge"><title>Node6&#45;&gt;Node8</title>
<path fill="none" stroke="midnightblue" d="M559.517,-503.453C569.525,-499.961 580.236,-496.018 590,-492 607.437,-484.824 626.759,-475.455 640.511,-468.535"/>
<polygon fill="midnightblue" stroke="midnightblue" points="558.129,-500.228 549.803,-506.78 560.397,-506.851 558.129,-500.228"/>
</g>
<!-- Node10 -->
<g id="node10" class="node"><title>Node10</title>
<g id="a_node10"><a xlink:href="a00342.html#ga0311328d63bae5d9bd5aea5ea4914223" target="_top" xlink:title="Get name of an output parameter filled by a stored procedure. ">
<polygon fill="white" stroke="black" points="486.5,-190.5 486.5,-209.5 553.5,-209.5 553.5,-190.5 486.5,-190.5"/>
<text text-anchor="middle" x="520" y="-197.5" font-family="Helvetica,sans-Serif" font-size="10.00">dbretname</text>
</a>
</g>
</g>
<!-- Node9&#45;&gt;Node10 -->
<g id="edge9" class="edge"><title>Node9&#45;&gt;Node10</title>
<path fill="none" stroke="midnightblue" d="M401.184,-200C427.808,-200 461.827,-200 486.458,-200"/>
<polygon fill="midnightblue" stroke="midnightblue" points="401.012,-196.5 391.012,-200 401.012,-203.5 401.012,-196.5"/>
</g>
<!-- Node11 -->
<g id="node11" class="node"><title>Node11</title>
<g id="a_node11"><a xlink:href="a00342.html#ga42e187003b74fec6e9ca92d410bfb9c0" target="_top" xlink:title="Get value of an output parameter filled by a stored procedure. ">
<polygon fill="white" stroke="black" points="489,-152.5 489,-171.5 551,-171.5 551,-152.5 489,-152.5"/>
<text text-anchor="middle" x="520" y="-159.5" font-family="Helvetica,sans-Serif" font-size="10.00">dbretdata</text>
</a>
</g>
</g>
<!-- Node9&#45;&gt;Node11 -->
<g id="edge10" class="edge"><title>Node9&#45;&gt;Node11</title>
<path fill="none" stroke="midnightblue" d="M400.771,-190.167C428.346,-183.598 463.993,-175.105 488.904,-169.17"/>
<polygon fill="midnightblue" stroke="midnightblue" points="399.929,-186.77 391.012,-192.492 401.551,-193.579 399.929,-186.77"/>
</g>
<!-- Node12 -->
<g id="node12" class="node"><title>Node12</title>
<g id="a_node12"><a xlink:href="a00342.html#gab705bf94be535e9d8fc4edc0f48c98b0" target="_top" xlink:title="Get size of an output parameter filled by a stored procedure. ">
<polygon fill="white" stroke="black" points="492.5,-114.5 492.5,-133.5 547.5,-133.5 547.5,-114.5 492.5,-114.5"/>
<text text-anchor="middle" x="520" y="-121.5" font-family="Helvetica,sans-Serif" font-size="10.00">dbretlen</text>
</a>
</g>
</g>
<!-- Node9&#45;&gt;Node12 -->
<g id="edge11" class="edge"><title>Node9&#45;&gt;Node12</title>
<path fill="none" stroke="midnightblue" d="M400.776,-188.012C405.393,-185.977 409.903,-183.649 414,-181 433.537,-168.369 430.053,-154.972 450,-143 462.891,-135.263 479.011,-130.595 492.427,-127.824"/>
<polygon fill="midnightblue" stroke="midnightblue" points="399.255,-184.849 391.244,-191.782 401.83,-191.358 399.255,-184.849"/>
</g>
<!-- Node13&#45;&gt;Node8 -->
<g id="edge15" class="edge"><title>Node13&#45;&gt;Node8</title>
<path fill="none" stroke="midnightblue" d="M395.275,-475.73C453.803,-472.018 569.171,-464.699 625.907,-461.099"/>
<polygon fill="midnightblue" stroke="midnightblue" points="394.794,-472.254 385.035,-476.38 395.237,-479.24 394.794,-472.254"/>
</g>
<!-- Node14 -->
<g id="node14" class="node"><title>Node14</title>
<g id="a_node14"><a xlink:href="a00341.html#gaae889abeb145ec41f7361aa8f597fe46" target="_top" xlink:title="send the SQL command to the server and wait for an answer. ">
<polygon fill="white" stroke="black" points="488,-544.5 488,-563.5 552,-563.5 552,-544.5 488,-544.5"/>
<text text-anchor="middle" x="520" y="-551.5" font-family="Helvetica,sans-Serif" font-size="10.00">dbsqlexec</text>
</a>
</g>
</g>
<!-- Node13&#45;&gt;Node14 -->
<g id="edge13" class="edge"><title>Node13&#45;&gt;Node14</title>
<path fill="none" stroke="midnightblue" d="M394.711,-487.498C401.39,-490.057 408.12,-493.199 414,-497 433.537,-509.631 430.053,-523.028 450,-535 461.399,-541.842 475.324,-546.283 487.671,-549.136"/>
<polygon fill="midnightblue" stroke="midnightblue" points="395.663,-484.124 385.069,-484.157 393.372,-490.738 395.663,-484.124"/>
</g>
<!-- Node14&#45;&gt;Node7 -->
<g id="edge14" class="edge"><title>Node14&#45;&gt;Node7</title>
<path fill="none" stroke="midnightblue" d="M562.535,-554C587.297,-554 617.699,-554 637.674,-554"/>
<polygon fill="midnightblue" stroke="midnightblue" points="562.314,-550.5 552.314,-554 562.314,-557.5 562.314,-550.5"/>
</g>
<!-- Node15&#45;&gt;Node7 -->
<g id="edge17" class="edge"><title>Node15&#45;&gt;Node7</title>
<path fill="none" stroke="midnightblue" d="M404.206,-590.781C450.878,-588.935 526.044,-584.339 590,-573 606.272,-570.115 624.26,-565.099 637.789,-560.946"/>
<polygon fill="midnightblue" stroke="midnightblue" points="403.986,-587.287 394.123,-591.155 404.246,-594.282 403.986,-587.287"/>
</g>
<!-- Node17&#45;&gt;Node14 -->
<g id="edge21" class="edge"><title>Node17&#45;&gt;Node14</title>
<path fill="none" stroke="midnightblue" d="M401.359,-554C428.453,-554 463.15,-554 487.825,-554"/>
<polygon fill="midnightblue" stroke="midnightblue" points="401.012,-550.5 391.012,-554 401.012,-557.5 401.012,-550.5"/>
</g>
<!-- Node20 -->
<g id="node20" class="node"><title>Node20</title>
<g id="a_node20"><a xlink:href="a00343.html#gada8e987c4a6225b9276c05ba3a4f47a0" target="_top" xlink:title="Prepare for bulk copy operation on a table. ">
<polygon fill="white" stroke="black" points="493.5,-76.5 493.5,-95.5 546.5,-95.5 546.5,-76.5 493.5,-76.5"/>
<text text-anchor="middle" x="520" y="-83.5" font-family="Helvetica,sans-Serif" font-size="10.00">bcp_init</text>
</a>
</g>
</g>
<!-- Node19&#45;&gt;Node20 -->
<g id="edge24" class="edge"><title>Node19&#45;&gt;Node20</title>
<path fill="none" stroke="midnightblue" d="M405.45,-109.493C433.98,-103.59 469.592,-96.2223 493.249,-91.3278"/>
<polygon fill="midnightblue" stroke="midnightblue" points="404.378,-106.141 395.295,-111.594 405.797,-112.995 404.378,-106.141"/>
</g>
<!-- Node22 -->
<g id="node22" class="node"><title>Node22</title>
<g id="a_node22"><a xlink:href="a00359.html#ga93945b42d45ee28ae1296b35a1c1e9bb" target="_top" xlink:title="tds_process_login_tokens() is called after sending the login packet to the server. ">
<polygon fill="white" stroke="black" points="450,-38.5 450,-57.5 590,-57.5 590,-38.5 450,-38.5"/>
<text text-anchor="middle" x="520" y="-45.5" font-family="Helvetica,sans-Serif" font-size="10.00">tds_process_login_tokens</text>
</a>
</g>
</g>
<!-- Node21&#45;&gt;Node22 -->
<g id="edge26" class="edge"><title>Node21&#45;&gt;Node22</title>
<path fill="none" stroke="midnightblue" d="M407.452,-64.7846C422.589,-62.507 439.553,-59.9545 455.594,-57.5407"/>
<polygon fill="midnightblue" stroke="midnightblue" points="406.667,-61.3633 397.299,-66.3123 407.709,-68.2853 406.667,-61.3633"/>
</g>
<!-- Node23&#45;&gt;Node18 -->
<g id="edge28" class="edge"><title>Node23&#45;&gt;Node18</title>
<path fill="none" stroke="midnightblue" d="M398.961,-361.501C414.623,-368.81 432.94,-376.83 450,-383 459.581,-386.465 470.104,-389.66 479.982,-392.402"/>
<polygon fill="midnightblue" stroke="midnightblue" points="400.124,-358.179 389.588,-357.065 397.129,-364.506 400.124,-358.179"/>
</g>
<!-- Node24 -->
<g id="node24" class="node"><title>Node24</title>
<g id="a_node24"><a xlink:href="a00193.html#ade7df2db455b61edc83819ad60edb339" target="_top" xlink:title="Tell we finished sending BCP data to server. ">
<polygon fill="white" stroke="red" points="478.5,-316.5 478.5,-335.5 561.5,-335.5 561.5,-316.5 478.5,-316.5"/>
<text text-anchor="middle" x="520" y="-323.5" font-family="Helvetica,sans-Serif" font-size="10.00">tds_bcp_done</text>
</a>
</g>
</g>
<!-- Node23&#45;&gt;Node24 -->
<g id="edge29" class="edge"><title>Node23&#45;&gt;Node24</title>
<path fill="none" stroke="midnightblue" d="M424.011,-335.529C442.385,-333.686 461.879,-331.73 478.395,-330.073"/>
<polygon fill="midnightblue" stroke="midnightblue" points="423.545,-332.058 413.945,-336.538 424.244,-339.023 423.545,-332.058"/>
</g>
<!-- Node25 -->
<g id="node25" class="node"><title>Node25</title>
<g id="a_node25"><a xlink:href="a00193.html#a8208eef2a3974ae1f0cf3c8c8ab011ce" target="_top" xlink:title="Start sending BCP data to server. ">
<polygon fill="white" stroke="red" points="480,-278.5 480,-297.5 560,-297.5 560,-278.5 480,-278.5"/>
<text text-anchor="middle" x="520" y="-285.5" font-family="Helvetica,sans-Serif" font-size="10.00">tds_bcp_start</text>
</a>
</g>
</g>
<!-- Node23&#45;&gt;Node25 -->
<g id="edge30" class="edge"><title>Node23&#45;&gt;Node25</title>
<path fill="none" stroke="midnightblue" d="M405.682,-323.113C419.8,-317.617 435.443,-311.806 450,-307 460.147,-303.65 471.263,-300.407 481.553,-297.576"/>
<polygon fill="midnightblue" stroke="midnightblue" points="404.208,-319.931 396.184,-326.85 406.771,-326.445 404.208,-319.931"/>
</g>
<!-- Node26 -->
<g id="node26" class="node"><title>Node26</title>
<g id="a_node26"><a xlink:href="a00193.html#a7711612cc544a7da2c7aa212b870acb2" target="_top" xlink:title="Start writing writetext request. ">
<polygon fill="white" stroke="black" points="468,-354.5 468,-373.5 572,-373.5 572,-354.5 468,-354.5"/>
<text text-anchor="middle" x="520" y="-361.5" font-family="Helvetica,sans-Serif" font-size="10.00">tds_writetext_start</text>
</a>
</g>
</g>
<!-- Node23&#45;&gt;Node26 -->
<g id="edge31" class="edge"><title>Node23&#45;&gt;Node26</title>
<path fill="none" stroke="midnightblue" d="M423.906,-350.884C438.496,-352.896 453.798,-355.007 467.757,-356.932"/>
<polygon fill="midnightblue" stroke="midnightblue" points="424.329,-347.409 413.945,-349.51 423.373,-354.343 424.329,-347.409"/>
</g>
<!-- Node27 -->
<g id="node27" class="node"><title>Node27</title>
<g id="a_node27"><a xlink:href="a00359.html#ga69902dffb299d62a799888e0fa3ccd68" target="_top" xlink:title="Attempt to close all deferred closes (dynamics and cursors). ">
<polygon fill="white" stroke="red" points="460.5,-229 460.5,-259 579.5,-259 579.5,-229 460.5,-229"/>
<text text-anchor="start" x="468.5" y="-247" font-family="Helvetica,sans-Serif" font-size="10.00">tds_process_pending</text>
<text text-anchor="middle" x="520" y="-236" font-family="Helvetica,sans-Serif" font-size="10.00">_closes</text>
</a>
</g>
</g>
<!-- Node23&#45;&gt;Node27 -->
<g id="edge33" class="edge"><title>Node23&#45;&gt;Node27</title>
<path fill="none" stroke="midnightblue" d="M382.419,-319.91C399.837,-304.059 424.99,-283.095 450,-269 456.549,-265.309 463.744,-261.992 470.94,-259.072"/>
<polygon fill="midnightblue" stroke="midnightblue" points="379.949,-317.427 374.989,-326.79 384.705,-322.564 379.949,-317.427"/>
</g>
<!-- Node26&#45;&gt;Node8 -->
<g id="edge32" class="edge"><title>Node26&#45;&gt;Node8</title>
<path fill="none" stroke="midnightblue" d="M579.162,-377.36C582.934,-379.028 586.585,-380.901 590,-383 618.542,-400.545 642.375,-433.308 653.023,-449.476"/>
<polygon fill="midnightblue" stroke="midnightblue" points="580.187,-374.003 569.6,-373.617 577.636,-380.521 580.187,-374.003"/>
</g>
<!-- Node29 -->
<g id="node29" class="node"><title>Node29</title>
<g id="a_node29"><a xlink:href="a00341.html#ga5ea23272124fff03b8d87538c1ec3ee5" target="_top" xlink:title="Cancel the current command batch. ">
<polygon fill="white" stroke="black" points="490.5,-0.5 490.5,-19.5 549.5,-19.5 549.5,-0.5 490.5,-0.5"/>
<text text-anchor="middle" x="520" y="-7.5" font-family="Helvetica,sans-Serif" font-size="10.00">dbcancel</text>
</a>
</g>
</g>
<!-- Node28&#45;&gt;Node29 -->
<g id="edge35" class="edge"><title>Node28&#45;&gt;Node29</title>
<path fill="none" stroke="midnightblue" d="M424.451,-12.9639C447.421,-12.2438 472.089,-11.4706 490.467,-10.8944"/>
<polygon fill="midnightblue" stroke="midnightblue" points="424.276,-9.46758 414.391,-13.2793 424.496,-16.4641 424.276,-9.46758"/>
</g>
</g>
</svg>
