<?xml version="1.0" encoding="UTF-8" standalone="no"?>
<!DOCTYPE svg PUBLIC "-//W3C//DTD SVG 1.1//EN"
 "http://www.w3.org/Graphics/SVG/1.1/DTD/svg11.dtd">
<!-- Generated by graphviz version 2.38.0 (20140413.2041)
 -->
<!-- Title: dbwillconvert Pages: 1 -->
<svg width="320pt" height="47pt"
 viewBox="0.00 0.00 320.00 47.00" xmlns="http://www.w3.org/2000/svg" xmlns:xlink="http://www.w3.org/1999/xlink">
<g id="graph0" class="graph" transform="scale(1 1) rotate(0) translate(4 43)">
<title>dbwillconvert</title>
<polygon fill="white" stroke="none" points="-4,4 -4,-43 316,-43 316,4 -4,4"/>
<!-- Node1 -->
<g id="node1" class="node"><title>Node1</title>
<polygon fill="#bfbfbf" stroke="black" points="0,-19.5 0,-38.5 77,-38.5 77,-19.5 0,-19.5"/>
<text text-anchor="middle" x="38.5" y="-26.5" font-family="Helvetica,sans-Serif" font-size="10.00">dbwillconvert</text>
</g>
<!-- Node2 -->
<g id="node2" class="node"><title>Node2</title>
<g id="a_node2"><a xlink:href="a00193.html#ab45c291105027e69836002e1dd586141" target="_top" xlink:title="Write a message to the debug log. ">
<polygon fill="white" stroke="black" points="235,-19.5 235,-38.5 312,-38.5 312,-19.5 235,-19.5"/>
<text text-anchor="middle" x="273.5" y="-26.5" font-family="Helvetica,sans-Serif" font-size="10.00">tdsdump_log</text>
</a>
</g>
</g>
<!-- Node1&#45;&gt;Node2 -->
<g id="edge1" class="edge"><title>Node1&#45;&gt;Node2</title>
<path fill="none" stroke="midnightblue" d="M77.1944,-29C117.378,-29 181.108,-29 224.769,-29"/>
<polygon fill="midnightblue" stroke="midnightblue" points="224.86,-32.5001 234.86,-29 224.86,-25.5001 224.86,-32.5001"/>
</g>
<!-- Node3 -->
<g id="node3" class="node"><title>Node3</title>
<g id="a_node3"><a xlink:href="a00353.html#ga80487b313213f60d8be71a50a002bb2c" target="_top" xlink:title="Test if a conversion is possible. ">
<polygon fill="white" stroke="black" points="113,-0.5 113,-19.5 199,-19.5 199,-0.5 113,-0.5"/>
<text text-anchor="middle" x="156" y="-7.5" font-family="Helvetica,sans-Serif" font-size="10.00">tds_willconvert</text>
</a>
</g>
</g>
<!-- Node1&#45;&gt;Node3 -->
<g id="edge2" class="edge"><title>Node1&#45;&gt;Node3</title>
<path fill="none" stroke="midnightblue" d="M77.319,-22.7787C85.4524,-21.4407 94.1869,-20.0039 102.758,-18.5939"/>
<polygon fill="midnightblue" stroke="midnightblue" points="103.4,-22.0355 112.699,-16.9586 102.264,-15.1283 103.4,-22.0355"/>
</g>
<!-- Node3&#45;&gt;Node2 -->
<g id="edge3" class="edge"><title>Node3&#45;&gt;Node2</title>
<path fill="none" stroke="midnightblue" d="M199.025,-16.9132C207.462,-18.3012 216.385,-19.7689 224.993,-21.185"/>
<polygon fill="midnightblue" stroke="midnightblue" points="224.471,-24.6462 234.907,-22.8159 225.608,-17.739 224.471,-24.6462"/>
</g>
</g>
</svg>
