<?xml version="1.0" encoding="UTF-8" standalone="no"?>
<!DOCTYPE svg PUBLIC "-//W3C//DTD SVG 1.1//EN"
 "http://www.w3.org/Graphics/SVG/1.1/DTD/svg11.dtd">
<!-- Generated by graphviz version 2.38.0 (20140413.2041)
 -->
<!-- Title: tds5_process_optioncmd Pages: 1 -->
<svg width="898pt" height="516pt"
 viewBox="0.00 0.00 898.00 516.33" xmlns="http://www.w3.org/2000/svg" xmlns:xlink="http://www.w3.org/1999/xlink">
<g id="graph0" class="graph" transform="scale(1 1) rotate(0) translate(4 512.333)">
<title>tds5_process_optioncmd</title>
<polygon fill="white" stroke="none" points="-4,4 -4,-512.333 894,-512.333 894,4 -4,4"/>
<!-- Node1 -->
<g id="node1" class="node"><title>Node1</title>
<polygon fill="#bfbfbf" stroke="black" points="0,-278.5 0,-297.5 135,-297.5 135,-278.5 0,-278.5"/>
<text text-anchor="middle" x="67.5" y="-285.5" font-family="Helvetica,sans-Serif" font-size="10.00">tds5_process_optioncmd</text>
</g>
<!-- Node2 -->
<g id="node2" class="node"><title>Node2</title>
<g id="a_node2"><a xlink:href="a00359.html#ga39453d084f3f780ac4602d4abf2839f7" target="_top" xlink:title="tds_process_default_tokens() is a catch all function that is called to process tokens not known to ot...">
<polygon fill="white" stroke="black" points="171,-273 171,-303 283,-303 283,-273 171,-273"/>
<text text-anchor="start" x="179" y="-291" font-family="Helvetica,sans-Serif" font-size="10.00">tds_process_default</text>
<text text-anchor="middle" x="227" y="-280" font-family="Helvetica,sans-Serif" font-size="10.00">_tokens</text>
</a>
</g>
</g>
<!-- Node1&#45;&gt;Node2 -->
<g id="edge1" class="edge"><title>Node1&#45;&gt;Node2</title>
<path fill="none" stroke="midnightblue" d="M145.538,-288C153.968,-288 162.424,-288 170.52,-288"/>
<polygon fill="midnightblue" stroke="midnightblue" points="145.294,-284.5 135.294,-288 145.294,-291.5 145.294,-284.5"/>
</g>
<!-- Node3 -->
<g id="node3" class="node"><title>Node3</title>
<g id="a_node3"><a xlink:href="a00359.html#ga93945b42d45ee28ae1296b35a1c1e9bb" target="_top" xlink:title="tds_process_login_tokens() is called after sending the login packet to the server. ">
<polygon fill="white" stroke="black" points="750,-487.5 750,-506.5 890,-506.5 890,-487.5 750,-487.5"/>
<text text-anchor="middle" x="820" y="-494.5" font-family="Helvetica,sans-Serif" font-size="10.00">tds_process_login_tokens</text>
</a>
</g>
</g>
<!-- Node2&#45;&gt;Node3 -->
<g id="edge2" class="edge"><title>Node2&#45;&gt;Node3</title>
<path fill="none" stroke="midnightblue" d="M254.807,-309.435C313.583,-354.893 459.988,-459.838 603,-497 650.909,-509.449 706.84,-509.06 749.782,-505.762"/>
<polygon fill="midnightblue" stroke="midnightblue" points="256.819,-306.566 246.782,-303.175 252.514,-312.086 256.819,-306.566"/>
</g>
<!-- Node4 -->
<g id="node4" class="node"><title>Node4</title>
<g id="a_node4"><a xlink:href="a00359.html#gabfc9de1d1fe718818caf63a4be4035a6" target="_top" xlink:title="process all streams. ">
<polygon fill="white" stroke="black" points="455,-259.5 455,-278.5 567,-278.5 567,-259.5 455,-259.5"/>
<text text-anchor="middle" x="511" y="-266.5" font-family="Helvetica,sans-Serif" font-size="10.00">tds_process_tokens</text>
</a>
</g>
</g>
<!-- Node2&#45;&gt;Node4 -->
<g id="edge3" class="edge"><title>Node2&#45;&gt;Node4</title>
<path fill="none" stroke="midnightblue" d="M293.463,-291.317C330.416,-292.36 377.393,-292.297 419,-288 436.98,-286.143 456.646,-282.274 473.08,-278.509"/>
<polygon fill="midnightblue" stroke="midnightblue" points="293.424,-287.814 283.318,-290.997 293.203,-294.811 293.424,-287.814"/>
</g>
<!-- Node18 -->
<g id="node18" class="node"><title>Node18</title>
<g id="a_node18"><a xlink:href="a00359.html#ga81cdf0ed9e8d29cf1ddf66e18efc407d" target="_top" xlink:title="tds_process_msg() is called for MSG, ERR, or EED tokens and is responsible for calling the CLI&#39;s mess...">
<polygon fill="white" stroke="black" points="319,-259.5 319,-278.5 419,-278.5 419,-259.5 319,-259.5"/>
<text text-anchor="middle" x="369" y="-266.5" font-family="Helvetica,sans-Serif" font-size="10.00">tds_process_msg</text>
</a>
</g>
</g>
<!-- Node2&#45;&gt;Node18 -->
<g id="edge20" class="edge"><title>Node2&#45;&gt;Node18</title>
<path fill="none" stroke="midnightblue" d="M293.369,-272.392C301.983,-271.174 310.69,-270.08 318.967,-269.181"/>
<polygon fill="midnightblue" stroke="midnightblue" points="292.713,-268.95 283.332,-273.874 293.736,-275.875 292.713,-268.95"/>
</g>
<!-- Node5 -->
<g id="node5" class="node"><title>Node5</title>
<g id="a_node5"><a xlink:href="a00344.html#gae67546338cb9542a4902aa914f57f314" target="_top" xlink:title="_bcp_exec_out">
<polygon fill="white" stroke="red" points="614.5,-430.5 614.5,-449.5 702.5,-449.5 702.5,-430.5 614.5,-430.5"/>
<text text-anchor="middle" x="658.5" y="-437.5" font-family="Helvetica,sans-Serif" font-size="10.00">_bcp_exec_out</text>
</a>
</g>
</g>
<!-- Node4&#45;&gt;Node5 -->
<g id="edge4" class="edge"><title>Node4&#45;&gt;Node5</title>
<path fill="none" stroke="midnightblue" d="M518.573,-288.324C530.44,-320.404 558.431,-384.708 603,-421 607.74,-424.86 613.315,-427.959 619.059,-430.44"/>
<polygon fill="midnightblue" stroke="midnightblue" points="521.821,-287.011 515.166,-278.767 515.227,-289.362 521.821,-287.011"/>
</g>
<!-- Node6 -->
<g id="node6" class="node"><title>Node6</title>
<g id="a_node6"><a xlink:href="a00341.html#gaf1879b85e8238c015b9648d077665285" target="_top" xlink:title="_dbresults">
<polygon fill="white" stroke="red" points="626,-392.5 626,-411.5 691,-411.5 691,-392.5 626,-392.5"/>
<text text-anchor="middle" x="658.5" y="-399.5" font-family="Helvetica,sans-Serif" font-size="10.00">_dbresults</text>
</a>
</g>
</g>
<!-- Node4&#45;&gt;Node6 -->
<g id="edge5" class="edge"><title>Node4&#45;&gt;Node6</title>
<path fill="none" stroke="midnightblue" d="M522.309,-287.653C537.069,-312.733 566.513,-357.156 603,-383 609.787,-387.807 617.902,-391.494 625.77,-394.283"/>
<polygon fill="midnightblue" stroke="midnightblue" points="525.232,-285.714 517.225,-278.776 519.158,-289.193 525.232,-285.714"/>
</g>
<!-- Node7 -->
<g id="node7" class="node"><title>Node7</title>
<g id="a_node7"><a xlink:href="a00342.html#gaff09873008411a0573f6d1a9e6c7cf4b" target="_top" xlink:title="Get count of output parameters filled by a stored procedure. ">
<polygon fill="white" stroke="red" points="626,-354.5 626,-373.5 691,-373.5 691,-354.5 626,-354.5"/>
<text text-anchor="middle" x="658.5" y="-361.5" font-family="Helvetica,sans-Serif" font-size="10.00">dbnumrets</text>
</a>
</g>
</g>
<!-- Node4&#45;&gt;Node7 -->
<g id="edge6" class="edge"><title>Node4&#45;&gt;Node7</title>
<path fill="none" stroke="midnightblue" d="M530.387,-285.576C548.1,-300.987 576.097,-323.922 603,-340 612.229,-345.516 622.955,-350.511 632.437,-354.498"/>
<polygon fill="midnightblue" stroke="midnightblue" points="532.382,-282.669 522.568,-278.678 527.751,-287.918 532.382,-282.669"/>
</g>
<!-- Node8 -->
<g id="node8" class="node"><title>Node8</title>
<g id="a_node8"><a xlink:href="a00341.html#gae1f50a6a2c31fda57cb481922b06841e" target="_top" xlink:title="Wait for results of a query from the server. ">
<polygon fill="white" stroke="red" points="632,-278.5 632,-297.5 685,-297.5 685,-278.5 632,-278.5"/>
<text text-anchor="middle" x="658.5" y="-285.5" font-family="Helvetica,sans-Serif" font-size="10.00">dbsqlok</text>
</a>
</g>
</g>
<!-- Node4&#45;&gt;Node8 -->
<g id="edge7" class="edge"><title>Node4&#45;&gt;Node8</title>
<path fill="none" stroke="midnightblue" d="M577.024,-277.491C596.364,-280.017 616.44,-282.638 631.702,-284.631"/>
<polygon fill="midnightblue" stroke="midnightblue" points="577.376,-274.007 567.007,-276.183 576.47,-280.949 577.376,-274.007"/>
</g>
<!-- Node9 -->
<g id="node9" class="node"><title>Node9</title>
<g id="a_node9"><a xlink:href="a00341.html#ga548153eb2eae76c48aa9d4b72258dc1c" target="_top" xlink:title="Send text or image data to the server. ">
<polygon fill="white" stroke="black" points="786,-297.5 786,-316.5 854,-316.5 854,-297.5 786,-297.5"/>
<text text-anchor="middle" x="820" y="-304.5" font-family="Helvetica,sans-Serif" font-size="10.00">dbwritetext</text>
</a>
</g>
</g>
<!-- Node4&#45;&gt;Node9 -->
<g id="edge10" class="edge"><title>Node4&#45;&gt;Node9</title>
<path fill="none" stroke="midnightblue" d="M538.252,-283.235C555.97,-292.01 580.196,-302.43 603,-307 666.61,-319.748 742.89,-315.266 785.666,-311.02"/>
<polygon fill="midnightblue" stroke="midnightblue" points="539.626,-280.007 529.128,-278.577 536.443,-286.242 539.626,-280.007"/>
</g>
<!-- Node10 -->
<g id="node10" class="node"><title>Node10</title>
<g id="a_node10"><a xlink:href="a00341.html#ga559e24ba70d0d96c3469eb6ab8f74e05" target="_top" xlink:title="Cancel the query currently being retrieved, discarding all pending rows. ">
<polygon fill="white" stroke="red" points="623,-240.5 623,-259.5 694,-259.5 694,-240.5 623,-240.5"/>
<text text-anchor="middle" x="658.5" y="-247.5" font-family="Helvetica,sans-Serif" font-size="10.00">dbcanquery</text>
</a>
</g>
</g>
<!-- Node4&#45;&gt;Node10 -->
<g id="edge9" class="edge"><title>Node4&#45;&gt;Node10</title>
<path fill="none" stroke="midnightblue" d="M577.202,-260.486C592.865,-258.44 609,-256.333 622.661,-254.549"/>
<polygon fill="midnightblue" stroke="midnightblue" points="576.47,-257.051 567.007,-261.817 577.376,-263.993 576.47,-257.051"/>
</g>
<!-- Node11 -->
<g id="node11" class="node"><title>Node11</title>
<g id="a_node11"><a xlink:href="a00341.html#gadd5685565c8c6c86079e17b8a73b324c" target="_top" xlink:title="Fetch part of a text or image value from the server. ">
<polygon fill="white" stroke="black" points="625,-202.5 625,-221.5 692,-221.5 692,-202.5 625,-202.5"/>
<text text-anchor="middle" x="658.5" y="-209.5" font-family="Helvetica,sans-Serif" font-size="10.00">dbreadtext</text>
</a>
</g>
</g>
<!-- Node4&#45;&gt;Node11 -->
<g id="edge11" class="edge"><title>Node4&#45;&gt;Node11</title>
<path fill="none" stroke="midnightblue" d="M543.585,-255.261C561.006,-247.823 583.084,-238.622 603,-231 611.423,-227.777 620.659,-224.471 629.096,-221.54"/>
<polygon fill="midnightblue" stroke="midnightblue" points="541.725,-252.251 533.917,-259.412 544.487,-258.683 541.725,-252.251"/>
</g>
<!-- Node12 -->
<g id="node12" class="node"><title>Node12</title>
<g id="a_node12"><a xlink:href="a00341.html#gac980139b9cea03cf93e373d425991481" target="_top" xlink:title="Transmit the command buffer to the server. ">
<polygon fill="white" stroke="red" points="626,-164.5 626,-183.5 691,-183.5 691,-164.5 626,-164.5"/>
<text text-anchor="middle" x="658.5" y="-171.5" font-family="Helvetica,sans-Serif" font-size="10.00">dbsqlsend</text>
</a>
</g>
</g>
<!-- Node4&#45;&gt;Node12 -->
<g id="edge12" class="edge"><title>Node4&#45;&gt;Node12</title>
<path fill="none" stroke="midnightblue" d="M528.288,-252.214C545.504,-235.283 574.116,-209.371 603,-193 610.061,-188.998 618.11,-185.626 625.815,-182.887"/>
<polygon fill="midnightblue" stroke="midnightblue" points="525.808,-249.745 521.22,-259.295 530.762,-254.69 525.808,-249.745"/>
</g>
<!-- Node13 -->
<g id="node13" class="node"><title>Node13</title>
<g id="a_node13"><a xlink:href="a00356.html#gaf0da49585d39e99780a004ee2ca23479" target="_top" xlink:title="Send option commands to server. ">
<polygon fill="white" stroke="black" points="759.5,-104.5 759.5,-123.5 880.5,-123.5 880.5,-104.5 759.5,-104.5"/>
<text text-anchor="middle" x="820" y="-111.5" font-family="Helvetica,sans-Serif" font-size="10.00">tds_submit_optioncmd</text>
</a>
</g>
</g>
<!-- Node4&#45;&gt;Node13 -->
<g id="edge13" class="edge"><title>Node4&#45;&gt;Node13</title>
<path fill="none" stroke="midnightblue" d="M521.366,-250.322C535.372,-224.462 564.321,-178.309 603,-155 650.404,-126.433 713.404,-117.074 759.125,-114.328"/>
<polygon fill="midnightblue" stroke="midnightblue" points="518.126,-248.964 516.59,-259.447 524.328,-252.21 518.126,-248.964"/>
</g>
<!-- Node14 -->
<g id="node14" class="node"><title>Node14</title>
<g id="a_node14"><a xlink:href="a00193.html#ac6610c72bd31bad5378f760fa9b12d66" target="_top" xlink:title="Initialize BCP information. ">
<polygon fill="white" stroke="red" points="622,-38.5 622,-57.5 695,-57.5 695,-38.5 622,-38.5"/>
<text text-anchor="middle" x="658.5" y="-45.5" font-family="Helvetica,sans-Serif" font-size="10.00">tds_bcp_init</text>
</a>
</g>
</g>
<!-- Node4&#45;&gt;Node14 -->
<g id="edge14" class="edge"><title>Node4&#45;&gt;Node14</title>
<path fill="none" stroke="midnightblue" d="M515.478,-249.367C523.571,-209.372 547.374,-117.944 603,-67 608.321,-62.1273 614.959,-58.4926 621.754,-55.7849"/>
<polygon fill="midnightblue" stroke="midnightblue" points="511.998,-248.935 513.562,-259.414 518.874,-250.247 511.998,-248.935"/>
</g>
<!-- Node15 -->
<g id="node15" class="node"><title>Node15</title>
<g id="a_node15"><a xlink:href="a00359.html#ga55f27c3e05d42c9b07ace1c74b11c5ab" target="_top" xlink:title="Retrieve and set @spid. ">
<polygon fill="white" stroke="black" points="620,-468.5 620,-487.5 697,-487.5 697,-468.5 620,-468.5"/>
<text text-anchor="middle" x="658.5" y="-475.5" font-family="Helvetica,sans-Serif" font-size="10.00">tds_set_spid</text>
</a>
</g>
</g>
<!-- Node4&#45;&gt;Node15 -->
<g id="edge15" class="edge"><title>Node4&#45;&gt;Node15</title>
<path fill="none" stroke="midnightblue" d="M516.141,-288.792C525.161,-327.092 550.154,-411.727 603,-459 607.854,-463.342 613.757,-466.705 619.863,-469.304"/>
<polygon fill="midnightblue" stroke="midnightblue" points="519.523,-287.88 513.925,-278.885 512.692,-289.408 519.523,-287.88"/>
</g>
<!-- Node16 -->
<g id="node16" class="node"><title>Node16</title>
<g id="a_node16"><a xlink:href="a00359.html#gaeeb1562044786ea17bea361ed83e6946" target="_top" xlink:title="Process results for simple query as &quot;SET TEXTSIZE&quot; or &quot;USE dbname&quot; If the statement returns results...">
<polygon fill="white" stroke="red" points="603.5,-77 603.5,-107 713.5,-107 713.5,-77 603.5,-77"/>
<text text-anchor="start" x="611.5" y="-95" font-family="Helvetica,sans-Serif" font-size="10.00">tds_process_simple</text>
<text text-anchor="middle" x="658.5" y="-84" font-family="Helvetica,sans-Serif" font-size="10.00">_query</text>
</a>
</g>
</g>
<!-- Node4&#45;&gt;Node16 -->
<g id="edge17" class="edge"><title>Node4&#45;&gt;Node16</title>
<path fill="none" stroke="midnightblue" d="M519.985,-249.819C533.381,-219.515 562.903,-160.098 603,-122 609.029,-116.272 616.362,-111.275 623.668,-107.088"/>
<polygon fill="midnightblue" stroke="midnightblue" points="516.668,-248.673 515.928,-259.242 523.098,-251.441 516.668,-248.673"/>
</g>
<!-- Node17 -->
<g id="node17" class="node"><title>Node17</title>
<g id="a_node17"><a xlink:href="a00359.html#gaf233e79967f82f4e0dd4d11524917a34" target="_top" xlink:title="tds_process_cancel">
<polygon fill="white" stroke="red" points="603,-0.5 603,-19.5 714,-19.5 714,-0.5 603,-0.5"/>
<text text-anchor="middle" x="658.5" y="-7.5" font-family="Helvetica,sans-Serif" font-size="10.00">tds_process_cancel</text>
</a>
</g>
</g>
<!-- Node4&#45;&gt;Node17 -->
<g id="edge19" class="edge"><title>Node4&#45;&gt;Node17</title>
<path fill="none" stroke="midnightblue" d="M513.911,-249.156C519.329,-203.762 538.827,-91.4647 603,-29 607.021,-25.086 611.891,-21.9752 617.045,-19.5035"/>
<polygon fill="midnightblue" stroke="midnightblue" points="510.422,-248.864 512.819,-259.185 517.381,-249.622 510.422,-248.864"/>
</g>
<!-- Node8&#45;&gt;Node9 -->
<g id="edge8" class="edge"><title>Node8&#45;&gt;Node9</title>
<path fill="none" stroke="midnightblue" d="M695.371,-292.273C722.525,-295.508 759.532,-299.916 785.965,-303.065"/>
<polygon fill="midnightblue" stroke="midnightblue" points="695.47,-288.76 685.126,-291.053 694.642,-295.711 695.47,-288.76"/>
</g>
<!-- Node15&#45;&gt;Node3 -->
<g id="edge16" class="edge"><title>Node15&#45;&gt;Node3</title>
<path fill="none" stroke="midnightblue" d="M707.245,-483.687C720.661,-485.286 735.527,-487.056 749.92,-488.771"/>
<polygon fill="midnightblue" stroke="midnightblue" points="707.643,-480.21 697.299,-482.503 706.815,-487.161 707.643,-480.21"/>
</g>
<!-- Node16&#45;&gt;Node13 -->
<g id="edge18" class="edge"><title>Node16&#45;&gt;Node13</title>
<path fill="none" stroke="midnightblue" d="M724.05,-100.903C735.711,-102.512 747.823,-104.182 759.337,-105.771"/>
<polygon fill="midnightblue" stroke="midnightblue" points="724.329,-97.4089 713.945,-99.5096 723.373,-104.343 724.329,-97.4089"/>
</g>
<!-- Node18&#45;&gt;Node2 -->
<g id="edge21" class="edge"><title>Node18&#45;&gt;Node2</title>
<path fill="none" stroke="midnightblue" d="M328.933,-280.428C314.81,-282.953 298.584,-285.319 283.332,-287.107"/>
<polygon fill="midnightblue" stroke="midnightblue" points="329.622,-283.86 338.801,-278.568 328.325,-276.981 329.622,-283.86"/>
</g>
<!-- Node18&#45;&gt;Node4 -->
<g id="edge22" class="edge"><title>Node18&#45;&gt;Node4</title>
<path fill="none" stroke="midnightblue" d="M429.497,-269C437.92,-269 446.551,-269 454.887,-269"/>
<polygon fill="midnightblue" stroke="midnightblue" points="429.359,-265.5 419.359,-269 429.359,-272.5 429.359,-265.5"/>
</g>
</g>
</svg>
