<?xml version="1.0" encoding="UTF-8" standalone="no"?>
<!DOCTYPE svg PUBLIC "-//W3C//DTD SVG 1.1//EN"
 "http://www.w3.org/Graphics/SVG/1.1/DTD/svg11.dtd">
<!-- Generated by graphviz version 2.38.0 (20140413.2041)
 -->
<!-- Title: tds_get_data_info Pages: 1 -->
<svg width="860pt" height="379pt"
 viewBox="0.00 0.00 860.00 378.93" xmlns="http://www.w3.org/2000/svg" xmlns:xlink="http://www.w3.org/1999/xlink">
<g id="graph0" class="graph" transform="scale(1 1) rotate(0) translate(4 374.932)">
<title>tds_get_data_info</title>
<polygon fill="white" stroke="none" points="-4,4 -4,-374.932 856,-374.932 856,4 -4,4"/>
<!-- Node1 -->
<g id="node1" class="node"><title>Node1</title>
<polygon fill="#bfbfbf" stroke="black" points="0,-133.432 0,-152.432 102,-152.432 102,-133.432 0,-133.432"/>
<text text-anchor="middle" x="51" y="-140.432" font-family="Helvetica,sans-Serif" font-size="10.00">tds_get_data_info</text>
</g>
<!-- Node2 -->
<g id="node2" class="node"><title>Node2</title>
<g id="a_node2"><a xlink:href="a00193.html#ab45c291105027e69836002e1dd586141" target="_top" xlink:title="Write a message to the debug log. ">
<polygon fill="white" stroke="black" points="775,-204.432 775,-223.432 852,-223.432 852,-204.432 775,-204.432"/>
<text text-anchor="middle" x="813.5" y="-211.432" font-family="Helvetica,sans-Serif" font-size="10.00">tdsdump_log</text>
</a>
</g>
</g>
<!-- Node1&#45;&gt;Node2 -->
<g id="edge1" class="edge"><title>Node1&#45;&gt;Node2</title>
<path fill="none" stroke="midnightblue" d="M55.8231,-152.776C65.7304,-177.072 94.5322,-240.477 138,-275.932 233.659,-353.957 275.555,-370.932 399,-370.932 399,-370.932 399,-370.932 556,-370.932 661.995,-370.932 761.186,-272.197 797.706,-231.325"/>
<polygon fill="midnightblue" stroke="midnightblue" points="800.384,-233.58 804.343,-223.753 795.12,-228.966 800.384,-233.58"/>
</g>
<!-- Node3 -->
<g id="node3" class="node"><title>Node3</title>
<g id="a_node3"><a xlink:href="a00357.html#gafae08056186b143f3ef1399307dc9be7" target="_top" xlink:title="Reads a string from wire and put in a DSTR. ">
<polygon fill="white" stroke="black" points="179.5,-247.432 179.5,-266.432 255.5,-266.432 255.5,-247.432 179.5,-247.432"/>
<text text-anchor="middle" x="217.5" y="-254.432" font-family="Helvetica,sans-Serif" font-size="10.00">tds_dstr_get</text>
</a>
</g>
</g>
<!-- Node1&#45;&gt;Node3 -->
<g id="edge2" class="edge"><title>Node1&#45;&gt;Node3</title>
<path fill="none" stroke="midnightblue" d="M65.7422,-152.455C94.0959,-172.105 159.319,-217.305 193.946,-241.302"/>
<polygon fill="midnightblue" stroke="midnightblue" points="192.235,-244.374 202.448,-247.194 196.223,-238.621 192.235,-244.374"/>
</g>
<!-- Node5 -->
<g id="node5" class="node"><title>Node5</title>
<g id="a_node5"><a xlink:href="a00357.html#gae7d9c4e1a079e1d0aa0252732631e8c4" target="_top" xlink:title="Get N bytes from the buffer and return them in the already allocated space given to us...">
<polygon fill="white" stroke="black" points="523,-228.432 523,-247.432 587,-247.432 587,-228.432 523,-228.432"/>
<text text-anchor="middle" x="555" y="-235.432" font-family="Helvetica,sans-Serif" font-size="10.00">tds_get_n</text>
</a>
</g>
</g>
<!-- Node1&#45;&gt;Node5 -->
<g id="edge13" class="edge"><title>Node1&#45;&gt;Node5</title>
<path fill="none" stroke="midnightblue" d="M86.513,-152.451C102.135,-156.476 120.896,-160.921 138,-163.932 282.868,-189.433 324.864,-162.06 467,-199.932 487.902,-205.501 510.239,-215.347 527.045,-223.622"/>
<polygon fill="midnightblue" stroke="midnightblue" points="525.744,-226.886 536.249,-228.267 528.899,-220.637 525.744,-226.886"/>
</g>
<!-- Node10 -->
<g id="node10" class="node"><title>Node10</title>
<g id="a_node10"><a xlink:href="a00357.html#ga0cb72d3f6943795c39db1fa692be0a58" target="_top" xlink:title="Return a single byte from the input buffer. ">
<polygon fill="white" stroke="black" points="516.5,-157.432 516.5,-176.432 593.5,-176.432 593.5,-157.432 516.5,-157.432"/>
<text text-anchor="middle" x="555" y="-164.432" font-family="Helvetica,sans-Serif" font-size="10.00">tds_get_byte</text>
</a>
</g>
</g>
<!-- Node1&#45;&gt;Node10 -->
<g id="edge11" class="edge"><title>Node1&#45;&gt;Node10</title>
<path fill="none" stroke="midnightblue" d="M102.432,-145.343C199.49,-149.983 411.046,-160.097 506.086,-164.641"/>
<polygon fill="midnightblue" stroke="midnightblue" points="506.115,-168.146 516.271,-165.128 506.449,-161.154 506.115,-168.146"/>
</g>
<!-- Node11 -->
<g id="node11" class="node"><title>Node11</title>
<g id="a_node11"><a xlink:href="a00298.html#a7d6ccf355d1fc24711b5cd5bbc23a931" target="_top" xlink:title="Set type of column initializing all dependency. ">
<polygon fill="white" stroke="black" points="159.5,-95.4317 159.5,-114.432 275.5,-114.432 275.5,-95.4317 159.5,-95.4317"/>
<text text-anchor="middle" x="217.5" y="-102.432" font-family="Helvetica,sans-Serif" font-size="10.00">tds_set_column_type</text>
</a>
</g>
</g>
<!-- Node1&#45;&gt;Node11 -->
<g id="edge14" class="edge"><title>Node1&#45;&gt;Node11</title>
<path fill="none" stroke="midnightblue" d="M93.5103,-133.343C115.316,-128.306 142.232,-122.088 165.319,-116.755"/>
<polygon fill="midnightblue" stroke="midnightblue" points="166.333,-120.113 175.288,-114.452 164.757,-113.292 166.333,-120.113"/>
</g>
<!-- Node14 -->
<g id="node14" class="node"><title>Node14</title>
<g id="a_node14"><a xlink:href="a00359.html#ga0cf7e719115b0ae476753442d10505ab" target="_top" xlink:title="Returns string representation of the given type. ">
<polygon fill="white" stroke="black" points="184,-57.4317 184,-76.4317 251,-76.4317 251,-57.4317 184,-57.4317"/>
<text text-anchor="middle" x="217.5" y="-64.4317" font-family="Helvetica,sans-Serif" font-size="10.00">tds_prtype</text>
</a>
</g>
</g>
<!-- Node1&#45;&gt;Node14 -->
<g id="edge17" class="edge"><title>Node1&#45;&gt;Node14</title>
<path fill="none" stroke="midnightblue" d="M63.4809,-133.405C79.292,-120.752 109.105,-98.5384 138,-85.9317 149.346,-80.9816 162.202,-77.1861 174.177,-74.3375"/>
<polygon fill="midnightblue" stroke="midnightblue" points="174.972,-77.7463 183.977,-72.1629 173.456,-70.9125 174.972,-77.7463"/>
</g>
<!-- Node15 -->
<g id="node15" class="node"><title>Node15</title>
<g id="a_node15"><a xlink:href="a00359.html#ga91770634ce8c0d6f1fe007b45da186fd" target="_top" xlink:title="Adjust column size according to client&#39;s encoding. ">
<polygon fill="white" stroke="black" points="138,-19.4317 138,-38.4317 297,-38.4317 297,-19.4317 138,-19.4317"/>
<text text-anchor="middle" x="217.5" y="-26.4317" font-family="Helvetica,sans-Serif" font-size="10.00">adjust_character_column_size</text>
</a>
</g>
</g>
<!-- Node1&#45;&gt;Node15 -->
<g id="edge18" class="edge"><title>Node1&#45;&gt;Node15</title>
<path fill="none" stroke="midnightblue" d="M57.7809,-133.394C70.0181,-114.062 100.517,-70.2111 138,-47.9317 141.661,-45.7556 145.559,-43.8283 149.585,-42.1216"/>
<polygon fill="midnightblue" stroke="midnightblue" points="151.031,-45.3174 159.163,-38.5259 148.571,-38.764 151.031,-45.3174"/>
</g>
<!-- Node4 -->
<g id="node4" class="node"><title>Node4</title>
<g id="a_node4"><a xlink:href="a00358.html#ga6aa14b8b717b51afcfb65bd55143689d" target="_top" xlink:title="allocate space for length char ">
<polygon fill="white" stroke="black" points="358.5,-209.432 358.5,-228.432 441.5,-228.432 441.5,-209.432 358.5,-209.432"/>
<text text-anchor="middle" x="400" y="-216.432" font-family="Helvetica,sans-Serif" font-size="10.00">tds_dstr_alloc</text>
</a>
</g>
</g>
<!-- Node3&#45;&gt;Node4 -->
<g id="edge3" class="edge"><title>Node3&#45;&gt;Node4</title>
<path fill="none" stroke="midnightblue" d="M255.9,-249.058C282.595,-243.438 318.815,-235.813 348.135,-229.64"/>
<polygon fill="midnightblue" stroke="midnightblue" points="349.127,-233.008 358.192,-227.523 347.685,-226.158 349.127,-233.008"/>
</g>
<!-- Node3&#45;&gt;Node5 -->
<g id="edge4" class="edge"><title>Node3&#45;&gt;Node5</title>
<path fill="none" stroke="midnightblue" d="M255.55,-266.176C304.48,-276.933 393.092,-291.368 467,-275.932 488.714,-271.396 511.643,-261.127 528.507,-252.406"/>
<polygon fill="midnightblue" stroke="midnightblue" points="530.51,-255.305 537.681,-247.505 527.211,-249.13 530.51,-255.305"/>
</g>
<!-- Node7 -->
<g id="node7" class="node"><title>Node7</title>
<g id="a_node7"><a xlink:href="a00357.html#ga90f080e6e9448feac15dee1370d66802" target="_top" xlink:title="Fetch a string from the wire. ">
<polygon fill="white" stroke="black" points="358,-323.432 358,-342.432 442,-342.432 442,-323.432 358,-323.432"/>
<text text-anchor="middle" x="400" y="-330.432" font-family="Helvetica,sans-Serif" font-size="10.00">tds_get_string</text>
</a>
</g>
</g>
<!-- Node3&#45;&gt;Node7 -->
<g id="edge7" class="edge"><title>Node3&#45;&gt;Node7</title>
<path fill="none" stroke="midnightblue" d="M238.563,-266.615C261.263,-277.437 299.446,-295.236 333,-308.932 342.216,-312.693 352.266,-316.497 361.681,-319.932"/>
<polygon fill="midnightblue" stroke="midnightblue" points="360.607,-323.266 371.201,-323.363 362.98,-316.68 360.607,-323.266"/>
</g>
<!-- Node9 -->
<g id="node9" class="node"><title>Node9</title>
<g id="a_node9"><a xlink:href="a00358.html#ga0cd7863ba7c2d2da4a193234472a3d14" target="_top" xlink:title="limit length of string, MUST be &lt;= current length ">
<polygon fill="white" stroke="black" points="355.5,-247.432 355.5,-266.432 444.5,-266.432 444.5,-247.432 355.5,-247.432"/>
<text text-anchor="middle" x="400" y="-254.432" font-family="Helvetica,sans-Serif" font-size="10.00">tds_dstr_setlen</text>
</a>
</g>
</g>
<!-- Node3&#45;&gt;Node9 -->
<g id="edge10" class="edge"><title>Node3&#45;&gt;Node9</title>
<path fill="none" stroke="midnightblue" d="M255.9,-256.932C281.65,-256.932 316.264,-256.932 344.999,-256.932"/>
<polygon fill="midnightblue" stroke="midnightblue" points="345.292,-260.432 355.292,-256.932 345.292,-253.432 345.292,-260.432"/>
</g>
<!-- Node6 -->
<g id="node6" class="node"><title>Node6</title>
<g id="a_node6"><a xlink:href="a00357.html#ga410619783bdf2bb60b0f27a5578e0e07" target="_top" xlink:title="Read in one &#39;packet&#39; from the server. ">
<polygon fill="white" stroke="red" points="643,-204.432 643,-223.432 739,-223.432 739,-204.432 643,-204.432"/>
<text text-anchor="middle" x="691" y="-211.432" font-family="Helvetica,sans-Serif" font-size="10.00">tds_read_packet</text>
</a>
</g>
</g>
<!-- Node5&#45;&gt;Node6 -->
<g id="edge5" class="edge"><title>Node5&#45;&gt;Node6</title>
<path fill="none" stroke="midnightblue" d="M587.079,-232.365C600.651,-229.934 617.016,-227.004 632.662,-224.201"/>
<polygon fill="midnightblue" stroke="midnightblue" points="633.577,-227.593 642.804,-222.385 632.343,-220.703 633.577,-227.593"/>
</g>
<!-- Node6&#45;&gt;Node2 -->
<g id="edge6" class="edge"><title>Node6&#45;&gt;Node2</title>
<path fill="none" stroke="midnightblue" d="M739.279,-213.932C747.531,-213.932 756.124,-213.932 764.398,-213.932"/>
<polygon fill="midnightblue" stroke="midnightblue" points="764.659,-217.432 774.659,-213.932 764.658,-210.432 764.659,-217.432"/>
</g>
<!-- Node7&#45;&gt;Node5 -->
<g id="edge8" class="edge"><title>Node7&#45;&gt;Node5</title>
<path fill="none" stroke="midnightblue" d="M433.853,-323.418C444.751,-319.634 456.717,-314.773 467,-308.932 493.658,-293.787 520.396,-270.455 537.055,-254.711"/>
<polygon fill="midnightblue" stroke="midnightblue" points="539.602,-257.117 544.379,-247.66 534.747,-252.074 539.602,-257.117"/>
</g>
<!-- Node8 -->
<g id="node8" class="node"><title>Node8</title>
<g id="a_node8"><a xlink:href="a00357.html#ga676c4dee6522815b16fdc8e448e43590" target="_top" xlink:title="For UTF&#45;8 and similar, tds_iconv() may encounter a partial sequence when the chunk boundary is not al...">
<polygon fill="white" stroke="red" points="503,-323.432 503,-342.432 607,-342.432 607,-323.432 503,-323.432"/>
<text text-anchor="middle" x="555" y="-330.432" font-family="Helvetica,sans-Serif" font-size="10.00">read_and_convert</text>
</a>
</g>
</g>
<!-- Node7&#45;&gt;Node8 -->
<g id="edge9" class="edge"><title>Node7&#45;&gt;Node8</title>
<path fill="none" stroke="midnightblue" d="M442.001,-332.932C457.468,-332.932 475.423,-332.932 492.365,-332.932"/>
<polygon fill="midnightblue" stroke="midnightblue" points="492.752,-336.432 502.752,-332.932 492.752,-329.432 492.752,-336.432"/>
</g>
<!-- Node10&#45;&gt;Node6 -->
<g id="edge12" class="edge"><title>Node10&#45;&gt;Node6</title>
<path fill="none" stroke="midnightblue" d="M583.117,-176.443C603.145,-183.468 630.649,-193.115 652.74,-200.863"/>
<polygon fill="midnightblue" stroke="midnightblue" points="651.869,-204.266 662.464,-204.273 654.186,-197.661 651.869,-204.266"/>
</g>
<!-- Node12 -->
<g id="node12" class="node"><title>Node12</title>
<g id="a_node12"><a xlink:href="a00193.html#a68855f1251759a6b7338635306ab0041" target="_top" xlink:title="tds_get_varint_size() returns the size of a variable length integer returned in a TDS 7...">
<polygon fill="white" stroke="black" points="345.5,-57.4317 345.5,-76.4317 454.5,-76.4317 454.5,-57.4317 345.5,-57.4317"/>
<text text-anchor="middle" x="400" y="-64.4317" font-family="Helvetica,sans-Serif" font-size="10.00">tds_get_varint_size</text>
</a>
</g>
</g>
<!-- Node11&#45;&gt;Node12 -->
<g id="edge15" class="edge"><title>Node11&#45;&gt;Node12</title>
<path fill="none" stroke="midnightblue" d="M264.048,-95.3427C288.296,-90.2379 318.304,-83.9204 343.861,-78.5399"/>
<polygon fill="midnightblue" stroke="midnightblue" points="344.715,-81.9369 353.78,-76.4518 343.273,-75.087 344.715,-81.9369"/>
</g>
<!-- Node13 -->
<g id="node13" class="node"><title>Node13</title>
<g id="a_node13"><a xlink:href="a00193.html#aa70b02ff34ac03040ca41f13d5fd35bd" target="_top" xlink:title="Return the number of bytes needed by specified type. ">
<polygon fill="white" stroke="black" points="340.5,-95.4317 340.5,-114.432 459.5,-114.432 459.5,-95.4317 340.5,-95.4317"/>
<text text-anchor="middle" x="400" y="-102.432" font-family="Helvetica,sans-Serif" font-size="10.00">tds_get_size_by_type</text>
</a>
</g>
</g>
<!-- Node11&#45;&gt;Node13 -->
<g id="edge16" class="edge"><title>Node11&#45;&gt;Node13</title>
<path fill="none" stroke="midnightblue" d="M275.611,-104.932C292.96,-104.932 312.205,-104.932 330.236,-104.932"/>
<polygon fill="midnightblue" stroke="midnightblue" points="330.397,-108.432 340.397,-104.932 330.397,-101.432 330.397,-108.432"/>
</g>
<!-- Node15&#45;&gt;Node2 -->
<g id="edge20" class="edge"><title>Node15&#45;&gt;Node2</title>
<path fill="none" stroke="midnightblue" d="M251.739,-19.3726C300.05,-7.04026 392.079,10.536 467,-9.93174 605.19,-47.6839 744.32,-156.43 793.701,-197.744"/>
<polygon fill="midnightblue" stroke="midnightblue" points="791.709,-200.644 801.605,-204.427 796.228,-195.298 791.709,-200.644"/>
</g>
<!-- Node16 -->
<g id="node16" class="node"><title>Node16</title>
<g id="a_node16"><a xlink:href="a00359.html#ga87209537d51f069fee02bc224da492cb" target="_top" xlink:title="Allow for maximum possible size of converted data, while being careful about integer division truncat...">
<polygon fill="white" stroke="black" points="333,-19.4317 333,-38.4317 467,-38.4317 467,-19.4317 333,-19.4317"/>
<text text-anchor="middle" x="400" y="-26.4317" font-family="Helvetica,sans-Serif" font-size="10.00">determine_adjusted_size</text>
</a>
</g>
</g>
<!-- Node15&#45;&gt;Node16 -->
<g id="edge19" class="edge"><title>Node15&#45;&gt;Node16</title>
<path fill="none" stroke="midnightblue" d="M297.145,-28.9317C305.587,-28.9317 314.168,-28.9317 322.584,-28.9317"/>
<polygon fill="midnightblue" stroke="midnightblue" points="322.747,-32.4318 332.747,-28.9317 322.747,-25.4318 322.747,-32.4318"/>
</g>
</g>
</svg>
