<?xml version="1.0" encoding="UTF-8" standalone="no"?>
<!DOCTYPE svg PUBLIC "-//W3C//DTD SVG 1.1//EN"
 "http://www.w3.org/Graphics/SVG/1.1/DTD/svg11.dtd">
<!-- Generated by graphviz version 2.38.0 (20140413.2041)
 -->
<!-- Title: include/sybdb.h Pages: 1 -->
<svg width="347pt" height="140pt"
 viewBox="0.00 0.00 347.00 140.00" xmlns="http://www.w3.org/2000/svg" xmlns:xlink="http://www.w3.org/1999/xlink">
<g id="graph0" class="graph" transform="scale(1 1) rotate(0) translate(4 136)">
<title>include/sybdb.h</title>
<polygon fill="white" stroke="none" points="-4,4 -4,-136 343,-136 343,4 -4,4"/>
<!-- Node1 -->
<g id="node1" class="node"><title>Node1</title>
<polygon fill="#bfbfbf" stroke="black" points="142,-112.5 142,-131.5 230,-131.5 230,-112.5 142,-112.5"/>
<text text-anchor="middle" x="186" y="-119.5" font-family="Helvetica,sans-Serif" font-size="10.00">include/sybdb.h</text>
</g>
<!-- Node2 -->
<g id="node2" class="node"><title>Node2</title>
<g id="a_node2"><a xlink:href="a00233.html" target="_top" xlink:title="Implementation of db&#45;lib bulk copy functions. ">
<polygon fill="white" stroke="black" points="0,-0.5 0,-19.5 82,-19.5 82,-0.5 0,-0.5"/>
<text text-anchor="middle" x="41" y="-7.5" font-family="Helvetica,sans-Serif" font-size="10.00">src/dblib/bcp.c</text>
</a>
</g>
</g>
<!-- Node1&#45;&gt;Node2 -->
<g id="edge1" class="edge"><title>Node1&#45;&gt;Node2</title>
<path fill="none" stroke="midnightblue" d="M149.646,-108.82C130.608,-101.294 107.65,-90.3194 90,-76 69.8069,-59.6175 53.3279,-33.2057 45.6558,-19.645"/>
<polygon fill="midnightblue" stroke="midnightblue" points="148.605,-112.168 159.196,-112.44 151.086,-105.623 148.605,-112.168"/>
</g>
<!-- Node3 -->
<g id="node3" class="node"><title>Node3</title>
<g id="a_node3"><a xlink:href="a00235.html" target="_top" xlink:title="Main implementation file for db&#45;lib. ">
<polygon fill="white" stroke="black" points="214,-0.5 214,-19.5 300,-19.5 300,-0.5 214,-0.5"/>
<text text-anchor="middle" x="257" y="-7.5" font-family="Helvetica,sans-Serif" font-size="10.00">src/dblib/dblib.c</text>
</a>
</g>
</g>
<!-- Node1&#45;&gt;Node3 -->
<g id="edge2" class="edge"><title>Node1&#45;&gt;Node3</title>
<path fill="none" stroke="midnightblue" d="M197,-103.957C212.387,-80.1184 239.761,-37.7088 251.455,-19.5914"/>
<polygon fill="midnightblue" stroke="midnightblue" points="194.054,-102.069 191.571,-112.368 199.935,-105.865 194.054,-102.069"/>
</g>
<!-- Node4 -->
<g id="node4" class="node"><title>Node4</title>
<g id="a_node4"><a xlink:href="a00204_source.html" target="_top" xlink:title="include/sqldb.h">
<polygon fill="white" stroke="black" points="253,-56.5 253,-75.5 339,-75.5 339,-56.5 253,-56.5"/>
<text text-anchor="middle" x="296" y="-63.5" font-family="Helvetica,sans-Serif" font-size="10.00">include/sqldb.h</text>
</a>
</g>
</g>
<!-- Node1&#45;&gt;Node4 -->
<g id="edge3" class="edge"><title>Node1&#45;&gt;Node4</title>
<path fill="none" stroke="midnightblue" d="M212.762,-107.862C233.159,-97.8492 260.666,-84.3458 278.37,-75.6545"/>
<polygon fill="midnightblue" stroke="midnightblue" points="211.108,-104.775 203.673,-112.324 214.192,-111.059 211.108,-104.775"/>
</g>
<!-- Node5 -->
<g id="node5" class="node"><title>Node5</title>
<g id="a_node5"><a xlink:href="a00209_source.html" target="_top" xlink:title="include/sybfront.h">
<polygon fill="white" stroke="black" points="99,-56.5 99,-75.5 197,-75.5 197,-56.5 99,-56.5"/>
<text text-anchor="middle" x="148" y="-63.5" font-family="Helvetica,sans-Serif" font-size="10.00">include/sybfront.h</text>
</a>
</g>
</g>
<!-- Node1&#45;&gt;Node5 -->
<g id="edge4" class="edge"><title>Node1&#45;&gt;Node5</title>
<path fill="none" stroke="midnightblue" d="M173.935,-103.855C167.355,-94.5048 159.489,-83.3265 154.158,-75.7511"/>
<polygon fill="midnightblue" stroke="midnightblue" points="171.108,-105.919 179.725,-112.083 176.832,-101.891 171.108,-105.919"/>
</g>
<!-- Node5&#45;&gt;Node2 -->
<g id="edge5" class="edge"><title>Node5&#45;&gt;Node2</title>
<path fill="none" stroke="midnightblue" d="M121.698,-51.7261C101.885,-41.7271 75.2925,-28.3065 58.1487,-19.6545"/>
<polygon fill="midnightblue" stroke="midnightblue" points="120.304,-54.9431 130.809,-56.324 123.458,-48.6938 120.304,-54.9431"/>
</g>
<!-- Node5&#45;&gt;Node3 -->
<g id="edge6" class="edge"><title>Node5&#45;&gt;Node3</title>
<path fill="none" stroke="midnightblue" d="M174.519,-51.8622C194.73,-41.8492 221.987,-28.3458 239.531,-19.6545"/>
<polygon fill="midnightblue" stroke="midnightblue" points="172.92,-48.7485 165.513,-56.324 176.027,-55.0209 172.92,-48.7485"/>
</g>
<!-- Node6 -->
<g id="node6" class="node"><title>Node6</title>
<g id="a_node6"><a xlink:href="a00205_source.html" target="_top" xlink:title="include/sqlfront.h">
<polygon fill="white" stroke="black" points="100,-0.5 100,-19.5 196,-19.5 196,-0.5 100,-0.5"/>
<text text-anchor="middle" x="148" y="-7.5" font-family="Helvetica,sans-Serif" font-size="10.00">include/sqlfront.h</text>
</a>
</g>
</g>
<!-- Node5&#45;&gt;Node6 -->
<g id="edge7" class="edge"><title>Node5&#45;&gt;Node6</title>
<path fill="none" stroke="midnightblue" d="M148,-45.8045C148,-36.9102 148,-26.7798 148,-19.7511"/>
<polygon fill="midnightblue" stroke="midnightblue" points="144.5,-46.083 148,-56.083 151.5,-46.083 144.5,-46.083"/>
</g>
</g>
</svg>
