<?xml version="1.0" encoding="UTF-8" standalone="no"?>
<!DOCTYPE svg PUBLIC "-//W3C//DTD SVG 1.1//EN"
 "http://www.w3.org/Graphics/SVG/1.1/DTD/svg11.dtd">
<!-- Generated by graphviz version 2.38.0 (20140413.2041)
 -->
<!-- Title: tds_process_compute Pages: 1 -->
<svg width="703pt" height="648pt"
 viewBox="0.00 0.00 703.00 648.00" xmlns="http://www.w3.org/2000/svg" xmlns:xlink="http://www.w3.org/1999/xlink">
<g id="graph0" class="graph" transform="scale(1 1) rotate(0) translate(4 644)">
<title>tds_process_compute</title>
<polygon fill="white" stroke="none" points="-4,4 -4,-644 699,-644 699,4 -4,4"/>
<!-- Node1 -->
<g id="node1" class="node"><title>Node1</title>
<polygon fill="#bfbfbf" stroke="black" points="0,-392.5 0,-411.5 120,-411.5 120,-392.5 0,-392.5"/>
<text text-anchor="middle" x="60" y="-399.5" font-family="Helvetica,sans-Serif" font-size="10.00">tds_process_compute</text>
</g>
<!-- Node2 -->
<g id="node2" class="node"><title>Node2</title>
<g id="a_node2"><a xlink:href="a00359.html#gabfc9de1d1fe718818caf63a4be4035a6" target="_top" xlink:title="process all streams. ">
<polygon fill="white" stroke="black" points="156,-392.5 156,-411.5 268,-411.5 268,-392.5 156,-392.5"/>
<text text-anchor="middle" x="212" y="-399.5" font-family="Helvetica,sans-Serif" font-size="10.00">tds_process_tokens</text>
</a>
</g>
</g>
<!-- Node1&#45;&gt;Node2 -->
<g id="edge1" class="edge"><title>Node1&#45;&gt;Node2</title>
<path fill="none" stroke="midnightblue" d="M130.472,-402C138.885,-402 147.392,-402 155.565,-402"/>
<polygon fill="midnightblue" stroke="midnightblue" points="130.284,-398.5 120.284,-402 130.284,-405.5 130.284,-398.5"/>
</g>
<!-- Node3 -->
<g id="node3" class="node"><title>Node3</title>
<g id="a_node3"><a xlink:href="a00344.html#gae67546338cb9542a4902aa914f57f314" target="_top" xlink:title="_bcp_exec_out">
<polygon fill="white" stroke="black" points="315.5,-620.5 315.5,-639.5 403.5,-639.5 403.5,-620.5 315.5,-620.5"/>
<text text-anchor="middle" x="359.5" y="-627.5" font-family="Helvetica,sans-Serif" font-size="10.00">_bcp_exec_out</text>
</a>
</g>
</g>
<!-- Node2&#45;&gt;Node3 -->
<g id="edge2" class="edge"><title>Node2&#45;&gt;Node3</title>
<path fill="none" stroke="midnightblue" d="M216.171,-421.774C223.777,-462.852 246.855,-557.999 304,-611 308.188,-614.884 313.212,-617.98 318.494,-620.447"/>
<polygon fill="midnightblue" stroke="midnightblue" points="219.617,-421.165 214.454,-411.913 212.721,-422.365 219.617,-421.165"/>
</g>
<!-- Node5 -->
<g id="node5" class="node"><title>Node5</title>
<g id="a_node5"><a xlink:href="a00341.html#gaf1879b85e8238c015b9648d077665285" target="_top" xlink:title="_dbresults">
<polygon fill="white" stroke="black" points="327,-506.5 327,-525.5 392,-525.5 392,-506.5 327,-506.5"/>
<text text-anchor="middle" x="359.5" y="-513.5" font-family="Helvetica,sans-Serif" font-size="10.00">_dbresults</text>
</a>
</g>
</g>
<!-- Node2&#45;&gt;Node5 -->
<g id="edge4" class="edge"><title>Node2&#45;&gt;Node5</title>
<path fill="none" stroke="midnightblue" d="M225.674,-419.621C241.709,-440.747 271.217,-475.933 304,-497 310.912,-501.442 318.988,-504.988 326.773,-507.756"/>
<polygon fill="midnightblue" stroke="midnightblue" points="228.426,-417.456 219.656,-411.51 222.804,-421.627 228.426,-417.456"/>
</g>
<!-- Node8 -->
<g id="node8" class="node"><title>Node8</title>
<g id="a_node8"><a xlink:href="a00341.html#ga548153eb2eae76c48aa9d4b72258dc1c" target="_top" xlink:title="Send text or image data to the server. ">
<polygon fill="white" stroke="black" points="627,-449.5 627,-468.5 695,-468.5 695,-449.5 627,-449.5"/>
<text text-anchor="middle" x="661" y="-456.5" font-family="Helvetica,sans-Serif" font-size="10.00">dbwritetext</text>
</a>
</g>
</g>
<!-- Node2&#45;&gt;Node8 -->
<g id="edge18" class="edge"><title>Node2&#45;&gt;Node8</title>
<path fill="none" stroke="midnightblue" d="M278.343,-412.314C286.965,-413.598 295.691,-414.859 304,-416 422.419,-432.256 563.459,-448.316 626.578,-455.329"/>
<polygon fill="midnightblue" stroke="midnightblue" points="278.709,-408.83 268.299,-410.801 277.667,-415.751 278.709,-408.83"/>
</g>
<!-- Node9 -->
<g id="node9" class="node"><title>Node9</title>
<g id="a_node9"><a xlink:href="a00342.html#gaff09873008411a0573f6d1a9e6c7cf4b" target="_top" xlink:title="Get count of output parameters filled by a stored procedure. ">
<polygon fill="white" stroke="black" points="327,-190.5 327,-209.5 392,-209.5 392,-190.5 327,-190.5"/>
<text text-anchor="middle" x="359.5" y="-197.5" font-family="Helvetica,sans-Serif" font-size="10.00">dbnumrets</text>
</a>
</g>
</g>
<!-- Node2&#45;&gt;Node9 -->
<g id="edge8" class="edge"><title>Node2&#45;&gt;Node9</title>
<path fill="none" stroke="midnightblue" d="M226.031,-383.909C255.952,-342.369 328.751,-241.301 351.553,-209.645"/>
<polygon fill="midnightblue" stroke="midnightblue" points="223.022,-382.097 220.018,-392.257 228.702,-386.189 223.022,-382.097"/>
</g>
<!-- Node13 -->
<g id="node13" class="node"><title>Node13</title>
<g id="a_node13"><a xlink:href="a00341.html#gae1f50a6a2c31fda57cb481922b06841e" target="_top" xlink:title="Wait for results of a query from the server. ">
<polygon fill="white" stroke="black" points="333,-468.5 333,-487.5 386,-487.5 386,-468.5 333,-468.5"/>
<text text-anchor="middle" x="359.5" y="-475.5" font-family="Helvetica,sans-Serif" font-size="10.00">dbsqlok</text>
</a>
</g>
</g>
<!-- Node2&#45;&gt;Node13 -->
<g id="edge12" class="edge"><title>Node2&#45;&gt;Node13</title>
<path fill="none" stroke="midnightblue" d="M237.259,-416.783C255.377,-427.597 280.894,-442.35 304,-454 314.155,-459.12 325.645,-464.271 335.449,-468.481"/>
<polygon fill="midnightblue" stroke="midnightblue" points="238.884,-413.677 228.51,-411.525 235.278,-419.676 238.884,-413.677"/>
</g>
<!-- Node15 -->
<g id="node15" class="node"><title>Node15</title>
<g id="a_node15"><a xlink:href="a00341.html#ga559e24ba70d0d96c3469eb6ab8f74e05" target="_top" xlink:title="Cancel the query currently being retrieved, discarding all pending rows. ">
<polygon fill="white" stroke="black" points="324,-582.5 324,-601.5 395,-601.5 395,-582.5 324,-582.5"/>
<text text-anchor="middle" x="359.5" y="-589.5" font-family="Helvetica,sans-Serif" font-size="10.00">dbcanquery</text>
</a>
</g>
</g>
<!-- Node2&#45;&gt;Node15 -->
<g id="edge16" class="edge"><title>Node2&#45;&gt;Node15</title>
<path fill="none" stroke="midnightblue" d="M218.288,-421.726C228.748,-457.058 255.385,-531.332 304,-573 309.706,-577.891 316.747,-581.547 323.85,-584.271"/>
<polygon fill="midnightblue" stroke="midnightblue" points="221.545,-420.381 215.453,-411.713 214.809,-422.288 221.545,-420.381"/>
</g>
<!-- Node16 -->
<g id="node16" class="node"><title>Node16</title>
<g id="a_node16"><a xlink:href="a00341.html#gadd5685565c8c6c86079e17b8a73b324c" target="_top" xlink:title="Fetch part of a text or image value from the server. ">
<polygon fill="white" stroke="black" points="326,-152.5 326,-171.5 393,-171.5 393,-152.5 326,-152.5"/>
<text text-anchor="middle" x="359.5" y="-159.5" font-family="Helvetica,sans-Serif" font-size="10.00">dbreadtext</text>
</a>
</g>
</g>
<!-- Node2&#45;&gt;Node16 -->
<g id="edge19" class="edge"><title>Node2&#45;&gt;Node16</title>
<path fill="none" stroke="midnightblue" d="M215.585,-382.579C222.261,-340.02 243.965,-237.812 304,-181 310.041,-175.284 317.893,-171.277 325.748,-168.472"/>
<polygon fill="midnightblue" stroke="midnightblue" points="212.121,-382.084 214.139,-392.484 219.047,-383.095 212.121,-382.084"/>
</g>
<!-- Node17 -->
<g id="node17" class="node"><title>Node17</title>
<g id="a_node17"><a xlink:href="a00341.html#gac980139b9cea03cf93e373d425991481" target="_top" xlink:title="Transmit the command buffer to the server. ">
<polygon fill="white" stroke="black" points="327,-544.5 327,-563.5 392,-563.5 392,-544.5 327,-544.5"/>
<text text-anchor="middle" x="359.5" y="-551.5" font-family="Helvetica,sans-Serif" font-size="10.00">dbsqlsend</text>
</a>
</g>
</g>
<!-- Node2&#45;&gt;Node17 -->
<g id="edge20" class="edge"><title>Node2&#45;&gt;Node17</title>
<path fill="none" stroke="midnightblue" d="M221.151,-420.885C234.442,-449.545 263.431,-503.96 304,-535 310.685,-540.115 318.851,-543.918 326.806,-546.721"/>
<polygon fill="midnightblue" stroke="midnightblue" points="224.263,-419.271 216.972,-411.583 217.877,-422.139 224.263,-419.271"/>
</g>
<!-- Node18 -->
<g id="node18" class="node"><title>Node18</title>
<g id="a_node18"><a xlink:href="a00356.html#gaf0da49585d39e99780a004ee2ca23479" target="_top" xlink:title="Send option commands to server. ">
<polygon fill="white" stroke="black" points="460.5,-392.5 460.5,-411.5 581.5,-411.5 581.5,-392.5 460.5,-392.5"/>
<text text-anchor="middle" x="521" y="-399.5" font-family="Helvetica,sans-Serif" font-size="10.00">tds_submit_optioncmd</text>
</a>
</g>
</g>
<!-- Node2&#45;&gt;Node18 -->
<g id="edge22" class="edge"><title>Node2&#45;&gt;Node18</title>
<path fill="none" stroke="midnightblue" d="M278.384,-402C332.327,-402 408.224,-402 460.487,-402"/>
<polygon fill="midnightblue" stroke="midnightblue" points="278.24,-398.5 268.24,-402 278.24,-405.5 278.24,-398.5"/>
</g>
<!-- Node19 -->
<g id="node19" class="node"><title>Node19</title>
<g id="a_node19"><a xlink:href="a00193.html#ac6610c72bd31bad5378f760fa9b12d66" target="_top" xlink:title="Initialize BCP information. ">
<polygon fill="white" stroke="black" points="323,-109.5 323,-128.5 396,-128.5 396,-109.5 323,-109.5"/>
<text text-anchor="middle" x="359.5" y="-116.5" font-family="Helvetica,sans-Serif" font-size="10.00">tds_bcp_init</text>
</a>
</g>
</g>
<!-- Node2&#45;&gt;Node19 -->
<g id="edge23" class="edge"><title>Node2&#45;&gt;Node19</title>
<path fill="none" stroke="midnightblue" d="M214.65,-382.268C219.603,-334.992 238.34,-213.916 304,-143 309.76,-136.779 317.421,-132.081 325.175,-128.569"/>
<polygon fill="midnightblue" stroke="midnightblue" points="211.15,-382.101 213.688,-392.388 218.119,-382.764 211.15,-382.101"/>
</g>
<!-- Node21 -->
<g id="node21" class="node"><title>Node21</title>
<g id="a_node21"><a xlink:href="a00359.html#ga55f27c3e05d42c9b07ace1c74b11c5ab" target="_top" xlink:title="Retrieve and set @spid. ">
<polygon fill="white" stroke="black" points="321,-62.5 321,-81.5 398,-81.5 398,-62.5 321,-62.5"/>
<text text-anchor="middle" x="359.5" y="-69.5" font-family="Helvetica,sans-Serif" font-size="10.00">tds_set_spid</text>
</a>
</g>
</g>
<!-- Node2&#45;&gt;Node21 -->
<g id="edge25" class="edge"><title>Node2&#45;&gt;Node21</title>
<path fill="none" stroke="midnightblue" d="M213.779,-382.156C216.82,-329.953 231.674,-186.844 304,-100 310.739,-91.9077 320.417,-85.8869 329.752,-81.5456"/>
<polygon fill="midnightblue" stroke="midnightblue" points="210.272,-382.216 213.272,-392.377 217.264,-382.563 210.272,-382.216"/>
</g>
<!-- Node23 -->
<g id="node23" class="node"><title>Node23</title>
<g id="a_node23"><a xlink:href="a00359.html#gaeeb1562044786ea17bea361ed83e6946" target="_top" xlink:title="Process results for simple query as &quot;SET TEXTSIZE&quot; or &quot;USE dbname&quot; If the statement returns results...">
<polygon fill="white" stroke="black" points="304.5,-327 304.5,-357 414.5,-357 414.5,-327 304.5,-327"/>
<text text-anchor="start" x="312.5" y="-345" font-family="Helvetica,sans-Serif" font-size="10.00">tds_process_simple</text>
<text text-anchor="middle" x="359.5" y="-334" font-family="Helvetica,sans-Serif" font-size="10.00">_query</text>
</a>
</g>
</g>
<!-- Node2&#45;&gt;Node23 -->
<g id="edge27" class="edge"><title>Node2&#45;&gt;Node23</title>
<path fill="none" stroke="midnightblue" d="M245.57,-388.569C268.229,-379.225 298.465,-366.757 321.949,-357.073"/>
<polygon fill="midnightblue" stroke="midnightblue" points="243.965,-385.445 236.055,-392.493 246.634,-391.916 243.965,-385.445"/>
</g>
<!-- Node28 -->
<g id="node28" class="node"><title>Node28</title>
<g id="a_node28"><a xlink:href="a00359.html#gaf233e79967f82f4e0dd4d11524917a34" target="_top" xlink:title="tds_process_cancel">
<polygon fill="white" stroke="black" points="304,-5.5 304,-24.5 415,-24.5 415,-5.5 304,-5.5"/>
<text text-anchor="middle" x="359.5" y="-12.5" font-family="Helvetica,sans-Serif" font-size="10.00">tds_process_cancel</text>
</a>
</g>
</g>
<!-- Node2&#45;&gt;Node28 -->
<g id="edge34" class="edge"><title>Node2&#45;&gt;Node28</title>
<path fill="none" stroke="midnightblue" d="M213.492,-382.343C215.807,-325.93 228.991,-160.667 304,-53 312.572,-40.6964 326.492,-31.0894 338.118,-24.6131"/>
<polygon fill="midnightblue" stroke="midnightblue" points="209.992,-382.286 213.152,-392.399 216.988,-382.523 209.992,-382.286"/>
</g>
<!-- Node4 -->
<g id="node4" class="node"><title>Node4</title>
<g id="a_node4"><a xlink:href="a00343.html#ga7a184158b27a50f713e9cfae3b746209" target="_top" xlink:title="Write a datafile to a table. ">
<polygon fill="white" stroke="black" points="490,-620.5 490,-639.5 552,-639.5 552,-620.5 490,-620.5"/>
<text text-anchor="middle" x="521" y="-627.5" font-family="Helvetica,sans-Serif" font-size="10.00">bcp_exec</text>
</a>
</g>
</g>
<!-- Node3&#45;&gt;Node4 -->
<g id="edge3" class="edge"><title>Node3&#45;&gt;Node4</title>
<path fill="none" stroke="midnightblue" d="M413.874,-630C439.205,-630 468.536,-630 489.935,-630"/>
<polygon fill="midnightblue" stroke="midnightblue" points="413.663,-626.5 403.663,-630 413.663,-633.5 413.663,-626.5"/>
</g>
<!-- Node6 -->
<g id="node6" class="node"><title>Node6</title>
<g id="a_node6"><a xlink:href="a00341.html#ga4e26d949be2c3bf71b1a33c75b11d931" target="_top" xlink:title="Set up query results. ">
<polygon fill="white" stroke="black" points="491.5,-506.5 491.5,-525.5 550.5,-525.5 550.5,-506.5 491.5,-506.5"/>
<text text-anchor="middle" x="521" y="-513.5" font-family="Helvetica,sans-Serif" font-size="10.00">dbresults</text>
</a>
</g>
</g>
<!-- Node5&#45;&gt;Node6 -->
<g id="edge5" class="edge"><title>Node5&#45;&gt;Node6</title>
<path fill="none" stroke="midnightblue" d="M402.337,-516C430.428,-516 466.698,-516 491.498,-516"/>
<polygon fill="midnightblue" stroke="midnightblue" points="402.012,-512.5 392.012,-516 402.012,-519.5 402.012,-512.5"/>
</g>
<!-- Node7 -->
<g id="node7" class="node"><title>Node7</title>
<g id="a_node7"><a xlink:href="a00341.html#ga66ea891910f0a357cc78107d6ab7d962" target="_top" xlink:title="Change current database. ">
<polygon fill="white" stroke="black" points="639,-544.5 639,-563.5 683,-563.5 683,-544.5 639,-544.5"/>
<text text-anchor="middle" x="661" y="-551.5" font-family="Helvetica,sans-Serif" font-size="10.00">dbuse</text>
</a>
</g>
</g>
<!-- Node6&#45;&gt;Node7 -->
<g id="edge6" class="edge"><title>Node6&#45;&gt;Node7</title>
<path fill="none" stroke="midnightblue" d="M560.26,-526.535C585.562,-533.503 617.795,-542.378 638.66,-548.124"/>
<polygon fill="midnightblue" stroke="midnightblue" points="561.164,-523.154 550.594,-523.874 559.306,-529.903 561.164,-523.154"/>
</g>
<!-- Node6&#45;&gt;Node8 -->
<g id="edge7" class="edge"><title>Node6&#45;&gt;Node8</title>
<path fill="none" stroke="midnightblue" d="M560.517,-503.453C570.525,-499.961 581.236,-496.018 591,-492 608.437,-484.824 627.759,-475.455 641.511,-468.535"/>
<polygon fill="midnightblue" stroke="midnightblue" points="559.129,-500.228 550.803,-506.78 561.397,-506.851 559.129,-500.228"/>
</g>
<!-- Node10 -->
<g id="node10" class="node"><title>Node10</title>
<g id="a_node10"><a xlink:href="a00342.html#ga0311328d63bae5d9bd5aea5ea4914223" target="_top" xlink:title="Get name of an output parameter filled by a stored procedure. ">
<polygon fill="white" stroke="black" points="487.5,-190.5 487.5,-209.5 554.5,-209.5 554.5,-190.5 487.5,-190.5"/>
<text text-anchor="middle" x="521" y="-197.5" font-family="Helvetica,sans-Serif" font-size="10.00">dbretname</text>
</a>
</g>
</g>
<!-- Node9&#45;&gt;Node10 -->
<g id="edge9" class="edge"><title>Node9&#45;&gt;Node10</title>
<path fill="none" stroke="midnightblue" d="M402.184,-200C428.808,-200 462.827,-200 487.458,-200"/>
<polygon fill="midnightblue" stroke="midnightblue" points="402.012,-196.5 392.012,-200 402.012,-203.5 402.012,-196.5"/>
</g>
<!-- Node11 -->
<g id="node11" class="node"><title>Node11</title>
<g id="a_node11"><a xlink:href="a00342.html#ga42e187003b74fec6e9ca92d410bfb9c0" target="_top" xlink:title="Get value of an output parameter filled by a stored procedure. ">
<polygon fill="white" stroke="black" points="490,-152.5 490,-171.5 552,-171.5 552,-152.5 490,-152.5"/>
<text text-anchor="middle" x="521" y="-159.5" font-family="Helvetica,sans-Serif" font-size="10.00">dbretdata</text>
</a>
</g>
</g>
<!-- Node9&#45;&gt;Node11 -->
<g id="edge10" class="edge"><title>Node9&#45;&gt;Node11</title>
<path fill="none" stroke="midnightblue" d="M401.771,-190.167C429.346,-183.598 464.993,-175.105 489.904,-169.17"/>
<polygon fill="midnightblue" stroke="midnightblue" points="400.929,-186.77 392.012,-192.492 402.551,-193.579 400.929,-186.77"/>
</g>
<!-- Node12 -->
<g id="node12" class="node"><title>Node12</title>
<g id="a_node12"><a xlink:href="a00342.html#gab705bf94be535e9d8fc4edc0f48c98b0" target="_top" xlink:title="Get size of an output parameter filled by a stored procedure. ">
<polygon fill="white" stroke="black" points="493.5,-114.5 493.5,-133.5 548.5,-133.5 548.5,-114.5 493.5,-114.5"/>
<text text-anchor="middle" x="521" y="-121.5" font-family="Helvetica,sans-Serif" font-size="10.00">dbretlen</text>
</a>
</g>
</g>
<!-- Node9&#45;&gt;Node12 -->
<g id="edge11" class="edge"><title>Node9&#45;&gt;Node12</title>
<path fill="none" stroke="midnightblue" d="M401.776,-188.012C406.393,-185.977 410.903,-183.649 415,-181 434.537,-168.369 431.053,-154.972 451,-143 463.891,-135.263 480.011,-130.595 493.427,-127.824"/>
<polygon fill="midnightblue" stroke="midnightblue" points="400.255,-184.849 392.244,-191.782 402.83,-191.358 400.255,-184.849"/>
</g>
<!-- Node13&#45;&gt;Node8 -->
<g id="edge15" class="edge"><title>Node13&#45;&gt;Node8</title>
<path fill="none" stroke="midnightblue" d="M396.275,-475.73C454.803,-472.018 570.171,-464.699 626.907,-461.099"/>
<polygon fill="midnightblue" stroke="midnightblue" points="395.794,-472.254 386.035,-476.38 396.237,-479.24 395.794,-472.254"/>
</g>
<!-- Node14 -->
<g id="node14" class="node"><title>Node14</title>
<g id="a_node14"><a xlink:href="a00341.html#gaae889abeb145ec41f7361aa8f597fe46" target="_top" xlink:title="send the SQL command to the server and wait for an answer. ">
<polygon fill="white" stroke="black" points="489,-544.5 489,-563.5 553,-563.5 553,-544.5 489,-544.5"/>
<text text-anchor="middle" x="521" y="-551.5" font-family="Helvetica,sans-Serif" font-size="10.00">dbsqlexec</text>
</a>
</g>
</g>
<!-- Node13&#45;&gt;Node14 -->
<g id="edge13" class="edge"><title>Node13&#45;&gt;Node14</title>
<path fill="none" stroke="midnightblue" d="M395.711,-487.498C402.39,-490.057 409.12,-493.199 415,-497 434.537,-509.631 431.053,-523.028 451,-535 462.399,-541.842 476.324,-546.283 488.671,-549.136"/>
<polygon fill="midnightblue" stroke="midnightblue" points="396.663,-484.124 386.069,-484.157 394.372,-490.738 396.663,-484.124"/>
</g>
<!-- Node14&#45;&gt;Node7 -->
<g id="edge14" class="edge"><title>Node14&#45;&gt;Node7</title>
<path fill="none" stroke="midnightblue" d="M563.535,-554C588.297,-554 618.699,-554 638.674,-554"/>
<polygon fill="midnightblue" stroke="midnightblue" points="563.314,-550.5 553.314,-554 563.314,-557.5 563.314,-550.5"/>
</g>
<!-- Node15&#45;&gt;Node7 -->
<g id="edge17" class="edge"><title>Node15&#45;&gt;Node7</title>
<path fill="none" stroke="midnightblue" d="M405.206,-590.781C451.878,-588.935 527.044,-584.339 591,-573 607.272,-570.115 625.26,-565.099 638.789,-560.946"/>
<polygon fill="midnightblue" stroke="midnightblue" points="404.986,-587.287 395.123,-591.155 405.246,-594.282 404.986,-587.287"/>
</g>
<!-- Node17&#45;&gt;Node14 -->
<g id="edge21" class="edge"><title>Node17&#45;&gt;Node14</title>
<path fill="none" stroke="midnightblue" d="M402.359,-554C429.453,-554 464.15,-554 488.825,-554"/>
<polygon fill="midnightblue" stroke="midnightblue" points="402.012,-550.5 392.012,-554 402.012,-557.5 402.012,-550.5"/>
</g>
<!-- Node20 -->
<g id="node20" class="node"><title>Node20</title>
<g id="a_node20"><a xlink:href="a00343.html#gada8e987c4a6225b9276c05ba3a4f47a0" target="_top" xlink:title="Prepare for bulk copy operation on a table. ">
<polygon fill="white" stroke="black" points="494.5,-76.5 494.5,-95.5 547.5,-95.5 547.5,-76.5 494.5,-76.5"/>
<text text-anchor="middle" x="521" y="-83.5" font-family="Helvetica,sans-Serif" font-size="10.00">bcp_init</text>
</a>
</g>
</g>
<!-- Node19&#45;&gt;Node20 -->
<g id="edge24" class="edge"><title>Node19&#45;&gt;Node20</title>
<path fill="none" stroke="midnightblue" d="M406.45,-109.493C434.98,-103.59 470.592,-96.2223 494.249,-91.3278"/>
<polygon fill="midnightblue" stroke="midnightblue" points="405.378,-106.141 396.295,-111.594 406.797,-112.995 405.378,-106.141"/>
</g>
<!-- Node22 -->
<g id="node22" class="node"><title>Node22</title>
<g id="a_node22"><a xlink:href="a00359.html#ga93945b42d45ee28ae1296b35a1c1e9bb" target="_top" xlink:title="tds_process_login_tokens() is called after sending the login packet to the server. ">
<polygon fill="white" stroke="black" points="451,-38.5 451,-57.5 591,-57.5 591,-38.5 451,-38.5"/>
<text text-anchor="middle" x="521" y="-45.5" font-family="Helvetica,sans-Serif" font-size="10.00">tds_process_login_tokens</text>
</a>
</g>
</g>
<!-- Node21&#45;&gt;Node22 -->
<g id="edge26" class="edge"><title>Node21&#45;&gt;Node22</title>
<path fill="none" stroke="midnightblue" d="M408.452,-64.7846C423.589,-62.507 440.553,-59.9545 456.594,-57.5407"/>
<polygon fill="midnightblue" stroke="midnightblue" points="407.667,-61.3633 398.299,-66.3123 408.709,-68.2853 407.667,-61.3633"/>
</g>
<!-- Node23&#45;&gt;Node18 -->
<g id="edge28" class="edge"><title>Node23&#45;&gt;Node18</title>
<path fill="none" stroke="midnightblue" d="M399.961,-361.501C415.623,-368.81 433.94,-376.83 451,-383 460.581,-386.465 471.104,-389.66 480.982,-392.402"/>
<polygon fill="midnightblue" stroke="midnightblue" points="401.124,-358.179 390.588,-357.065 398.129,-364.506 401.124,-358.179"/>
</g>
<!-- Node24 -->
<g id="node24" class="node"><title>Node24</title>
<g id="a_node24"><a xlink:href="a00193.html#ade7df2db455b61edc83819ad60edb339" target="_top" xlink:title="Tell we finished sending BCP data to server. ">
<polygon fill="white" stroke="red" points="479.5,-316.5 479.5,-335.5 562.5,-335.5 562.5,-316.5 479.5,-316.5"/>
<text text-anchor="middle" x="521" y="-323.5" font-family="Helvetica,sans-Serif" font-size="10.00">tds_bcp_done</text>
</a>
</g>
</g>
<!-- Node23&#45;&gt;Node24 -->
<g id="edge29" class="edge"><title>Node23&#45;&gt;Node24</title>
<path fill="none" stroke="midnightblue" d="M425.011,-335.529C443.385,-333.686 462.879,-331.73 479.395,-330.073"/>
<polygon fill="midnightblue" stroke="midnightblue" points="424.545,-332.058 414.945,-336.538 425.244,-339.023 424.545,-332.058"/>
</g>
<!-- Node25 -->
<g id="node25" class="node"><title>Node25</title>
<g id="a_node25"><a xlink:href="a00193.html#a8208eef2a3974ae1f0cf3c8c8ab011ce" target="_top" xlink:title="Start sending BCP data to server. ">
<polygon fill="white" stroke="red" points="481,-278.5 481,-297.5 561,-297.5 561,-278.5 481,-278.5"/>
<text text-anchor="middle" x="521" y="-285.5" font-family="Helvetica,sans-Serif" font-size="10.00">tds_bcp_start</text>
</a>
</g>
</g>
<!-- Node23&#45;&gt;Node25 -->
<g id="edge30" class="edge"><title>Node23&#45;&gt;Node25</title>
<path fill="none" stroke="midnightblue" d="M406.682,-323.113C420.8,-317.617 436.443,-311.806 451,-307 461.147,-303.65 472.263,-300.407 482.553,-297.576"/>
<polygon fill="midnightblue" stroke="midnightblue" points="405.208,-319.931 397.184,-326.85 407.771,-326.445 405.208,-319.931"/>
</g>
<!-- Node26 -->
<g id="node26" class="node"><title>Node26</title>
<g id="a_node26"><a xlink:href="a00193.html#a7711612cc544a7da2c7aa212b870acb2" target="_top" xlink:title="Start writing writetext request. ">
<polygon fill="white" stroke="black" points="469,-354.5 469,-373.5 573,-373.5 573,-354.5 469,-354.5"/>
<text text-anchor="middle" x="521" y="-361.5" font-family="Helvetica,sans-Serif" font-size="10.00">tds_writetext_start</text>
</a>
</g>
</g>
<!-- Node23&#45;&gt;Node26 -->
<g id="edge31" class="edge"><title>Node23&#45;&gt;Node26</title>
<path fill="none" stroke="midnightblue" d="M424.906,-350.884C439.496,-352.896 454.798,-355.007 468.757,-356.932"/>
<polygon fill="midnightblue" stroke="midnightblue" points="425.329,-347.409 414.945,-349.51 424.373,-354.343 425.329,-347.409"/>
</g>
<!-- Node27 -->
<g id="node27" class="node"><title>Node27</title>
<g id="a_node27"><a xlink:href="a00359.html#ga69902dffb299d62a799888e0fa3ccd68" target="_top" xlink:title="Attempt to close all deferred closes (dynamics and cursors). ">
<polygon fill="white" stroke="red" points="461.5,-229 461.5,-259 580.5,-259 580.5,-229 461.5,-229"/>
<text text-anchor="start" x="469.5" y="-247" font-family="Helvetica,sans-Serif" font-size="10.00">tds_process_pending</text>
<text text-anchor="middle" x="521" y="-236" font-family="Helvetica,sans-Serif" font-size="10.00">_closes</text>
</a>
</g>
</g>
<!-- Node23&#45;&gt;Node27 -->
<g id="edge33" class="edge"><title>Node23&#45;&gt;Node27</title>
<path fill="none" stroke="midnightblue" d="M383.419,-319.91C400.837,-304.059 425.99,-283.095 451,-269 457.549,-265.309 464.744,-261.992 471.94,-259.072"/>
<polygon fill="midnightblue" stroke="midnightblue" points="380.949,-317.427 375.989,-326.79 385.705,-322.564 380.949,-317.427"/>
</g>
<!-- Node26&#45;&gt;Node8 -->
<g id="edge32" class="edge"><title>Node26&#45;&gt;Node8</title>
<path fill="none" stroke="midnightblue" d="M580.162,-377.36C583.934,-379.028 587.585,-380.901 591,-383 619.542,-400.545 643.375,-433.308 654.023,-449.476"/>
<polygon fill="midnightblue" stroke="midnightblue" points="581.187,-374.003 570.6,-373.617 578.636,-380.521 581.187,-374.003"/>
</g>
<!-- Node29 -->
<g id="node29" class="node"><title>Node29</title>
<g id="a_node29"><a xlink:href="a00341.html#ga5ea23272124fff03b8d87538c1ec3ee5" target="_top" xlink:title="Cancel the current command batch. ">
<polygon fill="white" stroke="black" points="491.5,-0.5 491.5,-19.5 550.5,-19.5 550.5,-0.5 491.5,-0.5"/>
<text text-anchor="middle" x="521" y="-7.5" font-family="Helvetica,sans-Serif" font-size="10.00">dbcancel</text>
</a>
</g>
</g>
<!-- Node28&#45;&gt;Node29 -->
<g id="edge35" class="edge"><title>Node28&#45;&gt;Node29</title>
<path fill="none" stroke="midnightblue" d="M425.451,-12.9639C448.421,-12.2438 473.089,-11.4706 491.467,-10.8944"/>
<polygon fill="midnightblue" stroke="midnightblue" points="425.276,-9.46758 415.391,-13.2793 425.496,-16.4641 425.276,-9.46758"/>
</g>
</g>
</svg>
