<?xml version="1.0" encoding="UTF-8" standalone="no"?>
<!DOCTYPE svg PUBLIC "-//W3C//DTD SVG 1.1//EN"
 "http://www.w3.org/Graphics/SVG/1.1/DTD/svg11.dtd">
<!-- Generated by graphviz version 2.38.0 (20140413.2041)
 -->
<!-- Title: tds_query_flush_packet Pages: 1 -->
<svg width="749pt" height="632pt"
 viewBox="0.00 0.00 749.00 631.91" xmlns="http://www.w3.org/2000/svg" xmlns:xlink="http://www.w3.org/1999/xlink">
<g id="graph0" class="graph" transform="scale(1 1) rotate(0) translate(4 627.91)">
<title>tds_query_flush_packet</title>
<polygon fill="white" stroke="none" points="-4,4 -4,-627.91 745,-627.91 745,4 -4,4"/>
<!-- Node1 -->
<g id="node1" class="node"><title>Node1</title>
<polygon fill="#bfbfbf" stroke="black" points="0,-224.41 0,-243.41 128,-243.41 128,-224.41 0,-224.41"/>
<text text-anchor="middle" x="64" y="-231.41" font-family="Helvetica,sans-Serif" font-size="10.00">tds_query_flush_packet</text>
</g>
<!-- Node2 -->
<g id="node2" class="node"><title>Node2</title>
<g id="a_node2"><a xlink:href="a00356.html#ga95e0fccedc459a4404f496eec74a369a" target="_top" xlink:title="tds_submit_query_params() sends a language string to the database server for processing. ">
<polygon fill="white" stroke="black" points="164,-424.41 164,-443.41 304,-443.41 304,-424.41 164,-424.41"/>
<text text-anchor="middle" x="234" y="-431.41" font-family="Helvetica,sans-Serif" font-size="10.00">tds_submit_query_params</text>
</a>
</g>
</g>
<!-- Node1&#45;&gt;Node2 -->
<g id="edge1" class="edge"><title>Node1&#45;&gt;Node2</title>
<path fill="none" stroke="midnightblue" d="M72.1135,-252.968C85.4815,-286.549 117.278,-356.781 164,-399.91 175.677,-410.69 191.408,-418.794 204.9,-424.382"/>
<polygon fill="midnightblue" stroke="midnightblue" points="75.2975,-251.497 68.4253,-243.434 68.7689,-254.023 75.2975,-251.497"/>
</g>
<!-- Node7 -->
<g id="node7" class="node"><title>Node7</title>
<g id="a_node7"><a xlink:href="a00356.html#gaf0da49585d39e99780a004ee2ca23479" target="_top" xlink:title="Send option commands to server. ">
<polygon fill="white" stroke="black" points="495.5,-604.41 495.5,-623.41 616.5,-623.41 616.5,-604.41 495.5,-604.41"/>
<text text-anchor="middle" x="556" y="-611.41" font-family="Helvetica,sans-Serif" font-size="10.00">tds_submit_optioncmd</text>
</a>
</g>
</g>
<!-- Node1&#45;&gt;Node7 -->
<g id="edge26" class="edge"><title>Node1&#45;&gt;Node7</title>
<path fill="none" stroke="midnightblue" d="M68.8211,-253.453C77.976,-295.407 104.937,-394.976 164,-452.91 258.597,-545.699 414.177,-587.68 497.717,-604.371"/>
<polygon fill="midnightblue" stroke="midnightblue" points="72.2466,-252.735 66.7832,-243.657 65.3934,-254.16 72.2466,-252.735"/>
</g>
<!-- Node8 -->
<g id="node8" class="node"><title>Node8</title>
<g id="a_node8"><a xlink:href="a00356.html#ga7bf3670d3d6dabed469b9eb117298079" target="_top" xlink:title="Send a rollback request. ">
<polygon fill="white" stroke="black" points="495,-376.41 495,-395.41 617,-395.41 617,-376.41 495,-376.41"/>
<text text-anchor="middle" x="556" y="-383.41" font-family="Helvetica,sans-Serif" font-size="10.00">tds_submit_begin_tran</text>
</a>
</g>
</g>
<!-- Node1&#45;&gt;Node8 -->
<g id="edge27" class="edge"><title>Node1&#45;&gt;Node8</title>
<path fill="none" stroke="midnightblue" d="M75.3173,-252.246C90.8791,-277.979 122.951,-324.098 164,-345.91 269.751,-402.105 414.268,-400.05 494.698,-393.202"/>
<polygon fill="midnightblue" stroke="midnightblue" points="78.2529,-250.333 70.1772,-243.475 72.2135,-253.872 78.2529,-250.333"/>
</g>
<!-- Node9 -->
<g id="node9" class="node"><title>Node9</title>
<g id="a_node9"><a xlink:href="a00356.html#ga9c1cdcc388506a2ca3c0aaee8c461ba6" target="_top" xlink:title="Send a rollback request. ">
<polygon fill="white" stroke="black" points="502,-338.41 502,-357.41 610,-357.41 610,-338.41 502,-338.41"/>
<text text-anchor="middle" x="556" y="-345.41" font-family="Helvetica,sans-Serif" font-size="10.00">tds_submit_rollback</text>
</a>
</g>
</g>
<!-- Node1&#45;&gt;Node9 -->
<g id="edge28" class="edge"><title>Node1&#45;&gt;Node9</title>
<path fill="none" stroke="midnightblue" d="M79.7651,-251.249C97.5348,-270.767 129.339,-301.614 164,-315.91 277.177,-362.592 424.187,-359.495 501.722,-353.509"/>
<polygon fill="midnightblue" stroke="midnightblue" points="82.2923,-248.824 73.0414,-243.659 77.0526,-253.465 82.2923,-248.824"/>
</g>
<!-- Node10 -->
<g id="node10" class="node"><title>Node10</title>
<g id="a_node10"><a xlink:href="a00356.html#ga530538c4c975524cf0b771a550fc94a3" target="_top" xlink:title="Send a commit request. ">
<polygon fill="white" stroke="black" points="503.5,-300.41 503.5,-319.41 608.5,-319.41 608.5,-300.41 503.5,-300.41"/>
<text text-anchor="middle" x="556" y="-307.41" font-family="Helvetica,sans-Serif" font-size="10.00">tds_submit_commit</text>
</a>
</g>
</g>
<!-- Node1&#45;&gt;Node10 -->
<g id="edge29" class="edge"><title>Node1&#45;&gt;Node10</title>
<path fill="none" stroke="midnightblue" d="M85.4717,-249.609C104.616,-263.3 134.593,-282.28 164,-290.91 281.544,-325.409 427.404,-320.746 503.432,-314.966"/>
<polygon fill="midnightblue" stroke="midnightblue" points="87.369,-246.66 77.2363,-243.565 83.2271,-252.304 87.369,-246.66"/>
</g>
<!-- Node13 -->
<g id="node13" class="node"><title>Node13</title>
<g id="a_node13"><a xlink:href="a00356.html#ga74eb08c3a1c85be8ac9db428842c8b9d" target="_top" xlink:title="tds_submit_prepare() creates a temporary stored procedure in the server. ">
<polygon fill="white" stroke="black" points="179,-262.41 179,-281.41 289,-281.41 289,-262.41 179,-262.41"/>
<text text-anchor="middle" x="234" y="-269.41" font-family="Helvetica,sans-Serif" font-size="10.00">tds_submit_prepare</text>
</a>
</g>
</g>
<!-- Node1&#45;&gt;Node13 -->
<g id="edge13" class="edge"><title>Node1&#45;&gt;Node13</title>
<path fill="none" stroke="midnightblue" d="M117.276,-245.735C140.961,-251.092 168.59,-257.341 190.911,-262.39"/>
<polygon fill="midnightblue" stroke="midnightblue" points="117.919,-242.292 107.393,-243.499 116.375,-249.119 117.919,-242.292"/>
</g>
<!-- Node14 -->
<g id="node14" class="node"><title>Node14</title>
<g id="a_node14"><a xlink:href="a00356.html#gae603aed795a4c5bb26ab159a11256996" target="_top" xlink:title="Submit a prepared query with parameters. ">
<polygon fill="white" stroke="black" points="173.5,-224.41 173.5,-243.41 294.5,-243.41 294.5,-224.41 173.5,-224.41"/>
<text text-anchor="middle" x="234" y="-231.41" font-family="Helvetica,sans-Serif" font-size="10.00">tds_submit_execdirect</text>
</a>
</g>
</g>
<!-- Node1&#45;&gt;Node14 -->
<g id="edge14" class="edge"><title>Node1&#45;&gt;Node14</title>
<path fill="none" stroke="midnightblue" d="M138.217,-233.91C149.912,-233.91 161.892,-233.91 173.227,-233.91"/>
<polygon fill="midnightblue" stroke="midnightblue" points="138.035,-230.41 128.035,-233.91 138.035,-237.41 138.035,-230.41"/>
</g>
<!-- Node15 -->
<g id="node15" class="node"><title>Node15</title>
<g id="a_node15"><a xlink:href="a00356.html#ga08877c101704bebe4fa57e0849dc272d" target="_top" xlink:title="tds71_submit_prepexec() creates a temporary stored procedure in the server. ">
<polygon fill="white" stroke="black" points="170,-186.41 170,-205.41 298,-205.41 298,-186.41 170,-186.41"/>
<text text-anchor="middle" x="234" y="-193.41" font-family="Helvetica,sans-Serif" font-size="10.00">tds71_submit_prepexec</text>
</a>
</g>
</g>
<!-- Node1&#45;&gt;Node15 -->
<g id="edge15" class="edge"><title>Node1&#45;&gt;Node15</title>
<path fill="none" stroke="midnightblue" d="M117.276,-222.086C140.961,-216.729 168.59,-210.479 190.911,-205.43"/>
<polygon fill="midnightblue" stroke="midnightblue" points="116.375,-218.701 107.393,-224.321 117.919,-225.529 116.375,-218.701"/>
</g>
<!-- Node16 -->
<g id="node16" class="node"><title>Node16</title>
<g id="a_node16"><a xlink:href="a00356.html#ga3e7b4793c6f799fbc6c174f673bb5b32" target="_top" xlink:title="tds_submit_execute() sends a previously prepared dynamic statement to the server. ...">
<polygon fill="white" stroke="black" points="179.5,-148.41 179.5,-167.41 288.5,-167.41 288.5,-148.41 179.5,-148.41"/>
<text text-anchor="middle" x="234" y="-155.41" font-family="Helvetica,sans-Serif" font-size="10.00">tds_submit_execute</text>
</a>
</g>
</g>
<!-- Node1&#45;&gt;Node16 -->
<g id="edge16" class="edge"><title>Node1&#45;&gt;Node16</title>
<path fill="none" stroke="midnightblue" d="M87.6619,-218.635C107.195,-206.022 136.509,-188.389 164,-176.91 172.714,-173.272 182.335,-170.119 191.557,-167.484"/>
<polygon fill="midnightblue" stroke="midnightblue" points="85.6083,-215.796 79.1635,-224.205 89.4457,-221.65 85.6083,-215.796"/>
</g>
<!-- Node17 -->
<g id="node17" class="node"><title>Node17</title>
<g id="a_node17"><a xlink:href="a00356.html#gaf573d8d4d2660c8c27770573fca05ff5" target="_top" xlink:title="Send a unprepare request for a prepared query. ">
<polygon fill="white" stroke="black" points="173.5,-72.4103 173.5,-91.4103 294.5,-91.4103 294.5,-72.4103 173.5,-72.4103"/>
<text text-anchor="middle" x="234" y="-79.4103" font-family="Helvetica,sans-Serif" font-size="10.00">tds_submit_unprepare</text>
</a>
</g>
</g>
<!-- Node1&#45;&gt;Node17 -->
<g id="edge17" class="edge"><title>Node1&#45;&gt;Node17</title>
<path fill="none" stroke="midnightblue" d="M73.8614,-215.068C88.4808,-186.06 120.429,-130.707 164,-100.91 169.641,-97.0527 176.043,-93.9757 182.618,-91.5219"/>
<polygon fill="midnightblue" stroke="midnightblue" points="70.6718,-213.623 69.4224,-224.144 76.96,-216.698 70.6718,-213.623"/>
</g>
<!-- Node20 -->
<g id="node20" class="node"><title>Node20</title>
<g id="a_node20"><a xlink:href="a00356.html#gaf614c75ea8f7ad411e53dac0e2f91be4" target="_top" xlink:title="Send RPC as string query. ">
<polygon fill="white" stroke="black" points="169,-34.4103 169,-53.4103 299,-53.4103 299,-34.4103 169,-34.4103"/>
<text text-anchor="middle" x="234" y="-41.4103" font-family="Helvetica,sans-Serif" font-size="10.00">tds_send_emulated_rpc</text>
</a>
</g>
</g>
<!-- Node1&#45;&gt;Node20 -->
<g id="edge20" class="edge"><title>Node1&#45;&gt;Node20</title>
<path fill="none" stroke="midnightblue" d="M70.8347,-214.302C82.4847,-178.601 112.074,-102.991 164,-62.9103 169.016,-59.0384 174.772,-55.9551 180.774,-53.4999"/>
<polygon fill="midnightblue" stroke="midnightblue" points="67.441,-213.427 67.7902,-224.016 74.1206,-215.521 67.441,-213.427"/>
</g>
<!-- Node21 -->
<g id="node21" class="node"><title>Node21</title>
<g id="a_node21"><a xlink:href="a00356.html#ga5f071b94ad7889690762dc85646c74ab" target="_top" xlink:title="tds_submit_rpc() call a RPC from server. ">
<polygon fill="white" stroke="black" points="356,-15.4103 356,-34.4103 443,-34.4103 443,-15.4103 356,-15.4103"/>
<text text-anchor="middle" x="399.5" y="-22.4103" font-family="Helvetica,sans-Serif" font-size="10.00">tds_submit_rpc</text>
</a>
</g>
</g>
<!-- Node1&#45;&gt;Node21 -->
<g id="edge23" class="edge"><title>Node1&#45;&gt;Node21</title>
<path fill="none" stroke="midnightblue" d="M67.4773,-213.925C74.0682,-170.433 96.418,-67.6783 164,-24.9103 227.3,15.1476 320.749,-2.37771 368.307,-15.4044"/>
<polygon fill="midnightblue" stroke="midnightblue" points="63.976,-213.694 66.0669,-224.08 70.9094,-214.657 63.976,-213.694"/>
</g>
<!-- Node23 -->
<g id="node23" class="node"><title>Node23</title>
<g id="a_node23"><a xlink:href="a00356.html#gab25de0567ac096e8f8e88490eeddf562" target="_top" xlink:title="Send a deallocation request to server. ">
<polygon fill="white" stroke="black" points="181,-110.41 181,-129.41 287,-129.41 287,-110.41 181,-110.41"/>
<text text-anchor="middle" x="234" y="-117.41" font-family="Helvetica,sans-Serif" font-size="10.00">tds_cursor_dealloc</text>
</a>
</g>
</g>
<!-- Node1&#45;&gt;Node23 -->
<g id="edge24" class="edge"><title>Node1&#45;&gt;Node23</title>
<path fill="none" stroke="midnightblue" d="M78.6633,-216.247C96.1641,-194.823 128.505,-159.08 164,-138.91 170.806,-135.043 178.441,-131.928 186.084,-129.43"/>
<polygon fill="midnightblue" stroke="midnightblue" points="75.8106,-214.21 72.3052,-224.208 81.2804,-218.578 75.8106,-214.21"/>
</g>
<!-- Node3 -->
<g id="node3" class="node"><title>Node3</title>
<g id="a_node3"><a xlink:href="a00356.html#ga5a29ae7f99d089dc3cea85ec6ee5f3ab" target="_top" xlink:title="tds_submit_query() sends a language string to the database server for processing. ...">
<polygon fill="white" stroke="black" points="350.5,-433.41 350.5,-452.41 448.5,-452.41 448.5,-433.41 350.5,-433.41"/>
<text text-anchor="middle" x="399.5" y="-440.41" font-family="Helvetica,sans-Serif" font-size="10.00">tds_submit_query</text>
</a>
</g>
</g>
<!-- Node2&#45;&gt;Node3 -->
<g id="edge2" class="edge"><title>Node2&#45;&gt;Node3</title>
<path fill="none" stroke="midnightblue" d="M314.569,-438.29C326.794,-438.963 339.085,-439.64 350.346,-440.26"/>
<polygon fill="midnightblue" stroke="midnightblue" points="314.516,-434.782 304.339,-437.727 314.131,-441.772 314.516,-434.782"/>
</g>
<!-- Node4 -->
<g id="node4" class="node"><title>Node4</title>
<g id="a_node4"><a xlink:href="a00344.html#gae67546338cb9542a4902aa914f57f314" target="_top" xlink:title="_bcp_exec_out">
<polygon fill="white" stroke="red" points="653,-433.41 653,-452.41 741,-452.41 741,-433.41 653,-433.41"/>
<text text-anchor="middle" x="697" y="-440.41" font-family="Helvetica,sans-Serif" font-size="10.00">_bcp_exec_out</text>
</a>
</g>
</g>
<!-- Node3&#45;&gt;Node4 -->
<g id="edge3" class="edge"><title>Node3&#45;&gt;Node4</title>
<path fill="none" stroke="midnightblue" d="M458.942,-442.91C515.995,-442.91 601.482,-442.91 652.698,-442.91"/>
<polygon fill="midnightblue" stroke="midnightblue" points="458.635,-439.41 448.635,-442.91 458.635,-446.41 458.635,-439.41"/>
</g>
<!-- Node5 -->
<g id="node5" class="node"><title>Node5</title>
<g id="a_node5"><a xlink:href="a00341.html#gac980139b9cea03cf93e373d425991481" target="_top" xlink:title="Transmit the command buffer to the server. ">
<polygon fill="white" stroke="red" points="523.5,-566.41 523.5,-585.41 588.5,-585.41 588.5,-566.41 523.5,-566.41"/>
<text text-anchor="middle" x="556" y="-573.41" font-family="Helvetica,sans-Serif" font-size="10.00">dbsqlsend</text>
</a>
</g>
</g>
<!-- Node3&#45;&gt;Node5 -->
<g id="edge4" class="edge"><title>Node3&#45;&gt;Node5</title>
<path fill="none" stroke="midnightblue" d="M411.045,-461.328C426.376,-486.501 457.163,-531.43 495,-556.91 503.429,-562.586 513.652,-566.646 523.253,-569.514"/>
<polygon fill="midnightblue" stroke="midnightblue" points="413.886,-459.256 405.777,-452.439 407.865,-462.826 413.886,-459.256"/>
</g>
<!-- Node6 -->
<g id="node6" class="node"><title>Node6</title>
<g id="a_node6"><a xlink:href="a00356.html#gad695defcbf663b0023851a198206a772" target="_top" xlink:title="Format and submit a query. ">
<polygon fill="white" stroke="red" points="505.5,-452.41 505.5,-471.41 606.5,-471.41 606.5,-452.41 505.5,-452.41"/>
<text text-anchor="middle" x="556" y="-459.41" font-family="Helvetica,sans-Serif" font-size="10.00">tds_submit_queryf</text>
</a>
</g>
</g>
<!-- Node3&#45;&gt;Node6 -->
<g id="edge5" class="edge"><title>Node3&#45;&gt;Node6</title>
<path fill="none" stroke="midnightblue" d="M458.493,-450.042C473.925,-451.94 490.453,-453.972 505.391,-455.81"/>
<polygon fill="midnightblue" stroke="midnightblue" points="458.89,-446.565 448.538,-448.818 458.036,-453.512 458.89,-446.565"/>
</g>
<!-- Node3&#45;&gt;Node7 -->
<g id="edge7" class="edge"><title>Node3&#45;&gt;Node7</title>
<path fill="none" stroke="midnightblue" d="M412.593,-460.928C424.616,-478.976 443.458,-507.63 459,-532.91 475.688,-560.055 470.138,-574.981 495,-594.91 499.86,-598.806 505.53,-601.908 511.408,-604.378"/>
<polygon fill="midnightblue" stroke="midnightblue" points="415.447,-458.9 406.981,-452.53 409.627,-462.789 415.447,-458.9"/>
</g>
<!-- Node3&#45;&gt;Node8 -->
<g id="edge8" class="edge"><title>Node3&#45;&gt;Node8</title>
<path fill="none" stroke="midnightblue" d="M435.914,-429.845C464.313,-419.368 503.514,-404.905 529.056,-395.482"/>
<polygon fill="midnightblue" stroke="midnightblue" points="434.53,-426.625 426.36,-433.37 436.953,-433.192 434.53,-426.625"/>
</g>
<!-- Node3&#45;&gt;Node9 -->
<g id="edge9" class="edge"><title>Node3&#45;&gt;Node9</title>
<path fill="none" stroke="midnightblue" d="M417.153,-426.263C435.02,-409.23 464.908,-383.038 495,-366.91 501.934,-363.194 509.714,-360.065 517.315,-357.487"/>
<polygon fill="midnightblue" stroke="midnightblue" points="414.565,-423.898 409.832,-433.376 419.443,-428.918 414.565,-423.898"/>
</g>
<!-- Node3&#45;&gt;Node10 -->
<g id="edge10" class="edge"><title>Node3&#45;&gt;Node10</title>
<path fill="none" stroke="midnightblue" d="M411.045,-424.493C426.376,-399.319 457.163,-354.391 495,-328.91 500.71,-325.065 507.243,-321.962 513.848,-319.468"/>
<polygon fill="midnightblue" stroke="midnightblue" points="407.865,-422.995 405.777,-433.382 413.886,-426.564 407.865,-422.995"/>
</g>
<!-- Node11 -->
<g id="node11" class="node"><title>Node11</title>
<g id="a_node11"><a xlink:href="a00193.html#a8208eef2a3974ae1f0cf3c8c8ab011ce" target="_top" xlink:title="Start sending BCP data to server. ">
<polygon fill="white" stroke="red" points="516,-528.41 516,-547.41 596,-547.41 596,-528.41 516,-528.41"/>
<text text-anchor="middle" x="556" y="-535.41" font-family="Helvetica,sans-Serif" font-size="10.00">tds_bcp_start</text>
</a>
</g>
</g>
<!-- Node3&#45;&gt;Node11 -->
<g id="edge11" class="edge"><title>Node3&#45;&gt;Node11</title>
<path fill="none" stroke="midnightblue" d="M417.153,-459.557C435.02,-476.591 464.908,-502.782 495,-518.91 501.934,-522.627 509.714,-525.755 517.315,-528.333"/>
<polygon fill="midnightblue" stroke="midnightblue" points="419.443,-456.902 409.832,-452.444 414.565,-461.923 419.443,-456.902"/>
</g>
<!-- Node12 -->
<g id="node12" class="node"><title>Node12</title>
<g id="a_node12"><a xlink:href="a00359.html#ga55f27c3e05d42c9b07ace1c74b11c5ab" target="_top" xlink:title="Retrieve and set @spid. ">
<polygon fill="white" stroke="red" points="517.5,-490.41 517.5,-509.41 594.5,-509.41 594.5,-490.41 517.5,-490.41"/>
<text text-anchor="middle" x="556" y="-497.41" font-family="Helvetica,sans-Serif" font-size="10.00">tds_set_spid</text>
</a>
</g>
</g>
<!-- Node3&#45;&gt;Node12 -->
<g id="edge12" class="edge"><title>Node3&#45;&gt;Node12</title>
<path fill="none" stroke="midnightblue" d="M432.138,-456.329C450.385,-463.892 473.837,-473.317 495,-480.91 504.153,-484.195 514.194,-487.492 523.399,-490.396"/>
<polygon fill="midnightblue" stroke="midnightblue" points="433.424,-453.073 422.847,-452.453 430.728,-459.533 433.424,-453.073"/>
</g>
<!-- Node6&#45;&gt;Node4 -->
<g id="edge6" class="edge"><title>Node6&#45;&gt;Node4</title>
<path fill="none" stroke="midnightblue" d="M616.868,-453.727C629.019,-452.066 641.57,-450.35 652.997,-448.788"/>
<polygon fill="midnightblue" stroke="midnightblue" points="616.223,-450.282 606.79,-455.105 617.171,-457.218 616.223,-450.282"/>
</g>
<!-- Node18 -->
<g id="node18" class="node"><title>Node18</title>
<g id="a_node18"><a xlink:href="a00359.html#ga69902dffb299d62a799888e0fa3ccd68" target="_top" xlink:title="Attempt to close all deferred closes (dynamics and cursors). ">
<polygon fill="white" stroke="black" points="340,-88.9103 340,-118.91 459,-118.91 459,-88.9103 340,-88.9103"/>
<text text-anchor="start" x="348" y="-106.91" font-family="Helvetica,sans-Serif" font-size="10.00">tds_process_pending</text>
<text text-anchor="middle" x="399.5" y="-95.9103" font-family="Helvetica,sans-Serif" font-size="10.00">_closes</text>
</a>
</g>
</g>
<!-- Node17&#45;&gt;Node18 -->
<g id="edge18" class="edge"><title>Node17&#45;&gt;Node18</title>
<path fill="none" stroke="midnightblue" d="M305.058,-91.337C316.678,-92.9006 328.62,-94.5075 339.918,-96.0277"/>
<polygon fill="midnightblue" stroke="midnightblue" points="305.33,-87.8422 294.953,-89.9774 304.397,-94.7797 305.33,-87.8422"/>
</g>
<!-- Node19 -->
<g id="node19" class="node"><title>Node19</title>
<g id="a_node19"><a xlink:href="a00359.html#ga7a081cf9bb8f04ead12f0299fb7c4cd9" target="_top" xlink:title="tds_process_end() processes any of the DONE, DONEPROC, or DONEINPROC tokens. ">
<polygon fill="white" stroke="red" points="507,-94.4103 507,-113.41 605,-113.41 605,-94.4103 507,-94.4103"/>
<text text-anchor="middle" x="556" y="-101.41" font-family="Helvetica,sans-Serif" font-size="10.00">tds_process_end</text>
</a>
</g>
</g>
<!-- Node18&#45;&gt;Node19 -->
<g id="edge19" class="edge"><title>Node18&#45;&gt;Node19</title>
<path fill="none" stroke="midnightblue" d="M469.397,-103.91C482.038,-103.91 494.981,-103.91 506.85,-103.91"/>
<polygon fill="midnightblue" stroke="midnightblue" points="469.351,-100.41 459.351,-103.91 469.351,-107.41 469.351,-100.41"/>
</g>
<!-- Node20&#45;&gt;Node21 -->
<g id="edge21" class="edge"><title>Node20&#45;&gt;Node21</title>
<path fill="none" stroke="midnightblue" d="M309.478,-35.2554C325.312,-33.4153 341.513,-31.5327 355.679,-29.8864"/>
<polygon fill="midnightblue" stroke="midnightblue" points="308.679,-31.8245 299.15,-36.4555 309.487,-38.7777 308.679,-31.8245"/>
</g>
<!-- Node22 -->
<g id="node22" class="node"><title>Node22</title>
<g id="a_node22"><a xlink:href="a00342.html#gafa4dfd181be21e49c397f7daaa9cf96c" target="_top" xlink:title="Execute the procedure and free associated memory. ">
<polygon fill="white" stroke="black" points="523,-15.4103 523,-34.4103 589,-34.4103 589,-15.4103 523,-15.4103"/>
<text text-anchor="middle" x="556" y="-22.4103" font-family="Helvetica,sans-Serif" font-size="10.00">dbrpcsend</text>
</a>
</g>
</g>
<!-- Node21&#45;&gt;Node22 -->
<g id="edge22" class="edge"><title>Node21&#45;&gt;Node22</title>
<path fill="none" stroke="midnightblue" d="M453.145,-24.9103C476.267,-24.9103 502.673,-24.9103 522.804,-24.9103"/>
<polygon fill="midnightblue" stroke="midnightblue" points="453.127,-21.4104 443.127,-24.9103 453.127,-28.4104 453.127,-21.4104"/>
</g>
<!-- Node23&#45;&gt;Node18 -->
<g id="edge25" class="edge"><title>Node23&#45;&gt;Node18</title>
<path fill="none" stroke="midnightblue" d="M297.177,-113.826C311.135,-112.46 325.901,-111.015 339.715,-109.663"/>
<polygon fill="midnightblue" stroke="midnightblue" points="296.794,-110.346 287.182,-114.804 297.475,-117.313 296.794,-110.346"/>
</g>
</g>
</svg>
