<?xml version="1.0" encoding="UTF-8" standalone="no"?>
<!DOCTYPE svg PUBLIC "-//W3C//DTD SVG 1.1//EN"
 "http://www.w3.org/Graphics/SVG/1.1/DTD/svg11.dtd">
<!-- Generated by graphviz version 2.38.0 (20140413.2041)
 -->
<!-- Title: tds_submit_rollback Pages: 1 -->
<svg width="914pt" height="606pt"
 viewBox="0.00 0.00 914.00 606.03" xmlns="http://www.w3.org/2000/svg" xmlns:xlink="http://www.w3.org/1999/xlink">
<g id="graph0" class="graph" transform="scale(1 1) rotate(0) translate(4 602.027)">
<title>tds_submit_rollback</title>
<polygon fill="white" stroke="none" points="-4,4 -4,-602.027 910,-602.027 910,4 -4,4"/>
<!-- Node1 -->
<g id="node1" class="node"><title>Node1</title>
<polygon fill="#bfbfbf" stroke="black" points="0,-535.545 0,-554.545 108,-554.545 108,-535.545 0,-535.545"/>
<text text-anchor="middle" x="54" y="-542.545" font-family="Helvetica,sans-Serif" font-size="10.00">tds_submit_rollback</text>
</g>
<!-- Node2 -->
<g id="node2" class="node"><title>Node2</title>
<g id="a_node2"><a xlink:href="a00356.html#ga5a29ae7f99d089dc3cea85ec6ee5f3ab" target="_top" xlink:title="tds_submit_query() sends a language string to the database server for processing. ...">
<polygon fill="white" stroke="black" points="144,-383.545 144,-402.545 242,-402.545 242,-383.545 144,-383.545"/>
<text text-anchor="middle" x="193" y="-390.545" font-family="Helvetica,sans-Serif" font-size="10.00">tds_submit_query</text>
</a>
</g>
</g>
<!-- Node1&#45;&gt;Node2 -->
<g id="edge1" class="edge"><title>Node1&#45;&gt;Node2</title>
<path fill="none" stroke="midnightblue" d="M63.57,-535.537C86.1551,-510.479 147.551,-442.361 176.501,-410.242"/>
<polygon fill="midnightblue" stroke="midnightblue" points="179.338,-412.321 183.433,-402.55 174.138,-407.635 179.338,-412.321"/>
</g>
<!-- Node4 -->
<g id="node4" class="node"><title>Node4</title>
<g id="a_node4"><a xlink:href="a00193.html#a16db200d2281f76fe46fc1cbe37ca9df" target="_top" xlink:title="Set state of TDS connection, with logging and checking. ">
<polygon fill="white" stroke="red" points="661.5,-544.545 661.5,-563.545 741.5,-563.545 741.5,-544.545 661.5,-544.545"/>
<text text-anchor="middle" x="701.5" y="-551.545" font-family="Helvetica,sans-Serif" font-size="10.00">tds_set_state</text>
</a>
</g>
</g>
<!-- Node1&#45;&gt;Node4 -->
<g id="edge28" class="edge"><title>Node1&#45;&gt;Node4</title>
<path fill="none" stroke="midnightblue" d="M88.9623,-554.55C105.446,-558.779 125.616,-563.394 144,-566.045 345.17,-595.062 399.788,-611.77 601,-583.045 622.893,-579.92 646.7,-573.111 665.536,-566.876"/>
<polygon fill="midnightblue" stroke="midnightblue" points="666.833,-570.131 675.17,-563.594 664.576,-563.505 666.833,-570.131"/>
</g>
<!-- Node18 -->
<g id="node18" class="node"><title>Node18</title>
<g id="a_node18"><a xlink:href="a00356.html#gada27f4cfce925240ad33b71b63ca692d" target="_top" xlink:title="Flush query packet. ">
<polygon fill="white" stroke="red" points="463.5,-554.545 463.5,-573.545 591.5,-573.545 591.5,-554.545 463.5,-554.545"/>
<text text-anchor="middle" x="527.5" y="-561.545" font-family="Helvetica,sans-Serif" font-size="10.00">tds_query_flush_packet</text>
</a>
</g>
</g>
<!-- Node1&#45;&gt;Node18 -->
<g id="edge31" class="edge"><title>Node1&#45;&gt;Node18</title>
<path fill="none" stroke="midnightblue" d="M108.171,-548.203C119.966,-548.856 132.406,-549.508 144,-550.045 251.52,-555.033 376.109,-559.314 453.123,-561.785"/>
<polygon fill="midnightblue" stroke="midnightblue" points="453.096,-565.286 463.202,-562.107 453.319,-558.29 453.096,-565.286"/>
</g>
<!-- Node19 -->
<g id="node19" class="node"><title>Node19</title>
<g id="a_node19"><a xlink:href="a00356.html#gab543692776c2bc0afc3bd056f074080c" target="_top" xlink:title="Start query packet of a given type. ">
<polygon fill="white" stroke="black" points="303,-516.545 303,-535.545 393,-535.545 393,-516.545 303,-516.545"/>
<text text-anchor="middle" x="348" y="-523.545" font-family="Helvetica,sans-Serif" font-size="10.00">tds_start_query</text>
</a>
</g>
</g>
<!-- Node1&#45;&gt;Node19 -->
<g id="edge29" class="edge"><title>Node1&#45;&gt;Node19</title>
<path fill="none" stroke="midnightblue" d="M108.218,-541.583C160.497,-538.181 239.877,-533.016 292.571,-529.587"/>
<polygon fill="midnightblue" stroke="midnightblue" points="292.986,-533.067 302.738,-528.925 292.531,-526.082 292.986,-533.067"/>
</g>
<!-- Node3 -->
<g id="node3" class="node"><title>Node3</title>
<g id="a_node3"><a xlink:href="a00356.html#ga95e0fccedc459a4404f496eec74a369a" target="_top" xlink:title="tds_submit_query_params() sends a language string to the database server for processing. ">
<polygon fill="white" stroke="black" points="278,-307.545 278,-326.545 418,-326.545 418,-307.545 278,-307.545"/>
<text text-anchor="middle" x="348" y="-314.545" font-family="Helvetica,sans-Serif" font-size="10.00">tds_submit_query_params</text>
</a>
</g>
</g>
<!-- Node2&#45;&gt;Node3 -->
<g id="edge2" class="edge"><title>Node2&#45;&gt;Node3</title>
<path fill="none" stroke="midnightblue" d="M213.378,-383.42C239.934,-370.229 287.827,-346.439 318.482,-331.211"/>
<polygon fill="midnightblue" stroke="midnightblue" points="320.381,-334.176 327.78,-326.593 317.267,-327.907 320.381,-334.176"/>
</g>
<!-- Node3&#45;&gt;Node4 -->
<g id="edge3" class="edge"><title>Node3&#45;&gt;Node4</title>
<path fill="none" stroke="midnightblue" d="M353.081,-326.627C364.739,-352.837 400.815,-426.271 454,-464.045 509.498,-503.462 537.363,-482.879 601,-507.045 626.171,-516.604 653.785,-529.884 673.522,-539.889"/>
<polygon fill="midnightblue" stroke="midnightblue" points="672.038,-543.061 682.533,-544.508 675.231,-536.832 672.038,-543.061"/>
</g>
<!-- Node5 -->
<g id="node5" class="node"><title>Node5</title>
<g id="a_node5"><a xlink:href="a00356.html#ga6455b2991afbf7da90270787f2059d31" target="_top" xlink:title="Get position of next placeholder. ">
<polygon fill="white" stroke="red" points="642,-383.545 642,-402.545 761,-402.545 761,-383.545 642,-383.545"/>
<text text-anchor="middle" x="701.5" y="-390.545" font-family="Helvetica,sans-Serif" font-size="10.00">tds_next_placeholder</text>
</a>
</g>
</g>
<!-- Node3&#45;&gt;Node5 -->
<g id="edge4" class="edge"><title>Node3&#45;&gt;Node5</title>
<path fill="none" stroke="midnightblue" d="M389.853,-326.551C409.269,-331.026 432.814,-336.39 454,-341.045 519.142,-355.36 594.143,-371.072 644.143,-381.438"/>
<polygon fill="midnightblue" stroke="midnightblue" points="643.608,-384.901 654.11,-383.502 645.027,-378.046 643.608,-384.901"/>
</g>
<!-- Node6 -->
<g id="node6" class="node"><title>Node6</title>
<g id="a_node6"><a xlink:href="a00356.html#ga3a5d1771cacc947521c4077551f0d3a4" target="_top" xlink:title="Substitute ?&#45;style placeholders with named (@param) ones. ">
<polygon fill="white" stroke="red" points="474,-402.545 474,-421.545 581,-421.545 581,-402.545 474,-402.545"/>
<text text-anchor="middle" x="527.5" y="-409.545" font-family="Helvetica,sans-Serif" font-size="10.00">tds5_fix_dot_query</text>
</a>
</g>
</g>
<!-- Node3&#45;&gt;Node6 -->
<g id="edge5" class="edge"><title>Node3&#45;&gt;Node6</title>
<path fill="none" stroke="midnightblue" d="M360.93,-326.737C379.736,-341.628 417.865,-370.271 454,-388.045 462.653,-392.302 472.242,-396.077 481.536,-399.3"/>
<polygon fill="midnightblue" stroke="midnightblue" points="480.47,-402.634 491.063,-402.457 482.671,-395.99 480.47,-402.634"/>
</g>
<!-- Node7 -->
<g id="node7" class="node"><title>Node7</title>
<g id="a_node7"><a xlink:href="a00356.html#ga28264995cf9616661f1fa788ac0d246d" target="_top" xlink:title="Send parameters to server. ">
<polygon fill="white" stroke="red" points="481.5,-288.545 481.5,-307.545 573.5,-307.545 573.5,-288.545 481.5,-288.545"/>
<text text-anchor="middle" x="527.5" y="-295.545" font-family="Helvetica,sans-Serif" font-size="10.00">tds_put_params</text>
</a>
</g>
</g>
<!-- Node3&#45;&gt;Node7 -->
<g id="edge7" class="edge"><title>Node3&#45;&gt;Node7</title>
<path fill="none" stroke="midnightblue" d="M418.134,-309.645C435.708,-307.764 454.361,-305.767 471.148,-303.97"/>
<polygon fill="midnightblue" stroke="midnightblue" points="471.762,-307.425 481.333,-302.88 471.017,-300.464 471.762,-307.425"/>
</g>
<!-- Node8 -->
<g id="node8" class="node"><title>Node8</title>
<g id="a_node8"><a xlink:href="a00356.html#gafd74652c4722ddce4d642cc4209449d4" target="_top" xlink:title="Put data information to wire. ">
<polygon fill="white" stroke="red" points="651,-326.545 651,-345.545 752,-345.545 752,-326.545 651,-326.545"/>
<text text-anchor="middle" x="701.5" y="-333.545" font-family="Helvetica,sans-Serif" font-size="10.00">tds_put_data_info</text>
</a>
</g>
</g>
<!-- Node3&#45;&gt;Node8 -->
<g id="edge24" class="edge"><title>Node3&#45;&gt;Node8</title>
<path fill="none" stroke="midnightblue" d="M418.026,-320.776C482.853,-324.281 578.858,-329.47 640.553,-332.805"/>
<polygon fill="midnightblue" stroke="midnightblue" points="640.729,-336.32 650.904,-333.364 641.107,-329.33 640.729,-336.32"/>
</g>
<!-- Node9 -->
<g id="node9" class="node"><title>Node9</title>
<g id="a_node9"><a xlink:href="a00356.html#ga024bc5482366735070befd6f4af59f71" target="_top" xlink:title="Convert a string in an allocated buffer. ">
<polygon fill="white" stroke="red" points="802,-440.545 802,-459.545 906,-459.545 906,-440.545 802,-440.545"/>
<text text-anchor="middle" x="854" y="-447.545" font-family="Helvetica,sans-Serif" font-size="10.00">tds_convert_string</text>
</a>
</g>
</g>
<!-- Node3&#45;&gt;Node9 -->
<g id="edge15" class="edge"><title>Node3&#45;&gt;Node9</title>
<path fill="none" stroke="midnightblue" d="M354.275,-326.708C367.485,-349.79 404.512,-407.927 454,-431.045 512.198,-458.233 695.102,-456.022 791.754,-452.723"/>
<polygon fill="midnightblue" stroke="midnightblue" points="792.097,-456.214 801.966,-452.36 791.848,-449.218 792.097,-456.214"/>
</g>
<!-- Node10 -->
<g id="node10" class="node"><title>Node10</title>
<g id="a_node10"><a xlink:href="a00356.html#ga9fcc0a3932dcad530511395ef8a767fb" target="_top" xlink:title="Write data to wire. ">
<polygon fill="white" stroke="black" points="662.5,-269.545 662.5,-288.545 740.5,-288.545 740.5,-269.545 662.5,-269.545"/>
<text text-anchor="middle" x="701.5" y="-276.545" font-family="Helvetica,sans-Serif" font-size="10.00">tds_put_data</text>
</a>
</g>
</g>
<!-- Node3&#45;&gt;Node10 -->
<g id="edge25" class="edge"><title>Node3&#45;&gt;Node10</title>
<path fill="none" stroke="midnightblue" d="M368.946,-307.458C389.653,-298.077 423.257,-284.437 454,-279.045 521.883,-267.14 601.909,-270.213 651.936,-274.131"/>
<polygon fill="midnightblue" stroke="midnightblue" points="651.886,-277.639 662.141,-274.975 652.463,-270.663 651.886,-277.639"/>
</g>
<!-- Node11 -->
<g id="node11" class="node"><title>Node11</title>
<g id="a_node11"><a xlink:href="a00356.html#ga9ad2e6defce530a8778791cce0166ccd" target="_top" xlink:title="Start query packet of a given type. ">
<polygon fill="white" stroke="black" points="467.5,-516.545 467.5,-535.545 587.5,-535.545 587.5,-516.545 467.5,-516.545"/>
<text text-anchor="middle" x="527.5" y="-523.545" font-family="Helvetica,sans-Serif" font-size="10.00">tds_start_query_head</text>
</a>
</g>
</g>
<!-- Node3&#45;&gt;Node11 -->
<g id="edge11" class="edge"><title>Node3&#45;&gt;Node11</title>
<path fill="none" stroke="midnightblue" d="M351.745,-326.727C360.882,-357.212 393.188,-452.149 454,-502.045 459.045,-506.185 464.83,-509.619 470.884,-512.468"/>
<polygon fill="midnightblue" stroke="midnightblue" points="469.973,-515.879 480.551,-516.477 472.655,-509.413 469.973,-515.879"/>
</g>
<!-- Node12 -->
<g id="node12" class="node"><title>Node12</title>
<g id="a_node12"><a xlink:href="a00357.html#ga1fcaf8d488cc1390f106ce3ad0bf37b4" target="_top" xlink:title="Output a string to wire automatic translate string to unicode if needed. ">
<polygon fill="white" stroke="red" points="660,-18.5453 660,-37.5453 743,-37.5453 743,-18.5453 660,-18.5453"/>
<text text-anchor="middle" x="701.5" y="-25.5453" font-family="Helvetica,sans-Serif" font-size="10.00">tds_put_string</text>
</a>
</g>
</g>
<!-- Node3&#45;&gt;Node12 -->
<g id="edge14" class="edge"><title>Node3&#45;&gt;Node12</title>
<path fill="none" stroke="midnightblue" d="M348.924,-307.282C349.19,-264.95 356.505,-96.3535 454,-28.0453 516.102,15.4654 610.325,-1.25478 662.454,-15.6737"/>
<polygon fill="midnightblue" stroke="midnightblue" points="661.719,-19.1041 672.297,-18.5082 663.656,-12.3774 661.719,-19.1041"/>
</g>
<!-- Node13 -->
<g id="node13" class="node"><title>Node13</title>
<g id="a_node13"><a xlink:href="a00356.html#ga0cd19215e9169ea299a6c9cbf5b2fb60" target="_top" xlink:title="Count number of placeholders (?) in a query. ">
<polygon fill="white" stroke="red" points="637,-163.045 637,-193.045 766,-193.045 766,-163.045 637,-163.045"/>
<text text-anchor="start" x="645" y="-181.045" font-family="Helvetica,sans-Serif" font-size="10.00">tds_count_placeholders</text>
<text text-anchor="middle" x="701.5" y="-170.045" font-family="Helvetica,sans-Serif" font-size="10.00">_ucs2le</text>
</a>
</g>
</g>
<!-- Node3&#45;&gt;Node13 -->
<g id="edge16" class="edge"><title>Node3&#45;&gt;Node13</title>
<path fill="none" stroke="midnightblue" d="M367.716,-307.448C388.524,-296.94 423.257,-279.879 454,-267.045 518.556,-240.097 594.482,-213.415 644.836,-196.401"/>
<polygon fill="midnightblue" stroke="midnightblue" points="646.194,-199.637 654.555,-193.13 643.961,-193.003 646.194,-199.637"/>
</g>
<!-- Node14 -->
<g id="node14" class="node"><title>Node14</title>
<g id="a_node14"><a xlink:href="a00356.html#gac8d5497c2d1b9fadb724111660bd03bd" target="_top" xlink:title="Return string with parameters definition, useful for TDS7+. ">
<polygon fill="white" stroke="red" points="467,-114.045 467,-144.045 588,-144.045 588,-114.045 467,-114.045"/>
<text text-anchor="start" x="475" y="-132.045" font-family="Helvetica,sans-Serif" font-size="10.00">tds7_build_param_def</text>
<text text-anchor="middle" x="527.5" y="-121.045" font-family="Helvetica,sans-Serif" font-size="10.00">_from_params</text>
</a>
</g>
</g>
<!-- Node3&#45;&gt;Node14 -->
<g id="edge17" class="edge"><title>Node3&#45;&gt;Node14</title>
<path fill="none" stroke="midnightblue" d="M352.522,-307.282C363.196,-279.056 397.935,-196.602 454,-153.045 455.786,-151.657 457.657,-150.348 459.592,-149.113"/>
<polygon fill="midnightblue" stroke="midnightblue" points="461.421,-152.1 468.433,-144.157 457.998,-145.994 461.421,-152.1"/>
</g>
<!-- Node15 -->
<g id="node15" class="node"><title>Node15</title>
<g id="a_node15"><a xlink:href="a00356.html#gab775332d378c7fe083750d624441b303" target="_top" xlink:title="Return string with parameters definition, useful for TDS7+. ">
<polygon fill="white" stroke="red" points="467,-163.045 467,-193.045 588,-193.045 588,-163.045 467,-163.045"/>
<text text-anchor="start" x="475" y="-181.045" font-family="Helvetica,sans-Serif" font-size="10.00">tds7_build_param_def</text>
<text text-anchor="middle" x="527.5" y="-170.045" font-family="Helvetica,sans-Serif" font-size="10.00">_from_query</text>
</a>
</g>
</g>
<!-- Node3&#45;&gt;Node15 -->
<g id="edge18" class="edge"><title>Node3&#45;&gt;Node15</title>
<path fill="none" stroke="midnightblue" d="M356.107,-307.307C371.708,-286.526 411.009,-237.344 454,-208.045 459.672,-204.18 465.92,-200.673 472.298,-197.535"/>
<polygon fill="midnightblue" stroke="midnightblue" points="474.072,-200.571 481.683,-193.201 471.137,-194.216 474.072,-200.571"/>
</g>
<!-- Node16 -->
<g id="node16" class="node"><title>Node16</title>
<g id="a_node16"><a xlink:href="a00356.html#ga6e42b4a1d1d3898229ea2fe4afc2ecec" target="_top" xlink:title="Output params types and query (required by sp_prepare/sp_executesql/sp_prepexec) ">
<polygon fill="white" stroke="red" points="462,-37.5453 462,-56.5453 593,-56.5453 593,-37.5453 462,-37.5453"/>
<text text-anchor="middle" x="527.5" y="-44.5453" font-family="Helvetica,sans-Serif" font-size="10.00">tds7_put_query_params</text>
</a>
</g>
</g>
<!-- Node3&#45;&gt;Node16 -->
<g id="edge20" class="edge"><title>Node3&#45;&gt;Node16</title>
<path fill="none" stroke="midnightblue" d="M350.022,-307.341C354.491,-269.967 375.741,-134.056 454,-66.0453 455.795,-64.485 457.704,-63.0506 459.701,-61.7321"/>
<polygon fill="midnightblue" stroke="midnightblue" points="461.857,-64.5416 468.94,-56.6628 458.489,-58.4046 461.857,-64.5416"/>
</g>
<!-- Node17 -->
<g id="node17" class="node"><title>Node17</title>
<g id="a_node17"><a xlink:href="a00356.html#ga0f0b6bf447e9672e3b1ea8453ddeb113" target="_top" xlink:title="Send parameter definition to server. ">
<polygon fill="white" stroke="black" points="454,-75.5453 454,-94.5453 601,-94.5453 601,-75.5453 454,-75.5453"/>
<text text-anchor="middle" x="527.5" y="-82.5453" font-family="Helvetica,sans-Serif" font-size="10.00">tds7_put_params_definition</text>
</a>
</g>
</g>
<!-- Node3&#45;&gt;Node17 -->
<g id="edge23" class="edge"><title>Node3&#45;&gt;Node17</title>
<path fill="none" stroke="midnightblue" d="M350.836,-307.194C357.69,-273.28 385.011,-160.356 454,-104.045 456.073,-102.353 458.28,-100.811 460.588,-99.4044"/>
<polygon fill="midnightblue" stroke="midnightblue" points="462.605,-102.303 469.907,-94.6268 459.412,-96.0741 462.605,-102.303"/>
</g>
<!-- Node3&#45;&gt;Node18 -->
<g id="edge26" class="edge"><title>Node3&#45;&gt;Node18</title>
<path fill="none" stroke="midnightblue" d="M350.442,-326.59C356.246,-361.588 381.201,-484.006 454,-545.045 456.007,-546.728 458.146,-548.263 460.384,-549.664"/>
<polygon fill="midnightblue" stroke="midnightblue" points="458.961,-552.87 469.44,-554.429 462.22,-546.675 458.961,-552.87"/>
</g>
<!-- Node6&#45;&gt;Node5 -->
<g id="edge6" class="edge"><title>Node6&#45;&gt;Node5</title>
<path fill="none" stroke="midnightblue" d="M581.04,-406.241C596.994,-404.479 614.767,-402.516 631.626,-400.654"/>
<polygon fill="midnightblue" stroke="midnightblue" points="632.425,-404.087 641.98,-399.51 631.656,-397.129 632.425,-404.087"/>
</g>
<!-- Node7&#45;&gt;Node8 -->
<g id="edge8" class="edge"><title>Node7&#45;&gt;Node8</title>
<path fill="none" stroke="midnightblue" d="M571.903,-307.634C594.907,-312.717 623.351,-319.001 647.634,-324.366"/>
<polygon fill="midnightblue" stroke="midnightblue" points="646.89,-327.786 657.409,-326.525 648.4,-320.95 646.89,-327.786"/>
</g>
<!-- Node7&#45;&gt;Node10 -->
<g id="edge10" class="edge"><title>Node7&#45;&gt;Node10</title>
<path fill="none" stroke="midnightblue" d="M573.691,-293.053C597.815,-290.388 627.517,-287.107 652.109,-284.391"/>
<polygon fill="midnightblue" stroke="midnightblue" points="652.749,-287.842 662.304,-283.265 651.98,-280.884 652.749,-287.842"/>
</g>
<!-- Node8&#45;&gt;Node9 -->
<g id="edge9" class="edge"><title>Node8&#45;&gt;Node9</title>
<path fill="none" stroke="midnightblue" d="M720.283,-345.558C733.321,-352.799 751.244,-363.317 766,-374.045 791.65,-392.694 818.806,-417.301 835.821,-433.39"/>
<polygon fill="midnightblue" stroke="midnightblue" points="833.659,-436.166 843.309,-440.541 838.494,-431.103 833.659,-436.166"/>
</g>
<!-- Node11&#45;&gt;Node4 -->
<g id="edge13" class="edge"><title>Node11&#45;&gt;Node4</title>
<path fill="none" stroke="midnightblue" d="M587.212,-535.603C608.013,-538.989 631.19,-542.762 651.134,-546.009"/>
<polygon fill="midnightblue" stroke="midnightblue" points="650.807,-549.502 661.239,-547.654 651.932,-542.593 650.807,-549.502"/>
</g>
<!-- Node11&#45;&gt;Node9 -->
<g id="edge12" class="edge"><title>Node11&#45;&gt;Node9</title>
<path fill="none" stroke="midnightblue" d="M569.27,-516.497C628.488,-502.627 738.225,-476.926 802.488,-461.875"/>
<polygon fill="midnightblue" stroke="midnightblue" points="803.459,-465.243 812.397,-459.555 801.863,-458.427 803.459,-465.243"/>
</g>
<!-- Node15&#45;&gt;Node13 -->
<g id="edge19" class="edge"><title>Node15&#45;&gt;Node13</title>
<path fill="none" stroke="midnightblue" d="M588.175,-178.045C600.577,-178.045 613.788,-178.045 626.631,-178.045"/>
<polygon fill="midnightblue" stroke="midnightblue" points="626.83,-181.545 636.83,-178.045 626.83,-174.545 626.83,-181.545"/>
</g>
<!-- Node16&#45;&gt;Node12 -->
<g id="edge22" class="edge"><title>Node16&#45;&gt;Node12</title>
<path fill="none" stroke="midnightblue" d="M593.036,-39.9164C611.762,-37.8478 631.938,-35.619 649.695,-33.6575"/>
<polygon fill="midnightblue" stroke="midnightblue" points="650.286,-37.1136 659.841,-32.5367 649.518,-30.1559 650.286,-37.1136"/>
</g>
<!-- Node16&#45;&gt;Node13 -->
<g id="edge21" class="edge"><title>Node16&#45;&gt;Node13</title>
<path fill="none" stroke="midnightblue" d="M580.358,-56.6072C587.578,-59.0728 594.678,-62.1664 601,-66.0453 637.686,-88.5566 668.521,-128.766 685.739,-154.386"/>
<polygon fill="midnightblue" stroke="midnightblue" points="682.838,-156.344 691.249,-162.786 688.691,-152.505 682.838,-156.344"/>
</g>
<!-- Node18&#45;&gt;Node4 -->
<g id="edge27" class="edge"><title>Node18&#45;&gt;Node4</title>
<path fill="none" stroke="midnightblue" d="M591.57,-560.378C611.308,-559.231 632.785,-557.982 651.412,-556.899"/>
<polygon fill="midnightblue" stroke="midnightblue" points="651.657,-560.391 661.437,-556.316 651.251,-553.403 651.657,-560.391"/>
</g>
<!-- Node19&#45;&gt;Node11 -->
<g id="edge30" class="edge"><title>Node19&#45;&gt;Node11</title>
<path fill="none" stroke="midnightblue" d="M393.333,-526.045C412.658,-526.045 435.768,-526.045 457.27,-526.045"/>
<polygon fill="midnightblue" stroke="midnightblue" points="457.343,-529.545 467.343,-526.045 457.343,-522.545 457.343,-529.545"/>
</g>
</g>
</svg>
