<?xml version="1.0" encoding="UTF-8" standalone="no"?>
<!DOCTYPE svg PUBLIC "-//W3C//DTD SVG 1.1//EN"
 "http://www.w3.org/Graphics/SVG/1.1/DTD/svg11.dtd">
<!-- Generated by graphviz version 2.38.0 (20140413.2041)
 -->
<!-- Title: tds_alloc_param_data Pages: 1 -->
<svg width="1086pt" height="496pt"
 viewBox="0.00 0.00 1086.00 496.00" xmlns="http://www.w3.org/2000/svg" xmlns:xlink="http://www.w3.org/1999/xlink">
<g id="graph0" class="graph" transform="scale(1 1) rotate(0) translate(4 492)">
<title>tds_alloc_param_data</title>
<polygon fill="white" stroke="none" points="-4,4 -4,-492 1082,-492 1082,4 -4,4"/>
<!-- Node1 -->
<g id="node1" class="node"><title>Node1</title>
<polygon fill="#bfbfbf" stroke="black" points="0,-256.5 0,-275.5 122,-275.5 122,-256.5 0,-256.5"/>
<text text-anchor="middle" x="61" y="-263.5" font-family="Helvetica,sans-Serif" font-size="10.00">tds_alloc_param_data</text>
</g>
<!-- Node2 -->
<g id="node2" class="node"><title>Node2</title>
<g id="a_node2"><a xlink:href="a00359.html#gacb3354443bcefe7a500a500a4904cc05" target="_top" xlink:title="process output parameters of a stored procedure. ">
<polygon fill="white" stroke="black" points="158,-256.5 158,-275.5 300,-275.5 300,-256.5 158,-256.5"/>
<text text-anchor="middle" x="229" y="-263.5" font-family="Helvetica,sans-Serif" font-size="10.00">tds_process_param_result</text>
</a>
</g>
</g>
<!-- Node1&#45;&gt;Node2 -->
<g id="edge1" class="edge"><title>Node1&#45;&gt;Node2</title>
<path fill="none" stroke="midnightblue" d="M132.501,-266C140.873,-266 149.418,-266 157.785,-266"/>
<polygon fill="midnightblue" stroke="midnightblue" points="132.399,-262.5 122.399,-266 132.399,-269.5 132.399,-262.5"/>
</g>
<!-- Node3 -->
<g id="node3" class="node"><title>Node3</title>
<g id="a_node3"><a xlink:href="a00359.html#gabfc9de1d1fe718818caf63a4be4035a6" target="_top" xlink:title="process all streams. ">
<polygon fill="white" stroke="black" points="662,-240.5 662,-259.5 774,-259.5 774,-240.5 662,-240.5"/>
<text text-anchor="middle" x="718" y="-247.5" font-family="Helvetica,sans-Serif" font-size="10.00">tds_process_tokens</text>
</a>
</g>
</g>
<!-- Node2&#45;&gt;Node3 -->
<g id="edge2" class="edge"><title>Node2&#45;&gt;Node3</title>
<path fill="none" stroke="midnightblue" d="M310.284,-267.675C318.964,-267.808 327.666,-267.921 336,-268 464.911,-269.216 497.558,-273.049 626,-262 637.59,-261.003 649.97,-259.599 661.746,-258.101"/>
<polygon fill="midnightblue" stroke="midnightblue" points="310.185,-264.173 300.129,-267.51 310.071,-271.172 310.185,-264.173"/>
</g>
<!-- Node17 -->
<g id="node17" class="node"><title>Node17</title>
<g id="a_node17"><a xlink:href="a00359.html#ga9fdef8228d29cab7fa9098f07fa73fba" target="_top" xlink:title="Process parameters from networks. ">
<polygon fill="white" stroke="black" points="336,-229 336,-259 478,-259 478,-229 336,-229"/>
<text text-anchor="start" x="344" y="-247" font-family="Helvetica,sans-Serif" font-size="10.00">tds_process_param_result</text>
<text text-anchor="middle" x="407" y="-236" font-family="Helvetica,sans-Serif" font-size="10.00">_tokens</text>
</a>
</g>
</g>
<!-- Node2&#45;&gt;Node17 -->
<g id="edge18" class="edge"><title>Node2&#45;&gt;Node17</title>
<path fill="none" stroke="midnightblue" d="M310.101,-255.987C318.706,-254.912 327.412,-253.823 335.888,-252.764"/>
<polygon fill="midnightblue" stroke="midnightblue" points="309.554,-252.528 300.066,-257.242 310.423,-259.474 309.554,-252.528"/>
</g>
<!-- Node4 -->
<g id="node4" class="node"><title>Node4</title>
<g id="a_node4"><a xlink:href="a00344.html#gae67546338cb9542a4902aa914f57f314" target="_top" xlink:title="_bcp_exec_out">
<polygon fill="white" stroke="red" points="821.5,-468.5 821.5,-487.5 909.5,-487.5 909.5,-468.5 821.5,-468.5"/>
<text text-anchor="middle" x="865.5" y="-475.5" font-family="Helvetica,sans-Serif" font-size="10.00">_bcp_exec_out</text>
</a>
</g>
</g>
<!-- Node3&#45;&gt;Node4 -->
<g id="edge3" class="edge"><title>Node3&#45;&gt;Node4</title>
<path fill="none" stroke="midnightblue" d="M722.171,-269.774C729.777,-310.852 752.855,-405.999 810,-459 814.188,-462.884 819.212,-465.98 824.494,-468.447"/>
<polygon fill="midnightblue" stroke="midnightblue" points="725.617,-269.165 720.454,-259.913 718.721,-270.365 725.617,-269.165"/>
</g>
<!-- Node5 -->
<g id="node5" class="node"><title>Node5</title>
<g id="a_node5"><a xlink:href="a00341.html#gaf1879b85e8238c015b9648d077665285" target="_top" xlink:title="_dbresults">
<polygon fill="white" stroke="red" points="833,-430.5 833,-449.5 898,-449.5 898,-430.5 833,-430.5"/>
<text text-anchor="middle" x="865.5" y="-437.5" font-family="Helvetica,sans-Serif" font-size="10.00">_dbresults</text>
</a>
</g>
</g>
<!-- Node3&#45;&gt;Node5 -->
<g id="edge4" class="edge"><title>Node3&#45;&gt;Node5</title>
<path fill="none" stroke="midnightblue" d="M724.288,-269.726C734.748,-305.058 761.385,-379.332 810,-421 816.543,-426.608 824.84,-430.592 832.975,-433.411"/>
<polygon fill="midnightblue" stroke="midnightblue" points="727.545,-268.381 721.453,-259.713 720.809,-270.288 727.545,-268.381"/>
</g>
<!-- Node6 -->
<g id="node6" class="node"><title>Node6</title>
<g id="a_node6"><a xlink:href="a00342.html#gaff09873008411a0573f6d1a9e6c7cf4b" target="_top" xlink:title="Get count of output parameters filled by a stored procedure. ">
<polygon fill="white" stroke="red" points="833,-392.5 833,-411.5 898,-411.5 898,-392.5 833,-392.5"/>
<text text-anchor="middle" x="865.5" y="-399.5" font-family="Helvetica,sans-Serif" font-size="10.00">dbnumrets</text>
</a>
</g>
</g>
<!-- Node3&#45;&gt;Node6 -->
<g id="edge5" class="edge"><title>Node3&#45;&gt;Node6</title>
<path fill="none" stroke="midnightblue" d="M727.151,-268.885C740.442,-297.545 769.431,-351.96 810,-383 816.685,-388.115 824.851,-391.918 832.806,-394.721"/>
<polygon fill="midnightblue" stroke="midnightblue" points="730.263,-267.271 722.972,-259.583 723.877,-270.139 730.263,-267.271"/>
</g>
<!-- Node7 -->
<g id="node7" class="node"><title>Node7</title>
<g id="a_node7"><a xlink:href="a00341.html#gae1f50a6a2c31fda57cb481922b06841e" target="_top" xlink:title="Wait for results of a query from the server. ">
<polygon fill="white" stroke="red" points="839,-354.5 839,-373.5 892,-373.5 892,-354.5 839,-354.5"/>
<text text-anchor="middle" x="865.5" y="-361.5" font-family="Helvetica,sans-Serif" font-size="10.00">dbsqlok</text>
</a>
</g>
</g>
<!-- Node3&#45;&gt;Node7 -->
<g id="edge6" class="edge"><title>Node3&#45;&gt;Node7</title>
<path fill="none" stroke="midnightblue" d="M733.149,-267.414C749.853,-287.093 779.272,-319.098 810,-340 818.805,-345.989 829.347,-351.044 838.803,-354.947"/>
<polygon fill="midnightblue" stroke="midnightblue" points="735.696,-265.004 726.605,-259.563 730.319,-269.486 735.696,-265.004"/>
</g>
<!-- Node8 -->
<g id="node8" class="node"><title>Node8</title>
<g id="a_node8"><a xlink:href="a00341.html#ga548153eb2eae76c48aa9d4b72258dc1c" target="_top" xlink:title="Send text or image data to the server. ">
<polygon fill="white" stroke="black" points="983.5,-335.5 983.5,-354.5 1051.5,-354.5 1051.5,-335.5 983.5,-335.5"/>
<text text-anchor="middle" x="1017.5" y="-342.5" font-family="Helvetica,sans-Serif" font-size="10.00">dbwritetext</text>
</a>
</g>
</g>
<!-- Node3&#45;&gt;Node8 -->
<g id="edge9" class="edge"><title>Node3&#45;&gt;Node8</title>
<path fill="none" stroke="midnightblue" d="M739.223,-265.824C756.915,-278.867 783.811,-296.819 810,-307 868.438,-329.719 941.567,-339.063 983.267,-342.749"/>
<polygon fill="midnightblue" stroke="midnightblue" points="740.954,-262.746 730.863,-259.518 736.739,-268.335 740.954,-262.746"/>
</g>
<!-- Node9 -->
<g id="node9" class="node"><title>Node9</title>
<g id="a_node9"><a xlink:href="a00341.html#ga559e24ba70d0d96c3469eb6ab8f74e05" target="_top" xlink:title="Cancel the query currently being retrieved, discarding all pending rows. ">
<polygon fill="white" stroke="red" points="830,-278.5 830,-297.5 901,-297.5 901,-278.5 830,-278.5"/>
<text text-anchor="middle" x="865.5" y="-285.5" font-family="Helvetica,sans-Serif" font-size="10.00">dbcanquery</text>
</a>
</g>
</g>
<!-- Node3&#45;&gt;Node9 -->
<g id="edge8" class="edge"><title>Node3&#45;&gt;Node9</title>
<path fill="none" stroke="midnightblue" d="M765.642,-262.181C786.473,-267.622 810.597,-273.922 829.799,-278.937"/>
<polygon fill="midnightblue" stroke="midnightblue" points="766.276,-258.73 755.716,-259.589 764.507,-265.502 766.276,-258.73"/>
</g>
<!-- Node10 -->
<g id="node10" class="node"><title>Node10</title>
<g id="a_node10"><a xlink:href="a00341.html#gadd5685565c8c6c86079e17b8a73b324c" target="_top" xlink:title="Fetch part of a text or image value from the server. ">
<polygon fill="white" stroke="black" points="832,-240.5 832,-259.5 899,-259.5 899,-240.5 832,-240.5"/>
<text text-anchor="middle" x="865.5" y="-247.5" font-family="Helvetica,sans-Serif" font-size="10.00">dbreadtext</text>
</a>
</g>
</g>
<!-- Node3&#45;&gt;Node10 -->
<g id="edge10" class="edge"><title>Node3&#45;&gt;Node10</title>
<path fill="none" stroke="midnightblue" d="M784.178,-250C800.672,-250 817.691,-250 831.793,-250"/>
<polygon fill="midnightblue" stroke="midnightblue" points="784.007,-246.5 774.007,-250 784.007,-253.5 784.007,-246.5"/>
</g>
<!-- Node11 -->
<g id="node11" class="node"><title>Node11</title>
<g id="a_node11"><a xlink:href="a00341.html#gac980139b9cea03cf93e373d425991481" target="_top" xlink:title="Transmit the command buffer to the server. ">
<polygon fill="white" stroke="red" points="833,-202.5 833,-221.5 898,-221.5 898,-202.5 833,-202.5"/>
<text text-anchor="middle" x="865.5" y="-209.5" font-family="Helvetica,sans-Serif" font-size="10.00">dbsqlsend</text>
</a>
</g>
</g>
<!-- Node3&#45;&gt;Node11 -->
<g id="edge11" class="edge"><title>Node3&#45;&gt;Node11</title>
<path fill="none" stroke="midnightblue" d="M765.503,-237.855C787.442,-232.125 813.06,-225.435 832.738,-220.295"/>
<polygon fill="midnightblue" stroke="midnightblue" points="764.507,-234.498 755.716,-240.411 766.276,-241.27 764.507,-234.498"/>
</g>
<!-- Node12 -->
<g id="node12" class="node"><title>Node12</title>
<g id="a_node12"><a xlink:href="a00356.html#gaf0da49585d39e99780a004ee2ca23479" target="_top" xlink:title="Send option commands to server. ">
<polygon fill="white" stroke="black" points="957,-104.5 957,-123.5 1078,-123.5 1078,-104.5 957,-104.5"/>
<text text-anchor="middle" x="1017.5" y="-111.5" font-family="Helvetica,sans-Serif" font-size="10.00">tds_submit_optioncmd</text>
</a>
</g>
</g>
<!-- Node3&#45;&gt;Node12 -->
<g id="edge12" class="edge"><title>Node3&#45;&gt;Node12</title>
<path fill="none" stroke="midnightblue" d="M740.562,-234.506C758.509,-222.106 785.064,-204.883 810,-193 857.072,-170.568 872.341,-173.743 921,-155 946.929,-145.012 976.222,-132.204 995.448,-123.583"/>
<polygon fill="midnightblue" stroke="midnightblue" points="738.195,-231.891 732.016,-240.497 742.213,-237.623 738.195,-231.891"/>
</g>
<!-- Node13 -->
<g id="node13" class="node"><title>Node13</title>
<g id="a_node13"><a xlink:href="a00193.html#ac6610c72bd31bad5378f760fa9b12d66" target="_top" xlink:title="Initialize BCP information. ">
<polygon fill="white" stroke="red" points="829,-126.5 829,-145.5 902,-145.5 902,-126.5 829,-126.5"/>
<text text-anchor="middle" x="865.5" y="-133.5" font-family="Helvetica,sans-Serif" font-size="10.00">tds_bcp_init</text>
</a>
</g>
</g>
<!-- Node3&#45;&gt;Node13 -->
<g id="edge13" class="edge"><title>Node3&#45;&gt;Node13</title>
<path fill="none" stroke="midnightblue" d="M733.149,-232.586C749.853,-212.907 779.272,-180.902 810,-160 818.463,-154.243 828.531,-149.35 837.697,-145.513"/>
<polygon fill="midnightblue" stroke="midnightblue" points="730.319,-230.514 726.605,-240.437 735.696,-234.996 730.319,-230.514"/>
</g>
<!-- Node14 -->
<g id="node14" class="node"><title>Node14</title>
<g id="a_node14"><a xlink:href="a00359.html#ga55f27c3e05d42c9b07ace1c74b11c5ab" target="_top" xlink:title="Retrieve and set @spid. ">
<polygon fill="white" stroke="red" points="827,-88.5 827,-107.5 904,-107.5 904,-88.5 827,-88.5"/>
<text text-anchor="middle" x="865.5" y="-95.5" font-family="Helvetica,sans-Serif" font-size="10.00">tds_set_spid</text>
</a>
</g>
</g>
<!-- Node3&#45;&gt;Node14 -->
<g id="edge14" class="edge"><title>Node3&#45;&gt;Node14</title>
<path fill="none" stroke="midnightblue" d="M727.151,-231.115C740.442,-202.455 769.431,-148.04 810,-117 815.014,-113.164 820.86,-110.065 826.826,-107.574"/>
<polygon fill="midnightblue" stroke="midnightblue" points="723.877,-229.861 722.972,-240.417 730.263,-232.729 723.877,-229.861"/>
</g>
<!-- Node15 -->
<g id="node15" class="node"><title>Node15</title>
<g id="a_node15"><a xlink:href="a00359.html#gaeeb1562044786ea17bea361ed83e6946" target="_top" xlink:title="Process results for simple query as &quot;SET TEXTSIZE&quot; or &quot;USE dbname&quot; If the statement returns results...">
<polygon fill="white" stroke="red" points="810.5,-39 810.5,-69 920.5,-69 920.5,-39 810.5,-39"/>
<text text-anchor="start" x="818.5" y="-57" font-family="Helvetica,sans-Serif" font-size="10.00">tds_process_simple</text>
<text text-anchor="middle" x="865.5" y="-46" font-family="Helvetica,sans-Serif" font-size="10.00">_query</text>
</a>
</g>
</g>
<!-- Node3&#45;&gt;Node15 -->
<g id="edge15" class="edge"><title>Node3&#45;&gt;Node15</title>
<path fill="none" stroke="midnightblue" d="M724.846,-230.223C736.048,-195.404 763.631,-122.713 810,-79 814.015,-75.2155 818.703,-71.9264 823.614,-69.0899"/>
<polygon fill="midnightblue" stroke="midnightblue" points="721.398,-229.525 721.781,-240.113 728.084,-231.597 721.398,-229.525"/>
</g>
<!-- Node16 -->
<g id="node16" class="node"><title>Node16</title>
<g id="a_node16"><a xlink:href="a00359.html#gaf233e79967f82f4e0dd4d11524917a34" target="_top" xlink:title="tds_process_cancel">
<polygon fill="white" stroke="red" points="810,-0.5 810,-19.5 921,-19.5 921,-0.5 810,-0.5"/>
<text text-anchor="middle" x="865.5" y="-7.5" font-family="Helvetica,sans-Serif" font-size="10.00">tds_process_cancel</text>
</a>
</g>
</g>
<!-- Node3&#45;&gt;Node16 -->
<g id="edge17" class="edge"><title>Node3&#45;&gt;Node16</title>
<path fill="none" stroke="midnightblue" d="M721.585,-230.579C728.261,-188.02 749.965,-85.8117 810,-29 814.076,-25.1431 818.976,-22.0644 824.146,-19.608"/>
<polygon fill="midnightblue" stroke="midnightblue" points="718.121,-230.084 720.139,-240.484 725.047,-231.095 718.121,-230.084"/>
</g>
<!-- Node7&#45;&gt;Node8 -->
<g id="edge7" class="edge"><title>Node7&#45;&gt;Node8</title>
<path fill="none" stroke="midnightblue" d="M902.316,-359.463C926.951,-356.343 959.428,-352.229 983.446,-349.187"/>
<polygon fill="midnightblue" stroke="midnightblue" points="901.767,-356.005 892.286,-360.734 902.646,-362.949 901.767,-356.005"/>
</g>
<!-- Node15&#45;&gt;Node12 -->
<g id="edge16" class="edge"><title>Node15&#45;&gt;Node12</title>
<path fill="none" stroke="midnightblue" d="M913.761,-72.9046C940.031,-83.4125 971.586,-96.0343 992.732,-104.493"/>
<polygon fill="midnightblue" stroke="midnightblue" points="914.936,-69.6048 904.351,-69.1405 912.336,-76.1042 914.936,-69.6048"/>
</g>
<!-- Node17&#45;&gt;Node3 -->
<g id="edge21" class="edge"><title>Node17&#45;&gt;Node3</title>
<path fill="none" stroke="midnightblue" d="M488.429,-245.562C542.85,-246.618 613.334,-247.987 661.556,-248.923"/>
<polygon fill="midnightblue" stroke="midnightblue" points="488.183,-242.056 478.117,-245.361 488.047,-249.055 488.183,-242.056"/>
</g>
<!-- Node18 -->
<g id="node18" class="node"><title>Node18</title>
<g id="a_node18"><a xlink:href="a00359.html#ga39453d084f3f780ac4602d4abf2839f7" target="_top" xlink:title="tds_process_default_tokens() is a catch all function that is called to process tokens not known to ot...">
<polygon fill="white" stroke="red" points="514,-191 514,-221 626,-221 626,-191 514,-191"/>
<text text-anchor="start" x="522" y="-209" font-family="Helvetica,sans-Serif" font-size="10.00">tds_process_default</text>
<text text-anchor="middle" x="570" y="-198" font-family="Helvetica,sans-Serif" font-size="10.00">_tokens</text>
</a>
</g>
</g>
<!-- Node17&#45;&gt;Node18 -->
<g id="edge19" class="edge"><title>Node17&#45;&gt;Node18</title>
<path fill="none" stroke="midnightblue" d="M481.552,-226.64C492.431,-224.072 503.481,-221.464 513.899,-219.005"/>
<polygon fill="midnightblue" stroke="midnightblue" points="480.56,-223.278 471.631,-228.981 482.168,-230.091 480.56,-223.278"/>
</g>
<!-- Node18&#45;&gt;Node3 -->
<g id="edge20" class="edge"><title>Node18&#45;&gt;Node3</title>
<path fill="none" stroke="midnightblue" d="M630.494,-223.93C649.229,-229.576 669.194,-235.593 685.218,-240.422"/>
<polygon fill="midnightblue" stroke="midnightblue" points="631.421,-220.554 620.837,-221.019 629.401,-227.256 631.421,-220.554"/>
</g>
</g>
</svg>
