<?xml version="1.0" encoding="UTF-8" standalone="no"?>
<!DOCTYPE svg PUBLIC "-//W3C//DTD SVG 1.1//EN"
 "http://www.w3.org/Graphics/SVG/1.1/DTD/svg11.dtd">
<!-- Generated by graphviz version 2.38.0 (20140413.2041)
 -->
<!-- Title: bcp_sendrow Pages: 1 -->
<svg width="938pt" height="498pt"
 viewBox="0.00 0.00 938.00 497.50" xmlns="http://www.w3.org/2000/svg" xmlns:xlink="http://www.w3.org/1999/xlink">
<g id="graph0" class="graph" transform="scale(1 1) rotate(0) translate(4 493.5)">
<title>bcp_sendrow</title>
<polygon fill="white" stroke="none" points="-4,4 -4,-493.5 934,-493.5 934,4 -4,4"/>
<!-- Node1 -->
<g id="node1" class="node"><title>Node1</title>
<polygon fill="#bfbfbf" stroke="black" points="0,-347 0,-366 80,-366 80,-347 0,-347"/>
<text text-anchor="middle" x="40" y="-354" font-family="Helvetica,sans-Serif" font-size="10.00">bcp_sendrow</text>
</g>
<!-- Node2 -->
<g id="node2" class="node"><title>Node2</title>
<g id="a_node2"><a xlink:href="a00193.html#ab45c291105027e69836002e1dd586141" target="_top" xlink:title="Write a message to the debug log. ">
<polygon fill="white" stroke="black" points="838,-240 838,-259 915,-259 915,-240 838,-240"/>
<text text-anchor="middle" x="876.5" y="-247" font-family="Helvetica,sans-Serif" font-size="10.00">tdsdump_log</text>
</a>
</g>
</g>
<!-- Node1&#45;&gt;Node2 -->
<g id="edge1" class="edge"><title>Node1&#45;&gt;Node2</title>
<path fill="none" stroke="midnightblue" d="M47.6587,-366.079C59.476,-382.329 85.7392,-415.213 116,-432.5 206.322,-484.097 238.979,-489.5 343,-489.5 343,-489.5 343,-489.5 526,-489.5 580.867,-489.5 750.123,-467.394 787,-438.5 842.549,-394.976 864.801,-308.275 872.267,-269.293"/>
<polygon fill="midnightblue" stroke="midnightblue" points="875.751,-269.69 874.064,-259.231 868.86,-268.46 875.751,-269.69"/>
</g>
<!-- Node3 -->
<g id="node3" class="node"><title>Node3</title>
<g id="a_node3"><a xlink:href="a00347.html#ga302a4ce6559b81808e3be51615cd1b67" target="_top" xlink:title="Call client&#45;installed error handler. ">
<polygon fill="white" stroke="black" points="149,-404 149,-423 206,-423 206,-404 149,-404"/>
<text text-anchor="middle" x="177.5" y="-411" font-family="Helvetica,sans-Serif" font-size="10.00">dbperror</text>
</a>
</g>
</g>
<!-- Node1&#45;&gt;Node3 -->
<g id="edge2" class="edge"><title>Node1&#45;&gt;Node3</title>
<path fill="none" stroke="midnightblue" d="M63.6797,-366.041C85.761,-375.329 119.532,-389.536 144.374,-399.986"/>
<polygon fill="midnightblue" stroke="midnightblue" points="143.172,-403.277 153.746,-403.928 145.886,-396.825 143.172,-403.277"/>
</g>
<!-- Node4 -->
<g id="node4" class="node"><title>Node4</title>
<g id="a_node4"><a xlink:href="a00294.html#a5eec23828b0610c58de248c4edb53879" target="_top" xlink:title="Start bulk copy to server. ">
<polygon fill="white" stroke="black" points="116,-347 116,-366 239,-366 239,-347 116,-347"/>
<text text-anchor="middle" x="177.5" y="-354" font-family="Helvetica,sans-Serif" font-size="10.00">tds_bcp_start_copy_in</text>
</a>
</g>
</g>
<!-- Node1&#45;&gt;Node4 -->
<g id="edge4" class="edge"><title>Node1&#45;&gt;Node4</title>
<path fill="none" stroke="midnightblue" d="M80.1922,-356.5C88.2257,-356.5 96.9148,-356.5 105.673,-356.5"/>
<polygon fill="midnightblue" stroke="midnightblue" points="105.95,-360 115.95,-356.5 105.95,-353 105.95,-360"/>
</g>
<!-- Node13 -->
<g id="node13" class="node"><title>Node13</title>
<g id="a_node13"><a xlink:href="a00294.html#adbc0876f3d1eae0c26e7a1abe37419fe" target="_top" xlink:title="Send one row of data to server. ">
<polygon fill="white" stroke="black" points="465.5,-50 465.5,-69 584.5,-69 584.5,-50 465.5,-50"/>
<text text-anchor="middle" x="525" y="-57" font-family="Helvetica,sans-Serif" font-size="10.00">tds_bcp_send_record</text>
</a>
</g>
</g>
<!-- Node1&#45;&gt;Node13 -->
<g id="edge19" class="edge"><title>Node1&#45;&gt;Node13</title>
<path fill="none" stroke="midnightblue" d="M42.6201,-346.98C48.0226,-317.773 67.8746,-228.112 116,-173.5 201.885,-76.0381 363.48,-58.7966 455.428,-57.4741"/>
<polygon fill="midnightblue" stroke="midnightblue" points="455.497,-60.9737 465.467,-57.389 455.438,-53.9739 455.497,-60.9737"/>
</g>
<!-- Node17 -->
<g id="node17" class="node"><title>Node17</title>
<g id="a_node17"><a xlink:href="a00344.html#ga0f8def4cad04c5c1e27c2b653d482dd8" target="_top" xlink:title="For a bcp in from program variables, get the data from the host variable. ">
<polygon fill="white" stroke="black" points="124,-183 124,-202 231,-202 231,-183 124,-183"/>
<text text-anchor="middle" x="177.5" y="-190" font-family="Helvetica,sans-Serif" font-size="10.00">_bcp_get_col_data</text>
</a>
</g>
</g>
<!-- Node1&#45;&gt;Node17 -->
<g id="edge27" class="edge"><title>Node1&#45;&gt;Node17</title>
<path fill="none" stroke="midnightblue" d="M49.0704,-346.732C71.34,-319.778 133.876,-244.089 162.218,-209.786"/>
<polygon fill="midnightblue" stroke="midnightblue" points="164.97,-211.95 168.642,-202.011 159.574,-207.491 164.97,-211.95"/>
</g>
<!-- Node3&#45;&gt;Node2 -->
<g id="edge3" class="edge"><title>Node3&#45;&gt;Node2</title>
<path fill="none" stroke="midnightblue" d="M206.223,-421.919C297.839,-447.973 595.904,-518.447 787,-396.5 834.153,-366.41 859.747,-301.374 870.04,-268.846"/>
<polygon fill="midnightblue" stroke="midnightblue" points="873.425,-269.743 872.953,-259.159 866.722,-267.727 873.425,-269.743"/>
</g>
<!-- Node4&#45;&gt;Node2 -->
<g id="edge5" class="edge"><title>Node4&#45;&gt;Node2</title>
<path fill="none" stroke="midnightblue" d="M196.738,-366.082C215.694,-375.458 246.519,-389.094 275,-394.5 400.973,-418.41 736.752,-397.019 787,-369.5 828.07,-347.008 855.287,-296.387 867.722,-268.619"/>
<polygon fill="midnightblue" stroke="midnightblue" points="871.036,-269.772 871.762,-259.202 864.603,-267.012 871.036,-269.772"/>
</g>
<!-- Node5 -->
<g id="node5" class="node"><title>Node5</title>
<g id="a_node5"><a xlink:href="a00294.html#ab4d7e5309152f54613d52c8469a07fd8" target="_top" xlink:title="Prepare the query to be sent to server to request BCP information. ">
<polygon fill="white" stroke="black" points="275,-366 275,-385 413,-385 413,-366 275,-366"/>
<text text-anchor="middle" x="344" y="-373" font-family="Helvetica,sans-Serif" font-size="10.00">tds_bcp_start_insert_stmt</text>
</a>
</g>
</g>
<!-- Node4&#45;&gt;Node5 -->
<g id="edge6" class="edge"><title>Node4&#45;&gt;Node5</title>
<path fill="none" stroke="midnightblue" d="M239.286,-363.521C247.641,-364.486 256.313,-365.487 264.924,-366.482"/>
<polygon fill="midnightblue" stroke="midnightblue" points="264.646,-369.973 274.981,-367.644 265.449,-363.019 264.646,-369.973"/>
</g>
<!-- Node7 -->
<g id="node7" class="node"><title>Node7</title>
<g id="a_node7"><a xlink:href="a00294.html#a8208eef2a3974ae1f0cf3c8c8ab011ce" target="_top" xlink:title="Start sending BCP data to server. ">
<polygon fill="white" stroke="black" points="304,-278 304,-297 384,-297 384,-278 304,-278"/>
<text text-anchor="middle" x="344" y="-285" font-family="Helvetica,sans-Serif" font-size="10.00">tds_bcp_start</text>
</a>
</g>
</g>
<!-- Node4&#45;&gt;Node7 -->
<g id="edge9" class="edge"><title>Node4&#45;&gt;Node7</title>
<path fill="none" stroke="midnightblue" d="M201.373,-346.906C229.855,-334.959 278.677,-314.481 310.896,-300.966"/>
<polygon fill="midnightblue" stroke="midnightblue" points="312.453,-304.108 320.321,-297.013 309.746,-297.653 312.453,-304.108"/>
</g>
<!-- Node12 -->
<g id="node12" class="node"><title>Node12</title>
<g id="a_node12"><a xlink:href="a00294.html#a7c4f2b050cd1a747604aa305d6877de7" target="_top" xlink:title="Free row data allocated in the result set. ">
<polygon fill="white" stroke="black" points="293.5,-328 293.5,-347 394.5,-347 394.5,-328 293.5,-328"/>
<text text-anchor="middle" x="344" y="-335" font-family="Helvetica,sans-Serif" font-size="10.00">tds_bcp_row_free</text>
</a>
</g>
</g>
<!-- Node4&#45;&gt;Node12 -->
<g id="edge18" class="edge"><title>Node4&#45;&gt;Node12</title>
<path fill="none" stroke="midnightblue" d="M239.286,-349.479C253.648,-347.82 268.948,-346.053 283.262,-344.4"/>
<polygon fill="midnightblue" stroke="midnightblue" points="283.951,-347.844 293.483,-343.219 283.148,-340.89 283.951,-347.844"/>
</g>
<!-- Node6 -->
<g id="node6" class="node"><title>Node6</title>
<g id="a_node6"><a xlink:href="a00294.html#a3118c7232bc9c3e47f8ba872bb39e967" target="_top" xlink:title="Help to build query to be sent to server. ">
<polygon fill="white" stroke="red" points="639,-341 639,-360 785,-360 785,-341 639,-341"/>
<text text-anchor="middle" x="712" y="-348" font-family="Helvetica,sans-Serif" font-size="10.00">tds7_build_bulk_insert_stmt</text>
</a>
</g>
</g>
<!-- Node5&#45;&gt;Node6 -->
<g id="edge7" class="edge"><title>Node5&#45;&gt;Node6</title>
<path fill="none" stroke="midnightblue" d="M413.412,-370.827C474.393,-366.662 563.779,-360.556 628.66,-356.124"/>
<polygon fill="midnightblue" stroke="midnightblue" points="629.116,-359.601 638.854,-355.428 628.639,-352.618 629.116,-359.601"/>
</g>
<!-- Node6&#45;&gt;Node2 -->
<g id="edge8" class="edge"><title>Node6&#45;&gt;Node2</title>
<path fill="none" stroke="midnightblue" d="M728.288,-340.998C756.597,-323.403 817.382,-285.623 851.323,-264.527"/>
<polygon fill="midnightblue" stroke="midnightblue" points="853.489,-267.302 860.135,-259.05 849.794,-261.356 853.489,-267.302"/>
</g>
<!-- Node7&#45;&gt;Node2 -->
<g id="edge10" class="edge"><title>Node7&#45;&gt;Node2</title>
<path fill="none" stroke="midnightblue" d="M384.131,-286.723C461.356,-284.892 638.743,-279.21 787,-263.5 800.183,-262.103 814.395,-260.085 827.492,-258.014"/>
<polygon fill="midnightblue" stroke="midnightblue" points="828.406,-261.411 837.715,-256.352 827.283,-254.502 828.406,-261.411"/>
</g>
<!-- Node8 -->
<g id="node8" class="node"><title>Node8</title>
<g id="a_node8"><a xlink:href="a00356.html#ga5a29ae7f99d089dc3cea85ec6ee5f3ab" target="_top" xlink:title="tds_submit_query() sends a language string to the database server for processing. ...">
<polygon fill="white" stroke="red" points="476,-164 476,-183 574,-183 574,-164 476,-164"/>
<text text-anchor="middle" x="525" y="-171" font-family="Helvetica,sans-Serif" font-size="10.00">tds_submit_query</text>
</a>
</g>
</g>
<!-- Node7&#45;&gt;Node8 -->
<g id="edge11" class="edge"><title>Node7&#45;&gt;Node8</title>
<path fill="none" stroke="midnightblue" d="M384.351,-282.337C394.501,-279.524 404.85,-275.186 413,-268.5 440.354,-246.061 422.068,-220.444 449,-197.5 454.174,-193.092 460.167,-189.491 466.466,-186.55"/>
<polygon fill="midnightblue" stroke="midnightblue" points="467.933,-189.731 475.854,-182.695 465.274,-183.256 467.933,-189.731"/>
</g>
<!-- Node9 -->
<g id="node9" class="node"><title>Node9</title>
<g id="a_node9"><a xlink:href="a00359.html#gaeeb1562044786ea17bea361ed83e6946" target="_top" xlink:title="Process results for simple query as &quot;SET TEXTSIZE&quot; or &quot;USE dbname&quot; If the statement returns results...">
<polygon fill="white" stroke="red" points="470,-316.5 470,-346.5 580,-346.5 580,-316.5 470,-316.5"/>
<text text-anchor="start" x="478" y="-334.5" font-family="Helvetica,sans-Serif" font-size="10.00">tds_process_simple</text>
<text text-anchor="middle" x="525" y="-323.5" font-family="Helvetica,sans-Serif" font-size="10.00">_query</text>
</a>
</g>
</g>
<!-- Node7&#45;&gt;Node9 -->
<g id="edge12" class="edge"><title>Node7&#45;&gt;Node9</title>
<path fill="none" stroke="midnightblue" d="M383.84,-297.047C406.08,-302.514 434.542,-309.51 460,-315.768"/>
<polygon fill="midnightblue" stroke="midnightblue" points="459.412,-319.228 469.958,-318.216 461.083,-312.43 459.412,-319.228"/>
</g>
<!-- Node10 -->
<g id="node10" class="node"><title>Node10</title>
<g id="a_node10"><a xlink:href="a00193.html#a16db200d2281f76fe46fc1cbe37ca9df" target="_top" xlink:title="Set state of TDS connection, with logging and checking. ">
<polygon fill="white" stroke="red" points="672,-202 672,-221 752,-221 752,-202 672,-202"/>
<text text-anchor="middle" x="712" y="-209" font-family="Helvetica,sans-Serif" font-size="10.00">tds_set_state</text>
</a>
</g>
</g>
<!-- Node7&#45;&gt;Node10 -->
<g id="edge13" class="edge"><title>Node7&#45;&gt;Node10</title>
<path fill="none" stroke="midnightblue" d="M384.253,-280.392C394.075,-277.596 404.287,-273.752 413,-268.5 432.925,-256.49 427.975,-240.46 449,-230.5 517.34,-198.126 607.067,-199.719 661.806,-204.859"/>
<polygon fill="midnightblue" stroke="midnightblue" points="661.635,-208.36 671.938,-205.889 662.343,-201.396 661.635,-208.36"/>
</g>
<!-- Node11 -->
<g id="node11" class="node"><title>Node11</title>
<g id="a_node11"><a xlink:href="a00294.html#a4daaa551e54dbd978650e2eef89e09ff" target="_top" xlink:title="Send BCP metadata to server. ">
<polygon fill="white" stroke="red" points="449,-240 449,-259 601,-259 601,-240 449,-240"/>
<text text-anchor="middle" x="525" y="-247" font-family="Helvetica,sans-Serif" font-size="10.00">tds7_bcp_send_colmetadata</text>
</a>
</g>
</g>
<!-- Node7&#45;&gt;Node11 -->
<g id="edge15" class="edge"><title>Node7&#45;&gt;Node11</title>
<path fill="none" stroke="midnightblue" d="M384.282,-279.161C409.213,-273.868 441.83,-266.944 469.279,-261.117"/>
<polygon fill="midnightblue" stroke="midnightblue" points="470.079,-264.525 479.134,-259.025 468.625,-257.678 470.079,-264.525"/>
</g>
<!-- Node10&#45;&gt;Node2 -->
<g id="edge14" class="edge"><title>Node10&#45;&gt;Node2</title>
<path fill="none" stroke="midnightblue" d="M752.337,-220.699C775.103,-226.023 803.915,-232.76 827.947,-238.38"/>
<polygon fill="midnightblue" stroke="midnightblue" points="827.388,-241.844 837.923,-240.713 828.982,-235.028 827.388,-241.844"/>
</g>
<!-- Node11&#45;&gt;Node2 -->
<g id="edge16" class="edge"><title>Node11&#45;&gt;Node2</title>
<path fill="none" stroke="midnightblue" d="M601.406,-249.5C670.124,-249.5 769.531,-249.5 827.837,-249.5"/>
<polygon fill="midnightblue" stroke="midnightblue" points="827.879,-253 837.879,-249.5 827.879,-246 827.879,-253"/>
</g>
<!-- Node11&#45;&gt;Node10 -->
<g id="edge17" class="edge"><title>Node11&#45;&gt;Node10</title>
<path fill="none" stroke="midnightblue" d="M572.683,-239.911C599.949,-234.311 634.319,-227.251 661.977,-221.57"/>
<polygon fill="midnightblue" stroke="midnightblue" points="662.746,-224.985 671.837,-219.544 661.337,-218.128 662.746,-224.985"/>
</g>
<!-- Node13&#45;&gt;Node2 -->
<g id="edge20" class="edge"><title>Node13&#45;&gt;Node2</title>
<path fill="none" stroke="midnightblue" d="M573.734,-49.9471C629.686,-41.4918 722.9,-36.2336 787,-78.5 840.869,-114.02 863.818,-193.198 871.848,-229.999"/>
<polygon fill="midnightblue" stroke="midnightblue" points="868.453,-230.865 873.879,-239.965 875.312,-229.467 868.453,-230.865"/>
</g>
<!-- Node13&#45;&gt;Node10 -->
<g id="edge21" class="edge"><title>Node13&#45;&gt;Node10</title>
<path fill="none" stroke="midnightblue" d="M539.198,-69.142C554.33,-80.2861 579.782,-99.3027 601,-116.5 634.027,-143.268 671.225,-175.949 692.8,-195.167"/>
<polygon fill="midnightblue" stroke="midnightblue" points="690.473,-197.781 700.263,-201.832 695.136,-192.56 690.473,-197.781"/>
</g>
<!-- Node14 -->
<g id="node14" class="node"><title>Node14</title>
<g id="a_node14"><a xlink:href="a00294.html#a6d1e3ee3ba4ddeac7d5c9b5e30b185f1" target="_top" xlink:title="Add fixed size columns to the row. ">
<polygon fill="white" stroke="black" points="637,-88 637,-107 787,-107 787,-88 637,-88"/>
<text text-anchor="middle" x="712" y="-95" font-family="Helvetica,sans-Serif" font-size="10.00">tds_bcp_add_fixed_columns</text>
</a>
</g>
</g>
<!-- Node13&#45;&gt;Node14 -->
<g id="edge22" class="edge"><title>Node13&#45;&gt;Node14</title>
<path fill="none" stroke="midnightblue" d="M572.683,-69.089C597.646,-74.2165 628.564,-80.5672 654.834,-85.9632"/>
<polygon fill="midnightblue" stroke="midnightblue" points="654.153,-89.3962 664.652,-87.9799 655.561,-82.5394 654.153,-89.3962"/>
</g>
<!-- Node15 -->
<g id="node15" class="node"><title>Node15</title>
<g id="a_node15"><a xlink:href="a00294.html#a0184a0b53bd92aeca39b136542238dd4" target="_top" xlink:title="Add variable size columns to the row. ">
<polygon fill="white" stroke="black" points="652,-0.5 652,-30.5 772,-30.5 772,-0.5 652,-0.5"/>
<text text-anchor="start" x="660" y="-18.5" font-family="Helvetica,sans-Serif" font-size="10.00">tds_bcp_add_variable</text>
<text text-anchor="middle" x="712" y="-7.5" font-family="Helvetica,sans-Serif" font-size="10.00">_columns</text>
</a>
</g>
</g>
<!-- Node13&#45;&gt;Node15 -->
<g id="edge24" class="edge"><title>Node13&#45;&gt;Node15</title>
<path fill="none" stroke="midnightblue" d="M566.142,-49.9527C588.283,-44.6868 616.391,-38.0017 641.943,-31.9243"/>
<polygon fill="midnightblue" stroke="midnightblue" points="643.045,-35.2599 651.964,-29.541 641.426,-28.4498 643.045,-35.2599"/>
</g>
<!-- Node14&#45;&gt;Node2 -->
<g id="edge23" class="edge"><title>Node14&#45;&gt;Node2</title>
<path fill="none" stroke="midnightblue" d="M758.319,-107.052C768.377,-110.526 778.549,-115.211 787,-121.5 826.206,-150.675 854.193,-202.529 867.241,-230.445"/>
<polygon fill="midnightblue" stroke="midnightblue" points="864.194,-232.203 871.502,-239.874 870.573,-229.32 864.194,-232.203"/>
</g>
<!-- Node15&#45;&gt;Node2 -->
<g id="edge25" class="edge"><title>Node15&#45;&gt;Node2</title>
<path fill="none" stroke="midnightblue" d="M765.104,-30.5415C773.095,-34.4847 780.75,-39.3995 787,-45.5 841.176,-98.3826 864.283,-189.953 872.13,-229.908"/>
<polygon fill="midnightblue" stroke="midnightblue" points="868.725,-230.744 873.988,-239.94 875.608,-229.47 868.725,-230.744"/>
</g>
<!-- Node16 -->
<g id="node16" class="node"><title>Node16</title>
<g id="a_node16"><a xlink:href="a00193.html#a79449d2f35a8acc8ed0585044f75524d" target="_top" xlink:title="Dump the contents of data into the log file in a human readable format. ">
<polygon fill="white" stroke="black" points="823,-6 823,-25 930,-25 930,-6 823,-6"/>
<text text-anchor="middle" x="876.5" y="-13" font-family="Helvetica,sans-Serif" font-size="10.00">tdsdump_dump_buf</text>
</a>
</g>
</g>
<!-- Node15&#45;&gt;Node16 -->
<g id="edge26" class="edge"><title>Node15&#45;&gt;Node16</title>
<path fill="none" stroke="midnightblue" d="M772.126,-15.5C785.359,-15.5 799.441,-15.5 812.813,-15.5"/>
<polygon fill="midnightblue" stroke="midnightblue" points="812.875,-19.0001 822.875,-15.5 812.875,-12.0001 812.875,-19.0001"/>
</g>
<!-- Node17&#45;&gt;Node2 -->
<g id="edge28" class="edge"><title>Node17&#45;&gt;Node2</title>
<path fill="none" stroke="midnightblue" d="M192.728,-182.744C205.176,-174.069 223.622,-160.878 239,-148.5 255.676,-135.077 254.99,-124.108 275,-116.5 410.431,-65.0093 458.828,-88.5747 601,-116.5 702.602,-136.457 809.135,-203.516 853.794,-234.083"/>
<polygon fill="midnightblue" stroke="midnightblue" points="851.909,-237.035 862.122,-239.854 855.896,-231.282 851.909,-237.035"/>
</g>
<!-- Node18 -->
<g id="node18" class="node"><title>Node18</title>
<g id="a_node18"><a xlink:href="a00193.html#ae7f4c4d5f7352f1c814284c536659e6f" target="_top" xlink:title="Return type suitable for conversions (convert all nullable types to fixed type) ">
<polygon fill="white" stroke="black" points="276,-164 276,-183 412,-183 412,-164 276,-164"/>
<text text-anchor="middle" x="344" y="-171" font-family="Helvetica,sans-Serif" font-size="10.00">tds_get_conversion_type</text>
</a>
</g>
</g>
<!-- Node17&#45;&gt;Node18 -->
<g id="edge29" class="edge"><title>Node17&#45;&gt;Node18</title>
<path fill="none" stroke="midnightblue" d="M231.001,-186.436C242.055,-185.159 253.938,-183.787 265.686,-182.43"/>
<polygon fill="midnightblue" stroke="midnightblue" points="266.418,-185.869 275.951,-181.244 265.615,-178.915 266.418,-185.869"/>
</g>
<!-- Node19 -->
<g id="node19" class="node"><title>Node19</title>
<g id="a_node19"><a xlink:href="a00193.html#aa70b02ff34ac03040ca41f13d5fd35bd" target="_top" xlink:title="Return the number of bytes needed by specified type. ">
<polygon fill="white" stroke="black" points="284.5,-126 284.5,-145 403.5,-145 403.5,-126 284.5,-126"/>
<text text-anchor="middle" x="344" y="-133" font-family="Helvetica,sans-Serif" font-size="10.00">tds_get_size_by_type</text>
</a>
</g>
</g>
<!-- Node17&#45;&gt;Node19 -->
<g id="edge30" class="edge"><title>Node17&#45;&gt;Node19</title>
<path fill="none" stroke="midnightblue" d="M200.877,-182.932C220.282,-174.817 249.224,-163.151 275,-154.5 281.871,-152.194 289.195,-149.94 296.397,-147.836"/>
<polygon fill="midnightblue" stroke="midnightblue" points="297.432,-151.181 306.087,-145.071 295.511,-144.45 297.432,-151.181"/>
</g>
<!-- Node20 -->
<g id="node20" class="node"><title>Node20</title>
<g id="a_node20"><a xlink:href="a00344.html#gac82ffc5c1f71cbf453d81d1057004f1e" target="_top" xlink:title="Get the data for bcp&#45;in from program variables, where the program data have been identified as charac...">
<polygon fill="white" stroke="black" points="290,-240 290,-259 398,-259 398,-240 290,-240"/>
<text text-anchor="middle" x="344" y="-247" font-family="Helvetica,sans-Serif" font-size="10.00">_bcp_get_term_var</text>
</a>
</g>
</g>
<!-- Node17&#45;&gt;Node20 -->
<g id="edge31" class="edge"><title>Node17&#45;&gt;Node20</title>
<path fill="none" stroke="midnightblue" d="M200.877,-202.068C220.282,-210.183 249.224,-221.849 275,-230.5 281.871,-232.806 289.195,-235.06 296.397,-237.164"/>
<polygon fill="midnightblue" stroke="midnightblue" points="295.511,-240.55 306.087,-239.929 297.432,-233.819 295.511,-240.55"/>
</g>
<!-- Node21 -->
<g id="node21" class="node"><title>Node21</title>
<g id="a_node21"><a xlink:href="a00233.html#a69623a4c4f488f3a8838af6f5ca3da13" target="_top" xlink:title="Convert column for input to a table. ">
<polygon fill="white" stroke="black" points="296.5,-202 296.5,-221 391.5,-221 391.5,-202 296.5,-202"/>
<text text-anchor="middle" x="344" y="-209" font-family="Helvetica,sans-Serif" font-size="10.00">_bcp_convert_in</text>
</a>
</g>
</g>
<!-- Node17&#45;&gt;Node21 -->
<g id="edge32" class="edge"><title>Node17&#45;&gt;Node21</title>
<path fill="none" stroke="midnightblue" d="M231.001,-198.564C248.611,-200.598 268.324,-202.875 286.244,-204.945"/>
<polygon fill="midnightblue" stroke="midnightblue" points="285.939,-208.433 296.274,-206.103 286.742,-201.479 285.939,-208.433"/>
</g>
<!-- Node22 -->
<g id="node22" class="node"><title>Node22</title>
<g id="a_node22"><a xlink:href="a00353.html#gaa865e08f7ad70ef92b111c2ea3657457" target="_top" xlink:title="tds_convert convert a type to another. ">
<polygon fill="white" stroke="black" points="489,-126 489,-145 561,-145 561,-126 489,-126"/>
<text text-anchor="middle" x="525" y="-133" font-family="Helvetica,sans-Serif" font-size="10.00">tds_convert</text>
</a>
</g>
</g>
<!-- Node21&#45;&gt;Node22 -->
<g id="edge33" class="edge"><title>Node21&#45;&gt;Node22</title>
<path fill="none" stroke="midnightblue" d="M391.753,-202.063C399.146,-199.561 406.491,-196.423 413,-192.5 432.925,-180.49 428.93,-166.266 449,-154.5 458.132,-149.146 468.75,-145.288 479.073,-142.512"/>
<polygon fill="midnightblue" stroke="midnightblue" points="479.917,-145.909 488.822,-140.168 478.281,-139.102 479.917,-145.909"/>
</g>
</g>
</svg>
