<?xml version="1.0" encoding="UTF-8" standalone="no"?>
<!DOCTYPE svg PUBLIC "-//W3C//DTD SVG 1.1//EN"
 "http://www.w3.org/Graphics/SVG/1.1/DTD/svg11.dtd">
<!-- Generated by graphviz version 2.38.0 (20140413.2041)
 -->
<!-- Title: dbconvert Pages: 1 -->
<svg width="187pt" height="142pt"
 viewBox="0.00 0.00 187.00 142.00" xmlns="http://www.w3.org/2000/svg" xmlns:xlink="http://www.w3.org/1999/xlink">
<g id="graph0" class="graph" transform="scale(1 1) rotate(0) translate(4 138)">
<title>dbconvert</title>
<polygon fill="white" stroke="none" points="-4,4 -4,-138 183,-138 183,4 -4,4"/>
<!-- Node1 -->
<g id="node1" class="node"><title>Node1</title>
<polygon fill="#bfbfbf" stroke="black" points="0,-57.5 0,-76.5 63,-76.5 63,-57.5 0,-57.5"/>
<text text-anchor="middle" x="31.5" y="-64.5" font-family="Helvetica,sans-Serif" font-size="10.00">dbconvert</text>
</g>
<!-- Node2 -->
<g id="node2" class="node"><title>Node2</title>
<g id="a_node2"><a xlink:href="a00341.html#gac617cfeabee6c2ccefaa73636da38f3a" target="_top" xlink:title="cf. ">
<polygon fill="white" stroke="black" points="99,-114.5 99,-133.5 179,-133.5 179,-114.5 99,-114.5"/>
<text text-anchor="middle" x="139" y="-121.5" font-family="Helvetica,sans-Serif" font-size="10.00">dbconvert_ps</text>
</a>
</g>
</g>
<!-- Node1&#45;&gt;Node2 -->
<g id="edge1" class="edge"><title>Node1&#45;&gt;Node2</title>
<path fill="none" stroke="midnightblue" d="M57.3148,-81.6959C69.726,-88.9135 85.0417,-97.622 99,-105 104.993,-108.168 111.592,-111.456 117.631,-114.389"/>
<polygon fill="midnightblue" stroke="midnightblue" points="58.8591,-78.5443 48.4606,-76.5138 55.3232,-84.5857 58.8591,-78.5443"/>
</g>
<!-- Node3 -->
<g id="node3" class="node"><title>Node3</title>
<g id="a_node3"><a xlink:href="a00341.html#gaf641c8e3d34607ca8b7ac2afed3e6d67" target="_top" xlink:title="Print a regular result row to a buffer. ">
<polygon fill="white" stroke="black" points="106,-76.5 106,-95.5 172,-95.5 172,-76.5 106,-76.5"/>
<text text-anchor="middle" x="139" y="-83.5" font-family="Helvetica,sans-Serif" font-size="10.00">dbspr1row</text>
</a>
</g>
</g>
<!-- Node1&#45;&gt;Node3 -->
<g id="edge2" class="edge"><title>Node1&#45;&gt;Node3</title>
<path fill="none" stroke="midnightblue" d="M73.0903,-74.3101C83.8955,-76.2561 95.4205,-78.3317 105.715,-80.1856"/>
<polygon fill="midnightblue" stroke="midnightblue" points="73.477,-70.8235 63.015,-72.4956 72.2363,-77.7127 73.477,-70.8235"/>
</g>
<!-- Node4 -->
<g id="node4" class="node"><title>Node4</title>
<g id="a_node4"><a xlink:href="a00341.html#gaa30be3414a97aac6139af2e928db91ca" target="_top" xlink:title="Print a result set to stdout. ">
<polygon fill="white" stroke="black" points="111.5,-38.5 111.5,-57.5 166.5,-57.5 166.5,-38.5 111.5,-38.5"/>
<text text-anchor="middle" x="139" y="-45.5" font-family="Helvetica,sans-Serif" font-size="10.00">dbprrow</text>
</a>
</g>
</g>
<!-- Node1&#45;&gt;Node4 -->
<g id="edge3" class="edge"><title>Node1&#45;&gt;Node4</title>
<path fill="none" stroke="midnightblue" d="M73.066,-59.6943C85.9519,-57.3736 99.864,-54.8681 111.493,-52.7738"/>
<polygon fill="midnightblue" stroke="midnightblue" points="72.2363,-56.2873 63.015,-61.5044 73.477,-63.1765 72.2363,-56.2873"/>
</g>
<!-- Node5 -->
<g id="node5" class="node"><title>Node5</title>
<g id="a_node5"><a xlink:href="a00341.html#ga548153eb2eae76c48aa9d4b72258dc1c" target="_top" xlink:title="Send text or image data to the server. ">
<polygon fill="white" stroke="black" points="105,-0.5 105,-19.5 173,-19.5 173,-0.5 105,-0.5"/>
<text text-anchor="middle" x="139" y="-7.5" font-family="Helvetica,sans-Serif" font-size="10.00">dbwritetext</text>
</a>
</g>
</g>
<!-- Node1&#45;&gt;Node5 -->
<g id="edge4" class="edge"><title>Node1&#45;&gt;Node5</title>
<path fill="none" stroke="midnightblue" d="M57.3148,-52.3041C69.726,-45.0865 85.0417,-36.378 99,-29 104.993,-25.8324 111.592,-22.5437 117.631,-19.6105"/>
<polygon fill="midnightblue" stroke="midnightblue" points="55.3232,-49.4143 48.4606,-57.4862 58.8591,-55.4557 55.3232,-49.4143"/>
</g>
</g>
</svg>
