<?xml version="1.0" encoding="UTF-8" standalone="no"?>
<!DOCTYPE svg PUBLIC "-//W3C//DTD SVG 1.1//EN"
 "http://www.w3.org/Graphics/SVG/1.1/DTD/svg11.dtd">
<!-- Generated by graphviz version 2.38.0 (20140413.2041)
 -->
<!-- Title: tds_submit_query_params Pages: 1 -->
<svg width="832pt" height="332pt"
 viewBox="0.00 0.00 832.00 332.00" xmlns="http://www.w3.org/2000/svg" xmlns:xlink="http://www.w3.org/1999/xlink">
<g id="graph0" class="graph" transform="scale(1 1) rotate(0) translate(4 328)">
<title>tds_submit_query_params</title>
<polygon fill="white" stroke="none" points="-4,4 -4,-328 828,-328 828,4 -4,4"/>
<!-- Node1 -->
<g id="node1" class="node"><title>Node1</title>
<polygon fill="#bfbfbf" stroke="black" points="0,-152.5 0,-171.5 140,-171.5 140,-152.5 0,-152.5"/>
<text text-anchor="middle" x="70" y="-159.5" font-family="Helvetica,sans-Serif" font-size="10.00">tds_submit_query_params</text>
</g>
<!-- Node2 -->
<g id="node2" class="node"><title>Node2</title>
<g id="a_node2"><a xlink:href="a00356.html#ga5a29ae7f99d089dc3cea85ec6ee5f3ab" target="_top" xlink:title="tds_submit_query() sends a language string to the database server for processing. ...">
<polygon fill="white" stroke="black" points="176,-152.5 176,-171.5 274,-171.5 274,-152.5 176,-152.5"/>
<text text-anchor="middle" x="225" y="-159.5" font-family="Helvetica,sans-Serif" font-size="10.00">tds_submit_query</text>
</a>
</g>
</g>
<!-- Node1&#45;&gt;Node2 -->
<g id="edge1" class="edge"><title>Node1&#45;&gt;Node2</title>
<path fill="none" stroke="midnightblue" d="M150.507,-162C159.173,-162 167.788,-162 175.905,-162"/>
<polygon fill="midnightblue" stroke="midnightblue" points="150.337,-158.5 140.337,-162 150.337,-165.5 150.337,-158.5"/>
</g>
<!-- Node3 -->
<g id="node3" class="node"><title>Node3</title>
<g id="a_node3"><a xlink:href="a00344.html#gae67546338cb9542a4902aa914f57f314" target="_top" xlink:title="_bcp_exec_out">
<polygon fill="white" stroke="black" points="494,-266.5 494,-285.5 582,-285.5 582,-266.5 494,-266.5"/>
<text text-anchor="middle" x="538" y="-273.5" font-family="Helvetica,sans-Serif" font-size="10.00">_bcp_exec_out</text>
</a>
</g>
</g>
<!-- Node2&#45;&gt;Node3 -->
<g id="edge2" class="edge"><title>Node2&#45;&gt;Node3</title>
<path fill="none" stroke="midnightblue" d="M236.359,-180.641C249.991,-203.139 276.234,-240.054 310,-257 368.498,-286.358 446.232,-285.698 493.883,-281.562"/>
<polygon fill="midnightblue" stroke="midnightblue" points="239.213,-178.587 231.152,-171.712 233.166,-182.114 239.213,-178.587"/>
</g>
<!-- Node5 -->
<g id="node5" class="node"><title>Node5</title>
<g id="a_node5"><a xlink:href="a00341.html#gac980139b9cea03cf93e373d425991481" target="_top" xlink:title="Transmit the command buffer to the server. ">
<polygon fill="white" stroke="black" points="338.5,-304.5 338.5,-323.5 403.5,-323.5 403.5,-304.5 338.5,-304.5"/>
<text text-anchor="middle" x="371" y="-311.5" font-family="Helvetica,sans-Serif" font-size="10.00">dbsqlsend</text>
</a>
</g>
</g>
<!-- Node2&#45;&gt;Node5 -->
<g id="edge4" class="edge"><title>Node2&#45;&gt;Node5</title>
<path fill="none" stroke="midnightblue" d="M234.019,-181.138C246.476,-208.738 272.956,-259.72 310,-290 318.252,-296.745 328.642,-301.789 338.447,-305.466"/>
<polygon fill="midnightblue" stroke="midnightblue" points="237.149,-179.559 229.939,-171.796 230.734,-182.361 237.149,-179.559"/>
</g>
<!-- Node7 -->
<g id="node7" class="node"><title>Node7</title>
<g id="a_node7"><a xlink:href="a00356.html#gad695defcbf663b0023851a198206a772" target="_top" xlink:title="Format and submit a query. ">
<polygon fill="white" stroke="black" points="320.5,-228.5 320.5,-247.5 421.5,-247.5 421.5,-228.5 320.5,-228.5"/>
<text text-anchor="middle" x="371" y="-235.5" font-family="Helvetica,sans-Serif" font-size="10.00">tds_submit_queryf</text>
</a>
</g>
</g>
<!-- Node2&#45;&gt;Node7 -->
<g id="edge6" class="edge"><title>Node2&#45;&gt;Node7</title>
<path fill="none" stroke="midnightblue" d="M246.101,-178.102C262.513,-190.625 286.718,-207.712 310,-219 317.472,-222.623 325.796,-225.769 333.807,-228.403"/>
<polygon fill="midnightblue" stroke="midnightblue" points="247.884,-175.054 237.841,-171.68 243.588,-180.581 247.884,-175.054"/>
</g>
<!-- Node10 -->
<g id="node10" class="node"><title>Node10</title>
<g id="a_node10"><a xlink:href="a00356.html#gaf0da49585d39e99780a004ee2ca23479" target="_top" xlink:title="Send option commands to server. ">
<polygon fill="white" stroke="black" points="310.5,-190.5 310.5,-209.5 431.5,-209.5 431.5,-190.5 310.5,-190.5"/>
<text text-anchor="middle" x="371" y="-197.5" font-family="Helvetica,sans-Serif" font-size="10.00">tds_submit_optioncmd</text>
</a>
</g>
</g>
<!-- Node2&#45;&gt;Node10 -->
<g id="edge10" class="edge"><title>Node2&#45;&gt;Node10</title>
<path fill="none" stroke="midnightblue" d="M272.172,-174.184C292.164,-179.46 315.219,-185.544 333.924,-190.48"/>
<polygon fill="midnightblue" stroke="midnightblue" points="272.899,-170.756 262.337,-171.589 271.113,-177.525 272.899,-170.756"/>
</g>
<!-- Node11 -->
<g id="node11" class="node"><title>Node11</title>
<g id="a_node11"><a xlink:href="a00356.html#ga7bf3670d3d6dabed469b9eb117298079" target="_top" xlink:title="Send a rollback request. ">
<polygon fill="white" stroke="black" points="310,-152.5 310,-171.5 432,-171.5 432,-152.5 310,-152.5"/>
<text text-anchor="middle" x="371" y="-159.5" font-family="Helvetica,sans-Serif" font-size="10.00">tds_submit_begin_tran</text>
</a>
</g>
</g>
<!-- Node2&#45;&gt;Node11 -->
<g id="edge11" class="edge"><title>Node2&#45;&gt;Node11</title>
<path fill="none" stroke="midnightblue" d="M284.389,-162C292.748,-162 301.361,-162 309.755,-162"/>
<polygon fill="midnightblue" stroke="midnightblue" points="284.351,-158.5 274.351,-162 284.35,-165.5 284.351,-158.5"/>
</g>
<!-- Node12 -->
<g id="node12" class="node"><title>Node12</title>
<g id="a_node12"><a xlink:href="a00356.html#ga9c1cdcc388506a2ca3c0aaee8c461ba6" target="_top" xlink:title="Send a rollback request. ">
<polygon fill="white" stroke="black" points="317,-114.5 317,-133.5 425,-133.5 425,-114.5 317,-114.5"/>
<text text-anchor="middle" x="371" y="-121.5" font-family="Helvetica,sans-Serif" font-size="10.00">tds_submit_rollback</text>
</a>
</g>
</g>
<!-- Node2&#45;&gt;Node12 -->
<g id="edge12" class="edge"><title>Node2&#45;&gt;Node12</title>
<path fill="none" stroke="midnightblue" d="M272.172,-149.816C292.164,-144.54 315.219,-138.456 333.924,-133.52"/>
<polygon fill="midnightblue" stroke="midnightblue" points="271.113,-146.475 262.337,-152.411 272.899,-153.244 271.113,-146.475"/>
</g>
<!-- Node13 -->
<g id="node13" class="node"><title>Node13</title>
<g id="a_node13"><a xlink:href="a00356.html#ga530538c4c975524cf0b771a550fc94a3" target="_top" xlink:title="Send a commit request. ">
<polygon fill="white" stroke="black" points="318.5,-76.5 318.5,-95.5 423.5,-95.5 423.5,-76.5 318.5,-76.5"/>
<text text-anchor="middle" x="371" y="-83.5" font-family="Helvetica,sans-Serif" font-size="10.00">tds_submit_commit</text>
</a>
</g>
</g>
<!-- Node2&#45;&gt;Node13 -->
<g id="edge13" class="edge"><title>Node2&#45;&gt;Node13</title>
<path fill="none" stroke="midnightblue" d="M246.101,-145.898C262.513,-133.375 286.718,-116.288 310,-105 317.472,-101.377 325.796,-98.2309 333.807,-95.5975"/>
<polygon fill="midnightblue" stroke="midnightblue" points="243.588,-143.419 237.841,-152.32 247.884,-148.946 243.588,-143.419"/>
</g>
<!-- Node14 -->
<g id="node14" class="node"><title>Node14</title>
<g id="a_node14"><a xlink:href="a00193.html#a8208eef2a3974ae1f0cf3c8c8ab011ce" target="_top" xlink:title="Start sending BCP data to server. ">
<polygon fill="white" stroke="black" points="331,-38.5 331,-57.5 411,-57.5 411,-38.5 331,-38.5"/>
<text text-anchor="middle" x="371" y="-45.5" font-family="Helvetica,sans-Serif" font-size="10.00">tds_bcp_start</text>
</a>
</g>
</g>
<!-- Node2&#45;&gt;Node14 -->
<g id="edge14" class="edge"><title>Node2&#45;&gt;Node14</title>
<path fill="none" stroke="midnightblue" d="M237.483,-143.898C251.922,-122.548 278.652,-87.3917 310,-67 316.32,-62.889 323.592,-59.6138 330.843,-57.0224"/>
<polygon fill="midnightblue" stroke="midnightblue" points="234.477,-142.098 231.905,-152.376 240.325,-145.946 234.477,-142.098"/>
</g>
<!-- Node18 -->
<g id="node18" class="node"><title>Node18</title>
<g id="a_node18"><a xlink:href="a00359.html#ga55f27c3e05d42c9b07ace1c74b11c5ab" target="_top" xlink:title="Retrieve and set @spid. ">
<polygon fill="white" stroke="black" points="332.5,-0.5 332.5,-19.5 409.5,-19.5 409.5,-0.5 332.5,-0.5"/>
<text text-anchor="middle" x="371" y="-7.5" font-family="Helvetica,sans-Serif" font-size="10.00">tds_set_spid</text>
</a>
</g>
</g>
<!-- Node2&#45;&gt;Node18 -->
<g id="edge20" class="edge"><title>Node2&#45;&gt;Node18</title>
<path fill="none" stroke="midnightblue" d="M233.023,-142.971C244.628,-114.12 270.52,-59.456 310,-29 316.575,-23.9278 324.534,-20.1927 332.476,-17.4477"/>
<polygon fill="midnightblue" stroke="midnightblue" points="229.742,-141.75 229.395,-152.339 236.27,-144.278 229.742,-141.75"/>
</g>
<!-- Node4 -->
<g id="node4" class="node"><title>Node4</title>
<g id="a_node4"><a xlink:href="a00343.html#ga7a184158b27a50f713e9cfae3b746209" target="_top" xlink:title="Write a datafile to a table. ">
<polygon fill="white" stroke="black" points="762,-133.5 762,-152.5 824,-152.5 824,-133.5 762,-133.5"/>
<text text-anchor="middle" x="793" y="-140.5" font-family="Helvetica,sans-Serif" font-size="10.00">bcp_exec</text>
</a>
</g>
</g>
<!-- Node3&#45;&gt;Node4 -->
<g id="edge3" class="edge"><title>Node3&#45;&gt;Node4</title>
<path fill="none" stroke="midnightblue" d="M591.026,-263.408C596.837,-261.493 602.602,-259.357 608,-257 676.878,-226.925 750.439,-174.262 779.326,-152.661"/>
<polygon fill="midnightblue" stroke="midnightblue" points="589.782,-260.129 581.26,-266.424 591.848,-266.817 589.782,-260.129"/>
</g>
<!-- Node6 -->
<g id="node6" class="node"><title>Node6</title>
<g id="a_node6"><a xlink:href="a00341.html#gaae889abeb145ec41f7361aa8f597fe46" target="_top" xlink:title="send the SQL command to the server and wait for an answer. ">
<polygon fill="white" stroke="red" points="506,-304.5 506,-323.5 570,-323.5 570,-304.5 506,-304.5"/>
<text text-anchor="middle" x="538" y="-311.5" font-family="Helvetica,sans-Serif" font-size="10.00">dbsqlexec</text>
</a>
</g>
</g>
<!-- Node5&#45;&gt;Node6 -->
<g id="edge5" class="edge"><title>Node5&#45;&gt;Node6</title>
<path fill="none" stroke="midnightblue" d="M413.929,-314C442.549,-314 479.843,-314 505.844,-314"/>
<polygon fill="midnightblue" stroke="midnightblue" points="413.814,-310.5 403.814,-314 413.814,-317.5 413.814,-310.5"/>
</g>
<!-- Node7&#45;&gt;Node3 -->
<g id="edge7" class="edge"><title>Node7&#45;&gt;Node3</title>
<path fill="none" stroke="midnightblue" d="M423.654,-249.896C446.846,-255.237 473.838,-261.454 495.663,-266.48"/>
<polygon fill="midnightblue" stroke="midnightblue" points="424.167,-246.423 413.636,-247.589 422.596,-253.244 424.167,-246.423"/>
</g>
<!-- Node8 -->
<g id="node8" class="node"><title>Node8</title>
<g id="a_node8"><a xlink:href="a00193.html#ac6610c72bd31bad5378f760fa9b12d66" target="_top" xlink:title="Initialize BCP information. ">
<polygon fill="white" stroke="red" points="501.5,-228.5 501.5,-247.5 574.5,-247.5 574.5,-228.5 501.5,-228.5"/>
<text text-anchor="middle" x="538" y="-235.5" font-family="Helvetica,sans-Serif" font-size="10.00">tds_bcp_init</text>
</a>
</g>
</g>
<!-- Node7&#45;&gt;Node8 -->
<g id="edge8" class="edge"><title>Node7&#45;&gt;Node8</title>
<path fill="none" stroke="midnightblue" d="M431.682,-238C455.059,-238 481.088,-238 501.421,-238"/>
<polygon fill="midnightblue" stroke="midnightblue" points="431.505,-234.5 421.505,-238 431.505,-241.5 431.505,-234.5"/>
</g>
<!-- Node9 -->
<g id="node9" class="node"><title>Node9</title>
<g id="a_node9"><a xlink:href="a00193.html#a7711612cc544a7da2c7aa212b870acb2" target="_top" xlink:title="Start writing writetext request. ">
<polygon fill="white" stroke="red" points="486,-190.5 486,-209.5 590,-209.5 590,-190.5 486,-190.5"/>
<text text-anchor="middle" x="538" y="-197.5" font-family="Helvetica,sans-Serif" font-size="10.00">tds_writetext_start</text>
</a>
</g>
</g>
<!-- Node7&#45;&gt;Node9 -->
<g id="edge9" class="edge"><title>Node7&#45;&gt;Node9</title>
<path fill="none" stroke="midnightblue" d="M423.654,-226.104C446.846,-220.763 473.838,-214.546 495.663,-209.52"/>
<polygon fill="midnightblue" stroke="midnightblue" points="422.596,-222.756 413.636,-228.411 424.167,-229.577 422.596,-222.756"/>
</g>
<!-- Node15 -->
<g id="node15" class="node"><title>Node15</title>
<g id="a_node15"><a xlink:href="a00344.html#ga7370f1223f13510d6b33e98f2de09fb5" target="_top" xlink:title="_bcp_exec_in">
<polygon fill="white" stroke="black" points="644,-76.5 644,-95.5 726,-95.5 726,-76.5 644,-76.5"/>
<text text-anchor="middle" x="685" y="-83.5" font-family="Helvetica,sans-Serif" font-size="10.00">_bcp_exec_in</text>
</a>
</g>
</g>
<!-- Node14&#45;&gt;Node15 -->
<g id="edge15" class="edge"><title>Node14&#45;&gt;Node15</title>
<path fill="none" stroke="midnightblue" d="M421.179,-49.601C469.118,-51.7154 543.947,-56.4885 608,-67 622.226,-69.3346 637.701,-72.9934 650.952,-76.4795"/>
<polygon fill="midnightblue" stroke="midnightblue" points="421.213,-46.0995 411.075,-49.1773 420.92,-53.0933 421.213,-46.0995"/>
</g>
<!-- Node16 -->
<g id="node16" class="node"><title>Node16</title>
<g id="a_node16"><a xlink:href="a00343.html#gaa23f8e5c7f437a94746c90292dd1cb01" target="_top" xlink:title="Commit a set of rows to the table. ">
<polygon fill="white" stroke="black" points="505.5,-114.5 505.5,-133.5 570.5,-133.5 570.5,-114.5 505.5,-114.5"/>
<text text-anchor="middle" x="538" y="-121.5" font-family="Helvetica,sans-Serif" font-size="10.00">bcp_batch</text>
</a>
</g>
</g>
<!-- Node14&#45;&gt;Node16 -->
<g id="edge17" class="edge"><title>Node14&#45;&gt;Node16</title>
<path fill="none" stroke="midnightblue" d="M420.52,-60.9616C424.522,-62.7437 428.406,-64.749 432,-67 451.717,-79.3488 448.053,-93.0277 468,-105 479.293,-111.778 493.064,-116.2 505.324,-119.056"/>
<polygon fill="midnightblue" stroke="midnightblue" points="421.631,-57.6368 411.045,-57.1972 419.046,-64.1422 421.631,-57.6368"/>
</g>
<!-- Node17 -->
<g id="node17" class="node"><title>Node17</title>
<g id="a_node17"><a xlink:href="a00193.html#a5eec23828b0610c58de248c4edb53879" target="_top" xlink:title="Start bulk copy to server. ">
<polygon fill="white" stroke="red" points="476.5,-76.5 476.5,-95.5 599.5,-95.5 599.5,-76.5 476.5,-76.5"/>
<text text-anchor="middle" x="538" y="-83.5" font-family="Helvetica,sans-Serif" font-size="10.00">tds_bcp_start_copy_in</text>
</a>
</g>
</g>
<!-- Node14&#45;&gt;Node17 -->
<g id="edge18" class="edge"><title>Node14&#45;&gt;Node17</title>
<path fill="none" stroke="midnightblue" d="M420.976,-59.2794C444.72,-64.7476 472.928,-71.244 495.585,-76.462"/>
<polygon fill="midnightblue" stroke="midnightblue" points="421.633,-55.8391 411.103,-57.0055 420.062,-62.6605 421.633,-55.8391"/>
</g>
<!-- Node15&#45;&gt;Node4 -->
<g id="edge16" class="edge"><title>Node15&#45;&gt;Node4</title>
<path fill="none" stroke="midnightblue" d="M712.877,-100.453C732.132,-110.807 757.522,-124.46 774.284,-133.474"/>
<polygon fill="midnightblue" stroke="midnightblue" points="714.446,-97.3228 703.981,-95.6693 711.131,-103.488 714.446,-97.3228"/>
</g>
<!-- Node17&#45;&gt;Node15 -->
<g id="edge19" class="edge"><title>Node17&#45;&gt;Node15</title>
<path fill="none" stroke="midnightblue" d="M609.856,-86C621.517,-86 633.235,-86 643.802,-86"/>
<polygon fill="midnightblue" stroke="midnightblue" points="609.653,-82.5001 599.653,-86 609.653,-89.5001 609.653,-82.5001"/>
</g>
<!-- Node19 -->
<g id="node19" class="node"><title>Node19</title>
<g id="a_node19"><a xlink:href="a00359.html#ga93945b42d45ee28ae1296b35a1c1e9bb" target="_top" xlink:title="tds_process_login_tokens() is called after sending the login packet to the server. ">
<polygon fill="white" stroke="black" points="468,-0.5 468,-19.5 608,-19.5 608,-0.5 468,-0.5"/>
<text text-anchor="middle" x="538" y="-7.5" font-family="Helvetica,sans-Serif" font-size="10.00">tds_process_login_tokens</text>
</a>
</g>
</g>
<!-- Node18&#45;&gt;Node19 -->
<g id="edge21" class="edge"><title>Node18&#45;&gt;Node19</title>
<path fill="none" stroke="midnightblue" d="M419.901,-10C434.889,-10 451.736,-10 467.881,-10"/>
<polygon fill="midnightblue" stroke="midnightblue" points="419.854,-6.5001 409.854,-10 419.854,-13.5001 419.854,-6.5001"/>
</g>
</g>
</svg>
