<?xml version="1.0" encoding="UTF-8" standalone="no"?>
<!DOCTYPE svg PUBLIC "-//W3C//DTD SVG 1.1//EN"
 "http://www.w3.org/Graphics/SVG/1.1/DTD/svg11.dtd">
<!-- Generated by graphviz version 2.38.0 (20140413.2041)
 -->
<!-- Title: tds_process_dyn_result Pages: 1 -->
<svg width="985pt" height="522pt"
 viewBox="0.00 0.00 985.00 522.00" xmlns="http://www.w3.org/2000/svg" xmlns:xlink="http://www.w3.org/1999/xlink">
<g id="graph0" class="graph" transform="scale(1 1) rotate(0) translate(4 518)">
<title>tds_process_dyn_result</title>
<polygon fill="white" stroke="none" points="-4,4 -4,-518 981,-518 981,4 -4,4"/>
<!-- Node1 -->
<g id="node1" class="node"><title>Node1</title>
<polygon fill="#bfbfbf" stroke="black" points="0,-76.5 0,-95.5 129,-95.5 129,-76.5 0,-76.5"/>
<text text-anchor="middle" x="64.5" y="-83.5" font-family="Helvetica,sans-Serif" font-size="10.00">tds_process_dyn_result</text>
</g>
<!-- Node2 -->
<g id="node2" class="node"><title>Node2</title>
<g id="a_node2"><a xlink:href="a00357.html#gad38aa5b9547817854ccba1fcc7855861" target="_top" xlink:title="Get an int16 from the server. ">
<polygon fill="white" stroke="black" points="167,-38.5 167,-57.5 265,-57.5 265,-38.5 167,-38.5"/>
<text text-anchor="middle" x="216" y="-45.5" font-family="Helvetica,sans-Serif" font-size="10.00">tds_get_usmallint</text>
</a>
</g>
</g>
<!-- Node1&#45;&gt;Node2 -->
<g id="edge1" class="edge"><title>Node1&#45;&gt;Node2</title>
<path fill="none" stroke="midnightblue" d="M103.225,-76.411C122.776,-71.4417 146.847,-65.3233 167.637,-60.0387"/>
<polygon fill="midnightblue" stroke="midnightblue" points="168.717,-63.3757 177.546,-57.5201 166.992,-56.5915 168.717,-63.3757"/>
</g>
<!-- Node3 -->
<g id="node3" class="node"><title>Node3</title>
<g id="a_node3"><a xlink:href="a00357.html#gae7d9c4e1a079e1d0aa0252732631e8c4" target="_top" xlink:title="Get N bytes from the buffer and return them in the already allocated space given to us...">
<polygon fill="white" stroke="black" points="668,-285.5 668,-304.5 732,-304.5 732,-285.5 668,-285.5"/>
<text text-anchor="middle" x="700" y="-292.5" font-family="Helvetica,sans-Serif" font-size="10.00">tds_get_n</text>
</a>
</g>
</g>
<!-- Node1&#45;&gt;Node3 -->
<g id="edge23" class="edge"><title>Node1&#45;&gt;Node3</title>
<path fill="none" stroke="midnightblue" d="M129.444,-79.4297C260.499,-67.3308 553.83,-47.6867 632,-105 687.316,-145.557 697.2,-235.47 698.797,-275.325"/>
<polygon fill="midnightblue" stroke="midnightblue" points="695.3,-275.458 699.062,-285.362 702.297,-275.273 695.3,-275.458"/>
</g>
<!-- Node6 -->
<g id="node6" class="node"><title>Node6</title>
<g id="a_node6"><a xlink:href="a00359.html#gad9b6b86f48be077fb44ac603845a0c27" target="_top" xlink:title="Reads data metadata from wire. ">
<polygon fill="white" stroke="black" points="165,-361.5 165,-380.5 267,-380.5 267,-361.5 165,-361.5"/>
<text text-anchor="middle" x="216" y="-368.5" font-family="Helvetica,sans-Serif" font-size="10.00">tds_get_data_info</text>
</a>
</g>
</g>
<!-- Node1&#45;&gt;Node6 -->
<g id="edge5" class="edge"><title>Node1&#45;&gt;Node6</title>
<path fill="none" stroke="midnightblue" d="M70.6461,-95.8103C92.3004,-137.091 176.229,-297.088 205.144,-352.211"/>
<polygon fill="midnightblue" stroke="midnightblue" points="202.131,-354.001 209.876,-361.231 208.33,-350.749 202.131,-354.001"/>
</g>
<!-- Node11 -->
<g id="node11" class="node"><title>Node11</title>
<g id="a_node11"><a xlink:href="a00357.html#ga0cb72d3f6943795c39db1fa692be0a58" target="_top" xlink:title="Return a single byte from the input buffer. ">
<polygon fill="white" stroke="black" points="344,-494.5 344,-513.5 421,-513.5 421,-494.5 344,-494.5"/>
<text text-anchor="middle" x="382.5" y="-501.5" font-family="Helvetica,sans-Serif" font-size="10.00">tds_get_byte</text>
</a>
</g>
</g>
<!-- Node1&#45;&gt;Node11 -->
<g id="edge24" class="edge"><title>Node1&#45;&gt;Node11</title>
<path fill="none" stroke="midnightblue" d="M66.3538,-95.7588C70.3258,-136.116 90.1089,-292.421 165,-390 207.343,-445.171 284.076,-476.401 333.893,-491.747"/>
<polygon fill="midnightblue" stroke="midnightblue" points="333.203,-495.193 343.786,-494.695 335.202,-488.485 333.203,-495.193"/>
</g>
<!-- Node18 -->
<g id="node18" class="node"><title>Node18</title>
<g id="a_node18"><a xlink:href="a00355.html#ga1224fb9277112dc2ce12531d2b73b145" target="_top" xlink:title="Allocate space for row store return NULL on out of memory. ">
<polygon fill="white" stroke="black" points="175,-0.5 175,-19.5 257,-19.5 257,-0.5 175,-0.5"/>
<text text-anchor="middle" x="216" y="-7.5" font-family="Helvetica,sans-Serif" font-size="10.00">tds_alloc_row</text>
</a>
</g>
</g>
<!-- Node1&#45;&gt;Node18 -->
<g id="edge25" class="edge"><title>Node1&#45;&gt;Node18</title>
<path fill="none" stroke="midnightblue" d="M80.6094,-76.3443C99.7695,-64.3364 134.044,-43.6372 165,-29 169.125,-27.0494 173.509,-25.1475 177.901,-23.3476"/>
<polygon fill="midnightblue" stroke="midnightblue" points="179.409,-26.5151 187.428,-19.5907 176.841,-20.0031 179.409,-26.5151"/>
</g>
<!-- Node2&#45;&gt;Node3 -->
<g id="edge2" class="edge"><title>Node2&#45;&gt;Node3</title>
<path fill="none" stroke="midnightblue" d="M250.185,-38.4736C326.77,-18.6702 518.009,18.0038 632,-72 695.627,-122.238 700.683,-230.614 699.887,-275.212"/>
<polygon fill="midnightblue" stroke="midnightblue" points="696.385,-275.227 699.581,-285.328 703.382,-275.438 696.385,-275.227"/>
</g>
<!-- Node4 -->
<g id="node4" class="node"><title>Node4</title>
<g id="a_node4"><a xlink:href="a00357.html#ga410619783bdf2bb60b0f27a5578e0e07" target="_top" xlink:title="Read in one &#39;packet&#39; from the server. ">
<polygon fill="white" stroke="red" points="768,-361.5 768,-380.5 864,-380.5 864,-361.5 768,-361.5"/>
<text text-anchor="middle" x="816" y="-368.5" font-family="Helvetica,sans-Serif" font-size="10.00">tds_read_packet</text>
</a>
</g>
</g>
<!-- Node3&#45;&gt;Node4 -->
<g id="edge3" class="edge"><title>Node3&#45;&gt;Node4</title>
<path fill="none" stroke="midnightblue" d="M715.438,-304.625C734.797,-317.531 769.373,-340.582 792.25,-355.833"/>
<polygon fill="midnightblue" stroke="midnightblue" points="790.417,-358.818 800.679,-361.453 794.3,-352.993 790.417,-358.818"/>
</g>
<!-- Node5 -->
<g id="node5" class="node"><title>Node5</title>
<g id="a_node5"><a xlink:href="a00193.html#ab45c291105027e69836002e1dd586141" target="_top" xlink:title="Write a message to the debug log. ">
<polygon fill="white" stroke="black" points="900,-361.5 900,-380.5 977,-380.5 977,-361.5 900,-361.5"/>
<text text-anchor="middle" x="938.5" y="-368.5" font-family="Helvetica,sans-Serif" font-size="10.00">tdsdump_log</text>
</a>
</g>
</g>
<!-- Node4&#45;&gt;Node5 -->
<g id="edge4" class="edge"><title>Node4&#45;&gt;Node5</title>
<path fill="none" stroke="midnightblue" d="M864.279,-371C872.531,-371 881.124,-371 889.398,-371"/>
<polygon fill="midnightblue" stroke="midnightblue" points="889.659,-374.5 899.659,-371 889.658,-367.5 889.659,-374.5"/>
</g>
<!-- Node6&#45;&gt;Node3 -->
<g id="edge15" class="edge"><title>Node6&#45;&gt;Node3</title>
<path fill="none" stroke="midnightblue" d="M267.046,-379.838C323.084,-389.25 416.71,-403.528 498,-409 557.421,-413 580.308,-438.578 632,-409 667.551,-388.658 686.092,-341.297 694.064,-314.459"/>
<polygon fill="midnightblue" stroke="midnightblue" points="697.482,-315.231 696.775,-304.659 690.736,-313.365 697.482,-315.231"/>
</g>
<!-- Node6&#45;&gt;Node5 -->
<g id="edge6" class="edge"><title>Node6&#45;&gt;Node5</title>
<path fill="none" stroke="midnightblue" d="M258.622,-380.736C261.597,-382.245 264.432,-383.988 267,-386 291.781,-405.414 276.247,-430.408 303,-447 401.84,-508.302 447.693,-466 564,-466 564,-466 564,-466 701,-466 785.358,-466 875.235,-413.312 915.625,-386.412"/>
<polygon fill="midnightblue" stroke="midnightblue" points="917.83,-389.145 924.137,-380.632 913.898,-383.354 917.83,-389.145"/>
</g>
<!-- Node7 -->
<g id="node7" class="node"><title>Node7</title>
<g id="a_node7"><a xlink:href="a00357.html#gafae08056186b143f3ef1399307dc9be7" target="_top" xlink:title="Reads a string from wire and put in a DSTR. ">
<polygon fill="white" stroke="black" points="344.5,-342.5 344.5,-361.5 420.5,-361.5 420.5,-342.5 344.5,-342.5"/>
<text text-anchor="middle" x="382.5" y="-349.5" font-family="Helvetica,sans-Serif" font-size="10.00">tds_dstr_get</text>
</a>
</g>
</g>
<!-- Node6&#45;&gt;Node7 -->
<g id="edge7" class="edge"><title>Node6&#45;&gt;Node7</title>
<path fill="none" stroke="midnightblue" d="M267.249,-365.196C288.604,-362.73 313.369,-359.869 334.372,-357.443"/>
<polygon fill="midnightblue" stroke="midnightblue" points="334.817,-360.915 344.349,-356.291 334.013,-353.962 334.817,-360.915"/>
</g>
<!-- Node6&#45;&gt;Node11 -->
<g id="edge13" class="edge"><title>Node6&#45;&gt;Node11</title>
<path fill="none" stroke="midnightblue" d="M222.003,-380.778C233.401,-402.078 263.404,-452.925 303,-480 312.277,-486.343 323.288,-491.056 334.083,-494.541"/>
<polygon fill="midnightblue" stroke="midnightblue" points="333.301,-497.959 343.881,-497.407 335.267,-491.24 333.301,-497.959"/>
</g>
<!-- Node12 -->
<g id="node12" class="node"><title>Node12</title>
<g id="a_node12"><a xlink:href="a00298.html#a7d6ccf355d1fc24711b5cd5bbc23a931" target="_top" xlink:title="Set type of column initializing all dependency. ">
<polygon fill="white" stroke="black" points="324.5,-152.5 324.5,-171.5 440.5,-171.5 440.5,-152.5 324.5,-152.5"/>
<text text-anchor="middle" x="382.5" y="-159.5" font-family="Helvetica,sans-Serif" font-size="10.00">tds_set_column_type</text>
</a>
</g>
</g>
<!-- Node6&#45;&gt;Node12 -->
<g id="edge16" class="edge"><title>Node6&#45;&gt;Node12</title>
<path fill="none" stroke="midnightblue" d="M220.8,-361.202C231.064,-335.623 261.403,-265.592 303,-219 318.143,-202.039 339.145,-187.115 355.615,-176.797"/>
<polygon fill="midnightblue" stroke="midnightblue" points="357.509,-179.742 364.233,-171.555 353.871,-173.761 357.509,-179.742"/>
</g>
<!-- Node15 -->
<g id="node15" class="node"><title>Node15</title>
<g id="a_node15"><a xlink:href="a00359.html#ga0cf7e719115b0ae476753442d10505ab" target="_top" xlink:title="Returns string representation of the given type. ">
<polygon fill="white" stroke="black" points="349,-418.5 349,-437.5 416,-437.5 416,-418.5 349,-418.5"/>
<text text-anchor="middle" x="382.5" y="-425.5" font-family="Helvetica,sans-Serif" font-size="10.00">tds_prtype</text>
</a>
</g>
</g>
<!-- Node6&#45;&gt;Node15 -->
<g id="edge19" class="edge"><title>Node6&#45;&gt;Node15</title>
<path fill="none" stroke="midnightblue" d="M240.564,-380.551C257.756,-387.395 281.679,-396.66 303,-404 314.685,-408.023 327.462,-412.074 339.249,-415.673"/>
<polygon fill="midnightblue" stroke="midnightblue" points="338.287,-419.039 348.872,-418.579 340.311,-412.338 338.287,-419.039"/>
</g>
<!-- Node16 -->
<g id="node16" class="node"><title>Node16</title>
<g id="a_node16"><a xlink:href="a00359.html#ga91770634ce8c0d6f1fe007b45da186fd" target="_top" xlink:title="Adjust column size according to client&#39;s encoding. ">
<polygon fill="white" stroke="black" points="303,-228.5 303,-247.5 462,-247.5 462,-228.5 303,-228.5"/>
<text text-anchor="middle" x="382.5" y="-235.5" font-family="Helvetica,sans-Serif" font-size="10.00">adjust_character_column_size</text>
</a>
</g>
</g>
<!-- Node6&#45;&gt;Node16 -->
<g id="edge20" class="edge"><title>Node6&#45;&gt;Node16</title>
<path fill="none" stroke="midnightblue" d="M228.83,-361.435C256.675,-338.922 326.609,-282.38 361.315,-254.32"/>
<polygon fill="midnightblue" stroke="midnightblue" points="363.757,-256.846 369.333,-247.837 359.356,-251.403 363.757,-256.846"/>
</g>
<!-- Node7&#45;&gt;Node3 -->
<g id="edge9" class="edge"><title>Node7&#45;&gt;Node3</title>
<path fill="none" stroke="midnightblue" d="M420.62,-345.294C479.903,-334.583 595.565,-313.687 657.5,-302.498"/>
<polygon fill="midnightblue" stroke="midnightblue" points="658.47,-305.879 667.689,-300.657 657.226,-298.991 658.47,-305.879"/>
</g>
<!-- Node8 -->
<g id="node8" class="node"><title>Node8</title>
<g id="a_node8"><a xlink:href="a00358.html#ga6aa14b8b717b51afcfb65bd55143689d" target="_top" xlink:title="allocate space for length char ">
<polygon fill="white" stroke="black" points="523.5,-380.5 523.5,-399.5 606.5,-399.5 606.5,-380.5 523.5,-380.5"/>
<text text-anchor="middle" x="565" y="-387.5" font-family="Helvetica,sans-Serif" font-size="10.00">tds_dstr_alloc</text>
</a>
</g>
</g>
<!-- Node7&#45;&gt;Node8 -->
<g id="edge8" class="edge"><title>Node7&#45;&gt;Node8</title>
<path fill="none" stroke="midnightblue" d="M420.9,-359.874C447.595,-365.494 483.815,-373.119 513.135,-379.292"/>
<polygon fill="midnightblue" stroke="midnightblue" points="512.685,-382.773 523.192,-381.409 514.127,-375.924 512.685,-382.773"/>
</g>
<!-- Node9 -->
<g id="node9" class="node"><title>Node9</title>
<g id="a_node9"><a xlink:href="a00357.html#ga90f080e6e9448feac15dee1370d66802" target="_top" xlink:title="Fetch a string from the wire. ">
<polygon fill="white" stroke="red" points="523,-266.5 523,-285.5 607,-285.5 607,-266.5 523,-266.5"/>
<text text-anchor="middle" x="565" y="-273.5" font-family="Helvetica,sans-Serif" font-size="10.00">tds_get_string</text>
</a>
</g>
</g>
<!-- Node7&#45;&gt;Node9 -->
<g id="edge10" class="edge"><title>Node7&#45;&gt;Node9</title>
<path fill="none" stroke="midnightblue" d="M403.563,-342.316C426.263,-331.495 464.446,-313.696 498,-300 507.216,-296.238 517.266,-292.435 526.681,-288.999"/>
<polygon fill="midnightblue" stroke="midnightblue" points="527.98,-292.252 536.201,-285.569 525.607,-285.666 527.98,-292.252"/>
</g>
<!-- Node10 -->
<g id="node10" class="node"><title>Node10</title>
<g id="a_node10"><a xlink:href="a00358.html#ga0cd7863ba7c2d2da4a193234472a3d14" target="_top" xlink:title="limit length of string, MUST be &lt;= current length ">
<polygon fill="white" stroke="black" points="520.5,-342.5 520.5,-361.5 609.5,-361.5 609.5,-342.5 520.5,-342.5"/>
<text text-anchor="middle" x="565" y="-349.5" font-family="Helvetica,sans-Serif" font-size="10.00">tds_dstr_setlen</text>
</a>
</g>
</g>
<!-- Node7&#45;&gt;Node10 -->
<g id="edge12" class="edge"><title>Node7&#45;&gt;Node10</title>
<path fill="none" stroke="midnightblue" d="M420.9,-352C446.65,-352 481.264,-352 509.999,-352"/>
<polygon fill="midnightblue" stroke="midnightblue" points="510.292,-355.5 520.292,-352 510.292,-348.5 510.292,-355.5"/>
</g>
<!-- Node9&#45;&gt;Node3 -->
<g id="edge11" class="edge"><title>Node9&#45;&gt;Node3</title>
<path fill="none" stroke="midnightblue" d="M607.353,-281.908C623.366,-284.195 641.662,-286.809 657.673,-289.096"/>
<polygon fill="midnightblue" stroke="midnightblue" points="657.423,-292.596 667.817,-290.545 658.413,-285.666 657.423,-292.596"/>
</g>
<!-- Node11&#45;&gt;Node4 -->
<g id="edge14" class="edge"><title>Node11&#45;&gt;Node4</title>
<path fill="none" stroke="midnightblue" d="M416.533,-494.419C464.209,-480.534 555.038,-453.862 632,-430 681.836,-414.548 739.036,-395.97 776.03,-383.844"/>
<polygon fill="midnightblue" stroke="midnightblue" points="777.495,-387.047 785.905,-380.603 775.312,-380.396 777.495,-387.047"/>
</g>
<!-- Node13 -->
<g id="node13" class="node"><title>Node13</title>
<g id="a_node13"><a xlink:href="a00193.html#a68855f1251759a6b7338635306ab0041" target="_top" xlink:title="tds_get_varint_size() returns the size of a variable length integer returned in a TDS 7...">
<polygon fill="white" stroke="black" points="510.5,-114.5 510.5,-133.5 619.5,-133.5 619.5,-114.5 510.5,-114.5"/>
<text text-anchor="middle" x="565" y="-121.5" font-family="Helvetica,sans-Serif" font-size="10.00">tds_get_varint_size</text>
</a>
</g>
</g>
<!-- Node12&#45;&gt;Node13 -->
<g id="edge17" class="edge"><title>Node12&#45;&gt;Node13</title>
<path fill="none" stroke="midnightblue" d="M429.048,-152.411C453.296,-147.306 483.304,-140.989 508.861,-135.608"/>
<polygon fill="midnightblue" stroke="midnightblue" points="509.715,-139.005 518.78,-133.52 508.273,-132.155 509.715,-139.005"/>
</g>
<!-- Node14 -->
<g id="node14" class="node"><title>Node14</title>
<g id="a_node14"><a xlink:href="a00193.html#aa70b02ff34ac03040ca41f13d5fd35bd" target="_top" xlink:title="Return the number of bytes needed by specified type. ">
<polygon fill="white" stroke="black" points="505.5,-152.5 505.5,-171.5 624.5,-171.5 624.5,-152.5 505.5,-152.5"/>
<text text-anchor="middle" x="565" y="-159.5" font-family="Helvetica,sans-Serif" font-size="10.00">tds_get_size_by_type</text>
</a>
</g>
</g>
<!-- Node12&#45;&gt;Node14 -->
<g id="edge18" class="edge"><title>Node12&#45;&gt;Node14</title>
<path fill="none" stroke="midnightblue" d="M440.611,-162C457.96,-162 477.205,-162 495.236,-162"/>
<polygon fill="midnightblue" stroke="midnightblue" points="495.397,-165.5 505.397,-162 495.397,-158.5 495.397,-165.5"/>
</g>
<!-- Node16&#45;&gt;Node5 -->
<g id="edge22" class="edge"><title>Node16&#45;&gt;Node5</title>
<path fill="none" stroke="midnightblue" d="M419.417,-228.489C468.212,-217.091 557.868,-201.577 632,-219 746.585,-245.931 867.336,-322.623 915.654,-355.609"/>
<polygon fill="midnightblue" stroke="midnightblue" points="913.854,-358.619 924.072,-361.417 917.829,-352.857 913.854,-358.619"/>
</g>
<!-- Node17 -->
<g id="node17" class="node"><title>Node17</title>
<g id="a_node17"><a xlink:href="a00359.html#ga87209537d51f069fee02bc224da492cb" target="_top" xlink:title="Allow for maximum possible size of converted data, while being careful about integer division truncat...">
<polygon fill="white" stroke="black" points="498,-228.5 498,-247.5 632,-247.5 632,-228.5 498,-228.5"/>
<text text-anchor="middle" x="565" y="-235.5" font-family="Helvetica,sans-Serif" font-size="10.00">determine_adjusted_size</text>
</a>
</g>
</g>
<!-- Node16&#45;&gt;Node17 -->
<g id="edge21" class="edge"><title>Node16&#45;&gt;Node17</title>
<path fill="none" stroke="midnightblue" d="M462.145,-238C470.587,-238 479.168,-238 487.584,-238"/>
<polygon fill="midnightblue" stroke="midnightblue" points="487.747,-241.5 497.747,-238 487.747,-234.5 487.747,-241.5"/>
</g>
</g>
</svg>
