<?xml version="1.0" encoding="UTF-8" standalone="no"?>
<!DOCTYPE svg PUBLIC "-//W3C//DTD SVG 1.1//EN"
 "http://www.w3.org/Graphics/SVG/1.1/DTD/svg11.dtd">
<!-- Generated by graphviz version 2.38.0 (20140413.2041)
 -->
<!-- Title: dbbind Pages: 1 -->
<svg width="462pt" height="127pt"
 viewBox="0.00 0.00 462.00 126.81" xmlns="http://www.w3.org/2000/svg" xmlns:xlink="http://www.w3.org/1999/xlink">
<g id="graph0" class="graph" transform="scale(1 1) rotate(0) translate(4 122.809)">
<title>dbbind</title>
<polygon fill="white" stroke="none" points="-4,4 -4,-122.809 458,-122.809 458,4 -4,4"/>
<!-- Node1 -->
<g id="node1" class="node"><title>Node1</title>
<polygon fill="#bfbfbf" stroke="black" points="0,-57.5 0,-76.5 47,-76.5 47,-57.5 0,-57.5"/>
<text text-anchor="middle" x="23.5" y="-64.5" font-family="Helvetica,sans-Serif" font-size="10.00">dbbind</text>
</g>
<!-- Node2 -->
<g id="node2" class="node"><title>Node2</title>
<g id="a_node2"><a xlink:href="a00193.html#ab45c291105027e69836002e1dd586141" target="_top" xlink:title="Write a message to the debug log. ">
<polygon fill="white" stroke="black" points="377,-57.5 377,-76.5 454,-76.5 454,-57.5 377,-57.5"/>
<text text-anchor="middle" x="415.5" y="-64.5" font-family="Helvetica,sans-Serif" font-size="10.00">tdsdump_log</text>
</a>
</g>
</g>
<!-- Node1&#45;&gt;Node2 -->
<g id="edge1" class="edge"><title>Node1&#45;&gt;Node2</title>
<path fill="none" stroke="midnightblue" d="M45.7451,-76.557C56.6639,-81.0628 70.311,-86.0793 83,-89 194.959,-114.77 229.367,-132.15 341,-105 359.434,-100.517 378.41,-90.5453 392.463,-81.9419"/>
<polygon fill="midnightblue" stroke="midnightblue" points="394.371,-84.8765 400.931,-76.5571 390.615,-78.9695 394.371,-84.8765"/>
</g>
<!-- Node3 -->
<g id="node3" class="node"><title>Node3</title>
<g id="a_node3"><a xlink:href="a00347.html#ga302a4ce6559b81808e3be51615cd1b67" target="_top" xlink:title="Call client&#45;installed error handler. ">
<polygon fill="white" stroke="black" points="269.5,-76.5 269.5,-95.5 326.5,-95.5 326.5,-76.5 269.5,-76.5"/>
<text text-anchor="middle" x="298" y="-83.5" font-family="Helvetica,sans-Serif" font-size="10.00">dbperror</text>
</a>
</g>
</g>
<!-- Node1&#45;&gt;Node3 -->
<g id="edge2" class="edge"><title>Node1&#45;&gt;Node3</title>
<path fill="none" stroke="midnightblue" d="M47.2645,-68.5872C94.108,-71.8534 201.702,-79.3553 259.178,-83.3629"/>
<polygon fill="midnightblue" stroke="midnightblue" points="259.082,-86.8646 269.301,-84.0687 259.569,-79.8816 259.082,-86.8646"/>
</g>
<!-- Node4 -->
<g id="node4" class="node"><title>Node4</title>
<g id="a_node4"><a xlink:href="a00193.html#ae7f4c4d5f7352f1c814284c536659e6f" target="_top" xlink:title="Return type suitable for conversions (convert all nullable types to fixed type) ">
<polygon fill="white" stroke="black" points="83,-38.5 83,-57.5 219,-57.5 219,-38.5 83,-38.5"/>
<text text-anchor="middle" x="151" y="-45.5" font-family="Helvetica,sans-Serif" font-size="10.00">tds_get_conversion_type</text>
</a>
</g>
</g>
<!-- Node1&#45;&gt;Node4 -->
<g id="edge4" class="edge"><title>Node1&#45;&gt;Node4</title>
<path fill="none" stroke="midnightblue" d="M47.2271,-63.5592C55.88,-62.2492 66.2755,-60.6754 77.0845,-59.039"/>
<polygon fill="midnightblue" stroke="midnightblue" points="77.7257,-62.4819 87.0891,-57.5244 76.6779,-55.5608 77.7257,-62.4819"/>
</g>
<!-- Node5 -->
<g id="node5" class="node"><title>Node5</title>
<g id="a_node5"><a xlink:href="a00341.html#gaaf8349999c16b3c36caf5947747a2915" target="_top" xlink:title="Test whether or not a datatype can be converted to another datatype. ">
<polygon fill="white" stroke="black" points="112.5,-0.5 112.5,-19.5 189.5,-19.5 189.5,-0.5 112.5,-0.5"/>
<text text-anchor="middle" x="151" y="-7.5" font-family="Helvetica,sans-Serif" font-size="10.00">dbwillconvert</text>
</a>
</g>
</g>
<!-- Node1&#45;&gt;Node5 -->
<g id="edge5" class="edge"><title>Node1&#45;&gt;Node5</title>
<path fill="none" stroke="midnightblue" d="M36.8725,-57.3816C48.2974,-48.8956 66.0177,-36.7105 83,-29 89.2132,-26.179 95.9433,-23.6784 102.66,-21.494"/>
<polygon fill="midnightblue" stroke="midnightblue" points="103.883,-24.7803 112.43,-18.5194 101.845,-18.0838 103.883,-24.7803"/>
</g>
<!-- Node3&#45;&gt;Node2 -->
<g id="edge3" class="edge"><title>Node3&#45;&gt;Node2</title>
<path fill="none" stroke="midnightblue" d="M326.665,-81.449C338.578,-79.4894 352.86,-77.1399 366.412,-74.9106"/>
<polygon fill="midnightblue" stroke="midnightblue" points="367.282,-78.3146 376.581,-73.2378 366.145,-71.4075 367.282,-78.3146"/>
</g>
<!-- Node5&#45;&gt;Node2 -->
<g id="edge6" class="edge"><title>Node5&#45;&gt;Node2</title>
<path fill="none" stroke="midnightblue" d="M189.61,-18.1667C236.392,-28.3252 316.293,-45.6751 367.186,-56.7262"/>
<polygon fill="midnightblue" stroke="midnightblue" points="366.445,-60.1467 376.96,-58.8484 367.93,-53.3061 366.445,-60.1467"/>
</g>
<!-- Node6 -->
<g id="node6" class="node"><title>Node6</title>
<g id="a_node6"><a xlink:href="a00353.html#ga80487b313213f60d8be71a50a002bb2c" target="_top" xlink:title="Test if a conversion is possible. ">
<polygon fill="white" stroke="black" points="255,-0.5 255,-19.5 341,-19.5 341,-0.5 255,-0.5"/>
<text text-anchor="middle" x="298" y="-7.5" font-family="Helvetica,sans-Serif" font-size="10.00">tds_willconvert</text>
</a>
</g>
</g>
<!-- Node5&#45;&gt;Node6 -->
<g id="edge7" class="edge"><title>Node5&#45;&gt;Node6</title>
<path fill="none" stroke="midnightblue" d="M189.719,-10C206.491,-10 226.518,-10 244.703,-10"/>
<polygon fill="midnightblue" stroke="midnightblue" points="244.87,-13.5001 254.87,-10 244.87,-6.5001 244.87,-13.5001"/>
</g>
<!-- Node6&#45;&gt;Node2 -->
<g id="edge8" class="edge"><title>Node6&#45;&gt;Node2</title>
<path fill="none" stroke="midnightblue" d="M318.332,-19.5405C336.821,-28.665 364.925,-42.5344 385.984,-52.9274"/>
<polygon fill="midnightblue" stroke="midnightblue" points="384.588,-56.1414 395.105,-57.4284 387.686,-49.8642 384.588,-56.1414"/>
</g>
</g>
</svg>
