<?xml version="1.0" encoding="UTF-8" standalone="no"?>
<!DOCTYPE svg PUBLIC "-//W3C//DTD SVG 1.1//EN"
 "http://www.w3.org/Graphics/SVG/1.1/DTD/svg11.dtd">
<!-- Generated by graphviz version 2.38.0 (20140413.2041)
 -->
<!-- Title: tds_put_params Pages: 1 -->
<svg width="692pt" height="318pt"
 viewBox="0.00 0.00 692.00 318.47" xmlns="http://www.w3.org/2000/svg" xmlns:xlink="http://www.w3.org/1999/xlink">
<g id="graph0" class="graph" transform="scale(1 1) rotate(0) translate(4 314.469)">
<title>tds_put_params</title>
<polygon fill="white" stroke="none" points="-4,4 -4,-314.469 688,-314.469 688,4 -4,4"/>
<!-- Node1 -->
<g id="node1" class="node"><title>Node1</title>
<polygon fill="#bfbfbf" stroke="black" points="0,-95.5 0,-114.5 92,-114.5 92,-95.5 0,-95.5"/>
<text text-anchor="middle" x="46" y="-102.5" font-family="Helvetica,sans-Serif" font-size="10.00">tds_put_params</text>
</g>
<!-- Node2 -->
<g id="node2" class="node"><title>Node2</title>
<g id="a_node2"><a xlink:href="a00356.html#ga95e0fccedc459a4404f496eec74a369a" target="_top" xlink:title="tds_submit_query_params() sends a language string to the database server for processing. ">
<polygon fill="white" stroke="black" points="128,-152.5 128,-171.5 268,-171.5 268,-152.5 128,-152.5"/>
<text text-anchor="middle" x="198" y="-159.5" font-family="Helvetica,sans-Serif" font-size="10.00">tds_submit_query_params</text>
</a>
</g>
</g>
<!-- Node1&#45;&gt;Node2 -->
<g id="edge1" class="edge"><title>Node1&#45;&gt;Node2</title>
<path fill="none" stroke="midnightblue" d="M73.9864,-119.072C89.5084,-126.806 109.537,-136.184 128,-143 137.558,-146.529 148.072,-149.746 157.95,-152.49"/>
<polygon fill="midnightblue" stroke="midnightblue" points="75.4618,-115.896 64.9584,-114.507 72.3029,-122.143 75.4618,-115.896"/>
</g>
<!-- Node13 -->
<g id="node13" class="node"><title>Node13</title>
<g id="a_node13"><a xlink:href="a00356.html#gae603aed795a4c5bb26ab159a11256996" target="_top" xlink:title="Submit a prepared query with parameters. ">
<polygon fill="white" stroke="black" points="137.5,-114.5 137.5,-133.5 258.5,-133.5 258.5,-114.5 137.5,-114.5"/>
<text text-anchor="middle" x="198" y="-121.5" font-family="Helvetica,sans-Serif" font-size="10.00">tds_submit_execdirect</text>
</a>
</g>
</g>
<!-- Node1&#45;&gt;Node13 -->
<g id="edge13" class="edge"><title>Node1&#45;&gt;Node13</title>
<path fill="none" stroke="midnightblue" d="M102.268,-112.001C113.68,-113.446 125.749,-114.975 137.31,-116.439"/>
<polygon fill="midnightblue" stroke="midnightblue" points="102.366,-108.485 92.0049,-110.701 101.486,-115.43 102.366,-108.485"/>
</g>
<!-- Node14 -->
<g id="node14" class="node"><title>Node14</title>
<g id="a_node14"><a xlink:href="a00356.html#ga3e7b4793c6f799fbc6c174f673bb5b32" target="_top" xlink:title="tds_submit_execute() sends a previously prepared dynamic statement to the server. ...">
<polygon fill="white" stroke="black" points="143.5,-76.5 143.5,-95.5 252.5,-95.5 252.5,-76.5 143.5,-76.5"/>
<text text-anchor="middle" x="198" y="-83.5" font-family="Helvetica,sans-Serif" font-size="10.00">tds_submit_execute</text>
</a>
</g>
</g>
<!-- Node1&#45;&gt;Node14 -->
<g id="edge14" class="edge"><title>Node1&#45;&gt;Node14</title>
<path fill="none" stroke="midnightblue" d="M102.082,-98.023C115.535,-96.3189 129.91,-94.498 143.298,-92.8022"/>
<polygon fill="midnightblue" stroke="midnightblue" points="101.486,-94.5704 92.0049,-99.2994 102.366,-101.515 101.486,-94.5704"/>
</g>
<!-- Node15 -->
<g id="node15" class="node"><title>Node15</title>
<g id="a_node15"><a xlink:href="a00356.html#ga5f071b94ad7889690762dc85646c74ab" target="_top" xlink:title="tds_submit_rpc() call a RPC from server. ">
<polygon fill="white" stroke="black" points="154.5,-38.5 154.5,-57.5 241.5,-57.5 241.5,-38.5 154.5,-38.5"/>
<text text-anchor="middle" x="198" y="-45.5" font-family="Helvetica,sans-Serif" font-size="10.00">tds_submit_rpc</text>
</a>
</g>
</g>
<!-- Node1&#45;&gt;Node15 -->
<g id="edge15" class="edge"><title>Node1&#45;&gt;Node15</title>
<path fill="none" stroke="midnightblue" d="M73.9864,-90.9277C89.5084,-83.194 109.537,-73.8165 128,-67 137.558,-63.4712 148.072,-60.2536 157.95,-57.51"/>
<polygon fill="midnightblue" stroke="midnightblue" points="72.3029,-87.857 64.9584,-95.4931 75.4618,-94.1037 72.3029,-87.857"/>
</g>
<!-- Node3 -->
<g id="node3" class="node"><title>Node3</title>
<g id="a_node3"><a xlink:href="a00356.html#ga5a29ae7f99d089dc3cea85ec6ee5f3ab" target="_top" xlink:title="tds_submit_query() sends a language string to the database server for processing. ...">
<polygon fill="white" stroke="black" points="304,-152.5 304,-171.5 402,-171.5 402,-152.5 304,-152.5"/>
<text text-anchor="middle" x="353" y="-159.5" font-family="Helvetica,sans-Serif" font-size="10.00">tds_submit_query</text>
</a>
</g>
</g>
<!-- Node2&#45;&gt;Node3 -->
<g id="edge2" class="edge"><title>Node2&#45;&gt;Node3</title>
<path fill="none" stroke="midnightblue" d="M278.507,-162C287.173,-162 295.788,-162 303.905,-162"/>
<polygon fill="midnightblue" stroke="midnightblue" points="278.337,-158.5 268.337,-162 278.337,-165.5 278.337,-158.5"/>
</g>
<!-- Node4 -->
<g id="node4" class="node"><title>Node4</title>
<g id="a_node4"><a xlink:href="a00344.html#gae67546338cb9542a4902aa914f57f314" target="_top" xlink:title="_bcp_exec_out">
<polygon fill="white" stroke="red" points="596,-266.5 596,-285.5 684,-285.5 684,-266.5 596,-266.5"/>
<text text-anchor="middle" x="640" y="-273.5" font-family="Helvetica,sans-Serif" font-size="10.00">_bcp_exec_out</text>
</a>
</g>
</g>
<!-- Node3&#45;&gt;Node4 -->
<g id="edge3" class="edge"><title>Node3&#45;&gt;Node4</title>
<path fill="none" stroke="midnightblue" d="M359.694,-181.708C369.757,-212.421 393.906,-270.697 438,-295 496.325,-327.147 578.793,-301.11 617.439,-285.548"/>
<polygon fill="midnightblue" stroke="midnightblue" points="362.913,-180.271 356.613,-171.753 356.226,-182.341 362.913,-180.271"/>
</g>
<!-- Node5 -->
<g id="node5" class="node"><title>Node5</title>
<g id="a_node5"><a xlink:href="a00341.html#gac980139b9cea03cf93e373d425991481" target="_top" xlink:title="Transmit the command buffer to the server. ">
<polygon fill="white" stroke="red" points="466.5,-266.5 466.5,-285.5 531.5,-285.5 531.5,-266.5 466.5,-266.5"/>
<text text-anchor="middle" x="499" y="-273.5" font-family="Helvetica,sans-Serif" font-size="10.00">dbsqlsend</text>
</a>
</g>
</g>
<!-- Node3&#45;&gt;Node5 -->
<g id="edge4" class="edge"><title>Node3&#45;&gt;Node5</title>
<path fill="none" stroke="midnightblue" d="M365.483,-180.102C379.922,-201.452 406.652,-236.608 438,-257 446.518,-262.541 456.766,-266.564 466.362,-269.44"/>
<polygon fill="midnightblue" stroke="midnightblue" points="368.325,-178.054 359.905,-171.624 362.477,-181.902 368.325,-178.054"/>
</g>
<!-- Node6 -->
<g id="node6" class="node"><title>Node6</title>
<g id="a_node6"><a xlink:href="a00356.html#gad695defcbf663b0023851a198206a772" target="_top" xlink:title="Format and submit a query. ">
<polygon fill="white" stroke="red" points="448.5,-228.5 448.5,-247.5 549.5,-247.5 549.5,-228.5 448.5,-228.5"/>
<text text-anchor="middle" x="499" y="-235.5" font-family="Helvetica,sans-Serif" font-size="10.00">tds_submit_queryf</text>
</a>
</g>
</g>
<!-- Node3&#45;&gt;Node6 -->
<g id="edge5" class="edge"><title>Node3&#45;&gt;Node6</title>
<path fill="none" stroke="midnightblue" d="M374.101,-178.102C390.513,-190.625 414.718,-207.712 438,-219 445.472,-222.623 453.796,-225.769 461.807,-228.403"/>
<polygon fill="midnightblue" stroke="midnightblue" points="375.884,-175.054 365.841,-171.68 371.588,-180.581 375.884,-175.054"/>
</g>
<!-- Node7 -->
<g id="node7" class="node"><title>Node7</title>
<g id="a_node7"><a xlink:href="a00356.html#gaf0da49585d39e99780a004ee2ca23479" target="_top" xlink:title="Send option commands to server. ">
<polygon fill="white" stroke="black" points="438.5,-190.5 438.5,-209.5 559.5,-209.5 559.5,-190.5 438.5,-190.5"/>
<text text-anchor="middle" x="499" y="-197.5" font-family="Helvetica,sans-Serif" font-size="10.00">tds_submit_optioncmd</text>
</a>
</g>
</g>
<!-- Node3&#45;&gt;Node7 -->
<g id="edge7" class="edge"><title>Node3&#45;&gt;Node7</title>
<path fill="none" stroke="midnightblue" d="M400.172,-174.184C420.164,-179.46 443.219,-185.544 461.924,-190.48"/>
<polygon fill="midnightblue" stroke="midnightblue" points="400.899,-170.756 390.337,-171.589 399.113,-177.525 400.899,-170.756"/>
</g>
<!-- Node8 -->
<g id="node8" class="node"><title>Node8</title>
<g id="a_node8"><a xlink:href="a00356.html#ga7bf3670d3d6dabed469b9eb117298079" target="_top" xlink:title="Send a rollback request. ">
<polygon fill="white" stroke="black" points="438,-152.5 438,-171.5 560,-171.5 560,-152.5 438,-152.5"/>
<text text-anchor="middle" x="499" y="-159.5" font-family="Helvetica,sans-Serif" font-size="10.00">tds_submit_begin_tran</text>
</a>
</g>
</g>
<!-- Node3&#45;&gt;Node8 -->
<g id="edge8" class="edge"><title>Node3&#45;&gt;Node8</title>
<path fill="none" stroke="midnightblue" d="M412.389,-162C420.748,-162 429.361,-162 437.755,-162"/>
<polygon fill="midnightblue" stroke="midnightblue" points="412.351,-158.5 402.351,-162 412.35,-165.5 412.351,-158.5"/>
</g>
<!-- Node9 -->
<g id="node9" class="node"><title>Node9</title>
<g id="a_node9"><a xlink:href="a00356.html#ga9c1cdcc388506a2ca3c0aaee8c461ba6" target="_top" xlink:title="Send a rollback request. ">
<polygon fill="white" stroke="black" points="445,-114.5 445,-133.5 553,-133.5 553,-114.5 445,-114.5"/>
<text text-anchor="middle" x="499" y="-121.5" font-family="Helvetica,sans-Serif" font-size="10.00">tds_submit_rollback</text>
</a>
</g>
</g>
<!-- Node3&#45;&gt;Node9 -->
<g id="edge9" class="edge"><title>Node3&#45;&gt;Node9</title>
<path fill="none" stroke="midnightblue" d="M400.172,-149.816C420.164,-144.54 443.219,-138.456 461.924,-133.52"/>
<polygon fill="midnightblue" stroke="midnightblue" points="399.113,-146.475 390.337,-152.411 400.899,-153.244 399.113,-146.475"/>
</g>
<!-- Node10 -->
<g id="node10" class="node"><title>Node10</title>
<g id="a_node10"><a xlink:href="a00356.html#ga530538c4c975524cf0b771a550fc94a3" target="_top" xlink:title="Send a commit request. ">
<polygon fill="white" stroke="black" points="446.5,-76.5 446.5,-95.5 551.5,-95.5 551.5,-76.5 446.5,-76.5"/>
<text text-anchor="middle" x="499" y="-83.5" font-family="Helvetica,sans-Serif" font-size="10.00">tds_submit_commit</text>
</a>
</g>
</g>
<!-- Node3&#45;&gt;Node10 -->
<g id="edge10" class="edge"><title>Node3&#45;&gt;Node10</title>
<path fill="none" stroke="midnightblue" d="M374.101,-145.898C390.513,-133.375 414.718,-116.288 438,-105 445.472,-101.377 453.796,-98.2309 461.807,-95.5975"/>
<polygon fill="midnightblue" stroke="midnightblue" points="371.588,-143.419 365.841,-152.32 375.884,-148.946 371.588,-143.419"/>
</g>
<!-- Node11 -->
<g id="node11" class="node"><title>Node11</title>
<g id="a_node11"><a xlink:href="a00193.html#a8208eef2a3974ae1f0cf3c8c8ab011ce" target="_top" xlink:title="Start sending BCP data to server. ">
<polygon fill="white" stroke="red" points="459,-38.5 459,-57.5 539,-57.5 539,-38.5 459,-38.5"/>
<text text-anchor="middle" x="499" y="-45.5" font-family="Helvetica,sans-Serif" font-size="10.00">tds_bcp_start</text>
</a>
</g>
</g>
<!-- Node3&#45;&gt;Node11 -->
<g id="edge11" class="edge"><title>Node3&#45;&gt;Node11</title>
<path fill="none" stroke="midnightblue" d="M365.483,-143.898C379.922,-122.548 406.652,-87.3917 438,-67 444.32,-62.889 451.592,-59.6138 458.843,-57.0224"/>
<polygon fill="midnightblue" stroke="midnightblue" points="362.477,-142.098 359.905,-152.376 368.325,-145.946 362.477,-142.098"/>
</g>
<!-- Node12 -->
<g id="node12" class="node"><title>Node12</title>
<g id="a_node12"><a xlink:href="a00359.html#ga55f27c3e05d42c9b07ace1c74b11c5ab" target="_top" xlink:title="Retrieve and set @spid. ">
<polygon fill="white" stroke="red" points="460.5,-0.5 460.5,-19.5 537.5,-19.5 537.5,-0.5 460.5,-0.5"/>
<text text-anchor="middle" x="499" y="-7.5" font-family="Helvetica,sans-Serif" font-size="10.00">tds_set_spid</text>
</a>
</g>
</g>
<!-- Node3&#45;&gt;Node12 -->
<g id="edge12" class="edge"><title>Node3&#45;&gt;Node12</title>
<path fill="none" stroke="midnightblue" d="M361.023,-142.971C372.628,-114.12 398.52,-59.456 438,-29 444.575,-23.9278 452.534,-20.1927 460.476,-17.4477"/>
<polygon fill="midnightblue" stroke="midnightblue" points="357.742,-141.75 357.395,-152.339 364.27,-144.278 357.742,-141.75"/>
</g>
<!-- Node6&#45;&gt;Node4 -->
<g id="edge6" class="edge"><title>Node6&#45;&gt;Node4</title>
<path fill="none" stroke="midnightblue" d="M544.795,-250.246C563.955,-255.484 585.994,-261.509 603.936,-266.414"/>
<polygon fill="midnightblue" stroke="midnightblue" points="545.645,-246.85 535.076,-247.589 543.799,-253.602 545.645,-246.85"/>
</g>
<!-- Node16 -->
<g id="node16" class="node"><title>Node16</title>
<g id="a_node16"><a xlink:href="a00342.html#gafa4dfd181be21e49c397f7daaa9cf96c" target="_top" xlink:title="Execute the procedure and free associated memory. ">
<polygon fill="white" stroke="black" points="320,-38.5 320,-57.5 386,-57.5 386,-38.5 320,-38.5"/>
<text text-anchor="middle" x="353" y="-45.5" font-family="Helvetica,sans-Serif" font-size="10.00">dbrpcsend</text>
</a>
</g>
</g>
<!-- Node15&#45;&gt;Node16 -->
<g id="edge16" class="edge"><title>Node15&#45;&gt;Node16</title>
<path fill="none" stroke="midnightblue" d="M251.765,-48C274.389,-48 300.087,-48 319.798,-48"/>
<polygon fill="midnightblue" stroke="midnightblue" points="251.619,-44.5001 241.619,-48 251.619,-51.5001 251.619,-44.5001"/>
</g>
</g>
</svg>
