<?xml version="1.0" encoding="UTF-8" standalone="no"?>
<!DOCTYPE svg PUBLIC "-//W3C//DTD SVG 1.1//EN"
 "http://www.w3.org/Graphics/SVG/1.1/DTD/svg11.dtd">
<!-- Generated by graphviz version 2.38.0 (20140413.2041)
 -->
<!-- Title: dbprrow Pages: 1 -->
<svg width="567pt" height="646pt"
 viewBox="0.00 0.00 567.00 645.77" xmlns="http://www.w3.org/2000/svg" xmlns:xlink="http://www.w3.org/1999/xlink">
<g id="graph0" class="graph" transform="scale(1 1) rotate(0) translate(4 641.766)">
<title>dbprrow</title>
<polygon fill="white" stroke="none" points="-4,4 -4,-641.766 563,-641.766 563,4 -4,4"/>
<!-- Node1 -->
<g id="node1" class="node"><title>Node1</title>
<polygon fill="#bfbfbf" stroke="black" points="0,-285.5 0,-304.5 55,-304.5 55,-285.5 0,-285.5"/>
<text text-anchor="middle" x="27.5" y="-292.5" font-family="Helvetica,sans-Serif" font-size="10.00">dbprrow</text>
</g>
<!-- Node2 -->
<g id="node2" class="node"><title>Node2</title>
<g id="a_node2"><a xlink:href="a00193.html#ab45c291105027e69836002e1dd586141" target="_top" xlink:title="Write a message to the debug log. ">
<polygon fill="white" stroke="black" points="482,-285.5 482,-304.5 559,-304.5 559,-285.5 482,-285.5"/>
<text text-anchor="middle" x="520.5" y="-292.5" font-family="Helvetica,sans-Serif" font-size="10.00">tdsdump_log</text>
</a>
</g>
</g>
<!-- Node1&#45;&gt;Node2 -->
<g id="edge1" class="edge"><title>Node1&#45;&gt;Node2</title>
<path fill="none" stroke="midnightblue" d="M28.1921,-304.801C27.6363,-339.676 30.4261,-459.226 91,-526 198.228,-644.203 319.845,-677.748 446,-580 488.696,-546.918 510.998,-374.118 517.473,-314.92"/>
<polygon fill="midnightblue" stroke="midnightblue" points="520.986,-314.983 518.558,-304.67 514.025,-314.246 520.986,-314.983"/>
</g>
<!-- Node3 -->
<g id="node3" class="node"><title>Node3</title>
<g id="a_node3"><a xlink:href="a00347.html#ga302a4ce6559b81808e3be51615cd1b67" target="_top" xlink:title="Call client&#45;installed error handler. ">
<polygon fill="white" stroke="black" points="385.5,-475.5 385.5,-494.5 442.5,-494.5 442.5,-475.5 385.5,-475.5"/>
<text text-anchor="middle" x="414" y="-482.5" font-family="Helvetica,sans-Serif" font-size="10.00">dbperror</text>
</a>
</g>
</g>
<!-- Node1&#45;&gt;Node3 -->
<g id="edge2" class="edge"><title>Node1&#45;&gt;Node3</title>
<path fill="none" stroke="midnightblue" d="M30.1142,-304.782C34.8855,-330.927 51.1619,-403.396 91,-447 131.225,-491.028 152.075,-494.815 210,-509 268.71,-523.377 286.447,-519.344 346,-509 358.334,-506.858 371.4,-502.652 382.687,-498.351"/>
<polygon fill="midnightblue" stroke="midnightblue" points="384.096,-501.557 392.084,-494.597 381.499,-495.057 384.096,-501.557"/>
</g>
<!-- Node4 -->
<g id="node4" class="node"><title>Node4</title>
<g id="a_node4"><a xlink:href="a00193.html#ae7f4c4d5f7352f1c814284c536659e6f" target="_top" xlink:title="Return type suitable for conversions (convert all nullable types to fixed type) ">
<polygon fill="white" stroke="black" points="210,-228.5 210,-247.5 346,-247.5 346,-228.5 210,-228.5"/>
<text text-anchor="middle" x="278" y="-235.5" font-family="Helvetica,sans-Serif" font-size="10.00">tds_get_conversion_type</text>
</a>
</g>
</g>
<!-- Node1&#45;&gt;Node4 -->
<g id="edge4" class="edge"><title>Node1&#45;&gt;Node4</title>
<path fill="none" stroke="midnightblue" d="M43.2426,-285.266C55.5048,-277.661 73.6893,-267.489 91,-262 125.737,-250.985 165.652,-245.015 199.578,-241.783"/>
<polygon fill="midnightblue" stroke="midnightblue" points="200.251,-245.237 209.902,-240.865 199.631,-238.264 200.251,-245.237"/>
</g>
<!-- Node5 -->
<g id="node5" class="node"><title>Node5</title>
<g id="a_node5"><a xlink:href="a00353.html#ga883855e6e3793de6684b21db39c756c4" target="_top" xlink:title="Convert from db date format to a structured date format. ">
<polygon fill="white" stroke="black" points="91,-418.5 91,-437.5 174,-437.5 174,-418.5 91,-418.5"/>
<text text-anchor="middle" x="132.5" y="-425.5" font-family="Helvetica,sans-Serif" font-size="10.00">tds_datecrack</text>
</a>
</g>
</g>
<!-- Node1&#45;&gt;Node5 -->
<g id="edge5" class="edge"><title>Node1&#45;&gt;Node5</title>
<path fill="none" stroke="midnightblue" d="M31.4397,-304.543C38.4561,-325.9 58.0928,-378.098 91,-409 92.4862,-410.396 94.0934,-411.705 95.7812,-412.931"/>
<polygon fill="midnightblue" stroke="midnightblue" points="94.3458,-416.155 104.705,-418.379 97.9935,-410.18 94.3458,-416.155"/>
</g>
<!-- Node6 -->
<g id="node6" class="node"><title>Node6</title>
<g id="a_node6"><a xlink:href="a00341.html#gaee60c306a22383805a4b9caa647a1e16" target="_top" xlink:title="Get address of data in a regular result column. ">
<polygon fill="white" stroke="black" points="389.5,-551.5 389.5,-570.5 438.5,-570.5 438.5,-551.5 389.5,-551.5"/>
<text text-anchor="middle" x="414" y="-558.5" font-family="Helvetica,sans-Serif" font-size="10.00">dbdata</text>
</a>
</g>
</g>
<!-- Node1&#45;&gt;Node6 -->
<g id="edge6" class="edge"><title>Node1&#45;&gt;Node6</title>
<path fill="none" stroke="midnightblue" d="M28.732,-304.504C30.0035,-335.343 38.2089,-433.701 91,-487 169.194,-565.945 313.425,-567.787 378.979,-564.01"/>
<polygon fill="midnightblue" stroke="midnightblue" points="379.422,-567.488 389.171,-563.339 378.963,-560.503 379.422,-567.488"/>
</g>
<!-- Node7 -->
<g id="node7" class="node"><title>Node7</title>
<g id="a_node7"><a xlink:href="a00353.html#ga8c9652e8b1f3e56a3289fd71b12cee1d" target="_top" xlink:title="format a date string according to an &quot;extended&quot; strftime(3) formatting definition. ">
<polygon fill="white" stroke="black" points="97,-342.5 97,-361.5 168,-361.5 168,-342.5 97,-342.5"/>
<text text-anchor="middle" x="132.5" y="-349.5" font-family="Helvetica,sans-Serif" font-size="10.00">tds_strftime</text>
</a>
</g>
</g>
<!-- Node1&#45;&gt;Node7 -->
<g id="edge8" class="edge"><title>Node1&#45;&gt;Node7</title>
<path fill="none" stroke="midnightblue" d="M45.9725,-304.669C62.2737,-313.69 86.8076,-327.267 105.424,-337.57"/>
<polygon fill="midnightblue" stroke="midnightblue" points="103.841,-340.694 114.285,-342.474 107.231,-334.569 103.841,-340.694"/>
</g>
<!-- Node8 -->
<g id="node8" class="node"><title>Node8</title>
<g id="a_node8"><a xlink:href="a00341.html#ga32eb72f6fb3edb130e59fb3dd0766e7e" target="_top" xlink:title="Convert one datatype to another. ">
<polygon fill="white" stroke="black" points="101,-380.5 101,-399.5 164,-399.5 164,-380.5 101,-380.5"/>
<text text-anchor="middle" x="132.5" y="-387.5" font-family="Helvetica,sans-Serif" font-size="10.00">dbconvert</text>
</a>
</g>
</g>
<!-- Node1&#45;&gt;Node8 -->
<g id="edge9" class="edge"><title>Node1&#45;&gt;Node8</title>
<path fill="none" stroke="midnightblue" d="M34.3357,-304.566C44.2857,-320.218 65.9103,-351.503 91,-371 93.0391,-372.585 95.2317,-374.078 97.5036,-375.477"/>
<polygon fill="midnightblue" stroke="midnightblue" points="96.049,-378.671 106.502,-380.401 99.4093,-372.53 96.049,-378.671"/>
</g>
<!-- Node12 -->
<g id="node12" class="node"><title>Node12</title>
<g id="a_node12"><a xlink:href="a00341.html#gae666d141533126babb0235af21bdca0f" target="_top" xlink:title="Get size of current row&#39;s data in a regular result column. ">
<polygon fill="white" stroke="black" points="385.5,-304.5 385.5,-323.5 442.5,-323.5 442.5,-304.5 385.5,-304.5"/>
<text text-anchor="middle" x="414" y="-311.5" font-family="Helvetica,sans-Serif" font-size="10.00">dbdatlen</text>
</a>
</g>
</g>
<!-- Node1&#45;&gt;Node12 -->
<g id="edge17" class="edge"><title>Node1&#45;&gt;Node12</title>
<path fill="none" stroke="midnightblue" d="M55.232,-296.321C122.246,-299.632 297.571,-308.296 375.142,-312.129"/>
<polygon fill="midnightblue" stroke="midnightblue" points="375.257,-315.639 385.418,-312.637 375.603,-308.648 375.257,-315.639"/>
</g>
<!-- Node13 -->
<g id="node13" class="node"><title>Node13</title>
<g id="a_node13"><a xlink:href="a00341.html#ga67934deac3bebbf8238eff8c0559389a" target="_top" xlink:title="Get count of columns in a compute row. ">
<polygon fill="white" stroke="black" points="382,-266.5 382,-285.5 446,-285.5 446,-266.5 382,-266.5"/>
<text text-anchor="middle" x="414" y="-273.5" font-family="Helvetica,sans-Serif" font-size="10.00">dbnumalts</text>
</a>
</g>
</g>
<!-- Node1&#45;&gt;Node13 -->
<g id="edge19" class="edge"><title>Node1&#45;&gt;Node13</title>
<path fill="none" stroke="midnightblue" d="M55.232,-293.679C121.323,-290.413 292.765,-281.941 371.884,-278.032"/>
<polygon fill="midnightblue" stroke="midnightblue" points="372.15,-281.523 381.965,-277.534 371.804,-274.532 372.15,-281.523"/>
</g>
<!-- Node14 -->
<g id="node14" class="node"><title>Node14</title>
<g id="a_node14"><a xlink:href="a00341.html#gad10c9fd75a86c7a0ac375937df0e90a6" target="_top" xlink:title="Get column ID of a compute column. ">
<polygon fill="white" stroke="black" points="383.5,-152.5 383.5,-171.5 444.5,-171.5 444.5,-152.5 383.5,-152.5"/>
<text text-anchor="middle" x="414" y="-159.5" font-family="Helvetica,sans-Serif" font-size="10.00">dbaltcolid</text>
</a>
</g>
</g>
<!-- Node1&#45;&gt;Node14 -->
<g id="edge21" class="edge"><title>Node1&#45;&gt;Node14</title>
<path fill="none" stroke="midnightblue" d="M30.5265,-285.177C35.8318,-262.263 52.4709,-205.377 91,-181 136.875,-151.974 297.955,-156.016 373.426,-159.686"/>
<polygon fill="midnightblue" stroke="midnightblue" points="373.321,-163.185 383.486,-160.198 373.677,-156.194 373.321,-163.185"/>
</g>
<!-- Node15 -->
<g id="node15" class="node"><title>Node15</title>
<g id="a_node15"><a xlink:href="a00341.html#ga947837a5c8fd99898c043435945b668c" target="_top" xlink:title="Get aggregation operator for a compute column. ">
<polygon fill="white" stroke="black" points="252.5,-114.5 252.5,-133.5 303.5,-133.5 303.5,-114.5 252.5,-114.5"/>
<text text-anchor="middle" x="278" y="-121.5" font-family="Helvetica,sans-Serif" font-size="10.00">dbaltop</text>
</a>
</g>
</g>
<!-- Node1&#45;&gt;Node15 -->
<g id="edge23" class="edge"><title>Node1&#45;&gt;Node15</title>
<path fill="none" stroke="midnightblue" d="M29.3756,-285.495C32.3817,-258.833 44.8088,-183.009 91,-148 134.829,-114.781 201.792,-114.95 242.282,-118.909"/>
<polygon fill="midnightblue" stroke="midnightblue" points="242.142,-122.415 252.467,-120.04 242.915,-115.458 242.142,-122.415"/>
</g>
<!-- Node16 -->
<g id="node16" class="node"><title>Node16</title>
<g id="a_node16"><a xlink:href="a00341.html#gac25ae21ca19777ffab1c013bd6049ebf" target="_top" xlink:title="Print a token value&#39;s name to a buffer. ">
<polygon fill="white" stroke="black" points="103.5,-76.5 103.5,-95.5 161.5,-95.5 161.5,-76.5 103.5,-76.5"/>
<text text-anchor="middle" x="132.5" y="-83.5" font-family="Helvetica,sans-Serif" font-size="10.00">dbprtype</text>
</a>
</g>
</g>
<!-- Node1&#45;&gt;Node16 -->
<g id="edge25" class="edge"><title>Node1&#45;&gt;Node16</title>
<path fill="none" stroke="midnightblue" d="M29.3952,-285.433C32.5876,-256.069 45.7622,-165.848 91,-110 93.5883,-106.805 96.7235,-103.938 100.091,-101.395"/>
<polygon fill="midnightblue" stroke="midnightblue" points="102.3,-104.133 108.759,-95.7352 98.4726,-98.2716 102.3,-104.133"/>
</g>
<!-- Node18 -->
<g id="node18" class="node"><title>Node18</title>
<g id="a_node18"><a xlink:href="a00341.html#gaa85171e020dc606f2bd3395ad1d3ab4f" target="_top" xlink:title="Get datatype for a compute column. ">
<polygon fill="white" stroke="black" points="103,-190.5 103,-209.5 162,-209.5 162,-190.5 103,-190.5"/>
<text text-anchor="middle" x="132.5" y="-197.5" font-family="Helvetica,sans-Serif" font-size="10.00">dbalttype</text>
</a>
</g>
</g>
<!-- Node1&#45;&gt;Node18 -->
<g id="edge28" class="edge"><title>Node1&#45;&gt;Node18</title>
<path fill="none" stroke="midnightblue" d="M35.379,-285.412C46.1059,-270.911 67.9867,-243.07 91,-224 94.8861,-220.78 99.2538,-217.717 103.645,-214.922"/>
<polygon fill="midnightblue" stroke="midnightblue" points="105.758,-217.737 112.543,-209.599 102.165,-211.729 105.758,-217.737"/>
</g>
<!-- Node19 -->
<g id="node19" class="node"><title>Node19</title>
<g id="a_node19"><a xlink:href="a00341.html#gabcc14a1ca58b65bc46cce6c81c45218c" target="_top" xlink:title="Get address of compute column data. ">
<polygon fill="white" stroke="black" points="386.5,-0.5 386.5,-19.5 441.5,-19.5 441.5,-0.5 386.5,-0.5"/>
<text text-anchor="middle" x="414" y="-7.5" font-family="Helvetica,sans-Serif" font-size="10.00">dbadata</text>
</a>
</g>
</g>
<!-- Node1&#45;&gt;Node19 -->
<g id="edge31" class="edge"><title>Node1&#45;&gt;Node19</title>
<path fill="none" stroke="midnightblue" d="M29.7691,-285.362C35.1567,-245.942 57.4086,-97.6243 91,-67 170.88,5.82451 310.058,1.85282 376.141,-4.96456"/>
<polygon fill="midnightblue" stroke="midnightblue" points="376.149,-8.48703 386.475,-6.11683 376.924,-1.53014 376.149,-8.48703"/>
</g>
<!-- Node3&#45;&gt;Node2 -->
<g id="edge3" class="edge"><title>Node3&#45;&gt;Node2</title>
<path fill="none" stroke="midnightblue" d="M422.606,-475.402C429.187,-466.883 438.758,-453.968 446,-442 472.837,-397.646 498.603,-342.206 511.3,-313.757"/>
<polygon fill="midnightblue" stroke="midnightblue" points="514.52,-315.128 515.364,-304.567 508.118,-312.297 514.52,-315.128"/>
</g>
<!-- Node6&#45;&gt;Node2 -->
<g id="edge7" class="edge"><title>Node6&#45;&gt;Node2</title>
<path fill="none" stroke="midnightblue" d="M420.985,-551.155C427.626,-539.982 438.407,-521.088 446,-504 476.136,-436.178 502.599,-351.862 513.805,-314.445"/>
<polygon fill="midnightblue" stroke="midnightblue" points="517.179,-315.378 516.667,-304.796 510.468,-313.388 517.179,-315.378"/>
</g>
<!-- Node8&#45;&gt;Node2 -->
<g id="edge10" class="edge"><title>Node8&#45;&gt;Node2</title>
<path fill="none" stroke="midnightblue" d="M164.174,-389.876C205.855,-389.117 282.471,-385.618 346,-371 392.334,-360.339 402.59,-352.394 446,-333 461.985,-325.859 479.408,-316.904 493.277,-309.482"/>
<polygon fill="midnightblue" stroke="midnightblue" points="495.119,-312.465 502.25,-304.629 491.789,-306.308 495.119,-312.465"/>
</g>
<!-- Node8&#45;&gt;Node3 -->
<g id="edge15" class="edge"><title>Node8&#45;&gt;Node3</title>
<path fill="none" stroke="midnightblue" d="M160.892,-399.66C165.647,-402.185 170.259,-405.273 174,-409 200.478,-435.379 178.417,-465.013 210,-485 260.04,-516.667 331.847,-506.764 375.288,-496.218"/>
<polygon fill="midnightblue" stroke="midnightblue" points="376.343,-499.561 385.163,-493.691 374.608,-492.78 376.343,-499.561"/>
</g>
<!-- Node9 -->
<g id="node9" class="node"><title>Node9</title>
<g id="a_node9"><a xlink:href="a00193.html#aa70b02ff34ac03040ca41f13d5fd35bd" target="_top" xlink:title="Return the number of bytes needed by specified type. ">
<polygon fill="white" stroke="black" points="218.5,-342.5 218.5,-361.5 337.5,-361.5 337.5,-342.5 218.5,-342.5"/>
<text text-anchor="middle" x="278" y="-349.5" font-family="Helvetica,sans-Serif" font-size="10.00">tds_get_size_by_type</text>
</a>
</g>
</g>
<!-- Node8&#45;&gt;Node9 -->
<g id="edge11" class="edge"><title>Node8&#45;&gt;Node9</title>
<path fill="none" stroke="midnightblue" d="M164.284,-381.848C183.781,-376.685 209.346,-369.915 231.2,-364.128"/>
<polygon fill="midnightblue" stroke="midnightblue" points="232.174,-367.491 240.944,-361.548 230.382,-360.724 232.174,-367.491"/>
</g>
<!-- Node10 -->
<g id="node10" class="node"><title>Node10</title>
<g id="a_node10"><a xlink:href="a00235.html#aea6a865806d454280126de940478c214" target="_top" xlink:title="dbgetnull">
<polygon fill="white" stroke="black" points="248.5,-418.5 248.5,-437.5 307.5,-437.5 307.5,-418.5 248.5,-418.5"/>
<text text-anchor="middle" x="278" y="-425.5" font-family="Helvetica,sans-Serif" font-size="10.00">dbgetnull</text>
</a>
</g>
</g>
<!-- Node8&#45;&gt;Node10 -->
<g id="edge12" class="edge"><title>Node8&#45;&gt;Node10</title>
<path fill="none" stroke="midnightblue" d="M164.284,-398.152C185.949,-403.889 215.108,-411.61 238.34,-417.762"/>
<polygon fill="midnightblue" stroke="midnightblue" points="237.658,-421.202 248.221,-420.379 239.45,-414.436 237.658,-421.202"/>
</g>
<!-- Node11 -->
<g id="node11" class="node"><title>Node11</title>
<g id="a_node11"><a xlink:href="a00353.html#gaa865e08f7ad70ef92b111c2ea3657457" target="_top" xlink:title="tds_convert convert a type to another. ">
<polygon fill="white" stroke="black" points="242,-456.5 242,-475.5 314,-475.5 314,-456.5 242,-456.5"/>
<text text-anchor="middle" x="278" y="-463.5" font-family="Helvetica,sans-Serif" font-size="10.00">tds_convert</text>
</a>
</g>
</g>
<!-- Node8&#45;&gt;Node11 -->
<g id="edge16" class="edge"><title>Node8&#45;&gt;Node11</title>
<path fill="none" stroke="midnightblue" d="M157.889,-399.639C163.411,-402.303 169.089,-405.453 174,-409 192.859,-422.622 190.098,-434.952 210,-447 216.763,-451.094 224.443,-454.337 232.13,-456.895"/>
<polygon fill="midnightblue" stroke="midnightblue" points="231.218,-460.276 241.801,-459.783 233.22,-453.568 231.218,-460.276"/>
</g>
<!-- Node10&#45;&gt;Node2 -->
<g id="edge13" class="edge"><title>Node10&#45;&gt;Node2</title>
<path fill="none" stroke="midnightblue" d="M307.663,-430.605C342.957,-432.39 403.442,-430.689 446,-404 480.007,-382.673 501.979,-339.203 512.401,-314.082"/>
<polygon fill="midnightblue" stroke="midnightblue" points="515.745,-315.143 516.162,-304.557 509.234,-312.572 515.745,-315.143"/>
</g>
<!-- Node10&#45;&gt;Node3 -->
<g id="edge14" class="edge"><title>Node10&#45;&gt;Node3</title>
<path fill="none" stroke="midnightblue" d="M307.547,-434.483C319.634,-437.639 333.73,-441.868 346,-447 361.288,-453.394 377.475,-462.502 390.108,-470.198"/>
<polygon fill="midnightblue" stroke="midnightblue" points="388.276,-473.18 398.615,-475.494 391.975,-467.238 388.276,-473.18"/>
</g>
<!-- Node12&#45;&gt;Node2 -->
<g id="edge18" class="edge"><title>Node12&#45;&gt;Node2</title>
<path fill="none" stroke="midnightblue" d="M442.73,-308.958C451.709,-307.326 461.938,-305.466 471.936,-303.648"/>
<polygon fill="midnightblue" stroke="midnightblue" points="472.589,-307.087 481.802,-301.854 471.337,-300.2 472.589,-307.087"/>
</g>
<!-- Node13&#45;&gt;Node2 -->
<g id="edge20" class="edge"><title>Node13&#45;&gt;Node2</title>
<path fill="none" stroke="midnightblue" d="M446.071,-281.649C454.114,-283.112 462.963,-284.72 471.649,-286.3"/>
<polygon fill="midnightblue" stroke="midnightblue" points="471.247,-289.784 481.712,-288.129 472.499,-282.897 471.247,-289.784"/>
</g>
<!-- Node14&#45;&gt;Node2 -->
<g id="edge22" class="edge"><title>Node14&#45;&gt;Node2</title>
<path fill="none" stroke="midnightblue" d="M429.377,-171.64C434.906,-175.714 441.068,-180.734 446,-186 472.637,-214.443 496.437,-253.43 509.335,-276.245"/>
<polygon fill="midnightblue" stroke="midnightblue" points="506.406,-278.18 514.319,-285.225 512.527,-274.783 506.406,-278.18"/>
</g>
<!-- Node15&#45;&gt;Node2 -->
<g id="edge24" class="edge"><title>Node15&#45;&gt;Node2</title>
<path fill="none" stroke="midnightblue" d="M303.673,-119.922C338.722,-115.535 403.393,-112.786 446,-143 491.112,-174.991 509.652,-242.389 516.283,-275.627"/>
<polygon fill="midnightblue" stroke="midnightblue" points="512.846,-276.288 518.097,-285.49 519.731,-275.021 512.846,-276.288"/>
</g>
<!-- Node16&#45;&gt;Node2 -->
<g id="edge26" class="edge"><title>Node16&#45;&gt;Node2</title>
<path fill="none" stroke="midnightblue" d="M161.53,-77.2987C175.872,-73.2933 193.7,-68.9939 210,-67 316.244,-54.0037 372.612,-37.0831 446,-115 490.273,-162.005 509.421,-239.27 516.272,-275.325"/>
<polygon fill="midnightblue" stroke="midnightblue" points="512.883,-276.26 518.081,-285.492 519.775,-275.034 512.883,-276.26"/>
</g>
<!-- Node17 -->
<g id="node17" class="node"><title>Node17</title>
<g id="a_node17"><a xlink:href="a00359.html#ga0cf7e719115b0ae476753442d10505ab" target="_top" xlink:title="Returns string representation of the given type. ">
<polygon fill="white" stroke="black" points="244.5,-76.5 244.5,-95.5 311.5,-95.5 311.5,-76.5 244.5,-76.5"/>
<text text-anchor="middle" x="278" y="-83.5" font-family="Helvetica,sans-Serif" font-size="10.00">tds_prtype</text>
</a>
</g>
</g>
<!-- Node16&#45;&gt;Node17 -->
<g id="edge27" class="edge"><title>Node16&#45;&gt;Node17</title>
<path fill="none" stroke="midnightblue" d="M161.509,-86C182.185,-86 210.696,-86 234.217,-86"/>
<polygon fill="midnightblue" stroke="midnightblue" points="234.29,-89.5001 244.29,-86 234.29,-82.5001 234.29,-89.5001"/>
</g>
<!-- Node18&#45;&gt;Node2 -->
<g id="edge29" class="edge"><title>Node18&#45;&gt;Node2</title>
<path fill="none" stroke="midnightblue" d="M162.073,-200.088C203.239,-200.767 281.388,-204.133 346,-219 392.334,-229.661 402.59,-237.606 446,-257 461.985,-264.141 479.408,-273.096 493.277,-280.518"/>
<polygon fill="midnightblue" stroke="midnightblue" points="491.789,-283.692 502.25,-285.371 495.119,-277.535 491.789,-283.692"/>
</g>
<!-- Node18&#45;&gt;Node4 -->
<g id="edge30" class="edge"><title>Node18&#45;&gt;Node4</title>
<path fill="none" stroke="midnightblue" d="M162.194,-207.599C181.93,-212.825 208.562,-219.877 231.207,-225.874"/>
<polygon fill="midnightblue" stroke="midnightblue" points="230.4,-229.281 240.963,-228.457 232.192,-222.514 230.4,-229.281"/>
</g>
<!-- Node19&#45;&gt;Node2 -->
<g id="edge32" class="edge"><title>Node19&#45;&gt;Node2</title>
<path fill="none" stroke="midnightblue" d="M431.266,-19.5879C436.632,-23.4601 442.195,-28.3566 446,-34 498.89,-112.441 514.036,-228.573 518.103,-274.877"/>
<polygon fill="midnightblue" stroke="midnightblue" points="514.633,-275.388 518.915,-285.079 521.611,-274.833 514.633,-275.388"/>
</g>
</g>
</svg>
