<?xml version="1.0" encoding="UTF-8" standalone="no"?>
<!DOCTYPE svg PUBLIC "-//W3C//DTD SVG 1.1//EN"
 "http://www.w3.org/Graphics/SVG/1.1/DTD/svg11.dtd">
<!-- Generated by graphviz version 2.38.0 (20140413.2041)
 -->
<!-- Title: tds_submit_query Pages: 1 -->
<svg width="1102pt" height="610pt"
 viewBox="0.00 0.00 1102.00 610.00" xmlns="http://www.w3.org/2000/svg" xmlns:xlink="http://www.w3.org/1999/xlink">
<g id="graph0" class="graph" transform="scale(1 1) rotate(0) translate(4 606)">
<title>tds_submit_query</title>
<polygon fill="white" stroke="none" points="-4,4 -4,-606 1098,-606 1098,4 -4,4"/>
<!-- Node1 -->
<g id="node1" class="node"><title>Node1</title>
<polygon fill="#bfbfbf" stroke="black" points="0,-316.5 0,-335.5 98,-335.5 98,-316.5 0,-316.5"/>
<text text-anchor="middle" x="49" y="-323.5" font-family="Helvetica,sans-Serif" font-size="10.00">tds_submit_query</text>
</g>
<!-- Node2 -->
<g id="node2" class="node"><title>Node2</title>
<g id="a_node2"><a xlink:href="a00356.html#ga95e0fccedc459a4404f496eec74a369a" target="_top" xlink:title="tds_submit_query_params() sends a language string to the database server for processing. ">
<polygon fill="white" stroke="black" points="134,-316.5 134,-335.5 274,-335.5 274,-316.5 134,-316.5"/>
<text text-anchor="middle" x="204" y="-323.5" font-family="Helvetica,sans-Serif" font-size="10.00">tds_submit_query_params</text>
</a>
</g>
</g>
<!-- Node1&#45;&gt;Node2 -->
<g id="edge1" class="edge"><title>Node1&#45;&gt;Node2</title>
<path fill="none" stroke="midnightblue" d="M98.4102,-326C106.527,-326 115.135,-326 123.788,-326"/>
<polygon fill="midnightblue" stroke="midnightblue" points="123.942,-329.5 133.942,-326 123.942,-322.5 123.942,-329.5"/>
</g>
<!-- Node3 -->
<g id="node3" class="node"><title>Node3</title>
<g id="a_node3"><a xlink:href="a00193.html#a16db200d2281f76fe46fc1cbe37ca9df" target="_top" xlink:title="Set state of TDS connection, with logging and checking. ">
<polygon fill="white" stroke="black" points="527.5,-544.5 527.5,-563.5 607.5,-563.5 607.5,-544.5 527.5,-544.5"/>
<text text-anchor="middle" x="567.5" y="-551.5" font-family="Helvetica,sans-Serif" font-size="10.00">tds_set_state</text>
</a>
</g>
</g>
<!-- Node2&#45;&gt;Node3 -->
<g id="edge2" class="edge"><title>Node2&#45;&gt;Node3</title>
<path fill="none" stroke="midnightblue" d="M206.469,-335.663C212.24,-369.901 236.761,-486.006 310,-535 371.843,-576.371 461.849,-571.935 517.155,-563.796"/>
<polygon fill="midnightblue" stroke="midnightblue" points="517.726,-567.249 527.064,-562.243 516.643,-560.334 517.726,-567.249"/>
</g>
<!-- Node6 -->
<g id="node6" class="node"><title>Node6</title>
<g id="a_node6"><a xlink:href="a00356.html#ga6455b2991afbf7da90270787f2059d31" target="_top" xlink:title="Get position of next placeholder. ">
<polygon fill="white" stroke="black" points="508,-38.5 508,-57.5 627,-57.5 627,-38.5 508,-38.5"/>
<text text-anchor="middle" x="567.5" y="-45.5" font-family="Helvetica,sans-Serif" font-size="10.00">tds_next_placeholder</text>
</a>
</g>
</g>
<!-- Node2&#45;&gt;Node6 -->
<g id="edge6" class="edge"><title>Node2&#45;&gt;Node6</title>
<path fill="none" stroke="midnightblue" d="M207.472,-316.29C215.986,-284.803 247.093,-184.532 310,-132 341.494,-105.7 449.94,-76.0718 515.312,-59.9777"/>
<polygon fill="midnightblue" stroke="midnightblue" points="516.529,-63.2833 525.415,-57.5134 514.871,-56.4827 516.529,-63.2833"/>
</g>
<!-- Node9 -->
<g id="node9" class="node"><title>Node9</title>
<g id="a_node9"><a xlink:href="a00356.html#ga3a5d1771cacc947521c4077551f0d3a4" target="_top" xlink:title="Substitute ?&#45;style placeholders with named (@param) ones. ">
<polygon fill="white" stroke="black" points="330,-45.5 330,-64.5 437,-64.5 437,-45.5 330,-45.5"/>
<text text-anchor="middle" x="383.5" y="-52.5" font-family="Helvetica,sans-Serif" font-size="10.00">tds5_fix_dot_query</text>
</a>
</g>
</g>
<!-- Node2&#45;&gt;Node9 -->
<g id="edge9" class="edge"><title>Node2&#45;&gt;Node9</title>
<path fill="none" stroke="midnightblue" d="M206.6,-316.32C212.959,-280.764 239.601,-155.813 310,-86 317.363,-78.6983 326.716,-73.0035 336.238,-68.6039"/>
<polygon fill="midnightblue" stroke="midnightblue" points="337.873,-71.7136 345.747,-64.6246 335.171,-65.2561 337.873,-71.7136"/>
</g>
<!-- Node11 -->
<g id="node11" class="node"><title>Node11</title>
<g id="a_node11"><a xlink:href="a00356.html#ga28264995cf9616661f1fa788ac0d246d" target="_top" xlink:title="Send parameters to server. ">
<polygon fill="white" stroke="black" points="337.5,-430.5 337.5,-449.5 429.5,-449.5 429.5,-430.5 337.5,-430.5"/>
<text text-anchor="middle" x="383.5" y="-437.5" font-family="Helvetica,sans-Serif" font-size="10.00">tds_put_params</text>
</a>
</g>
</g>
<!-- Node2&#45;&gt;Node11 -->
<g id="edge12" class="edge"><title>Node2&#45;&gt;Node11</title>
<path fill="none" stroke="midnightblue" d="M213.617,-335.529C230.462,-353.63 269.653,-393.211 310,-416 317.717,-420.359 326.346,-424.077 334.886,-427.193"/>
<polygon fill="midnightblue" stroke="midnightblue" points="333.842,-430.535 344.437,-430.457 336.106,-423.911 333.842,-430.535"/>
</g>
<!-- Node13 -->
<g id="node13" class="node"><title>Node13</title>
<g id="a_node13"><a xlink:href="a00356.html#gafd74652c4722ddce4d642cc4209449d4" target="_top" xlink:title="Put data information to wire. ">
<polygon fill="white" stroke="black" points="517,-468.5 517,-487.5 618,-487.5 618,-468.5 517,-468.5"/>
<text text-anchor="middle" x="567.5" y="-475.5" font-family="Helvetica,sans-Serif" font-size="10.00">tds_put_data_info</text>
</a>
</g>
</g>
<!-- Node2&#45;&gt;Node13 -->
<g id="edge49" class="edge"><title>Node2&#45;&gt;Node13</title>
<path fill="none" stroke="midnightblue" d="M209.157,-335.613C220.76,-361.107 256.218,-430.436 310,-459 371.13,-491.467 452.274,-491.582 506.781,-486.62"/>
<polygon fill="midnightblue" stroke="midnightblue" points="507.372,-490.079 516.976,-485.605 506.678,-483.113 507.372,-490.079"/>
</g>
<!-- Node14 -->
<g id="node14" class="node"><title>Node14</title>
<g id="a_node14"><a xlink:href="a00356.html#ga024bc5482366735070befd6f4af59f71" target="_top" xlink:title="Convert a string in an allocated buffer. ">
<polygon fill="white" stroke="black" points="691,-468.5 691,-487.5 795,-487.5 795,-468.5 691,-468.5"/>
<text text-anchor="middle" x="743" y="-475.5" font-family="Helvetica,sans-Serif" font-size="10.00">tds_convert_string</text>
</a>
</g>
</g>
<!-- Node2&#45;&gt;Node14 -->
<g id="edge31" class="edge"><title>Node2&#45;&gt;Node14</title>
<path fill="none" stroke="midnightblue" d="M274.183,-335.262C286.127,-336.85 298.422,-338.478 310,-340 457.519,-359.388 507.656,-319.049 642,-383 679.437,-400.821 711.977,-437.993 729.12,-460.188"/>
<polygon fill="midnightblue" stroke="midnightblue" points="726.497,-462.524 735.301,-468.419 732.095,-458.321 726.497,-462.524"/>
</g>
<!-- Node16 -->
<g id="node16" class="node"><title>Node16</title>
<g id="a_node16"><a xlink:href="a00356.html#ga9fcc0a3932dcad530511395ef8a767fb" target="_top" xlink:title="Write data to wire. ">
<polygon fill="white" stroke="black" points="528.5,-392.5 528.5,-411.5 606.5,-411.5 606.5,-392.5 528.5,-392.5"/>
<text text-anchor="middle" x="567.5" y="-399.5" font-family="Helvetica,sans-Serif" font-size="10.00">tds_put_data</text>
</a>
</g>
</g>
<!-- Node2&#45;&gt;Node16 -->
<g id="edge50" class="edge"><title>Node2&#45;&gt;Node16</title>
<path fill="none" stroke="midnightblue" d="M219.937,-335.613C239.679,-347.786 275.95,-368.335 310,-378 380.443,-397.994 465.694,-402.231 518.001,-402.687"/>
<polygon fill="midnightblue" stroke="midnightblue" points="518.312,-406.188 528.327,-402.731 518.342,-399.188 518.312,-406.188"/>
</g>
<!-- Node17 -->
<g id="node17" class="node"><title>Node17</title>
<g id="a_node17"><a xlink:href="a00356.html#ga9ad2e6defce530a8778791cce0166ccd" target="_top" xlink:title="Start query packet of a given type. ">
<polygon fill="white" stroke="black" points="323.5,-506.5 323.5,-525.5 443.5,-525.5 443.5,-506.5 323.5,-506.5"/>
<text text-anchor="middle" x="383.5" y="-513.5" font-family="Helvetica,sans-Serif" font-size="10.00">tds_start_query_head</text>
</a>
</g>
</g>
<!-- Node2&#45;&gt;Node17 -->
<g id="edge21" class="edge"><title>Node2&#45;&gt;Node17</title>
<path fill="none" stroke="midnightblue" d="M208.486,-335.882C219.065,-364.452 253.57,-447.911 310,-492 315.405,-496.223 321.586,-499.719 328.01,-502.61"/>
<polygon fill="midnightblue" stroke="midnightblue" points="326.947,-505.955 337.531,-506.427 329.551,-499.457 326.947,-505.955"/>
</g>
<!-- Node18 -->
<g id="node18" class="node"><title>Node18</title>
<g id="a_node18"><a xlink:href="a00357.html#ga1fcaf8d488cc1390f106ce3ad0bf37b4" target="_top" xlink:title="Output a string to wire automatic translate string to unicode if needed. ">
<polygon fill="white" stroke="black" points="526,-316.5 526,-335.5 609,-335.5 609,-316.5 526,-316.5"/>
<text text-anchor="middle" x="567.5" y="-323.5" font-family="Helvetica,sans-Serif" font-size="10.00">tds_put_string</text>
</a>
</g>
</g>
<!-- Node2&#45;&gt;Node18 -->
<g id="edge24" class="edge"><title>Node2&#45;&gt;Node18</title>
<path fill="none" stroke="midnightblue" d="M274.273,-326C344.866,-326 452.678,-326 515.72,-326"/>
<polygon fill="midnightblue" stroke="midnightblue" points="515.819,-329.5 525.818,-326 515.818,-322.5 515.819,-329.5"/>
</g>
<!-- Node22 -->
<g id="node22" class="node"><title>Node22</title>
<g id="a_node22"><a xlink:href="a00356.html#ga0cd19215e9169ea299a6c9cbf5b2fb60" target="_top" xlink:title="Count number of placeholders (?) in a query. ">
<polygon fill="white" stroke="black" points="503,-229 503,-259 632,-259 632,-229 503,-229"/>
<text text-anchor="start" x="511" y="-247" font-family="Helvetica,sans-Serif" font-size="10.00">tds_count_placeholders</text>
<text text-anchor="middle" x="567.5" y="-236" font-family="Helvetica,sans-Serif" font-size="10.00">_ucs2le</text>
</a>
</g>
</g>
<!-- Node2&#45;&gt;Node22 -->
<g id="edge32" class="edge"><title>Node2&#45;&gt;Node22</title>
<path fill="none" stroke="midnightblue" d="M218.471,-316.362C237.725,-303.147 274.698,-279.814 310,-269 369.758,-250.694 440.672,-244.922 492.774,-243.456"/>
<polygon fill="midnightblue" stroke="midnightblue" points="493.02,-246.952 502.935,-243.218 492.856,-239.953 493.02,-246.952"/>
</g>
<!-- Node24 -->
<g id="node24" class="node"><title>Node24</title>
<g id="a_node24"><a xlink:href="a00356.html#gac8d5497c2d1b9fadb724111660bd03bd" target="_top" xlink:title="Return string with parameters definition, useful for TDS7+. ">
<polygon fill="white" stroke="black" points="323,-142 323,-172 444,-172 444,-142 323,-142"/>
<text text-anchor="start" x="331" y="-160" font-family="Helvetica,sans-Serif" font-size="10.00">tds7_build_param_def</text>
<text text-anchor="middle" x="383.5" y="-149" font-family="Helvetica,sans-Serif" font-size="10.00">_from_params</text>
</a>
</g>
</g>
<!-- Node2&#45;&gt;Node24 -->
<g id="edge34" class="edge"><title>Node2&#45;&gt;Node24</title>
<path fill="none" stroke="midnightblue" d="M209.362,-316.273C221.475,-290.352 258.085,-219.001 310,-181 312.059,-179.492 314.219,-178.076 316.452,-176.745"/>
<polygon fill="midnightblue" stroke="midnightblue" points="318.17,-179.796 325.374,-172.028 314.898,-173.608 318.17,-179.796"/>
</g>
<!-- Node27 -->
<g id="node27" class="node"><title>Node27</title>
<g id="a_node27"><a xlink:href="a00356.html#gab775332d378c7fe083750d624441b303" target="_top" xlink:title="Return string with parameters definition, useful for TDS7+. ">
<polygon fill="white" stroke="black" points="323,-191 323,-221 444,-221 444,-191 323,-191"/>
<text text-anchor="start" x="331" y="-209" font-family="Helvetica,sans-Serif" font-size="10.00">tds7_build_param_def</text>
<text text-anchor="middle" x="383.5" y="-198" font-family="Helvetica,sans-Serif" font-size="10.00">_from_query</text>
</a>
</g>
</g>
<!-- Node2&#45;&gt;Node27 -->
<g id="edge40" class="edge"><title>Node2&#45;&gt;Node27</title>
<path fill="none" stroke="midnightblue" d="M214.04,-316.459C231.294,-298.682 270.712,-260.114 310,-236 316.305,-232.13 323.199,-228.552 330.146,-225.316"/>
<polygon fill="midnightblue" stroke="midnightblue" points="331.883,-228.374 339.604,-221.12 329.044,-221.976 331.883,-228.374"/>
</g>
<!-- Node28 -->
<g id="node28" class="node"><title>Node28</title>
<g id="a_node28"><a xlink:href="a00356.html#ga6e42b4a1d1d3898229ea2fe4afc2ecec" target="_top" xlink:title="Output params types and query (required by sp_prepare/sp_executesql/sp_prepexec) ">
<polygon fill="white" stroke="black" points="318,-278.5 318,-297.5 449,-297.5 449,-278.5 318,-278.5"/>
<text text-anchor="middle" x="383.5" y="-285.5" font-family="Helvetica,sans-Serif" font-size="10.00">tds7_put_query_params</text>
</a>
</g>
</g>
<!-- Node2&#45;&gt;Node28 -->
<g id="edge44" class="edge"><title>Node2&#45;&gt;Node28</title>
<path fill="none" stroke="midnightblue" d="M249.791,-316.411C273.53,-311.329 302.884,-305.045 327.944,-299.68"/>
<polygon fill="midnightblue" stroke="midnightblue" points="328.986,-303.036 338.031,-297.52 327.52,-296.191 328.986,-303.036"/>
</g>
<!-- Node29 -->
<g id="node29" class="node"><title>Node29</title>
<g id="a_node29"><a xlink:href="a00356.html#ga0f0b6bf447e9672e3b1ea8453ddeb113" target="_top" xlink:title="Send parameter definition to server. ">
<polygon fill="white" stroke="black" points="310,-7.5 310,-26.5 457,-26.5 457,-7.5 310,-7.5"/>
<text text-anchor="middle" x="383.5" y="-14.5" font-family="Helvetica,sans-Serif" font-size="10.00">tds7_put_params_definition</text>
</a>
</g>
</g>
<!-- Node2&#45;&gt;Node29 -->
<g id="edge48" class="edge"><title>Node2&#45;&gt;Node29</title>
<path fill="none" stroke="midnightblue" d="M205.419,-316.254C207.718,-275.372 222.206,-116.141 310,-36 311.718,-34.4319 313.549,-32.9902 315.47,-31.6648"/>
<polygon fill="midnightblue" stroke="midnightblue" points="317.443,-34.5686 324.388,-26.568 313.97,-28.4911 317.443,-34.5686"/>
</g>
<!-- Node30 -->
<g id="node30" class="node"><title>Node30</title>
<g id="a_node30"><a xlink:href="a00356.html#gada27f4cfce925240ad33b71b63ca692d" target="_top" xlink:title="Flush query packet. ">
<polygon fill="white" stroke="black" points="319.5,-582.5 319.5,-601.5 447.5,-601.5 447.5,-582.5 319.5,-582.5"/>
<text text-anchor="middle" x="383.5" y="-589.5" font-family="Helvetica,sans-Serif" font-size="10.00">tds_query_flush_packet</text>
</a>
</g>
</g>
<!-- Node2&#45;&gt;Node30 -->
<g id="edge51" class="edge"><title>Node2&#45;&gt;Node30</title>
<path fill="none" stroke="midnightblue" d="M206.383,-335.961C211.981,-372.514 236.309,-500.638 310,-568 314.451,-572.069 319.609,-575.449 325.083,-578.258"/>
<polygon fill="midnightblue" stroke="midnightblue" points="323.964,-581.591 334.522,-582.465 326.813,-575.197 323.964,-581.591"/>
</g>
<!-- Node4 -->
<g id="node4" class="node"><title>Node4</title>
<g id="a_node4"><a xlink:href="a00193.html#ab45c291105027e69836002e1dd586141" target="_top" xlink:title="Write a message to the debug log. ">
<polygon fill="white" stroke="black" points="1017,-430.5 1017,-449.5 1094,-449.5 1094,-430.5 1017,-430.5"/>
<text text-anchor="middle" x="1055.5" y="-437.5" font-family="Helvetica,sans-Serif" font-size="10.00">tdsdump_log</text>
</a>
</g>
</g>
<!-- Node3&#45;&gt;Node4 -->
<g id="edge3" class="edge"><title>Node3&#45;&gt;Node4</title>
<path fill="none" stroke="midnightblue" d="M607.699,-560.362C684.1,-570.83 856.351,-584.838 981,-523 1009.6,-508.813 1031.99,-478.169 1044.22,-458.348"/>
<polygon fill="midnightblue" stroke="midnightblue" points="1047.31,-459.996 1049.38,-449.606 1041.28,-456.434 1047.31,-459.996"/>
</g>
<!-- Node5 -->
<g id="node5" class="node"><title>Node5</title>
<g id="a_node5"><a xlink:href="a00193.html#abf18b98efef6ce2dc0b97d658a3a1918" target="_top" xlink:title="Call the client library&#39;s error handler (for library&#45;generated errors only) ">
<polygon fill="white" stroke="red" points="885.5,-468.5 885.5,-487.5 939.5,-487.5 939.5,-468.5 885.5,-468.5"/>
<text text-anchor="middle" x="912.5" y="-475.5" font-family="Helvetica,sans-Serif" font-size="10.00">tdserror</text>
</a>
</g>
</g>
<!-- Node3&#45;&gt;Node5 -->
<g id="edge4" class="edge"><title>Node3&#45;&gt;Node5</title>
<path fill="none" stroke="midnightblue" d="M607.513,-545.356C674.514,-530.51 810.495,-500.38 875.42,-485.994"/>
<polygon fill="midnightblue" stroke="midnightblue" points="876.203,-489.406 885.209,-483.825 874.689,-482.572 876.203,-489.406"/>
</g>
<!-- Node5&#45;&gt;Node4 -->
<g id="edge5" class="edge"><title>Node5&#45;&gt;Node4</title>
<path fill="none" stroke="midnightblue" d="M939.691,-470.942C959.185,-465.688 986.28,-458.385 1009.25,-452.194"/>
<polygon fill="midnightblue" stroke="midnightblue" points="1010.4,-455.51 1019.14,-449.529 1008.58,-448.751 1010.4,-455.51"/>
</g>
<!-- Node7 -->
<g id="node7" class="node"><title>Node7</title>
<g id="a_node7"><a xlink:href="a00356.html#ga5dbe51ce9533218f2da23f69ff63dda4" target="_top" xlink:title="Skip quoting string (like &#39;sfsf&#39;, &quot;dflkdj&quot; or [dfkjd]) ">
<polygon fill="white" stroke="black" points="696,-0.5 696,-19.5 790,-19.5 790,-0.5 696,-0.5"/>
<text text-anchor="middle" x="743" y="-7.5" font-family="Helvetica,sans-Serif" font-size="10.00">tds_skip_quoted</text>
</a>
</g>
</g>
<!-- Node6&#45;&gt;Node7 -->
<g id="edge7" class="edge"><title>Node6&#45;&gt;Node7</title>
<path fill="none" stroke="midnightblue" d="M612.281,-38.411C635.486,-33.3287 664.178,-27.0446 688.673,-21.6797"/>
<polygon fill="midnightblue" stroke="midnightblue" points="689.514,-25.0786 698.533,-19.5201 688.016,-18.2407 689.514,-25.0786"/>
</g>
<!-- Node8 -->
<g id="node8" class="node"><title>Node8</title>
<g id="a_node8"><a xlink:href="a00356.html#gaac7347ba9380d77d726648b85e9fab8f" target="_top" xlink:title="Skip a comment in a query. ">
<polygon fill="white" stroke="black" points="691,-38.5 691,-57.5 795,-57.5 795,-38.5 691,-38.5"/>
<text text-anchor="middle" x="743" y="-45.5" font-family="Helvetica,sans-Serif" font-size="10.00">tds_skip_comment</text>
</a>
</g>
</g>
<!-- Node6&#45;&gt;Node8 -->
<g id="edge8" class="edge"><title>Node6&#45;&gt;Node8</title>
<path fill="none" stroke="midnightblue" d="M627.239,-48C644.497,-48 663.411,-48 680.818,-48"/>
<polygon fill="midnightblue" stroke="midnightblue" points="680.868,-51.5001 690.868,-48 680.868,-44.5001 680.868,-51.5001"/>
</g>
<!-- Node9&#45;&gt;Node6 -->
<g id="edge10" class="edge"><title>Node9&#45;&gt;Node6</title>
<path fill="none" stroke="midnightblue" d="M437.142,-52.9753C456.092,-52.2465 477.758,-51.4131 497.87,-50.6396"/>
<polygon fill="midnightblue" stroke="midnightblue" points="498.052,-54.1353 507.91,-50.2535 497.783,-47.1405 498.052,-54.1353"/>
</g>
<!-- Node10 -->
<g id="node10" class="node"><title>Node10</title>
<g id="a_node10"><a xlink:href="a00358.html#gad96366d9fa93bfc283cef1299fbe97ab" target="_top" xlink:title="copy a string from another ">
<polygon fill="white" stroke="red" points="526,-0.5 526,-19.5 609,-19.5 609,-0.5 526,-0.5"/>
<text text-anchor="middle" x="567.5" y="-7.5" font-family="Helvetica,sans-Serif" font-size="10.00">tds_dstr_copy</text>
</a>
</g>
</g>
<!-- Node9&#45;&gt;Node10 -->
<g id="edge11" class="edge"><title>Node9&#45;&gt;Node10</title>
<path fill="none" stroke="midnightblue" d="M423.098,-45.4567C450.847,-38.5956 488.457,-29.2962 518.199,-21.9425"/>
<polygon fill="midnightblue" stroke="midnightblue" points="519.091,-25.3276 527.958,-19.5296 517.41,-18.5322 519.091,-25.3276"/>
</g>
<!-- Node12 -->
<g id="node12" class="node"><title>Node12</title>
<g id="a_node12"><a xlink:href="a00356.html#ga319d610d59b2cc669b7fe20c793122af" target="_top" xlink:title="Calc information length in bytes (useful for calculating full packet length) ">
<polygon fill="white" stroke="black" points="844,-430.5 844,-449.5 981,-449.5 981,-430.5 844,-430.5"/>
<text text-anchor="middle" x="912.5" y="-437.5" font-family="Helvetica,sans-Serif" font-size="10.00">tds_put_data_info_length</text>
</a>
</g>
</g>
<!-- Node11&#45;&gt;Node12 -->
<g id="edge13" class="edge"><title>Node11&#45;&gt;Node12</title>
<path fill="none" stroke="midnightblue" d="M429.888,-440C519.953,-440 722.184,-440 833.814,-440"/>
<polygon fill="midnightblue" stroke="midnightblue" points="833.998,-443.5 843.998,-440 833.998,-436.5 833.998,-443.5"/>
</g>
<!-- Node11&#45;&gt;Node13 -->
<g id="edge15" class="edge"><title>Node11&#45;&gt;Node13</title>
<path fill="none" stroke="midnightblue" d="M429.957,-449.491C454.495,-454.614 484.987,-460.981 510.927,-466.397"/>
<polygon fill="midnightblue" stroke="midnightblue" points="510.488,-469.881 520.992,-468.498 511.918,-463.028 510.488,-469.881"/>
</g>
<!-- Node11&#45;&gt;Node16 -->
<g id="edge20" class="edge"><title>Node11&#45;&gt;Node16</title>
<path fill="none" stroke="midnightblue" d="M429.957,-430.509C456.845,-424.895 490.88,-417.789 518.243,-412.076"/>
<polygon fill="midnightblue" stroke="midnightblue" points="519.301,-415.43 528.375,-409.96 517.87,-408.578 519.301,-415.43"/>
</g>
<!-- Node12&#45;&gt;Node4 -->
<g id="edge14" class="edge"><title>Node12&#45;&gt;Node4</title>
<path fill="none" stroke="midnightblue" d="M981.109,-440C989.756,-440 998.461,-440 1006.7,-440"/>
<polygon fill="midnightblue" stroke="midnightblue" points="1006.86,-443.5 1016.85,-440 1006.85,-436.5 1006.86,-443.5"/>
</g>
<!-- Node13&#45;&gt;Node4 -->
<g id="edge16" class="edge"><title>Node13&#45;&gt;Node4</title>
<path fill="none" stroke="midnightblue" d="M601.747,-487.563C673.387,-506.465 846.703,-542.972 981,-497 1003.99,-489.131 1025.34,-470.82 1039.05,-457.061"/>
<polygon fill="midnightblue" stroke="midnightblue" points="1041.8,-459.245 1046.18,-449.599 1036.74,-454.407 1041.8,-459.245"/>
</g>
<!-- Node13&#45;&gt;Node14 -->
<g id="edge17" class="edge"><title>Node13&#45;&gt;Node14</title>
<path fill="none" stroke="midnightblue" d="M618.218,-478C637.663,-478 660.165,-478 680.607,-478"/>
<polygon fill="midnightblue" stroke="midnightblue" points="680.767,-481.5 690.767,-478 680.767,-474.5 680.767,-481.5"/>
</g>
<!-- Node15 -->
<g id="node15" class="node"><title>Node15</title>
<g id="a_node15"><a xlink:href="a00354.html#ga87db49044919f1bc84c0ff5e9ab00304" target="_top" xlink:title="Wrapper around iconv(3). ">
<polygon fill="white" stroke="red" points="881.5,-354.5 881.5,-373.5 943.5,-373.5 943.5,-354.5 881.5,-354.5"/>
<text text-anchor="middle" x="912.5" y="-361.5" font-family="Helvetica,sans-Serif" font-size="10.00">tds_iconv</text>
</a>
</g>
</g>
<!-- Node14&#45;&gt;Node15 -->
<g id="edge18" class="edge"><title>Node14&#45;&gt;Node15</title>
<path fill="none" stroke="midnightblue" d="M757.993,-468.477C786.864,-448.827 853.277,-403.627 888.535,-379.63"/>
<polygon fill="midnightblue" stroke="midnightblue" points="890.894,-382.258 897.192,-373.738 886.956,-376.471 890.894,-382.258"/>
</g>
<!-- Node15&#45;&gt;Node4 -->
<g id="edge19" class="edge"><title>Node15&#45;&gt;Node4</title>
<path fill="none" stroke="midnightblue" d="M943.813,-372.809C955.714,-376.769 969.298,-381.928 981,-388 1000.53,-398.136 1020.81,-412.85 1035.11,-424.041"/>
<polygon fill="midnightblue" stroke="midnightblue" points="1033.18,-426.978 1043.17,-430.481 1037.54,-421.507 1033.18,-426.978"/>
</g>
<!-- Node17&#45;&gt;Node3 -->
<g id="edge23" class="edge"><title>Node17&#45;&gt;Node3</title>
<path fill="none" stroke="midnightblue" d="M430.426,-525.589C456.945,-531.126 490.296,-538.089 517.343,-543.736"/>
<polygon fill="midnightblue" stroke="midnightblue" points="516.868,-547.213 527.373,-545.831 518.299,-540.361 516.868,-547.213"/>
</g>
<!-- Node17&#45;&gt;Node14 -->
<g id="edge22" class="edge"><title>Node17&#45;&gt;Node14</title>
<path fill="none" stroke="midnightblue" d="M443.5,-513.563C495.819,-510.947 574.223,-505.91 642,-497 656.948,-495.035 673.038,-492.27 687.85,-489.456"/>
<polygon fill="midnightblue" stroke="midnightblue" points="688.721,-492.852 697.87,-487.509 687.386,-485.98 688.721,-492.852"/>
</g>
<!-- Node19 -->
<g id="node19" class="node"><title>Node19</title>
<g id="a_node19"><a xlink:href="a00263.html#aa9e1e45f0305622dd6aed9f8fe158581" target="_top" xlink:title="Initialize an input stream for read from a static allocated buffer. ">
<polygon fill="white" stroke="red" points="679,-287.5 679,-306.5 807,-306.5 807,-287.5 679,-287.5"/>
<text text-anchor="middle" x="743" y="-294.5" font-family="Helvetica,sans-Serif" font-size="10.00">tds_staticin_stream_init</text>
</a>
</g>
</g>
<!-- Node18&#45;&gt;Node19 -->
<g id="edge25" class="edge"><title>Node18&#45;&gt;Node19</title>
<path fill="none" stroke="midnightblue" d="M609.178,-319.201C628.808,-315.92 652.871,-311.898 675.097,-308.183"/>
<polygon fill="midnightblue" stroke="midnightblue" points="675.872,-311.602 685.158,-306.501 674.717,-304.698 675.872,-311.602"/>
</g>
<!-- Node20 -->
<g id="node20" class="node"><title>Node20</title>
<g id="a_node20"><a xlink:href="a00263.html#aa038a9125979f8f0915dbd53cbf27e5a" target="_top" xlink:title="Initialize a data output stream. ">
<polygon fill="white" stroke="red" points="678,-325.5 678,-344.5 808,-344.5 808,-325.5 678,-325.5"/>
<text text-anchor="middle" x="743" y="-332.5" font-family="Helvetica,sans-Serif" font-size="10.00">tds_dataout_stream_init</text>
</a>
</g>
</g>
<!-- Node18&#45;&gt;Node20 -->
<g id="edge26" class="edge"><title>Node18&#45;&gt;Node20</title>
<path fill="none" stroke="midnightblue" d="M609.178,-328.11C626.657,-329.017 647.652,-330.106 667.735,-331.148"/>
<polygon fill="midnightblue" stroke="midnightblue" points="667.647,-334.648 677.815,-331.671 668.01,-327.657 667.647,-334.648"/>
</g>
<!-- Node21 -->
<g id="node21" class="node"><title>Node21</title>
<g id="a_node21"><a xlink:href="a00263.html#a9d8eb43a81ff58ab423dce0ce95b9564" target="_top" xlink:title="Reads and writes from a stream converting characters. ">
<polygon fill="white" stroke="red" points="688,-373.5 688,-392.5 798,-392.5 798,-373.5 688,-373.5"/>
<text text-anchor="middle" x="743" y="-380.5" font-family="Helvetica,sans-Serif" font-size="10.00">tds_convert_stream</text>
</a>
</g>
</g>
<!-- Node18&#45;&gt;Node21 -->
<g id="edge27" class="edge"><title>Node18&#45;&gt;Node21</title>
<path fill="none" stroke="midnightblue" d="M597.835,-335.555C611.295,-339.946 627.461,-345.227 642,-350 662.319,-356.67 684.948,-364.135 703.534,-370.275"/>
<polygon fill="midnightblue" stroke="midnightblue" points="702.533,-373.63 713.126,-373.445 704.73,-366.984 702.533,-373.63"/>
</g>
<!-- Node21&#45;&gt;Node4 -->
<g id="edge29" class="edge"><title>Node21&#45;&gt;Node4</title>
<path fill="none" stroke="midnightblue" d="M798.389,-390.238C846.599,-397.006 918.794,-408.003 981,-421 990.575,-423.001 1000.78,-425.438 1010.44,-427.891"/>
<polygon fill="midnightblue" stroke="midnightblue" points="1009.7,-431.316 1020.26,-430.435 1011.45,-424.539 1009.7,-431.316"/>
</g>
<!-- Node21&#45;&gt;Node5 -->
<g id="edge30" class="edge"><title>Node21&#45;&gt;Node5</title>
<path fill="none" stroke="midnightblue" d="M753.923,-392.625C770.966,-408.647 807.5,-440.819 844,-459 853.827,-463.895 865.107,-467.699 875.596,-470.573"/>
<polygon fill="midnightblue" stroke="midnightblue" points="874.784,-473.978 885.338,-473.049 876.508,-467.194 874.784,-473.978"/>
</g>
<!-- Node21&#45;&gt;Node15 -->
<g id="edge28" class="edge"><title>Node21&#45;&gt;Node15</title>
<path fill="none" stroke="midnightblue" d="M798.382,-376.831C822.132,-374.137 849.49,-371.034 871.351,-368.554"/>
<polygon fill="midnightblue" stroke="midnightblue" points="871.746,-372.032 881.288,-367.427 870.957,-365.076 871.746,-372.032"/>
</g>
<!-- Node23 -->
<g id="node23" class="node"><title>Node23</title>
<g id="a_node23"><a xlink:href="a00356.html#gaa823973b74efdf1ff00f340496bff614" target="_top" xlink:title="Found the next placeholder (? or @param) in a string. ">
<polygon fill="white" stroke="red" points="683.5,-229 683.5,-259 802.5,-259 802.5,-229 683.5,-229"/>
<text text-anchor="start" x="691.5" y="-247" font-family="Helvetica,sans-Serif" font-size="10.00">tds_next_placeholder</text>
<text text-anchor="middle" x="743" y="-236" font-family="Helvetica,sans-Serif" font-size="10.00">_ucs2le</text>
</a>
</g>
</g>
<!-- Node22&#45;&gt;Node23 -->
<g id="edge33" class="edge"><title>Node22&#45;&gt;Node23</title>
<path fill="none" stroke="midnightblue" d="M632.12,-244C645.453,-244 659.572,-244 673.087,-244"/>
<polygon fill="midnightblue" stroke="midnightblue" points="673.282,-247.5 683.282,-244 673.282,-240.5 673.282,-247.5"/>
</g>
<!-- Node24&#45;&gt;Node15 -->
<g id="edge36" class="edge"><title>Node24&#45;&gt;Node15</title>
<path fill="none" stroke="midnightblue" d="M422.493,-141.978C443.014,-134.665 468.999,-126.672 493,-123 558.46,-112.984 578.04,-105.837 642,-123 724.315,-145.088 744.925,-161.684 808,-219 850.364,-257.496 885.57,-316.117 901.825,-345.644"/>
<polygon fill="midnightblue" stroke="midnightblue" points="898.761,-347.336 906.594,-354.47 904.92,-344.009 898.761,-347.336"/>
</g>
<!-- Node24&#45;&gt;Node23 -->
<g id="edge35" class="edge"><title>Node24&#45;&gt;Node23</title>
<path fill="none" stroke="midnightblue" d="M434.11,-141.923C487.616,-128.429 574.235,-114.733 642,-143 679.32,-158.567 709.838,-195.592 726.969,-220.223"/>
<polygon fill="midnightblue" stroke="midnightblue" points="724.173,-222.336 732.663,-228.674 729.978,-218.425 724.173,-222.336"/>
</g>
<!-- Node25 -->
<g id="node25" class="node"><title>Node25</title>
<g id="a_node25"><a xlink:href="a00356.html#ga50d62edeb2a432e2dc668263f3f958ff" target="_top" xlink:title="Return declaration for column (like &quot;varchar(20)&quot;) ">
<polygon fill="white" stroke="red" points="493,-152.5 493,-171.5 642,-171.5 642,-152.5 493,-152.5"/>
<text text-anchor="middle" x="567.5" y="-159.5" font-family="Helvetica,sans-Serif" font-size="10.00">tds_get_column_declaration</text>
</a>
</g>
</g>
<!-- Node24&#45;&gt;Node25 -->
<g id="edge37" class="edge"><title>Node24&#45;&gt;Node25</title>
<path fill="none" stroke="midnightblue" d="M444.094,-158.637C456.364,-158.974 469.502,-159.335 482.452,-159.691"/>
<polygon fill="midnightblue" stroke="midnightblue" points="482.685,-163.199 492.777,-159.975 482.877,-156.201 482.685,-163.199"/>
</g>
<!-- Node26 -->
<g id="node26" class="node"><title>Node26</title>
<g id="a_node26"><a xlink:href="a00356.html#gad05fc65e1d505c68d14c82b99a00e4eb" target="_top" xlink:title="Accept an ASCII string, convert it to UCS2&#45;LE The input is null&#45;terminated, but the output excludes t...">
<polygon fill="white" stroke="black" points="517,-190.5 517,-209.5 618,-209.5 618,-190.5 517,-190.5"/>
<text text-anchor="middle" x="567.5" y="-197.5" font-family="Helvetica,sans-Serif" font-size="10.00">tds_ascii_to_ucs2</text>
</a>
</g>
</g>
<!-- Node24&#45;&gt;Node26 -->
<g id="edge39" class="edge"><title>Node24&#45;&gt;Node26</title>
<path fill="none" stroke="midnightblue" d="M444.094,-171.08C467.378,-176.581 493.789,-182.821 516.103,-188.093"/>
<polygon fill="midnightblue" stroke="midnightblue" points="515.504,-191.548 526.041,-190.441 517.114,-184.735 515.504,-191.548"/>
</g>
<!-- Node25&#45;&gt;Node4 -->
<g id="edge38" class="edge"><title>Node25&#45;&gt;Node4</title>
<path fill="none" stroke="midnightblue" d="M640.63,-171.531C689.489,-179.798 754.619,-194.417 808,-219 894.399,-258.788 912.771,-278.722 981,-345 1005.79,-369.083 1029.29,-401.805 1042.78,-421.883"/>
<polygon fill="midnightblue" stroke="midnightblue" points="1039.97,-423.974 1048.4,-430.387 1045.81,-420.115 1039.97,-423.974"/>
</g>
<!-- Node27&#45;&gt;Node22 -->
<g id="edge41" class="edge"><title>Node27&#45;&gt;Node22</title>
<path fill="none" stroke="midnightblue" d="M444.094,-218.443C459.633,-221.687 476.564,-225.222 492.742,-228.6"/>
<polygon fill="midnightblue" stroke="midnightblue" points="492.193,-232.061 502.697,-230.679 493.624,-225.209 492.193,-232.061"/>
</g>
<!-- Node27&#45;&gt;Node25 -->
<g id="edge42" class="edge"><title>Node27&#45;&gt;Node25</title>
<path fill="none" stroke="midnightblue" d="M444.094,-191.593C467.738,-185.877 494.606,-179.381 517.134,-173.935"/>
<polygon fill="midnightblue" stroke="midnightblue" points="518.255,-177.265 527.152,-171.513 516.61,-170.461 518.255,-177.265"/>
</g>
<!-- Node27&#45;&gt;Node26 -->
<g id="edge43" class="edge"><title>Node27&#45;&gt;Node26</title>
<path fill="none" stroke="midnightblue" d="M444.094,-204.035C464.133,-203.375 486.489,-202.638 506.556,-201.976"/>
<polygon fill="midnightblue" stroke="midnightblue" points="506.937,-205.466 516.817,-201.638 506.707,-198.469 506.937,-205.466"/>
</g>
<!-- Node28&#45;&gt;Node18 -->
<g id="edge47" class="edge"><title>Node28&#45;&gt;Node18</title>
<path fill="none" stroke="midnightblue" d="M430.426,-297.589C456.478,-303.028 489.124,-309.844 515.908,-315.437"/>
<polygon fill="midnightblue" stroke="midnightblue" points="515.357,-318.897 525.861,-317.515 516.787,-312.045 515.357,-318.897"/>
</g>
<!-- Node28&#45;&gt;Node22 -->
<g id="edge45" class="edge"><title>Node28&#45;&gt;Node22</title>
<path fill="none" stroke="midnightblue" d="M423.991,-278.453C444.574,-273.477 470.398,-267.233 494.39,-261.433"/>
<polygon fill="midnightblue" stroke="midnightblue" points="495.287,-264.817 504.184,-259.065 493.642,-258.013 495.287,-264.817"/>
</g>
<!-- Node28&#45;&gt;Node23 -->
<g id="edge46" class="edge"><title>Node28&#45;&gt;Node23</title>
<path fill="none" stroke="midnightblue" d="M449.117,-285.811C501.396,-283.362 576.781,-278.293 642,-268 653.185,-266.235 664.966,-263.871 676.36,-261.314"/>
<polygon fill="midnightblue" stroke="midnightblue" points="677.295,-264.69 686.25,-259.027 675.718,-257.87 677.295,-264.69"/>
</g>
<!-- Node30&#45;&gt;Node3 -->
<g id="edge52" class="edge"><title>Node30&#45;&gt;Node3</title>
<path fill="none" stroke="midnightblue" d="M430.426,-582.411C456.945,-576.874 490.296,-569.911 517.343,-564.264"/>
<polygon fill="midnightblue" stroke="midnightblue" points="518.299,-567.639 527.373,-562.169 516.868,-560.787 518.299,-567.639"/>
</g>
<!-- Node31 -->
<g id="node31" class="node"><title>Node31</title>
<g id="a_node31"><a xlink:href="a00357.html#ga5feb53554e8917a81bbbc332163a61fb" target="_top" xlink:title="Flush packet to server. ">
<polygon fill="white" stroke="black" points="519.5,-582.5 519.5,-601.5 615.5,-601.5 615.5,-582.5 519.5,-582.5"/>
<text text-anchor="middle" x="567.5" y="-589.5" font-family="Helvetica,sans-Serif" font-size="10.00">tds_flush_packet</text>
</a>
</g>
</g>
<!-- Node30&#45;&gt;Node31 -->
<g id="edge53" class="edge"><title>Node30&#45;&gt;Node31</title>
<path fill="none" stroke="midnightblue" d="M447.644,-592C467.573,-592 489.475,-592 508.989,-592"/>
<polygon fill="midnightblue" stroke="midnightblue" points="509.254,-595.5 519.254,-592 509.254,-588.5 509.254,-595.5"/>
</g>
</g>
</svg>
