<?xml version="1.0" encoding="UTF-8" standalone="no"?>
<!DOCTYPE svg PUBLIC "-//W3C//DTD SVG 1.1//EN"
 "http://www.w3.org/Graphics/SVG/1.1/DTD/svg11.dtd">
<!-- Generated by graphviz version 2.38.0 (20140413.2041)
 -->
<!-- Title: tds7_process_compute_result Pages: 1 -->
<svg width="988pt" height="436pt"
 viewBox="0.00 0.00 988.00 436.00" xmlns="http://www.w3.org/2000/svg" xmlns:xlink="http://www.w3.org/1999/xlink">
<g id="graph0" class="graph" transform="scale(1 1) rotate(0) translate(4 432)">
<title>tds7_process_compute_result</title>
<polygon fill="white" stroke="none" points="-4,4 -4,-432 984,-432 984,4 -4,4"/>
<!-- Node1 -->
<g id="node1" class="node"><title>Node1</title>
<polygon fill="#bfbfbf" stroke="black" points="0,-194 0,-224 126,-224 126,-194 0,-194"/>
<text text-anchor="start" x="8" y="-212" font-family="Helvetica,sans-Serif" font-size="10.00">tds7_process_compute</text>
<text text-anchor="middle" x="63" y="-201" font-family="Helvetica,sans-Serif" font-size="10.00">_result</text>
</g>
<!-- Node2 -->
<g id="node2" class="node"><title>Node2</title>
<g id="a_node2"><a xlink:href="a00357.html#gad38aa5b9547817854ccba1fcc7855861" target="_top" xlink:title="Get an int16 from the server. ">
<polygon fill="white" stroke="black" points="167,-319.5 167,-338.5 265,-338.5 265,-319.5 167,-319.5"/>
<text text-anchor="middle" x="216" y="-326.5" font-family="Helvetica,sans-Serif" font-size="10.00">tds_get_usmallint</text>
</a>
</g>
</g>
<!-- Node1&#45;&gt;Node2 -->
<g id="edge1" class="edge"><title>Node1&#45;&gt;Node2</title>
<path fill="none" stroke="midnightblue" d="M83.1243,-224.198C111.872,-247.044 165.953,-290.022 195.131,-313.21"/>
<polygon fill="midnightblue" stroke="midnightblue" points="192.989,-315.978 202.995,-319.46 197.344,-310.498 192.989,-315.978"/>
</g>
<!-- Node5 -->
<g id="node5" class="node"><title>Node5</title>
<g id="a_node5"><a xlink:href="a00193.html#ab45c291105027e69836002e1dd586141" target="_top" xlink:title="Write a message to the debug log. ">
<polygon fill="white" stroke="black" points="903,-209.5 903,-228.5 980,-228.5 980,-209.5 903,-209.5"/>
<text text-anchor="middle" x="941.5" y="-216.5" font-family="Helvetica,sans-Serif" font-size="10.00">tdsdump_log</text>
</a>
</g>
</g>
<!-- Node1&#45;&gt;Node5 -->
<g id="edge5" class="edge"><title>Node1&#45;&gt;Node5</title>
<path fill="none" stroke="midnightblue" d="M70.8564,-224.278C84.3255,-252.637 116.901,-313.649 162,-348 245.599,-411.675 279.413,-428 384.5,-428 384.5,-428 384.5,-428 704,-428 818.555,-428 903.733,-288.614 931.117,-237.501"/>
<polygon fill="midnightblue" stroke="midnightblue" points="934.28,-239.006 935.815,-228.523 928.077,-235.761 934.28,-239.006"/>
</g>
<!-- Node6 -->
<g id="node6" class="node"><title>Node6</title>
<g id="a_node6"><a xlink:href="a00357.html#ga0cb72d3f6943795c39db1fa692be0a58" target="_top" xlink:title="Return a single byte from the input buffer. ">
<polygon fill="white" stroke="black" points="347,-247.5 347,-266.5 424,-266.5 424,-247.5 347,-247.5"/>
<text text-anchor="middle" x="385.5" y="-254.5" font-family="Helvetica,sans-Serif" font-size="10.00">tds_get_byte</text>
</a>
</g>
</g>
<!-- Node1&#45;&gt;Node6 -->
<g id="edge6" class="edge"><title>Node1&#45;&gt;Node6</title>
<path fill="none" stroke="midnightblue" d="M126.176,-218.312C187.698,-227.526 280.556,-241.433 336.575,-249.822"/>
<polygon fill="midnightblue" stroke="midnightblue" points="336.182,-253.303 346.59,-251.322 337.219,-246.38 336.182,-253.303"/>
</g>
<!-- Node7 -->
<g id="node7" class="node"><title>Node7</title>
<g id="a_node7"><a xlink:href="a00359.html#ga07cee55fd522cca16fb59b7a8f0b1376" target="_top" xlink:title="Reads data information from wire. ">
<polygon fill="white" stroke="black" points="162,-166.5 162,-185.5 270,-185.5 270,-166.5 162,-166.5"/>
<text text-anchor="middle" x="216" y="-173.5" font-family="Helvetica,sans-Serif" font-size="10.00">tds7_get_data_info</text>
</a>
</g>
</g>
<!-- Node1&#45;&gt;Node7 -->
<g id="edge8" class="edge"><title>Node1&#45;&gt;Node7</title>
<path fill="none" stroke="midnightblue" d="M126.289,-195.387C137.976,-192.833 150.099,-190.184 161.491,-187.694"/>
<polygon fill="midnightblue" stroke="midnightblue" points="162.261,-191.108 171.283,-185.554 160.767,-184.27 162.261,-191.108"/>
</g>
<!-- Node18 -->
<g id="node18" class="node"><title>Node18</title>
<g id="a_node18"><a xlink:href="a00358.html#gad96366d9fa93bfc283cef1299fbe97ab" target="_top" xlink:title="copy a string from another ">
<polygon fill="white" stroke="black" points="174.5,-128.5 174.5,-147.5 257.5,-147.5 257.5,-128.5 174.5,-128.5"/>
<text text-anchor="middle" x="216" y="-135.5" font-family="Helvetica,sans-Serif" font-size="10.00">tds_dstr_copy</text>
</a>
</g>
</g>
<!-- Node1&#45;&gt;Node18 -->
<g id="edge24" class="edge"><title>Node1&#45;&gt;Node18</title>
<path fill="none" stroke="midnightblue" d="M90.11,-193.824C109.567,-182.843 136.983,-168.053 162,-157 166.686,-154.93 171.674,-152.911 176.645,-151.009"/>
<polygon fill="midnightblue" stroke="midnightblue" points="177.932,-154.265 186.098,-147.514 175.504,-147.699 177.932,-154.265"/>
</g>
<!-- Node20 -->
<g id="node20" class="node"><title>Node20</title>
<g id="a_node20"><a xlink:href="a00359.html#ga62dc14d21453e88e24880ee0acaca73a" target="_top" xlink:title="Returns string representation for a given operation. ">
<polygon fill="white" stroke="black" points="183.5,-90.5 183.5,-109.5 248.5,-109.5 248.5,-90.5 183.5,-90.5"/>
<text text-anchor="middle" x="216" y="-97.5" font-family="Helvetica,sans-Serif" font-size="10.00">tds_pr_op</text>
</a>
</g>
</g>
<!-- Node1&#45;&gt;Node20 -->
<g id="edge26" class="edge"><title>Node1&#45;&gt;Node20</title>
<path fill="none" stroke="midnightblue" d="M76.8332,-193.95C94.3098,-174.287 127.401,-139.907 162,-119 165.671,-116.782 169.64,-114.766 173.697,-112.948"/>
<polygon fill="midnightblue" stroke="midnightblue" points="175.288,-116.08 183.227,-109.064 172.645,-109.598 175.288,-116.08"/>
</g>
<!-- Node3 -->
<g id="node3" class="node"><title>Node3</title>
<g id="a_node3"><a xlink:href="a00357.html#gae7d9c4e1a079e1d0aa0252732631e8c4" target="_top" xlink:title="Get N bytes from the buffer and return them in the already allocated space given to us...">
<polygon fill="white" stroke="black" points="671,-323.5 671,-342.5 735,-342.5 735,-323.5 671,-323.5"/>
<text text-anchor="middle" x="703" y="-330.5" font-family="Helvetica,sans-Serif" font-size="10.00">tds_get_n</text>
</a>
</g>
</g>
<!-- Node2&#45;&gt;Node3 -->
<g id="edge2" class="edge"><title>Node2&#45;&gt;Node3</title>
<path fill="none" stroke="midnightblue" d="M258.307,-338.558C333.75,-354.537 498.626,-382.614 635,-358 647.663,-355.715 661.054,-351.182 672.508,-346.597"/>
<polygon fill="midnightblue" stroke="midnightblue" points="674.143,-349.706 682.009,-342.608 671.433,-343.252 674.143,-349.706"/>
</g>
<!-- Node4 -->
<g id="node4" class="node"><title>Node4</title>
<g id="a_node4"><a xlink:href="a00357.html#ga410619783bdf2bb60b0f27a5578e0e07" target="_top" xlink:title="Read in one &#39;packet&#39; from the server. ">
<polygon fill="white" stroke="red" points="771,-266.5 771,-285.5 867,-285.5 867,-266.5 771,-266.5"/>
<text text-anchor="middle" x="819" y="-273.5" font-family="Helvetica,sans-Serif" font-size="10.00">tds_read_packet</text>
</a>
</g>
</g>
<!-- Node3&#45;&gt;Node4 -->
<g id="edge3" class="edge"><title>Node3&#45;&gt;Node4</title>
<path fill="none" stroke="midnightblue" d="M723.081,-323.459C741.33,-314.335 769.069,-300.466 789.855,-290.073"/>
<polygon fill="midnightblue" stroke="midnightblue" points="791.478,-293.174 798.857,-285.572 788.347,-286.913 791.478,-293.174"/>
</g>
<!-- Node4&#45;&gt;Node5 -->
<g id="edge4" class="edge"><title>Node4&#45;&gt;Node5</title>
<path fill="none" stroke="midnightblue" d="M840.169,-266.459C859.545,-257.294 889.043,-243.341 911.046,-232.932"/>
<polygon fill="midnightblue" stroke="midnightblue" points="912.722,-236.012 920.265,-228.572 909.729,-229.684 912.722,-236.012"/>
</g>
<!-- Node6&#45;&gt;Node4 -->
<g id="edge7" class="edge"><title>Node6&#45;&gt;Node4</title>
<path fill="none" stroke="midnightblue" d="M424.038,-258.653C499.753,-261.987 671.18,-269.535 760.873,-273.485"/>
<polygon fill="midnightblue" stroke="midnightblue" points="760.725,-276.981 770.869,-273.925 761.033,-269.988 760.725,-276.981"/>
</g>
<!-- Node7&#45;&gt;Node5 -->
<g id="edge22" class="edge"><title>Node7&#45;&gt;Node5</title>
<path fill="none" stroke="midnightblue" d="M270.043,-172.557C338.588,-168.412 461.642,-162 567,-162 567,-162 567,-162 704,-162 778.407,-162 862.409,-188.995 907.56,-205.83"/>
<polygon fill="midnightblue" stroke="midnightblue" points="906.526,-209.181 917.117,-209.459 909.011,-202.637 906.526,-209.181"/>
</g>
<!-- Node7&#45;&gt;Node6 -->
<g id="edge12" class="edge"><title>Node7&#45;&gt;Node6</title>
<path fill="none" stroke="midnightblue" d="M230.07,-185.506C252.769,-201.955 297.844,-234.328 306,-238 315.69,-242.362 326.521,-245.806 336.97,-248.494"/>
<polygon fill="midnightblue" stroke="midnightblue" points="336.281,-251.928 346.821,-250.844 337.906,-245.119 336.281,-251.928"/>
</g>
<!-- Node8 -->
<g id="node8" class="node"><title>Node8</title>
<g id="a_node8"><a xlink:href="a00298.html#a7d6ccf355d1fc24711b5cd5bbc23a931" target="_top" xlink:title="Set type of column initializing all dependency. ">
<polygon fill="white" stroke="black" points="327.5,-76.5 327.5,-95.5 443.5,-95.5 443.5,-76.5 327.5,-76.5"/>
<text text-anchor="middle" x="385.5" y="-83.5" font-family="Helvetica,sans-Serif" font-size="10.00">tds_set_column_type</text>
</a>
</g>
</g>
<!-- Node7&#45;&gt;Node8 -->
<g id="edge9" class="edge"><title>Node7&#45;&gt;Node8</title>
<path fill="none" stroke="midnightblue" d="M253.345,-166.397C259.244,-163.902 265.038,-160.81 270,-157 292.296,-139.883 282.822,-120.903 306,-105 309.743,-102.432 313.795,-100.209 318.018,-98.2858"/>
<polygon fill="midnightblue" stroke="midnightblue" points="319.474,-101.474 327.481,-94.5356 316.895,-94.9659 319.474,-101.474"/>
</g>
<!-- Node11 -->
<g id="node11" class="node"><title>Node11</title>
<g id="a_node11"><a xlink:href="a00359.html#ga91770634ce8c0d6f1fe007b45da186fd" target="_top" xlink:title="Adjust column size according to client&#39;s encoding. ">
<polygon fill="white" stroke="black" points="306,-114.5 306,-133.5 465,-133.5 465,-114.5 306,-114.5"/>
<text text-anchor="middle" x="385.5" y="-121.5" font-family="Helvetica,sans-Serif" font-size="10.00">adjust_character_column_size</text>
</a>
</g>
</g>
<!-- Node7&#45;&gt;Node11 -->
<g id="edge13" class="edge"><title>Node7&#45;&gt;Node11</title>
<path fill="none" stroke="midnightblue" d="M247.054,-166.478C264.295,-161.033 286.352,-154.094 306,-148 318.123,-144.24 331.312,-140.191 343.358,-136.51"/>
<polygon fill="midnightblue" stroke="midnightblue" points="344.616,-139.785 353.159,-133.518 342.573,-133.09 344.616,-139.785"/>
</g>
<!-- Node13 -->
<g id="node13" class="node"><title>Node13</title>
<g id="a_node13"><a xlink:href="a00357.html#gafae08056186b143f3ef1399307dc9be7" target="_top" xlink:title="Reads a string from wire and put in a DSTR. ">
<polygon fill="white" stroke="black" points="347.5,-209.5 347.5,-228.5 423.5,-228.5 423.5,-209.5 347.5,-209.5"/>
<text text-anchor="middle" x="385.5" y="-216.5" font-family="Helvetica,sans-Serif" font-size="10.00">tds_dstr_get</text>
</a>
</g>
</g>
<!-- Node7&#45;&gt;Node13 -->
<g id="edge16" class="edge"><title>Node7&#45;&gt;Node13</title>
<path fill="none" stroke="midnightblue" d="M254.174,-185.543C278.787,-191.862 311.27,-200.201 337.648,-206.972"/>
<polygon fill="midnightblue" stroke="midnightblue" points="336.874,-210.387 347.43,-209.484 338.615,-203.607 336.874,-210.387"/>
</g>
<!-- Node17 -->
<g id="node17" class="node"><title>Node17</title>
<g id="a_node17"><a xlink:href="a00359.html#ga0cf7e719115b0ae476753442d10505ab" target="_top" xlink:title="Returns string representation of the given type. ">
<polygon fill="white" stroke="black" points="352,-38.5 352,-57.5 419,-57.5 419,-38.5 352,-38.5"/>
<text text-anchor="middle" x="385.5" y="-45.5" font-family="Helvetica,sans-Serif" font-size="10.00">tds_prtype</text>
</a>
</g>
</g>
<!-- Node7&#45;&gt;Node17 -->
<g id="edge23" class="edge"><title>Node7&#45;&gt;Node17</title>
<path fill="none" stroke="midnightblue" d="M256.017,-166.418C261.137,-163.955 265.989,-160.868 270,-157 301.011,-127.095 273.438,-95.2084 306,-67 315.952,-58.379 329.164,-53.526 341.906,-50.8368"/>
<polygon fill="midnightblue" stroke="midnightblue" points="342.689,-54.2537 351.953,-49.1133 341.505,-47.3545 342.689,-54.2537"/>
</g>
<!-- Node9 -->
<g id="node9" class="node"><title>Node9</title>
<g id="a_node9"><a xlink:href="a00193.html#a68855f1251759a6b7338635306ab0041" target="_top" xlink:title="tds_get_varint_size() returns the size of a variable length integer returned in a TDS 7...">
<polygon fill="white" stroke="black" points="513.5,-38.5 513.5,-57.5 622.5,-57.5 622.5,-38.5 513.5,-38.5"/>
<text text-anchor="middle" x="568" y="-45.5" font-family="Helvetica,sans-Serif" font-size="10.00">tds_get_varint_size</text>
</a>
</g>
</g>
<!-- Node8&#45;&gt;Node9 -->
<g id="edge10" class="edge"><title>Node8&#45;&gt;Node9</title>
<path fill="none" stroke="midnightblue" d="M432.048,-76.411C456.296,-71.3061 486.304,-64.9887 511.861,-59.6082"/>
<polygon fill="midnightblue" stroke="midnightblue" points="512.715,-63.0052 521.78,-57.5201 511.273,-56.1553 512.715,-63.0052"/>
</g>
<!-- Node10 -->
<g id="node10" class="node"><title>Node10</title>
<g id="a_node10"><a xlink:href="a00193.html#aa70b02ff34ac03040ca41f13d5fd35bd" target="_top" xlink:title="Return the number of bytes needed by specified type. ">
<polygon fill="white" stroke="black" points="508.5,-0.5 508.5,-19.5 627.5,-19.5 627.5,-0.5 508.5,-0.5"/>
<text text-anchor="middle" x="568" y="-7.5" font-family="Helvetica,sans-Serif" font-size="10.00">tds_get_size_by_type</text>
</a>
</g>
</g>
<!-- Node8&#45;&gt;Node10 -->
<g id="edge11" class="edge"><title>Node8&#45;&gt;Node10</title>
<path fill="none" stroke="midnightblue" d="M443.344,-76.4022C450.897,-73.9463 458.326,-70.865 465,-67 485.132,-55.3407 481.122,-41.0877 501,-29 504.553,-26.8394 508.363,-24.9148 512.294,-23.2021"/>
<polygon fill="midnightblue" stroke="midnightblue" points="513.567,-26.4624 521.621,-19.5789 511.032,-19.9375 513.567,-26.4624"/>
</g>
<!-- Node11&#45;&gt;Node5 -->
<g id="edge15" class="edge"><title>Node11&#45;&gt;Node5</title>
<path fill="none" stroke="midnightblue" d="M465.288,-121.303C582.649,-118.398 797.071,-117.689 867,-148 893.061,-159.296 915.271,-184.231 928.255,-201.328"/>
<polygon fill="midnightblue" stroke="midnightblue" points="925.453,-203.426 934.175,-209.441 931.107,-199.299 925.453,-203.426"/>
</g>
<!-- Node12 -->
<g id="node12" class="node"><title>Node12</title>
<g id="a_node12"><a xlink:href="a00359.html#ga87209537d51f069fee02bc224da492cb" target="_top" xlink:title="Allow for maximum possible size of converted data, while being careful about integer division truncat...">
<polygon fill="white" stroke="black" points="501,-76.5 501,-95.5 635,-95.5 635,-76.5 501,-76.5"/>
<text text-anchor="middle" x="568" y="-83.5" font-family="Helvetica,sans-Serif" font-size="10.00">determine_adjusted_size</text>
</a>
</g>
</g>
<!-- Node11&#45;&gt;Node12 -->
<g id="edge14" class="edge"><title>Node11&#45;&gt;Node12</title>
<path fill="none" stroke="midnightblue" d="M432.048,-114.411C456.296,-109.306 486.304,-102.989 511.861,-97.6082"/>
<polygon fill="midnightblue" stroke="midnightblue" points="512.715,-101.005 521.78,-95.5201 511.273,-94.1553 512.715,-101.005"/>
</g>
<!-- Node13&#45;&gt;Node3 -->
<g id="edge18" class="edge"><title>Node13&#45;&gt;Node3</title>
<path fill="none" stroke="midnightblue" d="M423.89,-220.728C438.191,-223.125 453.75,-228.073 465,-238 498.856,-267.875 463.844,-307.346 501,-333 548.72,-365.948 619.182,-356.121 662.754,-345.168"/>
<polygon fill="midnightblue" stroke="midnightblue" points="663.92,-348.48 672.689,-342.534 662.126,-341.714 663.92,-348.48"/>
</g>
<!-- Node14 -->
<g id="node14" class="node"><title>Node14</title>
<g id="a_node14"><a xlink:href="a00358.html#ga6aa14b8b717b51afcfb65bd55143689d" target="_top" xlink:title="allocate space for length char ">
<polygon fill="white" stroke="black" points="526.5,-228.5 526.5,-247.5 609.5,-247.5 609.5,-228.5 526.5,-228.5"/>
<text text-anchor="middle" x="568" y="-235.5" font-family="Helvetica,sans-Serif" font-size="10.00">tds_dstr_alloc</text>
</a>
</g>
</g>
<!-- Node13&#45;&gt;Node14 -->
<g id="edge17" class="edge"><title>Node13&#45;&gt;Node14</title>
<path fill="none" stroke="midnightblue" d="M423.9,-222.937C450.595,-225.747 486.815,-229.559 516.135,-232.646"/>
<polygon fill="midnightblue" stroke="midnightblue" points="515.88,-236.138 526.192,-233.704 516.613,-229.177 515.88,-236.138"/>
</g>
<!-- Node15 -->
<g id="node15" class="node"><title>Node15</title>
<g id="a_node15"><a xlink:href="a00357.html#ga90f080e6e9448feac15dee1370d66802" target="_top" xlink:title="Fetch a string from the wire. ">
<polygon fill="white" stroke="red" points="526,-304.5 526,-323.5 610,-323.5 610,-304.5 526,-304.5"/>
<text text-anchor="middle" x="568" y="-311.5" font-family="Helvetica,sans-Serif" font-size="10.00">tds_get_string</text>
</a>
</g>
</g>
<!-- Node13&#45;&gt;Node15 -->
<g id="edge19" class="edge"><title>Node13&#45;&gt;Node15</title>
<path fill="none" stroke="midnightblue" d="M423.886,-224.842C437.257,-227.755 452.18,-231.982 465,-238 497.737,-253.369 530.331,-280.176 549.568,-297.497"/>
<polygon fill="midnightblue" stroke="midnightblue" points="547.455,-300.309 557.188,-304.496 552.191,-295.154 547.455,-300.309"/>
</g>
<!-- Node16 -->
<g id="node16" class="node"><title>Node16</title>
<g id="a_node16"><a xlink:href="a00358.html#ga0cd7863ba7c2d2da4a193234472a3d14" target="_top" xlink:title="limit length of string, MUST be &lt;= current length ">
<polygon fill="white" stroke="black" points="523.5,-190.5 523.5,-209.5 612.5,-209.5 612.5,-190.5 523.5,-190.5"/>
<text text-anchor="middle" x="568" y="-197.5" font-family="Helvetica,sans-Serif" font-size="10.00">tds_dstr_setlen</text>
</a>
</g>
</g>
<!-- Node13&#45;&gt;Node16 -->
<g id="edge21" class="edge"><title>Node13&#45;&gt;Node16</title>
<path fill="none" stroke="midnightblue" d="M423.9,-215.063C449.65,-212.353 484.264,-208.709 512.999,-205.684"/>
<polygon fill="midnightblue" stroke="midnightblue" points="513.713,-209.129 523.292,-204.601 512.98,-202.167 513.713,-209.129"/>
</g>
<!-- Node15&#45;&gt;Node3 -->
<g id="edge20" class="edge"><title>Node15&#45;&gt;Node3</title>
<path fill="none" stroke="midnightblue" d="M610.353,-319.908C626.366,-322.195 644.662,-324.809 660.673,-327.096"/>
<polygon fill="midnightblue" stroke="midnightblue" points="660.423,-330.596 670.817,-328.545 661.413,-323.666 660.423,-330.596"/>
</g>
<!-- Node19 -->
<g id="node19" class="node"><title>Node19</title>
<g id="a_node19"><a xlink:href="a00358.html#ga656718f240d7403f986ae887d84a6ca1" target="_top" xlink:title="Set string to a given buffer of characters. ">
<polygon fill="white" stroke="black" points="341,-0.5 341,-19.5 430,-19.5 430,-0.5 341,-0.5"/>
<text text-anchor="middle" x="385.5" y="-7.5" font-family="Helvetica,sans-Serif" font-size="10.00">tds_dstr_copyn</text>
</a>
</g>
</g>
<!-- Node18&#45;&gt;Node19 -->
<g id="edge25" class="edge"><title>Node18&#45;&gt;Node19</title>
<path fill="none" stroke="midnightblue" d="M256.017,-128.418C261.137,-125.955 265.989,-122.868 270,-119 301.011,-89.0946 273.438,-57.2084 306,-29 313.083,-22.8644 321.817,-18.6374 330.858,-15.7406"/>
<polygon fill="midnightblue" stroke="midnightblue" points="331.974,-19.0649 340.725,-13.092 330.159,-12.3042 331.974,-19.0649"/>
</g>
</g>
</svg>
