<?xml version="1.0" encoding="UTF-8" standalone="no"?>
<!DOCTYPE svg PUBLIC "-//W3C//DTD SVG 1.1//EN"
 "http://www.w3.org/Graphics/SVG/1.1/DTD/svg11.dtd">
<!-- Generated by graphviz version 2.38.0 (20140413.2041)
 -->
<!-- Title: tds_get_data_info Pages: 1 -->
<svg width="1066pt" height="496pt"
 viewBox="0.00 0.00 1066.00 496.00" xmlns="http://www.w3.org/2000/svg" xmlns:xlink="http://www.w3.org/1999/xlink">
<g id="graph0" class="graph" transform="scale(1 1) rotate(0) translate(4 492)">
<title>tds_get_data_info</title>
<polygon fill="white" stroke="none" points="-4,4 -4,-492 1062,-492 1062,4 -4,4"/>
<!-- Node1 -->
<g id="node1" class="node"><title>Node1</title>
<polygon fill="#bfbfbf" stroke="black" points="0,-228.5 0,-247.5 102,-247.5 102,-228.5 0,-228.5"/>
<text text-anchor="middle" x="51" y="-235.5" font-family="Helvetica,sans-Serif" font-size="10.00">tds_get_data_info</text>
</g>
<!-- Node2 -->
<g id="node2" class="node"><title>Node2</title>
<g id="a_node2"><a xlink:href="a00359.html#gacb3354443bcefe7a500a500a4904cc05" target="_top" xlink:title="process output parameters of a stored procedure. ">
<polygon fill="white" stroke="black" points="138,-272.5 138,-291.5 280,-291.5 280,-272.5 138,-272.5"/>
<text text-anchor="middle" x="209" y="-279.5" font-family="Helvetica,sans-Serif" font-size="10.00">tds_process_param_result</text>
</a>
</g>
</g>
<!-- Node1&#45;&gt;Node2 -->
<g id="edge1" class="edge"><title>Node1&#45;&gt;Node2</title>
<path fill="none" stroke="midnightblue" d="M95.7551,-250.341C120.602,-257.349 151.233,-265.989 174.216,-272.471"/>
<polygon fill="midnightblue" stroke="midnightblue" points="96.4243,-246.893 85.8497,-247.547 94.524,-253.631 96.4243,-246.893"/>
</g>
<!-- Node19 -->
<g id="node19" class="node"><title>Node19</title>
<g id="a_node19"><a xlink:href="a00359.html#ga9a101b8bbd978e22ec7306491e5554c7" target="_top" xlink:title="tds_process_result() is the TDS 5.0 result set processing routine. ">
<polygon fill="white" stroke="black" points="334,-228.5 334,-247.5 440,-247.5 440,-228.5 334,-228.5"/>
<text text-anchor="middle" x="387" y="-235.5" font-family="Helvetica,sans-Serif" font-size="10.00">tds_process_result</text>
</a>
</g>
</g>
<!-- Node1&#45;&gt;Node19 -->
<g id="edge22" class="edge"><title>Node1&#45;&gt;Node19</title>
<path fill="none" stroke="midnightblue" d="M112.216,-238C175.396,-238 273.699,-238 333.726,-238"/>
<polygon fill="midnightblue" stroke="midnightblue" points="112.003,-234.5 102.003,-238 112.003,-241.5 112.003,-234.5"/>
</g>
<!-- Node20 -->
<g id="node20" class="node"><title>Node20</title>
<g id="a_node20"><a xlink:href="a00359.html#ga416cf119c1d4a0fca27dc5b50c261358" target="_top" xlink:title="Process results from dynamic. ">
<polygon fill="white" stroke="black" points="322.5,-190.5 322.5,-209.5 451.5,-209.5 451.5,-190.5 322.5,-190.5"/>
<text text-anchor="middle" x="387" y="-197.5" font-family="Helvetica,sans-Serif" font-size="10.00">tds_process_dyn_result</text>
</a>
</g>
</g>
<!-- Node1&#45;&gt;Node20 -->
<g id="edge25" class="edge"><title>Node1&#45;&gt;Node20</title>
<path fill="none" stroke="midnightblue" d="M111.968,-231.177C171.249,-224.433 261.628,-214.15 322.205,-207.258"/>
<polygon fill="midnightblue" stroke="midnightblue" points="111.543,-227.703 102.003,-232.311 112.335,-234.658 111.543,-227.703"/>
</g>
<!-- Node3 -->
<g id="node3" class="node"><title>Node3</title>
<g id="a_node3"><a xlink:href="a00359.html#gabfc9de1d1fe718818caf63a4be4035a6" target="_top" xlink:title="process all streams. ">
<polygon fill="white" stroke="black" points="642,-240.5 642,-259.5 754,-259.5 754,-240.5 642,-240.5"/>
<text text-anchor="middle" x="698" y="-247.5" font-family="Helvetica,sans-Serif" font-size="10.00">tds_process_tokens</text>
</a>
</g>
</g>
<!-- Node2&#45;&gt;Node3 -->
<g id="edge2" class="edge"><title>Node2&#45;&gt;Node3</title>
<path fill="none" stroke="midnightblue" d="M253.442,-294.132C272.475,-298.848 295.177,-303.672 316,-306 444.605,-320.377 480.496,-311.536 606,-280 628.426,-274.365 653.326,-266.005 671.403,-259.54"/>
<polygon fill="midnightblue" stroke="midnightblue" points="254.122,-290.693 243.567,-291.614 252.392,-297.476 254.122,-290.693"/>
</g>
<!-- Node17 -->
<g id="node17" class="node"><title>Node17</title>
<g id="a_node17"><a xlink:href="a00359.html#ga9fdef8228d29cab7fa9098f07fa73fba" target="_top" xlink:title="Process parameters from networks. ">
<polygon fill="white" stroke="black" points="316,-267 316,-297 458,-297 458,-267 316,-267"/>
<text text-anchor="start" x="324" y="-285" font-family="Helvetica,sans-Serif" font-size="10.00">tds_process_param_result</text>
<text text-anchor="middle" x="387" y="-274" font-family="Helvetica,sans-Serif" font-size="10.00">_tokens</text>
</a>
</g>
</g>
<!-- Node2&#45;&gt;Node17 -->
<g id="edge18" class="edge"><title>Node2&#45;&gt;Node17</title>
<path fill="none" stroke="midnightblue" d="M290.101,-282C298.706,-282 307.412,-282 315.888,-282"/>
<polygon fill="midnightblue" stroke="midnightblue" points="290.066,-278.5 280.066,-282 290.066,-285.5 290.066,-278.5"/>
</g>
<!-- Node4 -->
<g id="node4" class="node"><title>Node4</title>
<g id="a_node4"><a xlink:href="a00344.html#gae67546338cb9542a4902aa914f57f314" target="_top" xlink:title="_bcp_exec_out">
<polygon fill="white" stroke="red" points="801.5,-468.5 801.5,-487.5 889.5,-487.5 889.5,-468.5 801.5,-468.5"/>
<text text-anchor="middle" x="845.5" y="-475.5" font-family="Helvetica,sans-Serif" font-size="10.00">_bcp_exec_out</text>
</a>
</g>
</g>
<!-- Node3&#45;&gt;Node4 -->
<g id="edge3" class="edge"><title>Node3&#45;&gt;Node4</title>
<path fill="none" stroke="midnightblue" d="M702.171,-269.774C709.777,-310.852 732.855,-405.999 790,-459 794.188,-462.884 799.212,-465.98 804.494,-468.447"/>
<polygon fill="midnightblue" stroke="midnightblue" points="705.617,-269.165 700.454,-259.913 698.721,-270.365 705.617,-269.165"/>
</g>
<!-- Node5 -->
<g id="node5" class="node"><title>Node5</title>
<g id="a_node5"><a xlink:href="a00341.html#gaf1879b85e8238c015b9648d077665285" target="_top" xlink:title="_dbresults">
<polygon fill="white" stroke="red" points="813,-430.5 813,-449.5 878,-449.5 878,-430.5 813,-430.5"/>
<text text-anchor="middle" x="845.5" y="-437.5" font-family="Helvetica,sans-Serif" font-size="10.00">_dbresults</text>
</a>
</g>
</g>
<!-- Node3&#45;&gt;Node5 -->
<g id="edge4" class="edge"><title>Node3&#45;&gt;Node5</title>
<path fill="none" stroke="midnightblue" d="M704.288,-269.726C714.748,-305.058 741.385,-379.332 790,-421 796.543,-426.608 804.84,-430.592 812.975,-433.411"/>
<polygon fill="midnightblue" stroke="midnightblue" points="707.545,-268.381 701.453,-259.713 700.809,-270.288 707.545,-268.381"/>
</g>
<!-- Node6 -->
<g id="node6" class="node"><title>Node6</title>
<g id="a_node6"><a xlink:href="a00342.html#gaff09873008411a0573f6d1a9e6c7cf4b" target="_top" xlink:title="Get count of output parameters filled by a stored procedure. ">
<polygon fill="white" stroke="red" points="813,-392.5 813,-411.5 878,-411.5 878,-392.5 813,-392.5"/>
<text text-anchor="middle" x="845.5" y="-399.5" font-family="Helvetica,sans-Serif" font-size="10.00">dbnumrets</text>
</a>
</g>
</g>
<!-- Node3&#45;&gt;Node6 -->
<g id="edge5" class="edge"><title>Node3&#45;&gt;Node6</title>
<path fill="none" stroke="midnightblue" d="M707.151,-268.885C720.442,-297.545 749.431,-351.96 790,-383 796.685,-388.115 804.851,-391.918 812.806,-394.721"/>
<polygon fill="midnightblue" stroke="midnightblue" points="710.263,-267.271 702.972,-259.583 703.877,-270.139 710.263,-267.271"/>
</g>
<!-- Node7 -->
<g id="node7" class="node"><title>Node7</title>
<g id="a_node7"><a xlink:href="a00341.html#gae1f50a6a2c31fda57cb481922b06841e" target="_top" xlink:title="Wait for results of a query from the server. ">
<polygon fill="white" stroke="red" points="819,-354.5 819,-373.5 872,-373.5 872,-354.5 819,-354.5"/>
<text text-anchor="middle" x="845.5" y="-361.5" font-family="Helvetica,sans-Serif" font-size="10.00">dbsqlok</text>
</a>
</g>
</g>
<!-- Node3&#45;&gt;Node7 -->
<g id="edge6" class="edge"><title>Node3&#45;&gt;Node7</title>
<path fill="none" stroke="midnightblue" d="M713.149,-267.414C729.853,-287.093 759.272,-319.098 790,-340 798.805,-345.989 809.347,-351.044 818.803,-354.947"/>
<polygon fill="midnightblue" stroke="midnightblue" points="715.696,-265.004 706.605,-259.563 710.319,-269.486 715.696,-265.004"/>
</g>
<!-- Node8 -->
<g id="node8" class="node"><title>Node8</title>
<g id="a_node8"><a xlink:href="a00341.html#ga548153eb2eae76c48aa9d4b72258dc1c" target="_top" xlink:title="Send text or image data to the server. ">
<polygon fill="white" stroke="black" points="963.5,-335.5 963.5,-354.5 1031.5,-354.5 1031.5,-335.5 963.5,-335.5"/>
<text text-anchor="middle" x="997.5" y="-342.5" font-family="Helvetica,sans-Serif" font-size="10.00">dbwritetext</text>
</a>
</g>
</g>
<!-- Node3&#45;&gt;Node8 -->
<g id="edge9" class="edge"><title>Node3&#45;&gt;Node8</title>
<path fill="none" stroke="midnightblue" d="M719.223,-265.824C736.915,-278.867 763.811,-296.819 790,-307 848.438,-329.719 921.567,-339.063 963.267,-342.749"/>
<polygon fill="midnightblue" stroke="midnightblue" points="720.954,-262.746 710.863,-259.518 716.739,-268.335 720.954,-262.746"/>
</g>
<!-- Node9 -->
<g id="node9" class="node"><title>Node9</title>
<g id="a_node9"><a xlink:href="a00341.html#ga559e24ba70d0d96c3469eb6ab8f74e05" target="_top" xlink:title="Cancel the query currently being retrieved, discarding all pending rows. ">
<polygon fill="white" stroke="red" points="810,-278.5 810,-297.5 881,-297.5 881,-278.5 810,-278.5"/>
<text text-anchor="middle" x="845.5" y="-285.5" font-family="Helvetica,sans-Serif" font-size="10.00">dbcanquery</text>
</a>
</g>
</g>
<!-- Node3&#45;&gt;Node9 -->
<g id="edge8" class="edge"><title>Node3&#45;&gt;Node9</title>
<path fill="none" stroke="midnightblue" d="M745.642,-262.181C766.473,-267.622 790.597,-273.922 809.799,-278.937"/>
<polygon fill="midnightblue" stroke="midnightblue" points="746.276,-258.73 735.716,-259.589 744.507,-265.502 746.276,-258.73"/>
</g>
<!-- Node10 -->
<g id="node10" class="node"><title>Node10</title>
<g id="a_node10"><a xlink:href="a00341.html#gadd5685565c8c6c86079e17b8a73b324c" target="_top" xlink:title="Fetch part of a text or image value from the server. ">
<polygon fill="white" stroke="black" points="812,-240.5 812,-259.5 879,-259.5 879,-240.5 812,-240.5"/>
<text text-anchor="middle" x="845.5" y="-247.5" font-family="Helvetica,sans-Serif" font-size="10.00">dbreadtext</text>
</a>
</g>
</g>
<!-- Node3&#45;&gt;Node10 -->
<g id="edge10" class="edge"><title>Node3&#45;&gt;Node10</title>
<path fill="none" stroke="midnightblue" d="M764.178,-250C780.672,-250 797.691,-250 811.793,-250"/>
<polygon fill="midnightblue" stroke="midnightblue" points="764.007,-246.5 754.007,-250 764.007,-253.5 764.007,-246.5"/>
</g>
<!-- Node11 -->
<g id="node11" class="node"><title>Node11</title>
<g id="a_node11"><a xlink:href="a00341.html#gac980139b9cea03cf93e373d425991481" target="_top" xlink:title="Transmit the command buffer to the server. ">
<polygon fill="white" stroke="red" points="813,-202.5 813,-221.5 878,-221.5 878,-202.5 813,-202.5"/>
<text text-anchor="middle" x="845.5" y="-209.5" font-family="Helvetica,sans-Serif" font-size="10.00">dbsqlsend</text>
</a>
</g>
</g>
<!-- Node3&#45;&gt;Node11 -->
<g id="edge11" class="edge"><title>Node3&#45;&gt;Node11</title>
<path fill="none" stroke="midnightblue" d="M745.503,-237.855C767.442,-232.125 793.06,-225.435 812.738,-220.295"/>
<polygon fill="midnightblue" stroke="midnightblue" points="744.507,-234.498 735.716,-240.411 746.276,-241.27 744.507,-234.498"/>
</g>
<!-- Node12 -->
<g id="node12" class="node"><title>Node12</title>
<g id="a_node12"><a xlink:href="a00356.html#gaf0da49585d39e99780a004ee2ca23479" target="_top" xlink:title="Send option commands to server. ">
<polygon fill="white" stroke="black" points="937,-136.5 937,-155.5 1058,-155.5 1058,-136.5 937,-136.5"/>
<text text-anchor="middle" x="997.5" y="-143.5" font-family="Helvetica,sans-Serif" font-size="10.00">tds_submit_optioncmd</text>
</a>
</g>
</g>
<!-- Node3&#45;&gt;Node12 -->
<g id="edge12" class="edge"><title>Node3&#45;&gt;Node12</title>
<path fill="none" stroke="midnightblue" d="M708.147,-231.467C721.89,-205.994 750.527,-161.248 790,-143 845.164,-117.499 917.806,-127.082 960.598,-136.47"/>
<polygon fill="midnightblue" stroke="midnightblue" points="704.967,-229.996 703.47,-240.485 711.181,-233.219 704.967,-229.996"/>
</g>
<!-- Node13 -->
<g id="node13" class="node"><title>Node13</title>
<g id="a_node13"><a xlink:href="a00193.html#ac6610c72bd31bad5378f760fa9b12d66" target="_top" xlink:title="Initialize BCP information. ">
<polygon fill="white" stroke="red" points="809,-76.5 809,-95.5 882,-95.5 882,-76.5 809,-76.5"/>
<text text-anchor="middle" x="845.5" y="-83.5" font-family="Helvetica,sans-Serif" font-size="10.00">tds_bcp_init</text>
</a>
</g>
</g>
<!-- Node3&#45;&gt;Node13 -->
<g id="edge13" class="edge"><title>Node3&#45;&gt;Node13</title>
<path fill="none" stroke="midnightblue" d="M707.017,-230.95C720.3,-201.429 749.48,-144.451 790,-110 797.089,-103.973 805.929,-99.2173 814.414,-95.5841"/>
<polygon fill="midnightblue" stroke="midnightblue" points="703.645,-229.926 702.852,-240.491 710.06,-232.727 703.645,-229.926"/>
</g>
<!-- Node14 -->
<g id="node14" class="node"><title>Node14</title>
<g id="a_node14"><a xlink:href="a00359.html#ga55f27c3e05d42c9b07ace1c74b11c5ab" target="_top" xlink:title="Retrieve and set @spid. ">
<polygon fill="white" stroke="red" points="807,-38.5 807,-57.5 884,-57.5 884,-38.5 807,-38.5"/>
<text text-anchor="middle" x="845.5" y="-45.5" font-family="Helvetica,sans-Serif" font-size="10.00">tds_set_spid</text>
</a>
</g>
</g>
<!-- Node3&#45;&gt;Node14 -->
<g id="edge14" class="edge"><title>Node3&#45;&gt;Node14</title>
<path fill="none" stroke="midnightblue" d="M703.482,-230.451C712.983,-193.324 738.616,-112.285 790,-67 794.886,-62.6936 800.805,-59.3491 806.916,-56.7558"/>
<polygon fill="midnightblue" stroke="midnightblue" points="700.006,-229.931 701.041,-240.475 706.808,-231.587 700.006,-229.931"/>
</g>
<!-- Node15 -->
<g id="node15" class="node"><title>Node15</title>
<g id="a_node15"><a xlink:href="a00359.html#gaeeb1562044786ea17bea361ed83e6946" target="_top" xlink:title="Process results for simple query as &quot;SET TEXTSIZE&quot; or &quot;USE dbname&quot; If the statement returns results...">
<polygon fill="white" stroke="red" points="790.5,-153 790.5,-183 900.5,-183 900.5,-153 790.5,-153"/>
<text text-anchor="start" x="798.5" y="-171" font-family="Helvetica,sans-Serif" font-size="10.00">tds_process_simple</text>
<text text-anchor="middle" x="845.5" y="-160" font-family="Helvetica,sans-Serif" font-size="10.00">_query</text>
</a>
</g>
</g>
<!-- Node3&#45;&gt;Node15 -->
<g id="edge15" class="edge"><title>Node3&#45;&gt;Node15</title>
<path fill="none" stroke="midnightblue" d="M721.841,-234.537C739.955,-222.559 766.11,-205.891 790,-193 796.321,-189.589 803.194,-186.201 809.862,-183.07"/>
<polygon fill="midnightblue" stroke="midnightblue" points="719.535,-231.868 713.156,-240.328 723.418,-237.692 719.535,-231.868"/>
</g>
<!-- Node16 -->
<g id="node16" class="node"><title>Node16</title>
<g id="a_node16"><a xlink:href="a00359.html#gaf233e79967f82f4e0dd4d11524917a34" target="_top" xlink:title="tds_process_cancel">
<polygon fill="white" stroke="red" points="790,-0.5 790,-19.5 901,-19.5 901,-0.5 790,-0.5"/>
<text text-anchor="middle" x="845.5" y="-7.5" font-family="Helvetica,sans-Serif" font-size="10.00">tds_process_cancel</text>
</a>
</g>
</g>
<!-- Node3&#45;&gt;Node16 -->
<g id="edge17" class="edge"><title>Node3&#45;&gt;Node16</title>
<path fill="none" stroke="midnightblue" d="M701.585,-230.579C708.261,-188.02 729.965,-85.8117 790,-29 794.076,-25.1431 798.976,-22.0644 804.146,-19.608"/>
<polygon fill="midnightblue" stroke="midnightblue" points="698.121,-230.084 700.139,-240.484 705.047,-231.095 698.121,-230.084"/>
</g>
<!-- Node7&#45;&gt;Node8 -->
<g id="edge7" class="edge"><title>Node7&#45;&gt;Node8</title>
<path fill="none" stroke="midnightblue" d="M882.316,-359.463C906.951,-356.343 939.428,-352.229 963.446,-349.187"/>
<polygon fill="midnightblue" stroke="midnightblue" points="881.767,-356.005 872.286,-360.734 882.646,-362.949 881.767,-356.005"/>
</g>
<!-- Node15&#45;&gt;Node12 -->
<g id="edge16" class="edge"><title>Node15&#45;&gt;Node12</title>
<path fill="none" stroke="midnightblue" d="M910.714,-158.582C919.384,-157.31 928.252,-156.01 936.839,-154.75"/>
<polygon fill="midnightblue" stroke="midnightblue" points="910.04,-155.143 900.653,-160.057 911.056,-162.069 910.04,-155.143"/>
</g>
<!-- Node17&#45;&gt;Node3 -->
<g id="edge21" class="edge"><title>Node17&#45;&gt;Node3</title>
<path fill="none" stroke="midnightblue" d="M468.089,-273.706C522.557,-268.065 593.234,-260.746 641.556,-255.742"/>
<polygon fill="midnightblue" stroke="midnightblue" points="467.703,-270.227 458.117,-274.739 468.424,-277.19 467.703,-270.227"/>
</g>
<!-- Node18 -->
<g id="node18" class="node"><title>Node18</title>
<g id="a_node18"><a xlink:href="a00359.html#ga39453d084f3f780ac4602d4abf2839f7" target="_top" xlink:title="tds_process_default_tokens() is a catch all function that is called to process tokens not known to ot...">
<polygon fill="white" stroke="red" points="494,-191 494,-221 606,-221 606,-191 494,-191"/>
<text text-anchor="start" x="502" y="-209" font-family="Helvetica,sans-Serif" font-size="10.00">tds_process_default</text>
<text text-anchor="middle" x="550" y="-198" font-family="Helvetica,sans-Serif" font-size="10.00">_tokens</text>
</a>
</g>
</g>
<!-- Node17&#45;&gt;Node18 -->
<g id="edge19" class="edge"><title>Node17&#45;&gt;Node18</title>
<path fill="none" stroke="midnightblue" d="M443.29,-263.238C448.308,-261.24 453.276,-259.149 458,-257 481.244,-246.426 506.489,-232.029 524.479,-221.227"/>
<polygon fill="midnightblue" stroke="midnightblue" points="441.705,-260.098 433.63,-266.956 444.219,-266.63 441.705,-260.098"/>
</g>
<!-- Node18&#45;&gt;Node3 -->
<g id="edge20" class="edge"><title>Node18&#45;&gt;Node3</title>
<path fill="none" stroke="midnightblue" d="M610.494,-223.93C629.229,-229.576 649.194,-235.593 665.218,-240.422"/>
<polygon fill="midnightblue" stroke="midnightblue" points="611.421,-220.554 600.837,-221.019 609.401,-227.256 611.421,-220.554"/>
</g>
<!-- Node19&#45;&gt;Node3 -->
<g id="edge24" class="edge"><title>Node19&#45;&gt;Node3</title>
<path fill="none" stroke="midnightblue" d="M450.233,-240.417C506.333,-242.595 588.047,-245.769 641.849,-247.858"/>
<polygon fill="midnightblue" stroke="midnightblue" points="450.197,-236.913 440.068,-240.022 449.925,-243.908 450.197,-236.913"/>
</g>
<!-- Node19&#45;&gt;Node18 -->
<g id="edge23" class="edge"><title>Node19&#45;&gt;Node18</title>
<path fill="none" stroke="midnightblue" d="M445.946,-226.483C461.594,-223.373 478.478,-220.017 493.962,-216.939"/>
<polygon fill="midnightblue" stroke="midnightblue" points="444.995,-223.103 435.869,-228.486 446.36,-229.969 444.995,-223.103"/>
</g>
<!-- Node20&#45;&gt;Node3 -->
<g id="edge27" class="edge"><title>Node20&#45;&gt;Node3</title>
<path fill="none" stroke="midnightblue" d="M426.188,-187.579C470.596,-175.184 545.533,-160.668 606,-181 641.33,-192.88 673.846,-224.523 688.627,-240.496"/>
<polygon fill="midnightblue" stroke="midnightblue" points="425.017,-184.274 416.387,-190.42 426.966,-190.998 425.017,-184.274"/>
</g>
<!-- Node20&#45;&gt;Node18 -->
<g id="edge26" class="edge"><title>Node20&#45;&gt;Node18</title>
<path fill="none" stroke="midnightblue" d="M461.885,-202.753C472.657,-203.155 483.588,-203.562 493.899,-203.947"/>
<polygon fill="midnightblue" stroke="midnightblue" points="461.755,-199.246 451.631,-202.371 461.494,-206.241 461.755,-199.246"/>
</g>
</g>
</svg>
