<?xml version="1.0" encoding="UTF-8" standalone="no"?>
<!DOCTYPE svg PUBLIC "-//W3C//DTD SVG 1.1//EN"
 "http://www.w3.org/Graphics/SVG/1.1/DTD/svg11.dtd">
<!-- Generated by graphviz version 2.38.0 (20140413.2041)
 -->
<!-- Title: tds_process_compute_result Pages: 1 -->
<svg width="839pt" height="272pt"
 viewBox="0.00 0.00 839.00 272.10" xmlns="http://www.w3.org/2000/svg" xmlns:xlink="http://www.w3.org/1999/xlink">
<g id="graph0" class="graph" transform="scale(1 1) rotate(0) translate(4 268.104)">
<title>tds_process_compute_result</title>
<polygon fill="white" stroke="none" points="-4,4 -4,-268.104 835,-268.104 835,4 -4,4"/>
<!-- Node1 -->
<g id="node1" class="node"><title>Node1</title>
<polygon fill="#bfbfbf" stroke="black" points="0,-126.136 0,-156.136 120,-156.136 120,-126.136 0,-126.136"/>
<text text-anchor="start" x="8" y="-144.136" font-family="Helvetica,sans-Serif" font-size="10.00">tds_process_compute</text>
<text text-anchor="middle" x="60" y="-133.136" font-family="Helvetica,sans-Serif" font-size="10.00">_result</text>
</g>
<!-- Node2 -->
<g id="node2" class="node"><title>Node2</title>
<g id="a_node2"><a xlink:href="a00357.html#ga0cb72d3f6943795c39db1fa692be0a58" target="_top" xlink:title="Return a single byte from the input buffer. ">
<polygon fill="white" stroke="black" points="197,-169.636 197,-188.636 274,-188.636 274,-169.636 197,-169.636"/>
<text text-anchor="middle" x="235.5" y="-176.636" font-family="Helvetica,sans-Serif" font-size="10.00">tds_get_byte</text>
</a>
</g>
</g>
<!-- Node1&#45;&gt;Node2 -->
<g id="edge1" class="edge"><title>Node1&#45;&gt;Node2</title>
<path fill="none" stroke="midnightblue" d="M120.224,-154.107C142.073,-158.893 166.522,-164.247 187.182,-168.772"/>
<polygon fill="midnightblue" stroke="midnightblue" points="186.474,-172.2 196.991,-170.921 187.971,-165.362 186.474,-172.2"/>
</g>
<!-- Node4 -->
<g id="node4" class="node"><title>Node4</title>
<g id="a_node4"><a xlink:href="a00193.html#ab45c291105027e69836002e1dd586141" target="_top" xlink:title="Write a message to the debug log. ">
<polygon fill="white" stroke="black" points="754,-150.636 754,-169.636 831,-169.636 831,-150.636 754,-150.636"/>
<text text-anchor="middle" x="792.5" y="-157.636" font-family="Helvetica,sans-Serif" font-size="10.00">tdsdump_log</text>
</a>
</g>
</g>
<!-- Node1&#45;&gt;Node4 -->
<g id="edge9" class="edge"><title>Node1&#45;&gt;Node4</title>
<path fill="none" stroke="midnightblue" d="M70.7986,-156.298C86.0152,-178.356 117.609,-218.574 156,-236.136 261.766,-284.519 300.693,-255.136 417,-255.136 417,-255.136 417,-255.136 575.5,-255.136 652.921,-255.136 733.748,-203.364 770.76,-176.258"/>
<polygon fill="midnightblue" stroke="midnightblue" points="773.287,-178.738 779.197,-169.945 769.093,-173.134 773.287,-178.738"/>
</g>
<!-- Node8 -->
<g id="node8" class="node"><title>Node8</title>
<g id="a_node8"><a xlink:href="a00358.html#gad96366d9fa93bfc283cef1299fbe97ab" target="_top" xlink:title="copy a string from another ">
<polygon fill="white" stroke="black" points="194,-93.6359 194,-112.636 277,-112.636 277,-93.6359 194,-93.6359"/>
<text text-anchor="middle" x="235.5" y="-100.636" font-family="Helvetica,sans-Serif" font-size="10.00">tds_dstr_copy</text>
</a>
</g>
</g>
<!-- Node1&#45;&gt;Node8 -->
<g id="edge10" class="edge"><title>Node1&#45;&gt;Node8</title>
<path fill="none" stroke="midnightblue" d="M120.224,-128.165C140.966,-123.622 164.052,-118.565 184.013,-114.194"/>
<polygon fill="midnightblue" stroke="midnightblue" points="184.817,-117.601 193.837,-112.042 183.319,-110.763 184.817,-117.601"/>
</g>
<!-- Node10 -->
<g id="node10" class="node"><title>Node10</title>
<g id="a_node10"><a xlink:href="a00359.html#ga62dc14d21453e88e24880ee0acaca73a" target="_top" xlink:title="Returns string representation for a given operation. ">
<polygon fill="white" stroke="black" points="203,-131.636 203,-150.636 268,-150.636 268,-131.636 203,-131.636"/>
<text text-anchor="middle" x="235.5" y="-138.636" font-family="Helvetica,sans-Serif" font-size="10.00">tds_pr_op</text>
</a>
</g>
</g>
<!-- Node1&#45;&gt;Node10 -->
<g id="edge12" class="edge"><title>Node1&#45;&gt;Node10</title>
<path fill="none" stroke="midnightblue" d="M120.224,-141.136C144.014,-141.136 170.885,-141.136 192.591,-141.136"/>
<polygon fill="midnightblue" stroke="midnightblue" points="192.796,-144.636 202.796,-141.136 192.796,-137.636 192.796,-144.636"/>
</g>
<!-- Node11 -->
<g id="node11" class="node"><title>Node11</title>
<g id="a_node11"><a xlink:href="a00298.html#a7d6ccf355d1fc24711b5cd5bbc23a931" target="_top" xlink:title="Set type of column initializing all dependency. ">
<polygon fill="white" stroke="black" points="177.5,-55.6359 177.5,-74.6359 293.5,-74.6359 293.5,-55.6359 177.5,-55.6359"/>
<text text-anchor="middle" x="235.5" y="-62.6359" font-family="Helvetica,sans-Serif" font-size="10.00">tds_set_column_type</text>
</a>
</g>
</g>
<!-- Node1&#45;&gt;Node11 -->
<g id="edge13" class="edge"><title>Node1&#45;&gt;Node11</title>
<path fill="none" stroke="midnightblue" d="M81.9032,-126.047C100.529,-113.238 128.948,-95.2224 156,-84.1359 162.189,-81.5993 168.798,-79.3484 175.454,-77.3647"/>
<polygon fill="midnightblue" stroke="midnightblue" points="176.505,-80.7051 185.198,-74.6474 174.625,-73.9624 176.505,-80.7051"/>
</g>
<!-- Node14 -->
<g id="node14" class="node"><title>Node14</title>
<g id="a_node14"><a xlink:href="a00359.html#ga91770634ce8c0d6f1fe007b45da186fd" target="_top" xlink:title="Adjust column size according to client&#39;s encoding. ">
<polygon fill="white" stroke="black" points="156,-17.6359 156,-36.6359 315,-36.6359 315,-17.6359 156,-17.6359"/>
<text text-anchor="middle" x="235.5" y="-24.6359" font-family="Helvetica,sans-Serif" font-size="10.00">adjust_character_column_size</text>
</a>
</g>
</g>
<!-- Node1&#45;&gt;Node14 -->
<g id="edge16" class="edge"><title>Node1&#45;&gt;Node14</title>
<path fill="none" stroke="midnightblue" d="M71.7319,-126.068C87.6516,-104.875 119.591,-66.5701 156,-46.1359 160.138,-43.8133 164.554,-41.7727 169.103,-39.9802"/>
<polygon fill="midnightblue" stroke="midnightblue" points="170.311,-43.2655 178.577,-36.6383 167.982,-36.6641 170.311,-43.2655"/>
</g>
<!-- Node16 -->
<g id="node16" class="node"><title>Node16</title>
<g id="a_node16"><a xlink:href="a00357.html#gae7d9c4e1a079e1d0aa0252732631e8c4" target="_top" xlink:title="Get N bytes from the buffer and return them in the already allocated space given to us...">
<polygon fill="white" stroke="black" points="203.5,-207.636 203.5,-226.636 267.5,-226.636 267.5,-207.636 203.5,-207.636"/>
<text text-anchor="middle" x="235.5" y="-214.636" font-family="Helvetica,sans-Serif" font-size="10.00">tds_get_n</text>
</a>
</g>
</g>
<!-- Node1&#45;&gt;Node16 -->
<g id="edge19" class="edge"><title>Node1&#45;&gt;Node16</title>
<path fill="none" stroke="midnightblue" d="M81.9032,-156.225C100.529,-169.033 128.948,-187.049 156,-198.136 167.758,-202.955 181.029,-206.743 193.268,-209.626"/>
<polygon fill="midnightblue" stroke="midnightblue" points="192.73,-213.092 203.25,-211.838 194.244,-206.257 192.73,-213.092"/>
</g>
<!-- Node3 -->
<g id="node3" class="node"><title>Node3</title>
<g id="a_node3"><a xlink:href="a00357.html#ga410619783bdf2bb60b0f27a5578e0e07" target="_top" xlink:title="Read in one &#39;packet&#39; from the server. ">
<polygon fill="white" stroke="black" points="370,-169.636 370,-188.636 466,-188.636 466,-169.636 370,-169.636"/>
<text text-anchor="middle" x="418" y="-176.636" font-family="Helvetica,sans-Serif" font-size="10.00">tds_read_packet</text>
</a>
</g>
</g>
<!-- Node2&#45;&gt;Node3 -->
<g id="edge2" class="edge"><title>Node2&#45;&gt;Node3</title>
<path fill="none" stroke="midnightblue" d="M274.339,-179.136C299.105,-179.136 331.93,-179.136 359.85,-179.136"/>
<polygon fill="midnightblue" stroke="midnightblue" points="359.89,-182.636 369.89,-179.136 359.89,-175.636 359.89,-182.636"/>
</g>
<!-- Node3&#45;&gt;Node4 -->
<g id="edge3" class="edge"><title>Node3&#45;&gt;Node4</title>
<path fill="none" stroke="midnightblue" d="M466.177,-176.73C537.55,-173.089 672.225,-166.22 743.866,-162.566"/>
<polygon fill="midnightblue" stroke="midnightblue" points="744.155,-166.055 753.963,-162.05 743.798,-159.065 744.155,-166.055"/>
</g>
<!-- Node5 -->
<g id="node5" class="node"><title>Node5</title>
<g id="a_node5"><a xlink:href="a00193.html#abf18b98efef6ce2dc0b97d658a3a1918" target="_top" xlink:title="Call the client library&#39;s error handler (for library&#45;generated errors only) ">
<polygon fill="white" stroke="red" points="664,-131.636 664,-150.636 718,-150.636 718,-131.636 664,-131.636"/>
<text text-anchor="middle" x="691" y="-138.636" font-family="Helvetica,sans-Serif" font-size="10.00">tdserror</text>
</a>
</g>
</g>
<!-- Node3&#45;&gt;Node5 -->
<g id="edge4" class="edge"><title>Node3&#45;&gt;Node5</title>
<path fill="none" stroke="midnightblue" d="M466.205,-172.517C519.609,-165.028 605.423,-152.995 653.799,-146.212"/>
<polygon fill="midnightblue" stroke="midnightblue" points="654.398,-149.662 663.815,-144.808 653.426,-142.73 654.398,-149.662"/>
</g>
<!-- Node6 -->
<g id="node6" class="node"><title>Node6</title>
<g id="a_node6"><a xlink:href="a00357.html#ga3e3f76009fce5ceedb2f42bb2c9aed2e" target="_top" xlink:title="Close current socket for last socket close entire connection for MARS send FIN request. ">
<polygon fill="white" stroke="red" points="525.5,-93.6359 525.5,-112.636 623.5,-112.636 623.5,-93.6359 525.5,-93.6359"/>
<text text-anchor="middle" x="574.5" y="-100.636" font-family="Helvetica,sans-Serif" font-size="10.00">tds_close_socket</text>
</a>
</g>
</g>
<!-- Node3&#45;&gt;Node6 -->
<g id="edge6" class="edge"><title>Node3&#45;&gt;Node6</title>
<path fill="none" stroke="midnightblue" d="M462.759,-169.635C470.425,-167.113 478.136,-163.985 485,-160.136 503.931,-149.519 502.909,-139.128 521,-127.136 526.537,-123.466 532.726,-120.087 538.858,-117.096"/>
<polygon fill="midnightblue" stroke="midnightblue" points="540.727,-120.088 548.346,-112.726 537.799,-113.73 540.727,-120.088"/>
</g>
<!-- Node7 -->
<g id="node7" class="node"><title>Node7</title>
<g id="a_node7"><a xlink:href="a00193.html#a79449d2f35a8acc8ed0585044f75524d" target="_top" xlink:title="Dump the contents of data into the log file in a human readable format. ">
<polygon fill="white" stroke="black" points="521,-207.636 521,-226.636 628,-226.636 628,-207.636 521,-207.636"/>
<text text-anchor="middle" x="574.5" y="-214.636" font-family="Helvetica,sans-Serif" font-size="10.00">tdsdump_dump_buf</text>
</a>
</g>
</g>
<!-- Node3&#45;&gt;Node7 -->
<g id="edge8" class="edge"><title>Node3&#45;&gt;Node7</title>
<path fill="none" stroke="midnightblue" d="M457.987,-188.725C478.283,-193.717 503.293,-199.868 524.846,-205.169"/>
<polygon fill="midnightblue" stroke="midnightblue" points="524.247,-208.626 534.793,-207.616 525.919,-201.829 524.247,-208.626"/>
</g>
<!-- Node5&#45;&gt;Node4 -->
<g id="edge5" class="edge"><title>Node5&#45;&gt;Node4</title>
<path fill="none" stroke="midnightblue" d="M718.142,-146.128C726.091,-147.646 735.086,-149.363 743.986,-151.063"/>
<polygon fill="midnightblue" stroke="midnightblue" points="743.453,-154.524 753.932,-152.962 744.766,-147.648 743.453,-154.524"/>
</g>
<!-- Node6&#45;&gt;Node5 -->
<g id="edge7" class="edge"><title>Node6&#45;&gt;Node5</title>
<path fill="none" stroke="midnightblue" d="M604.393,-112.725C619.535,-117.75 638.218,-123.951 654.263,-129.276"/>
<polygon fill="midnightblue" stroke="midnightblue" points="653.264,-132.632 663.857,-132.46 655.468,-125.988 653.264,-132.632"/>
</g>
<!-- Node9 -->
<g id="node9" class="node"><title>Node9</title>
<g id="a_node9"><a xlink:href="a00358.html#ga656718f240d7403f986ae887d84a6ca1" target="_top" xlink:title="Set string to a given buffer of characters. ">
<polygon fill="white" stroke="black" points="373.5,-131.636 373.5,-150.636 462.5,-150.636 462.5,-131.636 373.5,-131.636"/>
<text text-anchor="middle" x="418" y="-138.636" font-family="Helvetica,sans-Serif" font-size="10.00">tds_dstr_copyn</text>
</a>
</g>
</g>
<!-- Node8&#45;&gt;Node9 -->
<g id="edge11" class="edge"><title>Node8&#45;&gt;Node9</title>
<path fill="none" stroke="midnightblue" d="M277.008,-111.664C302.558,-117.043 335.842,-124.05 363.546,-129.882"/>
<polygon fill="midnightblue" stroke="midnightblue" points="362.968,-133.337 373.475,-131.973 364.411,-126.488 362.968,-133.337"/>
</g>
<!-- Node12 -->
<g id="node12" class="node"><title>Node12</title>
<g id="a_node12"><a xlink:href="a00193.html#a68855f1251759a6b7338635306ab0041" target="_top" xlink:title="tds_get_varint_size() returns the size of a variable length integer returned in a TDS 7...">
<polygon fill="white" stroke="black" points="363.5,-55.6359 363.5,-74.6359 472.5,-74.6359 472.5,-55.6359 363.5,-55.6359"/>
<text text-anchor="middle" x="418" y="-62.6359" font-family="Helvetica,sans-Serif" font-size="10.00">tds_get_varint_size</text>
</a>
</g>
</g>
<!-- Node11&#45;&gt;Node12 -->
<g id="edge14" class="edge"><title>Node11&#45;&gt;Node12</title>
<path fill="none" stroke="midnightblue" d="M293.611,-65.1359C312.522,-65.1359 333.686,-65.1359 353.075,-65.1359"/>
<polygon fill="midnightblue" stroke="midnightblue" points="353.333,-68.636 363.333,-65.1359 353.333,-61.636 353.333,-68.636"/>
</g>
<!-- Node13 -->
<g id="node13" class="node"><title>Node13</title>
<g id="a_node13"><a xlink:href="a00193.html#aa70b02ff34ac03040ca41f13d5fd35bd" target="_top" xlink:title="Return the number of bytes needed by specified type. ">
<polygon fill="white" stroke="black" points="358.5,-93.6359 358.5,-112.636 477.5,-112.636 477.5,-93.6359 358.5,-93.6359"/>
<text text-anchor="middle" x="418" y="-100.636" font-family="Helvetica,sans-Serif" font-size="10.00">tds_get_size_by_type</text>
</a>
</g>
</g>
<!-- Node11&#45;&gt;Node13 -->
<g id="edge15" class="edge"><title>Node11&#45;&gt;Node13</title>
<path fill="none" stroke="midnightblue" d="M282.048,-74.7249C306.296,-79.8297 336.304,-86.1472 361.861,-91.5277"/>
<polygon fill="midnightblue" stroke="midnightblue" points="361.273,-94.9806 371.78,-93.6158 362.715,-88.1307 361.273,-94.9806"/>
</g>
<!-- Node14&#45;&gt;Node4 -->
<g id="edge18" class="edge"><title>Node14&#45;&gt;Node4</title>
<path fill="none" stroke="midnightblue" d="M272.817,-17.6004C321.685,-6.29362 411.021,8.9919 485,-8.13587 599.975,-34.7551 721.113,-111.619 769.585,-144.698"/>
<polygon fill="midnightblue" stroke="midnightblue" points="767.811,-147.726 778.03,-150.523 771.785,-141.964 767.811,-147.726"/>
</g>
<!-- Node15 -->
<g id="node15" class="node"><title>Node15</title>
<g id="a_node15"><a xlink:href="a00359.html#ga87209537d51f069fee02bc224da492cb" target="_top" xlink:title="Allow for maximum possible size of converted data, while being careful about integer division truncat...">
<polygon fill="white" stroke="black" points="351,-17.6359 351,-36.6359 485,-36.6359 485,-17.6359 351,-17.6359"/>
<text text-anchor="middle" x="418" y="-24.6359" font-family="Helvetica,sans-Serif" font-size="10.00">determine_adjusted_size</text>
</a>
</g>
</g>
<!-- Node14&#45;&gt;Node15 -->
<g id="edge17" class="edge"><title>Node14&#45;&gt;Node15</title>
<path fill="none" stroke="midnightblue" d="M315.145,-27.1359C323.587,-27.1359 332.168,-27.1359 340.584,-27.1359"/>
<polygon fill="midnightblue" stroke="midnightblue" points="340.747,-30.636 350.747,-27.1359 340.747,-23.636 340.747,-30.636"/>
</g>
<!-- Node16&#45;&gt;Node3 -->
<g id="edge20" class="edge"><title>Node16&#45;&gt;Node3</title>
<path fill="none" stroke="midnightblue" d="M267.529,-210.603C293.451,-205.146 331.042,-197.232 362.04,-190.706"/>
<polygon fill="midnightblue" stroke="midnightblue" points="362.785,-194.126 371.85,-188.641 361.343,-187.276 362.785,-194.126"/>
</g>
</g>
</svg>
