<?xml version="1.0" encoding="UTF-8" standalone="no"?>
<!DOCTYPE svg PUBLIC "-//W3C//DTD SVG 1.1//EN"
 "http://www.w3.org/Graphics/SVG/1.1/DTD/svg11.dtd">
<!-- Generated by graphviz version 2.38.0 (20140413.2041)
 -->
<!-- Title: tds_pr_op Pages: 1 -->
<svg width="687pt" height="496pt"
 viewBox="0.00 0.00 687.00 496.00" xmlns="http://www.w3.org/2000/svg" xmlns:xlink="http://www.w3.org/1999/xlink">
<g id="graph0" class="graph" transform="scale(1 1) rotate(0) translate(4 492)">
<title>tds_pr_op</title>
<polygon fill="white" stroke="none" points="-4,4 -4,-492 683,-492 683,4 -4,4"/>
<!-- Node1 -->
<g id="node1" class="node"><title>Node1</title>
<polygon fill="#bfbfbf" stroke="black" points="0,-240.5 0,-259.5 65,-259.5 65,-240.5 0,-240.5"/>
<text text-anchor="middle" x="32.5" y="-247.5" font-family="Helvetica,sans-Serif" font-size="10.00">tds_pr_op</text>
</g>
<!-- Node2 -->
<g id="node2" class="node"><title>Node2</title>
<g id="a_node2"><a xlink:href="a00359.html#gae3368ea80d0d8b13791ceb13ee5f19c9" target="_top" xlink:title="tds_process_compute_result() processes compute result sets. ">
<polygon fill="white" stroke="black" points="104,-260 104,-290 224,-290 224,-260 104,-260"/>
<text text-anchor="start" x="112" y="-278" font-family="Helvetica,sans-Serif" font-size="10.00">tds_process_compute</text>
<text text-anchor="middle" x="164" y="-267" font-family="Helvetica,sans-Serif" font-size="10.00">_result</text>
</a>
</g>
</g>
<!-- Node1&#45;&gt;Node2 -->
<g id="edge1" class="edge"><title>Node1&#45;&gt;Node2</title>
<path fill="none" stroke="midnightblue" d="M75.1552,-258.042C84.2983,-259.807 94.1485,-261.708 103.831,-263.577"/>
<polygon fill="midnightblue" stroke="midnightblue" points="75.6614,-254.575 65.1793,-256.116 74.3345,-261.448 75.6614,-254.575"/>
</g>
<!-- Node17 -->
<g id="node17" class="node"><title>Node17</title>
<g id="a_node17"><a xlink:href="a00359.html#ga6728e344caa20aea1def85f58dea138b" target="_top" xlink:title="tds7_process_compute_result() processes compute result sets for TDS 7/8. ">
<polygon fill="white" stroke="black" points="101,-211 101,-241 227,-241 227,-211 101,-211"/>
<text text-anchor="start" x="109" y="-229" font-family="Helvetica,sans-Serif" font-size="10.00">tds7_process_compute</text>
<text text-anchor="middle" x="164" y="-218" font-family="Helvetica,sans-Serif" font-size="10.00">_result</text>
</a>
</g>
</g>
<!-- Node1&#45;&gt;Node17 -->
<g id="edge18" class="edge"><title>Node1&#45;&gt;Node17</title>
<path fill="none" stroke="midnightblue" d="M75.1778,-242.276C83.3465,-240.762 92.0787,-239.144 100.751,-237.536"/>
<polygon fill="midnightblue" stroke="midnightblue" points="74.374,-238.865 65.1793,-244.129 75.6497,-245.748 74.374,-238.865"/>
</g>
<!-- Node3 -->
<g id="node3" class="node"><title>Node3</title>
<g id="a_node3"><a xlink:href="a00359.html#gabfc9de1d1fe718818caf63a4be4035a6" target="_top" xlink:title="process all streams. ">
<polygon fill="white" stroke="black" points="263,-240.5 263,-259.5 375,-259.5 375,-240.5 263,-240.5"/>
<text text-anchor="middle" x="319" y="-247.5" font-family="Helvetica,sans-Serif" font-size="10.00">tds_process_tokens</text>
</a>
</g>
</g>
<!-- Node2&#45;&gt;Node3 -->
<g id="edge2" class="edge"><title>Node2&#45;&gt;Node3</title>
<path fill="none" stroke="midnightblue" d="M234.318,-263.673C243.764,-262.13 253.357,-260.563 262.515,-259.066"/>
<polygon fill="midnightblue" stroke="midnightblue" points="233.458,-260.267 224.154,-265.334 234.587,-267.176 233.458,-260.267"/>
</g>
<!-- Node4 -->
<g id="node4" class="node"><title>Node4</title>
<g id="a_node4"><a xlink:href="a00344.html#gae67546338cb9542a4902aa914f57f314" target="_top" xlink:title="_bcp_exec_out">
<polygon fill="white" stroke="red" points="422.5,-468.5 422.5,-487.5 510.5,-487.5 510.5,-468.5 422.5,-468.5"/>
<text text-anchor="middle" x="466.5" y="-475.5" font-family="Helvetica,sans-Serif" font-size="10.00">_bcp_exec_out</text>
</a>
</g>
</g>
<!-- Node3&#45;&gt;Node4 -->
<g id="edge3" class="edge"><title>Node3&#45;&gt;Node4</title>
<path fill="none" stroke="midnightblue" d="M323.171,-269.774C330.777,-310.852 353.855,-405.999 411,-459 415.188,-462.884 420.212,-465.98 425.494,-468.447"/>
<polygon fill="midnightblue" stroke="midnightblue" points="326.617,-269.165 321.454,-259.913 319.721,-270.365 326.617,-269.165"/>
</g>
<!-- Node5 -->
<g id="node5" class="node"><title>Node5</title>
<g id="a_node5"><a xlink:href="a00341.html#gaf1879b85e8238c015b9648d077665285" target="_top" xlink:title="_dbresults">
<polygon fill="white" stroke="red" points="434,-430.5 434,-449.5 499,-449.5 499,-430.5 434,-430.5"/>
<text text-anchor="middle" x="466.5" y="-437.5" font-family="Helvetica,sans-Serif" font-size="10.00">_dbresults</text>
</a>
</g>
</g>
<!-- Node3&#45;&gt;Node5 -->
<g id="edge4" class="edge"><title>Node3&#45;&gt;Node5</title>
<path fill="none" stroke="midnightblue" d="M325.288,-269.726C335.748,-305.058 362.385,-379.332 411,-421 417.543,-426.608 425.84,-430.592 433.975,-433.411"/>
<polygon fill="midnightblue" stroke="midnightblue" points="328.545,-268.381 322.453,-259.713 321.809,-270.288 328.545,-268.381"/>
</g>
<!-- Node6 -->
<g id="node6" class="node"><title>Node6</title>
<g id="a_node6"><a xlink:href="a00342.html#gaff09873008411a0573f6d1a9e6c7cf4b" target="_top" xlink:title="Get count of output parameters filled by a stored procedure. ">
<polygon fill="white" stroke="red" points="434,-392.5 434,-411.5 499,-411.5 499,-392.5 434,-392.5"/>
<text text-anchor="middle" x="466.5" y="-399.5" font-family="Helvetica,sans-Serif" font-size="10.00">dbnumrets</text>
</a>
</g>
</g>
<!-- Node3&#45;&gt;Node6 -->
<g id="edge5" class="edge"><title>Node3&#45;&gt;Node6</title>
<path fill="none" stroke="midnightblue" d="M328.151,-268.885C341.442,-297.545 370.431,-351.96 411,-383 417.685,-388.115 425.851,-391.918 433.806,-394.721"/>
<polygon fill="midnightblue" stroke="midnightblue" points="331.263,-267.271 323.972,-259.583 324.877,-270.139 331.263,-267.271"/>
</g>
<!-- Node7 -->
<g id="node7" class="node"><title>Node7</title>
<g id="a_node7"><a xlink:href="a00341.html#gae1f50a6a2c31fda57cb481922b06841e" target="_top" xlink:title="Wait for results of a query from the server. ">
<polygon fill="white" stroke="red" points="440,-354.5 440,-373.5 493,-373.5 493,-354.5 440,-354.5"/>
<text text-anchor="middle" x="466.5" y="-361.5" font-family="Helvetica,sans-Serif" font-size="10.00">dbsqlok</text>
</a>
</g>
</g>
<!-- Node3&#45;&gt;Node7 -->
<g id="edge6" class="edge"><title>Node3&#45;&gt;Node7</title>
<path fill="none" stroke="midnightblue" d="M334.149,-267.414C350.853,-287.093 380.272,-319.098 411,-340 419.805,-345.989 430.347,-351.044 439.803,-354.947"/>
<polygon fill="midnightblue" stroke="midnightblue" points="336.696,-265.004 327.605,-259.563 331.319,-269.486 336.696,-265.004"/>
</g>
<!-- Node8 -->
<g id="node8" class="node"><title>Node8</title>
<g id="a_node8"><a xlink:href="a00341.html#ga548153eb2eae76c48aa9d4b72258dc1c" target="_top" xlink:title="Send text or image data to the server. ">
<polygon fill="white" stroke="black" points="584.5,-335.5 584.5,-354.5 652.5,-354.5 652.5,-335.5 584.5,-335.5"/>
<text text-anchor="middle" x="618.5" y="-342.5" font-family="Helvetica,sans-Serif" font-size="10.00">dbwritetext</text>
</a>
</g>
</g>
<!-- Node3&#45;&gt;Node8 -->
<g id="edge9" class="edge"><title>Node3&#45;&gt;Node8</title>
<path fill="none" stroke="midnightblue" d="M340.223,-265.824C357.915,-278.867 384.811,-296.819 411,-307 469.438,-329.719 542.567,-339.063 584.267,-342.749"/>
<polygon fill="midnightblue" stroke="midnightblue" points="341.954,-262.746 331.863,-259.518 337.739,-268.335 341.954,-262.746"/>
</g>
<!-- Node9 -->
<g id="node9" class="node"><title>Node9</title>
<g id="a_node9"><a xlink:href="a00341.html#ga559e24ba70d0d96c3469eb6ab8f74e05" target="_top" xlink:title="Cancel the query currently being retrieved, discarding all pending rows. ">
<polygon fill="white" stroke="red" points="431,-278.5 431,-297.5 502,-297.5 502,-278.5 431,-278.5"/>
<text text-anchor="middle" x="466.5" y="-285.5" font-family="Helvetica,sans-Serif" font-size="10.00">dbcanquery</text>
</a>
</g>
</g>
<!-- Node3&#45;&gt;Node9 -->
<g id="edge8" class="edge"><title>Node3&#45;&gt;Node9</title>
<path fill="none" stroke="midnightblue" d="M366.642,-262.181C387.473,-267.622 411.597,-273.922 430.799,-278.937"/>
<polygon fill="midnightblue" stroke="midnightblue" points="367.276,-258.73 356.716,-259.589 365.507,-265.502 367.276,-258.73"/>
</g>
<!-- Node10 -->
<g id="node10" class="node"><title>Node10</title>
<g id="a_node10"><a xlink:href="a00341.html#gadd5685565c8c6c86079e17b8a73b324c" target="_top" xlink:title="Fetch part of a text or image value from the server. ">
<polygon fill="white" stroke="black" points="433,-240.5 433,-259.5 500,-259.5 500,-240.5 433,-240.5"/>
<text text-anchor="middle" x="466.5" y="-247.5" font-family="Helvetica,sans-Serif" font-size="10.00">dbreadtext</text>
</a>
</g>
</g>
<!-- Node3&#45;&gt;Node10 -->
<g id="edge10" class="edge"><title>Node3&#45;&gt;Node10</title>
<path fill="none" stroke="midnightblue" d="M385.178,-250C401.672,-250 418.691,-250 432.793,-250"/>
<polygon fill="midnightblue" stroke="midnightblue" points="385.007,-246.5 375.007,-250 385.007,-253.5 385.007,-246.5"/>
</g>
<!-- Node11 -->
<g id="node11" class="node"><title>Node11</title>
<g id="a_node11"><a xlink:href="a00341.html#gac980139b9cea03cf93e373d425991481" target="_top" xlink:title="Transmit the command buffer to the server. ">
<polygon fill="white" stroke="red" points="434,-202.5 434,-221.5 499,-221.5 499,-202.5 434,-202.5"/>
<text text-anchor="middle" x="466.5" y="-209.5" font-family="Helvetica,sans-Serif" font-size="10.00">dbsqlsend</text>
</a>
</g>
</g>
<!-- Node3&#45;&gt;Node11 -->
<g id="edge11" class="edge"><title>Node3&#45;&gt;Node11</title>
<path fill="none" stroke="midnightblue" d="M366.503,-237.855C388.442,-232.125 414.06,-225.435 433.738,-220.295"/>
<polygon fill="midnightblue" stroke="midnightblue" points="365.507,-234.498 356.716,-240.411 367.276,-241.27 365.507,-234.498"/>
</g>
<!-- Node12 -->
<g id="node12" class="node"><title>Node12</title>
<g id="a_node12"><a xlink:href="a00356.html#gaf0da49585d39e99780a004ee2ca23479" target="_top" xlink:title="Send option commands to server. ">
<polygon fill="white" stroke="black" points="558,-104.5 558,-123.5 679,-123.5 679,-104.5 558,-104.5"/>
<text text-anchor="middle" x="618.5" y="-111.5" font-family="Helvetica,sans-Serif" font-size="10.00">tds_submit_optioncmd</text>
</a>
</g>
</g>
<!-- Node3&#45;&gt;Node12 -->
<g id="edge12" class="edge"><title>Node3&#45;&gt;Node12</title>
<path fill="none" stroke="midnightblue" d="M341.562,-234.506C359.509,-222.106 386.064,-204.883 411,-193 458.072,-170.568 473.341,-173.743 522,-155 547.929,-145.012 577.222,-132.204 596.448,-123.583"/>
<polygon fill="midnightblue" stroke="midnightblue" points="339.195,-231.891 333.016,-240.497 343.213,-237.623 339.195,-231.891"/>
</g>
<!-- Node13 -->
<g id="node13" class="node"><title>Node13</title>
<g id="a_node13"><a xlink:href="a00193.html#ac6610c72bd31bad5378f760fa9b12d66" target="_top" xlink:title="Initialize BCP information. ">
<polygon fill="white" stroke="red" points="430,-126.5 430,-145.5 503,-145.5 503,-126.5 430,-126.5"/>
<text text-anchor="middle" x="466.5" y="-133.5" font-family="Helvetica,sans-Serif" font-size="10.00">tds_bcp_init</text>
</a>
</g>
</g>
<!-- Node3&#45;&gt;Node13 -->
<g id="edge13" class="edge"><title>Node3&#45;&gt;Node13</title>
<path fill="none" stroke="midnightblue" d="M334.149,-232.586C350.853,-212.907 380.272,-180.902 411,-160 419.463,-154.243 429.531,-149.35 438.697,-145.513"/>
<polygon fill="midnightblue" stroke="midnightblue" points="331.319,-230.514 327.605,-240.437 336.696,-234.996 331.319,-230.514"/>
</g>
<!-- Node14 -->
<g id="node14" class="node"><title>Node14</title>
<g id="a_node14"><a xlink:href="a00359.html#ga55f27c3e05d42c9b07ace1c74b11c5ab" target="_top" xlink:title="Retrieve and set @spid. ">
<polygon fill="white" stroke="red" points="428,-88.5 428,-107.5 505,-107.5 505,-88.5 428,-88.5"/>
<text text-anchor="middle" x="466.5" y="-95.5" font-family="Helvetica,sans-Serif" font-size="10.00">tds_set_spid</text>
</a>
</g>
</g>
<!-- Node3&#45;&gt;Node14 -->
<g id="edge14" class="edge"><title>Node3&#45;&gt;Node14</title>
<path fill="none" stroke="midnightblue" d="M328.151,-231.115C341.442,-202.455 370.431,-148.04 411,-117 416.014,-113.164 421.86,-110.065 427.826,-107.574"/>
<polygon fill="midnightblue" stroke="midnightblue" points="324.877,-229.861 323.972,-240.417 331.263,-232.729 324.877,-229.861"/>
</g>
<!-- Node15 -->
<g id="node15" class="node"><title>Node15</title>
<g id="a_node15"><a xlink:href="a00359.html#gaeeb1562044786ea17bea361ed83e6946" target="_top" xlink:title="Process results for simple query as &quot;SET TEXTSIZE&quot; or &quot;USE dbname&quot; If the statement returns results...">
<polygon fill="white" stroke="red" points="411.5,-39 411.5,-69 521.5,-69 521.5,-39 411.5,-39"/>
<text text-anchor="start" x="419.5" y="-57" font-family="Helvetica,sans-Serif" font-size="10.00">tds_process_simple</text>
<text text-anchor="middle" x="466.5" y="-46" font-family="Helvetica,sans-Serif" font-size="10.00">_query</text>
</a>
</g>
</g>
<!-- Node3&#45;&gt;Node15 -->
<g id="edge15" class="edge"><title>Node3&#45;&gt;Node15</title>
<path fill="none" stroke="midnightblue" d="M325.846,-230.223C337.048,-195.404 364.631,-122.713 411,-79 415.015,-75.2155 419.703,-71.9264 424.614,-69.0899"/>
<polygon fill="midnightblue" stroke="midnightblue" points="322.398,-229.525 322.781,-240.113 329.084,-231.597 322.398,-229.525"/>
</g>
<!-- Node16 -->
<g id="node16" class="node"><title>Node16</title>
<g id="a_node16"><a xlink:href="a00359.html#gaf233e79967f82f4e0dd4d11524917a34" target="_top" xlink:title="tds_process_cancel">
<polygon fill="white" stroke="red" points="411,-0.5 411,-19.5 522,-19.5 522,-0.5 411,-0.5"/>
<text text-anchor="middle" x="466.5" y="-7.5" font-family="Helvetica,sans-Serif" font-size="10.00">tds_process_cancel</text>
</a>
</g>
</g>
<!-- Node3&#45;&gt;Node16 -->
<g id="edge17" class="edge"><title>Node3&#45;&gt;Node16</title>
<path fill="none" stroke="midnightblue" d="M322.585,-230.579C329.261,-188.02 350.965,-85.8117 411,-29 415.076,-25.1431 419.976,-22.0644 425.146,-19.608"/>
<polygon fill="midnightblue" stroke="midnightblue" points="319.121,-230.084 321.139,-240.484 326.047,-231.095 319.121,-230.084"/>
</g>
<!-- Node7&#45;&gt;Node8 -->
<g id="edge7" class="edge"><title>Node7&#45;&gt;Node8</title>
<path fill="none" stroke="midnightblue" d="M503.316,-359.463C527.951,-356.343 560.428,-352.229 584.446,-349.187"/>
<polygon fill="midnightblue" stroke="midnightblue" points="502.767,-356.005 493.286,-360.734 503.646,-362.949 502.767,-356.005"/>
</g>
<!-- Node15&#45;&gt;Node12 -->
<g id="edge16" class="edge"><title>Node15&#45;&gt;Node12</title>
<path fill="none" stroke="midnightblue" d="M514.761,-72.9046C541.031,-83.4125 572.586,-96.0343 593.732,-104.493"/>
<polygon fill="midnightblue" stroke="midnightblue" points="515.936,-69.6048 505.351,-69.1405 513.336,-76.1042 515.936,-69.6048"/>
</g>
<!-- Node17&#45;&gt;Node3 -->
<g id="edge19" class="edge"><title>Node17&#45;&gt;Node3</title>
<path fill="none" stroke="midnightblue" d="M237.228,-237.33C245.794,-238.674 254.432,-240.028 262.709,-241.327"/>
<polygon fill="midnightblue" stroke="midnightblue" points="237.653,-233.854 227.231,-235.762 236.568,-240.769 237.653,-233.854"/>
</g>
</g>
</svg>
