<?xml version="1.0" encoding="UTF-8" standalone="no"?>
<!DOCTYPE svg PUBLIC "-//W3C//DTD SVG 1.1//EN"
 "http://www.w3.org/Graphics/SVG/1.1/DTD/svg11.dtd">
<!-- Generated by graphviz version 2.38.0 (20140413.2041)
 -->
<!-- Title: tds_process_tabname Pages: 1 -->
<svg width="884pt" height="517pt"
 viewBox="0.00 0.00 884.00 516.53" xmlns="http://www.w3.org/2000/svg" xmlns:xlink="http://www.w3.org/1999/xlink">
<g id="graph0" class="graph" transform="scale(1 1) rotate(0) translate(4 512.532)">
<title>tds_process_tabname</title>
<polygon fill="white" stroke="none" points="-4,4 -4,-512.532 880,-512.532 880,4 -4,4"/>
<!-- Node1 -->
<g id="node1" class="node"><title>Node1</title>
<polygon fill="#bfbfbf" stroke="black" points="0,-484.916 0,-503.916 121,-503.916 121,-484.916 0,-484.916"/>
<text text-anchor="middle" x="60.5" y="-491.916" font-family="Helvetica,sans-Serif" font-size="10.00">tds_process_tabname</text>
</g>
<!-- Node2 -->
<g id="node2" class="node"><title>Node2</title>
<g id="a_node2"><a xlink:href="a00359.html#ga39453d084f3f780ac4602d4abf2839f7" target="_top" xlink:title="tds_process_default_tokens() is a catch all function that is called to process tokens not known to ot...">
<polygon fill="white" stroke="black" points="157,-425.416 157,-455.416 269,-455.416 269,-425.416 157,-425.416"/>
<text text-anchor="start" x="165" y="-443.416" font-family="Helvetica,sans-Serif" font-size="10.00">tds_process_default</text>
<text text-anchor="middle" x="213" y="-432.416" font-family="Helvetica,sans-Serif" font-size="10.00">_tokens</text>
</a>
</g>
</g>
<!-- Node1&#45;&gt;Node2 -->
<g id="edge1" class="edge"><title>Node1&#45;&gt;Node2</title>
<path fill="none" stroke="midnightblue" d="M97.6124,-481.459C119.421,-473.634 147.307,-463.628 170.086,-455.455"/>
<polygon fill="midnightblue" stroke="midnightblue" points="96.2904,-478.215 88.0599,-484.886 98.6545,-484.804 96.2904,-478.215"/>
</g>
<!-- Node4 -->
<g id="node4" class="node"><title>Node4</title>
<g id="a_node4"><a xlink:href="a00359.html#gabfc9de1d1fe718818caf63a4be4035a6" target="_top" xlink:title="process all streams. ">
<polygon fill="white" stroke="black" points="441,-292.916 441,-311.916 553,-311.916 553,-292.916 441,-292.916"/>
<text text-anchor="middle" x="497" y="-299.916" font-family="Helvetica,sans-Serif" font-size="10.00">tds_process_tokens</text>
</a>
</g>
</g>
<!-- Node1&#45;&gt;Node4 -->
<g id="edge23" class="edge"><title>Node1&#45;&gt;Node4</title>
<path fill="none" stroke="midnightblue" d="M131.308,-504.831C205.31,-512.123 322.644,-512.614 405,-459.416 460.838,-423.348 486.45,-340.08 493.729,-311.921"/>
<polygon fill="midnightblue" stroke="midnightblue" points="131.474,-501.329 121.162,-503.762 130.74,-508.291 131.474,-501.329"/>
</g>
<!-- Node3 -->
<g id="node3" class="node"><title>Node3</title>
<g id="a_node3"><a xlink:href="a00359.html#ga93945b42d45ee28ae1296b35a1c1e9bb" target="_top" xlink:title="tds_process_login_tokens() is called after sending the login packet to the server. ">
<polygon fill="white" stroke="black" points="736,-444.916 736,-463.916 876,-463.916 876,-444.916 736,-444.916"/>
<text text-anchor="middle" x="806" y="-451.916" font-family="Helvetica,sans-Serif" font-size="10.00">tds_process_login_tokens</text>
</a>
</g>
</g>
<!-- Node2&#45;&gt;Node3 -->
<g id="edge2" class="edge"><title>Node2&#45;&gt;Node3</title>
<path fill="none" stroke="midnightblue" d="M275.887,-458.059C368.593,-482.006 548.795,-518.936 700,-492.416 730.743,-487.024 764.347,-473.385 785.054,-464.004"/>
<polygon fill="midnightblue" stroke="midnightblue" points="276.668,-454.646 266.107,-455.497 274.893,-461.417 276.668,-454.646"/>
</g>
<!-- Node2&#45;&gt;Node4 -->
<g id="edge3" class="edge"><title>Node2&#45;&gt;Node4</title>
<path fill="none" stroke="midnightblue" d="M253.708,-420.985C314.981,-391 430.307,-334.564 476.317,-312.048"/>
<polygon fill="midnightblue" stroke="midnightblue" points="252.159,-417.846 244.716,-425.385 255.236,-424.133 252.159,-417.846"/>
</g>
<!-- Node18 -->
<g id="node18" class="node"><title>Node18</title>
<g id="a_node18"><a xlink:href="a00359.html#ga81cdf0ed9e8d29cf1ddf66e18efc407d" target="_top" xlink:title="tds_process_msg() is called for MSG, ERR, or EED tokens and is responsible for calling the CLI&#39;s mess...">
<polygon fill="white" stroke="black" points="305,-430.916 305,-449.916 405,-449.916 405,-430.916 305,-430.916"/>
<text text-anchor="middle" x="355" y="-437.916" font-family="Helvetica,sans-Serif" font-size="10.00">tds_process_msg</text>
</a>
</g>
</g>
<!-- Node2&#45;&gt;Node18 -->
<g id="edge20" class="edge"><title>Node2&#45;&gt;Node18</title>
<path fill="none" stroke="midnightblue" d="M279.369,-433.679C287.983,-433.63 296.69,-433.718 304.967,-433.943"/>
<polygon fill="midnightblue" stroke="midnightblue" points="279.289,-430.18 269.332,-433.8 279.373,-437.18 279.289,-430.18"/>
</g>
<!-- Node5 -->
<g id="node5" class="node"><title>Node5</title>
<g id="a_node5"><a xlink:href="a00344.html#gae67546338cb9542a4902aa914f57f314" target="_top" xlink:title="_bcp_exec_out">
<polygon fill="white" stroke="red" points="600.5,-349.916 600.5,-368.916 688.5,-368.916 688.5,-349.916 600.5,-349.916"/>
<text text-anchor="middle" x="644.5" y="-356.916" font-family="Helvetica,sans-Serif" font-size="10.00">_bcp_exec_out</text>
</a>
</g>
</g>
<!-- Node4&#45;&gt;Node5 -->
<g id="edge4" class="edge"><title>Node4&#45;&gt;Node5</title>
<path fill="none" stroke="midnightblue" d="M529.585,-316.155C547.006,-323.594 569.084,-332.794 589,-340.416 597.423,-343.64 606.659,-346.945 615.096,-349.876"/>
<polygon fill="midnightblue" stroke="midnightblue" points="530.487,-312.733 519.917,-312.004 527.725,-319.165 530.487,-312.733"/>
</g>
<!-- Node6 -->
<g id="node6" class="node"><title>Node6</title>
<g id="a_node6"><a xlink:href="a00341.html#gaf1879b85e8238c015b9648d077665285" target="_top" xlink:title="_dbresults">
<polygon fill="white" stroke="red" points="612,-311.916 612,-330.916 677,-330.916 677,-311.916 612,-311.916"/>
<text text-anchor="middle" x="644.5" y="-318.916" font-family="Helvetica,sans-Serif" font-size="10.00">_dbresults</text>
</a>
</g>
</g>
<!-- Node4&#45;&gt;Node6 -->
<g id="edge5" class="edge"><title>Node4&#45;&gt;Node6</title>
<path fill="none" stroke="midnightblue" d="M563.348,-310.95C580.118,-313.14 597.418,-315.399 611.634,-317.255"/>
<polygon fill="midnightblue" stroke="midnightblue" points="563.376,-307.424 553.007,-309.599 562.47,-314.365 563.376,-307.424"/>
</g>
<!-- Node7 -->
<g id="node7" class="node"><title>Node7</title>
<g id="a_node7"><a xlink:href="a00342.html#gaff09873008411a0573f6d1a9e6c7cf4b" target="_top" xlink:title="Get count of output parameters filled by a stored procedure. ">
<polygon fill="white" stroke="red" points="612,-273.916 612,-292.916 677,-292.916 677,-273.916 612,-273.916"/>
<text text-anchor="middle" x="644.5" y="-280.916" font-family="Helvetica,sans-Serif" font-size="10.00">dbnumrets</text>
</a>
</g>
</g>
<!-- Node4&#45;&gt;Node7 -->
<g id="edge6" class="edge"><title>Node4&#45;&gt;Node7</title>
<path fill="none" stroke="midnightblue" d="M563.348,-293.883C580.118,-291.693 597.418,-289.434 611.634,-287.577"/>
<polygon fill="midnightblue" stroke="midnightblue" points="562.47,-290.468 553.007,-295.233 563.376,-297.409 562.47,-290.468"/>
</g>
<!-- Node8 -->
<g id="node8" class="node"><title>Node8</title>
<g id="a_node8"><a xlink:href="a00341.html#gae1f50a6a2c31fda57cb481922b06841e" target="_top" xlink:title="Wait for results of a query from the server. ">
<polygon fill="white" stroke="red" points="618,-235.916 618,-254.916 671,-254.916 671,-235.916 618,-235.916"/>
<text text-anchor="middle" x="644.5" y="-242.916" font-family="Helvetica,sans-Serif" font-size="10.00">dbsqlok</text>
</a>
</g>
</g>
<!-- Node4&#45;&gt;Node8 -->
<g id="edge7" class="edge"><title>Node4&#45;&gt;Node8</title>
<path fill="none" stroke="midnightblue" d="M529.585,-288.678C547.006,-281.239 569.084,-272.038 589,-264.416 598.358,-260.835 608.722,-257.152 617.877,-253.994"/>
<polygon fill="midnightblue" stroke="midnightblue" points="527.725,-285.667 519.917,-292.829 530.487,-292.099 527.725,-285.667"/>
</g>
<!-- Node9 -->
<g id="node9" class="node"><title>Node9</title>
<g id="a_node9"><a xlink:href="a00341.html#ga548153eb2eae76c48aa9d4b72258dc1c" target="_top" xlink:title="Send text or image data to the server. ">
<polygon fill="white" stroke="black" points="772,-216.916 772,-235.916 840,-235.916 840,-216.916 772,-216.916"/>
<text text-anchor="middle" x="806" y="-223.916" font-family="Helvetica,sans-Serif" font-size="10.00">dbwritetext</text>
</a>
</g>
</g>
<!-- Node4&#45;&gt;Node9 -->
<g id="edge10" class="edge"><title>Node4&#45;&gt;Node9</title>
<path fill="none" stroke="midnightblue" d="M512.031,-285.037C528.279,-266.437 556.949,-238.04 589,-226.416 650.517,-204.106 728.53,-212.211 771.967,-219.633"/>
<polygon fill="midnightblue" stroke="midnightblue" points="509.254,-282.901 505.473,-292.798 514.6,-287.419 509.254,-282.901"/>
</g>
<!-- Node10 -->
<g id="node10" class="node"><title>Node10</title>
<g id="a_node10"><a xlink:href="a00341.html#ga559e24ba70d0d96c3469eb6ab8f74e05" target="_top" xlink:title="Cancel the query currently being retrieved, discarding all pending rows. ">
<polygon fill="white" stroke="red" points="609,-159.916 609,-178.916 680,-178.916 680,-159.916 609,-159.916"/>
<text text-anchor="middle" x="644.5" y="-166.916" font-family="Helvetica,sans-Serif" font-size="10.00">dbcanquery</text>
</a>
</g>
</g>
<!-- Node4&#45;&gt;Node10 -->
<g id="edge9" class="edge"><title>Node4&#45;&gt;Node10</title>
<path fill="none" stroke="midnightblue" d="M509.472,-283.977C524.994,-260.303 554.719,-219.207 589,-193.416 596.849,-187.512 606.377,-182.684 615.258,-178.948"/>
<polygon fill="midnightblue" stroke="midnightblue" points="506.34,-282.377 503.89,-292.685 512.233,-286.155 506.34,-282.377"/>
</g>
<!-- Node11 -->
<g id="node11" class="node"><title>Node11</title>
<g id="a_node11"><a xlink:href="a00341.html#gadd5685565c8c6c86079e17b8a73b324c" target="_top" xlink:title="Fetch part of a text or image value from the server. ">
<polygon fill="white" stroke="black" points="611,-121.916 611,-140.916 678,-140.916 678,-121.916 611,-121.916"/>
<text text-anchor="middle" x="644.5" y="-128.916" font-family="Helvetica,sans-Serif" font-size="10.00">dbreadtext</text>
</a>
</g>
</g>
<!-- Node4&#45;&gt;Node11 -->
<g id="edge11" class="edge"><title>Node4&#45;&gt;Node11</title>
<path fill="none" stroke="midnightblue" d="M504.573,-283.092C516.44,-251.012 544.431,-186.709 589,-150.416 595.294,-145.291 603.061,-141.507 610.739,-138.729"/>
<polygon fill="midnightblue" stroke="midnightblue" points="501.227,-282.055 501.166,-292.649 507.821,-284.405 501.227,-282.055"/>
</g>
<!-- Node12 -->
<g id="node12" class="node"><title>Node12</title>
<g id="a_node12"><a xlink:href="a00341.html#gac980139b9cea03cf93e373d425991481" target="_top" xlink:title="Transmit the command buffer to the server. ">
<polygon fill="white" stroke="red" points="612,-83.9163 612,-102.916 677,-102.916 677,-83.9163 612,-83.9163"/>
<text text-anchor="middle" x="644.5" y="-90.9163" font-family="Helvetica,sans-Serif" font-size="10.00">dbsqlsend</text>
</a>
</g>
</g>
<!-- Node4&#45;&gt;Node12 -->
<g id="edge12" class="edge"><title>Node4&#45;&gt;Node12</title>
<path fill="none" stroke="midnightblue" d="M502.141,-282.624C511.161,-244.324 536.154,-159.689 589,-112.416 595.423,-106.671 603.681,-102.641 611.816,-99.8235"/>
<polygon fill="midnightblue" stroke="midnightblue" points="498.692,-282.009 499.925,-292.532 505.523,-283.536 498.692,-282.009"/>
</g>
<!-- Node13 -->
<g id="node13" class="node"><title>Node13</title>
<g id="a_node13"><a xlink:href="a00356.html#gaf0da49585d39e99780a004ee2ca23479" target="_top" xlink:title="Send option commands to server. ">
<polygon fill="white" stroke="black" points="745.5,-17.9163 745.5,-36.9163 866.5,-36.9163 866.5,-17.9163 745.5,-17.9163"/>
<text text-anchor="middle" x="806" y="-24.9163" font-family="Helvetica,sans-Serif" font-size="10.00">tds_submit_optioncmd</text>
</a>
</g>
</g>
<!-- Node4&#45;&gt;Node13 -->
<g id="edge13" class="edge"><title>Node4&#45;&gt;Node13</title>
<path fill="none" stroke="midnightblue" d="M497.373,-282.763C496.9,-230.2 503.767,-86.1992 589,-24.4163 645.783,16.7441 734.864,-3.82903 778.759,-17.9094"/>
<polygon fill="midnightblue" stroke="midnightblue" points="493.874,-282.857 497.567,-292.787 500.872,-282.721 493.874,-282.857"/>
</g>
<!-- Node14 -->
<g id="node14" class="node"><title>Node14</title>
<g id="a_node14"><a xlink:href="a00193.html#ac6610c72bd31bad5378f760fa9b12d66" target="_top" xlink:title="Initialize BCP information. ">
<polygon fill="white" stroke="red" points="608,-463.916 608,-482.916 681,-482.916 681,-463.916 608,-463.916"/>
<text text-anchor="middle" x="644.5" y="-470.916" font-family="Helvetica,sans-Serif" font-size="10.00">tds_bcp_init</text>
</a>
</g>
</g>
<!-- Node4&#45;&gt;Node14 -->
<g id="edge14" class="edge"><title>Node4&#45;&gt;Node14</title>
<path fill="none" stroke="midnightblue" d="M504.573,-321.74C516.44,-353.821 544.431,-418.124 589,-454.416 594.517,-458.909 601.166,-462.37 607.894,-465.028"/>
<polygon fill="midnightblue" stroke="midnightblue" points="507.821,-320.427 501.166,-312.183 501.227,-322.778 507.821,-320.427"/>
</g>
<!-- Node15 -->
<g id="node15" class="node"><title>Node15</title>
<g id="a_node15"><a xlink:href="a00359.html#ga55f27c3e05d42c9b07ace1c74b11c5ab" target="_top" xlink:title="Retrieve and set @spid. ">
<polygon fill="white" stroke="black" points="606,-387.916 606,-406.916 683,-406.916 683,-387.916 606,-387.916"/>
<text text-anchor="middle" x="644.5" y="-394.916" font-family="Helvetica,sans-Serif" font-size="10.00">tds_set_spid</text>
</a>
</g>
</g>
<!-- Node4&#45;&gt;Node15 -->
<g id="edge15" class="edge"><title>Node4&#45;&gt;Node15</title>
<path fill="none" stroke="midnightblue" d="M514.288,-319.202C531.504,-336.133 560.116,-362.045 589,-378.416 595.538,-382.122 602.923,-385.287 610.097,-387.91"/>
<polygon fill="midnightblue" stroke="midnightblue" points="516.762,-316.726 507.22,-312.121 511.808,-321.671 516.762,-316.726"/>
</g>
<!-- Node16 -->
<g id="node16" class="node"><title>Node16</title>
<g id="a_node16"><a xlink:href="a00359.html#gaeeb1562044786ea17bea361ed83e6946" target="_top" xlink:title="Process results for simple query as &quot;SET TEXTSIZE&quot; or &quot;USE dbname&quot; If the statement returns results...">
<polygon fill="white" stroke="red" points="589.5,-34.4163 589.5,-64.4163 699.5,-64.4163 699.5,-34.4163 589.5,-34.4163"/>
<text text-anchor="start" x="597.5" y="-52.4163" font-family="Helvetica,sans-Serif" font-size="10.00">tds_process_simple</text>
<text text-anchor="middle" x="644.5" y="-41.4163" font-family="Helvetica,sans-Serif" font-size="10.00">_query</text>
</a>
</g>
</g>
<!-- Node4&#45;&gt;Node16 -->
<g id="edge17" class="edge"><title>Node4&#45;&gt;Node16</title>
<path fill="none" stroke="midnightblue" d="M500.812,-282.81C507.941,-239.766 530.498,-135.94 589,-74.4163 592.658,-70.569 597.022,-67.2624 601.665,-64.4338"/>
<polygon fill="midnightblue" stroke="midnightblue" points="497.333,-282.401 499.255,-292.82 504.25,-283.477 497.333,-282.401"/>
</g>
<!-- Node17 -->
<g id="node17" class="node"><title>Node17</title>
<g id="a_node17"><a xlink:href="a00359.html#gaf233e79967f82f4e0dd4d11524917a34" target="_top" xlink:title="tds_process_cancel">
<polygon fill="white" stroke="red" points="589,-425.916 589,-444.916 700,-444.916 700,-425.916 589,-425.916"/>
<text text-anchor="middle" x="644.5" y="-432.916" font-family="Helvetica,sans-Serif" font-size="10.00">tds_process_cancel</text>
</a>
</g>
</g>
<!-- Node4&#45;&gt;Node17 -->
<g id="edge19" class="edge"><title>Node4&#45;&gt;Node17</title>
<path fill="none" stroke="midnightblue" d="M508.309,-321.069C523.069,-346.149 552.513,-390.572 589,-416.416 594.397,-420.239 600.633,-423.353 606.918,-425.871"/>
<polygon fill="midnightblue" stroke="midnightblue" points="511.232,-319.131 503.225,-312.192 505.158,-322.609 511.232,-319.131"/>
</g>
<!-- Node8&#45;&gt;Node9 -->
<g id="edge8" class="edge"><title>Node8&#45;&gt;Node9</title>
<path fill="none" stroke="midnightblue" d="M681.371,-241.143C708.525,-237.909 745.532,-233.5 771.965,-230.351"/>
<polygon fill="midnightblue" stroke="midnightblue" points="680.642,-237.705 671.126,-242.364 681.47,-244.656 680.642,-237.705"/>
</g>
<!-- Node15&#45;&gt;Node3 -->
<g id="edge16" class="edge"><title>Node15&#45;&gt;Node3</title>
<path fill="none" stroke="midnightblue" d="M682.583,-410.279C688.416,-412.321 694.375,-414.418 700,-416.416 726.854,-425.956 757.489,-437.07 778.708,-444.804"/>
<polygon fill="midnightblue" stroke="midnightblue" points="683.563,-406.914 672.968,-406.922 681.256,-413.522 683.563,-406.914"/>
</g>
<!-- Node16&#45;&gt;Node13 -->
<g id="edge18" class="edge"><title>Node16&#45;&gt;Node13</title>
<path fill="none" stroke="midnightblue" d="M710.05,-40.5128C721.711,-38.9044 733.823,-37.2338 745.337,-35.6457"/>
<polygon fill="midnightblue" stroke="midnightblue" points="709.373,-37.073 699.945,-41.9067 710.329,-44.0074 709.373,-37.073"/>
</g>
<!-- Node18&#45;&gt;Node2 -->
<g id="edge21" class="edge"><title>Node18&#45;&gt;Node2</title>
<path fill="none" stroke="midnightblue" d="M294.806,-447.094C286.36,-447.208 277.7,-447.187 269.332,-447.033"/>
<polygon fill="midnightblue" stroke="midnightblue" points="295.04,-450.59 304.967,-446.89 294.899,-443.592 295.04,-450.59"/>
</g>
<!-- Node18&#45;&gt;Node4 -->
<g id="edge22" class="edge"><title>Node18&#45;&gt;Node4</title>
<path fill="none" stroke="midnightblue" d="M373.237,-423.425C402.833,-394.252 462.403,-335.533 486.023,-312.251"/>
<polygon fill="midnightblue" stroke="midnightblue" points="370.733,-420.979 366.068,-430.492 375.647,-425.964 370.733,-420.979"/>
</g>
</g>
</svg>
