<?xml version="1.0" encoding="UTF-8" standalone="no"?>
<!DOCTYPE svg PUBLIC "-//W3C//DTD SVG 1.1//EN"
 "http://www.w3.org/Graphics/SVG/1.1/DTD/svg11.dtd">
<!-- Generated by graphviz version 2.38.0 (20140413.2041)
 -->
<!-- Title: tds_convert_string Pages: 1 -->
<svg width="954pt" height="761pt"
 viewBox="0.00 0.00 954.00 760.70" xmlns="http://www.w3.org/2000/svg" xmlns:xlink="http://www.w3.org/1999/xlink">
<g id="graph0" class="graph" transform="scale(1 1) rotate(0) translate(4 756.696)">
<title>tds_convert_string</title>
<polygon fill="white" stroke="none" points="-4,4 -4,-756.696 950,-756.696 950,4 -4,4"/>
<!-- Node1 -->
<g id="node1" class="node"><title>Node1</title>
<polygon fill="#bfbfbf" stroke="black" points="0,-380.5 0,-399.5 104,-399.5 104,-380.5 0,-380.5"/>
<text text-anchor="middle" x="52" y="-387.5" font-family="Helvetica,sans-Serif" font-size="10.00">tds_convert_string</text>
</g>
<!-- Node2 -->
<g id="node2" class="node"><title>Node2</title>
<g id="a_node2"><a xlink:href="a00356.html#ga9ad2e6defce530a8778791cce0166ccd" target="_top" xlink:title="Start query packet of a given type. ">
<polygon fill="white" stroke="black" points="148.5,-380.5 148.5,-399.5 268.5,-399.5 268.5,-380.5 148.5,-380.5"/>
<text text-anchor="middle" x="208.5" y="-387.5" font-family="Helvetica,sans-Serif" font-size="10.00">tds_start_query_head</text>
</a>
</g>
</g>
<!-- Node1&#45;&gt;Node2 -->
<g id="edge1" class="edge"><title>Node1&#45;&gt;Node2</title>
<path fill="none" stroke="midnightblue" d="M114.158,-390C125.377,-390 137.069,-390 148.231,-390"/>
<polygon fill="midnightblue" stroke="midnightblue" points="114.017,-386.5 104.017,-390 114.017,-393.5 114.017,-386.5"/>
</g>
<!-- Node4 -->
<g id="node4" class="node"><title>Node4</title>
<g id="a_node4"><a xlink:href="a00356.html#ga74eb08c3a1c85be8ac9db428842c8b9d" target="_top" xlink:title="tds_submit_prepare() creates a temporary stored procedure in the server. ">
<polygon fill="white" stroke="black" points="500,-532.5 500,-551.5 610,-551.5 610,-532.5 500,-532.5"/>
<text text-anchor="middle" x="555" y="-539.5" font-family="Helvetica,sans-Serif" font-size="10.00">tds_submit_prepare</text>
</a>
</g>
</g>
<!-- Node1&#45;&gt;Node4 -->
<g id="edge22" class="edge"><title>Node1&#45;&gt;Node4</title>
<path fill="none" stroke="midnightblue" d="M70.1839,-406.785C86.7187,-421.967 113.109,-443.762 140,-456 261.103,-511.113 418.25,-531.295 499.697,-538.382"/>
<polygon fill="midnightblue" stroke="midnightblue" points="72.1645,-403.842 62.4852,-399.534 67.3652,-408.938 72.1645,-403.842"/>
</g>
<!-- Node5 -->
<g id="node5" class="node"><title>Node5</title>
<g id="a_node5"><a xlink:href="a00356.html#ga08877c101704bebe4fa57e0849dc272d" target="_top" xlink:title="tds71_submit_prepexec() creates a temporary stored procedure in the server. ">
<polygon fill="white" stroke="black" points="491,-494.5 491,-513.5 619,-513.5 619,-494.5 491,-494.5"/>
<text text-anchor="middle" x="555" y="-501.5" font-family="Helvetica,sans-Serif" font-size="10.00">tds71_submit_prepexec</text>
</a>
</g>
</g>
<!-- Node1&#45;&gt;Node5 -->
<g id="edge24" class="edge"><title>Node1&#45;&gt;Node5</title>
<path fill="none" stroke="midnightblue" d="M82.1582,-403.836C98.7986,-411.28 120.224,-420.114 140,-426 261.8,-462.251 408.974,-485.225 490.973,-496.245"/>
<polygon fill="midnightblue" stroke="midnightblue" points="83.5134,-400.608 72.9622,-399.647 80.6114,-406.978 83.5134,-400.608"/>
</g>
<!-- Node9 -->
<g id="node9" class="node"><title>Node9</title>
<g id="a_node9"><a xlink:href="a00356.html#gae603aed795a4c5bb26ab159a11256996" target="_top" xlink:title="Submit a prepared query with parameters. ">
<polygon fill="white" stroke="black" points="667,-323.5 667,-342.5 788,-342.5 788,-323.5 667,-323.5"/>
<text text-anchor="middle" x="727.5" y="-330.5" font-family="Helvetica,sans-Serif" font-size="10.00">tds_submit_execdirect</text>
</a>
</g>
</g>
<!-- Node1&#45;&gt;Node9 -->
<g id="edge23" class="edge"><title>Node1&#45;&gt;Node9</title>
<path fill="none" stroke="midnightblue" d="M65.6768,-407.71C129.999,-495.496 425.253,-873.437 631,-713 646.489,-700.922 711.784,-401.236 724.389,-342.819"/>
<polygon fill="midnightblue" stroke="midnightblue" points="68.4365,-405.554 59.7297,-399.517 62.7715,-409.666 68.4365,-405.554"/>
</g>
<!-- Node13 -->
<g id="node13" class="node"><title>Node13</title>
<g id="a_node13"><a xlink:href="a00356.html#ga95e0fccedc459a4404f496eec74a369a" target="_top" xlink:title="tds_submit_query_params() sends a language string to the database server for processing. ">
<polygon fill="white" stroke="black" points="485,-380.5 485,-399.5 625,-399.5 625,-380.5 485,-380.5"/>
<text text-anchor="middle" x="555" y="-387.5" font-family="Helvetica,sans-Serif" font-size="10.00">tds_submit_query_params</text>
</a>
</g>
</g>
<!-- Node1&#45;&gt;Node13 -->
<g id="edge21" class="edge"><title>Node1&#45;&gt;Node13</title>
<path fill="none" stroke="midnightblue" d="M98.1885,-401.798C111.554,-404.762 126.281,-407.519 140,-409 273.907,-423.452 308.722,-414.466 443,-404 457.233,-402.891 472.443,-401.264 486.896,-399.509"/>
<polygon fill="midnightblue" stroke="midnightblue" points="98.8036,-398.348 88.2726,-399.508 97.2289,-405.168 98.8036,-398.348"/>
</g>
<!-- Node15 -->
<g id="node15" class="node"><title>Node15</title>
<g id="a_node15"><a xlink:href="a00356.html#ga5f071b94ad7889690762dc85646c74ab" target="_top" xlink:title="tds_submit_rpc() call a RPC from server. ">
<polygon fill="white" stroke="black" points="511.5,-114.5 511.5,-133.5 598.5,-133.5 598.5,-114.5 511.5,-114.5"/>
<text text-anchor="middle" x="555" y="-121.5" font-family="Helvetica,sans-Serif" font-size="10.00">tds_submit_rpc</text>
</a>
</g>
</g>
<!-- Node1&#45;&gt;Node15 -->
<g id="edge37" class="edge"><title>Node1&#45;&gt;Node15</title>
<path fill="none" stroke="midnightblue" d="M60.601,-371.135C85.7311,-311.767 172.621,-129.034 313,-67 365.848,-43.6465 386.84,-53.4233 443,-67 480.902,-76.1628 520.381,-100.62 540.481,-114.334"/>
<polygon fill="midnightblue" stroke="midnightblue" points="57.3393,-369.863 56.7441,-380.442 63.806,-372.543 57.3393,-369.863"/>
</g>
<!-- Node17 -->
<g id="node17" class="node"><title>Node17</title>
<g id="a_node17"><a xlink:href="a00356.html#gafd74652c4722ddce4d642cc4209449d4" target="_top" xlink:title="Put data information to wire. ">
<polygon fill="white" stroke="black" points="158,-304.5 158,-323.5 259,-323.5 259,-304.5 158,-304.5"/>
<text text-anchor="middle" x="208.5" y="-311.5" font-family="Helvetica,sans-Serif" font-size="10.00">tds_put_data_info</text>
</a>
</g>
</g>
<!-- Node1&#45;&gt;Node17 -->
<g id="edge25" class="edge"><title>Node1&#45;&gt;Node17</title>
<path fill="none" stroke="midnightblue" d="M81.58,-375.941C112.587,-360.689 161.244,-336.754 188.091,-323.547"/>
<polygon fill="midnightblue" stroke="midnightblue" points="79.9958,-372.82 72.5675,-380.375 83.0856,-379.101 79.9958,-372.82"/>
</g>
<!-- Node20 -->
<g id="node20" class="node"><title>Node20</title>
<g id="a_node20"><a xlink:href="a00356.html#ga0e2e7230c425e925402d7856ff5b4b18" target="_top" xlink:title="Send a parameter to server. ">
<polygon fill="white" stroke="black" points="140,-266.5 140,-285.5 277,-285.5 277,-266.5 140,-266.5"/>
<text text-anchor="middle" x="208.5" y="-273.5" font-family="Helvetica,sans-Serif" font-size="10.00">tds_put_param_as_string</text>
</a>
</g>
</g>
<!-- Node1&#45;&gt;Node20 -->
<g id="edge38" class="edge"><title>Node1&#45;&gt;Node20</title>
<path fill="none" stroke="midnightblue" d="M64.9333,-371.736C79.9273,-350.228 107.651,-314.916 140,-295 146.324,-291.107 153.466,-287.99 160.679,-285.501"/>
<polygon fill="midnightblue" stroke="midnightblue" points="61.8535,-370.042 59.1394,-380.283 67.6477,-373.97 61.8535,-370.042"/>
</g>
<!-- Node22 -->
<g id="node22" class="node"><title>Node22</title>
<g id="a_node22"><a xlink:href="a00298.html#a84e17808683ba2dd956e811a42e23176" target="_top" xlink:title="Write data to wire. ">
<polygon fill="white" stroke="black" points="162.5,-0.5 162.5,-19.5 254.5,-19.5 254.5,-0.5 162.5,-0.5"/>
<text text-anchor="middle" x="208.5" y="-7.5" font-family="Helvetica,sans-Serif" font-size="10.00">tds_generic_put</text>
</a>
</g>
</g>
<!-- Node1&#45;&gt;Node22 -->
<g id="edge42" class="edge"><title>Node1&#45;&gt;Node22</title>
<path fill="none" stroke="midnightblue" d="M55.3351,-370.381C63.6718,-303.387 93.9491,-85.0015 140,-34 146.001,-27.3535 153.966,-22.5473 162.316,-19.0718"/>
<polygon fill="midnightblue" stroke="midnightblue" points="51.8464,-370.076 54.1097,-380.426 58.7949,-370.924 51.8464,-370.076"/>
</g>
<!-- Node3 -->
<g id="node3" class="node"><title>Node3</title>
<g id="a_node3"><a xlink:href="a00356.html#gab543692776c2bc0afc3bd056f074080c" target="_top" xlink:title="Start query packet of a given type. ">
<polygon fill="white" stroke="black" points="333,-608.5 333,-627.5 423,-627.5 423,-608.5 333,-608.5"/>
<text text-anchor="middle" x="378" y="-615.5" font-family="Helvetica,sans-Serif" font-size="10.00">tds_start_query</text>
</a>
</g>
</g>
<!-- Node2&#45;&gt;Node3 -->
<g id="edge2" class="edge"><title>Node2&#45;&gt;Node3</title>
<path fill="none" stroke="midnightblue" d="M222.607,-407.841C256.186,-453.549 344.45,-573.694 369.986,-608.453"/>
<polygon fill="midnightblue" stroke="midnightblue" points="225.225,-405.493 216.484,-399.507 219.584,-409.638 225.225,-405.493"/>
</g>
<!-- Node2&#45;&gt;Node9 -->
<g id="edge18" class="edge"><title>Node2&#45;&gt;Node9</title>
<path fill="none" stroke="midnightblue" d="M252.35,-402.149C330.274,-422.046 499.299,-455.009 631,-409 669.207,-395.653 703.563,-359.916 718.546,-342.629"/>
<polygon fill="midnightblue" stroke="midnightblue" points="252.976,-398.695 242.416,-399.556 251.208,-405.469 252.976,-398.695"/>
</g>
<!-- Node2&#45;&gt;Node13 -->
<g id="edge13" class="edge"><title>Node2&#45;&gt;Node13</title>
<path fill="none" stroke="midnightblue" d="M278.853,-390C338.806,-390 425.013,-390 484.894,-390"/>
<polygon fill="midnightblue" stroke="midnightblue" points="278.722,-386.5 268.722,-390 278.722,-393.5 278.722,-386.5"/>
</g>
<!-- Node2&#45;&gt;Node15 -->
<g id="edge19" class="edge"><title>Node2&#45;&gt;Node15</title>
<path fill="none" stroke="midnightblue" d="M234.591,-374.71C249.093,-364.609 266.492,-350.098 277,-333 313.349,-273.852 263.902,-230.083 313,-181 327.025,-166.979 446.013,-143.562 511.385,-131.574"/>
<polygon fill="midnightblue" stroke="midnightblue" points="232.408,-371.958 226.024,-380.413 236.287,-377.785 232.408,-371.958"/>
</g>
<!-- Node3&#45;&gt;Node4 -->
<g id="edge3" class="edge"><title>Node3&#45;&gt;Node4</title>
<path fill="none" stroke="midnightblue" d="M419.65,-604.874C427.591,-601.726 435.71,-598.077 443,-594 460.691,-584.106 461.071,-575.457 479,-566 490.246,-560.068 503.219,-555.279 515.18,-551.585"/>
<polygon fill="midnightblue" stroke="midnightblue" points="418.245,-601.663 410.119,-608.462 420.711,-608.215 418.245,-601.663"/>
</g>
<!-- Node3&#45;&gt;Node5 -->
<g id="edge4" class="edge"><title>Node3&#45;&gt;Node5</title>
<path fill="none" stroke="midnightblue" d="M396.393,-601.038C423.723,-574.448 474.133,-525.684 479,-523 486.057,-519.108 493.927,-515.997 501.839,-513.514"/>
<polygon fill="midnightblue" stroke="midnightblue" points="393.762,-598.714 389.04,-608.198 398.646,-603.729 393.762,-598.714"/>
</g>
<!-- Node6 -->
<g id="node6" class="node"><title>Node6</title>
<g id="a_node6"><a xlink:href="a00356.html#ga3e7b4793c6f799fbc6c174f673bb5b32" target="_top" xlink:title="tds_submit_execute() sends a previously prepared dynamic statement to the server. ...">
<polygon fill="white" stroke="black" points="673,-247.5 673,-266.5 782,-266.5 782,-247.5 673,-247.5"/>
<text text-anchor="middle" x="727.5" y="-254.5" font-family="Helvetica,sans-Serif" font-size="10.00">tds_submit_execute</text>
</a>
</g>
</g>
<!-- Node3&#45;&gt;Node6 -->
<g id="edge5" class="edge"><title>Node3&#45;&gt;Node6</title>
<path fill="none" stroke="midnightblue" d="M433.13,-609.091C503.088,-597.076 617.572,-575.514 631,-561 706.338,-479.567 616.186,-412.616 667,-314 677.418,-293.781 697.848,-276.69 711.834,-266.641"/>
<polygon fill="midnightblue" stroke="midnightblue" points="432.418,-605.662 423.148,-610.793 433.594,-612.562 432.418,-605.662"/>
</g>
<!-- Node7 -->
<g id="node7" class="node"><title>Node7</title>
<g id="a_node7"><a xlink:href="a00356.html#gaf573d8d4d2660c8c27770573fca05ff5" target="_top" xlink:title="Send a unprepare request for a prepared query. ">
<polygon fill="white" stroke="red" points="494.5,-684.5 494.5,-703.5 615.5,-703.5 615.5,-684.5 494.5,-684.5"/>
<text text-anchor="middle" x="555" y="-691.5" font-family="Helvetica,sans-Serif" font-size="10.00">tds_submit_unprepare</text>
</a>
</g>
</g>
<!-- Node3&#45;&gt;Node7 -->
<g id="edge6" class="edge"><title>Node3&#45;&gt;Node7</title>
<path fill="none" stroke="midnightblue" d="M403.958,-632.492C423.851,-643.67 452.645,-659.024 479,-670 492.125,-675.466 506.964,-680.452 519.958,-684.446"/>
<polygon fill="midnightblue" stroke="midnightblue" points="405.645,-629.425 395.221,-627.53 402.187,-635.512 405.645,-629.425"/>
</g>
<!-- Node8 -->
<g id="node8" class="node"><title>Node8</title>
<g id="a_node8"><a xlink:href="a00356.html#ga02c6ce3ff96369603a6ee4efee64caae" target="_top" xlink:title="Emulate prepared execute traslating to a normal language. ">
<polygon fill="white" stroke="black" points="479,-285.5 479,-304.5 631,-304.5 631,-285.5 479,-285.5"/>
<text text-anchor="middle" x="555" y="-292.5" font-family="Helvetica,sans-Serif" font-size="10.00">tds_send_emulated_execute</text>
</a>
</g>
</g>
<!-- Node3&#45;&gt;Node8 -->
<g id="edge7" class="edge"><title>Node3&#45;&gt;Node8</title>
<path fill="none" stroke="midnightblue" d="M384.03,-598.566C395.844,-555.174 428.255,-448.161 479,-371 496.927,-343.741 525.654,-318.041 541.857,-304.641"/>
<polygon fill="midnightblue" stroke="midnightblue" points="380.606,-597.825 381.415,-608.389 387.37,-599.626 380.606,-597.825"/>
</g>
<!-- Node10 -->
<g id="node10" class="node"><title>Node10</title>
<g id="a_node10"><a xlink:href="a00356.html#ga7bf3670d3d6dabed469b9eb117298079" target="_top" xlink:title="Send a rollback request. ">
<polygon fill="white" stroke="black" points="824,-641.5 824,-660.5 946,-660.5 946,-641.5 824,-641.5"/>
<text text-anchor="middle" x="885" y="-648.5" font-family="Helvetica,sans-Serif" font-size="10.00">tds_submit_begin_tran</text>
</a>
</g>
</g>
<!-- Node3&#45;&gt;Node10 -->
<g id="edge10" class="edge"><title>Node3&#45;&gt;Node10</title>
<path fill="none" stroke="midnightblue" d="M433.22,-627.315C490.955,-636.726 585.107,-650.621 667,-656 720.662,-659.525 734.24,-657.399 788,-656 799.595,-655.698 811.97,-655.192 823.847,-654.614"/>
<polygon fill="midnightblue" stroke="midnightblue" points="433.66,-623.84 423.225,-625.671 432.524,-630.747 433.66,-623.84"/>
</g>
<!-- Node11 -->
<g id="node11" class="node"><title>Node11</title>
<g id="a_node11"><a xlink:href="a00356.html#ga9c1cdcc388506a2ca3c0aaee8c461ba6" target="_top" xlink:title="Send a rollback request. ">
<polygon fill="white" stroke="black" points="831,-589.5 831,-608.5 939,-608.5 939,-589.5 831,-589.5"/>
<text text-anchor="middle" x="885" y="-596.5" font-family="Helvetica,sans-Serif" font-size="10.00">tds_submit_rollback</text>
</a>
</g>
</g>
<!-- Node3&#45;&gt;Node11 -->
<g id="edge11" class="edge"><title>Node3&#45;&gt;Node11</title>
<path fill="none" stroke="midnightblue" d="M433.612,-615.945C531.226,-612.273 734.424,-604.628 830.92,-600.997"/>
<polygon fill="midnightblue" stroke="midnightblue" points="433.234,-612.457 423.373,-616.331 433.497,-619.452 433.234,-612.457"/>
</g>
<!-- Node12 -->
<g id="node12" class="node"><title>Node12</title>
<g id="a_node12"><a xlink:href="a00356.html#ga530538c4c975524cf0b771a550fc94a3" target="_top" xlink:title="Send a commit request. ">
<polygon fill="white" stroke="black" points="832.5,-707.5 832.5,-726.5 937.5,-726.5 937.5,-707.5 832.5,-707.5"/>
<text text-anchor="middle" x="885" y="-714.5" font-family="Helvetica,sans-Serif" font-size="10.00">tds_submit_commit</text>
</a>
</g>
</g>
<!-- Node3&#45;&gt;Node12 -->
<g id="edge12" class="edge"><title>Node3&#45;&gt;Node12</title>
<path fill="none" stroke="midnightblue" d="M391.091,-635.869C407.766,-658.741 440.204,-697.287 479,-713 602.341,-762.954 764.654,-741.236 840.912,-726.515"/>
<polygon fill="midnightblue" stroke="midnightblue" points="393.934,-633.827 385.306,-627.679 388.217,-637.866 393.934,-633.827"/>
</g>
<!-- Node8&#45;&gt;Node6 -->
<g id="edge9" class="edge"><title>Node8&#45;&gt;Node6</title>
<path fill="none" stroke="midnightblue" d="M609.054,-283.176C633.091,-277.818 661.132,-271.569 683.785,-266.52"/>
<polygon fill="midnightblue" stroke="midnightblue" points="608.023,-279.819 599.024,-285.411 609.546,-286.652 608.023,-279.819"/>
</g>
<!-- Node8&#45;&gt;Node9 -->
<g id="edge8" class="edge"><title>Node8&#45;&gt;Node9</title>
<path fill="none" stroke="midnightblue" d="M609.054,-306.824C633.091,-312.182 661.132,-318.431 683.785,-323.48"/>
<polygon fill="midnightblue" stroke="midnightblue" points="609.546,-303.348 599.024,-304.589 608.023,-310.181 609.546,-303.348"/>
</g>
<!-- Node14 -->
<g id="node14" class="node"><title>Node14</title>
<g id="a_node14"><a xlink:href="a00356.html#ga5a29ae7f99d089dc3cea85ec6ee5f3ab" target="_top" xlink:title="tds_submit_query() sends a language string to the database server for processing. ...">
<polygon fill="white" stroke="red" points="678.5,-627.5 678.5,-646.5 776.5,-646.5 776.5,-627.5 678.5,-627.5"/>
<text text-anchor="middle" x="727.5" y="-634.5" font-family="Helvetica,sans-Serif" font-size="10.00">tds_submit_query</text>
</a>
</g>
</g>
<!-- Node13&#45;&gt;Node14 -->
<g id="edge14" class="edge"><title>Node13&#45;&gt;Node14</title>
<path fill="none" stroke="midnightblue" d="M570.674,-407.413C586.234,-426.142 611.245,-457.011 631,-485 667.662,-536.942 706.537,-602.623 720.818,-627.163"/>
<polygon fill="midnightblue" stroke="midnightblue" points="573.34,-405.146 564.242,-399.716 567.968,-409.634 573.34,-405.146"/>
</g>
<!-- Node14&#45;&gt;Node10 -->
<g id="edge15" class="edge"><title>Node14&#45;&gt;Node10</title>
<path fill="none" stroke="midnightblue" d="M786.834,-642.252C798.942,-643.342 811.721,-644.493 823.892,-645.588"/>
<polygon fill="midnightblue" stroke="midnightblue" points="787.122,-638.764 776.849,-641.353 786.495,-645.736 787.122,-638.764"/>
</g>
<!-- Node14&#45;&gt;Node11 -->
<g id="edge16" class="edge"><title>Node14&#45;&gt;Node11</title>
<path fill="none" stroke="midnightblue" d="M777.474,-625.032C799.265,-619.707 824.567,-613.524 845.043,-608.52"/>
<polygon fill="midnightblue" stroke="midnightblue" points="776.622,-621.637 767.739,-627.411 778.284,-628.437 776.622,-621.637"/>
</g>
<!-- Node14&#45;&gt;Node12 -->
<g id="edge17" class="edge"><title>Node14&#45;&gt;Node12</title>
<path fill="none" stroke="midnightblue" d="M756.36,-651.333C787.791,-667.504 838.053,-693.362 865.177,-707.316"/>
<polygon fill="midnightblue" stroke="midnightblue" points="757.75,-648.112 747.257,-646.65 754.548,-654.337 757.75,-648.112"/>
</g>
<!-- Node16 -->
<g id="node16" class="node"><title>Node16</title>
<g id="a_node16"><a xlink:href="a00342.html#gafa4dfd181be21e49c397f7daaa9cf96c" target="_top" xlink:title="Execute the procedure and free associated memory. ">
<polygon fill="white" stroke="black" points="694.5,-114.5 694.5,-133.5 760.5,-133.5 760.5,-114.5 694.5,-114.5"/>
<text text-anchor="middle" x="727.5" y="-121.5" font-family="Helvetica,sans-Serif" font-size="10.00">dbrpcsend</text>
</a>
</g>
</g>
<!-- Node15&#45;&gt;Node16 -->
<g id="edge20" class="edge"><title>Node15&#45;&gt;Node16</title>
<path fill="none" stroke="midnightblue" d="M608.632,-124C636.66,-124 670.228,-124 694.359,-124"/>
<polygon fill="midnightblue" stroke="midnightblue" points="608.585,-120.5 598.585,-124 608.585,-127.5 608.585,-120.5"/>
</g>
<!-- Node17&#45;&gt;Node5 -->
<g id="edge28" class="edge"><title>Node17&#45;&gt;Node5</title>
<path fill="none" stroke="midnightblue" d="M236.212,-328.732C303.796,-366.006 480.202,-463.299 536.478,-494.336"/>
<polygon fill="midnightblue" stroke="midnightblue" points="237.504,-325.448 227.057,-323.683 234.124,-331.578 237.504,-325.448"/>
</g>
<!-- Node17&#45;&gt;Node9 -->
<g id="edge27" class="edge"><title>Node17&#45;&gt;Node9</title>
<path fill="none" stroke="midnightblue" d="M269.258,-316.196C368.786,-319.854 567.374,-327.152 666.839,-330.807"/>
<polygon fill="midnightblue" stroke="midnightblue" points="269.194,-312.692 259.072,-315.822 268.937,-319.687 269.194,-312.692"/>
</g>
<!-- Node17&#45;&gt;Node13 -->
<g id="edge26" class="edge"><title>Node17&#45;&gt;Node13</title>
<path fill="none" stroke="midnightblue" d="M262.896,-325.78C331.153,-340.838 447.998,-366.615 510.895,-380.491"/>
<polygon fill="midnightblue" stroke="midnightblue" points="263.302,-322.285 252.782,-323.548 261.794,-329.121 263.302,-322.285"/>
</g>
<!-- Node17&#45;&gt;Node15 -->
<g id="edge36" class="edge"><title>Node17&#45;&gt;Node15</title>
<path fill="none" stroke="midnightblue" d="M268.086,-302.124C271.334,-300.101 274.348,-297.744 277,-295 323.742,-246.631 262.207,-192.096 313,-148 367.771,-100.45 458.154,-106.084 511.288,-114.818"/>
<polygon fill="midnightblue" stroke="midnightblue" points="266.351,-299.08 259.029,-306.738 269.528,-305.317 266.351,-299.08"/>
</g>
<!-- Node18 -->
<g id="node18" class="node"><title>Node18</title>
<g id="a_node18"><a xlink:href="a00356.html#gab71e2dc686eafe926dbebbce00d27dc4" target="_top" xlink:title="Send dynamic request on TDS 7+ to be executed. ">
<polygon fill="white" stroke="black" points="323.5,-190.5 323.5,-209.5 432.5,-209.5 432.5,-190.5 323.5,-190.5"/>
<text text-anchor="middle" x="378" y="-197.5" font-family="Helvetica,sans-Serif" font-size="10.00">tds7_send_execute</text>
</a>
</g>
</g>
<!-- Node17&#45;&gt;Node18 -->
<g id="edge29" class="edge"><title>Node17&#45;&gt;Node18</title>
<path fill="none" stroke="midnightblue" d="M268.276,-301.027C271.376,-299.267 274.315,-297.268 277,-295 305.553,-270.882 284.619,-243.32 313,-219 317.489,-215.154 322.729,-212.086 328.243,-209.639"/>
<polygon fill="midnightblue" stroke="midnightblue" points="266.691,-297.906 259.187,-305.385 269.717,-304.218 266.691,-297.906"/>
</g>
<!-- Node19 -->
<g id="node19" class="node"><title>Node19</title>
<g id="a_node19"><a xlink:href="a00356.html#ga28264995cf9616661f1fa788ac0d246d" target="_top" xlink:title="Send parameters to server. ">
<polygon fill="white" stroke="black" points="332,-228.5 332,-247.5 424,-247.5 424,-228.5 332,-228.5"/>
<text text-anchor="middle" x="378" y="-235.5" font-family="Helvetica,sans-Serif" font-size="10.00">tds_put_params</text>
</a>
</g>
</g>
<!-- Node17&#45;&gt;Node19 -->
<g id="edge31" class="edge"><title>Node17&#45;&gt;Node19</title>
<path fill="none" stroke="midnightblue" d="M259.615,-301.376C265.549,-299.448 271.46,-297.318 277,-295 309.077,-281.58 343.747,-260.071 362.666,-247.668"/>
<polygon fill="midnightblue" stroke="midnightblue" points="258.202,-298.149 249.67,-304.429 260.256,-304.84 258.202,-298.149"/>
</g>
<!-- Node18&#45;&gt;Node6 -->
<g id="edge30" class="edge"><title>Node18&#45;&gt;Node6</title>
<path fill="none" stroke="midnightblue" d="M443.112,-206.319C494.238,-211.857 567.538,-220.913 631,-233 651.656,-236.934 674.509,-242.628 692.68,-247.483"/>
<polygon fill="midnightblue" stroke="midnightblue" points="443.187,-202.807 432.871,-205.225 442.443,-209.768 443.187,-202.807"/>
</g>
<!-- Node19&#45;&gt;Node6 -->
<g id="edge34" class="edge"><title>Node19&#45;&gt;Node6</title>
<path fill="none" stroke="midnightblue" d="M434.325,-237.103C485.451,-236.748 563.479,-237.403 631,-243 644.61,-244.128 659.234,-245.957 672.846,-247.926"/>
<polygon fill="midnightblue" stroke="midnightblue" points="434.124,-233.605 424.154,-237.19 434.183,-240.605 434.124,-233.605"/>
</g>
<!-- Node19&#45;&gt;Node9 -->
<g id="edge33" class="edge"><title>Node19&#45;&gt;Node9</title>
<path fill="none" stroke="midnightblue" d="M434.476,-240.206C486.561,-243.698 565.98,-252.715 631,-276 663.175,-287.522 696.511,-310.36 714.022,-323.358"/>
<polygon fill="midnightblue" stroke="midnightblue" points="434.635,-236.71 424.436,-239.579 434.198,-243.696 434.635,-236.71"/>
</g>
<!-- Node19&#45;&gt;Node13 -->
<g id="edge32" class="edge"><title>Node19&#45;&gt;Node13</title>
<path fill="none" stroke="midnightblue" d="M397.869,-254.389C434.449,-286.161 513.967,-355.228 543.057,-380.495"/>
<polygon fill="midnightblue" stroke="midnightblue" points="399.792,-251.423 389.947,-247.508 395.202,-256.708 399.792,-251.423"/>
</g>
<!-- Node19&#45;&gt;Node15 -->
<g id="edge35" class="edge"><title>Node19&#45;&gt;Node15</title>
<path fill="none" stroke="midnightblue" d="M430.333,-224.887C434.715,-223.134 438.997,-221.177 443,-219 486.449,-195.363 528.11,-152.615 545.497,-133.585"/>
<polygon fill="midnightblue" stroke="midnightblue" points="428.855,-221.7 420.651,-228.403 431.245,-228.279 428.855,-221.7"/>
</g>
<!-- Node20&#45;&gt;Node8 -->
<g id="edge41" class="edge"><title>Node20&#45;&gt;Node8</title>
<path fill="none" stroke="midnightblue" d="M287.243,-280.288C344.533,-283.447 422.025,-287.721 478.724,-290.848"/>
<polygon fill="midnightblue" stroke="midnightblue" points="287.329,-276.787 277.151,-279.731 286.943,-283.777 287.329,-276.787"/>
</g>
<!-- Node21 -->
<g id="node21" class="node"><title>Node21</title>
<g id="a_node21"><a xlink:href="a00356.html#gaf614c75ea8f7ad411e53dac0e2f91be4" target="_top" xlink:title="Send RPC as string query. ">
<polygon fill="white" stroke="black" points="313,-76.5 313,-95.5 443,-95.5 443,-76.5 313,-76.5"/>
<text text-anchor="middle" x="378" y="-83.5" font-family="Helvetica,sans-Serif" font-size="10.00">tds_send_emulated_rpc</text>
</a>
</g>
</g>
<!-- Node20&#45;&gt;Node21 -->
<g id="edge39" class="edge"><title>Node20&#45;&gt;Node21</title>
<path fill="none" stroke="midnightblue" d="M216.744,-256.464C230.418,-222.134 263.203,-150.767 313,-110 320.621,-103.761 330.028,-99.0445 339.261,-95.5194"/>
<polygon fill="midnightblue" stroke="midnightblue" points="213.313,-255.634 212.979,-266.223 219.844,-258.153 213.313,-255.634"/>
</g>
<!-- Node21&#45;&gt;Node15 -->
<g id="edge40" class="edge"><title>Node21&#45;&gt;Node15</title>
<path fill="none" stroke="midnightblue" d="M432.944,-97.7136C458.157,-103.188 487.749,-109.614 511.365,-114.742"/>
<polygon fill="midnightblue" stroke="midnightblue" points="433.675,-94.2908 423.16,-95.589 432.189,-101.131 433.675,-94.2908"/>
</g>
</g>
</svg>
