<?xml version="1.0" encoding="UTF-8" standalone="no"?>
<!DOCTYPE svg PUBLIC "-//W3C//DTD SVG 1.1//EN"
 "http://www.w3.org/Graphics/SVG/1.1/DTD/svg11.dtd">
<!-- Generated by graphviz version 2.38.0 (20140413.2041)
 -->
<!-- Title: tds7_get_data_info Pages: 1 -->
<svg width="1099pt" height="367pt"
 viewBox="0.00 0.00 1099.00 366.70" xmlns="http://www.w3.org/2000/svg" xmlns:xlink="http://www.w3.org/1999/xlink">
<g id="graph0" class="graph" transform="scale(1 1) rotate(0) translate(4 362.7)">
<title>tds7_get_data_info</title>
<polygon fill="white" stroke="none" points="-4,4 -4,-362.7 1095,-362.7 1095,4 -4,4"/>
<!-- Node1 -->
<g id="node1" class="node"><title>Node1</title>
<polygon fill="#bfbfbf" stroke="black" points="0,-187.2 0,-206.2 108,-206.2 108,-187.2 0,-187.2"/>
<text text-anchor="middle" x="54" y="-194.2" font-family="Helvetica,sans-Serif" font-size="10.00">tds7_get_data_info</text>
</g>
<!-- Node2 -->
<g id="node2" class="node"><title>Node2</title>
<g id="a_node2"><a xlink:href="a00298.html#a7d6ccf355d1fc24711b5cd5bbc23a931" target="_top" xlink:title="Set type of column initializing all dependency. ">
<polygon fill="white" stroke="black" points="165.5,-301.2 165.5,-320.2 281.5,-320.2 281.5,-301.2 165.5,-301.2"/>
<text text-anchor="middle" x="223.5" y="-308.2" font-family="Helvetica,sans-Serif" font-size="10.00">tds_set_column_type</text>
</a>
</g>
</g>
<!-- Node1&#45;&gt;Node2 -->
<g id="edge1" class="edge"><title>Node1&#45;&gt;Node2</title>
<path fill="none" stroke="midnightblue" d="M61.9234,-206.382C75.5521,-224.745 107.708,-264.755 144,-286.7 151.363,-291.152 159.619,-294.839 167.937,-297.874"/>
<polygon fill="midnightblue" stroke="midnightblue" points="167.088,-301.281 177.682,-301.145 169.315,-294.645 167.088,-301.281"/>
</g>
<!-- Node5 -->
<g id="node5" class="node"><title>Node5</title>
<g id="a_node5"><a xlink:href="a00357.html#ga0cb72d3f6943795c39db1fa692be0a58" target="_top" xlink:title="Return a single byte from the input buffer. ">
<polygon fill="white" stroke="black" points="522.5,-225.2 522.5,-244.2 599.5,-244.2 599.5,-225.2 522.5,-225.2"/>
<text text-anchor="middle" x="561" y="-232.2" font-family="Helvetica,sans-Serif" font-size="10.00">tds_get_byte</text>
</a>
</g>
</g>
<!-- Node1&#45;&gt;Node5 -->
<g id="edge4" class="edge"><title>Node1&#45;&gt;Node5</title>
<path fill="none" stroke="midnightblue" d="M108.089,-200.695C206.944,-208.133 417.757,-223.997 512.341,-231.114"/>
<polygon fill="midnightblue" stroke="midnightblue" points="512.242,-234.616 522.476,-231.876 512.767,-227.636 512.242,-234.616"/>
</g>
<!-- Node7 -->
<g id="node7" class="node"><title>Node7</title>
<g id="a_node7"><a xlink:href="a00193.html#ab45c291105027e69836002e1dd586141" target="_top" xlink:title="Write a message to the debug log. ">
<polygon fill="white" stroke="black" points="1014,-168.2 1014,-187.2 1091,-187.2 1091,-168.2 1014,-168.2"/>
<text text-anchor="middle" x="1052.5" y="-175.2" font-family="Helvetica,sans-Serif" font-size="10.00">tdsdump_log</text>
</a>
</g>
</g>
<!-- Node1&#45;&gt;Node7 -->
<g id="edge23" class="edge"><title>Node1&#45;&gt;Node7</title>
<path fill="none" stroke="midnightblue" d="M80.9245,-206.325C138.406,-226.776 281.262,-272.7 405,-272.7 405,-272.7 405,-272.7 835.5,-272.7 912.921,-272.7 993.748,-220.928 1030.76,-193.822"/>
<polygon fill="midnightblue" stroke="midnightblue" points="1033.29,-196.302 1039.2,-187.509 1029.09,-190.698 1033.29,-196.302"/>
</g>
<!-- Node11 -->
<g id="node11" class="node"><title>Node11</title>
<g id="a_node11"><a xlink:href="a00359.html#ga91770634ce8c0d6f1fe007b45da186fd" target="_top" xlink:title="Adjust column size according to client&#39;s encoding. ">
<polygon fill="white" stroke="black" points="144,-73.2 144,-92.2 303,-92.2 303,-73.2 144,-73.2"/>
<text text-anchor="middle" x="223.5" y="-80.2" font-family="Helvetica,sans-Serif" font-size="10.00">adjust_character_column_size</text>
</a>
</g>
</g>
<!-- Node1&#45;&gt;Node11 -->
<g id="edge12" class="edge"><title>Node1&#45;&gt;Node11</title>
<path fill="none" stroke="midnightblue" d="M68.9929,-187.177C97.8636,-167.527 164.277,-122.327 199.535,-98.3299"/>
<polygon fill="midnightblue" stroke="midnightblue" points="201.894,-100.958 208.192,-92.4381 197.956,-95.1712 201.894,-100.958"/>
</g>
<!-- Node13 -->
<g id="node13" class="node"><title>Node13</title>
<g id="a_node13"><a xlink:href="a00357.html#gafae08056186b143f3ef1399307dc9be7" target="_top" xlink:title="Reads a string from wire and put in a DSTR. ">
<polygon fill="white" stroke="black" points="185.5,-149.2 185.5,-168.2 261.5,-168.2 261.5,-149.2 185.5,-149.2"/>
<text text-anchor="middle" x="223.5" y="-156.2" font-family="Helvetica,sans-Serif" font-size="10.00">tds_dstr_get</text>
</a>
</g>
</g>
<!-- Node1&#45;&gt;Node13 -->
<g id="edge15" class="edge"><title>Node1&#45;&gt;Node13</title>
<path fill="none" stroke="midnightblue" d="M97.2673,-187.111C121.118,-181.7 150.972,-174.927 175.55,-169.351"/>
<polygon fill="midnightblue" stroke="midnightblue" points="176.4,-172.747 185.378,-167.122 174.852,-165.921 176.4,-172.747"/>
</g>
<!-- Node19 -->
<g id="node19" class="node"><title>Node19</title>
<g id="a_node19"><a xlink:href="a00359.html#ga0cf7e719115b0ae476753442d10505ab" target="_top" xlink:title="Returns string representation of the given type. ">
<polygon fill="white" stroke="black" points="190,-35.2 190,-54.2 257,-54.2 257,-35.2 190,-35.2"/>
<text text-anchor="middle" x="223.5" y="-42.2" font-family="Helvetica,sans-Serif" font-size="10.00">tds_prtype</text>
</a>
</g>
</g>
<!-- Node1&#45;&gt;Node19 -->
<g id="edge24" class="edge"><title>Node1&#45;&gt;Node19</title>
<path fill="none" stroke="midnightblue" d="M58.6282,-186.848C68.3187,-161.973 97.2925,-96.2938 144,-63.7 154.421,-56.428 167.301,-51.9236 179.594,-49.1386"/>
<polygon fill="midnightblue" stroke="midnightblue" points="180.561,-52.5164 189.714,-47.1806 179.232,-45.6438 180.561,-52.5164"/>
</g>
<!-- Node3 -->
<g id="node3" class="node"><title>Node3</title>
<g id="a_node3"><a xlink:href="a00193.html#a68855f1251759a6b7338635306ab0041" target="_top" xlink:title="tds_get_varint_size() returns the size of a variable length integer returned in a TDS 7...">
<polygon fill="white" stroke="black" points="351.5,-339.2 351.5,-358.2 460.5,-358.2 460.5,-339.2 351.5,-339.2"/>
<text text-anchor="middle" x="406" y="-346.2" font-family="Helvetica,sans-Serif" font-size="10.00">tds_get_varint_size</text>
</a>
</g>
</g>
<!-- Node2&#45;&gt;Node3 -->
<g id="edge2" class="edge"><title>Node2&#45;&gt;Node3</title>
<path fill="none" stroke="midnightblue" d="M270.048,-320.289C294.296,-325.394 324.304,-331.711 349.861,-337.092"/>
<polygon fill="midnightblue" stroke="midnightblue" points="349.273,-340.545 359.78,-339.18 350.715,-333.695 349.273,-340.545"/>
</g>
<!-- Node4 -->
<g id="node4" class="node"><title>Node4</title>
<g id="a_node4"><a xlink:href="a00193.html#aa70b02ff34ac03040ca41f13d5fd35bd" target="_top" xlink:title="Return the number of bytes needed by specified type. ">
<polygon fill="white" stroke="black" points="346.5,-301.2 346.5,-320.2 465.5,-320.2 465.5,-301.2 346.5,-301.2"/>
<text text-anchor="middle" x="406" y="-308.2" font-family="Helvetica,sans-Serif" font-size="10.00">tds_get_size_by_type</text>
</a>
</g>
</g>
<!-- Node2&#45;&gt;Node4 -->
<g id="edge3" class="edge"><title>Node2&#45;&gt;Node4</title>
<path fill="none" stroke="midnightblue" d="M281.611,-310.7C298.96,-310.7 318.205,-310.7 336.236,-310.7"/>
<polygon fill="midnightblue" stroke="midnightblue" points="336.397,-314.2 346.397,-310.7 336.397,-307.2 336.397,-314.2"/>
</g>
<!-- Node6 -->
<g id="node6" class="node"><title>Node6</title>
<g id="a_node6"><a xlink:href="a00357.html#ga410619783bdf2bb60b0f27a5578e0e07" target="_top" xlink:title="Read in one &#39;packet&#39; from the server. ">
<polygon fill="white" stroke="black" points="649,-187.2 649,-206.2 745,-206.2 745,-187.2 649,-187.2"/>
<text text-anchor="middle" x="697" y="-194.2" font-family="Helvetica,sans-Serif" font-size="10.00">tds_read_packet</text>
</a>
</g>
</g>
<!-- Node5&#45;&gt;Node6 -->
<g id="edge5" class="edge"><title>Node5&#45;&gt;Node6</title>
<path fill="none" stroke="midnightblue" d="M595.814,-225.111C613.033,-220.228 634.164,-214.236 652.573,-209.015"/>
<polygon fill="midnightblue" stroke="midnightblue" points="653.531,-212.382 662.197,-206.286 651.621,-205.647 653.531,-212.382"/>
</g>
<!-- Node6&#45;&gt;Node7 -->
<g id="edge6" class="edge"><title>Node6&#45;&gt;Node7</title>
<path fill="none" stroke="midnightblue" d="M745.308,-194.157C812.722,-190.534 935.751,-183.921 1003.53,-180.278"/>
<polygon fill="midnightblue" stroke="midnightblue" points="1004.12,-183.752 1013.91,-179.72 1003.74,-176.762 1004.12,-183.752"/>
</g>
<!-- Node8 -->
<g id="node8" class="node"><title>Node8</title>
<g id="a_node8"><a xlink:href="a00193.html#abf18b98efef6ce2dc0b97d658a3a1918" target="_top" xlink:title="Call the client library&#39;s error handler (for library&#45;generated errors only) ">
<polygon fill="white" stroke="red" points="924,-149.2 924,-168.2 978,-168.2 978,-149.2 924,-149.2"/>
<text text-anchor="middle" x="951" y="-156.2" font-family="Helvetica,sans-Serif" font-size="10.00">tdserror</text>
</a>
</g>
</g>
<!-- Node6&#45;&gt;Node8 -->
<g id="edge7" class="edge"><title>Node6&#45;&gt;Node8</title>
<path fill="none" stroke="midnightblue" d="M745.369,-188.491C757.01,-186.534 769.448,-184.494 781,-182.7 826.778,-175.59 879.667,-168.214 913.912,-163.548"/>
<polygon fill="midnightblue" stroke="midnightblue" points="914.474,-167.004 923.912,-162.19 913.532,-160.067 914.474,-167.004"/>
</g>
<!-- Node9 -->
<g id="node9" class="node"><title>Node9</title>
<g id="a_node9"><a xlink:href="a00357.html#ga3e3f76009fce5ceedb2f42bb2c9aed2e" target="_top" xlink:title="Close current socket for last socket close entire connection for MARS send FIN request. ">
<polygon fill="white" stroke="red" points="785.5,-111.2 785.5,-130.2 883.5,-130.2 883.5,-111.2 785.5,-111.2"/>
<text text-anchor="middle" x="834.5" y="-118.2" font-family="Helvetica,sans-Serif" font-size="10.00">tds_close_socket</text>
</a>
</g>
</g>
<!-- Node6&#45;&gt;Node9 -->
<g id="edge9" class="edge"><title>Node6&#45;&gt;Node9</title>
<path fill="none" stroke="midnightblue" d="M712.056,-187.099C728.297,-176.195 756.001,-158.17 781,-144.7 787.611,-141.138 794.851,-137.604 801.784,-134.388"/>
<polygon fill="midnightblue" stroke="midnightblue" points="803.299,-137.544 810.961,-130.227 800.408,-131.169 803.299,-137.544"/>
</g>
<!-- Node10 -->
<g id="node10" class="node"><title>Node10</title>
<g id="a_node10"><a xlink:href="a00193.html#a79449d2f35a8acc8ed0585044f75524d" target="_top" xlink:title="Dump the contents of data into the log file in a human readable format. ">
<polygon fill="white" stroke="black" points="781,-225.2 781,-244.2 888,-244.2 888,-225.2 781,-225.2"/>
<text text-anchor="middle" x="834.5" y="-232.2" font-family="Helvetica,sans-Serif" font-size="10.00">tdsdump_dump_buf</text>
</a>
</g>
</g>
<!-- Node6&#45;&gt;Node10 -->
<g id="edge11" class="edge"><title>Node6&#45;&gt;Node10</title>
<path fill="none" stroke="midnightblue" d="M732.192,-206.289C749.604,-211.172 770.971,-217.164 789.587,-222.385"/>
<polygon fill="midnightblue" stroke="midnightblue" points="788.745,-225.784 799.319,-225.114 790.635,-219.044 788.745,-225.784"/>
</g>
<!-- Node8&#45;&gt;Node7 -->
<g id="edge8" class="edge"><title>Node8&#45;&gt;Node7</title>
<path fill="none" stroke="midnightblue" d="M978.142,-163.692C986.091,-165.21 995.086,-166.928 1003.99,-168.627"/>
<polygon fill="midnightblue" stroke="midnightblue" points="1003.45,-172.088 1013.93,-170.526 1004.77,-165.213 1003.45,-172.088"/>
</g>
<!-- Node9&#45;&gt;Node8 -->
<g id="edge10" class="edge"><title>Node9&#45;&gt;Node8</title>
<path fill="none" stroke="midnightblue" d="M864.393,-130.289C879.535,-135.314 898.218,-141.515 914.263,-146.84"/>
<polygon fill="midnightblue" stroke="midnightblue" points="913.264,-150.196 923.857,-150.024 915.468,-143.552 913.264,-150.196"/>
</g>
<!-- Node11&#45;&gt;Node7 -->
<g id="edge14" class="edge"><title>Node11&#45;&gt;Node7</title>
<path fill="none" stroke="midnightblue" d="M281.344,-73.1022C288.897,-70.6464 296.326,-67.5651 303,-63.7 323.132,-52.0407 318.042,-35.8002 339,-25.7 427.809,17.1001 461.415,-6.70004 560,-6.70004 560,-6.70004 560,-6.70004 835.5,-6.70004 933.085,-6.70004 1012.32,-115.318 1040.47,-159.419"/>
<polygon fill="midnightblue" stroke="midnightblue" points="1037.57,-161.381 1045.83,-168.016 1043.51,-157.679 1037.57,-161.381"/>
</g>
<!-- Node12 -->
<g id="node12" class="node"><title>Node12</title>
<g id="a_node12"><a xlink:href="a00359.html#ga87209537d51f069fee02bc224da492cb" target="_top" xlink:title="Allow for maximum possible size of converted data, while being careful about integer division truncat...">
<polygon fill="white" stroke="black" points="339,-35.2 339,-54.2 473,-54.2 473,-35.2 339,-35.2"/>
<text text-anchor="middle" x="406" y="-42.2" font-family="Helvetica,sans-Serif" font-size="10.00">determine_adjusted_size</text>
</a>
</g>
</g>
<!-- Node11&#45;&gt;Node12 -->
<g id="edge13" class="edge"><title>Node11&#45;&gt;Node12</title>
<path fill="none" stroke="midnightblue" d="M270.048,-73.111C294.296,-68.0062 324.304,-61.6887 349.861,-56.3082"/>
<polygon fill="midnightblue" stroke="midnightblue" points="350.715,-59.7052 359.78,-54.2201 349.273,-52.8554 350.715,-59.7052"/>
</g>
<!-- Node14 -->
<g id="node14" class="node"><title>Node14</title>
<g id="a_node14"><a xlink:href="a00358.html#ga6aa14b8b717b51afcfb65bd55143689d" target="_top" xlink:title="allocate space for length char ">
<polygon fill="white" stroke="black" points="364.5,-73.2 364.5,-92.2 447.5,-92.2 447.5,-73.2 364.5,-73.2"/>
<text text-anchor="middle" x="406" y="-80.2" font-family="Helvetica,sans-Serif" font-size="10.00">tds_dstr_alloc</text>
</a>
</g>
</g>
<!-- Node13&#45;&gt;Node14 -->
<g id="edge16" class="edge"><title>Node13&#45;&gt;Node14</title>
<path fill="none" stroke="midnightblue" d="M241.514,-149.003C263.496,-136.764 303.2,-115.631 339,-101.7 344.907,-99.4016 351.206,-97.2384 357.48,-95.2535"/>
<polygon fill="midnightblue" stroke="midnightblue" points="358.706,-98.5393 367.259,-92.2872 356.674,-91.8407 358.706,-98.5393"/>
</g>
<!-- Node15 -->
<g id="node15" class="node"><title>Node15</title>
<g id="a_node15"><a xlink:href="a00357.html#gae7d9c4e1a079e1d0aa0252732631e8c4" target="_top" xlink:title="Get N bytes from the buffer and return them in the already allocated space given to us...">
<polygon fill="white" stroke="black" points="529,-187.2 529,-206.2 593,-206.2 593,-187.2 529,-187.2"/>
<text text-anchor="middle" x="561" y="-194.2" font-family="Helvetica,sans-Serif" font-size="10.00">tds_get_n</text>
</a>
</g>
</g>
<!-- Node13&#45;&gt;Node15 -->
<g id="edge17" class="edge"><title>Node13&#45;&gt;Node15</title>
<path fill="none" stroke="midnightblue" d="M261.52,-165.602C283.889,-169.583 313.009,-174.432 339,-177.7 401.433,-185.551 474.203,-191.121 518.678,-194.122"/>
<polygon fill="midnightblue" stroke="midnightblue" points="518.599,-197.625 528.809,-194.795 519.063,-190.64 518.599,-197.625"/>
</g>
<!-- Node16 -->
<g id="node16" class="node"><title>Node16</title>
<g id="a_node16"><a xlink:href="a00357.html#ga90f080e6e9448feac15dee1370d66802" target="_top" xlink:title="Fetch a string from the wire. ">
<polygon fill="white" stroke="black" points="364,-149.2 364,-168.2 448,-168.2 448,-149.2 364,-149.2"/>
<text text-anchor="middle" x="406" y="-156.2" font-family="Helvetica,sans-Serif" font-size="10.00">tds_get_string</text>
</a>
</g>
</g>
<!-- Node13&#45;&gt;Node16 -->
<g id="edge19" class="edge"><title>Node13&#45;&gt;Node16</title>
<path fill="none" stroke="midnightblue" d="M261.9,-158.7C288.502,-158.7 324.564,-158.7 353.831,-158.7"/>
<polygon fill="midnightblue" stroke="midnightblue" points="353.872,-162.2 363.872,-158.7 353.872,-155.2 353.872,-162.2"/>
</g>
<!-- Node18 -->
<g id="node18" class="node"><title>Node18</title>
<g id="a_node18"><a xlink:href="a00358.html#ga0cd7863ba7c2d2da4a193234472a3d14" target="_top" xlink:title="limit length of string, MUST be &lt;= current length ">
<polygon fill="white" stroke="black" points="361.5,-111.2 361.5,-130.2 450.5,-130.2 450.5,-111.2 361.5,-111.2"/>
<text text-anchor="middle" x="406" y="-118.2" font-family="Helvetica,sans-Serif" font-size="10.00">tds_dstr_setlen</text>
</a>
</g>
</g>
<!-- Node13&#45;&gt;Node18 -->
<g id="edge22" class="edge"><title>Node13&#45;&gt;Node18</title>
<path fill="none" stroke="midnightblue" d="M261.9,-150.826C287.763,-145.381 322.568,-138.054 351.376,-131.989"/>
<polygon fill="midnightblue" stroke="midnightblue" points="352.227,-135.387 361.292,-129.902 350.785,-128.537 352.227,-135.387"/>
</g>
<!-- Node15&#45;&gt;Node6 -->
<g id="edge18" class="edge"><title>Node15&#45;&gt;Node6</title>
<path fill="none" stroke="midnightblue" d="M593.079,-196.7C606.651,-196.7 623.016,-196.7 638.662,-196.7"/>
<polygon fill="midnightblue" stroke="midnightblue" points="638.804,-200.2 648.804,-196.7 638.804,-193.2 638.804,-200.2"/>
</g>
<!-- Node16&#45;&gt;Node15 -->
<g id="edge20" class="edge"><title>Node16&#45;&gt;Node15</title>
<path fill="none" stroke="midnightblue" d="M445.608,-168.289C467.971,-173.843 496.114,-180.833 518.889,-186.489"/>
<polygon fill="midnightblue" stroke="midnightblue" points="518.062,-189.89 528.611,-188.904 519.75,-183.097 518.062,-189.89"/>
</g>
<!-- Node17 -->
<g id="node17" class="node"><title>Node17</title>
<g id="a_node17"><a xlink:href="a00357.html#ga676c4dee6522815b16fdc8e448e43590" target="_top" xlink:title="For UTF&#45;8 and similar, tds_iconv() may encounter a partial sequence when the chunk boundary is not al...">
<polygon fill="white" stroke="red" points="509,-149.2 509,-168.2 613,-168.2 613,-149.2 509,-149.2"/>
<text text-anchor="middle" x="561" y="-156.2" font-family="Helvetica,sans-Serif" font-size="10.00">read_and_convert</text>
</a>
</g>
</g>
<!-- Node16&#45;&gt;Node17 -->
<g id="edge21" class="edge"><title>Node16&#45;&gt;Node17</title>
<path fill="none" stroke="midnightblue" d="M448.001,-158.7C463.468,-158.7 481.423,-158.7 498.365,-158.7"/>
<polygon fill="midnightblue" stroke="midnightblue" points="498.752,-162.2 508.752,-158.7 498.752,-155.2 498.752,-162.2"/>
</g>
</g>
</svg>
