<?xml version="1.0" encoding="UTF-8" standalone="no"?>
<!DOCTYPE svg PUBLIC "-//W3C//DTD SVG 1.1//EN"
 "http://www.w3.org/Graphics/SVG/1.1/DTD/svg11.dtd">
<!-- Generated by graphviz version 2.38.0 (20140413.2041)
 -->
<!-- Title: src/tds/read.c Pages: 1 -->
<svg width="1195pt" height="252pt"
 viewBox="0.00 0.00 1195.38 252.00" xmlns="http://www.w3.org/2000/svg" xmlns:xlink="http://www.w3.org/1999/xlink">
<g id="graph0" class="graph" transform="scale(1 1) rotate(0) translate(4 248)">
<title>src/tds/read.c</title>
<polygon fill="white" stroke="none" points="-4,4 -4,-248 1191.38,-248 1191.38,4 -4,4"/>
<!-- Node1 -->
<g id="node1" class="node"><title>Node1</title>
<polygon fill="#bfbfbf" stroke="black" points="938.384,-224.5 938.384,-243.5 1018.38,-243.5 1018.38,-224.5 938.384,-224.5"/>
<text text-anchor="middle" x="978.384" y="-231.5" font-family="Helvetica,sans-Serif" font-size="10.00">src/tds/read.c</text>
</g>
<!-- Node2 -->
<g id="node2" class="node"><title>Node2</title>
<polygon fill="white" stroke="#bfbfbf" points="345.884,-168.5 345.884,-187.5 398.884,-187.5 398.884,-168.5 345.884,-168.5"/>
<text text-anchor="middle" x="372.384" y="-175.5" font-family="Helvetica,sans-Serif" font-size="10.00">config.h</text>
</g>
<!-- Node1&#45;&gt;Node2 -->
<g id="edge1" class="edge"><title>Node1&#45;&gt;Node2</title>
<path fill="none" stroke="midnightblue" d="M938.376,-232.124C846.484,-229.624 613.224,-220.499 409.026,-187.808"/>
<polygon fill="midnightblue" stroke="midnightblue" points="409.449,-184.331 399.017,-186.182 408.327,-191.24 409.449,-184.331"/>
</g>
<!-- Node3 -->
<g id="node3" class="node"><title>Node3</title>
<polygon fill="white" stroke="#bfbfbf" points="417.384,-168.5 417.384,-187.5 471.384,-187.5 471.384,-168.5 417.384,-168.5"/>
<text text-anchor="middle" x="444.384" y="-175.5" font-family="Helvetica,sans-Serif" font-size="10.00">assert.h</text>
</g>
<!-- Node1&#45;&gt;Node3 -->
<g id="edge2" class="edge"><title>Node1&#45;&gt;Node3</title>
<path fill="none" stroke="midnightblue" d="M938.091,-231.476C854.592,-227.862 656.536,-216.935 481.328,-187.901"/>
<polygon fill="midnightblue" stroke="midnightblue" points="481.858,-184.441 471.416,-186.235 480.697,-191.344 481.858,-184.441"/>
</g>
<!-- Node4 -->
<g id="node4" class="node"><title>Node4</title>
<g id="a_node4"><a xlink:href="a00193.html" target="_top" xlink:title="Main include file for libtds. ">
<polygon fill="white" stroke="black" points="489.884,-168.5 489.884,-187.5 564.884,-187.5 564.884,-168.5 489.884,-168.5"/>
<text text-anchor="middle" x="527.384" y="-175.5" font-family="Helvetica,sans-Serif" font-size="10.00">freetds/tds.h</text>
</a>
</g>
</g>
<!-- Node1&#45;&gt;Node4 -->
<g id="edge3" class="edge"><title>Node1&#45;&gt;Node4</title>
<path fill="none" stroke="midnightblue" d="M938.361,-228.208C855.31,-218.264 664.562,-195.425 575.207,-184.726"/>
<polygon fill="midnightblue" stroke="midnightblue" points="575.428,-181.228 565.083,-183.514 574.596,-188.178 575.428,-181.228"/>
</g>
<!-- Node19 -->
<g id="node19" class="node"><title>Node19</title>
<g id="a_node19"><a xlink:href="a00184_source.html" target="_top" xlink:title="freetds/iconv.h">
<polygon fill="white" stroke="black" points="747.384,-56.5 747.384,-75.5 833.384,-75.5 833.384,-56.5 747.384,-56.5"/>
<text text-anchor="middle" x="790.384" y="-63.5" font-family="Helvetica,sans-Serif" font-size="10.00">freetds/iconv.h</text>
</a>
</g>
</g>
<!-- Node1&#45;&gt;Node19 -->
<g id="edge24" class="edge"><title>Node1&#45;&gt;Node19</title>
<path fill="none" stroke="midnightblue" d="M987.404,-224.34C995.456,-215.932 1006.68,-202.363 1011.38,-188 1021.89,-155.899 1032.75,-138.159 1011.38,-112 1006.03,-105.443 906.99,-87.1983 843.329,-76.0566"/>
<polygon fill="midnightblue" stroke="midnightblue" points="843.888,-72.6013 833.436,-74.3323 842.686,-79.4974 843.888,-72.6013"/>
</g>
<!-- Node20 -->
<g id="node20" class="node"><title>Node20</title>
<g id="a_node20"><a xlink:href="a00179_source.html" target="_top" xlink:title="freetds/bytes.h">
<polygon fill="white" stroke="black" points="1101.38,-168.5 1101.38,-187.5 1187.38,-187.5 1187.38,-168.5 1101.38,-168.5"/>
<text text-anchor="middle" x="1144.38" y="-175.5" font-family="Helvetica,sans-Serif" font-size="10.00">freetds/bytes.h</text>
</a>
</g>
</g>
<!-- Node1&#45;&gt;Node20 -->
<g id="edge27" class="edge"><title>Node1&#45;&gt;Node20</title>
<path fill="none" stroke="midnightblue" d="M1004.69,-224.444C1032.73,-215.32 1077.33,-200.813 1108.57,-190.651"/>
<polygon fill="midnightblue" stroke="midnightblue" points="1109.78,-193.938 1118.2,-187.516 1107.61,-187.282 1109.78,-193.938"/>
</g>
<!-- Node21 -->
<g id="node21" class="node"><title>Node21</title>
<g id="a_node21"><a xlink:href="a00190_source.html" target="_top" xlink:title="freetds/stream.h">
<polygon fill="white" stroke="black" points="851.884,-56.5 851.884,-75.5 944.884,-75.5 944.884,-56.5 851.884,-56.5"/>
<text text-anchor="middle" x="898.384" y="-63.5" font-family="Helvetica,sans-Serif" font-size="10.00">freetds/stream.h</text>
</a>
</g>
</g>
<!-- Node1&#45;&gt;Node21 -->
<g id="edge28" class="edge"><title>Node1&#45;&gt;Node21</title>
<path fill="none" stroke="midnightblue" d="M1003.54,-224.378C1019.8,-217.343 1039.68,-205.645 1049.38,-188 1065.67,-158.405 1069.57,-139.081 1049.38,-112 1027.83,-83.0812 988.416,-72.0145 955.263,-68.0818"/>
<polygon fill="midnightblue" stroke="midnightblue" points="955.499,-64.5881 945.201,-67.0785 954.805,-71.5536 955.499,-64.5881"/>
</g>
<!-- Node22 -->
<g id="node22" class="node"><title>Node22</title>
<g id="a_node22"><a xlink:href="a00191_source.html" target="_top" xlink:title="freetds/string.h">
<polygon fill="white" stroke="black" points="545.884,-56.5 545.884,-75.5 632.884,-75.5 632.884,-56.5 545.884,-56.5"/>
<text text-anchor="middle" x="589.384" y="-63.5" font-family="Helvetica,sans-Serif" font-size="10.00">freetds/string.h</text>
</a>
</g>
</g>
<!-- Node1&#45;&gt;Node22 -->
<g id="edge31" class="edge"><title>Node1&#45;&gt;Node22</title>
<path fill="none" stroke="midnightblue" d="M975.837,-224.462C968.584,-201.783 945.511,-139.874 902.384,-112 807.087,-50.4084 760.275,-91.3824 643.092,-75.96"/>
<polygon fill="midnightblue" stroke="midnightblue" points="643.434,-72.4735 633.04,-74.5221 642.443,-79.4029 643.434,-72.4735"/>
</g>
<!-- Node23 -->
<g id="node23" class="node"><title>Node23</title>
<g id="a_node23"><a xlink:href="a00320_source.html" target="_top" xlink:title="tds_checks.h">
<polygon fill="white" stroke="black" points="651.384,-56.5 651.384,-75.5 729.384,-75.5 729.384,-56.5 651.384,-56.5"/>
<text text-anchor="middle" x="690.384" y="-63.5" font-family="Helvetica,sans-Serif" font-size="10.00">tds_checks.h</text>
</a>
</g>
</g>
<!-- Node1&#45;&gt;Node23 -->
<g id="edge34" class="edge"><title>Node1&#45;&gt;Node23</title>
<path fill="none" stroke="midnightblue" d="M981.29,-224.331C988.043,-202.388 1002.13,-144.117 973.384,-112 939.94,-74.632 805.175,-83.7597 739.345,-75.8525"/>
<polygon fill="midnightblue" stroke="midnightblue" points="739.792,-72.381 729.397,-74.4275 738.8,-79.3103 739.792,-72.381"/>
</g>
<!-- Node5 -->
<g id="node5" class="node"><title>Node5</title>
<polygon fill="white" stroke="#bfbfbf" points="472.884,-56.5 472.884,-75.5 527.884,-75.5 527.884,-56.5 472.884,-56.5"/>
<text text-anchor="middle" x="500.384" y="-63.5" font-family="Helvetica,sans-Serif" font-size="10.00">stdarg.h</text>
</g>
<!-- Node4&#45;&gt;Node5 -->
<g id="edge4" class="edge"><title>Node4&#45;&gt;Node5</title>
<path fill="none" stroke="midnightblue" d="M522.849,-168.292C518.432,-159.41 511.885,-145.109 508.384,-132 504.3,-116.707 502.292,-98.8241 501.31,-85.6909"/>
<polygon fill="midnightblue" stroke="midnightblue" points="504.794,-85.3223 500.684,-75.5568 497.807,-85.7534 504.794,-85.3223"/>
</g>
<!-- Node6 -->
<g id="node6" class="node"><title>Node6</title>
<polygon fill="white" stroke="#bfbfbf" points="333.884,-112.5 333.884,-131.5 380.884,-131.5 380.884,-112.5 333.884,-112.5"/>
<text text-anchor="middle" x="357.384" y="-119.5" font-family="Helvetica,sans-Serif" font-size="10.00">stdio.h</text>
</g>
<!-- Node4&#45;&gt;Node6 -->
<g id="edge5" class="edge"><title>Node4&#45;&gt;Node6</title>
<path fill="none" stroke="midnightblue" d="M500.447,-168.444C470.71,-158.998 422.811,-143.783 390.728,-133.592"/>
<polygon fill="midnightblue" stroke="midnightblue" points="391.5,-130.165 380.91,-130.473 389.381,-136.836 391.5,-130.165"/>
</g>
<!-- Node7 -->
<g id="node7" class="node"><title>Node7</title>
<g id="a_node7"><a xlink:href="a00195_source.html" target="_top" xlink:title="time.h">
<polygon fill="white" stroke="black" points="399.384,-112.5 399.384,-131.5 443.384,-131.5 443.384,-112.5 399.384,-112.5"/>
<text text-anchor="middle" x="421.384" y="-119.5" font-family="Helvetica,sans-Serif" font-size="10.00">time.h</text>
</a>
</g>
</g>
<!-- Node4&#45;&gt;Node7 -->
<g id="edge6" class="edge"><title>Node4&#45;&gt;Node7</title>
<path fill="none" stroke="midnightblue" d="M510.353,-168.324C493.354,-159.664 467.008,-146.242 447.391,-136.249"/>
<polygon fill="midnightblue" stroke="midnightblue" points="448.872,-133.075 438.372,-131.655 445.694,-139.312 448.872,-133.075"/>
</g>
<!-- Node8 -->
<g id="node8" class="node"><title>Node8</title>
<g id="a_node8"><a xlink:href="a00197_source.html" target="_top" xlink:title="freetds/version.h">
<polygon fill="white" stroke="black" points="517.884,-112.5 517.884,-131.5 612.884,-131.5 612.884,-112.5 517.884,-112.5"/>
<text text-anchor="middle" x="565.384" y="-119.5" font-family="Helvetica,sans-Serif" font-size="10.00">freetds/version.h</text>
</a>
</g>
</g>
<!-- Node4&#45;&gt;Node8 -->
<g id="edge8" class="edge"><title>Node4&#45;&gt;Node8</title>
<path fill="none" stroke="midnightblue" d="M533.659,-168.083C539.026,-160.455 546.902,-149.264 553.463,-139.941"/>
<polygon fill="midnightblue" stroke="midnightblue" points="556.333,-141.943 559.226,-131.751 550.608,-137.915 556.333,-141.943"/>
</g>
<!-- Node9 -->
<g id="node9" class="node"><title>Node9</title>
<polygon fill="white" stroke="#bfbfbf" points="630.884,-112.5 630.884,-131.5 741.884,-131.5 741.884,-112.5 630.884,-112.5"/>
<text text-anchor="middle" x="686.384" y="-119.5" font-family="Helvetica,sans-Serif" font-size="10.00">tds_sysdep_public.h</text>
</g>
<!-- Node4&#45;&gt;Node9 -->
<g id="edge9" class="edge"><title>Node4&#45;&gt;Node9</title>
<path fill="none" stroke="midnightblue" d="M552.578,-168.444C579.327,-159.359 621.787,-144.939 651.689,-134.783"/>
<polygon fill="midnightblue" stroke="midnightblue" points="652.965,-138.046 661.308,-131.516 650.713,-131.418 652.965,-138.046"/>
</g>
<!-- Node10 -->
<g id="node10" class="node"><title>Node10</title>
<g id="a_node10"><a xlink:href="a00192_source.html" target="_top" xlink:title="freetds/sysdep_private.h">
<polygon fill="white" stroke="black" points="759.884,-112.5 759.884,-131.5 892.884,-131.5 892.884,-112.5 759.884,-112.5"/>
<text text-anchor="middle" x="826.384" y="-119.5" font-family="Helvetica,sans-Serif" font-size="10.00">freetds/sysdep_private.h</text>
</a>
</g>
</g>
<!-- Node4&#45;&gt;Node10 -->
<g id="edge10" class="edge"><title>Node4&#45;&gt;Node10</title>
<path fill="none" stroke="midnightblue" d="M564.95,-170.216C616.325,-160.937 708.965,-144.206 769.045,-133.356"/>
<polygon fill="midnightblue" stroke="midnightblue" points="769.912,-136.756 779.131,-131.534 768.668,-129.867 769.912,-136.756"/>
</g>
<!-- Node11 -->
<g id="node11" class="node"><title>Node11</title>
<g id="a_node11"><a xlink:href="a00194_source.html" target="_top" xlink:title="freetds/thread.h">
<polygon fill="white" stroke="black" points="12.384,-112.5 12.384,-131.5 104.384,-131.5 104.384,-112.5 12.384,-112.5"/>
<text text-anchor="middle" x="58.384" y="-119.5" font-family="Helvetica,sans-Serif" font-size="10.00">freetds/thread.h</text>
</a>
</g>
</g>
<!-- Node4&#45;&gt;Node11 -->
<g id="edge11" class="edge"><title>Node4&#45;&gt;Node11</title>
<path fill="none" stroke="midnightblue" d="M489.725,-169.475C486.571,-168.94 483.426,-168.44 480.384,-168 321.501,-145.044 277.68,-152.902 114.946,-132.122"/>
<polygon fill="midnightblue" stroke="midnightblue" points="114.932,-128.591 104.566,-130.778 114.034,-135.533 114.932,-128.591"/>
</g>
<!-- Node12 -->
<g id="node12" class="node"><title>Node12</title>
<g id="a_node12"><a xlink:href="a00202_source.html" target="_top" xlink:title="replacements.h">
<polygon fill="white" stroke="black" points="226.884,-112.5 226.884,-131.5 315.884,-131.5 315.884,-112.5 226.884,-112.5"/>
<text text-anchor="middle" x="271.384" y="-119.5" font-family="Helvetica,sans-Serif" font-size="10.00">replacements.h</text>
</a>
</g>
</g>
<!-- Node4&#45;&gt;Node12 -->
<g id="edge12" class="edge"><title>Node4&#45;&gt;Node12</title>
<path fill="none" stroke="midnightblue" d="M489.61,-169.032C445.11,-159.645 371.006,-144.014 321.676,-133.608"/>
<polygon fill="midnightblue" stroke="midnightblue" points="322.358,-130.175 311.851,-131.536 320.913,-137.025 322.358,-130.175"/>
</g>
<!-- Node15 -->
<g id="node15" class="node"><title>Node15</title>
<g id="a_node15"><a xlink:href="a00188_source.html" target="_top" xlink:title="freetds/pushvis.h">
<polygon fill="white" stroke="black" points="535.384,-0.5 535.384,-19.5 631.384,-19.5 631.384,-0.5 535.384,-0.5"/>
<text text-anchor="middle" x="583.384" y="-7.5" font-family="Helvetica,sans-Serif" font-size="10.00">freetds/pushvis.h</text>
</a>
</g>
</g>
<!-- Node4&#45;&gt;Node15 -->
<g id="edge21" class="edge"><title>Node4&#45;&gt;Node15</title>
<path fill="none" stroke="midnightblue" d="M489.735,-169.4C486.579,-168.882 483.431,-168.405 480.384,-168 427.697,-160.991 39.5253,-170.972 3.38395,-132 -2.6603,-125.482 1.93666,-120.77 3.38395,-112 7.66328,-86.0683 1.65122,-72.153 22.384,-56 61.3993,-25.6029 389.633,-15.1392 525.183,-12.0925"/>
<polygon fill="midnightblue" stroke="midnightblue" points="525.455,-15.5875 535.376,-11.8693 525.302,-8.58915 525.455,-15.5875"/>
</g>
<!-- Node16 -->
<g id="node16" class="node"><title>Node16</title>
<g id="a_node16"><a xlink:href="a00186_source.html" target="_top" xlink:title="freetds/popvis.h">
<polygon fill="white" stroke="black" points="649.384,-0.5 649.384,-19.5 741.384,-19.5 741.384,-0.5 649.384,-0.5"/>
<text text-anchor="middle" x="695.384" y="-7.5" font-family="Helvetica,sans-Serif" font-size="10.00">freetds/popvis.h</text>
</a>
</g>
</g>
<!-- Node4&#45;&gt;Node16 -->
<g id="edge23" class="edge"><title>Node4&#45;&gt;Node16</title>
<path fill="none" stroke="midnightblue" d="M564.978,-175.753C647.937,-172.482 843.95,-161.75 902.384,-132 932.651,-116.59 941.969,-107.614 954.384,-76 957.633,-67.7262 960.106,-62.8021 954.384,-56 929.024,-25.8534 820.082,-15.9019 751.821,-12.6174"/>
<polygon fill="midnightblue" stroke="midnightblue" points="751.794,-9.11277 741.647,-12.1625 751.481,-16.1058 751.794,-9.11277"/>
</g>
<!-- Node18 -->
<g id="node18" class="node"><title>Node18</title>
<g id="a_node18"><a xlink:href="a00187_source.html" target="_top" xlink:title="freetds/proto.h">
<polygon fill="white" stroke="black" points="122.384,-112.5 122.384,-131.5 208.384,-131.5 208.384,-112.5 122.384,-112.5"/>
<text text-anchor="middle" x="165.384" y="-119.5" font-family="Helvetica,sans-Serif" font-size="10.00">freetds/proto.h</text>
</a>
</g>
</g>
<!-- Node4&#45;&gt;Node18 -->
<g id="edge22" class="edge"><title>Node4&#45;&gt;Node18</title>
<path fill="none" stroke="midnightblue" d="M489.705,-169.602C486.556,-169.04 483.417,-168.498 480.384,-168 367.145,-149.421 335.677,-150.014 218.577,-132.135"/>
<polygon fill="midnightblue" stroke="midnightblue" points="218.911,-128.645 208.495,-130.582 217.846,-135.563 218.911,-128.645"/>
</g>
<!-- Node7&#45;&gt;Node7 -->
<g id="edge7" class="edge"><title>Node7&#45;&gt;Node7</title>
<path fill="none" stroke="midnightblue" d="M438.652,-131.575C450.171,-134.27 461.384,-131.078 461.384,-122 461.384,-115.759 456.084,-112.3 449.029,-111.623"/>
<polygon fill="midnightblue" stroke="midnightblue" points="448.353,-108.165 438.652,-112.425 448.892,-115.144 448.353,-108.165"/>
</g>
<!-- Node12&#45;&gt;Node5 -->
<g id="edge13" class="edge"><title>Node12&#45;&gt;Node5</title>
<path fill="none" stroke="midnightblue" d="M307.67,-112.444C350.052,-102.449 419.822,-85.9971 462.768,-75.8701"/>
<polygon fill="midnightblue" stroke="midnightblue" points="463.622,-79.2648 472.552,-73.5631 462.015,-72.4517 463.622,-79.2648"/>
</g>
<!-- Node13 -->
<g id="node13" class="node"><title>Node13</title>
<g id="a_node13"><a xlink:href="a00210_source.html" target="_top" xlink:title="tds_sysdep_public.h">
<polygon fill="white" stroke="black" points="118.884,-56.5 118.884,-75.5 229.884,-75.5 229.884,-56.5 118.884,-56.5"/>
<text text-anchor="middle" x="174.384" y="-63.5" font-family="Helvetica,sans-Serif" font-size="10.00">tds_sysdep_public.h</text>
</a>
</g>
</g>
<!-- Node12&#45;&gt;Node13 -->
<g id="edge14" class="edge"><title>Node12&#45;&gt;Node13</title>
<path fill="none" stroke="midnightblue" d="M255.799,-112.324C240.385,-103.743 216.572,-90.486 198.674,-80.5224"/>
<polygon fill="midnightblue" stroke="midnightblue" points="200.37,-77.4606 189.93,-75.6545 196.965,-83.5767 200.37,-77.4606"/>
</g>
<!-- Node14 -->
<g id="node14" class="node"><title>Node14</title>
<g id="a_node14"><a xlink:href="a00203_source.html" target="_top" xlink:title="replacements/readpassphrase.h">
<polygon fill="white" stroke="black" points="247.884,-56.5 247.884,-75.5 416.884,-75.5 416.884,-56.5 247.884,-56.5"/>
<text text-anchor="middle" x="332.384" y="-63.5" font-family="Helvetica,sans-Serif" font-size="10.00">replacements/readpassphrase.h</text>
</a>
</g>
</g>
<!-- Node12&#45;&gt;Node14 -->
<g id="edge15" class="edge"><title>Node12&#45;&gt;Node14</title>
<path fill="none" stroke="midnightblue" d="M281.185,-112.324C290.202,-104.341 303.79,-92.3128 314.702,-82.6529"/>
<polygon fill="midnightblue" stroke="midnightblue" points="317.237,-85.083 322.405,-75.8339 312.597,-79.8416 317.237,-85.083"/>
</g>
<!-- Node12&#45;&gt;Node15 -->
<g id="edge19" class="edge"><title>Node12&#45;&gt;Node15</title>
<path fill="none" stroke="midnightblue" d="M226.779,-113.409C157.986,-101.6 33.5284,-79.7859 30.384,-76 24.7046,-69.1621 24.3588,-62.5353 30.384,-56 63.3937,-20.195 389.348,-12.8774 524.815,-11.383"/>
<polygon fill="midnightblue" stroke="midnightblue" points="525.043,-14.8809 535.006,-11.2777 524.97,-7.8813 525.043,-14.8809"/>
</g>
<!-- Node12&#45;&gt;Node16 -->
<g id="edge20" class="edge"><title>Node12&#45;&gt;Node16</title>
<path fill="none" stroke="midnightblue" d="M308.175,-112.459C339.82,-104.594 386.393,-91.772 425.384,-76 443.077,-68.8432 445.379,-62.3293 463.384,-56 479.78,-50.2365 576.101,-32.3897 639.367,-20.9792"/>
<polygon fill="midnightblue" stroke="midnightblue" points="639.998,-24.422 649.22,-19.206 638.758,-17.5327 639.998,-24.422"/>
</g>
<!-- Node17 -->
<g id="node17" class="node"><title>Node17</title>
<g id="a_node17"><a xlink:href="a00178.html" target="_top" xlink:title="Provide poll call where missing. ">
<polygon fill="white" stroke="red" points="39.384,-56.5 39.384,-75.5 101.384,-75.5 101.384,-56.5 39.384,-56.5"/>
<text text-anchor="middle" x="70.384" y="-63.5" font-family="Helvetica,sans-Serif" font-size="10.00">fakepoll.h</text>
</a>
</g>
</g>
<!-- Node12&#45;&gt;Node17 -->
<g id="edge18" class="edge"><title>Node12&#45;&gt;Node17</title>
<path fill="none" stroke="midnightblue" d="M239.535,-112.444C204.782,-103.107 149.051,-88.1343 111.134,-77.9478"/>
<polygon fill="midnightblue" stroke="midnightblue" points="111.989,-74.5535 101.424,-75.339 110.173,-81.3138 111.989,-74.5535"/>
</g>
<!-- Node14&#45;&gt;Node15 -->
<g id="edge16" class="edge"><title>Node14&#45;&gt;Node15</title>
<path fill="none" stroke="midnightblue" d="M372.156,-56.4435C415.942,-47.0234 486.397,-31.8656 533.764,-21.6752"/>
<polygon fill="midnightblue" stroke="midnightblue" points="534.758,-25.0415 543.798,-19.5164 533.286,-18.1981 534.758,-25.0415"/>
</g>
<!-- Node14&#45;&gt;Node16 -->
<g id="edge17" class="edge"><title>Node14&#45;&gt;Node16</title>
<path fill="none" stroke="midnightblue" d="M392.918,-56.4679C452.875,-47.9464 547.59,-34.2956 639.182,-20.1658"/>
<polygon fill="midnightblue" stroke="midnightblue" points="639.832,-23.6069 649.18,-18.6196 638.762,-16.6892 639.832,-23.6069"/>
</g>
<!-- Node19&#45;&gt;Node15 -->
<g id="edge25" class="edge"><title>Node19&#45;&gt;Node15</title>
<path fill="none" stroke="midnightblue" d="M757.584,-56.4435C722.003,-47.1616 665.069,-32.3093 626.037,-22.127"/>
<polygon fill="midnightblue" stroke="midnightblue" points="626.59,-18.6541 616.03,-19.5164 624.823,-25.4274 626.59,-18.6541"/>
</g>
<!-- Node19&#45;&gt;Node16 -->
<g id="edge26" class="edge"><title>Node19&#45;&gt;Node16</title>
<path fill="none" stroke="midnightblue" d="M775.121,-56.324C760.163,-47.8215 737.129,-34.7288 719.657,-24.7975"/>
<polygon fill="midnightblue" stroke="midnightblue" points="721.033,-21.5534 710.609,-19.6545 717.574,-27.639 721.033,-21.5534"/>
</g>
<!-- Node21&#45;&gt;Node15 -->
<g id="edge29" class="edge"><title>Node21&#45;&gt;Node15</title>
<path fill="none" stroke="midnightblue" d="M851.565,-56.974C795.671,-47.3921 702.171,-31.3636 641.653,-20.9889"/>
<polygon fill="midnightblue" stroke="midnightblue" points="641.942,-17.4875 631.494,-19.2475 640.759,-24.3869 641.942,-17.4875"/>
</g>
<!-- Node21&#45;&gt;Node16 -->
<g id="edge30" class="edge"><title>Node21&#45;&gt;Node16</title>
<path fill="none" stroke="midnightblue" d="M866.218,-56.4435C831.325,-47.1616 775.491,-32.3093 737.213,-22.127"/>
<polygon fill="midnightblue" stroke="midnightblue" points="737.963,-18.7048 727.399,-19.5164 736.164,-25.4696 737.963,-18.7048"/>
</g>
<!-- Node22&#45;&gt;Node15 -->
<g id="edge32" class="edge"><title>Node22&#45;&gt;Node15</title>
<path fill="none" stroke="midnightblue" d="M588.393,-56.083C587.598,-48.9272 586.455,-38.6353 585.461,-29.6911"/>
<polygon fill="midnightblue" stroke="midnightblue" points="588.939,-29.3034 584.356,-19.7511 581.982,-30.0765 588.939,-29.3034"/>
</g>
<!-- Node22&#45;&gt;Node16 -->
<g id="edge33" class="edge"><title>Node22&#45;&gt;Node16</title>
<path fill="none" stroke="midnightblue" d="M606.415,-56.324C623.414,-47.6641 649.76,-34.2424 669.377,-24.249"/>
<polygon fill="midnightblue" stroke="midnightblue" points="671.074,-27.3125 678.395,-19.6545 667.896,-21.0752 671.074,-27.3125"/>
</g>
<!-- Node23&#45;&gt;Node15 -->
<g id="edge35" class="edge"><title>Node23&#45;&gt;Node15</title>
<path fill="none" stroke="midnightblue" d="M673.193,-56.324C656.033,-47.6641 629.438,-34.2424 609.637,-24.249"/>
<polygon fill="midnightblue" stroke="midnightblue" points="611.037,-21.0354 600.533,-19.6545 607.883,-27.2847 611.037,-21.0354"/>
</g>
<!-- Node23&#45;&gt;Node16 -->
<g id="edge36" class="edge"><title>Node23&#45;&gt;Node16</title>
<path fill="none" stroke="midnightblue" d="M691.21,-56.083C691.865,-49.0059 692.804,-38.8611 693.626,-29.9865"/>
<polygon fill="midnightblue" stroke="midnightblue" points="697.137,-30.0312 694.574,-19.7511 690.167,-29.3858 697.137,-30.0312"/>
</g>
</g>
</svg>
