<?xml version="1.0" encoding="UTF-8" standalone="no"?>
<!DOCTYPE svg PUBLIC "-//W3C//DTD SVG 1.1//EN"
 "http://www.w3.org/Graphics/SVG/1.1/DTD/svg11.dtd">
<!-- Generated by graphviz version 2.38.0 (20140413.2041)
 -->
<!-- Title: tds_token_name Pages: 1 -->
<svg width="858pt" height="550pt"
 viewBox="0.00 0.00 858.00 550.36" xmlns="http://www.w3.org/2000/svg" xmlns:xlink="http://www.w3.org/1999/xlink">
<g id="graph0" class="graph" transform="scale(1 1) rotate(0) translate(4 546.365)">
<title>tds_token_name</title>
<polygon fill="white" stroke="none" points="-4,4 -4,-546.365 854,-546.365 854,4 -4,4"/>
<!-- Node1 -->
<g id="node1" class="node"><title>Node1</title>
<polygon fill="#bfbfbf" stroke="black" points="0,-196.5 0,-215.5 95,-215.5 95,-196.5 0,-196.5"/>
<text text-anchor="middle" x="47.5" y="-203.5" font-family="Helvetica,sans-Serif" font-size="10.00">tds_token_name</text>
</g>
<!-- Node2 -->
<g id="node2" class="node"><title>Node2</title>
<g id="a_node2"><a xlink:href="a00359.html#ga39453d084f3f780ac4602d4abf2839f7" target="_top" xlink:title="tds_process_default_tokens() is a catch all function that is called to process tokens not known to ot...">
<polygon fill="white" stroke="black" points="131,-191 131,-221 243,-221 243,-191 131,-191"/>
<text text-anchor="start" x="139" y="-209" font-family="Helvetica,sans-Serif" font-size="10.00">tds_process_default</text>
<text text-anchor="middle" x="187" y="-198" font-family="Helvetica,sans-Serif" font-size="10.00">_tokens</text>
</a>
</g>
</g>
<!-- Node1&#45;&gt;Node2 -->
<g id="edge1" class="edge"><title>Node1&#45;&gt;Node2</title>
<path fill="none" stroke="midnightblue" d="M105.248,-206C113.74,-206 122.484,-206 130.94,-206"/>
<polygon fill="midnightblue" stroke="midnightblue" points="105.051,-202.5 95.0512,-206 105.051,-209.5 105.051,-202.5"/>
</g>
<!-- Node3 -->
<g id="node3" class="node"><title>Node3</title>
<g id="a_node3"><a xlink:href="a00359.html#ga93945b42d45ee28ae1296b35a1c1e9bb" target="_top" xlink:title="tds_process_login_tokens() is called after sending the login packet to the server. ">
<polygon fill="white" stroke="black" points="710,-28.5 710,-47.5 850,-47.5 850,-28.5 710,-28.5"/>
<text text-anchor="middle" x="780" y="-35.5" font-family="Helvetica,sans-Serif" font-size="10.00">tds_process_login_tokens</text>
</a>
</g>
</g>
<!-- Node1&#45;&gt;Node3 -->
<g id="edge23" class="edge"><title>Node1&#45;&gt;Node3</title>
<path fill="none" stroke="midnightblue" d="M60.3334,-188.053C94.9758,-137.912 201.736,-0 328,-0 328,-0 328,-0 472,-0 564.507,-0 671.515,-17.2037 731.629,-28.46"/>
<polygon fill="midnightblue" stroke="midnightblue" points="57.4293,-186.099 54.7158,-196.34 63.2237,-190.027 57.4293,-186.099"/>
</g>
<!-- Node4 -->
<g id="node4" class="node"><title>Node4</title>
<g id="a_node4"><a xlink:href="a00359.html#gabfc9de1d1fe718818caf63a4be4035a6" target="_top" xlink:title="process all streams. ">
<polygon fill="white" stroke="black" points="415,-256.5 415,-275.5 527,-275.5 527,-256.5 415,-256.5"/>
<text text-anchor="middle" x="471" y="-263.5" font-family="Helvetica,sans-Serif" font-size="10.00">tds_process_tokens</text>
</a>
</g>
</g>
<!-- Node1&#45;&gt;Node4 -->
<g id="edge24" class="edge"><title>Node1&#45;&gt;Node4</title>
<path fill="none" stroke="midnightblue" d="M86.5364,-218.521C100.405,-222.698 116.291,-227.038 131,-230 229.924,-249.922 347.451,-259.276 414.92,-263.302"/>
<polygon fill="midnightblue" stroke="midnightblue" points="87.4281,-215.133 76.8406,-215.53 85.3646,-221.822 87.4281,-215.133"/>
</g>
<!-- Node2&#45;&gt;Node3 -->
<g id="edge2" class="edge"><title>Node2&#45;&gt;Node3</title>
<path fill="none" stroke="midnightblue" d="M226.444,-186.359C293.037,-153.345 435.014,-87.3684 563,-57 611.166,-45.5713 666.842,-40.8705 709.604,-39.0013"/>
<polygon fill="midnightblue" stroke="midnightblue" points="224.563,-183.386 217.177,-190.982 227.688,-189.65 224.563,-183.386"/>
</g>
<!-- Node2&#45;&gt;Node4 -->
<g id="edge3" class="edge"><title>Node2&#45;&gt;Node4</title>
<path fill="none" stroke="midnightblue" d="M253.401,-198.442C290.909,-196.213 338.45,-197.003 379,-209 411.177,-218.52 443.094,-242.832 459.209,-256.429"/>
<polygon fill="midnightblue" stroke="midnightblue" points="252.841,-194.972 243.102,-199.144 253.317,-201.956 252.841,-194.972"/>
</g>
<!-- Node18 -->
<g id="node18" class="node"><title>Node18</title>
<g id="a_node18"><a xlink:href="a00359.html#ga81cdf0ed9e8d29cf1ddf66e18efc407d" target="_top" xlink:title="tds_process_msg() is called for MSG, ERR, or EED tokens and is responsible for calling the CLI&#39;s mess...">
<polygon fill="white" stroke="black" points="279,-218.5 279,-237.5 379,-237.5 379,-218.5 279,-218.5"/>
<text text-anchor="middle" x="329" y="-225.5" font-family="Helvetica,sans-Serif" font-size="10.00">tds_process_msg</text>
</a>
</g>
</g>
<!-- Node2&#45;&gt;Node18 -->
<g id="edge20" class="edge"><title>Node2&#45;&gt;Node18</title>
<path fill="none" stroke="midnightblue" d="M253.369,-209.535C270.543,-212.137 288.09,-215.34 301.852,-218.493"/>
<polygon fill="midnightblue" stroke="midnightblue" points="253.731,-206.051 243.332,-208.078 252.725,-212.979 253.731,-206.051"/>
</g>
<!-- Node5 -->
<g id="node5" class="node"><title>Node5</title>
<g id="a_node5"><a xlink:href="a00344.html#gae67546338cb9542a4902aa914f57f314" target="_top" xlink:title="_bcp_exec_out">
<polygon fill="white" stroke="red" points="574.5,-458.5 574.5,-477.5 662.5,-477.5 662.5,-458.5 574.5,-458.5"/>
<text text-anchor="middle" x="618.5" y="-465.5" font-family="Helvetica,sans-Serif" font-size="10.00">_bcp_exec_out</text>
</a>
</g>
</g>
<!-- Node4&#45;&gt;Node5 -->
<g id="edge4" class="edge"><title>Node4&#45;&gt;Node5</title>
<path fill="none" stroke="midnightblue" d="M476.482,-285.549C485.983,-322.676 511.616,-403.715 563,-449 567.36,-452.843 572.542,-455.919 577.95,-458.38"/>
<polygon fill="midnightblue" stroke="midnightblue" points="479.808,-284.413 474.041,-275.525 473.006,-286.069 479.808,-284.413"/>
</g>
<!-- Node6 -->
<g id="node6" class="node"><title>Node6</title>
<g id="a_node6"><a xlink:href="a00341.html#gaf1879b85e8238c015b9648d077665285" target="_top" xlink:title="_dbresults">
<polygon fill="white" stroke="red" points="586,-420.5 586,-439.5 651,-439.5 651,-420.5 586,-420.5"/>
<text text-anchor="middle" x="618.5" y="-427.5" font-family="Helvetica,sans-Serif" font-size="10.00">_dbresults</text>
</a>
</g>
</g>
<!-- Node4&#45;&gt;Node6 -->
<g id="edge5" class="edge"><title>Node4&#45;&gt;Node6</title>
<path fill="none" stroke="midnightblue" d="M479.16,-285.282C491.575,-316.158 519.963,-376.701 563,-411 569.661,-416.308 577.907,-420.186 585.951,-422.999"/>
<polygon fill="midnightblue" stroke="midnightblue" points="482.319,-283.745 475.438,-275.689 475.793,-286.278 482.319,-283.745"/>
</g>
<!-- Node7 -->
<g id="node7" class="node"><title>Node7</title>
<g id="a_node7"><a xlink:href="a00342.html#gaff09873008411a0573f6d1a9e6c7cf4b" target="_top" xlink:title="Get count of output parameters filled by a stored procedure. ">
<polygon fill="white" stroke="red" points="586,-382.5 586,-401.5 651,-401.5 651,-382.5 586,-382.5"/>
<text text-anchor="middle" x="618.5" y="-389.5" font-family="Helvetica,sans-Serif" font-size="10.00">dbnumrets</text>
</a>
</g>
</g>
<!-- Node4&#45;&gt;Node7 -->
<g id="edge6" class="edge"><title>Node4&#45;&gt;Node7</title>
<path fill="none" stroke="midnightblue" d="M483.249,-284.51C498.529,-308.193 527.993,-349.012 563,-373 569.861,-377.701 578.002,-381.351 585.871,-384.137"/>
<polygon fill="midnightblue" stroke="midnightblue" points="486.049,-282.388 477.763,-275.786 480.123,-286.114 486.049,-282.388"/>
</g>
<!-- Node8 -->
<g id="node8" class="node"><title>Node8</title>
<g id="a_node8"><a xlink:href="a00341.html#gae1f50a6a2c31fda57cb481922b06841e" target="_top" xlink:title="Wait for results of a query from the server. ">
<polygon fill="white" stroke="red" points="592,-294.5 592,-313.5 645,-313.5 645,-294.5 592,-294.5"/>
<text text-anchor="middle" x="618.5" y="-301.5" font-family="Helvetica,sans-Serif" font-size="10.00">dbsqlok</text>
</a>
</g>
</g>
<!-- Node4&#45;&gt;Node8 -->
<g id="edge7" class="edge"><title>Node4&#45;&gt;Node8</title>
<path fill="none" stroke="midnightblue" d="M518.461,-278.134C542.742,-284.475 571.537,-291.996 591.802,-297.288"/>
<polygon fill="midnightblue" stroke="midnightblue" points="519.276,-274.73 508.716,-275.589 517.507,-281.502 519.276,-274.73"/>
</g>
<!-- Node9 -->
<g id="node9" class="node"><title>Node9</title>
<g id="a_node9"><a xlink:href="a00341.html#ga548153eb2eae76c48aa9d4b72258dc1c" target="_top" xlink:title="Send text or image data to the server. ">
<polygon fill="white" stroke="black" points="746,-218.5 746,-237.5 814,-237.5 814,-218.5 746,-218.5"/>
<text text-anchor="middle" x="780" y="-225.5" font-family="Helvetica,sans-Serif" font-size="10.00">dbwritetext</text>
</a>
</g>
</g>
<!-- Node4&#45;&gt;Node9 -->
<g id="edge10" class="edge"><title>Node4&#45;&gt;Node9</title>
<path fill="none" stroke="midnightblue" d="M482.773,-247.815C497.538,-224.893 526.446,-186.604 563,-171 608.372,-151.632 626.184,-158.858 674,-171 710.187,-180.189 747.397,-204.636 766.3,-218.341"/>
<polygon fill="midnightblue" stroke="midnightblue" points="479.796,-245.973 477.492,-256.314 485.742,-249.667 479.796,-245.973"/>
</g>
<!-- Node10 -->
<g id="node10" class="node"><title>Node10</title>
<g id="a_node10"><a xlink:href="a00341.html#ga559e24ba70d0d96c3469eb6ab8f74e05" target="_top" xlink:title="Cancel the query currently being retrieved, discarding all pending rows. ">
<polygon fill="white" stroke="red" points="583,-256.5 583,-275.5 654,-275.5 654,-256.5 583,-256.5"/>
<text text-anchor="middle" x="618.5" y="-263.5" font-family="Helvetica,sans-Serif" font-size="10.00">dbcanquery</text>
</a>
</g>
</g>
<!-- Node4&#45;&gt;Node10 -->
<g id="edge9" class="edge"><title>Node4&#45;&gt;Node10</title>
<path fill="none" stroke="midnightblue" d="M537.202,-266C552.865,-266 569,-266 582.661,-266"/>
<polygon fill="midnightblue" stroke="midnightblue" points="537.007,-262.5 527.007,-266 537.007,-269.5 537.007,-262.5"/>
</g>
<!-- Node11 -->
<g id="node11" class="node"><title>Node11</title>
<g id="a_node11"><a xlink:href="a00341.html#gadd5685565c8c6c86079e17b8a73b324c" target="_top" xlink:title="Fetch part of a text or image value from the server. ">
<polygon fill="white" stroke="black" points="585,-218.5 585,-237.5 652,-237.5 652,-218.5 585,-218.5"/>
<text text-anchor="middle" x="618.5" y="-225.5" font-family="Helvetica,sans-Serif" font-size="10.00">dbreadtext</text>
</a>
</g>
</g>
<!-- Node4&#45;&gt;Node11 -->
<g id="edge11" class="edge"><title>Node4&#45;&gt;Node11</title>
<path fill="none" stroke="midnightblue" d="M518.652,-253.816C540.199,-248.188 565.268,-241.641 584.768,-236.549"/>
<polygon fill="midnightblue" stroke="midnightblue" points="517.507,-250.498 508.716,-256.411 519.276,-257.27 517.507,-250.498"/>
</g>
<!-- Node12 -->
<g id="node12" class="node"><title>Node12</title>
<g id="a_node12"><a xlink:href="a00341.html#gac980139b9cea03cf93e373d425991481" target="_top" xlink:title="Transmit the command buffer to the server. ">
<polygon fill="white" stroke="red" points="586,-180.5 586,-199.5 651,-199.5 651,-180.5 586,-180.5"/>
<text text-anchor="middle" x="618.5" y="-187.5" font-family="Helvetica,sans-Serif" font-size="10.00">dbsqlsend</text>
</a>
</g>
</g>
<!-- Node4&#45;&gt;Node12 -->
<g id="edge12" class="edge"><title>Node4&#45;&gt;Node12</title>
<path fill="none" stroke="midnightblue" d="M493.89,-250.329C511.842,-237.967 538.241,-220.884 563,-209 570.317,-205.488 578.46,-202.296 586.174,-199.573"/>
<polygon fill="midnightblue" stroke="midnightblue" points="491.52,-247.716 485.326,-256.311 495.528,-253.454 491.52,-247.716"/>
</g>
<!-- Node13 -->
<g id="node13" class="node"><title>Node13</title>
<g id="a_node13"><a xlink:href="a00356.html#gaf0da49585d39e99780a004ee2ca23479" target="_top" xlink:title="Send option commands to server. ">
<polygon fill="white" stroke="black" points="719.5,-436.5 719.5,-455.5 840.5,-455.5 840.5,-436.5 719.5,-436.5"/>
<text text-anchor="middle" x="780" y="-443.5" font-family="Helvetica,sans-Serif" font-size="10.00">tds_submit_optioncmd</text>
</a>
</g>
</g>
<!-- Node4&#45;&gt;Node13 -->
<g id="edge13" class="edge"><title>Node4&#45;&gt;Node13</title>
<path fill="none" stroke="midnightblue" d="M471.897,-285.654C472.834,-335.774 483.089,-468.377 563,-525 603.253,-553.522 627.21,-540.636 674,-525 715.542,-511.118 753.833,-473.621 770.383,-455.741"/>
<polygon fill="midnightblue" stroke="midnightblue" points="475.396,-285.491 471.82,-275.518 468.396,-285.545 475.396,-285.491"/>
</g>
<!-- Node14 -->
<g id="node14" class="node"><title>Node14</title>
<g id="a_node14"><a xlink:href="a00193.html#ac6610c72bd31bad5378f760fa9b12d66" target="_top" xlink:title="Initialize BCP information. ">
<polygon fill="white" stroke="red" points="582,-104.5 582,-123.5 655,-123.5 655,-104.5 582,-104.5"/>
<text text-anchor="middle" x="618.5" y="-111.5" font-family="Helvetica,sans-Serif" font-size="10.00">tds_bcp_init</text>
</a>
</g>
</g>
<!-- Node4&#45;&gt;Node14 -->
<g id="edge14" class="edge"><title>Node4&#45;&gt;Node14</title>
<path fill="none" stroke="midnightblue" d="M481.239,-247.054C495.421,-219.692 524.954,-169.005 563,-138 570.373,-131.991 579.486,-127.202 588.135,-123.531"/>
<polygon fill="midnightblue" stroke="midnightblue" points="477.949,-245.804 476.569,-256.309 484.199,-248.957 477.949,-245.804"/>
</g>
<!-- Node15 -->
<g id="node15" class="node"><title>Node15</title>
<g id="a_node15"><a xlink:href="a00359.html#ga55f27c3e05d42c9b07ace1c74b11c5ab" target="_top" xlink:title="Retrieve and set @spid. ">
<polygon fill="white" stroke="black" points="580,-66.5 580,-85.5 657,-85.5 657,-66.5 580,-66.5"/>
<text text-anchor="middle" x="618.5" y="-73.5" font-family="Helvetica,sans-Serif" font-size="10.00">tds_set_spid</text>
</a>
</g>
</g>
<!-- Node4&#45;&gt;Node15 -->
<g id="edge15" class="edge"><title>Node4&#45;&gt;Node15</title>
<path fill="none" stroke="midnightblue" d="M477.288,-246.274C487.748,-210.942 514.385,-136.668 563,-95 567.869,-90.8266 573.71,-87.5524 579.732,-84.9887"/>
<polygon fill="midnightblue" stroke="midnightblue" points="473.809,-245.712 474.453,-256.287 480.545,-247.619 473.809,-245.712"/>
</g>
<!-- Node16 -->
<g id="node16" class="node"><title>Node16</title>
<g id="a_node16"><a xlink:href="a00359.html#gaeeb1562044786ea17bea361ed83e6946" target="_top" xlink:title="Process results for simple query as &quot;SET TEXTSIZE&quot; or &quot;USE dbname&quot; If the statement returns results...">
<polygon fill="white" stroke="red" points="563.5,-333 563.5,-363 673.5,-363 673.5,-333 563.5,-333"/>
<text text-anchor="start" x="571.5" y="-351" font-family="Helvetica,sans-Serif" font-size="10.00">tds_process_simple</text>
<text text-anchor="middle" x="618.5" y="-340" font-family="Helvetica,sans-Serif" font-size="10.00">_query</text>
</a>
</g>
</g>
<!-- Node4&#45;&gt;Node16 -->
<g id="edge17" class="edge"><title>Node4&#45;&gt;Node16</title>
<path fill="none" stroke="midnightblue" d="M494.841,-281.463C512.955,-293.441 539.11,-310.109 563,-323 569.321,-326.411 576.194,-329.799 582.862,-332.93"/>
<polygon fill="midnightblue" stroke="midnightblue" points="496.418,-278.308 486.156,-275.672 492.535,-284.132 496.418,-278.308"/>
</g>
<!-- Node17 -->
<g id="node17" class="node"><title>Node17</title>
<g id="a_node17"><a xlink:href="a00359.html#gaf233e79967f82f4e0dd4d11524917a34" target="_top" xlink:title="tds_process_cancel">
<polygon fill="white" stroke="red" points="563,-496.5 563,-515.5 674,-515.5 674,-496.5 563,-496.5"/>
<text text-anchor="middle" x="618.5" y="-503.5" font-family="Helvetica,sans-Serif" font-size="10.00">tds_process_cancel</text>
</a>
</g>
</g>
<!-- Node4&#45;&gt;Node17 -->
<g id="edge19" class="edge"><title>Node4&#45;&gt;Node17</title>
<path fill="none" stroke="midnightblue" d="M474.585,-285.421C481.261,-327.98 502.965,-430.188 563,-487 567.076,-490.857 571.976,-493.936 577.146,-496.392"/>
<polygon fill="midnightblue" stroke="midnightblue" points="478.047,-284.905 473.139,-275.516 471.121,-285.916 478.047,-284.905"/>
</g>
<!-- Node8&#45;&gt;Node9 -->
<g id="edge8" class="edge"><title>Node8&#45;&gt;Node9</title>
<path fill="none" stroke="midnightblue" d="M654.924,-292.588C661.344,-290.255 667.926,-287.686 674,-285 706.817,-270.486 743.232,-249.558 763.394,-237.513"/>
<polygon fill="midnightblue" stroke="midnightblue" points="653.346,-289.432 645.065,-296.041 655.66,-296.038 653.346,-289.432"/>
</g>
<!-- Node15&#45;&gt;Node3 -->
<g id="edge16" class="edge"><title>Node15&#45;&gt;Node3</title>
<path fill="none" stroke="midnightblue" d="M667.151,-64.6473C690.039,-59.1944 717.161,-52.7327 738.965,-47.538"/>
<polygon fill="midnightblue" stroke="midnightblue" points="666.216,-61.2722 657.299,-66.9945 667.838,-68.0816 666.216,-61.2722"/>
</g>
<!-- Node16&#45;&gt;Node13 -->
<g id="edge18" class="edge"><title>Node16&#45;&gt;Node13</title>
<path fill="none" stroke="midnightblue" d="M663.977,-367.599C667.406,-369.353 670.782,-371.163 674,-373 709.283,-393.146 747.778,-421.792 766.862,-436.492"/>
<polygon fill="midnightblue" stroke="midnightblue" points="665.368,-364.383 654.851,-363.104 662.275,-370.663 665.368,-364.383"/>
</g>
<!-- Node18&#45;&gt;Node2 -->
<g id="edge21" class="edge"><title>Node18&#45;&gt;Node2</title>
<path fill="none" stroke="midnightblue" d="M268.776,-225.372C259.799,-224.081 250.579,-222.601 241.727,-221.028"/>
<polygon fill="midnightblue" stroke="midnightblue" points="268.394,-228.852 278.777,-226.743 269.345,-221.917 268.394,-228.852"/>
</g>
<!-- Node18&#45;&gt;Node4 -->
<g id="edge22" class="edge"><title>Node18&#45;&gt;Node4</title>
<path fill="none" stroke="midnightblue" d="M375.118,-240.246C394.415,-245.484 416.612,-251.509 434.683,-256.414"/>
<polygon fill="midnightblue" stroke="midnightblue" points="375.896,-236.831 365.328,-237.589 374.062,-243.586 375.896,-236.831"/>
</g>
</g>
</svg>
