<?xml version="1.0" encoding="UTF-8" standalone="no"?>
<!DOCTYPE svg PUBLIC "-//W3C//DTD SVG 1.1//EN"
 "http://www.w3.org/Graphics/SVG/1.1/DTD/svg11.dtd">
<!-- Generated by graphviz version 2.38.0 (20140413.2041)
 -->
<!-- Title: dbbylist Pages: 1 -->
<svg width="265pt" height="47pt"
 viewBox="0.00 0.00 265.00 47.00" xmlns="http://www.w3.org/2000/svg" xmlns:xlink="http://www.w3.org/1999/xlink">
<g id="graph0" class="graph" transform="scale(1 1) rotate(0) translate(4 43)">
<title>dbbylist</title>
<polygon fill="white" stroke="none" points="-4,4 -4,-43 261,-43 261,4 -4,4"/>
<!-- Node1 -->
<g id="node1" class="node"><title>Node1</title>
<polygon fill="#bfbfbf" stroke="black" points="0,-19.5 0,-38.5 51,-38.5 51,-19.5 0,-19.5"/>
<text text-anchor="middle" x="25.5" y="-26.5" font-family="Helvetica,sans-Serif" font-size="10.00">dbbylist</text>
</g>
<!-- Node2 -->
<g id="node2" class="node"><title>Node2</title>
<g id="a_node2"><a xlink:href="a00193.html#ab45c291105027e69836002e1dd586141" target="_top" xlink:title="Write a message to the debug log. ">
<polygon fill="white" stroke="black" points="180,-19.5 180,-38.5 257,-38.5 257,-19.5 180,-19.5"/>
<text text-anchor="middle" x="218.5" y="-26.5" font-family="Helvetica,sans-Serif" font-size="10.00">tdsdump_log</text>
</a>
</g>
</g>
<!-- Node1&#45;&gt;Node2 -->
<g id="edge1" class="edge"><title>Node1&#45;&gt;Node2</title>
<path fill="none" stroke="midnightblue" d="M51.0789,-29C80.9178,-29 131.919,-29 169.617,-29"/>
<polygon fill="midnightblue" stroke="midnightblue" points="169.868,-32.5001 179.868,-29 169.868,-25.5001 169.868,-32.5001"/>
</g>
<!-- Node3 -->
<g id="node3" class="node"><title>Node3</title>
<g id="a_node3"><a xlink:href="a00347.html#ga302a4ce6559b81808e3be51615cd1b67" target="_top" xlink:title="Call client&#45;installed error handler. ">
<polygon fill="white" stroke="black" points="87,-0.5 87,-19.5 144,-19.5 144,-0.5 87,-0.5"/>
<text text-anchor="middle" x="115.5" y="-7.5" font-family="Helvetica,sans-Serif" font-size="10.00">dbperror</text>
</a>
</g>
</g>
<!-- Node1&#45;&gt;Node3 -->
<g id="edge2" class="edge"><title>Node1&#45;&gt;Node3</title>
<path fill="none" stroke="midnightblue" d="M51.0129,-23.7074C58.9815,-21.987 68.0186,-20.0357 76.7241,-18.1562"/>
<polygon fill="midnightblue" stroke="midnightblue" points="77.6711,-21.5324 86.7072,-16.0007 76.1938,-14.6901 77.6711,-21.5324"/>
</g>
<!-- Node3&#45;&gt;Node2 -->
<g id="edge3" class="edge"><title>Node3&#45;&gt;Node2</title>
<path fill="none" stroke="midnightblue" d="M144.099,-15.1918C152.077,-16.6926 161.022,-18.3755 169.851,-20.0363"/>
<polygon fill="midnightblue" stroke="midnightblue" points="169.237,-23.4822 179.712,-21.8913 170.531,-16.6028 169.237,-23.4822"/>
</g>
</g>
</svg>
