<?xml version="1.0" encoding="UTF-8" standalone="no"?>
<!DOCTYPE svg PUBLIC "-//W3C//DTD SVG 1.1//EN"
 "http://www.w3.org/Graphics/SVG/1.1/DTD/svg11.dtd">
<!-- Generated by graphviz version 2.38.0 (20140413.2041)
 -->
<!-- Title: tds_process_colinfo Pages: 1 -->
<svg width="1031pt" height="516pt"
 viewBox="0.00 0.00 1031.00 516.06" xmlns="http://www.w3.org/2000/svg" xmlns:xlink="http://www.w3.org/1999/xlink">
<g id="graph0" class="graph" transform="scale(1 1) rotate(0) translate(4 512.065)">
<title>tds_process_colinfo</title>
<polygon fill="white" stroke="none" points="-4,4 -4,-512.065 1027,-512.065 1027,4 -4,4"/>
<!-- Node1 -->
<g id="node1" class="node"><title>Node1</title>
<polygon fill="#bfbfbf" stroke="black" points="0,-265.5 0,-284.5 111,-284.5 111,-265.5 0,-265.5"/>
<text text-anchor="middle" x="55.5" y="-272.5" font-family="Helvetica,sans-Serif" font-size="10.00">tds_process_colinfo</text>
</g>
<!-- Node2 -->
<g id="node2" class="node"><title>Node2</title>
<g id="a_node2"><a xlink:href="a00359.html#ga39453d084f3f780ac4602d4abf2839f7" target="_top" xlink:title="tds_process_default_tokens() is a catch all function that is called to process tokens not known to ot...">
<polygon fill="white" stroke="black" points="304,-279 304,-309 416,-309 416,-279 304,-279"/>
<text text-anchor="start" x="312" y="-297" font-family="Helvetica,sans-Serif" font-size="10.00">tds_process_default</text>
<text text-anchor="middle" x="360" y="-286" font-family="Helvetica,sans-Serif" font-size="10.00">_tokens</text>
</a>
</g>
</g>
<!-- Node1&#45;&gt;Node2 -->
<g id="edge1" class="edge"><title>Node1&#45;&gt;Node2</title>
<path fill="none" stroke="midnightblue" d="M121.496,-279.082C175.833,-282.495 252.479,-287.309 303.861,-290.537"/>
<polygon fill="midnightblue" stroke="midnightblue" points="121.48,-275.575 111.28,-278.441 121.041,-282.561 121.48,-275.575"/>
</g>
<!-- Node19 -->
<g id="node19" class="node"><title>Node19</title>
<g id="a_node19"><a xlink:href="a00359.html#gaeec59bca9bd0c5388e245f0d19d9c81a" target="_top" xlink:title="Process list of table from network. ">
<polygon fill="white" stroke="black" points="147,-246.5 147,-265.5 268,-265.5 268,-246.5 147,-246.5"/>
<text text-anchor="middle" x="207.5" y="-253.5" font-family="Helvetica,sans-Serif" font-size="10.00">tds_process_tabname</text>
</a>
</g>
</g>
<!-- Node1&#45;&gt;Node19 -->
<g id="edge23" class="edge"><title>Node1&#45;&gt;Node19</title>
<path fill="none" stroke="midnightblue" d="M121.043,-266.825C129.629,-265.737 138.401,-264.626 146.897,-263.55"/>
<polygon fill="midnightblue" stroke="midnightblue" points="120.559,-263.358 111.078,-268.087 121.438,-270.302 120.559,-263.358"/>
</g>
<!-- Node3 -->
<g id="node3" class="node"><title>Node3</title>
<g id="a_node3"><a xlink:href="a00359.html#ga93945b42d45ee28ae1296b35a1c1e9bb" target="_top" xlink:title="tds_process_login_tokens() is called after sending the login packet to the server. ">
<polygon fill="white" stroke="black" points="883,-487.5 883,-506.5 1023,-506.5 1023,-487.5 883,-487.5"/>
<text text-anchor="middle" x="953" y="-494.5" font-family="Helvetica,sans-Serif" font-size="10.00">tds_process_login_tokens</text>
</a>
</g>
</g>
<!-- Node2&#45;&gt;Node3 -->
<g id="edge2" class="edge"><title>Node2&#45;&gt;Node3</title>
<path fill="none" stroke="midnightblue" d="M388.347,-315.148C447.622,-359.488 594.068,-461.049 736,-497 783.985,-509.155 839.913,-508.775 882.835,-505.555"/>
<polygon fill="midnightblue" stroke="midnightblue" points="390.336,-312.265 380.245,-309.036 386.12,-317.853 390.336,-312.265"/>
</g>
<!-- Node4 -->
<g id="node4" class="node"><title>Node4</title>
<g id="a_node4"><a xlink:href="a00359.html#gabfc9de1d1fe718818caf63a4be4035a6" target="_top" xlink:title="process all streams. ">
<polygon fill="white" stroke="black" points="588,-259.5 588,-278.5 700,-278.5 700,-259.5 588,-259.5"/>
<text text-anchor="middle" x="644" y="-266.5" font-family="Helvetica,sans-Serif" font-size="10.00">tds_process_tokens</text>
</a>
</g>
</g>
<!-- Node2&#45;&gt;Node4 -->
<g id="edge3" class="edge"><title>Node2&#45;&gt;Node4</title>
<path fill="none" stroke="midnightblue" d="M426.445,-306.944C463.582,-312.179 510.744,-315.268 552,-307 579.027,-301.584 608.052,-287.95 625.872,-278.577"/>
<polygon fill="midnightblue" stroke="midnightblue" points="426.658,-303.437 416.25,-305.419 425.622,-310.36 426.658,-303.437"/>
</g>
<!-- Node18 -->
<g id="node18" class="node"><title>Node18</title>
<g id="a_node18"><a xlink:href="a00359.html#ga81cdf0ed9e8d29cf1ddf66e18efc407d" target="_top" xlink:title="tds_process_msg() is called for MSG, ERR, or EED tokens and is responsible for calling the CLI&#39;s mess...">
<polygon fill="white" stroke="black" points="452,-278.5 452,-297.5 552,-297.5 552,-278.5 452,-278.5"/>
<text text-anchor="middle" x="502" y="-285.5" font-family="Helvetica,sans-Serif" font-size="10.00">tds_process_msg</text>
</a>
</g>
</g>
<!-- Node2&#45;&gt;Node18 -->
<g id="edge20" class="edge"><title>Node2&#45;&gt;Node18</title>
<path fill="none" stroke="midnightblue" d="M426.369,-284.462C434.983,-284.043 443.69,-283.758 451.967,-283.628"/>
<polygon fill="midnightblue" stroke="midnightblue" points="426.125,-280.97 416.332,-285.012 426.508,-287.959 426.125,-280.97"/>
</g>
<!-- Node5 -->
<g id="node5" class="node"><title>Node5</title>
<g id="a_node5"><a xlink:href="a00344.html#gae67546338cb9542a4902aa914f57f314" target="_top" xlink:title="_bcp_exec_out">
<polygon fill="white" stroke="red" points="747.5,-430.5 747.5,-449.5 835.5,-449.5 835.5,-430.5 747.5,-430.5"/>
<text text-anchor="middle" x="791.5" y="-437.5" font-family="Helvetica,sans-Serif" font-size="10.00">_bcp_exec_out</text>
</a>
</g>
</g>
<!-- Node4&#45;&gt;Node5 -->
<g id="edge4" class="edge"><title>Node4&#45;&gt;Node5</title>
<path fill="none" stroke="midnightblue" d="M651.573,-288.324C663.44,-320.404 691.431,-384.708 736,-421 740.74,-424.86 746.315,-427.959 752.059,-430.44"/>
<polygon fill="midnightblue" stroke="midnightblue" points="654.821,-287.011 648.166,-278.767 648.227,-289.362 654.821,-287.011"/>
</g>
<!-- Node6 -->
<g id="node6" class="node"><title>Node6</title>
<g id="a_node6"><a xlink:href="a00341.html#gaf1879b85e8238c015b9648d077665285" target="_top" xlink:title="_dbresults">
<polygon fill="white" stroke="red" points="759,-392.5 759,-411.5 824,-411.5 824,-392.5 759,-392.5"/>
<text text-anchor="middle" x="791.5" y="-399.5" font-family="Helvetica,sans-Serif" font-size="10.00">_dbresults</text>
</a>
</g>
</g>
<!-- Node4&#45;&gt;Node6 -->
<g id="edge5" class="edge"><title>Node4&#45;&gt;Node6</title>
<path fill="none" stroke="midnightblue" d="M655.309,-287.653C670.069,-312.733 699.513,-357.156 736,-383 742.787,-387.807 750.902,-391.494 758.77,-394.283"/>
<polygon fill="midnightblue" stroke="midnightblue" points="658.232,-285.714 650.225,-278.776 652.158,-289.193 658.232,-285.714"/>
</g>
<!-- Node7 -->
<g id="node7" class="node"><title>Node7</title>
<g id="a_node7"><a xlink:href="a00342.html#gaff09873008411a0573f6d1a9e6c7cf4b" target="_top" xlink:title="Get count of output parameters filled by a stored procedure. ">
<polygon fill="white" stroke="red" points="759,-354.5 759,-373.5 824,-373.5 824,-354.5 759,-354.5"/>
<text text-anchor="middle" x="791.5" y="-361.5" font-family="Helvetica,sans-Serif" font-size="10.00">dbnumrets</text>
</a>
</g>
</g>
<!-- Node4&#45;&gt;Node7 -->
<g id="edge6" class="edge"><title>Node4&#45;&gt;Node7</title>
<path fill="none" stroke="midnightblue" d="M663.387,-285.576C681.1,-300.987 709.097,-323.922 736,-340 745.229,-345.516 755.955,-350.511 765.437,-354.498"/>
<polygon fill="midnightblue" stroke="midnightblue" points="665.382,-282.669 655.568,-278.678 660.751,-287.918 665.382,-282.669"/>
</g>
<!-- Node8 -->
<g id="node8" class="node"><title>Node8</title>
<g id="a_node8"><a xlink:href="a00341.html#gae1f50a6a2c31fda57cb481922b06841e" target="_top" xlink:title="Wait for results of a query from the server. ">
<polygon fill="white" stroke="red" points="765,-278.5 765,-297.5 818,-297.5 818,-278.5 765,-278.5"/>
<text text-anchor="middle" x="791.5" y="-285.5" font-family="Helvetica,sans-Serif" font-size="10.00">dbsqlok</text>
</a>
</g>
</g>
<!-- Node4&#45;&gt;Node8 -->
<g id="edge7" class="edge"><title>Node4&#45;&gt;Node8</title>
<path fill="none" stroke="midnightblue" d="M710.024,-277.491C729.364,-280.017 749.44,-282.638 764.702,-284.631"/>
<polygon fill="midnightblue" stroke="midnightblue" points="710.376,-274.007 700.007,-276.183 709.47,-280.949 710.376,-274.007"/>
</g>
<!-- Node9 -->
<g id="node9" class="node"><title>Node9</title>
<g id="a_node9"><a xlink:href="a00341.html#ga548153eb2eae76c48aa9d4b72258dc1c" target="_top" xlink:title="Send text or image data to the server. ">
<polygon fill="white" stroke="black" points="919,-297.5 919,-316.5 987,-316.5 987,-297.5 919,-297.5"/>
<text text-anchor="middle" x="953" y="-304.5" font-family="Helvetica,sans-Serif" font-size="10.00">dbwritetext</text>
</a>
</g>
</g>
<!-- Node4&#45;&gt;Node9 -->
<g id="edge10" class="edge"><title>Node4&#45;&gt;Node9</title>
<path fill="none" stroke="midnightblue" d="M671.252,-283.235C688.97,-292.01 713.196,-302.43 736,-307 799.61,-319.748 875.89,-315.266 918.666,-311.02"/>
<polygon fill="midnightblue" stroke="midnightblue" points="672.626,-280.007 662.128,-278.577 669.443,-286.242 672.626,-280.007"/>
</g>
<!-- Node10 -->
<g id="node10" class="node"><title>Node10</title>
<g id="a_node10"><a xlink:href="a00341.html#ga559e24ba70d0d96c3469eb6ab8f74e05" target="_top" xlink:title="Cancel the query currently being retrieved, discarding all pending rows. ">
<polygon fill="white" stroke="red" points="756,-240.5 756,-259.5 827,-259.5 827,-240.5 756,-240.5"/>
<text text-anchor="middle" x="791.5" y="-247.5" font-family="Helvetica,sans-Serif" font-size="10.00">dbcanquery</text>
</a>
</g>
</g>
<!-- Node4&#45;&gt;Node10 -->
<g id="edge9" class="edge"><title>Node4&#45;&gt;Node10</title>
<path fill="none" stroke="midnightblue" d="M710.202,-260.486C725.865,-258.44 742,-256.333 755.661,-254.549"/>
<polygon fill="midnightblue" stroke="midnightblue" points="709.47,-257.051 700.007,-261.817 710.376,-263.993 709.47,-257.051"/>
</g>
<!-- Node11 -->
<g id="node11" class="node"><title>Node11</title>
<g id="a_node11"><a xlink:href="a00341.html#gadd5685565c8c6c86079e17b8a73b324c" target="_top" xlink:title="Fetch part of a text or image value from the server. ">
<polygon fill="white" stroke="black" points="758,-202.5 758,-221.5 825,-221.5 825,-202.5 758,-202.5"/>
<text text-anchor="middle" x="791.5" y="-209.5" font-family="Helvetica,sans-Serif" font-size="10.00">dbreadtext</text>
</a>
</g>
</g>
<!-- Node4&#45;&gt;Node11 -->
<g id="edge11" class="edge"><title>Node4&#45;&gt;Node11</title>
<path fill="none" stroke="midnightblue" d="M676.585,-255.261C694.006,-247.823 716.084,-238.622 736,-231 744.423,-227.777 753.659,-224.471 762.096,-221.54"/>
<polygon fill="midnightblue" stroke="midnightblue" points="674.725,-252.251 666.917,-259.412 677.487,-258.683 674.725,-252.251"/>
</g>
<!-- Node12 -->
<g id="node12" class="node"><title>Node12</title>
<g id="a_node12"><a xlink:href="a00341.html#gac980139b9cea03cf93e373d425991481" target="_top" xlink:title="Transmit the command buffer to the server. ">
<polygon fill="white" stroke="red" points="759,-164.5 759,-183.5 824,-183.5 824,-164.5 759,-164.5"/>
<text text-anchor="middle" x="791.5" y="-171.5" font-family="Helvetica,sans-Serif" font-size="10.00">dbsqlsend</text>
</a>
</g>
</g>
<!-- Node4&#45;&gt;Node12 -->
<g id="edge12" class="edge"><title>Node4&#45;&gt;Node12</title>
<path fill="none" stroke="midnightblue" d="M661.288,-252.214C678.504,-235.283 707.116,-209.371 736,-193 743.061,-188.998 751.11,-185.626 758.815,-182.887"/>
<polygon fill="midnightblue" stroke="midnightblue" points="658.808,-249.745 654.22,-259.295 663.762,-254.69 658.808,-249.745"/>
</g>
<!-- Node13 -->
<g id="node13" class="node"><title>Node13</title>
<g id="a_node13"><a xlink:href="a00356.html#gaf0da49585d39e99780a004ee2ca23479" target="_top" xlink:title="Send option commands to server. ">
<polygon fill="white" stroke="black" points="892.5,-104.5 892.5,-123.5 1013.5,-123.5 1013.5,-104.5 892.5,-104.5"/>
<text text-anchor="middle" x="953" y="-111.5" font-family="Helvetica,sans-Serif" font-size="10.00">tds_submit_optioncmd</text>
</a>
</g>
</g>
<!-- Node4&#45;&gt;Node13 -->
<g id="edge13" class="edge"><title>Node4&#45;&gt;Node13</title>
<path fill="none" stroke="midnightblue" d="M654.366,-250.322C668.372,-224.462 697.321,-178.309 736,-155 783.404,-126.433 846.404,-117.074 892.125,-114.328"/>
<polygon fill="midnightblue" stroke="midnightblue" points="651.126,-248.964 649.59,-259.447 657.328,-252.21 651.126,-248.964"/>
</g>
<!-- Node14 -->
<g id="node14" class="node"><title>Node14</title>
<g id="a_node14"><a xlink:href="a00193.html#ac6610c72bd31bad5378f760fa9b12d66" target="_top" xlink:title="Initialize BCP information. ">
<polygon fill="white" stroke="red" points="755,-38.5 755,-57.5 828,-57.5 828,-38.5 755,-38.5"/>
<text text-anchor="middle" x="791.5" y="-45.5" font-family="Helvetica,sans-Serif" font-size="10.00">tds_bcp_init</text>
</a>
</g>
</g>
<!-- Node4&#45;&gt;Node14 -->
<g id="edge14" class="edge"><title>Node4&#45;&gt;Node14</title>
<path fill="none" stroke="midnightblue" d="M648.478,-249.367C656.571,-209.372 680.374,-117.944 736,-67 741.321,-62.1273 747.959,-58.4926 754.754,-55.7849"/>
<polygon fill="midnightblue" stroke="midnightblue" points="644.998,-248.935 646.562,-259.414 651.874,-250.247 644.998,-248.935"/>
</g>
<!-- Node15 -->
<g id="node15" class="node"><title>Node15</title>
<g id="a_node15"><a xlink:href="a00359.html#ga55f27c3e05d42c9b07ace1c74b11c5ab" target="_top" xlink:title="Retrieve and set @spid. ">
<polygon fill="white" stroke="black" points="753,-468.5 753,-487.5 830,-487.5 830,-468.5 753,-468.5"/>
<text text-anchor="middle" x="791.5" y="-475.5" font-family="Helvetica,sans-Serif" font-size="10.00">tds_set_spid</text>
</a>
</g>
</g>
<!-- Node4&#45;&gt;Node15 -->
<g id="edge15" class="edge"><title>Node4&#45;&gt;Node15</title>
<path fill="none" stroke="midnightblue" d="M649.141,-288.792C658.161,-327.092 683.154,-411.727 736,-459 740.854,-463.342 746.757,-466.705 752.863,-469.304"/>
<polygon fill="midnightblue" stroke="midnightblue" points="652.523,-287.88 646.925,-278.885 645.692,-289.408 652.523,-287.88"/>
</g>
<!-- Node16 -->
<g id="node16" class="node"><title>Node16</title>
<g id="a_node16"><a xlink:href="a00359.html#gaeeb1562044786ea17bea361ed83e6946" target="_top" xlink:title="Process results for simple query as &quot;SET TEXTSIZE&quot; or &quot;USE dbname&quot; If the statement returns results...">
<polygon fill="white" stroke="red" points="736.5,-77 736.5,-107 846.5,-107 846.5,-77 736.5,-77"/>
<text text-anchor="start" x="744.5" y="-95" font-family="Helvetica,sans-Serif" font-size="10.00">tds_process_simple</text>
<text text-anchor="middle" x="791.5" y="-84" font-family="Helvetica,sans-Serif" font-size="10.00">_query</text>
</a>
</g>
</g>
<!-- Node4&#45;&gt;Node16 -->
<g id="edge17" class="edge"><title>Node4&#45;&gt;Node16</title>
<path fill="none" stroke="midnightblue" d="M652.985,-249.819C666.381,-219.515 695.903,-160.098 736,-122 742.029,-116.272 749.362,-111.275 756.668,-107.088"/>
<polygon fill="midnightblue" stroke="midnightblue" points="649.668,-248.673 648.928,-259.242 656.098,-251.441 649.668,-248.673"/>
</g>
<!-- Node17 -->
<g id="node17" class="node"><title>Node17</title>
<g id="a_node17"><a xlink:href="a00359.html#gaf233e79967f82f4e0dd4d11524917a34" target="_top" xlink:title="tds_process_cancel">
<polygon fill="white" stroke="red" points="736,-0.5 736,-19.5 847,-19.5 847,-0.5 736,-0.5"/>
<text text-anchor="middle" x="791.5" y="-7.5" font-family="Helvetica,sans-Serif" font-size="10.00">tds_process_cancel</text>
</a>
</g>
</g>
<!-- Node4&#45;&gt;Node17 -->
<g id="edge19" class="edge"><title>Node4&#45;&gt;Node17</title>
<path fill="none" stroke="midnightblue" d="M646.911,-249.156C652.329,-203.762 671.827,-91.4647 736,-29 740.021,-25.086 744.891,-21.9752 750.045,-19.5035"/>
<polygon fill="midnightblue" stroke="midnightblue" points="643.422,-248.864 645.819,-259.185 650.381,-249.622 643.422,-248.864"/>
</g>
<!-- Node8&#45;&gt;Node9 -->
<g id="edge8" class="edge"><title>Node8&#45;&gt;Node9</title>
<path fill="none" stroke="midnightblue" d="M828.371,-292.273C855.525,-295.508 892.532,-299.916 918.965,-303.065"/>
<polygon fill="midnightblue" stroke="midnightblue" points="828.47,-288.76 818.126,-291.053 827.642,-295.711 828.47,-288.76"/>
</g>
<!-- Node15&#45;&gt;Node3 -->
<g id="edge16" class="edge"><title>Node15&#45;&gt;Node3</title>
<path fill="none" stroke="midnightblue" d="M840.245,-483.687C853.661,-485.286 868.527,-487.056 882.92,-488.771"/>
<polygon fill="midnightblue" stroke="midnightblue" points="840.643,-480.21 830.299,-482.503 839.815,-487.161 840.643,-480.21"/>
</g>
<!-- Node16&#45;&gt;Node13 -->
<g id="edge18" class="edge"><title>Node16&#45;&gt;Node13</title>
<path fill="none" stroke="midnightblue" d="M857.05,-100.903C868.711,-102.512 880.823,-104.182 892.337,-105.771"/>
<polygon fill="midnightblue" stroke="midnightblue" points="857.329,-97.4089 846.945,-99.5096 856.373,-104.343 857.329,-97.4089"/>
</g>
<!-- Node18&#45;&gt;Node2 -->
<g id="edge21" class="edge"><title>Node18&#45;&gt;Node2</title>
<path fill="none" stroke="midnightblue" d="M441.806,-297.215C433.36,-297.69 424.7,-298.041 416.332,-298.245"/>
<polygon fill="midnightblue" stroke="midnightblue" points="442.207,-300.697 451.967,-296.575 441.767,-293.71 442.207,-300.697"/>
</g>
<!-- Node18&#45;&gt;Node4 -->
<g id="edge22" class="edge"><title>Node18&#45;&gt;Node4</title>
<path fill="none" stroke="midnightblue" d="M562.497,-279.925C570.92,-278.782 579.551,-277.611 587.887,-276.48"/>
<polygon fill="midnightblue" stroke="midnightblue" points="561.797,-276.488 552.359,-281.301 562.739,-283.425 561.797,-276.488"/>
</g>
<!-- Node19&#45;&gt;Node2 -->
<g id="edge24" class="edge"><title>Node19&#45;&gt;Node2</title>
<path fill="none" stroke="midnightblue" d="M256.179,-268.039C271.372,-271.875 288.305,-276.15 303.974,-280.106"/>
<polygon fill="midnightblue" stroke="midnightblue" points="257.03,-264.644 246.478,-265.589 255.316,-271.431 257.03,-264.644"/>
</g>
<!-- Node19&#45;&gt;Node4 -->
<g id="edge25" class="edge"><title>Node19&#45;&gt;Node4</title>
<path fill="none" stroke="midnightblue" d="M278.213,-258.086C364.375,-260.664 509.228,-264.998 587.983,-267.354"/>
<polygon fill="midnightblue" stroke="midnightblue" points="278.105,-254.581 268.004,-257.78 277.895,-261.578 278.105,-254.581"/>
</g>
</g>
</svg>
