<?xml version="1.0" encoding="UTF-8" standalone="no"?>
<!DOCTYPE svg PUBLIC "-//W3C//DTD SVG 1.1//EN"
 "http://www.w3.org/Graphics/SVG/1.1/DTD/svg11.dtd">
<!-- Generated by graphviz version 2.38.0 (20140413.2041)
 -->
<!-- Title: _bcp_read_hostfile Pages: 1 -->
<svg width="720pt" height="269pt"
 viewBox="0.00 0.00 720.00 268.84" xmlns="http://www.w3.org/2000/svg" xmlns:xlink="http://www.w3.org/1999/xlink">
<g id="graph0" class="graph" transform="scale(1 1) rotate(0) translate(4 264.836)">
<title>_bcp_read_hostfile</title>
<polygon fill="white" stroke="none" points="-4,4 -4,-264.836 716,-264.836 716,4 -4,4"/>
<!-- Node1 -->
<g id="node1" class="node"><title>Node1</title>
<polygon fill="#bfbfbf" stroke="black" points="0,-126.5 0,-145.5 107,-145.5 107,-126.5 0,-126.5"/>
<text text-anchor="middle" x="53.5" y="-133.5" font-family="Helvetica,sans-Serif" font-size="10.00">_bcp_read_hostfile</text>
</g>
<!-- Node2 -->
<g id="node2" class="node"><title>Node2</title>
<g id="a_node2"><a xlink:href="a00193.html#ab45c291105027e69836002e1dd586141" target="_top" xlink:title="Write a message to the debug log. ">
<polygon fill="white" stroke="black" points="635,-114.5 635,-133.5 712,-133.5 712,-114.5 635,-114.5"/>
<text text-anchor="middle" x="673.5" y="-121.5" font-family="Helvetica,sans-Serif" font-size="10.00">tdsdump_log</text>
</a>
</g>
</g>
<!-- Node1&#45;&gt;Node2 -->
<g id="edge1" class="edge"><title>Node1&#45;&gt;Node2</title>
<path fill="none" stroke="midnightblue" d="M61.1771,-145.688C74.3749,-163.941 105.77,-203.104 143,-220 212.912,-251.728 238.308,-232.441 315,-236 441.106,-241.853 488.28,-291.647 599,-231 633.763,-211.958 655.452,-168.578 665.623,-143.288"/>
<polygon fill="midnightblue" stroke="midnightblue" points="668.994,-144.272 669.281,-133.681 662.452,-141.781 668.994,-144.272"/>
</g>
<!-- Node3 -->
<g id="node3" class="node"><title>Node3</title>
<g id="a_node3"><a xlink:href="a00347.html#ga302a4ce6559b81808e3be51615cd1b67" target="_top" xlink:title="Call client&#45;installed error handler. ">
<polygon fill="white" stroke="black" points="513.5,-202.5 513.5,-221.5 570.5,-221.5 570.5,-202.5 513.5,-202.5"/>
<text text-anchor="middle" x="542" y="-209.5" font-family="Helvetica,sans-Serif" font-size="10.00">dbperror</text>
</a>
</g>
</g>
<!-- Node1&#45;&gt;Node3 -->
<g id="edge2" class="edge"><title>Node1&#45;&gt;Node3</title>
<path fill="none" stroke="midnightblue" d="M65.2476,-145.66C80.9903,-159.13 111.845,-183.022 143,-193 269.839,-233.623 431.009,-223.889 503.128,-216.566"/>
<polygon fill="midnightblue" stroke="midnightblue" points="503.532,-220.043 513.108,-215.51 502.795,-213.082 503.532,-220.043"/>
</g>
<!-- Node4 -->
<g id="node4" class="node"><title>Node4</title>
<g id="a_node4"><a xlink:href="a00193.html#aa70b02ff34ac03040ca41f13d5fd35bd" target="_top" xlink:title="Return the number of bytes needed by specified type. ">
<polygon fill="white" stroke="black" points="151.5,-164.5 151.5,-183.5 270.5,-183.5 270.5,-164.5 151.5,-164.5"/>
<text text-anchor="middle" x="211" y="-171.5" font-family="Helvetica,sans-Serif" font-size="10.00">tds_get_size_by_type</text>
</a>
</g>
</g>
<!-- Node1&#45;&gt;Node4 -->
<g id="edge4" class="edge"><title>Node1&#45;&gt;Node4</title>
<path fill="none" stroke="midnightblue" d="M93.7392,-145.589C114.259,-150.604 139.567,-156.788 161.325,-162.105"/>
<polygon fill="midnightblue" stroke="midnightblue" points="160.498,-165.506 171.043,-164.48 162.16,-158.706 160.498,-165.506"/>
</g>
<!-- Node5 -->
<g id="node5" class="node"><title>Node5</title>
<g id="a_node5"><a xlink:href="a00294.html#a86ac92bd8a3c61a413d27150ec9bc202" target="_top" xlink:title="Read a data file, passing the data through iconv(). ">
<polygon fill="white" stroke="black" points="169,-126.5 169,-145.5 253,-145.5 253,-126.5 169,-126.5"/>
<text text-anchor="middle" x="211" y="-133.5" font-family="Helvetica,sans-Serif" font-size="10.00">tds_bcp_fread</text>
</a>
</g>
</g>
<!-- Node1&#45;&gt;Node5 -->
<g id="edge5" class="edge"><title>Node1&#45;&gt;Node5</title>
<path fill="none" stroke="midnightblue" d="M107.145,-136C123.781,-136 142.135,-136 158.677,-136"/>
<polygon fill="midnightblue" stroke="midnightblue" points="158.712,-139.5 168.712,-136 158.712,-132.5 158.712,-139.5"/>
</g>
<!-- Node14 -->
<g id="node14" class="node"><title>Node14</title>
<g id="a_node14"><a xlink:href="a00193.html#ae7f4c4d5f7352f1c814284c536659e6f" target="_top" xlink:title="Return type suitable for conversions (convert all nullable types to fixed type) ">
<polygon fill="white" stroke="black" points="143,-88.5 143,-107.5 279,-107.5 279,-88.5 143,-88.5"/>
<text text-anchor="middle" x="211" y="-95.5" font-family="Helvetica,sans-Serif" font-size="10.00">tds_get_conversion_type</text>
</a>
</g>
</g>
<!-- Node1&#45;&gt;Node14 -->
<g id="edge17" class="edge"><title>Node1&#45;&gt;Node14</title>
<path fill="none" stroke="midnightblue" d="M93.7392,-126.411C114.259,-121.396 139.567,-115.212 161.325,-109.895"/>
<polygon fill="midnightblue" stroke="midnightblue" points="162.16,-113.294 171.043,-107.52 160.498,-106.494 162.16,-113.294"/>
</g>
<!-- Node15 -->
<g id="node15" class="node"><title>Node15</title>
<g id="a_node15"><a xlink:href="a00233.html#a69623a4c4f488f3a8838af6f5ca3da13" target="_top" xlink:title="Convert column for input to a table. ">
<polygon fill="white" stroke="black" points="163.5,-50.5 163.5,-69.5 258.5,-69.5 258.5,-50.5 163.5,-50.5"/>
<text text-anchor="middle" x="211" y="-57.5" font-family="Helvetica,sans-Serif" font-size="10.00">_bcp_convert_in</text>
</a>
</g>
</g>
<!-- Node1&#45;&gt;Node15 -->
<g id="edge18" class="edge"><title>Node1&#45;&gt;Node15</title>
<path fill="none" stroke="midnightblue" d="M66.7193,-126.446C83.1994,-113.967 113.853,-92.1654 143,-79 148.096,-76.6981 153.538,-74.6078 159.034,-72.7278"/>
<polygon fill="midnightblue" stroke="midnightblue" points="160.46,-75.9464 168.922,-69.5705 158.331,-69.278 160.46,-75.9464"/>
</g>
<!-- Node17 -->
<g id="node17" class="node"><title>Node17</title>
<g id="a_node17"><a xlink:href="a00344.html#ga4d5be57b25a0654e2170fd656dc35489" target="_top" xlink:title="trim a string of trailing blanks ">
<polygon fill="white" stroke="black" points="192,-12.5 192,-31.5 230,-31.5 230,-12.5 192,-12.5"/>
<text text-anchor="middle" x="211" y="-19.5" font-family="Helvetica,sans-Serif" font-size="10.00">rtrim</text>
</a>
</g>
</g>
<!-- Node1&#45;&gt;Node17 -->
<g id="edge20" class="edge"><title>Node1&#45;&gt;Node17</title>
<path fill="none" stroke="midnightblue" d="M60.7915,-126.293C73.7773,-107.044 105.495,-63.9208 143,-41 154.767,-33.8086 169.35,-29.2536 181.902,-26.4134"/>
<polygon fill="midnightblue" stroke="midnightblue" points="182.749,-29.8133 191.863,-24.4107 181.369,-22.9506 182.749,-29.8133"/>
</g>
<!-- Node3&#45;&gt;Node2 -->
<g id="edge3" class="edge"><title>Node3&#45;&gt;Node2</title>
<path fill="none" stroke="midnightblue" d="M570.776,-204.54C580.113,-201.403 590.347,-197.243 599,-192 621.831,-178.166 643.718,-156.46 657.579,-141.305"/>
<polygon fill="midnightblue" stroke="midnightblue" points="660.363,-143.443 664.409,-133.651 655.14,-138.782 660.363,-143.443"/>
</g>
<!-- Node6 -->
<g id="node6" class="node"><title>Node6</title>
<g id="a_node6"><a xlink:href="a00294.html#a1b83c9db016b481aa1fa0352f976d50d" target="_top" xlink:title="Reads a chunk of data from file stream checking for terminator. ">
<polygon fill="white" stroke="black" points="324,-164.5 324,-183.5 440,-183.5 440,-164.5 324,-164.5"/>
<text text-anchor="middle" x="382" y="-171.5" font-family="Helvetica,sans-Serif" font-size="10.00">tds_file_stream_read</text>
</a>
</g>
</g>
<!-- Node5&#45;&gt;Node6 -->
<g id="edge6" class="edge"><title>Node5&#45;&gt;Node6</title>
<path fill="none" stroke="midnightblue" d="M253.342,-145.296C276.102,-150.413 304.572,-156.815 328.847,-162.273"/>
<polygon fill="midnightblue" stroke="midnightblue" points="328.091,-165.691 338.616,-164.47 329.627,-158.861 328.091,-165.691"/>
</g>
<!-- Node7 -->
<g id="node7" class="node"><title>Node7</title>
<g id="a_node7"><a xlink:href="a00263.html#a4f9e40da6941cb9407d0da5bc3030517" target="_top" xlink:title="Initialize a dynamic output stream. ">
<polygon fill="white" stroke="black" points="315,-126.5 315,-145.5 449,-145.5 449,-126.5 315,-126.5"/>
<text text-anchor="middle" x="382" y="-133.5" font-family="Helvetica,sans-Serif" font-size="10.00">tds_dynamic_stream_init</text>
</a>
</g>
</g>
<!-- Node5&#45;&gt;Node7 -->
<g id="edge7" class="edge"><title>Node5&#45;&gt;Node7</title>
<path fill="none" stroke="midnightblue" d="M253.342,-136C268.781,-136 286.847,-136 304.449,-136"/>
<polygon fill="midnightblue" stroke="midnightblue" points="304.736,-139.5 314.736,-136 304.736,-132.5 304.736,-139.5"/>
</g>
<!-- Node9 -->
<g id="node9" class="node"><title>Node9</title>
<g id="a_node9"><a xlink:href="a00263.html#a2b8e3379c38cd2bce28b90cb199c2aa9" target="_top" xlink:title="Reads and writes from a stream to another. ">
<polygon fill="white" stroke="black" points="333,-88.5 333,-107.5 431,-107.5 431,-88.5 333,-88.5"/>
<text text-anchor="middle" x="382" y="-95.5" font-family="Helvetica,sans-Serif" font-size="10.00">tds_copy_stream</text>
</a>
</g>
</g>
<!-- Node5&#45;&gt;Node9 -->
<g id="edge9" class="edge"><title>Node5&#45;&gt;Node9</title>
<path fill="none" stroke="midnightblue" d="M253.342,-126.704C276.102,-121.587 304.572,-115.185 328.847,-109.727"/>
<polygon fill="midnightblue" stroke="midnightblue" points="329.627,-113.139 338.616,-107.53 328.091,-106.309 329.627,-113.139"/>
</g>
<!-- Node10 -->
<g id="node10" class="node"><title>Node10</title>
<g id="a_node10"><a xlink:href="a00263.html#a9d8eb43a81ff58ab423dce0ce95b9564" target="_top" xlink:title="Reads and writes from a stream converting characters. ">
<polygon fill="white" stroke="black" points="327,-50.5 327,-69.5 437,-69.5 437,-50.5 327,-50.5"/>
<text text-anchor="middle" x="382" y="-57.5" font-family="Helvetica,sans-Serif" font-size="10.00">tds_convert_stream</text>
</a>
</g>
</g>
<!-- Node5&#45;&gt;Node10 -->
<g id="edge10" class="edge"><title>Node5&#45;&gt;Node10</title>
<path fill="none" stroke="midnightblue" d="M253.132,-128.087C262.041,-125.367 271.139,-121.759 279,-117 298.902,-104.952 295.122,-91.0877 315,-79 318.553,-76.8394 322.363,-74.9148 326.294,-73.2021"/>
<polygon fill="midnightblue" stroke="midnightblue" points="327.567,-76.4624 335.621,-69.5789 325.032,-69.9375 327.567,-76.4624"/>
</g>
<!-- Node8 -->
<g id="node8" class="node"><title>Node8</title>
<g id="a_node8"><a xlink:href="a00263.html#abaf688c85ea04a2392103d519a55d04e" target="_top" xlink:title="Writes data to a dynamic allocated buffer. ">
<polygon fill="white" stroke="red" points="485,-153 485,-183 599,-183 599,-153 485,-153"/>
<text text-anchor="start" x="493" y="-171" font-family="Helvetica,sans-Serif" font-size="10.00">tds_dynamic_stream</text>
<text text-anchor="middle" x="542" y="-160" font-family="Helvetica,sans-Serif" font-size="10.00">_write</text>
</a>
</g>
</g>
<!-- Node7&#45;&gt;Node8 -->
<g id="edge8" class="edge"><title>Node7&#45;&gt;Node8</title>
<path fill="none" stroke="midnightblue" d="M429.977,-145.514C444.081,-148.371 459.823,-151.559 474.918,-154.616"/>
<polygon fill="midnightblue" stroke="midnightblue" points="474.225,-158.047 484.721,-156.602 475.614,-151.186 474.225,-158.047"/>
</g>
<!-- Node10&#45;&gt;Node2 -->
<g id="edge13" class="edge"><title>Node10&#45;&gt;Node2</title>
<path fill="none" stroke="midnightblue" d="M424.311,-69.5147C432.682,-72.097 441.28,-75.2435 449,-79 466.747,-87.6361 466.551,-97.9876 485,-105 530.148,-122.161 585.575,-125.848 624.413,-125.895"/>
<polygon fill="midnightblue" stroke="midnightblue" points="624.931,-129.391 634.905,-125.819 624.881,-122.391 624.931,-129.391"/>
</g>
<!-- Node11 -->
<g id="node11" class="node"><title>Node11</title>
<g id="a_node11"><a xlink:href="a00354.html#ga87db49044919f1bc84c0ff5e9ab00304" target="_top" xlink:title="Wrapper around iconv(3). ">
<polygon fill="white" stroke="red" points="511,-76.5 511,-95.5 573,-95.5 573,-76.5 511,-76.5"/>
<text text-anchor="middle" x="542" y="-83.5" font-family="Helvetica,sans-Serif" font-size="10.00">tds_iconv</text>
</a>
</g>
</g>
<!-- Node10&#45;&gt;Node11 -->
<g id="edge11" class="edge"><title>Node10&#45;&gt;Node11</title>
<path fill="none" stroke="midnightblue" d="M437.375,-68.9477C458.259,-72.3843 481.693,-76.2407 500.988,-79.4157"/>
<polygon fill="midnightblue" stroke="midnightblue" points="500.515,-82.8848 510.95,-81.0551 501.651,-75.9777 500.515,-82.8848"/>
</g>
<!-- Node12 -->
<g id="node12" class="node"><title>Node12</title>
<g id="a_node12"><a xlink:href="a00193.html#a79449d2f35a8acc8ed0585044f75524d" target="_top" xlink:title="Dump the contents of data into the log file in a human readable format. ">
<polygon fill="white" stroke="black" points="488.5,-38.5 488.5,-57.5 595.5,-57.5 595.5,-38.5 488.5,-38.5"/>
<text text-anchor="middle" x="542" y="-45.5" font-family="Helvetica,sans-Serif" font-size="10.00">tdsdump_dump_buf</text>
</a>
</g>
</g>
<!-- Node10&#45;&gt;Node12 -->
<g id="edge14" class="edge"><title>Node10&#45;&gt;Node12</title>
<path fill="none" stroke="midnightblue" d="M437.375,-55.8703C450.534,-54.8708 464.707,-53.7944 478.218,-52.7683"/>
<polygon fill="midnightblue" stroke="midnightblue" points="478.687,-56.2428 488.393,-51.9954 478.157,-49.2629 478.687,-56.2428"/>
</g>
<!-- Node13 -->
<g id="node13" class="node"><title>Node13</title>
<g id="a_node13"><a xlink:href="a00193.html#abf18b98efef6ce2dc0b97d658a3a1918" target="_top" xlink:title="Call the client library&#39;s error handler (for library&#45;generated errors only) ">
<polygon fill="white" stroke="red" points="515,-0.5 515,-19.5 569,-19.5 569,-0.5 515,-0.5"/>
<text text-anchor="middle" x="542" y="-7.5" font-family="Helvetica,sans-Serif" font-size="10.00">tdserror</text>
</a>
</g>
</g>
<!-- Node10&#45;&gt;Node13 -->
<g id="edge15" class="edge"><title>Node10&#45;&gt;Node13</title>
<path fill="none" stroke="midnightblue" d="M417.342,-50.4285C427.558,-47.4964 438.756,-44.1985 449,-41 454.631,-39.2417 481.618,-30.1353 504.918,-22.2437"/>
<polygon fill="midnightblue" stroke="midnightblue" points="506.258,-25.4853 514.606,-18.9609 504.011,-18.8556 506.258,-25.4853"/>
</g>
<!-- Node11&#45;&gt;Node2 -->
<g id="edge12" class="edge"><title>Node11&#45;&gt;Node2</title>
<path fill="none" stroke="midnightblue" d="M573.035,-94.8135C590.009,-99.7942 611.502,-106.101 630.162,-111.576"/>
<polygon fill="midnightblue" stroke="midnightblue" points="629.324,-114.978 639.905,-114.436 631.295,-108.261 629.324,-114.978"/>
</g>
<!-- Node13&#45;&gt;Node2 -->
<g id="edge16" class="edge"><title>Node13&#45;&gt;Node2</title>
<path fill="none" stroke="midnightblue" d="M569.023,-15.4152C579.017,-18.3356 590.141,-22.6795 599,-29 627.576,-49.3882 650.352,-84.0415 662.6,-105.383"/>
<polygon fill="midnightblue" stroke="midnightblue" points="659.696,-107.364 667.608,-114.412 665.818,-103.969 659.696,-107.364"/>
</g>
<!-- Node16 -->
<g id="node16" class="node"><title>Node16</title>
<g id="a_node16"><a xlink:href="a00353.html#gaa865e08f7ad70ef92b111c2ea3657457" target="_top" xlink:title="tds_convert convert a type to another. ">
<polygon fill="white" stroke="black" points="346,-12.5 346,-31.5 418,-31.5 418,-12.5 346,-12.5"/>
<text text-anchor="middle" x="382" y="-19.5" font-family="Helvetica,sans-Serif" font-size="10.00">tds_convert</text>
</a>
</g>
</g>
<!-- Node15&#45;&gt;Node16 -->
<g id="edge19" class="edge"><title>Node15&#45;&gt;Node16</title>
<path fill="none" stroke="midnightblue" d="M254.646,-50.411C279.397,-44.8456 310.558,-37.839 335.741,-32.1765"/>
<polygon fill="midnightblue" stroke="midnightblue" points="336.789,-35.5284 345.778,-29.9198 335.254,-28.6989 336.789,-35.5284"/>
</g>
</g>
</svg>
