<?xml version="1.0" encoding="UTF-8" standalone="no"?>
<!DOCTYPE svg PUBLIC "-//W3C//DTD SVG 1.1//EN"
 "http://www.w3.org/Graphics/SVG/1.1/DTD/svg11.dtd">
<!-- Generated by graphviz version 2.38.0 (20140413.2041)
 -->
<!-- Title: tds_process_param_result_tokens Pages: 1 -->
<svg width="1335pt" height="398pt"
 viewBox="0.00 0.00 1335.00 398.41" xmlns="http://www.w3.org/2000/svg" xmlns:xlink="http://www.w3.org/1999/xlink">
<g id="graph0" class="graph" transform="scale(1 1) rotate(0) translate(4 394.409)">
<title>tds_process_param_result_tokens</title>
<polygon fill="white" stroke="none" points="-4,4 -4,-394.409 1331,-394.409 1331,4 -4,4"/>
<!-- Node1 -->
<g id="node1" class="node"><title>Node1</title>
<polygon fill="#bfbfbf" stroke="black" points="0,-128.409 0,-158.409 142,-158.409 142,-128.409 0,-128.409"/>
<text text-anchor="start" x="8" y="-146.409" font-family="Helvetica,sans-Serif" font-size="10.00">tds_process_param_result</text>
<text text-anchor="middle" x="71" y="-135.409" font-family="Helvetica,sans-Serif" font-size="10.00">_tokens</text>
</g>
<!-- Node2 -->
<g id="node2" class="node"><title>Node2</title>
<g id="a_node2"><a xlink:href="a00357.html#ga0cb72d3f6943795c39db1fa692be0a58" target="_top" xlink:title="Return a single byte from the input buffer. ">
<polygon fill="white" stroke="black" points="547.5,-0.909482 547.5,-19.9095 624.5,-19.9095 624.5,-0.909482 547.5,-0.909482"/>
<text text-anchor="middle" x="586" y="-7.90948" font-family="Helvetica,sans-Serif" font-size="10.00">tds_get_byte</text>
</a>
</g>
</g>
<!-- Node1&#45;&gt;Node2 -->
<g id="edge1" class="edge"><title>Node1&#45;&gt;Node2</title>
<path fill="none" stroke="midnightblue" d="M130.348,-128.282C233.22,-101.612 444.816,-46.7535 538.551,-22.4518"/>
<polygon fill="midnightblue" stroke="midnightblue" points="539.515,-25.8176 548.317,-19.9199 537.759,-19.0416 539.515,-25.8176"/>
</g>
<!-- Node4 -->
<g id="node4" class="node"><title>Node4</title>
<g id="a_node4"><a xlink:href="a00193.html#ab45c291105027e69836002e1dd586141" target="_top" xlink:title="Write a message to the debug log. ">
<polygon fill="white" stroke="black" points="1250,-179.909 1250,-198.909 1327,-198.909 1327,-179.909 1250,-179.909"/>
<text text-anchor="middle" x="1288.5" y="-186.909" font-family="Helvetica,sans-Serif" font-size="10.00">tdsdump_log</text>
</a>
</g>
</g>
<!-- Node1&#45;&gt;Node4 -->
<g id="edge29" class="edge"><title>Node1&#45;&gt;Node4</title>
<path fill="none" stroke="midnightblue" d="M82.231,-158.489C119.961,-212.116 257.474,-390.409 418,-390.409 418,-390.409 418,-390.409 1071.5,-390.409 1086.15,-390.409 1192.95,-344.191 1214,-324.409 1249.17,-291.349 1271.34,-237.606 1281.32,-208.916"/>
<polygon fill="midnightblue" stroke="midnightblue" points="1284.7,-209.836 1284.54,-199.242 1278.06,-207.619 1284.7,-209.836"/>
</g>
<!-- Node8 -->
<g id="node8" class="node"><title>Node8</title>
<g id="a_node8"><a xlink:href="a00359.html#gacb3354443bcefe7a500a500a4904cc05" target="_top" xlink:title="process output parameters of a stored procedure. ">
<polygon fill="white" stroke="black" points="178,-190.909 178,-209.909 320,-209.909 320,-190.909 178,-190.909"/>
<text text-anchor="middle" x="249" y="-197.909" font-family="Helvetica,sans-Serif" font-size="10.00">tds_process_param_result</text>
</a>
</g>
</g>
<!-- Node1&#45;&gt;Node8 -->
<g id="edge9" class="edge"><title>Node1&#45;&gt;Node8</title>
<path fill="none" stroke="midnightblue" d="M118.703,-158.535C146.786,-167.63 182.127,-179.076 208.76,-187.701"/>
<polygon fill="midnightblue" stroke="midnightblue" points="207.916,-191.107 218.508,-190.858 210.073,-184.447 207.916,-191.107"/>
</g>
<!-- Node20 -->
<g id="node20" class="node"><title>Node20</title>
<g id="a_node20"><a xlink:href="a00357.html#gad70d59fb317d098b0c9fd29dd77131a8" target="_top" xlink:title="Unget will always work as long as you don&#39;t call it twice in a row. ">
<polygon fill="white" stroke="black" points="204.5,-38.9095 204.5,-57.9095 293.5,-57.9095 293.5,-38.9095 204.5,-38.9095"/>
<text text-anchor="middle" x="249" y="-45.9095" font-family="Helvetica,sans-Serif" font-size="10.00">tds_unget_byte</text>
</a>
</g>
</g>
<!-- Node1&#45;&gt;Node20 -->
<g id="edge30" class="edge"><title>Node1&#45;&gt;Node20</title>
<path fill="none" stroke="midnightblue" d="M91.376,-128.168C111.943,-112.546 145.851,-88.347 178,-72.4095 186.453,-68.219 195.817,-64.4577 204.873,-61.2242"/>
<polygon fill="midnightblue" stroke="midnightblue" points="206.19,-64.4728 214.522,-57.9274 203.927,-57.8488 206.19,-64.4728"/>
</g>
<!-- Node3 -->
<g id="node3" class="node"><title>Node3</title>
<g id="a_node3"><a xlink:href="a00357.html#ga410619783bdf2bb60b0f27a5578e0e07" target="_top" xlink:title="Read in one &#39;packet&#39; from the server. ">
<polygon fill="white" stroke="black" points="885,-67.9095 885,-86.9095 981,-86.9095 981,-67.9095 885,-67.9095"/>
<text text-anchor="middle" x="933" y="-74.9095" font-family="Helvetica,sans-Serif" font-size="10.00">tds_read_packet</text>
</a>
</g>
</g>
<!-- Node2&#45;&gt;Node3 -->
<g id="edge2" class="edge"><title>Node2&#45;&gt;Node3</title>
<path fill="none" stroke="midnightblue" d="M624.849,-7.92287C676.674,-5.68213 772.062,-5.74835 849,-29.4095 871.743,-36.4039 894.966,-50.553 911.042,-61.6861"/>
<polygon fill="midnightblue" stroke="midnightblue" points="909.452,-64.8514 919.624,-67.8156 913.521,-59.1552 909.452,-64.8514"/>
</g>
<!-- Node3&#45;&gt;Node4 -->
<g id="edge3" class="edge"><title>Node3&#45;&gt;Node4</title>
<path fill="none" stroke="midnightblue" d="M953.12,-86.9118C969.732,-94.9293 994.58,-106.355 1017,-114.409 1093.64,-141.943 1185.48,-165.487 1240.02,-178.519"/>
<polygon fill="midnightblue" stroke="midnightblue" points="1239.22,-181.926 1249.76,-180.828 1240.84,-175.115 1239.22,-181.926"/>
</g>
<!-- Node5 -->
<g id="node5" class="node"><title>Node5</title>
<g id="a_node5"><a xlink:href="a00193.html#abf18b98efef6ce2dc0b97d658a3a1918" target="_top" xlink:title="Call the client library&#39;s error handler (for library&#45;generated errors only) ">
<polygon fill="white" stroke="red" points="1160,-103.909 1160,-122.909 1214,-122.909 1214,-103.909 1160,-103.909"/>
<text text-anchor="middle" x="1187" y="-110.909" font-family="Helvetica,sans-Serif" font-size="10.00">tdserror</text>
</a>
</g>
</g>
<!-- Node3&#45;&gt;Node5 -->
<g id="edge4" class="edge"><title>Node3&#45;&gt;Node5</title>
<path fill="none" stroke="midnightblue" d="M976.944,-86.9727C989.785,-89.6242 1003.92,-92.3398 1017,-94.4095 1062.59,-101.626 1115.52,-107.114 1149.83,-110.293"/>
<polygon fill="midnightblue" stroke="midnightblue" points="1149.57,-113.785 1159.85,-111.205 1150.2,-106.813 1149.57,-113.785"/>
</g>
<!-- Node6 -->
<g id="node6" class="node"><title>Node6</title>
<g id="a_node6"><a xlink:href="a00357.html#ga3e3f76009fce5ceedb2f42bb2c9aed2e" target="_top" xlink:title="Close current socket for last socket close entire connection for MARS send FIN request. ">
<polygon fill="white" stroke="red" points="1021.5,-65.9095 1021.5,-84.9095 1119.5,-84.9095 1119.5,-65.9095 1021.5,-65.9095"/>
<text text-anchor="middle" x="1070.5" y="-72.9095" font-family="Helvetica,sans-Serif" font-size="10.00">tds_close_socket</text>
</a>
</g>
</g>
<!-- Node3&#45;&gt;Node6 -->
<g id="edge6" class="edge"><title>Node3&#45;&gt;Node6</title>
<path fill="none" stroke="midnightblue" d="M981.011,-76.7156C990.655,-76.5732 1000.92,-76.4217 1010.91,-76.2742"/>
<polygon fill="midnightblue" stroke="midnightblue" points="1011.25,-79.7698 1021.19,-76.1225 1011.14,-72.7706 1011.25,-79.7698"/>
</g>
<!-- Node7 -->
<g id="node7" class="node"><title>Node7</title>
<g id="a_node7"><a xlink:href="a00193.html#a79449d2f35a8acc8ed0585044f75524d" target="_top" xlink:title="Dump the contents of data into the log file in a human readable format. ">
<polygon fill="white" stroke="black" points="1017,-27.9095 1017,-46.9095 1124,-46.9095 1124,-27.9095 1017,-27.9095"/>
<text text-anchor="middle" x="1070.5" y="-34.9095" font-family="Helvetica,sans-Serif" font-size="10.00">tdsdump_dump_buf</text>
</a>
</g>
</g>
<!-- Node3&#45;&gt;Node7 -->
<g id="edge8" class="edge"><title>Node3&#45;&gt;Node7</title>
<path fill="none" stroke="midnightblue" d="M966.456,-67.8285C984.808,-62.4109 1007.95,-55.5783 1027.66,-49.7617"/>
<polygon fill="midnightblue" stroke="midnightblue" points="1028.71,-53.1004 1037.31,-46.9123 1026.73,-46.3868 1028.71,-53.1004"/>
</g>
<!-- Node5&#45;&gt;Node4 -->
<g id="edge5" class="edge"><title>Node5&#45;&gt;Node4</title>
<path fill="none" stroke="midnightblue" d="M1200.6,-123.035C1217.27,-135.769 1246.88,-158.381 1266.84,-173.631"/>
<polygon fill="midnightblue" stroke="midnightblue" points="1264.93,-176.574 1275,-179.862 1269.18,-171.011 1264.93,-176.574"/>
</g>
<!-- Node6&#45;&gt;Node5 -->
<g id="edge7" class="edge"><title>Node6&#45;&gt;Node5</title>
<path fill="none" stroke="midnightblue" d="M1100.39,-84.9985C1115.54,-90.0238 1134.22,-96.2242 1150.26,-101.549"/>
<polygon fill="midnightblue" stroke="midnightblue" points="1149.26,-104.905 1159.86,-104.733 1151.47,-98.2614 1149.26,-104.905"/>
</g>
<!-- Node8&#45;&gt;Node4 -->
<g id="edge10" class="edge"><title>Node8&#45;&gt;Node4</title>
<path fill="none" stroke="midnightblue" d="M263.593,-210.117C283.023,-223.413 320.34,-246.843 356,-257.409 453.919,-286.425 482.873,-276.409 585,-276.409 585,-276.409 585,-276.409 1071.5,-276.409 1147.16,-276.409 1227.63,-229.918 1265.45,-204.907"/>
<polygon fill="midnightblue" stroke="midnightblue" points="1267.78,-207.55 1274.11,-199.052 1263.87,-201.75 1267.78,-207.55"/>
</g>
<!-- Node9 -->
<g id="node9" class="node"><title>Node9</title>
<g id="a_node9"><a xlink:href="a00355.html#ga314c65c067570dc1ef3e58bbfc4eb763" target="_top" xlink:title="Adds a output parameter to TDSPARAMINFO. ">
<polygon fill="white" stroke="black" points="356,-228.909 356,-247.909 482,-247.909 482,-228.909 356,-228.909"/>
<text text-anchor="middle" x="419" y="-235.909" font-family="Helvetica,sans-Serif" font-size="10.00">tds_alloc_param_result</text>
</a>
</g>
</g>
<!-- Node8&#45;&gt;Node9 -->
<g id="edge11" class="edge"><title>Node8&#45;&gt;Node9</title>
<path fill="none" stroke="midnightblue" d="M292.393,-209.998C314.763,-215.058 342.398,-221.309 366.047,-226.658"/>
<polygon fill="midnightblue" stroke="midnightblue" points="365.386,-230.097 375.911,-228.889 366.93,-223.269 365.386,-230.097"/>
</g>
<!-- Node10 -->
<g id="node10" class="node"><title>Node10</title>
<g id="a_node10"><a xlink:href="a00359.html#gad9b6b86f48be077fb44ac603845a0c27" target="_top" xlink:title="Reads data metadata from wire. ">
<polygon fill="white" stroke="black" points="368,-114.909 368,-133.909 470,-133.909 470,-114.909 368,-114.909"/>
<text text-anchor="middle" x="419" y="-121.909" font-family="Helvetica,sans-Serif" font-size="10.00">tds_get_data_info</text>
</a>
</g>
</g>
<!-- Node8&#45;&gt;Node10 -->
<g id="edge12" class="edge"><title>Node8&#45;&gt;Node10</title>
<path fill="none" stroke="midnightblue" d="M265.682,-190.71C285.961,-178.468 322.641,-157.332 356,-143.409 361.391,-141.159 367.144,-139.041 372.891,-137.093"/>
<polygon fill="midnightblue" stroke="midnightblue" points="374.056,-140.395 382.491,-133.983 371.899,-133.735 374.056,-140.395"/>
</g>
<!-- Node16 -->
<g id="node16" class="node"><title>Node16</title>
<g id="a_node16"><a xlink:href="a00355.html#ga282d67682d293810625d87d566443c2d" target="_top" xlink:title="Allocate data for a parameter. ">
<polygon fill="white" stroke="black" points="358,-190.909 358,-209.909 480,-209.909 480,-190.909 358,-190.909"/>
<text text-anchor="middle" x="419" y="-197.909" font-family="Helvetica,sans-Serif" font-size="10.00">tds_alloc_param_data</text>
</a>
</g>
</g>
<!-- Node8&#45;&gt;Node16 -->
<g id="edge23" class="edge"><title>Node8&#45;&gt;Node16</title>
<path fill="none" stroke="midnightblue" d="M320.274,-200.409C329.354,-200.409 338.655,-200.409 347.736,-200.409"/>
<polygon fill="midnightblue" stroke="midnightblue" points="347.871,-203.91 357.871,-200.409 347.871,-196.91 347.871,-203.91"/>
</g>
<!-- Node17 -->
<g id="node17" class="node"><title>Node17</title>
<g id="a_node17"><a xlink:href="a00193.html#aaee3fe5c514ce5570c9548de9b16e0d9" target="_top" xlink:title="Write a column value to the debug log. ">
<polygon fill="white" stroke="black" points="381,-304.909 381,-323.909 457,-323.909 457,-304.909 381,-304.909"/>
<text text-anchor="middle" x="419" y="-311.909" font-family="Helvetica,sans-Serif" font-size="10.00">tdsdump_col</text>
</a>
</g>
</g>
<!-- Node8&#45;&gt;Node17 -->
<g id="edge24" class="edge"><title>Node8&#45;&gt;Node17</title>
<path fill="none" stroke="midnightblue" d="M259.093,-210.029C276.457,-227.936 316.164,-266.712 356,-290.409 362.835,-294.476 370.483,-298.092 378.01,-301.205"/>
<polygon fill="midnightblue" stroke="midnightblue" points="376.822,-304.499 387.41,-304.877 379.369,-297.978 376.822,-304.499"/>
</g>
<!-- Node19 -->
<g id="node19" class="node"><title>Node19</title>
<g id="a_node19"><a xlink:href="a00355.html#ga66cd6e3c5089ced9415a8a0e258d205a" target="_top" xlink:title="Delete latest parameter. ">
<polygon fill="white" stroke="black" points="357.5,-152.909 357.5,-171.909 480.5,-171.909 480.5,-152.909 357.5,-152.909"/>
<text text-anchor="middle" x="419" y="-159.909" font-family="Helvetica,sans-Serif" font-size="10.00">tds_free_param_result</text>
</a>
</g>
</g>
<!-- Node8&#45;&gt;Node19 -->
<g id="edge28" class="edge"><title>Node8&#45;&gt;Node19</title>
<path fill="none" stroke="midnightblue" d="M292.393,-190.82C314.763,-185.761 342.398,-179.51 366.047,-174.161"/>
<polygon fill="midnightblue" stroke="midnightblue" points="366.93,-177.55 375.911,-171.93 365.386,-170.722 366.93,-177.55"/>
</g>
<!-- Node10&#45;&gt;Node2 -->
<g id="edge17" class="edge"><title>Node10&#45;&gt;Node2</title>
<path fill="none" stroke="midnightblue" d="M457.133,-114.872C465.969,-111.359 474.887,-106.653 482,-100.409 507.112,-78.3675 492.611,-56.1313 518,-34.4095 523.745,-29.4947 530.571,-25.5582 537.633,-22.4132"/>
<polygon fill="midnightblue" stroke="midnightblue" points="539.307,-25.516 547.331,-18.5976 536.744,-19.002 539.307,-25.516"/>
</g>
<!-- Node10&#45;&gt;Node4 -->
<g id="edge13" class="edge"><title>Node10&#45;&gt;Node4</title>
<path fill="none" stroke="midnightblue" d="M470.073,-128.161C623.879,-139.686 1088.18,-174.475 1239.36,-185.802"/>
<polygon fill="midnightblue" stroke="midnightblue" points="1239.46,-189.32 1249.69,-186.577 1239.98,-182.339 1239.46,-189.32"/>
</g>
<!-- Node11 -->
<g id="node11" class="node"><title>Node11</title>
<g id="a_node11"><a xlink:href="a00357.html#gafae08056186b143f3ef1399307dc9be7" target="_top" xlink:title="Reads a string from wire and put in a DSTR. ">
<polygon fill="white" stroke="red" points="548,-76.9095 548,-95.9095 624,-95.9095 624,-76.9095 548,-76.9095"/>
<text text-anchor="middle" x="586" y="-83.9095" font-family="Helvetica,sans-Serif" font-size="10.00">tds_dstr_get</text>
</a>
</g>
</g>
<!-- Node10&#45;&gt;Node11 -->
<g id="edge14" class="edge"><title>Node10&#45;&gt;Node11</title>
<path fill="none" stroke="midnightblue" d="M461.636,-114.82C484.859,-109.472 513.861,-102.793 537.909,-97.2547"/>
<polygon fill="midnightblue" stroke="midnightblue" points="538.921,-100.613 547.881,-94.9581 537.35,-93.7918 538.921,-100.613"/>
</g>
<!-- Node12 -->
<g id="node12" class="node"><title>Node12</title>
<g id="a_node12"><a xlink:href="a00357.html#gae7d9c4e1a079e1d0aa0252732631e8c4" target="_top" xlink:title="Get N bytes from the buffer and return them in the already allocated space given to us...">
<polygon fill="white" stroke="black" points="737.5,-76.9095 737.5,-95.9095 801.5,-95.9095 801.5,-76.9095 737.5,-76.9095"/>
<text text-anchor="middle" x="769.5" y="-83.9095" font-family="Helvetica,sans-Serif" font-size="10.00">tds_get_n</text>
</a>
</g>
</g>
<!-- Node10&#45;&gt;Node12 -->
<g id="edge18" class="edge"><title>Node10&#45;&gt;Node12</title>
<path fill="none" stroke="midnightblue" d="M470.334,-121.54C517.806,-118.546 590.895,-113.193 654,-105.409 678.516,-102.385 705.807,-97.9009 727.595,-94.0479"/>
<polygon fill="midnightblue" stroke="midnightblue" points="728.274,-97.4822 737.499,-92.2732 727.039,-90.5919 728.274,-97.4822"/>
</g>
<!-- Node13 -->
<g id="node13" class="node"><title>Node13</title>
<g id="a_node13"><a xlink:href="a00298.html#a7d6ccf355d1fc24711b5cd5bbc23a931" target="_top" xlink:title="Set type of column initializing all dependency. ">
<polygon fill="white" stroke="red" points="528,-190.909 528,-209.909 644,-209.909 644,-190.909 528,-190.909"/>
<text text-anchor="middle" x="586" y="-197.909" font-family="Helvetica,sans-Serif" font-size="10.00">tds_set_column_type</text>
</a>
</g>
</g>
<!-- Node10&#45;&gt;Node13 -->
<g id="edge19" class="edge"><title>Node10&#45;&gt;Node13</title>
<path fill="none" stroke="midnightblue" d="M460.45,-133.949C467.866,-136.485 475.355,-139.608 482,-143.409 500.84,-154.188 499.416,-165.195 518,-176.409 524.994,-180.63 532.845,-184.272 540.643,-187.352"/>
<polygon fill="midnightblue" stroke="midnightblue" points="539.474,-190.651 550.068,-190.831 541.899,-184.084 539.474,-190.651"/>
</g>
<!-- Node14 -->
<g id="node14" class="node"><title>Node14</title>
<g id="a_node14"><a xlink:href="a00359.html#ga0cf7e719115b0ae476753442d10505ab" target="_top" xlink:title="Returns string representation of the given type. ">
<polygon fill="white" stroke="black" points="552.5,-228.909 552.5,-247.909 619.5,-247.909 619.5,-228.909 552.5,-228.909"/>
<text text-anchor="middle" x="586" y="-235.909" font-family="Helvetica,sans-Serif" font-size="10.00">tds_prtype</text>
</a>
</g>
</g>
<!-- Node10&#45;&gt;Node14 -->
<g id="edge20" class="edge"><title>Node10&#45;&gt;Node14</title>
<path fill="none" stroke="midnightblue" d="M466.613,-133.942C472.184,-136.406 477.486,-139.507 482,-143.409 510.274,-167.854 489.471,-195.264 518,-219.409 524.974,-225.312 533.668,-229.385 542.459,-232.195"/>
<polygon fill="midnightblue" stroke="midnightblue" points="541.773,-235.635 552.34,-234.86 543.596,-228.876 541.773,-235.635"/>
</g>
<!-- Node15 -->
<g id="node15" class="node"><title>Node15</title>
<g id="a_node15"><a xlink:href="a00359.html#ga91770634ce8c0d6f1fe007b45da186fd" target="_top" xlink:title="Adjust column size according to client&#39;s encoding. ">
<polygon fill="white" stroke="red" points="690,-38.9095 690,-57.9095 849,-57.9095 849,-38.9095 690,-38.9095"/>
<text text-anchor="middle" x="769.5" y="-45.9095" font-family="Helvetica,sans-Serif" font-size="10.00">adjust_character_column_size</text>
</a>
</g>
</g>
<!-- Node10&#45;&gt;Node15 -->
<g id="edge21" class="edge"><title>Node10&#45;&gt;Node15</title>
<path fill="none" stroke="midnightblue" d="M451.351,-114.853C461.514,-111.091 472.586,-106.254 482,-100.409 500.44,-88.9603 498.084,-76.0379 518,-67.4095 568.545,-45.5116 630.188,-40.596 679.676,-41.236"/>
<polygon fill="midnightblue" stroke="midnightblue" points="679.654,-44.7362 689.724,-41.4437 679.798,-37.7377 679.654,-44.7362"/>
</g>
<!-- Node11&#45;&gt;Node12 -->
<g id="edge15" class="edge"><title>Node11&#45;&gt;Node12</title>
<path fill="none" stroke="midnightblue" d="M624.167,-86.4095C654.171,-86.4095 696.348,-86.4095 727.363,-86.4095"/>
<polygon fill="midnightblue" stroke="midnightblue" points="727.42,-89.9096 737.42,-86.4095 727.42,-82.9096 727.42,-89.9096"/>
</g>
<!-- Node12&#45;&gt;Node3 -->
<g id="edge16" class="edge"><title>Node12&#45;&gt;Node3</title>
<path fill="none" stroke="midnightblue" d="M801.639,-84.6742C822.251,-83.5255 849.904,-81.9845 874.437,-80.6173"/>
<polygon fill="midnightblue" stroke="midnightblue" points="874.941,-84.0947 884.731,-80.0437 874.552,-77.1056 874.941,-84.0947"/>
</g>
<!-- Node15&#45;&gt;Node4 -->
<g id="edge22" class="edge"><title>Node15&#45;&gt;Node4</title>
<path fill="none" stroke="midnightblue" d="M796.787,-38.8097C856.873,-18.4194 1008.02,24.0088 1124,-18.4095 1199.78,-46.125 1255.53,-131.998 1277.37,-170.452"/>
<polygon fill="midnightblue" stroke="midnightblue" points="1274.5,-172.493 1282.41,-179.55 1280.63,-169.105 1274.5,-172.493"/>
</g>
<!-- Node17&#45;&gt;Node4 -->
<g id="edge27" class="edge"><title>Node17&#45;&gt;Node4</title>
<path fill="none" stroke="midnightblue" d="M457.062,-322.646C475.327,-326.436 497.732,-330.685 518,-333.409 628.658,-348.282 656.847,-352.409 768.5,-352.409 768.5,-352.409 768.5,-352.409 1071.5,-352.409 1140.57,-352.409 1160.12,-333.626 1214,-290.409 1242.75,-267.346 1265.73,-230.385 1277.92,-208.148"/>
<polygon fill="midnightblue" stroke="midnightblue" points="1281.14,-209.543 1282.74,-199.07 1274.96,-206.257 1281.14,-209.543"/>
</g>
<!-- Node17&#45;&gt;Node14 -->
<g id="edge25" class="edge"><title>Node17&#45;&gt;Node14</title>
<path fill="none" stroke="midnightblue" d="M440.897,-304.784C469.784,-291.479 522.082,-267.39 555.099,-252.182"/>
<polygon fill="midnightblue" stroke="midnightblue" points="556.654,-255.319 564.272,-247.957 553.725,-248.961 556.654,-255.319"/>
</g>
<!-- Node18 -->
<g id="node18" class="node"><title>Node18</title>
<g id="a_node18"><a xlink:href="a00193.html#ae7f4c4d5f7352f1c814284c536659e6f" target="_top" xlink:title="Return type suitable for conversions (convert all nullable types to fixed type) ">
<polygon fill="white" stroke="black" points="518,-304.909 518,-323.909 654,-323.909 654,-304.909 518,-304.909"/>
<text text-anchor="middle" x="586" y="-311.909" font-family="Helvetica,sans-Serif" font-size="10.00">tds_get_conversion_type</text>
</a>
</g>
</g>
<!-- Node17&#45;&gt;Node18 -->
<g id="edge26" class="edge"><title>Node17&#45;&gt;Node18</title>
<path fill="none" stroke="midnightblue" d="M457.029,-314.409C472.041,-314.409 489.973,-314.409 507.595,-314.409"/>
<polygon fill="midnightblue" stroke="midnightblue" points="507.91,-317.91 517.91,-314.409 507.91,-310.91 507.91,-317.91"/>
</g>
</g>
</svg>
