<?xml version="1.0" encoding="UTF-8" standalone="no"?>
<!DOCTYPE svg PUBLIC "-//W3C//DTD SVG 1.1//EN"
 "http://www.w3.org/Graphics/SVG/1.1/DTD/svg11.dtd">
<!-- Generated by graphviz version 2.38.0 (20140413.2041)
 -->
<!-- Title: tds_peek Pages: 1 -->
<svg width="823pt" height="514pt"
 viewBox="0.00 0.00 823.00 514.04" xmlns="http://www.w3.org/2000/svg" xmlns:xlink="http://www.w3.org/1999/xlink">
<g id="graph0" class="graph" transform="scale(1 1) rotate(0) translate(4 510.042)">
<title>tds_peek</title>
<polygon fill="white" stroke="none" points="-4,4 -4,-510.042 819,-510.042 819,4 -4,4"/>
<!-- Node1 -->
<g id="node1" class="node"><title>Node1</title>
<polygon fill="#bfbfbf" stroke="black" points="0,-484.916 0,-503.916 60,-503.916 60,-484.916 0,-484.916"/>
<text text-anchor="middle" x="30" y="-491.916" font-family="Helvetica,sans-Serif" font-size="10.00">tds_peek</text>
</g>
<!-- Node2 -->
<g id="node2" class="node"><title>Node2</title>
<g id="a_node2"><a xlink:href="a00359.html#ga39453d084f3f780ac4602d4abf2839f7" target="_top" xlink:title="tds_process_default_tokens() is a catch all function that is called to process tokens not known to ot...">
<polygon fill="white" stroke="black" points="96,-425.416 96,-455.416 208,-455.416 208,-425.416 96,-425.416"/>
<text text-anchor="start" x="104" y="-443.416" font-family="Helvetica,sans-Serif" font-size="10.00">tds_process_default</text>
<text text-anchor="middle" x="152" y="-432.416" font-family="Helvetica,sans-Serif" font-size="10.00">_tokens</text>
</a>
</g>
</g>
<!-- Node1&#45;&gt;Node2 -->
<g id="edge1" class="edge"><title>Node1&#45;&gt;Node2</title>
<path fill="none" stroke="midnightblue" d="M61.6549,-480.622C78.6733,-472.963 99.8703,-463.425 117.346,-455.56"/>
<polygon fill="midnightblue" stroke="midnightblue" points="59.8603,-477.591 52.1774,-484.886 62.7329,-483.975 59.8603,-477.591"/>
</g>
<!-- Node4 -->
<g id="node4" class="node"><title>Node4</title>
<g id="a_node4"><a xlink:href="a00359.html#gabfc9de1d1fe718818caf63a4be4035a6" target="_top" xlink:title="process all streams. ">
<polygon fill="white" stroke="black" points="380,-292.916 380,-311.916 492,-311.916 492,-292.916 380,-292.916"/>
<text text-anchor="middle" x="436" y="-299.916" font-family="Helvetica,sans-Serif" font-size="10.00">tds_process_tokens</text>
</a>
</g>
</g>
<!-- Node1&#45;&gt;Node4 -->
<g id="edge23" class="edge"><title>Node1&#45;&gt;Node4</title>
<path fill="none" stroke="midnightblue" d="M70.1325,-500.571C133.3,-508.357 259.213,-514.776 344,-459.416 399.397,-423.246 425.143,-340.77 432.607,-312.299"/>
<polygon fill="midnightblue" stroke="midnightblue" points="70.554,-497.096 60.1841,-499.268 69.645,-504.037 70.554,-497.096"/>
</g>
<!-- Node3 -->
<g id="node3" class="node"><title>Node3</title>
<g id="a_node3"><a xlink:href="a00359.html#ga93945b42d45ee28ae1296b35a1c1e9bb" target="_top" xlink:title="tds_process_login_tokens() is called after sending the login packet to the server. ">
<polygon fill="white" stroke="black" points="675,-444.916 675,-463.916 815,-463.916 815,-444.916 675,-444.916"/>
<text text-anchor="middle" x="745" y="-451.916" font-family="Helvetica,sans-Serif" font-size="10.00">tds_process_login_tokens</text>
</a>
</g>
</g>
<!-- Node2&#45;&gt;Node3 -->
<g id="edge2" class="edge"><title>Node2&#45;&gt;Node3</title>
<path fill="none" stroke="midnightblue" d="M214.887,-458.059C307.593,-482.006 487.795,-518.936 639,-492.416 669.743,-487.024 703.347,-473.385 724.054,-464.004"/>
<polygon fill="midnightblue" stroke="midnightblue" points="215.668,-454.646 205.107,-455.497 213.893,-461.417 215.668,-454.646"/>
</g>
<!-- Node2&#45;&gt;Node4 -->
<g id="edge3" class="edge"><title>Node2&#45;&gt;Node4</title>
<path fill="none" stroke="midnightblue" d="M192.708,-420.985C253.981,-391 369.307,-334.564 415.317,-312.048"/>
<polygon fill="midnightblue" stroke="midnightblue" points="191.159,-417.846 183.716,-425.385 194.236,-424.133 191.159,-417.846"/>
</g>
<!-- Node18 -->
<g id="node18" class="node"><title>Node18</title>
<g id="a_node18"><a xlink:href="a00359.html#ga81cdf0ed9e8d29cf1ddf66e18efc407d" target="_top" xlink:title="tds_process_msg() is called for MSG, ERR, or EED tokens and is responsible for calling the CLI&#39;s mess...">
<polygon fill="white" stroke="black" points="244,-430.916 244,-449.916 344,-449.916 344,-430.916 244,-430.916"/>
<text text-anchor="middle" x="294" y="-437.916" font-family="Helvetica,sans-Serif" font-size="10.00">tds_process_msg</text>
</a>
</g>
</g>
<!-- Node2&#45;&gt;Node18 -->
<g id="edge20" class="edge"><title>Node2&#45;&gt;Node18</title>
<path fill="none" stroke="midnightblue" d="M218.369,-433.679C226.983,-433.63 235.69,-433.718 243.967,-433.943"/>
<polygon fill="midnightblue" stroke="midnightblue" points="218.289,-430.18 208.332,-433.8 218.373,-437.18 218.289,-430.18"/>
</g>
<!-- Node5 -->
<g id="node5" class="node"><title>Node5</title>
<g id="a_node5"><a xlink:href="a00344.html#gae67546338cb9542a4902aa914f57f314" target="_top" xlink:title="_bcp_exec_out">
<polygon fill="white" stroke="red" points="539.5,-349.916 539.5,-368.916 627.5,-368.916 627.5,-349.916 539.5,-349.916"/>
<text text-anchor="middle" x="583.5" y="-356.916" font-family="Helvetica,sans-Serif" font-size="10.00">_bcp_exec_out</text>
</a>
</g>
</g>
<!-- Node4&#45;&gt;Node5 -->
<g id="edge4" class="edge"><title>Node4&#45;&gt;Node5</title>
<path fill="none" stroke="midnightblue" d="M468.585,-316.155C486.006,-323.594 508.084,-332.794 528,-340.416 536.423,-343.64 545.659,-346.945 554.096,-349.876"/>
<polygon fill="midnightblue" stroke="midnightblue" points="469.487,-312.733 458.917,-312.004 466.725,-319.165 469.487,-312.733"/>
</g>
<!-- Node6 -->
<g id="node6" class="node"><title>Node6</title>
<g id="a_node6"><a xlink:href="a00341.html#gaf1879b85e8238c015b9648d077665285" target="_top" xlink:title="_dbresults">
<polygon fill="white" stroke="red" points="551,-311.916 551,-330.916 616,-330.916 616,-311.916 551,-311.916"/>
<text text-anchor="middle" x="583.5" y="-318.916" font-family="Helvetica,sans-Serif" font-size="10.00">_dbresults</text>
</a>
</g>
</g>
<!-- Node4&#45;&gt;Node6 -->
<g id="edge5" class="edge"><title>Node4&#45;&gt;Node6</title>
<path fill="none" stroke="midnightblue" d="M502.348,-310.95C519.118,-313.14 536.418,-315.399 550.634,-317.255"/>
<polygon fill="midnightblue" stroke="midnightblue" points="502.376,-307.424 492.007,-309.599 501.47,-314.365 502.376,-307.424"/>
</g>
<!-- Node7 -->
<g id="node7" class="node"><title>Node7</title>
<g id="a_node7"><a xlink:href="a00342.html#gaff09873008411a0573f6d1a9e6c7cf4b" target="_top" xlink:title="Get count of output parameters filled by a stored procedure. ">
<polygon fill="white" stroke="red" points="551,-273.916 551,-292.916 616,-292.916 616,-273.916 551,-273.916"/>
<text text-anchor="middle" x="583.5" y="-280.916" font-family="Helvetica,sans-Serif" font-size="10.00">dbnumrets</text>
</a>
</g>
</g>
<!-- Node4&#45;&gt;Node7 -->
<g id="edge6" class="edge"><title>Node4&#45;&gt;Node7</title>
<path fill="none" stroke="midnightblue" d="M502.348,-293.883C519.118,-291.693 536.418,-289.434 550.634,-287.577"/>
<polygon fill="midnightblue" stroke="midnightblue" points="501.47,-290.468 492.007,-295.233 502.376,-297.409 501.47,-290.468"/>
</g>
<!-- Node8 -->
<g id="node8" class="node"><title>Node8</title>
<g id="a_node8"><a xlink:href="a00341.html#gae1f50a6a2c31fda57cb481922b06841e" target="_top" xlink:title="Wait for results of a query from the server. ">
<polygon fill="white" stroke="red" points="557,-235.916 557,-254.916 610,-254.916 610,-235.916 557,-235.916"/>
<text text-anchor="middle" x="583.5" y="-242.916" font-family="Helvetica,sans-Serif" font-size="10.00">dbsqlok</text>
</a>
</g>
</g>
<!-- Node4&#45;&gt;Node8 -->
<g id="edge7" class="edge"><title>Node4&#45;&gt;Node8</title>
<path fill="none" stroke="midnightblue" d="M468.585,-288.678C486.006,-281.239 508.084,-272.038 528,-264.416 537.358,-260.835 547.722,-257.152 556.877,-253.994"/>
<polygon fill="midnightblue" stroke="midnightblue" points="466.725,-285.667 458.917,-292.829 469.487,-292.099 466.725,-285.667"/>
</g>
<!-- Node9 -->
<g id="node9" class="node"><title>Node9</title>
<g id="a_node9"><a xlink:href="a00341.html#ga548153eb2eae76c48aa9d4b72258dc1c" target="_top" xlink:title="Send text or image data to the server. ">
<polygon fill="white" stroke="black" points="711,-216.916 711,-235.916 779,-235.916 779,-216.916 711,-216.916"/>
<text text-anchor="middle" x="745" y="-223.916" font-family="Helvetica,sans-Serif" font-size="10.00">dbwritetext</text>
</a>
</g>
</g>
<!-- Node4&#45;&gt;Node9 -->
<g id="edge10" class="edge"><title>Node4&#45;&gt;Node9</title>
<path fill="none" stroke="midnightblue" d="M451.031,-285.037C467.279,-266.437 495.949,-238.04 528,-226.416 589.517,-204.106 667.53,-212.211 710.967,-219.633"/>
<polygon fill="midnightblue" stroke="midnightblue" points="448.254,-282.901 444.473,-292.798 453.6,-287.419 448.254,-282.901"/>
</g>
<!-- Node10 -->
<g id="node10" class="node"><title>Node10</title>
<g id="a_node10"><a xlink:href="a00341.html#ga559e24ba70d0d96c3469eb6ab8f74e05" target="_top" xlink:title="Cancel the query currently being retrieved, discarding all pending rows. ">
<polygon fill="white" stroke="red" points="548,-159.916 548,-178.916 619,-178.916 619,-159.916 548,-159.916"/>
<text text-anchor="middle" x="583.5" y="-166.916" font-family="Helvetica,sans-Serif" font-size="10.00">dbcanquery</text>
</a>
</g>
</g>
<!-- Node4&#45;&gt;Node10 -->
<g id="edge9" class="edge"><title>Node4&#45;&gt;Node10</title>
<path fill="none" stroke="midnightblue" d="M448.472,-283.977C463.994,-260.303 493.719,-219.207 528,-193.416 535.849,-187.512 545.377,-182.684 554.258,-178.948"/>
<polygon fill="midnightblue" stroke="midnightblue" points="445.34,-282.377 442.89,-292.685 451.233,-286.155 445.34,-282.377"/>
</g>
<!-- Node11 -->
<g id="node11" class="node"><title>Node11</title>
<g id="a_node11"><a xlink:href="a00341.html#gadd5685565c8c6c86079e17b8a73b324c" target="_top" xlink:title="Fetch part of a text or image value from the server. ">
<polygon fill="white" stroke="black" points="550,-121.916 550,-140.916 617,-140.916 617,-121.916 550,-121.916"/>
<text text-anchor="middle" x="583.5" y="-128.916" font-family="Helvetica,sans-Serif" font-size="10.00">dbreadtext</text>
</a>
</g>
</g>
<!-- Node4&#45;&gt;Node11 -->
<g id="edge11" class="edge"><title>Node4&#45;&gt;Node11</title>
<path fill="none" stroke="midnightblue" d="M443.573,-283.092C455.44,-251.012 483.431,-186.709 528,-150.416 534.294,-145.291 542.061,-141.507 549.739,-138.729"/>
<polygon fill="midnightblue" stroke="midnightblue" points="440.227,-282.055 440.166,-292.649 446.821,-284.405 440.227,-282.055"/>
</g>
<!-- Node12 -->
<g id="node12" class="node"><title>Node12</title>
<g id="a_node12"><a xlink:href="a00341.html#gac980139b9cea03cf93e373d425991481" target="_top" xlink:title="Transmit the command buffer to the server. ">
<polygon fill="white" stroke="red" points="551,-83.9163 551,-102.916 616,-102.916 616,-83.9163 551,-83.9163"/>
<text text-anchor="middle" x="583.5" y="-90.9163" font-family="Helvetica,sans-Serif" font-size="10.00">dbsqlsend</text>
</a>
</g>
</g>
<!-- Node4&#45;&gt;Node12 -->
<g id="edge12" class="edge"><title>Node4&#45;&gt;Node12</title>
<path fill="none" stroke="midnightblue" d="M441.141,-282.624C450.161,-244.324 475.154,-159.689 528,-112.416 534.423,-106.671 542.681,-102.641 550.816,-99.8235"/>
<polygon fill="midnightblue" stroke="midnightblue" points="437.692,-282.009 438.925,-292.532 444.523,-283.536 437.692,-282.009"/>
</g>
<!-- Node13 -->
<g id="node13" class="node"><title>Node13</title>
<g id="a_node13"><a xlink:href="a00356.html#gaf0da49585d39e99780a004ee2ca23479" target="_top" xlink:title="Send option commands to server. ">
<polygon fill="white" stroke="black" points="684.5,-17.9163 684.5,-36.9163 805.5,-36.9163 805.5,-17.9163 684.5,-17.9163"/>
<text text-anchor="middle" x="745" y="-24.9163" font-family="Helvetica,sans-Serif" font-size="10.00">tds_submit_optioncmd</text>
</a>
</g>
</g>
<!-- Node4&#45;&gt;Node13 -->
<g id="edge13" class="edge"><title>Node4&#45;&gt;Node13</title>
<path fill="none" stroke="midnightblue" d="M436.373,-282.763C435.9,-230.2 442.767,-86.1992 528,-24.4163 584.783,16.7441 673.864,-3.82903 717.759,-17.9094"/>
<polygon fill="midnightblue" stroke="midnightblue" points="432.874,-282.857 436.567,-292.787 439.872,-282.721 432.874,-282.857"/>
</g>
<!-- Node14 -->
<g id="node14" class="node"><title>Node14</title>
<g id="a_node14"><a xlink:href="a00193.html#ac6610c72bd31bad5378f760fa9b12d66" target="_top" xlink:title="Initialize BCP information. ">
<polygon fill="white" stroke="red" points="547,-463.916 547,-482.916 620,-482.916 620,-463.916 547,-463.916"/>
<text text-anchor="middle" x="583.5" y="-470.916" font-family="Helvetica,sans-Serif" font-size="10.00">tds_bcp_init</text>
</a>
</g>
</g>
<!-- Node4&#45;&gt;Node14 -->
<g id="edge14" class="edge"><title>Node4&#45;&gt;Node14</title>
<path fill="none" stroke="midnightblue" d="M443.573,-321.74C455.44,-353.821 483.431,-418.124 528,-454.416 533.517,-458.909 540.166,-462.37 546.894,-465.028"/>
<polygon fill="midnightblue" stroke="midnightblue" points="446.821,-320.427 440.166,-312.183 440.227,-322.778 446.821,-320.427"/>
</g>
<!-- Node15 -->
<g id="node15" class="node"><title>Node15</title>
<g id="a_node15"><a xlink:href="a00359.html#ga55f27c3e05d42c9b07ace1c74b11c5ab" target="_top" xlink:title="Retrieve and set @spid. ">
<polygon fill="white" stroke="black" points="545,-387.916 545,-406.916 622,-406.916 622,-387.916 545,-387.916"/>
<text text-anchor="middle" x="583.5" y="-394.916" font-family="Helvetica,sans-Serif" font-size="10.00">tds_set_spid</text>
</a>
</g>
</g>
<!-- Node4&#45;&gt;Node15 -->
<g id="edge15" class="edge"><title>Node4&#45;&gt;Node15</title>
<path fill="none" stroke="midnightblue" d="M453.288,-319.202C470.504,-336.133 499.116,-362.045 528,-378.416 534.538,-382.122 541.923,-385.287 549.097,-387.91"/>
<polygon fill="midnightblue" stroke="midnightblue" points="455.762,-316.726 446.22,-312.121 450.808,-321.671 455.762,-316.726"/>
</g>
<!-- Node16 -->
<g id="node16" class="node"><title>Node16</title>
<g id="a_node16"><a xlink:href="a00359.html#gaeeb1562044786ea17bea361ed83e6946" target="_top" xlink:title="Process results for simple query as &quot;SET TEXTSIZE&quot; or &quot;USE dbname&quot; If the statement returns results...">
<polygon fill="white" stroke="red" points="528.5,-34.4163 528.5,-64.4163 638.5,-64.4163 638.5,-34.4163 528.5,-34.4163"/>
<text text-anchor="start" x="536.5" y="-52.4163" font-family="Helvetica,sans-Serif" font-size="10.00">tds_process_simple</text>
<text text-anchor="middle" x="583.5" y="-41.4163" font-family="Helvetica,sans-Serif" font-size="10.00">_query</text>
</a>
</g>
</g>
<!-- Node4&#45;&gt;Node16 -->
<g id="edge17" class="edge"><title>Node4&#45;&gt;Node16</title>
<path fill="none" stroke="midnightblue" d="M439.812,-282.81C446.941,-239.766 469.498,-135.94 528,-74.4163 531.658,-70.569 536.022,-67.2624 540.665,-64.4338"/>
<polygon fill="midnightblue" stroke="midnightblue" points="436.333,-282.401 438.255,-292.82 443.25,-283.477 436.333,-282.401"/>
</g>
<!-- Node17 -->
<g id="node17" class="node"><title>Node17</title>
<g id="a_node17"><a xlink:href="a00359.html#gaf233e79967f82f4e0dd4d11524917a34" target="_top" xlink:title="tds_process_cancel">
<polygon fill="white" stroke="red" points="528,-425.916 528,-444.916 639,-444.916 639,-425.916 528,-425.916"/>
<text text-anchor="middle" x="583.5" y="-432.916" font-family="Helvetica,sans-Serif" font-size="10.00">tds_process_cancel</text>
</a>
</g>
</g>
<!-- Node4&#45;&gt;Node17 -->
<g id="edge19" class="edge"><title>Node4&#45;&gt;Node17</title>
<path fill="none" stroke="midnightblue" d="M447.309,-321.069C462.069,-346.149 491.513,-390.572 528,-416.416 533.397,-420.239 539.633,-423.353 545.918,-425.871"/>
<polygon fill="midnightblue" stroke="midnightblue" points="450.232,-319.131 442.225,-312.192 444.158,-322.609 450.232,-319.131"/>
</g>
<!-- Node8&#45;&gt;Node9 -->
<g id="edge8" class="edge"><title>Node8&#45;&gt;Node9</title>
<path fill="none" stroke="midnightblue" d="M620.371,-241.143C647.525,-237.909 684.532,-233.5 710.965,-230.351"/>
<polygon fill="midnightblue" stroke="midnightblue" points="619.642,-237.705 610.126,-242.364 620.47,-244.656 619.642,-237.705"/>
</g>
<!-- Node15&#45;&gt;Node3 -->
<g id="edge16" class="edge"><title>Node15&#45;&gt;Node3</title>
<path fill="none" stroke="midnightblue" d="M621.583,-410.279C627.416,-412.321 633.375,-414.418 639,-416.416 665.854,-425.956 696.489,-437.07 717.708,-444.804"/>
<polygon fill="midnightblue" stroke="midnightblue" points="622.563,-406.914 611.968,-406.922 620.256,-413.522 622.563,-406.914"/>
</g>
<!-- Node16&#45;&gt;Node13 -->
<g id="edge18" class="edge"><title>Node16&#45;&gt;Node13</title>
<path fill="none" stroke="midnightblue" d="M649.05,-40.5128C660.711,-38.9044 672.823,-37.2338 684.337,-35.6457"/>
<polygon fill="midnightblue" stroke="midnightblue" points="648.373,-37.073 638.945,-41.9067 649.329,-44.0074 648.373,-37.073"/>
</g>
<!-- Node18&#45;&gt;Node2 -->
<g id="edge21" class="edge"><title>Node18&#45;&gt;Node2</title>
<path fill="none" stroke="midnightblue" d="M233.806,-447.094C225.36,-447.208 216.7,-447.187 208.332,-447.033"/>
<polygon fill="midnightblue" stroke="midnightblue" points="234.04,-450.59 243.967,-446.89 233.899,-443.592 234.04,-450.59"/>
</g>
<!-- Node18&#45;&gt;Node4 -->
<g id="edge22" class="edge"><title>Node18&#45;&gt;Node4</title>
<path fill="none" stroke="midnightblue" d="M312.237,-423.425C341.833,-394.252 401.403,-335.533 425.023,-312.251"/>
<polygon fill="midnightblue" stroke="midnightblue" points="309.733,-420.979 305.068,-430.492 314.647,-425.964 309.733,-420.979"/>
</g>
</g>
</svg>
