<?xml version="1.0" encoding="UTF-8" standalone="no"?>
<!DOCTYPE svg PUBLIC "-//W3C//DTD SVG 1.1//EN"
 "http://www.w3.org/Graphics/SVG/1.1/DTD/svg11.dtd">
<!-- Generated by graphviz version 2.38.0 (20140413.2041)
 -->
<!-- Title: tds_start_query_head Pages: 1 -->
<svg width="783pt" height="557pt"
 viewBox="0.00 0.00 783.00 557.35" xmlns="http://www.w3.org/2000/svg" xmlns:xlink="http://www.w3.org/1999/xlink">
<g id="graph0" class="graph" transform="scale(1 1) rotate(0) translate(4 553.35)">
<title>tds_start_query_head</title>
<polygon fill="white" stroke="none" points="-4,4 -4,-553.35 779,-553.35 779,4 -4,4"/>
<!-- Node1 -->
<g id="node1" class="node"><title>Node1</title>
<polygon fill="#bfbfbf" stroke="black" points="0,-239.85 0,-258.85 120,-258.85 120,-239.85 0,-239.85"/>
<text text-anchor="middle" x="60" y="-246.85" font-family="Helvetica,sans-Serif" font-size="10.00">tds_start_query_head</text>
</g>
<!-- Node2 -->
<g id="node2" class="node"><title>Node2</title>
<g id="a_node2"><a xlink:href="a00356.html#gab543692776c2bc0afc3bd056f074080c" target="_top" xlink:title="Start query packet of a given type. ">
<polygon fill="white" stroke="black" points="336,-377.85 336,-396.85 426,-396.85 426,-377.85 336,-377.85"/>
<text text-anchor="middle" x="381" y="-384.85" font-family="Helvetica,sans-Serif" font-size="10.00">tds_start_query</text>
</a>
</g>
</g>
<!-- Node1&#45;&gt;Node2 -->
<g id="edge1" class="edge"><title>Node1&#45;&gt;Node2</title>
<path fill="none" stroke="midnightblue" d="M92.4351,-262.949C156.862,-290.82 302.488,-353.818 357.969,-377.819"/>
<polygon fill="midnightblue" stroke="midnightblue" points="93.7459,-259.702 83.1782,-258.944 90.9665,-266.127 93.7459,-259.702"/>
</g>
<!-- Node9 -->
<g id="node9" class="node"><title>Node9</title>
<g id="a_node9"><a xlink:href="a00356.html#gae603aed795a4c5bb26ab159a11256996" target="_top" xlink:title="Submit a prepared query with parameters. ">
<polygon fill="white" stroke="black" points="654,-309.85 654,-328.85 775,-328.85 775,-309.85 654,-309.85"/>
<text text-anchor="middle" x="714.5" y="-316.85" font-family="Helvetica,sans-Serif" font-size="10.00">tds_submit_execdirect</text>
</a>
</g>
</g>
<!-- Node1&#45;&gt;Node9 -->
<g id="edge25" class="edge"><title>Node1&#45;&gt;Node9</title>
<path fill="none" stroke="midnightblue" d="M130.257,-250.294C236.139,-252.725 444.272,-261.402 618,-292.35 641.069,-296.459 666.58,-303.823 685.428,-309.823"/>
<polygon fill="midnightblue" stroke="midnightblue" points="130.098,-246.79 120.024,-250.071 129.946,-253.788 130.098,-246.79"/>
</g>
<!-- Node13 -->
<g id="node13" class="node"><title>Node13</title>
<g id="a_node13"><a xlink:href="a00356.html#ga95e0fccedc459a4404f496eec74a369a" target="_top" xlink:title="tds_submit_query_params() sends a language string to the database server for processing. ">
<polygon fill="white" stroke="black" points="156,-216.85 156,-235.85 296,-235.85 296,-216.85 156,-216.85"/>
<text text-anchor="middle" x="226" y="-223.85" font-family="Helvetica,sans-Serif" font-size="10.00">tds_submit_query_params</text>
</a>
</g>
</g>
<!-- Node1&#45;&gt;Node13 -->
<g id="edge13" class="edge"><title>Node1&#45;&gt;Node13</title>
<path fill="none" stroke="midnightblue" d="M130.203,-239.645C139.155,-238.389 148.316,-237.104 157.244,-235.852"/>
<polygon fill="midnightblue" stroke="midnightblue" points="129.625,-236.191 120.208,-241.046 130.597,-243.124 129.625,-236.191"/>
</g>
<!-- Node21 -->
<g id="node21" class="node"><title>Node21</title>
<g id="a_node21"><a xlink:href="a00356.html#ga5f071b94ad7889690762dc85646c74ab" target="_top" xlink:title="tds_submit_rpc() call a RPC from server. ">
<polygon fill="white" stroke="black" points="182.5,-159.85 182.5,-178.85 269.5,-178.85 269.5,-159.85 182.5,-159.85"/>
<text text-anchor="middle" x="226" y="-166.85" font-family="Helvetica,sans-Serif" font-size="10.00">tds_submit_rpc</text>
</a>
</g>
</g>
<!-- Node1&#45;&gt;Node21 -->
<g id="edge26" class="edge"><title>Node1&#45;&gt;Node21</title>
<path fill="none" stroke="midnightblue" d="M89.9822,-235.212C123.202,-219.008 176.743,-192.89 205.403,-178.909"/>
<polygon fill="midnightblue" stroke="midnightblue" points="88.2354,-232.17 80.7822,-239.7 91.3044,-238.461 88.2354,-232.17"/>
</g>
<!-- Node3 -->
<g id="node3" class="node"><title>Node3</title>
<g id="a_node3"><a xlink:href="a00356.html#ga74eb08c3a1c85be8ac9db428842c8b9d" target="_top" xlink:title="tds_submit_prepare() creates a temporary stored procedure in the server. ">
<polygon fill="white" stroke="black" points="487,-529.85 487,-548.85 597,-548.85 597,-529.85 487,-529.85"/>
<text text-anchor="middle" x="542" y="-536.85" font-family="Helvetica,sans-Serif" font-size="10.00">tds_submit_prepare</text>
</a>
</g>
</g>
<!-- Node2&#45;&gt;Node3 -->
<g id="edge2" class="edge"><title>Node2&#45;&gt;Node3</title>
<path fill="none" stroke="midnightblue" d="M388.807,-406.668C400.126,-435.9 425.645,-491.063 466,-520.35 472.196,-524.847 479.352,-528.283 486.732,-530.908"/>
<polygon fill="midnightblue" stroke="midnightblue" points="392.041,-405.323 385.278,-397.167 385.479,-407.76 392.041,-405.323"/>
</g>
<!-- Node4 -->
<g id="node4" class="node"><title>Node4</title>
<g id="a_node4"><a xlink:href="a00356.html#ga08877c101704bebe4fa57e0849dc272d" target="_top" xlink:title="tds71_submit_prepexec() creates a temporary stored procedure in the server. ">
<polygon fill="white" stroke="black" points="478,-491.85 478,-510.85 606,-510.85 606,-491.85 478,-491.85"/>
<text text-anchor="middle" x="542" y="-498.85" font-family="Helvetica,sans-Serif" font-size="10.00">tds71_submit_prepexec</text>
</a>
</g>
</g>
<!-- Node2&#45;&gt;Node4 -->
<g id="edge3" class="edge"><title>Node2&#45;&gt;Node4</title>
<path fill="none" stroke="midnightblue" d="M393.067,-405.435C407.257,-427.061 433.905,-462.785 466,-482.35 472.423,-486.265 479.624,-489.377 486.957,-491.849"/>
<polygon fill="midnightblue" stroke="midnightblue" points="395.93,-403.415 387.608,-396.858 390.025,-407.173 395.93,-403.415"/>
</g>
<!-- Node5 -->
<g id="node5" class="node"><title>Node5</title>
<g id="a_node5"><a xlink:href="a00356.html#ga3e7b4793c6f799fbc6c174f673bb5b32" target="_top" xlink:title="tds_submit_execute() sends a previously prepared dynamic statement to the server. ...">
<polygon fill="white" stroke="black" points="660,-393.85 660,-412.85 769,-412.85 769,-393.85 660,-393.85"/>
<text text-anchor="middle" x="714.5" y="-400.85" font-family="Helvetica,sans-Serif" font-size="10.00">tds_submit_execute</text>
</a>
</g>
</g>
<!-- Node2&#45;&gt;Node5 -->
<g id="edge4" class="edge"><title>Node2&#45;&gt;Node5</title>
<path fill="none" stroke="midnightblue" d="M425.989,-399.234C438.792,-402.165 452.868,-404.883 466,-406.35 532.408,-413.767 609.459,-411.066 659.721,-407.803"/>
<polygon fill="midnightblue" stroke="midnightblue" points="426.576,-395.776 416.037,-396.858 424.95,-402.584 426.576,-395.776"/>
</g>
<!-- Node6 -->
<g id="node6" class="node"><title>Node6</title>
<g id="a_node6"><a xlink:href="a00356.html#gaf573d8d4d2660c8c27770573fca05ff5" target="_top" xlink:title="Send a unprepare request for a prepared query. ">
<polygon fill="white" stroke="black" points="481.5,-453.85 481.5,-472.85 602.5,-472.85 602.5,-453.85 481.5,-453.85"/>
<text text-anchor="middle" x="542" y="-460.85" font-family="Helvetica,sans-Serif" font-size="10.00">tds_submit_unprepare</text>
</a>
</g>
</g>
<!-- Node2&#45;&gt;Node6 -->
<g id="edge5" class="edge"><title>Node2&#45;&gt;Node6</title>
<path fill="none" stroke="midnightblue" d="M403.481,-402.695C419.982,-413.967 443.659,-429.049 466,-439.35 478.291,-445.017 492.292,-449.89 504.842,-453.736"/>
<polygon fill="midnightblue" stroke="midnightblue" points="405.316,-399.708 395.105,-396.879 401.323,-405.458 405.316,-399.708"/>
</g>
<!-- Node8 -->
<g id="node8" class="node"><title>Node8</title>
<g id="a_node8"><a xlink:href="a00356.html#ga02c6ce3ff96369603a6ee4efee64caae" target="_top" xlink:title="Emulate prepared execute traslating to a normal language. ">
<polygon fill="white" stroke="black" points="466,-377.85 466,-396.85 618,-396.85 618,-377.85 466,-377.85"/>
<text text-anchor="middle" x="542" y="-384.85" font-family="Helvetica,sans-Serif" font-size="10.00">tds_send_emulated_execute</text>
</a>
</g>
</g>
<!-- Node2&#45;&gt;Node8 -->
<g id="edge7" class="edge"><title>Node2&#45;&gt;Node8</title>
<path fill="none" stroke="midnightblue" d="M436.372,-387.35C445.883,-387.35 455.929,-387.35 465.883,-387.35"/>
<polygon fill="midnightblue" stroke="midnightblue" points="436.29,-383.85 426.29,-387.35 436.29,-390.85 436.29,-383.85"/>
</g>
<!-- Node10 -->
<g id="node10" class="node"><title>Node10</title>
<g id="a_node10"><a xlink:href="a00356.html#ga7bf3670d3d6dabed469b9eb117298079" target="_top" xlink:title="Send a rollback request. ">
<polygon fill="white" stroke="black" points="481,-225.85 481,-244.85 603,-244.85 603,-225.85 481,-225.85"/>
<text text-anchor="middle" x="542" y="-232.85" font-family="Helvetica,sans-Serif" font-size="10.00">tds_submit_begin_tran</text>
</a>
</g>
</g>
<!-- Node2&#45;&gt;Node10 -->
<g id="edge10" class="edge"><title>Node2&#45;&gt;Node10</title>
<path fill="none" stroke="midnightblue" d="M395.807,-369.737C411.724,-349.928 439.157,-317.273 466,-292.35 485.775,-273.989 511.216,-255.618 526.803,-244.877"/>
<polygon fill="midnightblue" stroke="midnightblue" points="393.022,-367.615 389.536,-377.62 398.5,-371.973 393.022,-367.615"/>
</g>
<!-- Node11 -->
<g id="node11" class="node"><title>Node11</title>
<g id="a_node11"><a xlink:href="a00356.html#ga9c1cdcc388506a2ca3c0aaee8c461ba6" target="_top" xlink:title="Send a rollback request. ">
<polygon fill="white" stroke="black" points="488,-339.85 488,-358.85 596,-358.85 596,-339.85 488,-339.85"/>
<text text-anchor="middle" x="542" y="-346.85" font-family="Helvetica,sans-Serif" font-size="10.00">tds_submit_rollback</text>
</a>
</g>
</g>
<!-- Node2&#45;&gt;Node11 -->
<g id="edge11" class="edge"><title>Node2&#45;&gt;Node11</title>
<path fill="none" stroke="midnightblue" d="M432.077,-375.382C454.358,-370.057 480.229,-363.874 501.166,-358.87"/>
<polygon fill="midnightblue" stroke="midnightblue" points="431.035,-372.032 422.122,-377.761 432.662,-378.841 431.035,-372.032"/>
</g>
<!-- Node12 -->
<g id="node12" class="node"><title>Node12</title>
<g id="a_node12"><a xlink:href="a00356.html#ga530538c4c975524cf0b771a550fc94a3" target="_top" xlink:title="Send a commit request. ">
<polygon fill="white" stroke="black" points="489.5,-301.85 489.5,-320.85 594.5,-320.85 594.5,-301.85 489.5,-301.85"/>
<text text-anchor="middle" x="542" y="-308.85" font-family="Helvetica,sans-Serif" font-size="10.00">tds_submit_commit</text>
</a>
</g>
</g>
<!-- Node2&#45;&gt;Node12 -->
<g id="edge12" class="edge"><title>Node2&#45;&gt;Node12</title>
<path fill="none" stroke="midnightblue" d="M401.646,-371.092C417.962,-358.337 442.262,-341.012 466,-330.35 474.455,-326.552 483.8,-323.422 492.942,-320.874"/>
<polygon fill="midnightblue" stroke="midnightblue" points="399.084,-368.66 393.457,-377.637 403.454,-374.128 399.084,-368.66"/>
</g>
<!-- Node7 -->
<g id="node7" class="node"><title>Node7</title>
<g id="a_node7"><a xlink:href="a00359.html#ga69902dffb299d62a799888e0fa3ccd68" target="_top" xlink:title="Attempt to close all deferred closes (dynamics and cursors). ">
<polygon fill="white" stroke="red" points="655,-448.35 655,-478.35 774,-478.35 774,-448.35 655,-448.35"/>
<text text-anchor="start" x="663" y="-466.35" font-family="Helvetica,sans-Serif" font-size="10.00">tds_process_pending</text>
<text text-anchor="middle" x="714.5" y="-455.35" font-family="Helvetica,sans-Serif" font-size="10.00">_closes</text>
</a>
</g>
</g>
<!-- Node6&#45;&gt;Node7 -->
<g id="edge6" class="edge"><title>Node6&#45;&gt;Node7</title>
<path fill="none" stroke="midnightblue" d="M612.683,-463.35C626.656,-463.35 641.207,-463.35 654.764,-463.35"/>
<polygon fill="midnightblue" stroke="midnightblue" points="612.633,-459.85 602.633,-463.35 612.633,-466.85 612.633,-459.85"/>
</g>
<!-- Node8&#45;&gt;Node5 -->
<g id="edge9" class="edge"><title>Node8&#45;&gt;Node5</title>
<path fill="none" stroke="midnightblue" d="M628.498,-395.373C639.177,-396.375 649.851,-397.377 659.849,-398.315"/>
<polygon fill="midnightblue" stroke="midnightblue" points="628.563,-391.864 618.28,-394.414 627.909,-398.833 628.563,-391.864"/>
</g>
<!-- Node8&#45;&gt;Node9 -->
<g id="edge8" class="edge"><title>Node8&#45;&gt;Node9</title>
<path fill="none" stroke="midnightblue" d="M597.632,-375.053C604.563,-373.044 611.499,-370.805 618,-368.35 647.113,-357.355 678.883,-339.853 697.454,-329.013"/>
<polygon fill="midnightblue" stroke="midnightblue" points="596.247,-371.804 587.534,-377.832 598.105,-378.553 596.247,-371.804"/>
</g>
<!-- Node14 -->
<g id="node14" class="node"><title>Node14</title>
<g id="a_node14"><a xlink:href="a00356.html#ga5a29ae7f99d089dc3cea85ec6ee5f3ab" target="_top" xlink:title="tds_submit_query() sends a language string to the database server for processing. ...">
<polygon fill="white" stroke="black" points="332,-187.85 332,-206.85 430,-206.85 430,-187.85 332,-187.85"/>
<text text-anchor="middle" x="381" y="-194.85" font-family="Helvetica,sans-Serif" font-size="10.00">tds_submit_query</text>
</a>
</g>
</g>
<!-- Node13&#45;&gt;Node14 -->
<g id="edge14" class="edge"><title>Node13&#45;&gt;Node14</title>
<path fill="none" stroke="midnightblue" d="M287.552,-214.873C302.27,-212.083 317.813,-209.137 331.868,-206.473"/>
<polygon fill="midnightblue" stroke="midnightblue" points="286.695,-211.473 277.522,-216.774 287.999,-218.35 286.695,-211.473"/>
</g>
<!-- Node14&#45;&gt;Node10 -->
<g id="edge20" class="edge"><title>Node14&#45;&gt;Node10</title>
<path fill="none" stroke="midnightblue" d="M432.077,-209.318C454.358,-214.643 480.229,-220.826 501.166,-225.83"/>
<polygon fill="midnightblue" stroke="midnightblue" points="432.662,-205.859 422.122,-206.939 431.035,-212.668 432.662,-205.859"/>
</g>
<!-- Node14&#45;&gt;Node11 -->
<g id="edge21" class="edge"><title>Node14&#45;&gt;Node11</title>
<path fill="none" stroke="midnightblue" d="M388.807,-216.668C400.126,-245.9 425.645,-301.063 466,-330.35 472.523,-335.084 480.108,-338.642 487.899,-341.316"/>
<polygon fill="midnightblue" stroke="midnightblue" points="392.041,-215.323 385.278,-207.167 385.479,-217.76 392.041,-215.323"/>
</g>
<!-- Node14&#45;&gt;Node12 -->
<g id="edge22" class="edge"><title>Node14&#45;&gt;Node12</title>
<path fill="none" stroke="midnightblue" d="M403.437,-212.72C436.691,-236.562 499.755,-281.778 527.418,-301.612"/>
<polygon fill="midnightblue" stroke="midnightblue" points="405.449,-209.856 395.283,-206.873 401.37,-215.545 405.449,-209.856"/>
</g>
<!-- Node15 -->
<g id="node15" class="node"><title>Node15</title>
<g id="a_node15"><a xlink:href="a00344.html#gae67546338cb9542a4902aa914f57f314" target="_top" xlink:title="_bcp_exec_out">
<polygon fill="white" stroke="red" points="670.5,-35.8499 670.5,-54.8499 758.5,-54.8499 758.5,-35.8499 670.5,-35.8499"/>
<text text-anchor="middle" x="714.5" y="-42.8499" font-family="Helvetica,sans-Serif" font-size="10.00">_bcp_exec_out</text>
</a>
</g>
</g>
<!-- Node14&#45;&gt;Node15 -->
<g id="edge15" class="edge"><title>Node14&#45;&gt;Node15</title>
<path fill="none" stroke="midnightblue" d="M426.686,-181.693C427.864,-180.649 428.974,-179.536 430,-178.35 475.423,-125.847 411.546,-69.4136 466,-26.3499 534.112,27.5146 648.337,-15.1867 693.885,-35.8094"/>
<polygon fill="midnightblue" stroke="midnightblue" points="424.335,-179.063 418.101,-187.63 428.317,-184.82 424.335,-179.063"/>
</g>
<!-- Node16 -->
<g id="node16" class="node"><title>Node16</title>
<g id="a_node16"><a xlink:href="a00341.html#gac980139b9cea03cf93e373d425991481" target="_top" xlink:title="Transmit the command buffer to the server. ">
<polygon fill="white" stroke="red" points="509.5,-35.8499 509.5,-54.8499 574.5,-54.8499 574.5,-35.8499 509.5,-35.8499"/>
<text text-anchor="middle" x="542" y="-42.8499" font-family="Helvetica,sans-Serif" font-size="10.00">dbsqlsend</text>
</a>
</g>
</g>
<!-- Node14&#45;&gt;Node16 -->
<g id="edge16" class="edge"><title>Node14&#45;&gt;Node16</title>
<path fill="none" stroke="midnightblue" d="M426.065,-182.013C427.463,-180.877 428.782,-179.658 430,-178.35 466.213,-139.469 427.36,-100.82 466,-64.3499 477.527,-53.4707 494.362,-48.5839 509.163,-46.4768"/>
<polygon fill="midnightblue" stroke="midnightblue" points="423.848,-179.28 417.367,-187.66 427.66,-185.151 423.848,-179.28"/>
</g>
<!-- Node17 -->
<g id="node17" class="node"><title>Node17</title>
<g id="a_node17"><a xlink:href="a00356.html#gad695defcbf663b0023851a198206a772" target="_top" xlink:title="Format and submit a query. ">
<polygon fill="white" stroke="red" points="491.5,-73.8499 491.5,-92.8499 592.5,-92.8499 592.5,-73.8499 491.5,-73.8499"/>
<text text-anchor="middle" x="542" y="-80.8499" font-family="Helvetica,sans-Serif" font-size="10.00">tds_submit_queryf</text>
</a>
</g>
</g>
<!-- Node14&#45;&gt;Node17 -->
<g id="edge17" class="edge"><title>Node14&#45;&gt;Node17</title>
<path fill="none" stroke="midnightblue" d="M424.679,-182.629C426.564,-181.316 428.352,-179.893 430,-178.35 457.279,-152.8 437.133,-126.091 466,-102.35 473.262,-96.3775 482.16,-92.2506 491.257,-89.4066"/>
<polygon fill="midnightblue" stroke="midnightblue" points="422.828,-179.656 415.93,-187.698 426.337,-185.713 422.828,-179.656"/>
</g>
<!-- Node18 -->
<g id="node18" class="node"><title>Node18</title>
<g id="a_node18"><a xlink:href="a00356.html#gaf0da49585d39e99780a004ee2ca23479" target="_top" xlink:title="Send option commands to server. ">
<polygon fill="white" stroke="black" points="481.5,-187.85 481.5,-206.85 602.5,-206.85 602.5,-187.85 481.5,-187.85"/>
<text text-anchor="middle" x="542" y="-194.85" font-family="Helvetica,sans-Serif" font-size="10.00">tds_submit_optioncmd</text>
</a>
</g>
</g>
<!-- Node14&#45;&gt;Node18 -->
<g id="edge19" class="edge"><title>Node14&#45;&gt;Node18</title>
<path fill="none" stroke="midnightblue" d="M440.164,-197.35C453.536,-197.35 467.776,-197.35 481.215,-197.35"/>
<polygon fill="midnightblue" stroke="midnightblue" points="440.137,-193.85 430.137,-197.35 440.137,-200.85 440.137,-193.85"/>
</g>
<!-- Node19 -->
<g id="node19" class="node"><title>Node19</title>
<g id="a_node19"><a xlink:href="a00193.html#a8208eef2a3974ae1f0cf3c8c8ab011ce" target="_top" xlink:title="Start sending BCP data to server. ">
<polygon fill="white" stroke="red" points="502,-149.85 502,-168.85 582,-168.85 582,-149.85 502,-149.85"/>
<text text-anchor="middle" x="542" y="-156.85" font-family="Helvetica,sans-Serif" font-size="10.00">tds_bcp_start</text>
</a>
</g>
</g>
<!-- Node14&#45;&gt;Node19 -->
<g id="edge23" class="edge"><title>Node14&#45;&gt;Node19</title>
<path fill="none" stroke="midnightblue" d="M431.889,-185.427C454.505,-180.022 480.852,-173.725 501.99,-168.673"/>
<polygon fill="midnightblue" stroke="midnightblue" points="431.035,-182.032 422.122,-187.761 432.662,-188.841 431.035,-182.032"/>
</g>
<!-- Node20 -->
<g id="node20" class="node"><title>Node20</title>
<g id="a_node20"><a xlink:href="a00359.html#ga55f27c3e05d42c9b07ace1c74b11c5ab" target="_top" xlink:title="Retrieve and set @spid. ">
<polygon fill="white" stroke="red" points="503.5,-111.85 503.5,-130.85 580.5,-130.85 580.5,-111.85 503.5,-111.85"/>
<text text-anchor="middle" x="542" y="-118.85" font-family="Helvetica,sans-Serif" font-size="10.00">tds_set_spid</text>
</a>
</g>
</g>
<!-- Node14&#45;&gt;Node20 -->
<g id="edge24" class="edge"><title>Node14&#45;&gt;Node20</title>
<path fill="none" stroke="midnightblue" d="M421.251,-183.505C424.298,-181.925 427.253,-180.208 430,-178.35 449.271,-165.316 445.93,-152.116 466,-140.35 477.24,-133.76 490.73,-129.436 503.151,-126.608"/>
<polygon fill="midnightblue" stroke="midnightblue" points="419.547,-180.437 411.956,-187.829 422.5,-186.784 419.547,-180.437"/>
</g>
<!-- Node17&#45;&gt;Node15 -->
<g id="edge18" class="edge"><title>Node17&#45;&gt;Node15</title>
<path fill="none" stroke="midnightblue" d="M596.054,-71.5257C620.091,-66.1683 648.132,-59.9188 670.785,-54.87"/>
<polygon fill="midnightblue" stroke="midnightblue" points="595.023,-68.1693 586.024,-73.7609 596.546,-75.0017 595.023,-68.1693"/>
</g>
<!-- Node22 -->
<g id="node22" class="node"><title>Node22</title>
<g id="a_node22"><a xlink:href="a00342.html#gafa4dfd181be21e49c397f7daaa9cf96c" target="_top" xlink:title="Execute the procedure and free associated memory. ">
<polygon fill="white" stroke="black" points="348,-149.85 348,-168.85 414,-168.85 414,-149.85 348,-149.85"/>
<text text-anchor="middle" x="381" y="-156.85" font-family="Helvetica,sans-Serif" font-size="10.00">dbrpcsend</text>
</a>
</g>
</g>
<!-- Node21&#45;&gt;Node22 -->
<g id="edge27" class="edge"><title>Node21&#45;&gt;Node22</title>
<path fill="none" stroke="midnightblue" d="M279.765,-165.901C302.389,-164.423 328.087,-162.743 347.798,-161.455"/>
<polygon fill="midnightblue" stroke="midnightblue" points="279.369,-162.42 269.619,-166.564 279.826,-169.405 279.369,-162.42"/>
</g>
</g>
</svg>
