<?xml version="1.0" encoding="UTF-8" standalone="no"?>
<!DOCTYPE svg PUBLIC "-//W3C//DTD SVG 1.1//EN"
 "http://www.w3.org/Graphics/SVG/1.1/DTD/svg11.dtd">
<!-- Generated by graphviz version 2.38.0 (20140413.2041)
 -->
<!-- Title: tds7_put_params_definition Pages: 1 -->
<svg width="747pt" height="318pt"
 viewBox="0.00 0.00 747.00 318.47" xmlns="http://www.w3.org/2000/svg" xmlns:xlink="http://www.w3.org/1999/xlink">
<g id="graph0" class="graph" transform="scale(1 1) rotate(0) translate(4 314.469)">
<title>tds7_put_params_definition</title>
<polygon fill="white" stroke="none" points="-4,4 -4,-314.469 743,-314.469 743,4 -4,4"/>
<!-- Node1 -->
<g id="node1" class="node"><title>Node1</title>
<polygon fill="#bfbfbf" stroke="black" points="0,-95.5 0,-114.5 147,-114.5 147,-95.5 0,-95.5"/>
<text text-anchor="middle" x="73.5" y="-102.5" font-family="Helvetica,sans-Serif" font-size="10.00">tds7_put_params_definition</text>
</g>
<!-- Node2 -->
<g id="node2" class="node"><title>Node2</title>
<g id="a_node2"><a xlink:href="a00356.html#ga95e0fccedc459a4404f496eec74a369a" target="_top" xlink:title="tds_submit_query_params() sends a language string to the database server for processing. ">
<polygon fill="white" stroke="black" points="183,-152.5 183,-171.5 323,-171.5 323,-152.5 183,-152.5"/>
<text text-anchor="middle" x="253" y="-159.5" font-family="Helvetica,sans-Serif" font-size="10.00">tds_submit_query_params</text>
</a>
</g>
</g>
<!-- Node1&#45;&gt;Node2 -->
<g id="edge1" class="edge"><title>Node1&#45;&gt;Node2</title>
<path fill="none" stroke="midnightblue" d="M109.728,-118.022C130.857,-125.66 158.331,-135.293 183,-143 193.437,-146.26 204.851,-149.524 215.339,-152.404"/>
<polygon fill="midnightblue" stroke="midnightblue" points="110.798,-114.686 100.203,-114.558 108.405,-121.265 110.798,-114.686"/>
</g>
<!-- Node13 -->
<g id="node13" class="node"><title>Node13</title>
<g id="a_node13"><a xlink:href="a00356.html#ga74eb08c3a1c85be8ac9db428842c8b9d" target="_top" xlink:title="tds_submit_prepare() creates a temporary stored procedure in the server. ">
<polygon fill="white" stroke="black" points="198,-114.5 198,-133.5 308,-133.5 308,-114.5 198,-114.5"/>
<text text-anchor="middle" x="253" y="-121.5" font-family="Helvetica,sans-Serif" font-size="10.00">tds_submit_prepare</text>
</a>
</g>
</g>
<!-- Node1&#45;&gt;Node13 -->
<g id="edge13" class="edge"><title>Node1&#45;&gt;Node13</title>
<path fill="none" stroke="midnightblue" d="M157.211,-113.854C171.021,-115.332 185.028,-116.831 197.884,-118.207"/>
<polygon fill="midnightblue" stroke="midnightblue" points="157.524,-110.367 147.208,-112.783 156.779,-117.327 157.524,-110.367"/>
</g>
<!-- Node14 -->
<g id="node14" class="node"><title>Node14</title>
<g id="a_node14"><a xlink:href="a00356.html#gae603aed795a4c5bb26ab159a11256996" target="_top" xlink:title="Submit a prepared query with parameters. ">
<polygon fill="white" stroke="black" points="192.5,-76.5 192.5,-95.5 313.5,-95.5 313.5,-76.5 192.5,-76.5"/>
<text text-anchor="middle" x="253" y="-83.5" font-family="Helvetica,sans-Serif" font-size="10.00">tds_submit_execdirect</text>
</a>
</g>
</g>
<!-- Node1&#45;&gt;Node14 -->
<g id="edge14" class="edge"><title>Node1&#45;&gt;Node14</title>
<path fill="none" stroke="midnightblue" d="M157.502,-96.1153C169.278,-94.8547 181.191,-93.5796 192.404,-92.3793"/>
<polygon fill="midnightblue" stroke="midnightblue" points="156.779,-92.6726 147.208,-97.2172 157.524,-99.6328 156.779,-92.6726"/>
</g>
<!-- Node15 -->
<g id="node15" class="node"><title>Node15</title>
<g id="a_node15"><a xlink:href="a00356.html#ga08877c101704bebe4fa57e0849dc272d" target="_top" xlink:title="tds71_submit_prepexec() creates a temporary stored procedure in the server. ">
<polygon fill="white" stroke="black" points="189,-38.5 189,-57.5 317,-57.5 317,-38.5 189,-38.5"/>
<text text-anchor="middle" x="253" y="-45.5" font-family="Helvetica,sans-Serif" font-size="10.00">tds71_submit_prepexec</text>
</a>
</g>
</g>
<!-- Node1&#45;&gt;Node15 -->
<g id="edge15" class="edge"><title>Node1&#45;&gt;Node15</title>
<path fill="none" stroke="midnightblue" d="M109.728,-91.9782C130.857,-84.3395 158.331,-74.7066 183,-67 193.437,-63.7396 204.851,-60.4756 215.339,-57.5958"/>
<polygon fill="midnightblue" stroke="midnightblue" points="108.405,-88.735 100.203,-95.4418 110.798,-95.3136 108.405,-88.735"/>
</g>
<!-- Node3 -->
<g id="node3" class="node"><title>Node3</title>
<g id="a_node3"><a xlink:href="a00356.html#ga5a29ae7f99d089dc3cea85ec6ee5f3ab" target="_top" xlink:title="tds_submit_query() sends a language string to the database server for processing. ...">
<polygon fill="white" stroke="black" points="359,-152.5 359,-171.5 457,-171.5 457,-152.5 359,-152.5"/>
<text text-anchor="middle" x="408" y="-159.5" font-family="Helvetica,sans-Serif" font-size="10.00">tds_submit_query</text>
</a>
</g>
</g>
<!-- Node2&#45;&gt;Node3 -->
<g id="edge2" class="edge"><title>Node2&#45;&gt;Node3</title>
<path fill="none" stroke="midnightblue" d="M333.507,-162C342.173,-162 350.788,-162 358.905,-162"/>
<polygon fill="midnightblue" stroke="midnightblue" points="333.337,-158.5 323.337,-162 333.337,-165.5 333.337,-158.5"/>
</g>
<!-- Node4 -->
<g id="node4" class="node"><title>Node4</title>
<g id="a_node4"><a xlink:href="a00344.html#gae67546338cb9542a4902aa914f57f314" target="_top" xlink:title="_bcp_exec_out">
<polygon fill="white" stroke="red" points="651,-266.5 651,-285.5 739,-285.5 739,-266.5 651,-266.5"/>
<text text-anchor="middle" x="695" y="-273.5" font-family="Helvetica,sans-Serif" font-size="10.00">_bcp_exec_out</text>
</a>
</g>
</g>
<!-- Node3&#45;&gt;Node4 -->
<g id="edge3" class="edge"><title>Node3&#45;&gt;Node4</title>
<path fill="none" stroke="midnightblue" d="M414.694,-181.708C424.757,-212.421 448.906,-270.697 493,-295 551.325,-327.147 633.793,-301.11 672.439,-285.548"/>
<polygon fill="midnightblue" stroke="midnightblue" points="417.913,-180.271 411.613,-171.753 411.226,-182.341 417.913,-180.271"/>
</g>
<!-- Node5 -->
<g id="node5" class="node"><title>Node5</title>
<g id="a_node5"><a xlink:href="a00341.html#gac980139b9cea03cf93e373d425991481" target="_top" xlink:title="Transmit the command buffer to the server. ">
<polygon fill="white" stroke="red" points="521.5,-266.5 521.5,-285.5 586.5,-285.5 586.5,-266.5 521.5,-266.5"/>
<text text-anchor="middle" x="554" y="-273.5" font-family="Helvetica,sans-Serif" font-size="10.00">dbsqlsend</text>
</a>
</g>
</g>
<!-- Node3&#45;&gt;Node5 -->
<g id="edge4" class="edge"><title>Node3&#45;&gt;Node5</title>
<path fill="none" stroke="midnightblue" d="M420.483,-180.102C434.922,-201.452 461.652,-236.608 493,-257 501.518,-262.541 511.766,-266.564 521.362,-269.44"/>
<polygon fill="midnightblue" stroke="midnightblue" points="423.325,-178.054 414.905,-171.624 417.477,-181.902 423.325,-178.054"/>
</g>
<!-- Node6 -->
<g id="node6" class="node"><title>Node6</title>
<g id="a_node6"><a xlink:href="a00356.html#gad695defcbf663b0023851a198206a772" target="_top" xlink:title="Format and submit a query. ">
<polygon fill="white" stroke="red" points="503.5,-228.5 503.5,-247.5 604.5,-247.5 604.5,-228.5 503.5,-228.5"/>
<text text-anchor="middle" x="554" y="-235.5" font-family="Helvetica,sans-Serif" font-size="10.00">tds_submit_queryf</text>
</a>
</g>
</g>
<!-- Node3&#45;&gt;Node6 -->
<g id="edge5" class="edge"><title>Node3&#45;&gt;Node6</title>
<path fill="none" stroke="midnightblue" d="M429.101,-178.102C445.513,-190.625 469.718,-207.712 493,-219 500.472,-222.623 508.796,-225.769 516.807,-228.403"/>
<polygon fill="midnightblue" stroke="midnightblue" points="430.884,-175.054 420.841,-171.68 426.588,-180.581 430.884,-175.054"/>
</g>
<!-- Node7 -->
<g id="node7" class="node"><title>Node7</title>
<g id="a_node7"><a xlink:href="a00356.html#gaf0da49585d39e99780a004ee2ca23479" target="_top" xlink:title="Send option commands to server. ">
<polygon fill="white" stroke="black" points="493.5,-190.5 493.5,-209.5 614.5,-209.5 614.5,-190.5 493.5,-190.5"/>
<text text-anchor="middle" x="554" y="-197.5" font-family="Helvetica,sans-Serif" font-size="10.00">tds_submit_optioncmd</text>
</a>
</g>
</g>
<!-- Node3&#45;&gt;Node7 -->
<g id="edge7" class="edge"><title>Node3&#45;&gt;Node7</title>
<path fill="none" stroke="midnightblue" d="M455.172,-174.184C475.164,-179.46 498.219,-185.544 516.924,-190.48"/>
<polygon fill="midnightblue" stroke="midnightblue" points="455.899,-170.756 445.337,-171.589 454.113,-177.525 455.899,-170.756"/>
</g>
<!-- Node8 -->
<g id="node8" class="node"><title>Node8</title>
<g id="a_node8"><a xlink:href="a00356.html#ga7bf3670d3d6dabed469b9eb117298079" target="_top" xlink:title="Send a rollback request. ">
<polygon fill="white" stroke="black" points="493,-152.5 493,-171.5 615,-171.5 615,-152.5 493,-152.5"/>
<text text-anchor="middle" x="554" y="-159.5" font-family="Helvetica,sans-Serif" font-size="10.00">tds_submit_begin_tran</text>
</a>
</g>
</g>
<!-- Node3&#45;&gt;Node8 -->
<g id="edge8" class="edge"><title>Node3&#45;&gt;Node8</title>
<path fill="none" stroke="midnightblue" d="M467.389,-162C475.748,-162 484.361,-162 492.755,-162"/>
<polygon fill="midnightblue" stroke="midnightblue" points="467.351,-158.5 457.351,-162 467.35,-165.5 467.351,-158.5"/>
</g>
<!-- Node9 -->
<g id="node9" class="node"><title>Node9</title>
<g id="a_node9"><a xlink:href="a00356.html#ga9c1cdcc388506a2ca3c0aaee8c461ba6" target="_top" xlink:title="Send a rollback request. ">
<polygon fill="white" stroke="black" points="500,-114.5 500,-133.5 608,-133.5 608,-114.5 500,-114.5"/>
<text text-anchor="middle" x="554" y="-121.5" font-family="Helvetica,sans-Serif" font-size="10.00">tds_submit_rollback</text>
</a>
</g>
</g>
<!-- Node3&#45;&gt;Node9 -->
<g id="edge9" class="edge"><title>Node3&#45;&gt;Node9</title>
<path fill="none" stroke="midnightblue" d="M455.172,-149.816C475.164,-144.54 498.219,-138.456 516.924,-133.52"/>
<polygon fill="midnightblue" stroke="midnightblue" points="454.113,-146.475 445.337,-152.411 455.899,-153.244 454.113,-146.475"/>
</g>
<!-- Node10 -->
<g id="node10" class="node"><title>Node10</title>
<g id="a_node10"><a xlink:href="a00356.html#ga530538c4c975524cf0b771a550fc94a3" target="_top" xlink:title="Send a commit request. ">
<polygon fill="white" stroke="black" points="501.5,-76.5 501.5,-95.5 606.5,-95.5 606.5,-76.5 501.5,-76.5"/>
<text text-anchor="middle" x="554" y="-83.5" font-family="Helvetica,sans-Serif" font-size="10.00">tds_submit_commit</text>
</a>
</g>
</g>
<!-- Node3&#45;&gt;Node10 -->
<g id="edge10" class="edge"><title>Node3&#45;&gt;Node10</title>
<path fill="none" stroke="midnightblue" d="M429.101,-145.898C445.513,-133.375 469.718,-116.288 493,-105 500.472,-101.377 508.796,-98.2309 516.807,-95.5975"/>
<polygon fill="midnightblue" stroke="midnightblue" points="426.588,-143.419 420.841,-152.32 430.884,-148.946 426.588,-143.419"/>
</g>
<!-- Node11 -->
<g id="node11" class="node"><title>Node11</title>
<g id="a_node11"><a xlink:href="a00193.html#a8208eef2a3974ae1f0cf3c8c8ab011ce" target="_top" xlink:title="Start sending BCP data to server. ">
<polygon fill="white" stroke="red" points="514,-38.5 514,-57.5 594,-57.5 594,-38.5 514,-38.5"/>
<text text-anchor="middle" x="554" y="-45.5" font-family="Helvetica,sans-Serif" font-size="10.00">tds_bcp_start</text>
</a>
</g>
</g>
<!-- Node3&#45;&gt;Node11 -->
<g id="edge11" class="edge"><title>Node3&#45;&gt;Node11</title>
<path fill="none" stroke="midnightblue" d="M420.483,-143.898C434.922,-122.548 461.652,-87.3917 493,-67 499.32,-62.889 506.592,-59.6138 513.843,-57.0224"/>
<polygon fill="midnightblue" stroke="midnightblue" points="417.477,-142.098 414.905,-152.376 423.325,-145.946 417.477,-142.098"/>
</g>
<!-- Node12 -->
<g id="node12" class="node"><title>Node12</title>
<g id="a_node12"><a xlink:href="a00359.html#ga55f27c3e05d42c9b07ace1c74b11c5ab" target="_top" xlink:title="Retrieve and set @spid. ">
<polygon fill="white" stroke="red" points="515.5,-0.5 515.5,-19.5 592.5,-19.5 592.5,-0.5 515.5,-0.5"/>
<text text-anchor="middle" x="554" y="-7.5" font-family="Helvetica,sans-Serif" font-size="10.00">tds_set_spid</text>
</a>
</g>
</g>
<!-- Node3&#45;&gt;Node12 -->
<g id="edge12" class="edge"><title>Node3&#45;&gt;Node12</title>
<path fill="none" stroke="midnightblue" d="M416.023,-142.971C427.628,-114.12 453.52,-59.456 493,-29 499.575,-23.9278 507.534,-20.1927 515.476,-17.4477"/>
<polygon fill="midnightblue" stroke="midnightblue" points="412.742,-141.75 412.395,-152.339 419.27,-144.278 412.742,-141.75"/>
</g>
<!-- Node6&#45;&gt;Node4 -->
<g id="edge6" class="edge"><title>Node6&#45;&gt;Node4</title>
<path fill="none" stroke="midnightblue" d="M599.795,-250.246C618.955,-255.484 640.994,-261.509 658.936,-266.414"/>
<polygon fill="midnightblue" stroke="midnightblue" points="600.645,-246.85 590.076,-247.589 598.799,-253.602 600.645,-246.85"/>
</g>
</g>
</svg>
