<?xml version="1.0" encoding="UTF-8" standalone="no"?>
<!DOCTYPE svg PUBLIC "-//W3C//DTD SVG 1.1//EN"
 "http://www.w3.org/Graphics/SVG/1.1/DTD/svg11.dtd">
<!-- Generated by graphviz version 2.38.0 (20140413.2041)
 -->
<!-- Title: dbsetlname Pages: 1 -->
<svg width="323pt" height="85pt"
 viewBox="0.00 0.00 323.00 85.00" xmlns="http://www.w3.org/2000/svg" xmlns:xlink="http://www.w3.org/1999/xlink">
<g id="graph0" class="graph" transform="scale(1 1) rotate(0) translate(4 81)">
<title>dbsetlname</title>
<polygon fill="white" stroke="none" points="-4,4 -4,-81 319,-81 319,4 -4,4"/>
<!-- Node1 -->
<g id="node1" class="node"><title>Node1</title>
<polygon fill="#bfbfbf" stroke="black" points="0,-38.5 0,-57.5 71,-57.5 71,-38.5 0,-38.5"/>
<text text-anchor="middle" x="35.5" y="-45.5" font-family="Helvetica,sans-Serif" font-size="10.00">dbsetlname</text>
</g>
<!-- Node2 -->
<g id="node2" class="node"><title>Node2</title>
<g id="a_node2"><a xlink:href="a00193.html#ab45c291105027e69836002e1dd586141" target="_top" xlink:title="Write a message to the debug log. ">
<polygon fill="white" stroke="black" points="232,-57.5 232,-76.5 309,-76.5 309,-57.5 232,-57.5"/>
<text text-anchor="middle" x="270.5" y="-64.5" font-family="Helvetica,sans-Serif" font-size="10.00">tdsdump_log</text>
</a>
</g>
</g>
<!-- Node1&#45;&gt;Node2 -->
<g id="edge1" class="edge"><title>Node1&#45;&gt;Node2</title>
<path fill="none" stroke="midnightblue" d="M64.965,-57.5033C77.6719,-61.267 92.9254,-65.1367 107,-67 145.36,-72.0784 189.261,-71.7151 221.754,-70.2834"/>
<polygon fill="midnightblue" stroke="midnightblue" points="222.065,-73.7724 231.882,-69.7865 221.722,-66.7808 222.065,-73.7724"/>
</g>
<!-- Node3 -->
<g id="node3" class="node"><title>Node3</title>
<g id="a_node3"><a xlink:href="a00347.html#ga302a4ce6559b81808e3be51615cd1b67" target="_top" xlink:title="Call client&#45;installed error handler. ">
<polygon fill="white" stroke="black" points="120,-38.5 120,-57.5 177,-57.5 177,-38.5 120,-38.5"/>
<text text-anchor="middle" x="148.5" y="-45.5" font-family="Helvetica,sans-Serif" font-size="10.00">dbperror</text>
</a>
</g>
</g>
<!-- Node1&#45;&gt;Node3 -->
<g id="edge2" class="edge"><title>Node1&#45;&gt;Node3</title>
<path fill="none" stroke="midnightblue" d="M71.0126,-48C83.2437,-48 97.0695,-48 109.57,-48"/>
<polygon fill="midnightblue" stroke="midnightblue" points="109.694,-51.5001 119.694,-48 109.694,-44.5001 109.694,-51.5001"/>
</g>
<!-- Node4 -->
<g id="node4" class="node"><title>Node4</title>
<g id="a_node4"><a xlink:href="a00358.html#gad96366d9fa93bfc283cef1299fbe97ab" target="_top" xlink:title="copy a string from another ">
<polygon fill="white" stroke="black" points="107,-0.5 107,-19.5 190,-19.5 190,-0.5 107,-0.5"/>
<text text-anchor="middle" x="148.5" y="-7.5" font-family="Helvetica,sans-Serif" font-size="10.00">tds_dstr_copy</text>
</a>
</g>
</g>
<!-- Node1&#45;&gt;Node4 -->
<g id="edge4" class="edge"><title>Node1&#45;&gt;Node4</title>
<path fill="none" stroke="midnightblue" d="M64.51,-38.411C78.1817,-33.7306 94.831,-28.0308 109.618,-22.9685"/>
<polygon fill="midnightblue" stroke="midnightblue" points="111.172,-26.1362 119.499,-19.5859 108.904,-19.5136 111.172,-26.1362"/>
</g>
<!-- Node3&#45;&gt;Node2 -->
<g id="edge3" class="edge"><title>Node3&#45;&gt;Node2</title>
<path fill="none" stroke="midnightblue" d="M177.03,-52.359C190.186,-54.442 206.322,-56.9969 221.411,-59.3859"/>
<polygon fill="midnightblue" stroke="midnightblue" points="221.216,-62.8986 231.641,-61.0056 222.311,-55.9847 221.216,-62.8986"/>
</g>
<!-- Node5 -->
<g id="node5" class="node"><title>Node5</title>
<g id="a_node5"><a xlink:href="a00358.html#ga656718f240d7403f986ae887d84a6ca1" target="_top" xlink:title="Set string to a given buffer of characters. ">
<polygon fill="white" stroke="black" points="226,-0.5 226,-19.5 315,-19.5 315,-0.5 226,-0.5"/>
<text text-anchor="middle" x="270.5" y="-7.5" font-family="Helvetica,sans-Serif" font-size="10.00">tds_dstr_copyn</text>
</a>
</g>
</g>
<!-- Node4&#45;&gt;Node5 -->
<g id="edge5" class="edge"><title>Node4&#45;&gt;Node5</title>
<path fill="none" stroke="midnightblue" d="M190.127,-10C198.248,-10 206.899,-10 215.392,-10"/>
<polygon fill="midnightblue" stroke="midnightblue" points="215.625,-13.5001 225.625,-10 215.625,-6.5001 215.625,-13.5001"/>
</g>
</g>
</svg>
