<?xml version="1.0" encoding="UTF-8" standalone="no"?>
<!DOCTYPE svg PUBLIC "-//W3C//DTD SVG 1.1//EN"
 "http://www.w3.org/Graphics/SVG/1.1/DTD/svg11.dtd">
<!-- Generated by graphviz version 2.38.0 (20140413.2041)
 -->
<!-- Title: tds_process_msg Pages: 1 -->
<svg width="727pt" height="519pt"
 viewBox="0.00 0.00 727.00 518.98" xmlns="http://www.w3.org/2000/svg" xmlns:xlink="http://www.w3.org/1999/xlink">
<g id="graph0" class="graph" transform="scale(1 1) rotate(0) translate(4 514.979)">
<title>tds_process_msg</title>
<polygon fill="white" stroke="none" points="-4,4 -4,-514.979 723,-514.979 723,4 -4,4"/>
<!-- Node1 -->
<g id="node1" class="node"><title>Node1</title>
<polygon fill="#bfbfbf" stroke="black" points="0,-303.5 0,-322.5 100,-322.5 100,-303.5 0,-303.5"/>
<text text-anchor="middle" x="50" y="-310.5" font-family="Helvetica,sans-Serif" font-size="10.00">tds_process_msg</text>
</g>
<!-- Node2 -->
<g id="node2" class="node"><title>Node2</title>
<g id="a_node2"><a xlink:href="a00359.html#ga39453d084f3f780ac4602d4abf2839f7" target="_top" xlink:title="tds_process_default_tokens() is a catch all function that is called to process tokens not known to ot...">
<polygon fill="white" stroke="black" points="136,-298 136,-328 248,-328 248,-298 136,-298"/>
<text text-anchor="start" x="144" y="-316" font-family="Helvetica,sans-Serif" font-size="10.00">tds_process_default</text>
<text text-anchor="middle" x="192" y="-305" font-family="Helvetica,sans-Serif" font-size="10.00">_tokens</text>
</a>
</g>
</g>
<!-- Node1&#45;&gt;Node2 -->
<g id="edge1" class="edge"><title>Node1&#45;&gt;Node2</title>
<path fill="none" stroke="midnightblue" d="M110.497,-306.318C118.92,-306.208 127.551,-306.231 135.887,-306.388"/>
<polygon fill="midnightblue" stroke="midnightblue" points="110.288,-302.821 100.359,-306.518 110.426,-309.82 110.288,-302.821"/>
</g>
<!-- Node4 -->
<g id="node4" class="node"><title>Node4</title>
<g id="a_node4"><a xlink:href="a00359.html#gabfc9de1d1fe718818caf63a4be4035a6" target="_top" xlink:title="process all streams. ">
<polygon fill="white" stroke="black" points="284,-259.5 284,-278.5 396,-278.5 396,-259.5 284,-259.5"/>
<text text-anchor="middle" x="340" y="-266.5" font-family="Helvetica,sans-Serif" font-size="10.00">tds_process_tokens</text>
</a>
</g>
</g>
<!-- Node1&#45;&gt;Node4 -->
<g id="edge21" class="edge"><title>Node1&#45;&gt;Node4</title>
<path fill="none" stroke="midnightblue" d="M88.3554,-300.321C103.05,-295.781 120.167,-291.04 136,-288 185.536,-278.489 242.824,-273.68 283.885,-271.284"/>
<polygon fill="midnightblue" stroke="midnightblue" points="87.0894,-297.051 78.6143,-303.409 89.2045,-303.724 87.0894,-297.051"/>
</g>
<!-- Node2&#45;&gt;Node1 -->
<g id="edge20" class="edge"><title>Node2&#45;&gt;Node1</title>
<path fill="none" stroke="midnightblue" d="M125.886,-319.735C117.302,-319.787 108.62,-319.702 100.359,-319.482"/>
<polygon fill="midnightblue" stroke="midnightblue" points="125.93,-323.235 135.887,-319.612 125.844,-316.236 125.93,-323.235"/>
</g>
<!-- Node3 -->
<g id="node3" class="node"><title>Node3</title>
<g id="a_node3"><a xlink:href="a00359.html#ga93945b42d45ee28ae1296b35a1c1e9bb" target="_top" xlink:title="tds_process_login_tokens() is called after sending the login packet to the server. ">
<polygon fill="white" stroke="black" points="579,-487.5 579,-506.5 719,-506.5 719,-487.5 579,-487.5"/>
<text text-anchor="middle" x="649" y="-494.5" font-family="Helvetica,sans-Serif" font-size="10.00">tds_process_login_tokens</text>
</a>
</g>
</g>
<!-- Node2&#45;&gt;Node3 -->
<g id="edge2" class="edge"><title>Node2&#45;&gt;Node3</title>
<path fill="none" stroke="midnightblue" d="M212.663,-335.859C250.227,-377.559 336.96,-464.653 432,-497 484.54,-514.882 548.524,-512.088 593.16,-506.548"/>
<polygon fill="midnightblue" stroke="midnightblue" points="215.076,-333.306 205.817,-328.154 209.843,-337.955 215.076,-333.306"/>
</g>
<!-- Node2&#45;&gt;Node4 -->
<g id="edge3" class="edge"><title>Node2&#45;&gt;Node4</title>
<path fill="none" stroke="midnightblue" d="M252.494,-295.07C271.229,-289.424 291.194,-283.407 307.218,-278.578"/>
<polygon fill="midnightblue" stroke="midnightblue" points="251.401,-291.744 242.837,-297.981 253.421,-298.446 251.401,-291.744"/>
</g>
<!-- Node5 -->
<g id="node5" class="node"><title>Node5</title>
<g id="a_node5"><a xlink:href="a00344.html#gae67546338cb9542a4902aa914f57f314" target="_top" xlink:title="_bcp_exec_out">
<polygon fill="white" stroke="red" points="443.5,-430.5 443.5,-449.5 531.5,-449.5 531.5,-430.5 443.5,-430.5"/>
<text text-anchor="middle" x="487.5" y="-437.5" font-family="Helvetica,sans-Serif" font-size="10.00">_bcp_exec_out</text>
</a>
</g>
</g>
<!-- Node4&#45;&gt;Node5 -->
<g id="edge4" class="edge"><title>Node4&#45;&gt;Node5</title>
<path fill="none" stroke="midnightblue" d="M347.573,-288.324C359.44,-320.404 387.431,-384.708 432,-421 436.74,-424.86 442.315,-427.959 448.059,-430.44"/>
<polygon fill="midnightblue" stroke="midnightblue" points="350.821,-287.011 344.166,-278.767 344.227,-289.362 350.821,-287.011"/>
</g>
<!-- Node6 -->
<g id="node6" class="node"><title>Node6</title>
<g id="a_node6"><a xlink:href="a00341.html#gaf1879b85e8238c015b9648d077665285" target="_top" xlink:title="_dbresults">
<polygon fill="white" stroke="red" points="455,-392.5 455,-411.5 520,-411.5 520,-392.5 455,-392.5"/>
<text text-anchor="middle" x="487.5" y="-399.5" font-family="Helvetica,sans-Serif" font-size="10.00">_dbresults</text>
</a>
</g>
</g>
<!-- Node4&#45;&gt;Node6 -->
<g id="edge5" class="edge"><title>Node4&#45;&gt;Node6</title>
<path fill="none" stroke="midnightblue" d="M351.309,-287.653C366.069,-312.733 395.513,-357.156 432,-383 438.787,-387.807 446.902,-391.494 454.77,-394.283"/>
<polygon fill="midnightblue" stroke="midnightblue" points="354.232,-285.714 346.225,-278.776 348.158,-289.193 354.232,-285.714"/>
</g>
<!-- Node7 -->
<g id="node7" class="node"><title>Node7</title>
<g id="a_node7"><a xlink:href="a00342.html#gaff09873008411a0573f6d1a9e6c7cf4b" target="_top" xlink:title="Get count of output parameters filled by a stored procedure. ">
<polygon fill="white" stroke="red" points="455,-354.5 455,-373.5 520,-373.5 520,-354.5 455,-354.5"/>
<text text-anchor="middle" x="487.5" y="-361.5" font-family="Helvetica,sans-Serif" font-size="10.00">dbnumrets</text>
</a>
</g>
</g>
<!-- Node4&#45;&gt;Node7 -->
<g id="edge6" class="edge"><title>Node4&#45;&gt;Node7</title>
<path fill="none" stroke="midnightblue" d="M359.387,-285.576C377.1,-300.987 405.097,-323.922 432,-340 441.229,-345.516 451.955,-350.511 461.437,-354.498"/>
<polygon fill="midnightblue" stroke="midnightblue" points="361.382,-282.669 351.568,-278.678 356.751,-287.918 361.382,-282.669"/>
</g>
<!-- Node8 -->
<g id="node8" class="node"><title>Node8</title>
<g id="a_node8"><a xlink:href="a00341.html#gae1f50a6a2c31fda57cb481922b06841e" target="_top" xlink:title="Wait for results of a query from the server. ">
<polygon fill="white" stroke="red" points="461,-278.5 461,-297.5 514,-297.5 514,-278.5 461,-278.5"/>
<text text-anchor="middle" x="487.5" y="-285.5" font-family="Helvetica,sans-Serif" font-size="10.00">dbsqlok</text>
</a>
</g>
</g>
<!-- Node4&#45;&gt;Node8 -->
<g id="edge7" class="edge"><title>Node4&#45;&gt;Node8</title>
<path fill="none" stroke="midnightblue" d="M406.024,-277.491C425.364,-280.017 445.44,-282.638 460.702,-284.631"/>
<polygon fill="midnightblue" stroke="midnightblue" points="406.376,-274.007 396.007,-276.183 405.47,-280.949 406.376,-274.007"/>
</g>
<!-- Node9 -->
<g id="node9" class="node"><title>Node9</title>
<g id="a_node9"><a xlink:href="a00341.html#ga548153eb2eae76c48aa9d4b72258dc1c" target="_top" xlink:title="Send text or image data to the server. ">
<polygon fill="white" stroke="black" points="615,-297.5 615,-316.5 683,-316.5 683,-297.5 615,-297.5"/>
<text text-anchor="middle" x="649" y="-304.5" font-family="Helvetica,sans-Serif" font-size="10.00">dbwritetext</text>
</a>
</g>
</g>
<!-- Node4&#45;&gt;Node9 -->
<g id="edge10" class="edge"><title>Node4&#45;&gt;Node9</title>
<path fill="none" stroke="midnightblue" d="M367.252,-283.235C384.97,-292.01 409.196,-302.43 432,-307 495.61,-319.748 571.89,-315.266 614.666,-311.02"/>
<polygon fill="midnightblue" stroke="midnightblue" points="368.626,-280.007 358.128,-278.577 365.443,-286.242 368.626,-280.007"/>
</g>
<!-- Node10 -->
<g id="node10" class="node"><title>Node10</title>
<g id="a_node10"><a xlink:href="a00341.html#ga559e24ba70d0d96c3469eb6ab8f74e05" target="_top" xlink:title="Cancel the query currently being retrieved, discarding all pending rows. ">
<polygon fill="white" stroke="red" points="452,-240.5 452,-259.5 523,-259.5 523,-240.5 452,-240.5"/>
<text text-anchor="middle" x="487.5" y="-247.5" font-family="Helvetica,sans-Serif" font-size="10.00">dbcanquery</text>
</a>
</g>
</g>
<!-- Node4&#45;&gt;Node10 -->
<g id="edge9" class="edge"><title>Node4&#45;&gt;Node10</title>
<path fill="none" stroke="midnightblue" d="M406.202,-260.486C421.865,-258.44 438,-256.333 451.661,-254.549"/>
<polygon fill="midnightblue" stroke="midnightblue" points="405.47,-257.051 396.007,-261.817 406.376,-263.993 405.47,-257.051"/>
</g>
<!-- Node11 -->
<g id="node11" class="node"><title>Node11</title>
<g id="a_node11"><a xlink:href="a00341.html#gadd5685565c8c6c86079e17b8a73b324c" target="_top" xlink:title="Fetch part of a text or image value from the server. ">
<polygon fill="white" stroke="black" points="454,-202.5 454,-221.5 521,-221.5 521,-202.5 454,-202.5"/>
<text text-anchor="middle" x="487.5" y="-209.5" font-family="Helvetica,sans-Serif" font-size="10.00">dbreadtext</text>
</a>
</g>
</g>
<!-- Node4&#45;&gt;Node11 -->
<g id="edge11" class="edge"><title>Node4&#45;&gt;Node11</title>
<path fill="none" stroke="midnightblue" d="M372.585,-255.261C390.006,-247.823 412.084,-238.622 432,-231 440.423,-227.777 449.659,-224.471 458.096,-221.54"/>
<polygon fill="midnightblue" stroke="midnightblue" points="370.725,-252.251 362.917,-259.412 373.487,-258.683 370.725,-252.251"/>
</g>
<!-- Node12 -->
<g id="node12" class="node"><title>Node12</title>
<g id="a_node12"><a xlink:href="a00341.html#gac980139b9cea03cf93e373d425991481" target="_top" xlink:title="Transmit the command buffer to the server. ">
<polygon fill="white" stroke="red" points="455,-164.5 455,-183.5 520,-183.5 520,-164.5 455,-164.5"/>
<text text-anchor="middle" x="487.5" y="-171.5" font-family="Helvetica,sans-Serif" font-size="10.00">dbsqlsend</text>
</a>
</g>
</g>
<!-- Node4&#45;&gt;Node12 -->
<g id="edge12" class="edge"><title>Node4&#45;&gt;Node12</title>
<path fill="none" stroke="midnightblue" d="M357.288,-252.214C374.504,-235.283 403.116,-209.371 432,-193 439.061,-188.998 447.11,-185.626 454.815,-182.887"/>
<polygon fill="midnightblue" stroke="midnightblue" points="354.808,-249.745 350.22,-259.295 359.762,-254.69 354.808,-249.745"/>
</g>
<!-- Node13 -->
<g id="node13" class="node"><title>Node13</title>
<g id="a_node13"><a xlink:href="a00356.html#gaf0da49585d39e99780a004ee2ca23479" target="_top" xlink:title="Send option commands to server. ">
<polygon fill="white" stroke="black" points="588.5,-104.5 588.5,-123.5 709.5,-123.5 709.5,-104.5 588.5,-104.5"/>
<text text-anchor="middle" x="649" y="-111.5" font-family="Helvetica,sans-Serif" font-size="10.00">tds_submit_optioncmd</text>
</a>
</g>
</g>
<!-- Node4&#45;&gt;Node13 -->
<g id="edge13" class="edge"><title>Node4&#45;&gt;Node13</title>
<path fill="none" stroke="midnightblue" d="M350.366,-250.322C364.372,-224.462 393.321,-178.309 432,-155 479.404,-126.433 542.404,-117.074 588.125,-114.328"/>
<polygon fill="midnightblue" stroke="midnightblue" points="347.126,-248.964 345.59,-259.447 353.328,-252.21 347.126,-248.964"/>
</g>
<!-- Node14 -->
<g id="node14" class="node"><title>Node14</title>
<g id="a_node14"><a xlink:href="a00193.html#ac6610c72bd31bad5378f760fa9b12d66" target="_top" xlink:title="Initialize BCP information. ">
<polygon fill="white" stroke="red" points="451,-38.5 451,-57.5 524,-57.5 524,-38.5 451,-38.5"/>
<text text-anchor="middle" x="487.5" y="-45.5" font-family="Helvetica,sans-Serif" font-size="10.00">tds_bcp_init</text>
</a>
</g>
</g>
<!-- Node4&#45;&gt;Node14 -->
<g id="edge14" class="edge"><title>Node4&#45;&gt;Node14</title>
<path fill="none" stroke="midnightblue" d="M344.478,-249.367C352.571,-209.372 376.374,-117.944 432,-67 437.321,-62.1273 443.959,-58.4926 450.754,-55.7849"/>
<polygon fill="midnightblue" stroke="midnightblue" points="340.998,-248.935 342.562,-259.414 347.874,-250.247 340.998,-248.935"/>
</g>
<!-- Node15 -->
<g id="node15" class="node"><title>Node15</title>
<g id="a_node15"><a xlink:href="a00359.html#ga55f27c3e05d42c9b07ace1c74b11c5ab" target="_top" xlink:title="Retrieve and set @spid. ">
<polygon fill="white" stroke="black" points="449,-468.5 449,-487.5 526,-487.5 526,-468.5 449,-468.5"/>
<text text-anchor="middle" x="487.5" y="-475.5" font-family="Helvetica,sans-Serif" font-size="10.00">tds_set_spid</text>
</a>
</g>
</g>
<!-- Node4&#45;&gt;Node15 -->
<g id="edge15" class="edge"><title>Node4&#45;&gt;Node15</title>
<path fill="none" stroke="midnightblue" d="M345.141,-288.792C354.161,-327.092 379.154,-411.727 432,-459 436.854,-463.342 442.757,-466.705 448.863,-469.304"/>
<polygon fill="midnightblue" stroke="midnightblue" points="348.523,-287.88 342.925,-278.885 341.692,-289.408 348.523,-287.88"/>
</g>
<!-- Node16 -->
<g id="node16" class="node"><title>Node16</title>
<g id="a_node16"><a xlink:href="a00359.html#gaeeb1562044786ea17bea361ed83e6946" target="_top" xlink:title="Process results for simple query as &quot;SET TEXTSIZE&quot; or &quot;USE dbname&quot; If the statement returns results...">
<polygon fill="white" stroke="red" points="432.5,-77 432.5,-107 542.5,-107 542.5,-77 432.5,-77"/>
<text text-anchor="start" x="440.5" y="-95" font-family="Helvetica,sans-Serif" font-size="10.00">tds_process_simple</text>
<text text-anchor="middle" x="487.5" y="-84" font-family="Helvetica,sans-Serif" font-size="10.00">_query</text>
</a>
</g>
</g>
<!-- Node4&#45;&gt;Node16 -->
<g id="edge17" class="edge"><title>Node4&#45;&gt;Node16</title>
<path fill="none" stroke="midnightblue" d="M348.985,-249.819C362.381,-219.515 391.903,-160.098 432,-122 438.029,-116.272 445.362,-111.275 452.668,-107.088"/>
<polygon fill="midnightblue" stroke="midnightblue" points="345.668,-248.673 344.928,-259.242 352.098,-251.441 345.668,-248.673"/>
</g>
<!-- Node17 -->
<g id="node17" class="node"><title>Node17</title>
<g id="a_node17"><a xlink:href="a00359.html#gaf233e79967f82f4e0dd4d11524917a34" target="_top" xlink:title="tds_process_cancel">
<polygon fill="white" stroke="red" points="432,-0.5 432,-19.5 543,-19.5 543,-0.5 432,-0.5"/>
<text text-anchor="middle" x="487.5" y="-7.5" font-family="Helvetica,sans-Serif" font-size="10.00">tds_process_cancel</text>
</a>
</g>
</g>
<!-- Node4&#45;&gt;Node17 -->
<g id="edge19" class="edge"><title>Node4&#45;&gt;Node17</title>
<path fill="none" stroke="midnightblue" d="M342.911,-249.156C348.329,-203.762 367.827,-91.4647 432,-29 436.021,-25.086 440.891,-21.9752 446.045,-19.5035"/>
<polygon fill="midnightblue" stroke="midnightblue" points="339.422,-248.864 341.819,-259.185 346.381,-249.622 339.422,-248.864"/>
</g>
<!-- Node8&#45;&gt;Node9 -->
<g id="edge8" class="edge"><title>Node8&#45;&gt;Node9</title>
<path fill="none" stroke="midnightblue" d="M524.371,-292.273C551.525,-295.508 588.532,-299.916 614.965,-303.065"/>
<polygon fill="midnightblue" stroke="midnightblue" points="524.47,-288.76 514.126,-291.053 523.642,-295.711 524.47,-288.76"/>
</g>
<!-- Node15&#45;&gt;Node3 -->
<g id="edge16" class="edge"><title>Node15&#45;&gt;Node3</title>
<path fill="none" stroke="midnightblue" d="M536.245,-483.687C549.661,-485.286 564.527,-487.056 578.92,-488.771"/>
<polygon fill="midnightblue" stroke="midnightblue" points="536.643,-480.21 526.299,-482.503 535.815,-487.161 536.643,-480.21"/>
</g>
<!-- Node16&#45;&gt;Node13 -->
<g id="edge18" class="edge"><title>Node16&#45;&gt;Node13</title>
<path fill="none" stroke="midnightblue" d="M553.05,-100.903C564.711,-102.512 576.823,-104.182 588.337,-105.771"/>
<polygon fill="midnightblue" stroke="midnightblue" points="553.329,-97.4089 542.945,-99.5096 552.373,-104.343 553.329,-97.4089"/>
</g>
</g>
</svg>
