<?xml version="1.0" encoding="UTF-8" standalone="no"?>
<!DOCTYPE svg PUBLIC "-//W3C//DTD SVG 1.1//EN"
 "http://www.w3.org/Graphics/SVG/1.1/DTD/svg11.dtd">
<!-- Generated by graphviz version 2.38.0 (20140413.2041)
 -->
<!-- Title: tds_process_param_result Pages: 1 -->
<svg width="1035pt" height="512pt"
 viewBox="0.00 0.00 1035.00 512.00" xmlns="http://www.w3.org/2000/svg" xmlns:xlink="http://www.w3.org/1999/xlink">
<g id="graph0" class="graph" transform="scale(1 1) rotate(0) translate(4 508)">
<title>tds_process_param_result</title>
<polygon fill="white" stroke="none" points="-4,4 -4,-508 1031,-508 1031,4 -4,4"/>
<!-- Node1 -->
<g id="node1" class="node"><title>Node1</title>
<polygon fill="#bfbfbf" stroke="black" points="0,-190.5 0,-209.5 142,-209.5 142,-190.5 0,-190.5"/>
<text text-anchor="middle" x="71" y="-197.5" font-family="Helvetica,sans-Serif" font-size="10.00">tds_process_param_result</text>
</g>
<!-- Node2 -->
<g id="node2" class="node"><title>Node2</title>
<g id="a_node2"><a xlink:href="a00193.html#ab45c291105027e69836002e1dd586141" target="_top" xlink:title="Write a message to the debug log. ">
<polygon fill="white" stroke="black" points="950,-266.5 950,-285.5 1027,-285.5 1027,-266.5 950,-266.5"/>
<text text-anchor="middle" x="988.5" y="-273.5" font-family="Helvetica,sans-Serif" font-size="10.00">tdsdump_log</text>
</a>
</g>
</g>
<!-- Node1&#45;&gt;Node2 -->
<g id="edge1" class="edge"><title>Node1&#45;&gt;Node2</title>
<path fill="none" stroke="midnightblue" d="M76.8059,-209.77C103.158,-261.805 235.639,-504 418.5,-504 418.5,-504 418.5,-504 744.5,-504 827.614,-504 854.583,-483.117 914,-425 952.015,-387.816 973.396,-326.914 982.385,-295.739"/>
<polygon fill="midnightblue" stroke="midnightblue" points="985.869,-296.268 985.144,-285.698 979.119,-294.413 985.869,-296.268"/>
</g>
<!-- Node3 -->
<g id="node3" class="node"><title>Node3</title>
<g id="a_node3"><a xlink:href="a00355.html#ga314c65c067570dc1ef3e58bbfc4eb763" target="_top" xlink:title="Adds a output parameter to TDSPARAMINFO. ">
<polygon fill="white" stroke="black" points="178,-247.5 178,-266.5 304,-266.5 304,-247.5 178,-247.5"/>
<text text-anchor="middle" x="241" y="-254.5" font-family="Helvetica,sans-Serif" font-size="10.00">tds_alloc_param_result</text>
</a>
</g>
</g>
<!-- Node1&#45;&gt;Node3 -->
<g id="edge2" class="edge"><title>Node1&#45;&gt;Node3</title>
<path fill="none" stroke="midnightblue" d="M97.5866,-209.552C118.984,-217.449 150.357,-228.815 178,-238 184.46,-240.147 191.328,-242.339 198.05,-244.436"/>
<polygon fill="midnightblue" stroke="midnightblue" points="197.142,-247.819 207.73,-247.424 199.207,-241.13 197.142,-247.819"/>
</g>
<!-- Node4 -->
<g id="node4" class="node"><title>Node4</title>
<g id="a_node4"><a xlink:href="a00359.html#gad9b6b86f48be077fb44ac603845a0c27" target="_top" xlink:title="Reads data metadata from wire. ">
<polygon fill="white" stroke="black" points="190,-209.5 190,-228.5 292,-228.5 292,-209.5 190,-209.5"/>
<text text-anchor="middle" x="241" y="-216.5" font-family="Helvetica,sans-Serif" font-size="10.00">tds_get_data_info</text>
</a>
</g>
</g>
<!-- Node1&#45;&gt;Node4 -->
<g id="edge3" class="edge"><title>Node1&#45;&gt;Node4</title>
<path fill="none" stroke="midnightblue" d="M142.274,-207.948C154.777,-209.362 167.698,-210.823 179.887,-212.202"/>
<polygon fill="midnightblue" stroke="midnightblue" points="179.599,-215.691 189.929,-213.337 180.385,-208.735 179.599,-215.691"/>
</g>
<!-- Node18 -->
<g id="node18" class="node"><title>Node18</title>
<g id="a_node18"><a xlink:href="a00355.html#ga282d67682d293810625d87d566443c2d" target="_top" xlink:title="Allocate data for a parameter. ">
<polygon fill="white" stroke="black" points="180,-171.5 180,-190.5 302,-190.5 302,-171.5 180,-171.5"/>
<text text-anchor="middle" x="241" y="-178.5" font-family="Helvetica,sans-Serif" font-size="10.00">tds_alloc_param_data</text>
</a>
</g>
</g>
<!-- Node1&#45;&gt;Node18 -->
<g id="edge23" class="edge"><title>Node1&#45;&gt;Node18</title>
<path fill="none" stroke="midnightblue" d="M142.274,-192.052C151.354,-191.025 160.655,-189.974 169.736,-188.947"/>
<polygon fill="midnightblue" stroke="midnightblue" points="170.328,-192.402 179.871,-187.8 169.541,-185.446 170.328,-192.402"/>
</g>
<!-- Node19 -->
<g id="node19" class="node"><title>Node19</title>
<g id="a_node19"><a xlink:href="a00193.html#aaee3fe5c514ce5570c9548de9b16e0d9" target="_top" xlink:title="Write a column value to the debug log. ">
<polygon fill="white" stroke="black" points="203,-95.5 203,-114.5 279,-114.5 279,-95.5 203,-95.5"/>
<text text-anchor="middle" x="241" y="-102.5" font-family="Helvetica,sans-Serif" font-size="10.00">tdsdump_col</text>
</a>
</g>
</g>
<!-- Node1&#45;&gt;Node19 -->
<g id="edge24" class="edge"><title>Node1&#45;&gt;Node19</title>
<path fill="none" stroke="midnightblue" d="M89.0333,-190.368C118.466,-173.725 179.025,-139.48 213.834,-119.796"/>
<polygon fill="midnightblue" stroke="midnightblue" points="215.94,-122.626 222.922,-114.657 212.494,-116.533 215.94,-122.626"/>
</g>
<!-- Node21 -->
<g id="node21" class="node"><title>Node21</title>
<g id="a_node21"><a xlink:href="a00355.html#ga66cd6e3c5089ced9415a8a0e258d205a" target="_top" xlink:title="Delete latest parameter. ">
<polygon fill="white" stroke="black" points="179.5,-57.5 179.5,-76.5 302.5,-76.5 302.5,-57.5 179.5,-57.5"/>
<text text-anchor="middle" x="241" y="-64.5" font-family="Helvetica,sans-Serif" font-size="10.00">tds_free_param_result</text>
</a>
</g>
</g>
<!-- Node1&#45;&gt;Node21 -->
<g id="edge28" class="edge"><title>Node1&#45;&gt;Node21</title>
<path fill="none" stroke="midnightblue" d="M78.201,-190.468C92.8728,-168.667 131.963,-114.834 178,-86 181.339,-83.9085 184.925,-82.0337 188.626,-80.3555"/>
<polygon fill="midnightblue" stroke="midnightblue" points="190.027,-83.5642 197.992,-76.5773 187.409,-77.0725 190.027,-83.5642"/>
</g>
<!-- Node4&#45;&gt;Node2 -->
<g id="edge4" class="edge"><title>Node4&#45;&gt;Node2</title>
<path fill="none" stroke="midnightblue" d="M290.837,-228.555C295.714,-231.021 300.243,-234.116 304,-238 346.581,-282.011 299.082,-325.438 340,-371 422.483,-462.844 477.555,-466 601,-466 601,-466 601,-466 744.5,-466 855.223,-466 945.602,-342.066 976.276,-294.387"/>
<polygon fill="midnightblue" stroke="midnightblue" points="979.389,-296.011 981.752,-285.683 973.464,-292.283 979.389,-296.011"/>
</g>
<!-- Node5 -->
<g id="node5" class="node"><title>Node5</title>
<g id="a_node5"><a xlink:href="a00357.html#gafae08056186b143f3ef1399307dc9be7" target="_top" xlink:title="Reads a string from wire and put in a DSTR. ">
<polygon fill="white" stroke="black" points="381.5,-342.5 381.5,-361.5 457.5,-361.5 457.5,-342.5 381.5,-342.5"/>
<text text-anchor="middle" x="419.5" y="-349.5" font-family="Helvetica,sans-Serif" font-size="10.00">tds_dstr_get</text>
</a>
</g>
</g>
<!-- Node4&#45;&gt;Node5 -->
<g id="edge5" class="edge"><title>Node4&#45;&gt;Node5</title>
<path fill="none" stroke="midnightblue" d="M286.435,-228.6C292.664,-231.063 298.729,-234.146 304,-238 326.691,-254.59 320.759,-269.508 340,-290 356.75,-307.839 378.843,-324.824 395.323,-336.49"/>
<polygon fill="midnightblue" stroke="midnightblue" points="393.621,-339.569 403.832,-342.396 397.612,-333.818 393.621,-339.569"/>
</g>
<!-- Node7 -->
<g id="node7" class="node"><title>Node7</title>
<g id="a_node7"><a xlink:href="a00357.html#gae7d9c4e1a079e1d0aa0252732631e8c4" target="_top" xlink:title="Get N bytes from the buffer and return them in the already allocated space given to us...">
<polygon fill="white" stroke="black" points="711.5,-323.5 711.5,-342.5 775.5,-342.5 775.5,-323.5 711.5,-323.5"/>
<text text-anchor="middle" x="743.5" y="-330.5" font-family="Helvetica,sans-Serif" font-size="10.00">tds_get_n</text>
</a>
</g>
</g>
<!-- Node4&#45;&gt;Node7 -->
<g id="edge15" class="edge"><title>Node4&#45;&gt;Node7</title>
<path fill="none" stroke="midnightblue" d="M273.1,-228.605C292.25,-234.26 317.381,-241.218 340,-246 484.638,-276.578 528.325,-249.549 669,-295 686.437,-300.634 704.746,-310.088 718.729,-318.157"/>
<polygon fill="midnightblue" stroke="midnightblue" points="717.269,-321.36 727.654,-323.457 720.843,-315.342 717.269,-321.36"/>
</g>
<!-- Node11 -->
<g id="node11" class="node"><title>Node11</title>
<g id="a_node11"><a xlink:href="a00357.html#ga0cb72d3f6943795c39db1fa692be0a58" target="_top" xlink:title="Return a single byte from the input buffer. ">
<polygon fill="white" stroke="black" points="705,-247.5 705,-266.5 782,-266.5 782,-247.5 705,-247.5"/>
<text text-anchor="middle" x="743.5" y="-254.5" font-family="Helvetica,sans-Serif" font-size="10.00">tds_get_byte</text>
</a>
</g>
</g>
<!-- Node4&#45;&gt;Node11 -->
<g id="edge13" class="edge"><title>Node4&#45;&gt;Node11</title>
<path fill="none" stroke="midnightblue" d="M292.281,-222.818C389.05,-230.165 599.974,-246.179 694.729,-253.373"/>
<polygon fill="midnightblue" stroke="midnightblue" points="694.647,-256.877 704.884,-254.144 695.177,-249.897 694.647,-256.877"/>
</g>
<!-- Node12 -->
<g id="node12" class="node"><title>Node12</title>
<g id="a_node12"><a xlink:href="a00298.html#a7d6ccf355d1fc24711b5cd5bbc23a931" target="_top" xlink:title="Set type of column initializing all dependency. ">
<polygon fill="white" stroke="black" points="361.5,-190.5 361.5,-209.5 477.5,-209.5 477.5,-190.5 361.5,-190.5"/>
<text text-anchor="middle" x="419.5" y="-197.5" font-family="Helvetica,sans-Serif" font-size="10.00">tds_set_column_type</text>
</a>
</g>
</g>
<!-- Node4&#45;&gt;Node12 -->
<g id="edge16" class="edge"><title>Node4&#45;&gt;Node12</title>
<path fill="none" stroke="midnightblue" d="M292.106,-213.606C310.505,-211.626 331.643,-209.35 351.301,-207.234"/>
<polygon fill="midnightblue" stroke="midnightblue" points="351.856,-210.694 361.424,-206.144 351.107,-203.735 351.856,-210.694"/>
</g>
<!-- Node15 -->
<g id="node15" class="node"><title>Node15</title>
<g id="a_node15"><a xlink:href="a00359.html#ga0cf7e719115b0ae476753442d10505ab" target="_top" xlink:title="Returns string representation of the given type. ">
<polygon fill="white" stroke="black" points="386,-95.5 386,-114.5 453,-114.5 453,-95.5 386,-95.5"/>
<text text-anchor="middle" x="419.5" y="-102.5" font-family="Helvetica,sans-Serif" font-size="10.00">tds_prtype</text>
</a>
</g>
</g>
<!-- Node4&#45;&gt;Node15 -->
<g id="edge19" class="edge"><title>Node4&#45;&gt;Node15</title>
<path fill="none" stroke="midnightblue" d="M288.613,-209.467C294.184,-207.003 299.486,-203.902 304,-200 332.274,-175.555 311.007,-147.587 340,-124 350.128,-115.761 363.272,-111.001 375.9,-108.281"/>
<polygon fill="midnightblue" stroke="midnightblue" points="376.618,-111.708 385.849,-106.508 375.39,-104.817 376.618,-111.708"/>
</g>
<!-- Node16 -->
<g id="node16" class="node"><title>Node16</title>
<g id="a_node16"><a xlink:href="a00359.html#ga91770634ce8c0d6f1fe007b45da186fd" target="_top" xlink:title="Adjust column size according to client&#39;s encoding. ">
<polygon fill="white" stroke="black" points="340,-133.5 340,-152.5 499,-152.5 499,-133.5 340,-133.5"/>
<text text-anchor="middle" x="419.5" y="-140.5" font-family="Helvetica,sans-Serif" font-size="10.00">adjust_character_column_size</text>
</a>
</g>
</g>
<!-- Node4&#45;&gt;Node16 -->
<g id="edge20" class="edge"><title>Node4&#45;&gt;Node16</title>
<path fill="none" stroke="midnightblue" d="M277.165,-209.481C286.039,-206.738 295.467,-203.522 304,-200 320.723,-193.097 323.856,-189.165 340,-181 356.071,-172.872 374.155,-164.094 388.911,-157.024"/>
<polygon fill="midnightblue" stroke="midnightblue" points="390.558,-160.116 398.073,-152.649 387.541,-153.8 390.558,-160.116"/>
</g>
<!-- Node6 -->
<g id="node6" class="node"><title>Node6</title>
<g id="a_node6"><a xlink:href="a00358.html#ga6aa14b8b717b51afcfb65bd55143689d" target="_top" xlink:title="allocate space for length char ">
<polygon fill="white" stroke="black" points="560.5,-418.5 560.5,-437.5 643.5,-437.5 643.5,-418.5 560.5,-418.5"/>
<text text-anchor="middle" x="602" y="-425.5" font-family="Helvetica,sans-Serif" font-size="10.00">tds_dstr_alloc</text>
</a>
</g>
</g>
<!-- Node5&#45;&gt;Node6 -->
<g id="edge6" class="edge"><title>Node5&#45;&gt;Node6</title>
<path fill="none" stroke="midnightblue" d="M440.563,-361.684C463.263,-372.505 501.446,-390.304 535,-404 544.216,-407.762 554.266,-411.565 563.681,-415.001"/>
<polygon fill="midnightblue" stroke="midnightblue" points="562.607,-418.334 573.201,-418.431 564.98,-411.748 562.607,-418.334"/>
</g>
<!-- Node5&#45;&gt;Node7 -->
<g id="edge7" class="edge"><title>Node5&#45;&gt;Node7</title>
<path fill="none" stroke="midnightblue" d="M456.042,-361.58C504.788,-373.178 594.795,-389.048 669,-371 687.434,-366.517 706.41,-356.545 720.463,-347.942"/>
<polygon fill="midnightblue" stroke="midnightblue" points="722.371,-350.876 728.931,-342.557 718.615,-344.97 722.371,-350.876"/>
</g>
<!-- Node9 -->
<g id="node9" class="node"><title>Node9</title>
<g id="a_node9"><a xlink:href="a00357.html#ga90f080e6e9448feac15dee1370d66802" target="_top" xlink:title="Fetch a string from the wire. ">
<polygon fill="white" stroke="red" points="560,-342.5 560,-361.5 644,-361.5 644,-342.5 560,-342.5"/>
<text text-anchor="middle" x="602" y="-349.5" font-family="Helvetica,sans-Serif" font-size="10.00">tds_get_string</text>
</a>
</g>
</g>
<!-- Node5&#45;&gt;Node9 -->
<g id="edge10" class="edge"><title>Node5&#45;&gt;Node9</title>
<path fill="none" stroke="midnightblue" d="M457.9,-352C484.502,-352 520.564,-352 549.831,-352"/>
<polygon fill="midnightblue" stroke="midnightblue" points="549.872,-355.5 559.872,-352 549.872,-348.5 549.872,-355.5"/>
</g>
<!-- Node10 -->
<g id="node10" class="node"><title>Node10</title>
<g id="a_node10"><a xlink:href="a00358.html#ga0cd7863ba7c2d2da4a193234472a3d14" target="_top" xlink:title="limit length of string, MUST be &lt;= current length ">
<polygon fill="white" stroke="black" points="557.5,-304.5 557.5,-323.5 646.5,-323.5 646.5,-304.5 557.5,-304.5"/>
<text text-anchor="middle" x="602" y="-311.5" font-family="Helvetica,sans-Serif" font-size="10.00">tds_dstr_setlen</text>
</a>
</g>
</g>
<!-- Node5&#45;&gt;Node10 -->
<g id="edge12" class="edge"><title>Node5&#45;&gt;Node10</title>
<path fill="none" stroke="midnightblue" d="M457.9,-344.126C483.763,-338.681 518.568,-331.354 547.376,-325.289"/>
<polygon fill="midnightblue" stroke="midnightblue" points="548.227,-328.687 557.292,-323.202 546.785,-321.837 548.227,-328.687"/>
</g>
<!-- Node8 -->
<g id="node8" class="node"><title>Node8</title>
<g id="a_node8"><a xlink:href="a00357.html#ga410619783bdf2bb60b0f27a5578e0e07" target="_top" xlink:title="Read in one &#39;packet&#39; from the server. ">
<polygon fill="white" stroke="red" points="818,-266.5 818,-285.5 914,-285.5 914,-266.5 818,-266.5"/>
<text text-anchor="middle" x="866" y="-273.5" font-family="Helvetica,sans-Serif" font-size="10.00">tds_read_packet</text>
</a>
</g>
</g>
<!-- Node7&#45;&gt;Node8 -->
<g id="edge8" class="edge"><title>Node7&#45;&gt;Node8</title>
<path fill="none" stroke="midnightblue" d="M764.669,-323.459C784.045,-314.294 813.543,-300.341 835.546,-289.932"/>
<polygon fill="midnightblue" stroke="midnightblue" points="837.222,-293.012 844.765,-285.572 834.229,-286.684 837.222,-293.012"/>
</g>
<!-- Node8&#45;&gt;Node2 -->
<g id="edge9" class="edge"><title>Node8&#45;&gt;Node2</title>
<path fill="none" stroke="midnightblue" d="M914.279,-276C922.531,-276 931.124,-276 939.398,-276"/>
<polygon fill="midnightblue" stroke="midnightblue" points="939.659,-279.5 949.659,-276 939.658,-272.5 939.659,-279.5"/>
</g>
<!-- Node9&#45;&gt;Node7 -->
<g id="edge11" class="edge"><title>Node9&#45;&gt;Node7</title>
<path fill="none" stroke="midnightblue" d="M644.1,-346.402C662.189,-343.938 683.391,-341.051 701.472,-338.588"/>
<polygon fill="midnightblue" stroke="midnightblue" points="701.996,-342.049 711.432,-337.231 701.051,-335.113 701.996,-342.049"/>
</g>
<!-- Node11&#45;&gt;Node8 -->
<g id="edge14" class="edge"><title>Node11&#45;&gt;Node8</title>
<path fill="none" stroke="midnightblue" d="M782.296,-262.96C790.333,-264.227 798.992,-265.592 807.574,-266.945"/>
<polygon fill="midnightblue" stroke="midnightblue" points="807.148,-270.421 817.571,-268.522 808.238,-263.507 807.148,-270.421"/>
</g>
<!-- Node13 -->
<g id="node13" class="node"><title>Node13</title>
<g id="a_node13"><a xlink:href="a00193.html#a68855f1251759a6b7338635306ab0041" target="_top" xlink:title="tds_get_varint_size() returns the size of a variable length integer returned in a TDS 7...">
<polygon fill="white" stroke="black" points="547.5,-190.5 547.5,-209.5 656.5,-209.5 656.5,-190.5 547.5,-190.5"/>
<text text-anchor="middle" x="602" y="-197.5" font-family="Helvetica,sans-Serif" font-size="10.00">tds_get_varint_size</text>
</a>
</g>
</g>
<!-- Node12&#45;&gt;Node13 -->
<g id="edge17" class="edge"><title>Node12&#45;&gt;Node13</title>
<path fill="none" stroke="midnightblue" d="M477.611,-200C496.522,-200 517.686,-200 537.075,-200"/>
<polygon fill="midnightblue" stroke="midnightblue" points="537.333,-203.5 547.333,-200 537.333,-196.5 537.333,-203.5"/>
</g>
<!-- Node14 -->
<g id="node14" class="node"><title>Node14</title>
<g id="a_node14"><a xlink:href="a00193.html#aa70b02ff34ac03040ca41f13d5fd35bd" target="_top" xlink:title="Return the number of bytes needed by specified type. ">
<polygon fill="white" stroke="black" points="542.5,-152.5 542.5,-171.5 661.5,-171.5 661.5,-152.5 542.5,-152.5"/>
<text text-anchor="middle" x="602" y="-159.5" font-family="Helvetica,sans-Serif" font-size="10.00">tds_get_size_by_type</text>
</a>
</g>
</g>
<!-- Node12&#45;&gt;Node14 -->
<g id="edge18" class="edge"><title>Node12&#45;&gt;Node14</title>
<path fill="none" stroke="midnightblue" d="M466.048,-190.411C490.296,-185.306 520.304,-178.989 545.861,-173.608"/>
<polygon fill="midnightblue" stroke="midnightblue" points="546.715,-177.005 555.78,-171.52 545.273,-170.155 546.715,-177.005"/>
</g>
<!-- Node16&#45;&gt;Node2 -->
<g id="edge22" class="edge"><title>Node16&#45;&gt;Node2</title>
<path fill="none" stroke="midnightblue" d="M499.067,-135.158C548.351,-132.162 612.951,-131.767 669,-143 784.325,-166.112 910.042,-231.97 962.419,-261.438"/>
<polygon fill="midnightblue" stroke="midnightblue" points="960.902,-264.602 971.326,-266.498 964.36,-258.515 960.902,-264.602"/>
</g>
<!-- Node17 -->
<g id="node17" class="node"><title>Node17</title>
<g id="a_node17"><a xlink:href="a00359.html#ga87209537d51f069fee02bc224da492cb" target="_top" xlink:title="Allow for maximum possible size of converted data, while being careful about integer division truncat...">
<polygon fill="white" stroke="black" points="535,-76.5 535,-95.5 669,-95.5 669,-76.5 535,-76.5"/>
<text text-anchor="middle" x="602" y="-83.5" font-family="Helvetica,sans-Serif" font-size="10.00">determine_adjusted_size</text>
</a>
</g>
</g>
<!-- Node16&#45;&gt;Node17 -->
<g id="edge21" class="edge"><title>Node16&#45;&gt;Node17</title>
<path fill="none" stroke="midnightblue" d="M464.383,-133.472C475.741,-130.709 487.896,-127.486 499,-124 515.379,-118.858 518.932,-116.045 535,-110 544.671,-106.362 555.173,-102.502 564.894,-98.9661"/>
<polygon fill="midnightblue" stroke="midnightblue" points="566.088,-102.256 574.297,-95.5586 563.702,-95.6754 566.088,-102.256"/>
</g>
<!-- Node19&#45;&gt;Node2 -->
<g id="edge27" class="edge"><title>Node19&#45;&gt;Node2</title>
<path fill="none" stroke="midnightblue" d="M277.88,-95.4595C342.157,-79.233 481.412,-48 601,-48 601,-48 601,-48 744.5,-48 866.51,-48 952.416,-202.753 978.894,-257.27"/>
<polygon fill="midnightblue" stroke="midnightblue" points="975.821,-258.957 983.267,-266.493 982.146,-255.958 975.821,-258.957"/>
</g>
<!-- Node19&#45;&gt;Node15 -->
<g id="edge25" class="edge"><title>Node19&#45;&gt;Node15</title>
<path fill="none" stroke="midnightblue" d="M279,-105C307.303,-105 346.368,-105 375.96,-105"/>
<polygon fill="midnightblue" stroke="midnightblue" points="376,-108.5 385.999,-105 375.999,-101.5 376,-108.5"/>
</g>
<!-- Node20 -->
<g id="node20" class="node"><title>Node20</title>
<g id="a_node20"><a xlink:href="a00193.html#ae7f4c4d5f7352f1c814284c536659e6f" target="_top" xlink:title="Return type suitable for conversions (convert all nullable types to fixed type) ">
<polygon fill="white" stroke="black" points="351.5,-0.5 351.5,-19.5 487.5,-19.5 487.5,-0.5 351.5,-0.5"/>
<text text-anchor="middle" x="419.5" y="-7.5" font-family="Helvetica,sans-Serif" font-size="10.00">tds_get_conversion_type</text>
</a>
</g>
</g>
<!-- Node19&#45;&gt;Node20 -->
<g id="edge26" class="edge"><title>Node19&#45;&gt;Node20</title>
<path fill="none" stroke="midnightblue" d="M279.311,-97.9441C287.948,-95.1644 296.73,-91.3156 304,-86 326.691,-69.4099 317.303,-50.5826 340,-34 345.933,-29.665 352.661,-26.1026 359.623,-23.1775"/>
<polygon fill="midnightblue" stroke="midnightblue" points="361.081,-26.3684 369.208,-19.571 358.616,-19.8168 361.081,-26.3684"/>
</g>
</g>
</svg>
