<?xml version="1.0" encoding="UTF-8" standalone="no"?>
<!DOCTYPE svg PUBLIC "-//W3C//DTD SVG 1.1//EN"
 "http://www.w3.org/Graphics/SVG/1.1/DTD/svg11.dtd">
<!-- Generated by graphviz version 2.38.0 (20140413.2041)
 -->
<!-- Title: tds_put_data_info Pages: 1 -->
<svg width="865pt" height="365pt"
 viewBox="0.00 0.00 865.00 365.00" xmlns="http://www.w3.org/2000/svg" xmlns:xlink="http://www.w3.org/1999/xlink">
<g id="graph0" class="graph" transform="scale(1 1) rotate(0) translate(4 361)">
<title>tds_put_data_info</title>
<polygon fill="white" stroke="none" points="-4,4 -4,-361 861,-361 861,4 -4,4"/>
<!-- Node1 -->
<g id="node1" class="node"><title>Node1</title>
<polygon fill="#bfbfbf" stroke="black" points="0,-95.5 0,-114.5 101,-114.5 101,-95.5 0,-95.5"/>
<text text-anchor="middle" x="50.5" y="-102.5" font-family="Helvetica,sans-Serif" font-size="10.00">tds_put_data_info</text>
</g>
<!-- Node2 -->
<g id="node2" class="node"><title>Node2</title>
<g id="a_node2"><a xlink:href="a00356.html#ga95e0fccedc459a4404f496eec74a369a" target="_top" xlink:title="tds_submit_query_params() sends a language string to the database server for processing. ">
<polygon fill="white" stroke="black" points="301,-185.5 301,-204.5 441,-204.5 441,-185.5 301,-185.5"/>
<text text-anchor="middle" x="371" y="-192.5" font-family="Helvetica,sans-Serif" font-size="10.00">tds_submit_query_params</text>
</a>
</g>
</g>
<!-- Node1&#45;&gt;Node2 -->
<g id="edge1" class="edge"><title>Node1&#45;&gt;Node2</title>
<path fill="none" stroke="midnightblue" d="M69.9008,-121.218C86.3161,-134.723 111.615,-153.263 137,-163 189.705,-183.216 253.437,-190.93 300.915,-193.749"/>
<polygon fill="midnightblue" stroke="midnightblue" points="72.0703,-118.469 62.1731,-114.688 67.5523,-123.815 72.0703,-118.469"/>
</g>
<!-- Node13 -->
<g id="node13" class="node"><title>Node13</title>
<g id="a_node13"><a xlink:href="a00356.html#gae603aed795a4c5bb26ab159a11256996" target="_top" xlink:title="Submit a prepared query with parameters. ">
<polygon fill="white" stroke="black" points="310.5,-138.5 310.5,-157.5 431.5,-157.5 431.5,-138.5 310.5,-138.5"/>
<text text-anchor="middle" x="371" y="-145.5" font-family="Helvetica,sans-Serif" font-size="10.00">tds_submit_execdirect</text>
</a>
</g>
</g>
<!-- Node1&#45;&gt;Node13 -->
<g id="edge13" class="edge"><title>Node1&#45;&gt;Node13</title>
<path fill="none" stroke="midnightblue" d="M76.8656,-119.479C93.4108,-128.102 115.797,-138.262 137,-143 194.848,-155.926 262.792,-155.695 310.332,-153.133"/>
<polygon fill="midnightblue" stroke="midnightblue" points="78.3171,-116.286 67.8521,-114.632 75.0018,-122.451 78.3171,-116.286"/>
</g>
<!-- Node14 -->
<g id="node14" class="node"><title>Node14</title>
<g id="a_node14"><a xlink:href="a00356.html#ga08877c101704bebe4fa57e0849dc272d" target="_top" xlink:title="tds71_submit_prepexec() creates a temporary stored procedure in the server. ">
<polygon fill="white" stroke="black" points="137,-0.5 137,-19.5 265,-19.5 265,-0.5 137,-0.5"/>
<text text-anchor="middle" x="201" y="-7.5" font-family="Helvetica,sans-Serif" font-size="10.00">tds71_submit_prepexec</text>
</a>
</g>
</g>
<!-- Node1&#45;&gt;Node14 -->
<g id="edge14" class="edge"><title>Node1&#45;&gt;Node14</title>
<path fill="none" stroke="midnightblue" d="M68.1507,-88.2905C84.5208,-72.5966 110.796,-49.3003 137,-34 146.905,-28.2163 158.459,-23.3437 168.948,-19.5322"/>
<polygon fill="midnightblue" stroke="midnightblue" points="65.6649,-85.826 60.9539,-95.3158 70.5546,-90.8351 65.6649,-85.826"/>
</g>
<!-- Node15 -->
<g id="node15" class="node"><title>Node15</title>
<g id="a_node15"><a xlink:href="a00356.html#gab71e2dc686eafe926dbebbce00d27dc4" target="_top" xlink:title="Send dynamic request on TDS 7+ to be executed. ">
<polygon fill="white" stroke="black" points="146.5,-76.5 146.5,-95.5 255.5,-95.5 255.5,-76.5 146.5,-76.5"/>
<text text-anchor="middle" x="201" y="-83.5" font-family="Helvetica,sans-Serif" font-size="10.00">tds7_send_execute</text>
</a>
</g>
</g>
<!-- Node1&#45;&gt;Node15 -->
<g id="edge15" class="edge"><title>Node1&#45;&gt;Node15</title>
<path fill="none" stroke="midnightblue" d="M111.397,-97.3364C122.992,-95.8528 135.074,-94.3071 146.45,-92.8515"/>
<polygon fill="midnightblue" stroke="midnightblue" points="110.836,-93.8795 101.361,-98.6204 111.725,-100.823 110.836,-93.8795"/>
</g>
<!-- Node17 -->
<g id="node17" class="node"><title>Node17</title>
<g id="a_node17"><a xlink:href="a00356.html#ga28264995cf9616661f1fa788ac0d246d" target="_top" xlink:title="Send parameters to server. ">
<polygon fill="white" stroke="black" points="155,-114.5 155,-133.5 247,-133.5 247,-114.5 155,-114.5"/>
<text text-anchor="middle" x="201" y="-121.5" font-family="Helvetica,sans-Serif" font-size="10.00">tds_put_params</text>
</a>
</g>
</g>
<!-- Node1&#45;&gt;Node17 -->
<g id="edge17" class="edge"><title>Node1&#45;&gt;Node17</title>
<path fill="none" stroke="midnightblue" d="M111.626,-112.693C125.942,-114.525 140.986,-116.449 154.521,-118.181"/>
<polygon fill="midnightblue" stroke="midnightblue" points="111.725,-109.177 101.361,-111.38 110.836,-116.12 111.725,-109.177"/>
</g>
<!-- Node18 -->
<g id="node18" class="node"><title>Node18</title>
<g id="a_node18"><a xlink:href="a00356.html#ga5f071b94ad7889690762dc85646c74ab" target="_top" xlink:title="tds_submit_rpc() call a RPC from server. ">
<polygon fill="white" stroke="black" points="327.5,-43.5 327.5,-62.5 414.5,-62.5 414.5,-43.5 327.5,-43.5"/>
<text text-anchor="middle" x="371" y="-50.5" font-family="Helvetica,sans-Serif" font-size="10.00">tds_submit_rpc</text>
</a>
</g>
</g>
<!-- Node1&#45;&gt;Node18 -->
<g id="edge23" class="edge"><title>Node1&#45;&gt;Node18</title>
<path fill="none" stroke="midnightblue" d="M77.2422,-90.64C93.7816,-82.1607 116.024,-72.1136 137,-67 201.963,-51.1632 279.977,-49.9251 327.232,-51.0461"/>
<polygon fill="midnightblue" stroke="midnightblue" points="75.4271,-87.6403 68.2157,-95.4021 78.6935,-93.8315 75.4271,-87.6403"/>
</g>
<!-- Node3 -->
<g id="node3" class="node"><title>Node3</title>
<g id="a_node3"><a xlink:href="a00356.html#ga5a29ae7f99d089dc3cea85ec6ee5f3ab" target="_top" xlink:title="tds_submit_query() sends a language string to the database server for processing. ...">
<polygon fill="white" stroke="black" points="477,-185.5 477,-204.5 575,-204.5 575,-185.5 477,-185.5"/>
<text text-anchor="middle" x="526" y="-192.5" font-family="Helvetica,sans-Serif" font-size="10.00">tds_submit_query</text>
</a>
</g>
</g>
<!-- Node2&#45;&gt;Node3 -->
<g id="edge2" class="edge"><title>Node2&#45;&gt;Node3</title>
<path fill="none" stroke="midnightblue" d="M451.507,-195C460.173,-195 468.788,-195 476.905,-195"/>
<polygon fill="midnightblue" stroke="midnightblue" points="451.337,-191.5 441.337,-195 451.337,-198.5 451.337,-191.5"/>
</g>
<!-- Node4 -->
<g id="node4" class="node"><title>Node4</title>
<g id="a_node4"><a xlink:href="a00344.html#gae67546338cb9542a4902aa914f57f314" target="_top" xlink:title="_bcp_exec_out">
<polygon fill="white" stroke="red" points="769,-318.5 769,-337.5 857,-337.5 857,-318.5 769,-318.5"/>
<text text-anchor="middle" x="813" y="-325.5" font-family="Helvetica,sans-Serif" font-size="10.00">_bcp_exec_out</text>
</a>
</g>
</g>
<!-- Node3&#45;&gt;Node4 -->
<g id="edge3" class="edge"><title>Node3&#45;&gt;Node4</title>
<path fill="none" stroke="midnightblue" d="M537.872,-213.415C551.868,-235.372 578.321,-271.427 611,-290 660.247,-317.989 726.153,-325.852 768.843,-327.803"/>
<polygon fill="midnightblue" stroke="midnightblue" points="540.724,-211.372 532.497,-204.696 534.766,-215.045 540.724,-211.372"/>
</g>
<!-- Node5 -->
<g id="node5" class="node"><title>Node5</title>
<g id="a_node5"><a xlink:href="a00341.html#gac980139b9cea03cf93e373d425991481" target="_top" xlink:title="Transmit the command buffer to the server. ">
<polygon fill="white" stroke="red" points="639.5,-261.5 639.5,-280.5 704.5,-280.5 704.5,-261.5 639.5,-261.5"/>
<text text-anchor="middle" x="672" y="-268.5" font-family="Helvetica,sans-Serif" font-size="10.00">dbsqlsend</text>
</a>
</g>
</g>
<!-- Node3&#45;&gt;Node5 -->
<g id="edge4" class="edge"><title>Node3&#45;&gt;Node5</title>
<path fill="none" stroke="midnightblue" d="M547.101,-211.102C563.513,-223.625 587.718,-240.712 611,-252 619.849,-256.29 629.891,-259.912 639.195,-262.805"/>
<polygon fill="midnightblue" stroke="midnightblue" points="548.884,-208.054 538.841,-204.68 544.588,-213.581 548.884,-208.054"/>
</g>
<!-- Node6 -->
<g id="node6" class="node"><title>Node6</title>
<g id="a_node6"><a xlink:href="a00356.html#gad695defcbf663b0023851a198206a772" target="_top" xlink:title="Format and submit a query. ">
<polygon fill="white" stroke="red" points="621.5,-337.5 621.5,-356.5 722.5,-356.5 722.5,-337.5 621.5,-337.5"/>
<text text-anchor="middle" x="672" y="-344.5" font-family="Helvetica,sans-Serif" font-size="10.00">tds_submit_queryf</text>
</a>
</g>
</g>
<!-- Node3&#45;&gt;Node6 -->
<g id="edge5" class="edge"><title>Node3&#45;&gt;Node6</title>
<path fill="none" stroke="midnightblue" d="M535.019,-214.138C547.476,-241.738 573.956,-292.72 611,-323 618.47,-329.106 627.693,-333.818 636.647,-337.384"/>
<polygon fill="midnightblue" stroke="midnightblue" points="538.149,-212.559 530.939,-204.796 531.734,-215.361 538.149,-212.559"/>
</g>
<!-- Node7 -->
<g id="node7" class="node"><title>Node7</title>
<g id="a_node7"><a xlink:href="a00356.html#gaf0da49585d39e99780a004ee2ca23479" target="_top" xlink:title="Send option commands to server. ">
<polygon fill="white" stroke="black" points="611.5,-223.5 611.5,-242.5 732.5,-242.5 732.5,-223.5 611.5,-223.5"/>
<text text-anchor="middle" x="672" y="-230.5" font-family="Helvetica,sans-Serif" font-size="10.00">tds_submit_optioncmd</text>
</a>
</g>
</g>
<!-- Node3&#45;&gt;Node7 -->
<g id="edge7" class="edge"><title>Node3&#45;&gt;Node7</title>
<path fill="none" stroke="midnightblue" d="M573.172,-207.184C593.164,-212.46 616.219,-218.544 634.924,-223.48"/>
<polygon fill="midnightblue" stroke="midnightblue" points="573.899,-203.756 563.337,-204.589 572.113,-210.525 573.899,-203.756"/>
</g>
<!-- Node8 -->
<g id="node8" class="node"><title>Node8</title>
<g id="a_node8"><a xlink:href="a00356.html#ga7bf3670d3d6dabed469b9eb117298079" target="_top" xlink:title="Send a rollback request. ">
<polygon fill="white" stroke="black" points="611,-185.5 611,-204.5 733,-204.5 733,-185.5 611,-185.5"/>
<text text-anchor="middle" x="672" y="-192.5" font-family="Helvetica,sans-Serif" font-size="10.00">tds_submit_begin_tran</text>
</a>
</g>
</g>
<!-- Node3&#45;&gt;Node8 -->
<g id="edge8" class="edge"><title>Node3&#45;&gt;Node8</title>
<path fill="none" stroke="midnightblue" d="M585.389,-195C593.748,-195 602.361,-195 610.755,-195"/>
<polygon fill="midnightblue" stroke="midnightblue" points="585.351,-191.5 575.351,-195 585.35,-198.5 585.351,-191.5"/>
</g>
<!-- Node9 -->
<g id="node9" class="node"><title>Node9</title>
<g id="a_node9"><a xlink:href="a00356.html#ga9c1cdcc388506a2ca3c0aaee8c461ba6" target="_top" xlink:title="Send a rollback request. ">
<polygon fill="white" stroke="black" points="618,-147.5 618,-166.5 726,-166.5 726,-147.5 618,-147.5"/>
<text text-anchor="middle" x="672" y="-154.5" font-family="Helvetica,sans-Serif" font-size="10.00">tds_submit_rollback</text>
</a>
</g>
</g>
<!-- Node3&#45;&gt;Node9 -->
<g id="edge9" class="edge"><title>Node3&#45;&gt;Node9</title>
<path fill="none" stroke="midnightblue" d="M573.172,-182.816C593.164,-177.54 616.219,-171.456 634.924,-166.52"/>
<polygon fill="midnightblue" stroke="midnightblue" points="572.113,-179.475 563.337,-185.411 573.899,-186.244 572.113,-179.475"/>
</g>
<!-- Node10 -->
<g id="node10" class="node"><title>Node10</title>
<g id="a_node10"><a xlink:href="a00356.html#ga530538c4c975524cf0b771a550fc94a3" target="_top" xlink:title="Send a commit request. ">
<polygon fill="white" stroke="black" points="619.5,-109.5 619.5,-128.5 724.5,-128.5 724.5,-109.5 619.5,-109.5"/>
<text text-anchor="middle" x="672" y="-116.5" font-family="Helvetica,sans-Serif" font-size="10.00">tds_submit_commit</text>
</a>
</g>
</g>
<!-- Node3&#45;&gt;Node10 -->
<g id="edge10" class="edge"><title>Node3&#45;&gt;Node10</title>
<path fill="none" stroke="midnightblue" d="M547.101,-178.898C563.513,-166.375 587.718,-149.288 611,-138 618.472,-134.377 626.796,-131.231 634.807,-128.597"/>
<polygon fill="midnightblue" stroke="midnightblue" points="544.588,-176.419 538.841,-185.32 548.884,-181.946 544.588,-176.419"/>
</g>
<!-- Node11 -->
<g id="node11" class="node"><title>Node11</title>
<g id="a_node11"><a xlink:href="a00193.html#a8208eef2a3974ae1f0cf3c8c8ab011ce" target="_top" xlink:title="Start sending BCP data to server. ">
<polygon fill="white" stroke="red" points="632,-71.5 632,-90.5 712,-90.5 712,-71.5 632,-71.5"/>
<text text-anchor="middle" x="672" y="-78.5" font-family="Helvetica,sans-Serif" font-size="10.00">tds_bcp_start</text>
</a>
</g>
</g>
<!-- Node3&#45;&gt;Node11 -->
<g id="edge11" class="edge"><title>Node3&#45;&gt;Node11</title>
<path fill="none" stroke="midnightblue" d="M538.483,-176.898C552.922,-155.548 579.652,-120.392 611,-100 617.32,-95.889 624.592,-92.6138 631.843,-90.0224"/>
<polygon fill="midnightblue" stroke="midnightblue" points="535.477,-175.098 532.905,-185.376 541.325,-178.946 535.477,-175.098"/>
</g>
<!-- Node12 -->
<g id="node12" class="node"><title>Node12</title>
<g id="a_node12"><a xlink:href="a00359.html#ga55f27c3e05d42c9b07ace1c74b11c5ab" target="_top" xlink:title="Retrieve and set @spid. ">
<polygon fill="white" stroke="red" points="633.5,-33.5 633.5,-52.5 710.5,-52.5 710.5,-33.5 633.5,-33.5"/>
<text text-anchor="middle" x="672" y="-40.5" font-family="Helvetica,sans-Serif" font-size="10.00">tds_set_spid</text>
</a>
</g>
</g>
<!-- Node3&#45;&gt;Node12 -->
<g id="edge12" class="edge"><title>Node3&#45;&gt;Node12</title>
<path fill="none" stroke="midnightblue" d="M534.023,-175.971C545.628,-147.12 571.52,-92.456 611,-62 617.575,-56.9278 625.534,-53.1927 633.476,-50.4477"/>
<polygon fill="midnightblue" stroke="midnightblue" points="530.742,-174.75 530.395,-185.339 537.27,-177.278 530.742,-174.75"/>
</g>
<!-- Node6&#45;&gt;Node4 -->
<g id="edge6" class="edge"><title>Node6&#45;&gt;Node4</title>
<path fill="none" stroke="midnightblue" d="M732.868,-338.817C745.019,-337.156 757.57,-335.44 768.997,-333.878"/>
<polygon fill="midnightblue" stroke="midnightblue" points="732.223,-335.372 722.79,-340.194 733.171,-342.308 732.223,-335.372"/>
</g>
<!-- Node16 -->
<g id="node16" class="node"><title>Node16</title>
<g id="a_node16"><a xlink:href="a00356.html#ga3e7b4793c6f799fbc6c174f673bb5b32" target="_top" xlink:title="tds_submit_execute() sends a previously prepared dynamic statement to the server. ...">
<polygon fill="white" stroke="black" points="316.5,-81.5 316.5,-100.5 425.5,-100.5 425.5,-81.5 316.5,-81.5"/>
<text text-anchor="middle" x="371" y="-88.5" font-family="Helvetica,sans-Serif" font-size="10.00">tds_submit_execute</text>
</a>
</g>
</g>
<!-- Node15&#45;&gt;Node16 -->
<g id="edge16" class="edge"><title>Node15&#45;&gt;Node16</title>
<path fill="none" stroke="midnightblue" d="M265.816,-87.8993C282.469,-88.3949 300.247,-88.924 316.315,-89.4022"/>
<polygon fill="midnightblue" stroke="midnightblue" points="265.718,-84.3949 255.618,-87.5958 265.51,-91.3918 265.718,-84.3949"/>
</g>
<!-- Node17&#45;&gt;Node2 -->
<g id="edge18" class="edge"><title>Node17&#45;&gt;Node2</title>
<path fill="none" stroke="midnightblue" d="M232.865,-137.635C252.354,-146.188 278.091,-157.378 301,-167 315.899,-173.258 332.699,-180.08 345.992,-185.424"/>
<polygon fill="midnightblue" stroke="midnightblue" points="234.128,-134.367 223.565,-133.546 231.311,-140.775 234.128,-134.367"/>
</g>
<!-- Node17&#45;&gt;Node13 -->
<g id="edge19" class="edge"><title>Node17&#45;&gt;Node13</title>
<path fill="none" stroke="midnightblue" d="M257.332,-131.905C274.308,-134.33 293.058,-137.008 310.311,-139.473"/>
<polygon fill="midnightblue" stroke="midnightblue" points="257.415,-128.381 247.021,-130.432 256.425,-135.311 257.415,-128.381"/>
</g>
<!-- Node17&#45;&gt;Node16 -->
<g id="edge20" class="edge"><title>Node17&#45;&gt;Node16</title>
<path fill="none" stroke="midnightblue" d="M257.01,-113.194C277.858,-109.099 301.42,-104.471 321.613,-100.504"/>
<polygon fill="midnightblue" stroke="midnightblue" points="256.159,-109.795 247.021,-115.157 257.508,-116.663 256.159,-109.795"/>
</g>
<!-- Node17&#45;&gt;Node18 -->
<g id="edge21" class="edge"><title>Node17&#45;&gt;Node18</title>
<path fill="none" stroke="midnightblue" d="M252.799,-110.903C257.03,-109.15 261.154,-107.189 265,-105 283.864,-94.2636 282.008,-82.5073 301,-72 309.045,-67.549 318.205,-64.0837 327.162,-61.406"/>
<polygon fill="midnightblue" stroke="midnightblue" points="251.57,-107.626 243.435,-114.414 254.028,-114.18 251.57,-107.626"/>
</g>
<!-- Node19 -->
<g id="node19" class="node"><title>Node19</title>
<g id="a_node19"><a xlink:href="a00342.html#gafa4dfd181be21e49c397f7daaa9cf96c" target="_top" xlink:title="Execute the procedure and free associated memory. ">
<polygon fill="white" stroke="black" points="493,-43.5 493,-62.5 559,-62.5 559,-43.5 493,-43.5"/>
<text text-anchor="middle" x="526" y="-50.5" font-family="Helvetica,sans-Serif" font-size="10.00">dbrpcsend</text>
</a>
</g>
</g>
<!-- Node18&#45;&gt;Node19 -->
<g id="edge22" class="edge"><title>Node18&#45;&gt;Node19</title>
<path fill="none" stroke="midnightblue" d="M424.765,-53C447.389,-53 473.087,-53 492.798,-53"/>
<polygon fill="midnightblue" stroke="midnightblue" points="424.619,-49.5001 414.619,-53 424.619,-56.5001 424.619,-49.5001"/>
</g>
</g>
</svg>
