<?xml version="1.0" encoding="UTF-8" standalone="no"?>
<!DOCTYPE svg PUBLIC "-//W3C//DTD SVG 1.1//EN"
 "http://www.w3.org/Graphics/SVG/1.1/DTD/svg11.dtd">
<!-- Generated by graphviz version 2.38.0 (20140413.2041)
 -->
<!-- Title: tds_submit_queryf Pages: 1 -->
<svg width="907pt" height="576pt"
 viewBox="0.00 0.00 907.00 576.41" xmlns="http://www.w3.org/2000/svg" xmlns:xlink="http://www.w3.org/1999/xlink">
<g id="graph0" class="graph" transform="scale(1 1) rotate(0) translate(4 572.408)">
<title>tds_submit_queryf</title>
<polygon fill="white" stroke="none" points="-4,4 -4,-572.408 903,-572.408 903,4 -4,4"/>
<!-- Node1 -->
<g id="node1" class="node"><title>Node1</title>
<polygon fill="#bfbfbf" stroke="black" points="0,-282.908 0,-301.908 101,-301.908 101,-282.908 0,-282.908"/>
<text text-anchor="middle" x="50.5" y="-289.908" font-family="Helvetica,sans-Serif" font-size="10.00">tds_submit_queryf</text>
</g>
<!-- Node2 -->
<g id="node2" class="node"><title>Node2</title>
<g id="a_node2"><a xlink:href="a00356.html#ga5a29ae7f99d089dc3cea85ec6ee5f3ab" target="_top" xlink:title="tds_submit_query() sends a language string to the database server for processing. ...">
<polygon fill="white" stroke="black" points="137,-282.908 137,-301.908 235,-301.908 235,-282.908 137,-282.908"/>
<text text-anchor="middle" x="186" y="-289.908" font-family="Helvetica,sans-Serif" font-size="10.00">tds_submit_query</text>
</a>
</g>
</g>
<!-- Node1&#45;&gt;Node2 -->
<g id="edge1" class="edge"><title>Node1&#45;&gt;Node2</title>
<path fill="none" stroke="midnightblue" d="M101.21,-292.408C109.432,-292.408 118.024,-292.408 126.439,-292.408"/>
<polygon fill="midnightblue" stroke="midnightblue" points="126.579,-295.908 136.579,-292.408 126.579,-288.908 126.579,-295.908"/>
</g>
<!-- Node3 -->
<g id="node3" class="node"><title>Node3</title>
<g id="a_node3"><a xlink:href="a00356.html#ga95e0fccedc459a4404f496eec74a369a" target="_top" xlink:title="tds_submit_query_params() sends a language string to the database server for processing. ">
<polygon fill="white" stroke="black" points="271,-282.908 271,-301.908 411,-301.908 411,-282.908 271,-282.908"/>
<text text-anchor="middle" x="341" y="-289.908" font-family="Helvetica,sans-Serif" font-size="10.00">tds_submit_query_params</text>
</a>
</g>
</g>
<!-- Node2&#45;&gt;Node3 -->
<g id="edge2" class="edge"><title>Node2&#45;&gt;Node3</title>
<path fill="none" stroke="midnightblue" d="M235.41,-292.408C243.527,-292.408 252.135,-292.408 260.788,-292.408"/>
<polygon fill="midnightblue" stroke="midnightblue" points="260.942,-295.908 270.942,-292.408 260.942,-288.908 260.942,-295.908"/>
</g>
<!-- Node4 -->
<g id="node4" class="node"><title>Node4</title>
<g id="a_node4"><a xlink:href="a00193.html#a16db200d2281f76fe46fc1cbe37ca9df" target="_top" xlink:title="Set state of TDS connection, with logging and checking. ">
<polygon fill="white" stroke="red" points="654.5,-396.908 654.5,-415.908 734.5,-415.908 734.5,-396.908 654.5,-396.908"/>
<text text-anchor="middle" x="694.5" y="-403.908" font-family="Helvetica,sans-Serif" font-size="10.00">tds_set_state</text>
</a>
</g>
</g>
<!-- Node3&#45;&gt;Node4 -->
<g id="edge3" class="edge"><title>Node3&#45;&gt;Node4</title>
<path fill="none" stroke="midnightblue" d="M349.072,-302.171C364.315,-322.332 402.512,-368.274 447,-387.408 510.817,-414.856 592.469,-415.192 643.896,-411.726"/>
<polygon fill="midnightblue" stroke="midnightblue" points="644.368,-415.201 654.079,-410.964 643.845,-408.221 644.368,-415.201"/>
</g>
<!-- Node5 -->
<g id="node5" class="node"><title>Node5</title>
<g id="a_node5"><a xlink:href="a00356.html#ga6455b2991afbf7da90270787f2059d31" target="_top" xlink:title="Get position of next placeholder. ">
<polygon fill="white" stroke="red" points="635,-529.908 635,-548.908 754,-548.908 754,-529.908 635,-529.908"/>
<text text-anchor="middle" x="694.5" y="-536.908" font-family="Helvetica,sans-Serif" font-size="10.00">tds_next_placeholder</text>
</a>
</g>
</g>
<!-- Node3&#45;&gt;Node5 -->
<g id="edge4" class="edge"><title>Node3&#45;&gt;Node5</title>
<path fill="none" stroke="midnightblue" d="M343.813,-302.06C350.588,-335.249 377.686,-445.436 447,-496.408 474.599,-516.704 561.755,-528.313 624.607,-534.235"/>
<polygon fill="midnightblue" stroke="midnightblue" points="624.586,-537.748 634.863,-535.172 625.223,-530.777 624.586,-537.748"/>
</g>
<!-- Node6 -->
<g id="node6" class="node"><title>Node6</title>
<g id="a_node6"><a xlink:href="a00356.html#ga3a5d1771cacc947521c4077551f0d3a4" target="_top" xlink:title="Substitute ?&#45;style placeholders with named (@param) ones. ">
<polygon fill="white" stroke="red" points="467,-548.908 467,-567.908 574,-567.908 574,-548.908 467,-548.908"/>
<text text-anchor="middle" x="520.5" y="-555.908" font-family="Helvetica,sans-Serif" font-size="10.00">tds5_fix_dot_query</text>
</a>
</g>
</g>
<!-- Node3&#45;&gt;Node6 -->
<g id="edge5" class="edge"><title>Node3&#45;&gt;Node6</title>
<path fill="none" stroke="midnightblue" d="M343.383,-302.369C348.981,-338.922 373.309,-467.047 447,-534.408 451.451,-538.477 456.609,-541.858 462.083,-544.666"/>
<polygon fill="midnightblue" stroke="midnightblue" points="460.964,-547.999 471.522,-548.873 463.813,-541.605 460.964,-547.999"/>
</g>
<!-- Node7 -->
<g id="node7" class="node"><title>Node7</title>
<g id="a_node7"><a xlink:href="a00356.html#ga28264995cf9616661f1fa788ac0d246d" target="_top" xlink:title="Send parameters to server. ">
<polygon fill="white" stroke="red" points="474.5,-282.908 474.5,-301.908 566.5,-301.908 566.5,-282.908 474.5,-282.908"/>
<text text-anchor="middle" x="520.5" y="-289.908" font-family="Helvetica,sans-Serif" font-size="10.00">tds_put_params</text>
</a>
</g>
</g>
<!-- Node3&#45;&gt;Node7 -->
<g id="edge7" class="edge"><title>Node3&#45;&gt;Node7</title>
<path fill="none" stroke="midnightblue" d="M411.134,-292.408C428.708,-292.408 447.361,-292.408 464.148,-292.408"/>
<polygon fill="midnightblue" stroke="midnightblue" points="464.333,-295.908 474.333,-292.408 464.333,-288.908 464.333,-295.908"/>
</g>
<!-- Node8 -->
<g id="node8" class="node"><title>Node8</title>
<g id="a_node8"><a xlink:href="a00356.html#gafd74652c4722ddce4d642cc4209449d4" target="_top" xlink:title="Put data information to wire. ">
<polygon fill="white" stroke="red" points="644,-282.908 644,-301.908 745,-301.908 745,-282.908 644,-282.908"/>
<text text-anchor="middle" x="694.5" y="-289.908" font-family="Helvetica,sans-Serif" font-size="10.00">tds_put_data_info</text>
</a>
</g>
</g>
<!-- Node3&#45;&gt;Node8 -->
<g id="edge24" class="edge"><title>Node3&#45;&gt;Node8</title>
<path fill="none" stroke="midnightblue" d="M384.677,-282.897C403.654,-279.131 426.335,-275.263 447,-273.408 512.072,-267.568 528.957,-267.254 594,-273.408 610.086,-274.93 627.441,-277.807 643.083,-280.87"/>
<polygon fill="midnightblue" stroke="midnightblue" points="642.588,-284.341 653.084,-282.898 643.979,-277.48 642.588,-284.341"/>
</g>
<!-- Node9 -->
<g id="node9" class="node"><title>Node9</title>
<g id="a_node9"><a xlink:href="a00356.html#ga024bc5482366735070befd6f4af59f71" target="_top" xlink:title="Convert a string in an allocated buffer. ">
<polygon fill="white" stroke="red" points="795,-434.908 795,-453.908 899,-453.908 899,-434.908 795,-434.908"/>
<text text-anchor="middle" x="847" y="-441.908" font-family="Helvetica,sans-Serif" font-size="10.00">tds_convert_string</text>
</a>
</g>
</g>
<!-- Node3&#45;&gt;Node9 -->
<g id="edge15" class="edge"><title>Node3&#45;&gt;Node9</title>
<path fill="none" stroke="midnightblue" d="M344.411,-302.195C352.556,-332.859 382.241,-427.18 447,-463.408 503.188,-494.842 687.772,-470.682 784.939,-455.037"/>
<polygon fill="midnightblue" stroke="midnightblue" points="785.61,-458.474 794.917,-453.411 784.484,-451.565 785.61,-458.474"/>
</g>
<!-- Node10 -->
<g id="node10" class="node"><title>Node10</title>
<g id="a_node10"><a xlink:href="a00356.html#ga9fcc0a3932dcad530511395ef8a767fb" target="_top" xlink:title="Write data to wire. ">
<polygon fill="white" stroke="black" points="655.5,-320.908 655.5,-339.908 733.5,-339.908 733.5,-320.908 655.5,-320.908"/>
<text text-anchor="middle" x="694.5" y="-327.908" font-family="Helvetica,sans-Serif" font-size="10.00">tds_put_data</text>
</a>
</g>
</g>
<!-- Node3&#45;&gt;Node10 -->
<g id="edge25" class="edge"><title>Node3&#45;&gt;Node10</title>
<path fill="none" stroke="midnightblue" d="M388.883,-301.948C406.979,-305.353 427.891,-308.949 447,-311.408 515.559,-320.23 595.41,-325.472 645.215,-328.146"/>
<polygon fill="midnightblue" stroke="midnightblue" points="645.202,-331.65 655.371,-328.679 645.568,-324.66 645.202,-331.65"/>
</g>
<!-- Node11 -->
<g id="node11" class="node"><title>Node11</title>
<g id="a_node11"><a xlink:href="a00356.html#ga9ad2e6defce530a8778791cce0166ccd" target="_top" xlink:title="Start query packet of a given type. ">
<polygon fill="white" stroke="black" points="460.5,-434.908 460.5,-453.908 580.5,-453.908 580.5,-434.908 460.5,-434.908"/>
<text text-anchor="middle" x="520.5" y="-441.908" font-family="Helvetica,sans-Serif" font-size="10.00">tds_start_query_head</text>
</a>
</g>
</g>
<!-- Node3&#45;&gt;Node11 -->
<g id="edge11" class="edge"><title>Node3&#45;&gt;Node11</title>
<path fill="none" stroke="midnightblue" d="M347.254,-301.998C360.688,-325.643 398.664,-387.217 447,-420.408 453.237,-424.691 460.295,-428.257 467.499,-431.213"/>
<polygon fill="midnightblue" stroke="midnightblue" points="466.757,-434.671 477.35,-434.875 469.197,-428.11 466.757,-434.671"/>
</g>
<!-- Node12 -->
<g id="node12" class="node"><title>Node12</title>
<g id="a_node12"><a xlink:href="a00357.html#ga1fcaf8d488cc1390f106ce3ad0bf37b4" target="_top" xlink:title="Output a string to wire automatic translate string to unicode if needed. ">
<polygon fill="white" stroke="red" points="653,-162.908 653,-181.908 736,-181.908 736,-162.908 653,-162.908"/>
<text text-anchor="middle" x="694.5" y="-169.908" font-family="Helvetica,sans-Serif" font-size="10.00">tds_put_string</text>
</a>
</g>
</g>
<!-- Node3&#45;&gt;Node12 -->
<g id="edge14" class="edge"><title>Node3&#45;&gt;Node12</title>
<path fill="none" stroke="midnightblue" d="M369.875,-282.892C432.556,-261.493 584.677,-209.56 655.745,-185.298"/>
<polygon fill="midnightblue" stroke="midnightblue" points="657.289,-188.469 665.622,-181.926 655.027,-181.844 657.289,-188.469"/>
</g>
<!-- Node13 -->
<g id="node13" class="node"><title>Node13</title>
<g id="a_node13"><a xlink:href="a00356.html#ga0cd19215e9169ea299a6c9cbf5b2fb60" target="_top" xlink:title="Count number of placeholders (?) in a query. ">
<polygon fill="white" stroke="red" points="630,-69.4083 630,-99.4083 759,-99.4083 759,-69.4083 630,-69.4083"/>
<text text-anchor="start" x="638" y="-87.4083" font-family="Helvetica,sans-Serif" font-size="10.00">tds_count_placeholders</text>
<text text-anchor="middle" x="694.5" y="-76.4083" font-family="Helvetica,sans-Serif" font-size="10.00">_ucs2le</text>
</a>
</g>
</g>
<!-- Node3&#45;&gt;Node13 -->
<g id="edge16" class="edge"><title>Node3&#45;&gt;Node13</title>
<path fill="none" stroke="midnightblue" d="M342.174,-282.687C343.491,-242.018 354.587,-84.7092 447,-21.4083 500.901,15.5128 531.251,-3.21337 594,-21.4083 621.882,-29.4931 649.444,-47.9901 668.464,-62.8621"/>
<polygon fill="midnightblue" stroke="midnightblue" points="666.334,-65.6405 676.319,-69.1808 670.721,-60.186 666.334,-65.6405"/>
</g>
<!-- Node14 -->
<g id="node14" class="node"><title>Node14</title>
<g id="a_node14"><a xlink:href="a00356.html#gac8d5497c2d1b9fadb724111660bd03bd" target="_top" xlink:title="Return string with parameters definition, useful for TDS7+. ">
<polygon fill="white" stroke="red" points="460,-157.408 460,-187.408 581,-187.408 581,-157.408 460,-157.408"/>
<text text-anchor="start" x="468" y="-175.408" font-family="Helvetica,sans-Serif" font-size="10.00">tds7_build_param_def</text>
<text text-anchor="middle" x="520.5" y="-164.408" font-family="Helvetica,sans-Serif" font-size="10.00">_from_params</text>
</a>
</g>
</g>
<!-- Node3&#45;&gt;Node14 -->
<g id="edge17" class="edge"><title>Node3&#45;&gt;Node14</title>
<path fill="none" stroke="midnightblue" d="M351.04,-282.867C368.294,-265.09 407.712,-226.522 447,-202.408 453.305,-198.538 460.199,-194.96 467.146,-191.724"/>
<polygon fill="midnightblue" stroke="midnightblue" points="468.883,-194.782 476.604,-187.528 466.044,-188.384 468.883,-194.782"/>
</g>
<!-- Node15 -->
<g id="node15" class="node"><title>Node15</title>
<g id="a_node15"><a xlink:href="a00356.html#gab775332d378c7fe083750d624441b303" target="_top" xlink:title="Return string with parameters definition, useful for TDS7+. ">
<polygon fill="white" stroke="red" points="460,-69.4083 460,-99.4083 581,-99.4083 581,-69.4083 460,-69.4083"/>
<text text-anchor="start" x="468" y="-87.4083" font-family="Helvetica,sans-Serif" font-size="10.00">tds7_build_param_def</text>
<text text-anchor="middle" x="520.5" y="-76.4083" font-family="Helvetica,sans-Serif" font-size="10.00">_from_query</text>
</a>
</g>
</g>
<!-- Node3&#45;&gt;Node15 -->
<g id="edge18" class="edge"><title>Node3&#45;&gt;Node15</title>
<path fill="none" stroke="midnightblue" d="M344.803,-282.862C354.113,-252.798 386.876,-159.129 447,-109.408 449.02,-107.738 451.158,-106.176 453.384,-104.717"/>
<polygon fill="midnightblue" stroke="midnightblue" points="455.408,-107.591 462.343,-99.5809 451.926,-101.518 455.408,-107.591"/>
</g>
<!-- Node16 -->
<g id="node16" class="node"><title>Node16</title>
<g id="a_node16"><a xlink:href="a00356.html#ga6e42b4a1d1d3898229ea2fe4afc2ecec" target="_top" xlink:title="Output params types and query (required by sp_prepare/sp_executesql/sp_prepexec) ">
<polygon fill="white" stroke="red" points="455,-118.908 455,-137.908 586,-137.908 586,-118.908 455,-118.908"/>
<text text-anchor="middle" x="520.5" y="-125.908" font-family="Helvetica,sans-Serif" font-size="10.00">tds7_put_query_params</text>
</a>
</g>
</g>
<!-- Node3&#45;&gt;Node16 -->
<g id="edge20" class="edge"><title>Node3&#45;&gt;Node16</title>
<path fill="none" stroke="midnightblue" d="M346.063,-282.878C357.677,-256.823 393.65,-183.921 447,-147.408 449.934,-145.4 453.069,-143.604 456.326,-141.998"/>
<polygon fill="midnightblue" stroke="midnightblue" points="457.955,-145.108 465.771,-137.955 455.201,-138.672 457.955,-145.108"/>
</g>
<!-- Node17 -->
<g id="node17" class="node"><title>Node17</title>
<g id="a_node17"><a xlink:href="a00356.html#ga0f0b6bf447e9672e3b1ea8453ddeb113" target="_top" xlink:title="Send parameter definition to server. ">
<polygon fill="white" stroke="black" points="447,-30.9083 447,-49.9083 594,-49.9083 594,-30.9083 447,-30.9083"/>
<text text-anchor="middle" x="520.5" y="-37.9083" font-family="Helvetica,sans-Serif" font-size="10.00">tds7_put_params_definition</text>
</a>
</g>
</g>
<!-- Node3&#45;&gt;Node17 -->
<g id="edge23" class="edge"><title>Node3&#45;&gt;Node17</title>
<path fill="none" stroke="midnightblue" d="M343.371,-282.659C348.93,-246.91 373.137,-121.857 447,-59.4083 449,-57.7176 451.133,-56.1753 453.367,-54.7685"/>
<polygon fill="midnightblue" stroke="midnightblue" points="455.205,-57.7559 462.408,-49.9871 451.932,-51.5679 455.205,-57.7559"/>
</g>
<!-- Node18 -->
<g id="node18" class="node"><title>Node18</title>
<g id="a_node18"><a xlink:href="a00356.html#gada27f4cfce925240ad33b71b63ca692d" target="_top" xlink:title="Flush query packet. ">
<polygon fill="white" stroke="red" points="456.5,-358.908 456.5,-377.908 584.5,-377.908 584.5,-358.908 456.5,-358.908"/>
<text text-anchor="middle" x="520.5" y="-365.908" font-family="Helvetica,sans-Serif" font-size="10.00">tds_query_flush_packet</text>
</a>
</g>
</g>
<!-- Node3&#45;&gt;Node18 -->
<g id="edge26" class="edge"><title>Node3&#45;&gt;Node18</title>
<path fill="none" stroke="midnightblue" d="M359.486,-302.014C380.047,-313.086 415.388,-331.423 447,-344.408 456.852,-348.455 467.659,-352.325 477.852,-355.731"/>
<polygon fill="midnightblue" stroke="midnightblue" points="476.793,-359.067 487.386,-358.845 478.967,-352.413 476.793,-359.067"/>
</g>
<!-- Node6&#45;&gt;Node5 -->
<g id="edge6" class="edge"><title>Node6&#45;&gt;Node5</title>
<path fill="none" stroke="midnightblue" d="M574.04,-552.604C589.994,-550.842 607.767,-548.879 624.626,-547.016"/>
<polygon fill="midnightblue" stroke="midnightblue" points="625.425,-550.45 634.98,-545.873 624.656,-543.492 625.425,-550.45"/>
</g>
<!-- Node7&#45;&gt;Node8 -->
<g id="edge8" class="edge"><title>Node7&#45;&gt;Node8</title>
<path fill="none" stroke="midnightblue" d="M566.691,-292.408C587.141,-292.408 611.599,-292.408 633.555,-292.408"/>
<polygon fill="midnightblue" stroke="midnightblue" points="633.772,-295.908 643.772,-292.408 633.772,-288.908 633.772,-295.908"/>
</g>
<!-- Node7&#45;&gt;Node10 -->
<g id="edge10" class="edge"><title>Node7&#45;&gt;Node10</title>
<path fill="none" stroke="midnightblue" d="M564.903,-301.997C589.394,-307.408 620.051,-314.181 645.288,-319.757"/>
<polygon fill="midnightblue" stroke="midnightblue" points="644.861,-323.247 655.381,-321.987 646.372,-316.412 644.861,-323.247"/>
</g>
<!-- Node8&#45;&gt;Node9 -->
<g id="edge9" class="edge"><title>Node8&#45;&gt;Node9</title>
<path fill="none" stroke="midnightblue" d="M741.757,-302.021C747.892,-304.477 753.836,-307.554 759,-311.408 799.373,-341.538 826.41,-396.341 838.599,-425.298"/>
<polygon fill="midnightblue" stroke="midnightblue" points="835.412,-426.753 842.414,-434.704 841.898,-424.122 835.412,-426.753"/>
</g>
<!-- Node11&#45;&gt;Node4 -->
<g id="edge13" class="edge"><title>Node11&#45;&gt;Node4</title>
<path fill="none" stroke="midnightblue" d="M564.903,-434.819C589.044,-429.486 619.176,-422.829 644.203,-417.299"/>
<polygon fill="midnightblue" stroke="midnightblue" points="645.219,-420.659 654.228,-415.085 643.709,-413.824 645.219,-420.659"/>
</g>
<!-- Node11&#45;&gt;Node9 -->
<g id="edge12" class="edge"><title>Node11&#45;&gt;Node9</title>
<path fill="none" stroke="midnightblue" d="M580.641,-444.408C638.412,-444.408 725.963,-444.408 784.522,-444.408"/>
<polygon fill="midnightblue" stroke="midnightblue" points="784.744,-447.908 794.744,-444.408 784.744,-440.908 784.744,-447.908"/>
</g>
<!-- Node15&#45;&gt;Node13 -->
<g id="edge19" class="edge"><title>Node15&#45;&gt;Node13</title>
<path fill="none" stroke="midnightblue" d="M581.175,-84.4083C593.577,-84.4083 606.788,-84.4083 619.631,-84.4083"/>
<polygon fill="midnightblue" stroke="midnightblue" points="619.83,-87.9084 629.83,-84.4083 619.83,-80.9084 619.83,-87.9084"/>
</g>
<!-- Node16&#45;&gt;Node12 -->
<g id="edge22" class="edge"><title>Node16&#45;&gt;Node12</title>
<path fill="none" stroke="midnightblue" d="M558.821,-137.956C584.516,-144.529 618.855,-153.313 646.428,-160.367"/>
<polygon fill="midnightblue" stroke="midnightblue" points="645.696,-163.792 656.251,-162.88 647.431,-157.01 645.696,-163.792"/>
</g>
<!-- Node16&#45;&gt;Node13 -->
<g id="edge21" class="edge"><title>Node16&#45;&gt;Node13</title>
<path fill="none" stroke="midnightblue" d="M558.821,-118.861C578.1,-113.929 602.245,-107.753 624.747,-101.996"/>
<polygon fill="midnightblue" stroke="midnightblue" points="625.788,-105.343 634.608,-99.4736 624.053,-98.5612 625.788,-105.343"/>
</g>
<!-- Node18&#45;&gt;Node4 -->
<g id="edge27" class="edge"><title>Node18&#45;&gt;Node4</title>
<path fill="none" stroke="midnightblue" d="M564.903,-377.997C589.044,-383.331 619.176,-389.988 644.203,-395.517"/>
<polygon fill="midnightblue" stroke="midnightblue" points="643.709,-398.992 654.228,-397.732 645.219,-392.157 643.709,-398.992"/>
</g>
</g>
</svg>
