<?xml version="1.0" encoding="UTF-8" standalone="no"?>
<!DOCTYPE svg PUBLIC "-//W3C//DTD SVG 1.1//EN"
 "http://www.w3.org/Graphics/SVG/1.1/DTD/svg11.dtd">
<!-- Generated by graphviz version 2.38.0 (20140413.2041)
 -->
<!-- Title: src/replacements/iconv.c Pages: 1 -->
<svg width="1206pt" height="252pt"
 viewBox="0.00 0.00 1205.52 252.00" xmlns="http://www.w3.org/2000/svg" xmlns:xlink="http://www.w3.org/1999/xlink">
<g id="graph0" class="graph" transform="scale(1 1) rotate(0) translate(4 248)">
<title>src/replacements/iconv.c</title>
<polygon fill="white" stroke="none" points="-4,4 -4,-248 1201.52,-248 1201.52,4 -4,4"/>
<!-- Node1 -->
<g id="node1" class="node"><title>Node1</title>
<polygon fill="#bfbfbf" stroke="black" points="128,-224.5 128,-243.5 261,-243.5 261,-224.5 128,-224.5"/>
<text text-anchor="middle" x="194.5" y="-231.5" font-family="Helvetica,sans-Serif" font-size="10.00">src/replacements/iconv.c</text>
</g>
<!-- Node2 -->
<g id="node2" class="node"><title>Node2</title>
<polygon fill="white" stroke="#bfbfbf" points="0,-168.5 0,-187.5 53,-187.5 53,-168.5 0,-168.5"/>
<text text-anchor="middle" x="26.5" y="-175.5" font-family="Helvetica,sans-Serif" font-size="10.00">config.h</text>
</g>
<!-- Node1&#45;&gt;Node2 -->
<g id="edge1" class="edge"><title>Node1&#45;&gt;Node2</title>
<path fill="none" stroke="midnightblue" d="M167.88,-224.444C139.494,-215.32 94.3635,-200.813 62.7473,-190.651"/>
<polygon fill="midnightblue" stroke="midnightblue" points="63.5869,-187.244 52.9956,-187.516 61.4448,-193.909 63.5869,-187.244"/>
</g>
<!-- Node3 -->
<g id="node3" class="node"><title>Node3</title>
<polygon fill="white" stroke="#bfbfbf" points="71.5,-168.5 71.5,-187.5 125.5,-187.5 125.5,-168.5 71.5,-168.5"/>
<text text-anchor="middle" x="98.5" y="-175.5" font-family="Helvetica,sans-Serif" font-size="10.00">assert.h</text>
</g>
<!-- Node1&#45;&gt;Node3 -->
<g id="edge2" class="edge"><title>Node1&#45;&gt;Node3</title>
<path fill="none" stroke="midnightblue" d="M179.076,-224.324C163.96,-215.822 140.685,-202.729 123.029,-192.797"/>
<polygon fill="midnightblue" stroke="midnightblue" points="124.317,-189.507 113.886,-187.655 120.886,-195.608 124.317,-189.507"/>
</g>
<!-- Node4 -->
<g id="node4" class="node"><title>Node4</title>
<polygon fill="white" stroke="#bfbfbf" points="143.5,-168.5 143.5,-187.5 193.5,-187.5 193.5,-168.5 143.5,-168.5"/>
<text text-anchor="middle" x="168.5" y="-175.5" font-family="Helvetica,sans-Serif" font-size="10.00">ctype.h</text>
</g>
<!-- Node1&#45;&gt;Node4 -->
<g id="edge3" class="edge"><title>Node1&#45;&gt;Node4</title>
<path fill="none" stroke="midnightblue" d="M190.207,-224.083C186.648,-216.691 181.478,-205.953 177.076,-196.811"/>
<polygon fill="midnightblue" stroke="midnightblue" points="180.205,-195.243 172.713,-187.751 173.898,-198.279 180.205,-195.243"/>
</g>
<!-- Node5 -->
<g id="node5" class="node"><title>Node5</title>
<g id="a_node5"><a xlink:href="a00193.html" target="_top" xlink:title="Main include file for libtds. ">
<polygon fill="white" stroke="black" points="565,-168.5 565,-187.5 640,-187.5 640,-168.5 565,-168.5"/>
<text text-anchor="middle" x="602.5" y="-175.5" font-family="Helvetica,sans-Serif" font-size="10.00">freetds/tds.h</text>
</a>
</g>
</g>
<!-- Node1&#45;&gt;Node5 -->
<g id="edge4" class="edge"><title>Node1&#45;&gt;Node5</title>
<path fill="none" stroke="midnightblue" d="M259.149,-224.444C341.281,-213.573 481.139,-195.062 554.44,-185.361"/>
<polygon fill="midnightblue" stroke="midnightblue" points="555.303,-188.777 564.757,-183.995 554.384,-181.838 555.303,-188.777"/>
</g>
<!-- Node20 -->
<g id="node20" class="node"><title>Node20</title>
<g id="a_node20"><a xlink:href="a00179_source.html" target="_top" xlink:title="freetds/bytes.h">
<polygon fill="white" stroke="black" points="658.5,-168.5 658.5,-187.5 744.5,-187.5 744.5,-168.5 658.5,-168.5"/>
<text text-anchor="middle" x="701.5" y="-175.5" font-family="Helvetica,sans-Serif" font-size="10.00">freetds/bytes.h</text>
</a>
</g>
</g>
<!-- Node1&#45;&gt;Node20 -->
<g id="edge25" class="edge"><title>Node1&#45;&gt;Node20</title>
<path fill="none" stroke="midnightblue" d="M261.212,-227.846C349.874,-220.663 511.32,-206.423 648.5,-188 648.601,-187.986 648.702,-187.973 648.804,-187.959"/>
<polygon fill="midnightblue" stroke="midnightblue" points="649.042,-191.461 658.439,-186.569 648.042,-184.533 649.042,-191.461"/>
</g>
<!-- Node21 -->
<g id="node21" class="node"><title>Node21</title>
<g id="a_node21"><a xlink:href="a00184_source.html" target="_top" xlink:title="freetds/iconv.h">
<polygon fill="white" stroke="black" points="545.5,-56.5 545.5,-75.5 631.5,-75.5 631.5,-56.5 545.5,-56.5"/>
<text text-anchor="middle" x="588.5" y="-63.5" font-family="Helvetica,sans-Serif" font-size="10.00">freetds/iconv.h</text>
</a>
</g>
</g>
<!-- Node1&#45;&gt;Node21 -->
<g id="edge26" class="edge"><title>Node1&#45;&gt;Node21</title>
<path fill="none" stroke="midnightblue" d="M197.607,-224.459C206.346,-201.775 233.484,-139.852 278.5,-112 320.437,-86.0536 458.535,-74.2854 535.501,-69.6286"/>
<polygon fill="midnightblue" stroke="midnightblue" points="535.705,-73.1227 545.484,-69.0437 535.296,-66.1347 535.705,-73.1227"/>
</g>
<!-- Node6 -->
<g id="node6" class="node"><title>Node6</title>
<polygon fill="white" stroke="#bfbfbf" points="1123,-56.5 1123,-75.5 1178,-75.5 1178,-56.5 1123,-56.5"/>
<text text-anchor="middle" x="1150.5" y="-63.5" font-family="Helvetica,sans-Serif" font-size="10.00">stdarg.h</text>
</g>
<!-- Node5&#45;&gt;Node6 -->
<g id="edge5" class="edge"><title>Node5&#45;&gt;Node6</title>
<path fill="none" stroke="midnightblue" d="M640.148,-169.393C643.304,-168.876 646.452,-168.402 649.5,-168 703.732,-160.844 1100.31,-169.113 1140.5,-132 1152.93,-120.518 1154.32,-100.543 1153.29,-85.758"/>
<polygon fill="midnightblue" stroke="midnightblue" points="1156.75,-85.2416 1152.17,-75.6902 1149.79,-86.016 1156.75,-85.2416"/>
</g>
<!-- Node7 -->
<g id="node7" class="node"><title>Node7</title>
<polygon fill="white" stroke="#bfbfbf" points="288,-112.5 288,-131.5 335,-131.5 335,-112.5 288,-112.5"/>
<text text-anchor="middle" x="311.5" y="-119.5" font-family="Helvetica,sans-Serif" font-size="10.00">stdio.h</text>
</g>
<!-- Node5&#45;&gt;Node7 -->
<g id="edge6" class="edge"><title>Node5&#45;&gt;Node7</title>
<path fill="none" stroke="midnightblue" d="M564.682,-171.538C516.13,-164.278 429.111,-150.43 345.179,-131.97"/>
<polygon fill="midnightblue" stroke="midnightblue" points="345.748,-128.511 335.227,-129.756 344.228,-135.344 345.748,-128.511"/>
</g>
<!-- Node8 -->
<g id="node8" class="node"><title>Node8</title>
<g id="a_node8"><a xlink:href="a00195_source.html" target="_top" xlink:title="time.h">
<polygon fill="white" stroke="black" points="353.5,-112.5 353.5,-131.5 397.5,-131.5 397.5,-112.5 353.5,-112.5"/>
<text text-anchor="middle" x="375.5" y="-119.5" font-family="Helvetica,sans-Serif" font-size="10.00">time.h</text>
</a>
</g>
</g>
<!-- Node5&#45;&gt;Node8 -->
<g id="edge7" class="edge"><title>Node5&#45;&gt;Node8</title>
<path fill="none" stroke="midnightblue" d="M566.531,-168.444C522.737,-158.025 449.443,-140.59 407.518,-130.617"/>
<polygon fill="midnightblue" stroke="midnightblue" points="408.111,-127.16 397.572,-128.251 406.491,-133.97 408.111,-127.16"/>
</g>
<!-- Node9 -->
<g id="node9" class="node"><title>Node9</title>
<g id="a_node9"><a xlink:href="a00197_source.html" target="_top" xlink:title="freetds/version.h">
<polygon fill="white" stroke="black" points="434,-112.5 434,-131.5 529,-131.5 529,-112.5 434,-112.5"/>
<text text-anchor="middle" x="481.5" y="-119.5" font-family="Helvetica,sans-Serif" font-size="10.00">freetds/version.h</text>
</a>
</g>
</g>
<!-- Node5&#45;&gt;Node9 -->
<g id="edge9" class="edge"><title>Node5&#45;&gt;Node9</title>
<path fill="none" stroke="midnightblue" d="M583.327,-168.444C563.591,-159.636 532.615,-145.812 510.007,-135.722"/>
<polygon fill="midnightblue" stroke="midnightblue" points="511.141,-132.396 500.583,-131.516 508.289,-138.788 511.141,-132.396"/>
</g>
<!-- Node10 -->
<g id="node10" class="node"><title>Node10</title>
<polygon fill="white" stroke="#bfbfbf" points="547,-112.5 547,-131.5 658,-131.5 658,-112.5 547,-112.5"/>
<text text-anchor="middle" x="602.5" y="-119.5" font-family="Helvetica,sans-Serif" font-size="10.00">tds_sysdep_public.h</text>
</g>
<!-- Node5&#45;&gt;Node10 -->
<g id="edge10" class="edge"><title>Node5&#45;&gt;Node10</title>
<path fill="none" stroke="midnightblue" d="M602.5,-168.083C602.5,-161.006 602.5,-150.861 602.5,-141.986"/>
<polygon fill="midnightblue" stroke="midnightblue" points="606,-141.751 602.5,-131.751 599,-141.751 606,-141.751"/>
</g>
<!-- Node11 -->
<g id="node11" class="node"><title>Node11</title>
<g id="a_node11"><a xlink:href="a00192_source.html" target="_top" xlink:title="freetds/sysdep_private.h">
<polygon fill="white" stroke="black" points="676,-112.5 676,-131.5 809,-131.5 809,-112.5 676,-112.5"/>
<text text-anchor="middle" x="742.5" y="-119.5" font-family="Helvetica,sans-Serif" font-size="10.00">freetds/sysdep_private.h</text>
</a>
</g>
</g>
<!-- Node5&#45;&gt;Node11 -->
<g id="edge11" class="edge"><title>Node5&#45;&gt;Node11</title>
<path fill="none" stroke="midnightblue" d="M624.683,-168.444C647.928,-159.478 684.649,-145.314 710.915,-135.183"/>
<polygon fill="midnightblue" stroke="midnightblue" points="712.35,-138.381 720.42,-131.516 709.831,-131.85 712.35,-138.381"/>
</g>
<!-- Node12 -->
<g id="node12" class="node"><title>Node12</title>
<g id="a_node12"><a xlink:href="a00194_source.html" target="_top" xlink:title="freetds/thread.h">
<polygon fill="white" stroke="black" points="827.5,-112.5 827.5,-131.5 919.5,-131.5 919.5,-112.5 827.5,-112.5"/>
<text text-anchor="middle" x="873.5" y="-119.5" font-family="Helvetica,sans-Serif" font-size="10.00">freetds/thread.h</text>
</a>
</g>
</g>
<!-- Node5&#45;&gt;Node12 -->
<g id="edge12" class="edge"><title>Node5&#45;&gt;Node12</title>
<path fill="none" stroke="midnightblue" d="M640.181,-169.492C687.182,-160.126 767.806,-144.061 820.881,-133.485"/>
<polygon fill="midnightblue" stroke="midnightblue" points="821.66,-136.899 830.783,-131.512 820.292,-130.034 821.66,-136.899"/>
</g>
<!-- Node13 -->
<g id="node13" class="node"><title>Node13</title>
<g id="a_node13"><a xlink:href="a00202_source.html" target="_top" xlink:title="replacements.h">
<polygon fill="white" stroke="black" points="1042,-112.5 1042,-131.5 1131,-131.5 1131,-112.5 1042,-112.5"/>
<text text-anchor="middle" x="1086.5" y="-119.5" font-family="Helvetica,sans-Serif" font-size="10.00">replacements.h</text>
</a>
</g>
</g>
<!-- Node5&#45;&gt;Node13 -->
<g id="edge13" class="edge"><title>Node5&#45;&gt;Node13</title>
<path fill="none" stroke="midnightblue" d="M640.157,-169.461C643.311,-168.93 646.457,-168.433 649.5,-168 815.541,-144.354 861.229,-153.693 1031.68,-132.01"/>
<polygon fill="midnightblue" stroke="midnightblue" points="1032.28,-135.462 1041.75,-130.712 1031.38,-128.519 1032.28,-135.462"/>
</g>
<!-- Node16 -->
<g id="node16" class="node"><title>Node16</title>
<g id="a_node16"><a xlink:href="a00188_source.html" target="_top" xlink:title="freetds/pushvis.h">
<polygon fill="white" stroke="black" points="575.5,-0.5 575.5,-19.5 671.5,-19.5 671.5,-0.5 575.5,-0.5"/>
<text text-anchor="middle" x="623.5" y="-7.5" font-family="Helvetica,sans-Serif" font-size="10.00">freetds/pushvis.h</text>
</a>
</g>
</g>
<!-- Node5&#45;&gt;Node16 -->
<g id="edge22" class="edge"><title>Node5&#45;&gt;Node16</title>
<path fill="none" stroke="midnightblue" d="M564.951,-177.652C487.734,-178.104 315.279,-174.241 278.5,-132 272.663,-125.296 273.17,-119.114 278.5,-112 312.956,-66.011 476.364,-33.9226 565.372,-19.5336"/>
<polygon fill="midnightblue" stroke="midnightblue" points="565.995,-22.9786 575.32,-17.9491 564.894,-16.0657 565.995,-22.9786"/>
</g>
<!-- Node17 -->
<g id="node17" class="node"><title>Node17</title>
<g id="a_node17"><a xlink:href="a00186_source.html" target="_top" xlink:title="freetds/popvis.h">
<polygon fill="white" stroke="black" points="951.5,-0.5 951.5,-19.5 1043.5,-19.5 1043.5,-0.5 951.5,-0.5"/>
<text text-anchor="middle" x="997.5" y="-7.5" font-family="Helvetica,sans-Serif" font-size="10.00">freetds/popvis.h</text>
</a>
</g>
</g>
<!-- Node5&#45;&gt;Node17 -->
<g id="edge24" class="edge"><title>Node5&#45;&gt;Node17</title>
<path fill="none" stroke="midnightblue" d="M640.146,-169.383C643.303,-168.869 646.452,-168.398 649.5,-168 705.83,-160.645 1112.26,-163.549 1159.5,-132 1189.44,-112.008 1209.83,-84.2351 1187.5,-56 1171.02,-35.167 1103.53,-22.9774 1053.64,-16.6556"/>
<polygon fill="midnightblue" stroke="midnightblue" points="1053.96,-13.168 1043.61,-15.4317 1053.11,-20.1165 1053.96,-13.168"/>
</g>
<!-- Node19 -->
<g id="node19" class="node"><title>Node19</title>
<g id="a_node19"><a xlink:href="a00187_source.html" target="_top" xlink:title="freetds/proto.h">
<polygon fill="white" stroke="black" points="937.5,-112.5 937.5,-131.5 1023.5,-131.5 1023.5,-112.5 937.5,-112.5"/>
<text text-anchor="middle" x="980.5" y="-119.5" font-family="Helvetica,sans-Serif" font-size="10.00">freetds/proto.h</text>
</a>
</g>
</g>
<!-- Node5&#45;&gt;Node19 -->
<g id="edge23" class="edge"><title>Node5&#45;&gt;Node19</title>
<path fill="none" stroke="midnightblue" d="M640.174,-169.577C643.325,-169.019 646.465,-168.486 649.5,-168 769.821,-148.736 803.193,-150.556 927.49,-132.093"/>
<polygon fill="midnightblue" stroke="midnightblue" points="928.023,-135.552 937.393,-130.608 926.984,-128.63 928.023,-135.552"/>
</g>
<!-- Node8&#45;&gt;Node8 -->
<g id="edge8" class="edge"><title>Node8&#45;&gt;Node8</title>
<path fill="none" stroke="midnightblue" d="M392.768,-131.575C404.287,-134.27 415.5,-131.078 415.5,-122 415.5,-115.759 410.2,-112.3 403.145,-111.623"/>
<polygon fill="midnightblue" stroke="midnightblue" points="402.469,-108.165 392.768,-112.425 403.008,-115.144 402.469,-108.165"/>
</g>
<!-- Node13&#45;&gt;Node6 -->
<g id="edge14" class="edge"><title>Node13&#45;&gt;Node6</title>
<path fill="none" stroke="midnightblue" d="M1096.78,-112.324C1106.34,-104.263 1120.78,-92.0765 1132.28,-82.3695"/>
<polygon fill="midnightblue" stroke="midnightblue" points="1134.64,-84.9577 1140.03,-75.8339 1130.13,-79.6076 1134.64,-84.9577"/>
</g>
<!-- Node14 -->
<g id="node14" class="node"><title>Node14</title>
<g id="a_node14"><a xlink:href="a00210_source.html" target="_top" xlink:title="tds_sysdep_public.h">
<polygon fill="white" stroke="black" points="688,-56.5 688,-75.5 799,-75.5 799,-56.5 688,-56.5"/>
<text text-anchor="middle" x="743.5" y="-63.5" font-family="Helvetica,sans-Serif" font-size="10.00">tds_sysdep_public.h</text>
</a>
</g>
</g>
<!-- Node13&#45;&gt;Node14 -->
<g id="edge15" class="edge"><title>Node13&#45;&gt;Node14</title>
<path fill="none" stroke="midnightblue" d="M1041.72,-113.498C1038.6,-112.988 1035.5,-112.484 1032.5,-112 956.006,-99.6704 868.026,-86.0516 809.429,-77.0608"/>
<polygon fill="midnightblue" stroke="midnightblue" points="809.616,-73.5486 799.201,-75.4926 808.555,-80.4677 809.616,-73.5486"/>
</g>
<!-- Node15 -->
<g id="node15" class="node"><title>Node15</title>
<g id="a_node15"><a xlink:href="a00203_source.html" target="_top" xlink:title="replacements/readpassphrase.h">
<polygon fill="white" stroke="black" points="817,-56.5 817,-75.5 986,-75.5 986,-56.5 817,-56.5"/>
<text text-anchor="middle" x="901.5" y="-63.5" font-family="Helvetica,sans-Serif" font-size="10.00">replacements/readpassphrase.h</text>
</a>
</g>
</g>
<!-- Node13&#45;&gt;Node15 -->
<g id="edge16" class="edge"><title>Node13&#45;&gt;Node15</title>
<path fill="none" stroke="midnightblue" d="M1057.19,-112.444C1025.66,-103.241 975.369,-88.5617 940.514,-78.3879"/>
<polygon fill="midnightblue" stroke="midnightblue" points="941.257,-74.9587 930.677,-75.5164 939.295,-81.6783 941.257,-74.9587"/>
</g>
<!-- Node13&#45;&gt;Node16 -->
<g id="edge20" class="edge"><title>Node13&#45;&gt;Node16</title>
<path fill="none" stroke="midnightblue" d="M1041.74,-113.315C1038.62,-112.848 1035.51,-112.404 1032.5,-112 954.129,-101.495 748.455,-112.86 678.5,-76 658.331,-65.3729 642.503,-43.9607 633.104,-28.6144"/>
<polygon fill="midnightblue" stroke="midnightblue" points="635.914,-26.482 627.876,-19.58 629.856,-29.9882 635.914,-26.482"/>
</g>
<!-- Node13&#45;&gt;Node17 -->
<g id="edge21" class="edge"><title>Node13&#45;&gt;Node17</title>
<path fill="none" stroke="midnightblue" d="M1087.25,-112.133C1087.93,-98.7403 1087.39,-73.1023 1075.5,-56 1065.3,-41.3311 1048.66,-30.7912 1033.37,-23.6171"/>
<polygon fill="midnightblue" stroke="midnightblue" points="1034.65,-20.3597 1024.09,-19.5783 1031.86,-26.7782 1034.65,-20.3597"/>
</g>
<!-- Node18 -->
<g id="node18" class="node"><title>Node18</title>
<g id="a_node18"><a xlink:href="a00178.html" target="_top" xlink:title="Provide poll call where missing. ">
<polygon fill="white" stroke="red" points="1004.5,-56.5 1004.5,-75.5 1066.5,-75.5 1066.5,-56.5 1004.5,-56.5"/>
<text text-anchor="middle" x="1035.5" y="-63.5" font-family="Helvetica,sans-Serif" font-size="10.00">fakepoll.h</text>
</a>
</g>
</g>
<!-- Node13&#45;&gt;Node18 -->
<g id="edge19" class="edge"><title>Node13&#45;&gt;Node18</title>
<path fill="none" stroke="midnightblue" d="M1078.08,-112.083C1070.65,-104.22 1059.65,-92.5688 1050.69,-83.0813"/>
<polygon fill="midnightblue" stroke="midnightblue" points="1053.18,-80.618 1043.76,-75.7511 1048.09,-85.4244 1053.18,-80.618"/>
</g>
<!-- Node15&#45;&gt;Node16 -->
<g id="edge17" class="edge"><title>Node15&#45;&gt;Node16</title>
<path fill="none" stroke="midnightblue" d="M857.45,-56.4435C808.649,-46.9641 729.937,-31.6747 677.47,-21.4835"/>
<polygon fill="midnightblue" stroke="midnightblue" points="677.828,-17.9875 667.344,-19.5164 676.493,-24.8591 677.828,-17.9875"/>
</g>
<!-- Node15&#45;&gt;Node17 -->
<g id="edge18" class="edge"><title>Node15&#45;&gt;Node17</title>
<path fill="none" stroke="midnightblue" d="M916.924,-56.324C932.04,-47.8215 955.315,-34.7288 972.971,-24.7975"/>
<polygon fill="midnightblue" stroke="midnightblue" points="975.114,-27.6077 982.114,-19.6545 971.683,-21.5066 975.114,-27.6077"/>
</g>
<!-- Node21&#45;&gt;Node16 -->
<g id="edge27" class="edge"><title>Node21&#45;&gt;Node16</title>
<path fill="none" stroke="midnightblue" d="M594.28,-56.083C599.172,-48.5341 606.327,-37.4948 612.333,-28.2298"/>
<polygon fill="midnightblue" stroke="midnightblue" points="615.326,-30.0463 617.828,-19.7511 609.452,-26.239 615.326,-30.0463"/>
</g>
<!-- Node21&#45;&gt;Node17 -->
<g id="edge28" class="edge"><title>Node21&#45;&gt;Node17</title>
<path fill="none" stroke="midnightblue" d="M631.883,-59.2722C706.484,-49.4227 858.986,-29.2879 941.499,-18.3938"/>
<polygon fill="midnightblue" stroke="midnightblue" points="941.991,-21.8592 951.447,-17.0803 941.075,-14.9195 941.991,-21.8592"/>
</g>
</g>
</svg>
