<?xml version="1.0" encoding="UTF-8" standalone="no"?>
<!DOCTYPE svg PUBLIC "-//W3C//DTD SVG 1.1//EN"
 "http://www.w3.org/Graphics/SVG/1.1/DTD/svg11.dtd">
<!-- Generated by graphviz version 2.38.0 (20140413.2041)
 -->
<!-- Title: _cs_command Pages: 1 -->
<svg width="1359pt" height="500pt"
 viewBox="0.00 0.00 1359.00 500.00" xmlns="http://www.w3.org/2000/svg" xmlns:xlink="http://www.w3.org/1999/xlink">
<g id="graph0" class="graph" transform="scale(1 1) rotate(0) translate(4 496)">
<title>_cs_command</title>
<polygon fill="white" stroke="none" points="-4,4 -4,-496 1355,-496 1355,4 -4,4"/>
<!-- Node1 -->
<g id="node1" class="node"><title>Node1</title>
<polygon fill="#bfbfbf" stroke="black" points="315,-169.5 315,-188.5 400,-188.5 400,-169.5 315,-169.5"/>
<text text-anchor="middle" x="357.5" y="-176.5" font-family="Helvetica,sans-Serif" font-size="10.00">_cs_command</text>
</g>
<!-- Node12 -->
<g id="node12" class="node"><title>Node12</title>
<g id="a_node12"><a xlink:href="a00005.html" target="_top" xlink:title="_cs_command_list">
<polygon fill="white" stroke="black" points="305.5,-96 305.5,-115 409.5,-115 409.5,-96 305.5,-96"/>
<text text-anchor="middle" x="357.5" y="-103" font-family="Helvetica,sans-Serif" font-size="10.00">_cs_command_list</text>
</a>
</g>
</g>
<!-- Node1&#45;&gt;Node12 -->
<g id="edge22" class="edge"><title>Node1&#45;&gt;Node12</title>
<path fill="none" stroke="#9a32cd" stroke-dasharray="5,2" d="M357.5,-159.094C357.5,-144.933 357.5,-126.202 357.5,-115.339"/>
<polygon fill="#9a32cd" stroke="#9a32cd" points="354,-159.233 357.5,-169.233 361,-159.233 354,-159.233"/>
<text text-anchor="middle" x="369" y="-143" font-family="Helvetica,sans-Serif" font-size="10.00"> cmd</text>
</g>
<!-- Node2 -->
<g id="node2" class="node"><title>Node2</title>
<g id="a_node2"><a xlink:href="a00014.html" target="_top" xlink:title="_cs_iodesc">
<polygon fill="white" stroke="black" points="49.5,-236.5 49.5,-255.5 119.5,-255.5 119.5,-236.5 49.5,-236.5"/>
<text text-anchor="middle" x="84.5" y="-243.5" font-family="Helvetica,sans-Serif" font-size="10.00">_cs_iodesc</text>
</a>
</g>
</g>
<!-- Node2&#45;&gt;Node1 -->
<g id="edge1" class="edge"><title>Node2&#45;&gt;Node1</title>
<path fill="none" stroke="#9a32cd" stroke-dasharray="5,2" d="M110.378,-232.005C128.033,-223.66 152.175,-213.251 174.5,-207 221.507,-193.839 277.208,-186.788 314.707,-183.231"/>
<polygon fill="#9a32cd" stroke="#9a32cd" points="108.776,-228.891 101.29,-236.389 111.817,-235.196 108.776,-228.891"/>
<text text-anchor="middle" x="191.5" y="-210" font-family="Helvetica,sans-Serif" font-size="10.00"> iodesc</text>
</g>
<!-- Node3 -->
<g id="node3" class="node"><title>Node3</title>
<g id="a_node3"><a xlink:href="a00015.html" target="_top" xlink:title="_cs_locale">
<polygon fill="white" stroke="black" points="0,-303.5 0,-322.5 67,-322.5 67,-303.5 0,-303.5"/>
<text text-anchor="middle" x="33.5" y="-310.5" font-family="Helvetica,sans-Serif" font-size="10.00">_cs_locale</text>
</a>
</g>
</g>
<!-- Node3&#45;&gt;Node2 -->
<g id="edge2" class="edge"><title>Node3&#45;&gt;Node2</title>
<path fill="none" stroke="#9a32cd" stroke-dasharray="5,2" d="M46.6263,-295.27C56.5699,-282.597 69.8269,-265.701 77.7309,-255.627"/>
<polygon fill="#9a32cd" stroke="#9a32cd" points="43.7974,-293.206 40.3781,-303.234 49.3046,-297.527 43.7974,-293.206"/>
<text text-anchor="middle" x="78" y="-277" font-family="Helvetica,sans-Serif" font-size="10.00"> locale</text>
</g>
<!-- Node11 -->
<g id="node11" class="node"><title>Node11</title>
<g id="a_node11"><a xlink:href="a00007.html" target="_top" xlink:title="_cs_connection">
<polygon fill="white" stroke="black" points="491,-0.5 491,-19.5 582,-19.5 582,-0.5 491,-0.5"/>
<text text-anchor="middle" x="536.5" y="-7.5" font-family="Helvetica,sans-Serif" font-size="10.00">_cs_connection</text>
</a>
</g>
</g>
<!-- Node3&#45;&gt;Node11 -->
<g id="edge23" class="edge"><title>Node3&#45;&gt;Node11</title>
<path fill="none" stroke="#9a32cd" stroke-dasharray="5,2" d="M28.1788,-293.302C24.9705,-280.403 21.5,-262.798 21.5,-247 21.5,-247 21.5,-247 21.5,-104.5 21.5,-57.0197 364.757,-24.7463 490.797,-14.4963"/>
<polygon fill="#9a32cd" stroke="#9a32cd" points="24.8768,-294.504 30.8368,-303.263 31.6401,-292.699 24.8768,-294.504"/>
<text text-anchor="middle" x="37" y="-176.5" font-family="Helvetica,sans-Serif" font-size="10.00"> locale</text>
</g>
<!-- Node4 -->
<g id="node4" class="node"><title>Node4</title>
<g id="a_node4"><a xlink:href="a00021.html" target="_top" xlink:title="_cs_param">
<polygon fill="white" stroke="black" points="379,-303.5 379,-322.5 448,-322.5 448,-303.5 379,-303.5"/>
<text text-anchor="middle" x="413.5" y="-310.5" font-family="Helvetica,sans-Serif" font-size="10.00">_cs_param</text>
</a>
</g>
</g>
<!-- Node4&#45;&gt;Node1 -->
<g id="edge3" class="edge"><title>Node4&#45;&gt;Node1</title>
<path fill="none" stroke="#9a32cd" stroke-dasharray="5,2" d="M369.03,-304.281C341.313,-296.925 307.745,-282.799 290.5,-256 273.177,-229.079 314.349,-202.023 339.599,-188.631"/>
<polygon fill="#9a32cd" stroke="#9a32cd" points="368.392,-307.728 378.936,-306.696 370.05,-300.927 368.392,-307.728"/>
<text text-anchor="middle" x="324" y="-243.5" font-family="Helvetica,sans-Serif" font-size="10.00"> input_params</text>
</g>
<!-- Node4&#45;&gt;Node4 -->
<g id="edge4" class="edge"><title>Node4&#45;&gt;Node4</title>
<path fill="none" stroke="#9a32cd" stroke-dasharray="5,2" d="M458.19,-317.995C462.946,-317.028 466,-315.363 466,-313 466,-309.219 458.181,-307.225 448.086,-307.018"/>
<polygon fill="#9a32cd" stroke="#9a32cd" points="457.699,-314.527 448.086,-318.982 458.379,-321.494 457.699,-314.527"/>
<text text-anchor="middle" x="478" y="-310.5" font-family="Helvetica,sans-Serif" font-size="10.00"> next</text>
</g>
<!-- Node5 -->
<g id="node5" class="node"><title>Node5</title>
<g id="a_node5"><a xlink:href="a00013.html" target="_top" xlink:title="_cs_dynamic">
<polygon fill="white" stroke="black" points="478.5,-236.5 478.5,-255.5 556.5,-255.5 556.5,-236.5 478.5,-236.5"/>
<text text-anchor="middle" x="517.5" y="-243.5" font-family="Helvetica,sans-Serif" font-size="10.00">_cs_dynamic</text>
</a>
</g>
</g>
<!-- Node4&#45;&gt;Node5 -->
<g id="edge16" class="edge"><title>Node4&#45;&gt;Node5</title>
<path fill="none" stroke="#9a32cd" stroke-dasharray="5,2" d="M443.122,-299.213C451.833,-295.058 461.237,-290.174 469.5,-285 483.733,-276.087 498.681,-263.701 508.04,-255.524"/>
<polygon fill="#9a32cd" stroke="#9a32cd" points="441.639,-296.043 434.029,-303.415 444.575,-302.398 441.639,-296.043"/>
<text text-anchor="middle" x="511.5" y="-277" font-family="Helvetica,sans-Serif" font-size="10.00"> param_list</text>
</g>
<!-- Node19 -->
<g id="node19" class="node"><title>Node19</title>
<g id="a_node19"><a xlink:href="a00025.html" target="_top" xlink:title="_csremote_proc">
<polygon fill="white" stroke="black" points="367,-236.5 367,-255.5 460,-255.5 460,-236.5 367,-236.5"/>
<text text-anchor="middle" x="413.5" y="-243.5" font-family="Helvetica,sans-Serif" font-size="10.00">_csremote_proc</text>
</a>
</g>
</g>
<!-- Node4&#45;&gt;Node19 -->
<g id="edge38" class="edge"><title>Node4&#45;&gt;Node19</title>
<path fill="none" stroke="#9a32cd" stroke-dasharray="5,2" d="M413.5,-293.037C413.5,-280.67 413.5,-265.12 413.5,-255.627"/>
<polygon fill="#9a32cd" stroke="#9a32cd" points="410,-293.234 413.5,-303.234 417,-293.234 410,-293.234"/>
<text text-anchor="middle" x="439.5" y="-277" font-family="Helvetica,sans-Serif" font-size="10.00"> param_list</text>
</g>
<!-- Node5&#45;&gt;Node1 -->
<g id="edge5" class="edge"><title>Node5&#45;&gt;Node1</title>
<path fill="none" stroke="#9a32cd" stroke-dasharray="5,2" d="M486.987,-232.604C455.219,-219.698 406.305,-199.827 378.58,-188.564"/>
<polygon fill="#9a32cd" stroke="#9a32cd" points="485.671,-235.847 496.253,-236.369 488.306,-229.362 485.671,-235.847"/>
<text text-anchor="middle" x="458" y="-210" font-family="Helvetica,sans-Serif" font-size="10.00"> dyn</text>
</g>
<!-- Node5&#45;&gt;Node5 -->
<g id="edge17" class="edge"><title>Node5&#45;&gt;Node5</title>
<path fill="none" stroke="#9a32cd" stroke-dasharray="5,2" d="M566.775,-250.846C571.505,-249.862 574.5,-248.246 574.5,-246 574.5,-242.406 566.832,-240.427 556.662,-240.062"/>
<polygon fill="#9a32cd" stroke="#9a32cd" points="566.229,-247.385 556.662,-251.938 566.98,-254.345 566.229,-247.385"/>
<text text-anchor="middle" x="586.5" y="-243.5" font-family="Helvetica,sans-Serif" font-size="10.00"> next</text>
</g>
<!-- Node5&#45;&gt;Node11 -->
<g id="edge36" class="edge"><title>Node5&#45;&gt;Node11</title>
<path fill="none" stroke="#9a32cd" stroke-dasharray="5,2" d="M519.02,-226.277C522.886,-178.67 532.981,-54.3338 535.775,-19.9339"/>
<polygon fill="#9a32cd" stroke="#9a32cd" points="515.52,-226.144 518.199,-236.394 522.497,-226.71 515.52,-226.144"/>
<text text-anchor="middle" x="543.5" y="-143" font-family="Helvetica,sans-Serif" font-size="10.00"> dynlist</text>
</g>
<!-- Node6 -->
<g id="node6" class="node"><title>Node6</title>
<g id="a_node6"><a xlink:href="a00118.html" target="_top" xlink:title="Holds information for a dynamic (also called prepared) query. ">
<polygon fill="white" stroke="black" points="263.5,-472.5 263.5,-491.5 339.5,-491.5 339.5,-472.5 263.5,-472.5"/>
<text text-anchor="middle" x="301.5" y="-479.5" font-family="Helvetica,sans-Serif" font-size="10.00">tds_dynamic</text>
</a>
</g>
</g>
<!-- Node6&#45;&gt;Node5 -->
<g id="edge6" class="edge"><title>Node6&#45;&gt;Node5</title>
<path fill="none" stroke="#9a32cd" stroke-dasharray="5,2" d="M349.843,-481.477C418.23,-479.209 541.256,-463.664 598.5,-385 632.01,-338.952 559.91,-278.16 529.853,-255.766"/>
<polygon fill="#9a32cd" stroke="#9a32cd" points="349.669,-477.98 339.759,-481.728 349.843,-484.978 349.669,-477.98"/>
<text text-anchor="middle" x="625" y="-360.5" font-family="Helvetica,sans-Serif" font-size="10.00"> tdsdyn</text>
</g>
<!-- Node6&#45;&gt;Node6 -->
<g id="edge7" class="edge"><title>Node6&#45;&gt;Node6</title>
<path fill="none" stroke="#9a32cd" stroke-dasharray="5,2" d="M349.789,-486.872C354.506,-485.89 357.5,-484.266 357.5,-482 357.5,-478.375 349.835,-476.393 339.714,-476.053"/>
<polygon fill="#9a32cd" stroke="#9a32cd" points="349.286,-483.406 339.714,-487.947 350.029,-490.366 349.286,-483.406"/>
<text text-anchor="middle" x="369.5" y="-479.5" font-family="Helvetica,sans-Serif" font-size="10.00"> next</text>
</g>
<!-- Node8 -->
<g id="node8" class="node"><title>Node8</title>
<g id="a_node8"><a xlink:href="a00148.html" target="_top" xlink:title="Information for a server connection. ">
<polygon fill="white" stroke="red" points="267.5,-404.5 267.5,-423.5 335.5,-423.5 335.5,-404.5 267.5,-404.5"/>
<text text-anchor="middle" x="301.5" y="-411.5" font-family="Helvetica,sans-Serif" font-size="10.00">tds_socket</text>
</a>
</g>
</g>
<!-- Node6&#45;&gt;Node8 -->
<g id="edge11" class="edge"><title>Node6&#45;&gt;Node8</title>
<path fill="none" stroke="#9a32cd" stroke-dasharray="5,2" d="M301.5,-462.041C301.5,-449.472 301.5,-433.563 301.5,-423.841"/>
<polygon fill="#9a32cd" stroke="#9a32cd" points="298,-462.372 301.5,-472.372 305,-462.372 298,-462.372"/>
<text text-anchor="middle" x="322" y="-446" font-family="Helvetica,sans-Serif" font-size="10.00"> cur_dyn</text>
</g>
<!-- Node7 -->
<g id="node7" class="node"><title>Node7</title>
<g id="a_node7"><a xlink:href="a00144.html" target="_top" xlink:title="Hold information for any results. ">
<polygon fill="white" stroke="red" points="97.5,-303.5 97.5,-322.5 183.5,-322.5 183.5,-303.5 97.5,-303.5"/>
<text text-anchor="middle" x="140.5" y="-310.5" font-family="Helvetica,sans-Serif" font-size="10.00">tds_result_info</text>
</a>
</g>
</g>
<!-- Node7&#45;&gt;Node6 -->
<g id="edge8" class="edge"><title>Node7&#45;&gt;Node6</title>
<path fill="none" stroke="#9a32cd" stroke-dasharray="5,2" d="M127.649,-331.331C125.94,-334.415 124.452,-337.7 123.5,-341 118.078,-359.789 113.478,-368.208 123.5,-385 153.64,-435.5 220.542,-461.014 263.196,-472.619"/>
<polygon fill="#9a32cd" stroke="#9a32cd" points="130.63,-333.167 133.121,-322.869 124.752,-329.366 130.63,-333.167"/>
<text text-anchor="middle" x="181.5" y="-417" font-family="Helvetica,sans-Serif" font-size="10.00"> res_info</text>
<text text-anchor="middle" x="181.5" y="-406" font-family="Helvetica,sans-Serif" font-size="10.00">params</text>
</g>
<!-- Node7&#45;&gt;Node8 -->
<g id="edge12" class="edge"><title>Node7&#45;&gt;Node8</title>
<path fill="none" stroke="#9a32cd" stroke-dasharray="5,2" d="M174.438,-326.9C181.629,-330.693 188.769,-335.371 194.5,-341 210.243,-356.462 200.701,-370.693 217.5,-385 231.544,-396.96 250.879,-403.86 267.458,-407.816"/>
<polygon fill="#9a32cd" stroke="#9a32cd" points="175.935,-323.736 165.405,-322.565 172.906,-330.047 175.935,-323.736"/>
<text text-anchor="middle" x="252.5" y="-377" font-family="Helvetica,sans-Serif" font-size="10.00"> param_info</text>
<text text-anchor="middle" x="252.5" y="-366" font-family="Helvetica,sans-Serif" font-size="10.00">current_results</text>
<text text-anchor="middle" x="252.5" y="-355" font-family="Helvetica,sans-Serif" font-size="10.00">res_info</text>
<text text-anchor="middle" x="252.5" y="-344" font-family="Helvetica,sans-Serif" font-size="10.00">comp_info</text>
</g>
<!-- Node10 -->
<g id="node10" class="node"><title>Node10</title>
<g id="a_node10"><a xlink:href="a00110.html" target="_top" xlink:title="Holds informations about a cursor. ">
<polygon fill="white" stroke="red" points="137.5,-236.5 137.5,-255.5 203.5,-255.5 203.5,-236.5 137.5,-236.5"/>
<text text-anchor="middle" x="170.5" y="-243.5" font-family="Helvetica,sans-Serif" font-size="10.00">tds_cursor</text>
</a>
</g>
</g>
<!-- Node7&#45;&gt;Node10 -->
<g id="edge14" class="edge"><title>Node7&#45;&gt;Node10</title>
<path fill="none" stroke="#9a32cd" stroke-dasharray="5,2" d="M148.905,-293.79C154.666,-281.308 162.048,-265.314 166.518,-255.627"/>
<polygon fill="#9a32cd" stroke="#9a32cd" points="145.559,-292.687 144.546,-303.234 151.914,-295.621 145.559,-292.687"/>
<text text-anchor="middle" x="178.5" y="-277" font-family="Helvetica,sans-Serif" font-size="10.00"> res_info</text>
</g>
<!-- Node8&#45;&gt;Node7 -->
<g id="edge9" class="edge"><title>Node8&#45;&gt;Node7</title>
<path fill="none" stroke="#9a32cd" stroke-dasharray="5,2" d="M257.096,-411.819C213.04,-409.598 149.928,-403.23 134.5,-385 119.476,-367.248 129.755,-337.278 136.275,-322.61"/>
<polygon fill="#9a32cd" stroke="#9a32cd" points="257.142,-415.324 267.289,-412.277 257.457,-408.331 257.142,-415.324"/>
<text text-anchor="middle" x="164.5" y="-360.5" font-family="Helvetica,sans-Serif" font-size="10.00"> attached_to</text>
</g>
<!-- Node8&#45;&gt;Node11 -->
<g id="edge24" class="edge"><title>Node8&#45;&gt;Node11</title>
<path fill="none" stroke="#9a32cd" stroke-dasharray="5,2" d="M345.721,-406.811C434.605,-391.617 626.5,-343.735 626.5,-213.5 626.5,-213.5 626.5,-213.5 626.5,-104.5 626.5,-63.4939 581.011,-33.5354 554.713,-19.6421"/>
<polygon fill="#9a32cd" stroke="#9a32cd" points="344.966,-403.388 335.666,-408.465 346.102,-410.295 344.966,-403.388"/>
<text text-anchor="middle" x="654" y="-210" font-family="Helvetica,sans-Serif" font-size="10.00"> tds_socket</text>
</g>
<!-- Node9 -->
<g id="node9" class="node"><title>Node9</title>
<g id="a_node9"><a xlink:href="a00129.html" target="_top" xlink:title="tds_login">
<polygon fill="white" stroke="red" points="646,-472.5 646,-491.5 705,-491.5 705,-472.5 646,-472.5"/>
<text text-anchor="middle" x="675.5" y="-479.5" font-family="Helvetica,sans-Serif" font-size="10.00">tds_login</text>
</a>
</g>
</g>
<!-- Node9&#45;&gt;Node8 -->
<g id="edge10" class="edge"><title>Node9&#45;&gt;Node8</title>
<path fill="none" stroke="#9a32cd" stroke-dasharray="5,2" d="M635.565,-473.953C561.712,-460.92 405.018,-433.268 335.705,-421.036"/>
<polygon fill="#9a32cd" stroke="#9a32cd" points="635.384,-477.475 645.84,-475.766 636.601,-470.581 635.384,-477.475"/>
<text text-anchor="middle" x="535.5" y="-446" font-family="Helvetica,sans-Serif" font-size="10.00"> login</text>
</g>
<!-- Node9&#45;&gt;Node11 -->
<g id="edge25" class="edge"><title>Node9&#45;&gt;Node11</title>
<path fill="none" stroke="#9a32cd" stroke-dasharray="5,2" d="M684.473,-463.122C690.179,-450.112 696.5,-431.889 696.5,-415 696.5,-415 696.5,-415 696.5,-104.5 696.5,-51.2536 629.629,-27.7756 582.35,-17.8302"/>
<polygon fill="#9a32cd" stroke="#9a32cd" points="681.239,-461.774 680.161,-472.313 687.577,-464.747 681.239,-461.774"/>
<text text-anchor="middle" x="719.5" y="-243.5" font-family="Helvetica,sans-Serif" font-size="10.00"> tds_login</text>
</g>
<!-- Node10&#45;&gt;Node1 -->
<g id="edge18" class="edge"><title>Node10&#45;&gt;Node1</title>
<path fill="none" stroke="#9a32cd" stroke-dasharray="5,2" d="M191.104,-230.461C203.24,-222.499 219.175,-213.049 234.5,-207 260.326,-196.806 290.8,-190.081 314.953,-185.893"/>
<polygon fill="#9a32cd" stroke="#9a32cd" points="188.965,-227.682 182.637,-236.179 192.883,-233.483 188.965,-227.682"/>
<text text-anchor="middle" x="251" y="-210" font-family="Helvetica,sans-Serif" font-size="10.00"> cursor</text>
</g>
<!-- Node10&#45;&gt;Node8 -->
<g id="edge13" class="edge"><title>Node10&#45;&gt;Node8</title>
<path fill="none" stroke="#9a32cd" stroke-dasharray="5,2" d="M196.566,-260.606C223.766,-276.23 265.46,-304.482 287.5,-341 299.739,-361.278 301.584,-390.098 301.677,-404.343"/>
<polygon fill="#9a32cd" stroke="#9a32cd" points="198.044,-257.423 187.605,-255.613 194.637,-263.538 198.044,-257.423"/>
<text text-anchor="middle" x="301" y="-310.5" font-family="Helvetica,sans-Serif" font-size="10.00"> cur_cursor</text>
</g>
<!-- Node10&#45;&gt;Node10 -->
<g id="edge15" class="edge"><title>Node10&#45;&gt;Node10</title>
<path fill="none" stroke="#9a32cd" stroke-dasharray="5,2" d="M214.147,-250.946C218.633,-249.972 221.5,-248.323 221.5,-246 221.5,-242.188 213.778,-240.192 203.854,-240.013"/>
<polygon fill="#9a32cd" stroke="#9a32cd" points="213.451,-247.498 203.854,-251.987 214.156,-254.463 213.451,-247.498"/>
<text text-anchor="middle" x="233.5" y="-243.5" font-family="Helvetica,sans-Serif" font-size="10.00"> next</text>
</g>
<!-- Node11&#45;&gt;Node1 -->
<g id="edge19" class="edge"><title>Node11&#45;&gt;Node1</title>
<path fill="none" stroke="#9a32cd" stroke-dasharray="5,2" d="M525.974,-28.427C509.173,-55.8643 476.559,-107.506 460.5,-122 436.324,-143.819 402.134,-160.24 379.891,-169.486"/>
<polygon fill="#9a32cd" stroke="#9a32cd" points="529.181,-29.8897 531.388,-19.5273 523.201,-26.2515 529.181,-29.8897"/>
<text text-anchor="middle" x="498" y="-103" font-family="Helvetica,sans-Serif" font-size="10.00"> con</text>
</g>
<!-- Node12&#45;&gt;Node11 -->
<g id="edge20" class="edge"><title>Node12&#45;&gt;Node11</title>
<path fill="none" stroke="#9a32cd" stroke-dasharray="5,2" d="M374.317,-88.8339C391.168,-73.8858 418.427,-51.6763 445.5,-38 461.386,-29.9749 480.064,-23.9156 496.351,-19.5917"/>
<polygon fill="#9a32cd" stroke="#9a32cd" points="371.572,-86.598 366.51,-95.9053 376.271,-91.7863 371.572,-86.598"/>
<text text-anchor="middle" x="459.5" y="-52" font-family="Helvetica,sans-Serif" font-size="10.00"> cmds</text>
</g>
<!-- Node12&#45;&gt;Node12 -->
<g id="edge21" class="edge"><title>Node12&#45;&gt;Node12</title>
<path fill="none" stroke="#9a32cd" stroke-dasharray="5,2" d="M419.899,-111.11C424.606,-109.86 427.5,-107.99 427.5,-105.5 427.5,-101.516 420.092,-99.1188 409.702,-98.3094"/>
<polygon fill="#9a32cd" stroke="#9a32cd" points="419.048,-107.7 409.702,-112.691 420.12,-114.618 419.048,-107.7"/>
<text text-anchor="middle" x="439.5" y="-103" font-family="Helvetica,sans-Serif" font-size="10.00"> next</text>
</g>
<!-- Node13 -->
<g id="node13" class="node"><title>Node13</title>
<g id="a_node13"><a xlink:href="a00008.html" target="_top" xlink:title="_cs_context">
<polygon fill="white" stroke="black" points="897.5,-96 897.5,-115 971.5,-115 971.5,-96 897.5,-96"/>
<text text-anchor="middle" x="934.5" y="-103" font-family="Helvetica,sans-Serif" font-size="10.00">_cs_context</text>
</a>
</g>
</g>
<!-- Node13&#45;&gt;Node11 -->
<g id="edge26" class="edge"><title>Node13&#45;&gt;Node11</title>
<path fill="none" stroke="#9a32cd" stroke-dasharray="5,2" d="M900.035,-92.6894C856.376,-78.0956 778.611,-53.3214 710.5,-38 667.403,-28.3055 617.521,-20.9528 582.245,-16.3869"/>
<polygon fill="#9a32cd" stroke="#9a32cd" points="899.002,-96.0346 909.596,-95.9052 901.233,-89.3998 899.002,-96.0346"/>
<text text-anchor="middle" x="864" y="-63" font-family="Helvetica,sans-Serif" font-size="10.00"> ctx</text>
<text text-anchor="middle" x="864" y="-52" font-family="Helvetica,sans-Serif" font-size="10.00">_clientmsg_cb</text>
<text text-anchor="middle" x="864" y="-41" font-family="Helvetica,sans-Serif" font-size="10.00">_servermsg_cb</text>
</g>
<!-- Node13&#45;&gt;Node13 -->
<g id="edge31" class="edge"><title>Node13&#45;&gt;Node13</title>
<path fill="none" stroke="#9a32cd" stroke-dasharray="5,2" d="M981.686,-111.653C986.457,-110.432 989.5,-108.381 989.5,-105.5 989.5,-100.891 981.71,-98.4059 971.515,-98.0458"/>
<polygon fill="#9a32cd" stroke="#9a32cd" points="980.99,-108.213 971.515,-112.954 981.879,-115.157 980.99,-108.213"/>
<text text-anchor="middle" x="1026" y="-114" font-family="Helvetica,sans-Serif" font-size="10.00"> _clientmsg_cb</text>
<text text-anchor="middle" x="1026" y="-103" font-family="Helvetica,sans-Serif" font-size="10.00">_servermsg_cb</text>
<text text-anchor="middle" x="1026" y="-92" font-family="Helvetica,sans-Serif" font-size="10.00">_cslibmsg_cb</text>
</g>
<!-- Node14 -->
<g id="node14" class="node"><title>Node14</title>
<g id="a_node14"><a xlink:href="a00053.html" target="_top" xlink:title="cs_diag_msg_client">
<polygon fill="white" stroke="red" points="1109.5,-169.5 1109.5,-188.5 1219.5,-188.5 1219.5,-169.5 1109.5,-169.5"/>
<text text-anchor="middle" x="1164.5" y="-176.5" font-family="Helvetica,sans-Serif" font-size="10.00">cs_diag_msg_client</text>
</a>
</g>
</g>
<!-- Node14&#45;&gt;Node13 -->
<g id="edge27" class="edge"><title>Node14&#45;&gt;Node13</title>
<path fill="none" stroke="#9a32cd" stroke-dasharray="5,2" d="M1127.1,-166.375C1080.83,-151.99 1003.13,-127.834 961.984,-115.044"/>
<polygon fill="#9a32cd" stroke="#9a32cd" points="1126.17,-169.749 1136.76,-169.375 1128.25,-163.065 1126.17,-169.749"/>
<text text-anchor="middle" x="1103.5" y="-143" font-family="Helvetica,sans-Serif" font-size="10.00"> clientstore</text>
</g>
<!-- Node14&#45;&gt;Node14 -->
<g id="edge28" class="edge"><title>Node14&#45;&gt;Node14</title>
<path fill="none" stroke="#9a32cd" stroke-dasharray="5,2" d="M1229.5,-183.503C1234.45,-182.503 1237.5,-181.002 1237.5,-179 1237.5,-175.875 1230.07,-173.971 1219.57,-173.287"/>
<polygon fill="#9a32cd" stroke="#9a32cd" points="1229.08,-180.029 1219.57,-184.713 1229.92,-186.977 1229.08,-180.029"/>
<text text-anchor="middle" x="1249.5" y="-176.5" font-family="Helvetica,sans-Serif" font-size="10.00"> next</text>
</g>
<!-- Node15 -->
<g id="node15" class="node"><title>Node15</title>
<g id="a_node15"><a xlink:href="a00109.html" target="_top" xlink:title="tds_context">
<polygon fill="white" stroke="red" points="1280,-169.5 1280,-188.5 1351,-188.5 1351,-169.5 1280,-169.5"/>
<text text-anchor="middle" x="1315.5" y="-176.5" font-family="Helvetica,sans-Serif" font-size="10.00">tds_context</text>
</a>
</g>
</g>
<!-- Node15&#45;&gt;Node13 -->
<g id="edge29" class="edge"><title>Node15&#45;&gt;Node13</title>
<path fill="none" stroke="#9a32cd" stroke-dasharray="5,2" d="M1269.75,-167.932C1233.01,-159.969 1180.04,-148.772 1133.5,-140 1077.21,-129.39 1011.65,-118.668 971.62,-112.305"/>
<polygon fill="#9a32cd" stroke="#9a32cd" points="1269.15,-171.383 1279.67,-170.087 1270.64,-164.543 1269.15,-171.383"/>
<text text-anchor="middle" x="1207" y="-143" font-family="Helvetica,sans-Serif" font-size="10.00"> tds_ctx</text>
</g>
<!-- Node16 -->
<g id="node16" class="node"><title>Node16</title>
<g id="a_node16"><a xlink:href="a00006.html" target="_top" xlink:title="_cs_config">
<polygon fill="white" stroke="black" points="724.5,-169.5 724.5,-188.5 792.5,-188.5 792.5,-169.5 724.5,-169.5"/>
<text text-anchor="middle" x="758.5" y="-176.5" font-family="Helvetica,sans-Serif" font-size="10.00">_cs_config</text>
</a>
</g>
</g>
<!-- Node16&#45;&gt;Node13 -->
<g id="edge30" class="edge"><title>Node16&#45;&gt;Node13</title>
<path fill="none" stroke="#9a32cd" stroke-dasharray="5,2" d="M789.145,-165.55C824.759,-151.082 882.58,-127.593 913.469,-115.044"/>
<polygon fill="#9a32cd" stroke="#9a32cd" points="787.677,-162.369 779.73,-169.375 790.312,-168.854 787.677,-162.369"/>
<text text-anchor="middle" x="868.5" y="-143" font-family="Helvetica,sans-Serif" font-size="10.00"> config</text>
</g>
<!-- Node17 -->
<g id="node17" class="node"><title>Node17</title>
<g id="a_node17"><a xlink:href="a00054.html" target="_top" xlink:title="cs_diag_msg_svr">
<polygon fill="white" stroke="red" points="811,-169.5 811,-188.5 910,-188.5 910,-169.5 811,-169.5"/>
<text text-anchor="middle" x="860.5" y="-176.5" font-family="Helvetica,sans-Serif" font-size="10.00">cs_diag_msg_svr</text>
</a>
</g>
</g>
<!-- Node17&#45;&gt;Node13 -->
<g id="edge32" class="edge"><title>Node17&#45;&gt;Node13</title>
<path fill="none" stroke="#9a32cd" stroke-dasharray="5,2" d="M877.093,-161.968C891.997,-147.567 913.33,-126.955 925.352,-115.339"/>
<polygon fill="#9a32cd" stroke="#9a32cd" points="874.333,-159.767 869.574,-169.233 879.197,-164.801 874.333,-159.767"/>
<text text-anchor="middle" x="921.5" y="-143" font-family="Helvetica,sans-Serif" font-size="10.00"> svrstore</text>
</g>
<!-- Node17&#45;&gt;Node17 -->
<g id="edge33" class="edge"><title>Node17&#45;&gt;Node17</title>
<path fill="none" stroke="#9a32cd" stroke-dasharray="5,2" d="M920.402,-183.547C925.099,-182.547 928,-181.031 928,-179 928,-175.75 920.573,-173.82 910.245,-173.211"/>
<polygon fill="#9a32cd" stroke="#9a32cd" points="919.746,-180.1 910.245,-184.789 920.596,-187.049 919.746,-180.1"/>
<text text-anchor="middle" x="940" y="-176.5" font-family="Helvetica,sans-Serif" font-size="10.00"> next</text>
</g>
<!-- Node18 -->
<g id="node18" class="node"><title>Node18</title>
<g id="a_node18"><a xlink:href="a00052.html" target="_top" xlink:title="cs_diag_msg">
<polygon fill="white" stroke="red" points="970,-169.5 970,-188.5 1049,-188.5 1049,-169.5 970,-169.5"/>
<text text-anchor="middle" x="1009.5" y="-176.5" font-family="Helvetica,sans-Serif" font-size="10.00">cs_diag_msg</text>
</a>
</g>
</g>
<!-- Node18&#45;&gt;Node13 -->
<g id="edge34" class="edge"><title>Node18&#45;&gt;Node13</title>
<path fill="none" stroke="#9a32cd" stroke-dasharray="5,2" d="M992.683,-161.968C977.577,-147.567 955.956,-126.955 943.772,-115.339"/>
<polygon fill="#9a32cd" stroke="#9a32cd" points="990.65,-164.866 1000.3,-169.233 995.481,-159.799 990.65,-164.866"/>
<text text-anchor="middle" x="1005" y="-143" font-family="Helvetica,sans-Serif" font-size="10.00"> msgstore</text>
</g>
<!-- Node18&#45;&gt;Node18 -->
<g id="edge35" class="edge"><title>Node18&#45;&gt;Node18</title>
<path fill="none" stroke="#9a32cd" stroke-dasharray="5,2" d="M1059.21,-183.846C1063.98,-182.862 1067,-181.246 1067,-179 1067,-175.406 1059.26,-173.427 1049.01,-173.062"/>
<polygon fill="#9a32cd" stroke="#9a32cd" points="1058.58,-180.394 1049.01,-184.938 1059.32,-187.354 1058.58,-180.394"/>
<text text-anchor="middle" x="1079" y="-176.5" font-family="Helvetica,sans-Serif" font-size="10.00"> next</text>
</g>
<!-- Node19&#45;&gt;Node1 -->
<g id="edge37" class="edge"><title>Node19&#45;&gt;Node1</title>
<path fill="none" stroke="#9a32cd" stroke-dasharray="5,2" d="M399.401,-228.635C388.449,-215.923 373.695,-198.798 364.933,-188.627"/>
<polygon fill="#9a32cd" stroke="#9a32cd" points="396.769,-230.942 405.948,-236.234 402.072,-226.373 396.769,-230.942"/>
<text text-anchor="middle" x="399" y="-210" font-family="Helvetica,sans-Serif" font-size="10.00"> rpc</text>
</g>
</g>
</svg>
