<?xml version="1.0" encoding="UTF-8" standalone="no"?>
<!DOCTYPE svg PUBLIC "-//W3C//DTD SVG 1.1//EN"
 "http://www.w3.org/Graphics/SVG/1.1/DTD/svg11.dtd">
<!-- Generated by graphviz version 2.38.0 (20140413.2041)
 -->
<!-- Title: tds_process_dyn_result Pages: 1 -->
<svg width="892pt" height="517pt"
 viewBox="0.00 0.00 892.00 516.92" xmlns="http://www.w3.org/2000/svg" xmlns:xlink="http://www.w3.org/1999/xlink">
<g id="graph0" class="graph" transform="scale(1 1) rotate(0) translate(4 512.916)">
<title>tds_process_dyn_result</title>
<polygon fill="white" stroke="none" points="-4,4 -4,-512.916 888,-512.916 888,4 -4,4"/>
<!-- Node1 -->
<g id="node1" class="node"><title>Node1</title>
<polygon fill="#bfbfbf" stroke="black" points="0,-484.916 0,-503.916 129,-503.916 129,-484.916 0,-484.916"/>
<text text-anchor="middle" x="64.5" y="-491.916" font-family="Helvetica,sans-Serif" font-size="10.00">tds_process_dyn_result</text>
</g>
<!-- Node2 -->
<g id="node2" class="node"><title>Node2</title>
<g id="a_node2"><a xlink:href="a00359.html#ga39453d084f3f780ac4602d4abf2839f7" target="_top" xlink:title="tds_process_default_tokens() is a catch all function that is called to process tokens not known to ot...">
<polygon fill="white" stroke="black" points="165,-425.416 165,-455.416 277,-455.416 277,-425.416 165,-425.416"/>
<text text-anchor="start" x="173" y="-443.416" font-family="Helvetica,sans-Serif" font-size="10.00">tds_process_default</text>
<text text-anchor="middle" x="221" y="-432.416" font-family="Helvetica,sans-Serif" font-size="10.00">_tokens</text>
</a>
</g>
</g>
<!-- Node1&#45;&gt;Node2 -->
<g id="edge1" class="edge"><title>Node1&#45;&gt;Node2</title>
<path fill="none" stroke="midnightblue" d="M102.27,-481.565C124.703,-473.724 153.483,-463.665 176.972,-455.455"/>
<polygon fill="midnightblue" stroke="midnightblue" points="101.051,-478.283 92.7659,-484.886 103.361,-484.891 101.051,-478.283"/>
</g>
<!-- Node4 -->
<g id="node4" class="node"><title>Node4</title>
<g id="a_node4"><a xlink:href="a00359.html#gabfc9de1d1fe718818caf63a4be4035a6" target="_top" xlink:title="process all streams. ">
<polygon fill="white" stroke="black" points="449,-292.916 449,-311.916 561,-311.916 561,-292.916 449,-292.916"/>
<text text-anchor="middle" x="505" y="-299.916" font-family="Helvetica,sans-Serif" font-size="10.00">tds_process_tokens</text>
</a>
</g>
</g>
<!-- Node1&#45;&gt;Node4 -->
<g id="edge23" class="edge"><title>Node1&#45;&gt;Node4</title>
<path fill="none" stroke="midnightblue" d="M135.785,-505.019C210.622,-512.528 329.542,-513.257 413,-459.416 468.859,-423.38 494.458,-340.091 501.731,-311.924"/>
<polygon fill="midnightblue" stroke="midnightblue" points="135.843,-501.505 125.526,-503.92 135.096,-508.465 135.843,-501.505"/>
</g>
<!-- Node3 -->
<g id="node3" class="node"><title>Node3</title>
<g id="a_node3"><a xlink:href="a00359.html#ga93945b42d45ee28ae1296b35a1c1e9bb" target="_top" xlink:title="tds_process_login_tokens() is called after sending the login packet to the server. ">
<polygon fill="white" stroke="black" points="744,-444.916 744,-463.916 884,-463.916 884,-444.916 744,-444.916"/>
<text text-anchor="middle" x="814" y="-451.916" font-family="Helvetica,sans-Serif" font-size="10.00">tds_process_login_tokens</text>
</a>
</g>
</g>
<!-- Node2&#45;&gt;Node3 -->
<g id="edge2" class="edge"><title>Node2&#45;&gt;Node3</title>
<path fill="none" stroke="midnightblue" d="M283.887,-458.059C376.593,-482.006 556.795,-518.936 708,-492.416 738.743,-487.024 772.347,-473.385 793.054,-464.004"/>
<polygon fill="midnightblue" stroke="midnightblue" points="284.668,-454.646 274.107,-455.497 282.893,-461.417 284.668,-454.646"/>
</g>
<!-- Node2&#45;&gt;Node4 -->
<g id="edge3" class="edge"><title>Node2&#45;&gt;Node4</title>
<path fill="none" stroke="midnightblue" d="M261.708,-420.985C322.981,-391 438.307,-334.564 484.317,-312.048"/>
<polygon fill="midnightblue" stroke="midnightblue" points="260.159,-417.846 252.716,-425.385 263.236,-424.133 260.159,-417.846"/>
</g>
<!-- Node18 -->
<g id="node18" class="node"><title>Node18</title>
<g id="a_node18"><a xlink:href="a00359.html#ga81cdf0ed9e8d29cf1ddf66e18efc407d" target="_top" xlink:title="tds_process_msg() is called for MSG, ERR, or EED tokens and is responsible for calling the CLI&#39;s mess...">
<polygon fill="white" stroke="black" points="313,-430.916 313,-449.916 413,-449.916 413,-430.916 313,-430.916"/>
<text text-anchor="middle" x="363" y="-437.916" font-family="Helvetica,sans-Serif" font-size="10.00">tds_process_msg</text>
</a>
</g>
</g>
<!-- Node2&#45;&gt;Node18 -->
<g id="edge20" class="edge"><title>Node2&#45;&gt;Node18</title>
<path fill="none" stroke="midnightblue" d="M287.369,-433.679C295.983,-433.63 304.69,-433.718 312.967,-433.943"/>
<polygon fill="midnightblue" stroke="midnightblue" points="287.289,-430.18 277.332,-433.8 287.373,-437.18 287.289,-430.18"/>
</g>
<!-- Node5 -->
<g id="node5" class="node"><title>Node5</title>
<g id="a_node5"><a xlink:href="a00344.html#gae67546338cb9542a4902aa914f57f314" target="_top" xlink:title="_bcp_exec_out">
<polygon fill="white" stroke="red" points="608.5,-349.916 608.5,-368.916 696.5,-368.916 696.5,-349.916 608.5,-349.916"/>
<text text-anchor="middle" x="652.5" y="-356.916" font-family="Helvetica,sans-Serif" font-size="10.00">_bcp_exec_out</text>
</a>
</g>
</g>
<!-- Node4&#45;&gt;Node5 -->
<g id="edge4" class="edge"><title>Node4&#45;&gt;Node5</title>
<path fill="none" stroke="midnightblue" d="M537.585,-316.155C555.006,-323.594 577.084,-332.794 597,-340.416 605.423,-343.64 614.659,-346.945 623.096,-349.876"/>
<polygon fill="midnightblue" stroke="midnightblue" points="538.487,-312.733 527.917,-312.004 535.725,-319.165 538.487,-312.733"/>
</g>
<!-- Node6 -->
<g id="node6" class="node"><title>Node6</title>
<g id="a_node6"><a xlink:href="a00341.html#gaf1879b85e8238c015b9648d077665285" target="_top" xlink:title="_dbresults">
<polygon fill="white" stroke="red" points="620,-311.916 620,-330.916 685,-330.916 685,-311.916 620,-311.916"/>
<text text-anchor="middle" x="652.5" y="-318.916" font-family="Helvetica,sans-Serif" font-size="10.00">_dbresults</text>
</a>
</g>
</g>
<!-- Node4&#45;&gt;Node6 -->
<g id="edge5" class="edge"><title>Node4&#45;&gt;Node6</title>
<path fill="none" stroke="midnightblue" d="M571.348,-310.95C588.118,-313.14 605.418,-315.399 619.634,-317.255"/>
<polygon fill="midnightblue" stroke="midnightblue" points="571.376,-307.424 561.007,-309.599 570.47,-314.365 571.376,-307.424"/>
</g>
<!-- Node7 -->
<g id="node7" class="node"><title>Node7</title>
<g id="a_node7"><a xlink:href="a00342.html#gaff09873008411a0573f6d1a9e6c7cf4b" target="_top" xlink:title="Get count of output parameters filled by a stored procedure. ">
<polygon fill="white" stroke="red" points="620,-273.916 620,-292.916 685,-292.916 685,-273.916 620,-273.916"/>
<text text-anchor="middle" x="652.5" y="-280.916" font-family="Helvetica,sans-Serif" font-size="10.00">dbnumrets</text>
</a>
</g>
</g>
<!-- Node4&#45;&gt;Node7 -->
<g id="edge6" class="edge"><title>Node4&#45;&gt;Node7</title>
<path fill="none" stroke="midnightblue" d="M571.348,-293.883C588.118,-291.693 605.418,-289.434 619.634,-287.577"/>
<polygon fill="midnightblue" stroke="midnightblue" points="570.47,-290.468 561.007,-295.233 571.376,-297.409 570.47,-290.468"/>
</g>
<!-- Node8 -->
<g id="node8" class="node"><title>Node8</title>
<g id="a_node8"><a xlink:href="a00341.html#gae1f50a6a2c31fda57cb481922b06841e" target="_top" xlink:title="Wait for results of a query from the server. ">
<polygon fill="white" stroke="red" points="626,-235.916 626,-254.916 679,-254.916 679,-235.916 626,-235.916"/>
<text text-anchor="middle" x="652.5" y="-242.916" font-family="Helvetica,sans-Serif" font-size="10.00">dbsqlok</text>
</a>
</g>
</g>
<!-- Node4&#45;&gt;Node8 -->
<g id="edge7" class="edge"><title>Node4&#45;&gt;Node8</title>
<path fill="none" stroke="midnightblue" d="M537.585,-288.678C555.006,-281.239 577.084,-272.038 597,-264.416 606.358,-260.835 616.722,-257.152 625.877,-253.994"/>
<polygon fill="midnightblue" stroke="midnightblue" points="535.725,-285.667 527.917,-292.829 538.487,-292.099 535.725,-285.667"/>
</g>
<!-- Node9 -->
<g id="node9" class="node"><title>Node9</title>
<g id="a_node9"><a xlink:href="a00341.html#ga548153eb2eae76c48aa9d4b72258dc1c" target="_top" xlink:title="Send text or image data to the server. ">
<polygon fill="white" stroke="black" points="780,-216.916 780,-235.916 848,-235.916 848,-216.916 780,-216.916"/>
<text text-anchor="middle" x="814" y="-223.916" font-family="Helvetica,sans-Serif" font-size="10.00">dbwritetext</text>
</a>
</g>
</g>
<!-- Node4&#45;&gt;Node9 -->
<g id="edge10" class="edge"><title>Node4&#45;&gt;Node9</title>
<path fill="none" stroke="midnightblue" d="M520.031,-285.037C536.279,-266.437 564.949,-238.04 597,-226.416 658.517,-204.106 736.53,-212.211 779.967,-219.633"/>
<polygon fill="midnightblue" stroke="midnightblue" points="517.254,-282.901 513.473,-292.798 522.6,-287.419 517.254,-282.901"/>
</g>
<!-- Node10 -->
<g id="node10" class="node"><title>Node10</title>
<g id="a_node10"><a xlink:href="a00341.html#ga559e24ba70d0d96c3469eb6ab8f74e05" target="_top" xlink:title="Cancel the query currently being retrieved, discarding all pending rows. ">
<polygon fill="white" stroke="red" points="617,-159.916 617,-178.916 688,-178.916 688,-159.916 617,-159.916"/>
<text text-anchor="middle" x="652.5" y="-166.916" font-family="Helvetica,sans-Serif" font-size="10.00">dbcanquery</text>
</a>
</g>
</g>
<!-- Node4&#45;&gt;Node10 -->
<g id="edge9" class="edge"><title>Node4&#45;&gt;Node10</title>
<path fill="none" stroke="midnightblue" d="M517.472,-283.977C532.994,-260.303 562.719,-219.207 597,-193.416 604.849,-187.512 614.377,-182.684 623.258,-178.948"/>
<polygon fill="midnightblue" stroke="midnightblue" points="514.34,-282.377 511.89,-292.685 520.233,-286.155 514.34,-282.377"/>
</g>
<!-- Node11 -->
<g id="node11" class="node"><title>Node11</title>
<g id="a_node11"><a xlink:href="a00341.html#gadd5685565c8c6c86079e17b8a73b324c" target="_top" xlink:title="Fetch part of a text or image value from the server. ">
<polygon fill="white" stroke="black" points="619,-121.916 619,-140.916 686,-140.916 686,-121.916 619,-121.916"/>
<text text-anchor="middle" x="652.5" y="-128.916" font-family="Helvetica,sans-Serif" font-size="10.00">dbreadtext</text>
</a>
</g>
</g>
<!-- Node4&#45;&gt;Node11 -->
<g id="edge11" class="edge"><title>Node4&#45;&gt;Node11</title>
<path fill="none" stroke="midnightblue" d="M512.573,-283.092C524.44,-251.012 552.431,-186.709 597,-150.416 603.294,-145.291 611.061,-141.507 618.739,-138.729"/>
<polygon fill="midnightblue" stroke="midnightblue" points="509.227,-282.055 509.166,-292.649 515.821,-284.405 509.227,-282.055"/>
</g>
<!-- Node12 -->
<g id="node12" class="node"><title>Node12</title>
<g id="a_node12"><a xlink:href="a00341.html#gac980139b9cea03cf93e373d425991481" target="_top" xlink:title="Transmit the command buffer to the server. ">
<polygon fill="white" stroke="red" points="620,-83.9163 620,-102.916 685,-102.916 685,-83.9163 620,-83.9163"/>
<text text-anchor="middle" x="652.5" y="-90.9163" font-family="Helvetica,sans-Serif" font-size="10.00">dbsqlsend</text>
</a>
</g>
</g>
<!-- Node4&#45;&gt;Node12 -->
<g id="edge12" class="edge"><title>Node4&#45;&gt;Node12</title>
<path fill="none" stroke="midnightblue" d="M510.141,-282.624C519.161,-244.324 544.154,-159.689 597,-112.416 603.423,-106.671 611.681,-102.641 619.816,-99.8235"/>
<polygon fill="midnightblue" stroke="midnightblue" points="506.692,-282.009 507.925,-292.532 513.523,-283.536 506.692,-282.009"/>
</g>
<!-- Node13 -->
<g id="node13" class="node"><title>Node13</title>
<g id="a_node13"><a xlink:href="a00356.html#gaf0da49585d39e99780a004ee2ca23479" target="_top" xlink:title="Send option commands to server. ">
<polygon fill="white" stroke="black" points="753.5,-17.9163 753.5,-36.9163 874.5,-36.9163 874.5,-17.9163 753.5,-17.9163"/>
<text text-anchor="middle" x="814" y="-24.9163" font-family="Helvetica,sans-Serif" font-size="10.00">tds_submit_optioncmd</text>
</a>
</g>
</g>
<!-- Node4&#45;&gt;Node13 -->
<g id="edge13" class="edge"><title>Node4&#45;&gt;Node13</title>
<path fill="none" stroke="midnightblue" d="M505.373,-282.763C504.9,-230.2 511.767,-86.1992 597,-24.4163 653.783,16.7441 742.864,-3.82903 786.759,-17.9094"/>
<polygon fill="midnightblue" stroke="midnightblue" points="501.874,-282.857 505.567,-292.787 508.872,-282.721 501.874,-282.857"/>
</g>
<!-- Node14 -->
<g id="node14" class="node"><title>Node14</title>
<g id="a_node14"><a xlink:href="a00193.html#ac6610c72bd31bad5378f760fa9b12d66" target="_top" xlink:title="Initialize BCP information. ">
<polygon fill="white" stroke="red" points="616,-463.916 616,-482.916 689,-482.916 689,-463.916 616,-463.916"/>
<text text-anchor="middle" x="652.5" y="-470.916" font-family="Helvetica,sans-Serif" font-size="10.00">tds_bcp_init</text>
</a>
</g>
</g>
<!-- Node4&#45;&gt;Node14 -->
<g id="edge14" class="edge"><title>Node4&#45;&gt;Node14</title>
<path fill="none" stroke="midnightblue" d="M512.573,-321.74C524.44,-353.821 552.431,-418.124 597,-454.416 602.517,-458.909 609.166,-462.37 615.894,-465.028"/>
<polygon fill="midnightblue" stroke="midnightblue" points="515.821,-320.427 509.166,-312.183 509.227,-322.778 515.821,-320.427"/>
</g>
<!-- Node15 -->
<g id="node15" class="node"><title>Node15</title>
<g id="a_node15"><a xlink:href="a00359.html#ga55f27c3e05d42c9b07ace1c74b11c5ab" target="_top" xlink:title="Retrieve and set @spid. ">
<polygon fill="white" stroke="black" points="614,-387.916 614,-406.916 691,-406.916 691,-387.916 614,-387.916"/>
<text text-anchor="middle" x="652.5" y="-394.916" font-family="Helvetica,sans-Serif" font-size="10.00">tds_set_spid</text>
</a>
</g>
</g>
<!-- Node4&#45;&gt;Node15 -->
<g id="edge15" class="edge"><title>Node4&#45;&gt;Node15</title>
<path fill="none" stroke="midnightblue" d="M522.288,-319.202C539.504,-336.133 568.116,-362.045 597,-378.416 603.538,-382.122 610.923,-385.287 618.097,-387.91"/>
<polygon fill="midnightblue" stroke="midnightblue" points="524.762,-316.726 515.22,-312.121 519.808,-321.671 524.762,-316.726"/>
</g>
<!-- Node16 -->
<g id="node16" class="node"><title>Node16</title>
<g id="a_node16"><a xlink:href="a00359.html#gaeeb1562044786ea17bea361ed83e6946" target="_top" xlink:title="Process results for simple query as &quot;SET TEXTSIZE&quot; or &quot;USE dbname&quot; If the statement returns results...">
<polygon fill="white" stroke="red" points="597.5,-34.4163 597.5,-64.4163 707.5,-64.4163 707.5,-34.4163 597.5,-34.4163"/>
<text text-anchor="start" x="605.5" y="-52.4163" font-family="Helvetica,sans-Serif" font-size="10.00">tds_process_simple</text>
<text text-anchor="middle" x="652.5" y="-41.4163" font-family="Helvetica,sans-Serif" font-size="10.00">_query</text>
</a>
</g>
</g>
<!-- Node4&#45;&gt;Node16 -->
<g id="edge17" class="edge"><title>Node4&#45;&gt;Node16</title>
<path fill="none" stroke="midnightblue" d="M508.812,-282.81C515.941,-239.766 538.498,-135.94 597,-74.4163 600.658,-70.569 605.022,-67.2624 609.665,-64.4338"/>
<polygon fill="midnightblue" stroke="midnightblue" points="505.333,-282.401 507.255,-292.82 512.25,-283.477 505.333,-282.401"/>
</g>
<!-- Node17 -->
<g id="node17" class="node"><title>Node17</title>
<g id="a_node17"><a xlink:href="a00359.html#gaf233e79967f82f4e0dd4d11524917a34" target="_top" xlink:title="tds_process_cancel">
<polygon fill="white" stroke="red" points="597,-425.916 597,-444.916 708,-444.916 708,-425.916 597,-425.916"/>
<text text-anchor="middle" x="652.5" y="-432.916" font-family="Helvetica,sans-Serif" font-size="10.00">tds_process_cancel</text>
</a>
</g>
</g>
<!-- Node4&#45;&gt;Node17 -->
<g id="edge19" class="edge"><title>Node4&#45;&gt;Node17</title>
<path fill="none" stroke="midnightblue" d="M516.309,-321.069C531.069,-346.149 560.513,-390.572 597,-416.416 602.397,-420.239 608.633,-423.353 614.918,-425.871"/>
<polygon fill="midnightblue" stroke="midnightblue" points="519.232,-319.131 511.225,-312.192 513.158,-322.609 519.232,-319.131"/>
</g>
<!-- Node8&#45;&gt;Node9 -->
<g id="edge8" class="edge"><title>Node8&#45;&gt;Node9</title>
<path fill="none" stroke="midnightblue" d="M689.371,-241.143C716.525,-237.909 753.532,-233.5 779.965,-230.351"/>
<polygon fill="midnightblue" stroke="midnightblue" points="688.642,-237.705 679.126,-242.364 689.47,-244.656 688.642,-237.705"/>
</g>
<!-- Node15&#45;&gt;Node3 -->
<g id="edge16" class="edge"><title>Node15&#45;&gt;Node3</title>
<path fill="none" stroke="midnightblue" d="M690.583,-410.279C696.416,-412.321 702.375,-414.418 708,-416.416 734.854,-425.956 765.489,-437.07 786.708,-444.804"/>
<polygon fill="midnightblue" stroke="midnightblue" points="691.563,-406.914 680.968,-406.922 689.256,-413.522 691.563,-406.914"/>
</g>
<!-- Node16&#45;&gt;Node13 -->
<g id="edge18" class="edge"><title>Node16&#45;&gt;Node13</title>
<path fill="none" stroke="midnightblue" d="M718.05,-40.5128C729.711,-38.9044 741.823,-37.2338 753.337,-35.6457"/>
<polygon fill="midnightblue" stroke="midnightblue" points="717.373,-37.073 707.945,-41.9067 718.329,-44.0074 717.373,-37.073"/>
</g>
<!-- Node18&#45;&gt;Node2 -->
<g id="edge21" class="edge"><title>Node18&#45;&gt;Node2</title>
<path fill="none" stroke="midnightblue" d="M302.806,-447.094C294.36,-447.208 285.7,-447.187 277.332,-447.033"/>
<polygon fill="midnightblue" stroke="midnightblue" points="303.04,-450.59 312.967,-446.89 302.899,-443.592 303.04,-450.59"/>
</g>
<!-- Node18&#45;&gt;Node4 -->
<g id="edge22" class="edge"><title>Node18&#45;&gt;Node4</title>
<path fill="none" stroke="midnightblue" d="M381.237,-423.425C410.833,-394.252 470.403,-335.533 494.023,-312.251"/>
<polygon fill="midnightblue" stroke="midnightblue" points="378.733,-420.979 374.068,-430.492 383.647,-425.964 378.733,-420.979"/>
</g>
</g>
</svg>
