<?xml version="1.0" encoding="UTF-8" standalone="no"?>
<!DOCTYPE svg PUBLIC "-//W3C//DTD SVG 1.1//EN"
 "http://www.w3.org/Graphics/SVG/1.1/DTD/svg11.dtd">
<!-- Generated by graphviz version 2.38.0 (20140413.2041)
 -->
<!-- Title: src/tds/token.c Pages: 1 -->
<svg width="1015pt" height="252pt"
 viewBox="0.00 0.00 1015.10 252.00" xmlns="http://www.w3.org/2000/svg" xmlns:xlink="http://www.w3.org/1999/xlink">
<g id="graph0" class="graph" transform="scale(1 1) rotate(0) translate(4 248)">
<title>src/tds/token.c</title>
<polygon fill="white" stroke="none" points="-4,4 -4,-248 1011.1,-248 1011.1,4 -4,4"/>
<!-- Node1 -->
<g id="node1" class="node"><title>Node1</title>
<polygon fill="#bfbfbf" stroke="black" points="692.275,-224.5 692.275,-243.5 777.275,-243.5 777.275,-224.5 692.275,-224.5"/>
<text text-anchor="middle" x="734.775" y="-231.5" font-family="Helvetica,sans-Serif" font-size="10.00">src/tds/token.c</text>
</g>
<!-- Node2 -->
<g id="node2" class="node"><title>Node2</title>
<polygon fill="white" stroke="#bfbfbf" points="360.275,-168.5 360.275,-187.5 413.275,-187.5 413.275,-168.5 360.275,-168.5"/>
<text text-anchor="middle" x="386.775" y="-175.5" font-family="Helvetica,sans-Serif" font-size="10.00">config.h</text>
</g>
<!-- Node1&#45;&gt;Node2 -->
<g id="edge1" class="edge"><title>Node1&#45;&gt;Node2</title>
<path fill="none" stroke="midnightblue" d="M692.153,-228.246C633.745,-221.426 525.401,-207.684 423.302,-187.92"/>
<polygon fill="midnightblue" stroke="midnightblue" points="423.93,-184.476 413.443,-185.988 422.584,-191.345 423.93,-184.476"/>
</g>
<!-- Node3 -->
<g id="node3" class="node"><title>Node3</title>
<polygon fill="white" stroke="#bfbfbf" points="431.775,-168.5 431.775,-187.5 485.775,-187.5 485.775,-168.5 431.775,-168.5"/>
<text text-anchor="middle" x="458.775" y="-175.5" font-family="Helvetica,sans-Serif" font-size="10.00">assert.h</text>
</g>
<!-- Node1&#45;&gt;Node3 -->
<g id="edge2" class="edge"><title>Node1&#45;&gt;Node3</title>
<path fill="none" stroke="midnightblue" d="M692.253,-225.213C645.13,-216.501 566.913,-201.794 499.775,-188 498.53,-187.744 497.265,-187.482 495.987,-187.214"/>
<polygon fill="midnightblue" stroke="midnightblue" points="496.61,-183.768 486.1,-185.105 495.15,-190.614 496.61,-183.768"/>
</g>
<!-- Node4 -->
<g id="node4" class="node"><title>Node4</title>
<g id="a_node4"><a xlink:href="a00193.html" target="_top" xlink:title="Main include file for libtds. ">
<polygon fill="white" stroke="black" points="542.275,-168.5 542.275,-187.5 617.275,-187.5 617.275,-168.5 542.275,-168.5"/>
<text text-anchor="middle" x="579.775" y="-175.5" font-family="Helvetica,sans-Serif" font-size="10.00">freetds/tds.h</text>
</a>
</g>
</g>
<!-- Node1&#45;&gt;Node4 -->
<g id="edge3" class="edge"><title>Node1&#45;&gt;Node4</title>
<path fill="none" stroke="midnightblue" d="M710.215,-224.444C684.252,-215.399 643.107,-201.064 613.978,-190.916"/>
<polygon fill="midnightblue" stroke="midnightblue" points="614.815,-187.501 604.22,-187.516 612.512,-194.112 614.815,-187.501"/>
</g>
<!-- Node12 -->
<g id="node12" class="node"><title>Node12</title>
<g id="a_node12"><a xlink:href="a00202_source.html" target="_top" xlink:title="replacements.h">
<polygon fill="white" stroke="black" points="13.2747,-112.5 13.2747,-131.5 102.275,-131.5 102.275,-112.5 13.2747,-112.5"/>
<text text-anchor="middle" x="57.7747" y="-119.5" font-family="Helvetica,sans-Serif" font-size="10.00">replacements.h</text>
</a>
</g>
</g>
<!-- Node1&#45;&gt;Node12 -->
<g id="edge36" class="edge"><title>Node1&#45;&gt;Node12</title>
<path fill="none" stroke="midnightblue" d="M692.061,-226.866C650.521,-220.12 586.065,-207.563 532.775,-188 514.859,-181.423 513.069,-173.439 494.775,-168 333.596,-120.082 282.661,-153.054 112.599,-132.127"/>
<polygon fill="midnightblue" stroke="midnightblue" points="112.921,-128.64 102.559,-130.847 112.035,-135.584 112.921,-128.64"/>
</g>
<!-- Node19 -->
<g id="node19" class="node"><title>Node19</title>
<g id="a_node19"><a xlink:href="a00191_source.html" target="_top" xlink:title="freetds/string.h">
<polygon fill="white" stroke="black" points="574.275,-56.5 574.275,-75.5 661.275,-75.5 661.275,-56.5 574.275,-56.5"/>
<text text-anchor="middle" x="617.775" y="-63.5" font-family="Helvetica,sans-Serif" font-size="10.00">freetds/string.h</text>
</a>
</g>
</g>
<!-- Node1&#45;&gt;Node19 -->
<g id="edge24" class="edge"><title>Node1&#45;&gt;Node19</title>
<path fill="none" stroke="midnightblue" d="M767.547,-224.464C828.272,-207.137 948.145,-164.953 902.775,-112 870.619,-74.4701 737.416,-83.2467 671.749,-75.8601"/>
<polygon fill="midnightblue" stroke="midnightblue" points="671.818,-72.3377 661.439,-74.4654 670.88,-79.2745 671.818,-72.3377"/>
</g>
<!-- Node20 -->
<g id="node20" class="node"><title>Node20</title>
<g id="a_node20"><a xlink:href="a00181_source.html" target="_top" xlink:title="freetds/convert.h">
<polygon fill="white" stroke="black" points="679.775,-56.5 679.775,-75.5 775.775,-75.5 775.775,-56.5 679.775,-56.5"/>
<text text-anchor="middle" x="727.775" y="-63.5" font-family="Helvetica,sans-Serif" font-size="10.00">freetds/convert.h</text>
</a>
</g>
</g>
<!-- Node1&#45;&gt;Node20 -->
<g id="edge27" class="edge"><title>Node1&#45;&gt;Node20</title>
<path fill="none" stroke="midnightblue" d="M777.655,-229.613C830.93,-224.412 917.222,-212.388 936.775,-188 957.904,-161.646 957.997,-138.278 936.775,-112 931.918,-105.986 844.856,-88.7395 784.649,-77.4284"/>
<polygon fill="midnightblue" stroke="midnightblue" points="784.963,-73.9267 774.49,-75.5283 783.676,-80.8073 784.963,-73.9267"/>
</g>
<!-- Node21 -->
<g id="node21" class="node"><title>Node21</title>
<g id="a_node21"><a xlink:href="a00184_source.html" target="_top" xlink:title="freetds/iconv.h">
<polygon fill="white" stroke="black" points="793.775,-56.5 793.775,-75.5 879.775,-75.5 879.775,-56.5 793.775,-56.5"/>
<text text-anchor="middle" x="836.775" y="-63.5" font-family="Helvetica,sans-Serif" font-size="10.00">freetds/iconv.h</text>
</a>
</g>
</g>
<!-- Node1&#45;&gt;Node21 -->
<g id="edge30" class="edge"><title>Node1&#45;&gt;Node21</title>
<path fill="none" stroke="midnightblue" d="M777.385,-230.595C835.392,-226.33 934.558,-215.172 956.775,-188 978.156,-161.85 976.014,-139.763 956.775,-112 947.836,-99.1021 912.317,-86.7557 882.221,-78.2689"/>
<polygon fill="midnightblue" stroke="midnightblue" points="882.839,-74.8092 872.269,-75.5435 880.99,-81.5606 882.839,-74.8092"/>
</g>
<!-- Node22 -->
<g id="node22" class="node"><title>Node22</title>
<g id="a_node22"><a xlink:href="a00320_source.html" target="_top" xlink:title="tds_checks.h">
<polygon fill="white" stroke="black" points="897.775,-56.5 897.775,-75.5 975.775,-75.5 975.775,-56.5 897.775,-56.5"/>
<text text-anchor="middle" x="936.775" y="-63.5" font-family="Helvetica,sans-Serif" font-size="10.00">tds_checks.h</text>
</a>
</g>
</g>
<!-- Node1&#45;&gt;Node22 -->
<g id="edge33" class="edge"><title>Node1&#45;&gt;Node22</title>
<path fill="none" stroke="midnightblue" d="M777.341,-231.363C839.659,-227.97 951.027,-217.796 975.775,-188 997.356,-162.016 987.58,-143.648 975.775,-112 971.601,-100.812 963.255,-90.5598 955.351,-82.6759"/>
<polygon fill="midnightblue" stroke="midnightblue" points="957.475,-79.8724 947.765,-75.6346 952.713,-85.0029 957.475,-79.8724"/>
</g>
<!-- Node5 -->
<g id="node5" class="node"><title>Node5</title>
<polygon fill="white" stroke="#bfbfbf" points="468.275,-56.5 468.275,-75.5 523.275,-75.5 523.275,-56.5 468.275,-56.5"/>
<text text-anchor="middle" x="495.775" y="-63.5" font-family="Helvetica,sans-Serif" font-size="10.00">stdarg.h</text>
</g>
<!-- Node4&#45;&gt;Node5 -->
<g id="edge4" class="edge"><title>Node4&#45;&gt;Node5</title>
<path fill="none" stroke="midnightblue" d="M560.877,-168.373C546.257,-160.773 526.577,-148.364 514.775,-132 504.996,-118.441 500.219,-99.8923 497.903,-86.0791"/>
<polygon fill="midnightblue" stroke="midnightblue" points="501.319,-85.2294 496.482,-75.8033 494.385,-86.1886 501.319,-85.2294"/>
</g>
<!-- Node6 -->
<g id="node6" class="node"><title>Node6</title>
<polygon fill="white" stroke="#bfbfbf" points="524.275,-112.5 524.275,-131.5 571.275,-131.5 571.275,-112.5 524.275,-112.5"/>
<text text-anchor="middle" x="547.775" y="-119.5" font-family="Helvetica,sans-Serif" font-size="10.00">stdio.h</text>
</g>
<!-- Node4&#45;&gt;Node6 -->
<g id="edge5" class="edge"><title>Node4&#45;&gt;Node6</title>
<path fill="none" stroke="midnightblue" d="M574.491,-168.083C570.064,-160.613 563.611,-149.724 558.157,-140.52"/>
<polygon fill="midnightblue" stroke="midnightblue" points="561.07,-138.57 552.961,-131.751 555.048,-142.138 561.07,-138.57"/>
</g>
<!-- Node7 -->
<g id="node7" class="node"><title>Node7</title>
<g id="a_node7"><a xlink:href="a00195_source.html" target="_top" xlink:title="time.h">
<polygon fill="white" stroke="black" points="589.775,-112.5 589.775,-131.5 633.775,-131.5 633.775,-112.5 589.775,-112.5"/>
<text text-anchor="middle" x="611.775" y="-119.5" font-family="Helvetica,sans-Serif" font-size="10.00">time.h</text>
</a>
</g>
</g>
<!-- Node4&#45;&gt;Node7 -->
<g id="edge6" class="edge"><title>Node4&#45;&gt;Node7</title>
<path fill="none" stroke="midnightblue" d="M585.059,-168.083C589.486,-160.613 595.938,-149.724 601.393,-140.52"/>
<polygon fill="midnightblue" stroke="midnightblue" points="604.502,-142.138 606.589,-131.751 598.48,-138.57 604.502,-142.138"/>
</g>
<!-- Node8 -->
<g id="node8" class="node"><title>Node8</title>
<g id="a_node8"><a xlink:href="a00197_source.html" target="_top" xlink:title="freetds/version.h">
<polygon fill="white" stroke="black" points="670.275,-112.5 670.275,-131.5 765.275,-131.5 765.275,-112.5 670.275,-112.5"/>
<text text-anchor="middle" x="717.775" y="-119.5" font-family="Helvetica,sans-Serif" font-size="10.00">freetds/version.h</text>
</a>
</g>
</g>
<!-- Node4&#45;&gt;Node8 -->
<g id="edge8" class="edge"><title>Node4&#45;&gt;Node8</title>
<path fill="none" stroke="midnightblue" d="M601.641,-168.444C624.554,-159.478 660.75,-145.314 686.641,-135.183"/>
<polygon fill="midnightblue" stroke="midnightblue" points="687.974,-138.42 696.011,-131.516 685.423,-131.901 687.974,-138.42"/>
</g>
<!-- Node9 -->
<g id="node9" class="node"><title>Node9</title>
<polygon fill="white" stroke="#bfbfbf" points="783.275,-112.5 783.275,-131.5 894.275,-131.5 894.275,-112.5 783.275,-112.5"/>
<text text-anchor="middle" x="838.775" y="-119.5" font-family="Helvetica,sans-Serif" font-size="10.00">tds_sysdep_public.h</text>
</g>
<!-- Node4&#45;&gt;Node9 -->
<g id="edge9" class="edge"><title>Node4&#45;&gt;Node9</title>
<path fill="none" stroke="midnightblue" d="M617.436,-169.148C662.325,-159.789 737.548,-144.105 787.662,-133.657"/>
<polygon fill="midnightblue" stroke="midnightblue" points="788.569,-137.043 797.644,-131.576 787.14,-130.19 788.569,-137.043"/>
</g>
<!-- Node10 -->
<g id="node10" class="node"><title>Node10</title>
<g id="a_node10"><a xlink:href="a00192_source.html" target="_top" xlink:title="freetds/sysdep_private.h">
<polygon fill="white" stroke="black" points="120.275,-112.5 120.275,-131.5 253.275,-131.5 253.275,-112.5 120.275,-112.5"/>
<text text-anchor="middle" x="186.775" y="-119.5" font-family="Helvetica,sans-Serif" font-size="10.00">freetds/sysdep_private.h</text>
</a>
</g>
</g>
<!-- Node4&#45;&gt;Node10 -->
<g id="edge10" class="edge"><title>Node4&#45;&gt;Node10</title>
<path fill="none" stroke="midnightblue" d="M542.03,-170.284C537.237,-169.485 532.394,-168.704 527.775,-168 437.187,-154.189 332.676,-140.767 263.482,-132.229"/>
<polygon fill="midnightblue" stroke="midnightblue" points="263.888,-128.753 253.535,-131.005 263.033,-135.7 263.888,-128.753"/>
</g>
<!-- Node11 -->
<g id="node11" class="node"><title>Node11</title>
<g id="a_node11"><a xlink:href="a00194_source.html" target="_top" xlink:title="freetds/thread.h">
<polygon fill="white" stroke="black" points="271.775,-112.5 271.775,-131.5 363.775,-131.5 363.775,-112.5 271.775,-112.5"/>
<text text-anchor="middle" x="317.775" y="-119.5" font-family="Helvetica,sans-Serif" font-size="10.00">freetds/thread.h</text>
</a>
</g>
</g>
<!-- Node4&#45;&gt;Node11 -->
<g id="edge11" class="edge"><title>Node4&#45;&gt;Node11</title>
<path fill="none" stroke="midnightblue" d="M542.237,-169.263C496.737,-159.885 419.851,-144.039 368.95,-133.548"/>
<polygon fill="midnightblue" stroke="midnightblue" points="369.634,-130.115 359.134,-131.524 368.221,-136.971 369.634,-130.115"/>
</g>
<!-- Node4&#45;&gt;Node12 -->
<g id="edge12" class="edge"><title>Node4&#45;&gt;Node12</title>
<path fill="none" stroke="midnightblue" d="M542.058,-170.083C537.26,-169.318 532.409,-168.6 527.775,-168 346.535,-144.536 297.025,-155.199 112.587,-132.141"/>
<polygon fill="midnightblue" stroke="midnightblue" points="112.916,-128.654 102.556,-130.87 112.037,-135.599 112.916,-128.654"/>
</g>
<!-- Node15 -->
<g id="node15" class="node"><title>Node15</title>
<g id="a_node15"><a xlink:href="a00188_source.html" target="_top" xlink:title="freetds/pushvis.h">
<polygon fill="white" stroke="black" points="569.775,-0.5 569.775,-19.5 665.775,-19.5 665.775,-0.5 569.775,-0.5"/>
<text text-anchor="middle" x="617.775" y="-7.5" font-family="Helvetica,sans-Serif" font-size="10.00">freetds/pushvis.h</text>
</a>
</g>
</g>
<!-- Node4&#45;&gt;Node15 -->
<g id="edge21" class="edge"><title>Node4&#45;&gt;Node15</title>
<path fill="none" stroke="midnightblue" d="M542.141,-172.751C527.382,-171.154 510.294,-169.39 494.775,-168 440.291,-163.119 41.0138,-172.069 3.77473,-132 -2.2765,-125.489 0.778275,-120.369 3.77473,-112 14.6325,-81.6761 21.2216,-70.9047 49.7747,-56 94.1632,-32.8292 423.65,-18.161 559.489,-13.0402"/>
<polygon fill="midnightblue" stroke="midnightblue" points="559.84,-16.5296 569.702,-12.6594 559.579,-9.53449 559.84,-16.5296"/>
</g>
<!-- Node16 -->
<g id="node16" class="node"><title>Node16</title>
<g id="a_node16"><a xlink:href="a00186_source.html" target="_top" xlink:title="freetds/popvis.h">
<polygon fill="white" stroke="black" points="790.775,-0.5 790.775,-19.5 882.775,-19.5 882.775,-0.5 790.775,-0.5"/>
<text text-anchor="middle" x="836.775" y="-7.5" font-family="Helvetica,sans-Serif" font-size="10.00">freetds/popvis.h</text>
</a>
</g>
</g>
<!-- Node4&#45;&gt;Node16 -->
<g id="edge23" class="edge"><title>Node4&#45;&gt;Node16</title>
<path fill="none" stroke="midnightblue" d="M617.636,-176.29C679.065,-174.141 803.569,-165.605 902.775,-132 950.654,-115.782 976.306,-119.667 1001.77,-76 1027.53,-31.8432 950.473,-17.6221 893.131,-13.0802"/>
<polygon fill="midnightblue" stroke="midnightblue" points="893.265,-9.581 883.042,-12.3624 892.768,-16.5633 893.265,-9.581"/>
</g>
<!-- Node18 -->
<g id="node18" class="node"><title>Node18</title>
<g id="a_node18"><a xlink:href="a00187_source.html" target="_top" xlink:title="freetds/proto.h">
<polygon fill="white" stroke="black" points="381.775,-112.5 381.775,-131.5 467.775,-131.5 467.775,-112.5 381.775,-112.5"/>
<text text-anchor="middle" x="424.775" y="-119.5" font-family="Helvetica,sans-Serif" font-size="10.00">freetds/proto.h</text>
</a>
</g>
</g>
<!-- Node4&#45;&gt;Node18 -->
<g id="edge22" class="edge"><title>Node4&#45;&gt;Node18</title>
<path fill="none" stroke="midnightblue" d="M555.215,-168.444C529.252,-159.399 488.107,-145.064 458.978,-134.916"/>
<polygon fill="midnightblue" stroke="midnightblue" points="459.815,-131.501 449.22,-131.516 457.512,-138.112 459.815,-131.501"/>
</g>
<!-- Node7&#45;&gt;Node7 -->
<g id="edge7" class="edge"><title>Node7&#45;&gt;Node7</title>
<path fill="none" stroke="midnightblue" d="M629.043,-131.575C640.562,-134.27 651.775,-131.078 651.775,-122 651.775,-115.759 646.475,-112.3 639.42,-111.623"/>
<polygon fill="midnightblue" stroke="midnightblue" points="638.744,-108.165 629.043,-112.425 639.283,-115.144 638.744,-108.165"/>
</g>
<!-- Node12&#45;&gt;Node5 -->
<g id="edge13" class="edge"><title>Node12&#45;&gt;Node5</title>
<path fill="none" stroke="midnightblue" d="M102.275,-113.227C105.149,-112.792 108.001,-112.379 110.775,-112 261.529,-91.4248 303.745,-101.959 457.676,-75.9553"/>
<polygon fill="midnightblue" stroke="midnightblue" points="458.714,-79.3284 467.979,-74.1889 457.531,-72.4291 458.714,-79.3284"/>
</g>
<!-- Node13 -->
<g id="node13" class="node"><title>Node13</title>
<g id="a_node13"><a xlink:href="a00210_source.html" target="_top" xlink:title="tds_sysdep_public.h">
<polygon fill="white" stroke="black" points="339.275,-56.5 339.275,-75.5 450.275,-75.5 450.275,-56.5 339.275,-56.5"/>
<text text-anchor="middle" x="394.775" y="-63.5" font-family="Helvetica,sans-Serif" font-size="10.00">tds_sysdep_public.h</text>
</a>
</g>
</g>
<!-- Node12&#45;&gt;Node13 -->
<g id="edge14" class="edge"><title>Node12&#45;&gt;Node13</title>
<path fill="none" stroke="midnightblue" d="M102.302,-113.402C105.169,-112.924 108.012,-112.453 110.775,-112 185.826,-99.6821 272.133,-86.0877 329.718,-77.0989"/>
<polygon fill="midnightblue" stroke="midnightblue" points="330.43,-80.5303 339.771,-75.5309 329.351,-73.6139 330.43,-80.5303"/>
</g>
<!-- Node14 -->
<g id="node14" class="node"><title>Node14</title>
<g id="a_node14"><a xlink:href="a00203_source.html" target="_top" xlink:title="replacements/readpassphrase.h">
<polygon fill="white" stroke="black" points="152.275,-56.5 152.275,-75.5 321.275,-75.5 321.275,-56.5 152.275,-56.5"/>
<text text-anchor="middle" x="236.775" y="-63.5" font-family="Helvetica,sans-Serif" font-size="10.00">replacements/readpassphrase.h</text>
</a>
</g>
</g>
<!-- Node12&#45;&gt;Node14 -->
<g id="edge15" class="edge"><title>Node12&#45;&gt;Node14</title>
<path fill="none" stroke="midnightblue" d="M86.1378,-112.444C116.513,-103.28 164.884,-88.6876 198.591,-78.5192"/>
<polygon fill="midnightblue" stroke="midnightblue" points="199.981,-81.7555 208.544,-75.5164 197.96,-75.0538 199.981,-81.7555"/>
</g>
<!-- Node12&#45;&gt;Node15 -->
<g id="edge19" class="edge"><title>Node12&#45;&gt;Node15</title>
<path fill="none" stroke="midnightblue" d="M55.3598,-112.424C52.0115,-98.4705 47.9198,-70.9164 62.7747,-56 97.2627,-21.3692 423.608,-13.3706 559.174,-11.5384"/>
<polygon fill="midnightblue" stroke="midnightblue" points="559.418,-15.0356 569.372,-11.4074 559.328,-8.03622 559.418,-15.0356"/>
</g>
<!-- Node12&#45;&gt;Node16 -->
<g id="edge20" class="edge"><title>Node12&#45;&gt;Node16</title>
<path fill="none" stroke="midnightblue" d="M102.539,-112.987C105.321,-112.617 108.083,-112.283 110.775,-112 159.105,-106.922 951.126,-111.063 984.775,-76 1016.6,-42.8329 947.106,-25.498 892.92,-17.3139"/>
<polygon fill="midnightblue" stroke="midnightblue" points="893.404,-13.8476 883.008,-15.8904 892.409,-20.7765 893.404,-13.8476"/>
</g>
<!-- Node17 -->
<g id="node17" class="node"><title>Node17</title>
<g id="a_node17"><a xlink:href="a00178.html" target="_top" xlink:title="Provide poll call where missing. ">
<polygon fill="white" stroke="red" points="71.7747,-56.5 71.7747,-75.5 133.775,-75.5 133.775,-56.5 71.7747,-56.5"/>
<text text-anchor="middle" x="102.775" y="-63.5" font-family="Helvetica,sans-Serif" font-size="10.00">fakepoll.h</text>
</a>
</g>
</g>
<!-- Node12&#45;&gt;Node17 -->
<g id="edge18" class="edge"><title>Node12&#45;&gt;Node17</title>
<path fill="none" stroke="midnightblue" d="M65.2056,-112.083C71.6274,-104.377 81.0803,-93.0333 88.8972,-83.6531"/>
<polygon fill="midnightblue" stroke="midnightblue" points="91.7691,-85.674 95.4822,-75.7511 86.3915,-81.1927 91.7691,-85.674"/>
</g>
<!-- Node14&#45;&gt;Node15 -->
<g id="edge16" class="edge"><title>Node14&#45;&gt;Node15</title>
<path fill="none" stroke="midnightblue" d="M297.145,-56.4435C369.142,-46.2392 488.641,-29.3024 559.638,-19.2398"/>
<polygon fill="midnightblue" stroke="midnightblue" points="560.34,-22.6754 569.75,-17.8067 559.358,-15.7447 560.34,-22.6754"/>
</g>
<!-- Node14&#45;&gt;Node16 -->
<g id="edge17" class="edge"><title>Node14&#45;&gt;Node16</title>
<path fill="none" stroke="midnightblue" d="M321.419,-56.7798C324.238,-56.5153 327.029,-56.2547 329.775,-56 493.458,-40.8161 686.973,-23.9375 780.532,-15.8449"/>
<polygon fill="midnightblue" stroke="midnightblue" points="780.965,-19.3207 790.626,-14.9724 780.362,-12.3467 780.965,-19.3207"/>
</g>
<!-- Node19&#45;&gt;Node15 -->
<g id="edge25" class="edge"><title>Node19&#45;&gt;Node15</title>
<path fill="none" stroke="midnightblue" d="M617.775,-56.083C617.775,-49.0059 617.775,-38.8611 617.775,-29.9865"/>
<polygon fill="midnightblue" stroke="midnightblue" points="621.275,-29.751 617.775,-19.7511 614.275,-29.7511 621.275,-29.751"/>
</g>
<!-- Node19&#45;&gt;Node16 -->
<g id="edge26" class="edge"><title>Node19&#45;&gt;Node16</title>
<path fill="none" stroke="midnightblue" d="M652.476,-56.4435C690.36,-47.1024 751.124,-32.1194 792.437,-21.9326"/>
<polygon fill="midnightblue" stroke="midnightblue" points="793.365,-25.3088 802.236,-19.5164 791.689,-18.5123 793.365,-25.3088"/>
</g>
<!-- Node20&#45;&gt;Node15 -->
<g id="edge28" class="edge"><title>Node20&#45;&gt;Node15</title>
<path fill="none" stroke="midnightblue" d="M710.101,-56.324C692.381,-47.6247 664.872,-34.1202 644.486,-24.113"/>
<polygon fill="midnightblue" stroke="midnightblue" points="645.923,-20.9195 635.404,-19.6545 642.839,-27.2031 645.923,-20.9195"/>
</g>
<!-- Node20&#45;&gt;Node16 -->
<g id="edge29" class="edge"><title>Node20&#45;&gt;Node16</title>
<path fill="none" stroke="midnightblue" d="M745.287,-56.324C762.847,-47.6247 790.106,-34.1202 810.306,-24.113"/>
<polygon fill="midnightblue" stroke="midnightblue" points="811.899,-27.23 819.305,-19.6545 808.791,-20.9575 811.899,-27.23"/>
</g>
<!-- Node21&#45;&gt;Node15 -->
<g id="edge31" class="edge"><title>Node21&#45;&gt;Node15</title>
<path fill="none" stroke="midnightblue" d="M802.074,-56.4435C764.19,-47.1024 703.426,-32.1194 662.112,-21.9326"/>
<polygon fill="midnightblue" stroke="midnightblue" points="662.861,-18.5123 652.314,-19.5164 661.185,-25.3088 662.861,-18.5123"/>
</g>
<!-- Node21&#45;&gt;Node16 -->
<g id="edge32" class="edge"><title>Node21&#45;&gt;Node16</title>
<path fill="none" stroke="midnightblue" d="M836.775,-56.083C836.775,-49.0059 836.775,-38.8611 836.775,-29.9865"/>
<polygon fill="midnightblue" stroke="midnightblue" points="840.275,-29.751 836.775,-19.7511 833.275,-29.7511 840.275,-29.751"/>
</g>
<!-- Node22&#45;&gt;Node15 -->
<g id="edge34" class="edge"><title>Node22&#45;&gt;Node15</title>
<path fill="none" stroke="midnightblue" d="M897.754,-57.6135C894.717,-57.06 891.697,-56.5165 888.775,-56 815.381,-43.0272 730.607,-29.1239 675.696,-20.2603"/>
<polygon fill="midnightblue" stroke="midnightblue" points="676.23,-16.8012 665.8,-18.6653 675.116,-23.712 676.23,-16.8012"/>
</g>
<!-- Node22&#45;&gt;Node16 -->
<g id="edge35" class="edge"><title>Node22&#45;&gt;Node16</title>
<path fill="none" stroke="midnightblue" d="M920.708,-56.324C904.817,-47.7428 880.267,-34.486 861.816,-24.5224"/>
<polygon fill="midnightblue" stroke="midnightblue" points="863.264,-21.3264 852.802,-19.6545 859.938,-27.4857 863.264,-21.3264"/>
</g>
</g>
</svg>
