<?xml version="1.0" encoding="UTF-8" standalone="no"?>
<!DOCTYPE svg PUBLIC "-//W3C//DTD SVG 1.1//EN"
 "http://www.w3.org/Graphics/SVG/1.1/DTD/svg11.dtd">
<!-- Generated by graphviz version 2.38.0 (20140413.2041)
 -->
<!-- Title: tds7_build_param_def_from_query Pages: 1 -->
<svg width="721pt" height="318pt"
 viewBox="0.00 0.00 721.00 318.47" xmlns="http://www.w3.org/2000/svg" xmlns:xlink="http://www.w3.org/1999/xlink">
<g id="graph0" class="graph" transform="scale(1 1) rotate(0) translate(4 314.469)">
<title>tds7_build_param_def_from_query</title>
<polygon fill="white" stroke="none" points="-4,4 -4,-314.469 717,-314.469 717,4 -4,4"/>
<!-- Node1 -->
<g id="node1" class="node"><title>Node1</title>
<polygon fill="#bfbfbf" stroke="black" points="0,-90 0,-120 121,-120 121,-90 0,-90"/>
<text text-anchor="start" x="8" y="-108" font-family="Helvetica,sans-Serif" font-size="10.00">tds7_build_param_def</text>
<text text-anchor="middle" x="60.5" y="-97" font-family="Helvetica,sans-Serif" font-size="10.00">_from_query</text>
</g>
<!-- Node2 -->
<g id="node2" class="node"><title>Node2</title>
<g id="a_node2"><a xlink:href="a00356.html#ga95e0fccedc459a4404f496eec74a369a" target="_top" xlink:title="tds_submit_query_params() sends a language string to the database server for processing. ">
<polygon fill="white" stroke="black" points="157,-152.5 157,-171.5 297,-171.5 297,-152.5 157,-152.5"/>
<text text-anchor="middle" x="227" y="-159.5" font-family="Helvetica,sans-Serif" font-size="10.00">tds_submit_query_params</text>
</a>
</g>
</g>
<!-- Node1&#45;&gt;Node2 -->
<g id="edge1" class="edge"><title>Node1&#45;&gt;Node2</title>
<path fill="none" stroke="midnightblue" d="M106.122,-123.933C122.038,-130.372 140.188,-137.36 157,-143 167.131,-146.399 178.242,-149.658 188.531,-152.488"/>
<polygon fill="midnightblue" stroke="midnightblue" points="107.113,-120.557 96.5323,-120.012 104.464,-127.037 107.113,-120.557"/>
</g>
<!-- Node13 -->
<g id="node13" class="node"><title>Node13</title>
<g id="a_node13"><a xlink:href="a00356.html#ga74eb08c3a1c85be8ac9db428842c8b9d" target="_top" xlink:title="tds_submit_prepare() creates a temporary stored procedure in the server. ">
<polygon fill="white" stroke="black" points="172,-114.5 172,-133.5 282,-133.5 282,-114.5 172,-114.5"/>
<text text-anchor="middle" x="227" y="-121.5" font-family="Helvetica,sans-Serif" font-size="10.00">tds_submit_prepare</text>
</a>
</g>
</g>
<!-- Node1&#45;&gt;Node13 -->
<g id="edge13" class="edge"><title>Node1&#45;&gt;Node13</title>
<path fill="none" stroke="midnightblue" d="M131.567,-113.093C145.07,-114.652 159.02,-116.264 171.919,-117.754"/>
<polygon fill="midnightblue" stroke="midnightblue" points="131.689,-109.584 121.354,-111.913 130.886,-116.538 131.689,-109.584"/>
</g>
<!-- Node14 -->
<g id="node14" class="node"><title>Node14</title>
<g id="a_node14"><a xlink:href="a00356.html#gae603aed795a4c5bb26ab159a11256996" target="_top" xlink:title="Submit a prepared query with parameters. ">
<polygon fill="white" stroke="black" points="166.5,-76.5 166.5,-95.5 287.5,-95.5 287.5,-76.5 166.5,-76.5"/>
<text text-anchor="middle" x="227" y="-83.5" font-family="Helvetica,sans-Serif" font-size="10.00">tds_submit_execdirect</text>
</a>
</g>
</g>
<!-- Node1&#45;&gt;Node14 -->
<g id="edge14" class="edge"><title>Node1&#45;&gt;Node14</title>
<path fill="none" stroke="midnightblue" d="M131.479,-96.9173C143.126,-95.572 155.11,-94.1879 166.466,-92.8762"/>
<polygon fill="midnightblue" stroke="midnightblue" points="130.886,-93.4625 121.354,-98.0868 131.689,-100.416 130.886,-93.4625"/>
</g>
<!-- Node15 -->
<g id="node15" class="node"><title>Node15</title>
<g id="a_node15"><a xlink:href="a00356.html#ga08877c101704bebe4fa57e0849dc272d" target="_top" xlink:title="tds71_submit_prepexec() creates a temporary stored procedure in the server. ">
<polygon fill="white" stroke="black" points="163,-38.5 163,-57.5 291,-57.5 291,-38.5 163,-38.5"/>
<text text-anchor="middle" x="227" y="-45.5" font-family="Helvetica,sans-Serif" font-size="10.00">tds71_submit_prepexec</text>
</a>
</g>
</g>
<!-- Node1&#45;&gt;Node15 -->
<g id="edge15" class="edge"><title>Node1&#45;&gt;Node15</title>
<path fill="none" stroke="midnightblue" d="M106.122,-86.0666C122.038,-79.6278 140.188,-72.6404 157,-67 167.131,-63.6012 178.242,-60.3417 188.531,-57.5115"/>
<polygon fill="midnightblue" stroke="midnightblue" points="104.464,-82.9633 96.5323,-89.9878 107.113,-89.4425 104.464,-82.9633"/>
</g>
<!-- Node3 -->
<g id="node3" class="node"><title>Node3</title>
<g id="a_node3"><a xlink:href="a00356.html#ga5a29ae7f99d089dc3cea85ec6ee5f3ab" target="_top" xlink:title="tds_submit_query() sends a language string to the database server for processing. ...">
<polygon fill="white" stroke="black" points="333,-152.5 333,-171.5 431,-171.5 431,-152.5 333,-152.5"/>
<text text-anchor="middle" x="382" y="-159.5" font-family="Helvetica,sans-Serif" font-size="10.00">tds_submit_query</text>
</a>
</g>
</g>
<!-- Node2&#45;&gt;Node3 -->
<g id="edge2" class="edge"><title>Node2&#45;&gt;Node3</title>
<path fill="none" stroke="midnightblue" d="M307.507,-162C316.173,-162 324.788,-162 332.905,-162"/>
<polygon fill="midnightblue" stroke="midnightblue" points="307.337,-158.5 297.337,-162 307.337,-165.5 307.337,-158.5"/>
</g>
<!-- Node4 -->
<g id="node4" class="node"><title>Node4</title>
<g id="a_node4"><a xlink:href="a00344.html#gae67546338cb9542a4902aa914f57f314" target="_top" xlink:title="_bcp_exec_out">
<polygon fill="white" stroke="red" points="625,-266.5 625,-285.5 713,-285.5 713,-266.5 625,-266.5"/>
<text text-anchor="middle" x="669" y="-273.5" font-family="Helvetica,sans-Serif" font-size="10.00">_bcp_exec_out</text>
</a>
</g>
</g>
<!-- Node3&#45;&gt;Node4 -->
<g id="edge3" class="edge"><title>Node3&#45;&gt;Node4</title>
<path fill="none" stroke="midnightblue" d="M388.694,-181.708C398.757,-212.421 422.906,-270.697 467,-295 525.325,-327.147 607.793,-301.11 646.439,-285.548"/>
<polygon fill="midnightblue" stroke="midnightblue" points="391.913,-180.271 385.613,-171.753 385.226,-182.341 391.913,-180.271"/>
</g>
<!-- Node5 -->
<g id="node5" class="node"><title>Node5</title>
<g id="a_node5"><a xlink:href="a00341.html#gac980139b9cea03cf93e373d425991481" target="_top" xlink:title="Transmit the command buffer to the server. ">
<polygon fill="white" stroke="red" points="495.5,-266.5 495.5,-285.5 560.5,-285.5 560.5,-266.5 495.5,-266.5"/>
<text text-anchor="middle" x="528" y="-273.5" font-family="Helvetica,sans-Serif" font-size="10.00">dbsqlsend</text>
</a>
</g>
</g>
<!-- Node3&#45;&gt;Node5 -->
<g id="edge4" class="edge"><title>Node3&#45;&gt;Node5</title>
<path fill="none" stroke="midnightblue" d="M394.483,-180.102C408.922,-201.452 435.652,-236.608 467,-257 475.518,-262.541 485.766,-266.564 495.362,-269.44"/>
<polygon fill="midnightblue" stroke="midnightblue" points="397.325,-178.054 388.905,-171.624 391.477,-181.902 397.325,-178.054"/>
</g>
<!-- Node6 -->
<g id="node6" class="node"><title>Node6</title>
<g id="a_node6"><a xlink:href="a00356.html#gad695defcbf663b0023851a198206a772" target="_top" xlink:title="Format and submit a query. ">
<polygon fill="white" stroke="red" points="477.5,-228.5 477.5,-247.5 578.5,-247.5 578.5,-228.5 477.5,-228.5"/>
<text text-anchor="middle" x="528" y="-235.5" font-family="Helvetica,sans-Serif" font-size="10.00">tds_submit_queryf</text>
</a>
</g>
</g>
<!-- Node3&#45;&gt;Node6 -->
<g id="edge5" class="edge"><title>Node3&#45;&gt;Node6</title>
<path fill="none" stroke="midnightblue" d="M403.101,-178.102C419.513,-190.625 443.718,-207.712 467,-219 474.472,-222.623 482.796,-225.769 490.807,-228.403"/>
<polygon fill="midnightblue" stroke="midnightblue" points="404.884,-175.054 394.841,-171.68 400.588,-180.581 404.884,-175.054"/>
</g>
<!-- Node7 -->
<g id="node7" class="node"><title>Node7</title>
<g id="a_node7"><a xlink:href="a00356.html#gaf0da49585d39e99780a004ee2ca23479" target="_top" xlink:title="Send option commands to server. ">
<polygon fill="white" stroke="black" points="467.5,-190.5 467.5,-209.5 588.5,-209.5 588.5,-190.5 467.5,-190.5"/>
<text text-anchor="middle" x="528" y="-197.5" font-family="Helvetica,sans-Serif" font-size="10.00">tds_submit_optioncmd</text>
</a>
</g>
</g>
<!-- Node3&#45;&gt;Node7 -->
<g id="edge7" class="edge"><title>Node3&#45;&gt;Node7</title>
<path fill="none" stroke="midnightblue" d="M429.172,-174.184C449.164,-179.46 472.219,-185.544 490.924,-190.48"/>
<polygon fill="midnightblue" stroke="midnightblue" points="429.899,-170.756 419.337,-171.589 428.113,-177.525 429.899,-170.756"/>
</g>
<!-- Node8 -->
<g id="node8" class="node"><title>Node8</title>
<g id="a_node8"><a xlink:href="a00356.html#ga7bf3670d3d6dabed469b9eb117298079" target="_top" xlink:title="Send a rollback request. ">
<polygon fill="white" stroke="black" points="467,-152.5 467,-171.5 589,-171.5 589,-152.5 467,-152.5"/>
<text text-anchor="middle" x="528" y="-159.5" font-family="Helvetica,sans-Serif" font-size="10.00">tds_submit_begin_tran</text>
</a>
</g>
</g>
<!-- Node3&#45;&gt;Node8 -->
<g id="edge8" class="edge"><title>Node3&#45;&gt;Node8</title>
<path fill="none" stroke="midnightblue" d="M441.389,-162C449.748,-162 458.361,-162 466.755,-162"/>
<polygon fill="midnightblue" stroke="midnightblue" points="441.351,-158.5 431.351,-162 441.35,-165.5 441.351,-158.5"/>
</g>
<!-- Node9 -->
<g id="node9" class="node"><title>Node9</title>
<g id="a_node9"><a xlink:href="a00356.html#ga9c1cdcc388506a2ca3c0aaee8c461ba6" target="_top" xlink:title="Send a rollback request. ">
<polygon fill="white" stroke="black" points="474,-114.5 474,-133.5 582,-133.5 582,-114.5 474,-114.5"/>
<text text-anchor="middle" x="528" y="-121.5" font-family="Helvetica,sans-Serif" font-size="10.00">tds_submit_rollback</text>
</a>
</g>
</g>
<!-- Node3&#45;&gt;Node9 -->
<g id="edge9" class="edge"><title>Node3&#45;&gt;Node9</title>
<path fill="none" stroke="midnightblue" d="M429.172,-149.816C449.164,-144.54 472.219,-138.456 490.924,-133.52"/>
<polygon fill="midnightblue" stroke="midnightblue" points="428.113,-146.475 419.337,-152.411 429.899,-153.244 428.113,-146.475"/>
</g>
<!-- Node10 -->
<g id="node10" class="node"><title>Node10</title>
<g id="a_node10"><a xlink:href="a00356.html#ga530538c4c975524cf0b771a550fc94a3" target="_top" xlink:title="Send a commit request. ">
<polygon fill="white" stroke="black" points="475.5,-76.5 475.5,-95.5 580.5,-95.5 580.5,-76.5 475.5,-76.5"/>
<text text-anchor="middle" x="528" y="-83.5" font-family="Helvetica,sans-Serif" font-size="10.00">tds_submit_commit</text>
</a>
</g>
</g>
<!-- Node3&#45;&gt;Node10 -->
<g id="edge10" class="edge"><title>Node3&#45;&gt;Node10</title>
<path fill="none" stroke="midnightblue" d="M403.101,-145.898C419.513,-133.375 443.718,-116.288 467,-105 474.472,-101.377 482.796,-98.2309 490.807,-95.5975"/>
<polygon fill="midnightblue" stroke="midnightblue" points="400.588,-143.419 394.841,-152.32 404.884,-148.946 400.588,-143.419"/>
</g>
<!-- Node11 -->
<g id="node11" class="node"><title>Node11</title>
<g id="a_node11"><a xlink:href="a00193.html#a8208eef2a3974ae1f0cf3c8c8ab011ce" target="_top" xlink:title="Start sending BCP data to server. ">
<polygon fill="white" stroke="red" points="488,-38.5 488,-57.5 568,-57.5 568,-38.5 488,-38.5"/>
<text text-anchor="middle" x="528" y="-45.5" font-family="Helvetica,sans-Serif" font-size="10.00">tds_bcp_start</text>
</a>
</g>
</g>
<!-- Node3&#45;&gt;Node11 -->
<g id="edge11" class="edge"><title>Node3&#45;&gt;Node11</title>
<path fill="none" stroke="midnightblue" d="M394.483,-143.898C408.922,-122.548 435.652,-87.3917 467,-67 473.32,-62.889 480.592,-59.6138 487.843,-57.0224"/>
<polygon fill="midnightblue" stroke="midnightblue" points="391.477,-142.098 388.905,-152.376 397.325,-145.946 391.477,-142.098"/>
</g>
<!-- Node12 -->
<g id="node12" class="node"><title>Node12</title>
<g id="a_node12"><a xlink:href="a00359.html#ga55f27c3e05d42c9b07ace1c74b11c5ab" target="_top" xlink:title="Retrieve and set @spid. ">
<polygon fill="white" stroke="red" points="489.5,-0.5 489.5,-19.5 566.5,-19.5 566.5,-0.5 489.5,-0.5"/>
<text text-anchor="middle" x="528" y="-7.5" font-family="Helvetica,sans-Serif" font-size="10.00">tds_set_spid</text>
</a>
</g>
</g>
<!-- Node3&#45;&gt;Node12 -->
<g id="edge12" class="edge"><title>Node3&#45;&gt;Node12</title>
<path fill="none" stroke="midnightblue" d="M390.023,-142.971C401.628,-114.12 427.52,-59.456 467,-29 473.575,-23.9278 481.534,-20.1927 489.476,-17.4477"/>
<polygon fill="midnightblue" stroke="midnightblue" points="386.742,-141.75 386.395,-152.339 393.27,-144.278 386.742,-141.75"/>
</g>
<!-- Node6&#45;&gt;Node4 -->
<g id="edge6" class="edge"><title>Node6&#45;&gt;Node4</title>
<path fill="none" stroke="midnightblue" d="M573.795,-250.246C592.955,-255.484 614.994,-261.509 632.936,-266.414"/>
<polygon fill="midnightblue" stroke="midnightblue" points="574.645,-246.85 564.076,-247.589 572.799,-253.602 574.645,-246.85"/>
</g>
</g>
</svg>
