<?xml version="1.0" encoding="UTF-8" standalone="no"?>
<!DOCTYPE svg PUBLIC "-//W3C//DTD SVG 1.1//EN"
 "http://www.w3.org/Graphics/SVG/1.1/DTD/svg11.dtd">
<!-- Generated by graphviz version 2.38.0 (20140413.2041)
 -->
<!-- Title: tds_process_env_chg Pages: 1 -->
<svg width="884pt" height="516pt"
 viewBox="0.00 0.00 884.00 516.33" xmlns="http://www.w3.org/2000/svg" xmlns:xlink="http://www.w3.org/1999/xlink">
<g id="graph0" class="graph" transform="scale(1 1) rotate(0) translate(4 512.333)">
<title>tds_process_env_chg</title>
<polygon fill="white" stroke="none" points="-4,4 -4,-512.333 880,-512.333 880,4 -4,4"/>
<!-- Node1 -->
<g id="node1" class="node"><title>Node1</title>
<polygon fill="#bfbfbf" stroke="black" points="0,-278.5 0,-297.5 121,-297.5 121,-278.5 0,-278.5"/>
<text text-anchor="middle" x="60.5" y="-285.5" font-family="Helvetica,sans-Serif" font-size="10.00">tds_process_env_chg</text>
</g>
<!-- Node2 -->
<g id="node2" class="node"><title>Node2</title>
<g id="a_node2"><a xlink:href="a00359.html#ga39453d084f3f780ac4602d4abf2839f7" target="_top" xlink:title="tds_process_default_tokens() is a catch all function that is called to process tokens not known to ot...">
<polygon fill="white" stroke="black" points="157,-273 157,-303 269,-303 269,-273 157,-273"/>
<text text-anchor="start" x="165" y="-291" font-family="Helvetica,sans-Serif" font-size="10.00">tds_process_default</text>
<text text-anchor="middle" x="213" y="-280" font-family="Helvetica,sans-Serif" font-size="10.00">_tokens</text>
</a>
</g>
</g>
<!-- Node1&#45;&gt;Node2 -->
<g id="edge1" class="edge"><title>Node1&#45;&gt;Node2</title>
<path fill="none" stroke="midnightblue" d="M131.608,-288C140.023,-288 148.525,-288 156.689,-288"/>
<polygon fill="midnightblue" stroke="midnightblue" points="131.414,-284.5 121.414,-288 131.414,-291.5 131.414,-284.5"/>
</g>
<!-- Node3 -->
<g id="node3" class="node"><title>Node3</title>
<g id="a_node3"><a xlink:href="a00359.html#ga93945b42d45ee28ae1296b35a1c1e9bb" target="_top" xlink:title="tds_process_login_tokens() is called after sending the login packet to the server. ">
<polygon fill="white" stroke="black" points="736,-487.5 736,-506.5 876,-506.5 876,-487.5 736,-487.5"/>
<text text-anchor="middle" x="806" y="-494.5" font-family="Helvetica,sans-Serif" font-size="10.00">tds_process_login_tokens</text>
</a>
</g>
</g>
<!-- Node2&#45;&gt;Node3 -->
<g id="edge2" class="edge"><title>Node2&#45;&gt;Node3</title>
<path fill="none" stroke="midnightblue" d="M240.807,-309.435C299.583,-354.893 445.988,-459.838 589,-497 636.909,-509.449 692.84,-509.06 735.782,-505.762"/>
<polygon fill="midnightblue" stroke="midnightblue" points="242.819,-306.566 232.782,-303.175 238.514,-312.086 242.819,-306.566"/>
</g>
<!-- Node4 -->
<g id="node4" class="node"><title>Node4</title>
<g id="a_node4"><a xlink:href="a00359.html#gabfc9de1d1fe718818caf63a4be4035a6" target="_top" xlink:title="process all streams. ">
<polygon fill="white" stroke="black" points="441,-259.5 441,-278.5 553,-278.5 553,-259.5 441,-259.5"/>
<text text-anchor="middle" x="497" y="-266.5" font-family="Helvetica,sans-Serif" font-size="10.00">tds_process_tokens</text>
</a>
</g>
</g>
<!-- Node2&#45;&gt;Node4 -->
<g id="edge3" class="edge"><title>Node2&#45;&gt;Node4</title>
<path fill="none" stroke="midnightblue" d="M279.463,-291.317C316.416,-292.36 363.393,-292.297 405,-288 422.98,-286.143 442.646,-282.274 459.08,-278.509"/>
<polygon fill="midnightblue" stroke="midnightblue" points="279.424,-287.814 269.318,-290.997 279.203,-294.811 279.424,-287.814"/>
</g>
<!-- Node18 -->
<g id="node18" class="node"><title>Node18</title>
<g id="a_node18"><a xlink:href="a00359.html#ga81cdf0ed9e8d29cf1ddf66e18efc407d" target="_top" xlink:title="tds_process_msg() is called for MSG, ERR, or EED tokens and is responsible for calling the CLI&#39;s mess...">
<polygon fill="white" stroke="black" points="305,-259.5 305,-278.5 405,-278.5 405,-259.5 305,-259.5"/>
<text text-anchor="middle" x="355" y="-266.5" font-family="Helvetica,sans-Serif" font-size="10.00">tds_process_msg</text>
</a>
</g>
</g>
<!-- Node2&#45;&gt;Node18 -->
<g id="edge20" class="edge"><title>Node2&#45;&gt;Node18</title>
<path fill="none" stroke="midnightblue" d="M279.369,-272.392C287.983,-271.174 296.69,-270.08 304.967,-269.181"/>
<polygon fill="midnightblue" stroke="midnightblue" points="278.713,-268.95 269.332,-273.874 279.736,-275.875 278.713,-268.95"/>
</g>
<!-- Node5 -->
<g id="node5" class="node"><title>Node5</title>
<g id="a_node5"><a xlink:href="a00344.html#gae67546338cb9542a4902aa914f57f314" target="_top" xlink:title="_bcp_exec_out">
<polygon fill="white" stroke="red" points="600.5,-430.5 600.5,-449.5 688.5,-449.5 688.5,-430.5 600.5,-430.5"/>
<text text-anchor="middle" x="644.5" y="-437.5" font-family="Helvetica,sans-Serif" font-size="10.00">_bcp_exec_out</text>
</a>
</g>
</g>
<!-- Node4&#45;&gt;Node5 -->
<g id="edge4" class="edge"><title>Node4&#45;&gt;Node5</title>
<path fill="none" stroke="midnightblue" d="M504.573,-288.324C516.44,-320.404 544.431,-384.708 589,-421 593.74,-424.86 599.315,-427.959 605.059,-430.44"/>
<polygon fill="midnightblue" stroke="midnightblue" points="507.821,-287.011 501.166,-278.767 501.227,-289.362 507.821,-287.011"/>
</g>
<!-- Node6 -->
<g id="node6" class="node"><title>Node6</title>
<g id="a_node6"><a xlink:href="a00341.html#gaf1879b85e8238c015b9648d077665285" target="_top" xlink:title="_dbresults">
<polygon fill="white" stroke="red" points="612,-392.5 612,-411.5 677,-411.5 677,-392.5 612,-392.5"/>
<text text-anchor="middle" x="644.5" y="-399.5" font-family="Helvetica,sans-Serif" font-size="10.00">_dbresults</text>
</a>
</g>
</g>
<!-- Node4&#45;&gt;Node6 -->
<g id="edge5" class="edge"><title>Node4&#45;&gt;Node6</title>
<path fill="none" stroke="midnightblue" d="M508.309,-287.653C523.069,-312.733 552.513,-357.156 589,-383 595.787,-387.807 603.902,-391.494 611.77,-394.283"/>
<polygon fill="midnightblue" stroke="midnightblue" points="511.232,-285.714 503.225,-278.776 505.158,-289.193 511.232,-285.714"/>
</g>
<!-- Node7 -->
<g id="node7" class="node"><title>Node7</title>
<g id="a_node7"><a xlink:href="a00342.html#gaff09873008411a0573f6d1a9e6c7cf4b" target="_top" xlink:title="Get count of output parameters filled by a stored procedure. ">
<polygon fill="white" stroke="red" points="612,-354.5 612,-373.5 677,-373.5 677,-354.5 612,-354.5"/>
<text text-anchor="middle" x="644.5" y="-361.5" font-family="Helvetica,sans-Serif" font-size="10.00">dbnumrets</text>
</a>
</g>
</g>
<!-- Node4&#45;&gt;Node7 -->
<g id="edge6" class="edge"><title>Node4&#45;&gt;Node7</title>
<path fill="none" stroke="midnightblue" d="M516.387,-285.576C534.1,-300.987 562.097,-323.922 589,-340 598.229,-345.516 608.955,-350.511 618.437,-354.498"/>
<polygon fill="midnightblue" stroke="midnightblue" points="518.382,-282.669 508.568,-278.678 513.751,-287.918 518.382,-282.669"/>
</g>
<!-- Node8 -->
<g id="node8" class="node"><title>Node8</title>
<g id="a_node8"><a xlink:href="a00341.html#gae1f50a6a2c31fda57cb481922b06841e" target="_top" xlink:title="Wait for results of a query from the server. ">
<polygon fill="white" stroke="red" points="618,-278.5 618,-297.5 671,-297.5 671,-278.5 618,-278.5"/>
<text text-anchor="middle" x="644.5" y="-285.5" font-family="Helvetica,sans-Serif" font-size="10.00">dbsqlok</text>
</a>
</g>
</g>
<!-- Node4&#45;&gt;Node8 -->
<g id="edge7" class="edge"><title>Node4&#45;&gt;Node8</title>
<path fill="none" stroke="midnightblue" d="M563.024,-277.491C582.364,-280.017 602.44,-282.638 617.702,-284.631"/>
<polygon fill="midnightblue" stroke="midnightblue" points="563.376,-274.007 553.007,-276.183 562.47,-280.949 563.376,-274.007"/>
</g>
<!-- Node9 -->
<g id="node9" class="node"><title>Node9</title>
<g id="a_node9"><a xlink:href="a00341.html#ga548153eb2eae76c48aa9d4b72258dc1c" target="_top" xlink:title="Send text or image data to the server. ">
<polygon fill="white" stroke="black" points="772,-297.5 772,-316.5 840,-316.5 840,-297.5 772,-297.5"/>
<text text-anchor="middle" x="806" y="-304.5" font-family="Helvetica,sans-Serif" font-size="10.00">dbwritetext</text>
</a>
</g>
</g>
<!-- Node4&#45;&gt;Node9 -->
<g id="edge10" class="edge"><title>Node4&#45;&gt;Node9</title>
<path fill="none" stroke="midnightblue" d="M524.252,-283.235C541.97,-292.01 566.196,-302.43 589,-307 652.61,-319.748 728.89,-315.266 771.666,-311.02"/>
<polygon fill="midnightblue" stroke="midnightblue" points="525.626,-280.007 515.128,-278.577 522.443,-286.242 525.626,-280.007"/>
</g>
<!-- Node10 -->
<g id="node10" class="node"><title>Node10</title>
<g id="a_node10"><a xlink:href="a00341.html#ga559e24ba70d0d96c3469eb6ab8f74e05" target="_top" xlink:title="Cancel the query currently being retrieved, discarding all pending rows. ">
<polygon fill="white" stroke="red" points="609,-240.5 609,-259.5 680,-259.5 680,-240.5 609,-240.5"/>
<text text-anchor="middle" x="644.5" y="-247.5" font-family="Helvetica,sans-Serif" font-size="10.00">dbcanquery</text>
</a>
</g>
</g>
<!-- Node4&#45;&gt;Node10 -->
<g id="edge9" class="edge"><title>Node4&#45;&gt;Node10</title>
<path fill="none" stroke="midnightblue" d="M563.202,-260.486C578.865,-258.44 595,-256.333 608.661,-254.549"/>
<polygon fill="midnightblue" stroke="midnightblue" points="562.47,-257.051 553.007,-261.817 563.376,-263.993 562.47,-257.051"/>
</g>
<!-- Node11 -->
<g id="node11" class="node"><title>Node11</title>
<g id="a_node11"><a xlink:href="a00341.html#gadd5685565c8c6c86079e17b8a73b324c" target="_top" xlink:title="Fetch part of a text or image value from the server. ">
<polygon fill="white" stroke="black" points="611,-202.5 611,-221.5 678,-221.5 678,-202.5 611,-202.5"/>
<text text-anchor="middle" x="644.5" y="-209.5" font-family="Helvetica,sans-Serif" font-size="10.00">dbreadtext</text>
</a>
</g>
</g>
<!-- Node4&#45;&gt;Node11 -->
<g id="edge11" class="edge"><title>Node4&#45;&gt;Node11</title>
<path fill="none" stroke="midnightblue" d="M529.585,-255.261C547.006,-247.823 569.084,-238.622 589,-231 597.423,-227.777 606.659,-224.471 615.096,-221.54"/>
<polygon fill="midnightblue" stroke="midnightblue" points="527.725,-252.251 519.917,-259.412 530.487,-258.683 527.725,-252.251"/>
</g>
<!-- Node12 -->
<g id="node12" class="node"><title>Node12</title>
<g id="a_node12"><a xlink:href="a00341.html#gac980139b9cea03cf93e373d425991481" target="_top" xlink:title="Transmit the command buffer to the server. ">
<polygon fill="white" stroke="red" points="612,-164.5 612,-183.5 677,-183.5 677,-164.5 612,-164.5"/>
<text text-anchor="middle" x="644.5" y="-171.5" font-family="Helvetica,sans-Serif" font-size="10.00">dbsqlsend</text>
</a>
</g>
</g>
<!-- Node4&#45;&gt;Node12 -->
<g id="edge12" class="edge"><title>Node4&#45;&gt;Node12</title>
<path fill="none" stroke="midnightblue" d="M514.288,-252.214C531.504,-235.283 560.116,-209.371 589,-193 596.061,-188.998 604.11,-185.626 611.815,-182.887"/>
<polygon fill="midnightblue" stroke="midnightblue" points="511.808,-249.745 507.22,-259.295 516.762,-254.69 511.808,-249.745"/>
</g>
<!-- Node13 -->
<g id="node13" class="node"><title>Node13</title>
<g id="a_node13"><a xlink:href="a00356.html#gaf0da49585d39e99780a004ee2ca23479" target="_top" xlink:title="Send option commands to server. ">
<polygon fill="white" stroke="black" points="745.5,-104.5 745.5,-123.5 866.5,-123.5 866.5,-104.5 745.5,-104.5"/>
<text text-anchor="middle" x="806" y="-111.5" font-family="Helvetica,sans-Serif" font-size="10.00">tds_submit_optioncmd</text>
</a>
</g>
</g>
<!-- Node4&#45;&gt;Node13 -->
<g id="edge13" class="edge"><title>Node4&#45;&gt;Node13</title>
<path fill="none" stroke="midnightblue" d="M507.366,-250.322C521.372,-224.462 550.321,-178.309 589,-155 636.404,-126.433 699.404,-117.074 745.125,-114.328"/>
<polygon fill="midnightblue" stroke="midnightblue" points="504.126,-248.964 502.59,-259.447 510.328,-252.21 504.126,-248.964"/>
</g>
<!-- Node14 -->
<g id="node14" class="node"><title>Node14</title>
<g id="a_node14"><a xlink:href="a00193.html#ac6610c72bd31bad5378f760fa9b12d66" target="_top" xlink:title="Initialize BCP information. ">
<polygon fill="white" stroke="red" points="608,-38.5 608,-57.5 681,-57.5 681,-38.5 608,-38.5"/>
<text text-anchor="middle" x="644.5" y="-45.5" font-family="Helvetica,sans-Serif" font-size="10.00">tds_bcp_init</text>
</a>
</g>
</g>
<!-- Node4&#45;&gt;Node14 -->
<g id="edge14" class="edge"><title>Node4&#45;&gt;Node14</title>
<path fill="none" stroke="midnightblue" d="M501.478,-249.367C509.571,-209.372 533.374,-117.944 589,-67 594.321,-62.1273 600.959,-58.4926 607.754,-55.7849"/>
<polygon fill="midnightblue" stroke="midnightblue" points="497.998,-248.935 499.562,-259.414 504.874,-250.247 497.998,-248.935"/>
</g>
<!-- Node15 -->
<g id="node15" class="node"><title>Node15</title>
<g id="a_node15"><a xlink:href="a00359.html#ga55f27c3e05d42c9b07ace1c74b11c5ab" target="_top" xlink:title="Retrieve and set @spid. ">
<polygon fill="white" stroke="black" points="606,-468.5 606,-487.5 683,-487.5 683,-468.5 606,-468.5"/>
<text text-anchor="middle" x="644.5" y="-475.5" font-family="Helvetica,sans-Serif" font-size="10.00">tds_set_spid</text>
</a>
</g>
</g>
<!-- Node4&#45;&gt;Node15 -->
<g id="edge15" class="edge"><title>Node4&#45;&gt;Node15</title>
<path fill="none" stroke="midnightblue" d="M502.141,-288.792C511.161,-327.092 536.154,-411.727 589,-459 593.854,-463.342 599.757,-466.705 605.863,-469.304"/>
<polygon fill="midnightblue" stroke="midnightblue" points="505.523,-287.88 499.925,-278.885 498.692,-289.408 505.523,-287.88"/>
</g>
<!-- Node16 -->
<g id="node16" class="node"><title>Node16</title>
<g id="a_node16"><a xlink:href="a00359.html#gaeeb1562044786ea17bea361ed83e6946" target="_top" xlink:title="Process results for simple query as &quot;SET TEXTSIZE&quot; or &quot;USE dbname&quot; If the statement returns results...">
<polygon fill="white" stroke="red" points="589.5,-77 589.5,-107 699.5,-107 699.5,-77 589.5,-77"/>
<text text-anchor="start" x="597.5" y="-95" font-family="Helvetica,sans-Serif" font-size="10.00">tds_process_simple</text>
<text text-anchor="middle" x="644.5" y="-84" font-family="Helvetica,sans-Serif" font-size="10.00">_query</text>
</a>
</g>
</g>
<!-- Node4&#45;&gt;Node16 -->
<g id="edge17" class="edge"><title>Node4&#45;&gt;Node16</title>
<path fill="none" stroke="midnightblue" d="M505.985,-249.819C519.381,-219.515 548.903,-160.098 589,-122 595.029,-116.272 602.362,-111.275 609.668,-107.088"/>
<polygon fill="midnightblue" stroke="midnightblue" points="502.668,-248.673 501.928,-259.242 509.098,-251.441 502.668,-248.673"/>
</g>
<!-- Node17 -->
<g id="node17" class="node"><title>Node17</title>
<g id="a_node17"><a xlink:href="a00359.html#gaf233e79967f82f4e0dd4d11524917a34" target="_top" xlink:title="tds_process_cancel">
<polygon fill="white" stroke="red" points="589,-0.5 589,-19.5 700,-19.5 700,-0.5 589,-0.5"/>
<text text-anchor="middle" x="644.5" y="-7.5" font-family="Helvetica,sans-Serif" font-size="10.00">tds_process_cancel</text>
</a>
</g>
</g>
<!-- Node4&#45;&gt;Node17 -->
<g id="edge19" class="edge"><title>Node4&#45;&gt;Node17</title>
<path fill="none" stroke="midnightblue" d="M499.911,-249.156C505.329,-203.762 524.827,-91.4647 589,-29 593.021,-25.086 597.891,-21.9752 603.045,-19.5035"/>
<polygon fill="midnightblue" stroke="midnightblue" points="496.422,-248.864 498.819,-259.185 503.381,-249.622 496.422,-248.864"/>
</g>
<!-- Node8&#45;&gt;Node9 -->
<g id="edge8" class="edge"><title>Node8&#45;&gt;Node9</title>
<path fill="none" stroke="midnightblue" d="M681.371,-292.273C708.525,-295.508 745.532,-299.916 771.965,-303.065"/>
<polygon fill="midnightblue" stroke="midnightblue" points="681.47,-288.76 671.126,-291.053 680.642,-295.711 681.47,-288.76"/>
</g>
<!-- Node15&#45;&gt;Node3 -->
<g id="edge16" class="edge"><title>Node15&#45;&gt;Node3</title>
<path fill="none" stroke="midnightblue" d="M693.245,-483.687C706.661,-485.286 721.527,-487.056 735.92,-488.771"/>
<polygon fill="midnightblue" stroke="midnightblue" points="693.643,-480.21 683.299,-482.503 692.815,-487.161 693.643,-480.21"/>
</g>
<!-- Node16&#45;&gt;Node13 -->
<g id="edge18" class="edge"><title>Node16&#45;&gt;Node13</title>
<path fill="none" stroke="midnightblue" d="M710.05,-100.903C721.711,-102.512 733.823,-104.182 745.337,-105.771"/>
<polygon fill="midnightblue" stroke="midnightblue" points="710.329,-97.4089 699.945,-99.5096 709.373,-104.343 710.329,-97.4089"/>
</g>
<!-- Node18&#45;&gt;Node2 -->
<g id="edge21" class="edge"><title>Node18&#45;&gt;Node2</title>
<path fill="none" stroke="midnightblue" d="M314.933,-280.428C300.81,-282.953 284.584,-285.319 269.332,-287.107"/>
<polygon fill="midnightblue" stroke="midnightblue" points="315.622,-283.86 324.801,-278.568 314.325,-276.981 315.622,-283.86"/>
</g>
<!-- Node18&#45;&gt;Node4 -->
<g id="edge22" class="edge"><title>Node18&#45;&gt;Node4</title>
<path fill="none" stroke="midnightblue" d="M415.497,-269C423.92,-269 432.551,-269 440.887,-269"/>
<polygon fill="midnightblue" stroke="midnightblue" points="415.359,-265.5 405.359,-269 415.359,-272.5 415.359,-265.5"/>
</g>
</g>
</svg>
