<?xml version="1.0" encoding="UTF-8" standalone="no"?>
<!DOCTYPE svg PUBLIC "-//W3C//DTD SVG 1.1//EN"
 "http://www.w3.org/Graphics/SVG/1.1/DTD/svg11.dtd">
<!-- Generated by graphviz version 2.38.0 (20140413.2041)
 -->
<!-- Title: _cs_command_list Pages: 1 -->
<svg width="956pt" height="264pt"
 viewBox="0.00 0.00 955.68 264.00" xmlns="http://www.w3.org/2000/svg" xmlns:xlink="http://www.w3.org/1999/xlink">
<g id="graph0" class="graph" transform="scale(1 1) rotate(0) translate(4 260)">
<title>_cs_command_list</title>
<polygon fill="white" stroke="none" points="-4,4 -4,-260 951.677,-260 951.677,4 -4,4"/>
<!-- Node1 -->
<g id="node1" class="node"><title>Node1</title>
<polygon fill="#bfbfbf" stroke="black" points="327.677,-163 327.677,-182 431.677,-182 431.677,-163 327.677,-163"/>
<text text-anchor="middle" x="379.677" y="-170" font-family="Helvetica,sans-Serif" font-size="10.00">_cs_command_list</text>
</g>
<!-- Node1&#45;&gt;Node1 -->
<g id="edge1" class="edge"><title>Node1&#45;&gt;Node1</title>
<path fill="none" stroke="#9a32cd" stroke-dasharray="5,2" d="M442.076,-178.11C446.783,-176.86 449.677,-174.99 449.677,-172.5 449.677,-168.516 442.268,-166.119 431.879,-165.309"/>
<polygon fill="#9a32cd" stroke="#9a32cd" points="441.225,-174.7 431.879,-179.691 442.297,-181.618 441.225,-174.7"/>
<text text-anchor="middle" x="461.677" y="-170" font-family="Helvetica,sans-Serif" font-size="10.00"> next</text>
</g>
<!-- Node9 -->
<g id="node9" class="node"><title>Node9</title>
<g id="a_node9"><a xlink:href="a00007.html" target="_top" xlink:title="_cs_connection">
<polygon fill="white" stroke="black" points="436.177,-67.5 436.177,-86.5 527.177,-86.5 527.177,-67.5 436.177,-67.5"/>
<text text-anchor="middle" x="481.677" y="-74.5" font-family="Helvetica,sans-Serif" font-size="10.00">_cs_connection</text>
</a>
</g>
</g>
<!-- Node1&#45;&gt;Node9 -->
<g id="edge15" class="edge"><title>Node1&#45;&gt;Node9</title>
<path fill="none" stroke="#9a32cd" stroke-dasharray="5,2" d="M426.488,-159.323C438.543,-154.34 450.646,-147.448 459.677,-138 473.476,-123.564 478.746,-99.7653 480.66,-86.9074"/>
<polygon fill="#9a32cd" stroke="#9a32cd" points="425.025,-156.134 416.891,-162.923 427.483,-162.688 425.025,-156.134"/>
<text text-anchor="middle" x="490.677" y="-119" font-family="Helvetica,sans-Serif" font-size="10.00"> cmds</text>
</g>
<!-- Node2 -->
<g id="node2" class="node"><title>Node2</title>
<g id="a_node2"><a xlink:href="a00004.html" target="_top" xlink:title="_cs_command">
<polygon fill="white" stroke="black" points="224.177,-0.5 224.177,-19.5 309.177,-19.5 309.177,-0.5 224.177,-0.5"/>
<text text-anchor="middle" x="266.677" y="-7.5" font-family="Helvetica,sans-Serif" font-size="10.00">_cs_command</text>
</a>
</g>
</g>
<!-- Node2&#45;&gt;Node1 -->
<g id="edge2" class="edge"><title>Node2&#45;&gt;Node1</title>
<path fill="none" stroke="#9a32cd" stroke-dasharray="5,2" d="M290.848,-25.3341C295.834,-29.0298 300.753,-33.3059 304.677,-38 336.17,-75.6803 325.268,-96.5968 351.677,-138 357.465,-147.075 365.447,-156.389 371.408,-162.886"/>
<polygon fill="#9a32cd" stroke="#9a32cd" points="292.796,-22.4259 282.56,-19.6911 288.856,-28.2121 292.796,-22.4259"/>
<text text-anchor="middle" x="342.177" y="-74.5" font-family="Helvetica,sans-Serif" font-size="10.00"> cmd</text>
</g>
<!-- Node3 -->
<g id="node3" class="node"><title>Node3</title>
<g id="a_node3"><a xlink:href="a00014.html" target="_top" xlink:title="_cs_iodesc">
<polygon fill="white" stroke="black" points="231.677,-67.5 231.677,-86.5 301.677,-86.5 301.677,-67.5 231.677,-67.5"/>
<text text-anchor="middle" x="266.677" y="-74.5" font-family="Helvetica,sans-Serif" font-size="10.00">_cs_iodesc</text>
</a>
</g>
</g>
<!-- Node3&#45;&gt;Node2 -->
<g id="edge3" class="edge"><title>Node3&#45;&gt;Node2</title>
<path fill="none" stroke="#9a32cd" stroke-dasharray="5,2" d="M266.677,-57.037C266.677,-44.6703 266.677,-29.1198 266.677,-19.6273"/>
<polygon fill="#9a32cd" stroke="#9a32cd" points="263.177,-57.2338 266.677,-67.2338 270.177,-57.2338 263.177,-57.2338"/>
<text text-anchor="middle" x="283.677" y="-41" font-family="Helvetica,sans-Serif" font-size="10.00"> iodesc</text>
</g>
<!-- Node4 -->
<g id="node4" class="node"><title>Node4</title>
<g id="a_node4"><a xlink:href="a00015.html" target="_top" xlink:title="_cs_locale">
<polygon fill="white" stroke="black" points="242.177,-163 242.177,-182 309.177,-182 309.177,-163 242.177,-163"/>
<text text-anchor="middle" x="275.677" y="-170" font-family="Helvetica,sans-Serif" font-size="10.00">_cs_locale</text>
</a>
</g>
</g>
<!-- Node4&#45;&gt;Node3 -->
<g id="edge4" class="edge"><title>Node4&#45;&gt;Node3</title>
<path fill="none" stroke="#9a32cd" stroke-dasharray="5,2" d="M273.871,-152.743C271.934,-132.623 268.944,-101.552 267.505,-86.6078"/>
<polygon fill="#9a32cd" stroke="#9a32cd" points="270.404,-153.253 274.846,-162.871 277.372,-152.582 270.404,-153.253"/>
<text text-anchor="middle" x="288.177" y="-119" font-family="Helvetica,sans-Serif" font-size="10.00"> locale</text>
</g>
<!-- Node4&#45;&gt;Node9 -->
<g id="edge16" class="edge"><title>Node4&#45;&gt;Node9</title>
<path fill="none" stroke="#9a32cd" stroke-dasharray="5,2" d="M307.492,-159.464C311.238,-158.216 315.025,-157.03 318.677,-156 356.679,-145.278 373.683,-161.141 405.677,-138 419.389,-128.081 412.24,-116.479 424.677,-105 433.367,-96.979 444.869,-90.9204 455.265,-86.5958"/>
<polygon fill="#9a32cd" stroke="#9a32cd" points="306.088,-156.247 297.799,-162.846 308.394,-162.856 306.088,-156.247"/>
<text text-anchor="middle" x="440.177" y="-119" font-family="Helvetica,sans-Serif" font-size="10.00"> locale</text>
</g>
<!-- Node5 -->
<g id="node5" class="node"><title>Node5</title>
<g id="a_node5"><a xlink:href="a00021.html" target="_top" xlink:title="_cs_param">
<polygon fill="white" stroke="black" points="33.1767,-236.5 33.1767,-255.5 102.177,-255.5 102.177,-236.5 33.1767,-236.5"/>
<text text-anchor="middle" x="67.6767" y="-243.5" font-family="Helvetica,sans-Serif" font-size="10.00">_cs_param</text>
</a>
</g>
</g>
<!-- Node5&#45;&gt;Node2 -->
<g id="edge5" class="edge"><title>Node5&#45;&gt;Node2</title>
<path fill="none" stroke="#9a32cd" stroke-dasharray="5,2" d="M51.1288,-228.84C25.4894,-201.788 -18.2181,-146.247 8.67667,-105 55.4803,-33.2207 163.755,-15.8977 224.102,-11.9462"/>
<polygon fill="#9a32cd" stroke="#9a32cd" points="48.9104,-231.577 58.4076,-236.273 53.912,-226.679 48.9104,-231.577"/>
<text text-anchor="middle" x="42.1767" y="-119" font-family="Helvetica,sans-Serif" font-size="10.00"> input_params</text>
</g>
<!-- Node5&#45;&gt;Node5 -->
<g id="edge6" class="edge"><title>Node5&#45;&gt;Node5</title>
<path fill="none" stroke="#9a32cd" stroke-dasharray="5,2" d="M112.367,-250.995C117.122,-250.028 120.177,-248.363 120.177,-246 120.177,-242.219 112.358,-240.225 102.263,-240.018"/>
<polygon fill="#9a32cd" stroke="#9a32cd" points="111.875,-247.527 102.263,-251.982 112.556,-254.494 111.875,-247.527"/>
<text text-anchor="middle" x="132.177" y="-243.5" font-family="Helvetica,sans-Serif" font-size="10.00"> next</text>
</g>
<!-- Node6 -->
<g id="node6" class="node"><title>Node6</title>
<g id="a_node6"><a xlink:href="a00013.html" target="_top" xlink:title="_cs_dynamic">
<polygon fill="white" stroke="black" points="103.677,-163 103.677,-182 181.677,-182 181.677,-163 103.677,-163"/>
<text text-anchor="middle" x="142.677" y="-170" font-family="Helvetica,sans-Serif" font-size="10.00">_cs_dynamic</text>
</a>
</g>
</g>
<!-- Node5&#45;&gt;Node6 -->
<g id="edge10" class="edge"><title>Node5&#45;&gt;Node6</title>
<path fill="none" stroke="#9a32cd" stroke-dasharray="5,2" d="M101.549,-231.847C108.442,-228.1 115.238,-223.505 120.677,-218 130.853,-207.701 137.147,-191.755 140.272,-182.009"/>
<polygon fill="#9a32cd" stroke="#9a32cd" points="99.64,-228.885 92.2081,-236.436 102.727,-235.168 99.64,-228.885"/>
<text text-anchor="middle" x="155.677" y="-210" font-family="Helvetica,sans-Serif" font-size="10.00"> param_list</text>
</g>
<!-- Node13 -->
<g id="node13" class="node"><title>Node13</title>
<g id="a_node13"><a xlink:href="a00025.html" target="_top" xlink:title="_csremote_proc">
<polygon fill="white" stroke="black" points="85.1767,-112 85.1767,-131 178.177,-131 178.177,-112 85.1767,-112"/>
<text text-anchor="middle" x="131.677" y="-119" font-family="Helvetica,sans-Serif" font-size="10.00">_csremote_proc</text>
</a>
</g>
</g>
<!-- Node5&#45;&gt;Node13 -->
<g id="edge26" class="edge"><title>Node5&#45;&gt;Node13</title>
<path fill="none" stroke="#9a32cd" stroke-dasharray="5,2" d="M63.6749,-226.255C63.0121,-220.042 63.0031,-213.146 64.6767,-207 71.5861,-181.626 78.0723,-176.392 94.6767,-156 102.337,-146.593 112.684,-137.456 120.489,-131.107"/>
<polygon fill="#9a32cd" stroke="#9a32cd" points="60.2667,-227.098 65.3521,-236.393 67.1728,-225.955 60.2667,-227.098"/>
<text text-anchor="middle" x="90.6767" y="-210" font-family="Helvetica,sans-Serif" font-size="10.00"> param_list</text>
</g>
<!-- Node6&#45;&gt;Node2 -->
<g id="edge7" class="edge"><title>Node6&#45;&gt;Node2</title>
<path fill="none" stroke="#9a32cd" stroke-dasharray="5,2" d="M162.593,-156.28C168.429,-151.015 174.387,-144.732 178.677,-138 196.501,-110.026 183.32,-94.6275 201.677,-67 215.196,-46.6537 238.069,-29.3937 252.764,-19.6158"/>
<polygon fill="#9a32cd" stroke="#9a32cd" points="160.275,-153.655 154.879,-162.773 164.783,-159.011 160.275,-153.655"/>
<text text-anchor="middle" x="212.177" y="-74.5" font-family="Helvetica,sans-Serif" font-size="10.00"> dyn</text>
</g>
<!-- Node6&#45;&gt;Node6 -->
<g id="edge11" class="edge"><title>Node6&#45;&gt;Node6</title>
<path fill="none" stroke="#9a32cd" stroke-dasharray="5,2" d="M191.952,-178.558C196.681,-177.327 199.677,-175.308 199.677,-172.5 199.677,-168.008 192.008,-165.534 181.839,-165.077"/>
<polygon fill="#9a32cd" stroke="#9a32cd" points="191.281,-175.117 181.839,-179.923 192.217,-182.054 191.281,-175.117"/>
<text text-anchor="middle" x="211.677" y="-170" font-family="Helvetica,sans-Serif" font-size="10.00"> next</text>
</g>
<!-- Node6&#45;&gt;Node9 -->
<g id="edge24" class="edge"><title>Node6&#45;&gt;Node9</title>
<path fill="none" stroke="#9a32cd" stroke-dasharray="5,2" d="M191.831,-163.209C232.484,-156.041 286.806,-145.656 307.677,-138 336.249,-127.519 339.277,-115.94 367.677,-105 389.598,-96.5554 414.944,-90.2347 436.163,-85.8404"/>
<polygon fill="#9a32cd" stroke="#9a32cd" points="191.068,-159.789 181.819,-164.958 192.273,-166.685 191.068,-159.789"/>
<text text-anchor="middle" x="384.677" y="-119" font-family="Helvetica,sans-Serif" font-size="10.00"> dynlist</text>
</g>
<!-- Node7 -->
<g id="node7" class="node"><title>Node7</title>
<g id="a_node7"><a xlink:href="a00118.html" target="_top" xlink:title="Holds information for a dynamic (also called prepared) query. ">
<polygon fill="white" stroke="red" points="455.677,-236.5 455.677,-255.5 531.677,-255.5 531.677,-236.5 455.677,-236.5"/>
<text text-anchor="middle" x="493.677" y="-243.5" font-family="Helvetica,sans-Serif" font-size="10.00">tds_dynamic</text>
</a>
</g>
</g>
<!-- Node7&#45;&gt;Node6 -->
<g id="edge8" class="edge"><title>Node7&#45;&gt;Node6</title>
<path fill="none" stroke="#9a32cd" stroke-dasharray="5,2" d="M445.545,-235.195C375.456,-220.918 246.631,-194.676 181.932,-181.497"/>
<polygon fill="#9a32cd" stroke="#9a32cd" points="444.948,-238.646 455.445,-237.212 446.345,-231.786 444.948,-238.646"/>
<text text-anchor="middle" x="378.177" y="-210" font-family="Helvetica,sans-Serif" font-size="10.00"> tdsdyn</text>
</g>
<!-- Node7&#45;&gt;Node7 -->
<g id="edge9" class="edge"><title>Node7&#45;&gt;Node7</title>
<path fill="none" stroke="#9a32cd" stroke-dasharray="5,2" d="M541.966,-250.872C546.682,-249.89 549.677,-248.266 549.677,-246 549.677,-242.375 542.011,-240.393 531.891,-240.053"/>
<polygon fill="#9a32cd" stroke="#9a32cd" points="541.463,-247.406 531.891,-251.947 542.206,-254.366 541.463,-247.406"/>
<text text-anchor="middle" x="561.677" y="-243.5" font-family="Helvetica,sans-Serif" font-size="10.00"> next</text>
</g>
<!-- Node10 -->
<g id="node10" class="node"><title>Node10</title>
<g id="a_node10"><a xlink:href="a00148.html" target="_top" xlink:title="Information for a server connection. ">
<polygon fill="white" stroke="red" points="756.677,-163 756.677,-182 824.677,-182 824.677,-163 756.677,-163"/>
<text text-anchor="middle" x="790.677" y="-170" font-family="Helvetica,sans-Serif" font-size="10.00">tds_socket</text>
</a>
</g>
</g>
<!-- Node7&#45;&gt;Node10 -->
<g id="edge19" class="edge"><title>Node7&#45;&gt;Node10</title>
<path fill="none" stroke="#9a32cd" stroke-dasharray="5,2" d="M541.872,-235.52C592.266,-225.29 673.5,-207.906 742.677,-189 750.11,-186.968 758.105,-184.502 765.397,-182.14"/>
<polygon fill="#9a32cd" stroke="#9a32cd" points="541.019,-232.121 531.909,-237.53 542.404,-238.983 541.019,-232.121"/>
<text text-anchor="middle" x="689.177" y="-210" font-family="Helvetica,sans-Serif" font-size="10.00"> cur_dyn</text>
</g>
<!-- Node8 -->
<g id="node8" class="node"><title>Node8</title>
<g id="a_node8"><a xlink:href="a00110.html" target="_top" xlink:title="Holds informations about a cursor. ">
<polygon fill="white" stroke="red" points="839.677,-236.5 839.677,-255.5 905.677,-255.5 905.677,-236.5 839.677,-236.5"/>
<text text-anchor="middle" x="872.677" y="-243.5" font-family="Helvetica,sans-Serif" font-size="10.00">tds_cursor</text>
</a>
</g>
</g>
<!-- Node8&#45;&gt;Node2 -->
<g id="edge12" class="edge"><title>Node8&#45;&gt;Node2</title>
<path fill="none" stroke="#9a32cd" stroke-dasharray="5,2" d="M888.216,-228.314C892.402,-221.855 895.164,-214.275 892.677,-207 874.123,-152.744 862.829,-134.529 813.677,-105 728.085,-53.5788 422.572,-23.8078 309.319,-14.3339"/>
<polygon fill="#9a32cd" stroke="#9a32cd" points="885.382,-226.257 881.985,-236.293 890.899,-230.566 885.382,-226.257"/>
<text text-anchor="middle" x="873.177" y="-119" font-family="Helvetica,sans-Serif" font-size="10.00"> cursor</text>
</g>
<!-- Node8&#45;&gt;Node8 -->
<g id="edge13" class="edge"><title>Node8&#45;&gt;Node8</title>
<path fill="none" stroke="#9a32cd" stroke-dasharray="5,2" d="M916.324,-250.946C920.809,-249.972 923.677,-248.323 923.677,-246 923.677,-242.188 915.955,-240.192 906.031,-240.013"/>
<polygon fill="#9a32cd" stroke="#9a32cd" points="915.628,-247.498 906.031,-251.987 916.333,-254.463 915.628,-247.498"/>
<text text-anchor="middle" x="935.677" y="-243.5" font-family="Helvetica,sans-Serif" font-size="10.00"> next</text>
</g>
<!-- Node8&#45;&gt;Node10 -->
<g id="edge20" class="edge"><title>Node8&#45;&gt;Node10</title>
<path fill="none" stroke="#9a32cd" stroke-dasharray="5,2" d="M853.907,-229.923C849.22,-226.082 844.232,-221.927 839.677,-218 825.577,-205.844 809.7,-191.253 799.942,-182.176"/>
<polygon fill="#9a32cd" stroke="#9a32cd" points="851.891,-232.795 861.86,-236.383 856.305,-227.362 851.891,-232.795"/>
<text text-anchor="middle" x="866.177" y="-210" font-family="Helvetica,sans-Serif" font-size="10.00"> cur_cursor</text>
</g>
<!-- Node9&#45;&gt;Node2 -->
<g id="edge14" class="edge"><title>Node9&#45;&gt;Node2</title>
<path fill="none" stroke="#9a32cd" stroke-dasharray="5,2" d="M443.402,-64.4287C400.833,-51.5589 333.062,-31.0699 295.003,-19.5637"/>
<polygon fill="#9a32cd" stroke="#9a32cd" points="442.541,-67.8248 453.126,-67.3685 444.567,-61.1243 442.541,-67.8248"/>
<text text-anchor="middle" x="398.177" y="-41" font-family="Helvetica,sans-Serif" font-size="10.00"> con</text>
</g>
<!-- Node10&#45;&gt;Node9 -->
<g id="edge17" class="edge"><title>Node10&#45;&gt;Node9</title>
<path fill="none" stroke="#9a32cd" stroke-dasharray="5,2" d="M775.716,-155.313C760.125,-139.583 734.167,-116.446 706.677,-105 675.26,-91.9191 583.552,-84.1875 527.387,-80.549"/>
<polygon fill="#9a32cd" stroke="#9a32cd" points="773.424,-157.978 782.878,-162.762 778.471,-153.127 773.424,-157.978"/>
<text text-anchor="middle" x="782.177" y="-119" font-family="Helvetica,sans-Serif" font-size="10.00"> tds_socket</text>
</g>
<!-- Node11 -->
<g id="node11" class="node"><title>Node11</title>
<g id="a_node11"><a xlink:href="a00129.html" target="_top" xlink:title="tds_login">
<polygon fill="white" stroke="red" points="695.177,-236.5 695.177,-255.5 754.177,-255.5 754.177,-236.5 695.177,-236.5"/>
<text text-anchor="middle" x="724.677" y="-243.5" font-family="Helvetica,sans-Serif" font-size="10.00">tds_login</text>
</a>
</g>
</g>
<!-- Node11&#45;&gt;Node9 -->
<g id="edge21" class="edge"><title>Node11&#45;&gt;Node9</title>
<path fill="none" stroke="#9a32cd" stroke-dasharray="5,2" d="M713.445,-228.173C711.201,-224.805 708.862,-221.291 706.677,-218 668.587,-160.634 662.854,-134.592 600.677,-105 577.722,-94.0753 550.14,-87.4599 527.312,-83.5143"/>
<polygon fill="#9a32cd" stroke="#9a32cd" points="710.533,-230.116 718.994,-236.493 716.357,-226.232 710.533,-230.116"/>
<text text-anchor="middle" x="711.677" y="-170" font-family="Helvetica,sans-Serif" font-size="10.00"> tds_login</text>
</g>
<!-- Node11&#45;&gt;Node10 -->
<g id="edge18" class="edge"><title>Node11&#45;&gt;Node10</title>
<path fill="none" stroke="#9a32cd" stroke-dasharray="5,2" d="M751.803,-231.058C757.491,-227.328 763.134,-222.939 767.677,-218 777.449,-207.374 784.219,-191.818 787.771,-182.193"/>
<polygon fill="#9a32cd" stroke="#9a32cd" points="749.749,-228.209 742.981,-236.36 753.355,-234.209 749.749,-228.209"/>
<text text-anchor="middle" x="788.677" y="-210" font-family="Helvetica,sans-Serif" font-size="10.00"> login</text>
</g>
<!-- Node12 -->
<g id="node12" class="node"><title>Node12</title>
<g id="a_node12"><a xlink:href="a00008.html" target="_top" xlink:title="_cs_context">
<polygon fill="white" stroke="red" points="491.677,-163 491.677,-182 565.677,-182 565.677,-163 491.677,-163"/>
<text text-anchor="middle" x="528.677" y="-170" font-family="Helvetica,sans-Serif" font-size="10.00">_cs_context</text>
</a>
</g>
</g>
<!-- Node12&#45;&gt;Node9 -->
<g id="edge22" class="edge"><title>Node12&#45;&gt;Node9</title>
<path fill="none" stroke="#9a32cd" stroke-dasharray="5,2" d="M526.444,-152.807C524.13,-138.842 519.548,-119.708 510.677,-105 506.342,-97.8135 499.553,-91.3446 493.633,-86.5415"/>
<polygon fill="#9a32cd" stroke="#9a32cd" points="522.98,-153.307 527.852,-162.715 529.911,-152.322 522.98,-153.307"/>
<text text-anchor="middle" x="560.177" y="-130" font-family="Helvetica,sans-Serif" font-size="10.00"> ctx</text>
<text text-anchor="middle" x="560.177" y="-119" font-family="Helvetica,sans-Serif" font-size="10.00">_clientmsg_cb</text>
<text text-anchor="middle" x="560.177" y="-108" font-family="Helvetica,sans-Serif" font-size="10.00">_servermsg_cb</text>
</g>
<!-- Node12&#45;&gt;Node12 -->
<g id="edge23" class="edge"><title>Node12&#45;&gt;Node12</title>
<path fill="none" stroke="#9a32cd" stroke-dasharray="5,2" d="M575.862,-178.653C580.634,-177.432 583.677,-175.381 583.677,-172.5 583.677,-167.891 575.886,-165.406 565.692,-165.046"/>
<polygon fill="#9a32cd" stroke="#9a32cd" points="575.167,-175.213 565.692,-179.954 576.055,-182.157 575.167,-175.213"/>
<text text-anchor="middle" x="620.177" y="-181" font-family="Helvetica,sans-Serif" font-size="10.00"> _clientmsg_cb</text>
<text text-anchor="middle" x="620.177" y="-170" font-family="Helvetica,sans-Serif" font-size="10.00">_servermsg_cb</text>
<text text-anchor="middle" x="620.177" y="-159" font-family="Helvetica,sans-Serif" font-size="10.00">_cslibmsg_cb</text>
</g>
<!-- Node13&#45;&gt;Node2 -->
<g id="edge25" class="edge"><title>Node13&#45;&gt;Node2</title>
<path fill="none" stroke="#9a32cd" stroke-dasharray="5,2" d="M136.698,-101.761C140.029,-91.0991 145.02,-77.7669 151.677,-67 160.937,-52.0211 163.751,-47.3454 178.677,-38 192.357,-29.4346 208.94,-23.4252 224.007,-19.2881"/>
<polygon fill="#9a32cd" stroke="#9a32cd" points="133.244,-101.107 133.827,-111.685 139.968,-103.052 133.244,-101.107"/>
<text text-anchor="middle" x="161.177" y="-74.5" font-family="Helvetica,sans-Serif" font-size="10.00"> rpc</text>
</g>
</g>
</svg>
