<?xml version="1.0" encoding="UTF-8" standalone="no"?>
<!DOCTYPE svg PUBLIC "-//W3C//DTD SVG 1.1//EN"
 "http://www.w3.org/Graphics/SVG/1.1/DTD/svg11.dtd">
<!-- Generated by graphviz version 2.38.0 (20140413.2041)
 -->
<!-- Title: src/dblib/dblib.c Pages: 1 -->
<svg width="1619pt" height="252pt"
 viewBox="0.00 0.00 1619.00 252.00" xmlns="http://www.w3.org/2000/svg" xmlns:xlink="http://www.w3.org/1999/xlink">
<g id="graph0" class="graph" transform="scale(1 1) rotate(0) translate(4 248)">
<title>src/dblib/dblib.c</title>
<polygon fill="white" stroke="none" points="-4,4 -4,-248 1615,-248 1615,4 -4,4"/>
<!-- Node1 -->
<g id="node1" class="node"><title>Node1</title>
<polygon fill="#bfbfbf" stroke="black" points="1107.5,-224.5 1107.5,-243.5 1193.5,-243.5 1193.5,-224.5 1107.5,-224.5"/>
<text text-anchor="middle" x="1150.5" y="-231.5" font-family="Helvetica,sans-Serif" font-size="10.00">src/dblib/dblib.c</text>
</g>
<!-- Node2 -->
<g id="node2" class="node"><title>Node2</title>
<polygon fill="white" stroke="#bfbfbf" points="0,-168.5 0,-187.5 53,-187.5 53,-168.5 0,-168.5"/>
<text text-anchor="middle" x="26.5" y="-175.5" font-family="Helvetica,sans-Serif" font-size="10.00">config.h</text>
</g>
<!-- Node1&#45;&gt;Node2 -->
<g id="edge1" class="edge"><title>Node1&#45;&gt;Node2</title>
<path fill="none" stroke="midnightblue" d="M1107.46,-232.216C932.486,-228.872 273.953,-214.74 67.5,-188 66.1991,-187.832 64.8785,-187.642 63.5473,-187.436"/>
<polygon fill="midnightblue" stroke="midnightblue" points="63.7513,-183.916 53.2884,-185.583 62.507,-190.805 63.7513,-183.916"/>
</g>
<!-- Node3 -->
<g id="node3" class="node"><title>Node3</title>
<polygon fill="white" stroke="#bfbfbf" points="632,-56.5 632,-75.5 687,-75.5 687,-56.5 632,-56.5"/>
<text text-anchor="middle" x="659.5" y="-63.5" font-family="Helvetica,sans-Serif" font-size="10.00">stdarg.h</text>
</g>
<!-- Node1&#45;&gt;Node3 -->
<g id="edge2" class="edge"><title>Node1&#45;&gt;Node3</title>
<path fill="none" stroke="midnightblue" d="M1107.46,-232.381C918.01,-229.197 164.917,-211.578 100.5,-132 94.9073,-125.091 94.4721,-118.533 100.5,-112 135.79,-73.7546 502.021,-68.0041 621.811,-67.1475"/>
<polygon fill="midnightblue" stroke="midnightblue" points="621.99,-70.6465 631.967,-67.0825 621.945,-63.6466 621.99,-70.6465"/>
</g>
<!-- Node4 -->
<g id="node4" class="node"><title>Node4</title>
<g id="a_node4"><a xlink:href="a00195_source.html" target="_top" xlink:title="freetds/time.h">
<polygon fill="white" stroke="black" points="109.5,-112.5 109.5,-131.5 189.5,-131.5 189.5,-112.5 109.5,-112.5"/>
<text text-anchor="middle" x="149.5" y="-119.5" font-family="Helvetica,sans-Serif" font-size="10.00">freetds/time.h</text>
</a>
</g>
</g>
<!-- Node1&#45;&gt;Node4 -->
<g id="edge3" class="edge"><title>Node1&#45;&gt;Node4</title>
<path fill="none" stroke="midnightblue" d="M1107.34,-231.882C1001.48,-228.745 720.7,-218.04 488.5,-188 383.29,-174.389 261.48,-148.519 196.339,-133.854"/>
<polygon fill="midnightblue" stroke="midnightblue" points="196.909,-130.395 186.383,-131.6 195.363,-137.222 196.909,-130.395"/>
</g>
<!-- Node5 -->
<g id="node5" class="node"><title>Node5</title>
<polygon fill="white" stroke="#bfbfbf" points="1391.5,-168.5 1391.5,-187.5 1445.5,-187.5 1445.5,-168.5 1391.5,-168.5"/>
<text text-anchor="middle" x="1418.5" y="-175.5" font-family="Helvetica,sans-Serif" font-size="10.00">assert.h</text>
</g>
<!-- Node1&#45;&gt;Node5 -->
<g id="edge5" class="edge"><title>Node1&#45;&gt;Node5</title>
<path fill="none" stroke="midnightblue" d="M1193.65,-224.718C1239.35,-215.882 1313.59,-201.347 1377.5,-188 1378.74,-187.74 1380.01,-187.474 1381.29,-187.204"/>
<polygon fill="midnightblue" stroke="midnightblue" points="1382.13,-190.603 1391.17,-185.081 1380.66,-183.759 1382.13,-190.603"/>
</g>
<!-- Node6 -->
<g id="node6" class="node"><title>Node6</title>
<polygon fill="white" stroke="#bfbfbf" points="226,-112.5 226,-131.5 273,-131.5 273,-112.5 226,-112.5"/>
<text text-anchor="middle" x="249.5" y="-119.5" font-family="Helvetica,sans-Serif" font-size="10.00">stdio.h</text>
</g>
<!-- Node1&#45;&gt;Node6 -->
<g id="edge6" class="edge"><title>Node1&#45;&gt;Node6</title>
<path fill="none" stroke="midnightblue" d="M1107.32,-230.222C1019.19,-224.324 812.298,-209.327 639.5,-188 482.281,-168.596 442.905,-162.72 287.5,-132 286.045,-131.712 284.561,-131.408 283.064,-131.092"/>
<polygon fill="midnightblue" stroke="midnightblue" points="283.678,-127.644 273.157,-128.892 282.16,-134.477 283.678,-127.644"/>
</g>
<!-- Node7 -->
<g id="node7" class="node"><title>Node7</title>
<g id="a_node7"><a xlink:href="a00193.html" target="_top" xlink:title="Main include file for libtds. ">
<polygon fill="white" stroke="black" points="649,-168.5 649,-187.5 724,-187.5 724,-168.5 649,-168.5"/>
<text text-anchor="middle" x="686.5" y="-175.5" font-family="Helvetica,sans-Serif" font-size="10.00">freetds/tds.h</text>
</a>
</g>
</g>
<!-- Node1&#45;&gt;Node7 -->
<g id="edge7" class="edge"><title>Node1&#45;&gt;Node7</title>
<path fill="none" stroke="midnightblue" d="M1107.26,-227.968C1020.29,-217.846 824.763,-195.091 734.204,-184.552"/>
<polygon fill="midnightblue" stroke="midnightblue" points="734.552,-181.069 724.214,-183.389 733.742,-188.022 734.552,-181.069"/>
</g>
<!-- Node11 -->
<g id="node11" class="node"><title>Node11</title>
<g id="a_node11"><a xlink:href="a00194_source.html" target="_top" xlink:title="freetds/thread.h">
<polygon fill="white" stroke="black" points="1011.5,-112.5 1011.5,-131.5 1103.5,-131.5 1103.5,-112.5 1011.5,-112.5"/>
<text text-anchor="middle" x="1057.5" y="-119.5" font-family="Helvetica,sans-Serif" font-size="10.00">freetds/thread.h</text>
</a>
</g>
</g>
<!-- Node1&#45;&gt;Node11 -->
<g id="edge27" class="edge"><title>Node1&#45;&gt;Node11</title>
<path fill="none" stroke="midnightblue" d="M1143.2,-224.368C1127.72,-206.055 1091.36,-163.049 1071.33,-139.362"/>
<polygon fill="midnightblue" stroke="midnightblue" points="1073.89,-136.968 1064.76,-131.591 1068.55,-141.488 1073.89,-136.968"/>
</g>
<!-- Node12 -->
<g id="node12" class="node"><title>Node12</title>
<g id="a_node12"><a xlink:href="a00202_source.html" target="_top" xlink:title="replacements.h">
<polygon fill="white" stroke="black" points="904,-112.5 904,-131.5 993,-131.5 993,-112.5 904,-112.5"/>
<text text-anchor="middle" x="948.5" y="-119.5" font-family="Helvetica,sans-Serif" font-size="10.00">replacements.h</text>
</a>
</g>
</g>
<!-- Node1&#45;&gt;Node12 -->
<g id="edge37" class="edge"><title>Node1&#45;&gt;Node12</title>
<path fill="none" stroke="midnightblue" d="M1134.65,-224.368C1099.62,-205.292 1015.38,-159.422 973.301,-136.505"/>
<polygon fill="midnightblue" stroke="midnightblue" points="974.733,-133.3 964.277,-131.591 971.385,-139.448 974.733,-133.3"/>
</g>
<!-- Node19 -->
<g id="node19" class="node"><title>Node19</title>
<g id="a_node19"><a xlink:href="a00181_source.html" target="_top" xlink:title="freetds/convert.h">
<polygon fill="white" stroke="black" points="1085.5,-56.5 1085.5,-75.5 1181.5,-75.5 1181.5,-56.5 1085.5,-56.5"/>
<text text-anchor="middle" x="1133.5" y="-63.5" font-family="Helvetica,sans-Serif" font-size="10.00">freetds/convert.h</text>
</a>
</g>
</g>
<!-- Node1&#45;&gt;Node19 -->
<g id="edge28" class="edge"><title>Node1&#45;&gt;Node19</title>
<path fill="none" stroke="midnightblue" d="M1149.59,-224.075C1146.91,-197.945 1139.05,-121.211 1135.4,-85.577"/>
<polygon fill="midnightblue" stroke="midnightblue" points="1138.88,-85.1595 1134.38,-75.5681 1131.91,-85.8727 1138.88,-85.1595"/>
</g>
<!-- Node20 -->
<g id="node20" class="node"><title>Node20</title>
<g id="a_node20"><a xlink:href="a00191_source.html" target="_top" xlink:title="freetds/string.h">
<polygon fill="white" stroke="black" points="1329,-56.5 1329,-75.5 1416,-75.5 1416,-56.5 1329,-56.5"/>
<text text-anchor="middle" x="1372.5" y="-63.5" font-family="Helvetica,sans-Serif" font-size="10.00">freetds/string.h</text>
</a>
</g>
</g>
<!-- Node1&#45;&gt;Node20 -->
<g id="edge31" class="edge"><title>Node1&#45;&gt;Node20</title>
<path fill="none" stroke="midnightblue" d="M1192.69,-224.455C1217.03,-217.809 1246.97,-206.51 1268.5,-188 1297.93,-162.699 1285.76,-141.048 1311.5,-112 1322.21,-99.9123 1336.67,-89.0727 1348.82,-81.0624"/>
<polygon fill="midnightblue" stroke="midnightblue" points="1351,-83.8275 1357.57,-75.5145 1347.25,-77.9169 1351,-83.8275"/>
</g>
<!-- Node21 -->
<g id="node21" class="node"><title>Node21</title>
<g id="a_node21"><a xlink:href="a00182_source.html" target="_top" xlink:title="freetds/data.h">
<polygon fill="white" stroke="black" points="1434.5,-56.5 1434.5,-75.5 1516.5,-75.5 1516.5,-56.5 1434.5,-56.5"/>
<text text-anchor="middle" x="1475.5" y="-63.5" font-family="Helvetica,sans-Serif" font-size="10.00">freetds/data.h</text>
</a>
</g>
</g>
<!-- Node1&#45;&gt;Node21 -->
<g id="edge34" class="edge"><title>Node1&#45;&gt;Node21</title>
<path fill="none" stroke="midnightblue" d="M1193.6,-226.08C1222.93,-219.788 1261.53,-208.28 1290.5,-188 1325.53,-163.474 1314.87,-137.084 1349.5,-112 1371.74,-95.8929 1400.31,-85.066 1424.62,-78.0772"/>
<polygon fill="midnightblue" stroke="midnightblue" points="1425.67,-81.4173 1434.39,-75.4034 1423.82,-74.6652 1425.67,-81.4173"/>
</g>
<!-- Node22 -->
<g id="node22" class="node"><title>Node22</title>
<g id="a_node22"><a xlink:href="a00209_source.html" target="_top" xlink:title="sybfront.h">
<polygon fill="white" stroke="black" points="1197.5,-168.5 1197.5,-187.5 1259.5,-187.5 1259.5,-168.5 1197.5,-168.5"/>
<text text-anchor="middle" x="1228.5" y="-175.5" font-family="Helvetica,sans-Serif" font-size="10.00">sybfront.h</text>
</a>
</g>
</g>
<!-- Node1&#45;&gt;Node22 -->
<g id="edge38" class="edge"><title>Node1&#45;&gt;Node22</title>
<path fill="none" stroke="midnightblue" d="M1163.03,-224.324C1175.09,-215.979 1193.53,-203.212 1207.77,-193.352"/>
<polygon fill="midnightblue" stroke="midnightblue" points="1209.77,-196.224 1216,-187.655 1205.78,-190.469 1209.77,-196.224"/>
</g>
<!-- Node23 -->
<g id="node23" class="node"><title>Node23</title>
<g id="a_node23"><a xlink:href="a00207.html" target="_top" xlink:title="Primary include file for db&#45;lib applications. ">
<polygon fill="white" stroke="black" points="1202.5,-112.5 1202.5,-131.5 1254.5,-131.5 1254.5,-112.5 1202.5,-112.5"/>
<text text-anchor="middle" x="1228.5" y="-119.5" font-family="Helvetica,sans-Serif" font-size="10.00">sybdb.h</text>
</a>
</g>
</g>
<!-- Node1&#45;&gt;Node23 -->
<g id="edge41" class="edge"><title>Node1&#45;&gt;Node23</title>
<path fill="none" stroke="midnightblue" d="M1154.9,-224.25C1161.51,-211.441 1174.68,-187.042 1188.5,-168 1195.87,-157.849 1205.12,-147.327 1212.87,-139.012"/>
<polygon fill="midnightblue" stroke="midnightblue" points="1215.63,-141.185 1219.99,-131.528 1210.56,-136.359 1215.63,-141.185"/>
</g>
<!-- Node24 -->
<g id="node24" class="node"><title>Node24</title>
<g id="a_node24"><a xlink:href="a00208_source.html" target="_top" xlink:title="syberror.h">
<polygon fill="white" stroke="black" points="1463.5,-168.5 1463.5,-187.5 1527.5,-187.5 1527.5,-168.5 1463.5,-168.5"/>
<text text-anchor="middle" x="1495.5" y="-175.5" font-family="Helvetica,sans-Serif" font-size="10.00">syberror.h</text>
</a>
</g>
</g>
<!-- Node1&#45;&gt;Node24 -->
<g id="edge42" class="edge"><title>Node1&#45;&gt;Node24</title>
<path fill="none" stroke="midnightblue" d="M1193.7,-227.562C1250.82,-220.161 1354.81,-205.959 1453.2,-188.135"/>
<polygon fill="midnightblue" stroke="midnightblue" points="1454.11,-191.527 1463.31,-186.286 1452.85,-184.641 1454.11,-191.527"/>
</g>
<!-- Node25 -->
<g id="node25" class="node"><title>Node25</title>
<g id="a_node25"><a xlink:href="a00176_source.html" target="_top" xlink:title="dblib.h">
<polygon fill="white" stroke="black" points="1534.5,-56.5 1534.5,-75.5 1580.5,-75.5 1580.5,-56.5 1534.5,-56.5"/>
<text text-anchor="middle" x="1557.5" y="-63.5" font-family="Helvetica,sans-Serif" font-size="10.00">dblib.h</text>
</a>
</g>
</g>
<!-- Node1&#45;&gt;Node25 -->
<g id="edge43" class="edge"><title>Node1&#45;&gt;Node25</title>
<path fill="none" stroke="midnightblue" d="M1189.95,-224.451C1223.61,-216.622 1272.99,-203.857 1314.5,-188 1398.2,-156.025 1491.6,-104.806 1534.13,-80.5626"/>
<polygon fill="midnightblue" stroke="midnightblue" points="1535.95,-83.5556 1542.88,-75.5448 1532.47,-77.4831 1535.95,-83.5556"/>
</g>
<!-- Node26 -->
<g id="node26" class="node"><title>Node26</title>
<g id="a_node26"><a xlink:href="a00234_source.html" target="_top" xlink:title="buffering.h">
<polygon fill="white" stroke="black" points="1546,-168.5 1546,-187.5 1611,-187.5 1611,-168.5 1546,-168.5"/>
<text text-anchor="middle" x="1578.5" y="-175.5" font-family="Helvetica,sans-Serif" font-size="10.00">buffering.h</text>
</a>
</g>
</g>
<!-- Node1&#45;&gt;Node26 -->
<g id="edge46" class="edge"><title>Node1&#45;&gt;Node26</title>
<path fill="none" stroke="midnightblue" d="M1193.53,-229.33C1263.21,-223.093 1405.24,-209.166 1535.82,-187.956"/>
<polygon fill="midnightblue" stroke="midnightblue" points="1536.7,-191.358 1546,-186.284 1535.56,-184.451 1536.7,-191.358"/>
</g>
<!-- Node4&#45;&gt;Node4 -->
<g id="edge4" class="edge"><title>Node4&#45;&gt;Node4</title>
<path fill="none" stroke="midnightblue" d="M174.237,-131.525C191.045,-134.308 207.5,-131.133 207.5,-122 207.5,-114.722 197.051,-111.228 184.301,-111.517"/>
<polygon fill="midnightblue" stroke="midnightblue" points="183.86,-108.043 174.237,-112.475 184.524,-115.011 183.86,-108.043"/>
</g>
<!-- Node7&#45;&gt;Node3 -->
<g id="edge8" class="edge"><title>Node7&#45;&gt;Node3</title>
<path fill="none" stroke="midnightblue" d="M694.693,-168.482C705.691,-155.962 722.829,-131.919 713.5,-112 707.455,-99.0941 695.688,-88.5985 684.677,-80.9999"/>
<polygon fill="midnightblue" stroke="midnightblue" points="686.443,-77.9748 676.133,-75.5364 682.672,-83.8723 686.443,-77.9748"/>
</g>
<!-- Node7&#45;&gt;Node4 -->
<g id="edge10" class="edge"><title>Node7&#45;&gt;Node4</title>
<path fill="none" stroke="midnightblue" d="M648.981,-173.896C569.256,-167.194 377.128,-150.471 216.5,-132 211.035,-131.372 205.324,-130.671 199.642,-129.947"/>
<polygon fill="midnightblue" stroke="midnightblue" points="199.872,-126.447 189.503,-128.627 198.968,-133.389 199.872,-126.447"/>
</g>
<!-- Node7&#45;&gt;Node6 -->
<g id="edge9" class="edge"><title>Node7&#45;&gt;Node6</title>
<path fill="none" stroke="midnightblue" d="M648.88,-174.275C577.867,-168.795 419.358,-154.965 287.5,-132 286.039,-131.746 284.55,-131.469 283.049,-131.176"/>
<polygon fill="midnightblue" stroke="midnightblue" points="283.636,-127.722 273.126,-129.06 282.176,-134.568 283.636,-127.722"/>
</g>
<!-- Node8 -->
<g id="node8" class="node"><title>Node8</title>
<g id="a_node8"><a xlink:href="a00197_source.html" target="_top" xlink:title="freetds/version.h">
<polygon fill="white" stroke="black" points="330,-112.5 330,-131.5 425,-131.5 425,-112.5 330,-112.5"/>
<text text-anchor="middle" x="377.5" y="-119.5" font-family="Helvetica,sans-Serif" font-size="10.00">freetds/version.h</text>
</a>
</g>
</g>
<!-- Node7&#45;&gt;Node8 -->
<g id="edge11" class="edge"><title>Node7&#45;&gt;Node8</title>
<path fill="none" stroke="midnightblue" d="M648.919,-170.433C595.671,-161.127 497.8,-144.023 435.279,-133.097"/>
<polygon fill="midnightblue" stroke="midnightblue" points="435.633,-129.606 425.18,-131.332 434.428,-136.502 435.633,-129.606"/>
</g>
<!-- Node9 -->
<g id="node9" class="node"><title>Node9</title>
<polygon fill="white" stroke="#bfbfbf" points="443,-112.5 443,-131.5 554,-131.5 554,-112.5 443,-112.5"/>
<text text-anchor="middle" x="498.5" y="-119.5" font-family="Helvetica,sans-Serif" font-size="10.00">tds_sysdep_public.h</text>
</g>
<!-- Node7&#45;&gt;Node9 -->
<g id="edge12" class="edge"><title>Node7&#45;&gt;Node9</title>
<path fill="none" stroke="midnightblue" d="M656.711,-168.444C624.671,-159.241 573.567,-144.562 538.147,-134.388"/>
<polygon fill="midnightblue" stroke="midnightblue" points="538.727,-130.913 528.15,-131.516 536.795,-137.641 538.727,-130.913"/>
</g>
<!-- Node10 -->
<g id="node10" class="node"><title>Node10</title>
<g id="a_node10"><a xlink:href="a00192_source.html" target="_top" xlink:title="freetds/sysdep_private.h">
<polygon fill="white" stroke="black" points="572,-112.5 572,-131.5 705,-131.5 705,-112.5 572,-112.5"/>
<text text-anchor="middle" x="638.5" y="-119.5" font-family="Helvetica,sans-Serif" font-size="10.00">freetds/sysdep_private.h</text>
</a>
</g>
</g>
<!-- Node7&#45;&gt;Node10 -->
<g id="edge13" class="edge"><title>Node7&#45;&gt;Node10</title>
<path fill="none" stroke="midnightblue" d="M678.574,-168.083C671.654,-160.298 661.435,-148.801 653.048,-139.367"/>
<polygon fill="midnightblue" stroke="midnightblue" points="655.538,-136.9 646.279,-131.751 650.306,-141.55 655.538,-136.9"/>
</g>
<!-- Node7&#45;&gt;Node11 -->
<g id="edge14" class="edge"><title>Node7&#45;&gt;Node11</title>
<path fill="none" stroke="midnightblue" d="M724.352,-171.81C781.74,-163.894 894.459,-148.16 1001.37,-131.995"/>
<polygon fill="midnightblue" stroke="midnightblue" points="1002,-135.439 1011.37,-130.48 1000.95,-128.518 1002,-135.439"/>
</g>
<!-- Node7&#45;&gt;Node12 -->
<g id="edge15" class="edge"><title>Node7&#45;&gt;Node12</title>
<path fill="none" stroke="midnightblue" d="M724.038,-169.263C769.538,-159.885 846.424,-144.039 897.325,-133.548"/>
<polygon fill="midnightblue" stroke="midnightblue" points="898.054,-136.971 907.141,-131.524 896.64,-130.115 898.054,-136.971"/>
</g>
<!-- Node15 -->
<g id="node15" class="node"><title>Node15</title>
<g id="a_node15"><a xlink:href="a00188_source.html" target="_top" xlink:title="freetds/pushvis.h">
<polygon fill="white" stroke="black" points="1029.5,-0.5 1029.5,-19.5 1125.5,-19.5 1125.5,-0.5 1029.5,-0.5"/>
<text text-anchor="middle" x="1077.5" y="-7.5" font-family="Helvetica,sans-Serif" font-size="10.00">freetds/pushvis.h</text>
</a>
</g>
</g>
<!-- Node7&#45;&gt;Node15 -->
<g id="edge24" class="edge"><title>Node7&#45;&gt;Node15</title>
<path fill="none" stroke="midnightblue" d="M648.67,-173.698C557.308,-165.543 331.316,-144.228 320.5,-132 314.611,-125.342 314.816,-118.834 320.5,-112 365.182,-58.2713 849.644,-24.5399 1019.26,-14.3069"/>
<polygon fill="midnightblue" stroke="midnightblue" points="1019.48,-17.8 1029.25,-13.7092 1019.06,-10.8125 1019.48,-17.8"/>
</g>
<!-- Node16 -->
<g id="node16" class="node"><title>Node16</title>
<g id="a_node16"><a xlink:href="a00186_source.html" target="_top" xlink:title="freetds/popvis.h">
<polygon fill="white" stroke="black" points="1143.5,-0.5 1143.5,-19.5 1235.5,-19.5 1235.5,-0.5 1143.5,-0.5"/>
<text text-anchor="middle" x="1189.5" y="-7.5" font-family="Helvetica,sans-Serif" font-size="10.00">freetds/popvis.h</text>
</a>
</g>
</g>
<!-- Node7&#45;&gt;Node16 -->
<g id="edge26" class="edge"><title>Node7&#45;&gt;Node16</title>
<path fill="none" stroke="midnightblue" d="M724.225,-172.365C769.249,-165.968 840.485,-152.806 856.5,-132 895.466,-81.3775 691.4,-103.153 734.5,-56 763.078,-24.7348 1057.92,-25.4399 1133.2,-19.7752"/>
<polygon fill="midnightblue" stroke="midnightblue" points="1133.7,-23.2432 1143.32,-18.8055 1133.03,-16.2751 1133.7,-23.2432"/>
</g>
<!-- Node18 -->
<g id="node18" class="node"><title>Node18</title>
<g id="a_node18"><a xlink:href="a00187_source.html" target="_top" xlink:title="freetds/proto.h">
<polygon fill="white" stroke="black" points="761.5,-112.5 761.5,-131.5 847.5,-131.5 847.5,-112.5 761.5,-112.5"/>
<text text-anchor="middle" x="804.5" y="-119.5" font-family="Helvetica,sans-Serif" font-size="10.00">freetds/proto.h</text>
</a>
</g>
</g>
<!-- Node7&#45;&gt;Node18 -->
<g id="edge25" class="edge"><title>Node7&#45;&gt;Node18</title>
<path fill="none" stroke="midnightblue" d="M705.197,-168.444C724.444,-159.636 754.652,-145.812 776.7,-135.722"/>
<polygon fill="midnightblue" stroke="midnightblue" points="778.253,-138.86 785.89,-131.516 775.34,-132.495 778.253,-138.86"/>
</g>
<!-- Node12&#45;&gt;Node3 -->
<g id="edge16" class="edge"><title>Node12&#45;&gt;Node3</title>
<path fill="none" stroke="midnightblue" d="M903.977,-112.681C847.274,-102.086 750.284,-83.9631 697.108,-74.0271"/>
<polygon fill="midnightblue" stroke="midnightblue" points="697.554,-70.55 687.082,-72.1537 696.269,-77.4309 697.554,-70.55"/>
</g>
<!-- Node13 -->
<g id="node13" class="node"><title>Node13</title>
<g id="a_node13"><a xlink:href="a00210_source.html" target="_top" xlink:title="tds_sysdep_public.h">
<polygon fill="white" stroke="black" points="1200,-56.5 1200,-75.5 1311,-75.5 1311,-56.5 1200,-56.5"/>
<text text-anchor="middle" x="1255.5" y="-63.5" font-family="Helvetica,sans-Serif" font-size="10.00">tds_sysdep_public.h</text>
</a>
</g>
</g>
<!-- Node12&#45;&gt;Node13 -->
<g id="edge17" class="edge"><title>Node12&#45;&gt;Node13</title>
<path fill="none" stroke="midnightblue" d="M993.14,-113.148C1046.98,-103.677 1137.64,-87.7306 1197.03,-77.2855"/>
<polygon fill="midnightblue" stroke="midnightblue" points="1197.76,-80.7098 1207,-75.5303 1196.55,-73.8156 1197.76,-80.7098"/>
</g>
<!-- Node14 -->
<g id="node14" class="node"><title>Node14</title>
<g id="a_node14"><a xlink:href="a00203_source.html" target="_top" xlink:title="replacements/readpassphrase.h">
<polygon fill="white" stroke="black" points="861,-56.5 861,-75.5 1030,-75.5 1030,-56.5 861,-56.5"/>
<text text-anchor="middle" x="945.5" y="-63.5" font-family="Helvetica,sans-Serif" font-size="10.00">replacements/readpassphrase.h</text>
</a>
</g>
</g>
<!-- Node12&#45;&gt;Node14 -->
<g id="edge18" class="edge"><title>Node12&#45;&gt;Node14</title>
<path fill="none" stroke="midnightblue" d="M948.005,-112.083C947.611,-105.006 947.048,-94.8611 946.555,-85.9865"/>
<polygon fill="midnightblue" stroke="midnightblue" points="950.036,-85.5415 945.986,-75.7511 943.046,-85.9299 950.036,-85.5415"/>
</g>
<!-- Node12&#45;&gt;Node15 -->
<g id="edge22" class="edge"><title>Node12&#45;&gt;Node15</title>
<path fill="none" stroke="midnightblue" d="M914.015,-112.478C878.134,-101.976 829.962,-82.2497 851.5,-56 872.34,-30.6008 959.47,-19.2697 1019.25,-14.41"/>
<polygon fill="midnightblue" stroke="midnightblue" points="1019.63,-17.891 1029.33,-13.6301 1019.09,-10.9118 1019.63,-17.891"/>
</g>
<!-- Node12&#45;&gt;Node16 -->
<g id="edge23" class="edge"><title>Node12&#45;&gt;Node16</title>
<path fill="none" stroke="midnightblue" d="M965.807,-112.48C983.968,-103.508 1013.32,-88.9192 1038.5,-76 1055.48,-67.2875 1059.17,-63.9861 1076.5,-56 1102.9,-43.8388 1133.57,-31.747 1156.3,-23.1651"/>
<polygon fill="midnightblue" stroke="midnightblue" points="1157.68,-26.3823 1165.82,-19.597 1155.23,-19.8271 1157.68,-26.3823"/>
</g>
<!-- Node17 -->
<g id="node17" class="node"><title>Node17</title>
<g id="a_node17"><a xlink:href="a00178.html" target="_top" xlink:title="Provide poll call where missing. ">
<polygon fill="white" stroke="red" points="743.5,-56.5 743.5,-75.5 805.5,-75.5 805.5,-56.5 743.5,-56.5"/>
<text text-anchor="middle" x="774.5" y="-63.5" font-family="Helvetica,sans-Serif" font-size="10.00">fakepoll.h</text>
</a>
</g>
</g>
<!-- Node12&#45;&gt;Node17 -->
<g id="edge21" class="edge"><title>Node12&#45;&gt;Node17</title>
<path fill="none" stroke="midnightblue" d="M920.929,-112.444C891.403,-103.28 844.382,-88.6876 811.617,-78.5192"/>
<polygon fill="midnightblue" stroke="midnightblue" points="812.53,-75.1378 801.942,-75.5164 810.455,-81.8232 812.53,-75.1378"/>
</g>
<!-- Node14&#45;&gt;Node15 -->
<g id="edge19" class="edge"><title>Node14&#45;&gt;Node15</title>
<path fill="none" stroke="midnightblue" d="M966.416,-56.4435C988.236,-47.5171 1022.65,-33.4387 1047.39,-23.3168"/>
<polygon fill="midnightblue" stroke="midnightblue" points="1048.75,-26.5422 1056.68,-19.5164 1046.1,-20.0634 1048.75,-26.5422"/>
</g>
<!-- Node14&#45;&gt;Node16 -->
<g id="edge20" class="edge"><title>Node14&#45;&gt;Node16</title>
<path fill="none" stroke="midnightblue" d="M984.163,-56.4435C1026.64,-47.0431 1094.93,-31.9291 1140.97,-21.7393"/>
<polygon fill="midnightblue" stroke="midnightblue" points="1142.01,-25.0946 1151.02,-19.5164 1140.5,-18.26 1142.01,-25.0946"/>
</g>
<!-- Node19&#45;&gt;Node15 -->
<g id="edge29" class="edge"><title>Node19&#45;&gt;Node15</title>
<path fill="none" stroke="midnightblue" d="M1124.5,-56.324C1116.31,-48.4196 1103.99,-36.5482 1094.03,-26.9377"/>
<polygon fill="midnightblue" stroke="midnightblue" points="1096.29,-24.2558 1086.66,-19.8339 1091.43,-29.2947 1096.29,-24.2558"/>
</g>
<!-- Node19&#45;&gt;Node16 -->
<g id="edge30" class="edge"><title>Node19&#45;&gt;Node16</title>
<path fill="none" stroke="midnightblue" d="M1142.5,-56.324C1150.69,-48.4196 1163.01,-36.5482 1172.97,-26.9377"/>
<polygon fill="midnightblue" stroke="midnightblue" points="1175.57,-29.2947 1180.34,-19.8339 1170.71,-24.2558 1175.57,-29.2947"/>
</g>
<!-- Node20&#45;&gt;Node15 -->
<g id="edge32" class="edge"><title>Node20&#45;&gt;Node15</title>
<path fill="none" stroke="midnightblue" d="M1328.97,-57.0321C1277.26,-47.5669 1190.87,-31.7524 1134.04,-21.3488"/>
<polygon fill="midnightblue" stroke="midnightblue" points="1134.6,-17.8938 1124.13,-19.536 1133.34,-24.7794 1134.6,-17.8938"/>
</g>
<!-- Node20&#45;&gt;Node16 -->
<g id="edge33" class="edge"><title>Node20&#45;&gt;Node16</title>
<path fill="none" stroke="midnightblue" d="M1343.5,-56.4435C1312.32,-47.2406 1262.57,-32.5617 1228.09,-22.3879"/>
<polygon fill="midnightblue" stroke="midnightblue" points="1228.94,-18.9898 1218.36,-19.5164 1226.96,-25.7036 1228.94,-18.9898"/>
</g>
<!-- Node21&#45;&gt;Node15 -->
<g id="edge35" class="edge"><title>Node21&#45;&gt;Node15</title>
<path fill="none" stroke="midnightblue" d="M1434.33,-57.5491C1431.01,-57.0043 1427.7,-56.4808 1424.5,-56 1299.32,-37.1981 1264.84,-38.0717 1135.95,-20.1617"/>
<polygon fill="midnightblue" stroke="midnightblue" points="1136.07,-16.6444 1125.69,-18.723 1135.1,-23.5767 1136.07,-16.6444"/>
</g>
<!-- Node21&#45;&gt;Node16 -->
<g id="edge36" class="edge"><title>Node21&#45;&gt;Node16</title>
<path fill="none" stroke="midnightblue" d="M1434.22,-57.2056C1384.27,-47.7744 1299.99,-31.8612 1244.55,-21.3931"/>
<polygon fill="midnightblue" stroke="midnightblue" points="1245.02,-17.9209 1234.54,-19.5047 1243.72,-24.7993 1245.02,-17.9209"/>
</g>
<!-- Node22&#45;&gt;Node23 -->
<g id="edge39" class="edge"><title>Node22&#45;&gt;Node23</title>
<path fill="none" stroke="midnightblue" d="M1228.5,-168.083C1228.5,-161.006 1228.5,-150.861 1228.5,-141.986"/>
<polygon fill="midnightblue" stroke="midnightblue" points="1232,-141.751 1228.5,-131.751 1225,-141.751 1232,-141.751"/>
</g>
<!-- Node23&#45;&gt;Node13 -->
<g id="edge40" class="edge"><title>Node23&#45;&gt;Node13</title>
<path fill="none" stroke="midnightblue" d="M1232.96,-112.083C1236.65,-104.691 1242.02,-93.9533 1246.59,-84.8111"/>
<polygon fill="midnightblue" stroke="midnightblue" points="1249.78,-86.2606 1251.12,-75.7511 1243.52,-83.1301 1249.78,-86.2606"/>
</g>
<!-- Node25&#45;&gt;Node15 -->
<g id="edge44" class="edge"><title>Node25&#45;&gt;Node15</title>
<path fill="none" stroke="midnightblue" d="M1534.2,-57.9159C1531.29,-57.1884 1528.34,-56.5251 1525.5,-56 1357.08,-24.833 1309.43,-40.9922 1135.66,-20.0583"/>
<polygon fill="midnightblue" stroke="midnightblue" points="1136.02,-16.5763 1125.67,-18.8307 1135.17,-23.5241 1136.02,-16.5763"/>
</g>
<!-- Node25&#45;&gt;Node16 -->
<g id="edge45" class="edge"><title>Node25&#45;&gt;Node16</title>
<path fill="none" stroke="midnightblue" d="M1534.17,-58.0295C1531.27,-57.2825 1528.33,-56.5836 1525.5,-56 1428.25,-35.9167 1313.24,-22.7591 1246.12,-16.1218"/>
<polygon fill="midnightblue" stroke="midnightblue" points="1246.06,-12.5997 1235.77,-15.1125 1245.38,-19.5666 1246.06,-12.5997"/>
</g>
</g>
</svg>
