<?xml version="1.0" encoding="UTF-8" standalone="no"?>
<!DOCTYPE svg PUBLIC "-//W3C//DTD SVG 1.1//EN"
 "http://www.w3.org/Graphics/SVG/1.1/DTD/svg11.dtd">
<!-- Generated by graphviz version 2.38.0 (20140413.2041)
 -->
<!-- Title: tds_dstr_get Pages: 1 -->
<svg width="865pt" height="175pt"
 viewBox="0.00 0.00 865.00 175.17" xmlns="http://www.w3.org/2000/svg" xmlns:xlink="http://www.w3.org/1999/xlink">
<g id="graph0" class="graph" transform="scale(1 1) rotate(0) translate(4 171.167)">
<title>tds_dstr_get</title>
<polygon fill="white" stroke="none" points="-4,4 -4,-171.167 861,-171.167 861,4 -4,4"/>
<!-- Node1 -->
<g id="node1" class="node"><title>Node1</title>
<polygon fill="#bfbfbf" stroke="black" points="0,-90.6665 0,-109.667 76,-109.667 76,-90.6665 0,-90.6665"/>
<text text-anchor="middle" x="38" y="-97.6665" font-family="Helvetica,sans-Serif" font-size="10.00">tds_dstr_get</text>
</g>
<!-- Node2 -->
<g id="node2" class="node"><title>Node2</title>
<g id="a_node2"><a xlink:href="a00358.html#ga6aa14b8b717b51afcfb65bd55143689d" target="_top" xlink:title="allocate space for length char ">
<polygon fill="white" stroke="black" points="115,-147.667 115,-166.667 198,-166.667 198,-147.667 115,-147.667"/>
<text text-anchor="middle" x="156.5" y="-154.667" font-family="Helvetica,sans-Serif" font-size="10.00">tds_dstr_alloc</text>
</a>
</g>
</g>
<!-- Node1&#45;&gt;Node2 -->
<g id="edge1" class="edge"><title>Node1&#45;&gt;Node2</title>
<path fill="none" stroke="midnightblue" d="M58.4995,-109.707C77.1486,-118.831 105.496,-132.701 126.738,-143.094"/>
<polygon fill="midnightblue" stroke="midnightblue" points="125.416,-146.344 135.937,-147.595 128.493,-140.056 125.416,-146.344"/>
</g>
<!-- Node3 -->
<g id="node3" class="node"><title>Node3</title>
<g id="a_node3"><a xlink:href="a00357.html#gae7d9c4e1a079e1d0aa0252732631e8c4" target="_top" xlink:title="Get N bytes from the buffer and return them in the already allocated space given to us...">
<polygon fill="white" stroke="black" points="257,-109.667 257,-128.667 321,-128.667 321,-109.667 257,-109.667"/>
<text text-anchor="middle" x="289" y="-116.667" font-family="Helvetica,sans-Serif" font-size="10.00">tds_get_n</text>
</a>
</g>
</g>
<!-- Node1&#45;&gt;Node3 -->
<g id="edge2" class="edge"><title>Node1&#45;&gt;Node3</title>
<path fill="none" stroke="midnightblue" d="M76.0089,-102.991C121.603,-106.47 198.852,-112.364 246.441,-115.995"/>
<polygon fill="midnightblue" stroke="midnightblue" points="246.466,-119.507 256.703,-116.778 246.999,-112.528 246.466,-119.507"/>
</g>
<!-- Node9 -->
<g id="node9" class="node"><title>Node9</title>
<g id="a_node9"><a xlink:href="a00357.html#ga90f080e6e9448feac15dee1370d66802" target="_top" xlink:title="Fetch a string from the wire. ">
<polygon fill="white" stroke="black" points="114.5,-71.6665 114.5,-90.6665 198.5,-90.6665 198.5,-71.6665 114.5,-71.6665"/>
<text text-anchor="middle" x="156.5" y="-78.6665" font-family="Helvetica,sans-Serif" font-size="10.00">tds_get_string</text>
</a>
</g>
</g>
<!-- Node1&#45;&gt;Node9 -->
<g id="edge10" class="edge"><title>Node1&#45;&gt;Node9</title>
<path fill="none" stroke="midnightblue" d="M76.1816,-94.1026C85.0819,-92.651 94.7406,-91.0758 104.155,-89.5404"/>
<polygon fill="midnightblue" stroke="midnightblue" points="104.922,-92.9617 114.228,-87.8976 103.795,-86.053 104.922,-92.9617"/>
</g>
<!-- Node14 -->
<g id="node14" class="node"><title>Node14</title>
<g id="a_node14"><a xlink:href="a00358.html#ga0cd7863ba7c2d2da4a193234472a3d14" target="_top" xlink:title="limit length of string, MUST be &lt;= current length ">
<polygon fill="white" stroke="black" points="112,-33.6665 112,-52.6665 201,-52.6665 201,-33.6665 112,-33.6665"/>
<text text-anchor="middle" x="156.5" y="-40.6665" font-family="Helvetica,sans-Serif" font-size="10.00">tds_dstr_setlen</text>
</a>
</g>
</g>
<!-- Node1&#45;&gt;Node14 -->
<g id="edge19" class="edge"><title>Node1&#45;&gt;Node14</title>
<path fill="none" stroke="midnightblue" d="M56.5316,-90.612C71.2142,-82.7141 92.7924,-71.3474 112,-62.1665 115.66,-60.4173 119.52,-58.6384 123.369,-56.9059"/>
<polygon fill="midnightblue" stroke="midnightblue" points="125.061,-59.9844 132.79,-52.738 122.229,-53.5828 125.061,-59.9844"/>
</g>
<!-- Node4 -->
<g id="node4" class="node"><title>Node4</title>
<g id="a_node4"><a xlink:href="a00357.html#ga410619783bdf2bb60b0f27a5578e0e07" target="_top" xlink:title="Read in one &#39;packet&#39; from the server. ">
<polygon fill="white" stroke="black" points="396,-119.667 396,-138.667 492,-138.667 492,-119.667 396,-119.667"/>
<text text-anchor="middle" x="444" y="-126.667" font-family="Helvetica,sans-Serif" font-size="10.00">tds_read_packet</text>
</a>
</g>
</g>
<!-- Node3&#45;&gt;Node4 -->
<g id="edge3" class="edge"><title>Node3&#45;&gt;Node4</title>
<path fill="none" stroke="midnightblue" d="M321.331,-121.214C339.822,-122.423 363.798,-123.99 385.573,-125.413"/>
<polygon fill="midnightblue" stroke="midnightblue" points="385.515,-128.917 395.722,-126.076 385.971,-121.932 385.515,-128.917"/>
</g>
<!-- Node5 -->
<g id="node5" class="node"><title>Node5</title>
<g id="a_node5"><a xlink:href="a00193.html#ab45c291105027e69836002e1dd586141" target="_top" xlink:title="Write a message to the debug log. ">
<polygon fill="white" stroke="black" points="780,-81.6665 780,-100.667 857,-100.667 857,-81.6665 780,-81.6665"/>
<text text-anchor="middle" x="818.5" y="-88.6665" font-family="Helvetica,sans-Serif" font-size="10.00">tdsdump_log</text>
</a>
</g>
</g>
<!-- Node4&#45;&gt;Node5 -->
<g id="edge4" class="edge"><title>Node4&#45;&gt;Node5</title>
<path fill="none" stroke="midnightblue" d="M492.227,-129.726C509.464,-129.905 529.114,-130.079 547,-130.167 594.555,-130.4 606.728,-135.356 654,-130.167 694.731,-125.695 704.158,-119.74 744,-110.167 753.035,-107.996 762.667,-105.579 771.884,-103.218"/>
<polygon fill="midnightblue" stroke="midnightblue" points="772.865,-106.579 781.673,-100.691 771.115,-99.8014 772.865,-106.579"/>
</g>
<!-- Node6 -->
<g id="node6" class="node"><title>Node6</title>
<g id="a_node6"><a xlink:href="a00193.html#abf18b98efef6ce2dc0b97d658a3a1918" target="_top" xlink:title="Call the client library&#39;s error handler (for library&#45;generated errors only) ">
<polygon fill="white" stroke="red" points="690,-81.6665 690,-100.667 744,-100.667 744,-81.6665 690,-81.6665"/>
<text text-anchor="middle" x="717" y="-88.6665" font-family="Helvetica,sans-Serif" font-size="10.00">tdserror</text>
</a>
</g>
</g>
<!-- Node4&#45;&gt;Node6 -->
<g id="edge5" class="edge"><title>Node4&#45;&gt;Node6</title>
<path fill="none" stroke="midnightblue" d="M492.293,-127.654C534.913,-125.632 599.123,-120.949 654,-110.167 662.575,-108.482 671.65,-106.072 680.134,-103.531"/>
<polygon fill="midnightblue" stroke="midnightblue" points="681.255,-106.848 689.756,-100.525 679.167,-100.166 681.255,-106.848"/>
</g>
<!-- Node7 -->
<g id="node7" class="node"><title>Node7</title>
<g id="a_node7"><a xlink:href="a00357.html#ga3e3f76009fce5ceedb2f42bb2c9aed2e" target="_top" xlink:title="Close current socket for last socket close entire connection for MARS send FIN request. ">
<polygon fill="white" stroke="red" points="551.5,-81.6665 551.5,-100.667 649.5,-100.667 649.5,-81.6665 551.5,-81.6665"/>
<text text-anchor="middle" x="600.5" y="-88.6665" font-family="Helvetica,sans-Serif" font-size="10.00">tds_close_socket</text>
</a>
</g>
</g>
<!-- Node4&#45;&gt;Node7 -->
<g id="edge7" class="edge"><title>Node4&#45;&gt;Node7</title>
<path fill="none" stroke="midnightblue" d="M483.987,-119.578C504.283,-114.586 529.293,-108.434 550.846,-103.133"/>
<polygon fill="midnightblue" stroke="midnightblue" points="551.919,-106.474 560.793,-100.687 550.247,-99.6763 551.919,-106.474"/>
</g>
<!-- Node8 -->
<g id="node8" class="node"><title>Node8</title>
<g id="a_node8"><a xlink:href="a00193.html#a79449d2f35a8acc8ed0585044f75524d" target="_top" xlink:title="Dump the contents of data into the log file in a human readable format. ">
<polygon fill="white" stroke="black" points="547,-43.6665 547,-62.6665 654,-62.6665 654,-43.6665 547,-43.6665"/>
<text text-anchor="middle" x="600.5" y="-50.6665" font-family="Helvetica,sans-Serif" font-size="10.00">tdsdump_dump_buf</text>
</a>
</g>
</g>
<!-- Node4&#45;&gt;Node8 -->
<g id="edge9" class="edge"><title>Node4&#45;&gt;Node8</title>
<path fill="none" stroke="midnightblue" d="M490.379,-119.588C497.555,-117.103 504.684,-114.008 511,-110.167 530.878,-98.0788 527.538,-84.9127 547,-72.1665 549.969,-70.2223 553.162,-68.4456 556.455,-66.8283"/>
<polygon fill="midnightblue" stroke="midnightblue" points="558.144,-69.9091 565.895,-62.6854 555.331,-63.4992 558.144,-69.9091"/>
</g>
<!-- Node6&#45;&gt;Node5 -->
<g id="edge6" class="edge"><title>Node6&#45;&gt;Node5</title>
<path fill="none" stroke="midnightblue" d="M744.142,-91.1665C752.006,-91.1665 760.893,-91.1665 769.699,-91.1665"/>
<polygon fill="midnightblue" stroke="midnightblue" points="769.932,-94.6666 779.932,-91.1665 769.932,-87.6666 769.932,-94.6666"/>
</g>
<!-- Node7&#45;&gt;Node6 -->
<g id="edge8" class="edge"><title>Node7&#45;&gt;Node6</title>
<path fill="none" stroke="midnightblue" d="M649.726,-91.1665C659.762,-91.1665 670.177,-91.1665 679.696,-91.1665"/>
<polygon fill="midnightblue" stroke="midnightblue" points="679.995,-94.6666 689.995,-91.1665 679.995,-87.6666 679.995,-94.6666"/>
</g>
<!-- Node9&#45;&gt;Node3 -->
<g id="edge11" class="edge"><title>Node9&#45;&gt;Node3</title>
<path fill="none" stroke="midnightblue" d="M190.431,-90.7555C207.632,-95.7644 228.843,-101.941 247.089,-107.254"/>
<polygon fill="midnightblue" stroke="midnightblue" points="246.297,-110.668 256.877,-110.104 248.254,-103.948 246.297,-110.668"/>
</g>
<!-- Node10 -->
<g id="node10" class="node"><title>Node10</title>
<g id="a_node10"><a xlink:href="a00357.html#ga676c4dee6522815b16fdc8e448e43590" target="_top" xlink:title="For UTF&#45;8 and similar, tds_iconv() may encounter a partial sequence when the chunk boundary is not al...">
<polygon fill="white" stroke="black" points="237,-52.6665 237,-71.6665 341,-71.6665 341,-52.6665 237,-52.6665"/>
<text text-anchor="middle" x="289" y="-59.6665" font-family="Helvetica,sans-Serif" font-size="10.00">read_and_convert</text>
</a>
</g>
</g>
<!-- Node9&#45;&gt;Node10 -->
<g id="edge12" class="edge"><title>Node9&#45;&gt;Node10</title>
<path fill="none" stroke="midnightblue" d="M198.791,-75.1548C207.675,-73.8614 217.247,-72.4678 226.707,-71.0904"/>
<polygon fill="midnightblue" stroke="midnightblue" points="227.5,-74.512 236.891,-69.6077 226.491,-67.585 227.5,-74.512"/>
</g>
<!-- Node11 -->
<g id="node11" class="node"><title>Node11</title>
<g id="a_node11"><a xlink:href="a00263.html#abc3a77c8aa28842e7f28583cbabc1415" target="_top" xlink:title="Initialize a data input stream. ">
<polygon fill="white" stroke="red" points="382,-81.6665 382,-100.667 506,-100.667 506,-81.6665 382,-81.6665"/>
<text text-anchor="middle" x="444" y="-88.6665" font-family="Helvetica,sans-Serif" font-size="10.00">tds_datain_stream_init</text>
</a>
</g>
</g>
<!-- Node10&#45;&gt;Node11 -->
<g id="edge13" class="edge"><title>Node10&#45;&gt;Node11</title>
<path fill="none" stroke="midnightblue" d="M340.522,-71.7426C354.04,-74.3048 368.786,-77.0998 382.771,-79.7507"/>
<polygon fill="midnightblue" stroke="midnightblue" points="382.315,-83.2264 392.792,-81.65 383.619,-76.3489 382.315,-83.2264"/>
</g>
<!-- Node12 -->
<g id="node12" class="node"><title>Node12</title>
<g id="a_node12"><a xlink:href="a00263.html#a9fe0d3799d2e3bde49b614c9d0c3785d" target="_top" xlink:title="Initialize an output stream for write into a static allocated buffer. ">
<polygon fill="white" stroke="red" points="377,-43.6665 377,-62.6665 511,-62.6665 511,-43.6665 377,-43.6665"/>
<text text-anchor="middle" x="444" y="-50.6665" font-family="Helvetica,sans-Serif" font-size="10.00">tds_staticout_stream_init</text>
</a>
</g>
</g>
<!-- Node10&#45;&gt;Node12 -->
<g id="edge14" class="edge"><title>Node10&#45;&gt;Node12</title>
<path fill="none" stroke="midnightblue" d="M341.372,-59.1446C349.546,-58.6638 358.151,-58.1577 366.751,-57.6518"/>
<polygon fill="midnightblue" stroke="midnightblue" points="367.042,-61.1408 376.819,-57.0595 366.631,-54.1529 367.042,-61.1408"/>
</g>
<!-- Node13 -->
<g id="node13" class="node"><title>Node13</title>
<g id="a_node13"><a xlink:href="a00263.html#a9d8eb43a81ff58ab423dce0ce95b9564" target="_top" xlink:title="Reads and writes from a stream converting characters. ">
<polygon fill="white" stroke="red" points="389,-5.66654 389,-24.6665 499,-24.6665 499,-5.66654 389,-5.66654"/>
<text text-anchor="middle" x="444" y="-12.6665" font-family="Helvetica,sans-Serif" font-size="10.00">tds_convert_stream</text>
</a>
</g>
</g>
<!-- Node10&#45;&gt;Node13 -->
<g id="edge15" class="edge"><title>Node10&#45;&gt;Node13</title>
<path fill="none" stroke="midnightblue" d="M318.929,-52.6074C335.822,-47.0877 357.572,-40.0877 377,-34.1665 384.217,-31.967 391.898,-29.6941 399.373,-27.5184"/>
<polygon fill="midnightblue" stroke="midnightblue" points="400.39,-30.8678 409.025,-24.7286 398.446,-24.1431 400.39,-30.8678"/>
</g>
<!-- Node13&#45;&gt;Node5 -->
<g id="edge16" class="edge"><title>Node13&#45;&gt;Node5</title>
<path fill="none" stroke="midnightblue" d="M498.611,-5.62635C541.305,0.1297 602.273,4.21107 654,-8.16654 708.431,-21.1912 765.214,-55.473 795.446,-75.6714"/>
<polygon fill="midnightblue" stroke="midnightblue" points="793.706,-78.7208 803.944,-81.4486 797.642,-72.9319 793.706,-78.7208"/>
</g>
<!-- Node13&#45;&gt;Node6 -->
<g id="edge18" class="edge"><title>Node13&#45;&gt;Node6</title>
<path fill="none" stroke="midnightblue" d="M499.327,-10.7821C542.968,-9.40757 604.865,-12.3989 654,-34.1665 673.52,-42.8142 690.943,-60.1407 702.31,-73.4323"/>
<polygon fill="midnightblue" stroke="midnightblue" points="699.828,-75.9258 708.867,-81.4524 705.247,-71.4951 699.828,-75.9258"/>
</g>
<!-- Node13&#45;&gt;Node8 -->
<g id="edge17" class="edge"><title>Node13&#45;&gt;Node8</title>
<path fill="none" stroke="midnightblue" d="M483.987,-24.7555C504.283,-29.7475 529.293,-35.8989 550.846,-41.1999"/>
<polygon fill="midnightblue" stroke="midnightblue" points="550.247,-44.6568 560.793,-43.6465 551.919,-37.8593 550.247,-44.6568"/>
</g>
</g>
</svg>
