<?xml version="1.0" encoding="UTF-8" standalone="no"?>
<!DOCTYPE svg PUBLIC "-//W3C//DTD SVG 1.1//EN"
 "http://www.w3.org/Graphics/SVG/1.1/DTD/svg11.dtd">
<!-- Generated by graphviz version 2.38.0 (20140413.2041)
 -->
<!-- Title: tds_put_data_info Pages: 1 -->
<svg width="785pt" height="109pt"
 viewBox="0.00 0.00 785.00 109.27" xmlns="http://www.w3.org/2000/svg" xmlns:xlink="http://www.w3.org/1999/xlink">
<g id="graph0" class="graph" transform="scale(1 1) rotate(0) translate(4 105.273)">
<title>tds_put_data_info</title>
<polygon fill="white" stroke="none" points="-4,4 -4,-105.273 781,-105.273 781,4 -4,4"/>
<!-- Node1 -->
<g id="node1" class="node"><title>Node1</title>
<polygon fill="#bfbfbf" stroke="black" points="0,-62.7728 0,-81.7728 101,-81.7728 101,-62.7728 0,-62.7728"/>
<text text-anchor="middle" x="50.5" y="-69.7728" font-family="Helvetica,sans-Serif" font-size="10.00">tds_put_data_info</text>
</g>
<!-- Node2 -->
<g id="node2" class="node"><title>Node2</title>
<g id="a_node2"><a xlink:href="a00193.html#ab45c291105027e69836002e1dd586141" target="_top" xlink:title="Write a message to the debug log. ">
<polygon fill="white" stroke="black" points="700,-53.7728 700,-72.7728 777,-72.7728 777,-53.7728 700,-53.7728"/>
<text text-anchor="middle" x="738.5" y="-60.7728" font-family="Helvetica,sans-Serif" font-size="10.00">tdsdump_log</text>
</a>
</g>
</g>
<!-- Node1&#45;&gt;Node2 -->
<g id="edge1" class="edge"><title>Node1&#45;&gt;Node2</title>
<path fill="none" stroke="midnightblue" d="M101.248,-81.2896C152.6,-89.8027 235.126,-101.273 307,-101.273 307,-101.273 307,-101.273 446,-101.273 532.661,-101.273 632.608,-84.5541 690.088,-73.2957"/>
<polygon fill="midnightblue" stroke="midnightblue" points="690.844,-76.7139 699.97,-71.3316 689.479,-69.8482 690.844,-76.7139"/>
</g>
<!-- Node3 -->
<g id="node3" class="node"><title>Node3</title>
<g id="a_node3"><a xlink:href="a00356.html#ga024bc5482366735070befd6f4af59f71" target="_top" xlink:title="Convert a string in an allocated buffer. ">
<polygon fill="white" stroke="black" points="137,-34.7728 137,-53.7728 241,-53.7728 241,-34.7728 137,-34.7728"/>
<text text-anchor="middle" x="189" y="-41.7728" font-family="Helvetica,sans-Serif" font-size="10.00">tds_convert_string</text>
</a>
</g>
</g>
<!-- Node1&#45;&gt;Node3 -->
<g id="edge2" class="edge"><title>Node1&#45;&gt;Node3</title>
<path fill="none" stroke="midnightblue" d="M98.0938,-62.7151C108.856,-60.5076 120.419,-58.1356 131.55,-55.8522"/>
<polygon fill="midnightblue" stroke="midnightblue" points="132.524,-59.2256 141.616,-53.7874 131.117,-52.3684 132.524,-59.2256"/>
</g>
<!-- Node4 -->
<g id="node4" class="node"><title>Node4</title>
<g id="a_node4"><a xlink:href="a00354.html#ga87db49044919f1bc84c0ff5e9ab00304" target="_top" xlink:title="Wrapper around iconv(3). ">
<polygon fill="white" stroke="black" points="277,-24.7728 277,-43.7728 339,-43.7728 339,-24.7728 277,-24.7728"/>
<text text-anchor="middle" x="308" y="-31.7728" font-family="Helvetica,sans-Serif" font-size="10.00">tds_iconv</text>
</a>
</g>
</g>
<!-- Node3&#45;&gt;Node4 -->
<g id="edge3" class="edge"><title>Node3&#45;&gt;Node4</title>
<path fill="none" stroke="midnightblue" d="M241.318,-39.8867C249.866,-39.1561 258.621,-38.4077 266.84,-37.7053"/>
<polygon fill="midnightblue" stroke="midnightblue" points="267.241,-41.1839 276.906,-36.8449 266.645,-34.2093 267.241,-41.1839"/>
</g>
<!-- Node4&#45;&gt;Node2 -->
<g id="edge4" class="edge"><title>Node4&#45;&gt;Node2</title>
<path fill="none" stroke="midnightblue" d="M339.149,-39.4767C350.373,-41.2461 363.24,-43.0766 375,-44.2728 487.413,-55.7072 620.179,-60.4448 689.647,-62.2574"/>
<polygon fill="midnightblue" stroke="midnightblue" points="689.748,-65.7609 699.833,-62.5139 689.925,-58.7631 689.748,-65.7609"/>
</g>
<!-- Node5 -->
<g id="node5" class="node"><title>Node5</title>
<g id="a_node5"><a xlink:href="a00354.html#ga3380140fc6eb9f2090c430f40e846876" target="_top" xlink:title="Move the input sequence pointer to the next valid position. ">
<polygon fill="white" stroke="black" points="375,-15.7728 375,-34.7728 515,-34.7728 515,-15.7728 375,-15.7728"/>
<text text-anchor="middle" x="445" y="-22.7728" font-family="Helvetica,sans-Serif" font-size="10.00">skip_one_input_sequence</text>
</a>
</g>
</g>
<!-- Node4&#45;&gt;Node5 -->
<g id="edge5" class="edge"><title>Node4&#45;&gt;Node5</title>
<path fill="none" stroke="midnightblue" d="M339.297,-32.253C347.035,-31.7372 355.721,-31.1581 364.695,-30.5598"/>
<polygon fill="midnightblue" stroke="midnightblue" points="365.169,-34.0361 374.914,-29.8785 364.704,-27.0516 365.169,-34.0361"/>
</g>
<!-- Node6 -->
<g id="node6" class="node"><title>Node6</title>
<g id="a_node6"><a xlink:href="a00354.html#ga900b0bce08c6bfc2e7c988f4b5970516" target="_top" xlink:title="Inputs are FreeTDS canonical names, no other. ">
<polygon fill="white" stroke="black" points="551,-15.7728 551,-34.7728 664,-34.7728 664,-15.7728 551,-15.7728"/>
<text text-anchor="middle" x="607.5" y="-22.7728" font-family="Helvetica,sans-Serif" font-size="10.00">tds_sys_iconv_open</text>
</a>
</g>
</g>
<!-- Node4&#45;&gt;Node6 -->
<g id="edge8" class="edge"><title>Node4&#45;&gt;Node6</title>
<path fill="none" stroke="midnightblue" d="M326.304,-24.6558C339.268,-18.0246 357.68,-9.79484 375,-6.27282 437.771,6.49169 511.773,-3.89931 558.902,-13.6248"/>
<polygon fill="midnightblue" stroke="midnightblue" points="558.317,-17.0787 568.827,-15.7455 559.779,-10.2332 558.317,-17.0787"/>
</g>
<!-- Node5&#45;&gt;Node6 -->
<g id="edge6" class="edge"><title>Node5&#45;&gt;Node6</title>
<path fill="none" stroke="midnightblue" d="M515.464,-25.2728C523.897,-25.2728 532.491,-25.2728 540.865,-25.2728"/>
<polygon fill="midnightblue" stroke="midnightblue" points="540.945,-28.7729 550.945,-25.2728 540.945,-21.7729 540.945,-28.7729"/>
</g>
<!-- Node6&#45;&gt;Node2 -->
<g id="edge7" class="edge"><title>Node6&#45;&gt;Node2</title>
<path fill="none" stroke="midnightblue" d="M641.052,-34.8618C657.399,-39.6773 677.409,-45.5717 694.957,-50.7408"/>
<polygon fill="midnightblue" stroke="midnightblue" points="694.377,-54.2185 704.958,-53.6869 696.355,-47.5038 694.377,-54.2185"/>
</g>
</g>
</svg>
