<?xml version="1.0" encoding="UTF-8" standalone="no"?>
<!DOCTYPE svg PUBLIC "-//W3C//DTD SVG 1.1//EN"
 "http://www.w3.org/Graphics/SVG/1.1/DTD/svg11.dtd">
<!-- Generated by graphviz version 2.38.0 (20140413.2041)
 -->
<!-- Title: tds_process_cursor_tokens Pages: 1 -->
<svg width="873pt" height="518pt"
 viewBox="0.00 0.00 873.00 517.92" xmlns="http://www.w3.org/2000/svg" xmlns:xlink="http://www.w3.org/1999/xlink">
<g id="graph0" class="graph" transform="scale(1 1) rotate(0) translate(4 513.916)">
<title>tds_process_cursor_tokens</title>
<polygon fill="white" stroke="none" points="-4,4 -4,-513.916 869,-513.916 869,4 -4,4"/>
<!-- Node1 -->
<g id="node1" class="node"><title>Node1</title>
<polygon fill="#bfbfbf" stroke="black" points="0,-479.416 0,-509.416 110,-509.416 110,-479.416 0,-479.416"/>
<text text-anchor="start" x="8" y="-497.416" font-family="Helvetica,sans-Serif" font-size="10.00">tds_process_cursor</text>
<text text-anchor="middle" x="55" y="-486.416" font-family="Helvetica,sans-Serif" font-size="10.00">_tokens</text>
</g>
<!-- Node2 -->
<g id="node2" class="node"><title>Node2</title>
<g id="a_node2"><a xlink:href="a00359.html#ga39453d084f3f780ac4602d4abf2839f7" target="_top" xlink:title="tds_process_default_tokens() is a catch all function that is called to process tokens not known to ot...">
<polygon fill="white" stroke="black" points="146,-425.416 146,-455.416 258,-455.416 258,-425.416 146,-425.416"/>
<text text-anchor="start" x="154" y="-443.416" font-family="Helvetica,sans-Serif" font-size="10.00">tds_process_default</text>
<text text-anchor="middle" x="202" y="-432.416" font-family="Helvetica,sans-Serif" font-size="10.00">_tokens</text>
</a>
</g>
</g>
<!-- Node1&#45;&gt;Node2 -->
<g id="edge1" class="edge"><title>Node1&#45;&gt;Node2</title>
<path fill="none" stroke="midnightblue" d="M106.047,-475.778C123.857,-469.145 143.673,-461.766 160.575,-455.471"/>
<polygon fill="midnightblue" stroke="midnightblue" points="104.54,-472.604 96.3906,-479.374 106.983,-479.164 104.54,-472.604"/>
</g>
<!-- Node4 -->
<g id="node4" class="node"><title>Node4</title>
<g id="a_node4"><a xlink:href="a00359.html#gabfc9de1d1fe718818caf63a4be4035a6" target="_top" xlink:title="process all streams. ">
<polygon fill="white" stroke="black" points="430,-292.916 430,-311.916 542,-311.916 542,-292.916 430,-292.916"/>
<text text-anchor="middle" x="486" y="-299.916" font-family="Helvetica,sans-Serif" font-size="10.00">tds_process_tokens</text>
</a>
</g>
</g>
<!-- Node1&#45;&gt;Node4 -->
<g id="edge23" class="edge"><title>Node1&#45;&gt;Node4</title>
<path fill="none" stroke="midnightblue" d="M120.425,-504.102C192.94,-511.53 311.388,-512.876 394,-459.416 449.809,-423.302 475.44,-340.064 482.726,-311.917"/>
<polygon fill="midnightblue" stroke="midnightblue" points="120.391,-500.577 110.069,-502.967 119.629,-507.535 120.391,-500.577"/>
</g>
<!-- Node3 -->
<g id="node3" class="node"><title>Node3</title>
<g id="a_node3"><a xlink:href="a00359.html#ga93945b42d45ee28ae1296b35a1c1e9bb" target="_top" xlink:title="tds_process_login_tokens() is called after sending the login packet to the server. ">
<polygon fill="white" stroke="black" points="725,-444.916 725,-463.916 865,-463.916 865,-444.916 725,-444.916"/>
<text text-anchor="middle" x="795" y="-451.916" font-family="Helvetica,sans-Serif" font-size="10.00">tds_process_login_tokens</text>
</a>
</g>
</g>
<!-- Node2&#45;&gt;Node3 -->
<g id="edge2" class="edge"><title>Node2&#45;&gt;Node3</title>
<path fill="none" stroke="midnightblue" d="M264.887,-458.059C357.593,-482.006 537.795,-518.936 689,-492.416 719.743,-487.024 753.347,-473.385 774.054,-464.004"/>
<polygon fill="midnightblue" stroke="midnightblue" points="265.668,-454.646 255.107,-455.497 263.893,-461.417 265.668,-454.646"/>
</g>
<!-- Node2&#45;&gt;Node4 -->
<g id="edge3" class="edge"><title>Node2&#45;&gt;Node4</title>
<path fill="none" stroke="midnightblue" d="M242.708,-420.985C303.981,-391 419.307,-334.564 465.317,-312.048"/>
<polygon fill="midnightblue" stroke="midnightblue" points="241.159,-417.846 233.716,-425.385 244.236,-424.133 241.159,-417.846"/>
</g>
<!-- Node18 -->
<g id="node18" class="node"><title>Node18</title>
<g id="a_node18"><a xlink:href="a00359.html#ga81cdf0ed9e8d29cf1ddf66e18efc407d" target="_top" xlink:title="tds_process_msg() is called for MSG, ERR, or EED tokens and is responsible for calling the CLI&#39;s mess...">
<polygon fill="white" stroke="black" points="294,-430.916 294,-449.916 394,-449.916 394,-430.916 294,-430.916"/>
<text text-anchor="middle" x="344" y="-437.916" font-family="Helvetica,sans-Serif" font-size="10.00">tds_process_msg</text>
</a>
</g>
</g>
<!-- Node2&#45;&gt;Node18 -->
<g id="edge20" class="edge"><title>Node2&#45;&gt;Node18</title>
<path fill="none" stroke="midnightblue" d="M268.369,-433.679C276.983,-433.63 285.69,-433.718 293.967,-433.943"/>
<polygon fill="midnightblue" stroke="midnightblue" points="268.289,-430.18 258.332,-433.8 268.373,-437.18 268.289,-430.18"/>
</g>
<!-- Node5 -->
<g id="node5" class="node"><title>Node5</title>
<g id="a_node5"><a xlink:href="a00344.html#gae67546338cb9542a4902aa914f57f314" target="_top" xlink:title="_bcp_exec_out">
<polygon fill="white" stroke="red" points="589.5,-349.916 589.5,-368.916 677.5,-368.916 677.5,-349.916 589.5,-349.916"/>
<text text-anchor="middle" x="633.5" y="-356.916" font-family="Helvetica,sans-Serif" font-size="10.00">_bcp_exec_out</text>
</a>
</g>
</g>
<!-- Node4&#45;&gt;Node5 -->
<g id="edge4" class="edge"><title>Node4&#45;&gt;Node5</title>
<path fill="none" stroke="midnightblue" d="M518.585,-316.155C536.006,-323.594 558.084,-332.794 578,-340.416 586.423,-343.64 595.659,-346.945 604.096,-349.876"/>
<polygon fill="midnightblue" stroke="midnightblue" points="519.487,-312.733 508.917,-312.004 516.725,-319.165 519.487,-312.733"/>
</g>
<!-- Node6 -->
<g id="node6" class="node"><title>Node6</title>
<g id="a_node6"><a xlink:href="a00341.html#gaf1879b85e8238c015b9648d077665285" target="_top" xlink:title="_dbresults">
<polygon fill="white" stroke="red" points="601,-311.916 601,-330.916 666,-330.916 666,-311.916 601,-311.916"/>
<text text-anchor="middle" x="633.5" y="-318.916" font-family="Helvetica,sans-Serif" font-size="10.00">_dbresults</text>
</a>
</g>
</g>
<!-- Node4&#45;&gt;Node6 -->
<g id="edge5" class="edge"><title>Node4&#45;&gt;Node6</title>
<path fill="none" stroke="midnightblue" d="M552.348,-310.95C569.118,-313.14 586.418,-315.399 600.634,-317.255"/>
<polygon fill="midnightblue" stroke="midnightblue" points="552.376,-307.424 542.007,-309.599 551.47,-314.365 552.376,-307.424"/>
</g>
<!-- Node7 -->
<g id="node7" class="node"><title>Node7</title>
<g id="a_node7"><a xlink:href="a00342.html#gaff09873008411a0573f6d1a9e6c7cf4b" target="_top" xlink:title="Get count of output parameters filled by a stored procedure. ">
<polygon fill="white" stroke="red" points="601,-273.916 601,-292.916 666,-292.916 666,-273.916 601,-273.916"/>
<text text-anchor="middle" x="633.5" y="-280.916" font-family="Helvetica,sans-Serif" font-size="10.00">dbnumrets</text>
</a>
</g>
</g>
<!-- Node4&#45;&gt;Node7 -->
<g id="edge6" class="edge"><title>Node4&#45;&gt;Node7</title>
<path fill="none" stroke="midnightblue" d="M552.348,-293.883C569.118,-291.693 586.418,-289.434 600.634,-287.577"/>
<polygon fill="midnightblue" stroke="midnightblue" points="551.47,-290.468 542.007,-295.233 552.376,-297.409 551.47,-290.468"/>
</g>
<!-- Node8 -->
<g id="node8" class="node"><title>Node8</title>
<g id="a_node8"><a xlink:href="a00341.html#gae1f50a6a2c31fda57cb481922b06841e" target="_top" xlink:title="Wait for results of a query from the server. ">
<polygon fill="white" stroke="red" points="607,-235.916 607,-254.916 660,-254.916 660,-235.916 607,-235.916"/>
<text text-anchor="middle" x="633.5" y="-242.916" font-family="Helvetica,sans-Serif" font-size="10.00">dbsqlok</text>
</a>
</g>
</g>
<!-- Node4&#45;&gt;Node8 -->
<g id="edge7" class="edge"><title>Node4&#45;&gt;Node8</title>
<path fill="none" stroke="midnightblue" d="M518.585,-288.678C536.006,-281.239 558.084,-272.038 578,-264.416 587.358,-260.835 597.722,-257.152 606.877,-253.994"/>
<polygon fill="midnightblue" stroke="midnightblue" points="516.725,-285.667 508.917,-292.829 519.487,-292.099 516.725,-285.667"/>
</g>
<!-- Node9 -->
<g id="node9" class="node"><title>Node9</title>
<g id="a_node9"><a xlink:href="a00341.html#ga548153eb2eae76c48aa9d4b72258dc1c" target="_top" xlink:title="Send text or image data to the server. ">
<polygon fill="white" stroke="black" points="761,-216.916 761,-235.916 829,-235.916 829,-216.916 761,-216.916"/>
<text text-anchor="middle" x="795" y="-223.916" font-family="Helvetica,sans-Serif" font-size="10.00">dbwritetext</text>
</a>
</g>
</g>
<!-- Node4&#45;&gt;Node9 -->
<g id="edge10" class="edge"><title>Node4&#45;&gt;Node9</title>
<path fill="none" stroke="midnightblue" d="M501.031,-285.037C517.279,-266.437 545.949,-238.04 578,-226.416 639.517,-204.106 717.53,-212.211 760.967,-219.633"/>
<polygon fill="midnightblue" stroke="midnightblue" points="498.254,-282.901 494.473,-292.798 503.6,-287.419 498.254,-282.901"/>
</g>
<!-- Node10 -->
<g id="node10" class="node"><title>Node10</title>
<g id="a_node10"><a xlink:href="a00341.html#ga559e24ba70d0d96c3469eb6ab8f74e05" target="_top" xlink:title="Cancel the query currently being retrieved, discarding all pending rows. ">
<polygon fill="white" stroke="red" points="598,-159.916 598,-178.916 669,-178.916 669,-159.916 598,-159.916"/>
<text text-anchor="middle" x="633.5" y="-166.916" font-family="Helvetica,sans-Serif" font-size="10.00">dbcanquery</text>
</a>
</g>
</g>
<!-- Node4&#45;&gt;Node10 -->
<g id="edge9" class="edge"><title>Node4&#45;&gt;Node10</title>
<path fill="none" stroke="midnightblue" d="M498.472,-283.977C513.994,-260.303 543.719,-219.207 578,-193.416 585.849,-187.512 595.377,-182.684 604.258,-178.948"/>
<polygon fill="midnightblue" stroke="midnightblue" points="495.34,-282.377 492.89,-292.685 501.233,-286.155 495.34,-282.377"/>
</g>
<!-- Node11 -->
<g id="node11" class="node"><title>Node11</title>
<g id="a_node11"><a xlink:href="a00341.html#gadd5685565c8c6c86079e17b8a73b324c" target="_top" xlink:title="Fetch part of a text or image value from the server. ">
<polygon fill="white" stroke="black" points="600,-121.916 600,-140.916 667,-140.916 667,-121.916 600,-121.916"/>
<text text-anchor="middle" x="633.5" y="-128.916" font-family="Helvetica,sans-Serif" font-size="10.00">dbreadtext</text>
</a>
</g>
</g>
<!-- Node4&#45;&gt;Node11 -->
<g id="edge11" class="edge"><title>Node4&#45;&gt;Node11</title>
<path fill="none" stroke="midnightblue" d="M493.573,-283.092C505.44,-251.012 533.431,-186.709 578,-150.416 584.294,-145.291 592.061,-141.507 599.739,-138.729"/>
<polygon fill="midnightblue" stroke="midnightblue" points="490.227,-282.055 490.166,-292.649 496.821,-284.405 490.227,-282.055"/>
</g>
<!-- Node12 -->
<g id="node12" class="node"><title>Node12</title>
<g id="a_node12"><a xlink:href="a00341.html#gac980139b9cea03cf93e373d425991481" target="_top" xlink:title="Transmit the command buffer to the server. ">
<polygon fill="white" stroke="red" points="601,-83.9163 601,-102.916 666,-102.916 666,-83.9163 601,-83.9163"/>
<text text-anchor="middle" x="633.5" y="-90.9163" font-family="Helvetica,sans-Serif" font-size="10.00">dbsqlsend</text>
</a>
</g>
</g>
<!-- Node4&#45;&gt;Node12 -->
<g id="edge12" class="edge"><title>Node4&#45;&gt;Node12</title>
<path fill="none" stroke="midnightblue" d="M491.141,-282.624C500.161,-244.324 525.154,-159.689 578,-112.416 584.423,-106.671 592.681,-102.641 600.816,-99.8235"/>
<polygon fill="midnightblue" stroke="midnightblue" points="487.692,-282.009 488.925,-292.532 494.523,-283.536 487.692,-282.009"/>
</g>
<!-- Node13 -->
<g id="node13" class="node"><title>Node13</title>
<g id="a_node13"><a xlink:href="a00356.html#gaf0da49585d39e99780a004ee2ca23479" target="_top" xlink:title="Send option commands to server. ">
<polygon fill="white" stroke="black" points="734.5,-17.9163 734.5,-36.9163 855.5,-36.9163 855.5,-17.9163 734.5,-17.9163"/>
<text text-anchor="middle" x="795" y="-24.9163" font-family="Helvetica,sans-Serif" font-size="10.00">tds_submit_optioncmd</text>
</a>
</g>
</g>
<!-- Node4&#45;&gt;Node13 -->
<g id="edge13" class="edge"><title>Node4&#45;&gt;Node13</title>
<path fill="none" stroke="midnightblue" d="M486.373,-282.763C485.9,-230.2 492.767,-86.1992 578,-24.4163 634.783,16.7441 723.864,-3.82903 767.759,-17.9094"/>
<polygon fill="midnightblue" stroke="midnightblue" points="482.874,-282.857 486.567,-292.787 489.872,-282.721 482.874,-282.857"/>
</g>
<!-- Node14 -->
<g id="node14" class="node"><title>Node14</title>
<g id="a_node14"><a xlink:href="a00193.html#ac6610c72bd31bad5378f760fa9b12d66" target="_top" xlink:title="Initialize BCP information. ">
<polygon fill="white" stroke="red" points="597,-463.916 597,-482.916 670,-482.916 670,-463.916 597,-463.916"/>
<text text-anchor="middle" x="633.5" y="-470.916" font-family="Helvetica,sans-Serif" font-size="10.00">tds_bcp_init</text>
</a>
</g>
</g>
<!-- Node4&#45;&gt;Node14 -->
<g id="edge14" class="edge"><title>Node4&#45;&gt;Node14</title>
<path fill="none" stroke="midnightblue" d="M493.573,-321.74C505.44,-353.821 533.431,-418.124 578,-454.416 583.517,-458.909 590.166,-462.37 596.894,-465.028"/>
<polygon fill="midnightblue" stroke="midnightblue" points="496.821,-320.427 490.166,-312.183 490.227,-322.778 496.821,-320.427"/>
</g>
<!-- Node15 -->
<g id="node15" class="node"><title>Node15</title>
<g id="a_node15"><a xlink:href="a00359.html#ga55f27c3e05d42c9b07ace1c74b11c5ab" target="_top" xlink:title="Retrieve and set @spid. ">
<polygon fill="white" stroke="black" points="595,-387.916 595,-406.916 672,-406.916 672,-387.916 595,-387.916"/>
<text text-anchor="middle" x="633.5" y="-394.916" font-family="Helvetica,sans-Serif" font-size="10.00">tds_set_spid</text>
</a>
</g>
</g>
<!-- Node4&#45;&gt;Node15 -->
<g id="edge15" class="edge"><title>Node4&#45;&gt;Node15</title>
<path fill="none" stroke="midnightblue" d="M503.288,-319.202C520.504,-336.133 549.116,-362.045 578,-378.416 584.538,-382.122 591.923,-385.287 599.097,-387.91"/>
<polygon fill="midnightblue" stroke="midnightblue" points="505.762,-316.726 496.22,-312.121 500.808,-321.671 505.762,-316.726"/>
</g>
<!-- Node16 -->
<g id="node16" class="node"><title>Node16</title>
<g id="a_node16"><a xlink:href="a00359.html#gaeeb1562044786ea17bea361ed83e6946" target="_top" xlink:title="Process results for simple query as &quot;SET TEXTSIZE&quot; or &quot;USE dbname&quot; If the statement returns results...">
<polygon fill="white" stroke="red" points="578.5,-34.4163 578.5,-64.4163 688.5,-64.4163 688.5,-34.4163 578.5,-34.4163"/>
<text text-anchor="start" x="586.5" y="-52.4163" font-family="Helvetica,sans-Serif" font-size="10.00">tds_process_simple</text>
<text text-anchor="middle" x="633.5" y="-41.4163" font-family="Helvetica,sans-Serif" font-size="10.00">_query</text>
</a>
</g>
</g>
<!-- Node4&#45;&gt;Node16 -->
<g id="edge17" class="edge"><title>Node4&#45;&gt;Node16</title>
<path fill="none" stroke="midnightblue" d="M489.812,-282.81C496.941,-239.766 519.498,-135.94 578,-74.4163 581.658,-70.569 586.022,-67.2624 590.665,-64.4338"/>
<polygon fill="midnightblue" stroke="midnightblue" points="486.333,-282.401 488.255,-292.82 493.25,-283.477 486.333,-282.401"/>
</g>
<!-- Node17 -->
<g id="node17" class="node"><title>Node17</title>
<g id="a_node17"><a xlink:href="a00359.html#gaf233e79967f82f4e0dd4d11524917a34" target="_top" xlink:title="tds_process_cancel">
<polygon fill="white" stroke="red" points="578,-425.916 578,-444.916 689,-444.916 689,-425.916 578,-425.916"/>
<text text-anchor="middle" x="633.5" y="-432.916" font-family="Helvetica,sans-Serif" font-size="10.00">tds_process_cancel</text>
</a>
</g>
</g>
<!-- Node4&#45;&gt;Node17 -->
<g id="edge19" class="edge"><title>Node4&#45;&gt;Node17</title>
<path fill="none" stroke="midnightblue" d="M497.309,-321.069C512.069,-346.149 541.513,-390.572 578,-416.416 583.397,-420.239 589.633,-423.353 595.918,-425.871"/>
<polygon fill="midnightblue" stroke="midnightblue" points="500.232,-319.131 492.225,-312.192 494.158,-322.609 500.232,-319.131"/>
</g>
<!-- Node8&#45;&gt;Node9 -->
<g id="edge8" class="edge"><title>Node8&#45;&gt;Node9</title>
<path fill="none" stroke="midnightblue" d="M670.371,-241.143C697.525,-237.909 734.532,-233.5 760.965,-230.351"/>
<polygon fill="midnightblue" stroke="midnightblue" points="669.642,-237.705 660.126,-242.364 670.47,-244.656 669.642,-237.705"/>
</g>
<!-- Node15&#45;&gt;Node3 -->
<g id="edge16" class="edge"><title>Node15&#45;&gt;Node3</title>
<path fill="none" stroke="midnightblue" d="M671.583,-410.279C677.416,-412.321 683.375,-414.418 689,-416.416 715.854,-425.956 746.489,-437.07 767.708,-444.804"/>
<polygon fill="midnightblue" stroke="midnightblue" points="672.563,-406.914 661.968,-406.922 670.256,-413.522 672.563,-406.914"/>
</g>
<!-- Node16&#45;&gt;Node13 -->
<g id="edge18" class="edge"><title>Node16&#45;&gt;Node13</title>
<path fill="none" stroke="midnightblue" d="M699.05,-40.5128C710.711,-38.9044 722.823,-37.2338 734.337,-35.6457"/>
<polygon fill="midnightblue" stroke="midnightblue" points="698.373,-37.073 688.945,-41.9067 699.329,-44.0074 698.373,-37.073"/>
</g>
<!-- Node18&#45;&gt;Node2 -->
<g id="edge21" class="edge"><title>Node18&#45;&gt;Node2</title>
<path fill="none" stroke="midnightblue" d="M283.806,-447.094C275.36,-447.208 266.7,-447.187 258.332,-447.033"/>
<polygon fill="midnightblue" stroke="midnightblue" points="284.04,-450.59 293.967,-446.89 283.899,-443.592 284.04,-450.59"/>
</g>
<!-- Node18&#45;&gt;Node4 -->
<g id="edge22" class="edge"><title>Node18&#45;&gt;Node4</title>
<path fill="none" stroke="midnightblue" d="M362.237,-423.425C391.833,-394.252 451.403,-335.533 475.023,-312.251"/>
<polygon fill="midnightblue" stroke="midnightblue" points="359.733,-420.979 355.068,-430.492 364.647,-425.964 359.733,-420.979"/>
</g>
</g>
</svg>
