<?xml version="1.0" encoding="UTF-8" standalone="no"?>
<!DOCTYPE svg PUBLIC "-//W3C//DTD SVG 1.1//EN"
 "http://www.w3.org/Graphics/SVG/1.1/DTD/svg11.dtd">
<!-- Generated by graphviz version 2.38.0 (20140413.2041)
 -->
<!-- Title: tds7_get_instance_ports Pages: 1 -->
<svg width="550pt" height="81pt"
 viewBox="0.00 0.00 550.00 80.82" xmlns="http://www.w3.org/2000/svg" xmlns:xlink="http://www.w3.org/1999/xlink">
<g id="graph0" class="graph" transform="scale(1 1) rotate(0) translate(4 76.8231)">
<title>tds7_get_instance_ports</title>
<polygon fill="white" stroke="none" points="-4,4 -4,-76.8231 546,-76.8231 546,4 -4,4"/>
<!-- Node1 -->
<g id="node1" class="node"><title>Node1</title>
<polygon fill="#bfbfbf" stroke="black" points="0,-38.5 0,-57.5 134,-57.5 134,-38.5 0,-38.5"/>
<text text-anchor="middle" x="67" y="-45.5" font-family="Helvetica,sans-Serif" font-size="10.00">tds7_get_instance_ports</text>
</g>
<!-- Node2 -->
<g id="node2" class="node"><title>Node2</title>
<g id="a_node2"><a xlink:href="a00193.html#ab45c291105027e69836002e1dd586141" target="_top" xlink:title="Write a message to the debug log. ">
<polygon fill="white" stroke="black" points="455.5,-38.5 455.5,-57.5 532.5,-57.5 532.5,-38.5 455.5,-38.5"/>
<text text-anchor="middle" x="494" y="-45.5" font-family="Helvetica,sans-Serif" font-size="10.00">tdsdump_log</text>
</a>
</g>
</g>
<!-- Node1&#45;&gt;Node2 -->
<g id="edge1" class="edge"><title>Node1&#45;&gt;Node2</title>
<path fill="none" stroke="midnightblue" d="M109.444,-57.5111C127.876,-61.2763 149.911,-65.1449 170,-67 276.238,-76.8103 303.868,-72.8995 410,-62 421.468,-60.8222 433.75,-59.0408 445.256,-57.1397"/>
<polygon fill="midnightblue" stroke="midnightblue" points="445.86,-60.5872 455.127,-55.4503 444.679,-53.6875 445.86,-60.5872"/>
</g>
<!-- Node3 -->
<g id="node3" class="node"><title>Node3</title>
<g id="a_node3"><a xlink:href="a00193.html#abf18b98efef6ce2dc0b97d658a3a1918" target="_top" xlink:title="Call the client library&#39;s error handler (for library&#45;generated errors only) ">
<polygon fill="white" stroke="black" points="196.5,-38.5 196.5,-57.5 250.5,-57.5 250.5,-38.5 196.5,-38.5"/>
<text text-anchor="middle" x="223.5" y="-45.5" font-family="Helvetica,sans-Serif" font-size="10.00">tdserror</text>
</a>
</g>
</g>
<!-- Node1&#45;&gt;Node3 -->
<g id="edge2" class="edge"><title>Node1&#45;&gt;Node3</title>
<path fill="none" stroke="midnightblue" d="M134.419,-48C152.228,-48 170.82,-48 186.309,-48"/>
<polygon fill="midnightblue" stroke="midnightblue" points="186.488,-51.5001 196.488,-48 186.488,-44.5001 186.488,-51.5001"/>
</g>
<!-- Node6 -->
<g id="node6" class="node"><title>Node6</title>
<g id="a_node6"><a xlink:href="a00193.html#a79449d2f35a8acc8ed0585044f75524d" target="_top" xlink:title="Dump the contents of data into the log file in a human readable format. ">
<polygon fill="white" stroke="black" points="170,-0.5 170,-19.5 277,-19.5 277,-0.5 170,-0.5"/>
<text text-anchor="middle" x="223.5" y="-7.5" font-family="Helvetica,sans-Serif" font-size="10.00">tdsdump_dump_buf</text>
</a>
</g>
</g>
<!-- Node1&#45;&gt;Node6 -->
<g id="edge7" class="edge"><title>Node1&#45;&gt;Node6</title>
<path fill="none" stroke="midnightblue" d="M106.987,-38.411C127.283,-33.4191 152.293,-27.2676 173.846,-21.9666"/>
<polygon fill="midnightblue" stroke="midnightblue" points="174.919,-25.3072 183.793,-19.5201 173.247,-18.5098 174.919,-25.3072"/>
</g>
<!-- Node3&#45;&gt;Node2 -->
<g id="edge3" class="edge"><title>Node3&#45;&gt;Node2</title>
<path fill="none" stroke="midnightblue" d="M250.734,-48C295.703,-48 388.14,-48 444.932,-48"/>
<polygon fill="midnightblue" stroke="midnightblue" points="445.102,-51.5001 455.102,-48 445.102,-44.5001 445.102,-51.5001"/>
</g>
<!-- Node4 -->
<g id="node4" class="node"><title>Node4</title>
<g id="a_node4"><a xlink:href="a00356.html#ga11338742dc30fd0c2711f58eb830316f" target="_top" xlink:title="tds_send_cancel() sends an empty packet (8 byte header only) tds_process_cancel should be called dire...">
<polygon fill="white" stroke="black" points="313,-0.5 313,-19.5 410,-19.5 410,-0.5 313,-0.5"/>
<text text-anchor="middle" x="361.5" y="-7.5" font-family="Helvetica,sans-Serif" font-size="10.00">tds_send_cancel</text>
</a>
</g>
</g>
<!-- Node3&#45;&gt;Node4 -->
<g id="edge4" class="edge"><title>Node3&#45;&gt;Node4</title>
<path fill="none" stroke="midnightblue" d="M250.722,-40.6732C269.397,-35.4552 294.936,-28.3193 316.682,-22.2433"/>
<polygon fill="midnightblue" stroke="midnightblue" points="317.679,-25.5989 326.368,-19.5369 315.795,-18.8571 317.679,-25.5989"/>
</g>
<!-- Node4&#45;&gt;Node2 -->
<g id="edge5" class="edge"><title>Node4&#45;&gt;Node2</title>
<path fill="none" stroke="midnightblue" d="M395.431,-19.589C412.122,-24.4494 432.589,-30.4091 450.46,-35.6127"/>
<polygon fill="midnightblue" stroke="midnightblue" points="449.5,-38.9787 460.08,-38.4141 451.457,-32.2578 449.5,-38.9787"/>
</g>
<!-- Node5 -->
<g id="node5" class="node"><title>Node5</title>
<g id="a_node5"><a xlink:href="a00357.html#ga5feb53554e8917a81bbbc332163a61fb" target="_top" xlink:title="Flush packet to server. ">
<polygon fill="white" stroke="black" points="446,-0.5 446,-19.5 542,-19.5 542,-0.5 446,-0.5"/>
<text text-anchor="middle" x="494" y="-7.5" font-family="Helvetica,sans-Serif" font-size="10.00">tds_flush_packet</text>
</a>
</g>
</g>
<!-- Node4&#45;&gt;Node5 -->
<g id="edge6" class="edge"><title>Node4&#45;&gt;Node5</title>
<path fill="none" stroke="midnightblue" d="M410.352,-10C418.524,-10 427.087,-10 435.478,-10"/>
<polygon fill="midnightblue" stroke="midnightblue" points="435.59,-13.5001 445.589,-10 435.589,-6.5001 435.59,-13.5001"/>
</g>
</g>
</svg>
