<?xml version="1.0" encoding="UTF-8" standalone="no"?>
<!DOCTYPE svg PUBLIC "-//W3C//DTD SVG 1.1//EN"
 "http://www.w3.org/Graphics/SVG/1.1/DTD/svg11.dtd">
<!-- Generated by graphviz version 2.38.0 (20140413.2041)
 -->
<!-- Title: bcp_columns Pages: 1 -->
<svg width="342pt" height="80pt"
 viewBox="0.00 0.00 342.00 79.54" xmlns="http://www.w3.org/2000/svg" xmlns:xlink="http://www.w3.org/1999/xlink">
<g id="graph0" class="graph" transform="scale(1 1) rotate(0) translate(4 75.5413)">
<title>bcp_columns</title>
<polygon fill="white" stroke="none" points="-4,4 -4,-75.5413 338,-75.5413 338,4 -4,4"/>
<!-- Node1 -->
<g id="node1" class="node"><title>Node1</title>
<polygon fill="#bfbfbf" stroke="black" points="0,-38.5 0,-57.5 77,-57.5 77,-38.5 0,-38.5"/>
<text text-anchor="middle" x="38.5" y="-45.5" font-family="Helvetica,sans-Serif" font-size="10.00">bcp_columns</text>
</g>
<!-- Node2 -->
<g id="node2" class="node"><title>Node2</title>
<g id="a_node2"><a xlink:href="a00193.html#ab45c291105027e69836002e1dd586141" target="_top" xlink:title="Write a message to the debug log. ">
<polygon fill="white" stroke="black" points="257,-38.5 257,-57.5 334,-57.5 334,-38.5 257,-38.5"/>
<text text-anchor="middle" x="295.5" y="-45.5" font-family="Helvetica,sans-Serif" font-size="10.00">tdsdump_log</text>
</a>
</g>
</g>
<!-- Node1&#45;&gt;Node2 -->
<g id="edge1" class="edge"><title>Node1&#45;&gt;Node2</title>
<path fill="none" stroke="midnightblue" d="M69.2048,-57.5044C82.4577,-61.2684 98.3565,-65.1379 113,-67 160.617,-73.055 173.383,-73.055 221,-67 232.211,-65.5743 244.159,-62.972 255.091,-60.1412"/>
<polygon fill="midnightblue" stroke="midnightblue" points="256.063,-63.5041 264.795,-57.5044 254.227,-56.749 256.063,-63.5041"/>
</g>
<!-- Node3 -->
<g id="node3" class="node"><title>Node3</title>
<g id="a_node3"><a xlink:href="a00347.html#ga302a4ce6559b81808e3be51615cd1b67" target="_top" xlink:title="Call client&#45;installed error handler. ">
<polygon fill="white" stroke="black" points="138.5,-38.5 138.5,-57.5 195.5,-57.5 195.5,-38.5 138.5,-38.5"/>
<text text-anchor="middle" x="167" y="-45.5" font-family="Helvetica,sans-Serif" font-size="10.00">dbperror</text>
</a>
</g>
</g>
<!-- Node1&#45;&gt;Node3 -->
<g id="edge2" class="edge"><title>Node1&#45;&gt;Node3</title>
<path fill="none" stroke="midnightblue" d="M77.1117,-48C93.2423,-48 112.051,-48 128.202,-48"/>
<polygon fill="midnightblue" stroke="midnightblue" points="128.377,-51.5001 138.377,-48 128.377,-44.5001 128.377,-51.5001"/>
</g>
<!-- Node4 -->
<g id="node4" class="node"><title>Node4</title>
<g id="a_node4"><a xlink:href="a00344.html#gacf69ac4cbe8e3c3e6ea665e31e5e85b8" target="_top" xlink:title="_bcp_free_columns">
<polygon fill="white" stroke="black" points="113,-0.5 113,-19.5 221,-19.5 221,-0.5 113,-0.5"/>
<text text-anchor="middle" x="167" y="-7.5" font-family="Helvetica,sans-Serif" font-size="10.00">_bcp_free_columns</text>
</a>
</g>
</g>
<!-- Node1&#45;&gt;Node4 -->
<g id="edge4" class="edge"><title>Node1&#45;&gt;Node4</title>
<path fill="none" stroke="midnightblue" d="M71.4213,-38.411C87.4516,-33.5956 107.074,-27.7012 124.282,-22.532"/>
<polygon fill="midnightblue" stroke="midnightblue" points="125.519,-25.815 134.089,-19.5859 123.505,-19.1109 125.519,-25.815"/>
</g>
<!-- Node3&#45;&gt;Node2 -->
<g id="edge3" class="edge"><title>Node3&#45;&gt;Node2</title>
<path fill="none" stroke="midnightblue" d="M195.761,-48C210.577,-48 229.235,-48 246.332,-48"/>
<polygon fill="midnightblue" stroke="midnightblue" points="246.727,-51.5001 256.727,-48 246.727,-44.5001 246.727,-51.5001"/>
</g>
<!-- Node4&#45;&gt;Node2 -->
<g id="edge5" class="edge"><title>Node4&#45;&gt;Node2</title>
<path fill="none" stroke="midnightblue" d="M199.921,-19.589C215.952,-24.4044 235.574,-30.2988 252.782,-35.468"/>
<polygon fill="midnightblue" stroke="midnightblue" points="252.005,-38.8891 262.589,-38.4141 254.019,-32.185 252.005,-38.8891"/>
</g>
</g>
</svg>
