<?xml version="1.0" encoding="UTF-8" standalone="no"?>
<!DOCTYPE svg PUBLIC "-//W3C//DTD SVG 1.1//EN"
 "http://www.w3.org/Graphics/SVG/1.1/DTD/svg11.dtd">
<!-- Generated by graphviz version 2.38.0 (20140413.2041)
 -->
<!-- Title: _bcp_readfmt_colinfo Pages: 1 -->
<svg width="332pt" height="47pt"
 viewBox="0.00 0.00 332.00 47.00" xmlns="http://www.w3.org/2000/svg" xmlns:xlink="http://www.w3.org/1999/xlink">
<g id="graph0" class="graph" transform="scale(1 1) rotate(0) translate(4 43)">
<title>_bcp_readfmt_colinfo</title>
<polygon fill="white" stroke="none" points="-4,4 -4,-43 328,-43 328,4 -4,4"/>
<!-- Node1 -->
<g id="node1" class="node"><title>Node1</title>
<polygon fill="#bfbfbf" stroke="black" points="0,-19.5 0,-38.5 118,-38.5 118,-19.5 0,-19.5"/>
<text text-anchor="middle" x="59" y="-26.5" font-family="Helvetica,sans-Serif" font-size="10.00">_bcp_readfmt_colinfo</text>
</g>
<!-- Node2 -->
<g id="node2" class="node"><title>Node2</title>
<g id="a_node2"><a xlink:href="a00193.html#ab45c291105027e69836002e1dd586141" target="_top" xlink:title="Write a message to the debug log. ">
<polygon fill="white" stroke="black" points="247,-19.5 247,-38.5 324,-38.5 324,-19.5 247,-19.5"/>
<text text-anchor="middle" x="285.5" y="-26.5" font-family="Helvetica,sans-Serif" font-size="10.00">tdsdump_log</text>
</a>
</g>
</g>
<!-- Node1&#45;&gt;Node2 -->
<g id="edge1" class="edge"><title>Node1&#45;&gt;Node2</title>
<path fill="none" stroke="midnightblue" d="M118.106,-29C154.841,-29 201.748,-29 236.39,-29"/>
<polygon fill="midnightblue" stroke="midnightblue" points="236.722,-32.5001 246.722,-29 236.722,-25.5001 236.722,-32.5001"/>
</g>
<!-- Node3 -->
<g id="node3" class="node"><title>Node3</title>
<g id="a_node3"><a xlink:href="a00347.html#ga302a4ce6559b81808e3be51615cd1b67" target="_top" xlink:title="Call client&#45;installed error handler. ">
<polygon fill="white" stroke="black" points="154,-0.5 154,-19.5 211,-19.5 211,-0.5 154,-0.5"/>
<text text-anchor="middle" x="182.5" y="-7.5" font-family="Helvetica,sans-Serif" font-size="10.00">dbperror</text>
</a>
</g>
</g>
<!-- Node1&#45;&gt;Node3 -->
<g id="edge2" class="edge"><title>Node1&#45;&gt;Node3</title>
<path fill="none" stroke="midnightblue" d="M118.259,-19.8896C126.995,-18.5235 135.799,-17.1466 143.948,-15.8723"/>
<polygon fill="midnightblue" stroke="midnightblue" points="144.527,-19.3245 153.866,-14.3214 143.445,-12.4085 144.527,-19.3245"/>
</g>
<!-- Node3&#45;&gt;Node2 -->
<g id="edge3" class="edge"><title>Node3&#45;&gt;Node2</title>
<path fill="none" stroke="midnightblue" d="M211.099,-15.1918C219.077,-16.6926 228.022,-18.3755 236.851,-20.0363"/>
<polygon fill="midnightblue" stroke="midnightblue" points="236.237,-23.4822 246.712,-21.8913 237.531,-16.6028 236.237,-23.4822"/>
</g>
</g>
</svg>
