<?xml version="1.0" encoding="UTF-8" standalone="no"?>
<!DOCTYPE svg PUBLIC "-//W3C//DTD SVG 1.1//EN"
 "http://www.w3.org/Graphics/SVG/1.1/DTD/svg11.dtd">
<!-- Generated by graphviz version 2.38.0 (20140413.2041)
 -->
<!-- Title: tds_count_placeholders_ucs2le Pages: 1 -->
<svg width="896pt" height="332pt"
 viewBox="0.00 0.00 896.00 332.00" xmlns="http://www.w3.org/2000/svg" xmlns:xlink="http://www.w3.org/1999/xlink">
<g id="graph0" class="graph" transform="scale(1 1) rotate(0) translate(4 328)">
<title>tds_count_placeholders_ucs2le</title>
<polygon fill="white" stroke="none" points="-4,4 -4,-328 892,-328 892,4 -4,4"/>
<!-- Node1 -->
<g id="node1" class="node"><title>Node1</title>
<polygon fill="#bfbfbf" stroke="black" points="0,-109 0,-139 129,-139 129,-109 0,-109"/>
<text text-anchor="start" x="8" y="-127" font-family="Helvetica,sans-Serif" font-size="10.00">tds_count_placeholders</text>
<text text-anchor="middle" x="64.5" y="-116" font-family="Helvetica,sans-Serif" font-size="10.00">_ucs2le</text>
</g>
<!-- Node2 -->
<g id="node2" class="node"><title>Node2</title>
<g id="a_node2"><a xlink:href="a00356.html#ga95e0fccedc459a4404f496eec74a369a" target="_top" xlink:title="tds_submit_query_params() sends a language string to the database server for processing. ">
<polygon fill="white" stroke="black" points="332,-152.5 332,-171.5 472,-171.5 472,-152.5 332,-152.5"/>
<text text-anchor="middle" x="402" y="-159.5" font-family="Helvetica,sans-Serif" font-size="10.00">tds_submit_query_params</text>
</a>
</g>
</g>
<!-- Node1&#45;&gt;Node2 -->
<g id="edge1" class="edge"><title>Node1&#45;&gt;Node2</title>
<path fill="none" stroke="midnightblue" d="M138.883,-138.941C147.661,-140.453 156.516,-141.852 165,-143 220.907,-150.566 284.702,-155.48 331.858,-158.412"/>
<polygon fill="midnightblue" stroke="midnightblue" points="139.486,-135.494 129.028,-137.193 138.263,-142.386 139.486,-135.494"/>
</g>
<!-- Node13 -->
<g id="node13" class="node"><title>Node13</title>
<g id="a_node13"><a xlink:href="a00356.html#gab775332d378c7fe083750d624441b303" target="_top" xlink:title="Return string with parameters definition, useful for TDS7+. ">
<polygon fill="white" stroke="black" points="170,-65 170,-95 291,-95 291,-65 170,-65"/>
<text text-anchor="start" x="178" y="-83" font-family="Helvetica,sans-Serif" font-size="10.00">tds7_build_param_def</text>
<text text-anchor="middle" x="230.5" y="-72" font-family="Helvetica,sans-Serif" font-size="10.00">_from_query</text>
</a>
</g>
</g>
<!-- Node1&#45;&gt;Node13 -->
<g id="edge13" class="edge"><title>Node1&#45;&gt;Node13</title>
<path fill="none" stroke="midnightblue" d="M131.484,-106.297C145.41,-102.561 159.977,-98.6525 173.493,-95.0262"/>
<polygon fill="midnightblue" stroke="midnightblue" points="130.232,-103.009 121.481,-108.981 132.046,-109.77 130.232,-103.009"/>
</g>
<!-- Node17 -->
<g id="node17" class="node"><title>Node17</title>
<g id="a_node17"><a xlink:href="a00356.html#ga6e42b4a1d1d3898229ea2fe4afc2ecec" target="_top" xlink:title="Output params types and query (required by sp_prepare/sp_executesql/sp_prepexec) ">
<polygon fill="white" stroke="black" points="165,-114.5 165,-133.5 296,-133.5 296,-114.5 165,-114.5"/>
<text text-anchor="middle" x="230.5" y="-121.5" font-family="Helvetica,sans-Serif" font-size="10.00">tds7_put_query_params</text>
</a>
</g>
</g>
<!-- Node1&#45;&gt;Node17 -->
<g id="edge18" class="edge"><title>Node1&#45;&gt;Node17</title>
<path fill="none" stroke="midnightblue" d="M139.621,-124C148.085,-124 156.663,-124 164.988,-124"/>
<polygon fill="midnightblue" stroke="midnightblue" points="139.376,-120.5 129.376,-124 139.376,-127.5 139.376,-120.5"/>
</g>
<!-- Node3 -->
<g id="node3" class="node"><title>Node3</title>
<g id="a_node3"><a xlink:href="a00356.html#ga5a29ae7f99d089dc3cea85ec6ee5f3ab" target="_top" xlink:title="tds_submit_query() sends a language string to the database server for processing. ...">
<polygon fill="white" stroke="black" points="508,-152.5 508,-171.5 606,-171.5 606,-152.5 508,-152.5"/>
<text text-anchor="middle" x="557" y="-159.5" font-family="Helvetica,sans-Serif" font-size="10.00">tds_submit_query</text>
</a>
</g>
</g>
<!-- Node2&#45;&gt;Node3 -->
<g id="edge2" class="edge"><title>Node2&#45;&gt;Node3</title>
<path fill="none" stroke="midnightblue" d="M482.507,-162C491.173,-162 499.788,-162 507.905,-162"/>
<polygon fill="midnightblue" stroke="midnightblue" points="482.337,-158.5 472.337,-162 482.337,-165.5 482.337,-158.5"/>
</g>
<!-- Node4 -->
<g id="node4" class="node"><title>Node4</title>
<g id="a_node4"><a xlink:href="a00344.html#gae67546338cb9542a4902aa914f57f314" target="_top" xlink:title="_bcp_exec_out">
<polygon fill="white" stroke="red" points="800,-285.5 800,-304.5 888,-304.5 888,-285.5 800,-285.5"/>
<text text-anchor="middle" x="844" y="-292.5" font-family="Helvetica,sans-Serif" font-size="10.00">_bcp_exec_out</text>
</a>
</g>
</g>
<!-- Node3&#45;&gt;Node4 -->
<g id="edge3" class="edge"><title>Node3&#45;&gt;Node4</title>
<path fill="none" stroke="midnightblue" d="M568.872,-180.415C582.868,-202.372 609.321,-238.427 642,-257 691.247,-284.989 757.153,-292.852 799.843,-294.803"/>
<polygon fill="midnightblue" stroke="midnightblue" points="571.724,-178.372 563.497,-171.696 565.766,-182.045 571.724,-178.372"/>
</g>
<!-- Node5 -->
<g id="node5" class="node"><title>Node5</title>
<g id="a_node5"><a xlink:href="a00341.html#gac980139b9cea03cf93e373d425991481" target="_top" xlink:title="Transmit the command buffer to the server. ">
<polygon fill="white" stroke="red" points="670.5,-228.5 670.5,-247.5 735.5,-247.5 735.5,-228.5 670.5,-228.5"/>
<text text-anchor="middle" x="703" y="-235.5" font-family="Helvetica,sans-Serif" font-size="10.00">dbsqlsend</text>
</a>
</g>
</g>
<!-- Node3&#45;&gt;Node5 -->
<g id="edge4" class="edge"><title>Node3&#45;&gt;Node5</title>
<path fill="none" stroke="midnightblue" d="M578.101,-178.102C594.513,-190.625 618.718,-207.712 642,-219 650.849,-223.29 660.891,-226.912 670.195,-229.805"/>
<polygon fill="midnightblue" stroke="midnightblue" points="579.884,-175.054 569.841,-171.68 575.588,-180.581 579.884,-175.054"/>
</g>
<!-- Node6 -->
<g id="node6" class="node"><title>Node6</title>
<g id="a_node6"><a xlink:href="a00356.html#gad695defcbf663b0023851a198206a772" target="_top" xlink:title="Format and submit a query. ">
<polygon fill="white" stroke="red" points="652.5,-304.5 652.5,-323.5 753.5,-323.5 753.5,-304.5 652.5,-304.5"/>
<text text-anchor="middle" x="703" y="-311.5" font-family="Helvetica,sans-Serif" font-size="10.00">tds_submit_queryf</text>
</a>
</g>
</g>
<!-- Node3&#45;&gt;Node6 -->
<g id="edge5" class="edge"><title>Node3&#45;&gt;Node6</title>
<path fill="none" stroke="midnightblue" d="M566.019,-181.138C578.476,-208.738 604.956,-259.72 642,-290 649.47,-296.106 658.693,-300.818 667.647,-304.384"/>
<polygon fill="midnightblue" stroke="midnightblue" points="569.149,-179.559 561.939,-171.796 562.734,-182.361 569.149,-179.559"/>
</g>
<!-- Node7 -->
<g id="node7" class="node"><title>Node7</title>
<g id="a_node7"><a xlink:href="a00356.html#gaf0da49585d39e99780a004ee2ca23479" target="_top" xlink:title="Send option commands to server. ">
<polygon fill="white" stroke="black" points="642.5,-190.5 642.5,-209.5 763.5,-209.5 763.5,-190.5 642.5,-190.5"/>
<text text-anchor="middle" x="703" y="-197.5" font-family="Helvetica,sans-Serif" font-size="10.00">tds_submit_optioncmd</text>
</a>
</g>
</g>
<!-- Node3&#45;&gt;Node7 -->
<g id="edge7" class="edge"><title>Node3&#45;&gt;Node7</title>
<path fill="none" stroke="midnightblue" d="M604.172,-174.184C624.164,-179.46 647.219,-185.544 665.924,-190.48"/>
<polygon fill="midnightblue" stroke="midnightblue" points="604.899,-170.756 594.337,-171.589 603.113,-177.525 604.899,-170.756"/>
</g>
<!-- Node8 -->
<g id="node8" class="node"><title>Node8</title>
<g id="a_node8"><a xlink:href="a00356.html#ga7bf3670d3d6dabed469b9eb117298079" target="_top" xlink:title="Send a rollback request. ">
<polygon fill="white" stroke="black" points="642,-152.5 642,-171.5 764,-171.5 764,-152.5 642,-152.5"/>
<text text-anchor="middle" x="703" y="-159.5" font-family="Helvetica,sans-Serif" font-size="10.00">tds_submit_begin_tran</text>
</a>
</g>
</g>
<!-- Node3&#45;&gt;Node8 -->
<g id="edge8" class="edge"><title>Node3&#45;&gt;Node8</title>
<path fill="none" stroke="midnightblue" d="M616.389,-162C624.748,-162 633.361,-162 641.755,-162"/>
<polygon fill="midnightblue" stroke="midnightblue" points="616.351,-158.5 606.351,-162 616.35,-165.5 616.351,-158.5"/>
</g>
<!-- Node9 -->
<g id="node9" class="node"><title>Node9</title>
<g id="a_node9"><a xlink:href="a00356.html#ga9c1cdcc388506a2ca3c0aaee8c461ba6" target="_top" xlink:title="Send a rollback request. ">
<polygon fill="white" stroke="black" points="649,-114.5 649,-133.5 757,-133.5 757,-114.5 649,-114.5"/>
<text text-anchor="middle" x="703" y="-121.5" font-family="Helvetica,sans-Serif" font-size="10.00">tds_submit_rollback</text>
</a>
</g>
</g>
<!-- Node3&#45;&gt;Node9 -->
<g id="edge9" class="edge"><title>Node3&#45;&gt;Node9</title>
<path fill="none" stroke="midnightblue" d="M604.172,-149.816C624.164,-144.54 647.219,-138.456 665.924,-133.52"/>
<polygon fill="midnightblue" stroke="midnightblue" points="603.113,-146.475 594.337,-152.411 604.899,-153.244 603.113,-146.475"/>
</g>
<!-- Node10 -->
<g id="node10" class="node"><title>Node10</title>
<g id="a_node10"><a xlink:href="a00356.html#ga530538c4c975524cf0b771a550fc94a3" target="_top" xlink:title="Send a commit request. ">
<polygon fill="white" stroke="black" points="650.5,-76.5 650.5,-95.5 755.5,-95.5 755.5,-76.5 650.5,-76.5"/>
<text text-anchor="middle" x="703" y="-83.5" font-family="Helvetica,sans-Serif" font-size="10.00">tds_submit_commit</text>
</a>
</g>
</g>
<!-- Node3&#45;&gt;Node10 -->
<g id="edge10" class="edge"><title>Node3&#45;&gt;Node10</title>
<path fill="none" stroke="midnightblue" d="M578.101,-145.898C594.513,-133.375 618.718,-116.288 642,-105 649.472,-101.377 657.796,-98.2309 665.807,-95.5975"/>
<polygon fill="midnightblue" stroke="midnightblue" points="575.588,-143.419 569.841,-152.32 579.884,-148.946 575.588,-143.419"/>
</g>
<!-- Node11 -->
<g id="node11" class="node"><title>Node11</title>
<g id="a_node11"><a xlink:href="a00193.html#a8208eef2a3974ae1f0cf3c8c8ab011ce" target="_top" xlink:title="Start sending BCP data to server. ">
<polygon fill="white" stroke="red" points="663,-38.5 663,-57.5 743,-57.5 743,-38.5 663,-38.5"/>
<text text-anchor="middle" x="703" y="-45.5" font-family="Helvetica,sans-Serif" font-size="10.00">tds_bcp_start</text>
</a>
</g>
</g>
<!-- Node3&#45;&gt;Node11 -->
<g id="edge11" class="edge"><title>Node3&#45;&gt;Node11</title>
<path fill="none" stroke="midnightblue" d="M569.483,-143.898C583.922,-122.548 610.652,-87.3917 642,-67 648.32,-62.889 655.592,-59.6138 662.843,-57.0224"/>
<polygon fill="midnightblue" stroke="midnightblue" points="566.477,-142.098 563.905,-152.376 572.325,-145.946 566.477,-142.098"/>
</g>
<!-- Node12 -->
<g id="node12" class="node"><title>Node12</title>
<g id="a_node12"><a xlink:href="a00359.html#ga55f27c3e05d42c9b07ace1c74b11c5ab" target="_top" xlink:title="Retrieve and set @spid. ">
<polygon fill="white" stroke="red" points="664.5,-0.5 664.5,-19.5 741.5,-19.5 741.5,-0.5 664.5,-0.5"/>
<text text-anchor="middle" x="703" y="-7.5" font-family="Helvetica,sans-Serif" font-size="10.00">tds_set_spid</text>
</a>
</g>
</g>
<!-- Node3&#45;&gt;Node12 -->
<g id="edge12" class="edge"><title>Node3&#45;&gt;Node12</title>
<path fill="none" stroke="midnightblue" d="M565.023,-142.971C576.628,-114.12 602.52,-59.456 642,-29 648.575,-23.9278 656.534,-20.1927 664.476,-17.4477"/>
<polygon fill="midnightblue" stroke="midnightblue" points="561.742,-141.75 561.395,-152.339 568.27,-144.278 561.742,-141.75"/>
</g>
<!-- Node6&#45;&gt;Node4 -->
<g id="edge6" class="edge"><title>Node6&#45;&gt;Node4</title>
<path fill="none" stroke="midnightblue" d="M763.868,-305.817C776.019,-304.156 788.57,-302.44 799.997,-300.878"/>
<polygon fill="midnightblue" stroke="midnightblue" points="763.223,-302.372 753.79,-307.194 764.171,-309.308 763.223,-302.372"/>
</g>
<!-- Node13&#45;&gt;Node2 -->
<g id="edge14" class="edge"><title>Node13&#45;&gt;Node2</title>
<path fill="none" stroke="midnightblue" d="M286.924,-99.5542C290.07,-101.253 293.121,-103.068 296,-105 315.317,-117.965 312.053,-131.028 332,-143 338.392,-146.836 345.578,-149.918 352.835,-152.388"/>
<polygon fill="midnightblue" stroke="midnightblue" points="288.381,-96.3701 277.866,-95.072 285.276,-102.644 288.381,-96.3701"/>
</g>
<!-- Node14 -->
<g id="node14" class="node"><title>Node14</title>
<g id="a_node14"><a xlink:href="a00356.html#ga74eb08c3a1c85be8ac9db428842c8b9d" target="_top" xlink:title="tds_submit_prepare() creates a temporary stored procedure in the server. ">
<polygon fill="white" stroke="black" points="347,-114.5 347,-133.5 457,-133.5 457,-114.5 347,-114.5"/>
<text text-anchor="middle" x="402" y="-121.5" font-family="Helvetica,sans-Serif" font-size="10.00">tds_submit_prepare</text>
</a>
</g>
</g>
<!-- Node13&#45;&gt;Node14 -->
<g id="edge15" class="edge"><title>Node13&#45;&gt;Node14</title>
<path fill="none" stroke="midnightblue" d="M299.114,-97.5518C321.381,-103.332 345.295,-109.54 364.356,-114.488"/>
<polygon fill="midnightblue" stroke="midnightblue" points="299.917,-94.1442 289.358,-95.0192 298.158,-100.92 299.917,-94.1442"/>
</g>
<!-- Node15 -->
<g id="node15" class="node"><title>Node15</title>
<g id="a_node15"><a xlink:href="a00356.html#gae603aed795a4c5bb26ab159a11256996" target="_top" xlink:title="Submit a prepared query with parameters. ">
<polygon fill="white" stroke="black" points="341.5,-76.5 341.5,-95.5 462.5,-95.5 462.5,-76.5 341.5,-76.5"/>
<text text-anchor="middle" x="402" y="-83.5" font-family="Helvetica,sans-Serif" font-size="10.00">tds_submit_execdirect</text>
</a>
</g>
</g>
<!-- Node13&#45;&gt;Node15 -->
<g id="edge16" class="edge"><title>Node13&#45;&gt;Node15</title>
<path fill="none" stroke="midnightblue" d="M301.336,-82.4721C314.673,-82.9442 328.518,-83.4343 341.495,-83.8936"/>
<polygon fill="midnightblue" stroke="midnightblue" points="301.377,-78.9714 291.259,-82.1154 301.129,-85.967 301.377,-78.9714"/>
</g>
<!-- Node16 -->
<g id="node16" class="node"><title>Node16</title>
<g id="a_node16"><a xlink:href="a00356.html#ga08877c101704bebe4fa57e0849dc272d" target="_top" xlink:title="tds71_submit_prepexec() creates a temporary stored procedure in the server. ">
<polygon fill="white" stroke="black" points="338,-38.5 338,-57.5 466,-57.5 466,-38.5 338,-38.5"/>
<text text-anchor="middle" x="402" y="-45.5" font-family="Helvetica,sans-Serif" font-size="10.00">tds71_submit_prepexec</text>
</a>
</g>
</g>
<!-- Node13&#45;&gt;Node16 -->
<g id="edge17" class="edge"><title>Node13&#45;&gt;Node16</title>
<path fill="none" stroke="midnightblue" d="M301.382,-66.807C317.837,-63.7004 335.063,-60.4482 350.475,-57.5386"/>
<polygon fill="midnightblue" stroke="midnightblue" points="300.436,-63.4235 291.259,-68.718 301.735,-70.302 300.436,-63.4235"/>
</g>
<!-- Node17&#45;&gt;Node2 -->
<g id="edge19" class="edge"><title>Node17&#45;&gt;Node2</title>
<path fill="none" stroke="midnightblue" d="M284.242,-135.824C308.139,-141.182 336.015,-147.431 358.536,-152.48"/>
<polygon fill="midnightblue" stroke="midnightblue" points="284.795,-132.361 274.272,-133.589 283.264,-139.192 284.795,-132.361"/>
</g>
<!-- Node17&#45;&gt;Node14 -->
<g id="edge20" class="edge"><title>Node17&#45;&gt;Node14</title>
<path fill="none" stroke="midnightblue" d="M306.384,-124C319.997,-124 333.955,-124 346.826,-124"/>
<polygon fill="midnightblue" stroke="midnightblue" points="306.064,-120.5 296.064,-124 306.064,-127.5 306.064,-120.5"/>
</g>
<!-- Node17&#45;&gt;Node15 -->
<g id="edge21" class="edge"><title>Node17&#45;&gt;Node15</title>
<path fill="none" stroke="midnightblue" d="M284.242,-112.176C308.139,-106.818 336.015,-100.569 358.536,-95.5201"/>
<polygon fill="midnightblue" stroke="midnightblue" points="283.264,-108.808 274.272,-114.411 284.795,-115.639 283.264,-108.808"/>
</g>
<!-- Node17&#45;&gt;Node16 -->
<g id="edge22" class="edge"><title>Node17&#45;&gt;Node16</title>
<path fill="none" stroke="midnightblue" d="M282.707,-110.771C287.34,-108.793 291.846,-106.546 296,-104 315.562,-92.0098 312.249,-78.676 332,-67 338.524,-63.143 345.857,-60.0453 353.243,-57.564"/>
<polygon fill="midnightblue" stroke="midnightblue" points="281.172,-107.611 273.089,-114.46 283.679,-114.146 281.172,-107.611"/>
</g>
</g>
</svg>
