<?xml version="1.0" encoding="UTF-8" standalone="no"?>
<!DOCTYPE svg PUBLIC "-//W3C//DTD SVG 1.1//EN"
 "http://www.w3.org/Graphics/SVG/1.1/DTD/svg11.dtd">
<!-- Generated by graphviz version 2.38.0 (20140413.2041)
 -->
<!-- Title: src/dblib/bcp.c Pages: 1 -->
<svg width="1519pt" height="252pt"
 viewBox="0.00 0.00 1518.50 252.00" xmlns="http://www.w3.org/2000/svg" xmlns:xlink="http://www.w3.org/1999/xlink">
<g id="graph0" class="graph" transform="scale(1 1) rotate(0) translate(4 248)">
<title>src/dblib/bcp.c</title>
<polygon fill="white" stroke="none" points="-4,4 -4,-248 1514.5,-248 1514.5,4 -4,4"/>
<!-- Node1 -->
<g id="node1" class="node"><title>Node1</title>
<polygon fill="#bfbfbf" stroke="black" points="1066.5,-224.5 1066.5,-243.5 1148.5,-243.5 1148.5,-224.5 1066.5,-224.5"/>
<text text-anchor="middle" x="1107.5" y="-231.5" font-family="Helvetica,sans-Serif" font-size="10.00">src/dblib/bcp.c</text>
</g>
<!-- Node2 -->
<g id="node2" class="node"><title>Node2</title>
<polygon fill="white" stroke="#bfbfbf" points="0,-168.5 0,-187.5 53,-187.5 53,-168.5 0,-168.5"/>
<text text-anchor="middle" x="26.5" y="-175.5" font-family="Helvetica,sans-Serif" font-size="10.00">config.h</text>
</g>
<!-- Node1&#45;&gt;Node2 -->
<g id="edge1" class="edge"><title>Node1&#45;&gt;Node2</title>
<path fill="none" stroke="midnightblue" d="M1066.46,-232.173C898.855,-228.647 265.86,-213.865 67.5,-188 66.1993,-187.83 64.8787,-187.64 63.5476,-187.433"/>
<polygon fill="midnightblue" stroke="midnightblue" points="63.7528,-183.913 53.2893,-185.576 62.5059,-190.801 63.7528,-183.913"/>
</g>
<!-- Node3 -->
<g id="node3" class="node"><title>Node3</title>
<polygon fill="white" stroke="#bfbfbf" points="610,-56.5 610,-75.5 665,-75.5 665,-56.5 610,-56.5"/>
<text text-anchor="middle" x="637.5" y="-63.5" font-family="Helvetica,sans-Serif" font-size="10.00">stdarg.h</text>
</g>
<!-- Node1&#45;&gt;Node3 -->
<g id="edge2" class="edge"><title>Node1&#45;&gt;Node3</title>
<path fill="none" stroke="midnightblue" d="M1097.89,-224.441C1067.21,-197.133 973.379,-113.766 969.5,-112 943.156,-100.004 757.04,-79.4551 675.554,-70.9077"/>
<polygon fill="midnightblue" stroke="midnightblue" points="675.545,-67.3878 665.235,-69.8309 674.818,-74.35 675.545,-67.3878"/>
</g>
<!-- Node4 -->
<g id="node4" class="node"><title>Node4</title>
<polygon fill="white" stroke="#bfbfbf" points="110,-112.5 110,-131.5 157,-131.5 157,-112.5 110,-112.5"/>
<text text-anchor="middle" x="133.5" y="-119.5" font-family="Helvetica,sans-Serif" font-size="10.00">stdio.h</text>
</g>
<!-- Node1&#45;&gt;Node4 -->
<g id="edge3" class="edge"><title>Node1&#45;&gt;Node4</title>
<path fill="none" stroke="midnightblue" d="M1066.28,-232.355C959.972,-230.24 668.006,-221.578 427.5,-188 331.927,-174.657 221.313,-146.758 167.047,-132.234"/>
<polygon fill="midnightblue" stroke="midnightblue" points="167.843,-128.823 157.276,-129.6 166.021,-135.582 167.843,-128.823"/>
</g>
<!-- Node5 -->
<g id="node5" class="node"><title>Node5</title>
<polygon fill="white" stroke="#bfbfbf" points="1270.5,-168.5 1270.5,-187.5 1324.5,-187.5 1324.5,-168.5 1270.5,-168.5"/>
<text text-anchor="middle" x="1297.5" y="-175.5" font-family="Helvetica,sans-Serif" font-size="10.00">assert.h</text>
</g>
<!-- Node1&#45;&gt;Node5 -->
<g id="edge4" class="edge"><title>Node1&#45;&gt;Node5</title>
<path fill="none" stroke="midnightblue" d="M1137.61,-224.444C1170.84,-214.997 1224.38,-199.781 1260.24,-189.59"/>
<polygon fill="midnightblue" stroke="midnightblue" points="1261.64,-192.83 1270.31,-186.729 1259.73,-186.096 1261.64,-192.83"/>
</g>
<!-- Node6 -->
<g id="node6" class="node"><title>Node6</title>
<g id="a_node6"><a xlink:href="a00193.html" target="_top" xlink:title="Main include file for libtds. ">
<polygon fill="white" stroke="black" points="437,-168.5 437,-187.5 512,-187.5 512,-168.5 437,-168.5"/>
<text text-anchor="middle" x="474.5" y="-175.5" font-family="Helvetica,sans-Serif" font-size="10.00">freetds/tds.h</text>
</a>
</g>
</g>
<!-- Node1&#45;&gt;Node6 -->
<g id="edge5" class="edge"><title>Node1&#45;&gt;Node6</title>
<path fill="none" stroke="midnightblue" d="M1066.45,-229.499C954.116,-219.915 642.035,-193.292 522.203,-183.069"/>
<polygon fill="midnightblue" stroke="midnightblue" points="522.487,-179.581 512.225,-182.218 521.891,-186.556 522.487,-179.581"/>
</g>
<!-- Node12 -->
<g id="node12" class="node"><title>Node12</title>
<g id="a_node12"><a xlink:href="a00202_source.html" target="_top" xlink:title="replacements.h">
<polygon fill="white" stroke="black" points="1017,-112.5 1017,-131.5 1106,-131.5 1106,-112.5 1017,-112.5"/>
<text text-anchor="middle" x="1061.5" y="-119.5" font-family="Helvetica,sans-Serif" font-size="10.00">replacements.h</text>
</a>
</g>
</g>
<!-- Node1&#45;&gt;Node12 -->
<g id="edge33" class="edge"><title>Node1&#45;&gt;Node12</title>
<path fill="none" stroke="midnightblue" d="M1096.56,-224.294C1087.08,-216.052 1073.91,-202.767 1067.5,-188 1061.22,-173.526 1060,-155.571 1060.19,-142.202"/>
<polygon fill="midnightblue" stroke="midnightblue" points="1063.7,-141.976 1060.63,-131.837 1056.71,-141.68 1063.7,-141.976"/>
</g>
<!-- Node19 -->
<g id="node19" class="node"><title>Node19</title>
<g id="a_node19"><a xlink:href="a00184_source.html" target="_top" xlink:title="freetds/iconv.h">
<polygon fill="white" stroke="black" points="181.5,-56.5 181.5,-75.5 267.5,-75.5 267.5,-56.5 181.5,-56.5"/>
<text text-anchor="middle" x="224.5" y="-63.5" font-family="Helvetica,sans-Serif" font-size="10.00">freetds/iconv.h</text>
</a>
</g>
</g>
<!-- Node1&#45;&gt;Node19 -->
<g id="edge26" class="edge"><title>Node1&#45;&gt;Node19</title>
<path fill="none" stroke="midnightblue" d="M1066.45,-232.293C884.941,-228.723 160.735,-209.663 100.5,-132 77.3518,-102.154 127.996,-84.5915 171.376,-75.3974"/>
<polygon fill="midnightblue" stroke="midnightblue" points="172.225,-78.7967 181.342,-73.3993 170.849,-71.9333 172.225,-78.7967"/>
</g>
<!-- Node20 -->
<g id="node20" class="node"><title>Node20</title>
<g id="a_node20"><a xlink:href="a00181_source.html" target="_top" xlink:title="freetds/convert.h">
<polygon fill="white" stroke="black" points="1156.5,-56.5 1156.5,-75.5 1252.5,-75.5 1252.5,-56.5 1156.5,-56.5"/>
<text text-anchor="middle" x="1204.5" y="-63.5" font-family="Helvetica,sans-Serif" font-size="10.00">freetds/convert.h</text>
</a>
</g>
</g>
<!-- Node1&#45;&gt;Node20 -->
<g id="edge29" class="edge"><title>Node1&#45;&gt;Node20</title>
<path fill="none" stroke="midnightblue" d="M1122.16,-224.316C1134.63,-216.273 1152.27,-203.272 1163.5,-188 1186.63,-156.545 1197.34,-111.133 1201.77,-85.8338"/>
<polygon fill="midnightblue" stroke="midnightblue" points="1205.26,-86.1751 1203.39,-75.7473 1198.35,-85.0675 1205.26,-86.1751"/>
</g>
<!-- Node21 -->
<g id="node21" class="node"><title>Node21</title>
<g id="a_node21"><a xlink:href="a00179_source.html" target="_top" xlink:title="freetds/bytes.h">
<polygon fill="white" stroke="black" points="1342.5,-168.5 1342.5,-187.5 1428.5,-187.5 1428.5,-168.5 1342.5,-168.5"/>
<text text-anchor="middle" x="1385.5" y="-175.5" font-family="Helvetica,sans-Serif" font-size="10.00">freetds/bytes.h</text>
</a>
</g>
</g>
<!-- Node1&#45;&gt;Node21 -->
<g id="edge32" class="edge"><title>Node1&#45;&gt;Node21</title>
<path fill="none" stroke="midnightblue" d="M1148.52,-225.032C1197.33,-215.551 1278.94,-199.699 1332.49,-189.296"/>
<polygon fill="midnightblue" stroke="midnightblue" points="1333.33,-192.699 1342.48,-187.356 1332,-185.827 1333.33,-192.699"/>
</g>
<!-- Node22 -->
<g id="node22" class="node"><title>Node22</title>
<g id="a_node22"><a xlink:href="a00209_source.html" target="_top" xlink:title="sybfront.h">
<polygon fill="white" stroke="black" points="1076.5,-168.5 1076.5,-187.5 1138.5,-187.5 1138.5,-168.5 1076.5,-168.5"/>
<text text-anchor="middle" x="1107.5" y="-175.5" font-family="Helvetica,sans-Serif" font-size="10.00">sybfront.h</text>
</a>
</g>
</g>
<!-- Node1&#45;&gt;Node22 -->
<g id="edge34" class="edge"><title>Node1&#45;&gt;Node22</title>
<path fill="none" stroke="midnightblue" d="M1107.5,-224.083C1107.5,-217.006 1107.5,-206.861 1107.5,-197.986"/>
<polygon fill="midnightblue" stroke="midnightblue" points="1111,-197.751 1107.5,-187.751 1104,-197.751 1111,-197.751"/>
</g>
<!-- Node23 -->
<g id="node23" class="node"><title>Node23</title>
<g id="a_node23"><a xlink:href="a00207.html" target="_top" xlink:title="Primary include file for db&#45;lib applications. ">
<polygon fill="white" stroke="black" points="1124.5,-112.5 1124.5,-131.5 1176.5,-131.5 1176.5,-112.5 1124.5,-112.5"/>
<text text-anchor="middle" x="1150.5" y="-119.5" font-family="Helvetica,sans-Serif" font-size="10.00">sybdb.h</text>
</a>
</g>
</g>
<!-- Node1&#45;&gt;Node23 -->
<g id="edge37" class="edge"><title>Node1&#45;&gt;Node23</title>
<path fill="none" stroke="midnightblue" d="M1118.6,-224.362C1128.19,-216.166 1141.43,-202.911 1147.5,-188 1153.43,-173.432 1153.79,-155.486 1152.9,-142.144"/>
<polygon fill="midnightblue" stroke="midnightblue" points="1156.34,-141.418 1151.89,-131.805 1149.38,-142.097 1156.34,-141.418"/>
</g>
<!-- Node24 -->
<g id="node24" class="node"><title>Node24</title>
<g id="a_node24"><a xlink:href="a00208_source.html" target="_top" xlink:title="syberror.h">
<polygon fill="white" stroke="black" points="1446.5,-168.5 1446.5,-187.5 1510.5,-187.5 1510.5,-168.5 1446.5,-168.5"/>
<text text-anchor="middle" x="1478.5" y="-175.5" font-family="Helvetica,sans-Serif" font-size="10.00">syberror.h</text>
</a>
</g>
</g>
<!-- Node1&#45;&gt;Node24 -->
<g id="edge38" class="edge"><title>Node1&#45;&gt;Node24</title>
<path fill="none" stroke="midnightblue" d="M1148.57,-228.478C1209.31,-221.553 1326.88,-207.251 1436.43,-188.07"/>
<polygon fill="midnightblue" stroke="midnightblue" points="1437.08,-191.509 1446.32,-186.321 1435.86,-184.616 1437.08,-191.509"/>
</g>
<!-- Node25 -->
<g id="node25" class="node"><title>Node25</title>
<g id="a_node25"><a xlink:href="a00176_source.html" target="_top" xlink:title="dblib.h">
<polygon fill="white" stroke="black" points="1270.5,-56.5 1270.5,-75.5 1316.5,-75.5 1316.5,-56.5 1270.5,-56.5"/>
<text text-anchor="middle" x="1293.5" y="-63.5" font-family="Helvetica,sans-Serif" font-size="10.00">dblib.h</text>
</a>
</g>
</g>
<!-- Node1&#45;&gt;Node25 -->
<g id="edge39" class="edge"><title>Node1&#45;&gt;Node25</title>
<path fill="none" stroke="midnightblue" d="M1124.8,-224.462C1140.62,-216.239 1164.26,-202.881 1182.5,-188 1222.43,-155.414 1261.32,-108.504 1280.73,-83.7546"/>
<polygon fill="midnightblue" stroke="midnightblue" points="1283.61,-85.756 1286.96,-75.7068 1278.07,-81.4696 1283.61,-85.756"/>
</g>
<!-- Node6&#45;&gt;Node3 -->
<g id="edge6" class="edge"><title>Node6&#45;&gt;Node3</title>
<path fill="none" stroke="midnightblue" d="M446.741,-168.464C415.085,-157.324 370.182,-136.354 390.5,-112 416.698,-80.5981 537.196,-71.0534 599.677,-68.1951"/>
<polygon fill="midnightblue" stroke="midnightblue" points="600.066,-71.682 609.909,-67.7633 599.77,-64.6882 600.066,-71.682"/>
</g>
<!-- Node6&#45;&gt;Node4 -->
<g id="edge7" class="edge"><title>Node6&#45;&gt;Node4</title>
<path fill="none" stroke="midnightblue" d="M436.787,-172.982C380.29,-166.639 270.203,-153.026 167.158,-131.903"/>
<polygon fill="midnightblue" stroke="midnightblue" points="167.713,-128.444 157.21,-129.835 166.288,-135.297 167.713,-128.444"/>
</g>
<!-- Node7 -->
<g id="node7" class="node"><title>Node7</title>
<g id="a_node7"><a xlink:href="a00195_source.html" target="_top" xlink:title="time.h">
<polygon fill="white" stroke="black" points="399.5,-112.5 399.5,-131.5 443.5,-131.5 443.5,-112.5 399.5,-112.5"/>
<text text-anchor="middle" x="421.5" y="-119.5" font-family="Helvetica,sans-Serif" font-size="10.00">time.h</text>
</a>
</g>
</g>
<!-- Node6&#45;&gt;Node7 -->
<g id="edge8" class="edge"><title>Node6&#45;&gt;Node7</title>
<path fill="none" stroke="midnightblue" d="M465.748,-168.083C458.03,-160.22 446.595,-148.569 437.283,-139.081"/>
<polygon fill="midnightblue" stroke="midnightblue" points="439.592,-136.436 430.089,-131.751 434.596,-141.34 439.592,-136.436"/>
</g>
<!-- Node8 -->
<g id="node8" class="node"><title>Node8</title>
<g id="a_node8"><a xlink:href="a00197_source.html" target="_top" xlink:title="freetds/version.h">
<polygon fill="white" stroke="black" points="480,-112.5 480,-131.5 575,-131.5 575,-112.5 480,-112.5"/>
<text text-anchor="middle" x="527.5" y="-119.5" font-family="Helvetica,sans-Serif" font-size="10.00">freetds/version.h</text>
</a>
</g>
</g>
<!-- Node6&#45;&gt;Node8 -->
<g id="edge10" class="edge"><title>Node6&#45;&gt;Node8</title>
<path fill="none" stroke="midnightblue" d="M483.252,-168.083C490.97,-160.22 502.405,-148.569 511.717,-139.081"/>
<polygon fill="midnightblue" stroke="midnightblue" points="514.404,-141.34 518.911,-131.751 509.408,-136.436 514.404,-141.34"/>
</g>
<!-- Node9 -->
<g id="node9" class="node"><title>Node9</title>
<polygon fill="white" stroke="#bfbfbf" points="593,-112.5 593,-131.5 704,-131.5 704,-112.5 593,-112.5"/>
<text text-anchor="middle" x="648.5" y="-119.5" font-family="Helvetica,sans-Serif" font-size="10.00">tds_sysdep_public.h</text>
</g>
<!-- Node6&#45;&gt;Node9 -->
<g id="edge11" class="edge"><title>Node6&#45;&gt;Node9</title>
<path fill="none" stroke="midnightblue" d="M502.071,-168.444C531.597,-159.28 578.618,-144.688 611.383,-134.519"/>
<polygon fill="midnightblue" stroke="midnightblue" points="612.545,-137.823 621.058,-131.516 610.47,-131.138 612.545,-137.823"/>
</g>
<!-- Node10 -->
<g id="node10" class="node"><title>Node10</title>
<g id="a_node10"><a xlink:href="a00192_source.html" target="_top" xlink:title="freetds/sysdep_private.h">
<polygon fill="white" stroke="black" points="827,-112.5 827,-131.5 960,-131.5 960,-112.5 827,-112.5"/>
<text text-anchor="middle" x="893.5" y="-119.5" font-family="Helvetica,sans-Serif" font-size="10.00">freetds/sysdep_private.h</text>
</a>
</g>
</g>
<!-- Node6&#45;&gt;Node10 -->
<g id="edge12" class="edge"><title>Node6&#45;&gt;Node10</title>
<path fill="none" stroke="midnightblue" d="M512.052,-172.16C580.52,-163.336 726.889,-144.473 817.088,-132.848"/>
<polygon fill="midnightblue" stroke="midnightblue" points="817.788,-136.287 827.258,-131.537 816.893,-129.344 817.788,-136.287"/>
</g>
<!-- Node11 -->
<g id="node11" class="node"><title>Node11</title>
<g id="a_node11"><a xlink:href="a00194_source.html" target="_top" xlink:title="freetds/thread.h">
<polygon fill="white" stroke="black" points="175.5,-112.5 175.5,-131.5 267.5,-131.5 267.5,-112.5 175.5,-112.5"/>
<text text-anchor="middle" x="221.5" y="-119.5" font-family="Helvetica,sans-Serif" font-size="10.00">freetds/thread.h</text>
</a>
</g>
</g>
<!-- Node6&#45;&gt;Node11 -->
<g id="edge13" class="edge"><title>Node6&#45;&gt;Node11</title>
<path fill="none" stroke="midnightblue" d="M436.897,-168.974C392.946,-159.593 320.045,-144.033 271.394,-133.649"/>
<polygon fill="midnightblue" stroke="midnightblue" points="271.91,-130.181 261.4,-131.516 270.449,-137.027 271.91,-130.181"/>
</g>
<!-- Node6&#45;&gt;Node12 -->
<g id="edge14" class="edge"><title>Node6&#45;&gt;Node12</title>
<path fill="none" stroke="midnightblue" d="M512.077,-173.672C594.772,-166.33 798.753,-148.113 969.5,-132 981.483,-130.869 994.341,-129.628 1006.53,-128.439"/>
<polygon fill="midnightblue" stroke="midnightblue" points="1006.97,-131.913 1016.58,-127.456 1006.29,-124.946 1006.97,-131.913"/>
</g>
<!-- Node15 -->
<g id="node15" class="node"><title>Node15</title>
<g id="a_node15"><a xlink:href="a00188_source.html" target="_top" xlink:title="freetds/pushvis.h">
<polygon fill="white" stroke="black" points="675.5,-0.5 675.5,-19.5 771.5,-19.5 771.5,-0.5 675.5,-0.5"/>
<text text-anchor="middle" x="723.5" y="-7.5" font-family="Helvetica,sans-Serif" font-size="10.00">freetds/pushvis.h</text>
</a>
</g>
</g>
<!-- Node6&#45;&gt;Node15 -->
<g id="edge23" class="edge"><title>Node6&#45;&gt;Node15</title>
<path fill="none" stroke="midnightblue" d="M436.788,-171.312C395.6,-164.239 333.592,-150.765 319.5,-132 299.217,-104.99 296.976,-81.1718 319.5,-56 342.129,-30.7105 558.821,-18.0198 665.184,-13.2723"/>
<polygon fill="midnightblue" stroke="midnightblue" points="665.593,-16.7579 675.431,-12.8243 665.288,-9.76455 665.593,-16.7579"/>
</g>
<!-- Node16 -->
<g id="node16" class="node"><title>Node16</title>
<g id="a_node16"><a xlink:href="a00186_source.html" target="_top" xlink:title="freetds/popvis.h">
<polygon fill="white" stroke="black" points="848.5,-0.5 848.5,-19.5 940.5,-19.5 940.5,-0.5 848.5,-0.5"/>
<text text-anchor="middle" x="894.5" y="-7.5" font-family="Helvetica,sans-Serif" font-size="10.00">freetds/popvis.h</text>
</a>
</g>
</g>
<!-- Node6&#45;&gt;Node16 -->
<g id="edge25" class="edge"><title>Node6&#45;&gt;Node16</title>
<path fill="none" stroke="midnightblue" d="M441.586,-168.41C407.323,-157.846 361.264,-138.061 381.5,-112 409.55,-75.8752 711.391,-34.0309 838.541,-17.8628"/>
<polygon fill="midnightblue" stroke="midnightblue" points="838.996,-21.3332 848.478,-16.6063 838.118,-14.3885 838.996,-21.3332"/>
</g>
<!-- Node18 -->
<g id="node18" class="node"><title>Node18</title>
<g id="a_node18"><a xlink:href="a00187_source.html" target="_top" xlink:title="freetds/proto.h">
<polygon fill="white" stroke="black" points="722.5,-112.5 722.5,-131.5 808.5,-131.5 808.5,-112.5 722.5,-112.5"/>
<text text-anchor="middle" x="765.5" y="-119.5" font-family="Helvetica,sans-Serif" font-size="10.00">freetds/proto.h</text>
</a>
</g>
</g>
<!-- Node6&#45;&gt;Node18 -->
<g id="edge24" class="edge"><title>Node6&#45;&gt;Node18</title>
<path fill="none" stroke="midnightblue" d="M512.245,-169.996C563.166,-160.547 654.146,-143.664 712.074,-132.914"/>
<polygon fill="midnightblue" stroke="midnightblue" points="712.942,-136.313 722.135,-131.047 711.664,-129.43 712.942,-136.313"/>
</g>
<!-- Node7&#45;&gt;Node7 -->
<g id="edge9" class="edge"><title>Node7&#45;&gt;Node7</title>
<path fill="none" stroke="midnightblue" d="M438.768,-131.575C450.287,-134.27 461.5,-131.078 461.5,-122 461.5,-115.759 456.2,-112.3 449.145,-111.623"/>
<polygon fill="midnightblue" stroke="midnightblue" points="448.469,-108.165 438.768,-112.425 449.008,-115.144 448.469,-108.165"/>
</g>
<!-- Node12&#45;&gt;Node3 -->
<g id="edge15" class="edge"><title>Node12&#45;&gt;Node3</title>
<path fill="none" stroke="midnightblue" d="M1016.75,-113.98C1011.94,-113.284 1007.12,-112.61 1002.5,-112 859.297,-93.1052 822.075,-99.1617 679.5,-76 678.216,-75.7915 676.913,-75.5696 675.598,-75.3372"/>
<polygon fill="midnightblue" stroke="midnightblue" points="675.92,-71.8354 665.44,-73.3948 674.605,-78.7108 675.92,-71.8354"/>
</g>
<!-- Node13 -->
<g id="node13" class="node"><title>Node13</title>
<g id="a_node13"><a xlink:href="a00210_source.html" target="_top" xlink:title="tds_sysdep_public.h">
<polygon fill="white" stroke="black" points="1027,-56.5 1027,-75.5 1138,-75.5 1138,-56.5 1027,-56.5"/>
<text text-anchor="middle" x="1082.5" y="-63.5" font-family="Helvetica,sans-Serif" font-size="10.00">tds_sysdep_public.h</text>
</a>
</g>
</g>
<!-- Node12&#45;&gt;Node13 -->
<g id="edge16" class="edge"><title>Node12&#45;&gt;Node13</title>
<path fill="none" stroke="midnightblue" d="M1064.97,-112.083C1067.81,-104.77 1071.93,-94.1814 1075.46,-85.1034"/>
<polygon fill="midnightblue" stroke="midnightblue" points="1078.73,-86.3397 1079.1,-75.7511 1072.21,-83.8025 1078.73,-86.3397"/>
</g>
<!-- Node14 -->
<g id="node14" class="node"><title>Node14</title>
<g id="a_node14"><a xlink:href="a00203_source.html" target="_top" xlink:title="replacements/readpassphrase.h">
<polygon fill="white" stroke="black" points="840,-56.5 840,-75.5 1009,-75.5 1009,-56.5 840,-56.5"/>
<text text-anchor="middle" x="924.5" y="-63.5" font-family="Helvetica,sans-Serif" font-size="10.00">replacements/readpassphrase.h</text>
</a>
</g>
</g>
<!-- Node12&#45;&gt;Node14 -->
<g id="edge17" class="edge"><title>Node12&#45;&gt;Node14</title>
<path fill="none" stroke="midnightblue" d="M1039.79,-112.444C1017.15,-103.517 981.428,-89.4387 955.748,-79.3168"/>
<polygon fill="midnightblue" stroke="midnightblue" points="956.693,-75.9273 946.106,-75.5164 954.126,-82.4397 956.693,-75.9273"/>
</g>
<!-- Node12&#45;&gt;Node15 -->
<g id="edge21" class="edge"><title>Node12&#45;&gt;Node15</title>
<path fill="none" stroke="midnightblue" d="M1016.73,-114.097C1011.93,-113.379 1007.11,-112.668 1002.5,-112 944.119,-103.552 783.35,-115.459 739.5,-76 726.696,-64.4778 723.355,-44.5087 722.811,-29.7363"/>
<polygon fill="midnightblue" stroke="midnightblue" points="726.311,-29.6855 722.83,-19.6787 719.311,-29.672 726.311,-29.6855"/>
</g>
<!-- Node12&#45;&gt;Node16 -->
<g id="edge22" class="edge"><title>Node12&#45;&gt;Node16</title>
<path fill="none" stroke="midnightblue" d="M1016.73,-114.125C1011.93,-113.401 1007.11,-112.681 1002.5,-112 946.539,-103.735 787.564,-118.735 750.5,-76 721.521,-42.5869 786.181,-25.4776 838.014,-17.3898"/>
<polygon fill="midnightblue" stroke="midnightblue" points="838.796,-20.8124 848.179,-15.8904 837.775,-13.8874 838.796,-20.8124"/>
</g>
<!-- Node17 -->
<g id="node17" class="node"><title>Node17</title>
<g id="a_node17"><a xlink:href="a00178.html" target="_top" xlink:title="Provide poll call where missing. ">
<polygon fill="white" stroke="red" points="759.5,-56.5 759.5,-75.5 821.5,-75.5 821.5,-56.5 759.5,-56.5"/>
<text text-anchor="middle" x="790.5" y="-63.5" font-family="Helvetica,sans-Serif" font-size="10.00">fakepoll.h</text>
</a>
</g>
</g>
<!-- Node12&#45;&gt;Node17 -->
<g id="edge20" class="edge"><title>Node12&#45;&gt;Node17</title>
<path fill="none" stroke="midnightblue" d="M1016.92,-112.59C972.62,-104.164 902.493,-90.6376 831.8,-76.0222"/>
<polygon fill="midnightblue" stroke="midnightblue" points="832.326,-72.5569 821.823,-73.9531 830.904,-79.4111 832.326,-72.5569"/>
</g>
<!-- Node14&#45;&gt;Node15 -->
<g id="edge18" class="edge"><title>Node14&#45;&gt;Node15</title>
<path fill="none" stroke="midnightblue" d="M892.651,-56.4435C858.102,-47.1616 802.818,-32.3093 764.917,-22.127"/>
<polygon fill="midnightblue" stroke="midnightblue" points="765.766,-18.7309 755.2,-19.5164 763.949,-25.4912 765.766,-18.7309"/>
</g>
<!-- Node14&#45;&gt;Node16 -->
<g id="edge19" class="edge"><title>Node14&#45;&gt;Node16</title>
<path fill="none" stroke="midnightblue" d="M919.546,-56.083C915.396,-48.6127 909.347,-37.7244 904.233,-28.5199"/>
<polygon fill="midnightblue" stroke="midnightblue" points="907.278,-26.7929 899.362,-19.7511 901.159,-30.1924 907.278,-26.7929"/>
</g>
<!-- Node19&#45;&gt;Node15 -->
<g id="edge27" class="edge"><title>Node19&#45;&gt;Node15</title>
<path fill="none" stroke="midnightblue" d="M267.724,-57.9188C272.369,-57.2343 277.029,-56.5801 281.5,-56 418.629,-38.2073 580.455,-23.2666 665.141,-15.909"/>
<polygon fill="midnightblue" stroke="midnightblue" points="665.666,-19.3767 675.327,-15.0282 665.063,-12.4027 665.666,-19.3767"/>
</g>
<!-- Node19&#45;&gt;Node16 -->
<g id="edge28" class="edge"><title>Node19&#45;&gt;Node16</title>
<path fill="none" stroke="midnightblue" d="M267.522,-60.7725C283.8,-59.2128 302.499,-57.469 319.5,-56 524.25,-38.308 575.618,-36.0872 780.5,-20 799.371,-18.5183 819.998,-16.8919 838.456,-15.4341"/>
<polygon fill="midnightblue" stroke="midnightblue" points="838.769,-18.9204 848.462,-14.6435 838.217,-11.9421 838.769,-18.9204"/>
</g>
<!-- Node20&#45;&gt;Node15 -->
<g id="edge30" class="edge"><title>Node20&#45;&gt;Node15</title>
<path fill="none" stroke="midnightblue" d="M1156.32,-57.2167C1153.34,-56.7894 1150.38,-56.38 1147.5,-56 1017.12,-38.7999 863.512,-23.8013 781.698,-16.2317"/>
<polygon fill="midnightblue" stroke="midnightblue" points="781.881,-12.7338 771.602,-15.3016 781.239,-19.7043 781.881,-12.7338"/>
</g>
<!-- Node20&#45;&gt;Node16 -->
<g id="edge31" class="edge"><title>Node20&#45;&gt;Node16</title>
<path fill="none" stroke="midnightblue" d="M1156.4,-56.6217C1100.78,-46.9323 1009.34,-31.0045 950.547,-20.763"/>
<polygon fill="midnightblue" stroke="midnightblue" points="951.136,-17.313 940.684,-19.0449 949.935,-24.2092 951.136,-17.313"/>
</g>
<!-- Node22&#45;&gt;Node23 -->
<g id="edge35" class="edge"><title>Node22&#45;&gt;Node23</title>
<path fill="none" stroke="midnightblue" d="M1114.6,-168.083C1120.74,-160.377 1129.77,-149.033 1137.24,-139.653"/>
<polygon fill="midnightblue" stroke="midnightblue" points="1140.04,-141.754 1143.53,-131.751 1134.56,-137.394 1140.04,-141.754"/>
</g>
<!-- Node23&#45;&gt;Node13 -->
<g id="edge36" class="edge"><title>Node23&#45;&gt;Node13</title>
<path fill="none" stroke="midnightblue" d="M1139.57,-112.324C1129.33,-104.185 1113.78,-91.8395 1101.5,-82.0874"/>
<polygon fill="midnightblue" stroke="midnightblue" points="1103.63,-79.3119 1093.62,-75.8339 1099.28,-84.7937 1103.63,-79.3119"/>
</g>
<!-- Node25&#45;&gt;Node15 -->
<g id="edge40" class="edge"><title>Node25&#45;&gt;Node15</title>
<path fill="none" stroke="midnightblue" d="M1270.2,-57.8928C1267.29,-57.1693 1264.34,-56.5132 1261.5,-56 1238.18,-51.7859 915.968,-26.1477 781.645,-15.5638"/>
<polygon fill="midnightblue" stroke="midnightblue" points="781.782,-12.0638 771.538,-14.7679 781.232,-19.0422 781.782,-12.0638"/>
</g>
<!-- Node25&#45;&gt;Node16 -->
<g id="edge41" class="edge"><title>Node25&#45;&gt;Node16</title>
<path fill="none" stroke="midnightblue" d="M1270.18,-57.999C1267.27,-57.2572 1264.33,-56.5679 1261.5,-56 1152.62,-34.1464 1023.31,-21.2792 950.893,-15.2325"/>
<polygon fill="midnightblue" stroke="midnightblue" points="950.884,-11.7201 940.631,-14.3896 950.311,-18.6966 950.884,-11.7201"/>
</g>
</g>
</svg>
