<?xml version="1.0" encoding="UTF-8" standalone="no"?>
<!DOCTYPE svg PUBLIC "-//W3C//DTD SVG 1.1//EN"
 "http://www.w3.org/Graphics/SVG/1.1/DTD/svg11.dtd">
<!-- Generated by graphviz version 2.38.0 (20140413.2041)
 -->
<!-- Title: tds_submit_query_params Pages: 1 -->
<svg width="1169pt" height="709pt"
 viewBox="0.00 0.00 1169.00 709.00" xmlns="http://www.w3.org/2000/svg" xmlns:xlink="http://www.w3.org/1999/xlink">
<g id="graph0" class="graph" transform="scale(1 1) rotate(0) translate(4 705)">
<title>tds_submit_query_params</title>
<polygon fill="white" stroke="none" points="-4,4 -4,-705 1165,-705 1165,4 -4,4"/>
<!-- Node1 -->
<g id="node1" class="node"><title>Node1</title>
<polygon fill="#bfbfbf" stroke="black" points="0,-377.5 0,-396.5 140,-396.5 140,-377.5 0,-377.5"/>
<text text-anchor="middle" x="70" y="-384.5" font-family="Helvetica,sans-Serif" font-size="10.00">tds_submit_query_params</text>
</g>
<!-- Node2 -->
<g id="node2" class="node"><title>Node2</title>
<g id="a_node2"><a xlink:href="a00193.html#a16db200d2281f76fe46fc1cbe37ca9df" target="_top" xlink:title="Set state of TDS connection, with logging and checking. ">
<polygon fill="white" stroke="black" points="572,-453.5 572,-472.5 652,-472.5 652,-453.5 572,-453.5"/>
<text text-anchor="middle" x="612" y="-460.5" font-family="Helvetica,sans-Serif" font-size="10.00">tds_set_state</text>
</a>
</g>
</g>
<!-- Node1&#45;&gt;Node2 -->
<g id="edge1" class="edge"><title>Node1&#45;&gt;Node2</title>
<path fill="none" stroke="midnightblue" d="M94.3482,-396.637C115.353,-404.911 147.241,-416.5 176,-423 313.166,-454.001 479.844,-461.078 561.321,-462.624"/>
<polygon fill="midnightblue" stroke="midnightblue" points="561.712,-466.131 571.77,-462.801 561.83,-459.132 561.712,-466.131"/>
</g>
<!-- Node7 -->
<g id="node7" class="node"><title>Node7</title>
<g id="a_node7"><a xlink:href="a00356.html#ga6455b2991afbf7da90270787f2059d31" target="_top" xlink:title="Get position of next placeholder. ">
<polygon fill="white" stroke="black" points="374,-643.5 374,-662.5 493,-662.5 493,-643.5 374,-643.5"/>
<text text-anchor="middle" x="433.5" y="-650.5" font-family="Helvetica,sans-Serif" font-size="10.00">tds_next_placeholder</text>
</a>
</g>
</g>
<!-- Node1&#45;&gt;Node7 -->
<g id="edge8" class="edge"><title>Node1&#45;&gt;Node7</title>
<path fill="none" stroke="midnightblue" d="M71.7005,-396.739C75.0131,-434.8 92.6516,-574.322 176,-634 234.959,-676.215 322.331,-672.518 378.345,-664.169"/>
<polygon fill="midnightblue" stroke="midnightblue" points="379.098,-667.594 388.425,-662.567 377.999,-660.681 379.098,-667.594"/>
</g>
<!-- Node10 -->
<g id="node10" class="node"><title>Node10</title>
<g id="a_node10"><a xlink:href="a00356.html#ga3a5d1771cacc947521c4077551f0d3a4" target="_top" xlink:title="Substitute ?&#45;style placeholders with named (@param) ones. ">
<polygon fill="white" stroke="black" points="196,-605.5 196,-624.5 303,-624.5 303,-605.5 196,-605.5"/>
<text text-anchor="middle" x="249.5" y="-612.5" font-family="Helvetica,sans-Serif" font-size="10.00">tds5_fix_dot_query</text>
</a>
</g>
</g>
<!-- Node1&#45;&gt;Node10 -->
<g id="edge11" class="edge"><title>Node1&#45;&gt;Node10</title>
<path fill="none" stroke="midnightblue" d="M73.209,-396.738C81.093,-429.281 110.918,-535.335 176,-591 180.827,-595.128 186.386,-598.552 192.235,-601.391"/>
<polygon fill="midnightblue" stroke="midnightblue" points="191.028,-604.681 201.599,-605.386 193.775,-598.242 191.028,-604.681"/>
</g>
<!-- Node13 -->
<g id="node13" class="node"><title>Node13</title>
<g id="a_node13"><a xlink:href="a00356.html#ga28264995cf9616661f1fa788ac0d246d" target="_top" xlink:title="Send parameters to server. ">
<polygon fill="white" stroke="black" points="203.5,-491.5 203.5,-510.5 295.5,-510.5 295.5,-491.5 203.5,-491.5"/>
<text text-anchor="middle" x="249.5" y="-498.5" font-family="Helvetica,sans-Serif" font-size="10.00">tds_put_params</text>
</a>
</g>
</g>
<!-- Node1&#45;&gt;Node13 -->
<g id="edge15" class="edge"><title>Node1&#45;&gt;Node13</title>
<path fill="none" stroke="midnightblue" d="M79.6168,-396.529C96.4625,-414.63 135.653,-454.211 176,-477 183.717,-481.359 192.346,-485.077 200.886,-488.193"/>
<polygon fill="midnightblue" stroke="midnightblue" points="199.842,-491.535 210.437,-491.457 202.106,-484.911 199.842,-491.535"/>
</g>
<!-- Node15 -->
<g id="node15" class="node"><title>Node15</title>
<g id="a_node15"><a xlink:href="a00356.html#gafd74652c4722ddce4d642cc4209449d4" target="_top" xlink:title="Put data information to wire. ">
<polygon fill="white" stroke="black" points="383,-415.5 383,-434.5 484,-434.5 484,-415.5 383,-415.5"/>
<text text-anchor="middle" x="433.5" y="-422.5" font-family="Helvetica,sans-Serif" font-size="10.00">tds_put_data_info</text>
</a>
</g>
</g>
<!-- Node1&#45;&gt;Node15 -->
<g id="edge59" class="edge"><title>Node1&#45;&gt;Node15</title>
<path fill="none" stroke="midnightblue" d="M139.295,-396.501C151.507,-398.087 164.122,-399.653 176,-401 243.286,-408.631 320.703,-415.63 372.732,-420.076"/>
<polygon fill="midnightblue" stroke="midnightblue" points="372.528,-423.571 382.789,-420.931 373.121,-416.596 372.528,-423.571"/>
</g>
<!-- Node16 -->
<g id="node16" class="node"><title>Node16</title>
<g id="a_node16"><a xlink:href="a00356.html#ga024bc5482366735070befd6f4af59f71" target="_top" xlink:title="Convert a string in an allocated buffer. ">
<polygon fill="white" stroke="black" points="560,-348.5 560,-367.5 664,-367.5 664,-348.5 560,-348.5"/>
<text text-anchor="middle" x="612" y="-355.5" font-family="Helvetica,sans-Serif" font-size="10.00">tds_convert_string</text>
</a>
</g>
</g>
<!-- Node1&#45;&gt;Node16 -->
<g id="edge37" class="edge"><title>Node1&#45;&gt;Node16</title>
<path fill="none" stroke="midnightblue" d="M140.219,-381.923C198.538,-377.767 284.192,-371.951 359,-368 424.04,-364.565 498.579,-361.745 549.618,-359.986"/>
<polygon fill="midnightblue" stroke="midnightblue" points="549.947,-363.477 559.822,-359.638 549.708,-356.481 549.947,-363.477"/>
</g>
<!-- Node18 -->
<g id="node18" class="node"><title>Node18</title>
<g id="a_node18"><a xlink:href="a00356.html#ga9fcc0a3932dcad530511395ef8a767fb" target="_top" xlink:title="Write data to wire. ">
<polygon fill="white" stroke="black" points="394.5,-529.5 394.5,-548.5 472.5,-548.5 472.5,-529.5 394.5,-529.5"/>
<text text-anchor="middle" x="433.5" y="-536.5" font-family="Helvetica,sans-Serif" font-size="10.00">tds_put_data</text>
</a>
</g>
</g>
<!-- Node1&#45;&gt;Node18 -->
<g id="edge60" class="edge"><title>Node1&#45;&gt;Node18</title>
<path fill="none" stroke="midnightblue" d="M75.1567,-396.613C86.76,-422.107 122.218,-491.436 176,-520 241.576,-554.828 330.182,-552.428 384.233,-546.468"/>
<polygon fill="midnightblue" stroke="midnightblue" points="384.72,-549.934 394.238,-545.28 383.895,-542.983 384.72,-549.934"/>
</g>
<!-- Node19 -->
<g id="node19" class="node"><title>Node19</title>
<g id="a_node19"><a xlink:href="a00356.html#ga9ad2e6defce530a8778791cce0166ccd" target="_top" xlink:title="Start query packet of a given type. ">
<polygon fill="white" stroke="black" points="373.5,-377.5 373.5,-396.5 493.5,-396.5 493.5,-377.5 373.5,-377.5"/>
<text text-anchor="middle" x="433.5" y="-384.5" font-family="Helvetica,sans-Serif" font-size="10.00">tds_start_query_head</text>
</a>
</g>
</g>
<!-- Node1&#45;&gt;Node19 -->
<g id="edge24" class="edge"><title>Node1&#45;&gt;Node19</title>
<path fill="none" stroke="midnightblue" d="M140.273,-387C204.395,-387 299.226,-387 363.318,-387"/>
<polygon fill="midnightblue" stroke="midnightblue" points="363.332,-390.5 373.332,-387 363.332,-383.5 363.332,-390.5"/>
</g>
<!-- Node20 -->
<g id="node20" class="node"><title>Node20</title>
<g id="a_node20"><a xlink:href="a00357.html#ga1fcaf8d488cc1390f106ce3ad0bf37b4" target="_top" xlink:title="Output a string to wire automatic translate string to unicode if needed. ">
<polygon fill="white" stroke="black" points="392,-149.5 392,-168.5 475,-168.5 475,-149.5 392,-149.5"/>
<text text-anchor="middle" x="433.5" y="-156.5" font-family="Helvetica,sans-Serif" font-size="10.00">tds_put_string</text>
</a>
</g>
</g>
<!-- Node1&#45;&gt;Node20 -->
<g id="edge27" class="edge"><title>Node1&#45;&gt;Node20</title>
<path fill="none" stroke="midnightblue" d="M74.3928,-377.1C84.718,-348.515 118.605,-265.266 176,-224 178.151,-222.453 310.529,-189.35 384.236,-170.997"/>
<polygon fill="midnightblue" stroke="midnightblue" points="385.369,-174.322 394.228,-168.51 383.678,-167.529 385.369,-174.322"/>
</g>
<!-- Node27 -->
<g id="node27" class="node"><title>Node27</title>
<g id="a_node27"><a xlink:href="a00356.html#ga0cd19215e9169ea299a6c9cbf5b2fb60" target="_top" xlink:title="Count number of placeholders (?) in a query. ">
<polygon fill="white" stroke="black" points="369,-97 369,-127 498,-127 498,-97 369,-97"/>
<text text-anchor="start" x="377" y="-115" font-family="Helvetica,sans-Serif" font-size="10.00">tds_count_placeholders</text>
<text text-anchor="middle" x="433.5" y="-104" font-family="Helvetica,sans-Serif" font-size="10.00">_ucs2le</text>
</a>
</g>
</g>
<!-- Node1&#45;&gt;Node27 -->
<g id="edge38" class="edge"><title>Node1&#45;&gt;Node27</title>
<path fill="none" stroke="midnightblue" d="M71.0858,-377.351C72.0367,-336.262 81.8311,-175.012 176,-110 234.772,-69.4254 320.569,-80.4716 376.467,-94.3859"/>
<polygon fill="midnightblue" stroke="midnightblue" points="375.642,-97.7875 386.2,-96.9127 377.401,-91.0121 375.642,-97.7875"/>
</g>
<!-- Node31 -->
<g id="node31" class="node"><title>Node31</title>
<g id="a_node31"><a xlink:href="a00356.html#gac8d5497c2d1b9fadb724111660bd03bd" target="_top" xlink:title="Return string with parameters definition, useful for TDS7+. ">
<polygon fill="white" stroke="black" points="189,-283 189,-313 310,-313 310,-283 189,-283"/>
<text text-anchor="start" x="197" y="-301" font-family="Helvetica,sans-Serif" font-size="10.00">tds7_build_param_def</text>
<text text-anchor="middle" x="249.5" y="-290" font-family="Helvetica,sans-Serif" font-size="10.00">_from_params</text>
</a>
</g>
</g>
<!-- Node1&#45;&gt;Node31 -->
<g id="edge42" class="edge"><title>Node1&#45;&gt;Node31</title>
<path fill="none" stroke="midnightblue" d="M89.9956,-377.475C118.357,-363.255 172.394,-336.16 209.419,-317.596"/>
<polygon fill="midnightblue" stroke="midnightblue" points="211.069,-320.683 218.44,-313.072 207.932,-314.426 211.069,-320.683"/>
</g>
<!-- Node36 -->
<g id="node36" class="node"><title>Node36</title>
<g id="a_node36"><a xlink:href="a00356.html#gab775332d378c7fe083750d624441b303" target="_top" xlink:title="Return string with parameters definition, useful for TDS7+. ">
<polygon fill="white" stroke="black" points="189,-234 189,-264 310,-264 310,-234 189,-234"/>
<text text-anchor="start" x="197" y="-252" font-family="Helvetica,sans-Serif" font-size="10.00">tds7_build_param_def</text>
<text text-anchor="middle" x="249.5" y="-241" font-family="Helvetica,sans-Serif" font-size="10.00">_from_query</text>
</a>
</g>
</g>
<!-- Node1&#45;&gt;Node36 -->
<g id="edge50" class="edge"><title>Node1&#45;&gt;Node36</title>
<path fill="none" stroke="midnightblue" d="M77.3839,-377.21C92.1305,-355.346 130.783,-302.179 176,-273 178.454,-271.416 181.023,-269.927 183.669,-268.528"/>
<polygon fill="midnightblue" stroke="midnightblue" points="185.391,-271.585 192.903,-264.114 182.372,-265.269 185.391,-271.585"/>
</g>
<!-- Node37 -->
<g id="node37" class="node"><title>Node37</title>
<g id="a_node37"><a xlink:href="a00356.html#ga6e42b4a1d1d3898229ea2fe4afc2ecec" target="_top" xlink:title="Output params types and query (required by sp_prepare/sp_executesql/sp_prepexec) ">
<polygon fill="white" stroke="black" points="184,-157.5 184,-176.5 315,-176.5 315,-157.5 184,-157.5"/>
<text text-anchor="middle" x="249.5" y="-164.5" font-family="Helvetica,sans-Serif" font-size="10.00">tds7_put_query_params</text>
</a>
</g>
</g>
<!-- Node1&#45;&gt;Node37 -->
<g id="edge54" class="edge"><title>Node1&#45;&gt;Node37</title>
<path fill="none" stroke="midnightblue" d="M73.4464,-377.198C81.883,-345.412 112.781,-244.177 176,-191 180.927,-186.855 186.594,-183.42 192.543,-180.573"/>
<polygon fill="midnightblue" stroke="midnightblue" points="194.198,-183.673 202.056,-176.567 191.482,-177.222 194.198,-183.673"/>
</g>
<!-- Node38 -->
<g id="node38" class="node"><title>Node38</title>
<g id="a_node38"><a xlink:href="a00356.html#ga0f0b6bf447e9672e3b1ea8453ddeb113" target="_top" xlink:title="Send parameter definition to server. ">
<polygon fill="white" stroke="black" points="176,-119.5 176,-138.5 323,-138.5 323,-119.5 176,-119.5"/>
<text text-anchor="middle" x="249.5" y="-126.5" font-family="Helvetica,sans-Serif" font-size="10.00">tds7_put_params_definition</text>
</a>
</g>
</g>
<!-- Node1&#45;&gt;Node38 -->
<g id="edge58" class="edge"><title>Node1&#45;&gt;Node38</title>
<path fill="none" stroke="midnightblue" d="M72.2866,-377.005C77.5495,-340.356 100.854,-212.144 176,-148 177.992,-146.3 180.118,-144.75 182.346,-143.336"/>
<polygon fill="midnightblue" stroke="midnightblue" points="184.187,-146.322 191.372,-138.535 180.899,-140.142 184.187,-146.322"/>
</g>
<!-- Node39 -->
<g id="node39" class="node"><title>Node39</title>
<g id="a_node39"><a xlink:href="a00356.html#gada27f4cfce925240ad33b71b63ca692d" target="_top" xlink:title="Flush query packet. ">
<polygon fill="white" stroke="black" points="369.5,-567.5 369.5,-586.5 497.5,-586.5 497.5,-567.5 369.5,-567.5"/>
<text text-anchor="middle" x="433.5" y="-574.5" font-family="Helvetica,sans-Serif" font-size="10.00">tds_query_flush_packet</text>
</a>
</g>
</g>
<!-- Node1&#45;&gt;Node39 -->
<g id="edge61" class="edge"><title>Node1&#45;&gt;Node39</title>
<path fill="none" stroke="midnightblue" d="M74.0116,-396.818C83.5032,-425.905 115.793,-511.902 176,-549 230.728,-582.722 304.697,-587.436 359.14,-585.067"/>
<polygon fill="midnightblue" stroke="midnightblue" points="359.61,-588.547 369.412,-584.527 359.242,-581.557 359.61,-588.547"/>
</g>
<!-- Node3 -->
<g id="node3" class="node"><title>Node3</title>
<g id="a_node3"><a xlink:href="a00193.html#ab45c291105027e69836002e1dd586141" target="_top" xlink:title="Write a message to the debug log. ">
<polygon fill="white" stroke="black" points="1074.5,-367.5 1074.5,-386.5 1151.5,-386.5 1151.5,-367.5 1074.5,-367.5"/>
<text text-anchor="middle" x="1113" y="-374.5" font-family="Helvetica,sans-Serif" font-size="10.00">tdsdump_log</text>
</a>
</g>
</g>
<!-- Node2&#45;&gt;Node3 -->
<g id="edge2" class="edge"><title>Node2&#45;&gt;Node3</title>
<path fill="none" stroke="midnightblue" d="M652.091,-470.838C728.011,-484.203 899.323,-505.204 1029,-453 1058.75,-441.024 1084.47,-413.161 1099.1,-394.708"/>
<polygon fill="midnightblue" stroke="midnightblue" points="1102.07,-396.586 1105.36,-386.515 1096.51,-392.337 1102.07,-396.586"/>
</g>
<!-- Node4 -->
<g id="node4" class="node"><title>Node4</title>
<g id="a_node4"><a xlink:href="a00193.html#abf18b98efef6ce2dc0b97d658a3a1918" target="_top" xlink:title="Call the client library&#39;s error handler (for library&#45;generated errors only) ">
<polygon fill="white" stroke="black" points="759,-410.5 759,-429.5 813,-429.5 813,-410.5 759,-410.5"/>
<text text-anchor="middle" x="786" y="-417.5" font-family="Helvetica,sans-Serif" font-size="10.00">tdserror</text>
</a>
</g>
</g>
<!-- Node2&#45;&gt;Node4 -->
<g id="edge3" class="edge"><title>Node2&#45;&gt;Node4</title>
<path fill="none" stroke="midnightblue" d="M651.172,-453.457C680.348,-446.163 720.293,-436.177 748.933,-429.017"/>
<polygon fill="midnightblue" stroke="midnightblue" points="750.08,-432.338 758.932,-426.517 748.382,-425.547 750.08,-432.338"/>
</g>
<!-- Node4&#45;&gt;Node3 -->
<g id="edge4" class="edge"><title>Node4&#45;&gt;Node3</title>
<path fill="none" stroke="midnightblue" d="M813.047,-416.554C867.562,-409.341 994.385,-392.561 1064.05,-383.344"/>
<polygon fill="midnightblue" stroke="midnightblue" points="1064.86,-386.768 1074.31,-381.987 1063.94,-379.829 1064.86,-386.768"/>
</g>
<!-- Node5 -->
<g id="node5" class="node"><title>Node5</title>
<g id="a_node5"><a xlink:href="a00356.html#ga11338742dc30fd0c2711f58eb830316f" target="_top" xlink:title="tds_send_cancel() sends an empty packet (8 byte header only) tds_process_cancel should be called dire...">
<polygon fill="white" stroke="black" points="912,-424.5 912,-443.5 1009,-443.5 1009,-424.5 912,-424.5"/>
<text text-anchor="middle" x="960.5" y="-431.5" font-family="Helvetica,sans-Serif" font-size="10.00">tds_send_cancel</text>
</a>
</g>
</g>
<!-- Node4&#45;&gt;Node5 -->
<g id="edge5" class="edge"><title>Node4&#45;&gt;Node5</title>
<path fill="none" stroke="midnightblue" d="M813.199,-422.126C836.553,-424.022 871.568,-426.863 901.487,-429.292"/>
<polygon fill="midnightblue" stroke="midnightblue" points="901.58,-432.811 911.83,-430.131 902.146,-425.834 901.58,-432.811"/>
</g>
<!-- Node5&#45;&gt;Node3 -->
<g id="edge6" class="edge"><title>Node5&#45;&gt;Node3</title>
<path fill="none" stroke="midnightblue" d="M989.17,-424.42C1001.41,-420.115 1015.96,-414.907 1029,-410 1045.55,-403.771 1063.82,-396.544 1079,-390.444"/>
<polygon fill="midnightblue" stroke="midnightblue" points="1080.51,-393.607 1088.48,-386.62 1077.89,-387.116 1080.51,-393.607"/>
</g>
<!-- Node6 -->
<g id="node6" class="node"><title>Node6</title>
<g id="a_node6"><a xlink:href="a00357.html#ga5feb53554e8917a81bbbc332163a61fb" target="_top" xlink:title="Flush packet to server. ">
<polygon fill="white" stroke="black" points="1065,-482.5 1065,-501.5 1161,-501.5 1161,-482.5 1065,-482.5"/>
<text text-anchor="middle" x="1113" y="-489.5" font-family="Helvetica,sans-Serif" font-size="10.00">tds_flush_packet</text>
</a>
</g>
</g>
<!-- Node5&#45;&gt;Node6 -->
<g id="edge7" class="edge"><title>Node5&#45;&gt;Node6</title>
<path fill="none" stroke="midnightblue" d="M986.352,-443.578C1011.3,-453.191 1049.91,-468.073 1077.75,-478.802"/>
<polygon fill="midnightblue" stroke="midnightblue" points="1076.52,-482.078 1087.11,-482.408 1079.04,-475.546 1076.52,-482.078"/>
</g>
<!-- Node8 -->
<g id="node8" class="node"><title>Node8</title>
<g id="a_node8"><a xlink:href="a00356.html#ga5dbe51ce9533218f2da23f69ff63dda4" target="_top" xlink:title="Skip quoting string (like &#39;sfsf&#39;, &quot;dflkdj&quot; or [dfkjd]) ">
<polygon fill="white" stroke="black" points="565,-681.5 565,-700.5 659,-700.5 659,-681.5 565,-681.5"/>
<text text-anchor="middle" x="612" y="-688.5" font-family="Helvetica,sans-Serif" font-size="10.00">tds_skip_quoted</text>
</a>
</g>
</g>
<!-- Node7&#45;&gt;Node8 -->
<g id="edge9" class="edge"><title>Node7&#45;&gt;Node8</title>
<path fill="none" stroke="midnightblue" d="M479.038,-662.589C502.644,-667.671 531.832,-673.955 556.751,-679.32"/>
<polygon fill="midnightblue" stroke="midnightblue" points="556.269,-682.797 566.782,-681.48 557.743,-675.954 556.269,-682.797"/>
</g>
<!-- Node9 -->
<g id="node9" class="node"><title>Node9</title>
<g id="a_node9"><a xlink:href="a00356.html#gaac7347ba9380d77d726648b85e9fab8f" target="_top" xlink:title="Skip a comment in a query. ">
<polygon fill="white" stroke="black" points="560,-643.5 560,-662.5 664,-662.5 664,-643.5 560,-643.5"/>
<text text-anchor="middle" x="612" y="-650.5" font-family="Helvetica,sans-Serif" font-size="10.00">tds_skip_comment</text>
</a>
</g>
</g>
<!-- Node7&#45;&gt;Node9 -->
<g id="edge10" class="edge"><title>Node7&#45;&gt;Node9</title>
<path fill="none" stroke="midnightblue" d="M493.272,-653C511.379,-653 531.357,-653 549.635,-653"/>
<polygon fill="midnightblue" stroke="midnightblue" points="549.88,-656.5 559.88,-653 549.88,-649.5 549.88,-656.5"/>
</g>
<!-- Node10&#45;&gt;Node7 -->
<g id="edge12" class="edge"><title>Node10&#45;&gt;Node7</title>
<path fill="none" stroke="midnightblue" d="M296.426,-624.589C320.876,-629.694 351.133,-636.011 376.903,-641.392"/>
<polygon fill="midnightblue" stroke="midnightblue" points="376.4,-644.862 386.904,-643.48 377.83,-638.01 376.4,-644.862"/>
</g>
<!-- Node11 -->
<g id="node11" class="node"><title>Node11</title>
<g id="a_node11"><a xlink:href="a00358.html#gad96366d9fa93bfc283cef1299fbe97ab" target="_top" xlink:title="copy a string from another ">
<polygon fill="white" stroke="black" points="392,-605.5 392,-624.5 475,-624.5 475,-605.5 392,-605.5"/>
<text text-anchor="middle" x="433.5" y="-612.5" font-family="Helvetica,sans-Serif" font-size="10.00">tds_dstr_copy</text>
</a>
</g>
</g>
<!-- Node10&#45;&gt;Node11 -->
<g id="edge13" class="edge"><title>Node10&#45;&gt;Node11</title>
<path fill="none" stroke="midnightblue" d="M303.142,-615C327.852,-615 357.182,-615 381.661,-615"/>
<polygon fill="midnightblue" stroke="midnightblue" points="381.827,-618.5 391.827,-615 381.827,-611.5 381.827,-618.5"/>
</g>
<!-- Node12 -->
<g id="node12" class="node"><title>Node12</title>
<g id="a_node12"><a xlink:href="a00358.html#ga656718f240d7403f986ae887d84a6ca1" target="_top" xlink:title="Set string to a given buffer of characters. ">
<polygon fill="white" stroke="black" points="567.5,-605.5 567.5,-624.5 656.5,-624.5 656.5,-605.5 567.5,-605.5"/>
<text text-anchor="middle" x="612" y="-612.5" font-family="Helvetica,sans-Serif" font-size="10.00">tds_dstr_copyn</text>
</a>
</g>
</g>
<!-- Node11&#45;&gt;Node12 -->
<g id="edge14" class="edge"><title>Node11&#45;&gt;Node12</title>
<path fill="none" stroke="midnightblue" d="M475.436,-615C499.71,-615 530.764,-615 557.024,-615"/>
<polygon fill="midnightblue" stroke="midnightblue" points="557.201,-618.5 567.201,-615 557.201,-611.5 557.201,-618.5"/>
</g>
<!-- Node14 -->
<g id="node14" class="node"><title>Node14</title>
<g id="a_node14"><a xlink:href="a00356.html#ga319d610d59b2cc669b7fe20c793122af" target="_top" xlink:title="Calc information length in bytes (useful for calculating full packet length) ">
<polygon fill="white" stroke="black" points="892,-500.5 892,-519.5 1029,-519.5 1029,-500.5 892,-500.5"/>
<text text-anchor="middle" x="960.5" y="-507.5" font-family="Helvetica,sans-Serif" font-size="10.00">tds_put_data_info_length</text>
</a>
</g>
</g>
<!-- Node13&#45;&gt;Node14 -->
<g id="edge16" class="edge"><title>Node13&#45;&gt;Node14</title>
<path fill="none" stroke="midnightblue" d="M295.659,-501.573C413.764,-503.072 732.906,-507.124 881.462,-509.009"/>
<polygon fill="midnightblue" stroke="midnightblue" points="881.815,-512.514 891.858,-509.141 881.904,-505.515 881.815,-512.514"/>
</g>
<!-- Node13&#45;&gt;Node15 -->
<g id="edge18" class="edge"><title>Node13&#45;&gt;Node15</title>
<path fill="none" stroke="midnightblue" d="M273.55,-491.375C305.55,-478.012 363.595,-453.773 399.986,-438.577"/>
<polygon fill="midnightblue" stroke="midnightblue" points="401.758,-441.63 409.637,-434.547 399.06,-435.171 401.758,-441.63"/>
</g>
<!-- Node13&#45;&gt;Node18 -->
<g id="edge23" class="edge"><title>Node13&#45;&gt;Node18</title>
<path fill="none" stroke="midnightblue" d="M295.957,-510.491C322.845,-516.105 356.88,-523.211 384.243,-528.924"/>
<polygon fill="midnightblue" stroke="midnightblue" points="383.87,-532.422 394.375,-531.04 385.301,-525.57 383.87,-532.422"/>
</g>
<!-- Node14&#45;&gt;Node3 -->
<g id="edge17" class="edge"><title>Node14&#45;&gt;Node3</title>
<path fill="none" stroke="midnightblue" d="M1000.54,-500.401C1010.4,-496.864 1020.56,-492.162 1029,-486 1062.6,-461.464 1089.03,-419.576 1102.4,-395.499"/>
<polygon fill="midnightblue" stroke="midnightblue" points="1105.51,-397.116 1107.17,-386.653 1099.35,-393.794 1105.51,-397.116"/>
</g>
<!-- Node15&#45;&gt;Node3 -->
<g id="edge19" class="edge"><title>Node15&#45;&gt;Node3</title>
<path fill="none" stroke="midnightblue" d="M484.196,-419.821C568.136,-411.26 743.388,-394.193 892,-385 951.154,-381.341 1019.37,-379.179 1063.96,-378.044"/>
<polygon fill="midnightblue" stroke="midnightblue" points="1064.3,-381.536 1074.21,-377.79 1064.13,-374.539 1064.3,-381.536"/>
</g>
<!-- Node15&#45;&gt;Node16 -->
<g id="edge20" class="edge"><title>Node15&#45;&gt;Node16</title>
<path fill="none" stroke="midnightblue" d="M481.181,-415.449C490.266,-412.893 499.578,-409.766 508,-406 525.555,-398.15 526.821,-390.64 544,-382 552.1,-377.926 561.062,-374.216 569.726,-370.995"/>
<polygon fill="midnightblue" stroke="midnightblue" points="571.075,-374.23 579.319,-367.574 568.724,-367.637 571.075,-374.23"/>
</g>
<!-- Node17 -->
<g id="node17" class="node"><title>Node17</title>
<g id="a_node17"><a xlink:href="a00354.html#ga87db49044919f1bc84c0ff5e9ab00304" target="_top" xlink:title="Wrapper around iconv(3). ">
<polygon fill="white" stroke="red" points="755,-310.5 755,-329.5 817,-329.5 817,-310.5 755,-310.5"/>
<text text-anchor="middle" x="786" y="-317.5" font-family="Helvetica,sans-Serif" font-size="10.00">tds_iconv</text>
</a>
</g>
</g>
<!-- Node16&#45;&gt;Node17 -->
<g id="edge21" class="edge"><title>Node16&#45;&gt;Node17</title>
<path fill="none" stroke="midnightblue" d="M656.403,-348.411C683.55,-342.413 718.274,-334.742 744.795,-328.882"/>
<polygon fill="midnightblue" stroke="midnightblue" points="745.877,-332.228 754.886,-326.653 744.367,-325.393 745.877,-332.228"/>
</g>
<!-- Node17&#45;&gt;Node3 -->
<g id="edge22" class="edge"><title>Node17&#45;&gt;Node3</title>
<path fill="none" stroke="midnightblue" d="M817.256,-320.304C863.521,-321.369 954.337,-325.836 1029,-344 1047.59,-348.523 1067.54,-356.352 1083.23,-363.25"/>
<polygon fill="midnightblue" stroke="midnightblue" points="1081.83,-366.461 1092.39,-367.387 1084.71,-360.082 1081.83,-366.461"/>
</g>
<!-- Node19&#45;&gt;Node2 -->
<g id="edge26" class="edge"><title>Node19&#45;&gt;Node2</title>
<path fill="none" stroke="midnightblue" d="M479,-396.576C488.707,-399.195 498.817,-402.341 508,-406 536.812,-417.481 567.66,-435.381 588.005,-448.055"/>
<polygon fill="midnightblue" stroke="midnightblue" points="586.246,-451.083 596.569,-453.468 589.987,-445.166 586.246,-451.083"/>
</g>
<!-- Node19&#45;&gt;Node16 -->
<g id="edge25" class="edge"><title>Node19&#45;&gt;Node16</title>
<path fill="none" stroke="midnightblue" d="M492.782,-377.424C511.082,-374.417 531.333,-371.09 549.827,-368.051"/>
<polygon fill="midnightblue" stroke="midnightblue" points="550.597,-371.472 559.897,-366.397 549.462,-364.564 550.597,-371.472"/>
</g>
<!-- Node21 -->
<g id="node21" class="node"><title>Node21</title>
<g id="a_node21"><a xlink:href="a00263.html#aa9e1e45f0305622dd6aed9f8fe158581" target="_top" xlink:title="Initialize an input stream for read from a static allocated buffer. ">
<polygon fill="white" stroke="black" points="548,-120.5 548,-139.5 676,-139.5 676,-120.5 548,-120.5"/>
<text text-anchor="middle" x="612" y="-127.5" font-family="Helvetica,sans-Serif" font-size="10.00">tds_staticin_stream_init</text>
</a>
</g>
</g>
<!-- Node20&#45;&gt;Node21 -->
<g id="edge28" class="edge"><title>Node20&#45;&gt;Node21</title>
<path fill="none" stroke="midnightblue" d="M475.436,-152.274C495.484,-148.98 520.158,-144.926 542.935,-141.183"/>
<polygon fill="midnightblue" stroke="midnightblue" points="543.601,-144.621 552.902,-139.546 542.467,-137.714 543.601,-144.621"/>
</g>
<!-- Node23 -->
<g id="node23" class="node"><title>Node23</title>
<g id="a_node23"><a xlink:href="a00263.html#aa038a9125979f8f0915dbd53cbf27e5a" target="_top" xlink:title="Initialize a data output stream. ">
<polygon fill="white" stroke="black" points="547,-82.5 547,-101.5 677,-101.5 677,-82.5 547,-82.5"/>
<text text-anchor="middle" x="612" y="-89.5" font-family="Helvetica,sans-Serif" font-size="10.00">tds_dataout_stream_init</text>
</a>
</g>
</g>
<!-- Node20&#45;&gt;Node23 -->
<g id="edge30" class="edge"><title>Node20&#45;&gt;Node23</title>
<path fill="none" stroke="midnightblue" d="M472.742,-149.434C484.351,-145.898 496.951,-141.407 508,-136 525.497,-127.437 526.39,-119.326 544,-111 548.919,-108.674 554.178,-106.579 559.507,-104.706"/>
<polygon fill="midnightblue" stroke="midnightblue" points="560.695,-108 569.115,-101.57 558.523,-101.345 560.695,-108"/>
</g>
<!-- Node25 -->
<g id="node25" class="node"><title>Node25</title>
<g id="a_node25"><a xlink:href="a00263.html#a9d8eb43a81ff58ab423dce0ce95b9564" target="_top" xlink:title="Reads and writes from a stream converting characters. ">
<polygon fill="white" stroke="black" points="557,-158.5 557,-177.5 667,-177.5 667,-158.5 557,-158.5"/>
<text text-anchor="middle" x="612" y="-165.5" font-family="Helvetica,sans-Serif" font-size="10.00">tds_convert_stream</text>
</a>
</g>
</g>
<!-- Node20&#45;&gt;Node25 -->
<g id="edge32" class="edge"><title>Node20&#45;&gt;Node25</title>
<path fill="none" stroke="midnightblue" d="M475.436,-161.087C496.644,-162.169 523.026,-163.514 546.866,-164.73"/>
<polygon fill="midnightblue" stroke="midnightblue" points="546.74,-168.228 556.905,-165.242 547.096,-161.237 546.74,-168.228"/>
</g>
<!-- Node22 -->
<g id="node22" class="node"><title>Node22</title>
<g id="a_node22"><a xlink:href="a00263.html#a76b02f1fa5b79dc7e1ef2651a9afe3f7" target="_top" xlink:title="Reads data from a static allocated buffer. ">
<polygon fill="white" stroke="black" points="718,-126.5 718,-145.5 854,-145.5 854,-126.5 718,-126.5"/>
<text text-anchor="middle" x="786" y="-133.5" font-family="Helvetica,sans-Serif" font-size="10.00">tds_staticin_stream_read</text>
</a>
</g>
</g>
<!-- Node21&#45;&gt;Node22 -->
<g id="edge29" class="edge"><title>Node21&#45;&gt;Node22</title>
<path fill="none" stroke="midnightblue" d="M676.07,-132.2C686.387,-132.56 697.179,-132.936 707.791,-133.307"/>
<polygon fill="midnightblue" stroke="midnightblue" points="707.772,-136.808 717.888,-133.659 708.017,-129.812 707.772,-136.808"/>
</g>
<!-- Node24 -->
<g id="node24" class="node"><title>Node24</title>
<g id="a_node24"><a xlink:href="a00263.html#ae38a590ee08cf398e7adef536ac94538" target="_top" xlink:title="Writes data to network for output stream. ">
<polygon fill="white" stroke="black" points="731,-77 731,-107 841,-107 841,-77 731,-77"/>
<text text-anchor="start" x="739" y="-95" font-family="Helvetica,sans-Serif" font-size="10.00">tds_dataout_stream</text>
<text text-anchor="middle" x="786" y="-84" font-family="Helvetica,sans-Serif" font-size="10.00">_write</text>
</a>
</g>
</g>
<!-- Node23&#45;&gt;Node24 -->
<g id="edge31" class="edge"><title>Node23&#45;&gt;Node24</title>
<path fill="none" stroke="midnightblue" d="M677.046,-92C691.265,-92 706.342,-92 720.575,-92"/>
<polygon fill="midnightblue" stroke="midnightblue" points="720.766,-95.5001 730.766,-92 720.766,-88.5001 720.766,-95.5001"/>
</g>
<!-- Node25&#45;&gt;Node3 -->
<g id="edge34" class="edge"><title>Node25&#45;&gt;Node3</title>
<path fill="none" stroke="midnightblue" d="M667.328,-167.273C753.118,-168.889 921.263,-183.599 1029,-268 1061.58,-293.526 1088.22,-334.717 1101.94,-358.48"/>
<polygon fill="midnightblue" stroke="midnightblue" points="1098.91,-360.222 1106.86,-367.223 1105.01,-356.791 1098.91,-360.222"/>
</g>
<!-- Node25&#45;&gt;Node4 -->
<g id="edge36" class="edge"><title>Node25&#45;&gt;Node4</title>
<path fill="none" stroke="midnightblue" d="M667.175,-177.602C671.928,-180.074 676.322,-183.157 680,-187 728.004,-237.153 684.617,-277.074 716,-339 728.729,-364.117 750.763,-388.041 766.507,-403.287"/>
<polygon fill="midnightblue" stroke="midnightblue" points="764.407,-406.117 774.085,-410.429 769.209,-401.024 764.407,-406.117"/>
</g>
<!-- Node25&#45;&gt;Node17 -->
<g id="edge33" class="edge"><title>Node25&#45;&gt;Node17</title>
<path fill="none" stroke="midnightblue" d="M660.78,-177.52C667.544,-179.995 674.171,-183.102 680,-187 683.001,-189.007 743.173,-266.183 771.047,-302.034"/>
<polygon fill="midnightblue" stroke="midnightblue" points="768.484,-304.439 777.383,-310.188 774.011,-300.144 768.484,-304.439"/>
</g>
<!-- Node26 -->
<g id="node26" class="node"><title>Node26</title>
<g id="a_node26"><a xlink:href="a00193.html#a79449d2f35a8acc8ed0585044f75524d" target="_top" xlink:title="Dump the contents of data into the log file in a human readable format. ">
<polygon fill="white" stroke="black" points="732.5,-202.5 732.5,-221.5 839.5,-221.5 839.5,-202.5 732.5,-202.5"/>
<text text-anchor="middle" x="786" y="-209.5" font-family="Helvetica,sans-Serif" font-size="10.00">tdsdump_dump_buf</text>
</a>
</g>
</g>
<!-- Node25&#45;&gt;Node26 -->
<g id="edge35" class="edge"><title>Node25&#45;&gt;Node26</title>
<path fill="none" stroke="midnightblue" d="M650.321,-177.547C676.016,-184.12 710.355,-192.905 737.928,-199.958"/>
<polygon fill="midnightblue" stroke="midnightblue" points="737.196,-203.384 747.751,-202.471 738.931,-196.602 737.196,-203.384"/>
</g>
<!-- Node28 -->
<g id="node28" class="node"><title>Node28</title>
<g id="a_node28"><a xlink:href="a00356.html#gaa823973b74efdf1ff00f340496bff614" target="_top" xlink:title="Found the next placeholder (? or @param) in a string. ">
<polygon fill="white" stroke="black" points="552.5,-33 552.5,-63 671.5,-63 671.5,-33 552.5,-33"/>
<text text-anchor="start" x="560.5" y="-51" font-family="Helvetica,sans-Serif" font-size="10.00">tds_next_placeholder</text>
<text text-anchor="middle" x="612" y="-40" font-family="Helvetica,sans-Serif" font-size="10.00">_ucs2le</text>
</a>
</g>
</g>
<!-- Node27&#45;&gt;Node28 -->
<g id="edge39" class="edge"><title>Node27&#45;&gt;Node28</title>
<path fill="none" stroke="midnightblue" d="M475.881,-96.9948C501.018,-87.8801 533.302,-76.1739 560.009,-66.4897"/>
<polygon fill="midnightblue" stroke="midnightblue" points="561.365,-69.7212 569.572,-63.0219 558.978,-63.1405 561.365,-69.7212"/>
</g>
<!-- Node29 -->
<g id="node29" class="node"><title>Node29</title>
<g id="a_node29"><a xlink:href="a00356.html#ga2361ec4629aa0eac38f1702b03ed8185" target="_top" xlink:title="Return pointer to end of a quoted string. ">
<polygon fill="white" stroke="black" points="721,-0.5 721,-19.5 851,-19.5 851,-0.5 721,-0.5"/>
<text text-anchor="middle" x="786" y="-7.5" font-family="Helvetica,sans-Serif" font-size="10.00">tds_skip_quoted_ucs2le</text>
</a>
</g>
</g>
<!-- Node28&#45;&gt;Node29 -->
<g id="edge40" class="edge"><title>Node28&#45;&gt;Node29</title>
<path fill="none" stroke="midnightblue" d="M671.712,-35.0288C691.18,-30.7277 712.73,-25.9667 731.762,-21.7619"/>
<polygon fill="midnightblue" stroke="midnightblue" points="732.744,-25.1295 741.753,-19.5545 731.234,-18.2943 732.744,-25.1295"/>
</g>
<!-- Node30 -->
<g id="node30" class="node"><title>Node30</title>
<g id="a_node30"><a xlink:href="a00356.html#gab304fda9f325e852ba5c5252079d22e3" target="_top" xlink:title="Skip a comment in a query. ">
<polygon fill="white" stroke="black" points="716,-38.5 716,-57.5 856,-57.5 856,-38.5 716,-38.5"/>
<text text-anchor="middle" x="786" y="-45.5" font-family="Helvetica,sans-Serif" font-size="10.00">tds_skip_comment_ucs2le</text>
</a>
</g>
</g>
<!-- Node28&#45;&gt;Node30 -->
<g id="edge41" class="edge"><title>Node28&#45;&gt;Node30</title>
<path fill="none" stroke="midnightblue" d="M671.712,-48C682.701,-48 694.354,-48 705.842,-48"/>
<polygon fill="midnightblue" stroke="midnightblue" points="705.875,-51.5001 715.875,-48 705.875,-44.5001 705.875,-51.5001"/>
</g>
<!-- Node31&#45;&gt;Node17 -->
<g id="edge44" class="edge"><title>Node31&#45;&gt;Node17</title>
<path fill="none" stroke="midnightblue" d="M310,-300.449C419.783,-304.968 651.492,-314.505 744.806,-318.346"/>
<polygon fill="midnightblue" stroke="midnightblue" points="744.827,-321.849 754.963,-318.764 745.115,-314.855 744.827,-321.849"/>
</g>
<!-- Node31&#45;&gt;Node28 -->
<g id="edge43" class="edge"><title>Node31&#45;&gt;Node28</title>
<path fill="none" stroke="midnightblue" d="M297.704,-282.901C306.212,-279.847 314.937,-276.493 323,-273 339.601,-265.808 342.117,-260.503 359,-254 422.775,-229.435 459.75,-264.4 508,-216 554.271,-169.586 500.287,-121.831 544,-73 545.196,-71.6645 546.469,-70.4001 547.809,-69.203"/>
<polygon fill="midnightblue" stroke="midnightblue" points="550.155,-71.8207 556.109,-63.0573 545.99,-66.1948 550.155,-71.8207"/>
</g>
<!-- Node32 -->
<g id="node32" class="node"><title>Node32</title>
<g id="a_node32"><a xlink:href="a00356.html#ga50d62edeb2a432e2dc668263f3f958ff" target="_top" xlink:title="Return declaration for column (like &quot;varchar(20)&quot;) ">
<polygon fill="white" stroke="black" points="359,-263.5 359,-282.5 508,-282.5 508,-263.5 359,-263.5"/>
<text text-anchor="middle" x="433.5" y="-270.5" font-family="Helvetica,sans-Serif" font-size="10.00">tds_get_column_declaration</text>
</a>
</g>
</g>
<!-- Node31&#45;&gt;Node32 -->
<g id="edge45" class="edge"><title>Node31&#45;&gt;Node32</title>
<path fill="none" stroke="midnightblue" d="M310.094,-289.814C323.908,-287.917 338.822,-285.868 353.329,-283.875"/>
<polygon fill="midnightblue" stroke="midnightblue" points="353.857,-287.336 363.288,-282.507 352.905,-280.401 353.857,-287.336"/>
</g>
<!-- Node35 -->
<g id="node35" class="node"><title>Node35</title>
<g id="a_node35"><a xlink:href="a00356.html#gad05fc65e1d505c68d14c82b99a00e4eb" target="_top" xlink:title="Accept an ASCII string, convert it to UCS2&#45;LE The input is null&#45;terminated, but the output excludes t...">
<polygon fill="white" stroke="black" points="383,-187.5 383,-206.5 484,-206.5 484,-187.5 383,-187.5"/>
<text text-anchor="middle" x="433.5" y="-194.5" font-family="Helvetica,sans-Serif" font-size="10.00">tds_ascii_to_ucs2</text>
</a>
</g>
</g>
<!-- Node31&#45;&gt;Node35 -->
<g id="edge49" class="edge"><title>Node31&#45;&gt;Node35</title>
<path fill="none" stroke="midnightblue" d="M306.223,-282.953C312.175,-280.153 317.907,-276.861 323,-273 345.4,-256.019 336.461,-237.796 359,-221 364.772,-216.699 371.351,-213.146 378.145,-210.218"/>
<polygon fill="midnightblue" stroke="midnightblue" points="379.427,-213.475 387.489,-206.599 376.9,-206.947 379.427,-213.475"/>
</g>
<!-- Node32&#45;&gt;Node3 -->
<g id="edge48" class="edge"><title>Node32&#45;&gt;Node3</title>
<path fill="none" stroke="midnightblue" d="M508.032,-273.997C645.351,-276.667 935.344,-286.354 1029,-321 1053.21,-329.956 1077.26,-347.365 1093.19,-360.407"/>
<polygon fill="midnightblue" stroke="midnightblue" points="1091.25,-363.351 1101.16,-367.121 1095.77,-358 1091.25,-363.351"/>
</g>
<!-- Node33 -->
<g id="node33" class="node"><title>Node33</title>
<g id="a_node33"><a xlink:href="a00356.html#ga440f0f469afad1eac4c008979873ccdd" target="_top" xlink:title="Get column size for wire. ">
<polygon fill="white" stroke="black" points="556.5,-196.5 556.5,-215.5 667.5,-215.5 667.5,-196.5 556.5,-196.5"/>
<text text-anchor="middle" x="612" y="-203.5" font-family="Helvetica,sans-Serif" font-size="10.00">tds_fix_column_size</text>
</a>
</g>
</g>
<!-- Node32&#45;&gt;Node33 -->
<g id="edge46" class="edge"><title>Node32&#45;&gt;Node33</title>
<path fill="none" stroke="midnightblue" d="M470.409,-263.422C482.62,-259.607 496.165,-254.743 508,-249 525.3,-240.604 526.538,-233.054 544,-225 549.009,-222.69 554.361,-220.599 559.774,-218.724"/>
<polygon fill="midnightblue" stroke="midnightblue" points="561.081,-221.98 569.524,-215.579 558.932,-215.318 561.081,-221.98"/>
</g>
<!-- Node34 -->
<g id="node34" class="node"><title>Node34</title>
<g id="a_node34"><a xlink:href="a00193.html#ae7f4c4d5f7352f1c814284c536659e6f" target="_top" xlink:title="Return type suitable for conversions (convert all nullable types to fixed type) ">
<polygon fill="white" stroke="black" points="544,-234.5 544,-253.5 680,-253.5 680,-234.5 544,-234.5"/>
<text text-anchor="middle" x="612" y="-241.5" font-family="Helvetica,sans-Serif" font-size="10.00">tds_get_conversion_type</text>
</a>
</g>
</g>
<!-- Node32&#45;&gt;Node34 -->
<g id="edge47" class="edge"><title>Node32&#45;&gt;Node34</title>
<path fill="none" stroke="midnightblue" d="M492.782,-263.424C508.83,-260.787 526.379,-257.904 542.928,-255.185"/>
<polygon fill="midnightblue" stroke="midnightblue" points="543.78,-258.592 553.08,-253.517 542.645,-251.684 543.78,-258.592"/>
</g>
<!-- Node36&#45;&gt;Node27 -->
<g id="edge51" class="edge"><title>Node36&#45;&gt;Node27</title>
<path fill="none" stroke="midnightblue" d="M269.867,-233.878C285.01,-221.66 306.233,-203.651 323,-186 340.88,-167.178 338.105,-155.407 359,-140 363.219,-136.889 367.826,-134.081 372.609,-131.556"/>
<polygon fill="midnightblue" stroke="midnightblue" points="374.482,-134.538 381.969,-127.042 371.441,-128.233 374.482,-134.538"/>
</g>
<!-- Node36&#45;&gt;Node32 -->
<g id="edge52" class="edge"><title>Node36&#45;&gt;Node32</title>
<path fill="none" stroke="midnightblue" d="M310.094,-256.858C322.898,-258.547 336.649,-260.36 350.144,-262.14"/>
<polygon fill="midnightblue" stroke="midnightblue" points="350.021,-265.654 360.393,-263.491 350.937,-258.714 350.021,-265.654"/>
</g>
<!-- Node36&#45;&gt;Node35 -->
<g id="edge53" class="edge"><title>Node36&#45;&gt;Node35</title>
<path fill="none" stroke="midnightblue" d="M303.142,-233.959C330.483,-226.148 363.478,-216.721 389.302,-209.342"/>
<polygon fill="midnightblue" stroke="midnightblue" points="390.523,-212.634 399.176,-206.521 388.6,-205.903 390.523,-212.634"/>
</g>
<!-- Node37&#45;&gt;Node20 -->
<g id="edge57" class="edge"><title>Node37&#45;&gt;Node20</title>
<path fill="none" stroke="midnightblue" d="M315.179,-164.157C337.03,-163.196 361.097,-162.139 381.715,-161.232"/>
<polygon fill="midnightblue" stroke="midnightblue" points="382.007,-164.723 391.843,-160.787 381.699,-157.73 382.007,-164.723"/>
</g>
<!-- Node37&#45;&gt;Node27 -->
<g id="edge55" class="edge"><title>Node37&#45;&gt;Node27</title>
<path fill="none" stroke="midnightblue" d="M288.625,-157.477C299.746,-154.573 311.893,-151.278 323,-148 341.38,-142.576 361.332,-136.172 379.108,-130.28"/>
<polygon fill="midnightblue" stroke="midnightblue" points="380.357,-133.554 388.736,-127.07 378.142,-126.913 380.357,-133.554"/>
</g>
<!-- Node37&#45;&gt;Node28 -->
<g id="edge56" class="edge"><title>Node37&#45;&gt;Node28</title>
<path fill="none" stroke="midnightblue" d="M306.07,-157.36C312.117,-154.911 317.913,-151.843 323,-148 348.119,-129.024 332.94,-104.66 359,-87 412.882,-50.4852 487.992,-43.0487 542.175,-43.3342"/>
<polygon fill="midnightblue" stroke="midnightblue" points="542.33,-46.8367 552.379,-43.48 542.43,-39.8374 542.33,-46.8367"/>
</g>
<!-- Node39&#45;&gt;Node2 -->
<g id="edge62" class="edge"><title>Node39&#45;&gt;Node2</title>
<path fill="none" stroke="midnightblue" d="M485.181,-567.419C493.072,-564.94 500.941,-561.847 508,-558 544.772,-537.96 578.665,-501.913 596.923,-480.45"/>
<polygon fill="midnightblue" stroke="midnightblue" points="599.629,-482.669 603.337,-472.745 594.249,-478.191 599.629,-482.669"/>
</g>
<!-- Node39&#45;&gt;Node6 -->
<g id="edge63" class="edge"><title>Node39&#45;&gt;Node6</title>
<path fill="none" stroke="midnightblue" d="M497.69,-578.825C607.56,-580.477 840.129,-577.217 1029,-529 1048.87,-523.926 1069.97,-514.462 1085.92,-506.377"/>
<polygon fill="midnightblue" stroke="midnightblue" points="1087.88,-509.3 1095.13,-501.572 1084.64,-503.094 1087.88,-509.3"/>
</g>
</g>
</svg>
