<?xml version="1.0" encoding="UTF-8" standalone="no"?>
<!DOCTYPE svg PUBLIC "-//W3C//DTD SVG 1.1//EN"
 "http://www.w3.org/Graphics/SVG/1.1/DTD/svg11.dtd">
<!-- Generated by graphviz version 2.38.0 (20140413.2041)
 -->
<!-- Title: tds7_process_compute_result Pages: 1 -->
<svg width="709pt" height="648pt"
 viewBox="0.00 0.00 709.00 648.00" xmlns="http://www.w3.org/2000/svg" xmlns:xlink="http://www.w3.org/1999/xlink">
<g id="graph0" class="graph" transform="scale(1 1) rotate(0) translate(4 644)">
<title>tds7_process_compute_result</title>
<polygon fill="white" stroke="none" points="-4,4 -4,-644 705,-644 705,4 -4,4"/>
<!-- Node1 -->
<g id="node1" class="node"><title>Node1</title>
<polygon fill="#bfbfbf" stroke="black" points="0,-387 0,-417 126,-417 126,-387 0,-387"/>
<text text-anchor="start" x="8" y="-405" font-family="Helvetica,sans-Serif" font-size="10.00">tds7_process_compute</text>
<text text-anchor="middle" x="63" y="-394" font-family="Helvetica,sans-Serif" font-size="10.00">_result</text>
</g>
<!-- Node2 -->
<g id="node2" class="node"><title>Node2</title>
<g id="a_node2"><a xlink:href="a00359.html#gabfc9de1d1fe718818caf63a4be4035a6" target="_top" xlink:title="process all streams. ">
<polygon fill="white" stroke="black" points="162,-392.5 162,-411.5 274,-411.5 274,-392.5 162,-392.5"/>
<text text-anchor="middle" x="218" y="-399.5" font-family="Helvetica,sans-Serif" font-size="10.00">tds_process_tokens</text>
</a>
</g>
</g>
<!-- Node1&#45;&gt;Node2 -->
<g id="edge1" class="edge"><title>Node1&#45;&gt;Node2</title>
<path fill="none" stroke="midnightblue" d="M136.507,-402C144.982,-402 153.522,-402 161.709,-402"/>
<polygon fill="midnightblue" stroke="midnightblue" points="136.231,-398.5 126.231,-402 136.231,-405.5 136.231,-398.5"/>
</g>
<!-- Node3 -->
<g id="node3" class="node"><title>Node3</title>
<g id="a_node3"><a xlink:href="a00344.html#gae67546338cb9542a4902aa914f57f314" target="_top" xlink:title="_bcp_exec_out">
<polygon fill="white" stroke="black" points="321.5,-620.5 321.5,-639.5 409.5,-639.5 409.5,-620.5 321.5,-620.5"/>
<text text-anchor="middle" x="365.5" y="-627.5" font-family="Helvetica,sans-Serif" font-size="10.00">_bcp_exec_out</text>
</a>
</g>
</g>
<!-- Node2&#45;&gt;Node3 -->
<g id="edge2" class="edge"><title>Node2&#45;&gt;Node3</title>
<path fill="none" stroke="midnightblue" d="M222.171,-421.774C229.777,-462.852 252.855,-557.999 310,-611 314.188,-614.884 319.212,-617.98 324.494,-620.447"/>
<polygon fill="midnightblue" stroke="midnightblue" points="225.617,-421.165 220.454,-411.913 218.721,-422.365 225.617,-421.165"/>
</g>
<!-- Node5 -->
<g id="node5" class="node"><title>Node5</title>
<g id="a_node5"><a xlink:href="a00341.html#gaf1879b85e8238c015b9648d077665285" target="_top" xlink:title="_dbresults">
<polygon fill="white" stroke="black" points="333,-506.5 333,-525.5 398,-525.5 398,-506.5 333,-506.5"/>
<text text-anchor="middle" x="365.5" y="-513.5" font-family="Helvetica,sans-Serif" font-size="10.00">_dbresults</text>
</a>
</g>
</g>
<!-- Node2&#45;&gt;Node5 -->
<g id="edge4" class="edge"><title>Node2&#45;&gt;Node5</title>
<path fill="none" stroke="midnightblue" d="M231.674,-419.621C247.709,-440.747 277.217,-475.933 310,-497 316.912,-501.442 324.988,-504.988 332.773,-507.756"/>
<polygon fill="midnightblue" stroke="midnightblue" points="234.426,-417.456 225.656,-411.51 228.804,-421.627 234.426,-417.456"/>
</g>
<!-- Node8 -->
<g id="node8" class="node"><title>Node8</title>
<g id="a_node8"><a xlink:href="a00341.html#ga548153eb2eae76c48aa9d4b72258dc1c" target="_top" xlink:title="Send text or image data to the server. ">
<polygon fill="white" stroke="black" points="633,-449.5 633,-468.5 701,-468.5 701,-449.5 633,-449.5"/>
<text text-anchor="middle" x="667" y="-456.5" font-family="Helvetica,sans-Serif" font-size="10.00">dbwritetext</text>
</a>
</g>
</g>
<!-- Node2&#45;&gt;Node8 -->
<g id="edge18" class="edge"><title>Node2&#45;&gt;Node8</title>
<path fill="none" stroke="midnightblue" d="M284.343,-412.314C292.965,-413.598 301.691,-414.859 310,-416 428.419,-432.256 569.459,-448.316 632.578,-455.329"/>
<polygon fill="midnightblue" stroke="midnightblue" points="284.709,-408.83 274.299,-410.801 283.667,-415.751 284.709,-408.83"/>
</g>
<!-- Node9 -->
<g id="node9" class="node"><title>Node9</title>
<g id="a_node9"><a xlink:href="a00342.html#gaff09873008411a0573f6d1a9e6c7cf4b" target="_top" xlink:title="Get count of output parameters filled by a stored procedure. ">
<polygon fill="white" stroke="black" points="333,-190.5 333,-209.5 398,-209.5 398,-190.5 333,-190.5"/>
<text text-anchor="middle" x="365.5" y="-197.5" font-family="Helvetica,sans-Serif" font-size="10.00">dbnumrets</text>
</a>
</g>
</g>
<!-- Node2&#45;&gt;Node9 -->
<g id="edge8" class="edge"><title>Node2&#45;&gt;Node9</title>
<path fill="none" stroke="midnightblue" d="M232.031,-383.909C261.952,-342.369 334.751,-241.301 357.553,-209.645"/>
<polygon fill="midnightblue" stroke="midnightblue" points="229.022,-382.097 226.018,-392.257 234.702,-386.189 229.022,-382.097"/>
</g>
<!-- Node13 -->
<g id="node13" class="node"><title>Node13</title>
<g id="a_node13"><a xlink:href="a00341.html#gae1f50a6a2c31fda57cb481922b06841e" target="_top" xlink:title="Wait for results of a query from the server. ">
<polygon fill="white" stroke="black" points="339,-468.5 339,-487.5 392,-487.5 392,-468.5 339,-468.5"/>
<text text-anchor="middle" x="365.5" y="-475.5" font-family="Helvetica,sans-Serif" font-size="10.00">dbsqlok</text>
</a>
</g>
</g>
<!-- Node2&#45;&gt;Node13 -->
<g id="edge12" class="edge"><title>Node2&#45;&gt;Node13</title>
<path fill="none" stroke="midnightblue" d="M243.259,-416.783C261.377,-427.597 286.894,-442.35 310,-454 320.155,-459.12 331.645,-464.271 341.449,-468.481"/>
<polygon fill="midnightblue" stroke="midnightblue" points="244.884,-413.677 234.51,-411.525 241.278,-419.676 244.884,-413.677"/>
</g>
<!-- Node15 -->
<g id="node15" class="node"><title>Node15</title>
<g id="a_node15"><a xlink:href="a00341.html#ga559e24ba70d0d96c3469eb6ab8f74e05" target="_top" xlink:title="Cancel the query currently being retrieved, discarding all pending rows. ">
<polygon fill="white" stroke="black" points="330,-582.5 330,-601.5 401,-601.5 401,-582.5 330,-582.5"/>
<text text-anchor="middle" x="365.5" y="-589.5" font-family="Helvetica,sans-Serif" font-size="10.00">dbcanquery</text>
</a>
</g>
</g>
<!-- Node2&#45;&gt;Node15 -->
<g id="edge16" class="edge"><title>Node2&#45;&gt;Node15</title>
<path fill="none" stroke="midnightblue" d="M224.288,-421.726C234.748,-457.058 261.385,-531.332 310,-573 315.706,-577.891 322.747,-581.547 329.85,-584.271"/>
<polygon fill="midnightblue" stroke="midnightblue" points="227.545,-420.381 221.453,-411.713 220.809,-422.288 227.545,-420.381"/>
</g>
<!-- Node16 -->
<g id="node16" class="node"><title>Node16</title>
<g id="a_node16"><a xlink:href="a00341.html#gadd5685565c8c6c86079e17b8a73b324c" target="_top" xlink:title="Fetch part of a text or image value from the server. ">
<polygon fill="white" stroke="black" points="332,-152.5 332,-171.5 399,-171.5 399,-152.5 332,-152.5"/>
<text text-anchor="middle" x="365.5" y="-159.5" font-family="Helvetica,sans-Serif" font-size="10.00">dbreadtext</text>
</a>
</g>
</g>
<!-- Node2&#45;&gt;Node16 -->
<g id="edge19" class="edge"><title>Node2&#45;&gt;Node16</title>
<path fill="none" stroke="midnightblue" d="M221.585,-382.579C228.261,-340.02 249.965,-237.812 310,-181 316.041,-175.284 323.893,-171.277 331.748,-168.472"/>
<polygon fill="midnightblue" stroke="midnightblue" points="218.121,-382.084 220.139,-392.484 225.047,-383.095 218.121,-382.084"/>
</g>
<!-- Node17 -->
<g id="node17" class="node"><title>Node17</title>
<g id="a_node17"><a xlink:href="a00341.html#gac980139b9cea03cf93e373d425991481" target="_top" xlink:title="Transmit the command buffer to the server. ">
<polygon fill="white" stroke="black" points="333,-544.5 333,-563.5 398,-563.5 398,-544.5 333,-544.5"/>
<text text-anchor="middle" x="365.5" y="-551.5" font-family="Helvetica,sans-Serif" font-size="10.00">dbsqlsend</text>
</a>
</g>
</g>
<!-- Node2&#45;&gt;Node17 -->
<g id="edge20" class="edge"><title>Node2&#45;&gt;Node17</title>
<path fill="none" stroke="midnightblue" d="M227.151,-420.885C240.442,-449.545 269.431,-503.96 310,-535 316.685,-540.115 324.851,-543.918 332.806,-546.721"/>
<polygon fill="midnightblue" stroke="midnightblue" points="230.263,-419.271 222.972,-411.583 223.877,-422.139 230.263,-419.271"/>
</g>
<!-- Node18 -->
<g id="node18" class="node"><title>Node18</title>
<g id="a_node18"><a xlink:href="a00356.html#gaf0da49585d39e99780a004ee2ca23479" target="_top" xlink:title="Send option commands to server. ">
<polygon fill="white" stroke="black" points="466.5,-392.5 466.5,-411.5 587.5,-411.5 587.5,-392.5 466.5,-392.5"/>
<text text-anchor="middle" x="527" y="-399.5" font-family="Helvetica,sans-Serif" font-size="10.00">tds_submit_optioncmd</text>
</a>
</g>
</g>
<!-- Node2&#45;&gt;Node18 -->
<g id="edge22" class="edge"><title>Node2&#45;&gt;Node18</title>
<path fill="none" stroke="midnightblue" d="M284.384,-402C338.327,-402 414.224,-402 466.487,-402"/>
<polygon fill="midnightblue" stroke="midnightblue" points="284.24,-398.5 274.24,-402 284.24,-405.5 284.24,-398.5"/>
</g>
<!-- Node19 -->
<g id="node19" class="node"><title>Node19</title>
<g id="a_node19"><a xlink:href="a00193.html#ac6610c72bd31bad5378f760fa9b12d66" target="_top" xlink:title="Initialize BCP information. ">
<polygon fill="white" stroke="black" points="329,-109.5 329,-128.5 402,-128.5 402,-109.5 329,-109.5"/>
<text text-anchor="middle" x="365.5" y="-116.5" font-family="Helvetica,sans-Serif" font-size="10.00">tds_bcp_init</text>
</a>
</g>
</g>
<!-- Node2&#45;&gt;Node19 -->
<g id="edge23" class="edge"><title>Node2&#45;&gt;Node19</title>
<path fill="none" stroke="midnightblue" d="M220.65,-382.268C225.603,-334.992 244.34,-213.916 310,-143 315.76,-136.779 323.421,-132.081 331.175,-128.569"/>
<polygon fill="midnightblue" stroke="midnightblue" points="217.15,-382.101 219.688,-392.388 224.119,-382.764 217.15,-382.101"/>
</g>
<!-- Node21 -->
<g id="node21" class="node"><title>Node21</title>
<g id="a_node21"><a xlink:href="a00359.html#ga55f27c3e05d42c9b07ace1c74b11c5ab" target="_top" xlink:title="Retrieve and set @spid. ">
<polygon fill="white" stroke="black" points="327,-62.5 327,-81.5 404,-81.5 404,-62.5 327,-62.5"/>
<text text-anchor="middle" x="365.5" y="-69.5" font-family="Helvetica,sans-Serif" font-size="10.00">tds_set_spid</text>
</a>
</g>
</g>
<!-- Node2&#45;&gt;Node21 -->
<g id="edge25" class="edge"><title>Node2&#45;&gt;Node21</title>
<path fill="none" stroke="midnightblue" d="M219.779,-382.156C222.82,-329.953 237.674,-186.844 310,-100 316.739,-91.9077 326.417,-85.8869 335.752,-81.5456"/>
<polygon fill="midnightblue" stroke="midnightblue" points="216.272,-382.216 219.272,-392.377 223.264,-382.563 216.272,-382.216"/>
</g>
<!-- Node23 -->
<g id="node23" class="node"><title>Node23</title>
<g id="a_node23"><a xlink:href="a00359.html#gaeeb1562044786ea17bea361ed83e6946" target="_top" xlink:title="Process results for simple query as &quot;SET TEXTSIZE&quot; or &quot;USE dbname&quot; If the statement returns results...">
<polygon fill="white" stroke="black" points="310.5,-327 310.5,-357 420.5,-357 420.5,-327 310.5,-327"/>
<text text-anchor="start" x="318.5" y="-345" font-family="Helvetica,sans-Serif" font-size="10.00">tds_process_simple</text>
<text text-anchor="middle" x="365.5" y="-334" font-family="Helvetica,sans-Serif" font-size="10.00">_query</text>
</a>
</g>
</g>
<!-- Node2&#45;&gt;Node23 -->
<g id="edge27" class="edge"><title>Node2&#45;&gt;Node23</title>
<path fill="none" stroke="midnightblue" d="M251.57,-388.569C274.229,-379.225 304.465,-366.757 327.949,-357.073"/>
<polygon fill="midnightblue" stroke="midnightblue" points="249.965,-385.445 242.055,-392.493 252.634,-391.916 249.965,-385.445"/>
</g>
<!-- Node28 -->
<g id="node28" class="node"><title>Node28</title>
<g id="a_node28"><a xlink:href="a00359.html#gaf233e79967f82f4e0dd4d11524917a34" target="_top" xlink:title="tds_process_cancel">
<polygon fill="white" stroke="black" points="310,-5.5 310,-24.5 421,-24.5 421,-5.5 310,-5.5"/>
<text text-anchor="middle" x="365.5" y="-12.5" font-family="Helvetica,sans-Serif" font-size="10.00">tds_process_cancel</text>
</a>
</g>
</g>
<!-- Node2&#45;&gt;Node28 -->
<g id="edge34" class="edge"><title>Node2&#45;&gt;Node28</title>
<path fill="none" stroke="midnightblue" d="M219.492,-382.343C221.807,-325.93 234.991,-160.667 310,-53 318.572,-40.6964 332.492,-31.0894 344.118,-24.6131"/>
<polygon fill="midnightblue" stroke="midnightblue" points="215.992,-382.286 219.152,-392.399 222.988,-382.523 215.992,-382.286"/>
</g>
<!-- Node4 -->
<g id="node4" class="node"><title>Node4</title>
<g id="a_node4"><a xlink:href="a00343.html#ga7a184158b27a50f713e9cfae3b746209" target="_top" xlink:title="Write a datafile to a table. ">
<polygon fill="white" stroke="black" points="496,-620.5 496,-639.5 558,-639.5 558,-620.5 496,-620.5"/>
<text text-anchor="middle" x="527" y="-627.5" font-family="Helvetica,sans-Serif" font-size="10.00">bcp_exec</text>
</a>
</g>
</g>
<!-- Node3&#45;&gt;Node4 -->
<g id="edge3" class="edge"><title>Node3&#45;&gt;Node4</title>
<path fill="none" stroke="midnightblue" d="M419.874,-630C445.205,-630 474.536,-630 495.935,-630"/>
<polygon fill="midnightblue" stroke="midnightblue" points="419.663,-626.5 409.663,-630 419.663,-633.5 419.663,-626.5"/>
</g>
<!-- Node6 -->
<g id="node6" class="node"><title>Node6</title>
<g id="a_node6"><a xlink:href="a00341.html#ga4e26d949be2c3bf71b1a33c75b11d931" target="_top" xlink:title="Set up query results. ">
<polygon fill="white" stroke="black" points="497.5,-506.5 497.5,-525.5 556.5,-525.5 556.5,-506.5 497.5,-506.5"/>
<text text-anchor="middle" x="527" y="-513.5" font-family="Helvetica,sans-Serif" font-size="10.00">dbresults</text>
</a>
</g>
</g>
<!-- Node5&#45;&gt;Node6 -->
<g id="edge5" class="edge"><title>Node5&#45;&gt;Node6</title>
<path fill="none" stroke="midnightblue" d="M408.337,-516C436.428,-516 472.698,-516 497.498,-516"/>
<polygon fill="midnightblue" stroke="midnightblue" points="408.012,-512.5 398.012,-516 408.012,-519.5 408.012,-512.5"/>
</g>
<!-- Node7 -->
<g id="node7" class="node"><title>Node7</title>
<g id="a_node7"><a xlink:href="a00341.html#ga66ea891910f0a357cc78107d6ab7d962" target="_top" xlink:title="Change current database. ">
<polygon fill="white" stroke="black" points="645,-544.5 645,-563.5 689,-563.5 689,-544.5 645,-544.5"/>
<text text-anchor="middle" x="667" y="-551.5" font-family="Helvetica,sans-Serif" font-size="10.00">dbuse</text>
</a>
</g>
</g>
<!-- Node6&#45;&gt;Node7 -->
<g id="edge6" class="edge"><title>Node6&#45;&gt;Node7</title>
<path fill="none" stroke="midnightblue" d="M566.26,-526.535C591.562,-533.503 623.795,-542.378 644.66,-548.124"/>
<polygon fill="midnightblue" stroke="midnightblue" points="567.164,-523.154 556.594,-523.874 565.306,-529.903 567.164,-523.154"/>
</g>
<!-- Node6&#45;&gt;Node8 -->
<g id="edge7" class="edge"><title>Node6&#45;&gt;Node8</title>
<path fill="none" stroke="midnightblue" d="M566.517,-503.453C576.525,-499.961 587.236,-496.018 597,-492 614.437,-484.824 633.759,-475.455 647.511,-468.535"/>
<polygon fill="midnightblue" stroke="midnightblue" points="565.129,-500.228 556.803,-506.78 567.397,-506.851 565.129,-500.228"/>
</g>
<!-- Node10 -->
<g id="node10" class="node"><title>Node10</title>
<g id="a_node10"><a xlink:href="a00342.html#ga0311328d63bae5d9bd5aea5ea4914223" target="_top" xlink:title="Get name of an output parameter filled by a stored procedure. ">
<polygon fill="white" stroke="black" points="493.5,-190.5 493.5,-209.5 560.5,-209.5 560.5,-190.5 493.5,-190.5"/>
<text text-anchor="middle" x="527" y="-197.5" font-family="Helvetica,sans-Serif" font-size="10.00">dbretname</text>
</a>
</g>
</g>
<!-- Node9&#45;&gt;Node10 -->
<g id="edge9" class="edge"><title>Node9&#45;&gt;Node10</title>
<path fill="none" stroke="midnightblue" d="M408.184,-200C434.808,-200 468.827,-200 493.458,-200"/>
<polygon fill="midnightblue" stroke="midnightblue" points="408.012,-196.5 398.012,-200 408.012,-203.5 408.012,-196.5"/>
</g>
<!-- Node11 -->
<g id="node11" class="node"><title>Node11</title>
<g id="a_node11"><a xlink:href="a00342.html#ga42e187003b74fec6e9ca92d410bfb9c0" target="_top" xlink:title="Get value of an output parameter filled by a stored procedure. ">
<polygon fill="white" stroke="black" points="496,-152.5 496,-171.5 558,-171.5 558,-152.5 496,-152.5"/>
<text text-anchor="middle" x="527" y="-159.5" font-family="Helvetica,sans-Serif" font-size="10.00">dbretdata</text>
</a>
</g>
</g>
<!-- Node9&#45;&gt;Node11 -->
<g id="edge10" class="edge"><title>Node9&#45;&gt;Node11</title>
<path fill="none" stroke="midnightblue" d="M407.771,-190.167C435.346,-183.598 470.993,-175.105 495.904,-169.17"/>
<polygon fill="midnightblue" stroke="midnightblue" points="406.929,-186.77 398.012,-192.492 408.551,-193.579 406.929,-186.77"/>
</g>
<!-- Node12 -->
<g id="node12" class="node"><title>Node12</title>
<g id="a_node12"><a xlink:href="a00342.html#gab705bf94be535e9d8fc4edc0f48c98b0" target="_top" xlink:title="Get size of an output parameter filled by a stored procedure. ">
<polygon fill="white" stroke="black" points="499.5,-114.5 499.5,-133.5 554.5,-133.5 554.5,-114.5 499.5,-114.5"/>
<text text-anchor="middle" x="527" y="-121.5" font-family="Helvetica,sans-Serif" font-size="10.00">dbretlen</text>
</a>
</g>
</g>
<!-- Node9&#45;&gt;Node12 -->
<g id="edge11" class="edge"><title>Node9&#45;&gt;Node12</title>
<path fill="none" stroke="midnightblue" d="M407.776,-188.012C412.393,-185.977 416.903,-183.649 421,-181 440.537,-168.369 437.053,-154.972 457,-143 469.891,-135.263 486.011,-130.595 499.427,-127.824"/>
<polygon fill="midnightblue" stroke="midnightblue" points="406.255,-184.849 398.244,-191.782 408.83,-191.358 406.255,-184.849"/>
</g>
<!-- Node13&#45;&gt;Node8 -->
<g id="edge15" class="edge"><title>Node13&#45;&gt;Node8</title>
<path fill="none" stroke="midnightblue" d="M402.275,-475.73C460.803,-472.018 576.171,-464.699 632.907,-461.099"/>
<polygon fill="midnightblue" stroke="midnightblue" points="401.794,-472.254 392.035,-476.38 402.237,-479.24 401.794,-472.254"/>
</g>
<!-- Node14 -->
<g id="node14" class="node"><title>Node14</title>
<g id="a_node14"><a xlink:href="a00341.html#gaae889abeb145ec41f7361aa8f597fe46" target="_top" xlink:title="send the SQL command to the server and wait for an answer. ">
<polygon fill="white" stroke="black" points="495,-544.5 495,-563.5 559,-563.5 559,-544.5 495,-544.5"/>
<text text-anchor="middle" x="527" y="-551.5" font-family="Helvetica,sans-Serif" font-size="10.00">dbsqlexec</text>
</a>
</g>
</g>
<!-- Node13&#45;&gt;Node14 -->
<g id="edge13" class="edge"><title>Node13&#45;&gt;Node14</title>
<path fill="none" stroke="midnightblue" d="M401.711,-487.498C408.39,-490.057 415.12,-493.199 421,-497 440.537,-509.631 437.053,-523.028 457,-535 468.399,-541.842 482.324,-546.283 494.671,-549.136"/>
<polygon fill="midnightblue" stroke="midnightblue" points="402.663,-484.124 392.069,-484.157 400.372,-490.738 402.663,-484.124"/>
</g>
<!-- Node14&#45;&gt;Node7 -->
<g id="edge14" class="edge"><title>Node14&#45;&gt;Node7</title>
<path fill="none" stroke="midnightblue" d="M569.535,-554C594.297,-554 624.699,-554 644.674,-554"/>
<polygon fill="midnightblue" stroke="midnightblue" points="569.314,-550.5 559.314,-554 569.314,-557.5 569.314,-550.5"/>
</g>
<!-- Node15&#45;&gt;Node7 -->
<g id="edge17" class="edge"><title>Node15&#45;&gt;Node7</title>
<path fill="none" stroke="midnightblue" d="M411.206,-590.781C457.878,-588.935 533.044,-584.339 597,-573 613.272,-570.115 631.26,-565.099 644.789,-560.946"/>
<polygon fill="midnightblue" stroke="midnightblue" points="410.986,-587.287 401.123,-591.155 411.246,-594.282 410.986,-587.287"/>
</g>
<!-- Node17&#45;&gt;Node14 -->
<g id="edge21" class="edge"><title>Node17&#45;&gt;Node14</title>
<path fill="none" stroke="midnightblue" d="M408.359,-554C435.453,-554 470.15,-554 494.825,-554"/>
<polygon fill="midnightblue" stroke="midnightblue" points="408.012,-550.5 398.012,-554 408.012,-557.5 408.012,-550.5"/>
</g>
<!-- Node20 -->
<g id="node20" class="node"><title>Node20</title>
<g id="a_node20"><a xlink:href="a00343.html#gada8e987c4a6225b9276c05ba3a4f47a0" target="_top" xlink:title="Prepare for bulk copy operation on a table. ">
<polygon fill="white" stroke="black" points="500.5,-76.5 500.5,-95.5 553.5,-95.5 553.5,-76.5 500.5,-76.5"/>
<text text-anchor="middle" x="527" y="-83.5" font-family="Helvetica,sans-Serif" font-size="10.00">bcp_init</text>
</a>
</g>
</g>
<!-- Node19&#45;&gt;Node20 -->
<g id="edge24" class="edge"><title>Node19&#45;&gt;Node20</title>
<path fill="none" stroke="midnightblue" d="M412.45,-109.493C440.98,-103.59 476.592,-96.2223 500.249,-91.3278"/>
<polygon fill="midnightblue" stroke="midnightblue" points="411.378,-106.141 402.295,-111.594 412.797,-112.995 411.378,-106.141"/>
</g>
<!-- Node22 -->
<g id="node22" class="node"><title>Node22</title>
<g id="a_node22"><a xlink:href="a00359.html#ga93945b42d45ee28ae1296b35a1c1e9bb" target="_top" xlink:title="tds_process_login_tokens() is called after sending the login packet to the server. ">
<polygon fill="white" stroke="black" points="457,-38.5 457,-57.5 597,-57.5 597,-38.5 457,-38.5"/>
<text text-anchor="middle" x="527" y="-45.5" font-family="Helvetica,sans-Serif" font-size="10.00">tds_process_login_tokens</text>
</a>
</g>
</g>
<!-- Node21&#45;&gt;Node22 -->
<g id="edge26" class="edge"><title>Node21&#45;&gt;Node22</title>
<path fill="none" stroke="midnightblue" d="M414.452,-64.7846C429.589,-62.507 446.553,-59.9545 462.594,-57.5407"/>
<polygon fill="midnightblue" stroke="midnightblue" points="413.667,-61.3633 404.299,-66.3123 414.709,-68.2853 413.667,-61.3633"/>
</g>
<!-- Node23&#45;&gt;Node18 -->
<g id="edge28" class="edge"><title>Node23&#45;&gt;Node18</title>
<path fill="none" stroke="midnightblue" d="M405.961,-361.501C421.623,-368.81 439.94,-376.83 457,-383 466.581,-386.465 477.104,-389.66 486.982,-392.402"/>
<polygon fill="midnightblue" stroke="midnightblue" points="407.124,-358.179 396.588,-357.065 404.129,-364.506 407.124,-358.179"/>
</g>
<!-- Node24 -->
<g id="node24" class="node"><title>Node24</title>
<g id="a_node24"><a xlink:href="a00193.html#ade7df2db455b61edc83819ad60edb339" target="_top" xlink:title="Tell we finished sending BCP data to server. ">
<polygon fill="white" stroke="red" points="485.5,-316.5 485.5,-335.5 568.5,-335.5 568.5,-316.5 485.5,-316.5"/>
<text text-anchor="middle" x="527" y="-323.5" font-family="Helvetica,sans-Serif" font-size="10.00">tds_bcp_done</text>
</a>
</g>
</g>
<!-- Node23&#45;&gt;Node24 -->
<g id="edge29" class="edge"><title>Node23&#45;&gt;Node24</title>
<path fill="none" stroke="midnightblue" d="M431.011,-335.529C449.385,-333.686 468.879,-331.73 485.395,-330.073"/>
<polygon fill="midnightblue" stroke="midnightblue" points="430.545,-332.058 420.945,-336.538 431.244,-339.023 430.545,-332.058"/>
</g>
<!-- Node25 -->
<g id="node25" class="node"><title>Node25</title>
<g id="a_node25"><a xlink:href="a00193.html#a8208eef2a3974ae1f0cf3c8c8ab011ce" target="_top" xlink:title="Start sending BCP data to server. ">
<polygon fill="white" stroke="red" points="487,-278.5 487,-297.5 567,-297.5 567,-278.5 487,-278.5"/>
<text text-anchor="middle" x="527" y="-285.5" font-family="Helvetica,sans-Serif" font-size="10.00">tds_bcp_start</text>
</a>
</g>
</g>
<!-- Node23&#45;&gt;Node25 -->
<g id="edge30" class="edge"><title>Node23&#45;&gt;Node25</title>
<path fill="none" stroke="midnightblue" d="M412.682,-323.113C426.8,-317.617 442.443,-311.806 457,-307 467.147,-303.65 478.263,-300.407 488.553,-297.576"/>
<polygon fill="midnightblue" stroke="midnightblue" points="411.208,-319.931 403.184,-326.85 413.771,-326.445 411.208,-319.931"/>
</g>
<!-- Node26 -->
<g id="node26" class="node"><title>Node26</title>
<g id="a_node26"><a xlink:href="a00193.html#a7711612cc544a7da2c7aa212b870acb2" target="_top" xlink:title="Start writing writetext request. ">
<polygon fill="white" stroke="black" points="475,-354.5 475,-373.5 579,-373.5 579,-354.5 475,-354.5"/>
<text text-anchor="middle" x="527" y="-361.5" font-family="Helvetica,sans-Serif" font-size="10.00">tds_writetext_start</text>
</a>
</g>
</g>
<!-- Node23&#45;&gt;Node26 -->
<g id="edge31" class="edge"><title>Node23&#45;&gt;Node26</title>
<path fill="none" stroke="midnightblue" d="M430.906,-350.884C445.496,-352.896 460.798,-355.007 474.757,-356.932"/>
<polygon fill="midnightblue" stroke="midnightblue" points="431.329,-347.409 420.945,-349.51 430.373,-354.343 431.329,-347.409"/>
</g>
<!-- Node27 -->
<g id="node27" class="node"><title>Node27</title>
<g id="a_node27"><a xlink:href="a00359.html#ga69902dffb299d62a799888e0fa3ccd68" target="_top" xlink:title="Attempt to close all deferred closes (dynamics and cursors). ">
<polygon fill="white" stroke="red" points="467.5,-229 467.5,-259 586.5,-259 586.5,-229 467.5,-229"/>
<text text-anchor="start" x="475.5" y="-247" font-family="Helvetica,sans-Serif" font-size="10.00">tds_process_pending</text>
<text text-anchor="middle" x="527" y="-236" font-family="Helvetica,sans-Serif" font-size="10.00">_closes</text>
</a>
</g>
</g>
<!-- Node23&#45;&gt;Node27 -->
<g id="edge33" class="edge"><title>Node23&#45;&gt;Node27</title>
<path fill="none" stroke="midnightblue" d="M389.419,-319.91C406.837,-304.059 431.99,-283.095 457,-269 463.549,-265.309 470.744,-261.992 477.94,-259.072"/>
<polygon fill="midnightblue" stroke="midnightblue" points="386.949,-317.427 381.989,-326.79 391.705,-322.564 386.949,-317.427"/>
</g>
<!-- Node26&#45;&gt;Node8 -->
<g id="edge32" class="edge"><title>Node26&#45;&gt;Node8</title>
<path fill="none" stroke="midnightblue" d="M586.162,-377.36C589.934,-379.028 593.585,-380.901 597,-383 625.542,-400.545 649.375,-433.308 660.023,-449.476"/>
<polygon fill="midnightblue" stroke="midnightblue" points="587.187,-374.003 576.6,-373.617 584.636,-380.521 587.187,-374.003"/>
</g>
<!-- Node29 -->
<g id="node29" class="node"><title>Node29</title>
<g id="a_node29"><a xlink:href="a00341.html#ga5ea23272124fff03b8d87538c1ec3ee5" target="_top" xlink:title="Cancel the current command batch. ">
<polygon fill="white" stroke="black" points="497.5,-0.5 497.5,-19.5 556.5,-19.5 556.5,-0.5 497.5,-0.5"/>
<text text-anchor="middle" x="527" y="-7.5" font-family="Helvetica,sans-Serif" font-size="10.00">dbcancel</text>
</a>
</g>
</g>
<!-- Node28&#45;&gt;Node29 -->
<g id="edge35" class="edge"><title>Node28&#45;&gt;Node29</title>
<path fill="none" stroke="midnightblue" d="M431.451,-12.9639C454.421,-12.2438 479.089,-11.4706 497.467,-10.8944"/>
<polygon fill="midnightblue" stroke="midnightblue" points="431.276,-9.46758 421.391,-13.2793 431.496,-16.4641 431.276,-9.46758"/>
</g>
</g>
</svg>
