<?xml version="1.0" encoding="UTF-8" standalone="no"?>
<!DOCTYPE svg PUBLIC "-//W3C//DTD SVG 1.1//EN"
 "http://www.w3.org/Graphics/SVG/1.1/DTD/svg11.dtd">
<!-- Generated by graphviz version 2.38.0 (20140413.2041)
 -->
<!-- Title: tds_submit_execdirect Pages: 1 -->
<svg width="1591pt" height="881pt"
 viewBox="0.00 0.00 1591.00 881.25" xmlns="http://www.w3.org/2000/svg" xmlns:xlink="http://www.w3.org/1999/xlink">
<g id="graph0" class="graph" transform="scale(1 1) rotate(0) translate(4 877.25)">
<title>tds_submit_execdirect</title>
<polygon fill="white" stroke="none" points="-4,4 -4,-877.25 1587,-877.25 1587,4 -4,4"/>
<!-- Node1 -->
<g id="node1" class="node"><title>Node1</title>
<polygon fill="#bfbfbf" stroke="black" points="0,-348.5 0,-367.5 121,-367.5 121,-348.5 0,-348.5"/>
<text text-anchor="middle" x="60.5" y="-355.5" font-family="Helvetica,sans-Serif" font-size="10.00">tds_submit_execdirect</text>
</g>
<!-- Node2 -->
<g id="node2" class="node"><title>Node2</title>
<g id="a_node2"><a xlink:href="a00193.html#a16db200d2281f76fe46fc1cbe37ca9df" target="_top" xlink:title="Set state of TDS connection, with logging and checking. ">
<polygon fill="white" stroke="black" points="714,-734.5 714,-753.5 794,-753.5 794,-734.5 714,-734.5"/>
<text text-anchor="middle" x="754" y="-741.5" font-family="Helvetica,sans-Serif" font-size="10.00">tds_set_state</text>
</a>
</g>
</g>
<!-- Node1&#45;&gt;Node2 -->
<g id="edge1" class="edge"><title>Node1&#45;&gt;Node2</title>
<path fill="none" stroke="midnightblue" d="M62.3623,-367.707C67.4888,-423.067 95.8329,-698.287 157,-751 242.707,-824.861 553.699,-776.773 666,-763 679.198,-761.381 693.348,-758.706 706.32,-755.866"/>
<polygon fill="midnightblue" stroke="midnightblue" points="707.454,-759.198 716.431,-753.57 705.904,-752.371 707.454,-759.198"/>
</g>
<!-- Node6 -->
<g id="node6" class="node"><title>Node6</title>
<g id="a_node6"><a xlink:href="a00357.html#ga5feb53554e8917a81bbbc332163a61fb" target="_top" xlink:title="Flush packet to server. ">
<polygon fill="white" stroke="black" points="1365.5,-810.5 1365.5,-829.5 1461.5,-829.5 1461.5,-810.5 1365.5,-810.5"/>
<text text-anchor="middle" x="1413.5" y="-817.5" font-family="Helvetica,sans-Serif" font-size="10.00">tds_flush_packet</text>
</a>
</g>
</g>
<!-- Node1&#45;&gt;Node6 -->
<g id="edge68" class="edge"><title>Node1&#45;&gt;Node6</title>
<path fill="none" stroke="midnightblue" d="M61.9632,-367.5C65.1325,-428.316 85.6687,-762.57 157,-828 243.209,-907.078 301.515,-858 418.5,-858 418.5,-858 418.5,-858 1077.5,-858 1175.63,-858 1288.9,-841.704 1355.4,-830.455"/>
<polygon fill="midnightblue" stroke="midnightblue" points="1355.99,-833.904 1365.26,-828.766 1354.81,-827.004 1355.99,-833.904"/>
</g>
<!-- Node7 -->
<g id="node7" class="node"><title>Node7</title>
<g id="a_node7"><a xlink:href="a00356.html#ga024bc5482366735070befd6f4af59f71" target="_top" xlink:title="Convert a string in an allocated buffer. ">
<polygon fill="white" stroke="black" points="702,-582.5 702,-601.5 806,-601.5 806,-582.5 702,-582.5"/>
<text text-anchor="middle" x="754" y="-589.5" font-family="Helvetica,sans-Serif" font-size="10.00">tds_convert_string</text>
</a>
</g>
</g>
<!-- Node1&#45;&gt;Node7 -->
<g id="edge8" class="edge"><title>Node1&#45;&gt;Node7</title>
<path fill="none" stroke="midnightblue" d="M62.9784,-367.765C68.7085,-402.544 92.4331,-522.021 157,-592 220.483,-660.805 253.933,-665.298 345,-687 483.78,-720.073 535.424,-744.478 666,-687 701.462,-671.39 728.772,-633.398 742.722,-610.468"/>
<polygon fill="midnightblue" stroke="midnightblue" points="745.839,-612.071 747.867,-601.672 739.797,-608.537 745.839,-612.071"/>
</g>
<!-- Node11 -->
<g id="node11" class="node"><title>Node11</title>
<g id="a_node11"><a xlink:href="a00356.html#gab775332d378c7fe083750d624441b303" target="_top" xlink:title="Return string with parameters definition, useful for TDS7+. ">
<polygon fill="white" stroke="black" points="172.5,-310 172.5,-340 293.5,-340 293.5,-310 172.5,-310"/>
<text text-anchor="start" x="180.5" y="-328" font-family="Helvetica,sans-Serif" font-size="10.00">tds7_build_param_def</text>
<text text-anchor="middle" x="233" y="-317" font-family="Helvetica,sans-Serif" font-size="10.00">_from_query</text>
</a>
</g>
</g>
<!-- Node1&#45;&gt;Node11 -->
<g id="edge15" class="edge"><title>Node1&#45;&gt;Node11</title>
<path fill="none" stroke="midnightblue" d="M110.816,-348.455C126.847,-345.352 144.955,-341.848 162.19,-338.512"/>
<polygon fill="midnightblue" stroke="midnightblue" points="163.063,-341.908 172.216,-336.571 161.733,-335.035 163.063,-341.908"/>
</g>
<!-- Node18 -->
<g id="node18" class="node"><title>Node18</title>
<g id="a_node18"><a xlink:href="a00356.html#ga9ad2e6defce530a8778791cce0166ccd" target="_top" xlink:title="Start query packet of a given type. ">
<polygon fill="white" stroke="black" points="538,-734.5 538,-753.5 658,-753.5 658,-734.5 538,-734.5"/>
<text text-anchor="middle" x="598" y="-741.5" font-family="Helvetica,sans-Serif" font-size="10.00">tds_start_query_head</text>
</a>
</g>
</g>
<!-- Node1&#45;&gt;Node18 -->
<g id="edge23" class="edge"><title>Node1&#45;&gt;Node18</title>
<path fill="none" stroke="midnightblue" d="M62.5375,-367.662C68.4119,-420.417 99.3039,-672.992 157,-720 211.942,-764.764 417.82,-757.305 527.385,-749.767"/>
<polygon fill="midnightblue" stroke="midnightblue" points="527.951,-753.236 537.679,-749.039 527.457,-746.253 527.951,-753.236"/>
</g>
<!-- Node19 -->
<g id="node19" class="node"><title>Node19</title>
<g id="a_node19"><a xlink:href="a00356.html#ga6e42b4a1d1d3898229ea2fe4afc2ecec" target="_top" xlink:title="Output params types and query (required by sp_prepare/sp_executesql/sp_prepexec) ">
<polygon fill="white" stroke="black" points="167.5,-381.5 167.5,-400.5 298.5,-400.5 298.5,-381.5 167.5,-381.5"/>
<text text-anchor="middle" x="233" y="-388.5" font-family="Helvetica,sans-Serif" font-size="10.00">tds7_put_query_params</text>
</a>
</g>
</g>
<!-- Node1&#45;&gt;Node19 -->
<g id="edge26" class="edge"><title>Node1&#45;&gt;Node19</title>
<path fill="none" stroke="midnightblue" d="M110.816,-367.545C130.167,-371.29 152.542,-375.621 172.758,-379.534"/>
<polygon fill="midnightblue" stroke="midnightblue" points="172.312,-383.012 182.795,-381.476 173.642,-376.14 172.312,-383.012"/>
</g>
<!-- Node24 -->
<g id="node24" class="node"><title>Node24</title>
<g id="a_node24"><a xlink:href="a00356.html#ga0f0b6bf447e9672e3b1ea8453ddeb113" target="_top" xlink:title="Send parameter definition to server. ">
<polygon fill="white" stroke="black" points="159.5,-114.5 159.5,-133.5 306.5,-133.5 306.5,-114.5 159.5,-114.5"/>
<text text-anchor="middle" x="233" y="-121.5" font-family="Helvetica,sans-Serif" font-size="10.00">tds7_put_params_definition</text>
</a>
</g>
</g>
<!-- Node1&#45;&gt;Node24 -->
<g id="edge36" class="edge"><title>Node1&#45;&gt;Node24</title>
<path fill="none" stroke="midnightblue" d="M63.0311,-348.432C68.81,-315.467 92.3528,-205.488 157,-148 161.693,-143.827 167.117,-140.378 172.858,-137.529"/>
<polygon fill="midnightblue" stroke="midnightblue" points="174.301,-140.718 182.082,-133.527 171.515,-134.297 174.301,-140.718"/>
</g>
<!-- Node25 -->
<g id="node25" class="node"><title>Node25</title>
<g id="a_node25"><a xlink:href="a00356.html#gafd74652c4722ddce4d642cc4209449d4" target="_top" xlink:title="Put data information to wire. ">
<polygon fill="white" stroke="black" points="547.5,-228.5 547.5,-247.5 648.5,-247.5 648.5,-228.5 547.5,-228.5"/>
<text text-anchor="middle" x="598" y="-235.5" font-family="Helvetica,sans-Serif" font-size="10.00">tds_put_data_info</text>
</a>
</g>
</g>
<!-- Node1&#45;&gt;Node25 -->
<g id="edge37" class="edge"><title>Node1&#45;&gt;Node25</title>
<path fill="none" stroke="midnightblue" d="M74.3809,-348.307C92.088,-335.434 125.363,-312.832 157,-300 285.459,-247.897 450.372,-238.392 537.269,-237.354"/>
<polygon fill="midnightblue" stroke="midnightblue" points="537.502,-240.852 547.471,-237.267 537.442,-233.853 537.502,-240.852"/>
</g>
<!-- Node26 -->
<g id="node26" class="node"><title>Node26</title>
<g id="a_node26"><a xlink:href="a00356.html#ga9fcc0a3932dcad530511395ef8a767fb" target="_top" xlink:title="Write data to wire. ">
<polygon fill="white" stroke="black" points="380.5,-114.5 380.5,-133.5 458.5,-133.5 458.5,-114.5 380.5,-114.5"/>
<text text-anchor="middle" x="419.5" y="-121.5" font-family="Helvetica,sans-Serif" font-size="10.00">tds_put_data</text>
</a>
</g>
</g>
<!-- Node1&#45;&gt;Node26 -->
<g id="edge40" class="edge"><title>Node1&#45;&gt;Node26</title>
<path fill="none" stroke="midnightblue" d="M63.6489,-348.482C70.9273,-318.56 97.583,-225.731 157,-181 173.939,-168.248 299.655,-144.704 370.426,-132.24"/>
<polygon fill="midnightblue" stroke="midnightblue" points="371.203,-135.657 380.449,-130.484 369.995,-128.762 371.203,-135.657"/>
</g>
<!-- Node27 -->
<g id="node27" class="node"><title>Node27</title>
<g id="a_node27"><a xlink:href="a00356.html#gada27f4cfce925240ad33b71b63ca692d" target="_top" xlink:title="Flush query packet. ">
<polygon fill="white" stroke="black" points="534,-810.5 534,-829.5 662,-829.5 662,-810.5 534,-810.5"/>
<text text-anchor="middle" x="598" y="-817.5" font-family="Helvetica,sans-Serif" font-size="10.00">tds_query_flush_packet</text>
</a>
</g>
</g>
<!-- Node1&#45;&gt;Node27 -->
<g id="edge41" class="edge"><title>Node1&#45;&gt;Node27</title>
<path fill="none" stroke="midnightblue" d="M62.0719,-367.663C65.7755,-426.646 88.4072,-737.6 157,-796 210.38,-841.447 412.852,-834.122 523.577,-826.292"/>
<polygon fill="midnightblue" stroke="midnightblue" points="523.951,-829.775 533.671,-825.559 523.444,-822.793 523.951,-829.775"/>
</g>
<!-- Node28 -->
<g id="node28" class="node"><title>Node28</title>
<g id="a_node28"><a xlink:href="a00355.html#ga69559de43b47f4a9e2eecc7a56527444" target="_top" xlink:title="Allocate a dynamic statement. ">
<polygon fill="white" stroke="black" points="181,-76.5 181,-95.5 285,-95.5 285,-76.5 181,-76.5"/>
<text text-anchor="middle" x="233" y="-83.5" font-family="Helvetica,sans-Serif" font-size="10.00">tds_alloc_dynamic</text>
</a>
</g>
</g>
<!-- Node1&#45;&gt;Node28 -->
<g id="edge44" class="edge"><title>Node1&#45;&gt;Node28</title>
<path fill="none" stroke="midnightblue" d="M62.0642,-348.479C64.8043,-311.197 79.9635,-173.801 157,-105 161.195,-101.253 166.025,-98.2239 171.169,-95.7775"/>
<polygon fill="midnightblue" stroke="midnightblue" points="172.708,-98.9317 180.699,-91.9745 170.114,-92.4302 172.708,-98.9317"/>
</g>
<!-- Node31 -->
<g id="node31" class="node"><title>Node31</title>
<g id="a_node31"><a xlink:href="a00356.html#ga02c6ce3ff96369603a6ee4efee64caae" target="_top" xlink:title="Emulate prepared execute traslating to a normal language. ">
<polygon fill="white" stroke="black" points="157,-563.5 157,-582.5 309,-582.5 309,-563.5 157,-563.5"/>
<text text-anchor="middle" x="233" y="-570.5" font-family="Helvetica,sans-Serif" font-size="10.00">tds_send_emulated_execute</text>
</a>
</g>
</g>
<!-- Node1&#45;&gt;Node31 -->
<g id="edge47" class="edge"><title>Node1&#45;&gt;Node31</title>
<path fill="none" stroke="midnightblue" d="M69.0462,-367.516C95.334,-400.665 183.162,-511.415 217.79,-555.081"/>
<polygon fill="midnightblue" stroke="midnightblue" points="215.196,-557.443 224.152,-563.104 220.681,-553.093 215.196,-557.443"/>
</g>
<!-- Node38 -->
<g id="node38" class="node"><title>Node38</title>
<g id="a_node38"><a xlink:href="a00355.html#gabf2fdb0def5388508602ee7dd2f49506" target="_top" xlink:title="Frees dynamic statement. ">
<polygon fill="white" stroke="black" points="174.5,-19.5 174.5,-38.5 291.5,-38.5 291.5,-19.5 174.5,-19.5"/>
<text text-anchor="middle" x="233" y="-26.5" font-family="Helvetica,sans-Serif" font-size="10.00">tds_release_dynamic</text>
</a>
</g>
</g>
<!-- Node1&#45;&gt;Node38 -->
<g id="edge61" class="edge"><title>Node1&#45;&gt;Node38</title>
<path fill="none" stroke="midnightblue" d="M62.0556,-348.438C64.8267,-308.936 80.2775,-156.357 157,-67 166.093,-56.4098 178.857,-48.4292 191.282,-42.5862"/>
<polygon fill="midnightblue" stroke="midnightblue" points="192.866,-45.7142 200.65,-38.5269 190.083,-39.2913 192.866,-45.7142"/>
</g>
<!-- Node40 -->
<g id="node40" class="node"><title>Node40</title>
<g id="a_node40"><a xlink:href="a00356.html#ga28264995cf9616661f1fa788ac0d246d" target="_top" xlink:title="Send parameters to server. ">
<polygon fill="white" stroke="black" points="187,-190.5 187,-209.5 279,-209.5 279,-190.5 187,-190.5"/>
<text text-anchor="middle" x="233" y="-197.5" font-family="Helvetica,sans-Serif" font-size="10.00">tds_put_params</text>
</a>
</g>
</g>
<!-- Node1&#45;&gt;Node40 -->
<g id="edge63" class="edge"><title>Node1&#45;&gt;Node40</title>
<path fill="none" stroke="midnightblue" d="M65.729,-348.276C76.9152,-323.687 109.702,-258.533 157,-224 163.073,-219.566 169.998,-215.93 177.129,-212.953"/>
<polygon fill="midnightblue" stroke="midnightblue" points="178.781,-216.072 186.92,-209.289 176.328,-209.515 178.781,-216.072"/>
</g>
<!-- Node3 -->
<g id="node3" class="node"><title>Node3</title>
<g id="a_node3"><a xlink:href="a00193.html#ab45c291105027e69836002e1dd586141" target="_top" xlink:title="Write a message to the debug log. ">
<polygon fill="white" stroke="black" points="1506,-487.5 1506,-506.5 1583,-506.5 1583,-487.5 1506,-487.5"/>
<text text-anchor="middle" x="1544.5" y="-494.5" font-family="Helvetica,sans-Serif" font-size="10.00">tdsdump_log</text>
</a>
</g>
</g>
<!-- Node2&#45;&gt;Node3 -->
<g id="edge2" class="edge"><title>Node2&#45;&gt;Node3</title>
<path fill="none" stroke="midnightblue" d="M794.295,-736.31C854.553,-725.206 973.522,-706 1075.5,-706 1075.5,-706 1075.5,-706 1252,-706 1353.76,-706 1392.01,-701.365 1470,-636 1508.38,-603.83 1529.5,-546.377 1538.39,-516.404"/>
<polygon fill="midnightblue" stroke="midnightblue" points="1541.78,-517.276 1541.12,-506.702 1535.04,-515.381 1541.78,-517.276"/>
</g>
<!-- Node4 -->
<g id="node4" class="node"><title>Node4</title>
<g id="a_node4"><a xlink:href="a00193.html#abf18b98efef6ce2dc0b97d658a3a1918" target="_top" xlink:title="Call the client library&#39;s error handler (for library&#45;generated errors only) ">
<polygon fill="white" stroke="black" points="1049.5,-601.5 1049.5,-620.5 1103.5,-620.5 1103.5,-601.5 1049.5,-601.5"/>
<text text-anchor="middle" x="1076.5" y="-608.5" font-family="Helvetica,sans-Serif" font-size="10.00">tdserror</text>
</a>
</g>
</g>
<!-- Node2&#45;&gt;Node4 -->
<g id="edge3" class="edge"><title>Node2&#45;&gt;Node4</title>
<path fill="none" stroke="midnightblue" d="M768.976,-734.419C785.766,-723.204 815.048,-704.567 842,-692 909.569,-660.494 992.98,-634.442 1039.6,-620.954"/>
<polygon fill="midnightblue" stroke="midnightblue" points="1040.6,-624.309 1049.25,-618.191 1038.67,-617.58 1040.6,-624.309"/>
</g>
<!-- Node4&#45;&gt;Node3 -->
<g id="edge4" class="edge"><title>Node4&#45;&gt;Node3</title>
<path fill="none" stroke="midnightblue" d="M1103.57,-609.433C1167.77,-604.909 1337.83,-588.87 1470,-540 1488.54,-533.145 1507.76,-521.72 1521.9,-512.369"/>
<polygon fill="midnightblue" stroke="midnightblue" points="1524.09,-515.11 1530.4,-506.593 1520.16,-509.321 1524.09,-515.11"/>
</g>
<!-- Node5 -->
<g id="node5" class="node"><title>Node5</title>
<g id="a_node5"><a xlink:href="a00356.html#ga11338742dc30fd0c2711f58eb830316f" target="_top" xlink:title="tds_send_cancel() sends an empty packet (8 byte header only) tds_process_cancel should be called dire...">
<polygon fill="white" stroke="black" points="1202.5,-620.5 1202.5,-639.5 1299.5,-639.5 1299.5,-620.5 1202.5,-620.5"/>
<text text-anchor="middle" x="1251" y="-627.5" font-family="Helvetica,sans-Serif" font-size="10.00">tds_send_cancel</text>
</a>
</g>
</g>
<!-- Node4&#45;&gt;Node5 -->
<g id="edge5" class="edge"><title>Node4&#45;&gt;Node5</title>
<path fill="none" stroke="midnightblue" d="M1103.7,-613.886C1127.15,-616.469 1162.37,-620.348 1192.38,-623.653"/>
<polygon fill="midnightblue" stroke="midnightblue" points="1192.01,-627.133 1202.33,-624.749 1192.77,-620.176 1192.01,-627.133"/>
</g>
<!-- Node5&#45;&gt;Node3 -->
<g id="edge6" class="edge"><title>Node5&#45;&gt;Node3</title>
<path fill="none" stroke="midnightblue" d="M1299.86,-635.761C1346.64,-638.987 1418.19,-637.312 1470,-606 1504.36,-585.238 1526.2,-541.557 1536.5,-516.248"/>
<polygon fill="midnightblue" stroke="midnightblue" points="1539.87,-517.235 1540.22,-506.646 1533.35,-514.71 1539.87,-517.235"/>
</g>
<!-- Node5&#45;&gt;Node6 -->
<g id="edge7" class="edge"><title>Node5&#45;&gt;Node6</title>
<path fill="none" stroke="midnightblue" d="M1260.18,-639.683C1285.72,-669.914 1364.24,-762.865 1397.43,-802.163"/>
<polygon fill="midnightblue" stroke="midnightblue" points="1395.02,-804.728 1404.14,-810.108 1400.36,-800.21 1395.02,-804.728"/>
</g>
<!-- Node8 -->
<g id="node8" class="node"><title>Node8</title>
<g id="a_node8"><a xlink:href="a00354.html#ga87db49044919f1bc84c0ff5e9ab00304" target="_top" xlink:title="Wrapper around iconv(3). ">
<polygon fill="white" stroke="black" points="1045.5,-506.5 1045.5,-525.5 1107.5,-525.5 1107.5,-506.5 1045.5,-506.5"/>
<text text-anchor="middle" x="1076.5" y="-513.5" font-family="Helvetica,sans-Serif" font-size="10.00">tds_iconv</text>
</a>
</g>
</g>
<!-- Node7&#45;&gt;Node8 -->
<g id="edge9" class="edge"><title>Node7&#45;&gt;Node8</title>
<path fill="none" stroke="midnightblue" d="M806.114,-593.425C850.817,-593.294 917.006,-589.733 972,-573 1002.29,-563.783 1033.68,-544.957 1053.84,-531.462"/>
<polygon fill="midnightblue" stroke="midnightblue" points="1055.99,-534.23 1062.26,-525.69 1052.03,-528.455 1055.99,-534.23"/>
</g>
<!-- Node8&#45;&gt;Node3 -->
<g id="edge10" class="edge"><title>Node8&#45;&gt;Node3</title>
<path fill="none" stroke="midnightblue" d="M1107.64,-523.029C1128.19,-527.449 1156.07,-532.731 1181,-535 1309.19,-546.669 1343.59,-540.297 1470,-516 1480,-514.078 1490.66,-511.586 1500.66,-509.043"/>
<polygon fill="midnightblue" stroke="midnightblue" points="1501.61,-512.412 1510.41,-506.502 1499.85,-505.639 1501.61,-512.412"/>
</g>
<!-- Node9 -->
<g id="node9" class="node"><title>Node9</title>
<g id="a_node9"><a xlink:href="a00354.html#ga3380140fc6eb9f2090c430f40e846876" target="_top" xlink:title="Move the input sequence pointer to the next valid position. ">
<polygon fill="white" stroke="black" points="1181,-506.5 1181,-525.5 1321,-525.5 1321,-506.5 1181,-506.5"/>
<text text-anchor="middle" x="1251" y="-513.5" font-family="Helvetica,sans-Serif" font-size="10.00">skip_one_input_sequence</text>
</a>
</g>
</g>
<!-- Node8&#45;&gt;Node9 -->
<g id="edge11" class="edge"><title>Node8&#45;&gt;Node9</title>
<path fill="none" stroke="midnightblue" d="M1107.55,-516C1125.13,-516 1148.22,-516 1170.69,-516"/>
<polygon fill="midnightblue" stroke="midnightblue" points="1170.94,-519.5 1180.94,-516 1170.94,-512.5 1170.94,-519.5"/>
</g>
<!-- Node10 -->
<g id="node10" class="node"><title>Node10</title>
<g id="a_node10"><a xlink:href="a00354.html#ga900b0bce08c6bfc2e7c988f4b5970516" target="_top" xlink:title="Inputs are FreeTDS canonical names, no other. ">
<polygon fill="white" stroke="black" points="1357,-487.5 1357,-506.5 1470,-506.5 1470,-487.5 1357,-487.5"/>
<text text-anchor="middle" x="1413.5" y="-494.5" font-family="Helvetica,sans-Serif" font-size="10.00">tds_sys_iconv_open</text>
</a>
</g>
</g>
<!-- Node8&#45;&gt;Node10 -->
<g id="edge14" class="edge"><title>Node8&#45;&gt;Node10</title>
<path fill="none" stroke="midnightblue" d="M1107.64,-508.971C1128.19,-504.551 1156.07,-499.269 1181,-497 1236.63,-491.936 1300.09,-492.371 1346.49,-493.826"/>
<polygon fill="midnightblue" stroke="midnightblue" points="1346.6,-497.332 1356.71,-494.172 1346.83,-490.336 1346.6,-497.332"/>
</g>
<!-- Node9&#45;&gt;Node10 -->
<g id="edge12" class="edge"><title>Node9&#45;&gt;Node10</title>
<path fill="none" stroke="midnightblue" d="M1321.46,-507.777C1329.9,-506.779 1338.49,-505.761 1346.87,-504.77"/>
<polygon fill="midnightblue" stroke="midnightblue" points="1347.43,-508.228 1356.95,-503.577 1346.6,-501.277 1347.43,-508.228"/>
</g>
<!-- Node10&#45;&gt;Node3 -->
<g id="edge13" class="edge"><title>Node10&#45;&gt;Node3</title>
<path fill="none" stroke="midnightblue" d="M1470.33,-497C1478.76,-497 1487.39,-497 1495.62,-497"/>
<polygon fill="midnightblue" stroke="midnightblue" points="1495.81,-500.5 1505.81,-497 1495.81,-493.5 1495.81,-500.5"/>
</g>
<!-- Node12 -->
<g id="node12" class="node"><title>Node12</title>
<g id="a_node12"><a xlink:href="a00356.html#ga0cd19215e9169ea299a6c9cbf5b2fb60" target="_top" xlink:title="Count number of placeholders (?) in a query. ">
<polygon fill="white" stroke="black" points="355,-343 355,-373 484,-373 484,-343 355,-343"/>
<text text-anchor="start" x="363" y="-361" font-family="Helvetica,sans-Serif" font-size="10.00">tds_count_placeholders</text>
<text text-anchor="middle" x="419.5" y="-350" font-family="Helvetica,sans-Serif" font-size="10.00">_ucs2le</text>
</a>
</g>
</g>
<!-- Node11&#45;&gt;Node12 -->
<g id="edge16" class="edge"><title>Node11&#45;&gt;Node12</title>
<path fill="none" stroke="midnightblue" d="M293.647,-335.669C310.017,-338.596 327.958,-341.806 345.007,-344.855"/>
<polygon fill="midnightblue" stroke="midnightblue" points="344.464,-348.313 354.924,-346.629 345.696,-341.423 344.464,-348.313"/>
</g>
<!-- Node14 -->
<g id="node14" class="node"><title>Node14</title>
<g id="a_node14"><a xlink:href="a00356.html#ga50d62edeb2a432e2dc668263f3f958ff" target="_top" xlink:title="Return declaration for column (like &quot;varchar(20)&quot;) ">
<polygon fill="white" stroke="black" points="345,-266.5 345,-285.5 494,-285.5 494,-266.5 345,-266.5"/>
<text text-anchor="middle" x="419.5" y="-273.5" font-family="Helvetica,sans-Serif" font-size="10.00">tds_get_column_declaration</text>
</a>
</g>
</g>
<!-- Node11&#45;&gt;Node14 -->
<g id="edge18" class="edge"><title>Node11&#45;&gt;Node14</title>
<path fill="none" stroke="midnightblue" d="M289.299,-309.926C307.074,-305.115 326.859,-299.796 345,-295 353.517,-292.748 362.598,-290.377 371.367,-288.102"/>
<polygon fill="midnightblue" stroke="midnightblue" points="372.284,-291.48 381.088,-285.586 370.53,-284.703 372.284,-291.48"/>
</g>
<!-- Node17 -->
<g id="node17" class="node"><title>Node17</title>
<g id="a_node17"><a xlink:href="a00356.html#gad05fc65e1d505c68d14c82b99a00e4eb" target="_top" xlink:title="Accept an ASCII string, convert it to UCS2&#45;LE The input is null&#45;terminated, but the output excludes t...">
<polygon fill="white" stroke="black" points="369,-304.5 369,-323.5 470,-323.5 470,-304.5 369,-304.5"/>
<text text-anchor="middle" x="419.5" y="-311.5" font-family="Helvetica,sans-Serif" font-size="10.00">tds_ascii_to_ucs2</text>
</a>
</g>
</g>
<!-- Node11&#45;&gt;Node17 -->
<g id="edge22" class="edge"><title>Node11&#45;&gt;Node17</title>
<path fill="none" stroke="midnightblue" d="M293.647,-321.444C314.547,-320.198 338.01,-318.799 358.905,-317.553"/>
<polygon fill="midnightblue" stroke="midnightblue" points="359.161,-321.044 368.935,-316.955 358.744,-314.057 359.161,-321.044"/>
</g>
<!-- Node13 -->
<g id="node13" class="node"><title>Node13</title>
<g id="a_node13"><a xlink:href="a00356.html#gaa823973b74efdf1ff00f340496bff614" target="_top" xlink:title="Found the next placeholder (? or @param) in a string. ">
<polygon fill="white" stroke="red" points="538.5,-343 538.5,-373 657.5,-373 657.5,-343 538.5,-343"/>
<text text-anchor="start" x="546.5" y="-361" font-family="Helvetica,sans-Serif" font-size="10.00">tds_next_placeholder</text>
<text text-anchor="middle" x="598" y="-350" font-family="Helvetica,sans-Serif" font-size="10.00">_ucs2le</text>
</a>
</g>
</g>
<!-- Node12&#45;&gt;Node13 -->
<g id="edge17" class="edge"><title>Node12&#45;&gt;Node13</title>
<path fill="none" stroke="midnightblue" d="M484.221,-358C498.443,-358 513.59,-358 528.014,-358"/>
<polygon fill="midnightblue" stroke="midnightblue" points="528.366,-361.5 538.366,-358 528.366,-354.5 528.366,-361.5"/>
</g>
<!-- Node14&#45;&gt;Node3 -->
<g id="edge21" class="edge"><title>Node14&#45;&gt;Node3</title>
<path fill="none" stroke="midnightblue" d="M494.126,-276C561.503,-276 663.958,-276 753,-276 753,-276 753,-276 1252,-276 1385.9,-276 1496.97,-425.907 1531.99,-478.795"/>
<polygon fill="midnightblue" stroke="midnightblue" points="1529.08,-480.741 1537.46,-487.219 1534.95,-476.926 1529.08,-480.741"/>
</g>
<!-- Node15 -->
<g id="node15" class="node"><title>Node15</title>
<g id="a_node15"><a xlink:href="a00356.html#ga440f0f469afad1eac4c008979873ccdd" target="_top" xlink:title="Get column size for wire. ">
<polygon fill="white" stroke="black" points="542.5,-304.5 542.5,-323.5 653.5,-323.5 653.5,-304.5 542.5,-304.5"/>
<text text-anchor="middle" x="598" y="-311.5" font-family="Helvetica,sans-Serif" font-size="10.00">tds_fix_column_size</text>
</a>
</g>
</g>
<!-- Node14&#45;&gt;Node15 -->
<g id="edge19" class="edge"><title>Node14&#45;&gt;Node15</title>
<path fill="none" stroke="midnightblue" d="M465.038,-285.589C488.644,-290.671 517.832,-296.955 542.751,-302.32"/>
<polygon fill="midnightblue" stroke="midnightblue" points="542.269,-305.797 552.782,-304.48 543.743,-298.954 542.269,-305.797"/>
</g>
<!-- Node16 -->
<g id="node16" class="node"><title>Node16</title>
<g id="a_node16"><a xlink:href="a00193.html#ae7f4c4d5f7352f1c814284c536659e6f" target="_top" xlink:title="Return type suitable for conversions (convert all nullable types to fixed type) ">
<polygon fill="white" stroke="black" points="530,-430.5 530,-449.5 666,-449.5 666,-430.5 530,-430.5"/>
<text text-anchor="middle" x="598" y="-437.5" font-family="Helvetica,sans-Serif" font-size="10.00">tds_get_conversion_type</text>
</a>
</g>
</g>
<!-- Node14&#45;&gt;Node16 -->
<g id="edge20" class="edge"><title>Node14&#45;&gt;Node16</title>
<path fill="none" stroke="midnightblue" d="M478.864,-285.514C484.351,-287.998 489.524,-291.108 494,-295 525.578,-322.458 505.522,-348.059 530,-382 542.073,-398.74 559.892,-413.864 574.12,-424.467"/>
<polygon fill="midnightblue" stroke="midnightblue" points="572.272,-427.45 582.431,-430.459 576.366,-421.772 572.272,-427.45"/>
</g>
<!-- Node18&#45;&gt;Node2 -->
<g id="edge25" class="edge"><title>Node18&#45;&gt;Node2</title>
<path fill="none" stroke="midnightblue" d="M658.1,-744C673.116,-744 689.094,-744 703.573,-744"/>
<polygon fill="midnightblue" stroke="midnightblue" points="703.816,-747.5 713.816,-744 703.816,-740.5 703.816,-747.5"/>
</g>
<!-- Node18&#45;&gt;Node7 -->
<g id="edge24" class="edge"><title>Node18&#45;&gt;Node7</title>
<path fill="none" stroke="midnightblue" d="M638.679,-734.407C648.236,-730.895 657.989,-726.203 666,-720 704.43,-690.242 731.988,-638.629 744.852,-610.905"/>
<polygon fill="midnightblue" stroke="midnightblue" points="748.151,-612.101 749.054,-601.544 741.765,-609.234 748.151,-612.101"/>
</g>
<!-- Node19&#45;&gt;Node12 -->
<g id="edge27" class="edge"><title>Node19&#45;&gt;Node12</title>
<path fill="none" stroke="midnightblue" d="M287.365,-381.455C305.309,-378.245 325.656,-374.606 344.878,-371.168"/>
<polygon fill="midnightblue" stroke="midnightblue" points="345.58,-374.598 354.808,-369.392 344.348,-367.708 345.58,-374.598"/>
</g>
<!-- Node19&#45;&gt;Node13 -->
<g id="edge28" class="edge"><title>Node19&#45;&gt;Node13</title>
<path fill="none" stroke="midnightblue" d="M298.665,-392.236C351.447,-392.413 427.846,-390.767 494,-382 506.28,-380.373 519.241,-377.936 531.671,-375.23"/>
<polygon fill="midnightblue" stroke="midnightblue" points="532.518,-378.627 541.503,-373.012 530.978,-371.798 532.518,-378.627"/>
</g>
<!-- Node20 -->
<g id="node20" class="node"><title>Node20</title>
<g id="a_node20"><a xlink:href="a00357.html#ga1fcaf8d488cc1390f106ce3ad0bf37b4" target="_top" xlink:title="Output a string to wire automatic translate string to unicode if needed. ">
<polygon fill="white" stroke="black" points="712.5,-506.5 712.5,-525.5 795.5,-525.5 795.5,-506.5 712.5,-506.5"/>
<text text-anchor="middle" x="754" y="-513.5" font-family="Helvetica,sans-Serif" font-size="10.00">tds_put_string</text>
</a>
</g>
</g>
<!-- Node19&#45;&gt;Node20 -->
<g id="edge29" class="edge"><title>Node19&#45;&gt;Node20</title>
<path fill="none" stroke="midnightblue" d="M298.539,-397.118C313.769,-398.477 329.951,-399.854 345,-401 416.265,-406.429 601.513,-390.184 666,-421 700.783,-437.621 728.169,-474.931 742.349,-497.532"/>
<polygon fill="midnightblue" stroke="midnightblue" points="739.431,-499.47 747.601,-506.215 745.42,-495.847 739.431,-499.47"/>
</g>
<!-- Node21 -->
<g id="node21" class="node"><title>Node21</title>
<g id="a_node21"><a xlink:href="a00263.html#aa9e1e45f0305622dd6aed9f8fe158581" target="_top" xlink:title="Initialize an input stream for read from a static allocated buffer. ">
<polygon fill="white" stroke="red" points="843,-544.5 843,-563.5 971,-563.5 971,-544.5 843,-544.5"/>
<text text-anchor="middle" x="907" y="-551.5" font-family="Helvetica,sans-Serif" font-size="10.00">tds_staticin_stream_init</text>
</a>
</g>
</g>
<!-- Node20&#45;&gt;Node21 -->
<g id="edge30" class="edge"><title>Node20&#45;&gt;Node21</title>
<path fill="none" stroke="midnightblue" d="M793.104,-525.589C812.94,-530.581 837.384,-536.732 858.448,-542.033"/>
<polygon fill="midnightblue" stroke="midnightblue" points="857.618,-545.434 868.17,-544.48 859.327,-538.645 857.618,-545.434"/>
</g>
<!-- Node22 -->
<g id="node22" class="node"><title>Node22</title>
<g id="a_node22"><a xlink:href="a00263.html#aa038a9125979f8f0915dbd53cbf27e5a" target="_top" xlink:title="Initialize a data output stream. ">
<polygon fill="white" stroke="red" points="842,-506.5 842,-525.5 972,-525.5 972,-506.5 842,-506.5"/>
<text text-anchor="middle" x="907" y="-513.5" font-family="Helvetica,sans-Serif" font-size="10.00">tds_dataout_stream_init</text>
</a>
</g>
</g>
<!-- Node20&#45;&gt;Node22 -->
<g id="edge31" class="edge"><title>Node20&#45;&gt;Node22</title>
<path fill="none" stroke="midnightblue" d="M795.863,-516C806.917,-516 819.236,-516 831.519,-516"/>
<polygon fill="midnightblue" stroke="midnightblue" points="831.8,-519.5 841.8,-516 831.8,-512.5 831.8,-519.5"/>
</g>
<!-- Node23 -->
<g id="node23" class="node"><title>Node23</title>
<g id="a_node23"><a xlink:href="a00263.html#a9d8eb43a81ff58ab423dce0ce95b9564" target="_top" xlink:title="Reads and writes from a stream converting characters. ">
<polygon fill="white" stroke="red" points="852,-468.5 852,-487.5 962,-487.5 962,-468.5 852,-468.5"/>
<text text-anchor="middle" x="907" y="-475.5" font-family="Helvetica,sans-Serif" font-size="10.00">tds_convert_stream</text>
</a>
</g>
</g>
<!-- Node20&#45;&gt;Node23 -->
<g id="edge32" class="edge"><title>Node20&#45;&gt;Node23</title>
<path fill="none" stroke="midnightblue" d="M793.104,-506.411C812.94,-501.419 837.384,-495.268 858.448,-489.967"/>
<polygon fill="midnightblue" stroke="midnightblue" points="859.327,-493.355 868.17,-487.52 857.618,-486.566 859.327,-493.355"/>
</g>
<!-- Node23&#45;&gt;Node3 -->
<g id="edge34" class="edge"><title>Node23&#45;&gt;Node3</title>
<path fill="none" stroke="midnightblue" d="M962.145,-473.482C1062.7,-466.093 1284.89,-454.461 1470,-478 1481.21,-479.426 1493.16,-482.028 1504.09,-484.859"/>
<polygon fill="midnightblue" stroke="midnightblue" points="1503.23,-488.251 1513.8,-487.496 1505.06,-481.496 1503.23,-488.251"/>
</g>
<!-- Node23&#45;&gt;Node4 -->
<g id="edge35" class="edge"><title>Node23&#45;&gt;Node4</title>
<path fill="none" stroke="midnightblue" d="M952.075,-487.609C959.025,-490.09 965.916,-493.176 972,-497 977.428,-500.411 1032.85,-562.738 1060.28,-593.758"/>
<polygon fill="midnightblue" stroke="midnightblue" points="1057.67,-596.083 1066.91,-601.259 1062.91,-591.448 1057.67,-596.083"/>
</g>
<!-- Node23&#45;&gt;Node8 -->
<g id="edge33" class="edge"><title>Node23&#45;&gt;Node8</title>
<path fill="none" stroke="midnightblue" d="M950.267,-487.589C976.448,-493.529 1009.86,-501.11 1035.59,-506.946"/>
<polygon fill="midnightblue" stroke="midnightblue" points="1034.87,-510.371 1045.4,-509.171 1036.42,-503.545 1034.87,-510.371"/>
</g>
<!-- Node25&#45;&gt;Node3 -->
<g id="edge38" class="edge"><title>Node25&#45;&gt;Node3</title>
<path fill="none" stroke="midnightblue" d="M648.717,-238C709.432,-238 815.259,-238 906,-238 906,-238 906,-238 1252,-238 1349.47,-238 1394.74,-200.055 1470,-262 1536.63,-316.846 1543.88,-431.342 1543.97,-477.293"/>
<polygon fill="midnightblue" stroke="midnightblue" points="1540.47,-477.386 1543.87,-487.42 1547.47,-477.456 1540.47,-477.386"/>
</g>
<!-- Node25&#45;&gt;Node7 -->
<g id="edge39" class="edge"><title>Node25&#45;&gt;Node7</title>
<path fill="none" stroke="midnightblue" d="M616.083,-247.578C631.79,-257.353 654.35,-274.044 666,-295 718.408,-389.272 656.117,-437.386 702,-535 709.364,-550.666 722.452,-565.157 733.526,-575.608"/>
<polygon fill="midnightblue" stroke="midnightblue" points="731.353,-578.362 741.123,-582.463 736.043,-573.165 731.353,-578.362"/>
</g>
<!-- Node27&#45;&gt;Node2 -->
<g id="edge42" class="edge"><title>Node27&#45;&gt;Node2</title>
<path fill="none" stroke="midnightblue" d="M629.523,-810.47C641.145,-806.479 654.381,-801.489 666,-796 688.687,-785.282 713.093,-770.371 730.264,-759.263"/>
<polygon fill="midnightblue" stroke="midnightblue" points="732.558,-761.944 739.002,-753.534 728.72,-756.09 732.558,-761.944"/>
</g>
<!-- Node27&#45;&gt;Node6 -->
<g id="edge43" class="edge"><title>Node27&#45;&gt;Node6</title>
<path fill="none" stroke="midnightblue" d="M662.206,-820C724.275,-820 821.655,-820 906,-820 906,-820 906,-820 1077.5,-820 1174.94,-820 1288.32,-820 1355.04,-820"/>
<polygon fill="midnightblue" stroke="midnightblue" points="1355.34,-823.5 1365.34,-820 1355.34,-816.5 1355.34,-823.5"/>
</g>
<!-- Node29 -->
<g id="node29" class="node"><title>Node29</title>
<g id="a_node29"><a xlink:href="a00359.html#ga595fe391e60a71bd98ffd53b4c015e44" target="_top" xlink:title="Finds a dynamic given string id. ">
<polygon fill="white" stroke="black" points="363,-76.5 363,-95.5 476,-95.5 476,-76.5 363,-76.5"/>
<text text-anchor="middle" x="419.5" y="-83.5" font-family="Helvetica,sans-Serif" font-size="10.00">tds_lookup_dynamic</text>
</a>
</g>
</g>
<!-- Node28&#45;&gt;Node29 -->
<g id="edge45" class="edge"><title>Node28&#45;&gt;Node29</title>
<path fill="none" stroke="midnightblue" d="M285.394,-86C306.29,-86 330.692,-86 352.854,-86"/>
<polygon fill="midnightblue" stroke="midnightblue" points="352.859,-89.5001 362.859,-86 352.858,-82.5001 352.859,-89.5001"/>
</g>
<!-- Node30 -->
<g id="node30" class="node"><title>Node30</title>
<g id="a_node30"><a xlink:href="a00355.html#ga501af7e6186e59c257729599a044a30b" target="_top" xlink:title="Get an id for dynamic query based on TDS information. ">
<polygon fill="white" stroke="black" points="378,-38.5 378,-57.5 461,-57.5 461,-38.5 378,-38.5"/>
<text text-anchor="middle" x="419.5" y="-45.5" font-family="Helvetica,sans-Serif" font-size="10.00">tds_get_dynid</text>
</a>
</g>
</g>
<!-- Node28&#45;&gt;Node30 -->
<g id="edge46" class="edge"><title>Node28&#45;&gt;Node30</title>
<path fill="none" stroke="midnightblue" d="M280.557,-76.411C307.156,-70.9326 340.536,-64.0577 367.796,-58.443"/>
<polygon fill="midnightblue" stroke="midnightblue" points="368.83,-61.8038 377.918,-56.3584 367.417,-54.9477 368.83,-61.8038"/>
</g>
<!-- Node31&#45;&gt;Node20 -->
<g id="edge52" class="edge"><title>Node31&#45;&gt;Node20</title>
<path fill="none" stroke="midnightblue" d="M258.845,-563.477C281.157,-555.171 314.934,-543.199 345,-535 483.602,-497.205 523.167,-481.585 666,-497 679.719,-498.481 694.446,-501.238 707.812,-504.202"/>
<polygon fill="midnightblue" stroke="midnightblue" points="707.196,-507.652 717.727,-506.492 708.771,-500.832 707.196,-507.652"/>
</g>
<!-- Node32 -->
<g id="node32" class="node"><title>Node32</title>
<g id="a_node32"><a xlink:href="a00356.html#gaaa7b4d37bf796019e72f25c6e7fe7bea" target="_top" xlink:title="Count the number of placeholders in query. ">
<polygon fill="white" stroke="black" points="355,-582.5 355,-601.5 484,-601.5 484,-582.5 355,-582.5"/>
<text text-anchor="middle" x="419.5" y="-589.5" font-family="Helvetica,sans-Serif" font-size="10.00">tds_count_placeholders</text>
</a>
</g>
</g>
<!-- Node31&#45;&gt;Node32 -->
<g id="edge48" class="edge"><title>Node31&#45;&gt;Node32</title>
<path fill="none" stroke="midnightblue" d="M309.043,-580.728C320.772,-581.936 332.885,-583.183 344.588,-584.388"/>
<polygon fill="midnightblue" stroke="midnightblue" points="344.441,-587.892 354.747,-585.435 345.158,-580.929 344.441,-587.892"/>
</g>
<!-- Node33 -->
<g id="node33" class="node"><title>Node33</title>
<g id="a_node33"><a xlink:href="a00356.html#ga6455b2991afbf7da90270787f2059d31" target="_top" xlink:title="Get position of next placeholder. ">
<polygon fill="white" stroke="red" points="538.5,-658.5 538.5,-677.5 657.5,-677.5 657.5,-658.5 538.5,-658.5"/>
<text text-anchor="middle" x="598" y="-665.5" font-family="Helvetica,sans-Serif" font-size="10.00">tds_next_placeholder</text>
</a>
</g>
</g>
<!-- Node31&#45;&gt;Node33 -->
<g id="edge53" class="edge"><title>Node31&#45;&gt;Node33</title>
<path fill="none" stroke="midnightblue" d="M259.325,-582.539C281.666,-590.745 315.212,-602.559 345,-611 410.138,-629.459 486.068,-645.966 537.42,-656.406"/>
<polygon fill="midnightblue" stroke="midnightblue" points="536.857,-659.863 547.352,-658.412 538.243,-653.001 536.857,-659.863"/>
</g>
<!-- Node34 -->
<g id="node34" class="node"><title>Node34</title>
<g id="a_node34"><a xlink:href="a00356.html#gab543692776c2bc0afc3bd056f074080c" target="_top" xlink:title="Start query packet of a given type. ">
<polygon fill="white" stroke="black" points="374.5,-658.5 374.5,-677.5 464.5,-677.5 464.5,-658.5 374.5,-658.5"/>
<text text-anchor="middle" x="419.5" y="-665.5" font-family="Helvetica,sans-Serif" font-size="10.00">tds_start_query</text>
</a>
</g>
</g>
<!-- Node31&#45;&gt;Node34 -->
<g id="edge50" class="edge"><title>Node31&#45;&gt;Node34</title>
<path fill="none" stroke="midnightblue" d="M246.701,-582.656C266.702,-597.499 307.166,-626.081 345,-644 353.914,-648.222 363.766,-651.997 373.283,-655.235"/>
<polygon fill="midnightblue" stroke="midnightblue" points="372.434,-658.639 383.026,-658.41 374.603,-651.984 372.434,-658.639"/>
</g>
<!-- Node35 -->
<g id="node35" class="node"><title>Node35</title>
<g id="a_node35"><a xlink:href="a00356.html#ga0e2e7230c425e925402d7856ff5b4b18" target="_top" xlink:title="Send a parameter to server. ">
<polygon fill="white" stroke="black" points="351,-544.5 351,-563.5 488,-563.5 488,-544.5 351,-544.5"/>
<text text-anchor="middle" x="419.5" y="-551.5" font-family="Helvetica,sans-Serif" font-size="10.00">tds_put_param_as_string</text>
</a>
</g>
</g>
<!-- Node31&#45;&gt;Node35 -->
<g id="edge54" class="edge"><title>Node31&#45;&gt;Node35</title>
<path fill="none" stroke="midnightblue" d="M309.043,-565.272C319.552,-564.19 330.37,-563.076 340.925,-561.989"/>
<polygon fill="midnightblue" stroke="midnightblue" points="341.356,-565.463 350.945,-560.957 340.639,-558.5 341.356,-565.463"/>
</g>
<!-- Node32&#45;&gt;Node33 -->
<g id="edge49" class="edge"><title>Node32&#45;&gt;Node33</title>
<path fill="none" stroke="midnightblue" d="M460.357,-601.62C471.658,-605.236 483.685,-609.973 494,-616 512.741,-626.95 511.048,-638.42 530,-649 533.967,-651.215 538.213,-653.188 542.571,-654.944"/>
<polygon fill="midnightblue" stroke="midnightblue" points="541.63,-658.326 552.224,-658.45 544.019,-651.747 541.63,-658.326"/>
</g>
<!-- Node34&#45;&gt;Node18 -->
<g id="edge51" class="edge"><title>Node34&#45;&gt;Node18</title>
<path fill="none" stroke="midnightblue" d="M442.854,-677.625C473.887,-690.988 530.177,-715.227 565.469,-730.423"/>
<polygon fill="midnightblue" stroke="midnightblue" points="564.259,-733.712 574.828,-734.453 567.027,-727.283 564.259,-733.712"/>
</g>
<!-- Node35&#45;&gt;Node7 -->
<g id="edge56" class="edge"><title>Node35&#45;&gt;Node7</title>
<path fill="none" stroke="midnightblue" d="M488.187,-561.736C547.925,-568.563 634.236,-578.427 691.907,-585.018"/>
<polygon fill="midnightblue" stroke="midnightblue" points="691.64,-588.51 701.973,-586.168 692.435,-581.555 691.64,-588.51"/>
</g>
<!-- Node35&#45;&gt;Node16 -->
<g id="edge60" class="edge"><title>Node35&#45;&gt;Node16</title>
<path fill="none" stroke="midnightblue" d="M435.245,-544.477C465.796,-524.744 536.244,-479.242 573.274,-455.325"/>
<polygon fill="midnightblue" stroke="midnightblue" points="575.422,-458.104 581.923,-449.738 571.624,-452.224 575.422,-458.104"/>
</g>
<!-- Node35&#45;&gt;Node20 -->
<g id="edge55" class="edge"><title>Node35&#45;&gt;Node20</title>
<path fill="none" stroke="midnightblue" d="M488.25,-551.269C537.705,-548.666 606.261,-543.792 666,-535 678.672,-533.135 692.255,-530.487 704.831,-527.758"/>
<polygon fill="midnightblue" stroke="midnightblue" points="705.666,-531.158 714.664,-525.566 704.142,-524.326 705.666,-531.158"/>
</g>
<!-- Node36 -->
<g id="node36" class="node"><title>Node36</title>
<g id="a_node36"><a xlink:href="a00356.html#ga26b26296d060dca75f6a43e9ac41e58d" target="_top" xlink:title="Send a string to server while quoting it. ">
<polygon fill="white" stroke="black" points="544.5,-506.5 544.5,-525.5 651.5,-525.5 651.5,-506.5 544.5,-506.5"/>
<text text-anchor="middle" x="598" y="-513.5" font-family="Helvetica,sans-Serif" font-size="10.00">tds_quote_and_put</text>
</a>
</g>
</g>
<!-- Node35&#45;&gt;Node36 -->
<g id="edge57" class="edge"><title>Node35&#45;&gt;Node36</title>
<path fill="none" stroke="midnightblue" d="M465.038,-544.411C488.644,-539.329 517.832,-533.045 542.751,-527.68"/>
<polygon fill="midnightblue" stroke="midnightblue" points="543.743,-531.046 552.782,-525.52 542.269,-524.203 543.743,-531.046"/>
</g>
<!-- Node37 -->
<g id="node37" class="node"><title>Node37</title>
<g id="a_node37"><a xlink:href="a00353.html#gaa865e08f7ad70ef92b111c2ea3657457" target="_top" xlink:title="tds_convert convert a type to another. ">
<polygon fill="white" stroke="black" points="562,-620.5 562,-639.5 634,-639.5 634,-620.5 562,-620.5"/>
<text text-anchor="middle" x="598" y="-627.5" font-family="Helvetica,sans-Serif" font-size="10.00">tds_convert</text>
</a>
</g>
</g>
<!-- Node35&#45;&gt;Node37 -->
<g id="edge59" class="edge"><title>Node35&#45;&gt;Node37</title>
<path fill="none" stroke="midnightblue" d="M471.171,-563.6C479.063,-566.077 486.935,-569.164 494,-573 513.074,-583.357 511.416,-594.786 530,-606 536.994,-610.221 544.845,-613.862 552.643,-616.942"/>
<polygon fill="midnightblue" stroke="midnightblue" points="551.474,-620.242 562.068,-620.422 553.899,-613.675 551.474,-620.242"/>
</g>
<!-- Node36&#45;&gt;Node20 -->
<g id="edge58" class="edge"><title>Node36&#45;&gt;Node20</title>
<path fill="none" stroke="midnightblue" d="M651.567,-516C667.864,-516 685.79,-516 701.98,-516"/>
<polygon fill="midnightblue" stroke="midnightblue" points="702.334,-519.5 712.334,-516 702.334,-512.5 702.334,-519.5"/>
</g>
<!-- Node39 -->
<g id="node39" class="node"><title>Node39</title>
<g id="a_node39"><a xlink:href="a00355.html#gabdc5fee73b22345c02ab894e49ad7f95" target="_top" xlink:title="Frees all allocated input parameters of a dynamic statement. ">
<polygon fill="white" stroke="black" points="357,-0.5 357,-19.5 482,-19.5 482,-0.5 357,-0.5"/>
<text text-anchor="middle" x="419.5" y="-7.5" font-family="Helvetica,sans-Serif" font-size="10.00">tds_free_input_params</text>
</a>
</g>
</g>
<!-- Node38&#45;&gt;Node39 -->
<g id="edge62" class="edge"><title>Node38&#45;&gt;Node39</title>
<path fill="none" stroke="midnightblue" d="M291.618,-23.0664C309.103,-21.2658 328.531,-19.2651 346.821,-17.3816"/>
<polygon fill="midnightblue" stroke="midnightblue" points="347.257,-20.8553 356.846,-16.3492 346.54,-13.8921 347.257,-20.8553"/>
</g>
<!-- Node40&#45;&gt;Node25 -->
<g id="edge66" class="edge"><title>Node40&#45;&gt;Node25</title>
<path fill="none" stroke="midnightblue" d="M279.152,-203.575C331.059,-207.822 418.785,-215.421 494,-224 507.995,-225.596 523.032,-227.521 537.173,-229.425"/>
<polygon fill="midnightblue" stroke="midnightblue" points="536.903,-232.92 547.284,-230.803 537.848,-225.984 536.903,-232.92"/>
</g>
<!-- Node40&#45;&gt;Node26 -->
<g id="edge67" class="edge"><title>Node40&#45;&gt;Node26</title>
<path fill="none" stroke="midnightblue" d="M272.82,-190.415C284.781,-186.721 297.754,-181.932 309,-176 326.929,-166.543 327.099,-157.51 345,-148 353.183,-143.653 362.298,-139.905 371.246,-136.749"/>
<polygon fill="midnightblue" stroke="midnightblue" points="372.455,-140.035 380.839,-133.557 370.245,-133.394 372.455,-140.035"/>
</g>
<!-- Node41 -->
<g id="node41" class="node"><title>Node41</title>
<g id="a_node41"><a xlink:href="a00356.html#ga319d610d59b2cc669b7fe20c793122af" target="_top" xlink:title="Calc information length in bytes (useful for calculating full packet length) ">
<polygon fill="white" stroke="black" points="1008,-162.5 1008,-181.5 1145,-181.5 1145,-162.5 1008,-162.5"/>
<text text-anchor="middle" x="1076.5" y="-169.5" font-family="Helvetica,sans-Serif" font-size="10.00">tds_put_data_info_length</text>
</a>
</g>
</g>
<!-- Node40&#45;&gt;Node41 -->
<g id="edge64" class="edge"><title>Node40&#45;&gt;Node41</title>
<path fill="none" stroke="midnightblue" d="M279.114,-192.218C347.597,-181.101 481.992,-162 597,-162 597,-162 597,-162 755,-162 837.963,-162 932.946,-165.389 997.841,-168.221"/>
<polygon fill="midnightblue" stroke="midnightblue" points="997.846,-171.725 1007.99,-168.67 998.156,-164.731 997.846,-171.725"/>
</g>
<!-- Node41&#45;&gt;Node3 -->
<g id="edge65" class="edge"><title>Node41&#45;&gt;Node3</title>
<path fill="none" stroke="midnightblue" d="M1128.93,-162.486C1211.54,-150.373 1374.25,-140.059 1470,-224 1508.76,-257.979 1533.39,-419.961 1540.99,-477.04"/>
<polygon fill="midnightblue" stroke="midnightblue" points="1537.56,-477.8 1542.32,-487.267 1544.5,-476.9 1537.56,-477.8"/>
</g>
</g>
</svg>
