<?xml version="1.0" encoding="UTF-8" standalone="no"?>
<!DOCTYPE svg PUBLIC "-//W3C//DTD SVG 1.1//EN"
 "http://www.w3.org/Graphics/SVG/1.1/DTD/svg11.dtd">
<!-- Generated by graphviz version 2.38.0 (20140413.2041)
 -->
<!-- Title: tds_put_params Pages: 1 -->
<svg width="621pt" height="104pt"
 viewBox="0.00 0.00 621.00 104.00" xmlns="http://www.w3.org/2000/svg" xmlns:xlink="http://www.w3.org/1999/xlink">
<g id="graph0" class="graph" transform="scale(1 1) rotate(0) translate(4 100)">
<title>tds_put_params</title>
<polygon fill="white" stroke="none" points="-4,4 -4,-100 617,-100 617,4 -4,4"/>
<!-- Node1 -->
<g id="node1" class="node"><title>Node1</title>
<polygon fill="#bfbfbf" stroke="black" points="0,-38.5 0,-57.5 92,-57.5 92,-38.5 0,-38.5"/>
<text text-anchor="middle" x="46" y="-45.5" font-family="Helvetica,sans-Serif" font-size="10.00">tds_put_params</text>
</g>
<!-- Node2 -->
<g id="node2" class="node"><title>Node2</title>
<g id="a_node2"><a xlink:href="a00356.html#ga319d610d59b2cc669b7fe20c793122af" target="_top" xlink:title="Calc information length in bytes (useful for calculating full packet length) ">
<polygon fill="white" stroke="black" points="265,-76.5 265,-95.5 402,-95.5 402,-76.5 265,-76.5"/>
<text text-anchor="middle" x="333.5" y="-83.5" font-family="Helvetica,sans-Serif" font-size="10.00">tds_put_data_info_length</text>
</a>
</g>
</g>
<!-- Node1&#45;&gt;Node2 -->
<g id="edge1" class="edge"><title>Node1&#45;&gt;Node2</title>
<path fill="none" stroke="midnightblue" d="M83.0765,-57.5855C97.0255,-60.9954 113.174,-64.5841 128,-67 169.674,-73.7905 216.551,-78.3642 254.9,-81.3191"/>
<polygon fill="midnightblue" stroke="midnightblue" points="254.733,-84.8164 264.967,-82.0729 255.256,-77.8359 254.733,-84.8164"/>
</g>
<!-- Node4 -->
<g id="node4" class="node"><title>Node4</title>
<g id="a_node4"><a xlink:href="a00356.html#gafd74652c4722ddce4d642cc4209449d4" target="_top" xlink:title="Put data information to wire. ">
<polygon fill="white" stroke="black" points="128,-38.5 128,-57.5 229,-57.5 229,-38.5 128,-38.5"/>
<text text-anchor="middle" x="178.5" y="-45.5" font-family="Helvetica,sans-Serif" font-size="10.00">tds_put_data_info</text>
</a>
</g>
</g>
<!-- Node1&#45;&gt;Node4 -->
<g id="edge3" class="edge"><title>Node1&#45;&gt;Node4</title>
<path fill="none" stroke="midnightblue" d="M92.2763,-48C100.441,-48 109.067,-48 117.572,-48"/>
<polygon fill="midnightblue" stroke="midnightblue" points="117.847,-51.5001 127.847,-48 117.847,-44.5001 117.847,-51.5001"/>
</g>
<!-- Node7 -->
<g id="node7" class="node"><title>Node7</title>
<g id="a_node7"><a xlink:href="a00356.html#ga9fcc0a3932dcad530511395ef8a767fb" target="_top" xlink:title="Write data to wire. ">
<polygon fill="white" stroke="black" points="139.5,-0.5 139.5,-19.5 217.5,-19.5 217.5,-0.5 139.5,-0.5"/>
<text text-anchor="middle" x="178.5" y="-7.5" font-family="Helvetica,sans-Serif" font-size="10.00">tds_put_data</text>
</a>
</g>
</g>
<!-- Node1&#45;&gt;Node7 -->
<g id="edge8" class="edge"><title>Node1&#45;&gt;Node7</title>
<path fill="none" stroke="midnightblue" d="M79.9307,-38.411C96.6224,-33.5506 117.089,-27.5909 134.96,-22.3873"/>
<polygon fill="midnightblue" stroke="midnightblue" points="135.957,-25.7422 144.58,-19.5859 134,-19.0213 135.957,-25.7422"/>
</g>
<!-- Node3 -->
<g id="node3" class="node"><title>Node3</title>
<g id="a_node3"><a xlink:href="a00193.html#ab45c291105027e69836002e1dd586141" target="_top" xlink:title="Write a message to the debug log. ">
<polygon fill="white" stroke="black" points="536,-38.5 536,-57.5 613,-57.5 613,-38.5 536,-38.5"/>
<text text-anchor="middle" x="574.5" y="-45.5" font-family="Helvetica,sans-Serif" font-size="10.00">tdsdump_log</text>
</a>
</g>
</g>
<!-- Node2&#45;&gt;Node3 -->
<g id="edge2" class="edge"><title>Node2&#45;&gt;Node3</title>
<path fill="none" stroke="midnightblue" d="M402.244,-76.8655C432.244,-72.6427 467.93,-67.3768 500,-62 508.379,-60.5951 517.275,-58.9943 525.875,-57.3892"/>
<polygon fill="midnightblue" stroke="midnightblue" points="526.613,-60.8119 535.788,-55.5147 525.312,-53.9338 526.613,-60.8119"/>
</g>
<!-- Node4&#45;&gt;Node3 -->
<g id="edge4" class="edge"><title>Node4&#45;&gt;Node3</title>
<path fill="none" stroke="midnightblue" d="M229.001,-48C305.295,-48 450.648,-48 525.823,-48"/>
<polygon fill="midnightblue" stroke="midnightblue" points="525.951,-51.5001 535.951,-48 525.951,-44.5001 525.951,-51.5001"/>
</g>
<!-- Node5 -->
<g id="node5" class="node"><title>Node5</title>
<g id="a_node5"><a xlink:href="a00356.html#ga024bc5482366735070befd6f4af59f71" target="_top" xlink:title="Convert a string in an allocated buffer. ">
<polygon fill="white" stroke="black" points="281.5,-0.5 281.5,-19.5 385.5,-19.5 385.5,-0.5 281.5,-0.5"/>
<text text-anchor="middle" x="333.5" y="-7.5" font-family="Helvetica,sans-Serif" font-size="10.00">tds_convert_string</text>
</a>
</g>
</g>
<!-- Node4&#45;&gt;Node5 -->
<g id="edge5" class="edge"><title>Node4&#45;&gt;Node5</title>
<path fill="none" stroke="midnightblue" d="M218.108,-38.411C238.207,-33.4191 262.975,-27.2676 284.319,-21.9666"/>
<polygon fill="midnightblue" stroke="midnightblue" points="285.308,-25.3274 294.169,-19.5201 283.62,-18.5338 285.308,-25.3274"/>
</g>
<!-- Node6 -->
<g id="node6" class="node"><title>Node6</title>
<g id="a_node6"><a xlink:href="a00354.html#ga87db49044919f1bc84c0ff5e9ab00304" target="_top" xlink:title="Wrapper around iconv(3). ">
<polygon fill="white" stroke="red" points="438,-0.5 438,-19.5 500,-19.5 500,-0.5 438,-0.5"/>
<text text-anchor="middle" x="469" y="-7.5" font-family="Helvetica,sans-Serif" font-size="10.00">tds_iconv</text>
</a>
</g>
</g>
<!-- Node5&#45;&gt;Node6 -->
<g id="edge6" class="edge"><title>Node5&#45;&gt;Node6</title>
<path fill="none" stroke="midnightblue" d="M385.733,-10C399.658,-10 414.536,-10 427.758,-10"/>
<polygon fill="midnightblue" stroke="midnightblue" points="427.957,-13.5001 437.957,-10 427.957,-6.5001 427.957,-13.5001"/>
</g>
<!-- Node6&#45;&gt;Node3 -->
<g id="edge7" class="edge"><title>Node6&#45;&gt;Node3</title>
<path fill="none" stroke="midnightblue" d="M496.117,-19.589C508.743,-24.2244 524.091,-29.8596 537.78,-34.8853"/>
<polygon fill="midnightblue" stroke="midnightblue" points="536.797,-38.253 547.391,-38.4141 539.21,-31.6819 536.797,-38.253"/>
</g>
</g>
</svg>
