<?xml version="1.0" encoding="UTF-8" standalone="no"?>
<!DOCTYPE svg PUBLIC "-//W3C//DTD SVG 1.1//EN"
 "http://www.w3.org/Graphics/SVG/1.1/DTD/svg11.dtd">
<!-- Generated by graphviz version 2.38.0 (20140413.2041)
 -->
<!-- Title: tds_flush_packet Pages: 1 -->
<svg width="1172pt" height="1113pt"
 viewBox="0.00 0.00 1172.00 1112.94" xmlns="http://www.w3.org/2000/svg" xmlns:xlink="http://www.w3.org/1999/xlink">
<g id="graph0" class="graph" transform="scale(1 1) rotate(0) translate(4 1108.94)">
<title>tds_flush_packet</title>
<polygon fill="white" stroke="none" points="-4,4 -4,-1108.94 1168,-1108.94 1168,4 -4,4"/>
<!-- Node1 -->
<g id="node1" class="node"><title>Node1</title>
<polygon fill="#bfbfbf" stroke="black" points="0,-747.163 0,-766.163 96,-766.163 96,-747.163 0,-747.163"/>
<text text-anchor="middle" x="48" y="-754.163" font-family="Helvetica,sans-Serif" font-size="10.00">tds_flush_packet</text>
</g>
<!-- Node2 -->
<g id="node2" class="node"><title>Node2</title>
<g id="a_node2"><a xlink:href="a00341.html#gae1f50a6a2c31fda57cb481922b06841e" target="_top" xlink:title="Wait for results of a query from the server. ">
<polygon fill="white" stroke="black" points="154,-1070.16 154,-1089.16 207,-1089.16 207,-1070.16 154,-1070.16"/>
<text text-anchor="middle" x="180.5" y="-1077.16" font-family="Helvetica,sans-Serif" font-size="10.00">dbsqlok</text>
</a>
</g>
</g>
<!-- Node1&#45;&gt;Node2 -->
<g id="edge1" class="edge"><title>Node1&#45;&gt;Node2</title>
<path fill="none" stroke="midnightblue" d="M49.1996,-776.31C50.7255,-827.997 61.4942,-969.688 132,-1055.66 137.624,-1062.52 145.71,-1067.61 153.62,-1071.29"/>
<polygon fill="midnightblue" stroke="midnightblue" points="52.6964,-776.116 48.9901,-766.191 45.6979,-776.261 52.6964,-776.116"/>
</g>
<!-- Node6 -->
<g id="node6" class="node"><title>Node6</title>
<g id="a_node6"><a xlink:href="a00356.html#gada27f4cfce925240ad33b71b63ca692d" target="_top" xlink:title="Flush query packet. ">
<polygon fill="white" stroke="black" points="547,-652.163 547,-671.163 675,-671.163 675,-652.163 547,-652.163"/>
<text text-anchor="middle" x="611" y="-659.163" font-family="Helvetica,sans-Serif" font-size="10.00">tds_query_flush_packet</text>
</a>
</g>
</g>
<!-- Node1&#45;&gt;Node6 -->
<g id="edge5" class="edge"><title>Node1&#45;&gt;Node6</title>
<path fill="none" stroke="midnightblue" d="M106.397,-746.943C214.333,-728.665 446.306,-689.383 553.529,-671.226"/>
<polygon fill="midnightblue" stroke="midnightblue" points="105.622,-743.524 96.3471,-748.645 106.791,-750.426 105.622,-743.524"/>
</g>
<!-- Node14 -->
<g id="node14" class="node"><title>Node14</title>
<g id="a_node14"><a xlink:href="a00356.html#gae603aed795a4c5bb26ab159a11256996" target="_top" xlink:title="Submit a prepared query with parameters. ">
<polygon fill="white" stroke="black" points="720.5,-956.163 720.5,-975.163 841.5,-975.163 841.5,-956.163 720.5,-956.163"/>
<text text-anchor="middle" x="781" y="-963.163" font-family="Helvetica,sans-Serif" font-size="10.00">tds_submit_execdirect</text>
</a>
</g>
</g>
<!-- Node1&#45;&gt;Node14 -->
<g id="edge27" class="edge"><title>Node1&#45;&gt;Node14</title>
<path fill="none" stroke="midnightblue" d="M55.1273,-776.199C76.6477,-840.532 155.189,-1041.66 296,-1041.66 296,-1041.66 296,-1041.66 439,-1041.66 544.228,-1041.66 574.131,-1052.64 675,-1022.66 710.391,-1012.15 747.33,-988.697 766.554,-975.384"/>
<polygon fill="midnightblue" stroke="midnightblue" points="58.3853,-774.9 51.9638,-766.473 51.7285,-777.065 58.3853,-774.9"/>
</g>
<!-- Node22 -->
<g id="node22" class="node"><title>Node22</title>
<g id="a_node22"><a xlink:href="a00356.html#ga11338742dc30fd0c2711f58eb830316f" target="_top" xlink:title="tds_send_cancel() sends an empty packet (8 byte header only) tds_process_cancel should be called dire...">
<polygon fill="white" stroke="black" points="132,-462.163 132,-481.163 229,-481.163 229,-462.163 132,-462.163"/>
<text text-anchor="middle" x="180.5" y="-469.163" font-family="Helvetica,sans-Serif" font-size="10.00">tds_send_cancel</text>
</a>
</g>
</g>
<!-- Node1&#45;&gt;Node22 -->
<g id="edge28" class="edge"><title>Node1&#45;&gt;Node22</title>
<path fill="none" stroke="midnightblue" d="M57.7866,-737.474C83.2048,-681.963 156.2,-522.548 175.027,-481.432"/>
<polygon fill="midnightblue" stroke="midnightblue" points="54.4732,-736.303 53.4921,-746.852 60.8377,-739.217 54.4732,-736.303"/>
</g>
<!-- Node28 -->
<g id="node28" class="node"><title>Node28</title>
<g id="a_node28"><a xlink:href="a00193.html#ade7df2db455b61edc83819ad60edb339" target="_top" xlink:title="Tell we finished sending BCP data to server. ">
<polygon fill="white" stroke="red" points="569.5,-120.163 569.5,-139.163 652.5,-139.163 652.5,-120.163 569.5,-120.163"/>
<text text-anchor="middle" x="611" y="-127.163" font-family="Helvetica,sans-Serif" font-size="10.00">tds_bcp_done</text>
</a>
</g>
</g>
<!-- Node1&#45;&gt;Node28 -->
<g id="edge67" class="edge"><title>Node1&#45;&gt;Node28</title>
<path fill="none" stroke="midnightblue" d="M51.7156,-737.046C65.1901,-648.379 133.757,-283.866 365,-156.663 429.677,-121.085 518.432,-121.195 569.451,-125.051"/>
<polygon fill="midnightblue" stroke="midnightblue" points="48.2332,-736.672 50.2522,-747.073 55.1598,-737.683 48.2332,-736.672"/>
</g>
<!-- Node29 -->
<g id="node29" class="node"><title>Node29</title>
<g id="a_node29"><a xlink:href="a00193.html#ac1e460551f1188620ea478238864ac4b" target="_top" xlink:title="Finish sending writetext data. ">
<polygon fill="white" stroke="red" points="560.5,-994.163 560.5,-1013.16 661.5,-1013.16 661.5,-994.163 560.5,-994.163"/>
<text text-anchor="middle" x="611" y="-1001.16" font-family="Helvetica,sans-Serif" font-size="10.00">tds_writetext_end</text>
</a>
</g>
</g>
<!-- Node1&#45;&gt;Node29 -->
<g id="edge68" class="edge"><title>Node1&#45;&gt;Node29</title>
<path fill="none" stroke="midnightblue" d="M80.0442,-770.331C181.561,-815.028 502.106,-956.159 588.416,-994.16"/>
<polygon fill="midnightblue" stroke="midnightblue" points="81.2107,-767.021 70.6481,-766.194 78.3899,-773.427 81.2107,-767.021"/>
</g>
<!-- Node3 -->
<g id="node3" class="node"><title>Node3</title>
<g id="a_node3"><a xlink:href="a00341.html#gaae889abeb145ec41f7361aa8f597fe46" target="_top" xlink:title="send the SQL command to the server and wait for an answer. ">
<polygon fill="white" stroke="black" points="265,-1070.16 265,-1089.16 329,-1089.16 329,-1070.16 265,-1070.16"/>
<text text-anchor="middle" x="297" y="-1077.16" font-family="Helvetica,sans-Serif" font-size="10.00">dbsqlexec</text>
</a>
</g>
</g>
<!-- Node2&#45;&gt;Node3 -->
<g id="edge2" class="edge"><title>Node2&#45;&gt;Node3</title>
<path fill="none" stroke="midnightblue" d="M217.27,-1079.66C232.46,-1079.66 250.009,-1079.66 264.678,-1079.66"/>
<polygon fill="midnightblue" stroke="midnightblue" points="217.196,-1076.16 207.196,-1079.66 217.196,-1083.16 217.196,-1076.16"/>
</g>
<!-- Node5 -->
<g id="node5" class="node"><title>Node5</title>
<g id="a_node5"><a xlink:href="a00341.html#ga548153eb2eae76c48aa9d4b72258dc1c" target="_top" xlink:title="Send text or image data to the server. ">
<polygon fill="white" stroke="black" points="747,-1051.16 747,-1070.16 815,-1070.16 815,-1051.16 747,-1051.16"/>
<text text-anchor="middle" x="781" y="-1058.16" font-family="Helvetica,sans-Serif" font-size="10.00">dbwritetext</text>
</a>
</g>
</g>
<!-- Node2&#45;&gt;Node5 -->
<g id="edge4" class="edge"><title>Node2&#45;&gt;Node5</title>
<path fill="none" stroke="midnightblue" d="M216.931,-1089.57C231.669,-1093.2 249.035,-1096.87 265,-1098.66 446.303,-1119.03 664.791,-1083 746.781,-1067.37"/>
<polygon fill="midnightblue" stroke="midnightblue" points="217.752,-1086.17 207.197,-1087.08 216.017,-1092.95 217.752,-1086.17"/>
</g>
<!-- Node4 -->
<g id="node4" class="node"><title>Node4</title>
<g id="a_node4"><a xlink:href="a00341.html#ga66ea891910f0a357cc78107d6ab7d962" target="_top" xlink:title="Change current database. ">
<polygon fill="white" stroke="black" points="416,-1070.16 416,-1089.16 460,-1089.16 460,-1070.16 416,-1070.16"/>
<text text-anchor="middle" x="438" y="-1077.16" font-family="Helvetica,sans-Serif" font-size="10.00">dbuse</text>
</a>
</g>
</g>
<!-- Node3&#45;&gt;Node4 -->
<g id="edge3" class="edge"><title>Node3&#45;&gt;Node4</title>
<path fill="none" stroke="midnightblue" d="M339.218,-1079.66C364.399,-1079.66 395.552,-1079.66 415.831,-1079.66"/>
<polygon fill="midnightblue" stroke="midnightblue" points="339.194,-1076.16 329.194,-1079.66 339.194,-1083.16 339.194,-1076.16"/>
</g>
<!-- Node7 -->
<g id="node7" class="node"><title>Node7</title>
<g id="a_node7"><a xlink:href="a00356.html#ga95e0fccedc459a4404f496eec74a369a" target="_top" xlink:title="tds_submit_query_params() sends a language string to the database server for processing. ">
<polygon fill="white" stroke="black" points="711,-500.163 711,-519.163 851,-519.163 851,-500.163 711,-500.163"/>
<text text-anchor="middle" x="781" y="-507.163" font-family="Helvetica,sans-Serif" font-size="10.00">tds_submit_query_params</text>
</a>
</g>
</g>
<!-- Node6&#45;&gt;Node7 -->
<g id="edge6" class="edge"><title>Node6&#45;&gt;Node7</title>
<path fill="none" stroke="midnightblue" d="M628.808,-644.791C648.218,-625.484 681.295,-593.119 711,-566.663 730.377,-549.405 753.836,-530.407 767.806,-519.283"/>
<polygon fill="midnightblue" stroke="midnightblue" points="626.213,-642.436 621.608,-651.978 631.158,-647.39 626.213,-642.436"/>
</g>
<!-- Node9 -->
<g id="node9" class="node"><title>Node9</title>
<g id="a_node9"><a xlink:href="a00356.html#gaf0da49585d39e99780a004ee2ca23479" target="_top" xlink:title="Send option commands to server. ">
<polygon fill="white" stroke="black" points="1042.5,-728.163 1042.5,-747.163 1163.5,-747.163 1163.5,-728.163 1042.5,-728.163"/>
<text text-anchor="middle" x="1103" y="-735.163" font-family="Helvetica,sans-Serif" font-size="10.00">tds_submit_optioncmd</text>
</a>
</g>
</g>
<!-- Node6&#45;&gt;Node9 -->
<g id="edge23" class="edge"><title>Node6&#45;&gt;Node9</title>
<path fill="none" stroke="midnightblue" d="M666.732,-673.956C669.544,-674.818 672.315,-675.721 675,-676.663 691.696,-682.521 693.978,-688.83 711,-693.663 825.177,-726.078 964.481,-734.76 1042.21,-736.994"/>
<polygon fill="midnightblue" stroke="midnightblue" points="667.65,-670.579 657.072,-671.187 665.721,-677.308 667.65,-670.579"/>
</g>
<!-- Node10 -->
<g id="node10" class="node"><title>Node10</title>
<g id="a_node10"><a xlink:href="a00356.html#ga7bf3670d3d6dabed469b9eb117298079" target="_top" xlink:title="Send a rollback request. ">
<polygon fill="white" stroke="black" points="1042,-652.163 1042,-671.163 1164,-671.163 1164,-652.163 1042,-652.163"/>
<text text-anchor="middle" x="1103" y="-659.163" font-family="Helvetica,sans-Serif" font-size="10.00">tds_submit_begin_tran</text>
</a>
</g>
</g>
<!-- Node6&#45;&gt;Node10 -->
<g id="edge24" class="edge"><title>Node6&#45;&gt;Node10</title>
<path fill="none" stroke="midnightblue" d="M679.44,-672.49C689.978,-673.809 700.765,-674.943 711,-675.663 841.788,-684.865 875.232,-685.148 1006,-675.663 1019.1,-674.712 1033.13,-673.041 1046.31,-671.177"/>
<polygon fill="midnightblue" stroke="midnightblue" points="679.81,-669.009 669.44,-671.178 678.899,-675.949 679.81,-669.009"/>
</g>
<!-- Node11 -->
<g id="node11" class="node"><title>Node11</title>
<g id="a_node11"><a xlink:href="a00356.html#ga9c1cdcc388506a2ca3c0aaee8c461ba6" target="_top" xlink:title="Send a rollback request. ">
<polygon fill="white" stroke="black" points="1049,-576.163 1049,-595.163 1157,-595.163 1157,-576.163 1049,-576.163"/>
<text text-anchor="middle" x="1103" y="-583.163" font-family="Helvetica,sans-Serif" font-size="10.00">tds_submit_rollback</text>
</a>
</g>
</g>
<!-- Node6&#45;&gt;Node11 -->
<g id="edge25" class="edge"><title>Node6&#45;&gt;Node11</title>
<path fill="none" stroke="midnightblue" d="M685.362,-666.063C734.292,-666.226 798.945,-660.973 851,-637.663 870.81,-628.792 867.138,-613.415 887,-604.663 938.607,-581.923 1003.84,-579.353 1048.85,-581.098"/>
<polygon fill="midnightblue" stroke="midnightblue" points="685.207,-662.561 675.169,-665.95 685.13,-669.561 685.207,-662.561"/>
</g>
<!-- Node12 -->
<g id="node12" class="node"><title>Node12</title>
<g id="a_node12"><a xlink:href="a00356.html#ga530538c4c975524cf0b771a550fc94a3" target="_top" xlink:title="Send a commit request. ">
<polygon fill="white" stroke="black" points="1050.5,-538.163 1050.5,-557.163 1155.5,-557.163 1155.5,-538.163 1050.5,-538.163"/>
<text text-anchor="middle" x="1103" y="-545.163" font-family="Helvetica,sans-Serif" font-size="10.00">tds_submit_commit</text>
</a>
</g>
</g>
<!-- Node6&#45;&gt;Node12 -->
<g id="edge26" class="edge"><title>Node6&#45;&gt;Node12</title>
<path fill="none" stroke="midnightblue" d="M661.165,-649.679C677.063,-645.821 694.774,-641.542 711,-637.663 773.175,-622.799 793.094,-631.747 851,-604.663 869.116,-596.189 868.51,-585.286 887,-577.663 939.787,-555.899 1005.39,-549.388 1050.16,-547.699"/>
<polygon fill="midnightblue" stroke="midnightblue" points="659.904,-646.383 651.013,-652.145 661.557,-653.185 659.904,-646.383"/>
</g>
<!-- Node13 -->
<g id="node13" class="node"><title>Node13</title>
<g id="a_node13"><a xlink:href="a00356.html#ga74eb08c3a1c85be8ac9db428842c8b9d" target="_top" xlink:title="tds_submit_prepare() creates a temporary stored procedure in the server. ">
<polygon fill="white" stroke="black" points="726,-386.163 726,-405.163 836,-405.163 836,-386.163 726,-386.163"/>
<text text-anchor="middle" x="781" y="-393.163" font-family="Helvetica,sans-Serif" font-size="10.00">tds_submit_prepare</text>
</a>
</g>
</g>
<!-- Node6&#45;&gt;Node13 -->
<g id="edge12" class="edge"><title>Node6&#45;&gt;Node13</title>
<path fill="none" stroke="midnightblue" d="M613.999,-642.169C619.836,-595.59 641.138,-477.076 711,-414.663 715.355,-410.772 720.437,-407.67 725.831,-405.197"/>
<polygon fill="midnightblue" stroke="midnightblue" points="610.516,-641.817 612.852,-652.151 617.471,-642.616 610.516,-641.817"/>
</g>
<!-- Node6&#45;&gt;Node14 -->
<g id="edge13" class="edge"><title>Node6&#45;&gt;Node14</title>
<path fill="none" stroke="midnightblue" d="M619.866,-681.323C635.295,-719.109 671.485,-804.029 711,-870.663 730.547,-903.625 758.597,-939.408 772.119,-956.092"/>
<polygon fill="midnightblue" stroke="midnightblue" points="622.917,-679.531 615.921,-671.574 616.428,-682.157 622.917,-679.531"/>
</g>
<!-- Node15 -->
<g id="node15" class="node"><title>Node15</title>
<g id="a_node15"><a xlink:href="a00356.html#ga08877c101704bebe4fa57e0849dc272d" target="_top" xlink:title="tds71_submit_prepexec() creates a temporary stored procedure in the server. ">
<polygon fill="white" stroke="black" points="717,-842.163 717,-861.163 845,-861.163 845,-842.163 717,-842.163"/>
<text text-anchor="middle" x="781" y="-849.163" font-family="Helvetica,sans-Serif" font-size="10.00">tds71_submit_prepexec</text>
</a>
</g>
</g>
<!-- Node6&#45;&gt;Node15 -->
<g id="edge14" class="edge"><title>Node6&#45;&gt;Node15</title>
<path fill="none" stroke="midnightblue" d="M623.928,-679.83C636.865,-699.707 657.951,-732.616 675,-761.663 691.914,-790.479 685.511,-806.058 711,-827.663 718.45,-833.977 727.661,-838.665 736.899,-842.132"/>
<polygon fill="midnightblue" stroke="midnightblue" points="626.685,-677.65 618.285,-671.193 620.825,-681.479 626.685,-677.65"/>
</g>
<!-- Node16 -->
<g id="node16" class="node"><title>Node16</title>
<g id="a_node16"><a xlink:href="a00356.html#ga3e7b4793c6f799fbc6c174f673bb5b32" target="_top" xlink:title="tds_submit_execute() sends a previously prepared dynamic statement to the server. ...">
<polygon fill="white" stroke="black" points="726.5,-576.163 726.5,-595.163 835.5,-595.163 835.5,-576.163 726.5,-576.163"/>
<text text-anchor="middle" x="781" y="-583.163" font-family="Helvetica,sans-Serif" font-size="10.00">tds_submit_execute</text>
</a>
</g>
</g>
<!-- Node6&#45;&gt;Node16 -->
<g id="edge15" class="edge"><title>Node6&#45;&gt;Node16</title>
<path fill="none" stroke="midnightblue" d="M637.386,-646.986C657.087,-635.927 685.285,-620.815 711,-609.663 723.334,-604.314 737.284,-599.28 749.397,-595.217"/>
<polygon fill="midnightblue" stroke="midnightblue" points="635.418,-644.078 628.445,-652.054 638.87,-650.167 635.418,-644.078"/>
</g>
<!-- Node17 -->
<g id="node17" class="node"><title>Node17</title>
<g id="a_node17"><a xlink:href="a00356.html#gaf573d8d4d2660c8c27770573fca05ff5" target="_top" xlink:title="Send a unprepare request for a prepared query. ">
<polygon fill="white" stroke="black" points="720.5,-462.163 720.5,-481.163 841.5,-481.163 841.5,-462.163 720.5,-462.163"/>
<text text-anchor="middle" x="781" y="-469.163" font-family="Helvetica,sans-Serif" font-size="10.00">tds_submit_unprepare</text>
</a>
</g>
</g>
<!-- Node6&#45;&gt;Node17 -->
<g id="edge16" class="edge"><title>Node6&#45;&gt;Node17</title>
<path fill="none" stroke="midnightblue" d="M617.835,-642.054C629.485,-606.354 659.074,-530.743 711,-490.663 716.016,-486.791 721.772,-483.708 727.774,-481.252"/>
<polygon fill="midnightblue" stroke="midnightblue" points="614.441,-641.18 614.79,-651.769 621.121,-643.273 614.441,-641.18"/>
</g>
<!-- Node19 -->
<g id="node19" class="node"><title>Node19</title>
<g id="a_node19"><a xlink:href="a00356.html#gaf614c75ea8f7ad411e53dac0e2f91be4" target="_top" xlink:title="Send RPC as string query. ">
<polygon fill="white" stroke="black" points="716,-766.163 716,-785.163 846,-785.163 846,-766.163 716,-766.163"/>
<text text-anchor="middle" x="781" y="-773.163" font-family="Helvetica,sans-Serif" font-size="10.00">tds_send_emulated_rpc</text>
</a>
</g>
</g>
<!-- Node6&#45;&gt;Node19 -->
<g id="edge18" class="edge"><title>Node6&#45;&gt;Node19</title>
<path fill="none" stroke="midnightblue" d="M626.878,-678.876C644.967,-698.856 677.28,-731.62 711,-751.663 721.03,-757.625 732.763,-762.401 743.679,-766.074"/>
<polygon fill="midnightblue" stroke="midnightblue" points="629.292,-676.323 620.034,-671.17 624.058,-680.971 629.292,-676.323"/>
</g>
<!-- Node20 -->
<g id="node20" class="node"><title>Node20</title>
<g id="a_node20"><a xlink:href="a00356.html#ga5f071b94ad7889690762dc85646c74ab" target="_top" xlink:title="tds_submit_rpc() call a RPC from server. ">
<polygon fill="white" stroke="red" points="903,-804.163 903,-823.163 990,-823.163 990,-804.163 903,-804.163"/>
<text text-anchor="middle" x="946.5" y="-811.163" font-family="Helvetica,sans-Serif" font-size="10.00">tds_submit_rpc</text>
</a>
</g>
</g>
<!-- Node6&#45;&gt;Node20 -->
<g id="edge20" class="edge"><title>Node6&#45;&gt;Node20</title>
<path fill="none" stroke="midnightblue" d="M622.923,-679.911C643.207,-713.125 686.822,-781.269 711,-794.663 771.025,-827.915 853.258,-825.706 902.7,-820.258"/>
<polygon fill="midnightblue" stroke="midnightblue" points="625.812,-677.925 617.639,-671.183 619.824,-681.55 625.812,-677.925"/>
</g>
<!-- Node21 -->
<g id="node21" class="node"><title>Node21</title>
<g id="a_node21"><a xlink:href="a00356.html#gab25de0567ac096e8f8e88490eeddf562" target="_top" xlink:title="Send a deallocation request to server. ">
<polygon fill="white" stroke="black" points="728,-424.163 728,-443.163 834,-443.163 834,-424.163 728,-424.163"/>
<text text-anchor="middle" x="781" y="-431.163" font-family="Helvetica,sans-Serif" font-size="10.00">tds_cursor_dealloc</text>
</a>
</g>
</g>
<!-- Node6&#45;&gt;Node21 -->
<g id="edge21" class="edge"><title>Node6&#45;&gt;Node21</title>
<path fill="none" stroke="midnightblue" d="M615.587,-642.124C624.23,-600.716 650.168,-503.752 711,-452.663 715.948,-448.508 721.732,-445.257 727.81,-442.714"/>
<polygon fill="midnightblue" stroke="midnightblue" points="612.133,-641.546 613.632,-652.035 619.001,-642.901 612.133,-641.546"/>
</g>
<!-- Node8 -->
<g id="node8" class="node"><title>Node8</title>
<g id="a_node8"><a xlink:href="a00356.html#ga5a29ae7f99d089dc3cea85ec6ee5f3ab" target="_top" xlink:title="tds_submit_query() sends a language string to the database server for processing. ...">
<polygon fill="white" stroke="red" points="897.5,-614.163 897.5,-633.163 995.5,-633.163 995.5,-614.163 897.5,-614.163"/>
<text text-anchor="middle" x="946.5" y="-621.163" font-family="Helvetica,sans-Serif" font-size="10.00">tds_submit_query</text>
</a>
</g>
</g>
<!-- Node7&#45;&gt;Node8 -->
<g id="edge7" class="edge"><title>Node7&#45;&gt;Node8</title>
<path fill="none" stroke="midnightblue" d="M828.273,-522.679C836.125,-525.742 843.996,-529.389 851,-533.663 888.326,-556.439 923.083,-596.027 937.929,-614.132"/>
<polygon fill="midnightblue" stroke="midnightblue" points="829.358,-519.35 818.764,-519.229 826.97,-525.93 829.358,-519.35"/>
</g>
<!-- Node8&#45;&gt;Node9 -->
<g id="edge8" class="edge"><title>Node8&#45;&gt;Node9</title>
<path fill="none" stroke="midnightblue" d="M968.744,-639.338C1001.16,-663.26 1062.04,-708.175 1088.8,-727.925"/>
<polygon fill="midnightblue" stroke="midnightblue" points="970.532,-636.307 960.407,-633.186 966.375,-641.94 970.532,-636.307"/>
</g>
<!-- Node8&#45;&gt;Node10 -->
<g id="edge9" class="edge"><title>Node8&#45;&gt;Node10</title>
<path fill="none" stroke="midnightblue" d="M996.452,-635.703C1018.04,-641.012 1043.04,-647.162 1063.29,-652.143"/>
<polygon fill="midnightblue" stroke="midnightblue" points="997.033,-632.242 986.487,-633.252 995.362,-639.039 997.033,-632.242"/>
</g>
<!-- Node8&#45;&gt;Node11 -->
<g id="edge10" class="edge"><title>Node8&#45;&gt;Node11</title>
<path fill="none" stroke="midnightblue" d="M996.452,-611.623C1018.04,-606.314 1043.04,-600.164 1063.29,-595.183"/>
<polygon fill="midnightblue" stroke="midnightblue" points="995.362,-608.287 986.487,-614.074 997.033,-615.084 995.362,-608.287"/>
</g>
<!-- Node8&#45;&gt;Node12 -->
<g id="edge11" class="edge"><title>Node8&#45;&gt;Node12</title>
<path fill="none" stroke="midnightblue" d="M969.395,-608.412C988.045,-595.93 1015.9,-578.468 1042,-566.663 1049.87,-563.106 1058.59,-559.935 1066.89,-557.25"/>
<polygon fill="midnightblue" stroke="midnightblue" points="967.334,-605.581 961.026,-614.093 971.266,-611.372 967.334,-605.581"/>
</g>
<!-- Node18 -->
<g id="node18" class="node"><title>Node18</title>
<g id="a_node18"><a xlink:href="a00359.html#ga69902dffb299d62a799888e0fa3ccd68" target="_top" xlink:title="Attempt to close all deferred closes (dynamics and cursors). ">
<polygon fill="white" stroke="red" points="887,-437.663 887,-467.663 1006,-467.663 1006,-437.663 887,-437.663"/>
<text text-anchor="start" x="895" y="-455.663" font-family="Helvetica,sans-Serif" font-size="10.00">tds_process_pending</text>
<text text-anchor="middle" x="946.5" y="-444.663" font-family="Helvetica,sans-Serif" font-size="10.00">_closes</text>
</a>
</g>
</g>
<!-- Node17&#45;&gt;Node18 -->
<g id="edge17" class="edge"><title>Node17&#45;&gt;Node18</title>
<path fill="none" stroke="midnightblue" d="M852.058,-463.522C863.678,-462.171 875.62,-460.783 886.918,-459.47"/>
<polygon fill="midnightblue" stroke="midnightblue" points="851.482,-460.065 841.953,-464.696 852.29,-467.018 851.482,-460.065"/>
</g>
<!-- Node19&#45;&gt;Node20 -->
<g id="edge19" class="edge"><title>Node19&#45;&gt;Node20</title>
<path fill="none" stroke="midnightblue" d="M833.184,-787.559C856.166,-792.9 882.913,-799.117 904.539,-804.143"/>
<polygon fill="midnightblue" stroke="midnightblue" points="833.791,-784.107 823.258,-785.252 832.206,-790.925 833.791,-784.107"/>
</g>
<!-- Node21&#45;&gt;Node18 -->
<g id="edge22" class="edge"><title>Node21&#45;&gt;Node18</title>
<path fill="none" stroke="midnightblue" d="M844.177,-440.888C858.135,-442.51 872.901,-444.226 886.715,-445.832"/>
<polygon fill="midnightblue" stroke="midnightblue" points="844.519,-437.405 834.182,-439.727 843.711,-444.358 844.519,-437.405"/>
</g>
<!-- Node23 -->
<g id="node23" class="node"><title>Node23</title>
<g id="a_node23"><a xlink:href="a00341.html#ga5ea23272124fff03b8d87538c1ec3ee5" target="_top" xlink:title="Cancel the current command batch. ">
<polygon fill="white" stroke="black" points="267.5,-462.163 267.5,-481.163 326.5,-481.163 326.5,-462.163 267.5,-462.163"/>
<text text-anchor="middle" x="297" y="-469.163" font-family="Helvetica,sans-Serif" font-size="10.00">dbcancel</text>
</a>
</g>
</g>
<!-- Node22&#45;&gt;Node23 -->
<g id="edge29" class="edge"><title>Node22&#45;&gt;Node23</title>
<path fill="none" stroke="midnightblue" d="M239.228,-471.663C249.021,-471.663 258.795,-471.663 267.404,-471.663"/>
<polygon fill="midnightblue" stroke="midnightblue" points="239.064,-468.163 229.064,-471.663 239.064,-475.163 239.064,-468.163"/>
</g>
<!-- Node24 -->
<g id="node24" class="node"><title>Node24</title>
<g id="a_node24"><a xlink:href="a00193.html#abf18b98efef6ce2dc0b97d658a3a1918" target="_top" xlink:title="Call the client library&#39;s error handler (for library&#45;generated errors only) ">
<polygon fill="white" stroke="black" points="270,-291.163 270,-310.163 324,-310.163 324,-291.163 270,-291.163"/>
<text text-anchor="middle" x="297" y="-298.163" font-family="Helvetica,sans-Serif" font-size="10.00">tdserror</text>
</a>
</g>
</g>
<!-- Node22&#45;&gt;Node24 -->
<g id="edge30" class="edge"><title>Node22&#45;&gt;Node24</title>
<path fill="none" stroke="midnightblue" d="M193.731,-453.397C217.932,-417.254 271.176,-337.736 289.587,-310.24"/>
<polygon fill="midnightblue" stroke="midnightblue" points="190.64,-451.723 187.984,-461.979 196.456,-455.617 190.64,-451.723"/>
</g>
<!-- Node25 -->
<g id="node25" class="node"><title>Node25</title>
<g id="a_node25"><a xlink:href="a00352.html#ga9af192306186ddf39e09be0fd4ad8aaf" target="_top" xlink:title="tds_read_config_info() will fill the tds connection structure based on configuration information gath...">
<polygon fill="white" stroke="red" points="380,-310.163 380,-329.163 496,-329.163 496,-310.163 380,-310.163"/>
<text text-anchor="middle" x="438" y="-317.163" font-family="Helvetica,sans-Serif" font-size="10.00">tds_read_config_info</text>
</a>
</g>
</g>
<!-- Node24&#45;&gt;Node25 -->
<g id="edge31" class="edge"><title>Node24&#45;&gt;Node25</title>
<path fill="none" stroke="midnightblue" d="M334.288,-305.623C348.212,-307.526 364.463,-309.748 379.874,-311.854"/>
<polygon fill="midnightblue" stroke="midnightblue" points="334.527,-302.123 324.145,-304.237 333.579,-309.059 334.527,-302.123"/>
</g>
<!-- Node26 -->
<g id="node26" class="node"><title>Node26</title>
<g id="a_node26"><a xlink:href="a00263.html#a9d8eb43a81ff58ab423dce0ce95b9564" target="_top" xlink:title="Reads and writes from a stream converting characters. ">
<polygon fill="white" stroke="red" points="383,-272.163 383,-291.163 493,-291.163 493,-272.163 383,-272.163"/>
<text text-anchor="middle" x="438" y="-279.163" font-family="Helvetica,sans-Serif" font-size="10.00">tds_convert_stream</text>
</a>
</g>
</g>
<!-- Node24&#45;&gt;Node26 -->
<g id="edge32" class="edge"><title>Node24&#45;&gt;Node26</title>
<path fill="none" stroke="midnightblue" d="M334.39,-295.689C349.166,-293.669 366.549,-291.293 382.764,-289.076"/>
<polygon fill="midnightblue" stroke="midnightblue" points="333.579,-292.267 324.145,-297.089 334.527,-299.202 333.579,-292.267"/>
</g>
<!-- Node27 -->
<g id="node27" class="node"><title>Node27</title>
<g id="a_node27"><a xlink:href="a00193.html#a16db200d2281f76fe46fc1cbe37ca9df" target="_top" xlink:title="Set state of TDS connection, with logging and checking. ">
<polygon fill="white" stroke="red" points="398,-500.163 398,-519.163 478,-519.163 478,-500.163 398,-500.163"/>
<text text-anchor="middle" x="438" y="-507.163" font-family="Helvetica,sans-Serif" font-size="10.00">tds_set_state</text>
</a>
</g>
</g>
<!-- Node24&#45;&gt;Node27 -->
<g id="edge33" class="edge"><title>Node24&#45;&gt;Node27</title>
<path fill="none" stroke="midnightblue" d="M299.596,-320.382C303.676,-357.839 317.779,-439.641 365,-485.663 373.87,-494.307 385.933,-499.839 397.649,-503.379"/>
<polygon fill="midnightblue" stroke="midnightblue" points="303.065,-319.89 298.626,-310.27 296.097,-320.558 303.065,-319.89"/>
</g>
<!-- Node30 -->
<g id="node30" class="node"><title>Node30</title>
<g id="a_node30"><a xlink:href="a00357.html#ga3e3f76009fce5ceedb2f42bb2c9aed2e" target="_top" xlink:title="Close current socket for last socket close entire connection for MARS send FIN request. ">
<polygon fill="white" stroke="red" points="562,-158.163 562,-177.163 660,-177.163 660,-158.163 562,-158.163"/>
<text text-anchor="middle" x="611" y="-165.163" font-family="Helvetica,sans-Serif" font-size="10.00">tds_close_socket</text>
</a>
</g>
</g>
<!-- Node24&#45;&gt;Node30 -->
<g id="edge56" class="edge"><title>Node24&#45;&gt;Node30</title>
<path fill="none" stroke="midnightblue" d="M304.566,-281.307C313.887,-257.081 333.419,-216.381 365,-196.663 424.947,-159.233 509.396,-158.006 561.86,-161.862"/>
<polygon fill="midnightblue" stroke="midnightblue" points="301.221,-280.264 301.094,-290.858 307.8,-282.656 301.221,-280.264"/>
</g>
<!-- Node31 -->
<g id="node31" class="node"><title>Node31</title>
<g id="a_node31"><a xlink:href="a00357.html#ga6f2ae00407f59fb1ab280fa44a56295e" target="_top" xlink:title="Loops until we have received some characters return &#45;1 on failure. ">
<polygon fill="white" stroke="black" points="739.5,-196.163 739.5,-215.163 822.5,-215.163 822.5,-196.163 739.5,-196.163"/>
<text text-anchor="middle" x="781" y="-203.163" font-family="Helvetica,sans-Serif" font-size="10.00">tds_goodread</text>
</a>
</g>
</g>
<!-- Node24&#45;&gt;Node31 -->
<g id="edge61" class="edge"><title>Node24&#45;&gt;Node31</title>
<path fill="none" stroke="midnightblue" d="M319.566,-285.524C332.221,-277.403 348.856,-267.994 365,-262.663 496.808,-219.137 537.76,-245.474 675,-224.663 696.246,-221.441 719.797,-217.238 739.201,-213.604"/>
<polygon fill="midnightblue" stroke="midnightblue" points="317.513,-282.686 311.118,-291.133 321.385,-288.517 317.513,-282.686"/>
</g>
<!-- Node32 -->
<g id="node32" class="node"><title>Node32</title>
<g id="a_node32"><a xlink:href="a00357.html#ga8e2ae330b1b012eafecca4ddfe5a6593" target="_top" xlink:title="tds_goodwrite">
<polygon fill="white" stroke="black" points="739.5,-44.1628 739.5,-63.1628 822.5,-63.1628 822.5,-44.1628 739.5,-44.1628"/>
<text text-anchor="middle" x="781" y="-51.1628" font-family="Helvetica,sans-Serif" font-size="10.00">tds_goodwrite</text>
</a>
</g>
</g>
<!-- Node24&#45;&gt;Node32 -->
<g id="edge62" class="edge"><title>Node24&#45;&gt;Node32</title>
<path fill="none" stroke="midnightblue" d="M297.918,-280.771C298.929,-239.135 307.694,-142.848 365,-96.6628 421.821,-50.8684 646.303,-50.5242 739.308,-52.4531"/>
<polygon fill="midnightblue" stroke="midnightblue" points="294.416,-280.94 297.804,-290.979 301.415,-281.018 294.416,-280.94"/>
</g>
<!-- Node33 -->
<g id="node33" class="node"><title>Node33</title>
<g id="a_node33"><a xlink:href="a00357.html#ga410619783bdf2bb60b0f27a5578e0e07" target="_top" xlink:title="Read in one &#39;packet&#39; from the server. ">
<polygon fill="white" stroke="red" points="733,-120.163 733,-139.163 829,-139.163 829,-120.163 733,-120.163"/>
<text text-anchor="middle" x="781" y="-127.163" font-family="Helvetica,sans-Serif" font-size="10.00">tds_read_packet</text>
</a>
</g>
</g>
<!-- Node24&#45;&gt;Node33 -->
<g id="edge65" class="edge"><title>Node24&#45;&gt;Node33</title>
<path fill="none" stroke="midnightblue" d="M301.604,-280.758C308.335,-249.486 325.841,-189.077 365,-156.663 476.932,-64.0103 669.349,-100.346 746.533,-120.126"/>
<polygon fill="midnightblue" stroke="midnightblue" points="298.114,-280.364 299.592,-290.856 304.979,-281.733 298.114,-280.364"/>
</g>
<!-- Node34 -->
<g id="node34" class="node"><title>Node34</title>
<g id="a_node34"><a xlink:href="a00359.html#ga39453d084f3f780ac4602d4abf2839f7" target="_top" xlink:title="tds_process_default_tokens() is a catch all function that is called to process tokens not known to ot...">
<polygon fill="white" stroke="red" points="725,-247.663 725,-277.663 837,-277.663 837,-247.663 725,-247.663"/>
<text text-anchor="start" x="733" y="-265.663" font-family="Helvetica,sans-Serif" font-size="10.00">tds_process_default</text>
<text text-anchor="middle" x="781" y="-254.663" font-family="Helvetica,sans-Serif" font-size="10.00">_tokens</text>
</a>
</g>
</g>
<!-- Node24&#45;&gt;Node34 -->
<g id="edge66" class="edge"><title>Node24&#45;&gt;Node34</title>
<path fill="none" stroke="midnightblue" d="M300.008,-320.507C304.634,-354.469 319.422,-422.944 365,-452.663 419.355,-488.105 459.95,-492.719 511,-452.663 563.918,-411.14 498.086,-351.834 547,-305.663 594.412,-260.909 672.432,-255.09 724.984,-257.149"/>
<polygon fill="midnightblue" stroke="midnightblue" points="303.464,-319.931 298.799,-310.418 296.513,-320.764 303.464,-319.931"/>
</g>
<!-- Node35 -->
<g id="node35" class="node"><title>Node35</title>
<g id="a_node35"><a xlink:href="a00294.html#a3118c7232bc9c3e47f8ba872bb39e967" target="_top" xlink:title="Help to build query to be sent to server. ">
<polygon fill="white" stroke="red" points="365,-424.163 365,-443.163 511,-443.163 511,-424.163 365,-424.163"/>
<text text-anchor="middle" x="438" y="-431.163" font-family="Helvetica,sans-Serif" font-size="10.00">tds7_build_bulk_insert_stmt</text>
</a>
</g>
</g>
<!-- Node24&#45;&gt;Node35 -->
<g id="edge55" class="edge"><title>Node24&#45;&gt;Node35</title>
<path fill="none" stroke="midnightblue" d="M304.127,-320.006C313.237,-345.587 332.827,-390.269 365,-414.663 370.151,-418.568 376.036,-421.673 382.173,-424.141"/>
<polygon fill="midnightblue" stroke="midnightblue" points="307.373,-318.681 300.857,-310.327 300.742,-320.922 307.373,-318.681"/>
</g>
<!-- Node36 -->
<g id="node36" class="node"><title>Node36</title>
<g id="a_node36"><a xlink:href="a00357.html#ga8560e2536fdcf8f1514d4fa14f90876c" target="_top" xlink:title="Read from an OS socket &#160;remove tds, save error somewhere, report error in another way...">
<polygon fill="white" stroke="black" points="563.5,-196.163 563.5,-215.163 658.5,-215.163 658.5,-196.163 563.5,-196.163"/>
<text text-anchor="middle" x="611" y="-203.163" font-family="Helvetica,sans-Serif" font-size="10.00">tds_socket_read</text>
</a>
</g>
</g>
<!-- Node24&#45;&gt;Node36 -->
<g id="edge57" class="edge"><title>Node24&#45;&gt;Node36</title>
<path fill="none" stroke="midnightblue" d="M309.417,-282.529C321.126,-265.669 340.991,-241.439 365,-229.663 428.312,-198.609 511.789,-197.615 563.136,-200.833"/>
<polygon fill="midnightblue" stroke="midnightblue" points="306.4,-280.746 303.777,-291.011 312.229,-284.622 306.4,-280.746"/>
</g>
<!-- Node37 -->
<g id="node37" class="node"><title>Node37</title>
<g id="a_node37"><a xlink:href="a00357.html#ga68dcd18d494d16599e9237f9bdb2f3a4" target="_top" xlink:title="Write to an OS socket. ">
<polygon fill="white" stroke="black" points="563,-6.16284 563,-25.1628 659,-25.1628 659,-6.16284 563,-6.16284"/>
<text text-anchor="middle" x="611" y="-13.1628" font-family="Helvetica,sans-Serif" font-size="10.00">tds_socket_write</text>
</a>
</g>
</g>
<!-- Node24&#45;&gt;Node37 -->
<g id="edge59" class="edge"><title>Node24&#45;&gt;Node37</title>
<path fill="none" stroke="midnightblue" d="M300.181,-280.817C306.688,-225.49 327.859,-71.4954 365,-39.6628 420.49,7.8962 511.164,2.62771 565.259,-6.11403"/>
<polygon fill="midnightblue" stroke="midnightblue" points="296.67,-280.714 299.014,-291.046 303.625,-281.507 296.67,-280.714"/>
</g>
<!-- Node38 -->
<g id="node38" class="node"><title>Node38</title>
<g id="a_node38"><a xlink:href="a00357.html#ga77f4f1fcf8fabffacd0c96d6eb2854cf" target="_top" xlink:title="Get port of all instances. ">
<polygon fill="white" stroke="black" points="371,-386.163 371,-405.163 505,-405.163 505,-386.163 371,-386.163"/>
<text text-anchor="middle" x="438" y="-393.163" font-family="Helvetica,sans-Serif" font-size="10.00">tds7_get_instance_ports</text>
</a>
</g>
</g>
<!-- Node24&#45;&gt;Node38 -->
<g id="edge63" class="edge"><title>Node24&#45;&gt;Node38</title>
<path fill="none" stroke="midnightblue" d="M309.402,-318.923C321.215,-336.332 341.259,-362.005 365,-376.663 371.27,-380.534 378.317,-383.623 385.485,-386.087"/>
<polygon fill="midnightblue" stroke="midnightblue" points="312.116,-316.679 303.715,-310.224 306.257,-320.509 312.116,-316.679"/>
</g>
<!-- Node39 -->
<g id="node39" class="node"><title>Node39</title>
<g id="a_node39"><a xlink:href="a00357.html#gafdc99b77128b87eba84cd332d325960b" target="_top" xlink:title="Get port of given instance. ">
<polygon fill="white" stroke="black" points="374,-348.163 374,-367.163 502,-367.163 502,-348.163 374,-348.163"/>
<text text-anchor="middle" x="438" y="-355.163" font-family="Helvetica,sans-Serif" font-size="10.00">tds7_get_instance_port</text>
</a>
</g>
</g>
<!-- Node24&#45;&gt;Node39 -->
<g id="edge64" class="edge"><title>Node24&#45;&gt;Node39</title>
<path fill="none" stroke="midnightblue" d="M320.846,-315.577C333.465,-323.306 349.654,-332.409 365,-338.663 373.979,-342.322 383.877,-345.468 393.384,-348.087"/>
<polygon fill="midnightblue" stroke="midnightblue" points="322.683,-312.597 312.351,-310.252 318.965,-318.529 322.683,-312.597"/>
</g>
<!-- Node27&#45;&gt;Node6 -->
<g id="edge34" class="edge"><title>Node27&#45;&gt;Node6</title>
<path fill="none" stroke="midnightblue" d="M457.437,-526.052C493.181,-557.824 570.882,-626.891 599.307,-652.158"/>
<polygon fill="midnightblue" stroke="midnightblue" points="459.496,-523.199 449.697,-519.171 454.846,-528.431 459.496,-523.199"/>
</g>
<!-- Node27&#45;&gt;Node7 -->
<g id="edge35" class="edge"><title>Node27&#45;&gt;Node7</title>
<path fill="none" stroke="midnightblue" d="M488.206,-509.663C546.672,-509.663 644.601,-509.663 710.711,-509.663"/>
<polygon fill="midnightblue" stroke="midnightblue" points="488.117,-506.163 478.117,-509.663 488.117,-513.163 488.117,-506.163"/>
</g>
<!-- Node27&#45;&gt;Node9 -->
<g id="edge43" class="edge"><title>Node27&#45;&gt;Node9</title>
<path fill="none" stroke="midnightblue" d="M440.454,-529.363C445.421,-583.035 466.212,-733.636 547,-820.663 601.037,-878.874 633.225,-875.55 711,-891.663 841.927,-918.787 893.571,-905.034 1006,-832.663 1044.25,-808.042 1079.66,-766.18 1094.57,-747.348"/>
<polygon fill="midnightblue" stroke="midnightblue" points="443.923,-528.849 439.598,-519.177 436.947,-529.435 443.923,-528.849"/>
</g>
<!-- Node27&#45;&gt;Node10 -->
<g id="edge44" class="edge"><title>Node27&#45;&gt;Node10</title>
<path fill="none" stroke="midnightblue" d="M488.132,-516.154C596.616,-530.528 847.352,-563.986 851,-566.663 881.135,-588.771 856.328,-621.304 887,-642.663 932.818,-674.569 998.135,-675.771 1044.73,-671.202"/>
<polygon fill="midnightblue" stroke="midnightblue" points="488.463,-512.668 478.09,-514.825 487.544,-519.607 488.463,-512.668"/>
</g>
<!-- Node27&#45;&gt;Node11 -->
<g id="edge45" class="edge"><title>Node27&#45;&gt;Node11</title>
<path fill="none" stroke="midnightblue" d="M487.819,-496.522C496.219,-492.704 504.367,-487.838 511,-481.663 538.356,-456.196 517.285,-428.333 547,-405.663 654.907,-323.338 716.986,-355.182 851,-376.663 922.608,-388.141 956.398,-374.756 1006,-427.663 1049.65,-474.218 998.093,-520.353 1042,-566.663 1045.68,-570.548 1050.16,-573.642 1054.98,-576.105"/>
<polygon fill="midnightblue" stroke="midnightblue" points="486.236,-493.387 478.294,-500.401 488.876,-499.87 486.236,-493.387"/>
</g>
<!-- Node27&#45;&gt;Node12 -->
<g id="edge46" class="edge"><title>Node27&#45;&gt;Node12</title>
<path fill="none" stroke="midnightblue" d="M487.721,-497.987C496.427,-494.02 504.712,-488.724 511,-481.663 553.154,-434.326 496.84,-382.416 547,-343.663 627.716,-281.302 919.878,-289.009 1006,-343.663 1077.72,-389.175 1096.83,-504.108 1100.99,-538.071"/>
<polygon fill="midnightblue" stroke="midnightblue" points="486.176,-494.835 478.184,-501.79 488.769,-501.337 486.176,-494.835"/>
</g>
<!-- Node27&#45;&gt;Node13 -->
<g id="edge36" class="edge"><title>Node27&#45;&gt;Node13</title>
<path fill="none" stroke="midnightblue" d="M487.605,-496.804C495.701,-493.733 503.799,-490.043 511,-485.663 530.065,-474.065 527.433,-461.392 547,-450.663 603.306,-419.789 676.515,-406.148 725.716,-400.185"/>
<polygon fill="midnightblue" stroke="midnightblue" points="486.425,-493.509 478.154,-500.129 488.749,-500.112 486.425,-493.509"/>
</g>
<!-- Node27&#45;&gt;Node14 -->
<g id="edge37" class="edge"><title>Node27&#45;&gt;Node14</title>
<path fill="none" stroke="midnightblue" d="M440.973,-529.378C449.108,-606.455 482.687,-885.91 547,-941.663 598.16,-986.014 681.333,-982.826 733.236,-975.176"/>
<polygon fill="midnightblue" stroke="midnightblue" points="444.427,-528.754 439.92,-519.165 437.464,-529.471 444.427,-528.754"/>
</g>
<!-- Node27&#45;&gt;Node15 -->
<g id="edge38" class="edge"><title>Node27&#45;&gt;Node15</title>
<path fill="none" stroke="midnightblue" d="M448.337,-528.105C465.366,-560.783 503.725,-630.163 547,-680.663 609.927,-754.095 628.621,-773.009 711,-823.663 723.224,-831.179 737.82,-837.442 750.432,-842.124"/>
<polygon fill="midnightblue" stroke="midnightblue" points="451.444,-526.493 443.756,-519.203 445.22,-529.696 451.444,-526.493"/>
</g>
<!-- Node27&#45;&gt;Node16 -->
<g id="edge39" class="edge"><title>Node27&#45;&gt;Node16</title>
<path fill="none" stroke="midnightblue" d="M463.101,-524.276C484.379,-536.429 516.649,-553.077 547,-561.663 606.869,-578.599 678.402,-583.864 726.272,-585.359"/>
<polygon fill="midnightblue" stroke="midnightblue" points="464.822,-521.228 454.419,-519.217 461.297,-527.276 464.822,-521.228"/>
</g>
<!-- Node27&#45;&gt;Node17 -->
<g id="edge40" class="edge"><title>Node27&#45;&gt;Node17</title>
<path fill="none" stroke="midnightblue" d="M488.314,-504.167C549.664,-497.331 654.346,-485.665 720.206,-478.326"/>
<polygon fill="midnightblue" stroke="midnightblue" points="487.668,-500.718 478.117,-505.304 488.443,-507.675 487.668,-500.718"/>
</g>
<!-- Node27&#45;&gt;Node20 -->
<g id="edge41" class="edge"><title>Node27&#45;&gt;Node20</title>
<path fill="none" stroke="midnightblue" d="M443.789,-529.34C455.328,-573.582 488.155,-682.661 547,-754.663 603.497,-823.792 625.917,-843.614 711,-870.663 770.298,-889.514 791.055,-887.342 851,-870.663 884.225,-861.418 917.447,-836.994 934.244,-823.307"/>
<polygon fill="midnightblue" stroke="midnightblue" points="447.158,-528.386 441.312,-519.551 440.372,-530.104 447.158,-528.386"/>
</g>
<!-- Node27&#45;&gt;Node21 -->
<g id="edge42" class="edge"><title>Node27&#45;&gt;Node21</title>
<path fill="none" stroke="midnightblue" d="M482.323,-497.358C501.99,-491.946 525.594,-485.69 547,-480.663 608.866,-466.132 680.617,-452.076 727.972,-443.181"/>
<polygon fill="midnightblue" stroke="midnightblue" points="481.131,-494.056 472.429,-500.101 483.001,-500.802 481.131,-494.056"/>
</g>
<!-- Node27&#45;&gt;Node28 -->
<g id="edge47" class="edge"><title>Node27&#45;&gt;Node28</title>
<path fill="none" stroke="midnightblue" d="M466.965,-494.883C482.604,-485.077 500.924,-470.696 511,-452.663 577.361,-333.889 459.572,-252.909 547,-148.663 552.726,-141.835 560.811,-137.404 569.287,-134.544"/>
<polygon fill="midnightblue" stroke="midnightblue" points="464.959,-492.003 458.15,-500.12 468.535,-498.021 464.959,-492.003"/>
</g>
<!-- Node27&#45;&gt;Node29 -->
<g id="edge48" class="edge"><title>Node27&#45;&gt;Node29</title>
<path fill="none" stroke="midnightblue" d="M441.083,-529.567C449.861,-609.975 486.218,-909.848 547,-979.663 552.533,-986.019 559.938,-990.698 567.723,-994.141"/>
<polygon fill="midnightblue" stroke="midnightblue" points="444.534,-528.92 439.988,-519.35 437.573,-529.665 444.534,-528.92"/>
</g>
<!-- Node27&#45;&gt;Node30 -->
<g id="edge50" class="edge"><title>Node27&#45;&gt;Node30</title>
<path fill="none" stroke="midnightblue" d="M466.855,-494.821C482.456,-484.993 500.775,-470.612 511,-452.663 570.054,-349.004 469.58,-277.43 547,-186.663 551.003,-181.969 556.121,-178.41 561.705,-175.716"/>
<polygon fill="midnightblue" stroke="midnightblue" points="464.855,-491.939 458.066,-500.073 468.446,-497.948 464.855,-491.939"/>
</g>
<!-- Node29&#45;&gt;Node5 -->
<g id="edge49" class="edge"><title>Node29&#45;&gt;Node5</title>
<path fill="none" stroke="midnightblue" d="M649.702,-1016.45C680.644,-1026.95 723.772,-1041.59 751.789,-1051.09"/>
<polygon fill="midnightblue" stroke="midnightblue" points="650.714,-1013.1 640.119,-1013.2 648.465,-1019.73 650.714,-1013.1"/>
</g>
<!-- Node30&#45;&gt;Node31 -->
<g id="edge51" class="edge"><title>Node30&#45;&gt;Node31</title>
<path fill="none" stroke="midnightblue" d="M664.469,-179.531C688.626,-184.995 716.853,-191.38 739.359,-196.47"/>
<polygon fill="midnightblue" stroke="midnightblue" points="664.919,-176.044 654.393,-177.252 663.375,-182.872 664.919,-176.044"/>
</g>
<!-- Node30&#45;&gt;Node32 -->
<g id="edge52" class="edge"><title>Node30&#45;&gt;Node32</title>
<path fill="none" stroke="midnightblue" d="M664.181,-154.324C667.947,-152.642 671.597,-150.762 675,-148.663 694.801,-136.45 694,-126.545 711,-110.663 729.847,-93.0543 753.264,-74.315 767.4,-63.3152"/>
<polygon fill="midnightblue" stroke="midnightblue" points="662.656,-151.164 654.655,-158.109 665.241,-157.669 662.656,-151.164"/>
</g>
<!-- Node30&#45;&gt;Node33 -->
<g id="edge53" class="edge"><title>Node30&#45;&gt;Node33</title>
<path fill="none" stroke="midnightblue" d="M664.276,-155.839C687.961,-150.481 715.59,-144.232 737.911,-139.183"/>
<polygon fill="midnightblue" stroke="midnightblue" points="663.375,-152.454 654.393,-158.074 664.919,-159.281 663.375,-152.454"/>
</g>
<!-- Node30&#45;&gt;Node34 -->
<g id="edge54" class="edge"><title>Node30&#45;&gt;Node34</title>
<path fill="none" stroke="midnightblue" d="M664.181,-181.002C667.947,-182.684 671.597,-184.564 675,-186.663 694.801,-198.876 692.591,-210.437 711,-224.663 722.254,-233.359 735.752,-241.262 747.813,-247.579"/>
<polygon fill="midnightblue" stroke="midnightblue" points="665.241,-177.657 654.655,-177.217 662.656,-184.162 665.241,-177.657"/>
</g>
<!-- Node36&#45;&gt;Node31 -->
<g id="edge58" class="edge"><title>Node36&#45;&gt;Node31</title>
<path fill="none" stroke="midnightblue" d="M668.853,-205.663C692.019,-205.663 718.272,-205.663 739.444,-205.663"/>
<polygon fill="midnightblue" stroke="midnightblue" points="668.797,-202.163 658.797,-205.663 668.797,-209.163 668.797,-202.163"/>
</g>
<!-- Node37&#45;&gt;Node32 -->
<g id="edge60" class="edge"><title>Node37&#45;&gt;Node32</title>
<path fill="none" stroke="midnightblue" d="M664.469,-27.5308C688.626,-32.9949 716.853,-39.3795 739.359,-44.4702"/>
<polygon fill="midnightblue" stroke="midnightblue" points="664.919,-24.0443 654.393,-25.2518 663.375,-30.8719 664.919,-24.0443"/>
</g>
</g>
</svg>
