<?xml version="1.0" encoding="UTF-8" standalone="no"?>
<!DOCTYPE svg PUBLIC "-//W3C//DTD SVG 1.1//EN"
 "http://www.w3.org/Graphics/SVG/1.1/DTD/svg11.dtd">
<!-- Generated by graphviz version 2.38.0 (20140413.2041)
 -->
<!-- Title: tds7_process_result Pages: 1 -->
<svg width="875pt" height="516pt"
 viewBox="0.00 0.00 875.00 516.19" xmlns="http://www.w3.org/2000/svg" xmlns:xlink="http://www.w3.org/1999/xlink">
<g id="graph0" class="graph" transform="scale(1 1) rotate(0) translate(4 512.191)">
<title>tds7_process_result</title>
<polygon fill="white" stroke="none" points="-4,4 -4,-512.191 871,-512.191 871,4 -4,4"/>
<!-- Node1 -->
<g id="node1" class="node"><title>Node1</title>
<polygon fill="#bfbfbf" stroke="black" points="0,-484.916 0,-503.916 112,-503.916 112,-484.916 0,-484.916"/>
<text text-anchor="middle" x="56" y="-491.916" font-family="Helvetica,sans-Serif" font-size="10.00">tds7_process_result</text>
</g>
<!-- Node2 -->
<g id="node2" class="node"><title>Node2</title>
<g id="a_node2"><a xlink:href="a00359.html#ga39453d084f3f780ac4602d4abf2839f7" target="_top" xlink:title="tds_process_default_tokens() is a catch all function that is called to process tokens not known to ot...">
<polygon fill="white" stroke="black" points="148,-425.416 148,-455.416 260,-455.416 260,-425.416 148,-425.416"/>
<text text-anchor="start" x="156" y="-443.416" font-family="Helvetica,sans-Serif" font-size="10.00">tds_process_default</text>
<text text-anchor="middle" x="204" y="-432.416" font-family="Helvetica,sans-Serif" font-size="10.00">_tokens</text>
</a>
</g>
</g>
<!-- Node1&#45;&gt;Node2 -->
<g id="edge1" class="edge"><title>Node1&#45;&gt;Node2</title>
<path fill="none" stroke="midnightblue" d="M92.3189,-481.353C113.433,-473.544 140.341,-463.591 162.339,-455.455"/>
<polygon fill="midnightblue" stroke="midnightblue" points="90.9307,-478.135 82.7658,-484.886 93.359,-484.7 90.9307,-478.135"/>
</g>
<!-- Node4 -->
<g id="node4" class="node"><title>Node4</title>
<g id="a_node4"><a xlink:href="a00359.html#gabfc9de1d1fe718818caf63a4be4035a6" target="_top" xlink:title="process all streams. ">
<polygon fill="white" stroke="black" points="432,-292.916 432,-311.916 544,-311.916 544,-292.916 432,-292.916"/>
<text text-anchor="middle" x="488" y="-299.916" font-family="Helvetica,sans-Serif" font-size="10.00">tds_process_tokens</text>
</a>
</g>
</g>
<!-- Node1&#45;&gt;Node4 -->
<g id="edge23" class="edge"><title>Node1&#45;&gt;Node4</title>
<path fill="none" stroke="midnightblue" d="M122.104,-504.204C194.875,-511.636 313.324,-512.899 396,-459.416 451.814,-423.31 477.442,-340.067 484.727,-311.917"/>
<polygon fill="midnightblue" stroke="midnightblue" points="122.468,-500.723 112.148,-503.12 121.71,-507.682 122.468,-500.723"/>
</g>
<!-- Node3 -->
<g id="node3" class="node"><title>Node3</title>
<g id="a_node3"><a xlink:href="a00359.html#ga93945b42d45ee28ae1296b35a1c1e9bb" target="_top" xlink:title="tds_process_login_tokens() is called after sending the login packet to the server. ">
<polygon fill="white" stroke="black" points="727,-444.916 727,-463.916 867,-463.916 867,-444.916 727,-444.916"/>
<text text-anchor="middle" x="797" y="-451.916" font-family="Helvetica,sans-Serif" font-size="10.00">tds_process_login_tokens</text>
</a>
</g>
</g>
<!-- Node2&#45;&gt;Node3 -->
<g id="edge2" class="edge"><title>Node2&#45;&gt;Node3</title>
<path fill="none" stroke="midnightblue" d="M266.887,-458.059C359.593,-482.006 539.795,-518.936 691,-492.416 721.743,-487.024 755.347,-473.385 776.054,-464.004"/>
<polygon fill="midnightblue" stroke="midnightblue" points="267.668,-454.646 257.107,-455.497 265.893,-461.417 267.668,-454.646"/>
</g>
<!-- Node2&#45;&gt;Node4 -->
<g id="edge3" class="edge"><title>Node2&#45;&gt;Node4</title>
<path fill="none" stroke="midnightblue" d="M244.708,-420.985C305.981,-391 421.307,-334.564 467.317,-312.048"/>
<polygon fill="midnightblue" stroke="midnightblue" points="243.159,-417.846 235.716,-425.385 246.236,-424.133 243.159,-417.846"/>
</g>
<!-- Node18 -->
<g id="node18" class="node"><title>Node18</title>
<g id="a_node18"><a xlink:href="a00359.html#ga81cdf0ed9e8d29cf1ddf66e18efc407d" target="_top" xlink:title="tds_process_msg() is called for MSG, ERR, or EED tokens and is responsible for calling the CLI&#39;s mess...">
<polygon fill="white" stroke="black" points="296,-430.916 296,-449.916 396,-449.916 396,-430.916 296,-430.916"/>
<text text-anchor="middle" x="346" y="-437.916" font-family="Helvetica,sans-Serif" font-size="10.00">tds_process_msg</text>
</a>
</g>
</g>
<!-- Node2&#45;&gt;Node18 -->
<g id="edge20" class="edge"><title>Node2&#45;&gt;Node18</title>
<path fill="none" stroke="midnightblue" d="M270.369,-433.679C278.983,-433.63 287.69,-433.718 295.967,-433.943"/>
<polygon fill="midnightblue" stroke="midnightblue" points="270.289,-430.18 260.332,-433.8 270.373,-437.18 270.289,-430.18"/>
</g>
<!-- Node5 -->
<g id="node5" class="node"><title>Node5</title>
<g id="a_node5"><a xlink:href="a00344.html#gae67546338cb9542a4902aa914f57f314" target="_top" xlink:title="_bcp_exec_out">
<polygon fill="white" stroke="red" points="591.5,-349.916 591.5,-368.916 679.5,-368.916 679.5,-349.916 591.5,-349.916"/>
<text text-anchor="middle" x="635.5" y="-356.916" font-family="Helvetica,sans-Serif" font-size="10.00">_bcp_exec_out</text>
</a>
</g>
</g>
<!-- Node4&#45;&gt;Node5 -->
<g id="edge4" class="edge"><title>Node4&#45;&gt;Node5</title>
<path fill="none" stroke="midnightblue" d="M520.585,-316.155C538.006,-323.594 560.084,-332.794 580,-340.416 588.423,-343.64 597.659,-346.945 606.096,-349.876"/>
<polygon fill="midnightblue" stroke="midnightblue" points="521.487,-312.733 510.917,-312.004 518.725,-319.165 521.487,-312.733"/>
</g>
<!-- Node6 -->
<g id="node6" class="node"><title>Node6</title>
<g id="a_node6"><a xlink:href="a00341.html#gaf1879b85e8238c015b9648d077665285" target="_top" xlink:title="_dbresults">
<polygon fill="white" stroke="red" points="603,-311.916 603,-330.916 668,-330.916 668,-311.916 603,-311.916"/>
<text text-anchor="middle" x="635.5" y="-318.916" font-family="Helvetica,sans-Serif" font-size="10.00">_dbresults</text>
</a>
</g>
</g>
<!-- Node4&#45;&gt;Node6 -->
<g id="edge5" class="edge"><title>Node4&#45;&gt;Node6</title>
<path fill="none" stroke="midnightblue" d="M554.348,-310.95C571.118,-313.14 588.418,-315.399 602.634,-317.255"/>
<polygon fill="midnightblue" stroke="midnightblue" points="554.376,-307.424 544.007,-309.599 553.47,-314.365 554.376,-307.424"/>
</g>
<!-- Node7 -->
<g id="node7" class="node"><title>Node7</title>
<g id="a_node7"><a xlink:href="a00342.html#gaff09873008411a0573f6d1a9e6c7cf4b" target="_top" xlink:title="Get count of output parameters filled by a stored procedure. ">
<polygon fill="white" stroke="red" points="603,-273.916 603,-292.916 668,-292.916 668,-273.916 603,-273.916"/>
<text text-anchor="middle" x="635.5" y="-280.916" font-family="Helvetica,sans-Serif" font-size="10.00">dbnumrets</text>
</a>
</g>
</g>
<!-- Node4&#45;&gt;Node7 -->
<g id="edge6" class="edge"><title>Node4&#45;&gt;Node7</title>
<path fill="none" stroke="midnightblue" d="M554.348,-293.883C571.118,-291.693 588.418,-289.434 602.634,-287.577"/>
<polygon fill="midnightblue" stroke="midnightblue" points="553.47,-290.468 544.007,-295.233 554.376,-297.409 553.47,-290.468"/>
</g>
<!-- Node8 -->
<g id="node8" class="node"><title>Node8</title>
<g id="a_node8"><a xlink:href="a00341.html#gae1f50a6a2c31fda57cb481922b06841e" target="_top" xlink:title="Wait for results of a query from the server. ">
<polygon fill="white" stroke="red" points="609,-235.916 609,-254.916 662,-254.916 662,-235.916 609,-235.916"/>
<text text-anchor="middle" x="635.5" y="-242.916" font-family="Helvetica,sans-Serif" font-size="10.00">dbsqlok</text>
</a>
</g>
</g>
<!-- Node4&#45;&gt;Node8 -->
<g id="edge7" class="edge"><title>Node4&#45;&gt;Node8</title>
<path fill="none" stroke="midnightblue" d="M520.585,-288.678C538.006,-281.239 560.084,-272.038 580,-264.416 589.358,-260.835 599.722,-257.152 608.877,-253.994"/>
<polygon fill="midnightblue" stroke="midnightblue" points="518.725,-285.667 510.917,-292.829 521.487,-292.099 518.725,-285.667"/>
</g>
<!-- Node9 -->
<g id="node9" class="node"><title>Node9</title>
<g id="a_node9"><a xlink:href="a00341.html#ga548153eb2eae76c48aa9d4b72258dc1c" target="_top" xlink:title="Send text or image data to the server. ">
<polygon fill="white" stroke="black" points="763,-216.916 763,-235.916 831,-235.916 831,-216.916 763,-216.916"/>
<text text-anchor="middle" x="797" y="-223.916" font-family="Helvetica,sans-Serif" font-size="10.00">dbwritetext</text>
</a>
</g>
</g>
<!-- Node4&#45;&gt;Node9 -->
<g id="edge10" class="edge"><title>Node4&#45;&gt;Node9</title>
<path fill="none" stroke="midnightblue" d="M503.031,-285.037C519.279,-266.437 547.949,-238.04 580,-226.416 641.517,-204.106 719.53,-212.211 762.967,-219.633"/>
<polygon fill="midnightblue" stroke="midnightblue" points="500.254,-282.901 496.473,-292.798 505.6,-287.419 500.254,-282.901"/>
</g>
<!-- Node10 -->
<g id="node10" class="node"><title>Node10</title>
<g id="a_node10"><a xlink:href="a00341.html#ga559e24ba70d0d96c3469eb6ab8f74e05" target="_top" xlink:title="Cancel the query currently being retrieved, discarding all pending rows. ">
<polygon fill="white" stroke="red" points="600,-159.916 600,-178.916 671,-178.916 671,-159.916 600,-159.916"/>
<text text-anchor="middle" x="635.5" y="-166.916" font-family="Helvetica,sans-Serif" font-size="10.00">dbcanquery</text>
</a>
</g>
</g>
<!-- Node4&#45;&gt;Node10 -->
<g id="edge9" class="edge"><title>Node4&#45;&gt;Node10</title>
<path fill="none" stroke="midnightblue" d="M500.472,-283.977C515.994,-260.303 545.719,-219.207 580,-193.416 587.849,-187.512 597.377,-182.684 606.258,-178.948"/>
<polygon fill="midnightblue" stroke="midnightblue" points="497.34,-282.377 494.89,-292.685 503.233,-286.155 497.34,-282.377"/>
</g>
<!-- Node11 -->
<g id="node11" class="node"><title>Node11</title>
<g id="a_node11"><a xlink:href="a00341.html#gadd5685565c8c6c86079e17b8a73b324c" target="_top" xlink:title="Fetch part of a text or image value from the server. ">
<polygon fill="white" stroke="black" points="602,-121.916 602,-140.916 669,-140.916 669,-121.916 602,-121.916"/>
<text text-anchor="middle" x="635.5" y="-128.916" font-family="Helvetica,sans-Serif" font-size="10.00">dbreadtext</text>
</a>
</g>
</g>
<!-- Node4&#45;&gt;Node11 -->
<g id="edge11" class="edge"><title>Node4&#45;&gt;Node11</title>
<path fill="none" stroke="midnightblue" d="M495.573,-283.092C507.44,-251.012 535.431,-186.709 580,-150.416 586.294,-145.291 594.061,-141.507 601.739,-138.729"/>
<polygon fill="midnightblue" stroke="midnightblue" points="492.227,-282.055 492.166,-292.649 498.821,-284.405 492.227,-282.055"/>
</g>
<!-- Node12 -->
<g id="node12" class="node"><title>Node12</title>
<g id="a_node12"><a xlink:href="a00341.html#gac980139b9cea03cf93e373d425991481" target="_top" xlink:title="Transmit the command buffer to the server. ">
<polygon fill="white" stroke="red" points="603,-83.9163 603,-102.916 668,-102.916 668,-83.9163 603,-83.9163"/>
<text text-anchor="middle" x="635.5" y="-90.9163" font-family="Helvetica,sans-Serif" font-size="10.00">dbsqlsend</text>
</a>
</g>
</g>
<!-- Node4&#45;&gt;Node12 -->
<g id="edge12" class="edge"><title>Node4&#45;&gt;Node12</title>
<path fill="none" stroke="midnightblue" d="M493.141,-282.624C502.161,-244.324 527.154,-159.689 580,-112.416 586.423,-106.671 594.681,-102.641 602.816,-99.8235"/>
<polygon fill="midnightblue" stroke="midnightblue" points="489.692,-282.009 490.925,-292.532 496.523,-283.536 489.692,-282.009"/>
</g>
<!-- Node13 -->
<g id="node13" class="node"><title>Node13</title>
<g id="a_node13"><a xlink:href="a00356.html#gaf0da49585d39e99780a004ee2ca23479" target="_top" xlink:title="Send option commands to server. ">
<polygon fill="white" stroke="black" points="736.5,-17.9163 736.5,-36.9163 857.5,-36.9163 857.5,-17.9163 736.5,-17.9163"/>
<text text-anchor="middle" x="797" y="-24.9163" font-family="Helvetica,sans-Serif" font-size="10.00">tds_submit_optioncmd</text>
</a>
</g>
</g>
<!-- Node4&#45;&gt;Node13 -->
<g id="edge13" class="edge"><title>Node4&#45;&gt;Node13</title>
<path fill="none" stroke="midnightblue" d="M488.373,-282.763C487.9,-230.2 494.767,-86.1992 580,-24.4163 636.783,16.7441 725.864,-3.82903 769.759,-17.9094"/>
<polygon fill="midnightblue" stroke="midnightblue" points="484.874,-282.857 488.567,-292.787 491.872,-282.721 484.874,-282.857"/>
</g>
<!-- Node14 -->
<g id="node14" class="node"><title>Node14</title>
<g id="a_node14"><a xlink:href="a00193.html#ac6610c72bd31bad5378f760fa9b12d66" target="_top" xlink:title="Initialize BCP information. ">
<polygon fill="white" stroke="red" points="599,-463.916 599,-482.916 672,-482.916 672,-463.916 599,-463.916"/>
<text text-anchor="middle" x="635.5" y="-470.916" font-family="Helvetica,sans-Serif" font-size="10.00">tds_bcp_init</text>
</a>
</g>
</g>
<!-- Node4&#45;&gt;Node14 -->
<g id="edge14" class="edge"><title>Node4&#45;&gt;Node14</title>
<path fill="none" stroke="midnightblue" d="M495.573,-321.74C507.44,-353.821 535.431,-418.124 580,-454.416 585.517,-458.909 592.166,-462.37 598.894,-465.028"/>
<polygon fill="midnightblue" stroke="midnightblue" points="498.821,-320.427 492.166,-312.183 492.227,-322.778 498.821,-320.427"/>
</g>
<!-- Node15 -->
<g id="node15" class="node"><title>Node15</title>
<g id="a_node15"><a xlink:href="a00359.html#ga55f27c3e05d42c9b07ace1c74b11c5ab" target="_top" xlink:title="Retrieve and set @spid. ">
<polygon fill="white" stroke="black" points="597,-387.916 597,-406.916 674,-406.916 674,-387.916 597,-387.916"/>
<text text-anchor="middle" x="635.5" y="-394.916" font-family="Helvetica,sans-Serif" font-size="10.00">tds_set_spid</text>
</a>
</g>
</g>
<!-- Node4&#45;&gt;Node15 -->
<g id="edge15" class="edge"><title>Node4&#45;&gt;Node15</title>
<path fill="none" stroke="midnightblue" d="M505.288,-319.202C522.504,-336.133 551.116,-362.045 580,-378.416 586.538,-382.122 593.923,-385.287 601.097,-387.91"/>
<polygon fill="midnightblue" stroke="midnightblue" points="507.762,-316.726 498.22,-312.121 502.808,-321.671 507.762,-316.726"/>
</g>
<!-- Node16 -->
<g id="node16" class="node"><title>Node16</title>
<g id="a_node16"><a xlink:href="a00359.html#gaeeb1562044786ea17bea361ed83e6946" target="_top" xlink:title="Process results for simple query as &quot;SET TEXTSIZE&quot; or &quot;USE dbname&quot; If the statement returns results...">
<polygon fill="white" stroke="red" points="580.5,-34.4163 580.5,-64.4163 690.5,-64.4163 690.5,-34.4163 580.5,-34.4163"/>
<text text-anchor="start" x="588.5" y="-52.4163" font-family="Helvetica,sans-Serif" font-size="10.00">tds_process_simple</text>
<text text-anchor="middle" x="635.5" y="-41.4163" font-family="Helvetica,sans-Serif" font-size="10.00">_query</text>
</a>
</g>
</g>
<!-- Node4&#45;&gt;Node16 -->
<g id="edge17" class="edge"><title>Node4&#45;&gt;Node16</title>
<path fill="none" stroke="midnightblue" d="M491.812,-282.81C498.941,-239.766 521.498,-135.94 580,-74.4163 583.658,-70.569 588.022,-67.2624 592.665,-64.4338"/>
<polygon fill="midnightblue" stroke="midnightblue" points="488.333,-282.401 490.255,-292.82 495.25,-283.477 488.333,-282.401"/>
</g>
<!-- Node17 -->
<g id="node17" class="node"><title>Node17</title>
<g id="a_node17"><a xlink:href="a00359.html#gaf233e79967f82f4e0dd4d11524917a34" target="_top" xlink:title="tds_process_cancel">
<polygon fill="white" stroke="red" points="580,-425.916 580,-444.916 691,-444.916 691,-425.916 580,-425.916"/>
<text text-anchor="middle" x="635.5" y="-432.916" font-family="Helvetica,sans-Serif" font-size="10.00">tds_process_cancel</text>
</a>
</g>
</g>
<!-- Node4&#45;&gt;Node17 -->
<g id="edge19" class="edge"><title>Node4&#45;&gt;Node17</title>
<path fill="none" stroke="midnightblue" d="M499.309,-321.069C514.069,-346.149 543.513,-390.572 580,-416.416 585.397,-420.239 591.633,-423.353 597.918,-425.871"/>
<polygon fill="midnightblue" stroke="midnightblue" points="502.232,-319.131 494.225,-312.192 496.158,-322.609 502.232,-319.131"/>
</g>
<!-- Node8&#45;&gt;Node9 -->
<g id="edge8" class="edge"><title>Node8&#45;&gt;Node9</title>
<path fill="none" stroke="midnightblue" d="M672.371,-241.143C699.525,-237.909 736.532,-233.5 762.965,-230.351"/>
<polygon fill="midnightblue" stroke="midnightblue" points="671.642,-237.705 662.126,-242.364 672.47,-244.656 671.642,-237.705"/>
</g>
<!-- Node15&#45;&gt;Node3 -->
<g id="edge16" class="edge"><title>Node15&#45;&gt;Node3</title>
<path fill="none" stroke="midnightblue" d="M673.583,-410.279C679.416,-412.321 685.375,-414.418 691,-416.416 717.854,-425.956 748.489,-437.07 769.708,-444.804"/>
<polygon fill="midnightblue" stroke="midnightblue" points="674.563,-406.914 663.968,-406.922 672.256,-413.522 674.563,-406.914"/>
</g>
<!-- Node16&#45;&gt;Node13 -->
<g id="edge18" class="edge"><title>Node16&#45;&gt;Node13</title>
<path fill="none" stroke="midnightblue" d="M701.05,-40.5128C712.711,-38.9044 724.823,-37.2338 736.337,-35.6457"/>
<polygon fill="midnightblue" stroke="midnightblue" points="700.373,-37.073 690.945,-41.9067 701.329,-44.0074 700.373,-37.073"/>
</g>
<!-- Node18&#45;&gt;Node2 -->
<g id="edge21" class="edge"><title>Node18&#45;&gt;Node2</title>
<path fill="none" stroke="midnightblue" d="M285.806,-447.094C277.36,-447.208 268.7,-447.187 260.332,-447.033"/>
<polygon fill="midnightblue" stroke="midnightblue" points="286.04,-450.59 295.967,-446.89 285.899,-443.592 286.04,-450.59"/>
</g>
<!-- Node18&#45;&gt;Node4 -->
<g id="edge22" class="edge"><title>Node18&#45;&gt;Node4</title>
<path fill="none" stroke="midnightblue" d="M364.237,-423.425C393.833,-394.252 453.403,-335.533 477.023,-312.251"/>
<polygon fill="midnightblue" stroke="midnightblue" points="361.733,-420.979 357.068,-430.492 366.647,-425.964 361.733,-420.979"/>
</g>
</g>
</svg>
