<?xml version="1.0" encoding="UTF-8" standalone="no"?>
<!DOCTYPE svg PUBLIC "-//W3C//DTD SVG 1.1//EN"
 "http://www.w3.org/Graphics/SVG/1.1/DTD/svg11.dtd">
<!-- Generated by graphviz version 2.38.0 (20140413.2041)
 -->
<!-- Title: dbsetnull Pages: 1 -->
<svg width="322pt" height="85pt"
 viewBox="0.00 0.00 322.00 85.00" xmlns="http://www.w3.org/2000/svg" xmlns:xlink="http://www.w3.org/1999/xlink">
<g id="graph0" class="graph" transform="scale(1 1) rotate(0) translate(4 81)">
<title>dbsetnull</title>
<polygon fill="white" stroke="none" points="-4,4 -4,-81 318,-81 318,4 -4,4"/>
<!-- Node1 -->
<g id="node1" class="node"><title>Node1</title>
<polygon fill="#bfbfbf" stroke="black" points="0,-38.5 0,-57.5 58,-57.5 58,-38.5 0,-38.5"/>
<text text-anchor="middle" x="29" y="-45.5" font-family="Helvetica,sans-Serif" font-size="10.00">dbsetnull</text>
</g>
<!-- Node2 -->
<g id="node2" class="node"><title>Node2</title>
<g id="a_node2"><a xlink:href="a00193.html#ab45c291105027e69836002e1dd586141" target="_top" xlink:title="Write a message to the debug log. ">
<polygon fill="white" stroke="black" points="237,-57.5 237,-76.5 314,-76.5 314,-57.5 237,-57.5"/>
<text text-anchor="middle" x="275.5" y="-64.5" font-family="Helvetica,sans-Serif" font-size="10.00">tdsdump_log</text>
</a>
</g>
</g>
<!-- Node1&#45;&gt;Node2 -->
<g id="edge1" class="edge"><title>Node1&#45;&gt;Node2</title>
<path fill="none" stroke="midnightblue" d="M55.7747,-57.5001C67.2979,-61.2633 81.1536,-65.1334 94,-67 138.595,-73.4799 190.046,-72.6798 226.577,-70.7339"/>
<polygon fill="midnightblue" stroke="midnightblue" points="227.159,-74.206 236.939,-70.13 226.752,-67.2178 227.159,-74.206"/>
</g>
<!-- Node3 -->
<g id="node3" class="node"><title>Node3</title>
<g id="a_node3"><a xlink:href="a00347.html#ga302a4ce6559b81808e3be51615cd1b67" target="_top" xlink:title="Call client&#45;installed error handler. ">
<polygon fill="white" stroke="black" points="119,-38.5 119,-57.5 176,-57.5 176,-38.5 119,-38.5"/>
<text text-anchor="middle" x="147.5" y="-45.5" font-family="Helvetica,sans-Serif" font-size="10.00">dbperror</text>
</a>
</g>
</g>
<!-- Node1&#45;&gt;Node3 -->
<g id="edge2" class="edge"><title>Node1&#45;&gt;Node3</title>
<path fill="none" stroke="midnightblue" d="M58.2014,-48C73.3373,-48 92.2007,-48 108.602,-48"/>
<polygon fill="midnightblue" stroke="midnightblue" points="108.96,-51.5001 118.96,-48 108.96,-44.5001 108.96,-51.5001"/>
</g>
<!-- Node4 -->
<g id="node4" class="node"><title>Node4</title>
<g id="a_node4"><a xlink:href="a00193.html#a79449d2f35a8acc8ed0585044f75524d" target="_top" xlink:title="Dump the contents of data into the log file in a human readable format. ">
<polygon fill="white" stroke="black" points="94,-0.5 94,-19.5 201,-19.5 201,-0.5 94,-0.5"/>
<text text-anchor="middle" x="147.5" y="-7.5" font-family="Helvetica,sans-Serif" font-size="10.00">tdsdump_dump_buf</text>
</a>
</g>
</g>
<!-- Node1&#45;&gt;Node4 -->
<g id="edge4" class="edge"><title>Node1&#45;&gt;Node4</title>
<path fill="none" stroke="midnightblue" d="M58.2014,-38.8013C73.0353,-33.9627 91.4494,-27.9564 107.617,-22.6828"/>
<polygon fill="midnightblue" stroke="midnightblue" points="108.92,-25.9394 117.342,-19.5109 106.749,-19.2845 108.92,-25.9394"/>
</g>
<!-- Node3&#45;&gt;Node2 -->
<g id="edge3" class="edge"><title>Node3&#45;&gt;Node2</title>
<path fill="none" stroke="midnightblue" d="M176.151,-52.1696C190.909,-54.395 209.493,-57.1973 226.522,-59.7652"/>
<polygon fill="midnightblue" stroke="midnightblue" points="226.466,-63.2962 236.876,-61.3265 227.51,-56.3745 226.466,-63.2962"/>
</g>
</g>
</svg>
