<?xml version="1.0" encoding="UTF-8" standalone="no"?>
<!DOCTYPE svg PUBLIC "-//W3C//DTD SVG 1.1//EN"
 "http://www.w3.org/Graphics/SVG/1.1/DTD/svg11.dtd">
<!-- Generated by graphviz version 2.38.0 (20140413.2041)
 -->
<!-- Title: tds_get_byte Pages: 1 -->
<svg width="1094pt" height="1067pt"
 viewBox="0.00 0.00 1094.00 1066.87" xmlns="http://www.w3.org/2000/svg" xmlns:xlink="http://www.w3.org/1999/xlink">
<g id="graph0" class="graph" transform="scale(1 1) rotate(0) translate(4 1062.87)">
<title>tds_get_byte</title>
<polygon fill="white" stroke="none" points="-4,4 -4,-1062.87 1090,-1062.87 1090,4 -4,4"/>
<!-- Node1 -->
<g id="node1" class="node"><title>Node1</title>
<polygon fill="#bfbfbf" stroke="black" points="0,-571.37 0,-590.37 77,-590.37 77,-571.37 0,-571.37"/>
<text text-anchor="middle" x="38.5" y="-578.37" font-family="Helvetica,sans-Serif" font-size="10.00">tds_get_byte</text>
</g>
<!-- Node2 -->
<g id="node2" class="node"><title>Node2</title>
<g id="a_node2"><a xlink:href="a00298.html#abac4d689e0e31e80587f89247c6395a4" target="_top" xlink:title="Read a data from wire. ">
<polygon fill="white" stroke="black" points="135,-1039.37 135,-1058.37 228,-1058.37 228,-1039.37 135,-1039.37"/>
<text text-anchor="middle" x="181.5" y="-1046.37" font-family="Helvetica,sans-Serif" font-size="10.00">tds_generic_get</text>
</a>
</g>
</g>
<!-- Node1&#45;&gt;Node2 -->
<g id="edge1" class="edge"><title>Node1&#45;&gt;Node2</title>
<path fill="none" stroke="midnightblue" d="M40.0103,-600.956C42.4115,-679.542 55.0485,-965.027 113,-1029.87 118.76,-1036.31 126.517,-1040.65 134.72,-1043.54"/>
<polygon fill="midnightblue" stroke="midnightblue" points="43.4973,-600.444 39.7166,-590.547 36.5001,-600.642 43.4973,-600.444"/>
</g>
<!-- Node3 -->
<g id="node3" class="node"><title>Node3</title>
<g id="a_node3"><a xlink:href="a00298.html#a84e17808683ba2dd956e811a42e23176" target="_top" xlink:title="Write data to wire. ">
<polygon fill="white" stroke="black" points="135.5,-1001.37 135.5,-1020.37 227.5,-1020.37 227.5,-1001.37 135.5,-1001.37"/>
<text text-anchor="middle" x="181.5" y="-1008.37" font-family="Helvetica,sans-Serif" font-size="10.00">tds_generic_put</text>
</a>
</g>
</g>
<!-- Node1&#45;&gt;Node3 -->
<g id="edge2" class="edge"><title>Node1&#45;&gt;Node3</title>
<path fill="none" stroke="midnightblue" d="M40.5182,-600.794C44.6428,-674.046 62.3794,-927.273 113,-986.87 118.878,-993.79 126.892,-998.715 135.346,-1002.22"/>
<polygon fill="midnightblue" stroke="midnightblue" points="44.0041,-600.437 39.9702,-590.64 37.0143,-600.814 44.0041,-600.437"/>
</g>
<!-- Node4 -->
<g id="node4" class="node"><title>Node4</title>
<g id="a_node4"><a xlink:href="a00357.html#ga221e98a9c8be96ec6c8547891e1b53af" target="_top" xlink:title="Reads a byte from the TDS stream without removing it. ">
<polygon fill="white" stroke="black" points="505,-761.37 505,-780.37 565,-780.37 565,-761.37 505,-761.37"/>
<text text-anchor="middle" x="535" y="-768.37" font-family="Helvetica,sans-Serif" font-size="10.00">tds_peek</text>
</a>
</g>
</g>
<!-- Node1&#45;&gt;Node4 -->
<g id="edge3" class="edge"><title>Node1&#45;&gt;Node4</title>
<path fill="none" stroke="midnightblue" d="M42.0799,-600.48C47.8204,-635.386 65.1515,-707.736 113,-740.87 236.345,-826.283 431.695,-794.259 504.967,-778.014"/>
<polygon fill="midnightblue" stroke="midnightblue" points="45.5372,-599.933 40.5994,-590.56 38.6138,-600.967 45.5372,-599.933"/>
</g>
<!-- Node5 -->
<g id="node5" class="node"><title>Node5</title>
<g id="a_node5"><a xlink:href="a00359.html#ga39453d084f3f780ac4602d4abf2839f7" target="_top" xlink:title="tds_process_default_tokens() is a catch all function that is called to process tokens not known to ot...">
<polygon fill="white" stroke="black" points="646,-489.87 646,-519.87 758,-519.87 758,-489.87 646,-489.87"/>
<text text-anchor="start" x="654" y="-507.87" font-family="Helvetica,sans-Serif" font-size="10.00">tds_process_default</text>
<text text-anchor="middle" x="702" y="-496.87" font-family="Helvetica,sans-Serif" font-size="10.00">_tokens</text>
</a>
</g>
</g>
<!-- Node1&#45;&gt;Node5 -->
<g id="edge11" class="edge"><title>Node1&#45;&gt;Node5</title>
<path fill="none" stroke="midnightblue" d="M43.7046,-561.258C51.4352,-530.678 71.1088,-472.582 113,-447.87 202.331,-395.173 517.519,-461.318 645.935,-491.418"/>
<polygon fill="midnightblue" stroke="midnightblue" points="40.2566,-560.632 41.3778,-571.167 47.0712,-562.232 40.2566,-560.632"/>
</g>
<!-- Node6 -->
<g id="node6" class="node"><title>Node6</title>
<g id="a_node6"><a xlink:href="a00359.html#ga93945b42d45ee28ae1296b35a1c1e9bb" target="_top" xlink:title="tds_process_login_tokens() is called after sending the login packet to the server. ">
<polygon fill="white" stroke="black" points="798,-597.37 798,-616.37 938,-616.37 938,-597.37 798,-597.37"/>
<text text-anchor="middle" x="868" y="-604.37" font-family="Helvetica,sans-Serif" font-size="10.00">tds_process_login_tokens</text>
</a>
</g>
</g>
<!-- Node1&#45;&gt;Node6 -->
<g id="edge12" class="edge"><title>Node1&#45;&gt;Node6</title>
<path fill="none" stroke="midnightblue" d="M61.5371,-595.812C75.5896,-604.415 94.5656,-614.386 113,-618.87 172.164,-633.259 189.113,-619.383 250,-618.87 448.735,-617.195 683.42,-611.647 797.609,-608.718"/>
<polygon fill="midnightblue" stroke="midnightblue" points="63.3854,-592.839 53.0689,-590.427 59.6293,-598.746 63.3854,-592.839"/>
</g>
<!-- Node7 -->
<g id="node7" class="node"><title>Node7</title>
<g id="a_node7"><a xlink:href="a00359.html#gabfc9de1d1fe718818caf63a4be4035a6" target="_top" xlink:title="process all streams. ">
<polygon fill="white" stroke="red" points="974,-559.37 974,-578.37 1086,-578.37 1086,-559.37 974,-559.37"/>
<text text-anchor="middle" x="1030" y="-566.37" font-family="Helvetica,sans-Serif" font-size="10.00">tds_process_tokens</text>
</a>
</g>
</g>
<!-- Node1&#45;&gt;Node7 -->
<g id="edge13" class="edge"><title>Node1&#45;&gt;Node7</title>
<path fill="none" stroke="midnightblue" d="M41.3687,-600.612C47.6403,-662.537 70.0011,-851.252 113,-891.87 192.73,-967.185 246.322,-934.87 356,-934.87 356,-934.87 356,-934.87 703,-934.87 808.873,-934.87 859.242,-966.625 938,-895.87 987.864,-851.073 1020.97,-627.651 1027.72,-578.46"/>
<polygon fill="midnightblue" stroke="midnightblue" points="44.845,-600.198 40.3835,-590.589 37.8786,-600.883 44.845,-600.198"/>
</g>
<!-- Node8 -->
<g id="node8" class="node"><title>Node8</title>
<g id="a_node8"><a xlink:href="a00359.html#ga81cdf0ed9e8d29cf1ddf66e18efc407d" target="_top" xlink:title="tds_process_msg() is called for MSG, ERR, or EED tokens and is responsible for calling the CLI&#39;s mess...">
<polygon fill="white" stroke="black" points="818,-483.37 818,-502.37 918,-502.37 918,-483.37 818,-483.37"/>
<text text-anchor="middle" x="868" y="-490.37" font-family="Helvetica,sans-Serif" font-size="10.00">tds_process_msg</text>
</a>
</g>
</g>
<!-- Node1&#45;&gt;Node8 -->
<g id="edge59" class="edge"><title>Node1&#45;&gt;Node8</title>
<path fill="none" stroke="midnightblue" d="M42.6394,-561.125C49.1527,-527.223 67.5163,-458.365 113,-424.87 200.811,-360.204 246.948,-390.87 356,-390.87 356,-390.87 356,-390.87 536,-390.87 660.774,-390.87 800.74,-457.883 849.296,-483.274"/>
<polygon fill="midnightblue" stroke="midnightblue" points="39.1561,-560.724 40.8629,-571.181 46.0494,-561.942 39.1561,-560.724"/>
</g>
<!-- Node9 -->
<g id="node9" class="node"><title>Node9</title>
<g id="a_node9"><a xlink:href="a00359.html#gaeaaed2ea1d8c827da1a0f5b419524ae1" target="_top" xlink:title="Reads list of names (usually table names) ">
<polygon fill="white" stroke="black" points="305,-723.37 305,-742.37 409,-742.37 409,-723.37 305,-723.37"/>
<text text-anchor="middle" x="357" y="-730.37" font-family="Helvetica,sans-Serif" font-size="10.00">tds_read_namelist</text>
</a>
</g>
</g>
<!-- Node1&#45;&gt;Node9 -->
<g id="edge14" class="edge"><title>Node1&#45;&gt;Node9</title>
<path fill="none" stroke="midnightblue" d="M44.5884,-600.532C53.2597,-629.666 73.8842,-683.577 113,-708.87 170.492,-746.046 252.155,-745.868 304.612,-740.67"/>
<polygon fill="midnightblue" stroke="midnightblue" points="47.9002,-599.378 41.8367,-590.69 41.1587,-601.263 47.9002,-599.378"/>
</g>
<!-- Node11 -->
<g id="node11" class="node"><title>Node11</title>
<g id="a_node11"><a xlink:href="a00359.html#gaeec59bca9bd0c5388e245f0d19d9c81a" target="_top" xlink:title="Process list of table from network. ">
<polygon fill="white" stroke="black" points="474.5,-571.37 474.5,-590.37 595.5,-590.37 595.5,-571.37 474.5,-571.37"/>
<text text-anchor="middle" x="535" y="-578.37" font-family="Helvetica,sans-Serif" font-size="10.00">tds_process_tabname</text>
</a>
</g>
</g>
<!-- Node1&#45;&gt;Node11 -->
<g id="edge28" class="edge"><title>Node1&#45;&gt;Node11</title>
<path fill="none" stroke="midnightblue" d="M78.909,-593.011C89.8413,-595.842 101.789,-598.444 113,-599.87 251.899,-617.533 288.427,-606.017 428,-594.87 443.08,-593.665 459.302,-591.809 474.41,-589.838"/>
<polygon fill="midnightblue" stroke="midnightblue" points="79.7727,-589.619 69.2048,-590.374 77.9372,-596.374 79.7727,-589.619"/>
</g>
<!-- Node13 -->
<g id="node13" class="node"><title>Node13</title>
<g id="a_node13"><a xlink:href="a00359.html#ga4e3dd9d3614f5f0433b78b761dd68741" target="_top" xlink:title="tds_process_col_fmt() is the other half of result set processing under TDS 4.2. ">
<polygon fill="white" stroke="black" points="478,-647.37 478,-666.37 592,-666.37 592,-647.37 478,-647.37"/>
<text text-anchor="middle" x="535" y="-654.37" font-family="Helvetica,sans-Serif" font-size="10.00">tds_process_col_fmt</text>
</a>
</g>
</g>
<!-- Node1&#45;&gt;Node13 -->
<g id="edge23" class="edge"><title>Node1&#45;&gt;Node13</title>
<path fill="none" stroke="midnightblue" d="M48.3274,-599.551C59.7785,-621.318 82.0211,-656.172 113,-670.87 247.456,-734.661 434.178,-688.187 505.109,-666.443"/>
<polygon fill="midnightblue" stroke="midnightblue" points="51.4449,-597.96 43.8328,-590.591 45.188,-601.099 51.4449,-597.96"/>
</g>
<!-- Node14 -->
<g id="node14" class="node"><title>Node14</title>
<g id="a_node14"><a xlink:href="a00359.html#ga7482b5730d880fcedbe9fcd609a550ce" target="_top" xlink:title="Reads table names for TDS 7.1+. ">
<polygon fill="white" stroke="black" points="113,-571.37 113,-590.37 250,-590.37 250,-571.37 113,-571.37"/>
<text text-anchor="middle" x="181.5" y="-578.37" font-family="Helvetica,sans-Serif" font-size="10.00">tds71_read_table_names</text>
</a>
</g>
</g>
<!-- Node1&#45;&gt;Node14 -->
<g id="edge26" class="edge"><title>Node1&#45;&gt;Node14</title>
<path fill="none" stroke="midnightblue" d="M87.4163,-580.87C95.6386,-580.87 104.319,-580.87 112.941,-580.87"/>
<polygon fill="midnightblue" stroke="midnightblue" points="87.2854,-577.37 77.2854,-580.87 87.2854,-584.37 87.2854,-577.37"/>
</g>
<!-- Node15 -->
<g id="node15" class="node"><title>Node15</title>
<g id="a_node15"><a xlink:href="a00359.html#ga22c7f413d43fc0d511e122a3de389166" target="_top" xlink:title="Reads column information. ">
<polygon fill="white" stroke="black" points="301.5,-533.37 301.5,-552.37 412.5,-552.37 412.5,-533.37 301.5,-533.37"/>
<text text-anchor="middle" x="357" y="-540.37" font-family="Helvetica,sans-Serif" font-size="10.00">tds_process_colinfo</text>
</a>
</g>
</g>
<!-- Node1&#45;&gt;Node15 -->
<g id="edge29" class="edge"><title>Node1&#45;&gt;Node15</title>
<path fill="none" stroke="midnightblue" d="M81.3998,-568.69C91.6609,-566.082 102.665,-563.596 113,-561.87 177.068,-551.169 251.671,-546.47 301.14,-544.422"/>
<polygon fill="midnightblue" stroke="midnightblue" points="80.2166,-565.383 71.4386,-571.315 82.0004,-572.152 80.2166,-565.383"/>
</g>
<!-- Node16 -->
<g id="node16" class="node"><title>Node16</title>
<g id="a_node16"><a xlink:href="a00359.html#ga9fdef8228d29cab7fa9098f07fa73fba" target="_top" xlink:title="Process parameters from networks. ">
<polygon fill="white" stroke="black" points="464,-293.87 464,-323.87 606,-323.87 606,-293.87 464,-293.87"/>
<text text-anchor="start" x="472" y="-311.87" font-family="Helvetica,sans-Serif" font-size="10.00">tds_process_param_result</text>
<text text-anchor="middle" x="535" y="-300.87" font-family="Helvetica,sans-Serif" font-size="10.00">_tokens</text>
</a>
</g>
</g>
<!-- Node1&#45;&gt;Node16 -->
<g id="edge32" class="edge"><title>Node1&#45;&gt;Node16</title>
<path fill="none" stroke="midnightblue" d="M40.2084,-561.068C42.8465,-519.603 55.2214,-423.624 113,-376.87 167.92,-332.428 358.539,-346.771 428,-333.87 443.244,-331.039 459.597,-327.456 474.786,-323.894"/>
<polygon fill="midnightblue" stroke="midnightblue" points="36.704,-561.067 39.6928,-571.231 43.695,-561.421 36.704,-561.067"/>
</g>
<!-- Node17 -->
<g id="node17" class="node"><title>Node17</title>
<g id="a_node17"><a xlink:href="a00359.html#gae3368ea80d0d8b13791ceb13ee5f19c9" target="_top" xlink:title="tds_process_compute_result() processes compute result sets. ">
<polygon fill="white" stroke="black" points="642,-875.87 642,-905.87 762,-905.87 762,-875.87 642,-875.87"/>
<text text-anchor="start" x="650" y="-893.87" font-family="Helvetica,sans-Serif" font-size="10.00">tds_process_compute</text>
<text text-anchor="middle" x="702" y="-882.87" font-family="Helvetica,sans-Serif" font-size="10.00">_result</text>
</a>
</g>
</g>
<!-- Node1&#45;&gt;Node17 -->
<g id="edge35" class="edge"><title>Node1&#45;&gt;Node17</title>
<path fill="none" stroke="midnightblue" d="M41.9777,-600.573C49.5623,-657.625 74.3239,-821.103 113,-855.87 189.433,-924.578 508.327,-906.969 641.824,-896.232"/>
<polygon fill="midnightblue" stroke="midnightblue" points="45.4481,-600.118 40.6908,-590.652 38.5063,-601.019 45.4481,-600.118"/>
</g>
<!-- Node18 -->
<g id="node18" class="node"><title>Node18</title>
<g id="a_node18"><a xlink:href="a00359.html#ga07cee55fd522cca16fb59b7a8f0b1376" target="_top" xlink:title="Reads data information from wire. ">
<polygon fill="white" stroke="black" points="303,-65.3699 303,-84.3699 411,-84.3699 411,-65.3699 303,-65.3699"/>
<text text-anchor="middle" x="357" y="-72.3699" font-family="Helvetica,sans-Serif" font-size="10.00">tds7_get_data_info</text>
</a>
</g>
</g>
<!-- Node1&#45;&gt;Node18 -->
<g id="edge37" class="edge"><title>Node1&#45;&gt;Node18</title>
<path fill="none" stroke="midnightblue" d="M40.2718,-560.873C43.5903,-485.023 59.0271,-216.225 113,-153.87 160.613,-98.8623 246.949,-81.9116 302.854,-76.8325"/>
<polygon fill="midnightblue" stroke="midnightblue" points="36.7556,-561.192 39.8392,-571.328 43.7497,-561.481 36.7556,-561.192"/>
</g>
<!-- Node20 -->
<g id="node20" class="node"><title>Node20</title>
<g id="a_node20"><a xlink:href="a00359.html#ga6728e344caa20aea1def85f58dea138b" target="_top" xlink:title="tds7_process_compute_result() processes compute result sets for TDS 7/8. ">
<polygon fill="white" stroke="black" points="472,-15.8699 472,-45.8699 598,-45.8699 598,-15.8699 472,-15.8699"/>
<text text-anchor="start" x="480" y="-33.8699" font-family="Helvetica,sans-Serif" font-size="10.00">tds7_process_compute</text>
<text text-anchor="middle" x="535" y="-22.8699" font-family="Helvetica,sans-Serif" font-size="10.00">_result</text>
</a>
</g>
</g>
<!-- Node1&#45;&gt;Node20 -->
<g id="edge66" class="edge"><title>Node1&#45;&gt;Node20</title>
<path fill="none" stroke="midnightblue" d="M39.3964,-561.004C39.3905,-476.712 43.8856,-149.816 113,-80.8699 207.578,13.478 379.667,-0.823524 471.818,-17.1378"/>
<polygon fill="midnightblue" stroke="midnightblue" points="35.8969,-561.244 39.4209,-571.235 42.8969,-561.227 35.8969,-561.244"/>
</g>
<!-- Node21 -->
<g id="node21" class="node"><title>Node21</title>
<g id="a_node21"><a xlink:href="a00359.html#gad9b6b86f48be077fb44ac603845a0c27" target="_top" xlink:title="Reads data metadata from wire. ">
<polygon fill="white" stroke="black" points="130.5,-267.37 130.5,-286.37 232.5,-286.37 232.5,-267.37 130.5,-267.37"/>
<text text-anchor="middle" x="181.5" y="-274.37" font-family="Helvetica,sans-Serif" font-size="10.00">tds_get_data_info</text>
</a>
</g>
</g>
<!-- Node1&#45;&gt;Node21 -->
<g id="edge43" class="edge"><title>Node1&#45;&gt;Node21</title>
<path fill="none" stroke="midnightblue" d="M38.7911,-561.016C38.0975,-510.691 43.2951,-376.759 113,-300.87 118.805,-294.55 126.385,-289.893 134.36,-286.462"/>
<polygon fill="midnightblue" stroke="midnightblue" points="35.2961,-561.273 39.0327,-571.187 42.2941,-561.106 35.2961,-561.273"/>
</g>
<!-- Node23 -->
<g id="node23" class="node"><title>Node23</title>
<g id="a_node23"><a xlink:href="a00359.html#ga9a101b8bbd978e22ec7306491e5554c7" target="_top" xlink:title="tds_process_result() is the TDS 5.0 result set processing routine. ">
<polygon fill="white" stroke="black" points="304,-305.37 304,-324.37 410,-324.37 410,-305.37 304,-305.37"/>
<text text-anchor="middle" x="357" y="-312.37" font-family="Helvetica,sans-Serif" font-size="10.00">tds_process_result</text>
</a>
</g>
</g>
<!-- Node1&#45;&gt;Node23 -->
<g id="edge53" class="edge"><title>Node1&#45;&gt;Node23</title>
<path fill="none" stroke="midnightblue" d="M38.7848,-561.165C38.2652,-514.195 44.1702,-395.353 113,-338.87 167.891,-293.825 254.982,-297.451 308.636,-305.341"/>
<polygon fill="midnightblue" stroke="midnightblue" points="35.2874,-561.325 39.0126,-571.243 42.2856,-561.166 35.2874,-561.325"/>
</g>
<!-- Node24 -->
<g id="node24" class="node"><title>Node24</title>
<g id="a_node24"><a xlink:href="a00359.html#ga416cf119c1d4a0fca27dc5b50c261358" target="_top" xlink:title="Process results from dynamic. ">
<polygon fill="white" stroke="black" points="292.5,-196.37 292.5,-215.37 421.5,-215.37 421.5,-196.37 292.5,-196.37"/>
<text text-anchor="middle" x="357" y="-203.37" font-family="Helvetica,sans-Serif" font-size="10.00">tds_process_dyn_result</text>
</a>
</g>
</g>
<!-- Node1&#45;&gt;Node24 -->
<g id="edge62" class="edge"><title>Node1&#45;&gt;Node24</title>
<path fill="none" stroke="midnightblue" d="M41.2752,-560.863C47.3311,-497.212 69.2689,-301.039 113,-257.87 159.976,-211.498 237.599,-201.981 292.456,-201.829"/>
<polygon fill="midnightblue" stroke="midnightblue" points="37.7607,-560.86 40.3276,-571.14 44.7311,-561.503 37.7607,-560.86"/>
</g>
<!-- Node25 -->
<g id="node25" class="node"><title>Node25</title>
<g id="a_node25"><a xlink:href="a00359.html#ga547b2f48659f77a69aa802d861ac827d" target="_top" xlink:title="tds5_process_result() is the new TDS 5.0 result set processing routine. ">
<polygon fill="white" stroke="black" points="479,-103.37 479,-122.37 591,-122.37 591,-103.37 479,-103.37"/>
<text text-anchor="middle" x="535" y="-110.37" font-family="Helvetica,sans-Serif" font-size="10.00">tds5_process_result</text>
</a>
</g>
</g>
<!-- Node1&#45;&gt;Node25 -->
<g id="edge54" class="edge"><title>Node1&#45;&gt;Node25</title>
<path fill="none" stroke="midnightblue" d="M40.5132,-561.104C44.5364,-490.601 61.7416,-252.903 113,-200.87 163.503,-149.604 376.622,-125.65 478.849,-116.943"/>
<polygon fill="midnightblue" stroke="midnightblue" points="37.009,-561.088 39.9602,-571.263 43.9986,-561.468 37.009,-561.088"/>
</g>
<!-- Node26 -->
<g id="node26" class="node"><title>Node26</title>
<g id="a_node26"><a xlink:href="a00359.html#ga3e1b4df4410a86a563a8c155e7799720" target="_top" xlink:title="tds_process_env_chg() when ever certain things change on the server, such as database, character set, language, or block size. ">
<polygon fill="white" stroke="black" points="121,-495.37 121,-514.37 242,-514.37 242,-495.37 121,-495.37"/>
<text text-anchor="middle" x="181.5" y="-502.37" font-family="Helvetica,sans-Serif" font-size="10.00">tds_process_env_chg</text>
</a>
</g>
</g>
<!-- Node1&#45;&gt;Node26 -->
<g id="edge57" class="edge"><title>Node1&#45;&gt;Node26</title>
<path fill="none" stroke="midnightblue" d="M58.8941,-564.911C73.1903,-553.719 93.4677,-539.006 113,-528.87 123.929,-523.198 136.5,-518.324 147.808,-514.479"/>
<polygon fill="midnightblue" stroke="midnightblue" points="56.4577,-562.377 50.8259,-571.351 60.8248,-567.848 56.4577,-562.377"/>
</g>
<!-- Node27 -->
<g id="node27" class="node"><title>Node27</title>
<g id="a_node27"><a xlink:href="a00359.html#ga5cfc0340d8d717e67f60037e029b2142" target="_top" xlink:title="tds_process_dynamic() finds the element of the dyns array for the id ">
<polygon fill="white" stroke="black" points="808.5,-963.37 808.5,-982.37 927.5,-982.37 927.5,-963.37 808.5,-963.37"/>
<text text-anchor="middle" x="868" y="-970.37" font-family="Helvetica,sans-Serif" font-size="10.00">tds_process_dynamic</text>
</a>
</g>
</g>
<!-- Node1&#45;&gt;Node27 -->
<g id="edge60" class="edge"><title>Node1&#45;&gt;Node27</title>
<path fill="none" stroke="midnightblue" d="M40.4541,-600.659C44.2379,-670.157 60.6294,-901.428 113,-948.87 193.431,-1021.73 247.475,-972.87 356,-972.87 356,-972.87 356,-972.87 536,-972.87 631.392,-972.87 742.249,-972.87 808.404,-972.87"/>
<polygon fill="midnightblue" stroke="midnightblue" points="43.9466,-600.422 39.9354,-590.616 36.9559,-600.783 43.9466,-600.422"/>
</g>
<!-- Node28 -->
<g id="node28" class="node"><title>Node28</title>
<g id="a_node28"><a xlink:href="a00359.html#gae688b515631141acfbc41bbb91c8b921" target="_top" xlink:title="Process new TDS 5.0 token for describing output parameters. ">
<polygon fill="white" stroke="black" points="464.5,-849.37 464.5,-868.37 605.5,-868.37 605.5,-849.37 464.5,-849.37"/>
<text text-anchor="middle" x="535" y="-856.37" font-family="Helvetica,sans-Serif" font-size="10.00">tds5_process_dyn_result2</text>
</a>
</g>
</g>
<!-- Node1&#45;&gt;Node28 -->
<g id="edge63" class="edge"><title>Node1&#45;&gt;Node28</title>
<path fill="none" stroke="midnightblue" d="M39.1994,-600.825C39.6998,-646.314 47.8647,-757.917 113,-811.87 221.745,-901.945 404.185,-883.345 488.608,-868.415"/>
<polygon fill="midnightblue" stroke="midnightblue" points="42.6993,-600.762 39.2073,-590.76 35.6993,-600.757 42.6993,-600.762"/>
</g>
<!-- Node29 -->
<g id="node29" class="node"><title>Node29</title>
<g id="a_node29"><a xlink:href="a00359.html#ga315d875d90c64d12d61fc9e33b4dee96" target="_top" xlink:title="Reads cursor command results. ">
<polygon fill="white" stroke="black" points="480,-799.87 480,-829.87 590,-829.87 590,-799.87 480,-799.87"/>
<text text-anchor="start" x="488" y="-817.87" font-family="Helvetica,sans-Serif" font-size="10.00">tds_process_cursor</text>
<text text-anchor="middle" x="535" y="-806.87" font-family="Helvetica,sans-Serif" font-size="10.00">_tokens</text>
</a>
</g>
</g>
<!-- Node1&#45;&gt;Node29 -->
<g id="edge67" class="edge"><title>Node1&#45;&gt;Node29</title>
<path fill="none" stroke="midnightblue" d="M40.2088,-600.465C42.8478,-641.465 55.2242,-736.188 113,-780.87 168.903,-824.103 379.29,-821.508 479.838,-817.586"/>
<polygon fill="midnightblue" stroke="midnightblue" points="43.7009,-600.22 39.6931,-590.412 36.7101,-600.578 43.7009,-600.22"/>
</g>
<!-- Node30 -->
<g id="node30" class="node"><title>Node30</title>
<g id="a_node30"><a xlink:href="a00359.html#gaa6a7e5aeb10a1322911c47be9c43e2d2" target="_top" xlink:title="Process option cmd results. ">
<polygon fill="white" stroke="black" points="114,-457.37 114,-476.37 249,-476.37 249,-457.37 114,-457.37"/>
<text text-anchor="middle" x="181.5" y="-464.37" font-family="Helvetica,sans-Serif" font-size="10.00">tds5_process_optioncmd</text>
</a>
</g>
</g>
<!-- Node1&#45;&gt;Node30 -->
<g id="edge70" class="edge"><title>Node1&#45;&gt;Node30</title>
<path fill="none" stroke="midnightblue" d="M49.0515,-562.278C61.0819,-540.707 83.7645,-505.587 113,-485.87 118.753,-481.99 125.291,-478.896 131.978,-476.43"/>
<polygon fill="midnightblue" stroke="midnightblue" points="45.9439,-560.667 44.2883,-571.132 52.1084,-563.983 45.9439,-560.667"/>
</g>
<!-- Node4&#45;&gt;Node5 -->
<g id="edge4" class="edge"><title>Node4&#45;&gt;Node5</title>
<path fill="none" stroke="midnightblue" d="M575.113,-766.945C586.163,-764.18 597.484,-759.558 606,-751.87 610.625,-747.694 675.669,-573.123 695.379,-520.03"/>
<polygon fill="midnightblue" stroke="midnightblue" points="574.219,-763.555 565.129,-768.997 575.629,-770.412 574.219,-763.555"/>
</g>
<!-- Node4&#45;&gt;Node7 -->
<g id="edge10" class="edge"><title>Node4&#45;&gt;Node7</title>
<path fill="none" stroke="midnightblue" d="M575.509,-778.057C652.795,-789.835 826.178,-804.782 938,-726.87 992.542,-688.868 1018.84,-606.893 1026.52,-578.66"/>
<polygon fill="midnightblue" stroke="midnightblue" points="575.683,-774.541 565.258,-776.426 574.583,-781.454 575.683,-774.541"/>
</g>
<!-- Node5&#45;&gt;Node6 -->
<g id="edge5" class="edge"><title>Node5&#45;&gt;Node6</title>
<path fill="none" stroke="midnightblue" d="M736.137,-525.479C771.287,-547.341 825.293,-580.93 851.571,-597.274"/>
<polygon fill="midnightblue" stroke="midnightblue" points="737.539,-522.23 727.199,-519.92 733.842,-528.174 737.539,-522.23"/>
</g>
<!-- Node5&#45;&gt;Node7 -->
<g id="edge6" class="edge"><title>Node5&#45;&gt;Node7</title>
<path fill="none" stroke="midnightblue" d="M768.464,-517.722C831.077,-530.014 924.058,-548.268 980.357,-559.32"/>
<polygon fill="midnightblue" stroke="midnightblue" points="768.788,-514.219 758.301,-515.727 767.44,-521.088 768.788,-514.219"/>
</g>
<!-- Node5&#45;&gt;Node8 -->
<g id="edge7" class="edge"><title>Node5&#45;&gt;Node8</title>
<path fill="none" stroke="midnightblue" d="M768.22,-493.475C784.767,-492.01 802.266,-490.856 817.864,-490.222"/>
<polygon fill="midnightblue" stroke="midnightblue" points="767.696,-490.009 758.066,-494.425 768.349,-496.978 767.696,-490.009"/>
</g>
<!-- Node8&#45;&gt;Node5 -->
<g id="edge8" class="edge"><title>Node8&#45;&gt;Node5</title>
<path fill="none" stroke="midnightblue" d="M810.501,-503.455C793.531,-505.107 774.942,-506.455 758.066,-507.256"/>
<polygon fill="midnightblue" stroke="midnightblue" points="811.24,-506.897 820.828,-502.39 810.522,-499.934 811.24,-506.897"/>
</g>
<!-- Node8&#45;&gt;Node7 -->
<g id="edge9" class="edge"><title>Node8&#45;&gt;Node7</title>
<path fill="none" stroke="midnightblue" d="M909.922,-505.707C919.279,-509.025 929.089,-512.816 938,-516.87 965.991,-529.604 996.684,-548.187 1014.31,-559.347"/>
<polygon fill="midnightblue" stroke="midnightblue" points="910.986,-502.372 900.391,-502.429 908.709,-508.991 910.986,-502.372"/>
</g>
<!-- Node10 -->
<g id="node10" class="node"><title>Node10</title>
<g id="a_node10"><a xlink:href="a00359.html#ga905d2fa5e1b602817bd16bb0fcf9eadb" target="_top" xlink:title="tds_process_col_name() is one half of the result set under TDS 4.2 it contains all the column names...">
<polygon fill="white" stroke="black" points="472,-723.37 472,-742.37 598,-742.37 598,-723.37 472,-723.37"/>
<text text-anchor="middle" x="535" y="-730.37" font-family="Helvetica,sans-Serif" font-size="10.00">tds_process_col_name</text>
</a>
</g>
</g>
<!-- Node9&#45;&gt;Node10 -->
<g id="edge15" class="edge"><title>Node9&#45;&gt;Node10</title>
<path fill="none" stroke="midnightblue" d="M419.712,-732.87C436.645,-732.87 455.007,-732.87 471.958,-732.87"/>
<polygon fill="midnightblue" stroke="midnightblue" points="419.38,-729.37 409.38,-732.87 419.38,-736.37 419.38,-729.37"/>
</g>
<!-- Node9&#45;&gt;Node11 -->
<g id="edge18" class="edge"><title>Node9&#45;&gt;Node11</title>
<path fill="none" stroke="midnightblue" d="M375.875,-716.38C396.763,-697.221 432.486,-664.796 464,-637.87 484.018,-620.766 507.909,-601.563 521.968,-590.382"/>
<polygon fill="midnightblue" stroke="midnightblue" points="373.379,-713.92 368.386,-723.264 378.116,-719.074 373.379,-713.92"/>
</g>
<!-- Node12 -->
<g id="node12" class="node"><title>Node12</title>
<g id="a_node12"><a xlink:href="a00359.html#gae5b3e01f3d665f9e377de091f46f1ab9" target="_top" xlink:title="tds_process_compute_names() processes compute result sets. ">
<polygon fill="white" stroke="black" points="642,-673.87 642,-703.87 762,-703.87 762,-673.87 642,-673.87"/>
<text text-anchor="start" x="650" y="-691.87" font-family="Helvetica,sans-Serif" font-size="10.00">tds_process_compute</text>
<text text-anchor="middle" x="702" y="-680.87" font-family="Helvetica,sans-Serif" font-size="10.00">_names</text>
</a>
</g>
</g>
<!-- Node9&#45;&gt;Node12 -->
<g id="edge21" class="edge"><title>Node9&#45;&gt;Node12</title>
<path fill="none" stroke="midnightblue" d="M416.832,-721.544C432.152,-718.809 448.664,-716.05 464,-713.87 524.419,-705.28 593.893,-698.289 641.929,-693.906"/>
<polygon fill="midnightblue" stroke="midnightblue" points="416.177,-718.106 406.96,-723.332 417.424,-724.994 416.177,-718.106"/>
</g>
<!-- Node10&#45;&gt;Node5 -->
<g id="edge16" class="edge"><title>Node10&#45;&gt;Node5</title>
<path fill="none" stroke="midnightblue" d="M559.302,-717.378C573.925,-706.867 592.499,-691.988 606,-675.87 648.742,-624.841 681.722,-551.713 694.834,-520.237"/>
<polygon fill="midnightblue" stroke="midnightblue" points="556.978,-714.732 550.789,-723.331 560.99,-720.469 556.978,-714.732"/>
</g>
<!-- Node10&#45;&gt;Node7 -->
<g id="edge17" class="edge"><title>Node10&#45;&gt;Node7</title>
<path fill="none" stroke="midnightblue" d="M608.406,-741.832C693.367,-748.728 835.621,-748.684 938,-688.87 984.054,-661.963 1014.5,-601.738 1024.96,-578.381"/>
<polygon fill="midnightblue" stroke="midnightblue" points="608.6,-738.335 598.335,-740.96 607.996,-745.309 608.6,-738.335"/>
</g>
<!-- Node11&#45;&gt;Node5 -->
<g id="edge19" class="edge"><title>Node11&#45;&gt;Node5</title>
<path fill="none" stroke="midnightblue" d="M577.194,-568.055C586.771,-564.717 596.84,-560.912 606,-556.87 630.599,-546.016 657.359,-531.062 676.19,-519.976"/>
<polygon fill="midnightblue" stroke="midnightblue" points="575.799,-564.831 567.451,-571.354 578.045,-571.462 575.799,-564.831"/>
</g>
<!-- Node11&#45;&gt;Node7 -->
<g id="edge20" class="edge"><title>Node11&#45;&gt;Node7</title>
<path fill="none" stroke="midnightblue" d="M606.167,-579.162C705.207,-576.751 883.946,-572.401 973.993,-570.209"/>
<polygon fill="midnightblue" stroke="midnightblue" points="605.87,-575.668 595.959,-579.41 606.041,-582.666 605.87,-575.668"/>
</g>
<!-- Node12&#45;&gt;Node7 -->
<g id="edge22" class="edge"><title>Node12&#45;&gt;Node7</title>
<path fill="none" stroke="midnightblue" d="M772.587,-691.502C821.207,-690.66 886.395,-684.016 938,-658.87 976.951,-639.89 1009.36,-597.605 1022.6,-578.532"/>
<polygon fill="midnightblue" stroke="midnightblue" points="772.441,-688.003 762.474,-691.598 772.507,-695.003 772.441,-688.003"/>
</g>
<!-- Node13&#45;&gt;Node5 -->
<g id="edge24" class="edge"><title>Node13&#45;&gt;Node5</title>
<path fill="none" stroke="midnightblue" d="M556.583,-641.013C570.778,-629.861 589.913,-614.395 606,-599.87 635.777,-572.985 668.426,-539.342 686.646,-520.159"/>
<polygon fill="midnightblue" stroke="midnightblue" points="554.188,-638.442 548.455,-647.352 558.493,-643.962 554.188,-638.442"/>
</g>
<!-- Node13&#45;&gt;Node7 -->
<g id="edge25" class="edge"><title>Node13&#45;&gt;Node7</title>
<path fill="none" stroke="midnightblue" d="M602.354,-661.292C683.636,-664.571 824.514,-663.261 938,-625.87 969.693,-615.428 1001.56,-591.721 1017.86,-578.404"/>
<polygon fill="midnightblue" stroke="midnightblue" points="602.403,-657.791 592.259,-660.849 602.095,-664.784 602.403,-657.791"/>
</g>
<!-- Node14&#45;&gt;Node11 -->
<g id="edge27" class="edge"><title>Node14&#45;&gt;Node11</title>
<path fill="none" stroke="midnightblue" d="M260.405,-580.87C324.975,-580.87 415.406,-580.87 474.336,-580.87"/>
<polygon fill="midnightblue" stroke="midnightblue" points="260.273,-577.37 250.273,-580.87 260.273,-584.37 260.273,-577.37"/>
</g>
<!-- Node15&#45;&gt;Node5 -->
<g id="edge30" class="edge"><title>Node15&#45;&gt;Node5</title>
<path fill="none" stroke="midnightblue" d="M422.802,-537.489C472.896,-533.114 543.936,-526.441 606,-518.87 618.908,-517.295 632.769,-515.38 645.805,-513.479"/>
<polygon fill="midnightblue" stroke="midnightblue" points="422.417,-534.009 412.757,-538.36 423.022,-540.983 422.417,-534.009"/>
</g>
<!-- Node15&#45;&gt;Node11 -->
<g id="edge31" class="edge"><title>Node15&#45;&gt;Node11</title>
<path fill="none" stroke="midnightblue" d="M412.433,-554.622C437.319,-559.996 466.419,-566.279 489.907,-571.35"/>
<polygon fill="midnightblue" stroke="midnightblue" points="412.926,-551.148 402.412,-552.459 411.448,-557.991 412.926,-551.148"/>
</g>
<!-- Node16&#45;&gt;Node5 -->
<g id="edge33" class="edge"><title>Node16&#45;&gt;Node5</title>
<path fill="none" stroke="midnightblue" d="M592.099,-328.863C597.074,-331.807 601.805,-335.131 606,-338.87 654.834,-382.392 684.767,-457.233 695.97,-489.418"/>
<polygon fill="midnightblue" stroke="midnightblue" points="593.416,-325.598 582.947,-323.966 590.113,-331.77 593.416,-325.598"/>
</g>
<!-- Node16&#45;&gt;Node7 -->
<g id="edge34" class="edge"><title>Node16&#45;&gt;Node7</title>
<path fill="none" stroke="midnightblue" d="M608.312,-326.443C653.354,-338.407 712.031,-355.862 762,-376.87 844.335,-411.486 867.185,-419.441 938,-473.87 972.949,-500.732 1006.92,-541.087 1021.53,-559.322"/>
<polygon fill="midnightblue" stroke="midnightblue" points="609.188,-323.054 598.627,-323.899 607.41,-329.825 609.188,-323.054"/>
</g>
<!-- Node17&#45;&gt;Node7 -->
<g id="edge36" class="edge"><title>Node17&#45;&gt;Node7</title>
<path fill="none" stroke="midnightblue" d="M772.123,-900.496C823.578,-903.686 892.5,-899.026 938,-860.87 1028.73,-784.784 1030.44,-619.683 1029.38,-578.382"/>
<polygon fill="midnightblue" stroke="midnightblue" points="772.306,-897 762.077,-899.761 771.795,-903.981 772.306,-897"/>
</g>
<!-- Node19 -->
<g id="node19" class="node"><title>Node19</title>
<g id="a_node19"><a xlink:href="a00359.html#gaca56fc22d65a24a96d1bef310ade73aa" target="_top" xlink:title="tds7_process_result() is the TDS 7.0 result set processing routine. ">
<polygon fill="white" stroke="black" points="479,-65.3699 479,-84.3699 591,-84.3699 591,-65.3699 479,-65.3699"/>
<text text-anchor="middle" x="535" y="-72.3699" font-family="Helvetica,sans-Serif" font-size="10.00">tds7_process_result</text>
</a>
</g>
</g>
<!-- Node18&#45;&gt;Node19 -->
<g id="edge38" class="edge"><title>Node18&#45;&gt;Node19</title>
<path fill="none" stroke="midnightblue" d="M421.504,-74.8699C440.242,-74.8699 460.591,-74.8699 478.764,-74.8699"/>
<polygon fill="midnightblue" stroke="midnightblue" points="421.283,-71.37 411.283,-74.8699 421.283,-78.37 421.283,-71.37"/>
</g>
<!-- Node18&#45;&gt;Node20 -->
<g id="edge41" class="edge"><title>Node18&#45;&gt;Node20</title>
<path fill="none" stroke="midnightblue" d="M406.105,-62.8438C426.981,-57.6246 451.658,-51.4555 473.739,-45.9353"/>
<polygon fill="midnightblue" stroke="midnightblue" points="405.042,-59.5016 396.189,-65.3226 406.74,-66.2926 405.042,-59.5016"/>
</g>
<!-- Node19&#45;&gt;Node5 -->
<g id="edge39" class="edge"><title>Node19&#45;&gt;Node5</title>
<path fill="none" stroke="midnightblue" d="M600.027,-88.6915C602.162,-90.2446 604.166,-91.9649 606,-93.8699 662.763,-152.826 692.823,-422.108 699.54,-489.53"/>
<polygon fill="midnightblue" stroke="midnightblue" points="601.626,-85.5709 591.237,-83.4931 598.063,-91.5961 601.626,-85.5709"/>
</g>
<!-- Node19&#45;&gt;Node7 -->
<g id="edge40" class="edge"><title>Node19&#45;&gt;Node7</title>
<path fill="none" stroke="midnightblue" d="M601.362,-69.8384C702.311,-63.5517 889.588,-58.2666 938,-100.87 1010.23,-164.438 1026.32,-498.562 1028.67,-559.37"/>
<polygon fill="midnightblue" stroke="midnightblue" points="601.03,-66.3524 591.276,-70.4878 601.48,-73.338 601.03,-66.3524"/>
</g>
<!-- Node20&#45;&gt;Node7 -->
<g id="edge42" class="edge"><title>Node20&#45;&gt;Node7</title>
<path fill="none" stroke="midnightblue" d="M604.745,-13.8052C693.573,3.76113 847.52,18.2845 938,-63.8699 1014.84,-133.637 1027.19,-494.74 1028.79,-559.063"/>
<polygon fill="midnightblue" stroke="midnightblue" points="603.869,-10.4119 594.772,-15.8443 605.271,-17.27 603.869,-10.4119"/>
</g>
<!-- Node22 -->
<g id="node22" class="node"><title>Node22</title>
<g id="a_node22"><a xlink:href="a00359.html#gacb3354443bcefe7a500a500a4904cc05" target="_top" xlink:title="process output parameters of a stored procedure. ">
<polygon fill="white" stroke="black" points="286,-267.37 286,-286.37 428,-286.37 428,-267.37 286,-267.37"/>
<text text-anchor="middle" x="357" y="-274.37" font-family="Helvetica,sans-Serif" font-size="10.00">tds_process_param_result</text>
</a>
</g>
</g>
<!-- Node21&#45;&gt;Node22 -->
<g id="edge44" class="edge"><title>Node21&#45;&gt;Node22</title>
<path fill="none" stroke="midnightblue" d="M243.052,-276.87C256.895,-276.87 271.721,-276.87 285.927,-276.87"/>
<polygon fill="midnightblue" stroke="midnightblue" points="242.683,-273.37 232.683,-276.87 242.683,-280.37 242.683,-273.37"/>
</g>
<!-- Node21&#45;&gt;Node23 -->
<g id="edge47" class="edge"><title>Node21&#45;&gt;Node23</title>
<path fill="none" stroke="midnightblue" d="M236.16,-288.622C260.693,-293.996 289.379,-300.279 312.533,-305.35"/>
<polygon fill="midnightblue" stroke="midnightblue" points="236.799,-285.18 226.281,-286.459 235.301,-292.017 236.799,-285.18"/>
</g>
<!-- Node21&#45;&gt;Node24 -->
<g id="edge50" class="edge"><title>Node21&#45;&gt;Node24</title>
<path fill="none" stroke="midnightblue" d="M215.469,-263.378C249.744,-249.352 302.52,-227.755 332.695,-215.407"/>
<polygon fill="midnightblue" stroke="midnightblue" points="213.828,-260.268 205.899,-267.295 216.48,-266.746 213.828,-260.268"/>
</g>
<!-- Node22&#45;&gt;Node7 -->
<g id="edge45" class="edge"><title>Node22&#45;&gt;Node7</title>
<path fill="none" stroke="midnightblue" d="M393.974,-264.066C494.123,-230.954 779.195,-154.301 938,-291.87 1022.74,-365.282 1028.97,-519.027 1029.1,-559.133"/>
<polygon fill="midnightblue" stroke="midnightblue" points="392.685,-260.807 384.323,-267.313 394.917,-267.442 392.685,-260.807"/>
</g>
<!-- Node22&#45;&gt;Node16 -->
<g id="edge46" class="edge"><title>Node22&#45;&gt;Node16</title>
<path fill="none" stroke="midnightblue" d="M420.401,-288.216C434.498,-290.779 449.556,-293.516 463.944,-296.133"/>
<polygon fill="midnightblue" stroke="midnightblue" points="420.794,-284.73 410.329,-286.384 419.542,-291.617 420.794,-284.73"/>
</g>
<!-- Node23&#45;&gt;Node5 -->
<g id="edge48" class="edge"><title>Node23&#45;&gt;Node5</title>
<path fill="none" stroke="midnightblue" d="M402.676,-327.309C454.269,-342.898 540.446,-372.775 606,-414.87 639.264,-436.23 671.197,-470.131 688.242,-489.658"/>
<polygon fill="midnightblue" stroke="midnightblue" points="403.417,-323.878 392.834,-324.382 401.422,-330.587 403.417,-323.878"/>
</g>
<!-- Node23&#45;&gt;Node7 -->
<g id="edge49" class="edge"><title>Node23&#45;&gt;Node7</title>
<path fill="none" stroke="midnightblue" d="M404.578,-302.624C412.418,-300.449 420.457,-298.149 428,-295.87 444.145,-290.992 447.352,-286.571 464,-283.87 676.987,-249.307 773.718,-248.978 938,-388.87 994.52,-436.998 1019.84,-528.856 1026.87,-559.011"/>
<polygon fill="midnightblue" stroke="midnightblue" points="403.525,-299.283 394.805,-305.3 405.374,-306.035 403.525,-299.283"/>
</g>
<!-- Node24&#45;&gt;Node5 -->
<g id="edge51" class="edge"><title>Node24&#45;&gt;Node5</title>
<path fill="none" stroke="midnightblue" d="M431.743,-212.664C485.836,-221.197 557.942,-240.448 606,-283.87 669.989,-341.686 692.559,-450.027 698.895,-489.762"/>
<polygon fill="midnightblue" stroke="midnightblue" points="431.926,-209.152 421.52,-211.144 430.896,-216.076 431.926,-209.152"/>
</g>
<!-- Node24&#45;&gt;Node7 -->
<g id="edge52" class="edge"><title>Node24&#45;&gt;Node7</title>
<path fill="none" stroke="midnightblue" d="M394.74,-193.147C495.09,-160.953 777.051,-87.9397 938,-221.87 992.695,-267.383 1022.25,-508.102 1027.97,-559.293"/>
<polygon fill="midnightblue" stroke="midnightblue" points="393.475,-189.878 385.055,-196.31 395.648,-196.532 393.475,-189.878"/>
</g>
<!-- Node25&#45;&gt;Node5 -->
<g id="edge55" class="edge"><title>Node25&#45;&gt;Node5</title>
<path fill="none" stroke="midnightblue" d="M559.587,-128.391C574.888,-139.607 594.119,-156.05 606,-174.87 674.107,-282.754 694.733,-440.871 699.667,-489.849"/>
<polygon fill="midnightblue" stroke="midnightblue" points="561.305,-125.32 551.117,-122.414 557.269,-131.04 561.305,-125.32"/>
</g>
<!-- Node25&#45;&gt;Node7 -->
<g id="edge56" class="edge"><title>Node25&#45;&gt;Node7</title>
<path fill="none" stroke="midnightblue" d="M601.264,-107.577C702.076,-100.876 889.169,-94.7786 938,-136.87 1005.2,-194.794 1025.28,-501.226 1028.51,-559.349"/>
<polygon fill="midnightblue" stroke="midnightblue" points="600.928,-104.092 591.191,-108.267 601.407,-111.075 600.928,-104.092"/>
</g>
<!-- Node26&#45;&gt;Node5 -->
<g id="edge58" class="edge"><title>Node26&#45;&gt;Node5</title>
<path fill="none" stroke="midnightblue" d="M252.341,-504.87C356.599,-504.87 550.816,-504.87 645.809,-504.87"/>
<polygon fill="midnightblue" stroke="midnightblue" points="252.232,-501.37 242.232,-504.87 252.232,-508.37 252.232,-501.37"/>
</g>
<!-- Node27&#45;&gt;Node7 -->
<g id="edge61" class="edge"><title>Node27&#45;&gt;Node7</title>
<path fill="none" stroke="midnightblue" d="M925.931,-958.644C930.404,-955.935 934.525,-952.709 938,-948.87 990.233,-891.152 1021.95,-631.52 1027.96,-578.387"/>
<polygon fill="midnightblue" stroke="midnightblue" points="924.269,-955.563 916.971,-963.244 927.466,-961.79 924.269,-955.563"/>
</g>
<!-- Node28&#45;&gt;Node5 -->
<g id="edge64" class="edge"><title>Node28&#45;&gt;Node5</title>
<path fill="none" stroke="midnightblue" d="M600.234,-844.072C602.298,-842.504 604.233,-840.776 606,-838.87 659.992,-780.644 620.124,-740.204 642,-663.87 657.493,-609.809 682.71,-547.909 694.517,-519.96"/>
<polygon fill="midnightblue" stroke="midnightblue" points="598.367,-841.111 591.711,-849.355 602.055,-847.061 598.367,-841.111"/>
</g>
<!-- Node28&#45;&gt;Node7 -->
<g id="edge65" class="edge"><title>Node28&#45;&gt;Node7</title>
<path fill="none" stroke="midnightblue" d="M615.639,-858.749C718.36,-857.004 889.594,-848.208 938,-809.87 1014.96,-748.92 1026.85,-615.313 1028.67,-578.453"/>
<polygon fill="midnightblue" stroke="midnightblue" points="615.559,-855.25 605.613,-858.901 615.665,-862.249 615.559,-855.25"/>
</g>
<!-- Node29&#45;&gt;Node5 -->
<g id="edge68" class="edge"><title>Node29&#45;&gt;Node5</title>
<path fill="none" stroke="midnightblue" d="M599.08,-796.034C601.564,-794.169 603.89,-792.121 606,-789.87 645.828,-747.376 623.856,-719.212 642,-663.87 659.52,-610.432 683.739,-548.225 694.909,-520.081"/>
<polygon fill="midnightblue" stroke="midnightblue" points="596.705,-793.394 590.114,-801.689 600.44,-799.314 596.705,-793.394"/>
</g>
<!-- Node29&#45;&gt;Node7 -->
<g id="edge69" class="edge"><title>Node29&#45;&gt;Node7</title>
<path fill="none" stroke="midnightblue" d="M600.195,-825.794C686.163,-836.675 839.277,-842.463 938,-767.87 1003.17,-718.631 1023.06,-611.736 1027.76,-578.759"/>
<polygon fill="midnightblue" stroke="midnightblue" points="600.426,-822.294 590.052,-824.447 599.504,-829.233 600.426,-822.294"/>
</g>
<!-- Node30&#45;&gt;Node5 -->
<g id="edge71" class="edge"><title>Node30&#45;&gt;Node5</title>
<path fill="none" stroke="midnightblue" d="M259.198,-472.491C364.984,-480.244 553.103,-494.031 645.988,-500.838"/>
<polygon fill="midnightblue" stroke="midnightblue" points="259.452,-469 249.223,-471.76 258.941,-475.982 259.452,-469"/>
</g>
</g>
</svg>
