<?xml version="1.0" encoding="UTF-8" standalone="no"?>
<!DOCTYPE svg PUBLIC "-//W3C//DTD SVG 1.1//EN"
 "http://www.w3.org/Graphics/SVG/1.1/DTD/svg11.dtd">
<!-- Generated by graphviz version 2.38.0 (20140413.2041)
 -->
<!-- Title: dbrpcinit Pages: 1 -->
<svg width="270pt" height="47pt"
 viewBox="0.00 0.00 270.00 47.00" xmlns="http://www.w3.org/2000/svg" xmlns:xlink="http://www.w3.org/1999/xlink">
<g id="graph0" class="graph" transform="scale(1 1) rotate(0) translate(4 43)">
<title>dbrpcinit</title>
<polygon fill="white" stroke="none" points="-4,4 -4,-43 266,-43 266,4 -4,4"/>
<!-- Node1 -->
<g id="node1" class="node"><title>Node1</title>
<polygon fill="#bfbfbf" stroke="black" points="0,-19.5 0,-38.5 56,-38.5 56,-19.5 0,-19.5"/>
<text text-anchor="middle" x="28" y="-26.5" font-family="Helvetica,sans-Serif" font-size="10.00">dbrpcinit</text>
</g>
<!-- Node2 -->
<g id="node2" class="node"><title>Node2</title>
<g id="a_node2"><a xlink:href="a00193.html#ab45c291105027e69836002e1dd586141" target="_top" xlink:title="Write a message to the debug log. ">
<polygon fill="white" stroke="black" points="185,-19.5 185,-38.5 262,-38.5 262,-19.5 185,-19.5"/>
<text text-anchor="middle" x="223.5" y="-26.5" font-family="Helvetica,sans-Serif" font-size="10.00">tdsdump_log</text>
</a>
</g>
</g>
<!-- Node1&#45;&gt;Node2 -->
<g id="edge1" class="edge"><title>Node1&#45;&gt;Node2</title>
<path fill="none" stroke="midnightblue" d="M56.3134,-29C86.9755,-29 137.303,-29 174.554,-29"/>
<polygon fill="midnightblue" stroke="midnightblue" points="174.687,-32.5001 184.687,-29 174.687,-25.5001 174.687,-32.5001"/>
</g>
<!-- Node3 -->
<g id="node3" class="node"><title>Node3</title>
<g id="a_node3"><a xlink:href="a00347.html#ga302a4ce6559b81808e3be51615cd1b67" target="_top" xlink:title="Call client&#45;installed error handler. ">
<polygon fill="white" stroke="black" points="92,-0.5 92,-19.5 149,-19.5 149,-0.5 92,-0.5"/>
<text text-anchor="middle" x="120.5" y="-7.5" font-family="Helvetica,sans-Serif" font-size="10.00">dbperror</text>
</a>
</g>
</g>
<!-- Node1&#45;&gt;Node3 -->
<g id="edge2" class="edge"><title>Node1&#45;&gt;Node3</title>
<path fill="none" stroke="midnightblue" d="M56.153,-23.2994C64.2361,-21.6024 73.2416,-19.7117 81.867,-17.9009"/>
<polygon fill="midnightblue" stroke="midnightblue" points="82.6722,-21.3082 91.7397,-15.8281 81.2339,-14.4575 82.6722,-21.3082"/>
</g>
<!-- Node3&#45;&gt;Node2 -->
<g id="edge3" class="edge"><title>Node3&#45;&gt;Node2</title>
<path fill="none" stroke="midnightblue" d="M149.099,-15.1918C157.077,-16.6926 166.022,-18.3755 174.851,-20.0363"/>
<polygon fill="midnightblue" stroke="midnightblue" points="174.237,-23.4822 184.712,-21.8913 175.531,-16.6028 174.237,-23.4822"/>
</g>
</g>
</svg>
