<?xml version="1.0" encoding="UTF-8" standalone="no"?>
<!DOCTYPE svg PUBLIC "-//W3C//DTD SVG 1.1//EN"
 "http://www.w3.org/Graphics/SVG/1.1/DTD/svg11.dtd">
<!-- Generated by graphviz version 2.38.0 (20140413.2041)
 -->
<!-- Title: include/freetds/tds.h Pages: 1 -->
<svg width="1260pt" height="196pt"
 viewBox="0.00 0.00 1260.15 196.00" xmlns="http://www.w3.org/2000/svg" xmlns:xlink="http://www.w3.org/1999/xlink">
<g id="graph0" class="graph" transform="scale(1 1) rotate(0) translate(4 192)">
<title>include/freetds/tds.h</title>
<polygon fill="white" stroke="none" points="-4,4 -4,-192 1256.15,-192 1256.15,4 -4,4"/>
<!-- Node1 -->
<g id="node1" class="node"><title>Node1</title>
<polygon fill="#bfbfbf" stroke="black" points="548.651,-168.5 548.651,-187.5 659.651,-187.5 659.651,-168.5 548.651,-168.5"/>
<text text-anchor="middle" x="604.151" y="-175.5" font-family="Helvetica,sans-Serif" font-size="10.00">include/freetds/tds.h</text>
</g>
<!-- Node2 -->
<g id="node2" class="node"><title>Node2</title>
<polygon fill="white" stroke="#bfbfbf" points="13.6515,-56.5 13.6515,-75.5 68.6515,-75.5 68.6515,-56.5 13.6515,-56.5"/>
<text text-anchor="middle" x="41.1515" y="-63.5" font-family="Helvetica,sans-Serif" font-size="10.00">stdarg.h</text>
</g>
<!-- Node1&#45;&gt;Node2 -->
<g id="edge1" class="edge"><title>Node1&#45;&gt;Node2</title>
<path fill="none" stroke="midnightblue" d="M548.592,-171.264C484.491,-164.167 376.102,-150.691 284.151,-132 210.392,-117.007 125.805,-92.7393 78.4032,-78.4815"/>
<polygon fill="midnightblue" stroke="midnightblue" points="79.1735,-75.058 68.5884,-75.5123 77.1465,-81.7581 79.1735,-75.058"/>
</g>
<!-- Node3 -->
<g id="node3" class="node"><title>Node3</title>
<polygon fill="white" stroke="#bfbfbf" points="516.651,-112.5 516.651,-131.5 563.651,-131.5 563.651,-112.5 516.651,-112.5"/>
<text text-anchor="middle" x="540.151" y="-119.5" font-family="Helvetica,sans-Serif" font-size="10.00">stdio.h</text>
</g>
<!-- Node1&#45;&gt;Node3 -->
<g id="edge2" class="edge"><title>Node1&#45;&gt;Node3</title>
<path fill="none" stroke="midnightblue" d="M593.869,-168.324C584.315,-160.263 569.872,-148.077 558.367,-138.369"/>
<polygon fill="midnightblue" stroke="midnightblue" points="560.521,-135.608 550.621,-131.834 556.007,-140.958 560.521,-135.608"/>
</g>
<!-- Node4 -->
<g id="node4" class="node"><title>Node4</title>
<g id="a_node4"><a xlink:href="a00195_source.html" target="_top" xlink:title="time.h">
<polygon fill="white" stroke="black" points="582.151,-112.5 582.151,-131.5 626.151,-131.5 626.151,-112.5 582.151,-112.5"/>
<text text-anchor="middle" x="604.151" y="-119.5" font-family="Helvetica,sans-Serif" font-size="10.00">time.h</text>
</a>
</g>
</g>
<!-- Node1&#45;&gt;Node4 -->
<g id="edge3" class="edge"><title>Node1&#45;&gt;Node4</title>
<path fill="none" stroke="midnightblue" d="M604.151,-168.083C604.151,-161.006 604.151,-150.861 604.151,-141.986"/>
<polygon fill="midnightblue" stroke="midnightblue" points="607.652,-141.751 604.151,-131.751 600.652,-141.751 607.652,-141.751"/>
</g>
<!-- Node5 -->
<g id="node5" class="node"><title>Node5</title>
<g id="a_node5"><a xlink:href="a00197_source.html" target="_top" xlink:title="freetds/version.h">
<polygon fill="white" stroke="black" points="662.651,-112.5 662.651,-131.5 757.651,-131.5 757.651,-112.5 662.651,-112.5"/>
<text text-anchor="middle" x="710.151" y="-119.5" font-family="Helvetica,sans-Serif" font-size="10.00">freetds/version.h</text>
</a>
</g>
</g>
<!-- Node1&#45;&gt;Node5 -->
<g id="edge5" class="edge"><title>Node1&#45;&gt;Node5</title>
<path fill="none" stroke="midnightblue" d="M621.182,-168.324C638.181,-159.664 664.528,-146.242 684.144,-136.249"/>
<polygon fill="midnightblue" stroke="midnightblue" points="685.841,-139.312 693.163,-131.655 682.664,-133.075 685.841,-139.312"/>
</g>
<!-- Node6 -->
<g id="node6" class="node"><title>Node6</title>
<polygon fill="white" stroke="#bfbfbf" points="775.651,-112.5 775.651,-131.5 886.651,-131.5 886.651,-112.5 775.651,-112.5"/>
<text text-anchor="middle" x="831.151" y="-119.5" font-family="Helvetica,sans-Serif" font-size="10.00">tds_sysdep_public.h</text>
</g>
<!-- Node1&#45;&gt;Node6 -->
<g id="edge6" class="edge"><title>Node1&#45;&gt;Node6</title>
<path fill="none" stroke="midnightblue" d="M640.12,-168.444C679.471,-159.083 742.638,-144.056 785.466,-133.868"/>
<polygon fill="midnightblue" stroke="midnightblue" points="786.432,-137.236 795.351,-131.516 784.812,-130.426 786.432,-137.236"/>
</g>
<!-- Node7 -->
<g id="node7" class="node"><title>Node7</title>
<g id="a_node7"><a xlink:href="a00192_source.html" target="_top" xlink:title="freetds/sysdep_private.h">
<polygon fill="white" stroke="black" points="904.651,-112.5 904.651,-131.5 1037.65,-131.5 1037.65,-112.5 904.651,-112.5"/>
<text text-anchor="middle" x="971.151" y="-119.5" font-family="Helvetica,sans-Serif" font-size="10.00">freetds/sysdep_private.h</text>
</a>
</g>
</g>
<!-- Node1&#45;&gt;Node7 -->
<g id="edge7" class="edge"><title>Node1&#45;&gt;Node7</title>
<path fill="none" stroke="midnightblue" d="M659.891,-168.799C725.159,-159.195 833.237,-143.293 903.317,-132.981"/>
<polygon fill="midnightblue" stroke="midnightblue" points="903.987,-136.42 913.371,-131.502 902.968,-129.495 903.987,-136.42"/>
</g>
<!-- Node8 -->
<g id="node8" class="node"><title>Node8</title>
<g id="a_node8"><a xlink:href="a00194_source.html" target="_top" xlink:title="freetds/thread.h">
<polygon fill="white" stroke="black" points="1056.15,-112.5 1056.15,-131.5 1148.15,-131.5 1148.15,-112.5 1056.15,-112.5"/>
<text text-anchor="middle" x="1102.15" y="-119.5" font-family="Helvetica,sans-Serif" font-size="10.00">freetds/thread.h</text>
</a>
</g>
</g>
<!-- Node1&#45;&gt;Node8 -->
<g id="edge8" class="edge"><title>Node1&#45;&gt;Node8</title>
<path fill="none" stroke="midnightblue" d="M659.876,-172.437C742.081,-165.464 900.91,-151.068 1045.99,-132.083"/>
<polygon fill="midnightblue" stroke="midnightblue" points="1046.51,-135.544 1055.97,-130.767 1045.6,-128.604 1046.51,-135.544"/>
</g>
<!-- Node9 -->
<g id="node9" class="node"><title>Node9</title>
<g id="a_node9"><a xlink:href="a00202_source.html" target="_top" xlink:title="replacements.h">
<polygon fill="white" stroke="black" points="293.651,-112.5 293.651,-131.5 382.651,-131.5 382.651,-112.5 293.651,-112.5"/>
<text text-anchor="middle" x="338.151" y="-119.5" font-family="Helvetica,sans-Serif" font-size="10.00">replacements.h</text>
</a>
</g>
</g>
<!-- Node1&#45;&gt;Node9 -->
<g id="edge9" class="edge"><title>Node1&#45;&gt;Node9</title>
<path fill="none" stroke="midnightblue" d="M562.003,-168.444C515.405,-158.984 440.307,-143.738 390.106,-133.547"/>
<polygon fill="midnightblue" stroke="midnightblue" points="390.599,-130.076 380.103,-131.516 389.207,-136.936 390.599,-130.076"/>
</g>
<!-- Node12 -->
<g id="node12" class="node"><title>Node12</title>
<g id="a_node12"><a xlink:href="a00188_source.html" target="_top" xlink:title="freetds/pushvis.h">
<polygon fill="white" stroke="black" points="384.151,-0.5 384.151,-19.5 480.151,-19.5 480.151,-0.5 384.151,-0.5"/>
<text text-anchor="middle" x="432.151" y="-7.5" font-family="Helvetica,sans-Serif" font-size="10.00">freetds/pushvis.h</text>
</a>
</g>
</g>
<!-- Node1&#45;&gt;Node12 -->
<g id="edge21" class="edge"><title>Node1&#45;&gt;Node12</title>
<path fill="none" stroke="midnightblue" d="M574.874,-168.426C554.178,-161.249 526.741,-149.361 507.151,-132 473.987,-102.61 450.488,-55.0338 439.384,-29.1629"/>
<polygon fill="midnightblue" stroke="midnightblue" points="442.57,-27.7076 435.507,-19.81 436.103,-30.388 442.57,-27.7076"/>
</g>
<!-- Node13 -->
<g id="node13" class="node"><title>Node13</title>
<g id="a_node13"><a xlink:href="a00186_source.html" target="_top" xlink:title="freetds/popvis.h">
<polygon fill="white" stroke="black" points="180.151,-0.5 180.151,-19.5 272.151,-19.5 272.151,-0.5 180.151,-0.5"/>
<text text-anchor="middle" x="226.151" y="-7.5" font-family="Helvetica,sans-Serif" font-size="10.00">freetds/popvis.h</text>
</a>
</g>
</g>
<!-- Node1&#45;&gt;Node13 -->
<g id="edge23" class="edge"><title>Node1&#45;&gt;Node13</title>
<path fill="none" stroke="midnightblue" d="M548.473,-176.845C412.356,-175.113 69.1144,-162.123 4.15147,-76 -1.20137,-68.9036 -1.47505,-62.8815 4.15147,-56 24.6987,-30.87 111.067,-19.4375 169.818,-14.4869"/>
<polygon fill="midnightblue" stroke="midnightblue" points="170.394,-17.952 180.082,-13.6637 169.834,-10.9745 170.394,-17.952"/>
</g>
<!-- Node18 -->
<g id="node18" class="node"><title>Node18</title>
<g id="a_node18"><a xlink:href="a00187_source.html" target="_top" xlink:title="freetds/proto.h">
<polygon fill="white" stroke="black" points="1166.15,-112.5 1166.15,-131.5 1252.15,-131.5 1252.15,-112.5 1166.15,-112.5"/>
<text text-anchor="middle" x="1209.15" y="-119.5" font-family="Helvetica,sans-Serif" font-size="10.00">freetds/proto.h</text>
</a>
</g>
</g>
<!-- Node1&#45;&gt;Node18 -->
<g id="edge22" class="edge"><title>Node1&#45;&gt;Node18</title>
<path fill="none" stroke="midnightblue" d="M659.659,-174.144C757.735,-168.735 968.262,-155.497 1156.01,-132.034"/>
<polygon fill="midnightblue" stroke="midnightblue" points="1156.58,-135.49 1166.07,-130.765 1155.71,-128.545 1156.58,-135.49"/>
</g>
<!-- Node4&#45;&gt;Node4 -->
<g id="edge4" class="edge"><title>Node4&#45;&gt;Node4</title>
<path fill="none" stroke="midnightblue" d="M621.42,-131.575C632.939,-134.27 644.151,-131.078 644.151,-122 644.151,-115.759 638.852,-112.3 631.796,-111.623"/>
<polygon fill="midnightblue" stroke="midnightblue" points="631.12,-108.165 621.42,-112.425 631.66,-115.144 631.12,-108.165"/>
</g>
<!-- Node9&#45;&gt;Node2 -->
<g id="edge10" class="edge"><title>Node9&#45;&gt;Node2</title>
<path fill="none" stroke="midnightblue" d="M293.627,-114.355C243.555,-106.653 159.617,-93.0563 78.8444,-76.2477"/>
<polygon fill="midnightblue" stroke="midnightblue" points="79.5182,-72.813 69.0122,-74.1822 78.079,-79.6634 79.5182,-72.813"/>
</g>
<!-- Node10 -->
<g id="node10" class="node"><title>Node10</title>
<g id="a_node10"><a xlink:href="a00210_source.html" target="_top" xlink:title="tds_sysdep_public.h">
<polygon fill="white" stroke="black" points="86.6515,-56.5 86.6515,-75.5 197.651,-75.5 197.651,-56.5 86.6515,-56.5"/>
<text text-anchor="middle" x="142.151" y="-63.5" font-family="Helvetica,sans-Serif" font-size="10.00">tds_sysdep_public.h</text>
</a>
</g>
</g>
<!-- Node9&#45;&gt;Node10 -->
<g id="edge11" class="edge"><title>Node9&#45;&gt;Node10</title>
<path fill="none" stroke="midnightblue" d="M307.095,-112.444C273.548,-103.201 219.955,-88.4356 183.011,-78.2572"/>
<polygon fill="midnightblue" stroke="midnightblue" points="183.633,-74.7984 173.063,-75.5164 181.774,-81.5469 183.633,-74.7984"/>
</g>
<!-- Node11 -->
<g id="node11" class="node"><title>Node11</title>
<g id="a_node11"><a xlink:href="a00203_source.html" target="_top" xlink:title="replacements/readpassphrase.h">
<polygon fill="white" stroke="black" points="253.651,-56.5 253.651,-75.5 422.651,-75.5 422.651,-56.5 253.651,-56.5"/>
<text text-anchor="middle" x="338.151" y="-63.5" font-family="Helvetica,sans-Serif" font-size="10.00">replacements/readpassphrase.h</text>
</a>
</g>
</g>
<!-- Node9&#45;&gt;Node11 -->
<g id="edge12" class="edge"><title>Node9&#45;&gt;Node11</title>
<path fill="none" stroke="midnightblue" d="M338.151,-112.083C338.151,-105.006 338.151,-94.8611 338.151,-85.9865"/>
<polygon fill="midnightblue" stroke="midnightblue" points="341.652,-85.751 338.151,-75.7511 334.652,-85.7511 341.652,-85.751"/>
</g>
<!-- Node9&#45;&gt;Node12 -->
<g id="edge19" class="edge"><title>Node9&#45;&gt;Node12</title>
<path fill="none" stroke="midnightblue" d="M377.291,-112.402C396.998,-105.896 419.191,-94.7519 431.151,-76 439.867,-62.335 439.119,-43.5465 436.782,-29.683"/>
<polygon fill="midnightblue" stroke="midnightblue" points="440.191,-28.8843 434.718,-19.8126 433.339,-30.3173 440.191,-28.8843"/>
</g>
<!-- Node9&#45;&gt;Node13 -->
<g id="edge20" class="edge"><title>Node9&#45;&gt;Node13</title>
<path fill="none" stroke="midnightblue" d="M304.148,-112.441C283.999,-105.701 259.487,-94.3091 244.151,-76 233.235,-62.967 228.912,-43.81 227.214,-29.6674"/>
<polygon fill="midnightblue" stroke="midnightblue" points="230.693,-29.2721 226.339,-19.6131 223.719,-29.8788 230.693,-29.2721"/>
</g>
<!-- Node14 -->
<g id="node14" class="node"><title>Node14</title>
<g id="a_node14"><a xlink:href="a00178.html" target="_top" xlink:title="Provide poll call where missing. ">
<polygon fill="white" stroke="black" points="534.151,-56.5 534.151,-75.5 596.151,-75.5 596.151,-56.5 534.151,-56.5"/>
<text text-anchor="middle" x="565.151" y="-63.5" font-family="Helvetica,sans-Serif" font-size="10.00">fakepoll.h</text>
</a>
</g>
</g>
<!-- Node9&#45;&gt;Node14 -->
<g id="edge15" class="edge"><title>Node9&#45;&gt;Node14</title>
<path fill="none" stroke="midnightblue" d="M374.12,-112.444C414.975,-102.725 481.503,-86.8987 524.286,-76.7212"/>
<polygon fill="midnightblue" stroke="midnightblue" points="525.174,-80.1077 534.093,-74.3884 523.554,-73.2978 525.174,-80.1077"/>
</g>
<!-- Node11&#45;&gt;Node12 -->
<g id="edge13" class="edge"><title>Node11&#45;&gt;Node12</title>
<path fill="none" stroke="midnightblue" d="M353.254,-56.324C368.055,-47.8215 390.846,-34.7288 408.134,-24.7975"/>
<polygon fill="midnightblue" stroke="midnightblue" points="410.159,-27.6707 417.086,-19.6545 406.672,-21.6009 410.159,-27.6707"/>
</g>
<!-- Node11&#45;&gt;Node13 -->
<g id="edge14" class="edge"><title>Node11&#45;&gt;Node13</title>
<path fill="none" stroke="midnightblue" d="M320.157,-56.324C302.114,-47.6247 274.105,-34.1202 253.349,-24.113"/>
<polygon fill="midnightblue" stroke="midnightblue" points="254.629,-20.8449 244.102,-19.6545 251.589,-27.1502 254.629,-20.8449"/>
</g>
<!-- Node15 -->
<g id="node15" class="node"><title>Node15</title>
<g id="a_node15"><a xlink:href="a00170_source.html" target="_top" xlink:title="config.h">
<polygon fill="white" stroke="black" points="653.651,-0.5 653.651,-19.5 706.651,-19.5 706.651,-0.5 653.651,-0.5"/>
<text text-anchor="middle" x="680.151" y="-7.5" font-family="Helvetica,sans-Serif" font-size="10.00">config.h</text>
</a>
</g>
</g>
<!-- Node14&#45;&gt;Node15 -->
<g id="edge16" class="edge"><title>Node14&#45;&gt;Node15</title>
<path fill="none" stroke="midnightblue" d="M583.374,-56.4435C602.047,-47.6751 631.307,-33.9355 652.769,-23.8579"/>
<polygon fill="midnightblue" stroke="midnightblue" points="654.451,-26.935 662.015,-19.5164 651.475,-20.5988 654.451,-26.935"/>
</g>
<!-- Node16 -->
<g id="node16" class="node"><title>Node16</title>
<polygon fill="white" stroke="#bfbfbf" points="498.151,-0.5 498.151,-19.5 546.151,-19.5 546.151,-0.5 498.151,-0.5"/>
<text text-anchor="middle" x="522.151" y="-7.5" font-family="Helvetica,sans-Serif" font-size="10.00">limits.h</text>
</g>
<!-- Node14&#45;&gt;Node16 -->
<g id="edge17" class="edge"><title>Node14&#45;&gt;Node16</title>
<path fill="none" stroke="midnightblue" d="M558.051,-56.083C551.914,-48.3768 542.882,-37.0333 535.412,-27.6531"/>
<polygon fill="midnightblue" stroke="midnightblue" points="538.087,-25.3936 529.12,-19.7511 532.611,-29.7542 538.087,-25.3936"/>
</g>
<!-- Node17 -->
<g id="node17" class="node"><title>Node17</title>
<polygon fill="white" stroke="#bfbfbf" points="564.651,-0.5 564.651,-19.5 635.651,-19.5 635.651,-0.5 564.651,-0.5"/>
<text text-anchor="middle" x="600.151" y="-7.5" font-family="Helvetica,sans-Serif" font-size="10.00">sys/select.h</text>
</g>
<!-- Node14&#45;&gt;Node17 -->
<g id="edge18" class="edge"><title>Node14&#45;&gt;Node17</title>
<path fill="none" stroke="midnightblue" d="M570.931,-56.083C575.824,-48.5341 582.979,-37.4948 588.984,-28.2298"/>
<polygon fill="midnightblue" stroke="midnightblue" points="591.978,-30.0463 594.479,-19.7511 586.103,-26.239 591.978,-30.0463"/>
</g>
</g>
</svg>
