<?xml version="1.0" encoding="UTF-8" standalone="no"?>
<!DOCTYPE svg PUBLIC "-//W3C//DTD SVG 1.1//EN"
 "http://www.w3.org/Graphics/SVG/1.1/DTD/svg11.dtd">
<!-- Generated by graphviz version 2.38.0 (20140413.2041)
 -->
<!-- Title: _bcp_get_col_data Pages: 1 -->
<svg width="395pt" height="180pt"
 viewBox="0.00 0.00 395.00 180.00" xmlns="http://www.w3.org/2000/svg" xmlns:xlink="http://www.w3.org/1999/xlink">
<g id="graph0" class="graph" transform="scale(1 1) rotate(0) translate(4 176)">
<title>_bcp_get_col_data</title>
<polygon fill="white" stroke="none" points="-4,4 -4,-176 391,-176 391,4 -4,4"/>
<!-- Node1 -->
<g id="node1" class="node"><title>Node1</title>
<polygon fill="#bfbfbf" stroke="black" points="0,-76.5 0,-95.5 107,-95.5 107,-76.5 0,-76.5"/>
<text text-anchor="middle" x="53.5" y="-83.5" font-family="Helvetica,sans-Serif" font-size="10.00">_bcp_get_col_data</text>
</g>
<!-- Node2 -->
<g id="node2" class="node"><title>Node2</title>
<g id="a_node2"><a xlink:href="a00193.html#ab45c291105027e69836002e1dd586141" target="_top" xlink:title="Write a message to the debug log. ">
<polygon fill="white" stroke="black" points="172.5,-152.5 172.5,-171.5 249.5,-171.5 249.5,-152.5 172.5,-152.5"/>
<text text-anchor="middle" x="211" y="-159.5" font-family="Helvetica,sans-Serif" font-size="10.00">tdsdump_log</text>
</a>
</g>
</g>
<!-- Node1&#45;&gt;Node2 -->
<g id="edge1" class="edge"><title>Node1&#45;&gt;Node2</title>
<path fill="none" stroke="midnightblue" d="M66.7193,-95.5541C83.1994,-108.033 113.853,-129.835 143,-143 149.219,-145.809 155.952,-148.303 162.67,-150.484"/>
<polygon fill="midnightblue" stroke="midnightblue" points="161.856,-153.895 172.441,-153.456 163.893,-147.197 161.856,-153.895"/>
</g>
<!-- Node3 -->
<g id="node3" class="node"><title>Node3</title>
<g id="a_node3"><a xlink:href="a00193.html#ae7f4c4d5f7352f1c814284c536659e6f" target="_top" xlink:title="Return type suitable for conversions (convert all nullable types to fixed type) ">
<polygon fill="white" stroke="black" points="143,-114.5 143,-133.5 279,-133.5 279,-114.5 143,-114.5"/>
<text text-anchor="middle" x="211" y="-121.5" font-family="Helvetica,sans-Serif" font-size="10.00">tds_get_conversion_type</text>
</a>
</g>
</g>
<!-- Node1&#45;&gt;Node3 -->
<g id="edge2" class="edge"><title>Node1&#45;&gt;Node3</title>
<path fill="none" stroke="midnightblue" d="M93.7392,-95.589C114.259,-100.604 139.567,-106.788 161.325,-112.105"/>
<polygon fill="midnightblue" stroke="midnightblue" points="160.498,-115.506 171.043,-114.48 162.16,-108.706 160.498,-115.506"/>
</g>
<!-- Node4 -->
<g id="node4" class="node"><title>Node4</title>
<g id="a_node4"><a xlink:href="a00193.html#aa70b02ff34ac03040ca41f13d5fd35bd" target="_top" xlink:title="Return the number of bytes needed by specified type. ">
<polygon fill="white" stroke="black" points="151.5,-76.5 151.5,-95.5 270.5,-95.5 270.5,-76.5 151.5,-76.5"/>
<text text-anchor="middle" x="211" y="-83.5" font-family="Helvetica,sans-Serif" font-size="10.00">tds_get_size_by_type</text>
</a>
</g>
</g>
<!-- Node1&#45;&gt;Node4 -->
<g id="edge3" class="edge"><title>Node1&#45;&gt;Node4</title>
<path fill="none" stroke="midnightblue" d="M107.145,-86C118.006,-86 129.599,-86 140.942,-86"/>
<polygon fill="midnightblue" stroke="midnightblue" points="141.261,-89.5001 151.261,-86 141.261,-82.5001 141.261,-89.5001"/>
</g>
<!-- Node5 -->
<g id="node5" class="node"><title>Node5</title>
<g id="a_node5"><a xlink:href="a00344.html#gac82ffc5c1f71cbf453d81d1057004f1e" target="_top" xlink:title="Get the data for bcp&#45;in from program variables, where the program data have been identified as charac...">
<polygon fill="white" stroke="black" points="157,-38.5 157,-57.5 265,-57.5 265,-38.5 157,-38.5"/>
<text text-anchor="middle" x="211" y="-45.5" font-family="Helvetica,sans-Serif" font-size="10.00">_bcp_get_term_var</text>
</a>
</g>
</g>
<!-- Node1&#45;&gt;Node5 -->
<g id="edge4" class="edge"><title>Node1&#45;&gt;Node5</title>
<path fill="none" stroke="midnightblue" d="M93.7392,-76.411C114.259,-71.3965 139.567,-65.2119 161.325,-59.8947"/>
<polygon fill="midnightblue" stroke="midnightblue" points="162.16,-63.294 171.043,-57.5201 160.498,-56.494 162.16,-63.294"/>
</g>
<!-- Node6 -->
<g id="node6" class="node"><title>Node6</title>
<g id="a_node6"><a xlink:href="a00233.html#a69623a4c4f488f3a8838af6f5ca3da13" target="_top" xlink:title="Convert column for input to a table. ">
<polygon fill="white" stroke="black" points="163.5,-0.5 163.5,-19.5 258.5,-19.5 258.5,-0.5 163.5,-0.5"/>
<text text-anchor="middle" x="211" y="-7.5" font-family="Helvetica,sans-Serif" font-size="10.00">_bcp_convert_in</text>
</a>
</g>
</g>
<!-- Node1&#45;&gt;Node6 -->
<g id="edge5" class="edge"><title>Node1&#45;&gt;Node6</title>
<path fill="none" stroke="midnightblue" d="M66.7193,-76.4459C83.1994,-63.9674 113.853,-42.1654 143,-29 148.096,-26.6981 153.538,-24.6078 159.034,-22.7278"/>
<polygon fill="midnightblue" stroke="midnightblue" points="160.46,-25.9464 168.922,-19.5705 158.331,-19.278 160.46,-25.9464"/>
</g>
<!-- Node7 -->
<g id="node7" class="node"><title>Node7</title>
<g id="a_node7"><a xlink:href="a00353.html#gaa865e08f7ad70ef92b111c2ea3657457" target="_top" xlink:title="tds_convert convert a type to another. ">
<polygon fill="white" stroke="black" points="315,-0.5 315,-19.5 387,-19.5 387,-0.5 315,-0.5"/>
<text text-anchor="middle" x="351" y="-7.5" font-family="Helvetica,sans-Serif" font-size="10.00">tds_convert</text>
</a>
</g>
</g>
<!-- Node6&#45;&gt;Node7 -->
<g id="edge6" class="edge"><title>Node6&#45;&gt;Node7</title>
<path fill="none" stroke="midnightblue" d="M258.721,-10C273.444,-10 289.684,-10 304.333,-10"/>
<polygon fill="midnightblue" stroke="midnightblue" points="304.674,-13.5001 314.674,-10 304.674,-6.5001 304.674,-13.5001"/>
</g>
</g>
</svg>
