<?xml version="1.0" encoding="UTF-8" standalone="no"?>
<!DOCTYPE svg PUBLIC "-//W3C//DTD SVG 1.1//EN"
 "http://www.w3.org/Graphics/SVG/1.1/DTD/svg11.dtd">
<!-- Generated by graphviz version 2.38.0 (20140413.2041)
 -->
<!-- Title: dbsetlversion Pages: 1 -->
<svg width="293pt" height="47pt"
 viewBox="0.00 0.00 293.00 47.00" xmlns="http://www.w3.org/2000/svg" xmlns:xlink="http://www.w3.org/1999/xlink">
<g id="graph0" class="graph" transform="scale(1 1) rotate(0) translate(4 43)">
<title>dbsetlversion</title>
<polygon fill="white" stroke="none" points="-4,4 -4,-43 289,-43 289,4 -4,4"/>
<!-- Node1 -->
<g id="node1" class="node"><title>Node1</title>
<polygon fill="#bfbfbf" stroke="black" points="0,-19.5 0,-38.5 79,-38.5 79,-19.5 0,-19.5"/>
<text text-anchor="middle" x="39.5" y="-26.5" font-family="Helvetica,sans-Serif" font-size="10.00">dbsetlversion</text>
</g>
<!-- Node2 -->
<g id="node2" class="node"><title>Node2</title>
<g id="a_node2"><a xlink:href="a00193.html#ab45c291105027e69836002e1dd586141" target="_top" xlink:title="Write a message to the debug log. ">
<polygon fill="white" stroke="black" points="208,-19.5 208,-38.5 285,-38.5 285,-19.5 208,-19.5"/>
<text text-anchor="middle" x="246.5" y="-26.5" font-family="Helvetica,sans-Serif" font-size="10.00">tdsdump_log</text>
</a>
</g>
</g>
<!-- Node1&#45;&gt;Node2 -->
<g id="edge1" class="edge"><title>Node1&#45;&gt;Node2</title>
<path fill="none" stroke="midnightblue" d="M79.0589,-29C112.628,-29 161.432,-29 197.519,-29"/>
<polygon fill="midnightblue" stroke="midnightblue" points="197.807,-32.5001 207.807,-29 197.807,-25.5001 197.807,-32.5001"/>
</g>
<!-- Node3 -->
<g id="node3" class="node"><title>Node3</title>
<g id="a_node3"><a xlink:href="a00347.html#ga302a4ce6559b81808e3be51615cd1b67" target="_top" xlink:title="Call client&#45;installed error handler. ">
<polygon fill="white" stroke="black" points="115,-0.5 115,-19.5 172,-19.5 172,-0.5 115,-0.5"/>
<text text-anchor="middle" x="143.5" y="-7.5" font-family="Helvetica,sans-Serif" font-size="10.00">dbperror</text>
</a>
</g>
</g>
<!-- Node1&#45;&gt;Node3 -->
<g id="edge2" class="edge"><title>Node1&#45;&gt;Node3</title>
<path fill="none" stroke="midnightblue" d="M79.0618,-21.8169C87.4844,-20.248 96.3891,-18.5893 104.778,-17.0266"/>
<polygon fill="midnightblue" stroke="midnightblue" points="105.499,-20.4526 114.689,-15.1805 104.217,-13.571 105.499,-20.4526"/>
</g>
<!-- Node3&#45;&gt;Node2 -->
<g id="edge3" class="edge"><title>Node3&#45;&gt;Node2</title>
<path fill="none" stroke="midnightblue" d="M172.099,-15.1918C180.077,-16.6926 189.022,-18.3755 197.851,-20.0363"/>
<polygon fill="midnightblue" stroke="midnightblue" points="197.237,-23.4822 207.712,-21.8913 198.531,-16.6028 197.237,-23.4822"/>
</g>
</g>
</svg>
