<?xml version="1.0" encoding="UTF-8" standalone="no"?>
<!DOCTYPE svg PUBLIC "-//W3C//DTD SVG 1.1//EN"
 "http://www.w3.org/Graphics/SVG/1.1/DTD/svg11.dtd">
<!-- Generated by graphviz version 2.38.0 (20140413.2041)
 -->
<!-- Title: dbsetifile Pages: 1 -->
<svg width="319pt" height="97pt"
 viewBox="0.00 0.00 319.00 96.50" xmlns="http://www.w3.org/2000/svg" xmlns:xlink="http://www.w3.org/1999/xlink">
<g id="graph0" class="graph" transform="scale(1 1) rotate(0) translate(4 92.5)">
<title>dbsetifile</title>
<polygon fill="white" stroke="none" points="-4,4 -4,-92.5 315,-92.5 315,4 -4,4"/>
<!-- Node1 -->
<g id="node1" class="node"><title>Node1</title>
<polygon fill="#bfbfbf" stroke="black" points="0,-50 0,-69 58,-69 58,-50 0,-50"/>
<text text-anchor="middle" x="29" y="-57" font-family="Helvetica,sans-Serif" font-size="10.00">dbsetifile</text>
</g>
<!-- Node2 -->
<g id="node2" class="node"><title>Node2</title>
<g id="a_node2"><a xlink:href="a00193.html#ab45c291105027e69836002e1dd586141" target="_top" xlink:title="Write a message to the debug log. ">
<polygon fill="white" stroke="black" points="234,-69 234,-88 311,-88 311,-69 234,-69"/>
<text text-anchor="middle" x="272.5" y="-76" font-family="Helvetica,sans-Serif" font-size="10.00">tdsdump_log</text>
</a>
</g>
</g>
<!-- Node1&#45;&gt;Node2 -->
<g id="edge1" class="edge"><title>Node1&#45;&gt;Node2</title>
<path fill="none" stroke="midnightblue" d="M55.7747,-69.0001C67.2979,-72.7633 81.1536,-76.6334 94,-78.5 137.577,-84.8319 187.809,-84.0951 223.69,-82.208"/>
<polygon fill="midnightblue" stroke="midnightblue" points="224.094,-85.6906 233.876,-81.6212 223.691,-78.7022 224.094,-85.6906"/>
</g>
<!-- Node3 -->
<g id="node3" class="node"><title>Node3</title>
<g id="a_node3"><a xlink:href="a00347.html#ga302a4ce6559b81808e3be51615cd1b67" target="_top" xlink:title="Call client&#45;installed error handler. ">
<polygon fill="white" stroke="black" points="117.5,-50 117.5,-69 174.5,-69 174.5,-50 117.5,-50"/>
<text text-anchor="middle" x="146" y="-57" font-family="Helvetica,sans-Serif" font-size="10.00">dbperror</text>
</a>
</g>
</g>
<!-- Node1&#45;&gt;Node3 -->
<g id="edge2" class="edge"><title>Node1&#45;&gt;Node3</title>
<path fill="none" stroke="midnightblue" d="M58.1322,-59.5C72.8598,-59.5 91.1012,-59.5 107.06,-59.5"/>
<polygon fill="midnightblue" stroke="midnightblue" points="107.158,-63.0001 117.158,-59.5 107.158,-56.0001 107.158,-63.0001"/>
</g>
<!-- Node4 -->
<g id="node4" class="node"><title>Node4</title>
<g id="a_node4"><a xlink:href="a00352.html#ga57cea6e376d7c2d28b811a5b0053210c" target="_top" xlink:title="Set the full name of interface file. ">
<polygon fill="white" stroke="black" points="94,-0.5 94,-30.5 198,-30.5 198,-0.5 94,-0.5"/>
<text text-anchor="start" x="102" y="-18.5" font-family="Helvetica,sans-Serif" font-size="10.00">tds_set_interfaces</text>
<text text-anchor="middle" x="146" y="-7.5" font-family="Helvetica,sans-Serif" font-size="10.00">_file_loc</text>
</a>
</g>
</g>
<!-- Node1&#45;&gt;Node4 -->
<g id="edge4" class="edge"><title>Node1&#45;&gt;Node4</title>
<path fill="none" stroke="midnightblue" d="M54.9533,-49.9527C66.9761,-45.3526 81.8296,-39.6696 95.9821,-34.2547"/>
<polygon fill="midnightblue" stroke="midnightblue" points="97.5356,-37.4078 105.625,-30.5654 95.0342,-30.87 97.5356,-37.4078"/>
</g>
<!-- Node3&#45;&gt;Node2 -->
<g id="edge3" class="edge"><title>Node3&#45;&gt;Node2</title>
<path fill="none" stroke="midnightblue" d="M174.631,-63.7167C188.987,-65.9077 206.946,-68.6484 223.488,-71.1729"/>
<polygon fill="midnightblue" stroke="midnightblue" points="223.146,-74.6611 233.559,-72.7099 224.202,-67.7412 223.146,-74.6611"/>
</g>
</g>
</svg>
