<?xml version="1.0" encoding="UTF-8" standalone="no"?>
<!DOCTYPE svg PUBLIC "-//W3C//DTD SVG 1.1//EN"
 "http://www.w3.org/Graphics/SVG/1.1/DTD/svg11.dtd">
<!-- Generated by graphviz version 2.38.0 (20140413.2041)
 -->
<!-- Title: dbrpcsend Pages: 1 -->
<svg width="974pt" height="392pt"
 viewBox="0.00 0.00 974.00 392.46" xmlns="http://www.w3.org/2000/svg" xmlns:xlink="http://www.w3.org/1999/xlink">
<g id="graph0" class="graph" transform="scale(1 1) rotate(0) translate(4 388.462)">
<title>dbrpcsend</title>
<polygon fill="white" stroke="none" points="-4,4 -4,-388.462 970,-388.462 970,4 -4,4"/>
<!-- Node1 -->
<g id="node1" class="node"><title>Node1</title>
<polygon fill="#bfbfbf" stroke="black" points="0,-298.862 0,-317.862 66,-317.862 66,-298.862 0,-298.862"/>
<text text-anchor="middle" x="33" y="-305.862" font-family="Helvetica,sans-Serif" font-size="10.00">dbrpcsend</text>
</g>
<!-- Node2 -->
<g id="node2" class="node"><title>Node2</title>
<g id="a_node2"><a xlink:href="a00193.html#ab45c291105027e69836002e1dd586141" target="_top" xlink:title="Write a message to the debug log. ">
<polygon fill="white" stroke="black" points="889,-184.862 889,-203.862 966,-203.862 966,-184.862 889,-184.862"/>
<text text-anchor="middle" x="927.5" y="-191.862" font-family="Helvetica,sans-Serif" font-size="10.00">tdsdump_log</text>
</a>
</g>
</g>
<!-- Node1&#45;&gt;Node2 -->
<g id="edge1" class="edge"><title>Node1&#45;&gt;Node2</title>
<path fill="none" stroke="midnightblue" d="M52.6236,-317.987C93.9759,-338.438 197.071,-384.362 289,-384.362 289,-384.362 289,-384.362 617,-384.362 660.579,-384.362 726.19,-385.974 853,-289.362 880.78,-268.197 903.669,-234.066 916.177,-212.992"/>
<polygon fill="midnightblue" stroke="midnightblue" points="919.361,-214.478 921.317,-204.065 913.294,-210.985 919.361,-214.478"/>
</g>
<!-- Node3 -->
<g id="node3" class="node"><title>Node3</title>
<g id="a_node3"><a xlink:href="a00356.html#ga5f071b94ad7889690762dc85646c74ab" target="_top" xlink:title="tds_submit_rpc() call a RPC from server. ">
<polygon fill="white" stroke="black" points="102,-222.862 102,-241.862 189,-241.862 189,-222.862 102,-222.862"/>
<text text-anchor="middle" x="145.5" y="-229.862" font-family="Helvetica,sans-Serif" font-size="10.00">tds_submit_rpc</text>
</a>
</g>
</g>
<!-- Node1&#45;&gt;Node3 -->
<g id="edge2" class="edge"><title>Node1&#45;&gt;Node3</title>
<path fill="none" stroke="midnightblue" d="M47.9949,-298.736C66.6762,-285.888 99.9774,-262.984 122.153,-247.731"/>
<polygon fill="midnightblue" stroke="midnightblue" points="124.363,-250.46 130.619,-241.909 120.396,-244.692 124.363,-250.46"/>
</g>
<!-- Node4 -->
<g id="node4" class="node"><title>Node4</title>
<g id="a_node4"><a xlink:href="a00193.html#a16db200d2281f76fe46fc1cbe37ca9df" target="_top" xlink:title="Set state of TDS connection, with logging and checking. ">
<polygon fill="white" stroke="black" points="576,-260.862 576,-279.862 656,-279.862 656,-260.862 576,-260.862"/>
<text text-anchor="middle" x="616" y="-267.862" font-family="Helvetica,sans-Serif" font-size="10.00">tds_set_state</text>
</a>
</g>
</g>
<!-- Node3&#45;&gt;Node4 -->
<g id="edge3" class="edge"><title>Node3&#45;&gt;Node4</title>
<path fill="none" stroke="midnightblue" d="M164.034,-241.942C179.593,-250.008 203.175,-261.19 225,-267.362 354.926,-304.102 393.758,-303.85 528,-289.362 541.719,-287.881 556.446,-285.124 569.812,-282.159"/>
<polygon fill="midnightblue" stroke="midnightblue" points="570.771,-285.53 579.727,-279.87 569.196,-278.709 570.771,-285.53"/>
</g>
<!-- Node6 -->
<g id="node6" class="node"><title>Node6</title>
<g id="a_node6"><a xlink:href="a00356.html#ga024bc5482366735070befd6f4af59f71" target="_top" xlink:title="Convert a string in an allocated buffer. ">
<polygon fill="white" stroke="black" points="564,-184.862 564,-203.862 668,-203.862 668,-184.862 564,-184.862"/>
<text text-anchor="middle" x="616" y="-191.862" font-family="Helvetica,sans-Serif" font-size="10.00">tds_convert_string</text>
</a>
</g>
</g>
<!-- Node3&#45;&gt;Node6 -->
<g id="edge7" class="edge"><title>Node3&#45;&gt;Node6</title>
<path fill="none" stroke="midnightblue" d="M189.048,-232.529C259.745,-232.296 405.734,-229.644 528,-213.362 540.939,-211.639 554.806,-208.986 567.582,-206.203"/>
<polygon fill="midnightblue" stroke="midnightblue" points="568.568,-209.569 577.556,-203.959 567.031,-202.74 568.568,-209.569"/>
</g>
<!-- Node8 -->
<g id="node8" class="node"><title>Node8</title>
<g id="a_node8"><a xlink:href="a00356.html#ga9ad2e6defce530a8778791cce0166ccd" target="_top" xlink:title="Start query packet of a given type. ">
<polygon fill="white" stroke="black" points="399.5,-260.862 399.5,-279.862 519.5,-279.862 519.5,-260.862 399.5,-260.862"/>
<text text-anchor="middle" x="459.5" y="-267.862" font-family="Helvetica,sans-Serif" font-size="10.00">tds_start_query_head</text>
</a>
</g>
</g>
<!-- Node3&#45;&gt;Node8 -->
<g id="edge10" class="edge"><title>Node3&#45;&gt;Node8</title>
<path fill="none" stroke="midnightblue" d="M189.187,-240.567C200.778,-242.633 213.347,-244.726 225,-246.362 280.08,-254.093 342.8,-260.402 389.357,-264.608"/>
<polygon fill="midnightblue" stroke="midnightblue" points="389.063,-268.096 399.335,-265.5 389.686,-261.124 389.063,-268.096"/>
</g>
<!-- Node9 -->
<g id="node9" class="node"><title>Node9</title>
<g id="a_node9"><a xlink:href="a00356.html#gafd74652c4722ddce4d642cc4209449d4" target="_top" xlink:title="Put data information to wire. ">
<polygon fill="white" stroke="black" points="409,-32.8617 409,-51.8617 510,-51.8617 510,-32.8617 409,-32.8617"/>
<text text-anchor="middle" x="459.5" y="-39.8617" font-family="Helvetica,sans-Serif" font-size="10.00">tds_put_data_info</text>
</a>
</g>
</g>
<!-- Node3&#45;&gt;Node9 -->
<g id="edge13" class="edge"><title>Node3&#45;&gt;Node9</title>
<path fill="none" stroke="midnightblue" d="M147.632,-222.464C151.664,-192.285 168.27,-101.08 225,-61.3617 275.34,-26.117 347.595,-25.8567 398.361,-31.5622"/>
<polygon fill="midnightblue" stroke="midnightblue" points="398.18,-35.0663 408.534,-32.8169 399.037,-28.119 398.18,-35.0663"/>
</g>
<!-- Node10 -->
<g id="node10" class="node"><title>Node10</title>
<g id="a_node10"><a xlink:href="a00356.html#ga9fcc0a3932dcad530511395ef8a767fb" target="_top" xlink:title="Write data to wire. ">
<polygon fill="white" stroke="black" points="420.5,-70.8617 420.5,-89.8617 498.5,-89.8617 498.5,-70.8617 420.5,-70.8617"/>
<text text-anchor="middle" x="459.5" y="-77.8617" font-family="Helvetica,sans-Serif" font-size="10.00">tds_put_data</text>
</a>
</g>
</g>
<!-- Node3&#45;&gt;Node10 -->
<g id="edge16" class="edge"><title>Node3&#45;&gt;Node10</title>
<path fill="none" stroke="midnightblue" d="M157.913,-222.806C172.718,-210.716 199.658,-189.741 225,-175.362 289.322,-138.866 370.466,-109.158 418.199,-93.1789"/>
<polygon fill="midnightblue" stroke="midnightblue" points="419.466,-96.4461 427.859,-89.9799 417.266,-89.8009 419.466,-96.4461"/>
</g>
<!-- Node11 -->
<g id="node11" class="node"><title>Node11</title>
<g id="a_node11"><a xlink:href="a00356.html#gada27f4cfce925240ad33b71b63ca692d" target="_top" xlink:title="Flush query packet. ">
<polygon fill="white" stroke="black" points="395.5,-336.862 395.5,-355.862 523.5,-355.862 523.5,-336.862 395.5,-336.862"/>
<text text-anchor="middle" x="459.5" y="-343.862" font-family="Helvetica,sans-Serif" font-size="10.00">tds_query_flush_packet</text>
</a>
</g>
</g>
<!-- Node3&#45;&gt;Node11 -->
<g id="edge17" class="edge"><title>Node3&#45;&gt;Node11</title>
<path fill="none" stroke="midnightblue" d="M151.632,-242.089C162.345,-261.279 189.101,-303.764 225,-322.362 274.321,-347.912 337.317,-353.059 385.443,-352.285"/>
<polygon fill="midnightblue" stroke="midnightblue" points="385.567,-355.783 395.476,-352.035 385.392,-348.785 385.567,-355.783"/>
</g>
<!-- Node13 -->
<g id="node13" class="node"><title>Node13</title>
<g id="a_node13"><a xlink:href="a00356.html#ga28264995cf9616661f1fa788ac0d246d" target="_top" xlink:title="Send parameters to server. ">
<polygon fill="white" stroke="black" points="244,-70.8617 244,-89.8617 336,-89.8617 336,-70.8617 244,-70.8617"/>
<text text-anchor="middle" x="290" y="-77.8617" font-family="Helvetica,sans-Serif" font-size="10.00">tds_put_params</text>
</a>
</g>
</g>
<!-- Node3&#45;&gt;Node13 -->
<g id="edge20" class="edge"><title>Node3&#45;&gt;Node13</title>
<path fill="none" stroke="midnightblue" d="M151.827,-222.753C163.299,-202.637 191.99,-155.314 225,-123.362 236.113,-112.604 250.233,-102.797 262.381,-95.2749"/>
<polygon fill="midnightblue" stroke="midnightblue" points="264.423,-98.1312 271.203,-89.9897 260.826,-92.1262 264.423,-98.1312"/>
</g>
<!-- Node15 -->
<g id="node15" class="node"><title>Node15</title>
<g id="a_node15"><a xlink:href="a00356.html#gaf614c75ea8f7ad411e53dac0e2f91be4" target="_top" xlink:title="Send RPC as string query. ">
<polygon fill="white" stroke="black" points="225,-184.862 225,-203.862 355,-203.862 355,-184.862 225,-184.862"/>
<text text-anchor="middle" x="290" y="-191.862" font-family="Helvetica,sans-Serif" font-size="10.00">tds_send_emulated_rpc</text>
</a>
</g>
</g>
<!-- Node3&#45;&gt;Node15 -->
<g id="edge25" class="edge"><title>Node3&#45;&gt;Node15</title>
<path fill="none" stroke="midnightblue" d="M182.459,-222.773C200.939,-217.845 223.656,-211.787 243.359,-206.533"/>
<polygon fill="midnightblue" stroke="midnightblue" points="244.292,-209.906 253.053,-203.948 242.489,-203.142 244.292,-209.906"/>
</g>
<!-- Node4&#45;&gt;Node2 -->
<g id="edge4" class="edge"><title>Node4&#45;&gt;Node2</title>
<path fill="none" stroke="midnightblue" d="M656.299,-261.073C703.178,-249.945 783.893,-230.638 853,-213.362 861.733,-211.179 871.037,-208.808 879.987,-206.505"/>
<polygon fill="midnightblue" stroke="midnightblue" points="881.084,-209.837 889.891,-203.948 879.334,-203.059 881.084,-209.837"/>
</g>
<!-- Node5 -->
<g id="node5" class="node"><title>Node5</title>
<g id="a_node5"><a xlink:href="a00193.html#abf18b98efef6ce2dc0b97d658a3a1918" target="_top" xlink:title="Call the client library&#39;s error handler (for library&#45;generated errors only) ">
<polygon fill="white" stroke="red" points="751.5,-260.862 751.5,-279.862 805.5,-279.862 805.5,-260.862 751.5,-260.862"/>
<text text-anchor="middle" x="778.5" y="-267.862" font-family="Helvetica,sans-Serif" font-size="10.00">tdserror</text>
</a>
</g>
</g>
<!-- Node4&#45;&gt;Node5 -->
<g id="edge5" class="edge"><title>Node4&#45;&gt;Node5</title>
<path fill="none" stroke="midnightblue" d="M656.263,-270.362C682.086,-270.362 715.648,-270.362 740.911,-270.362"/>
<polygon fill="midnightblue" stroke="midnightblue" points="741.183,-273.862 751.183,-270.362 741.183,-266.862 741.183,-273.862"/>
</g>
<!-- Node5&#45;&gt;Node2 -->
<g id="edge6" class="edge"><title>Node5&#45;&gt;Node2</title>
<path fill="none" stroke="midnightblue" d="M805.764,-263.859C820.132,-259.795 838.007,-253.896 853,-246.362 872.662,-236.481 892.927,-221.741 907.185,-210.476"/>
<polygon fill="midnightblue" stroke="midnightblue" points="909.644,-212.989 915.227,-203.984 905.247,-207.542 909.644,-212.989"/>
</g>
<!-- Node7 -->
<g id="node7" class="node"><title>Node7</title>
<g id="a_node7"><a xlink:href="a00354.html#ga87db49044919f1bc84c0ff5e9ab00304" target="_top" xlink:title="Wrapper around iconv(3). ">
<polygon fill="white" stroke="red" points="747.5,-184.862 747.5,-203.862 809.5,-203.862 809.5,-184.862 747.5,-184.862"/>
<text text-anchor="middle" x="778.5" y="-191.862" font-family="Helvetica,sans-Serif" font-size="10.00">tds_iconv</text>
</a>
</g>
</g>
<!-- Node6&#45;&gt;Node7 -->
<g id="edge8" class="edge"><title>Node6&#45;&gt;Node7</title>
<path fill="none" stroke="midnightblue" d="M668.224,-194.362C690.513,-194.362 716.254,-194.362 737.153,-194.362"/>
<polygon fill="midnightblue" stroke="midnightblue" points="737.291,-197.862 747.291,-194.362 737.291,-190.862 737.291,-197.862"/>
</g>
<!-- Node7&#45;&gt;Node2 -->
<g id="edge9" class="edge"><title>Node7&#45;&gt;Node2</title>
<path fill="none" stroke="midnightblue" d="M809.602,-194.362C829.488,-194.362 855.977,-194.362 878.711,-194.362"/>
<polygon fill="midnightblue" stroke="midnightblue" points="878.855,-197.862 888.855,-194.362 878.855,-190.862 878.855,-197.862"/>
</g>
<!-- Node8&#45;&gt;Node4 -->
<g id="edge12" class="edge"><title>Node8&#45;&gt;Node4</title>
<path fill="none" stroke="midnightblue" d="M519.792,-270.362C534.857,-270.362 550.886,-270.362 565.412,-270.362"/>
<polygon fill="midnightblue" stroke="midnightblue" points="565.688,-273.862 575.688,-270.362 565.688,-266.862 565.688,-273.862"/>
</g>
<!-- Node8&#45;&gt;Node6 -->
<g id="edge11" class="edge"><title>Node8&#45;&gt;Node6</title>
<path fill="none" stroke="midnightblue" d="M491.255,-260.855C502.964,-256.868 516.298,-251.873 528,-246.362 550.7,-235.67 575.104,-220.756 592.271,-209.64"/>
<polygon fill="midnightblue" stroke="midnightblue" points="594.567,-212.32 601.007,-203.906 590.726,-206.467 594.567,-212.32"/>
</g>
<!-- Node9&#45;&gt;Node2 -->
<g id="edge14" class="edge"><title>Node9&#45;&gt;Node2</title>
<path fill="none" stroke="midnightblue" d="M510.168,-42.5926C587.912,-44.9371 741.026,-57.6704 853,-118.362 878.835,-132.365 901.102,-158.576 914.16,-176.25"/>
<polygon fill="midnightblue" stroke="midnightblue" points="911.462,-178.496 920.119,-184.604 917.161,-174.431 911.462,-178.496"/>
</g>
<!-- Node9&#45;&gt;Node6 -->
<g id="edge15" class="edge"><title>Node9&#45;&gt;Node6</title>
<path fill="none" stroke="midnightblue" d="M510.075,-50.0596C516.691,-52.7856 522.929,-56.448 528,-61.3617 566.158,-98.336 527.395,-136.85 564,-175.362 565.391,-176.826 566.906,-178.177 568.514,-179.426"/>
<polygon fill="midnightblue" stroke="midnightblue" points="566.85,-182.514 577.185,-184.845 570.56,-176.577 566.85,-182.514"/>
</g>
<!-- Node11&#45;&gt;Node4 -->
<g id="edge18" class="edge"><title>Node11&#45;&gt;Node4</title>
<path fill="none" stroke="midnightblue" d="M491.255,-336.855C502.964,-332.868 516.298,-327.873 528,-322.362 550.7,-311.67 575.104,-296.756 592.271,-285.64"/>
<polygon fill="midnightblue" stroke="midnightblue" points="594.567,-288.32 601.007,-279.906 590.726,-282.467 594.567,-288.32"/>
</g>
<!-- Node12 -->
<g id="node12" class="node"><title>Node12</title>
<g id="a_node12"><a xlink:href="a00357.html#ga5feb53554e8917a81bbbc332163a61fb" target="_top" xlink:title="Flush packet to server. ">
<polygon fill="white" stroke="black" points="568,-336.862 568,-355.862 664,-355.862 664,-336.862 568,-336.862"/>
<text text-anchor="middle" x="616" y="-343.862" font-family="Helvetica,sans-Serif" font-size="10.00">tds_flush_packet</text>
</a>
</g>
</g>
<!-- Node11&#45;&gt;Node12 -->
<g id="edge19" class="edge"><title>Node11&#45;&gt;Node12</title>
<path fill="none" stroke="midnightblue" d="M523.787,-346.362C534.902,-346.362 546.415,-346.362 557.366,-346.362"/>
<polygon fill="midnightblue" stroke="midnightblue" points="557.661,-349.862 567.661,-346.362 557.661,-342.862 557.661,-349.862"/>
</g>
<!-- Node13&#45;&gt;Node9 -->
<g id="edge23" class="edge"><title>Node13&#45;&gt;Node9</title>
<path fill="none" stroke="midnightblue" d="M333.267,-70.7727C355.57,-65.713 383.123,-59.4621 406.702,-54.1129"/>
<polygon fill="midnightblue" stroke="midnightblue" points="407.559,-57.5075 416.537,-51.8817 406.01,-50.681 407.559,-57.5075"/>
</g>
<!-- Node13&#45;&gt;Node10 -->
<g id="edge24" class="edge"><title>Node13&#45;&gt;Node10</title>
<path fill="none" stroke="midnightblue" d="M336.328,-80.3617C359.2,-80.3617 386.952,-80.3617 410.223,-80.3617"/>
<polygon fill="midnightblue" stroke="midnightblue" points="410.229,-83.8618 420.229,-80.3617 410.229,-76.8618 410.229,-83.8618"/>
</g>
<!-- Node14 -->
<g id="node14" class="node"><title>Node14</title>
<g id="a_node14"><a xlink:href="a00356.html#ga319d610d59b2cc669b7fe20c793122af" target="_top" xlink:title="Calc information length in bytes (useful for calculating full packet length) ">
<polygon fill="white" stroke="black" points="710,-4.86167 710,-23.8617 847,-23.8617 847,-4.86167 710,-4.86167"/>
<text text-anchor="middle" x="778.5" y="-11.8617" font-family="Helvetica,sans-Serif" font-size="10.00">tds_put_data_info_length</text>
</a>
</g>
</g>
<!-- Node13&#45;&gt;Node14 -->
<g id="edge21" class="edge"><title>Node13&#45;&gt;Node14</title>
<path fill="none" stroke="midnightblue" d="M303.043,-70.8164C320.982,-57.2521 356.34,-32.9794 391,-23.3617 494.676,5.40688 620.06,1.67564 699.314,-5.13406"/>
<polygon fill="midnightblue" stroke="midnightblue" points="699.431,-8.65857 709.704,-6.06724 700.057,-1.68663 699.431,-8.65857"/>
</g>
<!-- Node14&#45;&gt;Node2 -->
<g id="edge22" class="edge"><title>Node14&#45;&gt;Node2</title>
<path fill="none" stroke="midnightblue" d="M802.928,-23.984C818.591,-31.3241 838.843,-42.6717 853,-57.3617 886.881,-92.5177 909.579,-146.394 919.981,-174.981"/>
<polygon fill="midnightblue" stroke="midnightblue" points="916.747,-176.333 923.364,-184.608 923.351,-174.013 916.747,-176.333"/>
</g>
<!-- Node15&#45;&gt;Node11 -->
<g id="edge32" class="edge"><title>Node15&#45;&gt;Node11</title>
<path fill="none" stroke="midnightblue" d="M300.756,-203.995C318.442,-221.378 357.111,-259.003 391,-289.362 406.705,-303.431 425.007,-318.826 438.589,-330.067"/>
<polygon fill="midnightblue" stroke="midnightblue" points="436.427,-332.82 446.37,-336.48 440.879,-327.419 436.427,-332.82"/>
</g>
<!-- Node16 -->
<g id="node16" class="node"><title>Node16</title>
<g id="a_node16"><a xlink:href="a00356.html#ga50d62edeb2a432e2dc668263f3f958ff" target="_top" xlink:title="Return declaration for column (like &quot;varchar(20)&quot;) ">
<polygon fill="white" stroke="red" points="704,-127.862 704,-146.862 853,-146.862 853,-127.862 704,-127.862"/>
<text text-anchor="middle" x="778.5" y="-134.862" font-family="Helvetica,sans-Serif" font-size="10.00">tds_get_column_declaration</text>
</a>
</g>
</g>
<!-- Node15&#45;&gt;Node16 -->
<g id="edge26" class="edge"><title>Node15&#45;&gt;Node16</title>
<path fill="none" stroke="midnightblue" d="M312.383,-184.745C332.321,-176.191 363.094,-164.035 391,-157.362 492.94,-132.983 614.159,-130.889 693.308,-132.973"/>
<polygon fill="midnightblue" stroke="midnightblue" points="693.611,-136.483 703.709,-133.277 693.816,-129.486 693.611,-136.483"/>
</g>
<!-- Node17 -->
<g id="node17" class="node"><title>Node17</title>
<g id="a_node17"><a xlink:href="a00357.html#ga1fcaf8d488cc1390f106ce3ad0bf37b4" target="_top" xlink:title="Output a string to wire automatic translate string to unicode if needed. ">
<polygon fill="white" stroke="red" points="574.5,-146.862 574.5,-165.862 657.5,-165.862 657.5,-146.862 574.5,-146.862"/>
<text text-anchor="middle" x="616" y="-153.862" font-family="Helvetica,sans-Serif" font-size="10.00">tds_put_string</text>
</a>
</g>
</g>
<!-- Node15&#45;&gt;Node17 -->
<g id="edge28" class="edge"><title>Node15&#45;&gt;Node17</title>
<path fill="none" stroke="midnightblue" d="M335.64,-184.86C352.874,-181.461 372.792,-177.857 391,-175.362 450.19,-167.25 518.685,-162.046 564.194,-159.172"/>
<polygon fill="midnightblue" stroke="midnightblue" points="564.63,-162.652 574.395,-158.543 564.199,-155.665 564.63,-162.652"/>
</g>
<!-- Node18 -->
<g id="node18" class="node"><title>Node18</title>
<g id="a_node18"><a xlink:href="a00356.html#ga0e2e7230c425e925402d7856ff5b4b18" target="_top" xlink:title="Send a parameter to server. ">
<polygon fill="white" stroke="red" points="391,-184.862 391,-203.862 528,-203.862 528,-184.862 391,-184.862"/>
<text text-anchor="middle" x="459.5" y="-191.862" font-family="Helvetica,sans-Serif" font-size="10.00">tds_put_param_as_string</text>
</a>
</g>
</g>
<!-- Node15&#45;&gt;Node18 -->
<g id="edge29" class="edge"><title>Node15&#45;&gt;Node18</title>
<path fill="none" stroke="midnightblue" d="M355.281,-194.362C363.545,-194.362 372.077,-194.362 380.53,-194.362"/>
<polygon fill="midnightblue" stroke="midnightblue" points="380.779,-197.862 390.779,-194.362 380.779,-190.862 380.779,-197.862"/>
</g>
<!-- Node16&#45;&gt;Node2 -->
<g id="edge27" class="edge"><title>Node16&#45;&gt;Node2</title>
<path fill="none" stroke="midnightblue" d="M804.104,-146.902C828.272,-156.273 865.347,-170.649 892.361,-181.124"/>
<polygon fill="midnightblue" stroke="midnightblue" points="891.226,-184.438 901.815,-184.79 893.757,-177.911 891.226,-184.438"/>
</g>
<!-- Node18&#45;&gt;Node6 -->
<g id="edge31" class="edge"><title>Node18&#45;&gt;Node6</title>
<path fill="none" stroke="midnightblue" d="M528.266,-194.362C536.589,-194.362 545.062,-194.362 553.289,-194.362"/>
<polygon fill="midnightblue" stroke="midnightblue" points="553.549,-197.862 563.549,-194.362 553.549,-190.862 553.549,-197.862"/>
</g>
<!-- Node18&#45;&gt;Node17 -->
<g id="edge30" class="edge"><title>Node18&#45;&gt;Node17</title>
<path fill="none" stroke="midnightblue" d="M499.487,-184.773C519.783,-179.781 544.793,-173.629 566.346,-168.328"/>
<polygon fill="midnightblue" stroke="midnightblue" points="567.419,-171.669 576.293,-165.882 565.747,-164.871 567.419,-171.669"/>
</g>
</g>
</svg>
