<?xml version="1.0" encoding="UTF-8" standalone="no"?>
<!DOCTYPE svg PUBLIC "-//W3C//DTD SVG 1.1//EN"
 "http://www.w3.org/Graphics/SVG/1.1/DTD/svg11.dtd">
<!-- Generated by graphviz version 2.38.0 (20140413.2041)
 -->
<!-- Title: tds_process_col_fmt Pages: 1 -->
<svg width="732pt" height="256pt"
 viewBox="0.00 0.00 732.00 255.51" xmlns="http://www.w3.org/2000/svg" xmlns:xlink="http://www.w3.org/1999/xlink">
<g id="graph0" class="graph" transform="scale(1 1) rotate(0) translate(4 251.505)">
<title>tds_process_col_fmt</title>
<polygon fill="white" stroke="none" points="-4,4 -4,-251.505 728,-251.505 728,4 -4,4"/>
<!-- Node1 -->
<g id="node1" class="node"><title>Node1</title>
<polygon fill="#bfbfbf" stroke="black" points="0,-114.5 0,-133.5 114,-133.5 114,-114.5 0,-114.5"/>
<text text-anchor="middle" x="57" y="-121.5" font-family="Helvetica,sans-Serif" font-size="10.00">tds_process_col_fmt</text>
</g>
<!-- Node2 -->
<g id="node2" class="node"><title>Node2</title>
<g id="a_node2"><a xlink:href="a00357.html#gad38aa5b9547817854ccba1fcc7855861" target="_top" xlink:title="Get an int16 from the server. ">
<polygon fill="white" stroke="black" points="180.5,-190.5 180.5,-209.5 278.5,-209.5 278.5,-190.5 180.5,-190.5"/>
<text text-anchor="middle" x="229.5" y="-197.5" font-family="Helvetica,sans-Serif" font-size="10.00">tds_get_usmallint</text>
</a>
</g>
</g>
<!-- Node1&#45;&gt;Node2 -->
<g id="edge1" class="edge"><title>Node1&#45;&gt;Node2</title>
<path fill="none" stroke="midnightblue" d="M70.6917,-133.698C87.8115,-146.336 119.664,-168.314 150,-181 156.581,-183.752 163.647,-186.161 170.745,-188.254"/>
<polygon fill="midnightblue" stroke="midnightblue" points="169.831,-191.632 180.401,-190.915 171.69,-184.884 169.831,-191.632"/>
</g>
<!-- Node5 -->
<g id="node5" class="node"><title>Node5</title>
<g id="a_node5"><a xlink:href="a00193.html#ab45c291105027e69836002e1dd586141" target="_top" xlink:title="Write a message to the debug log. ">
<polygon fill="white" stroke="black" points="647,-133.5 647,-152.5 724,-152.5 724,-133.5 647,-133.5"/>
<text text-anchor="middle" x="685.5" y="-140.5" font-family="Helvetica,sans-Serif" font-size="10.00">tdsdump_log</text>
</a>
</g>
</g>
<!-- Node1&#45;&gt;Node5 -->
<g id="edge10" class="edge"><title>Node1&#45;&gt;Node5</title>
<path fill="none" stroke="midnightblue" d="M63.5816,-133.689C75.9981,-154.135 108.142,-201.267 150,-219 331.207,-295.767 574.722,-195.485 656.443,-156.936"/>
<polygon fill="midnightblue" stroke="midnightblue" points="658.083,-160.032 665.592,-152.557 655.061,-153.718 658.083,-160.032"/>
</g>
<!-- Node6 -->
<g id="node6" class="node"><title>Node6</title>
<g id="a_node6"><a xlink:href="a00298.html#a7d6ccf355d1fc24711b5cd5bbc23a931" target="_top" xlink:title="Set type of column initializing all dependency. ">
<polygon fill="white" stroke="black" points="171.5,-152.5 171.5,-171.5 287.5,-171.5 287.5,-152.5 171.5,-152.5"/>
<text text-anchor="middle" x="229.5" y="-159.5" font-family="Helvetica,sans-Serif" font-size="10.00">tds_set_column_type</text>
</a>
</g>
</g>
<!-- Node1&#45;&gt;Node6 -->
<g id="edge5" class="edge"><title>Node1&#45;&gt;Node6</title>
<path fill="none" stroke="midnightblue" d="M101.024,-133.589C123.726,-138.649 151.773,-144.9 175.774,-150.249"/>
<polygon fill="midnightblue" stroke="midnightblue" points="175.263,-153.721 185.785,-152.48 176.786,-146.888 175.263,-153.721"/>
</g>
<!-- Node9 -->
<g id="node9" class="node"><title>Node9</title>
<g id="a_node9"><a xlink:href="a00357.html#ga0cb72d3f6943795c39db1fa692be0a58" target="_top" xlink:title="Return a single byte from the input buffer. ">
<polygon fill="white" stroke="black" points="373.5,-76.5 373.5,-95.5 450.5,-95.5 450.5,-76.5 373.5,-76.5"/>
<text text-anchor="middle" x="412" y="-83.5" font-family="Helvetica,sans-Serif" font-size="10.00">tds_get_byte</text>
</a>
</g>
</g>
<!-- Node1&#45;&gt;Node9 -->
<g id="edge8" class="edge"><title>Node1&#45;&gt;Node9</title>
<path fill="none" stroke="midnightblue" d="M114.006,-121.505C164.991,-118.82 242.267,-113.715 309,-105 326.75,-102.682 346.089,-99.3006 363.109,-96.0306"/>
<polygon fill="midnightblue" stroke="midnightblue" points="364.232,-99.3773 373.372,-94.0195 362.886,-92.5079 364.232,-99.3773"/>
</g>
<!-- Node10 -->
<g id="node10" class="node"><title>Node10</title>
<g id="a_node10"><a xlink:href="a00359.html#ga0cf7e719115b0ae476753442d10505ab" target="_top" xlink:title="Returns string representation of the given type. ">
<polygon fill="white" stroke="black" points="196,-76.5 196,-95.5 263,-95.5 263,-76.5 196,-76.5"/>
<text text-anchor="middle" x="229.5" y="-83.5" font-family="Helvetica,sans-Serif" font-size="10.00">tds_prtype</text>
</a>
</g>
</g>
<!-- Node1&#45;&gt;Node10 -->
<g id="edge11" class="edge"><title>Node1&#45;&gt;Node10</title>
<path fill="none" stroke="midnightblue" d="M101.024,-114.411C127.064,-108.607 160.136,-101.236 186.069,-95.4569"/>
<polygon fill="midnightblue" stroke="midnightblue" points="186.986,-98.8384 195.985,-93.2468 185.463,-92.006 186.986,-98.8384"/>
</g>
<!-- Node11 -->
<g id="node11" class="node"><title>Node11</title>
<g id="a_node11"><a xlink:href="a00359.html#ga91770634ce8c0d6f1fe007b45da186fd" target="_top" xlink:title="Adjust column size according to client&#39;s encoding. ">
<polygon fill="white" stroke="black" points="150,-38.5 150,-57.5 309,-57.5 309,-38.5 150,-38.5"/>
<text text-anchor="middle" x="229.5" y="-45.5" font-family="Helvetica,sans-Serif" font-size="10.00">adjust_character_column_size</text>
</a>
</g>
</g>
<!-- Node1&#45;&gt;Node11 -->
<g id="edge12" class="edge"><title>Node1&#45;&gt;Node11</title>
<path fill="none" stroke="midnightblue" d="M70.6917,-114.302C87.8115,-101.664 119.664,-79.6857 150,-67 155.943,-64.5149 162.28,-62.3099 168.68,-60.3645"/>
<polygon fill="midnightblue" stroke="midnightblue" points="170.07,-63.6086 178.739,-57.518 168.164,-56.8731 170.07,-63.6086"/>
</g>
<!-- Node13 -->
<g id="node13" class="node"><title>Node13</title>
<g id="a_node13"><a xlink:href="a00355.html#ga1224fb9277112dc2ce12531d2b73b145" target="_top" xlink:title="Allocate space for row store return NULL on out of memory. ">
<polygon fill="white" stroke="black" points="188.5,-0.5 188.5,-19.5 270.5,-19.5 270.5,-0.5 188.5,-0.5"/>
<text text-anchor="middle" x="229.5" y="-7.5" font-family="Helvetica,sans-Serif" font-size="10.00">tds_alloc_row</text>
</a>
</g>
</g>
<!-- Node1&#45;&gt;Node13 -->
<g id="edge15" class="edge"><title>Node1&#45;&gt;Node13</title>
<path fill="none" stroke="midnightblue" d="M64.3546,-114.472C77.7599,-95.1584 110.936,-51.3385 150,-29 158.673,-24.0406 168.599,-20.37 178.408,-17.655"/>
<polygon fill="midnightblue" stroke="midnightblue" points="179.264,-21.0488 188.129,-15.2461 177.58,-14.2544 179.264,-21.0488"/>
</g>
<!-- Node3 -->
<g id="node3" class="node"><title>Node3</title>
<g id="a_node3"><a xlink:href="a00357.html#gae7d9c4e1a079e1d0aa0252732631e8c4" target="_top" xlink:title="Get N bytes from the buffer and return them in the already allocated space given to us...">
<polygon fill="white" stroke="black" points="380,-190.5 380,-209.5 444,-209.5 444,-190.5 380,-190.5"/>
<text text-anchor="middle" x="412" y="-197.5" font-family="Helvetica,sans-Serif" font-size="10.00">tds_get_n</text>
</a>
</g>
</g>
<!-- Node2&#45;&gt;Node3 -->
<g id="edge2" class="edge"><title>Node2&#45;&gt;Node3</title>
<path fill="none" stroke="midnightblue" d="M278.871,-200C307.173,-200 342.535,-200 369.552,-200"/>
<polygon fill="midnightblue" stroke="midnightblue" points="369.835,-203.5 379.834,-200 369.834,-196.5 369.835,-203.5"/>
</g>
<!-- Node4 -->
<g id="node4" class="node"><title>Node4</title>
<g id="a_node4"><a xlink:href="a00357.html#ga410619783bdf2bb60b0f27a5578e0e07" target="_top" xlink:title="Read in one &#39;packet&#39; from the server. ">
<polygon fill="white" stroke="red" points="515,-133.5 515,-152.5 611,-152.5 611,-133.5 515,-133.5"/>
<text text-anchor="middle" x="563" y="-140.5" font-family="Helvetica,sans-Serif" font-size="10.00">tds_read_packet</text>
</a>
</g>
</g>
<!-- Node3&#45;&gt;Node4 -->
<g id="edge3" class="edge"><title>Node3&#45;&gt;Node4</title>
<path fill="none" stroke="midnightblue" d="M444.2,-192.047C455.302,-188.948 467.819,-185.143 479,-181 497.706,-174.069 518.083,-164.767 533.966,-157.101"/>
<polygon fill="midnightblue" stroke="midnightblue" points="535.774,-160.113 543.219,-152.575 532.698,-153.825 535.774,-160.113"/>
</g>
<!-- Node4&#45;&gt;Node5 -->
<g id="edge4" class="edge"><title>Node4&#45;&gt;Node5</title>
<path fill="none" stroke="midnightblue" d="M611.279,-143C619.531,-143 628.124,-143 636.398,-143"/>
<polygon fill="midnightblue" stroke="midnightblue" points="636.659,-146.5 646.659,-143 636.658,-139.5 636.659,-146.5"/>
</g>
<!-- Node7 -->
<g id="node7" class="node"><title>Node7</title>
<g id="a_node7"><a xlink:href="a00193.html#a68855f1251759a6b7338635306ab0041" target="_top" xlink:title="tds_get_varint_size() returns the size of a variable length integer returned in a TDS 7...">
<polygon fill="white" stroke="black" points="357.5,-114.5 357.5,-133.5 466.5,-133.5 466.5,-114.5 357.5,-114.5"/>
<text text-anchor="middle" x="412" y="-121.5" font-family="Helvetica,sans-Serif" font-size="10.00">tds_get_varint_size</text>
</a>
</g>
</g>
<!-- Node6&#45;&gt;Node7 -->
<g id="edge6" class="edge"><title>Node6&#45;&gt;Node7</title>
<path fill="none" stroke="midnightblue" d="M276.048,-152.411C300.296,-147.306 330.304,-140.989 355.861,-135.608"/>
<polygon fill="midnightblue" stroke="midnightblue" points="356.715,-139.005 365.78,-133.52 355.273,-132.155 356.715,-139.005"/>
</g>
<!-- Node8 -->
<g id="node8" class="node"><title>Node8</title>
<g id="a_node8"><a xlink:href="a00193.html#aa70b02ff34ac03040ca41f13d5fd35bd" target="_top" xlink:title="Return the number of bytes needed by specified type. ">
<polygon fill="white" stroke="black" points="352.5,-152.5 352.5,-171.5 471.5,-171.5 471.5,-152.5 352.5,-152.5"/>
<text text-anchor="middle" x="412" y="-159.5" font-family="Helvetica,sans-Serif" font-size="10.00">tds_get_size_by_type</text>
</a>
</g>
</g>
<!-- Node6&#45;&gt;Node8 -->
<g id="edge7" class="edge"><title>Node6&#45;&gt;Node8</title>
<path fill="none" stroke="midnightblue" d="M287.611,-162C304.96,-162 324.205,-162 342.236,-162"/>
<polygon fill="midnightblue" stroke="midnightblue" points="342.397,-165.5 352.397,-162 342.397,-158.5 342.397,-165.5"/>
</g>
<!-- Node9&#45;&gt;Node4 -->
<g id="edge9" class="edge"><title>Node9&#45;&gt;Node4</title>
<path fill="none" stroke="midnightblue" d="M449.971,-95.5927C459.519,-98.3556 469.72,-101.562 479,-105 497.706,-111.931 518.083,-121.233 533.966,-128.899"/>
<polygon fill="midnightblue" stroke="midnightblue" points="532.698,-132.175 543.219,-133.425 535.774,-125.887 532.698,-132.175"/>
</g>
<!-- Node11&#45;&gt;Node5 -->
<g id="edge14" class="edge"><title>Node11&#45;&gt;Node5</title>
<path fill="none" stroke="midnightblue" d="M264.885,-38.4093C313.425,-26.4272 404.439,-9.70393 479,-29 553.281,-48.2235 629.327,-100.725 664.457,-127.237"/>
<polygon fill="midnightblue" stroke="midnightblue" points="662.414,-130.08 672.481,-133.381 666.67,-124.523 662.414,-130.08"/>
</g>
<!-- Node12 -->
<g id="node12" class="node"><title>Node12</title>
<g id="a_node12"><a xlink:href="a00359.html#ga87209537d51f069fee02bc224da492cb" target="_top" xlink:title="Allow for maximum possible size of converted data, while being careful about integer division truncat...">
<polygon fill="white" stroke="black" points="345,-38.5 345,-57.5 479,-57.5 479,-38.5 345,-38.5"/>
<text text-anchor="middle" x="412" y="-45.5" font-family="Helvetica,sans-Serif" font-size="10.00">determine_adjusted_size</text>
</a>
</g>
</g>
<!-- Node11&#45;&gt;Node12 -->
<g id="edge13" class="edge"><title>Node11&#45;&gt;Node12</title>
<path fill="none" stroke="midnightblue" d="M309.145,-48C317.587,-48 326.168,-48 334.584,-48"/>
<polygon fill="midnightblue" stroke="midnightblue" points="334.747,-51.5001 344.747,-48 334.747,-44.5001 334.747,-51.5001"/>
</g>
</g>
</svg>
