<?xml version="1.0" encoding="UTF-8" standalone="no"?>
<!DOCTYPE svg PUBLIC "-//W3C//DTD SVG 1.1//EN"
 "http://www.w3.org/Graphics/SVG/1.1/DTD/svg11.dtd">
<!-- Generated by graphviz version 2.38.0 (20140413.2041)
 -->
<!-- Title: tdsdbopen Pages: 1 -->
<svg width="1044pt" height="720pt"
 viewBox="0.00 0.00 1044.00 719.89" xmlns="http://www.w3.org/2000/svg" xmlns:xlink="http://www.w3.org/1999/xlink">
<g id="graph0" class="graph" transform="scale(1 1) rotate(0) translate(4 715.887)">
<title>tdsdbopen</title>
<polygon fill="white" stroke="none" points="-4,4 -4,-715.887 1040,-715.887 1040,4 -4,4"/>
<!-- Node1 -->
<g id="node1" class="node"><title>Node1</title>
<polygon fill="#bfbfbf" stroke="black" points="0,-274.387 0,-293.387 66,-293.387 66,-274.387 0,-274.387"/>
<text text-anchor="middle" x="33" y="-281.387" font-family="Helvetica,sans-Serif" font-size="10.00">tdsdbopen</text>
</g>
<!-- Node2 -->
<g id="node2" class="node"><title>Node2</title>
<g id="a_node2"><a xlink:href="a00193.html#a24471508ddfde7cc0f8577801e70c42f" target="_top" xlink:title="Create and truncate a human readable dump file for the TDS traffic. ">
<polygon fill="white" stroke="black" points="493.5,-312.387 493.5,-331.387 579.5,-331.387 579.5,-312.387 493.5,-312.387"/>
<text text-anchor="middle" x="536.5" y="-319.387" font-family="Helvetica,sans-Serif" font-size="10.00">tdsdump_open</text>
</a>
</g>
</g>
<!-- Node1&#45;&gt;Node2 -->
<g id="edge1" class="edge"><title>Node1&#45;&gt;Node2</title>
<path fill="none" stroke="midnightblue" d="M66.0051,-291.491C77.3163,-293.908 90.1668,-296.35 102,-297.887 238.912,-315.672 401.827,-320.293 483.445,-321.483"/>
<polygon fill="midnightblue" stroke="midnightblue" points="483.417,-324.983 493.463,-321.617 483.511,-317.983 483.417,-324.983"/>
</g>
<!-- Node3 -->
<g id="node3" class="node"><title>Node3</title>
<g id="a_node3"><a xlink:href="a00193.html#ab45c291105027e69836002e1dd586141" target="_top" xlink:title="Write a message to the debug log. ">
<polygon fill="white" stroke="black" points="826.5,-236.387 826.5,-255.387 903.5,-255.387 903.5,-236.387 826.5,-236.387"/>
<text text-anchor="middle" x="865" y="-243.387" font-family="Helvetica,sans-Serif" font-size="10.00">tdsdump_log</text>
</a>
</g>
</g>
<!-- Node1&#45;&gt;Node3 -->
<g id="edge3" class="edge"><title>Node1&#45;&gt;Node3</title>
<path fill="none" stroke="midnightblue" d="M42.1055,-274.321C53.8393,-261.193 76.9162,-237.962 102,-226.887 159.846,-201.346 179.767,-207.887 243,-207.887 243,-207.887 243,-207.887 537.5,-207.887 637.236,-207.887 752.966,-225.598 816.368,-236.837"/>
<polygon fill="midnightblue" stroke="midnightblue" points="815.998,-240.326 826.459,-238.65 817.235,-233.437 815.998,-240.326"/>
</g>
<!-- Node4 -->
<g id="node4" class="node"><title>Node4</title>
<g id="a_node4"><a xlink:href="a00347.html#ga302a4ce6559b81808e3be51615cd1b67" target="_top" xlink:title="Call client&#45;installed error handler. ">
<polygon fill="white" stroke="black" points="102,-236.387 102,-255.387 159,-255.387 159,-236.387 102,-236.387"/>
<text text-anchor="middle" x="130.5" y="-243.387" font-family="Helvetica,sans-Serif" font-size="10.00">dbperror</text>
</a>
</g>
</g>
<!-- Node1&#45;&gt;Node4 -->
<g id="edge4" class="edge"><title>Node1&#45;&gt;Node4</title>
<path fill="none" stroke="midnightblue" d="M58.0987,-274.298C69.522,-269.752 83.3614,-264.246 95.8033,-259.295"/>
<polygon fill="midnightblue" stroke="midnightblue" points="97.4116,-262.422 105.409,-255.473 94.8235,-255.918 97.4116,-262.422"/>
</g>
<!-- Node5 -->
<g id="node5" class="node"><title>Node5</title>
<g id="a_node5"><a xlink:href="a00193.html#ad511d50edc54847d606ce4c9a4945a62" target="_top" xlink:title="Set the servername in a TDSLOGIN structure. ">
<polygon fill="white" stroke="black" points="662,-578.387 662,-597.387 749,-597.387 749,-578.387 662,-578.387"/>
<text text-anchor="middle" x="705.5" y="-585.387" font-family="Helvetica,sans-Serif" font-size="10.00">tds_set_server</text>
</a>
</g>
</g>
<!-- Node1&#45;&gt;Node5 -->
<g id="edge6" class="edge"><title>Node1&#45;&gt;Node5</title>
<path fill="none" stroke="midnightblue" d="M36.387,-293.669C48.7349,-341.659 109.976,-549.887 243,-549.887 243,-549.887 243,-549.887 388,-549.887 481.446,-549.887 589.312,-566.418 651.923,-577.673"/>
<polygon fill="midnightblue" stroke="midnightblue" points="651.483,-581.151 661.949,-579.5 652.738,-574.264 651.483,-581.151"/>
</g>
<!-- Node8 -->
<g id="node8" class="node"><title>Node8</title>
<g id="a_node8"><a xlink:href="a00352.html#ga9af192306186ddf39e09be0fd4ad8aaf" target="_top" xlink:title="tds_read_config_info() will fill the tds connection structure based on configuration information gath...">
<polygon fill="white" stroke="black" points="329,-379.387 329,-398.387 445,-398.387 445,-379.387 329,-379.387"/>
<text text-anchor="middle" x="387" y="-386.387" font-family="Helvetica,sans-Serif" font-size="10.00">tds_read_config_info</text>
</a>
</g>
</g>
<!-- Node1&#45;&gt;Node8 -->
<g id="edge10" class="edge"><title>Node1&#45;&gt;Node8</title>
<path fill="none" stroke="midnightblue" d="M43.6158,-293.652C55.9774,-305.593 78.6456,-325.494 102,-335.887 171.96,-367.017 259.48,-379.867 318.736,-385.168"/>
<polygon fill="midnightblue" stroke="midnightblue" points="318.467,-388.658 328.727,-386.015 319.058,-381.683 318.467,-388.658"/>
</g>
<!-- Node19 -->
<g id="node19" class="node"><title>Node19</title>
<g id="a_node19"><a xlink:href="a00352.html#gacee4f06ba749b10ee9f2e5bb1c4a8910" target="_top" xlink:title="Fix configuration after reading it. ">
<polygon fill="white" stroke="black" points="498.5,-274.387 498.5,-293.387 574.5,-293.387 574.5,-274.387 498.5,-274.387"/>
<text text-anchor="middle" x="536.5" y="-281.387" font-family="Helvetica,sans-Serif" font-size="10.00">tds_fix_login</text>
</a>
</g>
</g>
<!-- Node1&#45;&gt;Node19 -->
<g id="edge46" class="edge"><title>Node1&#45;&gt;Node19</title>
<path fill="none" stroke="midnightblue" d="M66.134,-283.887C151.949,-283.887 386.829,-283.887 488.052,-283.887"/>
<polygon fill="midnightblue" stroke="midnightblue" points="488.284,-287.387 498.284,-283.887 488.284,-280.387 488.284,-287.387"/>
</g>
<!-- Node21 -->
<g id="node21" class="node"><title>Node21</title>
<g id="a_node21"><a xlink:href="a00341.html#gaef740b394b44eb33925c2718f7b30d69" target="_top" xlink:title="Close a connection to the server and free associated resources. ">
<polygon fill="white" stroke="black" points="104,-141.387 104,-160.387 157,-160.387 157,-141.387 104,-141.387"/>
<text text-anchor="middle" x="130.5" y="-148.387" font-family="Helvetica,sans-Serif" font-size="10.00">dbclose</text>
</a>
</g>
</g>
<!-- Node1&#45;&gt;Node21 -->
<g id="edge37" class="edge"><title>Node1&#45;&gt;Node21</title>
<path fill="none" stroke="midnightblue" d="M40.8681,-274.322C56.6907,-252.286 95.9237,-197.647 116.474,-169.028"/>
<polygon fill="midnightblue" stroke="midnightblue" points="119.447,-170.888 122.436,-160.724 113.761,-166.805 119.447,-170.888"/>
</g>
<!-- Node2&#45;&gt;Node3 -->
<g id="edge2" class="edge"><title>Node2&#45;&gt;Node3</title>
<path fill="none" stroke="midnightblue" d="M578.521,-312.338C639.161,-298.223 752.45,-271.852 816.574,-256.926"/>
<polygon fill="midnightblue" stroke="midnightblue" points="817.481,-260.309 826.427,-254.633 815.894,-253.491 817.481,-260.309"/>
</g>
<!-- Node4&#45;&gt;Node3 -->
<g id="edge5" class="edge"><title>Node4&#45;&gt;Node3</title>
<path fill="none" stroke="midnightblue" d="M159.368,-245.887C206.186,-245.887 303.597,-245.887 386,-245.887 386,-245.887 386,-245.887 537.5,-245.887 636.567,-245.887 752.542,-245.887 816.166,-245.887"/>
<polygon fill="midnightblue" stroke="midnightblue" points="816.294,-249.387 826.294,-245.887 816.294,-242.387 816.294,-249.387"/>
</g>
<!-- Node5&#45;&gt;Node3 -->
<g id="edge7" class="edge"><title>Node5&#45;&gt;Node3</title>
<path fill="none" stroke="midnightblue" d="M716.316,-578.226C732.338,-561.966 764.206,-527.501 783,-492.887 825.788,-414.081 850.952,-308.803 860.074,-265.624"/>
<polygon fill="midnightblue" stroke="midnightblue" points="863.504,-266.319 862.092,-255.819 856.648,-264.908 863.504,-266.319"/>
</g>
<!-- Node6 -->
<g id="node6" class="node"><title>Node6</title>
<g id="a_node6"><a xlink:href="a00358.html#gad96366d9fa93bfc283cef1299fbe97ab" target="_top" xlink:title="copy a string from another ">
<polygon fill="white" stroke="black" points="823.5,-597.387 823.5,-616.387 906.5,-616.387 906.5,-597.387 823.5,-597.387"/>
<text text-anchor="middle" x="865" y="-604.387" font-family="Helvetica,sans-Serif" font-size="10.00">tds_dstr_copy</text>
</a>
</g>
</g>
<!-- Node5&#45;&gt;Node6 -->
<g id="edge8" class="edge"><title>Node5&#45;&gt;Node6</title>
<path fill="none" stroke="midnightblue" d="M749.122,-593.028C768.839,-595.407 792.415,-598.251 813.063,-600.742"/>
<polygon fill="midnightblue" stroke="midnightblue" points="812.898,-604.247 823.245,-601.97 813.737,-597.298 812.898,-604.247"/>
</g>
<!-- Node7 -->
<g id="node7" class="node"><title>Node7</title>
<g id="a_node7"><a xlink:href="a00358.html#ga656718f240d7403f986ae887d84a6ca1" target="_top" xlink:title="Set string to a given buffer of characters. ">
<polygon fill="white" stroke="black" points="947,-635.387 947,-654.387 1036,-654.387 1036,-635.387 947,-635.387"/>
<text text-anchor="middle" x="991.5" y="-642.387" font-family="Helvetica,sans-Serif" font-size="10.00">tds_dstr_copyn</text>
</a>
</g>
</g>
<!-- Node6&#45;&gt;Node7 -->
<g id="edge9" class="edge"><title>Node6&#45;&gt;Node7</title>
<path fill="none" stroke="midnightblue" d="M897.417,-616.476C913.193,-621.291 932.505,-627.186 949.441,-632.355"/>
<polygon fill="midnightblue" stroke="midnightblue" points="948.507,-635.729 959.093,-635.301 950.551,-629.034 948.507,-635.729"/>
</g>
<!-- Node8&#45;&gt;Node2 -->
<g id="edge14" class="edge"><title>Node8&#45;&gt;Node2</title>
<path fill="none" stroke="midnightblue" d="M408.27,-379.385C427.077,-370.6 455.869,-357.229 481,-345.887 488.487,-342.508 496.577,-338.914 504.173,-335.565"/>
<polygon fill="midnightblue" stroke="midnightblue" points="505.703,-338.716 513.45,-331.488 502.887,-332.307 505.703,-338.716"/>
</g>
<!-- Node8&#45;&gt;Node3 -->
<g id="edge15" class="edge"><title>Node8&#45;&gt;Node3</title>
<path fill="none" stroke="midnightblue" d="M430.754,-379.329C529.558,-357.189 766.572,-303.743 783,-296.887 804.922,-287.738 827.617,-272.905 843.387,-261.588"/>
<polygon fill="midnightblue" stroke="midnightblue" points="845.825,-264.14 851.814,-255.401 841.682,-258.498 845.825,-264.14"/>
</g>
<!-- Node9 -->
<g id="node9" class="node"><title>Node9</title>
<g id="a_node9"><a xlink:href="a00355.html#ga2ef389ac3b0cddec76bf8f1c0951bc9c" target="_top" xlink:title="Initialize login structure with locale information and other stuff for connection. ">
<polygon fill="white" stroke="black" points="497,-616.387 497,-635.387 576,-635.387 576,-616.387 497,-616.387"/>
<text text-anchor="middle" x="536.5" y="-623.387" font-family="Helvetica,sans-Serif" font-size="10.00">tds_init_login</text>
</a>
</g>
</g>
<!-- Node8&#45;&gt;Node9 -->
<g id="edge11" class="edge"><title>Node8&#45;&gt;Node9</title>
<path fill="none" stroke="midnightblue" d="M393.965,-398.471C416.201,-434.2 494.505,-560.016 524.077,-607.532"/>
<polygon fill="midnightblue" stroke="midnightblue" points="521.205,-609.543 529.461,-616.183 527.149,-605.844 521.205,-609.543"/>
</g>
<!-- Node11 -->
<g id="node11" class="node"><title>Node11</title>
<g id="a_node11"><a xlink:href="a00352.html#ga0a63cb612f245fd85e56cfea98ff8f3b" target="_top" xlink:title="Read configuration info for given server return 0 on error. ">
<polygon fill="white" stroke="black" points="484.5,-388.387 484.5,-407.387 588.5,-407.387 588.5,-388.387 484.5,-388.387"/>
<text text-anchor="middle" x="536.5" y="-395.387" font-family="Helvetica,sans-Serif" font-size="10.00">tds_read_conf_file</text>
</a>
</g>
</g>
<!-- Node8&#45;&gt;Node11 -->
<g id="edge16" class="edge"><title>Node8&#45;&gt;Node11</title>
<path fill="none" stroke="midnightblue" d="M445.027,-392.366C454.654,-392.954 464.682,-393.566 474.407,-394.159"/>
<polygon fill="midnightblue" stroke="midnightblue" points="474.209,-397.653 484.403,-394.769 474.635,-390.666 474.209,-397.653"/>
</g>
<!-- Node13 -->
<g id="node13" class="node"><title>Node13</title>
<g id="a_node13"><a xlink:href="a00352.html#gaa9670914093b354e7a123b10ba877813" target="_top" xlink:title="Check the server name to find port info first Warning: connection&#45;&gt; &amp; login&#45;&gt; are all modified when n...">
<polygon fill="white" stroke="black" points="628,-692.387 628,-711.387 783,-711.387 783,-692.387 628,-692.387"/>
<text text-anchor="middle" x="705.5" y="-699.387" font-family="Helvetica,sans-Serif" font-size="10.00">parse_server_name_for_port</text>
</a>
</g>
</g>
<!-- Node8&#45;&gt;Node13 -->
<g id="edge19" class="edge"><title>Node8&#45;&gt;Node13</title>
<path fill="none" stroke="midnightblue" d="M388.426,-398.507C390.632,-436.182 403.899,-575.047 481,-644.887 518.042,-678.44 572.09,-692.825 617.757,-698.756"/>
<polygon fill="midnightblue" stroke="midnightblue" points="617.622,-702.265 627.964,-699.962 618.443,-695.313 617.622,-702.265"/>
</g>
<!-- Node14 -->
<g id="node14" class="node"><title>Node14</title>
<g id="a_node14"><a xlink:href="a00352.html#ga6631af35ee817f93827c62bbda41674a" target="_top" xlink:title="Try to find the IP number and port for a (possibly) logical server name. ">
<polygon fill="white" stroke="black" points="481,-426.387 481,-445.387 592,-445.387 592,-426.387 481,-426.387"/>
<text text-anchor="middle" x="536.5" y="-433.387" font-family="Helvetica,sans-Serif" font-size="10.00">tds_read_interfaces</text>
</a>
</g>
</g>
<!-- Node8&#45;&gt;Node14 -->
<g id="edge22" class="edge"><title>Node8&#45;&gt;Node14</title>
<path fill="none" stroke="midnightblue" d="M417.849,-398.398C440.267,-405.541 471.193,-415.396 495.712,-423.209"/>
<polygon fill="midnightblue" stroke="midnightblue" points="494.852,-426.608 505.443,-426.309 496.977,-419.938 494.852,-426.608"/>
</g>
<!-- Node17 -->
<g id="node17" class="node"><title>Node17</title>
<g id="a_node17"><a xlink:href="a00193.html#abf18b98efef6ce2dc0b97d658a3a1918" target="_top" xlink:title="Call the client library&#39;s error handler (for library&#45;generated errors only) ">
<polygon fill="white" stroke="black" points="509.5,-122.387 509.5,-141.387 563.5,-141.387 563.5,-122.387 509.5,-122.387"/>
<text text-anchor="middle" x="536.5" y="-129.387" font-family="Helvetica,sans-Serif" font-size="10.00">tdserror</text>
</a>
</g>
</g>
<!-- Node8&#45;&gt;Node17 -->
<g id="edge31" class="edge"><title>Node8&#45;&gt;Node17</title>
<path fill="none" stroke="midnightblue" d="M393.602,-379.126C415.506,-340.961 495.582,-201.439 524.766,-150.589"/>
<polygon fill="midnightblue" stroke="midnightblue" points="527.95,-152.073 529.892,-141.657 521.879,-148.588 527.95,-152.073"/>
</g>
<!-- Node8&#45;&gt;Node19 -->
<g id="edge35" class="edge"><title>Node8&#45;&gt;Node19</title>
<path fill="none" stroke="midnightblue" d="M395.978,-379.252C410.946,-361.742 444.993,-324.514 481,-302.887 484.382,-300.855 488.013,-298.999 491.737,-297.313"/>
<polygon fill="midnightblue" stroke="midnightblue" points="493.175,-300.506 501.093,-293.466 490.514,-294.031 493.175,-300.506"/>
</g>
<!-- Node20 -->
<g id="node20" class="node"><title>Node20</title>
<g id="a_node20"><a xlink:href="a00193.html#a2f00fc0907d3bb04ce0eeb9738e08d0c" target="_top" xlink:title="Close the TDS dump log file. ">
<polygon fill="white" stroke="black" points="493,-464.387 493,-483.387 580,-483.387 580,-464.387 493,-464.387"/>
<text text-anchor="middle" x="536.5" y="-471.387" font-family="Helvetica,sans-Serif" font-size="10.00">tdsdump_close</text>
</a>
</g>
</g>
<!-- Node8&#45;&gt;Node20 -->
<g id="edge36" class="edge"><title>Node8&#45;&gt;Node20</title>
<path fill="none" stroke="midnightblue" d="M399.349,-398.563C416.218,-412.555 449.33,-438.547 481,-454.887 485.016,-456.959 489.307,-458.89 493.654,-460.666"/>
<polygon fill="midnightblue" stroke="midnightblue" points="492.579,-464.002 503.169,-464.301 495.077,-457.463 492.579,-464.002"/>
</g>
<!-- Node9&#45;&gt;Node6 -->
<g id="edge13" class="edge"><title>Node9&#45;&gt;Node6</title>
<path fill="none" stroke="midnightblue" d="M574.582,-635.467C623.075,-646.477 710.399,-661.07 783,-644.887 803.214,-640.381 824.343,-630.261 839.952,-621.597"/>
<polygon fill="midnightblue" stroke="midnightblue" points="841.974,-624.472 848.899,-616.454 838.485,-618.403 841.974,-624.472"/>
</g>
<!-- Node10 -->
<g id="node10" class="node"><title>Node10</title>
<g id="a_node10"><a xlink:href="a00354.html#ga6561d1dba1a04c168431b16ec17d7e4c" target="_top" xlink:title="Determine canonical iconv character set name. ">
<polygon fill="white" stroke="red" points="628,-616.387 628,-635.387 783,-635.387 783,-616.387 628,-616.387"/>
<text text-anchor="middle" x="705.5" y="-623.387" font-family="Helvetica,sans-Serif" font-size="10.00">tds_canonical_charset_name</text>
</a>
</g>
</g>
<!-- Node9&#45;&gt;Node10 -->
<g id="edge12" class="edge"><title>Node9&#45;&gt;Node10</title>
<path fill="none" stroke="midnightblue" d="M576.233,-625.887C588.759,-625.887 603.193,-625.887 617.759,-625.887"/>
<polygon fill="midnightblue" stroke="midnightblue" points="617.843,-629.387 627.843,-625.887 617.843,-622.387 617.843,-629.387"/>
</g>
<!-- Node11&#45;&gt;Node3 -->
<g id="edge17" class="edge"><title>Node11&#45;&gt;Node3</title>
<path fill="none" stroke="midnightblue" d="M580.994,-388.351C646.758,-373.716 765.707,-346.315 783,-335.887 813.284,-317.623 838.746,-284.496 852.645,-263.928"/>
<polygon fill="midnightblue" stroke="midnightblue" points="855.64,-265.743 858.193,-255.461 849.785,-261.907 855.64,-265.743"/>
</g>
<!-- Node12 -->
<g id="node12" class="node"><title>Node12</title>
<g id="a_node12"><a xlink:href="a00352.html#gaf49eca946d1b2457e189de7207e3670c" target="_top" xlink:title="Return filename from HOME directory. ">
<polygon fill="white" stroke="red" points="653.5,-388.387 653.5,-407.387 757.5,-407.387 757.5,-388.387 653.5,-388.387"/>
<text text-anchor="middle" x="705.5" y="-395.387" font-family="Helvetica,sans-Serif" font-size="10.00">tds_get_home_file</text>
</a>
</g>
</g>
<!-- Node11&#45;&gt;Node12 -->
<g id="edge18" class="edge"><title>Node11&#45;&gt;Node12</title>
<path fill="none" stroke="midnightblue" d="M588.513,-397.887C605.753,-397.887 625.181,-397.887 643.137,-397.887"/>
<polygon fill="midnightblue" stroke="midnightblue" points="643.224,-401.387 653.224,-397.887 643.224,-394.387 643.224,-401.387"/>
</g>
<!-- Node13&#45;&gt;Node6 -->
<g id="edge20" class="edge"><title>Node13&#45;&gt;Node6</title>
<path fill="none" stroke="midnightblue" d="M747.902,-692.318C759.662,-688.704 772.199,-683.954 783,-677.887 808.546,-663.535 833.164,-640.154 848.421,-624.173"/>
<polygon fill="midnightblue" stroke="midnightblue" points="851.243,-626.278 855.501,-616.577 846.122,-621.505 851.243,-626.278"/>
</g>
<!-- Node13&#45;&gt;Node7 -->
<g id="edge21" class="edge"><title>Node13&#45;&gt;Node7</title>
<path fill="none" stroke="midnightblue" d="M754.035,-692.346C804.473,-682.223 884.01,-666.26 936.709,-655.683"/>
<polygon fill="midnightblue" stroke="midnightblue" points="937.433,-659.107 946.548,-653.708 936.055,-652.244 937.433,-659.107"/>
</g>
<!-- Node14&#45;&gt;Node3 -->
<g id="edge23" class="edge"><title>Node14&#45;&gt;Node3</title>
<path fill="none" stroke="midnightblue" d="M585.519,-445.411C638.673,-453.166 724.545,-457.121 783,-416.887 834.988,-381.103 854.565,-302.717 861.098,-265.828"/>
<polygon fill="midnightblue" stroke="midnightblue" points="864.577,-266.238 862.728,-255.806 857.668,-265.114 864.577,-266.238"/>
</g>
<!-- Node14&#45;&gt;Node6 -->
<g id="edge30" class="edge"><title>Node14&#45;&gt;Node6</title>
<path fill="none" stroke="midnightblue" d="M575.962,-445.42C581.703,-447.905 587.272,-451.012 592,-454.887 616.348,-474.841 603.592,-496.005 628,-515.887 684.448,-561.867 715.499,-541.607 783,-568.887 800.889,-576.116 820.489,-585.277 835.927,-592.792"/>
<polygon fill="midnightblue" stroke="midnightblue" points="834.431,-595.957 844.95,-597.227 837.519,-589.675 834.431,-595.957"/>
</g>
<!-- Node14&#45;&gt;Node12 -->
<g id="edge28" class="edge"><title>Node14&#45;&gt;Node12</title>
<path fill="none" stroke="midnightblue" d="M579.641,-426.298C601.877,-421.238 629.348,-414.987 652.856,-409.638"/>
<polygon fill="midnightblue" stroke="midnightblue" points="653.688,-413.038 662.662,-407.407 652.135,-406.213 653.688,-413.038"/>
</g>
<!-- Node15 -->
<g id="node15" class="node"><title>Node15</title>
<g id="a_node15"><a xlink:href="a00352.html#gaca20b6e5f5a5ac1727126712dd39564b" target="_top" xlink:title="Open and read the file &#39;file&#39; searching for a logical server by the name of &#39;host&#39;. ">
<polygon fill="white" stroke="red" points="647.5,-464.387 647.5,-483.387 763.5,-483.387 763.5,-464.387 647.5,-464.387"/>
<text text-anchor="middle" x="705.5" y="-471.387" font-family="Helvetica,sans-Serif" font-size="10.00">search_interface_file</text>
</a>
</g>
</g>
<!-- Node14&#45;&gt;Node15 -->
<g id="edge24" class="edge"><title>Node14&#45;&gt;Node15</title>
<path fill="none" stroke="midnightblue" d="M579.641,-445.476C601.877,-450.535 629.348,-456.786 652.856,-462.135"/>
<polygon fill="midnightblue" stroke="midnightblue" points="652.135,-465.561 662.662,-464.367 653.688,-458.735 652.135,-465.561"/>
</g>
<!-- Node16 -->
<g id="node16" class="node"><title>Node16</title>
<g id="a_node16"><a xlink:href="a00352.html#ga45281d1cb2ac649db65d80bb3ff06b66" target="_top" xlink:title="Given a portname lookup the port. ">
<polygon fill="white" stroke="red" points="819,-483.387 819,-502.387 911,-502.387 911,-483.387 819,-483.387"/>
<text text-anchor="middle" x="865" y="-490.387" font-family="Helvetica,sans-Serif" font-size="10.00">tds_lookup_port</text>
</a>
</g>
</g>
<!-- Node14&#45;&gt;Node16 -->
<g id="edge29" class="edge"><title>Node14&#45;&gt;Node16</title>
<path fill="none" stroke="midnightblue" d="M572.962,-445.481C579.558,-448.022 586.194,-451.133 592,-454.887 611.537,-467.518 606.629,-483.694 628,-492.887 687.209,-518.354 762.765,-512.522 812.22,-504.241"/>
<polygon fill="midnightblue" stroke="midnightblue" points="813.125,-507.636 822.362,-502.447 811.905,-500.743 813.125,-507.636"/>
</g>
<!-- Node15&#45;&gt;Node3 -->
<g id="edge25" class="edge"><title>Node15&#45;&gt;Node3</title>
<path fill="none" stroke="midnightblue" d="M758.848,-464.335C767.669,-460.901 776.166,-456.233 783,-449.887 837.876,-398.927 856.233,-305.987 861.801,-265.552"/>
<polygon fill="midnightblue" stroke="midnightblue" points="865.275,-265.977 863.052,-255.618 858.33,-265.103 865.275,-265.977"/>
</g>
<!-- Node15&#45;&gt;Node6 -->
<g id="edge26" class="edge"><title>Node15&#45;&gt;Node6</title>
<path fill="none" stroke="midnightblue" d="M718.543,-483.411C733.713,-495.462 760.518,-516.935 783,-535.887 804.794,-554.258 829.352,-575.924 845.655,-590.448"/>
<polygon fill="midnightblue" stroke="midnightblue" points="843.58,-593.287 853.37,-597.336 848.242,-588.065 843.58,-593.287"/>
</g>
<!-- Node15&#45;&gt;Node16 -->
<g id="edge27" class="edge"><title>Node15&#45;&gt;Node16</title>
<path fill="none" stroke="midnightblue" d="M763.807,-480.8C778.387,-482.559 794.028,-484.446 808.516,-486.193"/>
<polygon fill="midnightblue" stroke="midnightblue" points="808.482,-489.715 818.829,-487.437 809.32,-482.765 808.482,-489.715"/>
</g>
<!-- Node17&#45;&gt;Node3 -->
<g id="edge32" class="edge"><title>Node17&#45;&gt;Node3</title>
<path fill="none" stroke="midnightblue" d="M563.557,-128.535C610.319,-123.751 710.372,-119.203 783,-155.887 814.73,-171.913 839.884,-206.037 853.305,-227.356"/>
<polygon fill="midnightblue" stroke="midnightblue" points="850.451,-229.401 858.627,-236.14 856.438,-225.774 850.451,-229.401"/>
</g>
<!-- Node18 -->
<g id="node18" class="node"><title>Node18</title>
<g id="a_node18"><a xlink:href="a00356.html#ga11338742dc30fd0c2711f58eb830316f" target="_top" xlink:title="tds_send_cancel() sends an empty packet (8 byte header only) tds_process_cancel should be called dire...">
<polygon fill="white" stroke="red" points="657,-84.3867 657,-103.387 754,-103.387 754,-84.3867 657,-84.3867"/>
<text text-anchor="middle" x="705.5" y="-91.3867" font-family="Helvetica,sans-Serif" font-size="10.00">tds_send_cancel</text>
</a>
</g>
</g>
<!-- Node17&#45;&gt;Node18 -->
<g id="edge33" class="edge"><title>Node17&#45;&gt;Node18</title>
<path fill="none" stroke="midnightblue" d="M563.594,-125.949C587.413,-120.529 623.311,-112.361 652.912,-105.625"/>
<polygon fill="midnightblue" stroke="midnightblue" points="653.708,-109.034 662.682,-103.402 652.155,-102.208 653.708,-109.034"/>
</g>
<!-- Node18&#45;&gt;Node3 -->
<g id="edge34" class="edge"><title>Node18&#45;&gt;Node3</title>
<path fill="none" stroke="midnightblue" d="M754.336,-103.235C764.463,-106.706 774.612,-111.44 783,-117.887 820.717,-146.876 845.574,-198.806 856.914,-226.783"/>
<polygon fill="midnightblue" stroke="midnightblue" points="853.705,-228.188 860.597,-236.235 860.227,-225.647 853.705,-228.188"/>
</g>
<!-- Node21&#45;&gt;Node3 -->
<g id="edge38" class="edge"><title>Node21&#45;&gt;Node3</title>
<path fill="none" stroke="midnightblue" d="M141.188,-141.322C173.151,-110.826 279.313,-17.8867 386,-17.8867 386,-17.8867 386,-17.8867 537.5,-17.8867 646.843,-17.8867 695.001,31.0133 783,-33.8867 846.165,-80.4716 860.073,-182.919 863.136,-226.088"/>
<polygon fill="midnightblue" stroke="midnightblue" points="859.646,-226.38 863.724,-236.159 866.635,-225.971 859.646,-226.38"/>
</g>
<!-- Node22 -->
<g id="node22" class="node"><title>Node22</title>
<g id="a_node22"><a xlink:href="a00357.html#ga3e3f76009fce5ceedb2f42bb2c9aed2e" target="_top" xlink:title="Close current socket for last socket close entire connection for MARS send FIN request. ">
<polygon fill="white" stroke="black" points="195,-122.387 195,-141.387 293,-141.387 293,-122.387 195,-122.387"/>
<text text-anchor="middle" x="244" y="-129.387" font-family="Helvetica,sans-Serif" font-size="10.00">tds_close_socket</text>
</a>
</g>
</g>
<!-- Node21&#45;&gt;Node22 -->
<g id="edge39" class="edge"><title>Node21&#45;&gt;Node22</title>
<path fill="none" stroke="midnightblue" d="M157.08,-146.528C165.383,-145.113 174.964,-143.48 184.649,-141.83"/>
<polygon fill="midnightblue" stroke="midnightblue" points="185.462,-145.242 194.732,-140.112 184.286,-138.341 185.462,-145.242"/>
</g>
<!-- Node24 -->
<g id="node24" class="node"><title>Node24</title>
<g id="a_node24"><a xlink:href="a00341.html#ga0fcfcf6846442dac9dd5584d270ec72a" target="_top" xlink:title="Erase the command buffer, in case DBNOAUTOFREE was set with dbsetopt(). ">
<polygon fill="white" stroke="black" points="214,-160.387 214,-179.387 274,-179.387 274,-160.387 214,-160.387"/>
<text text-anchor="middle" x="244" y="-167.387" font-family="Helvetica,sans-Serif" font-size="10.00">dbfreebuf</text>
</a>
</g>
</g>
<!-- Node21&#45;&gt;Node24 -->
<g id="edge44" class="edge"><title>Node21&#45;&gt;Node24</title>
<path fill="none" stroke="midnightblue" d="M157.08,-155.246C170.767,-157.578 187.925,-160.502 203.302,-163.122"/>
<polygon fill="midnightblue" stroke="midnightblue" points="203.153,-166.647 213.599,-164.877 204.329,-159.746 203.153,-166.647"/>
</g>
<!-- Node22&#45;&gt;Node17 -->
<g id="edge43" class="edge"><title>Node22&#45;&gt;Node17</title>
<path fill="none" stroke="midnightblue" d="M293.296,-131.887C351.257,-131.887 447.124,-131.887 499.166,-131.887"/>
<polygon fill="midnightblue" stroke="midnightblue" points="499.272,-135.387 509.272,-131.887 499.272,-128.387 499.272,-135.387"/>
</g>
<!-- Node23 -->
<g id="node23" class="node"><title>Node23</title>
<g id="a_node23"><a xlink:href="a00193.html#a16db200d2281f76fe46fc1cbe37ca9df" target="_top" xlink:title="Set state of TDS connection, with logging and checking. ">
<polygon fill="white" stroke="black" points="347,-84.3867 347,-103.387 427,-103.387 427,-84.3867 347,-84.3867"/>
<text text-anchor="middle" x="387" y="-91.3867" font-family="Helvetica,sans-Serif" font-size="10.00">tds_set_state</text>
</a>
</g>
</g>
<!-- Node22&#45;&gt;Node23 -->
<g id="edge40" class="edge"><title>Node22&#45;&gt;Node23</title>
<path fill="none" stroke="midnightblue" d="M280.58,-122.298C298.782,-117.392 321.138,-111.367 340.572,-106.13"/>
<polygon fill="midnightblue" stroke="midnightblue" points="341.686,-109.454 350.431,-103.473 339.865,-102.695 341.686,-109.454"/>
</g>
<!-- Node23&#45;&gt;Node3 -->
<g id="edge41" class="edge"><title>Node23&#45;&gt;Node3</title>
<path fill="none" stroke="midnightblue" d="M411.257,-84.261C476.095,-59.0836 662.039,1.6611 783,-74.8867 836.582,-108.795 855.413,-188.791 861.434,-226.093"/>
<polygon fill="midnightblue" stroke="midnightblue" points="858.003,-226.814 862.916,-236.201 864.929,-225.799 858.003,-226.814"/>
</g>
<!-- Node23&#45;&gt;Node17 -->
<g id="edge42" class="edge"><title>Node23&#45;&gt;Node17</title>
<path fill="none" stroke="midnightblue" d="M425.22,-103.476C448.015,-109.348 477.038,-116.825 499.589,-122.635"/>
<polygon fill="midnightblue" stroke="midnightblue" points="498.891,-126.07 509.448,-125.175 500.638,-119.291 498.891,-126.07"/>
</g>
<!-- Node24&#45;&gt;Node3 -->
<g id="edge45" class="edge"><title>Node24&#45;&gt;Node3</title>
<path fill="none" stroke="midnightblue" d="M274.208,-165.998C356.607,-156.112 596.991,-134.785 783,-193.887 806.516,-201.359 829.852,-217.51 845.392,-229.844"/>
<polygon fill="midnightblue" stroke="midnightblue" points="843.222,-232.591 853.175,-236.223 847.66,-227.177 843.222,-232.591"/>
</g>
</g>
</svg>
