<?xml version="1.0" encoding="UTF-8" standalone="no"?>
<!DOCTYPE svg PUBLIC "-//W3C//DTD SVG 1.1//EN"
 "http://www.w3.org/Graphics/SVG/1.1/DTD/svg11.dtd">
<!-- Generated by graphviz version 2.38.0 (20140413.2041)
 -->
<!-- Title: tds_lookup_dynamic Pages: 1 -->
<svg width="744pt" height="496pt"
 viewBox="0.00 0.00 744.00 496.00" xmlns="http://www.w3.org/2000/svg" xmlns:xlink="http://www.w3.org/1999/xlink">
<g id="graph0" class="graph" transform="scale(1 1) rotate(0) translate(4 492)">
<title>tds_lookup_dynamic</title>
<polygon fill="white" stroke="none" points="-4,4 -4,-492 740,-492 740,4 -4,4"/>
<!-- Node1 -->
<g id="node1" class="node"><title>Node1</title>
<polygon fill="#bfbfbf" stroke="black" points="0,-277.5 0,-296.5 113,-296.5 113,-277.5 0,-277.5"/>
<text text-anchor="middle" x="56.5" y="-284.5" font-family="Helvetica,sans-Serif" font-size="10.00">tds_lookup_dynamic</text>
</g>
<!-- Node2 -->
<g id="node2" class="node"><title>Node2</title>
<g id="a_node2"><a xlink:href="a00355.html#ga69559de43b47f4a9e2eecc7a56527444" target="_top" xlink:title="Allocate a dynamic statement. ">
<polygon fill="white" stroke="black" points="156.5,-306.5 156.5,-325.5 260.5,-325.5 260.5,-306.5 156.5,-306.5"/>
<text text-anchor="middle" x="208.5" y="-313.5" font-family="Helvetica,sans-Serif" font-size="10.00">tds_alloc_dynamic</text>
</a>
</g>
</g>
<!-- Node1&#45;&gt;Node2 -->
<g id="edge1" class="edge"><title>Node1&#45;&gt;Node2</title>
<path fill="none" stroke="midnightblue" d="M116.866,-298.478C130.589,-301.131 145.042,-303.925 158.276,-306.483"/>
<polygon fill="midnightblue" stroke="midnightblue" points="117.514,-295.038 107.031,-296.576 116.185,-301.911 117.514,-295.038"/>
</g>
<!-- Node6 -->
<g id="node6" class="node"><title>Node6</title>
<g id="a_node6"><a xlink:href="a00359.html#ga5cfc0340d8d717e67f60037e029b2142" target="_top" xlink:title="tds_process_dynamic() finds the element of the dyns array for the id ">
<polygon fill="white" stroke="black" points="149,-249.5 149,-268.5 268,-268.5 268,-249.5 149,-249.5"/>
<text text-anchor="middle" x="208.5" y="-256.5" font-family="Helvetica,sans-Serif" font-size="10.00">tds_process_dynamic</text>
</a>
</g>
</g>
<!-- Node1&#45;&gt;Node6 -->
<g id="edge5" class="edge"><title>Node1&#45;&gt;Node6</title>
<path fill="none" stroke="midnightblue" d="M118.649,-275.586C131.231,-273.237 144.352,-270.788 156.529,-268.515"/>
<polygon fill="midnightblue" stroke="midnightblue" points="117.89,-272.167 108.702,-277.442 119.174,-279.048 117.89,-272.167"/>
</g>
<!-- Node3 -->
<g id="node3" class="node"><title>Node3</title>
<g id="a_node3"><a xlink:href="a00356.html#ga74eb08c3a1c85be8ac9db428842c8b9d" target="_top" xlink:title="tds_submit_prepare() creates a temporary stored procedure in the server. ">
<polygon fill="white" stroke="black" points="313,-354.5 313,-373.5 423,-373.5 423,-354.5 313,-354.5"/>
<text text-anchor="middle" x="368" y="-361.5" font-family="Helvetica,sans-Serif" font-size="10.00">tds_submit_prepare</text>
</a>
</g>
</g>
<!-- Node2&#45;&gt;Node3 -->
<g id="edge2" class="edge"><title>Node2&#45;&gt;Node3</title>
<path fill="none" stroke="midnightblue" d="M250.5,-328.629C267.103,-333.731 286.461,-339.664 304,-345 314.164,-348.092 325.258,-351.445 335.264,-354.462"/>
<polygon fill="midnightblue" stroke="midnightblue" points="251.146,-325.166 240.559,-325.573 249.088,-331.857 251.146,-325.166"/>
</g>
<!-- Node4 -->
<g id="node4" class="node"><title>Node4</title>
<g id="a_node4"><a xlink:href="a00356.html#gae603aed795a4c5bb26ab159a11256996" target="_top" xlink:title="Submit a prepared query with parameters. ">
<polygon fill="white" stroke="black" points="307.5,-316.5 307.5,-335.5 428.5,-335.5 428.5,-316.5 307.5,-316.5"/>
<text text-anchor="middle" x="368" y="-323.5" font-family="Helvetica,sans-Serif" font-size="10.00">tds_submit_execdirect</text>
</a>
</g>
</g>
<!-- Node2&#45;&gt;Node4 -->
<g id="edge3" class="edge"><title>Node2&#45;&gt;Node4</title>
<path fill="none" stroke="midnightblue" d="M270.973,-319.903C282.935,-320.663 295.455,-321.457 307.356,-322.213"/>
<polygon fill="midnightblue" stroke="midnightblue" points="270.837,-316.387 260.636,-319.247 270.394,-323.373 270.837,-316.387"/>
</g>
<!-- Node5 -->
<g id="node5" class="node"><title>Node5</title>
<g id="a_node5"><a xlink:href="a00356.html#ga08877c101704bebe4fa57e0849dc272d" target="_top" xlink:title="tds71_submit_prepexec() creates a temporary stored procedure in the server. ">
<polygon fill="white" stroke="black" points="304,-278.5 304,-297.5 432,-297.5 432,-278.5 304,-278.5"/>
<text text-anchor="middle" x="368" y="-285.5" font-family="Helvetica,sans-Serif" font-size="10.00">tds71_submit_prepexec</text>
</a>
</g>
</g>
<!-- Node2&#45;&gt;Node5 -->
<g id="edge4" class="edge"><title>Node2&#45;&gt;Node5</title>
<path fill="none" stroke="midnightblue" d="M270.725,-305.116C284.809,-302.612 299.682,-299.968 313.413,-297.527"/>
<polygon fill="midnightblue" stroke="midnightblue" points="269.869,-301.713 260.636,-306.909 271.094,-308.605 269.869,-301.713"/>
</g>
<!-- Node7 -->
<g id="node7" class="node"><title>Node7</title>
<g id="a_node7"><a xlink:href="a00359.html#gabfc9de1d1fe718818caf63a4be4035a6" target="_top" xlink:title="process all streams. ">
<polygon fill="white" stroke="black" points="312,-240.5 312,-259.5 424,-259.5 424,-240.5 312,-240.5"/>
<text text-anchor="middle" x="368" y="-247.5" font-family="Helvetica,sans-Serif" font-size="10.00">tds_process_tokens</text>
</a>
</g>
</g>
<!-- Node6&#45;&gt;Node7 -->
<g id="edge6" class="edge"><title>Node6&#45;&gt;Node7</title>
<path fill="none" stroke="midnightblue" d="M278.363,-255.065C289.599,-254.423 301.108,-253.765 311.956,-253.145"/>
<polygon fill="midnightblue" stroke="midnightblue" points="277.931,-251.584 268.147,-255.649 278.331,-258.572 277.931,-251.584"/>
</g>
<!-- Node8 -->
<g id="node8" class="node"><title>Node8</title>
<g id="a_node8"><a xlink:href="a00344.html#gae67546338cb9542a4902aa914f57f314" target="_top" xlink:title="_bcp_exec_out">
<polygon fill="white" stroke="red" points="479.5,-468.5 479.5,-487.5 567.5,-487.5 567.5,-468.5 479.5,-468.5"/>
<text text-anchor="middle" x="523.5" y="-475.5" font-family="Helvetica,sans-Serif" font-size="10.00">_bcp_exec_out</text>
</a>
</g>
</g>
<!-- Node7&#45;&gt;Node8 -->
<g id="edge7" class="edge"><title>Node7&#45;&gt;Node8</title>
<path fill="none" stroke="midnightblue" d="M428.208,-265.321C429.549,-266.462 430.818,-267.686 432,-269 489.48,-332.898 411.892,-393.894 468,-459 471.336,-462.871 475.506,-465.954 480.045,-468.409"/>
<polygon fill="midnightblue" stroke="midnightblue" points="430.081,-262.362 419.838,-259.656 426.157,-268.159 430.081,-262.362"/>
</g>
<!-- Node9 -->
<g id="node9" class="node"><title>Node9</title>
<g id="a_node9"><a xlink:href="a00341.html#gaf1879b85e8238c015b9648d077665285" target="_top" xlink:title="_dbresults">
<polygon fill="white" stroke="red" points="491,-430.5 491,-449.5 556,-449.5 556,-430.5 491,-430.5"/>
<text text-anchor="middle" x="523.5" y="-437.5" font-family="Helvetica,sans-Serif" font-size="10.00">_dbresults</text>
</a>
</g>
</g>
<!-- Node7&#45;&gt;Node9 -->
<g id="edge8" class="edge"><title>Node7&#45;&gt;Node9</title>
<path fill="none" stroke="midnightblue" d="M428.039,-265.318C429.436,-266.459 430.762,-267.685 432,-269 479.587,-319.549 421.499,-369.45 468,-421 473.973,-427.622 482.381,-431.936 490.807,-434.747"/>
<polygon fill="midnightblue" stroke="midnightblue" points="429.645,-262.187 419.357,-259.656 425.821,-268.05 429.645,-262.187"/>
</g>
<!-- Node10 -->
<g id="node10" class="node"><title>Node10</title>
<g id="a_node10"><a xlink:href="a00342.html#gaff09873008411a0573f6d1a9e6c7cf4b" target="_top" xlink:title="Get count of output parameters filled by a stored procedure. ">
<polygon fill="white" stroke="red" points="491,-392.5 491,-411.5 556,-411.5 556,-392.5 491,-392.5"/>
<text text-anchor="middle" x="523.5" y="-399.5" font-family="Helvetica,sans-Serif" font-size="10.00">dbnumrets</text>
</a>
</g>
</g>
<!-- Node7&#45;&gt;Node10 -->
<g id="edge9" class="edge"><title>Node7&#45;&gt;Node10</title>
<path fill="none" stroke="midnightblue" d="M427.315,-264.986C428.967,-266.22 430.537,-267.555 432,-269 469.813,-306.326 430.989,-344.878 468,-383 474.142,-389.327 482.502,-393.549 490.828,-396.366"/>
<polygon fill="midnightblue" stroke="midnightblue" points="428.823,-261.807 418.457,-259.617 425.195,-267.794 428.823,-261.807"/>
</g>
<!-- Node11 -->
<g id="node11" class="node"><title>Node11</title>
<g id="a_node11"><a xlink:href="a00341.html#gae1f50a6a2c31fda57cb481922b06841e" target="_top" xlink:title="Wait for results of a query from the server. ">
<polygon fill="white" stroke="red" points="497,-354.5 497,-373.5 550,-373.5 550,-354.5 497,-354.5"/>
<text text-anchor="middle" x="523.5" y="-361.5" font-family="Helvetica,sans-Serif" font-size="10.00">dbsqlok</text>
</a>
</g>
</g>
<!-- Node7&#45;&gt;Node11 -->
<g id="edge10" class="edge"><title>Node7&#45;&gt;Node11</title>
<path fill="none" stroke="midnightblue" d="M425.504,-264.34C427.789,-265.75 429.969,-267.299 432,-269 459.123,-291.717 442.311,-315.673 468,-340 476.032,-347.606 486.871,-353.047 496.767,-356.804"/>
<polygon fill="midnightblue" stroke="midnightblue" points="426.751,-261.045 416.261,-259.56 423.536,-267.263 426.751,-261.045"/>
</g>
<!-- Node12 -->
<g id="node12" class="node"><title>Node12</title>
<g id="a_node12"><a xlink:href="a00341.html#ga548153eb2eae76c48aa9d4b72258dc1c" target="_top" xlink:title="Send text or image data to the server. ">
<polygon fill="white" stroke="black" points="641.5,-335.5 641.5,-354.5 709.5,-354.5 709.5,-335.5 641.5,-335.5"/>
<text text-anchor="middle" x="675.5" y="-342.5" font-family="Helvetica,sans-Serif" font-size="10.00">dbwritetext</text>
</a>
</g>
</g>
<!-- Node7&#45;&gt;Node12 -->
<g id="edge13" class="edge"><title>Node7&#45;&gt;Node12</title>
<path fill="none" stroke="midnightblue" d="M421.181,-263.339C424.947,-265.021 428.597,-266.901 432,-269 451.801,-281.213 447.552,-295.904 468,-307 523.588,-337.166 598.678,-343.897 641.304,-345.103"/>
<polygon fill="midnightblue" stroke="midnightblue" points="422.241,-259.994 411.655,-259.554 419.656,-266.499 422.241,-259.994"/>
</g>
<!-- Node13 -->
<g id="node13" class="node"><title>Node13</title>
<g id="a_node13"><a xlink:href="a00341.html#ga559e24ba70d0d96c3469eb6ab8f74e05" target="_top" xlink:title="Cancel the query currently being retrieved, discarding all pending rows. ">
<polygon fill="white" stroke="red" points="488,-278.5 488,-297.5 559,-297.5 559,-278.5 488,-278.5"/>
<text text-anchor="middle" x="523.5" y="-285.5" font-family="Helvetica,sans-Serif" font-size="10.00">dbcanquery</text>
</a>
</g>
</g>
<!-- Node7&#45;&gt;Node13 -->
<g id="edge12" class="edge"><title>Node7&#45;&gt;Node13</title>
<path fill="none" stroke="midnightblue" d="M417.601,-262.032C440.47,-267.693 467.21,-274.312 487.968,-279.451"/>
<polygon fill="midnightblue" stroke="midnightblue" points="418.283,-258.595 407.735,-259.589 416.6,-265.39 418.283,-258.595"/>
</g>
<!-- Node14 -->
<g id="node14" class="node"><title>Node14</title>
<g id="a_node14"><a xlink:href="a00341.html#gadd5685565c8c6c86079e17b8a73b324c" target="_top" xlink:title="Fetch part of a text or image value from the server. ">
<polygon fill="white" stroke="black" points="490,-240.5 490,-259.5 557,-259.5 557,-240.5 490,-240.5"/>
<text text-anchor="middle" x="523.5" y="-247.5" font-family="Helvetica,sans-Serif" font-size="10.00">dbreadtext</text>
</a>
</g>
</g>
<!-- Node7&#45;&gt;Node14 -->
<g id="edge14" class="edge"><title>Node7&#45;&gt;Node14</title>
<path fill="none" stroke="midnightblue" d="M434.613,-250C453.745,-250 473.82,-250 489.947,-250"/>
<polygon fill="midnightblue" stroke="midnightblue" points="434.417,-246.5 424.417,-250 434.417,-253.5 434.417,-246.5"/>
</g>
<!-- Node15 -->
<g id="node15" class="node"><title>Node15</title>
<g id="a_node15"><a xlink:href="a00341.html#gac980139b9cea03cf93e373d425991481" target="_top" xlink:title="Transmit the command buffer to the server. ">
<polygon fill="white" stroke="red" points="491,-202.5 491,-221.5 556,-221.5 556,-202.5 491,-202.5"/>
<text text-anchor="middle" x="523.5" y="-209.5" font-family="Helvetica,sans-Serif" font-size="10.00">dbsqlsend</text>
</a>
</g>
</g>
<!-- Node7&#45;&gt;Node15 -->
<g id="edge15" class="edge"><title>Node7&#45;&gt;Node15</title>
<path fill="none" stroke="midnightblue" d="M417.647,-237.957C441.451,-232.064 469.438,-225.136 490.508,-219.92"/>
<polygon fill="midnightblue" stroke="midnightblue" points="416.6,-234.61 407.735,-240.411 418.283,-241.405 416.6,-234.61"/>
</g>
<!-- Node16 -->
<g id="node16" class="node"><title>Node16</title>
<g id="a_node16"><a xlink:href="a00356.html#gaf0da49585d39e99780a004ee2ca23479" target="_top" xlink:title="Send option commands to server. ">
<polygon fill="white" stroke="black" points="615,-104.5 615,-123.5 736,-123.5 736,-104.5 615,-104.5"/>
<text text-anchor="middle" x="675.5" y="-111.5" font-family="Helvetica,sans-Serif" font-size="10.00">tds_submit_optioncmd</text>
</a>
</g>
</g>
<!-- Node7&#45;&gt;Node16 -->
<g id="edge16" class="edge"><title>Node7&#45;&gt;Node16</title>
<path fill="none" stroke="midnightblue" d="M392.188,-234.939C411.833,-222.601 441.029,-205.243 468,-193 515.481,-171.447 530.341,-173.743 579,-155 604.929,-145.012 634.222,-132.204 653.448,-123.583"/>
<polygon fill="midnightblue" stroke="midnightblue" points="390.183,-232.066 383.619,-240.382 393.937,-237.974 390.183,-232.066"/>
</g>
<!-- Node17 -->
<g id="node17" class="node"><title>Node17</title>
<g id="a_node17"><a xlink:href="a00193.html#ac6610c72bd31bad5378f760fa9b12d66" target="_top" xlink:title="Initialize BCP information. ">
<polygon fill="white" stroke="red" points="487,-126.5 487,-145.5 560,-145.5 560,-126.5 487,-126.5"/>
<text text-anchor="middle" x="523.5" y="-133.5" font-family="Helvetica,sans-Serif" font-size="10.00">tds_bcp_init</text>
</a>
</g>
</g>
<!-- Node7&#45;&gt;Node17 -->
<g id="edge17" class="edge"><title>Node7&#45;&gt;Node17</title>
<path fill="none" stroke="midnightblue" d="M384.453,-232.945C402.869,-213.38 435.28,-181.265 468,-160 476.669,-154.366 486.881,-149.472 496.108,-145.598"/>
<polygon fill="midnightblue" stroke="midnightblue" points="381.687,-230.781 377.457,-240.494 386.822,-235.539 381.687,-230.781"/>
</g>
<!-- Node18 -->
<g id="node18" class="node"><title>Node18</title>
<g id="a_node18"><a xlink:href="a00359.html#ga55f27c3e05d42c9b07ace1c74b11c5ab" target="_top" xlink:title="Retrieve and set @spid. ">
<polygon fill="white" stroke="red" points="485,-88.5 485,-107.5 562,-107.5 562,-88.5 485,-88.5"/>
<text text-anchor="middle" x="523.5" y="-95.5" font-family="Helvetica,sans-Serif" font-size="10.00">tds_set_spid</text>
</a>
</g>
</g>
<!-- Node7&#45;&gt;Node18 -->
<g id="edge18" class="edge"><title>Node7&#45;&gt;Node18</title>
<path fill="none" stroke="midnightblue" d="M378.107,-231.504C393.059,-202.966 425.447,-148.234 468,-117 473.251,-113.146 479.348,-110.024 485.525,-107.511"/>
<polygon fill="midnightblue" stroke="midnightblue" points="374.983,-229.926 373.558,-240.425 381.219,-233.107 374.983,-229.926"/>
</g>
<!-- Node19 -->
<g id="node19" class="node"><title>Node19</title>
<g id="a_node19"><a xlink:href="a00359.html#gaeeb1562044786ea17bea361ed83e6946" target="_top" xlink:title="Process results for simple query as &quot;SET TEXTSIZE&quot; or &quot;USE dbname&quot; If the statement returns results...">
<polygon fill="white" stroke="red" points="468.5,-39 468.5,-69 578.5,-69 578.5,-39 468.5,-39"/>
<text text-anchor="start" x="476.5" y="-57" font-family="Helvetica,sans-Serif" font-size="10.00">tds_process_simple</text>
<text text-anchor="middle" x="523.5" y="-46" font-family="Helvetica,sans-Serif" font-size="10.00">_query</text>
</a>
</g>
</g>
<!-- Node7&#45;&gt;Node19 -->
<g id="edge19" class="edge"><title>Node7&#45;&gt;Node19</title>
<path fill="none" stroke="midnightblue" d="M375.67,-230.678C388.502,-196.046 419.703,-122.926 468,-79 472.159,-75.2178 476.988,-71.9188 482.019,-69.0675"/>
<polygon fill="midnightblue" stroke="midnightblue" points="372.367,-229.521 372.279,-240.116 378.954,-231.888 372.367,-229.521"/>
</g>
<!-- Node20 -->
<g id="node20" class="node"><title>Node20</title>
<g id="a_node20"><a xlink:href="a00359.html#gaf233e79967f82f4e0dd4d11524917a34" target="_top" xlink:title="tds_process_cancel">
<polygon fill="white" stroke="red" points="468,-0.5 468,-19.5 579,-19.5 579,-0.5 468,-0.5"/>
<text text-anchor="middle" x="523.5" y="-7.5" font-family="Helvetica,sans-Serif" font-size="10.00">tds_process_cancel</text>
</a>
</g>
</g>
<!-- Node7&#45;&gt;Node20 -->
<g id="edge21" class="edge"><title>Node7&#45;&gt;Node20</title>
<path fill="none" stroke="midnightblue" d="M372.346,-230.552C380.678,-187.938 406.299,-85.6267 468,-29 472.208,-25.138 477.244,-22.0539 482.531,-19.5927"/>
<polygon fill="midnightblue" stroke="midnightblue" points="368.889,-230.001 370.513,-240.47 375.772,-231.273 368.889,-230.001"/>
</g>
<!-- Node11&#45;&gt;Node12 -->
<g id="edge11" class="edge"><title>Node11&#45;&gt;Node12</title>
<path fill="none" stroke="midnightblue" d="M560.316,-359.463C584.951,-356.343 617.428,-352.229 641.446,-349.187"/>
<polygon fill="midnightblue" stroke="midnightblue" points="559.767,-356.005 550.286,-360.734 560.646,-362.949 559.767,-356.005"/>
</g>
<!-- Node19&#45;&gt;Node16 -->
<g id="edge20" class="edge"><title>Node19&#45;&gt;Node16</title>
<path fill="none" stroke="midnightblue" d="M571.761,-72.9046C598.031,-83.4125 629.586,-96.0343 650.732,-104.493"/>
<polygon fill="midnightblue" stroke="midnightblue" points="572.936,-69.6048 562.351,-69.1405 570.336,-76.1042 572.936,-69.6048"/>
</g>
</g>
</svg>
