<?xml version="1.0" encoding="UTF-8" standalone="no"?>
<!DOCTYPE svg PUBLIC "-//W3C//DTD SVG 1.1//EN"
 "http://www.w3.org/Graphics/SVG/1.1/DTD/svg11.dtd">
<!-- Generated by graphviz version 2.38.0 (20140413.2041)
 -->
<!-- Title: _cs_connection Pages: 1 -->
<svg width="1139pt" height="398pt"
 viewBox="0.00 0.00 1138.66 398.00" xmlns="http://www.w3.org/2000/svg" xmlns:xlink="http://www.w3.org/1999/xlink">
<g id="graph0" class="graph" transform="scale(1 1) rotate(0) translate(4 394)">
<title>_cs_connection</title>
<polygon fill="white" stroke="none" points="-4,4 -4,-394 1134.66,-394 1134.66,4 -4,4"/>
<!-- Node1 -->
<g id="node1" class="node"><title>Node1</title>
<polygon fill="#bfbfbf" stroke="black" points="398.657,-134.5 398.657,-153.5 489.657,-153.5 489.657,-134.5 398.657,-134.5"/>
<text text-anchor="middle" x="444.157" y="-141.5" font-family="Helvetica,sans-Serif" font-size="10.00">_cs_connection</text>
</g>
<!-- Node3 -->
<g id="node3" class="node"><title>Node3</title>
<g id="a_node3"><a xlink:href="a00004.html" target="_top" xlink:title="_cs_command">
<polygon fill="white" stroke="black" points="239.657,-67.5 239.657,-86.5 324.657,-86.5 324.657,-67.5 239.657,-67.5"/>
<text text-anchor="middle" x="282.157" y="-74.5" font-family="Helvetica,sans-Serif" font-size="10.00">_cs_command</text>
</a>
</g>
</g>
<!-- Node1&#45;&gt;Node3 -->
<g id="edge13" class="edge"><title>Node1&#45;&gt;Node3</title>
<path fill="none" stroke="#9a32cd" stroke-dasharray="5,2" d="M415.626,-130.183C398.488,-122.609 376.191,-112.973 356.157,-105 339.766,-98.477 321.104,-91.672 306.621,-86.5257"/>
<polygon fill="#9a32cd" stroke="#9a32cd" points="414.504,-133.515 425.064,-134.376 417.346,-127.118 414.504,-133.515"/>
<text text-anchor="middle" x="391.657" y="-108" font-family="Helvetica,sans-Serif" font-size="10.00"> con</text>
</g>
<!-- Node2 -->
<g id="node2" class="node"><title>Node2</title>
<g id="a_node2"><a xlink:href="a00005.html" target="_top" xlink:title="_cs_command_list">
<polygon fill="white" stroke="black" points="337.157,-0.5 337.157,-19.5 441.157,-19.5 441.157,-0.5 337.157,-0.5"/>
<text text-anchor="middle" x="389.157" y="-7.5" font-family="Helvetica,sans-Serif" font-size="10.00">_cs_command_list</text>
</a>
</g>
</g>
<!-- Node2&#45;&gt;Node1 -->
<g id="edge1" class="edge"><title>Node2&#45;&gt;Node1</title>
<path fill="none" stroke="#9a32cd" stroke-dasharray="5,2" d="M396.562,-28.7713C408.522,-57.477 431.651,-112.986 440.548,-134.339"/>
<polygon fill="#9a32cd" stroke="#9a32cd" points="399.784,-27.4058 392.707,-19.5212 393.323,-30.0981 399.784,-27.4058"/>
<text text-anchor="middle" x="435.157" y="-74.5" font-family="Helvetica,sans-Serif" font-size="10.00"> cmds</text>
</g>
<!-- Node2&#45;&gt;Node2 -->
<g id="edge2" class="edge"><title>Node2&#45;&gt;Node2</title>
<path fill="none" stroke="#9a32cd" stroke-dasharray="5,2" d="M451.556,-14.4883C456.263,-13.4883 459.157,-11.9922 459.157,-10 459.157,-6.8125 451.749,-4.89502 441.359,-4.24756"/>
<polygon fill="#9a32cd" stroke="#9a32cd" points="450.853,-11.0486 441.359,-15.7524 451.714,-17.9954 450.853,-11.0486"/>
<text text-anchor="middle" x="471.157" y="-7.5" font-family="Helvetica,sans-Serif" font-size="10.00"> next</text>
</g>
<!-- Node3&#45;&gt;Node2 -->
<g id="edge3" class="edge"><title>Node3&#45;&gt;Node2</title>
<path fill="none" stroke="#9a32cd" stroke-dasharray="5,2" d="M305.298,-61.9422C326.489,-49.0696 357.176,-30.4274 374.955,-19.6273"/>
<polygon fill="#9a32cd" stroke="#9a32cd" points="303.317,-59.0506 296.587,-67.2338 306.951,-65.0332 303.317,-59.0506"/>
<text text-anchor="middle" x="353.657" y="-41" font-family="Helvetica,sans-Serif" font-size="10.00"> cmd</text>
</g>
<!-- Node4 -->
<g id="node4" class="node"><title>Node4</title>
<g id="a_node4"><a xlink:href="a00014.html" target="_top" xlink:title="_cs_iodesc">
<polygon fill="white" stroke="black" points="310.157,-134.5 310.157,-153.5 380.157,-153.5 380.157,-134.5 310.157,-134.5"/>
<text text-anchor="middle" x="345.157" y="-141.5" font-family="Helvetica,sans-Serif" font-size="10.00">_cs_iodesc</text>
</a>
</g>
</g>
<!-- Node4&#45;&gt;Node3 -->
<g id="edge4" class="edge"><title>Node4&#45;&gt;Node3</title>
<path fill="none" stroke="#9a32cd" stroke-dasharray="5,2" d="M329.646,-126.997C317.291,-114.25 300.47,-96.8947 290.519,-86.6273"/>
<polygon fill="#9a32cd" stroke="#9a32cd" points="327.188,-129.489 336.661,-134.234 332.214,-124.617 327.188,-129.489"/>
<text text-anchor="middle" x="335.157" y="-108" font-family="Helvetica,sans-Serif" font-size="10.00"> iodesc</text>
</g>
<!-- Node5 -->
<g id="node5" class="node"><title>Node5</title>
<g id="a_node5"><a xlink:href="a00015.html" target="_top" xlink:title="_cs_locale">
<polygon fill="white" stroke="black" points="318.657,-230 318.657,-249 385.657,-249 385.657,-230 318.657,-230"/>
<text text-anchor="middle" x="352.157" y="-237" font-family="Helvetica,sans-Serif" font-size="10.00">_cs_locale</text>
</a>
</g>
</g>
<!-- Node5&#45;&gt;Node1 -->
<g id="edge16" class="edge"><title>Node5&#45;&gt;Node1</title>
<path fill="none" stroke="#9a32cd" stroke-dasharray="5,2" d="M365.365,-221.704C376.642,-207.785 393.616,-187.796 410.157,-172 417.135,-165.337 425.635,-158.587 432.39,-153.503"/>
<polygon fill="#9a32cd" stroke="#9a32cd" points="362.349,-219.873 358.84,-229.87 367.817,-224.243 362.349,-219.873"/>
<text text-anchor="middle" x="425.657" y="-186" font-family="Helvetica,sans-Serif" font-size="10.00"> locale</text>
</g>
<!-- Node5&#45;&gt;Node4 -->
<g id="edge5" class="edge"><title>Node5&#45;&gt;Node4</title>
<path fill="none" stroke="#9a32cd" stroke-dasharray="5,2" d="M343.845,-220.691C341.915,-215.72 340.139,-210.243 339.157,-205 336.458,-190.584 337.557,-186.579 339.157,-172 339.828,-165.89 341.328,-159.14 342.66,-153.918"/>
<polygon fill="#9a32cd" stroke="#9a32cd" points="340.657,-222.137 347.819,-229.945 347.089,-219.375 340.657,-222.137"/>
<text text-anchor="middle" x="354.657" y="-186" font-family="Helvetica,sans-Serif" font-size="10.00"> locale</text>
</g>
<!-- Node6 -->
<g id="node6" class="node"><title>Node6</title>
<g id="a_node6"><a xlink:href="a00021.html" target="_top" xlink:title="_cs_param">
<polygon fill="white" stroke="black" points="63.657,-303.5 63.657,-322.5 132.657,-322.5 132.657,-303.5 63.657,-303.5"/>
<text text-anchor="middle" x="98.157" y="-310.5" font-family="Helvetica,sans-Serif" font-size="10.00">_cs_param</text>
</a>
</g>
</g>
<!-- Node6&#45;&gt;Node3 -->
<g id="edge6" class="edge"><title>Node6&#45;&gt;Node3</title>
<path fill="none" stroke="#9a32cd" stroke-dasharray="5,2" d="M76.7291,-297.63C41.5312,-272.206 -21.7785,-217.67 8.157,-172 58.4028,-95.3447 175.976,-80.1921 239.549,-77.8235"/>
<polygon fill="#9a32cd" stroke="#9a32cd" points="74.8044,-300.555 84.9981,-303.443 78.8303,-294.829 74.8044,-300.555"/>
<text text-anchor="middle" x="41.657" y="-186" font-family="Helvetica,sans-Serif" font-size="10.00"> input_params</text>
</g>
<!-- Node6&#45;&gt;Node6 -->
<g id="edge7" class="edge"><title>Node6&#45;&gt;Node6</title>
<path fill="none" stroke="#9a32cd" stroke-dasharray="5,2" d="M142.847,-317.995C147.603,-317.028 150.657,-315.363 150.657,-313 150.657,-309.219 142.838,-307.225 132.743,-307.018"/>
<polygon fill="#9a32cd" stroke="#9a32cd" points="142.356,-314.527 132.743,-318.982 143.036,-321.494 142.356,-314.527"/>
<text text-anchor="middle" x="162.657" y="-310.5" font-family="Helvetica,sans-Serif" font-size="10.00"> next</text>
</g>
<!-- Node7 -->
<g id="node7" class="node"><title>Node7</title>
<g id="a_node7"><a xlink:href="a00013.html" target="_top" xlink:title="_cs_dynamic">
<polygon fill="white" stroke="red" points="134.157,-230 134.157,-249 212.157,-249 212.157,-230 134.157,-230"/>
<text text-anchor="middle" x="173.157" y="-237" font-family="Helvetica,sans-Serif" font-size="10.00">_cs_dynamic</text>
</a>
</g>
</g>
<!-- Node6&#45;&gt;Node7 -->
<g id="edge9" class="edge"><title>Node6&#45;&gt;Node7</title>
<path fill="none" stroke="#9a32cd" stroke-dasharray="5,2" d="M132.029,-298.847C138.922,-295.1 145.718,-290.505 151.157,-285 161.333,-274.701 167.628,-258.755 170.753,-249.009"/>
<polygon fill="#9a32cd" stroke="#9a32cd" points="130.12,-295.885 122.688,-303.436 133.207,-302.168 130.12,-295.885"/>
<text text-anchor="middle" x="186.157" y="-277" font-family="Helvetica,sans-Serif" font-size="10.00"> param_list</text>
</g>
<!-- Node9 -->
<g id="node9" class="node"><title>Node9</title>
<g id="a_node9"><a xlink:href="a00025.html" target="_top" xlink:title="_csremote_proc">
<polygon fill="white" stroke="black" points="84.657,-179 84.657,-198 177.657,-198 177.657,-179 84.657,-179"/>
<text text-anchor="middle" x="131.157" y="-186" font-family="Helvetica,sans-Serif" font-size="10.00">_csremote_proc</text>
</a>
</g>
</g>
<!-- Node6&#45;&gt;Node9 -->
<g id="edge15" class="edge"><title>Node6&#45;&gt;Node9</title>
<path fill="none" stroke="#9a32cd" stroke-dasharray="5,2" d="M94.622,-293.366C93.991,-287.161 93.883,-280.241 95.157,-274 101.153,-244.627 117.758,-212.824 126.155,-198.001"/>
<polygon fill="#9a32cd" stroke="#9a32cd" points="91.1921,-294.095 96.1369,-303.465 98.1146,-293.056 91.1921,-294.095"/>
<text text-anchor="middle" x="121.157" y="-277" font-family="Helvetica,sans-Serif" font-size="10.00"> param_list</text>
</g>
<!-- Node7&#45;&gt;Node1 -->
<g id="edge34" class="edge"><title>Node7&#45;&gt;Node1</title>
<path fill="none" stroke="#9a32cd" stroke-dasharray="5,2" d="M188.444,-222.232C193.292,-216.864 198.578,-210.785 203.157,-205 214.252,-190.982 210.787,-181.131 226.157,-172 257.488,-153.387 353.052,-158.944 389.157,-154 392.225,-153.58 395.385,-153.124 398.566,-152.648"/>
<polygon fill="#9a32cd" stroke="#9a32cd" points="185.55,-220.208 181.353,-229.936 190.7,-224.949 185.55,-220.208"/>
<text text-anchor="middle" x="243.157" y="-186" font-family="Helvetica,sans-Serif" font-size="10.00"> dynlist</text>
</g>
<!-- Node7&#45;&gt;Node3 -->
<g id="edge8" class="edge"><title>Node7&#45;&gt;Node3</title>
<path fill="none" stroke="#9a32cd" stroke-dasharray="5,2" d="M180.695,-220.716C186.817,-206.984 196.066,-187.734 206.157,-172 227.797,-138.26 259.452,-102.541 274.131,-86.5771"/>
<polygon fill="#9a32cd" stroke="#9a32cd" points="177.439,-219.426 176.661,-229.992 183.859,-222.218 177.439,-219.426"/>
<text text-anchor="middle" x="243.657" y="-141.5" font-family="Helvetica,sans-Serif" font-size="10.00"> dyn</text>
</g>
<!-- Node7&#45;&gt;Node7 -->
<g id="edge10" class="edge"><title>Node7&#45;&gt;Node7</title>
<path fill="none" stroke="#9a32cd" stroke-dasharray="5,2" d="M222.432,-245.558C227.162,-244.327 230.157,-242.308 230.157,-239.5 230.157,-235.008 222.489,-232.534 212.319,-232.077"/>
<polygon fill="#9a32cd" stroke="#9a32cd" points="221.761,-242.117 212.319,-246.923 222.697,-249.054 221.761,-242.117"/>
<text text-anchor="middle" x="242.157" y="-237" font-family="Helvetica,sans-Serif" font-size="10.00"> next</text>
</g>
<!-- Node8 -->
<g id="node8" class="node"><title>Node8</title>
<g id="a_node8"><a xlink:href="a00110.html" target="_top" xlink:title="Holds informations about a cursor. ">
<polygon fill="white" stroke="red" points="280.157,-303.5 280.157,-322.5 346.157,-322.5 346.157,-303.5 280.157,-303.5"/>
<text text-anchor="middle" x="313.157" y="-310.5" font-family="Helvetica,sans-Serif" font-size="10.00">tds_cursor</text>
</a>
</g>
</g>
<!-- Node8&#45;&gt;Node3 -->
<g id="edge11" class="edge"><title>Node8&#45;&gt;Node3</title>
<path fill="none" stroke="#9a32cd" stroke-dasharray="5,2" d="M310.677,-293.277C304.37,-245.67 287.898,-121.334 283.341,-86.9339"/>
<polygon fill="#9a32cd" stroke="#9a32cd" points="307.234,-293.941 312.017,-303.394 314.173,-293.021 307.234,-293.941"/>
<text text-anchor="middle" x="315.657" y="-186" font-family="Helvetica,sans-Serif" font-size="10.00"> cursor</text>
</g>
<!-- Node8&#45;&gt;Node8 -->
<g id="edge12" class="edge"><title>Node8&#45;&gt;Node8</title>
<path fill="none" stroke="#9a32cd" stroke-dasharray="5,2" d="M356.804,-317.946C361.29,-316.972 364.157,-315.323 364.157,-313 364.157,-309.188 356.435,-307.192 346.511,-307.013"/>
<polygon fill="#9a32cd" stroke="#9a32cd" points="356.108,-314.498 346.511,-318.987 356.813,-321.463 356.108,-314.498"/>
<text text-anchor="middle" x="376.157" y="-310.5" font-family="Helvetica,sans-Serif" font-size="10.00"> next</text>
</g>
<!-- Node10 -->
<g id="node10" class="node"><title>Node10</title>
<g id="a_node10"><a xlink:href="a00148.html" target="_top" xlink:title="Information for a server connection. ">
<polygon fill="white" stroke="red" points="412.157,-230 412.157,-249 480.157,-249 480.157,-230 412.157,-230"/>
<text text-anchor="middle" x="446.157" y="-237" font-family="Helvetica,sans-Serif" font-size="10.00">tds_socket</text>
</a>
</g>
</g>
<!-- Node8&#45;&gt;Node10 -->
<g id="edge19" class="edge"><title>Node8&#45;&gt;Node10</title>
<path fill="none" stroke="#9a32cd" stroke-dasharray="5,2" d="M338.037,-298.625C364.978,-284.142 407.158,-261.466 430.057,-249.155"/>
<polygon fill="#9a32cd" stroke="#9a32cd" points="336.351,-295.558 329.2,-303.375 339.665,-301.723 336.351,-295.558"/>
<text text-anchor="middle" x="410.657" y="-277" font-family="Helvetica,sans-Serif" font-size="10.00"> cur_cursor</text>
</g>
<!-- Node9&#45;&gt;Node3 -->
<g id="edge14" class="edge"><title>Node9&#45;&gt;Node3</title>
<path fill="none" stroke="#9a32cd" stroke-dasharray="5,2" d="M135.853,-169.051C141.965,-149.311 154.741,-118.958 178.157,-105 196.744,-93.9202 219.84,-87.3378 239.542,-83.4519"/>
<polygon fill="#9a32cd" stroke="#9a32cd" points="132.463,-168.18 133.119,-178.755 139.2,-170.079 132.463,-168.18"/>
<text text-anchor="middle" x="160.657" y="-141.5" font-family="Helvetica,sans-Serif" font-size="10.00"> rpc</text>
</g>
<!-- Node10&#45;&gt;Node1 -->
<g id="edge17" class="edge"><title>Node10&#45;&gt;Node1</title>
<path fill="none" stroke="#9a32cd" stroke-dasharray="5,2" d="M445.756,-219.743C445.325,-199.623 444.661,-168.552 444.341,-153.608"/>
<polygon fill="#9a32cd" stroke="#9a32cd" points="442.259,-219.949 445.972,-229.871 449.258,-219.799 442.259,-219.949"/>
<text text-anchor="middle" x="473.657" y="-186" font-family="Helvetica,sans-Serif" font-size="10.00"> tds_socket</text>
</g>
<!-- Node11 -->
<g id="node11" class="node"><title>Node11</title>
<g id="a_node11"><a xlink:href="a00129.html" target="_top" xlink:title="tds_login">
<polygon fill="white" stroke="red" points="426.657,-303.5 426.657,-322.5 485.657,-322.5 485.657,-303.5 426.657,-303.5"/>
<text text-anchor="middle" x="456.157" y="-310.5" font-family="Helvetica,sans-Serif" font-size="10.00">tds_login</text>
</a>
</g>
</g>
<!-- Node11&#45;&gt;Node1 -->
<g id="edge20" class="edge"><title>Node11&#45;&gt;Node1</title>
<path fill="none" stroke="#9a32cd" stroke-dasharray="5,2" d="M474.812,-296.164C477.97,-292.755 480.939,-288.972 483.157,-285 507.987,-240.536 529.534,-214.943 502.157,-172 496.724,-163.477 487.824,-157.602 478.609,-153.569"/>
<polygon fill="#9a32cd" stroke="#9a32cd" points="472.127,-293.891 467.364,-303.355 476.989,-298.927 472.127,-293.891"/>
<text text-anchor="middle" x="537.157" y="-237" font-family="Helvetica,sans-Serif" font-size="10.00"> tds_login</text>
</g>
<!-- Node11&#45;&gt;Node10 -->
<g id="edge18" class="edge"><title>Node11&#45;&gt;Node10</title>
<path fill="none" stroke="#9a32cd" stroke-dasharray="5,2" d="M453.513,-293.094C451.532,-278.933 448.913,-260.202 447.393,-249.339"/>
<polygon fill="#9a32cd" stroke="#9a32cd" points="450.079,-293.814 454.931,-303.233 457.012,-292.844 450.079,-293.814"/>
<text text-anchor="middle" x="466.157" y="-277" font-family="Helvetica,sans-Serif" font-size="10.00"> login</text>
</g>
<!-- Node12 -->
<g id="node12" class="node"><title>Node12</title>
<g id="a_node12"><a xlink:href="a00008.html" target="_top" xlink:title="_cs_context">
<polygon fill="white" stroke="black" points="619.157,-230 619.157,-249 693.157,-249 693.157,-230 619.157,-230"/>
<text text-anchor="middle" x="656.157" y="-237" font-family="Helvetica,sans-Serif" font-size="10.00">_cs_context</text>
</a>
</g>
</g>
<!-- Node12&#45;&gt;Node1 -->
<g id="edge21" class="edge"><title>Node12&#45;&gt;Node1</title>
<path fill="none" stroke="#9a32cd" stroke-dasharray="5,2" d="M633.158,-224.731C608.356,-210.273 567.407,-187.526 530.157,-172 512.679,-164.715 492.511,-158.285 476.099,-153.529"/>
<polygon fill="#9a32cd" stroke="#9a32cd" points="631.438,-227.779 641.832,-229.833 634.987,-221.746 631.438,-227.779"/>
<text text-anchor="middle" x="633.657" y="-197" font-family="Helvetica,sans-Serif" font-size="10.00"> ctx</text>
<text text-anchor="middle" x="633.657" y="-186" font-family="Helvetica,sans-Serif" font-size="10.00">_clientmsg_cb</text>
<text text-anchor="middle" x="633.657" y="-175" font-family="Helvetica,sans-Serif" font-size="10.00">_servermsg_cb</text>
</g>
<!-- Node12&#45;&gt;Node12 -->
<g id="edge27" class="edge"><title>Node12&#45;&gt;Node12</title>
<path fill="none" stroke="#9a32cd" stroke-dasharray="5,2" d="M703.343,-245.653C708.114,-244.432 711.157,-242.381 711.157,-239.5 711.157,-234.891 703.367,-232.406 693.172,-232.046"/>
<polygon fill="#9a32cd" stroke="#9a32cd" points="702.647,-242.213 693.172,-246.954 703.536,-249.157 702.647,-242.213"/>
<text text-anchor="middle" x="747.657" y="-248" font-family="Helvetica,sans-Serif" font-size="10.00"> _clientmsg_cb</text>
<text text-anchor="middle" x="747.657" y="-237" font-family="Helvetica,sans-Serif" font-size="10.00">_servermsg_cb</text>
<text text-anchor="middle" x="747.657" y="-226" font-family="Helvetica,sans-Serif" font-size="10.00">_cslibmsg_cb</text>
</g>
<!-- Node13 -->
<g id="node13" class="node"><title>Node13</title>
<g id="a_node13"><a xlink:href="a00053.html" target="_top" xlink:title="cs_diag_msg_client">
<polygon fill="white" stroke="black" points="839.157,-303.5 839.157,-322.5 949.157,-322.5 949.157,-303.5 839.157,-303.5"/>
<text text-anchor="middle" x="894.157" y="-310.5" font-family="Helvetica,sans-Serif" font-size="10.00">cs_diag_msg_client</text>
</a>
</g>
</g>
<!-- Node13&#45;&gt;Node12 -->
<g id="edge22" class="edge"><title>Node13&#45;&gt;Node12</title>
<path fill="none" stroke="#9a32cd" stroke-dasharray="5,2" d="M855.762,-300.465C807.914,-286.091 727.26,-261.861 684.597,-249.044"/>
<polygon fill="#9a32cd" stroke="#9a32cd" points="854.864,-303.85 865.449,-303.375 856.879,-297.146 854.864,-303.85"/>
<text text-anchor="middle" x="830.157" y="-277" font-family="Helvetica,sans-Serif" font-size="10.00"> clientstore</text>
</g>
<!-- Node13&#45;&gt;Node13 -->
<g id="edge23" class="edge"><title>Node13&#45;&gt;Node13</title>
<path fill="none" stroke="#9a32cd" stroke-dasharray="5,2" d="M959.158,-317.503C964.109,-316.503 967.157,-315.002 967.157,-313 967.157,-309.875 959.731,-307.971 949.23,-307.287"/>
<polygon fill="#9a32cd" stroke="#9a32cd" points="958.733,-314.029 949.23,-318.713 959.58,-320.977 958.733,-314.029"/>
<text text-anchor="middle" x="979.157" y="-310.5" font-family="Helvetica,sans-Serif" font-size="10.00"> next</text>
</g>
<!-- Node14 -->
<g id="node14" class="node"><title>Node14</title>
<g id="a_node14"><a xlink:href="a00003.html" target="_top" xlink:title="_cs_clientmsg">
<polygon fill="white" stroke="black" points="908.657,-370.5 908.657,-389.5 991.657,-389.5 991.657,-370.5 908.657,-370.5"/>
<text text-anchor="middle" x="950.157" y="-377.5" font-family="Helvetica,sans-Serif" font-size="10.00">_cs_clientmsg</text>
</a>
</g>
</g>
<!-- Node14&#45;&gt;Node13 -->
<g id="edge24" class="edge"><title>Node14&#45;&gt;Node13</title>
<path fill="none" stroke="#9a32cd" stroke-dasharray="5,2" d="M936.058,-362.635C925.106,-349.923 910.352,-332.798 901.59,-322.627"/>
<polygon fill="#9a32cd" stroke="#9a32cd" points="933.426,-364.942 942.605,-370.234 938.729,-360.373 933.426,-364.942"/>
<text text-anchor="middle" x="949.157" y="-344" font-family="Helvetica,sans-Serif" font-size="10.00"> clientmsg</text>
</g>
<!-- Node19 -->
<g id="node19" class="node"><title>Node19</title>
<g id="a_node19"><a xlink:href="a00052.html" target="_top" xlink:title="cs_diag_msg">
<polygon fill="white" stroke="black" points="1009.66,-303.5 1009.66,-322.5 1088.66,-322.5 1088.66,-303.5 1009.66,-303.5"/>
<text text-anchor="middle" x="1049.16" y="-310.5" font-family="Helvetica,sans-Serif" font-size="10.00">cs_diag_msg</text>
</a>
</g>
</g>
<!-- Node14&#45;&gt;Node19 -->
<g id="edge32" class="edge"><title>Node14&#45;&gt;Node19</title>
<path fill="none" stroke="#9a32cd" stroke-dasharray="5,2" d="M972.098,-364.595C991.682,-351.736 1019.72,-333.331 1036.02,-322.627"/>
<polygon fill="#9a32cd" stroke="#9a32cd" points="969.947,-361.82 963.509,-370.234 973.789,-367.671 969.947,-361.82"/>
<text text-anchor="middle" x="1016.66" y="-344" font-family="Helvetica,sans-Serif" font-size="10.00"> msg</text>
</g>
<!-- Node15 -->
<g id="node15" class="node"><title>Node15</title>
<g id="a_node15"><a xlink:href="a00109.html" target="_top" xlink:title="tds_context">
<polygon fill="white" stroke="red" points="503.657,-303.5 503.657,-322.5 574.657,-322.5 574.657,-303.5 503.657,-303.5"/>
<text text-anchor="middle" x="539.157" y="-310.5" font-family="Helvetica,sans-Serif" font-size="10.00">tds_context</text>
</a>
</g>
</g>
<!-- Node15&#45;&gt;Node12 -->
<g id="edge25" class="edge"><title>Node15&#45;&gt;Node12</title>
<path fill="none" stroke="#9a32cd" stroke-dasharray="5,2" d="M560.766,-297.726C571.862,-290.488 585.645,-281.637 598.157,-274 612.45,-265.276 629.015,-255.767 640.774,-249.117"/>
<polygon fill="#9a32cd" stroke="#9a32cd" points="558.609,-294.955 552.165,-303.365 562.447,-300.81 558.609,-294.955"/>
<text text-anchor="middle" x="616.657" y="-277" font-family="Helvetica,sans-Serif" font-size="10.00"> tds_ctx</text>
</g>
<!-- Node16 -->
<g id="node16" class="node"><title>Node16</title>
<g id="a_node16"><a xlink:href="a00006.html" target="_top" xlink:title="_cs_config">
<polygon fill="white" stroke="black" points="593.157,-303.5 593.157,-322.5 661.157,-322.5 661.157,-303.5 593.157,-303.5"/>
<text text-anchor="middle" x="627.157" y="-310.5" font-family="Helvetica,sans-Serif" font-size="10.00">_cs_config</text>
</a>
</g>
</g>
<!-- Node16&#45;&gt;Node12 -->
<g id="edge26" class="edge"><title>Node16&#45;&gt;Node12</title>
<path fill="none" stroke="#9a32cd" stroke-dasharray="5,2" d="M634.486,-293.929C640.267,-279.678 648.079,-260.417 652.572,-249.339"/>
<polygon fill="#9a32cd" stroke="#9a32cd" points="631.228,-292.65 630.713,-303.233 637.715,-295.281 631.228,-292.65"/>
<text text-anchor="middle" x="659.157" y="-277" font-family="Helvetica,sans-Serif" font-size="10.00"> config</text>
</g>
<!-- Node17 -->
<g id="node17" class="node"><title>Node17</title>
<g id="a_node17"><a xlink:href="a00054.html" target="_top" xlink:title="cs_diag_msg_svr">
<polygon fill="white" stroke="black" points="679.657,-303.5 679.657,-322.5 778.657,-322.5 778.657,-303.5 679.657,-303.5"/>
<text text-anchor="middle" x="729.157" y="-310.5" font-family="Helvetica,sans-Serif" font-size="10.00">cs_diag_msg_svr</text>
</a>
</g>
</g>
<!-- Node17&#45;&gt;Node12 -->
<g id="edge28" class="edge"><title>Node17&#45;&gt;Node12</title>
<path fill="none" stroke="#9a32cd" stroke-dasharray="5,2" d="M712.789,-295.968C698.086,-281.567 677.041,-260.955 665.181,-249.339"/>
<polygon fill="#9a32cd" stroke="#9a32cd" points="710.613,-298.736 720.206,-303.233 715.511,-293.735 710.613,-298.736"/>
<text text-anchor="middle" x="723.157" y="-277" font-family="Helvetica,sans-Serif" font-size="10.00"> svrstore</text>
</g>
<!-- Node17&#45;&gt;Node17 -->
<g id="edge29" class="edge"><title>Node17&#45;&gt;Node17</title>
<path fill="none" stroke="#9a32cd" stroke-dasharray="5,2" d="M789.059,-317.547C793.756,-316.547 796.657,-315.031 796.657,-313 796.657,-309.75 789.23,-307.82 778.902,-307.211"/>
<polygon fill="#9a32cd" stroke="#9a32cd" points="788.403,-314.1 778.902,-318.789 789.253,-321.049 788.403,-314.1"/>
<text text-anchor="middle" x="808.657" y="-310.5" font-family="Helvetica,sans-Serif" font-size="10.00"> next</text>
</g>
<!-- Node18 -->
<g id="node18" class="node"><title>Node18</title>
<g id="a_node18"><a xlink:href="a00022.html" target="_top" xlink:title="_cs_servermsg">
<polygon fill="white" stroke="black" points="684.657,-370.5 684.657,-389.5 773.657,-389.5 773.657,-370.5 684.657,-370.5"/>
<text text-anchor="middle" x="729.157" y="-377.5" font-family="Helvetica,sans-Serif" font-size="10.00">_cs_servermsg</text>
</a>
</g>
</g>
<!-- Node18&#45;&gt;Node17 -->
<g id="edge30" class="edge"><title>Node18&#45;&gt;Node17</title>
<path fill="none" stroke="#9a32cd" stroke-dasharray="5,2" d="M729.157,-360.037C729.157,-347.67 729.157,-332.12 729.157,-322.627"/>
<polygon fill="#9a32cd" stroke="#9a32cd" points="725.657,-360.234 729.157,-370.234 732.657,-360.234 725.657,-360.234"/>
<text text-anchor="middle" x="755.657" y="-344" font-family="Helvetica,sans-Serif" font-size="10.00"> servermsg</text>
</g>
<!-- Node19&#45;&gt;Node12 -->
<g id="edge31" class="edge"><title>Node19&#45;&gt;Node12</title>
<path fill="none" stroke="#9a32cd" stroke-dasharray="5,2" d="M999.604,-301.535C961.534,-293.616 907.609,-282.664 860.157,-274 802.076,-263.396 734.405,-252.587 693.451,-246.216"/>
<polygon fill="#9a32cd" stroke="#9a32cd" points="998.911,-304.965 1009.41,-303.581 1000.34,-298.113 998.911,-304.965"/>
<text text-anchor="middle" x="940.657" y="-277" font-family="Helvetica,sans-Serif" font-size="10.00"> msgstore</text>
</g>
<!-- Node19&#45;&gt;Node19 -->
<g id="edge33" class="edge"><title>Node19&#45;&gt;Node19</title>
<path fill="none" stroke="#9a32cd" stroke-dasharray="5,2" d="M1098.86,-317.846C1103.64,-316.862 1106.66,-315.246 1106.66,-313 1106.66,-309.406 1098.92,-307.427 1088.66,-307.062"/>
<polygon fill="#9a32cd" stroke="#9a32cd" points="1098.23,-314.394 1088.66,-318.938 1098.98,-321.354 1098.23,-314.394"/>
<text text-anchor="middle" x="1118.66" y="-310.5" font-family="Helvetica,sans-Serif" font-size="10.00"> next</text>
</g>
</g>
</svg>
