<?xml version="1.0" encoding="UTF-8" standalone="no"?>
<!DOCTYPE svg PUBLIC "-//W3C//DTD SVG 1.1//EN"
 "http://www.w3.org/Graphics/SVG/1.1/DTD/svg11.dtd">
<!-- Generated by graphviz version 2.38.0 (20140413.2041)
 -->
<!-- Title: tds_process_col_fmt Pages: 1 -->
<svg width="877pt" height="516pt"
 viewBox="0.00 0.00 877.00 516.27" xmlns="http://www.w3.org/2000/svg" xmlns:xlink="http://www.w3.org/1999/xlink">
<g id="graph0" class="graph" transform="scale(1 1) rotate(0) translate(4 512.265)">
<title>tds_process_col_fmt</title>
<polygon fill="white" stroke="none" points="-4,4 -4,-512.265 873,-512.265 873,4 -4,4"/>
<!-- Node1 -->
<g id="node1" class="node"><title>Node1</title>
<polygon fill="#bfbfbf" stroke="black" points="0,-484.916 0,-503.916 114,-503.916 114,-484.916 0,-484.916"/>
<text text-anchor="middle" x="57" y="-491.916" font-family="Helvetica,sans-Serif" font-size="10.00">tds_process_col_fmt</text>
</g>
<!-- Node2 -->
<g id="node2" class="node"><title>Node2</title>
<g id="a_node2"><a xlink:href="a00359.html#ga39453d084f3f780ac4602d4abf2839f7" target="_top" xlink:title="tds_process_default_tokens() is a catch all function that is called to process tokens not known to ot...">
<polygon fill="white" stroke="black" points="150,-425.416 150,-455.416 262,-455.416 262,-425.416 150,-425.416"/>
<text text-anchor="start" x="158" y="-443.416" font-family="Helvetica,sans-Serif" font-size="10.00">tds_process_default</text>
<text text-anchor="middle" x="206" y="-432.416" font-family="Helvetica,sans-Serif" font-size="10.00">_tokens</text>
</a>
</g>
</g>
<!-- Node1&#45;&gt;Node2 -->
<g id="edge1" class="edge"><title>Node1&#45;&gt;Node2</title>
<path fill="none" stroke="midnightblue" d="M93.5608,-481.353C114.82,-473.544 141.912,-463.591 164.061,-455.455"/>
<polygon fill="midnightblue" stroke="midnightblue" points="92.1221,-478.153 83.9423,-484.886 94.5359,-484.724 92.1221,-478.153"/>
</g>
<!-- Node4 -->
<g id="node4" class="node"><title>Node4</title>
<g id="a_node4"><a xlink:href="a00359.html#gabfc9de1d1fe718818caf63a4be4035a6" target="_top" xlink:title="process all streams. ">
<polygon fill="white" stroke="black" points="434,-292.916 434,-311.916 546,-311.916 546,-292.916 434,-292.916"/>
<text text-anchor="middle" x="490" y="-299.916" font-family="Helvetica,sans-Serif" font-size="10.00">tds_process_tokens</text>
</a>
</g>
</g>
<!-- Node1&#45;&gt;Node4 -->
<g id="edge23" class="edge"><title>Node1&#45;&gt;Node4</title>
<path fill="none" stroke="midnightblue" d="M124.239,-504.353C197.3,-511.747 315.431,-512.812 398,-459.416 453.82,-423.319 479.444,-340.07 486.727,-311.918"/>
<polygon fill="midnightblue" stroke="midnightblue" points="124.556,-500.867 114.238,-503.273 123.804,-507.827 124.556,-500.867"/>
</g>
<!-- Node3 -->
<g id="node3" class="node"><title>Node3</title>
<g id="a_node3"><a xlink:href="a00359.html#ga93945b42d45ee28ae1296b35a1c1e9bb" target="_top" xlink:title="tds_process_login_tokens() is called after sending the login packet to the server. ">
<polygon fill="white" stroke="black" points="729,-444.916 729,-463.916 869,-463.916 869,-444.916 729,-444.916"/>
<text text-anchor="middle" x="799" y="-451.916" font-family="Helvetica,sans-Serif" font-size="10.00">tds_process_login_tokens</text>
</a>
</g>
</g>
<!-- Node2&#45;&gt;Node3 -->
<g id="edge2" class="edge"><title>Node2&#45;&gt;Node3</title>
<path fill="none" stroke="midnightblue" d="M268.887,-458.059C361.593,-482.006 541.795,-518.936 693,-492.416 723.743,-487.024 757.347,-473.385 778.054,-464.004"/>
<polygon fill="midnightblue" stroke="midnightblue" points="269.668,-454.646 259.107,-455.497 267.893,-461.417 269.668,-454.646"/>
</g>
<!-- Node2&#45;&gt;Node4 -->
<g id="edge3" class="edge"><title>Node2&#45;&gt;Node4</title>
<path fill="none" stroke="midnightblue" d="M246.708,-420.985C307.981,-391 423.307,-334.564 469.317,-312.048"/>
<polygon fill="midnightblue" stroke="midnightblue" points="245.159,-417.846 237.716,-425.385 248.236,-424.133 245.159,-417.846"/>
</g>
<!-- Node18 -->
<g id="node18" class="node"><title>Node18</title>
<g id="a_node18"><a xlink:href="a00359.html#ga81cdf0ed9e8d29cf1ddf66e18efc407d" target="_top" xlink:title="tds_process_msg() is called for MSG, ERR, or EED tokens and is responsible for calling the CLI&#39;s mess...">
<polygon fill="white" stroke="black" points="298,-430.916 298,-449.916 398,-449.916 398,-430.916 298,-430.916"/>
<text text-anchor="middle" x="348" y="-437.916" font-family="Helvetica,sans-Serif" font-size="10.00">tds_process_msg</text>
</a>
</g>
</g>
<!-- Node2&#45;&gt;Node18 -->
<g id="edge20" class="edge"><title>Node2&#45;&gt;Node18</title>
<path fill="none" stroke="midnightblue" d="M272.369,-433.679C280.983,-433.63 289.69,-433.718 297.967,-433.943"/>
<polygon fill="midnightblue" stroke="midnightblue" points="272.289,-430.18 262.332,-433.8 272.373,-437.18 272.289,-430.18"/>
</g>
<!-- Node5 -->
<g id="node5" class="node"><title>Node5</title>
<g id="a_node5"><a xlink:href="a00344.html#gae67546338cb9542a4902aa914f57f314" target="_top" xlink:title="_bcp_exec_out">
<polygon fill="white" stroke="red" points="593.5,-349.916 593.5,-368.916 681.5,-368.916 681.5,-349.916 593.5,-349.916"/>
<text text-anchor="middle" x="637.5" y="-356.916" font-family="Helvetica,sans-Serif" font-size="10.00">_bcp_exec_out</text>
</a>
</g>
</g>
<!-- Node4&#45;&gt;Node5 -->
<g id="edge4" class="edge"><title>Node4&#45;&gt;Node5</title>
<path fill="none" stroke="midnightblue" d="M522.585,-316.155C540.006,-323.594 562.084,-332.794 582,-340.416 590.423,-343.64 599.659,-346.945 608.096,-349.876"/>
<polygon fill="midnightblue" stroke="midnightblue" points="523.487,-312.733 512.917,-312.004 520.725,-319.165 523.487,-312.733"/>
</g>
<!-- Node6 -->
<g id="node6" class="node"><title>Node6</title>
<g id="a_node6"><a xlink:href="a00341.html#gaf1879b85e8238c015b9648d077665285" target="_top" xlink:title="_dbresults">
<polygon fill="white" stroke="red" points="605,-311.916 605,-330.916 670,-330.916 670,-311.916 605,-311.916"/>
<text text-anchor="middle" x="637.5" y="-318.916" font-family="Helvetica,sans-Serif" font-size="10.00">_dbresults</text>
</a>
</g>
</g>
<!-- Node4&#45;&gt;Node6 -->
<g id="edge5" class="edge"><title>Node4&#45;&gt;Node6</title>
<path fill="none" stroke="midnightblue" d="M556.348,-310.95C573.118,-313.14 590.418,-315.399 604.634,-317.255"/>
<polygon fill="midnightblue" stroke="midnightblue" points="556.376,-307.424 546.007,-309.599 555.47,-314.365 556.376,-307.424"/>
</g>
<!-- Node7 -->
<g id="node7" class="node"><title>Node7</title>
<g id="a_node7"><a xlink:href="a00342.html#gaff09873008411a0573f6d1a9e6c7cf4b" target="_top" xlink:title="Get count of output parameters filled by a stored procedure. ">
<polygon fill="white" stroke="red" points="605,-273.916 605,-292.916 670,-292.916 670,-273.916 605,-273.916"/>
<text text-anchor="middle" x="637.5" y="-280.916" font-family="Helvetica,sans-Serif" font-size="10.00">dbnumrets</text>
</a>
</g>
</g>
<!-- Node4&#45;&gt;Node7 -->
<g id="edge6" class="edge"><title>Node4&#45;&gt;Node7</title>
<path fill="none" stroke="midnightblue" d="M556.348,-293.883C573.118,-291.693 590.418,-289.434 604.634,-287.577"/>
<polygon fill="midnightblue" stroke="midnightblue" points="555.47,-290.468 546.007,-295.233 556.376,-297.409 555.47,-290.468"/>
</g>
<!-- Node8 -->
<g id="node8" class="node"><title>Node8</title>
<g id="a_node8"><a xlink:href="a00341.html#gae1f50a6a2c31fda57cb481922b06841e" target="_top" xlink:title="Wait for results of a query from the server. ">
<polygon fill="white" stroke="red" points="611,-235.916 611,-254.916 664,-254.916 664,-235.916 611,-235.916"/>
<text text-anchor="middle" x="637.5" y="-242.916" font-family="Helvetica,sans-Serif" font-size="10.00">dbsqlok</text>
</a>
</g>
</g>
<!-- Node4&#45;&gt;Node8 -->
<g id="edge7" class="edge"><title>Node4&#45;&gt;Node8</title>
<path fill="none" stroke="midnightblue" d="M522.585,-288.678C540.006,-281.239 562.084,-272.038 582,-264.416 591.358,-260.835 601.722,-257.152 610.877,-253.994"/>
<polygon fill="midnightblue" stroke="midnightblue" points="520.725,-285.667 512.917,-292.829 523.487,-292.099 520.725,-285.667"/>
</g>
<!-- Node9 -->
<g id="node9" class="node"><title>Node9</title>
<g id="a_node9"><a xlink:href="a00341.html#ga548153eb2eae76c48aa9d4b72258dc1c" target="_top" xlink:title="Send text or image data to the server. ">
<polygon fill="white" stroke="black" points="765,-216.916 765,-235.916 833,-235.916 833,-216.916 765,-216.916"/>
<text text-anchor="middle" x="799" y="-223.916" font-family="Helvetica,sans-Serif" font-size="10.00">dbwritetext</text>
</a>
</g>
</g>
<!-- Node4&#45;&gt;Node9 -->
<g id="edge10" class="edge"><title>Node4&#45;&gt;Node9</title>
<path fill="none" stroke="midnightblue" d="M505.031,-285.037C521.279,-266.437 549.949,-238.04 582,-226.416 643.517,-204.106 721.53,-212.211 764.967,-219.633"/>
<polygon fill="midnightblue" stroke="midnightblue" points="502.254,-282.901 498.473,-292.798 507.6,-287.419 502.254,-282.901"/>
</g>
<!-- Node10 -->
<g id="node10" class="node"><title>Node10</title>
<g id="a_node10"><a xlink:href="a00341.html#ga559e24ba70d0d96c3469eb6ab8f74e05" target="_top" xlink:title="Cancel the query currently being retrieved, discarding all pending rows. ">
<polygon fill="white" stroke="red" points="602,-159.916 602,-178.916 673,-178.916 673,-159.916 602,-159.916"/>
<text text-anchor="middle" x="637.5" y="-166.916" font-family="Helvetica,sans-Serif" font-size="10.00">dbcanquery</text>
</a>
</g>
</g>
<!-- Node4&#45;&gt;Node10 -->
<g id="edge9" class="edge"><title>Node4&#45;&gt;Node10</title>
<path fill="none" stroke="midnightblue" d="M502.472,-283.977C517.994,-260.303 547.719,-219.207 582,-193.416 589.849,-187.512 599.377,-182.684 608.258,-178.948"/>
<polygon fill="midnightblue" stroke="midnightblue" points="499.34,-282.377 496.89,-292.685 505.233,-286.155 499.34,-282.377"/>
</g>
<!-- Node11 -->
<g id="node11" class="node"><title>Node11</title>
<g id="a_node11"><a xlink:href="a00341.html#gadd5685565c8c6c86079e17b8a73b324c" target="_top" xlink:title="Fetch part of a text or image value from the server. ">
<polygon fill="white" stroke="black" points="604,-121.916 604,-140.916 671,-140.916 671,-121.916 604,-121.916"/>
<text text-anchor="middle" x="637.5" y="-128.916" font-family="Helvetica,sans-Serif" font-size="10.00">dbreadtext</text>
</a>
</g>
</g>
<!-- Node4&#45;&gt;Node11 -->
<g id="edge11" class="edge"><title>Node4&#45;&gt;Node11</title>
<path fill="none" stroke="midnightblue" d="M497.573,-283.092C509.44,-251.012 537.431,-186.709 582,-150.416 588.294,-145.291 596.061,-141.507 603.739,-138.729"/>
<polygon fill="midnightblue" stroke="midnightblue" points="494.227,-282.055 494.166,-292.649 500.821,-284.405 494.227,-282.055"/>
</g>
<!-- Node12 -->
<g id="node12" class="node"><title>Node12</title>
<g id="a_node12"><a xlink:href="a00341.html#gac980139b9cea03cf93e373d425991481" target="_top" xlink:title="Transmit the command buffer to the server. ">
<polygon fill="white" stroke="red" points="605,-83.9163 605,-102.916 670,-102.916 670,-83.9163 605,-83.9163"/>
<text text-anchor="middle" x="637.5" y="-90.9163" font-family="Helvetica,sans-Serif" font-size="10.00">dbsqlsend</text>
</a>
</g>
</g>
<!-- Node4&#45;&gt;Node12 -->
<g id="edge12" class="edge"><title>Node4&#45;&gt;Node12</title>
<path fill="none" stroke="midnightblue" d="M495.141,-282.624C504.161,-244.324 529.154,-159.689 582,-112.416 588.423,-106.671 596.681,-102.641 604.816,-99.8235"/>
<polygon fill="midnightblue" stroke="midnightblue" points="491.692,-282.009 492.925,-292.532 498.523,-283.536 491.692,-282.009"/>
</g>
<!-- Node13 -->
<g id="node13" class="node"><title>Node13</title>
<g id="a_node13"><a xlink:href="a00356.html#gaf0da49585d39e99780a004ee2ca23479" target="_top" xlink:title="Send option commands to server. ">
<polygon fill="white" stroke="black" points="738.5,-17.9163 738.5,-36.9163 859.5,-36.9163 859.5,-17.9163 738.5,-17.9163"/>
<text text-anchor="middle" x="799" y="-24.9163" font-family="Helvetica,sans-Serif" font-size="10.00">tds_submit_optioncmd</text>
</a>
</g>
</g>
<!-- Node4&#45;&gt;Node13 -->
<g id="edge13" class="edge"><title>Node4&#45;&gt;Node13</title>
<path fill="none" stroke="midnightblue" d="M490.373,-282.763C489.9,-230.2 496.767,-86.1992 582,-24.4163 638.783,16.7441 727.864,-3.82903 771.759,-17.9094"/>
<polygon fill="midnightblue" stroke="midnightblue" points="486.874,-282.857 490.567,-292.787 493.872,-282.721 486.874,-282.857"/>
</g>
<!-- Node14 -->
<g id="node14" class="node"><title>Node14</title>
<g id="a_node14"><a xlink:href="a00193.html#ac6610c72bd31bad5378f760fa9b12d66" target="_top" xlink:title="Initialize BCP information. ">
<polygon fill="white" stroke="red" points="601,-463.916 601,-482.916 674,-482.916 674,-463.916 601,-463.916"/>
<text text-anchor="middle" x="637.5" y="-470.916" font-family="Helvetica,sans-Serif" font-size="10.00">tds_bcp_init</text>
</a>
</g>
</g>
<!-- Node4&#45;&gt;Node14 -->
<g id="edge14" class="edge"><title>Node4&#45;&gt;Node14</title>
<path fill="none" stroke="midnightblue" d="M497.573,-321.74C509.44,-353.821 537.431,-418.124 582,-454.416 587.517,-458.909 594.166,-462.37 600.894,-465.028"/>
<polygon fill="midnightblue" stroke="midnightblue" points="500.821,-320.427 494.166,-312.183 494.227,-322.778 500.821,-320.427"/>
</g>
<!-- Node15 -->
<g id="node15" class="node"><title>Node15</title>
<g id="a_node15"><a xlink:href="a00359.html#ga55f27c3e05d42c9b07ace1c74b11c5ab" target="_top" xlink:title="Retrieve and set @spid. ">
<polygon fill="white" stroke="black" points="599,-387.916 599,-406.916 676,-406.916 676,-387.916 599,-387.916"/>
<text text-anchor="middle" x="637.5" y="-394.916" font-family="Helvetica,sans-Serif" font-size="10.00">tds_set_spid</text>
</a>
</g>
</g>
<!-- Node4&#45;&gt;Node15 -->
<g id="edge15" class="edge"><title>Node4&#45;&gt;Node15</title>
<path fill="none" stroke="midnightblue" d="M507.288,-319.202C524.504,-336.133 553.116,-362.045 582,-378.416 588.538,-382.122 595.923,-385.287 603.097,-387.91"/>
<polygon fill="midnightblue" stroke="midnightblue" points="509.762,-316.726 500.22,-312.121 504.808,-321.671 509.762,-316.726"/>
</g>
<!-- Node16 -->
<g id="node16" class="node"><title>Node16</title>
<g id="a_node16"><a xlink:href="a00359.html#gaeeb1562044786ea17bea361ed83e6946" target="_top" xlink:title="Process results for simple query as &quot;SET TEXTSIZE&quot; or &quot;USE dbname&quot; If the statement returns results...">
<polygon fill="white" stroke="red" points="582.5,-34.4163 582.5,-64.4163 692.5,-64.4163 692.5,-34.4163 582.5,-34.4163"/>
<text text-anchor="start" x="590.5" y="-52.4163" font-family="Helvetica,sans-Serif" font-size="10.00">tds_process_simple</text>
<text text-anchor="middle" x="637.5" y="-41.4163" font-family="Helvetica,sans-Serif" font-size="10.00">_query</text>
</a>
</g>
</g>
<!-- Node4&#45;&gt;Node16 -->
<g id="edge17" class="edge"><title>Node4&#45;&gt;Node16</title>
<path fill="none" stroke="midnightblue" d="M493.812,-282.81C500.941,-239.766 523.498,-135.94 582,-74.4163 585.658,-70.569 590.022,-67.2624 594.665,-64.4338"/>
<polygon fill="midnightblue" stroke="midnightblue" points="490.333,-282.401 492.255,-292.82 497.25,-283.477 490.333,-282.401"/>
</g>
<!-- Node17 -->
<g id="node17" class="node"><title>Node17</title>
<g id="a_node17"><a xlink:href="a00359.html#gaf233e79967f82f4e0dd4d11524917a34" target="_top" xlink:title="tds_process_cancel">
<polygon fill="white" stroke="red" points="582,-425.916 582,-444.916 693,-444.916 693,-425.916 582,-425.916"/>
<text text-anchor="middle" x="637.5" y="-432.916" font-family="Helvetica,sans-Serif" font-size="10.00">tds_process_cancel</text>
</a>
</g>
</g>
<!-- Node4&#45;&gt;Node17 -->
<g id="edge19" class="edge"><title>Node4&#45;&gt;Node17</title>
<path fill="none" stroke="midnightblue" d="M501.309,-321.069C516.069,-346.149 545.513,-390.572 582,-416.416 587.397,-420.239 593.633,-423.353 599.918,-425.871"/>
<polygon fill="midnightblue" stroke="midnightblue" points="504.232,-319.131 496.225,-312.192 498.158,-322.609 504.232,-319.131"/>
</g>
<!-- Node8&#45;&gt;Node9 -->
<g id="edge8" class="edge"><title>Node8&#45;&gt;Node9</title>
<path fill="none" stroke="midnightblue" d="M674.371,-241.143C701.525,-237.909 738.532,-233.5 764.965,-230.351"/>
<polygon fill="midnightblue" stroke="midnightblue" points="673.642,-237.705 664.126,-242.364 674.47,-244.656 673.642,-237.705"/>
</g>
<!-- Node15&#45;&gt;Node3 -->
<g id="edge16" class="edge"><title>Node15&#45;&gt;Node3</title>
<path fill="none" stroke="midnightblue" d="M675.583,-410.279C681.416,-412.321 687.375,-414.418 693,-416.416 719.854,-425.956 750.489,-437.07 771.708,-444.804"/>
<polygon fill="midnightblue" stroke="midnightblue" points="676.563,-406.914 665.968,-406.922 674.256,-413.522 676.563,-406.914"/>
</g>
<!-- Node16&#45;&gt;Node13 -->
<g id="edge18" class="edge"><title>Node16&#45;&gt;Node13</title>
<path fill="none" stroke="midnightblue" d="M703.05,-40.5128C714.711,-38.9044 726.823,-37.2338 738.337,-35.6457"/>
<polygon fill="midnightblue" stroke="midnightblue" points="702.373,-37.073 692.945,-41.9067 703.329,-44.0074 702.373,-37.073"/>
</g>
<!-- Node18&#45;&gt;Node2 -->
<g id="edge21" class="edge"><title>Node18&#45;&gt;Node2</title>
<path fill="none" stroke="midnightblue" d="M287.806,-447.094C279.36,-447.208 270.7,-447.187 262.332,-447.033"/>
<polygon fill="midnightblue" stroke="midnightblue" points="288.04,-450.59 297.967,-446.89 287.899,-443.592 288.04,-450.59"/>
</g>
<!-- Node18&#45;&gt;Node4 -->
<g id="edge22" class="edge"><title>Node18&#45;&gt;Node4</title>
<path fill="none" stroke="midnightblue" d="M366.237,-423.425C395.833,-394.252 455.403,-335.533 479.023,-312.251"/>
<polygon fill="midnightblue" stroke="midnightblue" points="363.733,-420.979 359.068,-430.492 368.647,-425.964 363.733,-420.979"/>
</g>
</g>
</svg>
