<?xml version="1.0" encoding="UTF-8" standalone="no"?>
<!DOCTYPE svg PUBLIC "-//W3C//DTD SVG 1.1//EN"
 "http://www.w3.org/Graphics/SVG/1.1/DTD/svg11.dtd">
<!-- Generated by graphviz version 2.38.0 (20140413.2041)
 -->
<!-- Title: dbsetversion Pages: 1 -->
<svg width="291pt" height="47pt"
 viewBox="0.00 0.00 291.00 47.00" xmlns="http://www.w3.org/2000/svg" xmlns:xlink="http://www.w3.org/1999/xlink">
<g id="graph0" class="graph" transform="scale(1 1) rotate(0) translate(4 43)">
<title>dbsetversion</title>
<polygon fill="white" stroke="none" points="-4,4 -4,-43 287,-43 287,4 -4,4"/>
<!-- Node1 -->
<g id="node1" class="node"><title>Node1</title>
<polygon fill="#bfbfbf" stroke="black" points="0,-19.5 0,-38.5 77,-38.5 77,-19.5 0,-19.5"/>
<text text-anchor="middle" x="38.5" y="-26.5" font-family="Helvetica,sans-Serif" font-size="10.00">dbsetversion</text>
</g>
<!-- Node2 -->
<g id="node2" class="node"><title>Node2</title>
<g id="a_node2"><a xlink:href="a00193.html#ab45c291105027e69836002e1dd586141" target="_top" xlink:title="Write a message to the debug log. ">
<polygon fill="white" stroke="black" points="206,-19.5 206,-38.5 283,-38.5 283,-19.5 206,-19.5"/>
<text text-anchor="middle" x="244.5" y="-26.5" font-family="Helvetica,sans-Serif" font-size="10.00">tdsdump_log</text>
</a>
</g>
</g>
<!-- Node1&#45;&gt;Node2 -->
<g id="edge1" class="edge"><title>Node1&#45;&gt;Node2</title>
<path fill="none" stroke="midnightblue" d="M77.3927,-29C110.742,-29 159.468,-29 195.528,-29"/>
<polygon fill="midnightblue" stroke="midnightblue" points="195.81,-32.5001 205.81,-29 195.81,-25.5001 195.81,-32.5001"/>
</g>
<!-- Node3 -->
<g id="node3" class="node"><title>Node3</title>
<g id="a_node3"><a xlink:href="a00347.html#ga302a4ce6559b81808e3be51615cd1b67" target="_top" xlink:title="Call client&#45;installed error handler. ">
<polygon fill="white" stroke="black" points="113,-0.5 113,-19.5 170,-19.5 170,-0.5 113,-0.5"/>
<text text-anchor="middle" x="141.5" y="-7.5" font-family="Helvetica,sans-Serif" font-size="10.00">dbperror</text>
</a>
</g>
</g>
<!-- Node1&#45;&gt;Node3 -->
<g id="edge2" class="edge"><title>Node1&#45;&gt;Node3</title>
<path fill="none" stroke="midnightblue" d="M77.1087,-21.9251C85.5618,-20.3349 94.5314,-18.6476 102.981,-17.0581"/>
<polygon fill="midnightblue" stroke="midnightblue" points="103.779,-20.4694 112.96,-15.1808 102.485,-13.59 103.779,-20.4694"/>
</g>
<!-- Node3&#45;&gt;Node2 -->
<g id="edge3" class="edge"><title>Node3&#45;&gt;Node2</title>
<path fill="none" stroke="midnightblue" d="M170.099,-15.1918C178.077,-16.6926 187.022,-18.3755 195.851,-20.0363"/>
<polygon fill="midnightblue" stroke="midnightblue" points="195.237,-23.4822 205.712,-21.8913 196.531,-16.6028 195.237,-23.4822"/>
</g>
</g>
</svg>
