<?xml version="1.0" encoding="UTF-8" standalone="no"?>
<!DOCTYPE svg PUBLIC "-//W3C//DTD SVG 1.1//EN"
 "http://www.w3.org/Graphics/SVG/1.1/DTD/svg11.dtd">
<!-- Generated by graphviz version 2.38.0 (20140413.2041)
 -->
<!-- Title: tds_process_colinfo Pages: 1 -->
<svg width="650pt" height="279pt"
 viewBox="0.00 0.00 650.00 278.76" xmlns="http://www.w3.org/2000/svg" xmlns:xlink="http://www.w3.org/1999/xlink">
<g id="graph0" class="graph" transform="scale(1 1) rotate(0) translate(4 274.761)">
<title>tds_process_colinfo</title>
<polygon fill="white" stroke="none" points="-4,4 -4,-274.761 646,-274.761 646,4 -4,4"/>
<!-- Node1 -->
<g id="node1" class="node"><title>Node1</title>
<polygon fill="#bfbfbf" stroke="black" points="0,-190.5 0,-209.5 111,-209.5 111,-190.5 0,-190.5"/>
<text text-anchor="middle" x="55.5" y="-197.5" font-family="Helvetica,sans-Serif" font-size="10.00">tds_process_colinfo</text>
</g>
<!-- Node2 -->
<g id="node2" class="node"><title>Node2</title>
<g id="a_node2"><a xlink:href="a00357.html#gad38aa5b9547817854ccba1fcc7855861" target="_top" xlink:title="Get an int16 from the server. ">
<polygon fill="white" stroke="black" points="147,-190.5 147,-209.5 245,-209.5 245,-190.5 147,-190.5"/>
<text text-anchor="middle" x="196" y="-197.5" font-family="Helvetica,sans-Serif" font-size="10.00">tds_get_usmallint</text>
</a>
</g>
</g>
<!-- Node1&#45;&gt;Node2 -->
<g id="edge1" class="edge"><title>Node1&#45;&gt;Node2</title>
<path fill="none" stroke="midnightblue" d="M111.239,-200C119.625,-200 128.308,-200 136.766,-200"/>
<polygon fill="midnightblue" stroke="midnightblue" points="136.936,-203.5 146.936,-200 136.936,-196.5 136.936,-203.5"/>
</g>
<!-- Node3 -->
<g id="node3" class="node"><title>Node3</title>
<g id="a_node3"><a xlink:href="a00357.html#gae7d9c4e1a079e1d0aa0252732631e8c4" target="_top" xlink:title="Get N bytes from the buffer and return them in the already allocated space given to us...">
<polygon fill="white" stroke="black" points="426,-152.5 426,-171.5 490,-171.5 490,-152.5 426,-152.5"/>
<text text-anchor="middle" x="458" y="-159.5" font-family="Helvetica,sans-Serif" font-size="10.00">tds_get_n</text>
</a>
</g>
</g>
<!-- Node1&#45;&gt;Node3 -->
<g id="edge4" class="edge"><title>Node1&#45;&gt;Node3</title>
<path fill="none" stroke="midnightblue" d="M95.9309,-190.418C111.72,-186.923 130.135,-183.275 147,-181 242.527,-168.115 355.806,-163.96 415.462,-162.626"/>
<polygon fill="midnightblue" stroke="midnightblue" points="415.687,-166.122 425.612,-162.415 415.541,-159.124 415.687,-166.122"/>
</g>
<!-- Node5 -->
<g id="node5" class="node"><title>Node5</title>
<g id="a_node5"><a xlink:href="a00358.html#gad96366d9fa93bfc283cef1299fbe97ab" target="_top" xlink:title="copy a string from another ">
<polygon fill="white" stroke="black" points="154.5,-228.5 154.5,-247.5 237.5,-247.5 237.5,-228.5 154.5,-228.5"/>
<text text-anchor="middle" x="196" y="-235.5" font-family="Helvetica,sans-Serif" font-size="10.00">tds_dstr_copy</text>
</a>
</g>
</g>
<!-- Node1&#45;&gt;Node5 -->
<g id="edge5" class="edge"><title>Node1&#45;&gt;Node5</title>
<path fill="none" stroke="midnightblue" d="M91.4494,-209.589C109.328,-214.494 131.288,-220.52 150.378,-225.757"/>
<polygon fill="midnightblue" stroke="midnightblue" points="149.492,-229.143 160.062,-228.414 151.344,-222.393 149.492,-229.143"/>
</g>
<!-- Node7 -->
<g id="node7" class="node"><title>Node7</title>
<g id="a_node7"><a xlink:href="a00357.html#ga0cb72d3f6943795c39db1fa692be0a58" target="_top" xlink:title="Return a single byte from the input buffer. ">
<polygon fill="white" stroke="black" points="419.5,-228.5 419.5,-247.5 496.5,-247.5 496.5,-228.5 419.5,-228.5"/>
<text text-anchor="middle" x="458" y="-235.5" font-family="Helvetica,sans-Serif" font-size="10.00">tds_get_byte</text>
</a>
</g>
</g>
<!-- Node1&#45;&gt;Node7 -->
<g id="edge7" class="edge"><title>Node1&#45;&gt;Node7</title>
<path fill="none" stroke="midnightblue" d="M67.2022,-209.637C83.1917,-223.316 114.888,-247.73 147,-257 238.333,-283.365 350.893,-264.405 412.126,-250.044"/>
<polygon fill="midnightblue" stroke="midnightblue" points="413.324,-253.356 422.224,-247.608 411.682,-246.551 413.324,-253.356"/>
</g>
<!-- Node8 -->
<g id="node8" class="node"><title>Node8</title>
<g id="a_node8"><a xlink:href="a00357.html#gafae08056186b143f3ef1399307dc9be7" target="_top" xlink:title="Reads a string from wire and put in a DSTR. ">
<polygon fill="white" stroke="black" points="158,-76.5 158,-95.5 234,-95.5 234,-76.5 158,-76.5"/>
<text text-anchor="middle" x="196" y="-83.5" font-family="Helvetica,sans-Serif" font-size="10.00">tds_dstr_get</text>
</a>
</g>
</g>
<!-- Node1&#45;&gt;Node8 -->
<g id="edge9" class="edge"><title>Node1&#45;&gt;Node8</title>
<path fill="none" stroke="midnightblue" d="M68.3084,-190.28C92.1241,-170.678 146.127,-126.228 175.346,-102.177"/>
<polygon fill="midnightblue" stroke="midnightblue" points="177.725,-104.752 183.221,-95.695 173.276,-99.3478 177.725,-104.752"/>
</g>
<!-- Node2&#45;&gt;Node3 -->
<g id="edge2" class="edge"><title>Node2&#45;&gt;Node3</title>
<path fill="none" stroke="midnightblue" d="M245.14,-193.607C279.872,-188.924 327.867,-182.312 370,-176 384.853,-173.775 401.109,-171.198 415.506,-168.865"/>
<polygon fill="midnightblue" stroke="midnightblue" points="416.308,-172.281 425.616,-167.219 415.183,-165.372 416.308,-172.281"/>
</g>
<!-- Node4 -->
<g id="node4" class="node"><title>Node4</title>
<g id="a_node4"><a xlink:href="a00357.html#ga410619783bdf2bb60b0f27a5578e0e07" target="_top" xlink:title="Read in one &#39;packet&#39; from the server. ">
<polygon fill="white" stroke="red" points="546,-190.5 546,-209.5 642,-209.5 642,-190.5 546,-190.5"/>
<text text-anchor="middle" x="594" y="-197.5" font-family="Helvetica,sans-Serif" font-size="10.00">tds_read_packet</text>
</a>
</g>
</g>
<!-- Node3&#45;&gt;Node4 -->
<g id="edge3" class="edge"><title>Node3&#45;&gt;Node4</title>
<path fill="none" stroke="midnightblue" d="M490.079,-170.813C507.724,-175.817 530.087,-182.159 549.457,-187.652"/>
<polygon fill="midnightblue" stroke="midnightblue" points="548.697,-191.074 559.273,-190.436 550.607,-184.34 548.697,-191.074"/>
</g>
<!-- Node6 -->
<g id="node6" class="node"><title>Node6</title>
<g id="a_node6"><a xlink:href="a00358.html#ga656718f240d7403f986ae887d84a6ca1" target="_top" xlink:title="Set string to a given buffer of characters. ">
<polygon fill="white" stroke="black" points="281,-228.5 281,-247.5 370,-247.5 370,-228.5 281,-228.5"/>
<text text-anchor="middle" x="325.5" y="-235.5" font-family="Helvetica,sans-Serif" font-size="10.00">tds_dstr_copyn</text>
</a>
</g>
</g>
<!-- Node5&#45;&gt;Node6 -->
<g id="edge6" class="edge"><title>Node5&#45;&gt;Node6</title>
<path fill="none" stroke="midnightblue" d="M237.692,-238C248.075,-238 259.401,-238 270.342,-238"/>
<polygon fill="midnightblue" stroke="midnightblue" points="270.669,-241.5 280.669,-238 270.669,-234.5 270.669,-241.5"/>
</g>
<!-- Node7&#45;&gt;Node4 -->
<g id="edge8" class="edge"><title>Node7&#45;&gt;Node4</title>
<path fill="none" stroke="midnightblue" d="M492.814,-228.411C510.033,-223.528 531.164,-217.536 549.573,-212.315"/>
<polygon fill="midnightblue" stroke="midnightblue" points="550.531,-215.681 559.197,-209.586 548.621,-208.947 550.531,-215.681"/>
</g>
<!-- Node8&#45;&gt;Node3 -->
<g id="edge11" class="edge"><title>Node8&#45;&gt;Node3</title>
<path fill="none" stroke="midnightblue" d="M229.666,-95.5485C276.975,-109.377 364.526,-134.969 416.077,-150.038"/>
<polygon fill="midnightblue" stroke="midnightblue" points="415.305,-153.459 425.885,-152.905 417.269,-146.74 415.305,-153.459"/>
</g>
<!-- Node9 -->
<g id="node9" class="node"><title>Node9</title>
<g id="a_node9"><a xlink:href="a00358.html#ga6aa14b8b717b51afcfb65bd55143689d" target="_top" xlink:title="allocate space for length char ">
<polygon fill="white" stroke="black" points="284,-76.5 284,-95.5 367,-95.5 367,-76.5 284,-76.5"/>
<text text-anchor="middle" x="325.5" y="-83.5" font-family="Helvetica,sans-Serif" font-size="10.00">tds_dstr_alloc</text>
</a>
</g>
</g>
<!-- Node8&#45;&gt;Node9 -->
<g id="edge10" class="edge"><title>Node8&#45;&gt;Node9</title>
<path fill="none" stroke="midnightblue" d="M234.221,-86C246.517,-86 260.415,-86 273.556,-86"/>
<polygon fill="midnightblue" stroke="midnightblue" points="273.887,-89.5001 283.887,-86 273.887,-82.5001 273.887,-89.5001"/>
</g>
<!-- Node10 -->
<g id="node10" class="node"><title>Node10</title>
<g id="a_node10"><a xlink:href="a00357.html#ga90f080e6e9448feac15dee1370d66802" target="_top" xlink:title="Fetch a string from the wire. ">
<polygon fill="white" stroke="black" points="283.5,-38.5 283.5,-57.5 367.5,-57.5 367.5,-38.5 283.5,-38.5"/>
<text text-anchor="middle" x="325.5" y="-45.5" font-family="Helvetica,sans-Serif" font-size="10.00">tds_get_string</text>
</a>
</g>
</g>
<!-- Node8&#45;&gt;Node10 -->
<g id="edge12" class="edge"><title>Node8&#45;&gt;Node10</title>
<path fill="none" stroke="midnightblue" d="M229.174,-76.411C245.331,-71.5956 265.108,-65.7012 282.452,-60.532"/>
<polygon fill="midnightblue" stroke="midnightblue" points="283.753,-63.7964 292.337,-57.5859 281.754,-57.088 283.753,-63.7964"/>
</g>
<!-- Node12 -->
<g id="node12" class="node"><title>Node12</title>
<g id="a_node12"><a xlink:href="a00358.html#ga0cd7863ba7c2d2da4a193234472a3d14" target="_top" xlink:title="limit length of string, MUST be &lt;= current length ">
<polygon fill="white" stroke="black" points="281,-0.5 281,-19.5 370,-19.5 370,-0.5 281,-0.5"/>
<text text-anchor="middle" x="325.5" y="-7.5" font-family="Helvetica,sans-Serif" font-size="10.00">tds_dstr_setlen</text>
</a>
</g>
</g>
<!-- Node8&#45;&gt;Node12 -->
<g id="edge15" class="edge"><title>Node8&#45;&gt;Node12</title>
<path fill="none" stroke="midnightblue" d="M209.623,-76.3449C225.662,-64.3377 254.456,-43.6392 281,-29 284.22,-27.224 287.64,-25.4898 291.091,-23.8368"/>
<polygon fill="midnightblue" stroke="midnightblue" points="292.547,-27.0196 300.186,-19.6781 289.636,-20.6535 292.547,-27.0196"/>
</g>
<!-- Node10&#45;&gt;Node3 -->
<g id="edge13" class="edge"><title>Node10&#45;&gt;Node3</title>
<path fill="none" stroke="midnightblue" d="M353.217,-57.5689C359.001,-60.2038 364.905,-63.358 370,-67 400.747,-88.9769 428.812,-123.337 444.337,-144.154"/>
<polygon fill="midnightblue" stroke="midnightblue" points="441.65,-146.409 450.374,-152.422 447.304,-142.282 441.65,-146.409"/>
</g>
<!-- Node11 -->
<g id="node11" class="node"><title>Node11</title>
<g id="a_node11"><a xlink:href="a00357.html#ga676c4dee6522815b16fdc8e448e43590" target="_top" xlink:title="For UTF&#45;8 and similar, tds_iconv() may encounter a partial sequence when the chunk boundary is not al...">
<polygon fill="white" stroke="red" points="406,-38.5 406,-57.5 510,-57.5 510,-38.5 406,-38.5"/>
<text text-anchor="middle" x="458" y="-45.5" font-family="Helvetica,sans-Serif" font-size="10.00">read_and_convert</text>
</a>
</g>
</g>
<!-- Node10&#45;&gt;Node11 -->
<g id="edge14" class="edge"><title>Node10&#45;&gt;Node11</title>
<path fill="none" stroke="midnightblue" d="M367.791,-48C376.675,-48 386.247,-48 395.707,-48"/>
<polygon fill="midnightblue" stroke="midnightblue" points="395.891,-51.5001 405.891,-48 395.891,-44.5001 395.891,-51.5001"/>
</g>
</g>
</svg>
