<?xml version="1.0" encoding="UTF-8" standalone="no"?>
<!DOCTYPE svg PUBLIC "-//W3C//DTD SVG 1.1//EN"
 "http://www.w3.org/Graphics/SVG/1.1/DTD/svg11.dtd">
<!-- Generated by graphviz version 2.38.0 (20140413.2041)
 -->
<!-- Title: tds_next_placeholder_ucs2le Pages: 1 -->
<svg width="769pt" height="173pt"
 viewBox="0.00 0.00 769.00 172.50" xmlns="http://www.w3.org/2000/svg" xmlns:xlink="http://www.w3.org/1999/xlink">
<g id="graph0" class="graph" transform="scale(1 1) rotate(0) translate(4 168.5)">
<title>tds_next_placeholder_ucs2le</title>
<polygon fill="white" stroke="none" points="-4,4 -4,-168.5 765,-168.5 765,4 -4,4"/>
<!-- Node1 -->
<g id="node1" class="node"><title>Node1</title>
<polygon fill="#bfbfbf" stroke="black" points="0,-69 0,-99 119,-99 119,-69 0,-69"/>
<text text-anchor="start" x="8" y="-87" font-family="Helvetica,sans-Serif" font-size="10.00">tds_next_placeholder</text>
<text text-anchor="middle" x="59.5" y="-76" font-family="Helvetica,sans-Serif" font-size="10.00">_ucs2le</text>
</g>
<!-- Node2 -->
<g id="node2" class="node"><title>Node2</title>
<g id="a_node2"><a xlink:href="a00356.html#ga0cd19215e9169ea299a6c9cbf5b2fb60" target="_top" xlink:title="Count number of placeholders (?) in a query. ">
<polygon fill="white" stroke="black" points="155,-69 155,-99 284,-99 284,-69 155,-69"/>
<text text-anchor="start" x="163" y="-87" font-family="Helvetica,sans-Serif" font-size="10.00">tds_count_placeholders</text>
<text text-anchor="middle" x="219.5" y="-76" font-family="Helvetica,sans-Serif" font-size="10.00">_ucs2le</text>
</a>
</g>
</g>
<!-- Node1&#45;&gt;Node2 -->
<g id="edge1" class="edge"><title>Node1&#45;&gt;Node2</title>
<path fill="none" stroke="midnightblue" d="M129.506,-84C137.929,-84 146.507,-84 154.847,-84"/>
<polygon fill="midnightblue" stroke="midnightblue" points="129.333,-80.5001 119.333,-84 129.333,-87.5001 129.333,-80.5001"/>
</g>
<!-- Node9 -->
<g id="node9" class="node"><title>Node9</title>
<g id="a_node9"><a xlink:href="a00356.html#ga6e42b4a1d1d3898229ea2fe4afc2ecec" target="_top" xlink:title="Output params types and query (required by sp_prepare/sp_executesql/sp_prepexec) ">
<polygon fill="white" stroke="black" points="320,-30.5 320,-49.5 451,-49.5 451,-30.5 320,-30.5"/>
<text text-anchor="middle" x="385.5" y="-37.5" font-family="Helvetica,sans-Serif" font-size="10.00">tds7_put_query_params</text>
</a>
</g>
</g>
<!-- Node1&#45;&gt;Node9 -->
<g id="edge16" class="edge"><title>Node1&#45;&gt;Node9</title>
<path fill="none" stroke="midnightblue" d="M120.5,-66.4344C131.88,-63.5857 143.746,-60.9389 155,-59 210.159,-49.4967 273.625,-44.7053 319.816,-42.3143"/>
<polygon fill="midnightblue" stroke="midnightblue" points="119.46,-63.088 110.653,-68.977 121.21,-69.8658 119.46,-63.088"/>
</g>
<!-- Node10 -->
<g id="node10" class="node"><title>Node10</title>
<g id="a_node10"><a xlink:href="a00356.html#gac8d5497c2d1b9fadb724111660bd03bd" target="_top" xlink:title="Return string with parameters definition, useful for TDS7+. ">
<polygon fill="white" stroke="black" points="159,-134 159,-164 280,-164 280,-134 159,-134"/>
<text text-anchor="start" x="167" y="-152" font-family="Helvetica,sans-Serif" font-size="10.00">tds7_build_param_def</text>
<text text-anchor="middle" x="219.5" y="-141" font-family="Helvetica,sans-Serif" font-size="10.00">_from_params</text>
</a>
</g>
</g>
<!-- Node1&#45;&gt;Node10 -->
<g id="edge14" class="edge"><title>Node1&#45;&gt;Node10</title>
<path fill="none" stroke="midnightblue" d="M106.403,-102.884C130.376,-112.746 159.312,-124.65 181.78,-133.894"/>
<polygon fill="midnightblue" stroke="midnightblue" points="107.725,-99.6435 97.1455,-99.0757 105.062,-106.117 107.725,-99.6435"/>
</g>
<!-- Node3 -->
<g id="node3" class="node"><title>Node3</title>
<g id="a_node3"><a xlink:href="a00356.html#ga95e0fccedc459a4404f496eec74a369a" target="_top" xlink:title="tds_submit_query_params() sends a language string to the database server for processing. ">
<polygon fill="white" stroke="black" points="487,-115.5 487,-134.5 627,-134.5 627,-115.5 487,-115.5"/>
<text text-anchor="middle" x="557" y="-122.5" font-family="Helvetica,sans-Serif" font-size="10.00">tds_submit_query_params</text>
</a>
</g>
</g>
<!-- Node2&#45;&gt;Node3 -->
<g id="edge2" class="edge"><title>Node2&#45;&gt;Node3</title>
<path fill="none" stroke="midnightblue" d="M285.592,-101.324C296.996,-103.892 308.796,-106.257 320,-108 375.812,-116.681 439.752,-120.941 486.989,-123.024"/>
<polygon fill="midnightblue" stroke="midnightblue" points="286.231,-97.8789 275.698,-99.0243 284.647,-104.697 286.231,-97.8789"/>
</g>
<!-- Node5 -->
<g id="node5" class="node"><title>Node5</title>
<g id="a_node5"><a xlink:href="a00356.html#gab775332d378c7fe083750d624441b303" target="_top" xlink:title="Return string with parameters definition, useful for TDS7+. ">
<polygon fill="white" stroke="black" points="325,-69 325,-99 446,-99 446,-69 325,-69"/>
<text text-anchor="start" x="333" y="-87" font-family="Helvetica,sans-Serif" font-size="10.00">tds7_build_param_def</text>
<text text-anchor="middle" x="385.5" y="-76" font-family="Helvetica,sans-Serif" font-size="10.00">_from_query</text>
</a>
</g>
</g>
<!-- Node2&#45;&gt;Node5 -->
<g id="edge4" class="edge"><title>Node2&#45;&gt;Node5</title>
<path fill="none" stroke="midnightblue" d="M294.462,-84C304.626,-84 314.957,-84 324.821,-84"/>
<polygon fill="midnightblue" stroke="midnightblue" points="294.376,-80.5001 284.376,-84 294.376,-87.5001 294.376,-80.5001"/>
</g>
<!-- Node2&#45;&gt;Node9 -->
<g id="edge9" class="edge"><title>Node2&#45;&gt;Node9</title>
<path fill="none" stroke="midnightblue" d="M286.172,-66.3806C307.549,-60.6453 330.47,-54.4959 348.799,-49.5783"/>
<polygon fill="midnightblue" stroke="midnightblue" points="285.232,-63.0089 276.481,-68.9808 287.046,-69.7699 285.232,-63.0089"/>
</g>
<!-- Node4 -->
<g id="node4" class="node"><title>Node4</title>
<g id="a_node4"><a xlink:href="a00356.html#ga5a29ae7f99d089dc3cea85ec6ee5f3ab" target="_top" xlink:title="tds_submit_query() sends a language string to the database server for processing. ...">
<polygon fill="white" stroke="red" points="663,-115.5 663,-134.5 761,-134.5 761,-115.5 663,-115.5"/>
<text text-anchor="middle" x="712" y="-122.5" font-family="Helvetica,sans-Serif" font-size="10.00">tds_submit_query</text>
</a>
</g>
</g>
<!-- Node3&#45;&gt;Node4 -->
<g id="edge3" class="edge"><title>Node3&#45;&gt;Node4</title>
<path fill="none" stroke="midnightblue" d="M637.507,-125C646.173,-125 654.788,-125 662.905,-125"/>
<polygon fill="midnightblue" stroke="midnightblue" points="637.337,-121.5 627.337,-125 637.337,-128.5 637.337,-121.5"/>
</g>
<!-- Node5&#45;&gt;Node3 -->
<g id="edge5" class="edge"><title>Node5&#45;&gt;Node3</title>
<path fill="none" stroke="midnightblue" d="M456.253,-100.873C476.857,-105.856 498.682,-111.135 516.646,-115.481"/>
<polygon fill="midnightblue" stroke="midnightblue" points="456.802,-97.4043 446.259,-98.4551 455.156,-104.208 456.802,-97.4043"/>
</g>
<!-- Node6 -->
<g id="node6" class="node"><title>Node6</title>
<g id="a_node6"><a xlink:href="a00356.html#ga74eb08c3a1c85be8ac9db428842c8b9d" target="_top" xlink:title="tds_submit_prepare() creates a temporary stored procedure in the server. ">
<polygon fill="white" stroke="black" points="502,-76.5 502,-95.5 612,-95.5 612,-76.5 502,-76.5"/>
<text text-anchor="middle" x="557" y="-83.5" font-family="Helvetica,sans-Serif" font-size="10.00">tds_submit_prepare</text>
</a>
</g>
</g>
<!-- Node5&#45;&gt;Node6 -->
<g id="edge6" class="edge"><title>Node5&#45;&gt;Node6</title>
<path fill="none" stroke="midnightblue" d="M456.598,-84.8271C471.714,-85.0055 487.472,-85.1914 501.868,-85.3613"/>
<polygon fill="midnightblue" stroke="midnightblue" points="456.3,-81.3235 446.259,-84.7051 456.217,-88.323 456.3,-81.3235"/>
</g>
<!-- Node7 -->
<g id="node7" class="node"><title>Node7</title>
<g id="a_node7"><a xlink:href="a00356.html#gae603aed795a4c5bb26ab159a11256996" target="_top" xlink:title="Submit a prepared query with parameters. ">
<polygon fill="white" stroke="black" points="496.5,-38.5 496.5,-57.5 617.5,-57.5 617.5,-38.5 496.5,-38.5"/>
<text text-anchor="middle" x="557" y="-45.5" font-family="Helvetica,sans-Serif" font-size="10.00">tds_submit_execdirect</text>
</a>
</g>
</g>
<!-- Node5&#45;&gt;Node7 -->
<g id="edge7" class="edge"><title>Node5&#45;&gt;Node7</title>
<path fill="none" stroke="midnightblue" d="M456.157,-69.2056C474.734,-65.26 494.311,-61.102 511.161,-57.5233"/>
<polygon fill="midnightblue" stroke="midnightblue" points="455.314,-65.8065 446.259,-71.3077 456.768,-72.6537 455.314,-65.8065"/>
</g>
<!-- Node8 -->
<g id="node8" class="node"><title>Node8</title>
<g id="a_node8"><a xlink:href="a00356.html#ga08877c101704bebe4fa57e0849dc272d" target="_top" xlink:title="tds71_submit_prepexec() creates a temporary stored procedure in the server. ">
<polygon fill="white" stroke="black" points="493,-0.5 493,-19.5 621,-19.5 621,-0.5 493,-0.5"/>
<text text-anchor="middle" x="557" y="-7.5" font-family="Helvetica,sans-Serif" font-size="10.00">tds71_submit_prepexec</text>
</a>
</g>
</g>
<!-- Node5&#45;&gt;Node8 -->
<g id="edge8" class="edge"><title>Node5&#45;&gt;Node8</title>
<path fill="none" stroke="midnightblue" d="M440.35,-64.6869C444.02,-62.8977 447.604,-60.9998 451,-59 468.946,-48.4306 468.543,-38.6494 487,-29 494.267,-25.2007 502.374,-22.0975 510.403,-19.584"/>
<polygon fill="midnightblue" stroke="midnightblue" points="438.754,-61.5679 431.113,-68.9067 441.663,-67.935 438.754,-61.5679"/>
</g>
<!-- Node9&#45;&gt;Node3 -->
<g id="edge10" class="edge"><title>Node9&#45;&gt;Node3</title>
<path fill="none" stroke="midnightblue" d="M441.641,-53.6111C444.912,-55.2153 448.062,-57.0047 451,-59 472.476,-73.586 465.492,-90.4607 487,-105 493.406,-109.331 500.757,-112.737 508.218,-115.412"/>
<polygon fill="midnightblue" stroke="midnightblue" points="442.75,-50.2788 432.179,-49.563 439.996,-56.7145 442.75,-50.2788"/>
</g>
<!-- Node9&#45;&gt;Node6 -->
<g id="edge11" class="edge"><title>Node9&#45;&gt;Node6</title>
<path fill="none" stroke="midnightblue" d="M431.567,-52.2304C459.565,-59.8289 495.027,-69.4527 520.924,-76.481"/>
<polygon fill="midnightblue" stroke="midnightblue" points="432.188,-48.7726 421.621,-49.5312 430.355,-55.5283 432.188,-48.7726"/>
</g>
<!-- Node9&#45;&gt;Node7 -->
<g id="edge12" class="edge"><title>Node9&#45;&gt;Node7</title>
<path fill="none" stroke="midnightblue" d="M461.287,-43.5298C473.023,-44.0837 485.016,-44.6497 496.351,-45.1847"/>
<polygon fill="midnightblue" stroke="midnightblue" points="461.218,-40.0227 451.064,-43.0473 460.888,-47.0149 461.218,-40.0227"/>
</g>
<!-- Node9&#45;&gt;Node8 -->
<g id="edge13" class="edge"><title>Node9&#45;&gt;Node8</title>
<path fill="none" stroke="midnightblue" d="M450.46,-28.6796C467.484,-25.6665 485.701,-22.4422 502.126,-19.5352"/>
<polygon fill="midnightblue" stroke="midnightblue" points="449.834,-25.236 440.597,-30.4253 451.054,-32.1289 449.834,-25.236"/>
</g>
<!-- Node10&#45;&gt;Node3 -->
<g id="edge15" class="edge"><title>Node10&#45;&gt;Node3</title>
<path fill="none" stroke="midnightblue" d="M290.445,-149.237C336.217,-148.81 397.275,-147.143 451,-142 468.923,-140.284 488.424,-137.41 505.702,-134.508"/>
<polygon fill="midnightblue" stroke="midnightblue" points="290.305,-145.738 280.332,-149.313 290.358,-152.737 290.305,-145.738"/>
</g>
</g>
</svg>
