<?xml version="1.0" encoding="UTF-8" standalone="no"?>
<!DOCTYPE svg PUBLIC "-//W3C//DTD SVG 1.1//EN"
 "http://www.w3.org/Graphics/SVG/1.1/DTD/svg11.dtd">
<!-- Generated by graphviz version 2.38.0 (20140413.2041)
 -->
<!-- Title: tds_submit_begin_tran Pages: 1 -->
<svg width="928pt" height="605pt"
 viewBox="0.00 0.00 928.00 604.84" xmlns="http://www.w3.org/2000/svg" xmlns:xlink="http://www.w3.org/1999/xlink">
<g id="graph0" class="graph" transform="scale(1 1) rotate(0) translate(4 600.844)">
<title>tds_submit_begin_tran</title>
<polygon fill="white" stroke="none" points="-4,4 -4,-600.844 924,-600.844 924,4 -4,4"/>
<!-- Node1 -->
<g id="node1" class="node"><title>Node1</title>
<polygon fill="#bfbfbf" stroke="black" points="0,-535.545 0,-554.545 122,-554.545 122,-535.545 0,-535.545"/>
<text text-anchor="middle" x="61" y="-542.545" font-family="Helvetica,sans-Serif" font-size="10.00">tds_submit_begin_tran</text>
</g>
<!-- Node2 -->
<g id="node2" class="node"><title>Node2</title>
<g id="a_node2"><a xlink:href="a00356.html#ga5a29ae7f99d089dc3cea85ec6ee5f3ab" target="_top" xlink:title="tds_submit_query() sends a language string to the database server for processing. ...">
<polygon fill="white" stroke="black" points="158,-383.545 158,-402.545 256,-402.545 256,-383.545 158,-383.545"/>
<text text-anchor="middle" x="207" y="-390.545" font-family="Helvetica,sans-Serif" font-size="10.00">tds_submit_query</text>
</a>
</g>
</g>
<!-- Node1&#45;&gt;Node2 -->
<g id="edge1" class="edge"><title>Node1&#45;&gt;Node2</title>
<path fill="none" stroke="midnightblue" d="M71.0078,-535.537C94.8479,-510.372 159.83,-441.78 190.095,-409.834"/>
<polygon fill="midnightblue" stroke="midnightblue" points="192.659,-412.217 196.996,-402.55 187.577,-407.402 192.659,-412.217"/>
</g>
<!-- Node4 -->
<g id="node4" class="node"><title>Node4</title>
<g id="a_node4"><a xlink:href="a00193.html#a16db200d2281f76fe46fc1cbe37ca9df" target="_top" xlink:title="Set state of TDS connection, with logging and checking. ">
<polygon fill="white" stroke="red" points="675.5,-544.545 675.5,-563.545 755.5,-563.545 755.5,-544.545 675.5,-544.545"/>
<text text-anchor="middle" x="715.5" y="-551.545" font-family="Helvetica,sans-Serif" font-size="10.00">tds_set_state</text>
</a>
</g>
</g>
<!-- Node1&#45;&gt;Node4 -->
<g id="edge28" class="edge"><title>Node1&#45;&gt;Node4</title>
<path fill="none" stroke="midnightblue" d="M103.857,-554.597C120.61,-558.087 140.139,-561.741 158,-564.045 359.616,-590.056 413.754,-611.775 615,-583.045 636.893,-579.92 660.7,-573.111 679.536,-566.876"/>
<polygon fill="midnightblue" stroke="midnightblue" points="680.833,-570.131 689.17,-563.594 678.576,-563.505 680.833,-570.131"/>
</g>
<!-- Node18 -->
<g id="node18" class="node"><title>Node18</title>
<g id="a_node18"><a xlink:href="a00356.html#gada27f4cfce925240ad33b71b63ca692d" target="_top" xlink:title="Flush query packet. ">
<polygon fill="white" stroke="red" points="477.5,-554.545 477.5,-573.545 605.5,-573.545 605.5,-554.545 477.5,-554.545"/>
<text text-anchor="middle" x="541.5" y="-561.545" font-family="Helvetica,sans-Serif" font-size="10.00">tds_query_flush_packet</text>
</a>
</g>
</g>
<!-- Node1&#45;&gt;Node18 -->
<g id="edge31" class="edge"><title>Node1&#45;&gt;Node18</title>
<path fill="none" stroke="midnightblue" d="M122.171,-547.575C134.046,-548.068 146.416,-548.577 158,-549.045 265.558,-553.395 390.137,-558.246 467.138,-561.222"/>
<polygon fill="midnightblue" stroke="midnightblue" points="467.088,-564.722 477.216,-561.611 467.359,-557.728 467.088,-564.722"/>
</g>
<!-- Node19 -->
<g id="node19" class="node"><title>Node19</title>
<g id="a_node19"><a xlink:href="a00356.html#gab543692776c2bc0afc3bd056f074080c" target="_top" xlink:title="Start query packet of a given type. ">
<polygon fill="white" stroke="black" points="317,-516.545 317,-535.545 407,-535.545 407,-516.545 317,-516.545"/>
<text text-anchor="middle" x="362" y="-523.545" font-family="Helvetica,sans-Serif" font-size="10.00">tds_start_query</text>
</a>
</g>
</g>
<!-- Node1&#45;&gt;Node19 -->
<g id="edge29" class="edge"><title>Node1&#45;&gt;Node19</title>
<path fill="none" stroke="midnightblue" d="M122.147,-541.223C176.185,-537.789 254.824,-532.792 306.914,-529.482"/>
<polygon fill="midnightblue" stroke="midnightblue" points="307.205,-532.971 316.963,-528.844 306.761,-525.985 307.205,-532.971"/>
</g>
<!-- Node3 -->
<g id="node3" class="node"><title>Node3</title>
<g id="a_node3"><a xlink:href="a00356.html#ga95e0fccedc459a4404f496eec74a369a" target="_top" xlink:title="tds_submit_query_params() sends a language string to the database server for processing. ">
<polygon fill="white" stroke="black" points="292,-307.545 292,-326.545 432,-326.545 432,-307.545 292,-307.545"/>
<text text-anchor="middle" x="362" y="-314.545" font-family="Helvetica,sans-Serif" font-size="10.00">tds_submit_query_params</text>
</a>
</g>
</g>
<!-- Node2&#45;&gt;Node3 -->
<g id="edge2" class="edge"><title>Node2&#45;&gt;Node3</title>
<path fill="none" stroke="midnightblue" d="M227.378,-383.42C253.934,-370.229 301.827,-346.439 332.482,-331.211"/>
<polygon fill="midnightblue" stroke="midnightblue" points="334.381,-334.176 341.78,-326.593 331.267,-327.907 334.381,-334.176"/>
</g>
<!-- Node3&#45;&gt;Node4 -->
<g id="edge3" class="edge"><title>Node3&#45;&gt;Node4</title>
<path fill="none" stroke="midnightblue" d="M367.081,-326.627C378.739,-352.837 414.815,-426.271 468,-464.045 523.498,-503.462 551.363,-482.879 615,-507.045 640.171,-516.604 667.785,-529.884 687.522,-539.889"/>
<polygon fill="midnightblue" stroke="midnightblue" points="686.038,-543.061 696.533,-544.508 689.231,-536.832 686.038,-543.061"/>
</g>
<!-- Node5 -->
<g id="node5" class="node"><title>Node5</title>
<g id="a_node5"><a xlink:href="a00356.html#ga6455b2991afbf7da90270787f2059d31" target="_top" xlink:title="Get position of next placeholder. ">
<polygon fill="white" stroke="red" points="656,-383.545 656,-402.545 775,-402.545 775,-383.545 656,-383.545"/>
<text text-anchor="middle" x="715.5" y="-390.545" font-family="Helvetica,sans-Serif" font-size="10.00">tds_next_placeholder</text>
</a>
</g>
</g>
<!-- Node3&#45;&gt;Node5 -->
<g id="edge4" class="edge"><title>Node3&#45;&gt;Node5</title>
<path fill="none" stroke="midnightblue" d="M403.853,-326.551C423.269,-331.026 446.814,-336.39 468,-341.045 533.142,-355.36 608.143,-371.072 658.143,-381.438"/>
<polygon fill="midnightblue" stroke="midnightblue" points="657.608,-384.901 668.11,-383.502 659.027,-378.046 657.608,-384.901"/>
</g>
<!-- Node6 -->
<g id="node6" class="node"><title>Node6</title>
<g id="a_node6"><a xlink:href="a00356.html#ga3a5d1771cacc947521c4077551f0d3a4" target="_top" xlink:title="Substitute ?&#45;style placeholders with named (@param) ones. ">
<polygon fill="white" stroke="red" points="488,-402.545 488,-421.545 595,-421.545 595,-402.545 488,-402.545"/>
<text text-anchor="middle" x="541.5" y="-409.545" font-family="Helvetica,sans-Serif" font-size="10.00">tds5_fix_dot_query</text>
</a>
</g>
</g>
<!-- Node3&#45;&gt;Node6 -->
<g id="edge5" class="edge"><title>Node3&#45;&gt;Node6</title>
<path fill="none" stroke="midnightblue" d="M374.93,-326.737C393.736,-341.628 431.865,-370.271 468,-388.045 476.653,-392.302 486.242,-396.077 495.536,-399.3"/>
<polygon fill="midnightblue" stroke="midnightblue" points="494.47,-402.634 505.063,-402.457 496.671,-395.99 494.47,-402.634"/>
</g>
<!-- Node7 -->
<g id="node7" class="node"><title>Node7</title>
<g id="a_node7"><a xlink:href="a00356.html#ga28264995cf9616661f1fa788ac0d246d" target="_top" xlink:title="Send parameters to server. ">
<polygon fill="white" stroke="red" points="495.5,-288.545 495.5,-307.545 587.5,-307.545 587.5,-288.545 495.5,-288.545"/>
<text text-anchor="middle" x="541.5" y="-295.545" font-family="Helvetica,sans-Serif" font-size="10.00">tds_put_params</text>
</a>
</g>
</g>
<!-- Node3&#45;&gt;Node7 -->
<g id="edge7" class="edge"><title>Node3&#45;&gt;Node7</title>
<path fill="none" stroke="midnightblue" d="M432.134,-309.645C449.708,-307.764 468.361,-305.767 485.148,-303.97"/>
<polygon fill="midnightblue" stroke="midnightblue" points="485.762,-307.425 495.333,-302.88 485.017,-300.464 485.762,-307.425"/>
</g>
<!-- Node8 -->
<g id="node8" class="node"><title>Node8</title>
<g id="a_node8"><a xlink:href="a00356.html#gafd74652c4722ddce4d642cc4209449d4" target="_top" xlink:title="Put data information to wire. ">
<polygon fill="white" stroke="red" points="665,-326.545 665,-345.545 766,-345.545 766,-326.545 665,-326.545"/>
<text text-anchor="middle" x="715.5" y="-333.545" font-family="Helvetica,sans-Serif" font-size="10.00">tds_put_data_info</text>
</a>
</g>
</g>
<!-- Node3&#45;&gt;Node8 -->
<g id="edge24" class="edge"><title>Node3&#45;&gt;Node8</title>
<path fill="none" stroke="midnightblue" d="M432.026,-320.776C496.853,-324.281 592.858,-329.47 654.553,-332.805"/>
<polygon fill="midnightblue" stroke="midnightblue" points="654.729,-336.32 664.904,-333.364 655.107,-329.33 654.729,-336.32"/>
</g>
<!-- Node9 -->
<g id="node9" class="node"><title>Node9</title>
<g id="a_node9"><a xlink:href="a00356.html#ga024bc5482366735070befd6f4af59f71" target="_top" xlink:title="Convert a string in an allocated buffer. ">
<polygon fill="white" stroke="red" points="816,-440.545 816,-459.545 920,-459.545 920,-440.545 816,-440.545"/>
<text text-anchor="middle" x="868" y="-447.545" font-family="Helvetica,sans-Serif" font-size="10.00">tds_convert_string</text>
</a>
</g>
</g>
<!-- Node3&#45;&gt;Node9 -->
<g id="edge15" class="edge"><title>Node3&#45;&gt;Node9</title>
<path fill="none" stroke="midnightblue" d="M368.275,-326.708C381.485,-349.79 418.512,-407.927 468,-431.045 526.198,-458.233 709.102,-456.022 805.754,-452.723"/>
<polygon fill="midnightblue" stroke="midnightblue" points="806.097,-456.214 815.966,-452.36 805.848,-449.218 806.097,-456.214"/>
</g>
<!-- Node10 -->
<g id="node10" class="node"><title>Node10</title>
<g id="a_node10"><a xlink:href="a00356.html#ga9fcc0a3932dcad530511395ef8a767fb" target="_top" xlink:title="Write data to wire. ">
<polygon fill="white" stroke="black" points="676.5,-269.545 676.5,-288.545 754.5,-288.545 754.5,-269.545 676.5,-269.545"/>
<text text-anchor="middle" x="715.5" y="-276.545" font-family="Helvetica,sans-Serif" font-size="10.00">tds_put_data</text>
</a>
</g>
</g>
<!-- Node3&#45;&gt;Node10 -->
<g id="edge25" class="edge"><title>Node3&#45;&gt;Node10</title>
<path fill="none" stroke="midnightblue" d="M382.946,-307.458C403.653,-298.077 437.257,-284.437 468,-279.045 535.883,-267.14 615.909,-270.213 665.936,-274.131"/>
<polygon fill="midnightblue" stroke="midnightblue" points="665.886,-277.639 676.141,-274.975 666.463,-270.663 665.886,-277.639"/>
</g>
<!-- Node11 -->
<g id="node11" class="node"><title>Node11</title>
<g id="a_node11"><a xlink:href="a00356.html#ga9ad2e6defce530a8778791cce0166ccd" target="_top" xlink:title="Start query packet of a given type. ">
<polygon fill="white" stroke="black" points="481.5,-516.545 481.5,-535.545 601.5,-535.545 601.5,-516.545 481.5,-516.545"/>
<text text-anchor="middle" x="541.5" y="-523.545" font-family="Helvetica,sans-Serif" font-size="10.00">tds_start_query_head</text>
</a>
</g>
</g>
<!-- Node3&#45;&gt;Node11 -->
<g id="edge11" class="edge"><title>Node3&#45;&gt;Node11</title>
<path fill="none" stroke="midnightblue" d="M365.745,-326.727C374.882,-357.212 407.188,-452.149 468,-502.045 473.045,-506.185 478.83,-509.619 484.884,-512.468"/>
<polygon fill="midnightblue" stroke="midnightblue" points="483.973,-515.879 494.551,-516.477 486.655,-509.413 483.973,-515.879"/>
</g>
<!-- Node12 -->
<g id="node12" class="node"><title>Node12</title>
<g id="a_node12"><a xlink:href="a00357.html#ga1fcaf8d488cc1390f106ce3ad0bf37b4" target="_top" xlink:title="Output a string to wire automatic translate string to unicode if needed. ">
<polygon fill="white" stroke="red" points="674,-18.5453 674,-37.5453 757,-37.5453 757,-18.5453 674,-18.5453"/>
<text text-anchor="middle" x="715.5" y="-25.5453" font-family="Helvetica,sans-Serif" font-size="10.00">tds_put_string</text>
</a>
</g>
</g>
<!-- Node3&#45;&gt;Node12 -->
<g id="edge14" class="edge"><title>Node3&#45;&gt;Node12</title>
<path fill="none" stroke="midnightblue" d="M362.924,-307.282C363.19,-264.95 370.505,-96.3535 468,-28.0453 530.102,15.4654 624.325,-1.25478 676.454,-15.6737"/>
<polygon fill="midnightblue" stroke="midnightblue" points="675.719,-19.1041 686.297,-18.5082 677.656,-12.3774 675.719,-19.1041"/>
</g>
<!-- Node13 -->
<g id="node13" class="node"><title>Node13</title>
<g id="a_node13"><a xlink:href="a00356.html#ga0cd19215e9169ea299a6c9cbf5b2fb60" target="_top" xlink:title="Count number of placeholders (?) in a query. ">
<polygon fill="white" stroke="red" points="651,-163.045 651,-193.045 780,-193.045 780,-163.045 651,-163.045"/>
<text text-anchor="start" x="659" y="-181.045" font-family="Helvetica,sans-Serif" font-size="10.00">tds_count_placeholders</text>
<text text-anchor="middle" x="715.5" y="-170.045" font-family="Helvetica,sans-Serif" font-size="10.00">_ucs2le</text>
</a>
</g>
</g>
<!-- Node3&#45;&gt;Node13 -->
<g id="edge16" class="edge"><title>Node3&#45;&gt;Node13</title>
<path fill="none" stroke="midnightblue" d="M381.716,-307.448C402.524,-296.94 437.257,-279.879 468,-267.045 532.556,-240.097 608.482,-213.415 658.836,-196.401"/>
<polygon fill="midnightblue" stroke="midnightblue" points="660.194,-199.637 668.555,-193.13 657.961,-193.003 660.194,-199.637"/>
</g>
<!-- Node14 -->
<g id="node14" class="node"><title>Node14</title>
<g id="a_node14"><a xlink:href="a00356.html#gac8d5497c2d1b9fadb724111660bd03bd" target="_top" xlink:title="Return string with parameters definition, useful for TDS7+. ">
<polygon fill="white" stroke="red" points="481,-114.045 481,-144.045 602,-144.045 602,-114.045 481,-114.045"/>
<text text-anchor="start" x="489" y="-132.045" font-family="Helvetica,sans-Serif" font-size="10.00">tds7_build_param_def</text>
<text text-anchor="middle" x="541.5" y="-121.045" font-family="Helvetica,sans-Serif" font-size="10.00">_from_params</text>
</a>
</g>
</g>
<!-- Node3&#45;&gt;Node14 -->
<g id="edge17" class="edge"><title>Node3&#45;&gt;Node14</title>
<path fill="none" stroke="midnightblue" d="M366.522,-307.282C377.196,-279.056 411.935,-196.602 468,-153.045 469.786,-151.657 471.657,-150.348 473.592,-149.113"/>
<polygon fill="midnightblue" stroke="midnightblue" points="475.421,-152.1 482.433,-144.157 471.998,-145.994 475.421,-152.1"/>
</g>
<!-- Node15 -->
<g id="node15" class="node"><title>Node15</title>
<g id="a_node15"><a xlink:href="a00356.html#gab775332d378c7fe083750d624441b303" target="_top" xlink:title="Return string with parameters definition, useful for TDS7+. ">
<polygon fill="white" stroke="red" points="481,-163.045 481,-193.045 602,-193.045 602,-163.045 481,-163.045"/>
<text text-anchor="start" x="489" y="-181.045" font-family="Helvetica,sans-Serif" font-size="10.00">tds7_build_param_def</text>
<text text-anchor="middle" x="541.5" y="-170.045" font-family="Helvetica,sans-Serif" font-size="10.00">_from_query</text>
</a>
</g>
</g>
<!-- Node3&#45;&gt;Node15 -->
<g id="edge18" class="edge"><title>Node3&#45;&gt;Node15</title>
<path fill="none" stroke="midnightblue" d="M370.107,-307.307C385.708,-286.526 425.009,-237.344 468,-208.045 473.672,-204.18 479.92,-200.673 486.298,-197.535"/>
<polygon fill="midnightblue" stroke="midnightblue" points="488.072,-200.571 495.683,-193.201 485.137,-194.216 488.072,-200.571"/>
</g>
<!-- Node16 -->
<g id="node16" class="node"><title>Node16</title>
<g id="a_node16"><a xlink:href="a00356.html#ga6e42b4a1d1d3898229ea2fe4afc2ecec" target="_top" xlink:title="Output params types and query (required by sp_prepare/sp_executesql/sp_prepexec) ">
<polygon fill="white" stroke="red" points="476,-37.5453 476,-56.5453 607,-56.5453 607,-37.5453 476,-37.5453"/>
<text text-anchor="middle" x="541.5" y="-44.5453" font-family="Helvetica,sans-Serif" font-size="10.00">tds7_put_query_params</text>
</a>
</g>
</g>
<!-- Node3&#45;&gt;Node16 -->
<g id="edge20" class="edge"><title>Node3&#45;&gt;Node16</title>
<path fill="none" stroke="midnightblue" d="M364.022,-307.341C368.491,-269.967 389.741,-134.056 468,-66.0453 469.795,-64.485 471.704,-63.0506 473.701,-61.7321"/>
<polygon fill="midnightblue" stroke="midnightblue" points="475.857,-64.5416 482.94,-56.6628 472.489,-58.4046 475.857,-64.5416"/>
</g>
<!-- Node17 -->
<g id="node17" class="node"><title>Node17</title>
<g id="a_node17"><a xlink:href="a00356.html#ga0f0b6bf447e9672e3b1ea8453ddeb113" target="_top" xlink:title="Send parameter definition to server. ">
<polygon fill="white" stroke="black" points="468,-75.5453 468,-94.5453 615,-94.5453 615,-75.5453 468,-75.5453"/>
<text text-anchor="middle" x="541.5" y="-82.5453" font-family="Helvetica,sans-Serif" font-size="10.00">tds7_put_params_definition</text>
</a>
</g>
</g>
<!-- Node3&#45;&gt;Node17 -->
<g id="edge23" class="edge"><title>Node3&#45;&gt;Node17</title>
<path fill="none" stroke="midnightblue" d="M364.836,-307.194C371.69,-273.28 399.011,-160.356 468,-104.045 470.073,-102.353 472.28,-100.811 474.588,-99.4044"/>
<polygon fill="midnightblue" stroke="midnightblue" points="476.605,-102.303 483.907,-94.6268 473.412,-96.0741 476.605,-102.303"/>
</g>
<!-- Node3&#45;&gt;Node18 -->
<g id="edge26" class="edge"><title>Node3&#45;&gt;Node18</title>
<path fill="none" stroke="midnightblue" d="M364.442,-326.59C370.246,-361.588 395.201,-484.006 468,-545.045 470.007,-546.728 472.146,-548.263 474.384,-549.664"/>
<polygon fill="midnightblue" stroke="midnightblue" points="472.961,-552.87 483.44,-554.429 476.22,-546.675 472.961,-552.87"/>
</g>
<!-- Node6&#45;&gt;Node5 -->
<g id="edge6" class="edge"><title>Node6&#45;&gt;Node5</title>
<path fill="none" stroke="midnightblue" d="M595.04,-406.241C610.994,-404.479 628.767,-402.516 645.626,-400.654"/>
<polygon fill="midnightblue" stroke="midnightblue" points="646.425,-404.087 655.98,-399.51 645.656,-397.129 646.425,-404.087"/>
</g>
<!-- Node7&#45;&gt;Node8 -->
<g id="edge8" class="edge"><title>Node7&#45;&gt;Node8</title>
<path fill="none" stroke="midnightblue" d="M585.903,-307.634C608.907,-312.717 637.351,-319.001 661.634,-324.366"/>
<polygon fill="midnightblue" stroke="midnightblue" points="660.89,-327.786 671.409,-326.525 662.4,-320.95 660.89,-327.786"/>
</g>
<!-- Node7&#45;&gt;Node10 -->
<g id="edge10" class="edge"><title>Node7&#45;&gt;Node10</title>
<path fill="none" stroke="midnightblue" d="M587.691,-293.053C611.815,-290.388 641.517,-287.107 666.109,-284.391"/>
<polygon fill="midnightblue" stroke="midnightblue" points="666.749,-287.842 676.304,-283.265 665.98,-280.884 666.749,-287.842"/>
</g>
<!-- Node8&#45;&gt;Node9 -->
<g id="edge9" class="edge"><title>Node8&#45;&gt;Node9</title>
<path fill="none" stroke="midnightblue" d="M734.283,-345.558C747.321,-352.799 765.244,-363.317 780,-374.045 805.65,-392.694 832.806,-417.301 849.821,-433.39"/>
<polygon fill="midnightblue" stroke="midnightblue" points="847.659,-436.166 857.309,-440.541 852.494,-431.103 847.659,-436.166"/>
</g>
<!-- Node11&#45;&gt;Node4 -->
<g id="edge13" class="edge"><title>Node11&#45;&gt;Node4</title>
<path fill="none" stroke="midnightblue" d="M601.212,-535.603C622.013,-538.989 645.19,-542.762 665.134,-546.009"/>
<polygon fill="midnightblue" stroke="midnightblue" points="664.807,-549.502 675.239,-547.654 665.932,-542.593 664.807,-549.502"/>
</g>
<!-- Node11&#45;&gt;Node9 -->
<g id="edge12" class="edge"><title>Node11&#45;&gt;Node9</title>
<path fill="none" stroke="midnightblue" d="M583.27,-516.497C642.488,-502.627 752.225,-476.926 816.488,-461.875"/>
<polygon fill="midnightblue" stroke="midnightblue" points="817.459,-465.243 826.397,-459.555 815.863,-458.427 817.459,-465.243"/>
</g>
<!-- Node15&#45;&gt;Node13 -->
<g id="edge19" class="edge"><title>Node15&#45;&gt;Node13</title>
<path fill="none" stroke="midnightblue" d="M602.175,-178.045C614.577,-178.045 627.788,-178.045 640.631,-178.045"/>
<polygon fill="midnightblue" stroke="midnightblue" points="640.83,-181.545 650.83,-178.045 640.83,-174.545 640.83,-181.545"/>
</g>
<!-- Node16&#45;&gt;Node12 -->
<g id="edge22" class="edge"><title>Node16&#45;&gt;Node12</title>
<path fill="none" stroke="midnightblue" d="M607.036,-39.9164C625.762,-37.8478 645.938,-35.619 663.695,-33.6575"/>
<polygon fill="midnightblue" stroke="midnightblue" points="664.286,-37.1136 673.841,-32.5367 663.518,-30.1559 664.286,-37.1136"/>
</g>
<!-- Node16&#45;&gt;Node13 -->
<g id="edge21" class="edge"><title>Node16&#45;&gt;Node13</title>
<path fill="none" stroke="midnightblue" d="M594.358,-56.6072C601.578,-59.0728 608.678,-62.1664 615,-66.0453 651.686,-88.5566 682.521,-128.766 699.739,-154.386"/>
<polygon fill="midnightblue" stroke="midnightblue" points="696.838,-156.344 705.249,-162.786 702.691,-152.505 696.838,-156.344"/>
</g>
<!-- Node18&#45;&gt;Node4 -->
<g id="edge27" class="edge"><title>Node18&#45;&gt;Node4</title>
<path fill="none" stroke="midnightblue" d="M605.57,-560.378C625.308,-559.231 646.785,-557.982 665.412,-556.899"/>
<polygon fill="midnightblue" stroke="midnightblue" points="665.657,-560.391 675.437,-556.316 665.251,-553.403 665.657,-560.391"/>
</g>
<!-- Node19&#45;&gt;Node11 -->
<g id="edge30" class="edge"><title>Node19&#45;&gt;Node11</title>
<path fill="none" stroke="midnightblue" d="M407.333,-526.045C426.658,-526.045 449.768,-526.045 471.27,-526.045"/>
<polygon fill="midnightblue" stroke="midnightblue" points="471.343,-529.545 481.343,-526.045 471.343,-522.545 471.343,-529.545"/>
</g>
</g>
</svg>
