<?xml version="1.0" encoding="UTF-8" standalone="no"?>
<!DOCTYPE svg PUBLIC "-//W3C//DTD SVG 1.1//EN"
 "http://www.w3.org/Graphics/SVG/1.1/DTD/svg11.dtd">
<!-- Generated by graphviz version 2.38.0 (20140413.2041)
 -->
<!-- Title: tds_process_result Pages: 1 -->
<svg width="962pt" height="522pt"
 viewBox="0.00 0.00 962.00 522.00" xmlns="http://www.w3.org/2000/svg" xmlns:xlink="http://www.w3.org/1999/xlink">
<g id="graph0" class="graph" transform="scale(1 1) rotate(0) translate(4 518)">
<title>tds_process_result</title>
<polygon fill="white" stroke="none" points="-4,4 -4,-518 958,-518 958,4 -4,4"/>
<!-- Node1 -->
<g id="node1" class="node"><title>Node1</title>
<polygon fill="#bfbfbf" stroke="black" points="0,-76.5 0,-95.5 106,-95.5 106,-76.5 0,-76.5"/>
<text text-anchor="middle" x="53" y="-83.5" font-family="Helvetica,sans-Serif" font-size="10.00">tds_process_result</text>
</g>
<!-- Node2 -->
<g id="node2" class="node"><title>Node2</title>
<g id="a_node2"><a xlink:href="a00357.html#gad38aa5b9547817854ccba1fcc7855861" target="_top" xlink:title="Get an int16 from the server. ">
<polygon fill="white" stroke="black" points="144,-38.5 144,-57.5 242,-57.5 242,-38.5 144,-38.5"/>
<text text-anchor="middle" x="193" y="-45.5" font-family="Helvetica,sans-Serif" font-size="10.00">tds_get_usmallint</text>
</a>
</g>
</g>
<!-- Node1&#45;&gt;Node2 -->
<g id="edge1" class="edge"><title>Node1&#45;&gt;Node2</title>
<path fill="none" stroke="midnightblue" d="M88.8232,-76.411C106.638,-71.5056 128.518,-65.4804 147.539,-60.2429"/>
<polygon fill="midnightblue" stroke="midnightblue" points="148.476,-63.6152 157.188,-57.5859 146.618,-56.8664 148.476,-63.6152"/>
</g>
<!-- Node3 -->
<g id="node3" class="node"><title>Node3</title>
<g id="a_node3"><a xlink:href="a00357.html#gae7d9c4e1a079e1d0aa0252732631e8c4" target="_top" xlink:title="Get N bytes from the buffer and return them in the already allocated space given to us...">
<polygon fill="white" stroke="black" points="645,-285.5 645,-304.5 709,-304.5 709,-285.5 645,-285.5"/>
<text text-anchor="middle" x="677" y="-292.5" font-family="Helvetica,sans-Serif" font-size="10.00">tds_get_n</text>
</a>
</g>
</g>
<!-- Node1&#45;&gt;Node3 -->
<g id="edge23" class="edge"><title>Node1&#45;&gt;Node3</title>
<path fill="none" stroke="midnightblue" d="M106.275,-80.5765C228.838,-68.9755 530.297,-47.2538 609,-105 664.302,-145.576 674.194,-235.479 675.795,-275.328"/>
<polygon fill="midnightblue" stroke="midnightblue" points="672.297,-275.46 676.06,-285.364 679.295,-275.275 672.297,-275.46"/>
</g>
<!-- Node6 -->
<g id="node6" class="node"><title>Node6</title>
<g id="a_node6"><a xlink:href="a00359.html#gad9b6b86f48be077fb44ac603845a0c27" target="_top" xlink:title="Reads data metadata from wire. ">
<polygon fill="white" stroke="black" points="142,-361.5 142,-380.5 244,-380.5 244,-361.5 142,-361.5"/>
<text text-anchor="middle" x="193" y="-368.5" font-family="Helvetica,sans-Serif" font-size="10.00">tds_get_data_info</text>
</a>
</g>
</g>
<!-- Node1&#45;&gt;Node6 -->
<g id="edge5" class="edge"><title>Node1&#45;&gt;Node6</title>
<path fill="none" stroke="midnightblue" d="M58.7503,-95.8103C78.7389,-137.091 156.211,-297.088 182.902,-352.211"/>
<polygon fill="midnightblue" stroke="midnightblue" points="179.761,-353.756 187.27,-361.231 186.062,-350.705 179.761,-353.756"/>
</g>
<!-- Node11 -->
<g id="node11" class="node"><title>Node11</title>
<g id="a_node11"><a xlink:href="a00357.html#ga0cb72d3f6943795c39db1fa692be0a58" target="_top" xlink:title="Return a single byte from the input buffer. ">
<polygon fill="white" stroke="black" points="321,-494.5 321,-513.5 398,-513.5 398,-494.5 321,-494.5"/>
<text text-anchor="middle" x="359.5" y="-501.5" font-family="Helvetica,sans-Serif" font-size="10.00">tds_get_byte</text>
</a>
</g>
</g>
<!-- Node1&#45;&gt;Node11 -->
<g id="edge24" class="edge"><title>Node1&#45;&gt;Node11</title>
<path fill="none" stroke="midnightblue" d="M54.4181,-95.7462C56.6012,-136.053 69.5806,-292.19 142,-390 183.589,-446.171 261.148,-477.229 311.262,-492.252"/>
<polygon fill="midnightblue" stroke="midnightblue" points="310.321,-495.623 320.9,-495.046 312.27,-488.9 310.321,-495.623"/>
</g>
<!-- Node18 -->
<g id="node18" class="node"><title>Node18</title>
<g id="a_node18"><a xlink:href="a00355.html#ga1224fb9277112dc2ce12531d2b73b145" target="_top" xlink:title="Allocate space for row store return NULL on out of memory. ">
<polygon fill="white" stroke="black" points="152,-0.5 152,-19.5 234,-19.5 234,-0.5 152,-0.5"/>
<text text-anchor="middle" x="193" y="-7.5" font-family="Helvetica,sans-Serif" font-size="10.00">tds_alloc_row</text>
</a>
</g>
</g>
<!-- Node1&#45;&gt;Node18 -->
<g id="edge25" class="edge"><title>Node1&#45;&gt;Node18</title>
<path fill="none" stroke="midnightblue" d="M66.8943,-76.3984C83.597,-64.2597 113.909,-43.2325 142,-29 145.975,-26.9861 150.216,-25.0596 154.485,-23.2586"/>
<polygon fill="midnightblue" stroke="midnightblue" points="155.801,-26.5019 163.779,-19.5308 153.195,-20.0049 155.801,-26.5019"/>
</g>
<!-- Node2&#45;&gt;Node3 -->
<g id="edge2" class="edge"><title>Node2&#45;&gt;Node3</title>
<path fill="none" stroke="midnightblue" d="M227.185,-38.4736C303.77,-18.6702 495.009,18.0038 609,-72 672.627,-122.238 677.683,-230.614 676.887,-275.212"/>
<polygon fill="midnightblue" stroke="midnightblue" points="673.385,-275.227 676.581,-285.328 680.382,-275.438 673.385,-275.227"/>
</g>
<!-- Node4 -->
<g id="node4" class="node"><title>Node4</title>
<g id="a_node4"><a xlink:href="a00357.html#ga410619783bdf2bb60b0f27a5578e0e07" target="_top" xlink:title="Read in one &#39;packet&#39; from the server. ">
<polygon fill="white" stroke="red" points="745,-361.5 745,-380.5 841,-380.5 841,-361.5 745,-361.5"/>
<text text-anchor="middle" x="793" y="-368.5" font-family="Helvetica,sans-Serif" font-size="10.00">tds_read_packet</text>
</a>
</g>
</g>
<!-- Node3&#45;&gt;Node4 -->
<g id="edge3" class="edge"><title>Node3&#45;&gt;Node4</title>
<path fill="none" stroke="midnightblue" d="M692.438,-304.625C711.797,-317.531 746.373,-340.582 769.25,-355.833"/>
<polygon fill="midnightblue" stroke="midnightblue" points="767.417,-358.818 777.679,-361.453 771.3,-352.993 767.417,-358.818"/>
</g>
<!-- Node5 -->
<g id="node5" class="node"><title>Node5</title>
<g id="a_node5"><a xlink:href="a00193.html#ab45c291105027e69836002e1dd586141" target="_top" xlink:title="Write a message to the debug log. ">
<polygon fill="white" stroke="black" points="877,-361.5 877,-380.5 954,-380.5 954,-361.5 877,-361.5"/>
<text text-anchor="middle" x="915.5" y="-368.5" font-family="Helvetica,sans-Serif" font-size="10.00">tdsdump_log</text>
</a>
</g>
</g>
<!-- Node4&#45;&gt;Node5 -->
<g id="edge4" class="edge"><title>Node4&#45;&gt;Node5</title>
<path fill="none" stroke="midnightblue" d="M841.279,-371C849.531,-371 858.124,-371 866.398,-371"/>
<polygon fill="midnightblue" stroke="midnightblue" points="866.659,-374.5 876.659,-371 866.658,-367.5 866.659,-374.5"/>
</g>
<!-- Node6&#45;&gt;Node3 -->
<g id="edge15" class="edge"><title>Node6&#45;&gt;Node3</title>
<path fill="none" stroke="midnightblue" d="M244.046,-379.838C300.084,-389.25 393.71,-403.528 475,-409 534.421,-413 557.308,-438.578 609,-409 644.551,-388.658 663.092,-341.297 671.064,-314.459"/>
<polygon fill="midnightblue" stroke="midnightblue" points="674.482,-315.231 673.775,-304.659 667.736,-313.365 674.482,-315.231"/>
</g>
<!-- Node6&#45;&gt;Node5 -->
<g id="edge6" class="edge"><title>Node6&#45;&gt;Node5</title>
<path fill="none" stroke="midnightblue" d="M235.622,-380.736C238.597,-382.245 241.432,-383.988 244,-386 268.781,-405.414 253.247,-430.408 280,-447 378.84,-508.302 424.693,-466 541,-466 541,-466 541,-466 678,-466 762.358,-466 852.235,-413.312 892.625,-386.412"/>
<polygon fill="midnightblue" stroke="midnightblue" points="894.83,-389.145 901.137,-380.632 890.898,-383.354 894.83,-389.145"/>
</g>
<!-- Node7 -->
<g id="node7" class="node"><title>Node7</title>
<g id="a_node7"><a xlink:href="a00357.html#gafae08056186b143f3ef1399307dc9be7" target="_top" xlink:title="Reads a string from wire and put in a DSTR. ">
<polygon fill="white" stroke="black" points="321.5,-342.5 321.5,-361.5 397.5,-361.5 397.5,-342.5 321.5,-342.5"/>
<text text-anchor="middle" x="359.5" y="-349.5" font-family="Helvetica,sans-Serif" font-size="10.00">tds_dstr_get</text>
</a>
</g>
</g>
<!-- Node6&#45;&gt;Node7 -->
<g id="edge7" class="edge"><title>Node6&#45;&gt;Node7</title>
<path fill="none" stroke="midnightblue" d="M244.249,-365.196C265.604,-362.73 290.369,-359.869 311.372,-357.443"/>
<polygon fill="midnightblue" stroke="midnightblue" points="311.817,-360.915 321.349,-356.291 311.013,-353.962 311.817,-360.915"/>
</g>
<!-- Node6&#45;&gt;Node11 -->
<g id="edge13" class="edge"><title>Node6&#45;&gt;Node11</title>
<path fill="none" stroke="midnightblue" d="M199.003,-380.778C210.401,-402.078 240.404,-452.925 280,-480 289.277,-486.343 300.288,-491.056 311.083,-494.541"/>
<polygon fill="midnightblue" stroke="midnightblue" points="310.301,-497.959 320.881,-497.407 312.267,-491.24 310.301,-497.959"/>
</g>
<!-- Node12 -->
<g id="node12" class="node"><title>Node12</title>
<g id="a_node12"><a xlink:href="a00298.html#a7d6ccf355d1fc24711b5cd5bbc23a931" target="_top" xlink:title="Set type of column initializing all dependency. ">
<polygon fill="white" stroke="black" points="301.5,-152.5 301.5,-171.5 417.5,-171.5 417.5,-152.5 301.5,-152.5"/>
<text text-anchor="middle" x="359.5" y="-159.5" font-family="Helvetica,sans-Serif" font-size="10.00">tds_set_column_type</text>
</a>
</g>
</g>
<!-- Node6&#45;&gt;Node12 -->
<g id="edge16" class="edge"><title>Node6&#45;&gt;Node12</title>
<path fill="none" stroke="midnightblue" d="M197.8,-361.202C208.064,-335.623 238.403,-265.592 280,-219 295.143,-202.039 316.145,-187.115 332.615,-176.797"/>
<polygon fill="midnightblue" stroke="midnightblue" points="334.509,-179.742 341.233,-171.555 330.871,-173.761 334.509,-179.742"/>
</g>
<!-- Node15 -->
<g id="node15" class="node"><title>Node15</title>
<g id="a_node15"><a xlink:href="a00359.html#ga0cf7e719115b0ae476753442d10505ab" target="_top" xlink:title="Returns string representation of the given type. ">
<polygon fill="white" stroke="black" points="326,-418.5 326,-437.5 393,-437.5 393,-418.5 326,-418.5"/>
<text text-anchor="middle" x="359.5" y="-425.5" font-family="Helvetica,sans-Serif" font-size="10.00">tds_prtype</text>
</a>
</g>
</g>
<!-- Node6&#45;&gt;Node15 -->
<g id="edge19" class="edge"><title>Node6&#45;&gt;Node15</title>
<path fill="none" stroke="midnightblue" d="M217.564,-380.551C234.756,-387.395 258.679,-396.66 280,-404 291.685,-408.023 304.462,-412.074 316.249,-415.673"/>
<polygon fill="midnightblue" stroke="midnightblue" points="315.287,-419.039 325.872,-418.579 317.311,-412.338 315.287,-419.039"/>
</g>
<!-- Node16 -->
<g id="node16" class="node"><title>Node16</title>
<g id="a_node16"><a xlink:href="a00359.html#ga91770634ce8c0d6f1fe007b45da186fd" target="_top" xlink:title="Adjust column size according to client&#39;s encoding. ">
<polygon fill="white" stroke="black" points="280,-228.5 280,-247.5 439,-247.5 439,-228.5 280,-228.5"/>
<text text-anchor="middle" x="359.5" y="-235.5" font-family="Helvetica,sans-Serif" font-size="10.00">adjust_character_column_size</text>
</a>
</g>
</g>
<!-- Node6&#45;&gt;Node16 -->
<g id="edge20" class="edge"><title>Node6&#45;&gt;Node16</title>
<path fill="none" stroke="midnightblue" d="M205.83,-361.435C233.675,-338.922 303.609,-282.38 338.315,-254.32"/>
<polygon fill="midnightblue" stroke="midnightblue" points="340.757,-256.846 346.333,-247.837 336.356,-251.403 340.757,-256.846"/>
</g>
<!-- Node7&#45;&gt;Node3 -->
<g id="edge9" class="edge"><title>Node7&#45;&gt;Node3</title>
<path fill="none" stroke="midnightblue" d="M397.62,-345.294C456.903,-334.583 572.565,-313.687 634.5,-302.498"/>
<polygon fill="midnightblue" stroke="midnightblue" points="635.47,-305.879 644.689,-300.657 634.226,-298.991 635.47,-305.879"/>
</g>
<!-- Node8 -->
<g id="node8" class="node"><title>Node8</title>
<g id="a_node8"><a xlink:href="a00358.html#ga6aa14b8b717b51afcfb65bd55143689d" target="_top" xlink:title="allocate space for length char ">
<polygon fill="white" stroke="black" points="500.5,-380.5 500.5,-399.5 583.5,-399.5 583.5,-380.5 500.5,-380.5"/>
<text text-anchor="middle" x="542" y="-387.5" font-family="Helvetica,sans-Serif" font-size="10.00">tds_dstr_alloc</text>
</a>
</g>
</g>
<!-- Node7&#45;&gt;Node8 -->
<g id="edge8" class="edge"><title>Node7&#45;&gt;Node8</title>
<path fill="none" stroke="midnightblue" d="M397.9,-359.874C424.595,-365.494 460.815,-373.119 490.135,-379.292"/>
<polygon fill="midnightblue" stroke="midnightblue" points="489.685,-382.773 500.192,-381.409 491.127,-375.924 489.685,-382.773"/>
</g>
<!-- Node9 -->
<g id="node9" class="node"><title>Node9</title>
<g id="a_node9"><a xlink:href="a00357.html#ga90f080e6e9448feac15dee1370d66802" target="_top" xlink:title="Fetch a string from the wire. ">
<polygon fill="white" stroke="red" points="500,-266.5 500,-285.5 584,-285.5 584,-266.5 500,-266.5"/>
<text text-anchor="middle" x="542" y="-273.5" font-family="Helvetica,sans-Serif" font-size="10.00">tds_get_string</text>
</a>
</g>
</g>
<!-- Node7&#45;&gt;Node9 -->
<g id="edge10" class="edge"><title>Node7&#45;&gt;Node9</title>
<path fill="none" stroke="midnightblue" d="M380.563,-342.316C403.263,-331.495 441.446,-313.696 475,-300 484.216,-296.238 494.266,-292.435 503.681,-288.999"/>
<polygon fill="midnightblue" stroke="midnightblue" points="504.98,-292.252 513.201,-285.569 502.607,-285.666 504.98,-292.252"/>
</g>
<!-- Node10 -->
<g id="node10" class="node"><title>Node10</title>
<g id="a_node10"><a xlink:href="a00358.html#ga0cd7863ba7c2d2da4a193234472a3d14" target="_top" xlink:title="limit length of string, MUST be &lt;= current length ">
<polygon fill="white" stroke="black" points="497.5,-342.5 497.5,-361.5 586.5,-361.5 586.5,-342.5 497.5,-342.5"/>
<text text-anchor="middle" x="542" y="-349.5" font-family="Helvetica,sans-Serif" font-size="10.00">tds_dstr_setlen</text>
</a>
</g>
</g>
<!-- Node7&#45;&gt;Node10 -->
<g id="edge12" class="edge"><title>Node7&#45;&gt;Node10</title>
<path fill="none" stroke="midnightblue" d="M397.9,-352C423.65,-352 458.264,-352 486.999,-352"/>
<polygon fill="midnightblue" stroke="midnightblue" points="487.292,-355.5 497.292,-352 487.292,-348.5 487.292,-355.5"/>
</g>
<!-- Node9&#45;&gt;Node3 -->
<g id="edge11" class="edge"><title>Node9&#45;&gt;Node3</title>
<path fill="none" stroke="midnightblue" d="M584.353,-281.908C600.366,-284.195 618.662,-286.809 634.673,-289.096"/>
<polygon fill="midnightblue" stroke="midnightblue" points="634.423,-292.596 644.817,-290.545 635.413,-285.666 634.423,-292.596"/>
</g>
<!-- Node11&#45;&gt;Node4 -->
<g id="edge14" class="edge"><title>Node11&#45;&gt;Node4</title>
<path fill="none" stroke="midnightblue" d="M393.533,-494.419C441.209,-480.534 532.038,-453.862 609,-430 658.836,-414.548 716.036,-395.97 753.03,-383.844"/>
<polygon fill="midnightblue" stroke="midnightblue" points="754.495,-387.047 762.905,-380.603 752.312,-380.396 754.495,-387.047"/>
</g>
<!-- Node13 -->
<g id="node13" class="node"><title>Node13</title>
<g id="a_node13"><a xlink:href="a00193.html#a68855f1251759a6b7338635306ab0041" target="_top" xlink:title="tds_get_varint_size() returns the size of a variable length integer returned in a TDS 7...">
<polygon fill="white" stroke="black" points="487.5,-114.5 487.5,-133.5 596.5,-133.5 596.5,-114.5 487.5,-114.5"/>
<text text-anchor="middle" x="542" y="-121.5" font-family="Helvetica,sans-Serif" font-size="10.00">tds_get_varint_size</text>
</a>
</g>
</g>
<!-- Node12&#45;&gt;Node13 -->
<g id="edge17" class="edge"><title>Node12&#45;&gt;Node13</title>
<path fill="none" stroke="midnightblue" d="M406.048,-152.411C430.296,-147.306 460.304,-140.989 485.861,-135.608"/>
<polygon fill="midnightblue" stroke="midnightblue" points="486.715,-139.005 495.78,-133.52 485.273,-132.155 486.715,-139.005"/>
</g>
<!-- Node14 -->
<g id="node14" class="node"><title>Node14</title>
<g id="a_node14"><a xlink:href="a00193.html#aa70b02ff34ac03040ca41f13d5fd35bd" target="_top" xlink:title="Return the number of bytes needed by specified type. ">
<polygon fill="white" stroke="black" points="482.5,-152.5 482.5,-171.5 601.5,-171.5 601.5,-152.5 482.5,-152.5"/>
<text text-anchor="middle" x="542" y="-159.5" font-family="Helvetica,sans-Serif" font-size="10.00">tds_get_size_by_type</text>
</a>
</g>
</g>
<!-- Node12&#45;&gt;Node14 -->
<g id="edge18" class="edge"><title>Node12&#45;&gt;Node14</title>
<path fill="none" stroke="midnightblue" d="M417.611,-162C434.96,-162 454.205,-162 472.236,-162"/>
<polygon fill="midnightblue" stroke="midnightblue" points="472.397,-165.5 482.397,-162 472.397,-158.5 472.397,-165.5"/>
</g>
<!-- Node16&#45;&gt;Node5 -->
<g id="edge22" class="edge"><title>Node16&#45;&gt;Node5</title>
<path fill="none" stroke="midnightblue" d="M396.417,-228.489C445.212,-217.091 534.868,-201.577 609,-219 723.585,-245.931 844.336,-322.623 892.654,-355.609"/>
<polygon fill="midnightblue" stroke="midnightblue" points="890.854,-358.619 901.072,-361.417 894.829,-352.857 890.854,-358.619"/>
</g>
<!-- Node17 -->
<g id="node17" class="node"><title>Node17</title>
<g id="a_node17"><a xlink:href="a00359.html#ga87209537d51f069fee02bc224da492cb" target="_top" xlink:title="Allow for maximum possible size of converted data, while being careful about integer division truncat...">
<polygon fill="white" stroke="black" points="475,-228.5 475,-247.5 609,-247.5 609,-228.5 475,-228.5"/>
<text text-anchor="middle" x="542" y="-235.5" font-family="Helvetica,sans-Serif" font-size="10.00">determine_adjusted_size</text>
</a>
</g>
</g>
<!-- Node16&#45;&gt;Node17 -->
<g id="edge21" class="edge"><title>Node16&#45;&gt;Node17</title>
<path fill="none" stroke="midnightblue" d="M439.145,-238C447.587,-238 456.168,-238 464.584,-238"/>
<polygon fill="midnightblue" stroke="midnightblue" points="464.747,-241.5 474.747,-238 464.747,-234.5 464.747,-241.5"/>
</g>
</g>
</svg>
