<?xml version="1.0" encoding="UTF-8" standalone="no"?>
<!DOCTYPE svg PUBLIC "-//W3C//DTD SVG 1.1//EN"
 "http://www.w3.org/Graphics/SVG/1.1/DTD/svg11.dtd">
<!-- Generated by graphviz version 2.38.0 (20140413.2041)
 -->
<!-- Title: tds_submit_prepare Pages: 1 -->
<svg width="1194pt" height="472pt"
 viewBox="0.00 0.00 1194.00 471.98" xmlns="http://www.w3.org/2000/svg" xmlns:xlink="http://www.w3.org/1999/xlink">
<g id="graph0" class="graph" transform="scale(1 1) rotate(0) translate(4 467.976)">
<title>tds_submit_prepare</title>
<polygon fill="white" stroke="none" points="-4,4 -4,-467.976 1190,-467.976 1190,4 -4,4"/>
<!-- Node1 -->
<g id="node1" class="node"><title>Node1</title>
<polygon fill="#bfbfbf" stroke="black" points="0,-218.5 0,-237.5 110,-237.5 110,-218.5 0,-218.5"/>
<text text-anchor="middle" x="55" y="-225.5" font-family="Helvetica,sans-Serif" font-size="10.00">tds_submit_prepare</text>
</g>
<!-- Node2 -->
<g id="node2" class="node"><title>Node2</title>
<g id="a_node2"><a xlink:href="a00193.html#a16db200d2281f76fe46fc1cbe37ca9df" target="_top" xlink:title="Set state of TDS connection, with logging and checking. ">
<polygon fill="white" stroke="black" points="542,-392.5 542,-411.5 622,-411.5 622,-392.5 542,-392.5"/>
<text text-anchor="middle" x="582" y="-399.5" font-family="Helvetica,sans-Serif" font-size="10.00">tds_set_state</text>
</a>
</g>
</g>
<!-- Node1&#45;&gt;Node2 -->
<g id="edge1" class="edge"><title>Node1&#45;&gt;Node2</title>
<path fill="none" stroke="midnightblue" d="M58.158,-237.533C65.1115,-265.752 89.8273,-349.008 146,-383 209.556,-421.46 431.929,-412.064 531.792,-405.625"/>
<polygon fill="midnightblue" stroke="midnightblue" points="532.175,-409.107 541.922,-404.955 531.713,-402.123 532.175,-409.107"/>
</g>
<!-- Node7 -->
<g id="node7" class="node"><title>Node7</title>
<g id="a_node7"><a xlink:href="a00355.html#ga69559de43b47f4a9e2eecc7a56527444" target="_top" xlink:title="Allocate a dynamic statement. ">
<polygon fill="white" stroke="black" points="167.5,-152.5 167.5,-171.5 271.5,-171.5 271.5,-152.5 167.5,-152.5"/>
<text text-anchor="middle" x="219.5" y="-159.5" font-family="Helvetica,sans-Serif" font-size="10.00">tds_alloc_dynamic</text>
</a>
</g>
</g>
<!-- Node1&#45;&gt;Node7 -->
<g id="edge8" class="edge"><title>Node1&#45;&gt;Node7</title>
<path fill="none" stroke="midnightblue" d="M72.124,-218.488C89.7857,-208.374 119.178,-192.429 146,-182 153.108,-179.236 160.746,-176.693 168.303,-174.413"/>
<polygon fill="midnightblue" stroke="midnightblue" points="169.503,-177.709 178.138,-171.57 167.56,-170.984 169.503,-177.709"/>
</g>
<!-- Node10 -->
<g id="node10" class="node"><title>Node10</title>
<g id="a_node10"><a xlink:href="a00355.html#gabf2fdb0def5388508602ee7dd2f49506" target="_top" xlink:title="Frees dynamic statement. ">
<polygon fill="white" stroke="black" points="161,-114.5 161,-133.5 278,-133.5 278,-114.5 161,-114.5"/>
<text text-anchor="middle" x="219.5" y="-121.5" font-family="Helvetica,sans-Serif" font-size="10.00">tds_release_dynamic</text>
</a>
</g>
</g>
<!-- Node1&#45;&gt;Node10 -->
<g id="edge11" class="edge"><title>Node1&#45;&gt;Node10</title>
<path fill="none" stroke="midnightblue" d="M63.297,-218.473C77.3338,-200.823 109.918,-163.021 146,-143 150.012,-140.774 154.295,-138.8 158.698,-137.052"/>
<polygon fill="midnightblue" stroke="midnightblue" points="160.221,-140.225 168.468,-133.575 157.874,-133.63 160.221,-140.225"/>
</g>
<!-- Node12 -->
<g id="node12" class="node"><title>Node12</title>
<g id="a_node12"><a xlink:href="a00356.html#gae8b7db85af16701fc0604eb117cbd4e4" target="_top" xlink:title="Set current dynamic. ">
<polygon fill="white" stroke="black" points="172,-76.5 172,-95.5 267,-95.5 267,-76.5 172,-76.5"/>
<text text-anchor="middle" x="219.5" y="-83.5" font-family="Helvetica,sans-Serif" font-size="10.00">tds_set_cur_dyn</text>
</a>
</g>
</g>
<!-- Node1&#45;&gt;Node12 -->
<g id="edge13" class="edge"><title>Node1&#45;&gt;Node12</title>
<path fill="none" stroke="midnightblue" d="M60.266,-218.254C71.023,-194.858 101.598,-135.227 146,-105 150.961,-101.623 156.488,-98.8454 162.216,-96.5618"/>
<polygon fill="midnightblue" stroke="midnightblue" points="163.685,-99.7565 171.981,-93.1659 161.386,-93.1449 163.685,-99.7565"/>
</g>
<!-- Node13 -->
<g id="node13" class="node"><title>Node13</title>
<g id="a_node13"><a xlink:href="a00356.html#ga024bc5482366735070befd6f4af59f71" target="_top" xlink:title="Convert a string in an allocated buffer. ">
<polygon fill="white" stroke="black" points="530,-354.5 530,-373.5 634,-373.5 634,-354.5 530,-354.5"/>
<text text-anchor="middle" x="582" y="-361.5" font-family="Helvetica,sans-Serif" font-size="10.00">tds_convert_string</text>
</a>
</g>
</g>
<!-- Node1&#45;&gt;Node13 -->
<g id="edge14" class="edge"><title>Node1&#45;&gt;Node13</title>
<path fill="none" stroke="midnightblue" d="M74.1528,-237.659C92.0094,-246.824 120.259,-260.434 146,-269 215.208,-292.03 418.768,-332.731 520.99,-352.535"/>
<polygon fill="midnightblue" stroke="midnightblue" points="520.374,-355.98 530.856,-354.442 521.702,-349.108 520.374,-355.98"/>
</g>
<!-- Node17 -->
<g id="node17" class="node"><title>Node17</title>
<g id="a_node17"><a xlink:href="a00356.html#gab775332d378c7fe083750d624441b303" target="_top" xlink:title="Return string with parameters definition, useful for TDS7+. ">
<polygon fill="white" stroke="black" points="159,-191 159,-221 280,-221 280,-191 159,-191"/>
<text text-anchor="start" x="167" y="-209" font-family="Helvetica,sans-Serif" font-size="10.00">tds7_build_param_def</text>
<text text-anchor="middle" x="219.5" y="-198" font-family="Helvetica,sans-Serif" font-size="10.00">_from_query</text>
</a>
</g>
</g>
<!-- Node1&#45;&gt;Node17 -->
<g id="edge21" class="edge"><title>Node1&#45;&gt;Node17</title>
<path fill="none" stroke="midnightblue" d="M110.11,-220.674C122.422,-219.007 135.673,-217.213 148.539,-215.472"/>
<polygon fill="midnightblue" stroke="midnightblue" points="149.31,-218.899 158.75,-214.089 148.371,-211.963 149.31,-218.899"/>
</g>
<!-- Node24 -->
<g id="node24" class="node"><title>Node24</title>
<g id="a_node24"><a xlink:href="a00356.html#gab543692776c2bc0afc3bd056f074080c" target="_top" xlink:title="Start query packet of a given type. ">
<polygon fill="white" stroke="black" points="174.5,-354.5 174.5,-373.5 264.5,-373.5 264.5,-354.5 174.5,-354.5"/>
<text text-anchor="middle" x="219.5" y="-361.5" font-family="Helvetica,sans-Serif" font-size="10.00">tds_start_query</text>
</a>
</g>
</g>
<!-- Node1&#45;&gt;Node24 -->
<g id="edge29" class="edge"><title>Node1&#45;&gt;Node24</title>
<path fill="none" stroke="midnightblue" d="M61.1524,-237.65C73.1382,-259.195 105.017,-311.552 146,-340 152.14,-344.262 159.092,-347.811 166.2,-350.754"/>
<polygon fill="midnightblue" stroke="midnightblue" points="165.336,-354.168 175.928,-354.402 167.794,-347.614 165.336,-354.168"/>
</g>
<!-- Node26 -->
<g id="node26" class="node"><title>Node26</title>
<g id="a_node26"><a xlink:href="a00356.html#ga0f0b6bf447e9672e3b1ea8453ddeb113" target="_top" xlink:title="Send parameter definition to server. ">
<polygon fill="white" stroke="black" points="146,-38.5 146,-57.5 293,-57.5 293,-38.5 146,-38.5"/>
<text text-anchor="middle" x="219.5" y="-45.5" font-family="Helvetica,sans-Serif" font-size="10.00">tds7_put_params_definition</text>
</a>
</g>
</g>
<!-- Node1&#45;&gt;Node26 -->
<g id="edge33" class="edge"><title>Node1&#45;&gt;Node26</title>
<path fill="none" stroke="midnightblue" d="M58.5223,-218.26C66.3269,-190.131 92.8215,-108.16 146,-67 148.442,-65.1097 151.055,-63.4066 153.785,-61.8723"/>
<polygon fill="midnightblue" stroke="midnightblue" points="155.342,-65.0074 162.841,-57.5236 152.312,-58.6972 155.342,-65.0074"/>
</g>
<!-- Node27 -->
<g id="node27" class="node"><title>Node27</title>
<g id="a_node27"><a xlink:href="a00356.html#ga6e42b4a1d1d3898229ea2fe4afc2ecec" target="_top" xlink:title="Output params types and query (required by sp_prepare/sp_executesql/sp_prepexec) ">
<polygon fill="white" stroke="black" points="154,-240.5 154,-259.5 285,-259.5 285,-240.5 154,-240.5"/>
<text text-anchor="middle" x="219.5" y="-247.5" font-family="Helvetica,sans-Serif" font-size="10.00">tds7_put_query_params</text>
</a>
</g>
</g>
<!-- Node1&#45;&gt;Node27 -->
<g id="edge34" class="edge"><title>Node1&#45;&gt;Node27</title>
<path fill="none" stroke="midnightblue" d="M110.11,-235.326C120.964,-236.795 132.549,-238.363 143.955,-239.908"/>
<polygon fill="midnightblue" stroke="midnightblue" points="143.532,-243.382 153.911,-241.256 144.471,-236.446 143.532,-243.382"/>
</g>
<!-- Node32 -->
<g id="node32" class="node"><title>Node32</title>
<g id="a_node32"><a xlink:href="a00356.html#gada27f4cfce925240ad33b71b63ca692d" target="_top" xlink:title="Flush query packet. ">
<polygon fill="white" stroke="black" points="339.5,-430.5 339.5,-449.5 467.5,-449.5 467.5,-430.5 339.5,-430.5"/>
<text text-anchor="middle" x="403.5" y="-437.5" font-family="Helvetica,sans-Serif" font-size="10.00">tds_query_flush_packet</text>
</a>
</g>
</g>
<!-- Node1&#45;&gt;Node32 -->
<g id="edge44" class="edge"><title>Node1&#45;&gt;Node32</title>
<path fill="none" stroke="midnightblue" d="M57.343,-237.944C62.2646,-270.096 82.4748,-371.714 146,-416 201.696,-454.828 281.53,-456.047 337.291,-450.606"/>
<polygon fill="midnightblue" stroke="midnightblue" points="337.842,-454.067 347.412,-449.521 337.096,-447.107 337.842,-454.067"/>
</g>
<!-- Node3 -->
<g id="node3" class="node"><title>Node3</title>
<g id="a_node3"><a xlink:href="a00193.html#ab45c291105027e69836002e1dd586141" target="_top" xlink:title="Write a message to the debug log. ">
<polygon fill="white" stroke="black" points="1109,-304.5 1109,-323.5 1186,-323.5 1186,-304.5 1109,-304.5"/>
<text text-anchor="middle" x="1147.5" y="-311.5" font-family="Helvetica,sans-Serif" font-size="10.00">tdsdump_log</text>
</a>
</g>
</g>
<!-- Node2&#45;&gt;Node3 -->
<g id="edge2" class="edge"><title>Node2&#45;&gt;Node3</title>
<path fill="none" stroke="midnightblue" d="M622.354,-411.423C724.793,-435.051 997.03,-491.816 1073,-447 1114.89,-422.288 1134.56,-364.192 1142.3,-333.612"/>
<polygon fill="midnightblue" stroke="midnightblue" points="1145.74,-334.238 1144.62,-323.703 1138.93,-332.638 1145.74,-334.238"/>
</g>
<!-- Node4 -->
<g id="node4" class="node"><title>Node4</title>
<g id="a_node4"><a xlink:href="a00193.html#abf18b98efef6ce2dc0b97d658a3a1918" target="_top" xlink:title="Call the client library&#39;s error handler (for library&#45;generated errors only) ">
<polygon fill="white" stroke="black" points="690,-361.5 690,-380.5 744,-380.5 744,-361.5 690,-361.5"/>
<text text-anchor="middle" x="717" y="-368.5" font-family="Helvetica,sans-Serif" font-size="10.00">tdserror</text>
</a>
</g>
</g>
<!-- Node2&#45;&gt;Node4 -->
<g id="edge3" class="edge"><title>Node2&#45;&gt;Node4</title>
<path fill="none" stroke="midnightblue" d="M622.185,-392.867C640.461,-388.607 662.069,-383.57 679.938,-379.405"/>
<polygon fill="midnightblue" stroke="midnightblue" points="680.759,-382.808 689.704,-377.129 679.17,-375.991 680.759,-382.808"/>
</g>
<!-- Node4&#45;&gt;Node3 -->
<g id="edge4" class="edge"><title>Node4&#45;&gt;Node3</title>
<path fill="none" stroke="midnightblue" d="M744.339,-368.207C803.326,-361.85 950.48,-345.415 1073,-327 1081.38,-325.74 1090.28,-324.276 1098.88,-322.793"/>
<polygon fill="midnightblue" stroke="midnightblue" points="1099.55,-326.229 1108.79,-321.055 1098.34,-319.335 1099.55,-326.229"/>
</g>
<!-- Node5 -->
<g id="node5" class="node"><title>Node5</title>
<g id="a_node5"><a xlink:href="a00356.html#ga11338742dc30fd0c2711f58eb830316f" target="_top" xlink:title="tds_send_cancel() sends an empty packet (8 byte header only) tds_process_cancel should be called dire...">
<polygon fill="white" stroke="black" points="805.5,-380.5 805.5,-399.5 902.5,-399.5 902.5,-380.5 805.5,-380.5"/>
<text text-anchor="middle" x="854" y="-387.5" font-family="Helvetica,sans-Serif" font-size="10.00">tds_send_cancel</text>
</a>
</g>
</g>
<!-- Node4&#45;&gt;Node5 -->
<g id="edge5" class="edge"><title>Node4&#45;&gt;Node5</title>
<path fill="none" stroke="midnightblue" d="M744.029,-374.663C758.569,-376.71 777.299,-379.346 795.117,-381.853"/>
<polygon fill="midnightblue" stroke="midnightblue" points="795.073,-385.382 805.463,-383.31 796.049,-378.45 795.073,-385.382"/>
</g>
<!-- Node5&#45;&gt;Node3 -->
<g id="edge6" class="edge"><title>Node5&#45;&gt;Node3</title>
<path fill="none" stroke="midnightblue" d="M902.515,-391.524C947.78,-391.431 1017.11,-387.209 1073,-366 1094.06,-358.009 1114.7,-342.539 1128.72,-330.541"/>
<polygon fill="midnightblue" stroke="midnightblue" points="1131.37,-332.868 1136.53,-323.618 1126.73,-327.627 1131.37,-332.868"/>
</g>
<!-- Node6 -->
<g id="node6" class="node"><title>Node6</title>
<g id="a_node6"><a xlink:href="a00357.html#ga5feb53554e8917a81bbbc332163a61fb" target="_top" xlink:title="Flush packet to server. ">
<polygon fill="white" stroke="black" points="968.5,-418.5 968.5,-437.5 1064.5,-437.5 1064.5,-418.5 968.5,-418.5"/>
<text text-anchor="middle" x="1016.5" y="-425.5" font-family="Helvetica,sans-Serif" font-size="10.00">tds_flush_packet</text>
</a>
</g>
</g>
<!-- Node5&#45;&gt;Node6 -->
<g id="edge7" class="edge"><title>Node5&#45;&gt;Node6</title>
<path fill="none" stroke="midnightblue" d="M895.501,-399.589C916.681,-404.604 942.802,-410.788 965.26,-416.105"/>
<polygon fill="midnightblue" stroke="midnightblue" points="964.753,-419.582 975.29,-418.48 966.366,-412.77 964.753,-419.582"/>
</g>
<!-- Node8 -->
<g id="node8" class="node"><title>Node8</title>
<g id="a_node8"><a xlink:href="a00359.html#ga595fe391e60a71bd98ffd53b4c015e44" target="_top" xlink:title="Finds a dynamic given string id. ">
<polygon fill="white" stroke="black" points="347,-76.5 347,-95.5 460,-95.5 460,-76.5 347,-76.5"/>
<text text-anchor="middle" x="403.5" y="-83.5" font-family="Helvetica,sans-Serif" font-size="10.00">tds_lookup_dynamic</text>
</a>
</g>
</g>
<!-- Node7&#45;&gt;Node8 -->
<g id="edge9" class="edge"><title>Node7&#45;&gt;Node8</title>
<path fill="none" stroke="midnightblue" d="M271.866,-152.382C279.232,-149.921 286.505,-146.844 293,-143 313.021,-131.152 308.959,-116.815 329,-105 332.704,-102.816 336.658,-100.881 340.737,-99.1651"/>
<polygon fill="midnightblue" stroke="midnightblue" points="342.282,-102.325 350.427,-95.549 339.834,-95.7665 342.282,-102.325"/>
</g>
<!-- Node9 -->
<g id="node9" class="node"><title>Node9</title>
<g id="a_node9"><a xlink:href="a00355.html#ga501af7e6186e59c257729599a044a30b" target="_top" xlink:title="Get an id for dynamic query based on TDS information. ">
<polygon fill="white" stroke="black" points="362,-38.5 362,-57.5 445,-57.5 445,-38.5 362,-38.5"/>
<text text-anchor="middle" x="403.5" y="-45.5" font-family="Helvetica,sans-Serif" font-size="10.00">tds_get_dynid</text>
</a>
</g>
</g>
<!-- Node7&#45;&gt;Node9 -->
<g id="edge10" class="edge"><title>Node7&#45;&gt;Node9</title>
<path fill="none" stroke="midnightblue" d="M271.604,-154.676C279.336,-151.92 286.79,-148.15 293,-143 321.769,-119.141 300.191,-90.811 329,-67 335.645,-61.5081 343.692,-57.5823 351.991,-54.7807"/>
<polygon fill="midnightblue" stroke="midnightblue" points="353.128,-58.096 361.781,-51.9819 351.204,-51.3657 353.128,-58.096"/>
</g>
<!-- Node11 -->
<g id="node11" class="node"><title>Node11</title>
<g id="a_node11"><a xlink:href="a00355.html#gabdc5fee73b22345c02ab894e49ad7f95" target="_top" xlink:title="Frees all allocated input parameters of a dynamic statement. ">
<polygon fill="white" stroke="black" points="341,-0.5 341,-19.5 466,-19.5 466,-0.5 341,-0.5"/>
<text text-anchor="middle" x="403.5" y="-7.5" font-family="Helvetica,sans-Serif" font-size="10.00">tds_free_input_params</text>
</a>
</g>
</g>
<!-- Node10&#45;&gt;Node11 -->
<g id="edge12" class="edge"><title>Node10&#45;&gt;Node11</title>
<path fill="none" stroke="midnightblue" d="M277.153,-114.492C282.87,-112.015 288.293,-108.904 293,-105 321.769,-81.141 300.191,-52.811 329,-29 331.045,-27.3102 333.222,-25.7687 335.498,-24.3625"/>
<polygon fill="midnightblue" stroke="midnightblue" points="337.439,-27.2983 344.701,-19.5829 334.213,-21.0863 337.439,-27.2983"/>
</g>
<!-- Node14 -->
<g id="node14" class="node"><title>Node14</title>
<g id="a_node14"><a xlink:href="a00354.html#ga87db49044919f1bc84c0ff5e9ab00304" target="_top" xlink:title="Wrapper around iconv(3). ">
<polygon fill="white" stroke="black" points="686,-266.5 686,-285.5 748,-285.5 748,-266.5 686,-266.5"/>
<text text-anchor="middle" x="717" y="-273.5" font-family="Helvetica,sans-Serif" font-size="10.00">tds_iconv</text>
</a>
</g>
</g>
<!-- Node13&#45;&gt;Node14 -->
<g id="edge15" class="edge"><title>Node13&#45;&gt;Node14</title>
<path fill="none" stroke="midnightblue" d="M629.05,-354.465C636.337,-351.975 643.578,-348.867 650,-345 671.843,-331.848 691.264,-309.591 703.288,-293.919"/>
<polygon fill="midnightblue" stroke="midnightblue" points="706.333,-295.688 709.475,-285.57 700.709,-291.52 706.333,-295.688"/>
</g>
<!-- Node14&#45;&gt;Node3 -->
<g id="edge16" class="edge"><title>Node14&#45;&gt;Node3</title>
<path fill="none" stroke="midnightblue" d="M745.937,-285.571C757.569,-289.153 771.3,-292.868 784,-295 895.581,-313.733 1028.95,-315.535 1098.66,-314.941"/>
<polygon fill="midnightblue" stroke="midnightblue" points="1098.92,-318.439 1108.88,-314.833 1098.85,-311.439 1098.92,-318.439"/>
</g>
<!-- Node15 -->
<g id="node15" class="node"><title>Node15</title>
<g id="a_node15"><a xlink:href="a00354.html#ga3380140fc6eb9f2090c430f40e846876" target="_top" xlink:title="Move the input sequence pointer to the next valid position. ">
<polygon fill="white" stroke="black" points="784,-266.5 784,-285.5 924,-285.5 924,-266.5 784,-266.5"/>
<text text-anchor="middle" x="854" y="-273.5" font-family="Helvetica,sans-Serif" font-size="10.00">skip_one_input_sequence</text>
</a>
</g>
</g>
<!-- Node14&#45;&gt;Node15 -->
<g id="edge17" class="edge"><title>Node14&#45;&gt;Node15</title>
<path fill="none" stroke="midnightblue" d="M748.297,-276C756.035,-276 764.721,-276 773.695,-276"/>
<polygon fill="midnightblue" stroke="midnightblue" points="773.914,-279.5 783.914,-276 773.914,-272.5 773.914,-279.5"/>
</g>
<!-- Node16 -->
<g id="node16" class="node"><title>Node16</title>
<g id="a_node16"><a xlink:href="a00354.html#ga900b0bce08c6bfc2e7c988f4b5970516" target="_top" xlink:title="Inputs are FreeTDS canonical names, no other. ">
<polygon fill="white" stroke="black" points="960,-266.5 960,-285.5 1073,-285.5 1073,-266.5 960,-266.5"/>
<text text-anchor="middle" x="1016.5" y="-273.5" font-family="Helvetica,sans-Serif" font-size="10.00">tds_sys_iconv_open</text>
</a>
</g>
</g>
<!-- Node14&#45;&gt;Node16 -->
<g id="edge20" class="edge"><title>Node14&#45;&gt;Node16</title>
<path fill="none" stroke="midnightblue" d="M744.603,-266.499C756.491,-262.735 770.776,-258.866 784,-257 845.612,-248.308 862.104,-250.641 924,-257 938.546,-258.494 954.19,-261.291 968.357,-264.289"/>
<polygon fill="midnightblue" stroke="midnightblue" points="967.856,-267.762 978.375,-266.491 969.359,-260.925 967.856,-267.762"/>
</g>
<!-- Node15&#45;&gt;Node16 -->
<g id="edge18" class="edge"><title>Node15&#45;&gt;Node16</title>
<path fill="none" stroke="midnightblue" d="M924.464,-276C932.897,-276 941.491,-276 949.865,-276"/>
<polygon fill="midnightblue" stroke="midnightblue" points="949.945,-279.5 959.945,-276 949.945,-272.5 949.945,-279.5"/>
</g>
<!-- Node16&#45;&gt;Node3 -->
<g id="edge19" class="edge"><title>Node16&#45;&gt;Node3</title>
<path fill="none" stroke="midnightblue" d="M1050.05,-285.589C1066.4,-290.404 1086.41,-296.299 1103.96,-301.468"/>
<polygon fill="midnightblue" stroke="midnightblue" points="1103.38,-304.946 1113.96,-304.414 1105.35,-298.231 1103.38,-304.946"/>
</g>
<!-- Node18 -->
<g id="node18" class="node"><title>Node18</title>
<g id="a_node18"><a xlink:href="a00356.html#ga0cd19215e9169ea299a6c9cbf5b2fb60" target="_top" xlink:title="Count number of placeholders (?) in a query. ">
<polygon fill="white" stroke="black" points="339,-191 339,-221 468,-221 468,-191 339,-191"/>
<text text-anchor="start" x="347" y="-209" font-family="Helvetica,sans-Serif" font-size="10.00">tds_count_placeholders</text>
<text text-anchor="middle" x="403.5" y="-198" font-family="Helvetica,sans-Serif" font-size="10.00">_ucs2le</text>
</a>
</g>
</g>
<!-- Node17&#45;&gt;Node18 -->
<g id="edge22" class="edge"><title>Node17&#45;&gt;Node18</title>
<path fill="none" stroke="midnightblue" d="M280.094,-206C295.486,-206 312.245,-206 328.284,-206"/>
<polygon fill="midnightblue" stroke="midnightblue" points="328.697,-209.5 338.697,-206 328.697,-202.5 328.697,-209.5"/>
</g>
<!-- Node20 -->
<g id="node20" class="node"><title>Node20</title>
<g id="a_node20"><a xlink:href="a00356.html#ga50d62edeb2a432e2dc668263f3f958ff" target="_top" xlink:title="Return declaration for column (like &quot;varchar(20)&quot;) ">
<polygon fill="white" stroke="black" points="329,-152.5 329,-171.5 478,-171.5 478,-152.5 329,-152.5"/>
<text text-anchor="middle" x="403.5" y="-159.5" font-family="Helvetica,sans-Serif" font-size="10.00">tds_get_column_declaration</text>
</a>
</g>
</g>
<!-- Node17&#45;&gt;Node20 -->
<g id="edge24" class="edge"><title>Node17&#45;&gt;Node20</title>
<path fill="none" stroke="midnightblue" d="M280.094,-191.593C303.738,-185.877 330.606,-179.381 353.134,-173.935"/>
<polygon fill="midnightblue" stroke="midnightblue" points="354.255,-177.265 363.152,-171.513 352.61,-170.461 354.255,-177.265"/>
</g>
<!-- Node23 -->
<g id="node23" class="node"><title>Node23</title>
<g id="a_node23"><a xlink:href="a00356.html#gad05fc65e1d505c68d14c82b99a00e4eb" target="_top" xlink:title="Accept an ASCII string, convert it to UCS2&#45;LE The input is null&#45;terminated, but the output excludes t...">
<polygon fill="white" stroke="black" points="353,-114.5 353,-133.5 454,-133.5 454,-114.5 353,-114.5"/>
<text text-anchor="middle" x="403.5" y="-121.5" font-family="Helvetica,sans-Serif" font-size="10.00">tds_ascii_to_ucs2</text>
</a>
</g>
</g>
<!-- Node17&#45;&gt;Node23 -->
<g id="edge28" class="edge"><title>Node17&#45;&gt;Node23</title>
<path fill="none" stroke="midnightblue" d="M273.774,-190.979C280.484,-188.132 287.068,-184.821 293,-181 312.558,-168.402 308.959,-154.815 329,-143 333.428,-140.39 338.213,-138.134 343.142,-136.184"/>
<polygon fill="midnightblue" stroke="midnightblue" points="344.477,-139.425 352.746,-132.802 342.152,-132.823 344.477,-139.425"/>
</g>
<!-- Node19 -->
<g id="node19" class="node"><title>Node19</title>
<g id="a_node19"><a xlink:href="a00356.html#gaa823973b74efdf1ff00f340496bff614" target="_top" xlink:title="Found the next placeholder (? or @param) in a string. ">
<polygon fill="white" stroke="red" points="522.5,-191 522.5,-221 641.5,-221 641.5,-191 522.5,-191"/>
<text text-anchor="start" x="530.5" y="-209" font-family="Helvetica,sans-Serif" font-size="10.00">tds_next_placeholder</text>
<text text-anchor="middle" x="582" y="-198" font-family="Helvetica,sans-Serif" font-size="10.00">_ucs2le</text>
</a>
</g>
</g>
<!-- Node18&#45;&gt;Node19 -->
<g id="edge23" class="edge"><title>Node18&#45;&gt;Node19</title>
<path fill="none" stroke="midnightblue" d="M468.221,-206C482.443,-206 497.59,-206 512.014,-206"/>
<polygon fill="midnightblue" stroke="midnightblue" points="512.366,-209.5 522.366,-206 512.366,-202.5 512.366,-209.5"/>
</g>
<!-- Node20&#45;&gt;Node3 -->
<g id="edge27" class="edge"><title>Node20&#45;&gt;Node3</title>
<path fill="none" stroke="midnightblue" d="M478.138,-162C541.257,-162 634.61,-162 716,-162 716,-162 716,-162 855,-162 955.854,-162 988.69,-169.653 1073,-225 1100.91,-243.323 1123.62,-275.494 1136.08,-295.727"/>
<polygon fill="midnightblue" stroke="midnightblue" points="1133.09,-297.537 1141.21,-304.339 1139.1,-293.956 1133.09,-297.537"/>
</g>
<!-- Node21 -->
<g id="node21" class="node"><title>Node21</title>
<g id="a_node21"><a xlink:href="a00356.html#ga440f0f469afad1eac4c008979873ccdd" target="_top" xlink:title="Get column size for wire. ">
<polygon fill="white" stroke="black" points="526.5,-114.5 526.5,-133.5 637.5,-133.5 637.5,-114.5 526.5,-114.5"/>
<text text-anchor="middle" x="582" y="-121.5" font-family="Helvetica,sans-Serif" font-size="10.00">tds_fix_column_size</text>
</a>
</g>
</g>
<!-- Node20&#45;&gt;Node21 -->
<g id="edge25" class="edge"><title>Node20&#45;&gt;Node21</title>
<path fill="none" stroke="midnightblue" d="M449.038,-152.411C472.644,-147.329 501.832,-141.045 526.751,-135.68"/>
<polygon fill="midnightblue" stroke="midnightblue" points="527.743,-139.046 536.782,-133.52 526.269,-132.203 527.743,-139.046"/>
</g>
<!-- Node22 -->
<g id="node22" class="node"><title>Node22</title>
<g id="a_node22"><a xlink:href="a00193.html#ae7f4c4d5f7352f1c814284c536659e6f" target="_top" xlink:title="Return type suitable for conversions (convert all nullable types to fixed type) ">
<polygon fill="white" stroke="black" points="514,-76.5 514,-95.5 650,-95.5 650,-76.5 514,-76.5"/>
<text text-anchor="middle" x="582" y="-83.5" font-family="Helvetica,sans-Serif" font-size="10.00">tds_get_conversion_type</text>
</a>
</g>
</g>
<!-- Node20&#45;&gt;Node22 -->
<g id="edge26" class="edge"><title>Node20&#45;&gt;Node22</title>
<path fill="none" stroke="midnightblue" d="M456.573,-152.451C464.041,-149.981 471.415,-146.882 478,-143 498.041,-131.185 494.098,-117.048 514,-105 517.607,-102.816 521.475,-100.875 525.465,-99.1505"/>
<polygon fill="midnightblue" stroke="midnightblue" points="526.857,-102.365 534.934,-95.5082 524.344,-95.8318 526.857,-102.365"/>
</g>
<!-- Node25 -->
<g id="node25" class="node"><title>Node25</title>
<g id="a_node25"><a xlink:href="a00356.html#ga9ad2e6defce530a8778791cce0166ccd" target="_top" xlink:title="Start query packet of a given type. ">
<polygon fill="white" stroke="black" points="343.5,-354.5 343.5,-373.5 463.5,-373.5 463.5,-354.5 343.5,-354.5"/>
<text text-anchor="middle" x="403.5" y="-361.5" font-family="Helvetica,sans-Serif" font-size="10.00">tds_start_query_head</text>
</a>
</g>
</g>
<!-- Node24&#45;&gt;Node25 -->
<g id="edge30" class="edge"><title>Node24&#45;&gt;Node25</title>
<path fill="none" stroke="midnightblue" d="M264.557,-364C285.176,-364 310.223,-364 333.287,-364"/>
<polygon fill="midnightblue" stroke="midnightblue" points="333.374,-367.5 343.374,-364 333.374,-360.5 333.374,-367.5"/>
</g>
<!-- Node25&#45;&gt;Node2 -->
<g id="edge32" class="edge"><title>Node25&#45;&gt;Node2</title>
<path fill="none" stroke="midnightblue" d="M449.038,-373.589C474.282,-379.024 505.909,-385.833 531.872,-391.423"/>
<polygon fill="midnightblue" stroke="midnightblue" points="531.371,-394.895 541.884,-393.578 532.844,-388.052 531.371,-394.895"/>
</g>
<!-- Node25&#45;&gt;Node13 -->
<g id="edge31" class="edge"><title>Node25&#45;&gt;Node13</title>
<path fill="none" stroke="midnightblue" d="M463.763,-364C481.762,-364 501.571,-364 519.701,-364"/>
<polygon fill="midnightblue" stroke="midnightblue" points="519.866,-367.5 529.866,-364 519.866,-360.5 519.866,-367.5"/>
</g>
<!-- Node27&#45;&gt;Node18 -->
<g id="edge35" class="edge"><title>Node27&#45;&gt;Node18</title>
<path fill="none" stroke="midnightblue" d="M259.991,-240.453C280.574,-235.477 306.398,-229.233 330.39,-223.433"/>
<polygon fill="midnightblue" stroke="midnightblue" points="331.287,-226.817 340.184,-221.065 329.642,-220.013 331.287,-226.817"/>
</g>
<!-- Node27&#45;&gt;Node19 -->
<g id="edge36" class="edge"><title>Node27&#45;&gt;Node19</title>
<path fill="none" stroke="midnightblue" d="M285.123,-248.175C337.406,-245.993 412.793,-241.248 478,-231 490.479,-229.039 503.672,-226.332 516.298,-223.42"/>
<polygon fill="midnightblue" stroke="midnightblue" points="517.357,-226.766 526.279,-221.051 515.741,-219.955 517.357,-226.766"/>
</g>
<!-- Node28 -->
<g id="node28" class="node"><title>Node28</title>
<g id="a_node28"><a xlink:href="a00357.html#ga1fcaf8d488cc1390f106ce3ad0bf37b4" target="_top" xlink:title="Output a string to wire automatic translate string to unicode if needed. ">
<polygon fill="white" stroke="black" points="362,-278.5 362,-297.5 445,-297.5 445,-278.5 362,-278.5"/>
<text text-anchor="middle" x="403.5" y="-285.5" font-family="Helvetica,sans-Serif" font-size="10.00">tds_put_string</text>
</a>
</g>
</g>
<!-- Node27&#45;&gt;Node28 -->
<g id="edge37" class="edge"><title>Node27&#45;&gt;Node28</title>
<path fill="none" stroke="midnightblue" d="M266.426,-259.589C292.478,-265.028 325.124,-271.844 351.908,-277.437"/>
<polygon fill="midnightblue" stroke="midnightblue" points="351.357,-280.897 361.861,-279.515 352.787,-274.045 351.357,-280.897"/>
</g>
<!-- Node29 -->
<g id="node29" class="node"><title>Node29</title>
<g id="a_node29"><a xlink:href="a00263.html#aa9e1e45f0305622dd6aed9f8fe158581" target="_top" xlink:title="Initialize an input stream for read from a static allocated buffer. ">
<polygon fill="white" stroke="red" points="518,-278.5 518,-297.5 646,-297.5 646,-278.5 518,-278.5"/>
<text text-anchor="middle" x="582" y="-285.5" font-family="Helvetica,sans-Serif" font-size="10.00">tds_staticin_stream_init</text>
</a>
</g>
</g>
<!-- Node28&#45;&gt;Node29 -->
<g id="edge38" class="edge"><title>Node28&#45;&gt;Node29</title>
<path fill="none" stroke="midnightblue" d="M445.436,-288C463.986,-288 486.495,-288 507.799,-288"/>
<polygon fill="midnightblue" stroke="midnightblue" points="507.809,-291.5 517.809,-288 507.809,-284.5 507.809,-291.5"/>
</g>
<!-- Node30 -->
<g id="node30" class="node"><title>Node30</title>
<g id="a_node30"><a xlink:href="a00263.html#aa038a9125979f8f0915dbd53cbf27e5a" target="_top" xlink:title="Initialize a data output stream. ">
<polygon fill="white" stroke="red" points="517,-316.5 517,-335.5 647,-335.5 647,-316.5 517,-316.5"/>
<text text-anchor="middle" x="582" y="-323.5" font-family="Helvetica,sans-Serif" font-size="10.00">tds_dataout_stream_init</text>
</a>
</g>
</g>
<!-- Node28&#45;&gt;Node30 -->
<g id="edge39" class="edge"><title>Node28&#45;&gt;Node30</title>
<path fill="none" stroke="midnightblue" d="M445.436,-296.813C469.637,-302.024 500.576,-308.685 526.786,-314.328"/>
<polygon fill="midnightblue" stroke="midnightblue" points="526.063,-317.752 536.576,-316.436 527.536,-310.909 526.063,-317.752"/>
</g>
<!-- Node31 -->
<g id="node31" class="node"><title>Node31</title>
<g id="a_node31"><a xlink:href="a00263.html#a9d8eb43a81ff58ab423dce0ce95b9564" target="_top" xlink:title="Reads and writes from a stream converting characters. ">
<polygon fill="white" stroke="red" points="527,-240.5 527,-259.5 637,-259.5 637,-240.5 527,-240.5"/>
<text text-anchor="middle" x="582" y="-247.5" font-family="Helvetica,sans-Serif" font-size="10.00">tds_convert_stream</text>
</a>
</g>
</g>
<!-- Node28&#45;&gt;Node31 -->
<g id="edge40" class="edge"><title>Node28&#45;&gt;Node31</title>
<path fill="none" stroke="midnightblue" d="M445.436,-279.187C469.637,-273.976 500.576,-267.315 526.786,-261.672"/>
<polygon fill="midnightblue" stroke="midnightblue" points="527.536,-265.091 536.576,-259.564 526.063,-258.248 527.536,-265.091"/>
</g>
<!-- Node31&#45;&gt;Node3 -->
<g id="edge42" class="edge"><title>Node31&#45;&gt;Node3</title>
<path fill="none" stroke="midnightblue" d="M629.535,-240.461C718.954,-224.3 919.518,-198.646 1073,-257 1095.46,-265.539 1116.64,-283.408 1130.44,-296.877"/>
<polygon fill="midnightblue" stroke="midnightblue" points="1128.15,-299.539 1137.67,-304.195 1133.13,-294.62 1128.15,-299.539"/>
</g>
<!-- Node31&#45;&gt;Node4 -->
<g id="edge43" class="edge"><title>Node31&#45;&gt;Node4</title>
<path fill="none" stroke="midnightblue" d="M632.507,-259.573C638.732,-262.031 644.749,-265.12 650,-269 679.126,-290.524 698.872,-329.06 708.718,-352.106"/>
<polygon fill="midnightblue" stroke="midnightblue" points="705.527,-353.549 712.544,-361.487 712.009,-350.906 705.527,-353.549"/>
</g>
<!-- Node31&#45;&gt;Node14 -->
<g id="edge41" class="edge"><title>Node31&#45;&gt;Node14</title>
<path fill="none" stroke="midnightblue" d="M631.769,-259.534C646.184,-262.352 661.798,-265.404 675.622,-268.107"/>
<polygon fill="midnightblue" stroke="midnightblue" points="675.308,-271.611 685.794,-270.095 676.652,-264.741 675.308,-271.611"/>
</g>
<!-- Node32&#45;&gt;Node2 -->
<g id="edge45" class="edge"><title>Node32&#45;&gt;Node2</title>
<path fill="none" stroke="midnightblue" d="M449.038,-430.411C474.282,-424.976 505.909,-418.167 531.872,-412.577"/>
<polygon fill="midnightblue" stroke="midnightblue" points="532.844,-415.948 541.884,-410.422 531.371,-409.105 532.844,-415.948"/>
</g>
<!-- Node32&#45;&gt;Node6 -->
<g id="edge46" class="edge"><title>Node32&#45;&gt;Node6</title>
<path fill="none" stroke="midnightblue" d="M467.586,-438.761C586.742,-436.421 843.212,-431.384 957.958,-429.13"/>
<polygon fill="midnightblue" stroke="midnightblue" points="958.353,-432.623 968.282,-428.927 958.215,-425.624 958.353,-432.623"/>
</g>
</g>
</svg>
