<?xml version="1.0" encoding="UTF-8" standalone="no"?>
<!DOCTYPE svg PUBLIC "-//W3C//DTD SVG 1.1//EN"
 "http://www.w3.org/Graphics/SVG/1.1/DTD/svg11.dtd">
<!-- Generated by graphviz version 2.38.0 (20140413.2041)
 -->
<!-- Title: tds_read_config_info Pages: 1 -->
<svg width="753pt" height="522pt"
 viewBox="0.00 0.00 753.00 522.00" xmlns="http://www.w3.org/2000/svg" xmlns:xlink="http://www.w3.org/1999/xlink">
<g id="graph0" class="graph" transform="scale(1 1) rotate(0) translate(4 518)">
<title>tds_read_config_info</title>
<polygon fill="white" stroke="none" points="-4,4 -4,-518 749,-518 749,4 -4,4"/>
<!-- Node1 -->
<g id="node1" class="node"><title>Node1</title>
<polygon fill="#bfbfbf" stroke="black" points="0,-152.5 0,-171.5 116,-171.5 116,-152.5 0,-152.5"/>
<text text-anchor="middle" x="58" y="-159.5" font-family="Helvetica,sans-Serif" font-size="10.00">tds_read_config_info</text>
</g>
<!-- Node2 -->
<g id="node2" class="node"><title>Node2</title>
<g id="a_node2"><a xlink:href="a00355.html#ga2ef389ac3b0cddec76bf8f1c0951bc9c" target="_top" xlink:title="Initialize login structure with locale information and other stuff for connection. ">
<polygon fill="white" stroke="black" points="168,-418.5 168,-437.5 247,-437.5 247,-418.5 168,-418.5"/>
<text text-anchor="middle" x="207.5" y="-425.5" font-family="Helvetica,sans-Serif" font-size="10.00">tds_init_login</text>
</a>
</g>
</g>
<!-- Node1&#45;&gt;Node2 -->
<g id="edge1" class="edge"><title>Node1&#45;&gt;Node2</title>
<path fill="none" stroke="midnightblue" d="M64.4245,-171.783C86.2017,-211.055 167.484,-357.639 196.295,-409.596"/>
<polygon fill="midnightblue" stroke="midnightblue" points="193.271,-411.361 201.182,-418.409 199.393,-407.966 193.271,-411.361"/>
</g>
<!-- Node7 -->
<g id="node7" class="node"><title>Node7</title>
<g id="a_node7"><a xlink:href="a00193.html#a24471508ddfde7cc0f8577801e70c42f" target="_top" xlink:title="Create and truncate a human readable dump file for the TDS traffic. ">
<polygon fill="white" stroke="black" points="333.5,-152.5 333.5,-171.5 419.5,-171.5 419.5,-152.5 333.5,-152.5"/>
<text text-anchor="middle" x="376.5" y="-159.5" font-family="Helvetica,sans-Serif" font-size="10.00">tdsdump_open</text>
</a>
</g>
</g>
<!-- Node1&#45;&gt;Node7 -->
<g id="edge6" class="edge"><title>Node1&#45;&gt;Node7</title>
<path fill="none" stroke="midnightblue" d="M116.316,-162C175.179,-162 266.017,-162 323.042,-162"/>
<polygon fill="midnightblue" stroke="midnightblue" points="323.281,-165.5 333.281,-162 323.281,-158.5 323.281,-165.5"/>
</g>
<!-- Node8 -->
<g id="node8" class="node"><title>Node8</title>
<g id="a_node8"><a xlink:href="a00193.html#ab45c291105027e69836002e1dd586141" target="_top" xlink:title="Write a message to the debug log. ">
<polygon fill="white" stroke="black" points="658.5,-171.5 658.5,-190.5 735.5,-190.5 735.5,-171.5 658.5,-171.5"/>
<text text-anchor="middle" x="697" y="-178.5" font-family="Helvetica,sans-Serif" font-size="10.00">tdsdump_log</text>
</a>
</g>
</g>
<!-- Node1&#45;&gt;Node8 -->
<g id="edge8" class="edge"><title>Node1&#45;&gt;Node8</title>
<path fill="none" stroke="midnightblue" d="M116.145,-156.199C164.723,-151.573 236.353,-145.476 299,-143 367.835,-140.28 385.274,-138.268 454,-143 525.171,-147.9 542.617,-153.355 613,-165 624.534,-166.908 636.927,-169.178 648.527,-171.4"/>
<polygon fill="midnightblue" stroke="midnightblue" points="647.993,-174.862 658.476,-173.33 649.326,-167.99 647.993,-174.862"/>
</g>
<!-- Node9 -->
<g id="node9" class="node"><title>Node9</title>
<g id="a_node9"><a xlink:href="a00352.html#ga0a63cb612f245fd85e56cfea98ff8f3b" target="_top" xlink:title="Read configuration info for given server return 0 on error. ">
<polygon fill="white" stroke="black" points="155.5,-190.5 155.5,-209.5 259.5,-209.5 259.5,-190.5 155.5,-190.5"/>
<text text-anchor="middle" x="207.5" y="-197.5" font-family="Helvetica,sans-Serif" font-size="10.00">tds_read_conf_file</text>
</a>
</g>
</g>
<!-- Node1&#45;&gt;Node9 -->
<g id="edge9" class="edge"><title>Node1&#45;&gt;Node9</title>
<path fill="none" stroke="midnightblue" d="M96.2205,-171.589C115.509,-176.558 139.258,-182.677 159.771,-187.961"/>
<polygon fill="midnightblue" stroke="midnightblue" points="158.99,-191.374 169.547,-190.48 160.737,-184.596 158.99,-191.374"/>
</g>
<!-- Node12 -->
<g id="node12" class="node"><title>Node12</title>
<g id="a_node12"><a xlink:href="a00352.html#gaa9670914093b354e7a123b10ba877813" target="_top" xlink:title="Check the server name to find port info first Warning: connection&#45;&gt; &amp; login&#45;&gt; are all modified when n...">
<polygon fill="white" stroke="black" points="299,-456.5 299,-475.5 454,-475.5 454,-456.5 299,-456.5"/>
<text text-anchor="middle" x="376.5" y="-463.5" font-family="Helvetica,sans-Serif" font-size="10.00">parse_server_name_for_port</text>
</a>
</g>
</g>
<!-- Node1&#45;&gt;Node12 -->
<g id="edge13" class="edge"><title>Node1&#45;&gt;Node12</title>
<path fill="none" stroke="midnightblue" d="M58.6981,-171.669C57.9928,-212.886 61.2367,-375.079 152,-447 199.159,-484.369 270.808,-483.551 320.206,-477.029"/>
<polygon fill="midnightblue" stroke="midnightblue" points="320.993,-480.452 330.392,-475.562 319.995,-473.523 320.993,-480.452"/>
</g>
<!-- Node13 -->
<g id="node13" class="node"><title>Node13</title>
<g id="a_node13"><a xlink:href="a00352.html#ga6631af35ee817f93827c62bbda41674a" target="_top" xlink:title="Try to find the IP number and port for a (possibly) logical server name. ">
<polygon fill="white" stroke="black" points="152,-285.5 152,-304.5 263,-304.5 263,-285.5 152,-285.5"/>
<text text-anchor="middle" x="207.5" y="-292.5" font-family="Helvetica,sans-Serif" font-size="10.00">tds_read_interfaces</text>
</a>
</g>
</g>
<!-- Node1&#45;&gt;Node13 -->
<g id="edge16" class="edge"><title>Node1&#45;&gt;Node13</title>
<path fill="none" stroke="midnightblue" d="M69.6078,-171.565C94.469,-193.982 156.751,-250.141 188.004,-278.322"/>
<polygon fill="midnightblue" stroke="midnightblue" points="185.82,-281.066 195.59,-285.163 190.507,-275.867 185.82,-281.066"/>
</g>
<!-- Node17 -->
<g id="node17" class="node"><title>Node17</title>
<g id="a_node17"><a xlink:href="a00193.html#abf18b98efef6ce2dc0b97d658a3a1918" target="_top" xlink:title="Call the client library&#39;s error handler (for library&#45;generated errors only) ">
<polygon fill="white" stroke="black" points="349.5,-76.5 349.5,-95.5 403.5,-95.5 403.5,-76.5 349.5,-76.5"/>
<text text-anchor="middle" x="376.5" y="-83.5" font-family="Helvetica,sans-Serif" font-size="10.00">tdserror</text>
</a>
</g>
</g>
<!-- Node1&#45;&gt;Node17 -->
<g id="edge27" class="edge"><title>Node1&#45;&gt;Node17</title>
<path fill="none" stroke="midnightblue" d="M72.0729,-152.419C89.3893,-140.282 121.331,-119.77 152,-110 215.685,-89.7121 294.193,-85.8281 339.185,-85.4796"/>
<polygon fill="midnightblue" stroke="midnightblue" points="339.343,-88.9793 349.335,-85.4573 339.328,-81.9794 339.343,-88.9793"/>
</g>
<!-- Node20 -->
<g id="node20" class="node"><title>Node20</title>
<g id="a_node20"><a xlink:href="a00352.html#gacee4f06ba749b10ee9f2e5bb1c4a8910" target="_top" xlink:title="Fix configuration after reading it. ">
<polygon fill="white" stroke="black" points="169.5,-38.5 169.5,-57.5 245.5,-57.5 245.5,-38.5 169.5,-38.5"/>
<text text-anchor="middle" x="207.5" y="-45.5" font-family="Helvetica,sans-Serif" font-size="10.00">tds_fix_login</text>
</a>
</g>
</g>
<!-- Node1&#45;&gt;Node20 -->
<g id="edge32" class="edge"><title>Node1&#45;&gt;Node20</title>
<path fill="none" stroke="midnightblue" d="M66.8187,-152.451C81.7874,-134.66 116.2,-96.0695 152,-72 157.707,-68.1631 164.127,-64.6998 170.506,-61.6751"/>
<polygon fill="midnightblue" stroke="midnightblue" points="172.022,-64.8313 179.732,-57.5647 169.173,-58.4372 172.022,-64.8313"/>
</g>
<!-- Node21 -->
<g id="node21" class="node"><title>Node21</title>
<g id="a_node21"><a xlink:href="a00193.html#a2f00fc0907d3bb04ce0eeb9738e08d0c" target="_top" xlink:title="Close the TDS dump log file. ">
<polygon fill="white" stroke="black" points="164,-0.5 164,-19.5 251,-19.5 251,-0.5 164,-0.5"/>
<text text-anchor="middle" x="207.5" y="-7.5" font-family="Helvetica,sans-Serif" font-size="10.00">tdsdump_close</text>
</a>
</g>
</g>
<!-- Node1&#45;&gt;Node21 -->
<g id="edge33" class="edge"><title>Node1&#45;&gt;Node21</title>
<path fill="none" stroke="midnightblue" d="M63.1194,-152.419C74.0154,-128.177 105.949,-63.8637 152,-29 154.438,-27.1543 157.069,-25.4787 159.813,-23.9588"/>
<polygon fill="midnightblue" stroke="midnightblue" points="161.358,-27.0993 168.859,-19.6171 158.33,-20.7884 161.358,-27.0993"/>
</g>
<!-- Node3 -->
<g id="node3" class="node"><title>Node3</title>
<g id="a_node3"><a xlink:href="a00354.html#ga6561d1dba1a04c168431b16ec17d7e4c" target="_top" xlink:title="Determine canonical iconv character set name. ">
<polygon fill="white" stroke="black" points="299,-494.5 299,-513.5 454,-513.5 454,-494.5 299,-494.5"/>
<text text-anchor="middle" x="376.5" y="-501.5" font-family="Helvetica,sans-Serif" font-size="10.00">tds_canonical_charset_name</text>
</a>
</g>
</g>
<!-- Node2&#45;&gt;Node3 -->
<g id="edge2" class="edge"><title>Node2&#45;&gt;Node3</title>
<path fill="none" stroke="midnightblue" d="M220.969,-437.683C237.792,-450.304 269.105,-472.264 299,-485 304.783,-487.464 310.955,-489.655 317.188,-491.593"/>
<polygon fill="midnightblue" stroke="midnightblue" points="316.409,-495.011 326.988,-494.431 318.356,-488.287 316.409,-495.011"/>
</g>
<!-- Node5 -->
<g id="node5" class="node"><title>Node5</title>
<g id="a_node5"><a xlink:href="a00358.html#gad96366d9fa93bfc283cef1299fbe97ab" target="_top" xlink:title="copy a string from another ">
<polygon fill="white" stroke="black" points="510,-418.5 510,-437.5 593,-437.5 593,-418.5 510,-418.5"/>
<text text-anchor="middle" x="551.5" y="-425.5" font-family="Helvetica,sans-Serif" font-size="10.00">tds_dstr_copy</text>
</a>
</g>
</g>
<!-- Node2&#45;&gt;Node5 -->
<g id="edge4" class="edge"><title>Node2&#45;&gt;Node5</title>
<path fill="none" stroke="midnightblue" d="M247.067,-428C309.045,-428 430.828,-428 499.773,-428"/>
<polygon fill="midnightblue" stroke="midnightblue" points="499.958,-431.5 509.958,-428 499.958,-424.5 499.958,-431.5"/>
</g>
<!-- Node4 -->
<g id="node4" class="node"><title>Node4</title>
<g id="a_node4"><a xlink:href="a00354.html#ga38c0ac641a8c6e25e91ee9205c3c50c5" target="_top" xlink:title="Determine canonical iconv character set. ">
<polygon fill="white" stroke="black" points="490,-494.5 490,-513.5 613,-513.5 613,-494.5 490,-494.5"/>
<text text-anchor="middle" x="551.5" y="-501.5" font-family="Helvetica,sans-Serif" font-size="10.00">tds_canonical_charset</text>
</a>
</g>
</g>
<!-- Node3&#45;&gt;Node4 -->
<g id="edge3" class="edge"><title>Node3&#45;&gt;Node4</title>
<path fill="none" stroke="midnightblue" d="M454.136,-504C462.617,-504 471.227,-504 479.633,-504"/>
<polygon fill="midnightblue" stroke="midnightblue" points="479.763,-507.5 489.763,-504 479.763,-500.5 479.763,-507.5"/>
</g>
<!-- Node6 -->
<g id="node6" class="node"><title>Node6</title>
<g id="a_node6"><a xlink:href="a00358.html#ga656718f240d7403f986ae887d84a6ca1" target="_top" xlink:title="Set string to a given buffer of characters. ">
<polygon fill="white" stroke="black" points="652.5,-437.5 652.5,-456.5 741.5,-456.5 741.5,-437.5 652.5,-437.5"/>
<text text-anchor="middle" x="697" y="-444.5" font-family="Helvetica,sans-Serif" font-size="10.00">tds_dstr_copyn</text>
</a>
</g>
</g>
<!-- Node5&#45;&gt;Node6 -->
<g id="edge5" class="edge"><title>Node5&#45;&gt;Node6</title>
<path fill="none" stroke="midnightblue" d="M593.237,-433.394C608.54,-435.42 626.172,-437.754 642.463,-439.911"/>
<polygon fill="midnightblue" stroke="midnightblue" points="642.028,-443.384 652.4,-441.227 642.946,-436.445 642.028,-443.384"/>
</g>
<!-- Node7&#45;&gt;Node8 -->
<g id="edge7" class="edge"><title>Node7&#45;&gt;Node8</title>
<path fill="none" stroke="midnightblue" d="M419.794,-164.523C478.98,-168.054 586.2,-174.45 648.206,-178.149"/>
<polygon fill="midnightblue" stroke="midnightblue" points="648.305,-181.661 658.496,-178.763 648.722,-174.673 648.305,-181.661"/>
</g>
<!-- Node9&#45;&gt;Node8 -->
<g id="edge10" class="edge"><title>Node9&#45;&gt;Node8</title>
<path fill="none" stroke="midnightblue" d="M259.6,-198.65C336.355,-196.528 485.958,-192.024 613,-186 624.371,-185.461 636.613,-184.779 648.109,-184.094"/>
<polygon fill="midnightblue" stroke="midnightblue" points="648.642,-187.569 658.412,-183.468 648.218,-180.581 648.642,-187.569"/>
</g>
<!-- Node10 -->
<g id="node10" class="node"><title>Node10</title>
<g id="a_node10"><a xlink:href="a00352.html#gaf49eca946d1b2457e189de7207e3670c" target="_top" xlink:title="Return filename from HOME directory. ">
<polygon fill="white" stroke="black" points="324.5,-228.5 324.5,-247.5 428.5,-247.5 428.5,-228.5 324.5,-228.5"/>
<text text-anchor="middle" x="376.5" y="-235.5" font-family="Helvetica,sans-Serif" font-size="10.00">tds_get_home_file</text>
</a>
</g>
</g>
<!-- Node9&#45;&gt;Node10 -->
<g id="edge11" class="edge"><title>Node9&#45;&gt;Node10</title>
<path fill="none" stroke="midnightblue" d="M250.641,-209.589C272.877,-214.649 300.348,-220.9 323.856,-226.249"/>
<polygon fill="midnightblue" stroke="midnightblue" points="323.135,-229.674 333.662,-228.48 324.688,-222.848 323.135,-229.674"/>
</g>
<!-- Node11 -->
<g id="node11" class="node"><title>Node11</title>
<g id="a_node11"><a xlink:href="a00193.html#a6fb8c78f678c0016c12096765ab2f5c1" target="_top" xlink:title="Get user home directory. ">
<polygon fill="white" stroke="black" points="503.5,-228.5 503.5,-247.5 599.5,-247.5 599.5,-228.5 503.5,-228.5"/>
<text text-anchor="middle" x="551.5" y="-235.5" font-family="Helvetica,sans-Serif" font-size="10.00">tds_get_homedir</text>
</a>
</g>
</g>
<!-- Node10&#45;&gt;Node11 -->
<g id="edge12" class="edge"><title>Node10&#45;&gt;Node11</title>
<path fill="none" stroke="midnightblue" d="M428.937,-238C449.131,-238 472.394,-238 493.128,-238"/>
<polygon fill="midnightblue" stroke="midnightblue" points="493.394,-241.5 503.394,-238 493.394,-234.5 493.394,-241.5"/>
</g>
<!-- Node12&#45;&gt;Node5 -->
<g id="edge14" class="edge"><title>Node12&#45;&gt;Node5</title>
<path fill="none" stroke="midnightblue" d="M421.155,-456.411C445.085,-451.155 474.867,-444.613 499.819,-439.132"/>
<polygon fill="midnightblue" stroke="midnightblue" points="500.814,-442.497 509.83,-436.933 499.312,-435.66 500.814,-442.497"/>
</g>
<!-- Node12&#45;&gt;Node6 -->
<g id="edge15" class="edge"><title>Node12&#45;&gt;Node6</title>
<path fill="none" stroke="midnightblue" d="M454.194,-461.425C512.227,-457.963 590.478,-453.295 642.042,-450.219"/>
<polygon fill="midnightblue" stroke="midnightblue" points="642.531,-453.696 652.304,-449.607 642.114,-446.708 642.531,-453.696"/>
</g>
<!-- Node13&#45;&gt;Node5 -->
<g id="edge26" class="edge"><title>Node13&#45;&gt;Node5</title>
<path fill="none" stroke="midnightblue" d="M216.951,-304.608C231.838,-320.903 264.449,-353.852 299,-371 363.854,-403.188 447.134,-417.456 499.679,-423.599"/>
<polygon fill="midnightblue" stroke="midnightblue" points="499.438,-427.093 509.764,-424.722 500.213,-420.136 499.438,-427.093"/>
</g>
<!-- Node13&#45;&gt;Node8 -->
<g id="edge17" class="edge"><title>Node13&#45;&gt;Node8</title>
<path fill="none" stroke="midnightblue" d="M263.081,-294.143C358.601,-291.943 551.748,-284.172 613,-257 642.161,-244.064 667.889,-216.712 682.7,-198.596"/>
<polygon fill="midnightblue" stroke="midnightblue" points="685.605,-200.564 689.061,-190.548 680.114,-196.223 685.605,-200.564"/>
</g>
<!-- Node13&#45;&gt;Node10 -->
<g id="edge24" class="edge"><title>Node13&#45;&gt;Node10</title>
<path fill="none" stroke="midnightblue" d="M233.747,-285.444C251.839,-278.681 276.826,-269.517 299,-262 310.318,-258.164 322.648,-254.201 334.039,-250.629"/>
<polygon fill="midnightblue" stroke="midnightblue" points="335.251,-253.917 343.758,-247.603 333.17,-247.234 335.251,-253.917"/>
</g>
<!-- Node14 -->
<g id="node14" class="node"><title>Node14</title>
<g id="a_node14"><a xlink:href="a00352.html#gaca20b6e5f5a5ac1727126712dd39564b" target="_top" xlink:title="Open and read the file &#39;file&#39; searching for a logical server by the name of &#39;host&#39;. ">
<polygon fill="white" stroke="black" points="318.5,-342.5 318.5,-361.5 434.5,-361.5 434.5,-342.5 318.5,-342.5"/>
<text text-anchor="middle" x="376.5" y="-349.5" font-family="Helvetica,sans-Serif" font-size="10.00">search_interface_file</text>
</a>
</g>
</g>
<!-- Node13&#45;&gt;Node14 -->
<g id="edge18" class="edge"><title>Node13&#45;&gt;Node14</title>
<path fill="none" stroke="midnightblue" d="M233.747,-304.556C251.839,-311.319 276.826,-320.483 299,-328 310.318,-331.836 322.648,-335.799 334.039,-339.371"/>
<polygon fill="midnightblue" stroke="midnightblue" points="333.17,-342.766 343.758,-342.397 335.251,-336.083 333.17,-342.766"/>
</g>
<!-- Node15 -->
<g id="node15" class="node"><title>Node15</title>
<g id="a_node15"><a xlink:href="a00352.html#ga45281d1cb2ac649db65d80bb3ff06b66" target="_top" xlink:title="Given a portname lookup the port. ">
<polygon fill="white" stroke="red" points="505.5,-304.5 505.5,-323.5 597.5,-323.5 597.5,-304.5 505.5,-304.5"/>
<text text-anchor="middle" x="551.5" y="-311.5" font-family="Helvetica,sans-Serif" font-size="10.00">tds_lookup_port</text>
</a>
</g>
</g>
<!-- Node13&#45;&gt;Node15 -->
<g id="edge25" class="edge"><title>Node13&#45;&gt;Node15</title>
<path fill="none" stroke="midnightblue" d="M263.069,-298.032C326.665,-301.565 431.178,-307.371 495.12,-310.923"/>
<polygon fill="midnightblue" stroke="midnightblue" points="495.229,-314.435 505.408,-311.495 495.617,-307.445 495.229,-314.435"/>
</g>
<!-- Node14&#45;&gt;Node5 -->
<g id="edge20" class="edge"><title>Node14&#45;&gt;Node5</title>
<path fill="none" stroke="midnightblue" d="M417.495,-361.613C429.586,-365.287 442.656,-370.058 454,-376 471.956,-385.405 472.403,-393.94 490,-404 496.966,-407.983 504.724,-411.603 512.297,-414.755"/>
<polygon fill="midnightblue" stroke="midnightblue" points="511.131,-418.058 521.717,-418.489 513.711,-411.55 511.131,-418.058"/>
</g>
<!-- Node14&#45;&gt;Node8 -->
<g id="edge19" class="edge"><title>Node14&#45;&gt;Node8</title>
<path fill="none" stroke="midnightblue" d="M423.257,-361.512C443.596,-365.278 467.893,-369.146 490,-371 544.475,-375.568 567.257,-400.934 613,-371 672.066,-332.346 689.344,-241.42 694.196,-200.988"/>
<polygon fill="midnightblue" stroke="midnightblue" points="697.702,-201.112 695.278,-190.798 690.741,-200.373 697.702,-201.112"/>
</g>
<!-- Node14&#45;&gt;Node15 -->
<g id="edge21" class="edge"><title>Node14&#45;&gt;Node15</title>
<path fill="none" stroke="midnightblue" d="M421.155,-342.411C444.293,-337.329 472.902,-331.045 497.327,-325.68"/>
<polygon fill="midnightblue" stroke="midnightblue" points="498.142,-329.084 507.159,-323.52 496.641,-322.247 498.142,-329.084"/>
</g>
<!-- Node16 -->
<g id="node16" class="node"><title>Node16</title>
<g id="a_node16"><a xlink:href="a00352.html#gade94d7e89ba1f668c82be0b00a7f5cd7" target="_top" xlink:title="Set TDS version from given string. ">
<polygon fill="white" stroke="black" points="502.5,-342.5 502.5,-361.5 600.5,-361.5 600.5,-342.5 502.5,-342.5"/>
<text text-anchor="middle" x="551.5" y="-349.5" font-family="Helvetica,sans-Serif" font-size="10.00">tds_config_verstr</text>
</a>
</g>
</g>
<!-- Node14&#45;&gt;Node16 -->
<g id="edge22" class="edge"><title>Node14&#45;&gt;Node16</title>
<path fill="none" stroke="midnightblue" d="M434.626,-352C453.144,-352 473.701,-352 492.297,-352"/>
<polygon fill="midnightblue" stroke="midnightblue" points="492.401,-355.5 502.401,-352 492.4,-348.5 492.401,-355.5"/>
</g>
<!-- Node16&#45;&gt;Node8 -->
<g id="edge23" class="edge"><title>Node16&#45;&gt;Node8</title>
<path fill="none" stroke="midnightblue" d="M596.858,-342.495C602.661,-340.023 608.236,-336.913 613,-333 656.418,-297.337 680.676,-232.744 690.61,-200.462"/>
<polygon fill="midnightblue" stroke="midnightblue" points="693.976,-201.422 693.437,-190.841 687.26,-199.448 693.976,-201.422"/>
</g>
<!-- Node17&#45;&gt;Node8 -->
<g id="edge28" class="edge"><title>Node17&#45;&gt;Node8</title>
<path fill="none" stroke="midnightblue" d="M403.845,-83.72C448.76,-80.8923 542.164,-79.6666 613,-110 641.013,-121.996 666.563,-146.91 681.704,-163.796"/>
<polygon fill="midnightblue" stroke="midnightblue" points="679.065,-166.095 688.266,-171.349 684.349,-161.504 679.065,-166.095"/>
</g>
<!-- Node18 -->
<g id="node18" class="node"><title>Node18</title>
<g id="a_node18"><a xlink:href="a00356.html#ga11338742dc30fd0c2711f58eb830316f" target="_top" xlink:title="tds_send_cancel() sends an empty packet (8 byte header only) tds_process_cancel should be called dire...">
<polygon fill="white" stroke="black" points="503,-38.5 503,-57.5 600,-57.5 600,-38.5 503,-38.5"/>
<text text-anchor="middle" x="551.5" y="-45.5" font-family="Helvetica,sans-Serif" font-size="10.00">tds_send_cancel</text>
</a>
</g>
</g>
<!-- Node17&#45;&gt;Node18 -->
<g id="edge29" class="edge"><title>Node17&#45;&gt;Node18</title>
<path fill="none" stroke="midnightblue" d="M403.775,-80.2286C428.51,-74.7955 466.288,-66.4974 497.316,-59.6821"/>
<polygon fill="midnightblue" stroke="midnightblue" points="498.111,-63.0909 507.127,-57.5269 496.609,-56.2539 498.111,-63.0909"/>
</g>
<!-- Node18&#45;&gt;Node8 -->
<g id="edge30" class="edge"><title>Node18&#45;&gt;Node8</title>
<path fill="none" stroke="midnightblue" d="M585.917,-57.5567C595.233,-61.1709 604.987,-65.9232 613,-72 646.148,-97.1375 672.744,-138.805 686.269,-162.683"/>
<polygon fill="midnightblue" stroke="midnightblue" points="683.207,-164.378 691.097,-171.449 689.338,-161.001 683.207,-164.378"/>
</g>
<!-- Node19 -->
<g id="node19" class="node"><title>Node19</title>
<g id="a_node19"><a xlink:href="a00357.html#ga5feb53554e8917a81bbbc332163a61fb" target="_top" xlink:title="Flush packet to server. ">
<polygon fill="white" stroke="black" points="649,-38.5 649,-57.5 745,-57.5 745,-38.5 649,-38.5"/>
<text text-anchor="middle" x="697" y="-45.5" font-family="Helvetica,sans-Serif" font-size="10.00">tds_flush_packet</text>
</a>
</g>
</g>
<!-- Node18&#45;&gt;Node19 -->
<g id="edge31" class="edge"><title>Node18&#45;&gt;Node19</title>
<path fill="none" stroke="midnightblue" d="M600.283,-48C612.635,-48 626.058,-48 638.836,-48"/>
<polygon fill="midnightblue" stroke="midnightblue" points="638.913,-51.5001 648.913,-48 638.913,-44.5001 638.913,-51.5001"/>
</g>
</g>
</svg>
