<?xml version="1.0" encoding="UTF-8" standalone="no"?>
<!DOCTYPE svg PUBLIC "-//W3C//DTD SVG 1.1//EN"
 "http://www.w3.org/Graphics/SVG/1.1/DTD/svg11.dtd">
<!-- Generated by graphviz version 2.38.0 (20140413.2041)
 -->
<!-- Title: tds_process_end Pages: 1 -->
<svg width="861pt" height="516pt"
 viewBox="0.00 0.00 861.00 515.64" xmlns="http://www.w3.org/2000/svg" xmlns:xlink="http://www.w3.org/1999/xlink">
<g id="graph0" class="graph" transform="scale(1 1) rotate(0) translate(4 511.638)">
<title>tds_process_end</title>
<polygon fill="white" stroke="none" points="-4,4 -4,-511.638 857,-511.638 857,4 -4,4"/>
<!-- Node1 -->
<g id="node1" class="node"><title>Node1</title>
<polygon fill="#bfbfbf" stroke="black" points="0,-484.916 0,-503.916 98,-503.916 98,-484.916 0,-484.916"/>
<text text-anchor="middle" x="49" y="-491.916" font-family="Helvetica,sans-Serif" font-size="10.00">tds_process_end</text>
</g>
<!-- Node2 -->
<g id="node2" class="node"><title>Node2</title>
<g id="a_node2"><a xlink:href="a00359.html#ga39453d084f3f780ac4602d4abf2839f7" target="_top" xlink:title="tds_process_default_tokens() is a catch all function that is called to process tokens not known to ot...">
<polygon fill="white" stroke="black" points="134,-425.416 134,-455.416 246,-455.416 246,-425.416 134,-425.416"/>
<text text-anchor="start" x="142" y="-443.416" font-family="Helvetica,sans-Serif" font-size="10.00">tds_process_default</text>
<text text-anchor="middle" x="190" y="-432.416" font-family="Helvetica,sans-Serif" font-size="10.00">_tokens</text>
</a>
</g>
</g>
<!-- Node1&#45;&gt;Node2 -->
<g id="edge1" class="edge"><title>Node1&#45;&gt;Node2</title>
<path fill="none" stroke="midnightblue" d="M83.8987,-481.247C103.959,-473.454 129.44,-463.555 150.289,-455.455"/>
<polygon fill="midnightblue" stroke="midnightblue" points="82.5843,-478.003 74.5304,-484.886 85.1192,-484.528 82.5843,-478.003"/>
</g>
<!-- Node4 -->
<g id="node4" class="node"><title>Node4</title>
<g id="a_node4"><a xlink:href="a00359.html#gabfc9de1d1fe718818caf63a4be4035a6" target="_top" xlink:title="process all streams. ">
<polygon fill="white" stroke="black" points="418,-292.916 418,-311.916 530,-311.916 530,-292.916 418,-292.916"/>
<text text-anchor="middle" x="474" y="-299.916" font-family="Helvetica,sans-Serif" font-size="10.00">tds_process_tokens</text>
</a>
</g>
</g>
<!-- Node1&#45;&gt;Node4 -->
<g id="edge23" class="edge"><title>Node1&#45;&gt;Node4</title>
<path fill="none" stroke="midnightblue" d="M108.184,-503.257C178.86,-510.844 298.917,-513.289 382,-459.416 437.511,-423.422 463.184,-340.833 470.618,-312.315"/>
<polygon fill="midnightblue" stroke="midnightblue" points="108.458,-499.765 98.1254,-502.106 107.663,-506.72 108.458,-499.765"/>
</g>
<!-- Node3 -->
<g id="node3" class="node"><title>Node3</title>
<g id="a_node3"><a xlink:href="a00359.html#ga93945b42d45ee28ae1296b35a1c1e9bb" target="_top" xlink:title="tds_process_login_tokens() is called after sending the login packet to the server. ">
<polygon fill="white" stroke="black" points="713,-444.916 713,-463.916 853,-463.916 853,-444.916 713,-444.916"/>
<text text-anchor="middle" x="783" y="-451.916" font-family="Helvetica,sans-Serif" font-size="10.00">tds_process_login_tokens</text>
</a>
</g>
</g>
<!-- Node2&#45;&gt;Node3 -->
<g id="edge2" class="edge"><title>Node2&#45;&gt;Node3</title>
<path fill="none" stroke="midnightblue" d="M252.887,-458.059C345.593,-482.006 525.795,-518.936 677,-492.416 707.743,-487.024 741.347,-473.385 762.054,-464.004"/>
<polygon fill="midnightblue" stroke="midnightblue" points="253.668,-454.646 243.107,-455.497 251.893,-461.417 253.668,-454.646"/>
</g>
<!-- Node2&#45;&gt;Node4 -->
<g id="edge3" class="edge"><title>Node2&#45;&gt;Node4</title>
<path fill="none" stroke="midnightblue" d="M230.708,-420.985C291.981,-391 407.307,-334.564 453.317,-312.048"/>
<polygon fill="midnightblue" stroke="midnightblue" points="229.159,-417.846 221.716,-425.385 232.236,-424.133 229.159,-417.846"/>
</g>
<!-- Node18 -->
<g id="node18" class="node"><title>Node18</title>
<g id="a_node18"><a xlink:href="a00359.html#ga81cdf0ed9e8d29cf1ddf66e18efc407d" target="_top" xlink:title="tds_process_msg() is called for MSG, ERR, or EED tokens and is responsible for calling the CLI&#39;s mess...">
<polygon fill="white" stroke="black" points="282,-430.916 282,-449.916 382,-449.916 382,-430.916 282,-430.916"/>
<text text-anchor="middle" x="332" y="-437.916" font-family="Helvetica,sans-Serif" font-size="10.00">tds_process_msg</text>
</a>
</g>
</g>
<!-- Node2&#45;&gt;Node18 -->
<g id="edge20" class="edge"><title>Node2&#45;&gt;Node18</title>
<path fill="none" stroke="midnightblue" d="M256.369,-433.679C264.983,-433.63 273.69,-433.718 281.967,-433.943"/>
<polygon fill="midnightblue" stroke="midnightblue" points="256.289,-430.18 246.332,-433.8 256.373,-437.18 256.289,-430.18"/>
</g>
<!-- Node5 -->
<g id="node5" class="node"><title>Node5</title>
<g id="a_node5"><a xlink:href="a00344.html#gae67546338cb9542a4902aa914f57f314" target="_top" xlink:title="_bcp_exec_out">
<polygon fill="white" stroke="red" points="577.5,-349.916 577.5,-368.916 665.5,-368.916 665.5,-349.916 577.5,-349.916"/>
<text text-anchor="middle" x="621.5" y="-356.916" font-family="Helvetica,sans-Serif" font-size="10.00">_bcp_exec_out</text>
</a>
</g>
</g>
<!-- Node4&#45;&gt;Node5 -->
<g id="edge4" class="edge"><title>Node4&#45;&gt;Node5</title>
<path fill="none" stroke="midnightblue" d="M506.585,-316.155C524.006,-323.594 546.084,-332.794 566,-340.416 574.423,-343.64 583.659,-346.945 592.096,-349.876"/>
<polygon fill="midnightblue" stroke="midnightblue" points="507.487,-312.733 496.917,-312.004 504.725,-319.165 507.487,-312.733"/>
</g>
<!-- Node6 -->
<g id="node6" class="node"><title>Node6</title>
<g id="a_node6"><a xlink:href="a00341.html#gaf1879b85e8238c015b9648d077665285" target="_top" xlink:title="_dbresults">
<polygon fill="white" stroke="red" points="589,-311.916 589,-330.916 654,-330.916 654,-311.916 589,-311.916"/>
<text text-anchor="middle" x="621.5" y="-318.916" font-family="Helvetica,sans-Serif" font-size="10.00">_dbresults</text>
</a>
</g>
</g>
<!-- Node4&#45;&gt;Node6 -->
<g id="edge5" class="edge"><title>Node4&#45;&gt;Node6</title>
<path fill="none" stroke="midnightblue" d="M540.348,-310.95C557.118,-313.14 574.418,-315.399 588.634,-317.255"/>
<polygon fill="midnightblue" stroke="midnightblue" points="540.376,-307.424 530.007,-309.599 539.47,-314.365 540.376,-307.424"/>
</g>
<!-- Node7 -->
<g id="node7" class="node"><title>Node7</title>
<g id="a_node7"><a xlink:href="a00342.html#gaff09873008411a0573f6d1a9e6c7cf4b" target="_top" xlink:title="Get count of output parameters filled by a stored procedure. ">
<polygon fill="white" stroke="red" points="589,-273.916 589,-292.916 654,-292.916 654,-273.916 589,-273.916"/>
<text text-anchor="middle" x="621.5" y="-280.916" font-family="Helvetica,sans-Serif" font-size="10.00">dbnumrets</text>
</a>
</g>
</g>
<!-- Node4&#45;&gt;Node7 -->
<g id="edge6" class="edge"><title>Node4&#45;&gt;Node7</title>
<path fill="none" stroke="midnightblue" d="M540.348,-293.883C557.118,-291.693 574.418,-289.434 588.634,-287.577"/>
<polygon fill="midnightblue" stroke="midnightblue" points="539.47,-290.468 530.007,-295.233 540.376,-297.409 539.47,-290.468"/>
</g>
<!-- Node8 -->
<g id="node8" class="node"><title>Node8</title>
<g id="a_node8"><a xlink:href="a00341.html#gae1f50a6a2c31fda57cb481922b06841e" target="_top" xlink:title="Wait for results of a query from the server. ">
<polygon fill="white" stroke="red" points="595,-235.916 595,-254.916 648,-254.916 648,-235.916 595,-235.916"/>
<text text-anchor="middle" x="621.5" y="-242.916" font-family="Helvetica,sans-Serif" font-size="10.00">dbsqlok</text>
</a>
</g>
</g>
<!-- Node4&#45;&gt;Node8 -->
<g id="edge7" class="edge"><title>Node4&#45;&gt;Node8</title>
<path fill="none" stroke="midnightblue" d="M506.585,-288.678C524.006,-281.239 546.084,-272.038 566,-264.416 575.358,-260.835 585.722,-257.152 594.877,-253.994"/>
<polygon fill="midnightblue" stroke="midnightblue" points="504.725,-285.667 496.917,-292.829 507.487,-292.099 504.725,-285.667"/>
</g>
<!-- Node9 -->
<g id="node9" class="node"><title>Node9</title>
<g id="a_node9"><a xlink:href="a00341.html#ga548153eb2eae76c48aa9d4b72258dc1c" target="_top" xlink:title="Send text or image data to the server. ">
<polygon fill="white" stroke="black" points="749,-216.916 749,-235.916 817,-235.916 817,-216.916 749,-216.916"/>
<text text-anchor="middle" x="783" y="-223.916" font-family="Helvetica,sans-Serif" font-size="10.00">dbwritetext</text>
</a>
</g>
</g>
<!-- Node4&#45;&gt;Node9 -->
<g id="edge10" class="edge"><title>Node4&#45;&gt;Node9</title>
<path fill="none" stroke="midnightblue" d="M489.031,-285.037C505.279,-266.437 533.949,-238.04 566,-226.416 627.517,-204.106 705.53,-212.211 748.967,-219.633"/>
<polygon fill="midnightblue" stroke="midnightblue" points="486.254,-282.901 482.473,-292.798 491.6,-287.419 486.254,-282.901"/>
</g>
<!-- Node10 -->
<g id="node10" class="node"><title>Node10</title>
<g id="a_node10"><a xlink:href="a00341.html#ga559e24ba70d0d96c3469eb6ab8f74e05" target="_top" xlink:title="Cancel the query currently being retrieved, discarding all pending rows. ">
<polygon fill="white" stroke="red" points="586,-159.916 586,-178.916 657,-178.916 657,-159.916 586,-159.916"/>
<text text-anchor="middle" x="621.5" y="-166.916" font-family="Helvetica,sans-Serif" font-size="10.00">dbcanquery</text>
</a>
</g>
</g>
<!-- Node4&#45;&gt;Node10 -->
<g id="edge9" class="edge"><title>Node4&#45;&gt;Node10</title>
<path fill="none" stroke="midnightblue" d="M486.472,-283.977C501.994,-260.303 531.719,-219.207 566,-193.416 573.849,-187.512 583.377,-182.684 592.258,-178.948"/>
<polygon fill="midnightblue" stroke="midnightblue" points="483.34,-282.377 480.89,-292.685 489.233,-286.155 483.34,-282.377"/>
</g>
<!-- Node11 -->
<g id="node11" class="node"><title>Node11</title>
<g id="a_node11"><a xlink:href="a00341.html#gadd5685565c8c6c86079e17b8a73b324c" target="_top" xlink:title="Fetch part of a text or image value from the server. ">
<polygon fill="white" stroke="black" points="588,-121.916 588,-140.916 655,-140.916 655,-121.916 588,-121.916"/>
<text text-anchor="middle" x="621.5" y="-128.916" font-family="Helvetica,sans-Serif" font-size="10.00">dbreadtext</text>
</a>
</g>
</g>
<!-- Node4&#45;&gt;Node11 -->
<g id="edge11" class="edge"><title>Node4&#45;&gt;Node11</title>
<path fill="none" stroke="midnightblue" d="M481.573,-283.092C493.44,-251.012 521.431,-186.709 566,-150.416 572.294,-145.291 580.061,-141.507 587.739,-138.729"/>
<polygon fill="midnightblue" stroke="midnightblue" points="478.227,-282.055 478.166,-292.649 484.821,-284.405 478.227,-282.055"/>
</g>
<!-- Node12 -->
<g id="node12" class="node"><title>Node12</title>
<g id="a_node12"><a xlink:href="a00341.html#gac980139b9cea03cf93e373d425991481" target="_top" xlink:title="Transmit the command buffer to the server. ">
<polygon fill="white" stroke="red" points="589,-83.9163 589,-102.916 654,-102.916 654,-83.9163 589,-83.9163"/>
<text text-anchor="middle" x="621.5" y="-90.9163" font-family="Helvetica,sans-Serif" font-size="10.00">dbsqlsend</text>
</a>
</g>
</g>
<!-- Node4&#45;&gt;Node12 -->
<g id="edge12" class="edge"><title>Node4&#45;&gt;Node12</title>
<path fill="none" stroke="midnightblue" d="M479.141,-282.624C488.161,-244.324 513.154,-159.689 566,-112.416 572.423,-106.671 580.681,-102.641 588.816,-99.8235"/>
<polygon fill="midnightblue" stroke="midnightblue" points="475.692,-282.009 476.925,-292.532 482.523,-283.536 475.692,-282.009"/>
</g>
<!-- Node13 -->
<g id="node13" class="node"><title>Node13</title>
<g id="a_node13"><a xlink:href="a00356.html#gaf0da49585d39e99780a004ee2ca23479" target="_top" xlink:title="Send option commands to server. ">
<polygon fill="white" stroke="black" points="722.5,-17.9163 722.5,-36.9163 843.5,-36.9163 843.5,-17.9163 722.5,-17.9163"/>
<text text-anchor="middle" x="783" y="-24.9163" font-family="Helvetica,sans-Serif" font-size="10.00">tds_submit_optioncmd</text>
</a>
</g>
</g>
<!-- Node4&#45;&gt;Node13 -->
<g id="edge13" class="edge"><title>Node4&#45;&gt;Node13</title>
<path fill="none" stroke="midnightblue" d="M474.373,-282.763C473.9,-230.2 480.767,-86.1992 566,-24.4163 622.783,16.7441 711.864,-3.82903 755.759,-17.9094"/>
<polygon fill="midnightblue" stroke="midnightblue" points="470.874,-282.857 474.567,-292.787 477.872,-282.721 470.874,-282.857"/>
</g>
<!-- Node14 -->
<g id="node14" class="node"><title>Node14</title>
<g id="a_node14"><a xlink:href="a00193.html#ac6610c72bd31bad5378f760fa9b12d66" target="_top" xlink:title="Initialize BCP information. ">
<polygon fill="white" stroke="red" points="585,-463.916 585,-482.916 658,-482.916 658,-463.916 585,-463.916"/>
<text text-anchor="middle" x="621.5" y="-470.916" font-family="Helvetica,sans-Serif" font-size="10.00">tds_bcp_init</text>
</a>
</g>
</g>
<!-- Node4&#45;&gt;Node14 -->
<g id="edge14" class="edge"><title>Node4&#45;&gt;Node14</title>
<path fill="none" stroke="midnightblue" d="M481.573,-321.74C493.44,-353.821 521.431,-418.124 566,-454.416 571.517,-458.909 578.166,-462.37 584.894,-465.028"/>
<polygon fill="midnightblue" stroke="midnightblue" points="484.821,-320.427 478.166,-312.183 478.227,-322.778 484.821,-320.427"/>
</g>
<!-- Node15 -->
<g id="node15" class="node"><title>Node15</title>
<g id="a_node15"><a xlink:href="a00359.html#ga55f27c3e05d42c9b07ace1c74b11c5ab" target="_top" xlink:title="Retrieve and set @spid. ">
<polygon fill="white" stroke="black" points="583,-387.916 583,-406.916 660,-406.916 660,-387.916 583,-387.916"/>
<text text-anchor="middle" x="621.5" y="-394.916" font-family="Helvetica,sans-Serif" font-size="10.00">tds_set_spid</text>
</a>
</g>
</g>
<!-- Node4&#45;&gt;Node15 -->
<g id="edge15" class="edge"><title>Node4&#45;&gt;Node15</title>
<path fill="none" stroke="midnightblue" d="M491.288,-319.202C508.504,-336.133 537.116,-362.045 566,-378.416 572.538,-382.122 579.923,-385.287 587.097,-387.91"/>
<polygon fill="midnightblue" stroke="midnightblue" points="493.762,-316.726 484.22,-312.121 488.808,-321.671 493.762,-316.726"/>
</g>
<!-- Node16 -->
<g id="node16" class="node"><title>Node16</title>
<g id="a_node16"><a xlink:href="a00359.html#gaeeb1562044786ea17bea361ed83e6946" target="_top" xlink:title="Process results for simple query as &quot;SET TEXTSIZE&quot; or &quot;USE dbname&quot; If the statement returns results...">
<polygon fill="white" stroke="red" points="566.5,-34.4163 566.5,-64.4163 676.5,-64.4163 676.5,-34.4163 566.5,-34.4163"/>
<text text-anchor="start" x="574.5" y="-52.4163" font-family="Helvetica,sans-Serif" font-size="10.00">tds_process_simple</text>
<text text-anchor="middle" x="621.5" y="-41.4163" font-family="Helvetica,sans-Serif" font-size="10.00">_query</text>
</a>
</g>
</g>
<!-- Node4&#45;&gt;Node16 -->
<g id="edge17" class="edge"><title>Node4&#45;&gt;Node16</title>
<path fill="none" stroke="midnightblue" d="M477.812,-282.81C484.941,-239.766 507.498,-135.94 566,-74.4163 569.658,-70.569 574.022,-67.2624 578.665,-64.4338"/>
<polygon fill="midnightblue" stroke="midnightblue" points="474.333,-282.401 476.255,-292.82 481.25,-283.477 474.333,-282.401"/>
</g>
<!-- Node17 -->
<g id="node17" class="node"><title>Node17</title>
<g id="a_node17"><a xlink:href="a00359.html#gaf233e79967f82f4e0dd4d11524917a34" target="_top" xlink:title="tds_process_cancel">
<polygon fill="white" stroke="red" points="566,-425.916 566,-444.916 677,-444.916 677,-425.916 566,-425.916"/>
<text text-anchor="middle" x="621.5" y="-432.916" font-family="Helvetica,sans-Serif" font-size="10.00">tds_process_cancel</text>
</a>
</g>
</g>
<!-- Node4&#45;&gt;Node17 -->
<g id="edge19" class="edge"><title>Node4&#45;&gt;Node17</title>
<path fill="none" stroke="midnightblue" d="M485.309,-321.069C500.069,-346.149 529.513,-390.572 566,-416.416 571.397,-420.239 577.633,-423.353 583.918,-425.871"/>
<polygon fill="midnightblue" stroke="midnightblue" points="488.232,-319.131 480.225,-312.192 482.158,-322.609 488.232,-319.131"/>
</g>
<!-- Node8&#45;&gt;Node9 -->
<g id="edge8" class="edge"><title>Node8&#45;&gt;Node9</title>
<path fill="none" stroke="midnightblue" d="M658.371,-241.143C685.525,-237.909 722.532,-233.5 748.965,-230.351"/>
<polygon fill="midnightblue" stroke="midnightblue" points="657.642,-237.705 648.126,-242.364 658.47,-244.656 657.642,-237.705"/>
</g>
<!-- Node15&#45;&gt;Node3 -->
<g id="edge16" class="edge"><title>Node15&#45;&gt;Node3</title>
<path fill="none" stroke="midnightblue" d="M659.583,-410.279C665.416,-412.321 671.375,-414.418 677,-416.416 703.854,-425.956 734.489,-437.07 755.708,-444.804"/>
<polygon fill="midnightblue" stroke="midnightblue" points="660.563,-406.914 649.968,-406.922 658.256,-413.522 660.563,-406.914"/>
</g>
<!-- Node16&#45;&gt;Node13 -->
<g id="edge18" class="edge"><title>Node16&#45;&gt;Node13</title>
<path fill="none" stroke="midnightblue" d="M687.05,-40.5128C698.711,-38.9044 710.823,-37.2338 722.337,-35.6457"/>
<polygon fill="midnightblue" stroke="midnightblue" points="686.373,-37.073 676.945,-41.9067 687.329,-44.0074 686.373,-37.073"/>
</g>
<!-- Node18&#45;&gt;Node2 -->
<g id="edge21" class="edge"><title>Node18&#45;&gt;Node2</title>
<path fill="none" stroke="midnightblue" d="M271.806,-447.094C263.36,-447.208 254.7,-447.187 246.332,-447.033"/>
<polygon fill="midnightblue" stroke="midnightblue" points="272.04,-450.59 281.967,-446.89 271.899,-443.592 272.04,-450.59"/>
</g>
<!-- Node18&#45;&gt;Node4 -->
<g id="edge22" class="edge"><title>Node18&#45;&gt;Node4</title>
<path fill="none" stroke="midnightblue" d="M350.237,-423.425C379.833,-394.252 439.403,-335.533 463.023,-312.251"/>
<polygon fill="midnightblue" stroke="midnightblue" points="347.733,-420.979 343.068,-430.492 352.647,-425.964 347.733,-420.979"/>
</g>
</g>
</svg>
