<?xml version="1.0" encoding="UTF-8" standalone="no"?>
<!DOCTYPE svg PUBLIC "-//W3C//DTD SVG 1.1//EN"
 "http://www.w3.org/Graphics/SVG/1.1/DTD/svg11.dtd">
<!-- Generated by graphviz version 2.38.0 (20140413.2041)
 -->
<!-- Title: src/tds/iconv.c Pages: 1 -->
<svg width="1205pt" height="252pt"
 viewBox="0.00 0.00 1204.50 252.00" xmlns="http://www.w3.org/2000/svg" xmlns:xlink="http://www.w3.org/1999/xlink">
<g id="graph0" class="graph" transform="scale(1 1) rotate(0) translate(4 248)">
<title>src/tds/iconv.c</title>
<polygon fill="white" stroke="none" points="-4,4 -4,-248 1200.5,-248 1200.5,4 -4,4"/>
<!-- Node1 -->
<g id="node1" class="node"><title>Node1</title>
<polygon fill="#bfbfbf" stroke="black" points="943,-224.5 943,-243.5 1026,-243.5 1026,-224.5 943,-224.5"/>
<text text-anchor="middle" x="984.5" y="-231.5" font-family="Helvetica,sans-Serif" font-size="10.00">src/tds/iconv.c</text>
</g>
<!-- Node2 -->
<g id="node2" class="node"><title>Node2</title>
<polygon fill="white" stroke="#bfbfbf" points="427,-168.5 427,-187.5 480,-187.5 480,-168.5 427,-168.5"/>
<text text-anchor="middle" x="453.5" y="-175.5" font-family="Helvetica,sans-Serif" font-size="10.00">config.h</text>
</g>
<!-- Node1&#45;&gt;Node2 -->
<g id="edge1" class="edge"><title>Node1&#45;&gt;Node2</title>
<path fill="none" stroke="midnightblue" d="M942.987,-230.936C858.272,-226.339 659.538,-213.59 494.5,-188 493.204,-187.799 491.887,-187.582 490.559,-187.352"/>
<polygon fill="midnightblue" stroke="midnightblue" points="490.796,-183.833 480.316,-185.388 489.478,-190.708 490.796,-183.833"/>
</g>
<!-- Node3 -->
<g id="node3" class="node"><title>Node3</title>
<polygon fill="white" stroke="#bfbfbf" points="863,-56.5 863,-75.5 918,-75.5 918,-56.5 863,-56.5"/>
<text text-anchor="middle" x="890.5" y="-63.5" font-family="Helvetica,sans-Serif" font-size="10.00">stdarg.h</text>
</g>
<!-- Node1&#45;&gt;Node3 -->
<g id="edge2" class="edge"><title>Node1&#45;&gt;Node3</title>
<path fill="none" stroke="midnightblue" d="M979.446,-224.075C964.522,-197.719 920.443,-119.878 900.501,-84.6608"/>
<polygon fill="midnightblue" stroke="midnightblue" points="903.325,-82.5452 895.352,-75.5681 897.234,-85.9945 903.325,-82.5452"/>
</g>
<!-- Node4 -->
<g id="node4" class="node"><title>Node4</title>
<polygon fill="white" stroke="#bfbfbf" points="0,-112.5 0,-131.5 47,-131.5 47,-112.5 0,-112.5"/>
<text text-anchor="middle" x="23.5" y="-119.5" font-family="Helvetica,sans-Serif" font-size="10.00">stdio.h</text>
</g>
<!-- Node1&#45;&gt;Node4 -->
<g id="edge3" class="edge"><title>Node1&#45;&gt;Node4</title>
<path fill="none" stroke="midnightblue" d="M942.75,-230.89C845.221,-225.638 604.846,-210.745 527.5,-188 508.812,-182.504 507.229,-173.355 488.5,-168 306.424,-115.939 248.22,-163.793 57.2578,-131.759"/>
<polygon fill="midnightblue" stroke="midnightblue" points="57.6256,-128.27 47.1753,-130.014 56.4322,-135.168 57.6256,-128.27"/>
</g>
<!-- Node5 -->
<g id="node5" class="node"><title>Node5</title>
<polygon fill="white" stroke="#bfbfbf" points="1050.5,-168.5 1050.5,-187.5 1104.5,-187.5 1104.5,-168.5 1050.5,-168.5"/>
<text text-anchor="middle" x="1077.5" y="-175.5" font-family="Helvetica,sans-Serif" font-size="10.00">assert.h</text>
</g>
<!-- Node1&#45;&gt;Node5 -->
<g id="edge4" class="edge"><title>Node1&#45;&gt;Node5</title>
<path fill="none" stroke="midnightblue" d="M999.442,-224.324C1014.09,-215.822 1036.63,-202.729 1053.74,-192.797"/>
<polygon fill="midnightblue" stroke="midnightblue" points="1055.7,-195.703 1062.6,-187.655 1052.19,-189.649 1055.7,-195.703"/>
</g>
<!-- Node6 -->
<g id="node6" class="node"><title>Node6</title>
<g id="a_node6"><a xlink:href="a00193.html" target="_top" xlink:title="Main include file for libtds. ">
<polygon fill="white" stroke="black" points="537,-168.5 537,-187.5 612,-187.5 612,-168.5 537,-168.5"/>
<text text-anchor="middle" x="574.5" y="-175.5" font-family="Helvetica,sans-Serif" font-size="10.00">freetds/tds.h</text>
</a>
</g>
</g>
<!-- Node1&#45;&gt;Node6 -->
<g id="edge5" class="edge"><title>Node1&#45;&gt;Node6</title>
<path fill="none" stroke="midnightblue" d="M942.931,-227.525C866.302,-217.432 703.22,-195.953 622.214,-185.284"/>
<polygon fill="midnightblue" stroke="midnightblue" points="622.655,-181.812 612.283,-183.976 621.741,-188.752 622.655,-181.812"/>
</g>
<!-- Node19 -->
<g id="node19" class="node"><title>Node19</title>
<g id="a_node19"><a xlink:href="a00184_source.html" target="_top" xlink:title="freetds/iconv.h">
<polygon fill="white" stroke="black" points="974.5,-56.5 974.5,-75.5 1060.5,-75.5 1060.5,-56.5 974.5,-56.5"/>
<text text-anchor="middle" x="1017.5" y="-63.5" font-family="Helvetica,sans-Serif" font-size="10.00">freetds/iconv.h</text>
</a>
</g>
</g>
<!-- Node1&#45;&gt;Node19 -->
<g id="edge26" class="edge"><title>Node1&#45;&gt;Node19</title>
<path fill="none" stroke="midnightblue" d="M987.561,-224.476C990.687,-215.501 995.495,-200.91 998.5,-188 1006.83,-152.225 1012.57,-109.639 1015.42,-85.7214"/>
<polygon fill="midnightblue" stroke="midnightblue" points="1018.92,-85.926 1016.59,-75.591 1011.97,-85.1245 1018.92,-85.926"/>
</g>
<!-- Node20 -->
<g id="node20" class="node"><title>Node20</title>
<g id="a_node20"><a xlink:href="a00300_source.html" target="_top" xlink:title="encodings.h">
<polygon fill="white" stroke="black" points="1122.5,-168.5 1122.5,-187.5 1196.5,-187.5 1196.5,-168.5 1122.5,-168.5"/>
<text text-anchor="middle" x="1159.5" y="-175.5" font-family="Helvetica,sans-Serif" font-size="10.00">encodings.h</text>
</a>
</g>
</g>
<!-- Node1&#45;&gt;Node20 -->
<g id="edge29" class="edge"><title>Node1&#45;&gt;Node20</title>
<path fill="none" stroke="midnightblue" d="M1012.23,-224.444C1041.93,-215.28 1089.22,-200.688 1122.17,-190.519"/>
<polygon fill="midnightblue" stroke="midnightblue" points="1123.38,-193.809 1131.9,-187.516 1121.31,-187.121 1123.38,-193.809"/>
</g>
<!-- Node6&#45;&gt;Node3 -->
<g id="edge6" class="edge"><title>Node6&#45;&gt;Node3</title>
<path fill="none" stroke="midnightblue" d="M612.113,-177.438C687.656,-177.433 853.67,-172.676 889.5,-132 900.438,-119.582 899.175,-100.066 896.098,-85.6564"/>
<polygon fill="midnightblue" stroke="midnightblue" points="899.452,-84.6434 893.565,-75.8348 892.674,-86.3921 899.452,-84.6434"/>
</g>
<!-- Node6&#45;&gt;Node4 -->
<g id="edge7" class="edge"><title>Node6&#45;&gt;Node4</title>
<path fill="none" stroke="midnightblue" d="M536.789,-170.043C531.99,-169.285 527.137,-168.579 522.5,-168 319.594,-142.66 262.936,-166.711 57.0884,-131.742"/>
<polygon fill="midnightblue" stroke="midnightblue" points="57.6216,-128.282 47.1722,-130.032 56.4318,-135.181 57.6216,-128.282"/>
</g>
<!-- Node7 -->
<g id="node7" class="node"><title>Node7</title>
<g id="a_node7"><a xlink:href="a00195_source.html" target="_top" xlink:title="time.h">
<polygon fill="white" stroke="black" points="169.5,-112.5 169.5,-131.5 213.5,-131.5 213.5,-112.5 169.5,-112.5"/>
<text text-anchor="middle" x="191.5" y="-119.5" font-family="Helvetica,sans-Serif" font-size="10.00">time.h</text>
</a>
</g>
</g>
<!-- Node6&#45;&gt;Node7 -->
<g id="edge8" class="edge"><title>Node6&#45;&gt;Node7</title>
<path fill="none" stroke="midnightblue" d="M536.757,-170.275C531.963,-169.478 527.12,-168.7 522.5,-168 399.753,-149.41 368.304,-150.208 245.5,-132 238.343,-130.939 230.668,-129.713 223.415,-128.514"/>
<polygon fill="midnightblue" stroke="midnightblue" points="223.982,-125.061 213.541,-126.857 222.824,-131.964 223.982,-125.061"/>
</g>
<!-- Node8 -->
<g id="node8" class="node"><title>Node8</title>
<g id="a_node8"><a xlink:href="a00197_source.html" target="_top" xlink:title="freetds/version.h">
<polygon fill="white" stroke="black" points="288,-112.5 288,-131.5 383,-131.5 383,-112.5 288,-112.5"/>
<text text-anchor="middle" x="335.5" y="-119.5" font-family="Helvetica,sans-Serif" font-size="10.00">freetds/version.h</text>
</a>
</g>
</g>
<!-- Node6&#45;&gt;Node8 -->
<g id="edge10" class="edge"><title>Node6&#45;&gt;Node8</title>
<path fill="none" stroke="midnightblue" d="M536.893,-168.503C495.341,-159.115 428.335,-143.975 383.141,-133.764"/>
<polygon fill="midnightblue" stroke="midnightblue" points="383.807,-130.326 373.282,-131.536 382.264,-137.154 383.807,-130.326"/>
</g>
<!-- Node9 -->
<g id="node9" class="node"><title>Node9</title>
<polygon fill="white" stroke="#bfbfbf" points="401,-112.5 401,-131.5 512,-131.5 512,-112.5 401,-112.5"/>
<text text-anchor="middle" x="456.5" y="-119.5" font-family="Helvetica,sans-Serif" font-size="10.00">tds_sysdep_public.h</text>
</g>
<!-- Node6&#45;&gt;Node9 -->
<g id="edge11" class="edge"><title>Node6&#45;&gt;Node9</title>
<path fill="none" stroke="midnightblue" d="M555.803,-168.444C536.556,-159.636 506.348,-145.812 484.3,-135.722"/>
<polygon fill="midnightblue" stroke="midnightblue" points="485.66,-132.495 475.11,-131.516 482.747,-138.86 485.66,-132.495"/>
</g>
<!-- Node10 -->
<g id="node10" class="node"><title>Node10</title>
<g id="a_node10"><a xlink:href="a00192_source.html" target="_top" xlink:title="freetds/sysdep_private.h">
<polygon fill="white" stroke="black" points="637,-112.5 637,-131.5 770,-131.5 770,-112.5 637,-112.5"/>
<text text-anchor="middle" x="703.5" y="-119.5" font-family="Helvetica,sans-Serif" font-size="10.00">freetds/sysdep_private.h</text>
</a>
</g>
</g>
<!-- Node6&#45;&gt;Node10 -->
<g id="edge12" class="edge"><title>Node6&#45;&gt;Node10</title>
<path fill="none" stroke="midnightblue" d="M594.94,-168.444C616.17,-159.557 649.599,-145.563 673.755,-135.451"/>
<polygon fill="midnightblue" stroke="midnightblue" points="675.282,-138.606 683.155,-131.516 672.579,-132.149 675.282,-138.606"/>
</g>
<!-- Node11 -->
<g id="node11" class="node"><title>Node11</title>
<g id="a_node11"><a xlink:href="a00194_source.html" target="_top" xlink:title="freetds/thread.h">
<polygon fill="white" stroke="black" points="788.5,-112.5 788.5,-131.5 880.5,-131.5 880.5,-112.5 788.5,-112.5"/>
<text text-anchor="middle" x="834.5" y="-119.5" font-family="Helvetica,sans-Serif" font-size="10.00">freetds/thread.h</text>
</a>
</g>
</g>
<!-- Node6&#45;&gt;Node11 -->
<g id="edge13" class="edge"><title>Node6&#45;&gt;Node11</title>
<path fill="none" stroke="midnightblue" d="M612.029,-169.206C657.155,-159.833 733.105,-144.059 783.515,-133.589"/>
<polygon fill="midnightblue" stroke="midnightblue" points="784.472,-136.965 793.552,-131.505 783.049,-130.111 784.472,-136.965"/>
</g>
<!-- Node12 -->
<g id="node12" class="node"><title>Node12</title>
<g id="a_node12"><a xlink:href="a00202_source.html" target="_top" xlink:title="replacements.h">
<polygon fill="white" stroke="black" points="530,-112.5 530,-131.5 619,-131.5 619,-112.5 530,-112.5"/>
<text text-anchor="middle" x="574.5" y="-119.5" font-family="Helvetica,sans-Serif" font-size="10.00">replacements.h</text>
</a>
</g>
</g>
<!-- Node6&#45;&gt;Node12 -->
<g id="edge14" class="edge"><title>Node6&#45;&gt;Node12</title>
<path fill="none" stroke="midnightblue" d="M574.5,-168.083C574.5,-161.006 574.5,-150.861 574.5,-141.986"/>
<polygon fill="midnightblue" stroke="midnightblue" points="578,-141.751 574.5,-131.751 571,-141.751 578,-141.751"/>
</g>
<!-- Node15 -->
<g id="node15" class="node"><title>Node15</title>
<g id="a_node15"><a xlink:href="a00188_source.html" target="_top" xlink:title="freetds/pushvis.h">
<polygon fill="white" stroke="black" points="842.5,-0.5 842.5,-19.5 938.5,-19.5 938.5,-0.5 842.5,-0.5"/>
<text text-anchor="middle" x="890.5" y="-7.5" font-family="Helvetica,sans-Serif" font-size="10.00">freetds/pushvis.h</text>
</a>
</g>
</g>
<!-- Node6&#45;&gt;Node15 -->
<g id="edge23" class="edge"><title>Node6&#45;&gt;Node15</title>
<path fill="none" stroke="midnightblue" d="M612.206,-176.83C689.899,-175.715 864.248,-169.036 908.5,-132 935.119,-109.721 937.99,-88.7554 926.5,-56 922.715,-45.2094 915.133,-35.084 907.9,-27.1808"/>
<polygon fill="midnightblue" stroke="midnightblue" points="910.167,-24.4943 900.662,-19.8145 905.174,-29.4005 910.167,-24.4943"/>
</g>
<!-- Node16 -->
<g id="node16" class="node"><title>Node16</title>
<g id="a_node16"><a xlink:href="a00186_source.html" target="_top" xlink:title="freetds/popvis.h">
<polygon fill="white" stroke="black" points="515.5,-0.5 515.5,-19.5 607.5,-19.5 607.5,-0.5 515.5,-0.5"/>
<text text-anchor="middle" x="561.5" y="-7.5" font-family="Helvetica,sans-Serif" font-size="10.00">freetds/popvis.h</text>
</a>
</g>
</g>
<!-- Node6&#45;&gt;Node16 -->
<g id="edge25" class="edge"><title>Node6&#45;&gt;Node16</title>
<path fill="none" stroke="midnightblue" d="M536.745,-170.352C531.953,-169.542 527.114,-168.74 522.5,-168 468.382,-159.326 314.316,-173.488 278.5,-132 211.321,-54.1821 404.956,-24.9886 505.326,-15.2855"/>
<polygon fill="midnightblue" stroke="midnightblue" points="505.691,-18.7668 515.323,-14.3536 505.042,-11.797 505.691,-18.7668"/>
</g>
<!-- Node18 -->
<g id="node18" class="node"><title>Node18</title>
<g id="a_node18"><a xlink:href="a00187_source.html" target="_top" xlink:title="freetds/proto.h">
<polygon fill="white" stroke="black" points="65.5,-112.5 65.5,-131.5 151.5,-131.5 151.5,-112.5 65.5,-112.5"/>
<text text-anchor="middle" x="108.5" y="-119.5" font-family="Helvetica,sans-Serif" font-size="10.00">freetds/proto.h</text>
</a>
</g>
</g>
<!-- Node6&#45;&gt;Node18 -->
<g id="edge24" class="edge"><title>Node6&#45;&gt;Node18</title>
<path fill="none" stroke="midnightblue" d="M536.776,-170.141C531.979,-169.366 527.13,-168.63 522.5,-168 365.58,-146.646 322.462,-153.502 161.839,-132.088"/>
<polygon fill="midnightblue" stroke="midnightblue" points="161.971,-128.574 151.593,-130.705 161.035,-135.511 161.971,-128.574"/>
</g>
<!-- Node7&#45;&gt;Node7 -->
<g id="edge9" class="edge"><title>Node7&#45;&gt;Node7</title>
<path fill="none" stroke="midnightblue" d="M208.768,-131.575C220.287,-134.27 231.5,-131.078 231.5,-122 231.5,-115.759 226.2,-112.3 219.145,-111.623"/>
<polygon fill="midnightblue" stroke="midnightblue" points="218.469,-108.165 208.768,-112.425 219.008,-115.144 218.469,-108.165"/>
</g>
<!-- Node12&#45;&gt;Node3 -->
<g id="edge15" class="edge"><title>Node12&#45;&gt;Node3</title>
<path fill="none" stroke="midnightblue" d="M619.029,-113.416C621.896,-112.935 624.738,-112.459 627.5,-112 725.668,-95.6696 750.705,-94.4315 848.5,-76 849.966,-75.7238 851.459,-75.4358 852.966,-75.1395"/>
<polygon fill="midnightblue" stroke="midnightblue" points="853.876,-78.5261 862.977,-73.1021 852.48,-71.6667 853.876,-78.5261"/>
</g>
<!-- Node13 -->
<g id="node13" class="node"><title>Node13</title>
<g id="a_node13"><a xlink:href="a00210_source.html" target="_top" xlink:title="tds_sysdep_public.h">
<polygon fill="white" stroke="black" points="429,-56.5 429,-75.5 540,-75.5 540,-56.5 429,-56.5"/>
<text text-anchor="middle" x="484.5" y="-63.5" font-family="Helvetica,sans-Serif" font-size="10.00">tds_sysdep_public.h</text>
</a>
</g>
</g>
<!-- Node12&#45;&gt;Node13 -->
<g id="edge16" class="edge"><title>Node12&#45;&gt;Node13</title>
<path fill="none" stroke="midnightblue" d="M560.04,-112.324C546,-103.9 524.452,-90.9709 507.957,-81.0741"/>
<polygon fill="midnightblue" stroke="midnightblue" points="509.3,-77.7983 498.924,-75.6545 505.698,-83.8007 509.3,-77.7983"/>
</g>
<!-- Node14 -->
<g id="node14" class="node"><title>Node14</title>
<g id="a_node14"><a xlink:href="a00203_source.html" target="_top" xlink:title="replacements/readpassphrase.h">
<polygon fill="white" stroke="black" points="638,-56.5 638,-75.5 807,-75.5 807,-56.5 638,-56.5"/>
<text text-anchor="middle" x="722.5" y="-63.5" font-family="Helvetica,sans-Serif" font-size="10.00">replacements/readpassphrase.h</text>
</a>
</g>
</g>
<!-- Node12&#45;&gt;Node14 -->
<g id="edge17" class="edge"><title>Node12&#45;&gt;Node14</title>
<path fill="none" stroke="midnightblue" d="M597.951,-112.444C622.633,-103.438 661.685,-89.1891 689.477,-79.049"/>
<polygon fill="midnightblue" stroke="midnightblue" points="690.964,-82.2321 699.159,-75.5164 688.565,-75.6561 690.964,-82.2321"/>
</g>
<!-- Node12&#45;&gt;Node15 -->
<g id="edge21" class="edge"><title>Node12&#45;&gt;Node15</title>
<path fill="none" stroke="midnightblue" d="M619.149,-113.285C686.367,-101.581 806.694,-80.2466 815.5,-76 839.857,-64.2541 862.536,-42.4816 876.442,-27.3901"/>
<polygon fill="midnightblue" stroke="midnightblue" points="879.17,-29.5899 883.219,-19.7994 873.948,-24.9278 879.17,-29.5899"/>
</g>
<!-- Node12&#45;&gt;Node16 -->
<g id="edge22" class="edge"><title>Node12&#45;&gt;Node16</title>
<path fill="none" stroke="midnightblue" d="M536.58,-112.49C493.045,-102.341 426.672,-85.5507 419.5,-76 393.53,-41.4178 455.053,-24.6956 505.12,-17.0028"/>
<polygon fill="midnightblue" stroke="midnightblue" points="505.875,-20.4303 515.273,-15.5386 504.875,-13.502 505.875,-20.4303"/>
</g>
<!-- Node17 -->
<g id="node17" class="node"><title>Node17</title>
<g id="a_node17"><a xlink:href="a00178.html" target="_top" xlink:title="Provide poll call where missing. ">
<polygon fill="white" stroke="red" points="557.5,-56.5 557.5,-75.5 619.5,-75.5 619.5,-56.5 557.5,-56.5"/>
<text text-anchor="middle" x="588.5" y="-63.5" font-family="Helvetica,sans-Serif" font-size="10.00">fakepoll.h</text>
</a>
</g>
</g>
<!-- Node12&#45;&gt;Node17 -->
<g id="edge20" class="edge"><title>Node12&#45;&gt;Node17</title>
<path fill="none" stroke="midnightblue" d="M576.812,-112.083C578.667,-104.927 581.335,-94.6353 583.654,-85.6911"/>
<polygon fill="midnightblue" stroke="midnightblue" points="587.109,-86.3094 586.231,-75.7511 580.334,-84.5527 587.109,-86.3094"/>
</g>
<!-- Node14&#45;&gt;Node15 -->
<g id="edge18" class="edge"><title>Node14&#45;&gt;Node15</title>
<path fill="none" stroke="midnightblue" d="M749.12,-56.4435C777.506,-47.3196 822.637,-32.8133 854.253,-22.6509"/>
<polygon fill="midnightblue" stroke="midnightblue" points="855.555,-25.9087 864.004,-19.5164 853.413,-19.2445 855.555,-25.9087"/>
</g>
<!-- Node14&#45;&gt;Node16 -->
<g id="edge19" class="edge"><title>Node14&#45;&gt;Node16</title>
<path fill="none" stroke="midnightblue" d="M696.989,-56.4435C669.904,-47.3591 626.91,-32.9388 596.631,-22.7831"/>
<polygon fill="midnightblue" stroke="midnightblue" points="597.486,-19.3781 586.892,-19.5164 595.26,-26.0148 597.486,-19.3781"/>
</g>
<!-- Node19&#45;&gt;Node15 -->
<g id="edge27" class="edge"><title>Node19&#45;&gt;Node15</title>
<path fill="none" stroke="midnightblue" d="M997.376,-56.4435C976.476,-47.5566 943.565,-33.5632 919.784,-23.4514"/>
<polygon fill="midnightblue" stroke="midnightblue" points="921.102,-20.2085 910.529,-19.5164 918.362,-26.6504 921.102,-20.2085"/>
</g>
<!-- Node19&#45;&gt;Node16 -->
<g id="edge28" class="edge"><title>Node19&#45;&gt;Node16</title>
<path fill="none" stroke="midnightblue" d="M974.19,-59.8711C891.155,-50.0381 709.652,-28.5443 617.53,-17.6352"/>
<polygon fill="midnightblue" stroke="midnightblue" points="617.899,-14.1545 607.557,-16.4541 617.076,-21.1059 617.899,-14.1545"/>
</g>
</g>
</svg>
