<?xml version="1.0" encoding="UTF-8" standalone="no"?>
<!DOCTYPE svg PUBLIC "-//W3C//DTD SVG 1.1//EN"
 "http://www.w3.org/Graphics/SVG/1.1/DTD/svg11.dtd">
<!-- Generated by graphviz version 2.38.0 (20140413.2041)
 -->
<!-- Title: include/freetds/tds.h Pages: 1 -->
<svg width="1290pt" height="84pt"
 viewBox="0.00 0.00 1289.50 84.00" xmlns="http://www.w3.org/2000/svg" xmlns:xlink="http://www.w3.org/1999/xlink">
<g id="graph0" class="graph" transform="scale(1 1) rotate(0) translate(4 80)">
<title>include/freetds/tds.h</title>
<polygon fill="white" stroke="none" points="-4,4 -4,-80 1285.5,-80 1285.5,4 -4,4"/>
<!-- Node1 -->
<g id="node1" class="node"><title>Node1</title>
<polygon fill="#bfbfbf" stroke="black" points="589.5,-56.5 589.5,-75.5 700.5,-75.5 700.5,-56.5 589.5,-56.5"/>
<text text-anchor="middle" x="645" y="-63.5" font-family="Helvetica,sans-Serif" font-size="10.00">include/freetds/tds.h</text>
</g>
<!-- Node2 -->
<g id="node2" class="node"><title>Node2</title>
<g id="a_node2"><a xlink:href="a00233.html" target="_top" xlink:title="Implementation of db&#45;lib bulk copy functions. ">
<polygon fill="white" stroke="black" points="0,-0.5 0,-19.5 82,-19.5 82,-0.5 0,-0.5"/>
<text text-anchor="middle" x="41" y="-7.5" font-family="Helvetica,sans-Serif" font-size="10.00">src/dblib/bcp.c</text>
</a>
</g>
</g>
<!-- Node1&#45;&gt;Node2 -->
<g id="edge1" class="edge"><title>Node1&#45;&gt;Node2</title>
<path fill="none" stroke="midnightblue" d="M579.346,-61.7342C475.405,-56.0993 266.717,-42.8962 91,-20 88.1138,-19.6239 85.1408,-19.1952 82.1514,-18.7338"/>
<polygon fill="midnightblue" stroke="midnightblue" points="579.203,-65.2315 589.376,-62.272 579.578,-58.2415 579.203,-65.2315"/>
</g>
<!-- Node3 -->
<g id="node3" class="node"><title>Node3</title>
<g id="a_node3"><a xlink:href="a00235.html" target="_top" xlink:title="Main implementation file for db&#45;lib. ">
<polygon fill="white" stroke="black" points="100,-0.5 100,-19.5 186,-19.5 186,-0.5 100,-0.5"/>
<text text-anchor="middle" x="143" y="-7.5" font-family="Helvetica,sans-Serif" font-size="10.00">src/dblib/dblib.c</text>
</a>
</g>
</g>
<!-- Node1&#45;&gt;Node3 -->
<g id="edge2" class="edge"><title>Node1&#45;&gt;Node3</title>
<path fill="none" stroke="midnightblue" d="M579.347,-59.9195C491.562,-52.7872 331.194,-38.5714 195,-20 192.095,-19.6039 189.104,-19.1662 186.093,-18.7034"/>
<polygon fill="midnightblue" stroke="midnightblue" points="579.178,-63.4171 589.427,-60.7332 579.742,-56.4398 579.178,-63.4171"/>
</g>
<!-- Node4 -->
<g id="node4" class="node"><title>Node4</title>
<g id="a_node4"><a xlink:href="a00261_source.html" target="_top" xlink:title="src/pool/pool.h">
<polygon fill="white" stroke="black" points="204,-0.5 204,-19.5 290,-19.5 290,-0.5 204,-0.5"/>
<text text-anchor="middle" x="247" y="-7.5" font-family="Helvetica,sans-Serif" font-size="10.00">src/pool/pool.h</text>
</a>
</g>
</g>
<!-- Node1&#45;&gt;Node4 -->
<g id="edge3" class="edge"><title>Node1&#45;&gt;Node4</title>
<path fill="none" stroke="midnightblue" d="M579.514,-57.315C509.848,-48.945 396.472,-34.7669 299,-20 296.101,-19.5608 293.115,-19.0908 290.108,-18.6046"/>
<polygon fill="midnightblue" stroke="midnightblue" points="579.123,-60.7931 589.468,-58.5071 579.956,-53.8428 579.123,-60.7931"/>
</g>
<!-- Node5 -->
<g id="node5" class="node"><title>Node5</title>
<g id="a_node5"><a xlink:href="a00274.html" target="_top" xlink:title="This file implements a very simple iconv. ">
<polygon fill="white" stroke="black" points="308.5,-0.5 308.5,-19.5 441.5,-19.5 441.5,-0.5 308.5,-0.5"/>
<text text-anchor="middle" x="375" y="-7.5" font-family="Helvetica,sans-Serif" font-size="10.00">src/replacements/iconv.c</text>
</a>
</g>
</g>
<!-- Node1&#45;&gt;Node5 -->
<g id="edge4" class="edge"><title>Node1&#45;&gt;Node5</title>
<path fill="none" stroke="midnightblue" d="M592.367,-54.4734C541.339,-44.2678 464.897,-28.9794 417.582,-19.5164"/>
<polygon fill="midnightblue" stroke="midnightblue" points="591.725,-57.9143 602.218,-56.4435 593.098,-51.0503 591.725,-57.9143"/>
</g>
<!-- Node6 -->
<g id="node6" class="node"><title>Node6</title>
<g id="a_node6"><a xlink:href="a00294.html" target="_top" xlink:title="Handle bulk copy. ">
<polygon fill="white" stroke="black" points="459.5,-0.5 459.5,-19.5 536.5,-19.5 536.5,-0.5 459.5,-0.5"/>
<text text-anchor="middle" x="498" y="-7.5" font-family="Helvetica,sans-Serif" font-size="10.00">src/tds/bulk.c</text>
</a>
</g>
</g>
<!-- Node1&#45;&gt;Node6 -->
<g id="edge5" class="edge"><title>Node1&#45;&gt;Node6</title>
<path fill="none" stroke="midnightblue" d="M612.077,-52.9058C584.44,-42.7536 545.656,-28.5063 521.184,-19.5164"/>
<polygon fill="midnightblue" stroke="midnightblue" points="611.114,-56.2806 621.707,-56.4435 613.528,-49.71 611.114,-56.2806"/>
</g>
<!-- Node7 -->
<g id="node7" class="node"><title>Node7</title>
<g id="a_node7"><a xlink:href="a00298.html" target="_top" xlink:title="Handle different data handling from network. ">
<polygon fill="white" stroke="black" points="555,-0.5 555,-19.5 635,-19.5 635,-0.5 555,-0.5"/>
<text text-anchor="middle" x="595" y="-7.5" font-family="Helvetica,sans-Serif" font-size="10.00">src/tds/data.c</text>
</a>
</g>
</g>
<!-- Node1&#45;&gt;Node7 -->
<g id="edge6" class="edge"><title>Node1&#45;&gt;Node7</title>
<path fill="none" stroke="midnightblue" d="M629.924,-48.7175C621.111,-39.1997 610.334,-27.5608 603.103,-19.7511"/>
<polygon fill="midnightblue" stroke="midnightblue" points="627.381,-51.1233 636.744,-56.083 632.518,-46.3674 627.381,-51.1233"/>
</g>
<!-- Node8 -->
<g id="node8" class="node"><title>Node8</title>
<g id="a_node8"><a xlink:href="a00275.html" target="_top" xlink:title="Handle character conversions to/from server. ">
<polygon fill="white" stroke="black" points="653.5,-0.5 653.5,-19.5 736.5,-19.5 736.5,-0.5 653.5,-0.5"/>
<text text-anchor="middle" x="695" y="-7.5" font-family="Helvetica,sans-Serif" font-size="10.00">src/tds/iconv.c</text>
</a>
</g>
</g>
<!-- Node1&#45;&gt;Node8 -->
<g id="edge7" class="edge"><title>Node1&#45;&gt;Node8</title>
<path fill="none" stroke="midnightblue" d="M660.076,-48.7175C668.889,-39.1997 679.666,-27.5608 686.897,-19.7511"/>
<polygon fill="midnightblue" stroke="midnightblue" points="657.482,-46.3674 653.256,-56.083 662.619,-51.1233 657.482,-46.3674"/>
</g>
<!-- Node9 -->
<g id="node9" class="node"><title>Node9</title>
<g id="a_node9"><a xlink:href="a00315.html" target="_top" xlink:title="Grab data from TDS packets. ">
<polygon fill="white" stroke="black" points="755,-0.5 755,-19.5 835,-19.5 835,-0.5 755,-0.5"/>
<text text-anchor="middle" x="795" y="-7.5" font-family="Helvetica,sans-Serif" font-size="10.00">src/tds/read.c</text>
</a>
</g>
</g>
<!-- Node1&#45;&gt;Node9 -->
<g id="edge8" class="edge"><title>Node1&#45;&gt;Node9</title>
<path fill="none" stroke="midnightblue" d="M678.225,-53.0392C706.448,-42.8786 746.262,-28.5457 771.343,-19.5164"/>
<polygon fill="midnightblue" stroke="midnightblue" points="676.991,-49.7632 668.768,-56.4435 679.362,-56.3494 676.991,-49.7632"/>
</g>
<!-- Node10 -->
<g id="node10" class="node"><title>Node10</title>
<g id="a_node10"><a xlink:href="a00263.html" target="_top" xlink:title="Handle stream of data. ">
<polygon fill="white" stroke="black" points="853.5,-0.5 853.5,-19.5 944.5,-19.5 944.5,-0.5 853.5,-0.5"/>
<text text-anchor="middle" x="899" y="-7.5" font-family="Helvetica,sans-Serif" font-size="10.00">src/tds/stream.c</text>
</a>
</g>
</g>
<!-- Node1&#45;&gt;Node10 -->
<g id="edge9" class="edge"><title>Node1&#45;&gt;Node10</title>
<path fill="none" stroke="midnightblue" d="M695.115,-54.3456C743.117,-44.1405 814.615,-28.94 858.941,-19.5164"/>
<polygon fill="midnightblue" stroke="midnightblue" points="694.301,-50.9405 685.247,-56.4435 695.756,-57.7874 694.301,-50.9405"/>
</g>
<!-- Node11 -->
<g id="node11" class="node"><title>Node11</title>
<g id="a_node11"><a xlink:href="a00326.html" target="_top" xlink:title="Contains all routines to get replies from server. ">
<polygon fill="white" stroke="black" points="962.5,-0.5 962.5,-19.5 1047.5,-19.5 1047.5,-0.5 962.5,-0.5"/>
<text text-anchor="middle" x="1005" y="-7.5" font-family="Helvetica,sans-Serif" font-size="10.00">src/tds/token.c</text>
</a>
</g>
</g>
<!-- Node1&#45;&gt;Node11 -->
<g id="edge10" class="edge"><title>Node1&#45;&gt;Node11</title>
<path fill="none" stroke="midnightblue" d="M710.748,-56.0086C773.364,-47.3077 870.218,-33.49 954,-20 956.752,-19.5569 959.585,-19.0892 962.439,-18.6093"/>
<polygon fill="midnightblue" stroke="midnightblue" points="710.042,-52.573 700.618,-57.4133 711.003,-59.5067 710.042,-52.573"/>
</g>
<!-- Node12 -->
<g id="node12" class="node"><title>Node12</title>
<g id="a_node12"><a xlink:href="a00174_source.html" target="_top" xlink:title="include/ctlib.h">
<polygon fill="white" stroke="black" points="1065.5,-0.5 1065.5,-19.5 1144.5,-19.5 1144.5,-0.5 1065.5,-0.5"/>
<text text-anchor="middle" x="1105" y="-7.5" font-family="Helvetica,sans-Serif" font-size="10.00">include/ctlib.h</text>
</a>
</g>
</g>
<!-- Node1&#45;&gt;Node12 -->
<g id="edge11" class="edge"><title>Node1&#45;&gt;Node12</title>
<path fill="none" stroke="midnightblue" d="M710.933,-59.3668C792.451,-52.0414 935.332,-38.0239 1057,-20 1059.77,-19.59 1062.62,-19.1361 1065.49,-18.6566"/>
<polygon fill="midnightblue" stroke="midnightblue" points="710.466,-55.8945 700.817,-60.2698 711.089,-62.8667 710.466,-55.8945"/>
</g>
<!-- Node13 -->
<g id="node13" class="node"><title>Node13</title>
<g id="a_node13"><a xlink:href="a00185_source.html" target="_top" xlink:title="include/freetds/odbc.h">
<polygon fill="white" stroke="black" points="1162.5,-0.5 1162.5,-19.5 1281.5,-19.5 1281.5,-0.5 1162.5,-0.5"/>
<text text-anchor="middle" x="1222" y="-7.5" font-family="Helvetica,sans-Serif" font-size="10.00">include/freetds/odbc.h</text>
</a>
</g>
</g>
<!-- Node1&#45;&gt;Node13 -->
<g id="edge12" class="edge"><title>Node1&#45;&gt;Node13</title>
<path fill="none" stroke="midnightblue" d="M711.071,-60.0797C808.236,-52.6351 995.33,-37.5058 1154,-20 1156.72,-19.6996 1159.5,-19.3806 1162.31,-19.0487"/>
<polygon fill="midnightblue" stroke="midnightblue" points="710.519,-56.6116 700.814,-60.8626 711.051,-63.5913 710.519,-56.6116"/>
</g>
</g>
</svg>
