<?xml version="1.0" encoding="UTF-8" standalone="no"?>
<!DOCTYPE svg PUBLIC "-//W3C//DTD SVG 1.1//EN"
 "http://www.w3.org/Graphics/SVG/1.1/DTD/svg11.dtd">
<!-- Generated by graphviz version 2.38.0 (20140413.2041)
 -->
<!-- Title: bcp_readfmt Pages: 1 -->
<svg width="494pt" height="217pt"
 viewBox="0.00 0.00 494.00 217.31" xmlns="http://www.w3.org/2000/svg" xmlns:xlink="http://www.w3.org/1999/xlink">
<g id="graph0" class="graph" transform="scale(1 1) rotate(0) translate(4 213.313)">
<title>bcp_readfmt</title>
<polygon fill="white" stroke="none" points="-4,4 -4,-213.313 490,-213.313 490,4 -4,4"/>
<!-- Node1 -->
<g id="node1" class="node"><title>Node1</title>
<polygon fill="#bfbfbf" stroke="black" points="0,-114.5 0,-133.5 75,-133.5 75,-114.5 0,-114.5"/>
<text text-anchor="middle" x="37.5" y="-121.5" font-family="Helvetica,sans-Serif" font-size="10.00">bcp_readfmt</text>
</g>
<!-- Node2 -->
<g id="node2" class="node"><title>Node2</title>
<g id="a_node2"><a xlink:href="a00193.html#ab45c291105027e69836002e1dd586141" target="_top" xlink:title="Write a message to the debug log. ">
<polygon fill="white" stroke="black" points="409,-95.5 409,-114.5 486,-114.5 486,-95.5 409,-95.5"/>
<text text-anchor="middle" x="447.5" y="-102.5" font-family="Helvetica,sans-Serif" font-size="10.00">tdsdump_log</text>
</a>
</g>
</g>
<!-- Node1&#45;&gt;Node2 -->
<g id="edge1" class="edge"><title>Node1&#45;&gt;Node2</title>
<path fill="none" stroke="midnightblue" d="M44.1555,-133.705C54.7305,-150.759 79.3231,-185.563 111,-199 159.281,-219.479 176.657,-202.259 229,-199 293.373,-194.992 315.299,-209.821 373,-181 399.429,-167.799 421.678,-141.158 434.556,-123.193"/>
<polygon fill="midnightblue" stroke="midnightblue" points="437.613,-124.926 440.409,-114.707 431.85,-120.952 437.613,-124.926"/>
</g>
<!-- Node3 -->
<g id="node3" class="node"><title>Node3</title>
<g id="a_node3"><a xlink:href="a00347.html#ga302a4ce6559b81808e3be51615cd1b67" target="_top" xlink:title="Call client&#45;installed error handler. ">
<polygon fill="white" stroke="black" points="290.5,-76.5 290.5,-95.5 347.5,-95.5 347.5,-76.5 290.5,-76.5"/>
<text text-anchor="middle" x="319" y="-83.5" font-family="Helvetica,sans-Serif" font-size="10.00">dbperror</text>
</a>
</g>
</g>
<!-- Node1&#45;&gt;Node3 -->
<g id="edge2" class="edge"><title>Node1&#45;&gt;Node3</title>
<path fill="none" stroke="midnightblue" d="M70.3703,-114.435C82.9292,-110.985 97.5437,-107.364 111,-105 169.529,-94.7168 238.408,-89.8014 280.106,-87.6029"/>
<polygon fill="midnightblue" stroke="midnightblue" points="280.54,-91.0856 290.352,-87.0888 280.189,-84.0944 280.54,-91.0856"/>
</g>
<!-- Node4 -->
<g id="node4" class="node"><title>Node4</title>
<g id="a_node4"><a xlink:href="a00344.html#gaf4e2c59203f2af21bb2803ef4a69bfa8" target="_top" xlink:title="_bcp_fgets">
<polygon fill="white" stroke="black" points="136,-152.5 136,-171.5 204,-171.5 204,-152.5 136,-152.5"/>
<text text-anchor="middle" x="170" y="-159.5" font-family="Helvetica,sans-Serif" font-size="10.00">_bcp_fgets</text>
</a>
</g>
</g>
<!-- Node1&#45;&gt;Node4 -->
<g id="edge4" class="edge"><title>Node1&#45;&gt;Node4</title>
<path fill="none" stroke="midnightblue" d="M71.4307,-133.589C88.1224,-138.449 108.589,-144.409 126.46,-149.613"/>
<polygon fill="midnightblue" stroke="midnightblue" points="125.5,-152.979 136.08,-152.414 127.457,-146.258 125.5,-152.979"/>
</g>
<!-- Node5 -->
<g id="node5" class="node"><title>Node5</title>
<g id="a_node5"><a xlink:href="a00343.html#ga330b9f1028f856a9eec5115550bcb4f7" target="_top" xlink:title="Indicate how many columns are to be found in the datafile. ">
<polygon fill="white" stroke="black" points="131.5,-114.5 131.5,-133.5 208.5,-133.5 208.5,-114.5 131.5,-114.5"/>
<text text-anchor="middle" x="170" y="-121.5" font-family="Helvetica,sans-Serif" font-size="10.00">bcp_columns</text>
</a>
</g>
</g>
<!-- Node1&#45;&gt;Node5 -->
<g id="edge5" class="edge"><title>Node1&#45;&gt;Node5</title>
<path fill="none" stroke="midnightblue" d="M75.1988,-124C89.4094,-124 105.871,-124 120.999,-124"/>
<polygon fill="midnightblue" stroke="midnightblue" points="121.216,-127.5 131.216,-124 121.216,-120.5 121.216,-127.5"/>
</g>
<!-- Node6 -->
<g id="node6" class="node"><title>Node6</title>
<g id="a_node6"><a xlink:href="a00344.html#gacf69ac4cbe8e3c3e6ea665e31e5e85b8" target="_top" xlink:title="_bcp_free_columns">
<polygon fill="white" stroke="black" points="265,-152.5 265,-171.5 373,-171.5 373,-152.5 265,-152.5"/>
<text text-anchor="middle" x="319" y="-159.5" font-family="Helvetica,sans-Serif" font-size="10.00">_bcp_free_columns</text>
</a>
</g>
</g>
<!-- Node1&#45;&gt;Node6 -->
<g id="edge16" class="edge"><title>Node1&#45;&gt;Node6</title>
<path fill="none" stroke="midnightblue" d="M46.6742,-133.596C58.986,-147.224 83.7645,-171.576 111,-181 167.99,-200.72 238.778,-186.6 281.069,-174.416"/>
<polygon fill="midnightblue" stroke="midnightblue" points="282.093,-177.763 290.669,-171.541 280.085,-171.057 282.093,-177.763"/>
</g>
<!-- Node7 -->
<g id="node7" class="node"><title>Node7</title>
<g id="a_node7"><a xlink:href="a00344.html#gafc23d62bc86b38fb757e3ac4aadca0a4" target="_top" xlink:title="_bcp_readfmt_colinfo">
<polygon fill="white" stroke="black" points="111,-38.5 111,-57.5 229,-57.5 229,-38.5 111,-38.5"/>
<text text-anchor="middle" x="170" y="-45.5" font-family="Helvetica,sans-Serif" font-size="10.00">_bcp_readfmt_colinfo</text>
</a>
</g>
</g>
<!-- Node1&#45;&gt;Node7 -->
<g id="edge10" class="edge"><title>Node1&#45;&gt;Node7</title>
<path fill="none" stroke="midnightblue" d="M50.2478,-114.272C64.1392,-103.086 88.2544,-84.6416 111,-72 117.965,-68.1288 125.684,-64.511 133.157,-61.3176"/>
<polygon fill="midnightblue" stroke="midnightblue" points="134.497,-64.5509 142.416,-57.5125 131.836,-58.0762 134.497,-64.5509"/>
</g>
<!-- Node8 -->
<g id="node8" class="node"><title>Node8</title>
<g id="a_node8"><a xlink:href="a00343.html#ga0ed03c69e698336d015bb315ad755fd5" target="_top" xlink:title="Specify the format of a datafile prior to writing to a table. ">
<polygon fill="white" stroke="black" points="136.5,-0.5 136.5,-19.5 203.5,-19.5 203.5,-0.5 136.5,-0.5"/>
<text text-anchor="middle" x="170" y="-7.5" font-family="Helvetica,sans-Serif" font-size="10.00">bcp_colfmt</text>
</a>
</g>
</g>
<!-- Node1&#45;&gt;Node8 -->
<g id="edge13" class="edge"><title>Node1&#45;&gt;Node8</title>
<path fill="none" stroke="midnightblue" d="M43.2699,-114.38C53.2173,-95.2877 78.02,-52.4328 111,-29 115.814,-25.5795 121.281,-22.7478 126.889,-20.4106"/>
<polygon fill="midnightblue" stroke="midnightblue" points="128.189,-23.6618 136.368,-16.9276 125.774,-17.0913 128.189,-23.6618"/>
</g>
<!-- Node3&#45;&gt;Node2 -->
<g id="edge3" class="edge"><title>Node3&#45;&gt;Node2</title>
<path fill="none" stroke="midnightblue" d="M347.761,-90.1696C362.717,-92.416 381.587,-95.2503 398.815,-97.8378"/>
<polygon fill="midnightblue" stroke="midnightblue" points="398.318,-101.302 408.727,-99.3265 399.357,-94.3799 398.318,-101.302"/>
</g>
<!-- Node5&#45;&gt;Node2 -->
<g id="edge6" class="edge"><title>Node5&#45;&gt;Node2</title>
<path fill="none" stroke="midnightblue" d="M208.729,-121.398C258.154,-117.989 344.853,-112.01 398.785,-108.291"/>
<polygon fill="midnightblue" stroke="midnightblue" points="399.05,-111.781 408.785,-107.601 398.568,-104.797 399.05,-111.781"/>
</g>
<!-- Node5&#45;&gt;Node3 -->
<g id="edge7" class="edge"><title>Node5&#45;&gt;Node3</title>
<path fill="none" stroke="midnightblue" d="M208.094,-114.411C230.222,-108.691 258.238,-101.449 280.446,-95.7078"/>
<polygon fill="midnightblue" stroke="midnightblue" points="281.393,-99.078 290.199,-93.1866 279.641,-92.3008 281.393,-99.078"/>
</g>
<!-- Node5&#45;&gt;Node6 -->
<g id="edge8" class="edge"><title>Node5&#45;&gt;Node6</title>
<path fill="none" stroke="midnightblue" d="M208.094,-133.589C227.318,-138.558 250.986,-144.677 271.429,-149.961"/>
<polygon fill="midnightblue" stroke="midnightblue" points="270.615,-153.366 281.172,-152.48 272.367,-146.588 270.615,-153.366"/>
</g>
<!-- Node6&#45;&gt;Node2 -->
<g id="edge9" class="edge"><title>Node6&#45;&gt;Node2</title>
<path fill="none" stroke="midnightblue" d="M341.173,-152.459C361.606,-143.253 392.759,-129.215 415.89,-118.793"/>
<polygon fill="midnightblue" stroke="midnightblue" points="417.578,-121.871 425.258,-114.572 414.703,-115.489 417.578,-121.871"/>
</g>
<!-- Node7&#45;&gt;Node2 -->
<g id="edge11" class="edge"><title>Node7&#45;&gt;Node2</title>
<path fill="none" stroke="midnightblue" d="M229.132,-47.626C270.105,-48.7637 325.851,-53.1623 373,-67 390.695,-72.1932 409.126,-81.7337 423.105,-89.9556"/>
<polygon fill="midnightblue" stroke="midnightblue" points="421.645,-93.1638 432.008,-95.3674 425.281,-87.1822 421.645,-93.1638"/>
</g>
<!-- Node7&#45;&gt;Node3 -->
<g id="edge12" class="edge"><title>Node7&#45;&gt;Node3</title>
<path fill="none" stroke="midnightblue" d="M208.094,-57.589C230.222,-63.309 258.238,-70.5514 280.446,-76.2922"/>
<polygon fill="midnightblue" stroke="midnightblue" points="279.641,-79.6992 290.199,-78.8134 281.393,-72.922 279.641,-79.6992"/>
</g>
<!-- Node8&#45;&gt;Node2 -->
<g id="edge14" class="edge"><title>Node8&#45;&gt;Node2</title>
<path fill="none" stroke="midnightblue" d="M203.625,-10.6069C244.846,-12.4817 317.144,-19.5123 373,-45 395.298,-55.175 416.507,-73.7921 430.359,-87.6"/>
<polygon fill="midnightblue" stroke="midnightblue" points="428.139,-90.3386 437.617,-95.074 433.161,-85.4618 428.139,-90.3386"/>
</g>
<!-- Node8&#45;&gt;Node3 -->
<g id="edge15" class="edge"><title>Node8&#45;&gt;Node3</title>
<path fill="none" stroke="midnightblue" d="M203.777,-19.1374C212.165,-21.9065 221.055,-25.2294 229,-29 253.562,-40.6565 279.507,-57.9148 297.005,-70.3853"/>
<polygon fill="midnightblue" stroke="midnightblue" points="295.181,-73.3858 305.334,-76.4152 299.286,-67.7158 295.181,-73.3858"/>
</g>
</g>
</svg>
