<?xml version="1.0" encoding="UTF-8" standalone="no"?>
<!DOCTYPE svg PUBLIC "-//W3C//DTD SVG 1.1//EN"
 "http://www.w3.org/Graphics/SVG/1.1/DTD/svg11.dtd">
<!-- Generated by graphviz version 2.38.0 (20140413.2041)
 -->
<!-- Title: tds_init_login Pages: 1 -->
<svg width="437pt" height="66pt"
 viewBox="0.00 0.00 437.00 66.00" xmlns="http://www.w3.org/2000/svg" xmlns:xlink="http://www.w3.org/1999/xlink">
<g id="graph0" class="graph" transform="scale(1 1) rotate(0) translate(4 62)">
<title>tds_init_login</title>
<polygon fill="white" stroke="none" points="-4,4 -4,-62 433,-62 433,4 -4,4"/>
<!-- Node1 -->
<g id="node1" class="node"><title>Node1</title>
<polygon fill="#bfbfbf" stroke="black" points="0,-19.5 0,-38.5 79,-38.5 79,-19.5 0,-19.5"/>
<text text-anchor="middle" x="39.5" y="-26.5" font-family="Helvetica,sans-Serif" font-size="10.00">tds_init_login</text>
</g>
<!-- Node2 -->
<g id="node2" class="node"><title>Node2</title>
<g id="a_node2"><a xlink:href="a00354.html#ga6561d1dba1a04c168431b16ec17d7e4c" target="_top" xlink:title="Determine canonical iconv character set name. ">
<polygon fill="white" stroke="black" points="115,-38.5 115,-57.5 270,-57.5 270,-38.5 115,-38.5"/>
<text text-anchor="middle" x="192.5" y="-45.5" font-family="Helvetica,sans-Serif" font-size="10.00">tds_canonical_charset_name</text>
</a>
</g>
</g>
<!-- Node1&#45;&gt;Node2 -->
<g id="edge1" class="edge"><title>Node1&#45;&gt;Node2</title>
<path fill="none" stroke="midnightblue" d="M79.3863,-33.893C87.6003,-34.9265 96.5772,-36.0561 105.76,-37.2115"/>
<polygon fill="midnightblue" stroke="midnightblue" points="105.42,-40.6963 115.779,-38.4722 106.294,-33.751 105.42,-40.6963"/>
</g>
<!-- Node4 -->
<g id="node4" class="node"><title>Node4</title>
<g id="a_node4"><a xlink:href="a00358.html#gad96366d9fa93bfc283cef1299fbe97ab" target="_top" xlink:title="copy a string from another ">
<polygon fill="white" stroke="black" points="151,-0.5 151,-19.5 234,-19.5 234,-0.5 151,-0.5"/>
<text text-anchor="middle" x="192.5" y="-7.5" font-family="Helvetica,sans-Serif" font-size="10.00">tds_dstr_copy</text>
</a>
</g>
</g>
<!-- Node1&#45;&gt;Node4 -->
<g id="edge3" class="edge"><title>Node1&#45;&gt;Node4</title>
<path fill="none" stroke="midnightblue" d="M79.3863,-24.107C98.0637,-21.7569 120.686,-18.9104 140.704,-16.3916"/>
<polygon fill="midnightblue" stroke="midnightblue" points="141.415,-19.8298 150.9,-15.1086 140.541,-12.8845 141.415,-19.8298"/>
</g>
<!-- Node3 -->
<g id="node3" class="node"><title>Node3</title>
<g id="a_node3"><a xlink:href="a00354.html#ga38c0ac641a8c6e25e91ee9205c3c50c5" target="_top" xlink:title="Determine canonical iconv character set. ">
<polygon fill="white" stroke="black" points="306,-38.5 306,-57.5 429,-57.5 429,-38.5 306,-38.5"/>
<text text-anchor="middle" x="367.5" y="-45.5" font-family="Helvetica,sans-Serif" font-size="10.00">tds_canonical_charset</text>
</a>
</g>
</g>
<!-- Node2&#45;&gt;Node3 -->
<g id="edge2" class="edge"><title>Node2&#45;&gt;Node3</title>
<path fill="none" stroke="midnightblue" d="M270.136,-48C278.617,-48 287.227,-48 295.633,-48"/>
<polygon fill="midnightblue" stroke="midnightblue" points="295.763,-51.5001 305.763,-48 295.763,-44.5001 295.763,-51.5001"/>
</g>
<!-- Node5 -->
<g id="node5" class="node"><title>Node5</title>
<g id="a_node5"><a xlink:href="a00358.html#ga656718f240d7403f986ae887d84a6ca1" target="_top" xlink:title="Set string to a given buffer of characters. ">
<polygon fill="white" stroke="black" points="323,-0.5 323,-19.5 412,-19.5 412,-0.5 323,-0.5"/>
<text text-anchor="middle" x="367.5" y="-7.5" font-family="Helvetica,sans-Serif" font-size="10.00">tds_dstr_copyn</text>
</a>
</g>
</g>
<!-- Node4&#45;&gt;Node5 -->
<g id="edge4" class="edge"><title>Node4&#45;&gt;Node5</title>
<path fill="none" stroke="midnightblue" d="M234.061,-10C257.497,-10 287.272,-10 312.651,-10"/>
<polygon fill="midnightblue" stroke="midnightblue" points="312.863,-13.5001 322.863,-10 312.863,-6.5001 312.863,-13.5001"/>
</g>
</g>
</svg>
