<?xml version="1.0" encoding="UTF-8" standalone="no"?>
<!DOCTYPE svg PUBLIC "-//W3C//DTD SVG 1.1//EN"
 "http://www.w3.org/Graphics/SVG/1.1/DTD/svg11.dtd">
<!-- Generated by graphviz version 2.38.0 (20140413.2041)
 -->
<!-- Title: dbsetmaxprocs Pages: 1 -->
<svg width="302pt" height="47pt"
 viewBox="0.00 0.00 302.00 47.00" xmlns="http://www.w3.org/2000/svg" xmlns:xlink="http://www.w3.org/1999/xlink">
<g id="graph0" class="graph" transform="scale(1 1) rotate(0) translate(4 43)">
<title>dbsetmaxprocs</title>
<polygon fill="white" stroke="none" points="-4,4 -4,-43 298,-43 298,4 -4,4"/>
<!-- Node1 -->
<g id="node1" class="node"><title>Node1</title>
<polygon fill="#bfbfbf" stroke="black" points="0,-19.5 0,-38.5 88,-38.5 88,-19.5 0,-19.5"/>
<text text-anchor="middle" x="44" y="-26.5" font-family="Helvetica,sans-Serif" font-size="10.00">dbsetmaxprocs</text>
</g>
<!-- Node2 -->
<g id="node2" class="node"><title>Node2</title>
<g id="a_node2"><a xlink:href="a00193.html#ab45c291105027e69836002e1dd586141" target="_top" xlink:title="Write a message to the debug log. ">
<polygon fill="white" stroke="black" points="217,-19.5 217,-38.5 294,-38.5 294,-19.5 217,-19.5"/>
<text text-anchor="middle" x="255.5" y="-26.5" font-family="Helvetica,sans-Serif" font-size="10.00">tdsdump_log</text>
</a>
</g>
</g>
<!-- Node1&#45;&gt;Node2 -->
<g id="edge1" class="edge"><title>Node1&#45;&gt;Node2</title>
<path fill="none" stroke="midnightblue" d="M88.1545,-29C122.605,-29 170.841,-29 206.505,-29"/>
<polygon fill="midnightblue" stroke="midnightblue" points="206.673,-32.5001 216.673,-29 206.673,-25.5001 206.673,-32.5001"/>
</g>
<!-- Node3 -->
<g id="node3" class="node"><title>Node3</title>
<g id="a_node3"><a xlink:href="a00347.html#ga302a4ce6559b81808e3be51615cd1b67" target="_top" xlink:title="Call client&#45;installed error handler. ">
<polygon fill="white" stroke="black" points="124,-0.5 124,-19.5 181,-19.5 181,-0.5 124,-0.5"/>
<text text-anchor="middle" x="152.5" y="-7.5" font-family="Helvetica,sans-Serif" font-size="10.00">dbperror</text>
</a>
</g>
</g>
<!-- Node1&#45;&gt;Node3 -->
<g id="edge2" class="edge"><title>Node1&#45;&gt;Node3</title>
<path fill="none" stroke="midnightblue" d="M88.0106,-21.3267C96.6295,-19.7891 105.62,-18.1851 114.033,-16.6842"/>
<polygon fill="midnightblue" stroke="midnightblue" points="114.715,-20.1179 123.945,-14.9159 113.486,-13.2267 114.715,-20.1179"/>
</g>
<!-- Node3&#45;&gt;Node2 -->
<g id="edge3" class="edge"><title>Node3&#45;&gt;Node2</title>
<path fill="none" stroke="midnightblue" d="M181.099,-15.1918C189.077,-16.6926 198.022,-18.3755 206.851,-20.0363"/>
<polygon fill="midnightblue" stroke="midnightblue" points="206.237,-23.4822 216.712,-21.8913 207.531,-16.6028 206.237,-23.4822"/>
</g>
</g>
</svg>
