<?xml version="1.0" encoding="UTF-8" standalone="no"?>
<!DOCTYPE svg PUBLIC "-//W3C//DTD SVG 1.1//EN"
 "http://www.w3.org/Graphics/SVG/1.1/DTD/svg11.dtd">
<!-- Generated by graphviz version 2.38.0 (20140413.2041)
 -->
<!-- Title: dbconvert Pages: 1 -->
<svg width="432pt" height="164pt"
 viewBox="0.00 0.00 432.00 164.38" xmlns="http://www.w3.org/2000/svg" xmlns:xlink="http://www.w3.org/1999/xlink">
<g id="graph0" class="graph" transform="scale(1 1) rotate(0) translate(4 160.381)">
<title>dbconvert</title>
<polygon fill="white" stroke="none" points="-4,4 -4,-160.381 428,-160.381 428,4 -4,4"/>
<!-- Node1 -->
<g id="node1" class="node"><title>Node1</title>
<polygon fill="#bfbfbf" stroke="black" points="0,-76.5 0,-95.5 63,-95.5 63,-76.5 0,-76.5"/>
<text text-anchor="middle" x="31.5" y="-83.5" font-family="Helvetica,sans-Serif" font-size="10.00">dbconvert</text>
</g>
<!-- Node2 -->
<g id="node2" class="node"><title>Node2</title>
<g id="a_node2"><a xlink:href="a00193.html#ab45c291105027e69836002e1dd586141" target="_top" xlink:title="Write a message to the debug log. ">
<polygon fill="white" stroke="black" points="347,-95.5 347,-114.5 424,-114.5 424,-95.5 347,-95.5"/>
<text text-anchor="middle" x="385.5" y="-102.5" font-family="Helvetica,sans-Serif" font-size="10.00">tdsdump_log</text>
</a>
</g>
</g>
<!-- Node1&#45;&gt;Node2 -->
<g id="edge1" class="edge"><title>Node1&#45;&gt;Node2</title>
<path fill="none" stroke="midnightblue" d="M39.8156,-95.5774C50.8816,-109.182 73.3296,-133.504 99,-143 187.299,-175.664 300.148,-139.726 353.672,-118.427"/>
<polygon fill="midnightblue" stroke="midnightblue" points="355.019,-121.658 362.957,-114.64 352.375,-115.176 355.019,-121.658"/>
</g>
<!-- Node3 -->
<g id="node3" class="node"><title>Node3</title>
<g id="a_node3"><a xlink:href="a00193.html#aa70b02ff34ac03040ca41f13d5fd35bd" target="_top" xlink:title="Return the number of bytes needed by specified type. ">
<polygon fill="white" stroke="black" points="99,-114.5 99,-133.5 218,-133.5 218,-114.5 99,-114.5"/>
<text text-anchor="middle" x="158.5" y="-121.5" font-family="Helvetica,sans-Serif" font-size="10.00">tds_get_size_by_type</text>
</a>
</g>
</g>
<!-- Node1&#45;&gt;Node3 -->
<g id="edge2" class="edge"><title>Node1&#45;&gt;Node3</title>
<path fill="none" stroke="midnightblue" d="M63.0784,-95.2958C79.0292,-100.145 98.7717,-106.147 116.074,-111.406"/>
<polygon fill="midnightblue" stroke="midnightblue" points="115.346,-114.843 125.932,-114.403 117.382,-108.146 115.346,-114.843"/>
</g>
<!-- Node4 -->
<g id="node4" class="node"><title>Node4</title>
<g id="a_node4"><a xlink:href="a00235.html#aea6a865806d454280126de940478c214" target="_top" xlink:title="dbgetnull">
<polygon fill="white" stroke="black" points="129,-76.5 129,-95.5 188,-95.5 188,-76.5 129,-76.5"/>
<text text-anchor="middle" x="158.5" y="-83.5" font-family="Helvetica,sans-Serif" font-size="10.00">dbgetnull</text>
</a>
</g>
</g>
<!-- Node1&#45;&gt;Node4 -->
<g id="edge3" class="edge"><title>Node1&#45;&gt;Node4</title>
<path fill="none" stroke="midnightblue" d="M63.0784,-86C79.8751,-86 100.876,-86 118.805,-86"/>
<polygon fill="midnightblue" stroke="midnightblue" points="118.951,-89.5001 128.951,-86 118.951,-82.5001 118.951,-89.5001"/>
</g>
<!-- Node5 -->
<g id="node5" class="node"><title>Node5</title>
<g id="a_node5"><a xlink:href="a00347.html#ga302a4ce6559b81808e3be51615cd1b67" target="_top" xlink:title="Call client&#45;installed error handler. ">
<polygon fill="white" stroke="black" points="254,-57.5 254,-76.5 311,-76.5 311,-57.5 254,-57.5"/>
<text text-anchor="middle" x="282.5" y="-64.5" font-family="Helvetica,sans-Serif" font-size="10.00">dbperror</text>
</a>
</g>
</g>
<!-- Node1&#45;&gt;Node5 -->
<g id="edge7" class="edge"><title>Node1&#45;&gt;Node5</title>
<path fill="none" stroke="midnightblue" d="M59.3102,-76.4986C71.2887,-72.7351 85.682,-68.8653 99,-67 148.549,-60.0604 206.411,-61.6821 243.477,-63.9436"/>
<polygon fill="midnightblue" stroke="midnightblue" points="243.609,-67.4598 253.817,-64.6244 244.069,-60.4749 243.609,-67.4598"/>
</g>
<!-- Node6 -->
<g id="node6" class="node"><title>Node6</title>
<g id="a_node6"><a xlink:href="a00353.html#gaa865e08f7ad70ef92b111c2ea3657457" target="_top" xlink:title="tds_convert convert a type to another. ">
<polygon fill="white" stroke="black" points="122.5,-0.5 122.5,-19.5 194.5,-19.5 194.5,-0.5 122.5,-0.5"/>
<text text-anchor="middle" x="158.5" y="-7.5" font-family="Helvetica,sans-Serif" font-size="10.00">tds_convert</text>
</a>
</g>
</g>
<!-- Node1&#45;&gt;Node6 -->
<g id="edge8" class="edge"><title>Node1&#45;&gt;Node6</title>
<path fill="none" stroke="midnightblue" d="M43.1252,-76.1766C55.7257,-64.9004 77.7126,-46.3722 99,-34 105.59,-30.1697 112.91,-26.6515 120.077,-23.558"/>
<polygon fill="midnightblue" stroke="midnightblue" points="121.756,-26.6521 129.675,-19.6133 119.095,-20.1776 121.756,-26.6521"/>
</g>
<!-- Node4&#45;&gt;Node2 -->
<g id="edge4" class="edge"><title>Node4&#45;&gt;Node2</title>
<path fill="none" stroke="midnightblue" d="M188.454,-88.445C225.892,-91.6065 291.61,-97.1559 336.553,-100.951"/>
<polygon fill="midnightblue" stroke="midnightblue" points="336.395,-104.45 346.654,-101.804 336.984,-97.475 336.395,-104.45"/>
</g>
<!-- Node4&#45;&gt;Node5 -->
<g id="edge5" class="edge"><title>Node4&#45;&gt;Node5</title>
<path fill="none" stroke="midnightblue" d="M188.104,-81.5453C204.784,-78.9476 226.016,-75.6409 244.021,-72.8369"/>
<polygon fill="midnightblue" stroke="midnightblue" points="244.573,-76.2932 253.915,-71.296 243.496,-69.3766 244.573,-76.2932"/>
</g>
<!-- Node5&#45;&gt;Node2 -->
<g id="edge6" class="edge"><title>Node5&#45;&gt;Node2</title>
<path fill="none" stroke="midnightblue" d="M308.987,-76.589C321.307,-81.2244 336.285,-86.8596 349.643,-91.8853"/>
<polygon fill="midnightblue" stroke="midnightblue" points="348.43,-95.1684 359.022,-95.4141 350.895,-88.6168 348.43,-95.1684"/>
</g>
</g>
</svg>
