<?xml version="1.0" encoding="UTF-8" standalone="no"?>
<!DOCTYPE svg PUBLIC "-//W3C//DTD SVG 1.1//EN"
 "http://www.w3.org/Graphics/SVG/1.1/DTD/svg11.dtd">
<!-- Generated by graphviz version 2.38.0 (20140413.2041)
 -->
<!-- Title: src/tds/data.c Pages: 1 -->
<svg width="1549pt" height="252pt"
 viewBox="0.00 0.00 1549.00 252.00" xmlns="http://www.w3.org/2000/svg" xmlns:xlink="http://www.w3.org/1999/xlink">
<g id="graph0" class="graph" transform="scale(1 1) rotate(0) translate(4 248)">
<title>src/tds/data.c</title>
<polygon fill="white" stroke="none" points="-4,4 -4,-248 1545,-248 1545,4 -4,4"/>
<!-- Node1 -->
<g id="node1" class="node"><title>Node1</title>
<polygon fill="#bfbfbf" stroke="black" points="245.5,-224.5 245.5,-243.5 325.5,-243.5 325.5,-224.5 245.5,-224.5"/>
<text text-anchor="middle" x="285.5" y="-231.5" font-family="Helvetica,sans-Serif" font-size="10.00">src/tds/data.c</text>
</g>
<!-- Node2 -->
<g id="node2" class="node"><title>Node2</title>
<polygon fill="white" stroke="#bfbfbf" points="0,-168.5 0,-187.5 53,-187.5 53,-168.5 0,-168.5"/>
<text text-anchor="middle" x="26.5" y="-175.5" font-family="Helvetica,sans-Serif" font-size="10.00">config.h</text>
</g>
<!-- Node1&#45;&gt;Node2 -->
<g id="edge1" class="edge"><title>Node1&#45;&gt;Node2</title>
<path fill="none" stroke="midnightblue" d="M245.289,-224.857C201.521,-215.956 129.488,-201.201 67.5,-188 66.217,-187.727 64.9118,-187.447 63.5937,-187.164"/>
<polygon fill="midnightblue" stroke="midnightblue" points="63.9103,-183.652 53.3958,-184.954 62.4277,-190.493 63.9103,-183.652"/>
</g>
<!-- Node3 -->
<g id="node3" class="node"><title>Node3</title>
<polygon fill="white" stroke="#bfbfbf" points="1143,-56.5 1143,-75.5 1198,-75.5 1198,-56.5 1143,-56.5"/>
<text text-anchor="middle" x="1170.5" y="-63.5" font-family="Helvetica,sans-Serif" font-size="10.00">stdarg.h</text>
</g>
<!-- Node1&#45;&gt;Node3 -->
<g id="edge2" class="edge"><title>Node1&#45;&gt;Node3</title>
<path fill="none" stroke="midnightblue" d="M325.776,-231.509C491.48,-224.967 1114.56,-196.221 1171.5,-132 1182.48,-119.617 1180.55,-100.096 1176.9,-85.6757"/>
<polygon fill="midnightblue" stroke="midnightblue" points="1180.18,-84.4222 1173.96,-75.8452 1173.48,-86.4289 1180.18,-84.4222"/>
</g>
<!-- Node4 -->
<g id="node4" class="node"><title>Node4</title>
<polygon fill="white" stroke="#bfbfbf" points="262,-112.5 262,-131.5 309,-131.5 309,-112.5 262,-112.5"/>
<text text-anchor="middle" x="285.5" y="-119.5" font-family="Helvetica,sans-Serif" font-size="10.00">stdio.h</text>
</g>
<!-- Node1&#45;&gt;Node4 -->
<g id="edge3" class="edge"><title>Node1&#45;&gt;Node4</title>
<path fill="none" stroke="midnightblue" d="M285.5,-224.368C285.5,-206.617 285.5,-165.666 285.5,-141.597"/>
<polygon fill="midnightblue" stroke="midnightblue" points="289,-141.591 285.5,-131.591 282,-141.591 289,-141.591"/>
</g>
<!-- Node5 -->
<g id="node5" class="node"><title>Node5</title>
<polygon fill="white" stroke="#bfbfbf" points="1293.5,-168.5 1293.5,-187.5 1347.5,-187.5 1347.5,-168.5 1293.5,-168.5"/>
<text text-anchor="middle" x="1320.5" y="-175.5" font-family="Helvetica,sans-Serif" font-size="10.00">assert.h</text>
</g>
<!-- Node1&#45;&gt;Node5 -->
<g id="edge4" class="edge"><title>Node1&#45;&gt;Node5</title>
<path fill="none" stroke="midnightblue" d="M325.546,-232.101C486.967,-228.337 1090.24,-212.871 1279.5,-188 1280.76,-187.834 1282.04,-187.65 1283.33,-187.449"/>
<polygon fill="midnightblue" stroke="midnightblue" points="1284.05,-190.876 1293.27,-185.658 1282.81,-183.987 1284.05,-190.876"/>
</g>
<!-- Node6 -->
<g id="node6" class="node"><title>Node6</title>
<g id="a_node6"><a xlink:href="a00193.html" target="_top" xlink:title="Main include file for libtds. ">
<polygon fill="white" stroke="black" points="624,-168.5 624,-187.5 699,-187.5 699,-168.5 624,-168.5"/>
<text text-anchor="middle" x="661.5" y="-175.5" font-family="Helvetica,sans-Serif" font-size="10.00">freetds/tds.h</text>
</a>
</g>
</g>
<!-- Node1&#45;&gt;Node6 -->
<g id="edge5" class="edge"><title>Node1&#45;&gt;Node6</title>
<path fill="none" stroke="midnightblue" d="M325.739,-227.221C395.581,-217.191 538.922,-196.604 613.708,-185.864"/>
<polygon fill="midnightblue" stroke="midnightblue" points="614.39,-189.302 623.791,-184.416 613.395,-182.373 614.39,-189.302"/>
</g>
<!-- Node15 -->
<g id="node15" class="node"><title>Node15</title>
<g id="a_node15"><a xlink:href="a00188_source.html" target="_top" xlink:title="freetds/pushvis.h">
<polygon fill="white" stroke="black" points="242.5,-0.5 242.5,-19.5 338.5,-19.5 338.5,-0.5 242.5,-0.5"/>
<text text-anchor="middle" x="290.5" y="-7.5" font-family="Helvetica,sans-Serif" font-size="10.00">freetds/pushvis.h</text>
</a>
</g>
</g>
<!-- Node1&#45;&gt;Node15 -->
<g id="edge39" class="edge"><title>Node1&#45;&gt;Node15</title>
<path fill="none" stroke="midnightblue" d="M245.242,-227.737C216.692,-222.155 179.06,-210.813 153.5,-188 106.335,-145.903 61.2855,-105.587 100.5,-56 116.729,-35.4779 182.47,-23.3432 232.111,-16.9426"/>
<polygon fill="midnightblue" stroke="midnightblue" points="232.627,-20.4055 242.12,-15.7005 231.765,-13.4588 232.627,-20.4055"/>
</g>
<!-- Node16 -->
<g id="node16" class="node"><title>Node16</title>
<g id="a_node16"><a xlink:href="a00186_source.html" target="_top" xlink:title="freetds/popvis.h">
<polygon fill="white" stroke="black" points="560.5,-0.5 560.5,-19.5 652.5,-19.5 652.5,-0.5 560.5,-0.5"/>
<text text-anchor="middle" x="606.5" y="-7.5" font-family="Helvetica,sans-Serif" font-size="10.00">freetds/popvis.h</text>
</a>
</g>
</g>
<!-- Node1&#45;&gt;Node16 -->
<g id="edge40" class="edge"><title>Node1&#45;&gt;Node16</title>
<path fill="none" stroke="midnightblue" d="M325.733,-231.853C459.275,-227.839 887.035,-213.283 1022.5,-188 1123.79,-169.094 1202.55,-176.454 1225.5,-76 1227.48,-67.3344 1231.55,-62.5093 1225.5,-56 1187.61,-15.2575 807.929,-10.9655 662.64,-10.8278"/>
<polygon fill="midnightblue" stroke="midnightblue" points="662.593,-7.32784 652.592,-10.8246 662.591,-14.3278 662.593,-7.32784"/>
</g>
<!-- Node19 -->
<g id="node19" class="node"><title>Node19</title>
<g id="a_node19"><a xlink:href="a00179_source.html" target="_top" xlink:title="freetds/bytes.h">
<polygon fill="white" stroke="black" points="1365.5,-168.5 1365.5,-187.5 1451.5,-187.5 1451.5,-168.5 1365.5,-168.5"/>
<text text-anchor="middle" x="1408.5" y="-175.5" font-family="Helvetica,sans-Serif" font-size="10.00">freetds/bytes.h</text>
</a>
</g>
</g>
<!-- Node1&#45;&gt;Node19 -->
<g id="edge26" class="edge"><title>Node1&#45;&gt;Node19</title>
<path fill="none" stroke="midnightblue" d="M325.512,-233.181C465.704,-233.422 947.787,-230.945 1355.22,-187.984"/>
<polygon fill="midnightblue" stroke="midnightblue" points="1355.86,-191.435 1365.43,-186.896 1355.12,-184.474 1355.86,-191.435"/>
</g>
<!-- Node20 -->
<g id="node20" class="node"><title>Node20</title>
<g id="a_node20"><a xlink:href="a00184_source.html" target="_top" xlink:title="freetds/iconv.h">
<polygon fill="white" stroke="black" points="381.5,-56.5 381.5,-75.5 467.5,-75.5 467.5,-56.5 381.5,-56.5"/>
<text text-anchor="middle" x="424.5" y="-63.5" font-family="Helvetica,sans-Serif" font-size="10.00">freetds/iconv.h</text>
</a>
</g>
</g>
<!-- Node1&#45;&gt;Node20 -->
<g id="edge27" class="edge"><title>Node1&#45;&gt;Node20</title>
<path fill="none" stroke="midnightblue" d="M263.041,-224.382C247.731,-217.184 228.637,-205.288 219.5,-188 203.717,-158.136 198.33,-138.321 219.5,-112 224.33,-105.994 312.339,-88.2677 371.457,-76.9385"/>
<polygon fill="midnightblue" stroke="midnightblue" points="372.238,-80.3526 381.405,-75.0401 370.926,-73.4767 372.238,-80.3526"/>
</g>
<!-- Node21 -->
<g id="node21" class="node"><title>Node21</title>
<g id="a_node21"><a xlink:href="a00320_source.html" target="_top" xlink:title="tds_checks.h">
<polygon fill="white" stroke="black" points="285.5,-56.5 285.5,-75.5 363.5,-75.5 363.5,-56.5 285.5,-56.5"/>
<text text-anchor="middle" x="324.5" y="-63.5" font-family="Helvetica,sans-Serif" font-size="10.00">tds_checks.h</text>
</a>
</g>
</g>
<!-- Node1&#45;&gt;Node21 -->
<g id="edge30" class="edge"><title>Node1&#45;&gt;Node21</title>
<path fill="none" stroke="midnightblue" d="M245.449,-226.698C222.551,-220.819 195.65,-209.54 181.5,-188 162.955,-159.769 161.519,-139.234 181.5,-112 202.824,-82.9341 242.935,-72.1474 275.261,-68.3685"/>
<polygon fill="midnightblue" stroke="midnightblue" points="275.837,-71.829 285.449,-67.3736 275.156,-64.8622 275.837,-71.829"/>
</g>
<!-- Node22 -->
<g id="node22" class="node"><title>Node22</title>
<g id="a_node22"><a xlink:href="a00190_source.html" target="_top" xlink:title="freetds/stream.h">
<polygon fill="white" stroke="black" points="486,-56.5 486,-75.5 579,-75.5 579,-56.5 486,-56.5"/>
<text text-anchor="middle" x="532.5" y="-63.5" font-family="Helvetica,sans-Serif" font-size="10.00">freetds/stream.h</text>
</a>
</g>
</g>
<!-- Node1&#45;&gt;Node22 -->
<g id="edge33" class="edge"><title>Node1&#45;&gt;Node22</title>
<path fill="none" stroke="midnightblue" d="M278.402,-224.236C261.751,-202.571 223.69,-145.809 252.5,-112 252.5,-112 394.258,-89.2174 476.043,-76.0734"/>
<polygon fill="midnightblue" stroke="midnightblue" points="476.631,-79.5239 485.949,-74.4813 475.521,-72.6126 476.631,-79.5239"/>
</g>
<!-- Node23 -->
<g id="node23" class="node"><title>Node23</title>
<g id="a_node23"><a xlink:href="a00182_source.html" target="_top" xlink:title="freetds/data.h">
<polygon fill="white" stroke="black" points="109.5,-56.5 109.5,-75.5 191.5,-75.5 191.5,-56.5 109.5,-56.5"/>
<text text-anchor="middle" x="150.5" y="-63.5" font-family="Helvetica,sans-Serif" font-size="10.00">freetds/data.h</text>
</a>
</g>
</g>
<!-- Node1&#45;&gt;Node23 -->
<g id="edge36" class="edge"><title>Node1&#45;&gt;Node23</title>
<path fill="none" stroke="midnightblue" d="M245.422,-228.211C219.177,-222.887 186.361,-211.659 167.5,-188 144.002,-158.523 144.935,-111.666 147.704,-85.7605"/>
<polygon fill="midnightblue" stroke="midnightblue" points="151.186,-86.1234 148.98,-75.7606 144.242,-85.2369 151.186,-86.1234"/>
</g>
<!-- Node24 -->
<g id="node24" class="node"><title>Node24</title>
<g id="a_node24"><a xlink:href="a00321_source.html" target="_top" xlink:title="tds_types.h">
<polygon fill="white" stroke="black" points="1470,-168.5 1470,-187.5 1541,-187.5 1541,-168.5 1470,-168.5"/>
<text text-anchor="middle" x="1505.5" y="-175.5" font-family="Helvetica,sans-Serif" font-size="10.00">tds_types.h</text>
</a>
</g>
</g>
<!-- Node1&#45;&gt;Node24 -->
<g id="edge41" class="edge"><title>Node1&#45;&gt;Node24</title>
<path fill="none" stroke="midnightblue" d="M325.645,-232.321C502.49,-229.2 1213.75,-215.254 1459.76,-187.837"/>
<polygon fill="midnightblue" stroke="midnightblue" points="1460.19,-191.312 1469.72,-186.69 1459.39,-184.358 1460.19,-191.312"/>
</g>
<!-- Node6&#45;&gt;Node3 -->
<g id="edge6" class="edge"><title>Node6&#45;&gt;Node3</title>
<path fill="none" stroke="midnightblue" d="M699.146,-175.949C807.866,-172.585 1116.8,-160.581 1151.5,-132 1164.95,-120.921 1169.2,-100.882 1170.39,-85.9721"/>
<polygon fill="midnightblue" stroke="midnightblue" points="1173.89,-85.9384 1170.8,-75.8035 1166.9,-85.652 1173.89,-85.9384"/>
</g>
<!-- Node6&#45;&gt;Node4 -->
<g id="edge7" class="edge"><title>Node6&#45;&gt;Node4</title>
<path fill="none" stroke="midnightblue" d="M623.794,-173.228C561.144,-166.681 431.781,-151.979 323.5,-132 322.042,-131.731 320.555,-131.442 319.055,-131.139"/>
<polygon fill="midnightblue" stroke="midnightblue" points="319.654,-127.687 309.139,-128.986 318.169,-134.528 319.654,-127.687"/>
</g>
<!-- Node7 -->
<g id="node7" class="node"><title>Node7</title>
<g id="a_node7"><a xlink:href="a00195_source.html" target="_top" xlink:title="time.h">
<polygon fill="white" stroke="black" points="472.5,-112.5 472.5,-131.5 516.5,-131.5 516.5,-112.5 472.5,-112.5"/>
<text text-anchor="middle" x="494.5" y="-119.5" font-family="Helvetica,sans-Serif" font-size="10.00">time.h</text>
</a>
</g>
</g>
<!-- Node6&#45;&gt;Node7 -->
<g id="edge8" class="edge"><title>Node6&#45;&gt;Node7</title>
<path fill="none" stroke="midnightblue" d="M635.038,-168.444C605.494,-158.89 557.7,-143.436 526.187,-133.246"/>
<polygon fill="midnightblue" stroke="midnightblue" points="527.163,-129.883 516.571,-130.137 525.009,-136.544 527.163,-129.883"/>
</g>
<!-- Node8 -->
<g id="node8" class="node"><title>Node8</title>
<g id="a_node8"><a xlink:href="a00197_source.html" target="_top" xlink:title="freetds/version.h">
<polygon fill="white" stroke="black" points="553,-112.5 553,-131.5 648,-131.5 648,-112.5 553,-112.5"/>
<text text-anchor="middle" x="600.5" y="-119.5" font-family="Helvetica,sans-Serif" font-size="10.00">freetds/version.h</text>
</a>
</g>
</g>
<!-- Node6&#45;&gt;Node8 -->
<g id="edge10" class="edge"><title>Node6&#45;&gt;Node8</title>
<path fill="none" stroke="midnightblue" d="M651.699,-168.324C642.682,-160.341 629.094,-148.313 618.182,-138.653"/>
<polygon fill="midnightblue" stroke="midnightblue" points="620.287,-135.842 610.479,-131.834 615.647,-141.083 620.287,-135.842"/>
</g>
<!-- Node9 -->
<g id="node9" class="node"><title>Node9</title>
<polygon fill="white" stroke="#bfbfbf" points="666,-112.5 666,-131.5 777,-131.5 777,-112.5 666,-112.5"/>
<text text-anchor="middle" x="721.5" y="-119.5" font-family="Helvetica,sans-Serif" font-size="10.00">tds_sysdep_public.h</text>
</g>
<!-- Node6&#45;&gt;Node9 -->
<g id="edge11" class="edge"><title>Node6&#45;&gt;Node9</title>
<path fill="none" stroke="midnightblue" d="M671.14,-168.324C680.01,-160.341 693.375,-148.313 704.108,-138.653"/>
<polygon fill="midnightblue" stroke="midnightblue" points="706.593,-141.125 711.685,-131.834 701.91,-135.922 706.593,-141.125"/>
</g>
<!-- Node10 -->
<g id="node10" class="node"><title>Node10</title>
<g id="a_node10"><a xlink:href="a00192_source.html" target="_top" xlink:title="freetds/sysdep_private.h">
<polygon fill="white" stroke="black" points="795,-112.5 795,-131.5 928,-131.5 928,-112.5 795,-112.5"/>
<text text-anchor="middle" x="861.5" y="-119.5" font-family="Helvetica,sans-Serif" font-size="10.00">freetds/sysdep_private.h</text>
</a>
</g>
</g>
<!-- Node6&#45;&gt;Node10 -->
<g id="edge12" class="edge"><title>Node6&#45;&gt;Node10</title>
<path fill="none" stroke="midnightblue" d="M693.191,-168.444C727.568,-159.162 782.577,-144.309 820.289,-134.127"/>
<polygon fill="midnightblue" stroke="midnightblue" points="821.216,-137.502 829.958,-131.516 819.391,-130.744 821.216,-137.502"/>
</g>
<!-- Node11 -->
<g id="node11" class="node"><title>Node11</title>
<g id="a_node11"><a xlink:href="a00194_source.html" target="_top" xlink:title="freetds/thread.h">
<polygon fill="white" stroke="black" points="1050.5,-112.5 1050.5,-131.5 1142.5,-131.5 1142.5,-112.5 1050.5,-112.5"/>
<text text-anchor="middle" x="1096.5" y="-119.5" font-family="Helvetica,sans-Serif" font-size="10.00">freetds/thread.h</text>
</a>
</g>
</g>
<!-- Node6&#45;&gt;Node11 -->
<g id="edge13" class="edge"><title>Node6&#45;&gt;Node11</title>
<path fill="none" stroke="midnightblue" d="M699.057,-173.111C765.608,-166.098 908.833,-150.462 1040.08,-132.148"/>
<polygon fill="midnightblue" stroke="midnightblue" points="1040.89,-135.568 1050.31,-130.711 1039.92,-128.636 1040.89,-135.568"/>
</g>
<!-- Node12 -->
<g id="node12" class="node"><title>Node12</title>
<g id="a_node12"><a xlink:href="a00202_source.html" target="_top" xlink:title="replacements.h">
<polygon fill="white" stroke="black" points="366,-112.5 366,-131.5 455,-131.5 455,-112.5 366,-112.5"/>
<text text-anchor="middle" x="410.5" y="-119.5" font-family="Helvetica,sans-Serif" font-size="10.00">replacements.h</text>
</a>
</g>
</g>
<!-- Node6&#45;&gt;Node12 -->
<g id="edge14" class="edge"><title>Node6&#45;&gt;Node12</title>
<path fill="none" stroke="midnightblue" d="M623.923,-168.916C580.385,-159.549 508.476,-144.079 460.31,-133.716"/>
<polygon fill="midnightblue" stroke="midnightblue" points="460.924,-130.268 450.411,-131.587 459.452,-137.112 460.924,-130.268"/>
</g>
<!-- Node6&#45;&gt;Node15 -->
<g id="edge23" class="edge"><title>Node6&#45;&gt;Node15</title>
<path fill="none" stroke="midnightblue" d="M623.654,-176.394C564.753,-174.363 448.375,-165.96 356.5,-132 345.541,-127.949 273.148,-86.2275 267.5,-76 259.036,-60.6751 267.75,-41.646 276.776,-28.1466"/>
<polygon fill="midnightblue" stroke="midnightblue" points="279.801,-29.939 282.868,-19.7978 274.146,-25.8129 279.801,-29.939"/>
</g>
<!-- Node6&#45;&gt;Node16 -->
<g id="edge25" class="edge"><title>Node6&#45;&gt;Node16</title>
<path fill="none" stroke="midnightblue" d="M699.121,-175.582C810.172,-171.133 1131.33,-156.285 1171.5,-132 1203.49,-112.664 1232.92,-83.3975 1207.5,-56 1170.92,-16.576 805.428,-11.4515 662.948,-10.9617"/>
<polygon fill="midnightblue" stroke="midnightblue" points="662.689,-7.46103 652.679,-10.9331 662.669,-14.461 662.689,-7.46103"/>
</g>
<!-- Node18 -->
<g id="node18" class="node"><title>Node18</title>
<g id="a_node18"><a xlink:href="a00187_source.html" target="_top" xlink:title="freetds/proto.h">
<polygon fill="white" stroke="black" points="946.5,-112.5 946.5,-131.5 1032.5,-131.5 1032.5,-112.5 946.5,-112.5"/>
<text text-anchor="middle" x="989.5" y="-119.5" font-family="Helvetica,sans-Serif" font-size="10.00">freetds/proto.h</text>
</a>
</g>
</g>
<!-- Node6&#45;&gt;Node18 -->
<g id="edge24" class="edge"><title>Node6&#45;&gt;Node18</title>
<path fill="none" stroke="midnightblue" d="M699.019,-171.002C750.265,-162.783 845.294,-147.449 936.431,-132.167"/>
<polygon fill="midnightblue" stroke="midnightblue" points="937.093,-135.605 946.375,-130.497 935.934,-128.702 937.093,-135.605"/>
</g>
<!-- Node7&#45;&gt;Node7 -->
<g id="edge9" class="edge"><title>Node7&#45;&gt;Node7</title>
<path fill="none" stroke="midnightblue" d="M511.768,-131.575C523.287,-134.27 534.5,-131.078 534.5,-122 534.5,-115.759 529.2,-112.3 522.145,-111.623"/>
<polygon fill="midnightblue" stroke="midnightblue" points="521.469,-108.165 511.768,-112.425 522.008,-115.144 521.469,-108.165"/>
</g>
<!-- Node12&#45;&gt;Node3 -->
<g id="edge15" class="edge"><title>Node12&#45;&gt;Node3</title>
<path fill="none" stroke="midnightblue" d="M455.272,-113.059C458.052,-112.67 460.812,-112.313 463.5,-112 496.946,-108.107 990.655,-77.9372 1132.6,-69.3021"/>
<polygon fill="midnightblue" stroke="midnightblue" points="1132.81,-72.7957 1142.58,-68.695 1132.38,-65.8086 1132.81,-72.7957"/>
</g>
<!-- Node13 -->
<g id="node13" class="node"><title>Node13</title>
<g id="a_node13"><a xlink:href="a00210_source.html" target="_top" xlink:title="tds_sysdep_public.h">
<polygon fill="white" stroke="black" points="864,-56.5 864,-75.5 975,-75.5 975,-56.5 864,-56.5"/>
<text text-anchor="middle" x="919.5" y="-63.5" font-family="Helvetica,sans-Serif" font-size="10.00">tds_sysdep_public.h</text>
</a>
</g>
</g>
<!-- Node12&#45;&gt;Node13 -->
<g id="edge16" class="edge"><title>Node12&#45;&gt;Node13</title>
<path fill="none" stroke="midnightblue" d="M455.283,-113.147C458.06,-112.737 460.816,-112.351 463.5,-112 633.763,-89.7588 680.009,-95.9435 853.684,-76.1621"/>
<polygon fill="midnightblue" stroke="midnightblue" points="854.139,-79.633 863.673,-75.0119 853.338,-72.6789 854.139,-79.633"/>
</g>
<!-- Node14 -->
<g id="node14" class="node"><title>Node14</title>
<g id="a_node14"><a xlink:href="a00203_source.html" target="_top" xlink:title="replacements/readpassphrase.h">
<polygon fill="white" stroke="black" points="597,-56.5 597,-75.5 766,-75.5 766,-56.5 597,-56.5"/>
<text text-anchor="middle" x="681.5" y="-63.5" font-family="Helvetica,sans-Serif" font-size="10.00">replacements/readpassphrase.h</text>
</a>
</g>
</g>
<!-- Node12&#45;&gt;Node14 -->
<g id="edge17" class="edge"><title>Node12&#45;&gt;Node14</title>
<path fill="none" stroke="midnightblue" d="M453.441,-112.444C501.013,-102.964 577.744,-87.6747 628.889,-77.4835"/>
<polygon fill="midnightblue" stroke="midnightblue" points="629.637,-80.9032 638.76,-75.5164 628.269,-74.0382 629.637,-80.9032"/>
</g>
<!-- Node12&#45;&gt;Node15 -->
<g id="edge21" class="edge"><title>Node12&#45;&gt;Node15</title>
<path fill="none" stroke="midnightblue" d="M368.545,-112.489C333.483,-104.424 287.496,-91.292 276.5,-76 266.63,-62.2742 272.635,-42.9799 279.581,-28.9805"/>
<polygon fill="midnightblue" stroke="midnightblue" points="282.836,-30.3262 284.592,-19.878 276.704,-26.9504 282.836,-30.3262"/>
</g>
<!-- Node12&#45;&gt;Node16 -->
<g id="edge22" class="edge"><title>Node12&#45;&gt;Node16</title>
<path fill="none" stroke="midnightblue" d="M455.274,-113.076C458.054,-112.684 460.812,-112.32 463.5,-112 521.009,-105.144 943.987,-118.343 983.5,-76 1028.37,-27.9212 778.245,-15.3305 662.653,-12.0936"/>
<polygon fill="midnightblue" stroke="midnightblue" points="662.656,-8.59254 652.567,-11.8254 662.47,-15.5901 662.656,-8.59254"/>
</g>
<!-- Node17 -->
<g id="node17" class="node"><title>Node17</title>
<g id="a_node17"><a xlink:href="a00178.html" target="_top" xlink:title="Provide poll call where missing. ">
<polygon fill="white" stroke="red" points="784.5,-56.5 784.5,-75.5 846.5,-75.5 846.5,-56.5 784.5,-56.5"/>
<text text-anchor="middle" x="815.5" y="-63.5" font-family="Helvetica,sans-Serif" font-size="10.00">fakepoll.h</text>
</a>
</g>
</g>
<!-- Node12&#45;&gt;Node17 -->
<g id="edge20" class="edge"><title>Node12&#45;&gt;Node17</title>
<path fill="none" stroke="midnightblue" d="M455.006,-113.267C457.878,-112.822 460.728,-112.395 463.5,-112 598.022,-92.8063 635.516,-98.6511 774.071,-75.8945"/>
<polygon fill="midnightblue" stroke="midnightblue" points="774.934,-79.2992 784.224,-74.2059 773.785,-72.394 774.934,-79.2992"/>
</g>
<!-- Node14&#45;&gt;Node15 -->
<g id="edge18" class="edge"><title>Node14&#45;&gt;Node15</title>
<path fill="none" stroke="midnightblue" d="M619.545,-56.4435C545.248,-46.1825 421.659,-29.114 348.953,-19.0727"/>
<polygon fill="midnightblue" stroke="midnightblue" points="348.991,-15.5449 338.607,-17.6439 348.034,-22.4791 348.991,-15.5449"/>
</g>
<!-- Node14&#45;&gt;Node16 -->
<g id="edge19" class="edge"><title>Node14&#45;&gt;Node16</title>
<path fill="none" stroke="midnightblue" d="M669.45,-56.324C658.037,-48.1066 640.669,-35.6017 627.065,-25.8069"/>
<polygon fill="midnightblue" stroke="midnightblue" points="628.93,-22.8366 618.769,-19.8339 624.84,-28.5174 628.93,-22.8366"/>
</g>
<!-- Node20&#45;&gt;Node15 -->
<g id="edge28" class="edge"><title>Node20&#45;&gt;Node15</title>
<path fill="none" stroke="midnightblue" d="M403.267,-56.4435C381.116,-47.5171 346.181,-33.4387 321.064,-23.3168"/>
<polygon fill="midnightblue" stroke="midnightblue" points="322.217,-20.0079 311.633,-19.5164 319.6,-26.5006 322.217,-20.0079"/>
</g>
<!-- Node20&#45;&gt;Node16 -->
<g id="edge29" class="edge"><title>Node20&#45;&gt;Node16</title>
<path fill="none" stroke="midnightblue" d="M453.338,-56.4435C484.356,-47.2406 533.829,-32.5617 568.118,-22.3879"/>
<polygon fill="midnightblue" stroke="midnightblue" points="569.205,-25.7164 577.796,-19.5164 567.214,-19.0055 569.205,-25.7164"/>
</g>
<!-- Node21&#45;&gt;Node15 -->
<g id="edge31" class="edge"><title>Node21&#45;&gt;Node15</title>
<path fill="none" stroke="midnightblue" d="M318.886,-56.083C314.133,-48.5341 307.182,-37.4948 301.348,-28.2298"/>
<polygon fill="midnightblue" stroke="midnightblue" points="304.3,-26.3486 296.01,-19.7511 298.376,-30.0783 304.3,-26.3486"/>
</g>
<!-- Node21&#45;&gt;Node16 -->
<g id="edge32" class="edge"><title>Node21&#45;&gt;Node16</title>
<path fill="none" stroke="midnightblue" d="M363.711,-57.4915C412.721,-48.1066 496.864,-31.9941 552.089,-21.4191"/>
<polygon fill="midnightblue" stroke="midnightblue" points="552.886,-24.8301 562.05,-19.5118 551.57,-17.955 552.886,-24.8301"/>
</g>
<!-- Node22&#45;&gt;Node15 -->
<g id="edge34" class="edge"><title>Node22&#45;&gt;Node15</title>
<path fill="none" stroke="midnightblue" d="M494.154,-56.4435C452.027,-47.0431 384.294,-31.9291 338.628,-21.7393"/>
<polygon fill="midnightblue" stroke="midnightblue" points="339.188,-18.2784 328.666,-19.5164 337.664,-25.1103 339.188,-18.2784"/>
</g>
<!-- Node22&#45;&gt;Node16 -->
<g id="edge35" class="edge"><title>Node22&#45;&gt;Node16</title>
<path fill="none" stroke="midnightblue" d="M544.389,-56.324C555.65,-48.1066 572.787,-35.6017 586.209,-25.8069"/>
<polygon fill="midnightblue" stroke="midnightblue" points="588.38,-28.5559 594.394,-19.8339 584.253,-22.9014 588.38,-28.5559"/>
</g>
<!-- Node23&#45;&gt;Node15 -->
<g id="edge37" class="edge"><title>Node23&#45;&gt;Node15</title>
<path fill="none" stroke="midnightblue" d="M172.683,-56.4435C195.928,-47.4776 232.649,-33.314 258.915,-23.1827"/>
<polygon fill="midnightblue" stroke="midnightblue" points="260.35,-26.3807 268.42,-19.5164 257.831,-19.8497 260.35,-26.3807"/>
</g>
<!-- Node23&#45;&gt;Node16 -->
<g id="edge38" class="edge"><title>Node23&#45;&gt;Node16</title>
<path fill="none" stroke="midnightblue" d="M191.771,-60.1126C273.761,-50.4033 457.245,-28.675 550.21,-17.6659"/>
<polygon fill="midnightblue" stroke="midnightblue" points="550.754,-21.126 560.273,-16.4742 549.931,-14.1746 550.754,-21.126"/>
</g>
</g>
</svg>
