<?xml version="1.0" encoding="UTF-8" standalone="no"?>
<!DOCTYPE svg PUBLIC "-//W3C//DTD SVG 1.1//EN"
 "http://www.w3.org/Graphics/SVG/1.1/DTD/svg11.dtd">
<!-- Generated by graphviz version 2.38.0 (20140413.2041)
 -->
<!-- Title: tds7_build_param_def_from_params Pages: 1 -->
<svg width="752pt" height="294pt"
 viewBox="0.00 0.00 752.00 294.00" xmlns="http://www.w3.org/2000/svg" xmlns:xlink="http://www.w3.org/1999/xlink">
<g id="graph0" class="graph" transform="scale(1 1) rotate(0) translate(4 290)">
<title>tds7_build_param_def_from_params</title>
<polygon fill="white" stroke="none" points="-4,4 -4,-290 748,-290 748,4 -4,4"/>
<!-- Node1 -->
<g id="node1" class="node"><title>Node1</title>
<polygon fill="#bfbfbf" stroke="black" points="0,-99 0,-129 121,-129 121,-99 0,-99"/>
<text text-anchor="start" x="8" y="-117" font-family="Helvetica,sans-Serif" font-size="10.00">tds7_build_param_def</text>
<text text-anchor="middle" x="60.5" y="-106" font-family="Helvetica,sans-Serif" font-size="10.00">_from_params</text>
</g>
<!-- Node2 -->
<g id="node2" class="node"><title>Node2</title>
<g id="a_node2"><a xlink:href="a00356.html#gaa823973b74efdf1ff00f340496bff614" target="_top" xlink:title="Found the next placeholder (? or @param) in a string. ">
<polygon fill="white" stroke="black" points="172,-223 172,-253 291,-253 291,-223 172,-223"/>
<text text-anchor="start" x="180" y="-241" font-family="Helvetica,sans-Serif" font-size="10.00">tds_next_placeholder</text>
<text text-anchor="middle" x="231.5" y="-230" font-family="Helvetica,sans-Serif" font-size="10.00">_ucs2le</text>
</a>
</g>
</g>
<!-- Node1&#45;&gt;Node2 -->
<g id="edge1" class="edge"><title>Node1&#45;&gt;Node2</title>
<path fill="none" stroke="midnightblue" d="M82.2227,-129.205C112.206,-151.204 167.801,-191.996 201.739,-216.897"/>
<polygon fill="midnightblue" stroke="midnightblue" points="199.739,-219.771 209.872,-222.865 203.88,-214.127 199.739,-219.771"/>
</g>
<!-- Node5 -->
<g id="node5" class="node"><title>Node5</title>
<g id="a_node5"><a xlink:href="a00354.html#ga87db49044919f1bc84c0ff5e9ab00304" target="_top" xlink:title="Wrapper around iconv(3). ">
<polygon fill="white" stroke="black" points="200.5,-133.5 200.5,-152.5 262.5,-152.5 262.5,-133.5 200.5,-133.5"/>
<text text-anchor="middle" x="231.5" y="-140.5" font-family="Helvetica,sans-Serif" font-size="10.00">tds_iconv</text>
</a>
</g>
</g>
<!-- Node1&#45;&gt;Node5 -->
<g id="edge4" class="edge"><title>Node1&#45;&gt;Node5</title>
<path fill="none" stroke="midnightblue" d="M121.083,-124.224C144.009,-128.158 169.622,-132.553 190.3,-136.102"/>
<polygon fill="midnightblue" stroke="midnightblue" points="189.873,-139.58 200.321,-137.821 191.057,-132.68 189.873,-139.58"/>
</g>
<!-- Node9 -->
<g id="node9" class="node"><title>Node9</title>
<g id="a_node9"><a xlink:href="a00356.html#ga50d62edeb2a432e2dc668263f3f958ff" target="_top" xlink:title="Return declaration for column (like &quot;varchar(20)&quot;) ">
<polygon fill="white" stroke="black" points="157,-76.5 157,-95.5 306,-95.5 306,-76.5 157,-76.5"/>
<text text-anchor="middle" x="231.5" y="-83.5" font-family="Helvetica,sans-Serif" font-size="10.00">tds_get_column_declaration</text>
</a>
</g>
</g>
<!-- Node1&#45;&gt;Node9 -->
<g id="edge10" class="edge"><title>Node1&#45;&gt;Node9</title>
<path fill="none" stroke="midnightblue" d="M121.083,-104.128C134.695,-101.873 149.254,-99.4609 163.165,-97.1561"/>
<polygon fill="midnightblue" stroke="midnightblue" points="163.864,-100.588 173.157,-95.5006 162.72,-93.6823 163.864,-100.588"/>
</g>
<!-- Node12 -->
<g id="node12" class="node"><title>Node12</title>
<g id="a_node12"><a xlink:href="a00356.html#gad05fc65e1d505c68d14c82b99a00e4eb" target="_top" xlink:title="Accept an ASCII string, convert it to UCS2&#45;LE The input is null&#45;terminated, but the output excludes t...">
<polygon fill="white" stroke="black" points="181,-38.5 181,-57.5 282,-57.5 282,-38.5 181,-38.5"/>
<text text-anchor="middle" x="231.5" y="-45.5" font-family="Helvetica,sans-Serif" font-size="10.00">tds_ascii_to_ucs2</text>
</a>
</g>
</g>
<!-- Node1&#45;&gt;Node12 -->
<g id="edge14" class="edge"><title>Node1&#45;&gt;Node12</title>
<path fill="none" stroke="midnightblue" d="M88.426,-98.9004C107.207,-88.8325 133.09,-75.8676 157,-67 163.476,-64.5982 170.381,-62.3835 177.267,-60.3799"/>
<polygon fill="midnightblue" stroke="midnightblue" points="178.592,-63.6448 187.292,-57.5984 176.72,-56.8996 178.592,-63.6448"/>
</g>
<!-- Node3 -->
<g id="node3" class="node"><title>Node3</title>
<g id="a_node3"><a xlink:href="a00356.html#ga2361ec4629aa0eac38f1702b03ed8185" target="_top" xlink:title="Return pointer to end of a quoted string. ">
<polygon fill="white" stroke="black" points="347,-266.5 347,-285.5 477,-285.5 477,-266.5 347,-266.5"/>
<text text-anchor="middle" x="412" y="-273.5" font-family="Helvetica,sans-Serif" font-size="10.00">tds_skip_quoted_ucs2le</text>
</a>
</g>
</g>
<!-- Node2&#45;&gt;Node3 -->
<g id="edge2" class="edge"><title>Node2&#45;&gt;Node3</title>
<path fill="none" stroke="midnightblue" d="M291.442,-250.548C312.387,-255.007 335.858,-260.003 356.422,-264.381"/>
<polygon fill="midnightblue" stroke="midnightblue" points="355.75,-267.816 366.259,-266.475 357.207,-260.97 355.75,-267.816"/>
</g>
<!-- Node4 -->
<g id="node4" class="node"><title>Node4</title>
<g id="a_node4"><a xlink:href="a00356.html#gab304fda9f325e852ba5c5252079d22e3" target="_top" xlink:title="Skip a comment in a query. ">
<polygon fill="white" stroke="black" points="342,-228.5 342,-247.5 482,-247.5 482,-228.5 342,-228.5"/>
<text text-anchor="middle" x="412" y="-235.5" font-family="Helvetica,sans-Serif" font-size="10.00">tds_skip_comment_ucs2le</text>
</a>
</g>
</g>
<!-- Node2&#45;&gt;Node4 -->
<g id="edge3" class="edge"><title>Node2&#45;&gt;Node4</title>
<path fill="none" stroke="midnightblue" d="M291.442,-238C304.309,-238 318.129,-238 331.643,-238"/>
<polygon fill="midnightblue" stroke="midnightblue" points="331.896,-241.5 341.896,-238 331.896,-234.5 331.896,-241.5"/>
</g>
<!-- Node6 -->
<g id="node6" class="node"><title>Node6</title>
<g id="a_node6"><a xlink:href="a00193.html#ab45c291105027e69836002e1dd586141" target="_top" xlink:title="Write a message to the debug log. ">
<polygon fill="white" stroke="black" points="667,-133.5 667,-152.5 744,-152.5 744,-133.5 667,-133.5"/>
<text text-anchor="middle" x="705.5" y="-140.5" font-family="Helvetica,sans-Serif" font-size="10.00">tdsdump_log</text>
</a>
</g>
</g>
<!-- Node5&#45;&gt;Node6 -->
<g id="edge5" class="edge"><title>Node5&#45;&gt;Node6</title>
<path fill="none" stroke="midnightblue" d="M253.348,-152.59C274.98,-161.973 310.053,-175.614 342,-181 456.252,-200.261 592.511,-172.53 660.85,-155.175"/>
<polygon fill="midnightblue" stroke="midnightblue" points="662.022,-158.487 670.825,-152.592 660.267,-151.711 662.022,-158.487"/>
</g>
<!-- Node7 -->
<g id="node7" class="node"><title>Node7</title>
<g id="a_node7"><a xlink:href="a00354.html#ga3380140fc6eb9f2090c430f40e846876" target="_top" xlink:title="Move the input sequence pointer to the next valid position. ">
<polygon fill="white" stroke="black" points="342,-152.5 342,-171.5 482,-171.5 482,-152.5 342,-152.5"/>
<text text-anchor="middle" x="412" y="-159.5" font-family="Helvetica,sans-Serif" font-size="10.00">skip_one_input_sequence</text>
</a>
</g>
</g>
<!-- Node5&#45;&gt;Node7 -->
<g id="edge6" class="edge"><title>Node5&#45;&gt;Node7</title>
<path fill="none" stroke="midnightblue" d="M262.78,-146.223C281.838,-148.252 307.389,-150.971 331.905,-153.581"/>
<polygon fill="midnightblue" stroke="midnightblue" points="331.645,-157.073 341.959,-154.651 332.386,-150.112 331.645,-157.073"/>
</g>
<!-- Node8 -->
<g id="node8" class="node"><title>Node8</title>
<g id="a_node8"><a xlink:href="a00354.html#ga900b0bce08c6bfc2e7c988f4b5970516" target="_top" xlink:title="Inputs are FreeTDS canonical names, no other. ">
<polygon fill="white" stroke="black" points="518,-133.5 518,-152.5 631,-152.5 631,-133.5 518,-133.5"/>
<text text-anchor="middle" x="574.5" y="-140.5" font-family="Helvetica,sans-Serif" font-size="10.00">tds_sys_iconv_open</text>
</a>
</g>
</g>
<!-- Node5&#45;&gt;Node8 -->
<g id="edge9" class="edge"><title>Node5&#45;&gt;Node8</title>
<path fill="none" stroke="midnightblue" d="M262.761,-143C317.482,-143 434.037,-143 507.813,-143"/>
<polygon fill="midnightblue" stroke="midnightblue" points="507.928,-146.5 517.928,-143 507.928,-139.5 507.928,-146.5"/>
</g>
<!-- Node7&#45;&gt;Node8 -->
<g id="edge7" class="edge"><title>Node7&#45;&gt;Node8</title>
<path fill="none" stroke="midnightblue" d="M482.464,-153.777C490.897,-152.779 499.491,-151.761 507.865,-150.77"/>
<polygon fill="midnightblue" stroke="midnightblue" points="508.426,-154.228 517.945,-149.577 507.603,-147.277 508.426,-154.228"/>
</g>
<!-- Node8&#45;&gt;Node6 -->
<g id="edge8" class="edge"><title>Node8&#45;&gt;Node6</title>
<path fill="none" stroke="midnightblue" d="M631.331,-143C639.758,-143 648.385,-143 656.624,-143"/>
<polygon fill="midnightblue" stroke="midnightblue" points="656.809,-146.5 666.809,-143 656.808,-139.5 656.809,-146.5"/>
</g>
<!-- Node9&#45;&gt;Node6 -->
<g id="edge13" class="edge"><title>Node9&#45;&gt;Node6</title>
<path fill="none" stroke="midnightblue" d="M306.047,-89.5284C386.37,-94.1904 518.574,-104.236 631,-124 641.222,-125.797 652.111,-128.286 662.288,-130.872"/>
<polygon fill="midnightblue" stroke="midnightblue" points="661.616,-134.314 672.177,-133.468 663.394,-127.544 661.616,-134.314"/>
</g>
<!-- Node10 -->
<g id="node10" class="node"><title>Node10</title>
<g id="a_node10"><a xlink:href="a00356.html#ga440f0f469afad1eac4c008979873ccdd" target="_top" xlink:title="Get column size for wire. ">
<polygon fill="white" stroke="black" points="356.5,-38.5 356.5,-57.5 467.5,-57.5 467.5,-38.5 356.5,-38.5"/>
<text text-anchor="middle" x="412" y="-45.5" font-family="Helvetica,sans-Serif" font-size="10.00">tds_fix_column_size</text>
</a>
</g>
</g>
<!-- Node9&#45;&gt;Node10 -->
<g id="edge11" class="edge"><title>Node9&#45;&gt;Node10</title>
<path fill="none" stroke="midnightblue" d="M277.543,-76.411C301.523,-71.3061 331.198,-64.9887 356.472,-59.6082"/>
<polygon fill="midnightblue" stroke="midnightblue" points="357.229,-63.0256 366.281,-57.5201 355.771,-56.179 357.229,-63.0256"/>
</g>
<!-- Node11 -->
<g id="node11" class="node"><title>Node11</title>
<g id="a_node11"><a xlink:href="a00193.html#ae7f4c4d5f7352f1c814284c536659e6f" target="_top" xlink:title="Return type suitable for conversions (convert all nullable types to fixed type) ">
<polygon fill="white" stroke="black" points="344,-0.5 344,-19.5 480,-19.5 480,-0.5 344,-0.5"/>
<text text-anchor="middle" x="412" y="-7.5" font-family="Helvetica,sans-Serif" font-size="10.00">tds_get_conversion_type</text>
</a>
</g>
</g>
<!-- Node9&#45;&gt;Node11 -->
<g id="edge12" class="edge"><title>Node9&#45;&gt;Node11</title>
<path fill="none" stroke="midnightblue" d="M284.573,-76.451C292.041,-73.9806 299.415,-70.8822 306,-67 326.041,-55.185 322.053,-40.9723 342,-29 345.596,-26.842 349.442,-24.9227 353.412,-23.2168"/>
<polygon fill="midnightblue" stroke="midnightblue" points="354.746,-26.4538 362.835,-19.6115 352.244,-19.916 354.746,-26.4538"/>
</g>
</g>
</svg>
