<?xml version="1.0" encoding="UTF-8" standalone="no"?>
<!DOCTYPE svg PUBLIC "-//W3C//DTD SVG 1.1//EN"
 "http://www.w3.org/Graphics/SVG/1.1/DTD/svg11.dtd">
<!-- Generated by graphviz version 2.38.0 (20140413.2041)
 -->
<!-- Title: tds_dstr_copy Pages: 1 -->
<svg width="914pt" height="610pt"
 viewBox="0.00 0.00 914.00 609.50" xmlns="http://www.w3.org/2000/svg" xmlns:xlink="http://www.w3.org/1999/xlink">
<g id="graph0" class="graph" transform="scale(1 1) rotate(0) translate(4 605.5)">
<title>tds_dstr_copy</title>
<polygon fill="white" stroke="none" points="-4,4 -4,-605.5 910,-605.5 910,4 -4,4"/>
<!-- Node1 -->
<g id="node1" class="node"><title>Node1</title>
<polygon fill="#bfbfbf" stroke="black" points="0,-354 0,-373 83,-373 83,-354 0,-354"/>
<text text-anchor="middle" x="41.5" y="-361" font-family="Helvetica,sans-Serif" font-size="10.00">tds_dstr_copy</text>
</g>
<!-- Node2 -->
<g id="node2" class="node"><title>Node2</title>
<g id="a_node2"><a xlink:href="a00347.html#gae1fc46447c4f8a9ff7f66607b8cd23b6" target="_top" xlink:title="Set the value of a string in a LOGINREC structure. ">
<polygon fill="white" stroke="black" points="141.5,-582 141.5,-601 212.5,-601 212.5,-582 141.5,-582"/>
<text text-anchor="middle" x="177" y="-589" font-family="Helvetica,sans-Serif" font-size="10.00">dbsetlname</text>
</a>
</g>
</g>
<!-- Node1&#45;&gt;Node2 -->
<g id="edge1" class="edge"><title>Node1&#45;&gt;Node2</title>
<path fill="none" stroke="midnightblue" d="M44.6628,-382.993C50.0586,-422.766 67.6023,-514.017 119,-567.5 125.101,-573.848 133.141,-578.592 141.253,-582.108"/>
<polygon fill="midnightblue" stroke="midnightblue" points="48.1287,-382.502 43.422,-373.01 41.1822,-383.365 48.1287,-382.502"/>
</g>
<!-- Node3 -->
<g id="node3" class="node"><title>Node3</title>
<g id="a_node3"><a xlink:href="a00352.html#gaca20b6e5f5a5ac1727126712dd39564b" target="_top" xlink:title="Open and read the file &#39;file&#39; searching for a logical server by the name of &#39;host&#39;. ">
<polygon fill="white" stroke="black" points="119,-430 119,-449 235,-449 235,-430 119,-430"/>
<text text-anchor="middle" x="177" y="-437" font-family="Helvetica,sans-Serif" font-size="10.00">search_interface_file</text>
</a>
</g>
</g>
<!-- Node1&#45;&gt;Node3 -->
<g id="edge2" class="edge"><title>Node1&#45;&gt;Node3</title>
<path fill="none" stroke="midnightblue" d="M63.0783,-379.14C78.0871,-390.129 99.1838,-404.732 119,-415.5 128.906,-420.883 140.275,-425.888 150.24,-429.919"/>
<polygon fill="midnightblue" stroke="midnightblue" points="65.1162,-376.293 55.0006,-373.143 60.9436,-381.914 65.1162,-376.293"/>
</g>
<!-- Node4 -->
<g id="node4" class="node"><title>Node4</title>
<g id="a_node4"><a xlink:href="a00352.html#ga6631af35ee817f93827c62bbda41674a" target="_top" xlink:title="Try to find the IP number and port for a (possibly) logical server name. ">
<polygon fill="white" stroke="black" points="293,-468 293,-487 404,-487 404,-468 293,-468"/>
<text text-anchor="middle" x="348.5" y="-475" font-family="Helvetica,sans-Serif" font-size="10.00">tds_read_interfaces</text>
</a>
</g>
</g>
<!-- Node1&#45;&gt;Node4 -->
<g id="edge6" class="edge"><title>Node1&#45;&gt;Node4</title>
<path fill="none" stroke="midnightblue" d="M51.4949,-382.112C63.4613,-404.58 86.9014,-441.465 119,-458.5 172.974,-487.144 244.374,-488.269 292.898,-484.577"/>
<polygon fill="midnightblue" stroke="midnightblue" points="54.608,-380.513 46.9454,-373.196 48.3728,-383.694 54.608,-380.513"/>
</g>
<!-- Node7 -->
<g id="node7" class="node"><title>Node7</title>
<g id="a_node7"><a xlink:href="a00352.html#gaa9670914093b354e7a123b10ba877813" target="_top" xlink:title="Check the server name to find port info first Warning: connection&#45;&gt; &amp; login&#45;&gt; are all modified when n...">
<polygon fill="white" stroke="black" points="271,-411 271,-430 426,-430 426,-411 271,-411"/>
<text text-anchor="middle" x="348.5" y="-418" font-family="Helvetica,sans-Serif" font-size="10.00">parse_server_name_for_port</text>
</a>
</g>
</g>
<!-- Node1&#45;&gt;Node7 -->
<g id="edge7" class="edge"><title>Node1&#45;&gt;Node7</title>
<path fill="none" stroke="midnightblue" d="M88.3812,-375.518C98.4364,-377.977 109.05,-380.44 119,-382.5 173.541,-393.79 235.949,-403.986 281.747,-410.968"/>
<polygon fill="midnightblue" stroke="midnightblue" points="89.1064,-372.092 78.5573,-373.075 87.417,-378.885 89.1064,-372.092"/>
</g>
<!-- Node8 -->
<g id="node8" class="node"><title>Node8</title>
<g id="a_node8"><a xlink:href="a00193.html#ad511d50edc54847d606ce4c9a4945a62" target="_top" xlink:title="Set the servername in a TDSLOGIN structure. ">
<polygon fill="white" stroke="black" points="478.5,-534 478.5,-553 565.5,-553 565.5,-534 478.5,-534"/>
<text text-anchor="middle" x="522" y="-541" font-family="Helvetica,sans-Serif" font-size="10.00">tds_set_server</text>
</a>
</g>
</g>
<!-- Node1&#45;&gt;Node8 -->
<g id="edge9" class="edge"><title>Node1&#45;&gt;Node8</title>
<path fill="none" stroke="midnightblue" d="M46.015,-383.152C53.1737,-416.866 72.8519,-485.207 119,-517.5 230.881,-595.79 405.945,-569.781 482.731,-553.029"/>
<polygon fill="midnightblue" stroke="midnightblue" points="49.4115,-382.285 44.047,-373.148 42.5431,-383.636 49.4115,-382.285"/>
</g>
<!-- Node9 -->
<g id="node9" class="node"><title>Node9</title>
<g id="a_node9"><a xlink:href="a00356.html#ga3a5d1771cacc947521c4077551f0d3a4" target="_top" xlink:title="Substitute ?&#45;style placeholders with named (@param) ones. ">
<polygon fill="white" stroke="black" points="123.5,-354 123.5,-373 230.5,-373 230.5,-354 123.5,-354"/>
<text text-anchor="middle" x="177" y="-361" font-family="Helvetica,sans-Serif" font-size="10.00">tds5_fix_dot_query</text>
</a>
</g>
</g>
<!-- Node1&#45;&gt;Node9 -->
<g id="edge11" class="edge"><title>Node1&#45;&gt;Node9</title>
<path fill="none" stroke="midnightblue" d="M93.5676,-363.5C103.256,-363.5 113.411,-363.5 123.153,-363.5"/>
<polygon fill="midnightblue" stroke="midnightblue" points="93.2798,-360 83.2798,-363.5 93.2798,-367 93.2798,-360"/>
</g>
<!-- Node12 -->
<g id="node12" class="node"><title>Node12</title>
<g id="a_node12"><a xlink:href="a00355.html#ga2ef389ac3b0cddec76bf8f1c0951bc9c" target="_top" xlink:title="Initialize login structure with locale information and other stuff for connection. ">
<polygon fill="white" stroke="black" points="309,-506 309,-525 388,-525 388,-506 309,-506"/>
<text text-anchor="middle" x="348.5" y="-513" font-family="Helvetica,sans-Serif" font-size="10.00">tds_init_login</text>
</a>
</g>
</g>
<!-- Node1&#45;&gt;Node12 -->
<g id="edge14" class="edge"><title>Node1&#45;&gt;Node12</title>
<path fill="none" stroke="midnightblue" d="M48.6341,-383.08C58.5337,-411.127 80.879,-462.049 119,-486.5 177.062,-523.742 260.626,-523.962 308.961,-520.143"/>
<polygon fill="midnightblue" stroke="midnightblue" points="51.8327,-381.609 45.3419,-373.235 45.1941,-383.829 51.8327,-381.609"/>
</g>
<!-- Node13 -->
<g id="node13" class="node"><title>Node13</title>
<g id="a_node13"><a xlink:href="a00358.html#gab78cc59b110df2817b00f9bed74c6ff1" target="_top" xlink:title="set a string from another buffer. ">
<polygon fill="white" stroke="black" points="139.5,-316 139.5,-335 214.5,-335 214.5,-316 139.5,-316"/>
<text text-anchor="middle" x="177" y="-323" font-family="Helvetica,sans-Serif" font-size="10.00">tds_dstr_set</text>
</a>
</g>
</g>
<!-- Node1&#45;&gt;Node13 -->
<g id="edge16" class="edge"><title>Node1&#45;&gt;Node13</title>
<path fill="none" stroke="midnightblue" d="M86.03,-351.109C104.312,-345.906 125.249,-339.946 142.323,-335.086"/>
<polygon fill="midnightblue" stroke="midnightblue" points="84.8474,-347.807 76.1877,-353.911 86.7639,-354.54 84.8474,-347.807"/>
</g>
<!-- Node14 -->
<g id="node14" class="node"><title>Node14</title>
<g id="a_node14"><a xlink:href="a00359.html#ga905d2fa5e1b602817bd16bb0fcf9eadb" target="_top" xlink:title="tds_process_col_name() is one half of the result set under TDS 4.2 it contains all the column names...">
<polygon fill="white" stroke="black" points="285.5,-202 285.5,-221 411.5,-221 411.5,-202 285.5,-202"/>
<text text-anchor="middle" x="348.5" y="-209" font-family="Helvetica,sans-Serif" font-size="10.00">tds_process_col_name</text>
</a>
</g>
</g>
<!-- Node1&#45;&gt;Node14 -->
<g id="edge17" class="edge"><title>Node1&#45;&gt;Node14</title>
<path fill="none" stroke="midnightblue" d="M48.0613,-343.848C57.4312,-314.725 79.3393,-260.83 119,-235.5 168.417,-203.938 236.424,-200.71 285.378,-203.682"/>
<polygon fill="midnightblue" stroke="midnightblue" points="44.6308,-343.1 45.0733,-353.685 51.3286,-345.134 44.6308,-343.1"/>
</g>
<!-- Node19 -->
<g id="node19" class="node"><title>Node19</title>
<g id="a_node19"><a xlink:href="a00359.html#ga22c7f413d43fc0d511e122a3de389166" target="_top" xlink:title="Reads column information. ">
<polygon fill="white" stroke="black" points="121.5,-145 121.5,-164 232.5,-164 232.5,-145 121.5,-145"/>
<text text-anchor="middle" x="177" y="-152" font-family="Helvetica,sans-Serif" font-size="10.00">tds_process_colinfo</text>
</a>
</g>
</g>
<!-- Node1&#45;&gt;Node19 -->
<g id="edge25" class="edge"><title>Node1&#45;&gt;Node19</title>
<path fill="none" stroke="midnightblue" d="M47.9392,-344.3C57.9172,-311.542 81.6183,-243.901 119,-197.5 130.199,-183.6 146.834,-171.732 159.246,-164.008"/>
<polygon fill="midnightblue" stroke="midnightblue" points="44.5529,-343.409 45.0815,-353.991 51.2671,-345.389 44.5529,-343.409"/>
</g>
<!-- Node21 -->
<g id="node21" class="node"><title>Node21</title>
<g id="a_node21"><a xlink:href="a00359.html#gae3368ea80d0d8b13791ceb13ee5f19c9" target="_top" xlink:title="tds_process_compute_result() processes compute result sets. ">
<polygon fill="white" stroke="black" points="628,-0.5 628,-30.5 748,-30.5 748,-0.5 628,-0.5"/>
<text text-anchor="start" x="636" y="-18.5" font-family="Helvetica,sans-Serif" font-size="10.00">tds_process_compute</text>
<text text-anchor="middle" x="688" y="-7.5" font-family="Helvetica,sans-Serif" font-size="10.00">_result</text>
</a>
</g>
</g>
<!-- Node1&#45;&gt;Node21 -->
<g id="edge30" class="edge"><title>Node1&#45;&gt;Node21</title>
<path fill="none" stroke="midnightblue" d="M43.0906,-343.428C45.5247,-299.052 57.7909,-192.07 119,-135.5 262.224,-3.13195 513.445,-2.30835 627.575,-9.79596"/>
<polygon fill="midnightblue" stroke="midnightblue" points="39.5897,-343.377 42.6527,-353.519 46.5831,-343.68 39.5897,-343.377"/>
</g>
<!-- Node22 -->
<g id="node22" class="node"><title>Node22</title>
<g id="a_node22"><a xlink:href="a00359.html#gae5b3e01f3d665f9e377de091f46f1ab9" target="_top" xlink:title="tds_process_compute_names() processes compute result sets. ">
<polygon fill="white" stroke="black" points="462,-281.5 462,-311.5 582,-311.5 582,-281.5 462,-281.5"/>
<text text-anchor="start" x="470" y="-299.5" font-family="Helvetica,sans-Serif" font-size="10.00">tds_process_compute</text>
<text text-anchor="middle" x="522" y="-288.5" font-family="Helvetica,sans-Serif" font-size="10.00">_names</text>
</a>
</g>
</g>
<!-- Node1&#45;&gt;Node22 -->
<g id="edge32" class="edge"><title>Node1&#45;&gt;Node22</title>
<path fill="none" stroke="midnightblue" d="M58.7732,-346.576C73.1507,-332.901 95.4444,-314.637 119,-306.5 235.137,-266.381 381.593,-276.699 461.787,-287.066"/>
<polygon fill="midnightblue" stroke="midnightblue" points="55.9269,-344.468 51.2731,-353.986 60.8467,-349.447 55.9269,-344.468"/>
</g>
<!-- Node23 -->
<g id="node23" class="node"><title>Node23</title>
<g id="a_node23"><a xlink:href="a00359.html#ga6728e344caa20aea1def85f58dea138b" target="_top" xlink:title="tds7_process_compute_result() processes compute result sets for TDS 7/8. ">
<polygon fill="white" stroke="black" points="625,-240.5 625,-270.5 751,-270.5 751,-240.5 625,-240.5"/>
<text text-anchor="start" x="633" y="-258.5" font-family="Helvetica,sans-Serif" font-size="10.00">tds7_process_compute</text>
<text text-anchor="middle" x="688" y="-247.5" font-family="Helvetica,sans-Serif" font-size="10.00">_result</text>
</a>
</g>
</g>
<!-- Node1&#45;&gt;Node23 -->
<g id="edge34" class="edge"><title>Node1&#45;&gt;Node23</title>
<path fill="none" stroke="midnightblue" d="M52.8207,-345.11C65.4466,-324.657 88.9062,-292.639 119,-278.5 207.096,-237.109 496.646,-245.848 624.906,-252.038"/>
<polygon fill="midnightblue" stroke="midnightblue" points="49.7351,-343.452 47.6538,-353.84 55.7591,-347.017 49.7351,-343.452"/>
</g>
<!-- Node3&#45;&gt;Node4 -->
<g id="edge3" class="edge"><title>Node3&#45;&gt;Node4</title>
<path fill="none" stroke="midnightblue" d="M230.742,-451.324C254.639,-456.682 282.515,-462.931 305.036,-467.98"/>
<polygon fill="midnightblue" stroke="midnightblue" points="231.295,-447.861 220.772,-449.089 229.764,-454.692 231.295,-447.861"/>
</g>
<!-- Node5 -->
<g id="node5" class="node"><title>Node5</title>
<g id="a_node5"><a xlink:href="a00352.html#ga9af192306186ddf39e09be0fd4ad8aaf" target="_top" xlink:title="tds_read_config_info() will fill the tds connection structure based on configuration information gath...">
<polygon fill="white" stroke="black" points="464,-477 464,-496 580,-496 580,-477 464,-477"/>
<text text-anchor="middle" x="522" y="-484" font-family="Helvetica,sans-Serif" font-size="10.00">tds_read_config_info</text>
</a>
</g>
</g>
<!-- Node4&#45;&gt;Node5 -->
<g id="edge4" class="edge"><title>Node4&#45;&gt;Node5</title>
<path fill="none" stroke="midnightblue" d="M414.227,-480.897C430.535,-481.753 447.924,-482.665 463.832,-483.5"/>
<polygon fill="midnightblue" stroke="midnightblue" points="414.405,-477.401 404.235,-480.372 414.038,-484.392 414.405,-477.401"/>
</g>
<!-- Node6 -->
<g id="node6" class="node"><title>Node6</title>
<g id="a_node6"><a xlink:href="a00347.html#ga2c99ec565452279e9a382451d89642eb" target="_top" xlink:title="Form a connection with the server. ">
<polygon fill="white" stroke="red" points="655,-496 655,-515 721,-515 721,-496 655,-496"/>
<text text-anchor="middle" x="688" y="-503" font-family="Helvetica,sans-Serif" font-size="10.00">tdsdbopen</text>
</a>
</g>
</g>
<!-- Node5&#45;&gt;Node6 -->
<g id="edge5" class="edge"><title>Node5&#45;&gt;Node6</title>
<path fill="none" stroke="midnightblue" d="M590.449,-494.314C612.688,-496.891 636.403,-499.638 654.764,-501.765"/>
<polygon fill="midnightblue" stroke="midnightblue" points="590.696,-490.819 580.359,-493.145 589.89,-497.773 590.696,-490.819"/>
</g>
<!-- Node7&#45;&gt;Node5 -->
<g id="edge8" class="edge"><title>Node7&#45;&gt;Node5</title>
<path fill="none" stroke="midnightblue" d="M383.777,-433.691C417.052,-446.497 466.744,-465.62 496.311,-476.999"/>
<polygon fill="midnightblue" stroke="midnightblue" points="385.027,-430.422 374.438,-430.097 382.513,-436.955 385.027,-430.422"/>
</g>
<!-- Node8&#45;&gt;Node6 -->
<g id="edge10" class="edge"><title>Node8&#45;&gt;Node6</title>
<path fill="none" stroke="midnightblue" d="M574.229,-531.63C600.625,-525.514 631.996,-518.245 654.941,-512.928"/>
<polygon fill="midnightblue" stroke="midnightblue" points="573.336,-528.244 564.384,-533.911 574.916,-535.063 573.336,-528.244"/>
</g>
<!-- Node10 -->
<g id="node10" class="node"><title>Node10</title>
<g id="a_node10"><a xlink:href="a00356.html#ga95e0fccedc459a4404f496eec74a369a" target="_top" xlink:title="tds_submit_query_params() sends a language string to the database server for processing. ">
<polygon fill="white" stroke="black" points="278.5,-354 278.5,-373 418.5,-373 418.5,-354 278.5,-354"/>
<text text-anchor="middle" x="348.5" y="-361" font-family="Helvetica,sans-Serif" font-size="10.00">tds_submit_query_params</text>
</a>
</g>
</g>
<!-- Node9&#45;&gt;Node10 -->
<g id="edge12" class="edge"><title>Node9&#45;&gt;Node10</title>
<path fill="none" stroke="midnightblue" d="M240.79,-363.5C253.012,-363.5 265.888,-363.5 278.304,-363.5"/>
<polygon fill="midnightblue" stroke="midnightblue" points="240.702,-360 230.702,-363.5 240.702,-367 240.702,-360"/>
</g>
<!-- Node11 -->
<g id="node11" class="node"><title>Node11</title>
<g id="a_node11"><a xlink:href="a00356.html#ga5a29ae7f99d089dc3cea85ec6ee5f3ab" target="_top" xlink:title="tds_submit_query() sends a language string to the database server for processing. ...">
<polygon fill="white" stroke="red" points="473,-354 473,-373 571,-373 571,-354 473,-354"/>
<text text-anchor="middle" x="522" y="-361" font-family="Helvetica,sans-Serif" font-size="10.00">tds_submit_query</text>
</a>
</g>
</g>
<!-- Node10&#45;&gt;Node11 -->
<g id="edge13" class="edge"><title>Node10&#45;&gt;Node11</title>
<path fill="none" stroke="midnightblue" d="M429.044,-363.5C443.986,-363.5 459.182,-363.5 472.803,-363.5"/>
<polygon fill="midnightblue" stroke="midnightblue" points="428.761,-360 418.761,-363.5 428.761,-367 428.761,-360"/>
</g>
<!-- Node12&#45;&gt;Node5 -->
<g id="edge15" class="edge"><title>Node12&#45;&gt;Node5</title>
<path fill="none" stroke="midnightblue" d="M398.546,-507.207C419.182,-503.717 443.314,-499.636 464.674,-496.025"/>
<polygon fill="midnightblue" stroke="midnightblue" points="397.692,-503.801 388.416,-508.919 398.86,-510.703 397.692,-503.801"/>
</g>
<!-- Node15 -->
<g id="node15" class="node"><title>Node15</title>
<g id="a_node15"><a xlink:href="a00359.html#ga39453d084f3f780ac4602d4abf2839f7" target="_top" xlink:title="tds_process_default_tokens() is a catch all function that is called to process tokens not known to ot...">
<polygon fill="white" stroke="black" points="466,-120.5 466,-150.5 578,-150.5 578,-120.5 466,-120.5"/>
<text text-anchor="start" x="474" y="-138.5" font-family="Helvetica,sans-Serif" font-size="10.00">tds_process_default</text>
<text text-anchor="middle" x="522" y="-127.5" font-family="Helvetica,sans-Serif" font-size="10.00">_tokens</text>
</a>
</g>
</g>
<!-- Node14&#45;&gt;Node15 -->
<g id="edge18" class="edge"><title>Node14&#45;&gt;Node15</title>
<path fill="none" stroke="midnightblue" d="M380.397,-197.808C410.454,-184.488 456.007,-164.302 487.059,-150.541"/>
<polygon fill="midnightblue" stroke="midnightblue" points="378.945,-194.623 371.221,-201.875 381.781,-201.023 378.945,-194.623"/>
</g>
<!-- Node17 -->
<g id="node17" class="node"><title>Node17</title>
<g id="a_node17"><a xlink:href="a00359.html#gabfc9de1d1fe718818caf63a4be4035a6" target="_top" xlink:title="process all streams. ">
<polygon fill="white" stroke="red" points="794,-126 794,-145 906,-145 906,-126 794,-126"/>
<text text-anchor="middle" x="850" y="-133" font-family="Helvetica,sans-Serif" font-size="10.00">tds_process_tokens</text>
</a>
</g>
</g>
<!-- Node14&#45;&gt;Node17 -->
<g id="edge24" class="edge"><title>Node14&#45;&gt;Node17</title>
<path fill="none" stroke="midnightblue" d="M421.85,-219.006C505.023,-225.178 644.652,-227.939 758,-192.5 789.849,-182.542 821.65,-158.642 837.898,-145.166"/>
<polygon fill="midnightblue" stroke="midnightblue" points="421.985,-215.506 411.743,-218.219 421.441,-222.485 421.985,-215.506"/>
</g>
<!-- Node16 -->
<g id="node16" class="node"><title>Node16</title>
<g id="a_node16"><a xlink:href="a00359.html#ga93945b42d45ee28ae1296b35a1c1e9bb" target="_top" xlink:title="tds_process_login_tokens() is called after sending the login packet to the server. ">
<polygon fill="white" stroke="black" points="618,-164 618,-183 758,-183 758,-164 618,-164"/>
<text text-anchor="middle" x="688" y="-171" font-family="Helvetica,sans-Serif" font-size="10.00">tds_process_login_tokens</text>
</a>
</g>
</g>
<!-- Node15&#45;&gt;Node16 -->
<g id="edge19" class="edge"><title>Node15&#45;&gt;Node16</title>
<path fill="none" stroke="midnightblue" d="M587.831,-150.522C607.371,-155.049 628.274,-159.893 645.826,-163.96"/>
<polygon fill="midnightblue" stroke="midnightblue" points="588.598,-147.107 578.066,-148.259 587.018,-153.926 588.598,-147.107"/>
</g>
<!-- Node15&#45;&gt;Node17 -->
<g id="edge20" class="edge"><title>Node15&#45;&gt;Node17</title>
<path fill="none" stroke="midnightblue" d="M588.472,-135.5C648.772,-135.5 737.233,-135.5 793.972,-135.5"/>
<polygon fill="midnightblue" stroke="midnightblue" points="588.301,-132 578.301,-135.5 588.301,-139 588.301,-132"/>
</g>
<!-- Node18 -->
<g id="node18" class="node"><title>Node18</title>
<g id="a_node18"><a xlink:href="a00359.html#ga81cdf0ed9e8d29cf1ddf66e18efc407d" target="_top" xlink:title="tds_process_msg() is called for MSG, ERR, or EED tokens and is responsible for calling the CLI&#39;s mess...">
<polygon fill="white" stroke="black" points="638,-88 638,-107 738,-107 738,-88 638,-88"/>
<text text-anchor="middle" x="688" y="-95" font-family="Helvetica,sans-Serif" font-size="10.00">tds_process_msg</text>
</a>
</g>
</g>
<!-- Node15&#45;&gt;Node18 -->
<g id="edge21" class="edge"><title>Node15&#45;&gt;Node18</title>
<path fill="none" stroke="midnightblue" d="M572.581,-117.754C593.307,-112.289 617.327,-106.73 637.992,-102.617"/>
<polygon fill="midnightblue" stroke="midnightblue" points="571.441,-114.437 562.7,-120.423 573.267,-121.194 571.441,-114.437"/>
</g>
<!-- Node18&#45;&gt;Node15 -->
<g id="edge22" class="edge"><title>Node18&#45;&gt;Node15</title>
<path fill="none" stroke="midnightblue" d="M656.149,-110.06C634.194,-116.486 604.093,-123.795 578.066,-129.156"/>
<polygon fill="midnightblue" stroke="midnightblue" points="657.372,-113.346 665.919,-107.085 655.333,-106.65 657.372,-113.346"/>
</g>
<!-- Node18&#45;&gt;Node17 -->
<g id="edge23" class="edge"><title>Node18&#45;&gt;Node17</title>
<path fill="none" stroke="midnightblue" d="M739.392,-109.468C761.813,-114.793 787.847,-120.976 808.916,-125.98"/>
<polygon fill="midnightblue" stroke="midnightblue" points="739.913,-105.995 729.375,-107.089 738.295,-112.805 739.913,-105.995"/>
</g>
<!-- Node19&#45;&gt;Node15 -->
<g id="edge26" class="edge"><title>Node19&#45;&gt;Node15</title>
<path fill="none" stroke="midnightblue" d="M242.776,-150.912C307.231,-147.341 405.065,-141.922 465.899,-138.552"/>
<polygon fill="midnightblue" stroke="midnightblue" points="242.52,-147.421 232.729,-151.468 242.907,-154.41 242.52,-147.421"/>
</g>
<!-- Node20 -->
<g id="node20" class="node"><title>Node20</title>
<g id="a_node20"><a xlink:href="a00359.html#gaeec59bca9bd0c5388e245f0d19d9c81a" target="_top" xlink:title="Process list of table from network. ">
<polygon fill="white" stroke="black" points="288,-107 288,-126 409,-126 409,-107 288,-107"/>
<text text-anchor="middle" x="348.5" y="-114" font-family="Helvetica,sans-Serif" font-size="10.00">tds_process_tabname</text>
</a>
</g>
</g>
<!-- Node19&#45;&gt;Node20 -->
<g id="edge27" class="edge"><title>Node19&#45;&gt;Node20</title>
<path fill="none" stroke="midnightblue" d="M230.742,-142.676C254.639,-137.318 282.515,-131.069 305.036,-126.02"/>
<polygon fill="midnightblue" stroke="midnightblue" points="229.764,-139.308 220.772,-144.911 231.295,-146.139 229.764,-139.308"/>
</g>
<!-- Node20&#45;&gt;Node15 -->
<g id="edge28" class="edge"><title>Node20&#45;&gt;Node15</title>
<path fill="none" stroke="midnightblue" d="M419.114,-124.212C434.698,-125.939 451.021,-127.747 465.921,-129.398"/>
<polygon fill="midnightblue" stroke="midnightblue" points="419.326,-120.714 409.001,-123.092 418.555,-127.672 419.326,-120.714"/>
</g>
<!-- Node20&#45;&gt;Node17 -->
<g id="edge29" class="edge"><title>Node20&#45;&gt;Node17</title>
<path fill="none" stroke="midnightblue" d="M387.08,-103.972C460.1,-81.5848 625.603,-40.4583 758,-78.5 790.251,-87.7666 822.138,-112.182 838.228,-125.862"/>
<polygon fill="midnightblue" stroke="midnightblue" points="385.904,-100.672 377.403,-106.996 387.992,-107.353 385.904,-100.672"/>
</g>
<!-- Node21&#45;&gt;Node17 -->
<g id="edge31" class="edge"><title>Node21&#45;&gt;Node17</title>
<path fill="none" stroke="midnightblue" d="M739.752,-34.9626C746.091,-38.1398 752.331,-41.663 758,-45.5 793.331,-69.4129 826.853,-108.081 841.406,-125.921"/>
<polygon fill="midnightblue" stroke="midnightblue" points="740.985,-31.6738 730.449,-30.5591 737.99,-38.0008 740.985,-31.6738"/>
</g>
<!-- Node22&#45;&gt;Node17 -->
<g id="edge33" class="edge"><title>Node22&#45;&gt;Node17</title>
<path fill="none" stroke="midnightblue" d="M592.426,-307.211C642.006,-311.294 708.428,-309.196 758,-279.5 811.023,-247.737 838.123,-171.858 846.286,-145.067"/>
<polygon fill="midnightblue" stroke="midnightblue" points="592.709,-303.722 582.429,-306.286 592.064,-310.692 592.709,-303.722"/>
</g>
<!-- Node23&#45;&gt;Node17 -->
<g id="edge35" class="edge"><title>Node23&#45;&gt;Node17</title>
<path fill="none" stroke="midnightblue" d="M739.752,-236.037C746.091,-232.86 752.331,-229.337 758,-225.5 793.331,-201.587 826.853,-162.919 841.406,-145.079"/>
<polygon fill="midnightblue" stroke="midnightblue" points="737.99,-232.999 730.449,-240.441 740.985,-239.326 737.99,-232.999"/>
</g>
</g>
</svg>
