<?xml version="1.0" encoding="UTF-8" standalone="no"?>
<!DOCTYPE svg PUBLIC "-//W3C//DTD SVG 1.1//EN"
 "http://www.w3.org/Graphics/SVG/1.1/DTD/svg11.dtd">
<!-- Generated by graphviz version 2.38.0 (20140413.2041)
 -->
<!-- Title: tds5_process_dyn_result2 Pages: 1 -->
<svg width="904pt" height="518pt"
 viewBox="0.00 0.00 904.00 517.52" xmlns="http://www.w3.org/2000/svg" xmlns:xlink="http://www.w3.org/1999/xlink">
<g id="graph0" class="graph" transform="scale(1 1) rotate(0) translate(4 513.523)">
<title>tds5_process_dyn_result2</title>
<polygon fill="white" stroke="none" points="-4,4 -4,-513.523 900,-513.523 900,4 -4,4"/>
<!-- Node1 -->
<g id="node1" class="node"><title>Node1</title>
<polygon fill="#bfbfbf" stroke="black" points="0,-484.916 0,-503.916 141,-503.916 141,-484.916 0,-484.916"/>
<text text-anchor="middle" x="70.5" y="-491.916" font-family="Helvetica,sans-Serif" font-size="10.00">tds5_process_dyn_result2</text>
</g>
<!-- Node2 -->
<g id="node2" class="node"><title>Node2</title>
<g id="a_node2"><a xlink:href="a00359.html#ga39453d084f3f780ac4602d4abf2839f7" target="_top" xlink:title="tds_process_default_tokens() is a catch all function that is called to process tokens not known to ot...">
<polygon fill="white" stroke="black" points="177,-425.416 177,-455.416 289,-455.416 289,-425.416 177,-425.416"/>
<text text-anchor="start" x="185" y="-443.416" font-family="Helvetica,sans-Serif" font-size="10.00">tds_process_default</text>
<text text-anchor="middle" x="233" y="-432.416" font-family="Helvetica,sans-Serif" font-size="10.00">_tokens</text>
</a>
</g>
</g>
<!-- Node1&#45;&gt;Node2 -->
<g id="edge1" class="edge"><title>Node1&#45;&gt;Node2</title>
<path fill="none" stroke="midnightblue" d="M109.385,-481.67C132.734,-473.814 162.79,-463.702 187.301,-455.455"/>
<polygon fill="midnightblue" stroke="midnightblue" points="108.187,-478.38 99.8247,-484.886 110.419,-485.015 108.187,-478.38"/>
</g>
<!-- Node4 -->
<g id="node4" class="node"><title>Node4</title>
<g id="a_node4"><a xlink:href="a00359.html#gabfc9de1d1fe718818caf63a4be4035a6" target="_top" xlink:title="process all streams. ">
<polygon fill="white" stroke="black" points="461,-292.916 461,-311.916 573,-311.916 573,-292.916 461,-292.916"/>
<text text-anchor="middle" x="517" y="-299.916" font-family="Helvetica,sans-Serif" font-size="10.00">tds_process_tokens</text>
</a>
</g>
</g>
<!-- Node1&#45;&gt;Node4 -->
<g id="edge23" class="edge"><title>Node1&#45;&gt;Node4</title>
<path fill="none" stroke="midnightblue" d="M140.67,-505.109C216.632,-513.114 339.203,-514.663 425,-459.416 480.89,-423.427 506.468,-340.108 513.734,-311.928"/>
<polygon fill="midnightblue" stroke="midnightblue" points="140.598,-501.579 130.27,-503.942 139.817,-508.535 140.598,-501.579"/>
</g>
<!-- Node3 -->
<g id="node3" class="node"><title>Node3</title>
<g id="a_node3"><a xlink:href="a00359.html#ga93945b42d45ee28ae1296b35a1c1e9bb" target="_top" xlink:title="tds_process_login_tokens() is called after sending the login packet to the server. ">
<polygon fill="white" stroke="black" points="756,-444.916 756,-463.916 896,-463.916 896,-444.916 756,-444.916"/>
<text text-anchor="middle" x="826" y="-451.916" font-family="Helvetica,sans-Serif" font-size="10.00">tds_process_login_tokens</text>
</a>
</g>
</g>
<!-- Node2&#45;&gt;Node3 -->
<g id="edge2" class="edge"><title>Node2&#45;&gt;Node3</title>
<path fill="none" stroke="midnightblue" d="M295.887,-458.059C388.593,-482.006 568.795,-518.936 720,-492.416 750.743,-487.024 784.347,-473.385 805.054,-464.004"/>
<polygon fill="midnightblue" stroke="midnightblue" points="296.668,-454.646 286.107,-455.497 294.893,-461.417 296.668,-454.646"/>
</g>
<!-- Node2&#45;&gt;Node4 -->
<g id="edge3" class="edge"><title>Node2&#45;&gt;Node4</title>
<path fill="none" stroke="midnightblue" d="M273.708,-420.985C334.981,-391 450.307,-334.564 496.317,-312.048"/>
<polygon fill="midnightblue" stroke="midnightblue" points="272.159,-417.846 264.716,-425.385 275.236,-424.133 272.159,-417.846"/>
</g>
<!-- Node18 -->
<g id="node18" class="node"><title>Node18</title>
<g id="a_node18"><a xlink:href="a00359.html#ga81cdf0ed9e8d29cf1ddf66e18efc407d" target="_top" xlink:title="tds_process_msg() is called for MSG, ERR, or EED tokens and is responsible for calling the CLI&#39;s mess...">
<polygon fill="white" stroke="black" points="325,-430.916 325,-449.916 425,-449.916 425,-430.916 325,-430.916"/>
<text text-anchor="middle" x="375" y="-437.916" font-family="Helvetica,sans-Serif" font-size="10.00">tds_process_msg</text>
</a>
</g>
</g>
<!-- Node2&#45;&gt;Node18 -->
<g id="edge20" class="edge"><title>Node2&#45;&gt;Node18</title>
<path fill="none" stroke="midnightblue" d="M299.369,-433.679C307.983,-433.63 316.69,-433.718 324.967,-433.943"/>
<polygon fill="midnightblue" stroke="midnightblue" points="299.289,-430.18 289.332,-433.8 299.373,-437.18 299.289,-430.18"/>
</g>
<!-- Node5 -->
<g id="node5" class="node"><title>Node5</title>
<g id="a_node5"><a xlink:href="a00344.html#gae67546338cb9542a4902aa914f57f314" target="_top" xlink:title="_bcp_exec_out">
<polygon fill="white" stroke="red" points="620.5,-349.916 620.5,-368.916 708.5,-368.916 708.5,-349.916 620.5,-349.916"/>
<text text-anchor="middle" x="664.5" y="-356.916" font-family="Helvetica,sans-Serif" font-size="10.00">_bcp_exec_out</text>
</a>
</g>
</g>
<!-- Node4&#45;&gt;Node5 -->
<g id="edge4" class="edge"><title>Node4&#45;&gt;Node5</title>
<path fill="none" stroke="midnightblue" d="M549.585,-316.155C567.006,-323.594 589.084,-332.794 609,-340.416 617.423,-343.64 626.659,-346.945 635.096,-349.876"/>
<polygon fill="midnightblue" stroke="midnightblue" points="550.487,-312.733 539.917,-312.004 547.725,-319.165 550.487,-312.733"/>
</g>
<!-- Node6 -->
<g id="node6" class="node"><title>Node6</title>
<g id="a_node6"><a xlink:href="a00341.html#gaf1879b85e8238c015b9648d077665285" target="_top" xlink:title="_dbresults">
<polygon fill="white" stroke="red" points="632,-311.916 632,-330.916 697,-330.916 697,-311.916 632,-311.916"/>
<text text-anchor="middle" x="664.5" y="-318.916" font-family="Helvetica,sans-Serif" font-size="10.00">_dbresults</text>
</a>
</g>
</g>
<!-- Node4&#45;&gt;Node6 -->
<g id="edge5" class="edge"><title>Node4&#45;&gt;Node6</title>
<path fill="none" stroke="midnightblue" d="M583.348,-310.95C600.118,-313.14 617.418,-315.399 631.634,-317.255"/>
<polygon fill="midnightblue" stroke="midnightblue" points="583.376,-307.424 573.007,-309.599 582.47,-314.365 583.376,-307.424"/>
</g>
<!-- Node7 -->
<g id="node7" class="node"><title>Node7</title>
<g id="a_node7"><a xlink:href="a00342.html#gaff09873008411a0573f6d1a9e6c7cf4b" target="_top" xlink:title="Get count of output parameters filled by a stored procedure. ">
<polygon fill="white" stroke="red" points="632,-273.916 632,-292.916 697,-292.916 697,-273.916 632,-273.916"/>
<text text-anchor="middle" x="664.5" y="-280.916" font-family="Helvetica,sans-Serif" font-size="10.00">dbnumrets</text>
</a>
</g>
</g>
<!-- Node4&#45;&gt;Node7 -->
<g id="edge6" class="edge"><title>Node4&#45;&gt;Node7</title>
<path fill="none" stroke="midnightblue" d="M583.348,-293.883C600.118,-291.693 617.418,-289.434 631.634,-287.577"/>
<polygon fill="midnightblue" stroke="midnightblue" points="582.47,-290.468 573.007,-295.233 583.376,-297.409 582.47,-290.468"/>
</g>
<!-- Node8 -->
<g id="node8" class="node"><title>Node8</title>
<g id="a_node8"><a xlink:href="a00341.html#gae1f50a6a2c31fda57cb481922b06841e" target="_top" xlink:title="Wait for results of a query from the server. ">
<polygon fill="white" stroke="red" points="638,-235.916 638,-254.916 691,-254.916 691,-235.916 638,-235.916"/>
<text text-anchor="middle" x="664.5" y="-242.916" font-family="Helvetica,sans-Serif" font-size="10.00">dbsqlok</text>
</a>
</g>
</g>
<!-- Node4&#45;&gt;Node8 -->
<g id="edge7" class="edge"><title>Node4&#45;&gt;Node8</title>
<path fill="none" stroke="midnightblue" d="M549.585,-288.678C567.006,-281.239 589.084,-272.038 609,-264.416 618.358,-260.835 628.722,-257.152 637.877,-253.994"/>
<polygon fill="midnightblue" stroke="midnightblue" points="547.725,-285.667 539.917,-292.829 550.487,-292.099 547.725,-285.667"/>
</g>
<!-- Node9 -->
<g id="node9" class="node"><title>Node9</title>
<g id="a_node9"><a xlink:href="a00341.html#ga548153eb2eae76c48aa9d4b72258dc1c" target="_top" xlink:title="Send text or image data to the server. ">
<polygon fill="white" stroke="black" points="792,-216.916 792,-235.916 860,-235.916 860,-216.916 792,-216.916"/>
<text text-anchor="middle" x="826" y="-223.916" font-family="Helvetica,sans-Serif" font-size="10.00">dbwritetext</text>
</a>
</g>
</g>
<!-- Node4&#45;&gt;Node9 -->
<g id="edge10" class="edge"><title>Node4&#45;&gt;Node9</title>
<path fill="none" stroke="midnightblue" d="M532.031,-285.037C548.279,-266.437 576.949,-238.04 609,-226.416 670.517,-204.106 748.53,-212.211 791.967,-219.633"/>
<polygon fill="midnightblue" stroke="midnightblue" points="529.254,-282.901 525.473,-292.798 534.6,-287.419 529.254,-282.901"/>
</g>
<!-- Node10 -->
<g id="node10" class="node"><title>Node10</title>
<g id="a_node10"><a xlink:href="a00341.html#ga559e24ba70d0d96c3469eb6ab8f74e05" target="_top" xlink:title="Cancel the query currently being retrieved, discarding all pending rows. ">
<polygon fill="white" stroke="red" points="629,-159.916 629,-178.916 700,-178.916 700,-159.916 629,-159.916"/>
<text text-anchor="middle" x="664.5" y="-166.916" font-family="Helvetica,sans-Serif" font-size="10.00">dbcanquery</text>
</a>
</g>
</g>
<!-- Node4&#45;&gt;Node10 -->
<g id="edge9" class="edge"><title>Node4&#45;&gt;Node10</title>
<path fill="none" stroke="midnightblue" d="M529.472,-283.977C544.994,-260.303 574.719,-219.207 609,-193.416 616.849,-187.512 626.377,-182.684 635.258,-178.948"/>
<polygon fill="midnightblue" stroke="midnightblue" points="526.34,-282.377 523.89,-292.685 532.233,-286.155 526.34,-282.377"/>
</g>
<!-- Node11 -->
<g id="node11" class="node"><title>Node11</title>
<g id="a_node11"><a xlink:href="a00341.html#gadd5685565c8c6c86079e17b8a73b324c" target="_top" xlink:title="Fetch part of a text or image value from the server. ">
<polygon fill="white" stroke="black" points="631,-121.916 631,-140.916 698,-140.916 698,-121.916 631,-121.916"/>
<text text-anchor="middle" x="664.5" y="-128.916" font-family="Helvetica,sans-Serif" font-size="10.00">dbreadtext</text>
</a>
</g>
</g>
<!-- Node4&#45;&gt;Node11 -->
<g id="edge11" class="edge"><title>Node4&#45;&gt;Node11</title>
<path fill="none" stroke="midnightblue" d="M524.573,-283.092C536.44,-251.012 564.431,-186.709 609,-150.416 615.294,-145.291 623.061,-141.507 630.739,-138.729"/>
<polygon fill="midnightblue" stroke="midnightblue" points="521.227,-282.055 521.166,-292.649 527.821,-284.405 521.227,-282.055"/>
</g>
<!-- Node12 -->
<g id="node12" class="node"><title>Node12</title>
<g id="a_node12"><a xlink:href="a00341.html#gac980139b9cea03cf93e373d425991481" target="_top" xlink:title="Transmit the command buffer to the server. ">
<polygon fill="white" stroke="red" points="632,-83.9163 632,-102.916 697,-102.916 697,-83.9163 632,-83.9163"/>
<text text-anchor="middle" x="664.5" y="-90.9163" font-family="Helvetica,sans-Serif" font-size="10.00">dbsqlsend</text>
</a>
</g>
</g>
<!-- Node4&#45;&gt;Node12 -->
<g id="edge12" class="edge"><title>Node4&#45;&gt;Node12</title>
<path fill="none" stroke="midnightblue" d="M522.141,-282.624C531.161,-244.324 556.154,-159.689 609,-112.416 615.423,-106.671 623.681,-102.641 631.816,-99.8235"/>
<polygon fill="midnightblue" stroke="midnightblue" points="518.692,-282.009 519.925,-292.532 525.523,-283.536 518.692,-282.009"/>
</g>
<!-- Node13 -->
<g id="node13" class="node"><title>Node13</title>
<g id="a_node13"><a xlink:href="a00356.html#gaf0da49585d39e99780a004ee2ca23479" target="_top" xlink:title="Send option commands to server. ">
<polygon fill="white" stroke="black" points="765.5,-17.9163 765.5,-36.9163 886.5,-36.9163 886.5,-17.9163 765.5,-17.9163"/>
<text text-anchor="middle" x="826" y="-24.9163" font-family="Helvetica,sans-Serif" font-size="10.00">tds_submit_optioncmd</text>
</a>
</g>
</g>
<!-- Node4&#45;&gt;Node13 -->
<g id="edge13" class="edge"><title>Node4&#45;&gt;Node13</title>
<path fill="none" stroke="midnightblue" d="M517.373,-282.763C516.9,-230.2 523.767,-86.1992 609,-24.4163 665.783,16.7441 754.864,-3.82903 798.759,-17.9094"/>
<polygon fill="midnightblue" stroke="midnightblue" points="513.874,-282.857 517.567,-292.787 520.872,-282.721 513.874,-282.857"/>
</g>
<!-- Node14 -->
<g id="node14" class="node"><title>Node14</title>
<g id="a_node14"><a xlink:href="a00193.html#ac6610c72bd31bad5378f760fa9b12d66" target="_top" xlink:title="Initialize BCP information. ">
<polygon fill="white" stroke="red" points="628,-463.916 628,-482.916 701,-482.916 701,-463.916 628,-463.916"/>
<text text-anchor="middle" x="664.5" y="-470.916" font-family="Helvetica,sans-Serif" font-size="10.00">tds_bcp_init</text>
</a>
</g>
</g>
<!-- Node4&#45;&gt;Node14 -->
<g id="edge14" class="edge"><title>Node4&#45;&gt;Node14</title>
<path fill="none" stroke="midnightblue" d="M524.573,-321.74C536.44,-353.821 564.431,-418.124 609,-454.416 614.517,-458.909 621.166,-462.37 627.894,-465.028"/>
<polygon fill="midnightblue" stroke="midnightblue" points="527.821,-320.427 521.166,-312.183 521.227,-322.778 527.821,-320.427"/>
</g>
<!-- Node15 -->
<g id="node15" class="node"><title>Node15</title>
<g id="a_node15"><a xlink:href="a00359.html#ga55f27c3e05d42c9b07ace1c74b11c5ab" target="_top" xlink:title="Retrieve and set @spid. ">
<polygon fill="white" stroke="black" points="626,-387.916 626,-406.916 703,-406.916 703,-387.916 626,-387.916"/>
<text text-anchor="middle" x="664.5" y="-394.916" font-family="Helvetica,sans-Serif" font-size="10.00">tds_set_spid</text>
</a>
</g>
</g>
<!-- Node4&#45;&gt;Node15 -->
<g id="edge15" class="edge"><title>Node4&#45;&gt;Node15</title>
<path fill="none" stroke="midnightblue" d="M534.288,-319.202C551.504,-336.133 580.116,-362.045 609,-378.416 615.538,-382.122 622.923,-385.287 630.097,-387.91"/>
<polygon fill="midnightblue" stroke="midnightblue" points="536.762,-316.726 527.22,-312.121 531.808,-321.671 536.762,-316.726"/>
</g>
<!-- Node16 -->
<g id="node16" class="node"><title>Node16</title>
<g id="a_node16"><a xlink:href="a00359.html#gaeeb1562044786ea17bea361ed83e6946" target="_top" xlink:title="Process results for simple query as &quot;SET TEXTSIZE&quot; or &quot;USE dbname&quot; If the statement returns results...">
<polygon fill="white" stroke="red" points="609.5,-34.4163 609.5,-64.4163 719.5,-64.4163 719.5,-34.4163 609.5,-34.4163"/>
<text text-anchor="start" x="617.5" y="-52.4163" font-family="Helvetica,sans-Serif" font-size="10.00">tds_process_simple</text>
<text text-anchor="middle" x="664.5" y="-41.4163" font-family="Helvetica,sans-Serif" font-size="10.00">_query</text>
</a>
</g>
</g>
<!-- Node4&#45;&gt;Node16 -->
<g id="edge17" class="edge"><title>Node4&#45;&gt;Node16</title>
<path fill="none" stroke="midnightblue" d="M520.812,-282.81C527.941,-239.766 550.498,-135.94 609,-74.4163 612.658,-70.569 617.022,-67.2624 621.665,-64.4338"/>
<polygon fill="midnightblue" stroke="midnightblue" points="517.333,-282.401 519.255,-292.82 524.25,-283.477 517.333,-282.401"/>
</g>
<!-- Node17 -->
<g id="node17" class="node"><title>Node17</title>
<g id="a_node17"><a xlink:href="a00359.html#gaf233e79967f82f4e0dd4d11524917a34" target="_top" xlink:title="tds_process_cancel">
<polygon fill="white" stroke="red" points="609,-425.916 609,-444.916 720,-444.916 720,-425.916 609,-425.916"/>
<text text-anchor="middle" x="664.5" y="-432.916" font-family="Helvetica,sans-Serif" font-size="10.00">tds_process_cancel</text>
</a>
</g>
</g>
<!-- Node4&#45;&gt;Node17 -->
<g id="edge19" class="edge"><title>Node4&#45;&gt;Node17</title>
<path fill="none" stroke="midnightblue" d="M528.309,-321.069C543.069,-346.149 572.513,-390.572 609,-416.416 614.397,-420.239 620.633,-423.353 626.918,-425.871"/>
<polygon fill="midnightblue" stroke="midnightblue" points="531.232,-319.131 523.225,-312.192 525.158,-322.609 531.232,-319.131"/>
</g>
<!-- Node8&#45;&gt;Node9 -->
<g id="edge8" class="edge"><title>Node8&#45;&gt;Node9</title>
<path fill="none" stroke="midnightblue" d="M701.371,-241.143C728.525,-237.909 765.532,-233.5 791.965,-230.351"/>
<polygon fill="midnightblue" stroke="midnightblue" points="700.642,-237.705 691.126,-242.364 701.47,-244.656 700.642,-237.705"/>
</g>
<!-- Node15&#45;&gt;Node3 -->
<g id="edge16" class="edge"><title>Node15&#45;&gt;Node3</title>
<path fill="none" stroke="midnightblue" d="M702.583,-410.279C708.416,-412.321 714.375,-414.418 720,-416.416 746.854,-425.956 777.489,-437.07 798.708,-444.804"/>
<polygon fill="midnightblue" stroke="midnightblue" points="703.563,-406.914 692.968,-406.922 701.256,-413.522 703.563,-406.914"/>
</g>
<!-- Node16&#45;&gt;Node13 -->
<g id="edge18" class="edge"><title>Node16&#45;&gt;Node13</title>
<path fill="none" stroke="midnightblue" d="M730.05,-40.5128C741.711,-38.9044 753.823,-37.2338 765.337,-35.6457"/>
<polygon fill="midnightblue" stroke="midnightblue" points="729.373,-37.073 719.945,-41.9067 730.329,-44.0074 729.373,-37.073"/>
</g>
<!-- Node18&#45;&gt;Node2 -->
<g id="edge21" class="edge"><title>Node18&#45;&gt;Node2</title>
<path fill="none" stroke="midnightblue" d="M314.806,-447.094C306.36,-447.208 297.7,-447.187 289.332,-447.033"/>
<polygon fill="midnightblue" stroke="midnightblue" points="315.04,-450.59 324.967,-446.89 314.899,-443.592 315.04,-450.59"/>
</g>
<!-- Node18&#45;&gt;Node4 -->
<g id="edge22" class="edge"><title>Node18&#45;&gt;Node4</title>
<path fill="none" stroke="midnightblue" d="M393.237,-423.425C422.833,-394.252 482.403,-335.533 506.023,-312.251"/>
<polygon fill="midnightblue" stroke="midnightblue" points="390.733,-420.979 386.068,-430.492 395.647,-425.964 390.733,-420.979"/>
</g>
</g>
</svg>
