<?xml version="1.0" encoding="UTF-8" standalone="no"?>
<!DOCTYPE svg PUBLIC "-//W3C//DTD SVG 1.1//EN"
 "http://www.w3.org/Graphics/SVG/1.1/DTD/svg11.dtd">
<!-- Generated by graphviz version 2.38.0 (20140413.2041)
 -->
<!-- Title: tds_ascii_to_ucs2 Pages: 1 -->
<svg width="576pt" height="148pt"
 viewBox="0.00 0.00 576.00 147.50" xmlns="http://www.w3.org/2000/svg" xmlns:xlink="http://www.w3.org/1999/xlink">
<g id="graph0" class="graph" transform="scale(1 1) rotate(0) translate(4 143.5)">
<title>tds_ascii_to_ucs2</title>
<polygon fill="white" stroke="none" points="-4,4 -4,-143.5 572,-143.5 572,4 -4,4"/>
<!-- Node1 -->
<g id="node1" class="node"><title>Node1</title>
<polygon fill="#bfbfbf" stroke="black" points="0,-89.5 0,-108.5 101,-108.5 101,-89.5 0,-89.5"/>
<text text-anchor="middle" x="50.5" y="-96.5" font-family="Helvetica,sans-Serif" font-size="10.00">tds_ascii_to_ucs2</text>
</g>
<!-- Node2 -->
<g id="node2" class="node"><title>Node2</title>
<g id="a_node2"><a xlink:href="a00356.html#gab775332d378c7fe083750d624441b303" target="_top" xlink:title="Return string with parameters definition, useful for TDS7+. ">
<polygon fill="white" stroke="black" points="137,-60 137,-90 258,-90 258,-60 137,-60"/>
<text text-anchor="start" x="145" y="-78" font-family="Helvetica,sans-Serif" font-size="10.00">tds7_build_param_def</text>
<text text-anchor="middle" x="197.5" y="-67" font-family="Helvetica,sans-Serif" font-size="10.00">_from_query</text>
</a>
</g>
</g>
<!-- Node1&#45;&gt;Node2 -->
<g id="edge1" class="edge"><title>Node1&#45;&gt;Node2</title>
<path fill="none" stroke="midnightblue" d="M111.451,-89.077C119.81,-87.6935 128.398,-86.272 136.753,-84.8892"/>
<polygon fill="midnightblue" stroke="midnightblue" points="110.695,-85.6545 101.401,-90.7406 111.838,-92.5605 110.695,-85.6545"/>
</g>
<!-- Node8 -->
<g id="node8" class="node"><title>Node8</title>
<g id="a_node8"><a xlink:href="a00356.html#gac8d5497c2d1b9fadb724111660bd03bd" target="_top" xlink:title="Return string with parameters definition, useful for TDS7+. ">
<polygon fill="white" stroke="black" points="137,-109 137,-139 258,-139 258,-109 137,-109"/>
<text text-anchor="start" x="145" y="-127" font-family="Helvetica,sans-Serif" font-size="10.00">tds7_build_param_def</text>
<text text-anchor="middle" x="197.5" y="-116" font-family="Helvetica,sans-Serif" font-size="10.00">_from_params</text>
</a>
</g>
</g>
<!-- Node1&#45;&gt;Node8 -->
<g id="edge7" class="edge"><title>Node1&#45;&gt;Node8</title>
<path fill="none" stroke="midnightblue" d="M111.451,-109.336C119.81,-110.778 128.398,-112.258 136.753,-113.699"/>
<polygon fill="midnightblue" stroke="midnightblue" points="111.85,-105.854 101.401,-107.604 110.661,-112.752 111.85,-105.854"/>
</g>
<!-- Node3 -->
<g id="node3" class="node"><title>Node3</title>
<g id="a_node3"><a xlink:href="a00356.html#ga95e0fccedc459a4404f496eec74a369a" target="_top" xlink:title="tds_submit_query_params() sends a language string to the database server for processing. ">
<polygon fill="white" stroke="black" points="294,-114.5 294,-133.5 434,-133.5 434,-114.5 294,-114.5"/>
<text text-anchor="middle" x="364" y="-121.5" font-family="Helvetica,sans-Serif" font-size="10.00">tds_submit_query_params</text>
</a>
</g>
</g>
<!-- Node2&#45;&gt;Node3 -->
<g id="edge2" class="edge"><title>Node2&#45;&gt;Node3</title>
<path fill="none" stroke="midnightblue" d="M255.107,-93.1481C267.873,-97.139 281.38,-101.282 294,-105 304.846,-108.196 316.7,-111.52 327.474,-114.478"/>
<polygon fill="midnightblue" stroke="midnightblue" points="256.105,-89.7931 245.515,-90.1355 254.007,-96.4714 256.105,-89.7931"/>
</g>
<!-- Node5 -->
<g id="node5" class="node"><title>Node5</title>
<g id="a_node5"><a xlink:href="a00356.html#ga74eb08c3a1c85be8ac9db428842c8b9d" target="_top" xlink:title="tds_submit_prepare() creates a temporary stored procedure in the server. ">
<polygon fill="white" stroke="black" points="309,-76.5 309,-95.5 419,-95.5 419,-76.5 309,-76.5"/>
<text text-anchor="middle" x="364" y="-83.5" font-family="Helvetica,sans-Serif" font-size="10.00">tds_submit_prepare</text>
</a>
</g>
</g>
<!-- Node2&#45;&gt;Node5 -->
<g id="edge4" class="edge"><title>Node2&#45;&gt;Node5</title>
<path fill="none" stroke="midnightblue" d="M268.567,-79.6853C282.07,-80.5882 296.02,-81.5211 308.919,-82.3837"/>
<polygon fill="midnightblue" stroke="midnightblue" points="268.565,-76.1775 258.354,-79.0024 268.098,-83.1619 268.565,-76.1775"/>
</g>
<!-- Node6 -->
<g id="node6" class="node"><title>Node6</title>
<g id="a_node6"><a xlink:href="a00356.html#gae603aed795a4c5bb26ab159a11256996" target="_top" xlink:title="Submit a prepared query with parameters. ">
<polygon fill="white" stroke="black" points="303.5,-38.5 303.5,-57.5 424.5,-57.5 424.5,-38.5 303.5,-38.5"/>
<text text-anchor="middle" x="364" y="-45.5" font-family="Helvetica,sans-Serif" font-size="10.00">tds_submit_execdirect</text>
</a>
</g>
</g>
<!-- Node2&#45;&gt;Node6 -->
<g id="edge5" class="edge"><title>Node2&#45;&gt;Node6</title>
<path fill="none" stroke="midnightblue" d="M268.496,-63.5112C280.703,-61.5077 293.278,-59.4437 305.114,-57.5011"/>
<polygon fill="midnightblue" stroke="midnightblue" points="267.655,-60.1025 258.354,-65.176 268.788,-67.01 267.655,-60.1025"/>
</g>
<!-- Node7 -->
<g id="node7" class="node"><title>Node7</title>
<g id="a_node7"><a xlink:href="a00356.html#ga08877c101704bebe4fa57e0849dc272d" target="_top" xlink:title="tds71_submit_prepexec() creates a temporary stored procedure in the server. ">
<polygon fill="white" stroke="black" points="300,-0.5 300,-19.5 428,-19.5 428,-0.5 300,-0.5"/>
<text text-anchor="middle" x="364" y="-7.5" font-family="Helvetica,sans-Serif" font-size="10.00">tds71_submit_prepexec</text>
</a>
</g>
</g>
<!-- Node2&#45;&gt;Node7 -->
<g id="edge6" class="edge"><title>Node2&#45;&gt;Node7</title>
<path fill="none" stroke="midnightblue" d="M235.579,-55.2139C252.993,-46.4252 274.227,-36.4152 294,-29 303.423,-25.466 313.791,-22.2662 323.563,-19.5429"/>
<polygon fill="midnightblue" stroke="midnightblue" points="233.639,-52.275 226.332,-59.9466 236.828,-58.5063 233.639,-52.275"/>
</g>
<!-- Node4 -->
<g id="node4" class="node"><title>Node4</title>
<g id="a_node4"><a xlink:href="a00356.html#ga5a29ae7f99d089dc3cea85ec6ee5f3ab" target="_top" xlink:title="tds_submit_query() sends a language string to the database server for processing. ...">
<polygon fill="white" stroke="red" points="470,-114.5 470,-133.5 568,-133.5 568,-114.5 470,-114.5"/>
<text text-anchor="middle" x="519" y="-121.5" font-family="Helvetica,sans-Serif" font-size="10.00">tds_submit_query</text>
</a>
</g>
</g>
<!-- Node3&#45;&gt;Node4 -->
<g id="edge3" class="edge"><title>Node3&#45;&gt;Node4</title>
<path fill="none" stroke="midnightblue" d="M444.507,-124C453.173,-124 461.788,-124 469.905,-124"/>
<polygon fill="midnightblue" stroke="midnightblue" points="444.337,-120.5 434.337,-124 444.337,-127.5 444.337,-120.5"/>
</g>
<!-- Node8&#45;&gt;Node3 -->
<g id="edge8" class="edge"><title>Node8&#45;&gt;Node3</title>
<path fill="none" stroke="midnightblue" d="M268.527,-124C276.959,-124 285.566,-124 293.984,-124"/>
<polygon fill="midnightblue" stroke="midnightblue" points="268.354,-120.5 258.354,-124 268.354,-127.5 268.354,-120.5"/>
</g>
</g>
</svg>
