<?xml version="1.0" encoding="UTF-8" standalone="no"?>
<!DOCTYPE svg PUBLIC "-//W3C//DTD SVG 1.1//EN"
 "http://www.w3.org/Graphics/SVG/1.1/DTD/svg11.dtd">
<!-- Generated by graphviz version 2.38.0 (20140413.2041)
 -->
<!-- Title: tds_convert Pages: 1 -->
<svg width="696pt" height="370pt"
 viewBox="0.00 0.00 696.00 370.00" xmlns="http://www.w3.org/2000/svg" xmlns:xlink="http://www.w3.org/1999/xlink">
<g id="graph0" class="graph" transform="scale(1 1) rotate(0) translate(4 366)">
<title>tds_convert</title>
<polygon fill="white" stroke="none" points="-4,4 -4,-366 692,-366 692,4 -4,4"/>
<!-- Node1 -->
<g id="node1" class="node"><title>Node1</title>
<polygon fill="#bfbfbf" stroke="black" points="0,-171.5 0,-190.5 72,-190.5 72,-171.5 0,-171.5"/>
<text text-anchor="middle" x="36" y="-178.5" font-family="Helvetica,sans-Serif" font-size="10.00">tds_convert</text>
</g>
<!-- Node2 -->
<g id="node2" class="node"><title>Node2</title>
<g id="a_node2"><a xlink:href="a00233.html#a230fa5b56ae4e3509a69bd266495732b" target="_top" xlink:title="Convert column for output (usually to a file) Conversion is slightly different from input as: ...">
<polygon fill="white" stroke="black" points="126,-323.5 126,-342.5 227,-342.5 227,-323.5 126,-323.5"/>
<text text-anchor="middle" x="176.5" y="-330.5" font-family="Helvetica,sans-Serif" font-size="10.00">_bcp_convert_out</text>
</a>
</g>
</g>
<!-- Node1&#45;&gt;Node2 -->
<g id="edge1" class="edge"><title>Node1&#45;&gt;Node2</title>
<path fill="none" stroke="midnightblue" d="M45.1395,-199.911C56.3875,-224.307 78.6633,-266.934 108,-295 120.73,-307.178 138.107,-316.843 152.041,-323.378"/>
<polygon fill="midnightblue" stroke="midnightblue" points="48.2833,-198.368 41.0057,-190.668 41.8932,-201.225 48.2833,-198.368"/>
</g>
<!-- Node5 -->
<g id="node5" class="node"><title>Node5</title>
<g id="a_node5"><a xlink:href="a00233.html#a69623a4c4f488f3a8838af6f5ca3da13" target="_top" xlink:title="Convert column for input to a table. ">
<polygon fill="white" stroke="black" points="129,-266.5 129,-285.5 224,-285.5 224,-266.5 129,-266.5"/>
<text text-anchor="middle" x="176.5" y="-273.5" font-family="Helvetica,sans-Serif" font-size="10.00">_bcp_convert_in</text>
</a>
</g>
</g>
<!-- Node1&#45;&gt;Node5 -->
<g id="edge4" class="edge"><title>Node1&#45;&gt;Node5</title>
<path fill="none" stroke="midnightblue" d="M59.6409,-196.53C88.4785,-216.31 137.441,-249.895 161.421,-266.343"/>
<polygon fill="midnightblue" stroke="midnightblue" points="61.2686,-193.402 51.0423,-190.632 57.3091,-199.175 61.2686,-193.402"/>
</g>
<!-- Node10 -->
<g id="node10" class="node"><title>Node10</title>
<g id="a_node10"><a xlink:href="a00341.html#ga32eb72f6fb3edb130e59fb3dd0766e7e" target="_top" xlink:title="Convert one datatype to another. ">
<polygon fill="white" stroke="black" points="145,-171.5 145,-190.5 208,-190.5 208,-171.5 145,-171.5"/>
<text text-anchor="middle" x="176.5" y="-178.5" font-family="Helvetica,sans-Serif" font-size="10.00">dbconvert</text>
</a>
</g>
</g>
<!-- Node1&#45;&gt;Node10 -->
<g id="edge10" class="edge"><title>Node1&#45;&gt;Node10</title>
<path fill="none" stroke="midnightblue" d="M82.3926,-181C102.909,-181 126.607,-181 144.961,-181"/>
<polygon fill="midnightblue" stroke="midnightblue" points="82.3078,-177.5 72.3078,-181 82.3077,-184.5 82.3078,-177.5"/>
</g>
<!-- Node15 -->
<g id="node15" class="node"><title>Node15</title>
<g id="a_node15"><a xlink:href="a00356.html#ga0e2e7230c425e925402d7856ff5b4b18" target="_top" xlink:title="Send a parameter to server. ">
<polygon fill="white" stroke="black" points="108,-114.5 108,-133.5 245,-133.5 245,-114.5 108,-114.5"/>
<text text-anchor="middle" x="176.5" y="-121.5" font-family="Helvetica,sans-Serif" font-size="10.00">tds_put_param_as_string</text>
</a>
</g>
</g>
<!-- Node1&#45;&gt;Node15 -->
<g id="edge15" class="edge"><title>Node1&#45;&gt;Node15</title>
<path fill="none" stroke="midnightblue" d="M69.7523,-167.521C95.1234,-157.079 129.646,-142.871 152.243,-133.572"/>
<polygon fill="midnightblue" stroke="midnightblue" points="68.0972,-164.417 60.1818,-171.459 70.7613,-170.89 68.0972,-164.417"/>
</g>
<!-- Node21 -->
<g id="node21" class="node"><title>Node21</title>
<g id="a_node21"><a xlink:href="a00356.html#gaf0da49585d39e99780a004ee2ca23479" target="_top" xlink:title="Send option commands to server. ">
<polygon fill="white" stroke="black" points="116,-76.5 116,-95.5 237,-95.5 237,-76.5 116,-76.5"/>
<text text-anchor="middle" x="176.5" y="-83.5" font-family="Helvetica,sans-Serif" font-size="10.00">tds_submit_optioncmd</text>
</a>
</g>
</g>
<!-- Node1&#45;&gt;Node21 -->
<g id="edge21" class="edge"><title>Node1&#45;&gt;Node21</title>
<path fill="none" stroke="midnightblue" d="M49.0321,-163.322C61.733,-145.986 83.3091,-120.033 108,-105 114.343,-101.138 121.496,-98.0379 128.712,-95.5556"/>
<polygon fill="midnightblue" stroke="midnightblue" points="46.1627,-161.318 43.2299,-171.498 51.8714,-165.369 46.1627,-161.318"/>
</g>
<!-- Node3 -->
<g id="node3" class="node"><title>Node3</title>
<g id="a_node3"><a xlink:href="a00344.html#gae67546338cb9542a4902aa914f57f314" target="_top" xlink:title="_bcp_exec_out">
<polygon fill="white" stroke="black" points="485.5,-342.5 485.5,-361.5 573.5,-361.5 573.5,-342.5 485.5,-342.5"/>
<text text-anchor="middle" x="529.5" y="-349.5" font-family="Helvetica,sans-Serif" font-size="10.00">_bcp_exec_out</text>
</a>
</g>
</g>
<!-- Node2&#45;&gt;Node3 -->
<g id="edge2" class="edge"><title>Node2&#45;&gt;Node3</title>
<path fill="none" stroke="midnightblue" d="M237.095,-336.226C307.501,-340.037 422.922,-346.285 485.278,-349.66"/>
<polygon fill="midnightblue" stroke="midnightblue" points="237.22,-332.728 227.045,-335.682 236.841,-339.717 237.22,-332.728"/>
</g>
<!-- Node4 -->
<g id="node4" class="node"><title>Node4</title>
<g id="a_node4"><a xlink:href="a00343.html#ga7a184158b27a50f713e9cfae3b746209" target="_top" xlink:title="Write a datafile to a table. ">
<polygon fill="white" stroke="black" points="626,-323.5 626,-342.5 688,-342.5 688,-323.5 626,-323.5"/>
<text text-anchor="middle" x="657" y="-330.5" font-family="Helvetica,sans-Serif" font-size="10.00">bcp_exec</text>
</a>
</g>
</g>
<!-- Node3&#45;&gt;Node4 -->
<g id="edge3" class="edge"><title>Node3&#45;&gt;Node4</title>
<path fill="none" stroke="midnightblue" d="M583.948,-343.908C598.256,-341.742 613.225,-339.476 625.787,-337.574"/>
<polygon fill="midnightblue" stroke="midnightblue" points="583.053,-340.504 573.69,-345.461 584.101,-347.425 583.053,-340.504"/>
</g>
<!-- Node6 -->
<g id="node6" class="node"><title>Node6</title>
<g id="a_node6"><a xlink:href="a00344.html#ga065757a7d0dce354660900de4aa79e2f" target="_top" xlink:title="_bcp_read_hostfile">
<polygon fill="white" stroke="black" points="303.5,-304.5 303.5,-323.5 410.5,-323.5 410.5,-304.5 303.5,-304.5"/>
<text text-anchor="middle" x="357" y="-311.5" font-family="Helvetica,sans-Serif" font-size="10.00">_bcp_read_hostfile</text>
</a>
</g>
</g>
<!-- Node5&#45;&gt;Node6 -->
<g id="edge5" class="edge"><title>Node5&#45;&gt;Node6</title>
<path fill="none" stroke="midnightblue" d="M232.37,-287.681C257.684,-293.07 287.353,-299.386 311.281,-304.48"/>
<polygon fill="midnightblue" stroke="midnightblue" points="233.053,-284.248 222.543,-285.589 231.595,-291.095 233.053,-284.248"/>
</g>
<!-- Node8 -->
<g id="node8" class="node"><title>Node8</title>
<g id="a_node8"><a xlink:href="a00344.html#ga0f8def4cad04c5c1e27c2b653d482dd8" target="_top" xlink:title="For a bcp in from program variables, get the data from the host variable. ">
<polygon fill="white" stroke="black" points="303.5,-266.5 303.5,-285.5 410.5,-285.5 410.5,-266.5 303.5,-266.5"/>
<text text-anchor="middle" x="357" y="-273.5" font-family="Helvetica,sans-Serif" font-size="10.00">_bcp_get_col_data</text>
</a>
</g>
</g>
<!-- Node5&#45;&gt;Node8 -->
<g id="edge8" class="edge"><title>Node5&#45;&gt;Node8</title>
<path fill="none" stroke="midnightblue" d="M234.634,-276C256.711,-276 281.813,-276 303.436,-276"/>
<polygon fill="midnightblue" stroke="midnightblue" points="234.399,-272.5 224.399,-276 234.399,-279.5 234.399,-272.5"/>
</g>
<!-- Node7 -->
<g id="node7" class="node"><title>Node7</title>
<g id="a_node7"><a xlink:href="a00344.html#ga7370f1223f13510d6b33e98f2de09fb5" target="_top" xlink:title="_bcp_exec_in">
<polygon fill="white" stroke="black" points="488.5,-304.5 488.5,-323.5 570.5,-323.5 570.5,-304.5 488.5,-304.5"/>
<text text-anchor="middle" x="529.5" y="-311.5" font-family="Helvetica,sans-Serif" font-size="10.00">_bcp_exec_in</text>
</a>
</g>
</g>
<!-- Node6&#45;&gt;Node7 -->
<g id="edge6" class="edge"><title>Node6&#45;&gt;Node7</title>
<path fill="none" stroke="midnightblue" d="M420.737,-314C443.318,-314 468.168,-314 488.31,-314"/>
<polygon fill="midnightblue" stroke="midnightblue" points="420.547,-310.5 410.547,-314 420.547,-317.5 420.547,-310.5"/>
</g>
<!-- Node7&#45;&gt;Node4 -->
<g id="edge7" class="edge"><title>Node7&#45;&gt;Node4</title>
<path fill="none" stroke="midnightblue" d="M580.457,-321.563C595.824,-323.89 612.26,-326.378 625.864,-328.438"/>
<polygon fill="midnightblue" stroke="midnightblue" points="580.965,-318.1 570.554,-320.064 579.917,-325.021 580.965,-318.1"/>
</g>
<!-- Node9 -->
<g id="node9" class="node"><title>Node9</title>
<g id="a_node9"><a xlink:href="a00343.html#gaf1130ac97f6af55e86ec70b0aa4f5b40" target="_top" xlink:title="Write data in host variables to the table. ">
<polygon fill="white" stroke="black" points="489.5,-266.5 489.5,-285.5 569.5,-285.5 569.5,-266.5 489.5,-266.5"/>
<text text-anchor="middle" x="529.5" y="-273.5" font-family="Helvetica,sans-Serif" font-size="10.00">bcp_sendrow</text>
</a>
</g>
</g>
<!-- Node8&#45;&gt;Node9 -->
<g id="edge9" class="edge"><title>Node8&#45;&gt;Node9</title>
<path fill="none" stroke="midnightblue" d="M420.589,-276C443.616,-276 469.021,-276 489.394,-276"/>
<polygon fill="midnightblue" stroke="midnightblue" points="420.547,-272.5 410.547,-276 420.547,-279.5 420.547,-272.5"/>
</g>
<!-- Node11 -->
<g id="node11" class="node"><title>Node11</title>
<g id="a_node11"><a xlink:href="a00341.html#gac617cfeabee6c2ccefaa73636da38f3a" target="_top" xlink:title="cf. ">
<polygon fill="white" stroke="black" points="317,-228.5 317,-247.5 397,-247.5 397,-228.5 317,-228.5"/>
<text text-anchor="middle" x="357" y="-235.5" font-family="Helvetica,sans-Serif" font-size="10.00">dbconvert_ps</text>
</a>
</g>
</g>
<!-- Node10&#45;&gt;Node11 -->
<g id="edge11" class="edge"><title>Node10&#45;&gt;Node11</title>
<path fill="none" stroke="midnightblue" d="M210.87,-194.253C231.004,-201.997 257.27,-211.66 281,-219 292.549,-222.572 305.247,-225.981 316.859,-228.9"/>
<polygon fill="midnightblue" stroke="midnightblue" points="212.105,-190.978 201.516,-190.623 209.573,-197.504 212.105,-190.978"/>
</g>
<!-- Node12 -->
<g id="node12" class="node"><title>Node12</title>
<g id="a_node12"><a xlink:href="a00341.html#gaf641c8e3d34607ca8b7ac2afed3e6d67" target="_top" xlink:title="Print a regular result row to a buffer. ">
<polygon fill="white" stroke="black" points="324,-190.5 324,-209.5 390,-209.5 390,-190.5 324,-190.5"/>
<text text-anchor="middle" x="357" y="-197.5" font-family="Helvetica,sans-Serif" font-size="10.00">dbspr1row</text>
</a>
</g>
</g>
<!-- Node10&#45;&gt;Node12 -->
<g id="edge12" class="edge"><title>Node10&#45;&gt;Node12</title>
<path fill="none" stroke="midnightblue" d="M218.137,-185.326C250.197,-188.738 294.3,-193.432 323.911,-196.584"/>
<polygon fill="midnightblue" stroke="midnightblue" points="218.5,-181.844 208.185,-184.266 217.759,-188.805 218.5,-181.844"/>
</g>
<!-- Node13 -->
<g id="node13" class="node"><title>Node13</title>
<g id="a_node13"><a xlink:href="a00341.html#gaa30be3414a97aac6139af2e928db91ca" target="_top" xlink:title="Print a result set to stdout. ">
<polygon fill="white" stroke="black" points="329.5,-152.5 329.5,-171.5 384.5,-171.5 384.5,-152.5 329.5,-152.5"/>
<text text-anchor="middle" x="357" y="-159.5" font-family="Helvetica,sans-Serif" font-size="10.00">dbprrow</text>
</a>
</g>
</g>
<!-- Node10&#45;&gt;Node13 -->
<g id="edge13" class="edge"><title>Node10&#45;&gt;Node13</title>
<path fill="none" stroke="midnightblue" d="M218.307,-176.656C252.439,-173.023 300.132,-167.947 329.493,-164.821"/>
<polygon fill="midnightblue" stroke="midnightblue" points="217.759,-173.195 208.185,-177.734 218.5,-180.156 217.759,-173.195"/>
</g>
<!-- Node14 -->
<g id="node14" class="node"><title>Node14</title>
<g id="a_node14"><a xlink:href="a00341.html#ga548153eb2eae76c48aa9d4b72258dc1c" target="_top" xlink:title="Send text or image data to the server. ">
<polygon fill="white" stroke="black" points="323,-114.5 323,-133.5 391,-133.5 391,-114.5 323,-114.5"/>
<text text-anchor="middle" x="357" y="-121.5" font-family="Helvetica,sans-Serif" font-size="10.00">dbwritetext</text>
</a>
</g>
</g>
<!-- Node10&#45;&gt;Node14 -->
<g id="edge14" class="edge"><title>Node10&#45;&gt;Node14</title>
<path fill="none" stroke="midnightblue" d="M210.87,-167.747C231.004,-160.003 257.27,-150.34 281,-143 294.602,-138.792 309.799,-134.812 322.937,-131.591"/>
<polygon fill="midnightblue" stroke="midnightblue" points="209.573,-164.496 201.516,-171.377 212.105,-171.022 209.573,-164.496"/>
</g>
<!-- Node16 -->
<g id="node16" class="node"><title>Node16</title>
<g id="a_node16"><a xlink:href="a00356.html#gaf614c75ea8f7ad411e53dac0e2f91be4" target="_top" xlink:title="Send RPC as string query. ">
<polygon fill="white" stroke="black" points="292,-76.5 292,-95.5 422,-95.5 422,-76.5 292,-76.5"/>
<text text-anchor="middle" x="357" y="-83.5" font-family="Helvetica,sans-Serif" font-size="10.00">tds_send_emulated_rpc</text>
</a>
</g>
</g>
<!-- Node15&#45;&gt;Node16 -->
<g id="edge16" class="edge"><title>Node15&#45;&gt;Node16</title>
<path fill="none" stroke="midnightblue" d="M232.37,-112.319C257.684,-106.93 287.353,-100.614 311.281,-95.5201"/>
<polygon fill="midnightblue" stroke="midnightblue" points="231.595,-108.905 222.543,-114.411 233.053,-115.752 231.595,-108.905"/>
</g>
<!-- Node18 -->
<g id="node18" class="node"><title>Node18</title>
<g id="a_node18"><a xlink:href="a00356.html#ga02c6ce3ff96369603a6ee4efee64caae" target="_top" xlink:title="Emulate prepared execute traslating to a normal language. ">
<polygon fill="white" stroke="black" points="281,-38.5 281,-57.5 433,-57.5 433,-38.5 281,-38.5"/>
<text text-anchor="middle" x="357" y="-45.5" font-family="Helvetica,sans-Serif" font-size="10.00">tds_send_emulated_execute</text>
</a>
</g>
</g>
<!-- Node15&#45;&gt;Node18 -->
<g id="edge18" class="edge"><title>Node15&#45;&gt;Node18</title>
<path fill="none" stroke="midnightblue" d="M233.643,-110.791C237.595,-109.082 241.424,-107.16 245,-105 264.913,-92.9711 260.93,-78.7663 281,-67 287.605,-63.1277 294.987,-60.0379 302.472,-57.574"/>
<polygon fill="midnightblue" stroke="midnightblue" points="232.337,-107.544 224.264,-114.406 234.854,-114.076 232.337,-107.544"/>
</g>
<!-- Node17 -->
<g id="node17" class="node"><title>Node17</title>
<g id="a_node17"><a xlink:href="a00356.html#ga5f071b94ad7889690762dc85646c74ab" target="_top" xlink:title="tds_submit_rpc() call a RPC from server. ">
<polygon fill="white" stroke="red" points="486,-76.5 486,-95.5 573,-95.5 573,-76.5 486,-76.5"/>
<text text-anchor="middle" x="529.5" y="-83.5" font-family="Helvetica,sans-Serif" font-size="10.00">tds_submit_rpc</text>
</a>
</g>
</g>
<!-- Node16&#45;&gt;Node17 -->
<g id="edge17" class="edge"><title>Node16&#45;&gt;Node17</title>
<path fill="none" stroke="midnightblue" d="M432.517,-86C450.785,-86 469.72,-86 485.897,-86"/>
<polygon fill="midnightblue" stroke="midnightblue" points="432.459,-82.5001 422.459,-86 432.459,-89.5001 432.459,-82.5001"/>
</g>
<!-- Node19 -->
<g id="node19" class="node"><title>Node19</title>
<g id="a_node19"><a xlink:href="a00356.html#gae603aed795a4c5bb26ab159a11256996" target="_top" xlink:title="Submit a prepared query with parameters. ">
<polygon fill="white" stroke="black" points="469,-38.5 469,-57.5 590,-57.5 590,-38.5 469,-38.5"/>
<text text-anchor="middle" x="529.5" y="-45.5" font-family="Helvetica,sans-Serif" font-size="10.00">tds_submit_execdirect</text>
</a>
</g>
</g>
<!-- Node18&#45;&gt;Node19 -->
<g id="edge19" class="edge"><title>Node18&#45;&gt;Node19</title>
<path fill="none" stroke="midnightblue" d="M443.408,-48C452.052,-48 460.695,-48 468.98,-48"/>
<polygon fill="midnightblue" stroke="midnightblue" points="443.28,-44.5001 433.28,-48 443.28,-51.5001 443.28,-44.5001"/>
</g>
<!-- Node20 -->
<g id="node20" class="node"><title>Node20</title>
<g id="a_node20"><a xlink:href="a00356.html#ga3e7b4793c6f799fbc6c174f673bb5b32" target="_top" xlink:title="tds_submit_execute() sends a previously prepared dynamic statement to the server. ...">
<polygon fill="white" stroke="black" points="475,-0.5 475,-19.5 584,-19.5 584,-0.5 475,-0.5"/>
<text text-anchor="middle" x="529.5" y="-7.5" font-family="Helvetica,sans-Serif" font-size="10.00">tds_submit_execute</text>
</a>
</g>
</g>
<!-- Node18&#45;&gt;Node20 -->
<g id="edge20" class="edge"><title>Node18&#45;&gt;Node20</title>
<path fill="none" stroke="midnightblue" d="M411.054,-36.1757C435.091,-30.8184 463.132,-24.5689 485.785,-19.5201"/>
<polygon fill="midnightblue" stroke="midnightblue" points="410.023,-32.8194 401.024,-38.411 411.546,-39.6517 410.023,-32.8194"/>
</g>
</g>
</svg>
