<?xml version="1.0" encoding="UTF-8" standalone="no"?>
<!DOCTYPE svg PUBLIC "-//W3C//DTD SVG 1.1//EN"
 "http://www.w3.org/Graphics/SVG/1.1/DTD/svg11.dtd">
<!-- Generated by graphviz version 2.38.0 (20140413.2041)
 -->
<!-- Title: tds_submit_rpc Pages: 1 -->
<svg width="1493pt" height="475pt"
 viewBox="0.00 0.00 1493.00 474.73" xmlns="http://www.w3.org/2000/svg" xmlns:xlink="http://www.w3.org/1999/xlink">
<g id="graph0" class="graph" transform="scale(1 1) rotate(0) translate(4 470.726)">
<title>tds_submit_rpc</title>
<polygon fill="white" stroke="none" points="-4,4 -4,-470.726 1489,-470.726 1489,4 -4,4"/>
<!-- Node1 -->
<g id="node1" class="node"><title>Node1</title>
<polygon fill="#bfbfbf" stroke="black" points="0,-314.226 0,-333.226 87,-333.226 87,-314.226 0,-314.226"/>
<text text-anchor="middle" x="43.5" y="-321.226" font-family="Helvetica,sans-Serif" font-size="10.00">tds_submit_rpc</text>
</g>
<!-- Node2 -->
<g id="node2" class="node"><title>Node2</title>
<g id="a_node2"><a xlink:href="a00193.html#a16db200d2281f76fe46fc1cbe37ca9df" target="_top" xlink:title="Set state of TDS connection, with logging and checking. ">
<polygon fill="white" stroke="black" points="502,-295.226 502,-314.226 582,-314.226 582,-295.226 502,-295.226"/>
<text text-anchor="middle" x="542" y="-302.226" font-family="Helvetica,sans-Serif" font-size="10.00">tds_set_state</text>
</a>
</g>
</g>
<!-- Node1&#45;&gt;Node2 -->
<g id="edge1" class="edge"><title>Node1&#45;&gt;Node2</title>
<path fill="none" stroke="midnightblue" d="M87.261,-322.09C179.063,-318.576 394.554,-310.33 491.825,-306.608"/>
<polygon fill="midnightblue" stroke="midnightblue" points="492.117,-310.099 501.975,-306.219 491.849,-303.104 492.117,-310.099"/>
</g>
<!-- Node7 -->
<g id="node7" class="node"><title>Node7</title>
<g id="a_node7"><a xlink:href="a00356.html#ga024bc5482366735070befd6f4af59f71" target="_top" xlink:title="Convert a string in an allocated buffer. ">
<polygon fill="white" stroke="black" points="490,-257.226 490,-276.226 594,-276.226 594,-257.226 490,-257.226"/>
<text text-anchor="middle" x="542" y="-264.226" font-family="Helvetica,sans-Serif" font-size="10.00">tds_convert_string</text>
</a>
</g>
</g>
<!-- Node1&#45;&gt;Node7 -->
<g id="edge8" class="edge"><title>Node1&#45;&gt;Node7</title>
<path fill="none" stroke="midnightblue" d="M54.1404,-314.103C68.0227,-300.906 95.0604,-277.595 123,-266.726 247.366,-218.346 408.737,-239.469 489.785,-255.208"/>
<polygon fill="midnightblue" stroke="midnightblue" points="489.242,-258.669 499.734,-257.193 490.612,-251.804 489.242,-258.669"/>
</g>
<!-- Node11 -->
<g id="node11" class="node"><title>Node11</title>
<g id="a_node11"><a xlink:href="a00356.html#ga9ad2e6defce530a8778791cce0166ccd" target="_top" xlink:title="Start query packet of a given type. ">
<polygon fill="white" stroke="black" points="303.5,-257.226 303.5,-276.226 423.5,-276.226 423.5,-257.226 303.5,-257.226"/>
<text text-anchor="middle" x="363.5" y="-264.226" font-family="Helvetica,sans-Serif" font-size="10.00">tds_start_query_head</text>
</a>
</g>
</g>
<!-- Node1&#45;&gt;Node11 -->
<g id="edge15" class="edge"><title>Node1&#45;&gt;Node11</title>
<path fill="none" stroke="midnightblue" d="M62.9887,-314.094C78.561,-306.441 101.651,-296.152 123,-290.726 179.149,-276.454 244.724,-270.601 293.048,-268.235"/>
<polygon fill="midnightblue" stroke="midnightblue" points="293.256,-271.729 303.088,-267.781 292.94,-264.736 293.256,-271.729"/>
</g>
<!-- Node12 -->
<g id="node12" class="node"><title>Node12</title>
<g id="a_node12"><a xlink:href="a00356.html#gafd74652c4722ddce4d642cc4209449d4" target="_top" xlink:title="Put data information to wire. ">
<polygon fill="white" stroke="black" points="313,-409.226 313,-428.226 414,-428.226 414,-409.226 313,-409.226"/>
<text text-anchor="middle" x="363.5" y="-416.226" font-family="Helvetica,sans-Serif" font-size="10.00">tds_put_data_info</text>
</a>
</g>
</g>
<!-- Node1&#45;&gt;Node12 -->
<g id="edge18" class="edge"><title>Node1&#45;&gt;Node12</title>
<path fill="none" stroke="midnightblue" d="M57.7061,-333.306C72.7768,-343.787 98.5147,-360.343 123,-369.726 181.829,-392.269 252.96,-405.144 302.347,-411.983"/>
<polygon fill="midnightblue" stroke="midnightblue" points="302.166,-415.49 312.543,-413.352 303.098,-408.552 302.166,-415.49"/>
</g>
<!-- Node13 -->
<g id="node13" class="node"><title>Node13</title>
<g id="a_node13"><a xlink:href="a00356.html#ga9fcc0a3932dcad530511395ef8a767fb" target="_top" xlink:title="Write data to wire. ">
<polygon fill="white" stroke="black" points="324.5,-371.226 324.5,-390.226 402.5,-390.226 402.5,-371.226 324.5,-371.226"/>
<text text-anchor="middle" x="363.5" y="-378.226" font-family="Helvetica,sans-Serif" font-size="10.00">tds_put_data</text>
</a>
</g>
</g>
<!-- Node1&#45;&gt;Node13 -->
<g id="edge21" class="edge"><title>Node1&#45;&gt;Node13</title>
<path fill="none" stroke="midnightblue" d="M75.2188,-333.32C89.62,-337.563 107.078,-342.346 123,-345.726 188.677,-359.668 265.666,-369.841 314.263,-375.518"/>
<polygon fill="midnightblue" stroke="midnightblue" points="314.152,-379.028 324.486,-376.695 314.952,-372.074 314.152,-379.028"/>
</g>
<!-- Node14 -->
<g id="node14" class="node"><title>Node14</title>
<g id="a_node14"><a xlink:href="a00356.html#gada27f4cfce925240ad33b71b63ca692d" target="_top" xlink:title="Flush query packet. ">
<polygon fill="white" stroke="black" points="299.5,-333.226 299.5,-352.226 427.5,-352.226 427.5,-333.226 299.5,-333.226"/>
<text text-anchor="middle" x="363.5" y="-340.226" font-family="Helvetica,sans-Serif" font-size="10.00">tds_query_flush_packet</text>
</a>
</g>
</g>
<!-- Node1&#45;&gt;Node14 -->
<g id="edge22" class="edge"><title>Node1&#45;&gt;Node14</title>
<path fill="none" stroke="midnightblue" d="M87.0569,-326.269C138.679,-329.353 226.551,-334.603 289.161,-338.344"/>
<polygon fill="midnightblue" stroke="midnightblue" points="289.181,-341.851 299.372,-338.954 289.599,-334.864 289.181,-341.851"/>
</g>
<!-- Node15 -->
<g id="node15" class="node"><title>Node15</title>
<g id="a_node15"><a xlink:href="a00356.html#ga28264995cf9616661f1fa788ac0d246d" target="_top" xlink:title="Send parameters to server. ">
<polygon fill="white" stroke="black" points="142,-447.226 142,-466.226 234,-466.226 234,-447.226 142,-447.226"/>
<text text-anchor="middle" x="188" y="-454.226" font-family="Helvetica,sans-Serif" font-size="10.00">tds_put_params</text>
</a>
</g>
</g>
<!-- Node1&#45;&gt;Node15 -->
<g id="edge25" class="edge"><title>Node1&#45;&gt;Node15</title>
<path fill="none" stroke="midnightblue" d="M48.9588,-333.339C59.1476,-354.31 86.132,-404.541 123,-432.726 128.384,-436.842 134.551,-440.316 140.883,-443.229"/>
<polygon fill="midnightblue" stroke="midnightblue" points="139.63,-446.499 150.208,-447.107 142.318,-440.035 139.63,-446.499"/>
</g>
<!-- Node17 -->
<g id="node17" class="node"><title>Node17</title>
<g id="a_node17"><a xlink:href="a00356.html#gaf614c75ea8f7ad411e53dac0e2f91be4" target="_top" xlink:title="Send RPC as string query. ">
<polygon fill="white" stroke="black" points="123,-181.226 123,-200.226 253,-200.226 253,-181.226 123,-181.226"/>
<text text-anchor="middle" x="188" y="-188.226" font-family="Helvetica,sans-Serif" font-size="10.00">tds_send_emulated_rpc</text>
</a>
</g>
</g>
<!-- Node1&#45;&gt;Node17 -->
<g id="edge30" class="edge"><title>Node1&#45;&gt;Node17</title>
<path fill="none" stroke="midnightblue" d="M48.9588,-314.113C59.1476,-293.142 86.132,-242.911 123,-214.726 128.384,-210.61 134.551,-207.136 140.883,-204.222"/>
<polygon fill="midnightblue" stroke="midnightblue" points="142.318,-207.416 150.208,-200.345 139.63,-200.953 142.318,-207.416"/>
</g>
<!-- Node3 -->
<g id="node3" class="node"><title>Node3</title>
<g id="a_node3"><a xlink:href="a00193.html#ab45c291105027e69836002e1dd586141" target="_top" xlink:title="Write a message to the debug log. ">
<polygon fill="white" stroke="black" points="1408,-257.226 1408,-276.226 1485,-276.226 1485,-257.226 1408,-257.226"/>
<text text-anchor="middle" x="1446.5" y="-264.226" font-family="Helvetica,sans-Serif" font-size="10.00">tdsdump_log</text>
</a>
</g>
</g>
<!-- Node2&#45;&gt;Node3 -->
<g id="edge2" class="edge"><title>Node2&#45;&gt;Node3</title>
<path fill="none" stroke="midnightblue" d="M582.13,-308.941C689.887,-320.31 1000.14,-351.438 1259,-361.726 1309.18,-363.72 1326.91,-383.849 1372,-361.726 1404.14,-345.954 1426.23,-308.602 1437.3,-285.714"/>
<polygon fill="midnightblue" stroke="midnightblue" points="1440.61,-286.893 1441.6,-276.345 1434.24,-283.971 1440.61,-286.893"/>
</g>
<!-- Node4 -->
<g id="node4" class="node"><title>Node4</title>
<g id="a_node4"><a xlink:href="a00193.html#abf18b98efef6ce2dc0b97d658a3a1918" target="_top" xlink:title="Call the client library&#39;s error handler (for library&#45;generated errors only) ">
<polygon fill="white" stroke="black" points="989,-257.226 989,-276.226 1043,-276.226 1043,-257.226 989,-257.226"/>
<text text-anchor="middle" x="1016" y="-264.226" font-family="Helvetica,sans-Serif" font-size="10.00">tdserror</text>
</a>
</g>
</g>
<!-- Node2&#45;&gt;Node4 -->
<g id="edge3" class="edge"><title>Node2&#45;&gt;Node4</title>
<path fill="none" stroke="midnightblue" d="M582.052,-298.761C601.273,-295.993 624.812,-292.852 646,-290.726 767.32,-278.551 911.729,-271.231 978.191,-268.264"/>
<polygon fill="midnightblue" stroke="midnightblue" points="978.712,-271.744 988.549,-267.809 978.405,-264.751 978.712,-271.744"/>
</g>
<!-- Node4&#45;&gt;Node3 -->
<g id="edge4" class="edge"><title>Node4&#45;&gt;Node3</title>
<path fill="none" stroke="midnightblue" d="M1043.16,-266.726C1113.42,-266.726 1307.05,-266.726 1397.62,-266.726"/>
<polygon fill="midnightblue" stroke="midnightblue" points="1397.88,-270.226 1407.88,-266.726 1397.88,-263.226 1397.88,-270.226"/>
</g>
<!-- Node5 -->
<g id="node5" class="node"><title>Node5</title>
<g id="a_node5"><a xlink:href="a00356.html#ga11338742dc30fd0c2711f58eb830316f" target="_top" xlink:title="tds_send_cancel() sends an empty packet (8 byte header only) tds_process_cancel should be called dire...">
<polygon fill="white" stroke="black" points="1104.5,-295.226 1104.5,-314.226 1201.5,-314.226 1201.5,-295.226 1104.5,-295.226"/>
<text text-anchor="middle" x="1153" y="-302.226" font-family="Helvetica,sans-Serif" font-size="10.00">tds_send_cancel</text>
</a>
</g>
</g>
<!-- Node4&#45;&gt;Node5 -->
<g id="edge5" class="edge"><title>Node4&#45;&gt;Node5</title>
<path fill="none" stroke="midnightblue" d="M1043.03,-274.053C1061.48,-279.247 1086.69,-286.342 1108.21,-292.4"/>
<polygon fill="midnightblue" stroke="midnightblue" points="1107.54,-295.848 1118.12,-295.189 1109.44,-289.11 1107.54,-295.848"/>
</g>
<!-- Node5&#45;&gt;Node3 -->
<g id="edge6" class="edge"><title>Node5&#45;&gt;Node3</title>
<path fill="none" stroke="midnightblue" d="M1201.77,-300.556C1246.03,-296.434 1313.64,-289.483 1372,-280.726 1380.4,-279.465 1389.31,-277.935 1397.91,-276.355"/>
<polygon fill="midnightblue" stroke="midnightblue" points="1398.65,-279.778 1407.83,-274.491 1397.35,-272.899 1398.65,-279.778"/>
</g>
<!-- Node6 -->
<g id="node6" class="node"><title>Node6</title>
<g id="a_node6"><a xlink:href="a00357.html#ga5feb53554e8917a81bbbc332163a61fb" target="_top" xlink:title="Flush packet to server. ">
<polygon fill="white" stroke="black" points="1267.5,-333.226 1267.5,-352.226 1363.5,-352.226 1363.5,-333.226 1267.5,-333.226"/>
<text text-anchor="middle" x="1315.5" y="-340.226" font-family="Helvetica,sans-Serif" font-size="10.00">tds_flush_packet</text>
</a>
</g>
</g>
<!-- Node5&#45;&gt;Node6 -->
<g id="edge7" class="edge"><title>Node5&#45;&gt;Node6</title>
<path fill="none" stroke="midnightblue" d="M1194.5,-314.315C1215.68,-319.329 1241.8,-325.514 1264.26,-330.831"/>
<polygon fill="midnightblue" stroke="midnightblue" points="1263.75,-334.308 1274.29,-333.206 1265.37,-327.496 1263.75,-334.308"/>
</g>
<!-- Node8 -->
<g id="node8" class="node"><title>Node8</title>
<g id="a_node8"><a xlink:href="a00354.html#ga87db49044919f1bc84c0ff5e9ab00304" target="_top" xlink:title="Wrapper around iconv(3). ">
<polygon fill="white" stroke="black" points="985,-181.226 985,-200.226 1047,-200.226 1047,-181.226 985,-181.226"/>
<text text-anchor="middle" x="1016" y="-188.226" font-family="Helvetica,sans-Serif" font-size="10.00">tds_iconv</text>
</a>
</g>
</g>
<!-- Node7&#45;&gt;Node8 -->
<g id="edge9" class="edge"><title>Node7&#45;&gt;Node8</title>
<path fill="none" stroke="midnightblue" d="M594.038,-261.892C671.38,-254.044 822.648,-236.642 949,-209.726 957.634,-207.887 966.793,-205.522 975.453,-203.09"/>
<polygon fill="midnightblue" stroke="midnightblue" points="976.694,-206.375 985.327,-200.232 974.748,-199.651 976.694,-206.375"/>
</g>
<!-- Node8&#45;&gt;Node3 -->
<g id="edge10" class="edge"><title>Node8&#45;&gt;Node3</title>
<path fill="none" stroke="midnightblue" d="M1047.18,-197.39C1058.4,-199.8 1071.27,-202.479 1083,-204.726 1195.43,-226.257 1328.19,-248.041 1397.65,-259.162"/>
<polygon fill="midnightblue" stroke="midnightblue" points="1397.41,-262.668 1407.84,-260.789 1398.52,-255.755 1397.41,-262.668"/>
</g>
<!-- Node9 -->
<g id="node9" class="node"><title>Node9</title>
<g id="a_node9"><a xlink:href="a00354.html#ga3380140fc6eb9f2090c430f40e846876" target="_top" xlink:title="Move the input sequence pointer to the next valid position. ">
<polygon fill="white" stroke="black" points="1083,-143.226 1083,-162.226 1223,-162.226 1223,-143.226 1083,-143.226"/>
<text text-anchor="middle" x="1153" y="-150.226" font-family="Helvetica,sans-Serif" font-size="10.00">skip_one_input_sequence</text>
</a>
</g>
</g>
<!-- Node8&#45;&gt;Node9 -->
<g id="edge11" class="edge"><title>Node8&#45;&gt;Node9</title>
<path fill="none" stroke="midnightblue" d="M1047.3,-182.198C1065.25,-177.144 1088.32,-170.652 1108.23,-165.048"/>
<polygon fill="midnightblue" stroke="midnightblue" points="1109.33,-168.373 1118.01,-162.295 1107.43,-161.635 1109.33,-168.373"/>
</g>
<!-- Node10 -->
<g id="node10" class="node"><title>Node10</title>
<g id="a_node10"><a xlink:href="a00354.html#ga900b0bce08c6bfc2e7c988f4b5970516" target="_top" xlink:title="Inputs are FreeTDS canonical names, no other. ">
<polygon fill="white" stroke="black" points="1259,-181.226 1259,-200.226 1372,-200.226 1372,-181.226 1259,-181.226"/>
<text text-anchor="middle" x="1315.5" y="-188.226" font-family="Helvetica,sans-Serif" font-size="10.00">tds_sys_iconv_open</text>
</a>
</g>
</g>
<!-- Node8&#45;&gt;Node10 -->
<g id="edge14" class="edge"><title>Node8&#45;&gt;Node10</title>
<path fill="none" stroke="midnightblue" d="M1047.16,-190.726C1094.11,-190.726 1185.78,-190.726 1248.56,-190.726"/>
<polygon fill="midnightblue" stroke="midnightblue" points="1248.76,-194.226 1258.76,-190.726 1248.76,-187.226 1248.76,-194.226"/>
</g>
<!-- Node9&#45;&gt;Node10 -->
<g id="edge12" class="edge"><title>Node9&#45;&gt;Node10</title>
<path fill="none" stroke="midnightblue" d="M1194.5,-162.315C1215.68,-167.329 1241.8,-173.514 1264.26,-178.831"/>
<polygon fill="midnightblue" stroke="midnightblue" points="1263.75,-182.308 1274.29,-181.206 1265.37,-175.496 1263.75,-182.308"/>
</g>
<!-- Node10&#45;&gt;Node3 -->
<g id="edge13" class="edge"><title>Node10&#45;&gt;Node3</title>
<path fill="none" stroke="midnightblue" d="M1341.62,-200.29C1351.33,-204.319 1362.39,-209.326 1372,-214.726 1390.96,-225.379 1411.02,-239.811 1425.38,-250.768"/>
<polygon fill="midnightblue" stroke="midnightblue" points="1423.48,-253.722 1433.53,-257.077 1427.77,-248.187 1423.48,-253.722"/>
</g>
<!-- Node11&#45;&gt;Node2 -->
<g id="edge17" class="edge"><title>Node11&#45;&gt;Node2</title>
<path fill="none" stroke="midnightblue" d="M409.038,-276.315C434.282,-281.75 465.909,-288.559 491.872,-294.149"/>
<polygon fill="midnightblue" stroke="midnightblue" points="491.371,-297.621 501.884,-296.304 492.844,-290.778 491.371,-297.621"/>
</g>
<!-- Node11&#45;&gt;Node7 -->
<g id="edge16" class="edge"><title>Node11&#45;&gt;Node7</title>
<path fill="none" stroke="midnightblue" d="M423.763,-266.726C441.762,-266.726 461.571,-266.726 479.701,-266.726"/>
<polygon fill="midnightblue" stroke="midnightblue" points="479.866,-270.226 489.866,-266.726 479.866,-263.226 479.866,-270.226"/>
</g>
<!-- Node12&#45;&gt;Node3 -->
<g id="edge19" class="edge"><title>Node12&#45;&gt;Node3</title>
<path fill="none" stroke="midnightblue" d="M414.203,-418.726C481.894,-418.726 606.861,-418.726 713.5,-418.726 713.5,-418.726 713.5,-418.726 1154,-418.726 1252.35,-418.726 1290.02,-435.064 1372,-380.726 1406.85,-357.627 1428.71,-311.738 1438.84,-285.778"/>
<polygon fill="midnightblue" stroke="midnightblue" points="1442.16,-286.888 1442.36,-276.295 1435.6,-284.451 1442.16,-286.888"/>
</g>
<!-- Node12&#45;&gt;Node7 -->
<g id="edge20" class="edge"><title>Node12&#45;&gt;Node7</title>
<path fill="none" stroke="midnightblue" d="M414.297,-413.14C423.021,-410.249 431.402,-405.984 438,-399.726 476.551,-363.162 435.878,-322.737 474,-285.726 476.114,-283.673 478.434,-281.839 480.9,-280.2"/>
<polygon fill="midnightblue" stroke="midnightblue" points="482.671,-283.22 489.764,-275.35 479.311,-277.08 482.671,-283.22"/>
</g>
<!-- Node14&#45;&gt;Node2 -->
<g id="edge23" class="edge"><title>Node14&#45;&gt;Node2</title>
<path fill="none" stroke="midnightblue" d="M409.038,-333.137C434.282,-327.702 465.909,-320.893 491.872,-315.303"/>
<polygon fill="midnightblue" stroke="midnightblue" points="492.844,-318.674 501.884,-313.148 491.371,-311.831 492.844,-318.674"/>
</g>
<!-- Node14&#45;&gt;Node6 -->
<g id="edge24" class="edge"><title>Node14&#45;&gt;Node6</title>
<path fill="none" stroke="midnightblue" d="M427.548,-342.726C497.443,-342.726 613.526,-342.726 713.5,-342.726 713.5,-342.726 713.5,-342.726 1017,-342.726 1100.61,-342.726 1197.44,-342.726 1257.34,-342.726"/>
<polygon fill="midnightblue" stroke="midnightblue" points="1257.35,-346.226 1267.35,-342.726 1257.35,-339.226 1257.35,-346.226"/>
</g>
<!-- Node15&#45;&gt;Node12 -->
<g id="edge28" class="edge"><title>Node15&#45;&gt;Node12</title>
<path fill="none" stroke="midnightblue" d="M232.781,-447.137C255.986,-442.055 284.678,-435.77 309.173,-430.406"/>
<polygon fill="midnightblue" stroke="midnightblue" points="310.014,-433.804 319.033,-428.246 308.516,-426.967 310.014,-433.804"/>
</g>
<!-- Node15&#45;&gt;Node13 -->
<g id="edge29" class="edge"><title>Node15&#45;&gt;Node13</title>
<path fill="none" stroke="midnightblue" d="M202.966,-447.167C221.764,-434.684 256.596,-412.876 289,-399.726 297.163,-396.413 306.075,-393.535 314.787,-391.09"/>
<polygon fill="midnightblue" stroke="midnightblue" points="315.721,-394.463 324.488,-388.514 313.925,-387.698 315.721,-394.463"/>
</g>
<!-- Node16 -->
<g id="node16" class="node"><title>Node16</title>
<g id="a_node16"><a xlink:href="a00356.html#ga319d610d59b2cc669b7fe20c793122af" target="_top" xlink:title="Calc information length in bytes (useful for calculating full packet length) ">
<polygon fill="white" stroke="black" points="646,-447.226 646,-466.226 783,-466.226 783,-447.226 646,-447.226"/>
<text text-anchor="middle" x="714.5" y="-454.226" font-family="Helvetica,sans-Serif" font-size="10.00">tds_put_data_info_length</text>
</a>
</g>
</g>
<!-- Node15&#45;&gt;Node16 -->
<g id="edge26" class="edge"><title>Node15&#45;&gt;Node16</title>
<path fill="none" stroke="midnightblue" d="M234.173,-456.726C323.69,-456.726 524.541,-456.726 635.734,-456.726"/>
<polygon fill="midnightblue" stroke="midnightblue" points="635.88,-460.226 645.88,-456.726 635.88,-453.226 635.88,-460.226"/>
</g>
<!-- Node16&#45;&gt;Node3 -->
<g id="edge27" class="edge"><title>Node16&#45;&gt;Node3</title>
<path fill="none" stroke="midnightblue" d="M783.003,-456.726C843.705,-456.726 935.315,-456.726 1015,-456.726 1015,-456.726 1015,-456.726 1154,-456.726 1251.47,-456.726 1293.34,-490.295 1372,-432.726 1420.65,-397.116 1437.64,-322.033 1443.11,-286.354"/>
<polygon fill="midnightblue" stroke="midnightblue" points="1446.61,-286.64 1444.51,-276.254 1439.67,-285.679 1446.61,-286.64"/>
</g>
<!-- Node17&#45;&gt;Node14 -->
<g id="edge49" class="edge"><title>Node17&#45;&gt;Node14</title>
<path fill="none" stroke="midnightblue" d="M198.631,-200.502C216.12,-218.109 254.487,-256.079 289,-285.726 306.1,-300.415 326.407,-316.034 341.338,-327.2"/>
<polygon fill="midnightblue" stroke="midnightblue" points="339.328,-330.067 349.443,-333.22 343.502,-324.448 339.328,-330.067"/>
</g>
<!-- Node18 -->
<g id="node18" class="node"><title>Node18</title>
<g id="a_node18"><a xlink:href="a00356.html#ga50d62edeb2a432e2dc668263f3f958ff" target="_top" xlink:title="Return declaration for column (like &quot;varchar(20)&quot;) ">
<polygon fill="white" stroke="black" points="289,-48.2259 289,-67.2259 438,-67.2259 438,-48.2259 289,-48.2259"/>
<text text-anchor="middle" x="363.5" y="-55.2259" font-family="Helvetica,sans-Serif" font-size="10.00">tds_get_column_declaration</text>
</a>
</g>
</g>
<!-- Node17&#45;&gt;Node18 -->
<g id="edge31" class="edge"><title>Node17&#45;&gt;Node18</title>
<path fill="none" stroke="midnightblue" d="M198.368,-181.085C215.441,-163.803 253.169,-126.91 289,-100.726 303.491,-90.1361 320.768,-79.9196 334.93,-72.104"/>
<polygon fill="midnightblue" stroke="midnightblue" points="336.603,-75.1784 343.726,-67.335 333.266,-69.0247 336.603,-75.1784"/>
</g>
<!-- Node21 -->
<g id="node21" class="node"><title>Node21</title>
<g id="a_node21"><a xlink:href="a00357.html#ga1fcaf8d488cc1390f106ce3ad0bf37b4" target="_top" xlink:title="Output a string to wire automatic translate string to unicode if needed. ">
<polygon fill="white" stroke="black" points="673,-143.226 673,-162.226 756,-162.226 756,-143.226 673,-143.226"/>
<text text-anchor="middle" x="714.5" y="-150.226" font-family="Helvetica,sans-Serif" font-size="10.00">tds_put_string</text>
</a>
</g>
</g>
<!-- Node17&#45;&gt;Node21 -->
<g id="edge35" class="edge"><title>Node17&#45;&gt;Node21</title>
<path fill="none" stroke="midnightblue" d="M234.147,-181.194C251.267,-177.831 270.975,-174.26 289,-171.726 370.764,-160.229 391.535,-158.852 474,-154.726 539,-151.474 614.044,-151.451 662.553,-151.924"/>
<polygon fill="midnightblue" stroke="midnightblue" points="662.751,-155.426 672.788,-152.035 662.827,-148.426 662.751,-155.426"/>
</g>
<!-- Node25 -->
<g id="node25" class="node"><title>Node25</title>
<g id="a_node25"><a xlink:href="a00356.html#ga0e2e7230c425e925402d7856ff5b4b18" target="_top" xlink:title="Send a parameter to server. ">
<polygon fill="white" stroke="black" points="295,-181.226 295,-200.226 432,-200.226 432,-181.226 295,-181.226"/>
<text text-anchor="middle" x="363.5" y="-188.226" font-family="Helvetica,sans-Serif" font-size="10.00">tds_put_param_as_string</text>
</a>
</g>
</g>
<!-- Node17&#45;&gt;Node25 -->
<g id="edge42" class="edge"><title>Node17&#45;&gt;Node25</title>
<path fill="none" stroke="midnightblue" d="M253.112,-190.726C263.427,-190.726 274.2,-190.726 284.792,-190.726"/>
<polygon fill="midnightblue" stroke="midnightblue" points="284.87,-194.226 294.87,-190.726 284.87,-187.226 284.87,-194.226"/>
</g>
<!-- Node18&#45;&gt;Node3 -->
<g id="edge34" class="edge"><title>Node18&#45;&gt;Node3</title>
<path fill="none" stroke="midnightblue" d="M386.674,-48.1505C408.465,-39.1942 442.882,-26.2478 474,-19.7259 578.508,2.17772 606.721,-0.725905 713.5,-0.725905 713.5,-0.725905 713.5,-0.725905 1154,-0.725905 1264.6,-0.725905 1295.25,-41.0953 1372,-120.726 1408.13,-158.213 1430.23,-216.957 1439.84,-247.235"/>
<polygon fill="midnightblue" stroke="midnightblue" points="1436.56,-248.467 1442.83,-257.01 1443.26,-246.424 1436.56,-248.467"/>
</g>
<!-- Node19 -->
<g id="node19" class="node"><title>Node19</title>
<g id="a_node19"><a xlink:href="a00356.html#ga440f0f469afad1eac4c008979873ccdd" target="_top" xlink:title="Get column size for wire. ">
<polygon fill="white" stroke="black" points="486.5,-29.2259 486.5,-48.2259 597.5,-48.2259 597.5,-29.2259 486.5,-29.2259"/>
<text text-anchor="middle" x="542" y="-36.2259" font-family="Helvetica,sans-Serif" font-size="10.00">tds_fix_column_size</text>
</a>
</g>
</g>
<!-- Node18&#45;&gt;Node19 -->
<g id="edge32" class="edge"><title>Node18&#45;&gt;Node19</title>
<path fill="none" stroke="midnightblue" d="M438.074,-49.8058C450.71,-48.4455 463.76,-47.0407 476.147,-45.7073"/>
<polygon fill="midnightblue" stroke="midnightblue" points="476.804,-49.1568 486.372,-44.6065 476.055,-42.197 476.804,-49.1568"/>
</g>
<!-- Node20 -->
<g id="node20" class="node"><title>Node20</title>
<g id="a_node20"><a xlink:href="a00193.html#ae7f4c4d5f7352f1c814284c536659e6f" target="_top" xlink:title="Return type suitable for conversions (convert all nullable types to fixed type) ">
<polygon fill="white" stroke="black" points="474,-67.2259 474,-86.2259 610,-86.2259 610,-67.2259 474,-67.2259"/>
<text text-anchor="middle" x="542" y="-74.2259" font-family="Helvetica,sans-Serif" font-size="10.00">tds_get_conversion_type</text>
</a>
</g>
</g>
<!-- Node18&#45;&gt;Node20 -->
<g id="edge33" class="edge"><title>Node18&#45;&gt;Node20</title>
<path fill="none" stroke="midnightblue" d="M438.074,-65.646C446.572,-66.5609 455.257,-67.4958 463.802,-68.4156"/>
<polygon fill="midnightblue" stroke="midnightblue" points="463.431,-71.8958 473.748,-69.4863 464.18,-64.9361 463.431,-71.8958"/>
</g>
<!-- Node22 -->
<g id="node22" class="node"><title>Node22</title>
<g id="a_node22"><a xlink:href="a00263.html#aa9e1e45f0305622dd6aed9f8fe158581" target="_top" xlink:title="Initialize an input stream for read from a static allocated buffer. ">
<polygon fill="white" stroke="red" points="820,-181.226 820,-200.226 948,-200.226 948,-181.226 820,-181.226"/>
<text text-anchor="middle" x="884" y="-188.226" font-family="Helvetica,sans-Serif" font-size="10.00">tds_staticin_stream_init</text>
</a>
</g>
</g>
<!-- Node21&#45;&gt;Node22 -->
<g id="edge36" class="edge"><title>Node21&#45;&gt;Node22</title>
<path fill="none" stroke="midnightblue" d="M756.047,-161.925C778.582,-167.037 806.864,-173.453 831.01,-178.931"/>
<polygon fill="midnightblue" stroke="midnightblue" points="830.551,-182.416 841.077,-181.215 832.099,-175.589 830.551,-182.416"/>
</g>
<!-- Node23 -->
<g id="node23" class="node"><title>Node23</title>
<g id="a_node23"><a xlink:href="a00263.html#aa038a9125979f8f0915dbd53cbf27e5a" target="_top" xlink:title="Initialize a data output stream. ">
<polygon fill="white" stroke="red" points="819,-143.226 819,-162.226 949,-162.226 949,-143.226 819,-143.226"/>
<text text-anchor="middle" x="884" y="-150.226" font-family="Helvetica,sans-Serif" font-size="10.00">tds_dataout_stream_init</text>
</a>
</g>
</g>
<!-- Node21&#45;&gt;Node23 -->
<g id="edge37" class="edge"><title>Node21&#45;&gt;Node23</title>
<path fill="none" stroke="midnightblue" d="M756.047,-152.726C771.977,-152.726 790.779,-152.726 808.961,-152.726"/>
<polygon fill="midnightblue" stroke="midnightblue" points="808.977,-156.226 818.977,-152.726 808.977,-149.226 808.977,-156.226"/>
</g>
<!-- Node24 -->
<g id="node24" class="node"><title>Node24</title>
<g id="a_node24"><a xlink:href="a00263.html#a9d8eb43a81ff58ab423dce0ce95b9564" target="_top" xlink:title="Reads and writes from a stream converting characters. ">
<polygon fill="white" stroke="red" points="829,-105.226 829,-124.226 939,-124.226 939,-105.226 829,-105.226"/>
<text text-anchor="middle" x="884" y="-112.226" font-family="Helvetica,sans-Serif" font-size="10.00">tds_convert_stream</text>
</a>
</g>
</g>
<!-- Node21&#45;&gt;Node24 -->
<g id="edge38" class="edge"><title>Node21&#45;&gt;Node24</title>
<path fill="none" stroke="midnightblue" d="M756.047,-143.527C778.582,-138.415 806.864,-131.999 831.01,-126.521"/>
<polygon fill="midnightblue" stroke="midnightblue" points="832.099,-129.863 841.077,-124.237 830.551,-123.036 832.099,-129.863"/>
</g>
<!-- Node24&#45;&gt;Node3 -->
<g id="edge40" class="edge"><title>Node24&#45;&gt;Node3</title>
<path fill="none" stroke="midnightblue" d="M939.216,-106.343C1035.09,-94.4938 1237.16,-83.1862 1372,-171.726 1401.63,-191.18 1424.31,-226.679 1436.21,-248.341"/>
<polygon fill="midnightblue" stroke="midnightblue" points="1433.14,-250.012 1440.91,-257.213 1439.33,-246.738 1433.14,-250.012"/>
</g>
<!-- Node24&#45;&gt;Node4 -->
<g id="edge41" class="edge"><title>Node24&#45;&gt;Node4</title>
<path fill="none" stroke="midnightblue" d="M933.757,-124.365C939.271,-126.812 944.511,-129.88 949,-133.726 977.381,-158.046 968.293,-176.292 985,-209.726 991.43,-222.593 998.972,-236.919 1004.89,-247.991"/>
<polygon fill="midnightblue" stroke="midnightblue" points="1001.97,-249.952 1009.78,-257.108 1008.13,-246.642 1001.97,-249.952"/>
</g>
<!-- Node24&#45;&gt;Node8 -->
<g id="edge39" class="edge"><title>Node24&#45;&gt;Node8</title>
<path fill="none" stroke="midnightblue" d="M926.664,-124.298C934.328,-126.831 942.085,-129.944 949,-133.726 968.14,-144.194 986.644,-160.936 999.163,-173.574"/>
<polygon fill="midnightblue" stroke="midnightblue" points="996.681,-176.041 1006.14,-180.819 1001.72,-171.187 996.681,-176.041"/>
</g>
<!-- Node25&#45;&gt;Node7 -->
<g id="edge44" class="edge"><title>Node25&#45;&gt;Node7</title>
<path fill="none" stroke="midnightblue" d="M404.357,-200.346C415.658,-203.962 427.685,-208.699 438,-214.726 456.741,-225.676 455.048,-237.146 474,-247.726 477.967,-249.94 482.213,-251.914 486.571,-253.67"/>
<polygon fill="midnightblue" stroke="midnightblue" points="485.63,-257.052 496.224,-257.176 488.019,-250.473 485.63,-257.052"/>
</g>
<!-- Node25&#45;&gt;Node20 -->
<g id="edge48" class="edge"><title>Node25&#45;&gt;Node20</title>
<path fill="none" stroke="midnightblue" d="M379.245,-181.202C409.796,-161.469 480.244,-115.967 517.274,-92.0506"/>
<polygon fill="midnightblue" stroke="midnightblue" points="519.422,-94.8297 525.923,-86.4639 515.624,-88.9495 519.422,-94.8297"/>
</g>
<!-- Node25&#45;&gt;Node21 -->
<g id="edge43" class="edge"><title>Node25&#45;&gt;Node21</title>
<path fill="none" stroke="midnightblue" d="M413.685,-181.192C432.497,-177.809 454.187,-174.225 474,-171.726 538.77,-163.555 613.865,-158.273 662.449,-155.402"/>
<polygon fill="midnightblue" stroke="midnightblue" points="662.92,-158.881 672.701,-154.809 662.515,-151.892 662.92,-158.881"/>
</g>
<!-- Node26 -->
<g id="node26" class="node"><title>Node26</title>
<g id="a_node26"><a xlink:href="a00356.html#ga26b26296d060dca75f6a43e9ac41e58d" target="_top" xlink:title="Send a string to server while quoting it. ">
<polygon fill="white" stroke="black" points="488.5,-219.226 488.5,-238.226 595.5,-238.226 595.5,-219.226 488.5,-219.226"/>
<text text-anchor="middle" x="542" y="-226.226" font-family="Helvetica,sans-Serif" font-size="10.00">tds_quote_and_put</text>
</a>
</g>
</g>
<!-- Node25&#45;&gt;Node26 -->
<g id="edge45" class="edge"><title>Node25&#45;&gt;Node26</title>
<path fill="none" stroke="midnightblue" d="M409.038,-200.315C432.644,-205.397 461.832,-211.681 486.751,-217.046"/>
<polygon fill="midnightblue" stroke="midnightblue" points="486.269,-220.523 496.782,-219.206 487.743,-213.679 486.269,-220.523"/>
</g>
<!-- Node27 -->
<g id="node27" class="node"><title>Node27</title>
<g id="a_node27"><a xlink:href="a00353.html#gaa865e08f7ad70ef92b111c2ea3657457" target="_top" xlink:title="tds_convert convert a type to another. ">
<polygon fill="white" stroke="black" points="506,-181.226 506,-200.226 578,-200.226 578,-181.226 506,-181.226"/>
<text text-anchor="middle" x="542" y="-188.226" font-family="Helvetica,sans-Serif" font-size="10.00">tds_convert</text>
</a>
</g>
</g>
<!-- Node25&#45;&gt;Node27 -->
<g id="edge47" class="edge"><title>Node25&#45;&gt;Node27</title>
<path fill="none" stroke="midnightblue" d="M432.235,-190.726C453.495,-190.726 476.437,-190.726 495.745,-190.726"/>
<polygon fill="midnightblue" stroke="midnightblue" points="495.773,-194.226 505.773,-190.726 495.773,-187.226 495.773,-194.226"/>
</g>
<!-- Node26&#45;&gt;Node21 -->
<g id="edge46" class="edge"><title>Node26&#45;&gt;Node21</title>
<path fill="none" stroke="midnightblue" d="M582.479,-219.141C591.65,-216.474 601.277,-213.31 610,-209.726 638.63,-197.962 669.467,-180.263 689.963,-167.713"/>
<polygon fill="midnightblue" stroke="midnightblue" points="691.956,-170.595 698.608,-162.348 688.265,-164.647 691.956,-170.595"/>
</g>
</g>
</svg>
