<?xml version="1.0" encoding="UTF-8" standalone="no"?>
<!DOCTYPE svg PUBLIC "-//W3C//DTD SVG 1.1//EN"
 "http://www.w3.org/Graphics/SVG/1.1/DTD/svg11.dtd">
<!-- Generated by graphviz version 2.38.0 (20140413.2041)
 -->
<!-- Title: tds71_submit_prepexec Pages: 1 -->
<svg width="1212pt" height="610pt"
 viewBox="0.00 0.00 1212.00 610.00" xmlns="http://www.w3.org/2000/svg" xmlns:xlink="http://www.w3.org/1999/xlink">
<g id="graph0" class="graph" transform="scale(1 1) rotate(0) translate(4 606)">
<title>tds71_submit_prepexec</title>
<polygon fill="white" stroke="none" points="-4,4 -4,-606 1208,-606 1208,4 -4,4"/>
<!-- Node1 -->
<g id="node1" class="node"><title>Node1</title>
<polygon fill="#bfbfbf" stroke="black" points="0,-218.5 0,-237.5 128,-237.5 128,-218.5 0,-218.5"/>
<text text-anchor="middle" x="64" y="-225.5" font-family="Helvetica,sans-Serif" font-size="10.00">tds71_submit_prepexec</text>
</g>
<!-- Node2 -->
<g id="node2" class="node"><title>Node2</title>
<g id="a_node2"><a xlink:href="a00193.html#a16db200d2281f76fe46fc1cbe37ca9df" target="_top" xlink:title="Set state of TDS connection, with logging and checking. ">
<polygon fill="white" stroke="black" points="560,-468.5 560,-487.5 640,-487.5 640,-468.5 560,-468.5"/>
<text text-anchor="middle" x="600" y="-475.5" font-family="Helvetica,sans-Serif" font-size="10.00">tds_set_state</text>
</a>
</g>
</g>
<!-- Node1&#45;&gt;Node2 -->
<g id="edge1" class="edge"><title>Node1&#45;&gt;Node2</title>
<path fill="none" stroke="midnightblue" d="M66.6817,-237.72C72.8467,-270.111 97.4248,-374.924 164,-421 225.062,-463.26 422.554,-448.036 496,-459 513.574,-461.624 532.739,-465.013 549.72,-468.2"/>
<polygon fill="midnightblue" stroke="midnightblue" points="549.5,-471.721 559.977,-470.151 550.807,-464.844 549.5,-471.721"/>
</g>
<!-- Node7 -->
<g id="node7" class="node"><title>Node7</title>
<g id="a_node7"><a xlink:href="a00355.html#ga69559de43b47f4a9e2eecc7a56527444" target="_top" xlink:title="Allocate a dynamic statement. ">
<polygon fill="white" stroke="black" points="185.5,-152.5 185.5,-171.5 289.5,-171.5 289.5,-152.5 185.5,-152.5"/>
<text text-anchor="middle" x="237.5" y="-159.5" font-family="Helvetica,sans-Serif" font-size="10.00">tds_alloc_dynamic</text>
</a>
</g>
</g>
<!-- Node1&#45;&gt;Node7 -->
<g id="edge8" class="edge"><title>Node1&#45;&gt;Node7</title>
<path fill="none" stroke="midnightblue" d="M83.2227,-218.416C102.796,-208.389 135.003,-192.653 164,-182 171.581,-179.215 179.73,-176.608 187.731,-174.256"/>
<polygon fill="midnightblue" stroke="midnightblue" points="188.706,-177.618 197.369,-171.519 186.794,-170.884 188.706,-177.618"/>
</g>
<!-- Node10 -->
<g id="node10" class="node"><title>Node10</title>
<g id="a_node10"><a xlink:href="a00355.html#gabf2fdb0def5388508602ee7dd2f49506" target="_top" xlink:title="Frees dynamic statement. ">
<polygon fill="white" stroke="black" points="179,-114.5 179,-133.5 296,-133.5 296,-114.5 179,-114.5"/>
<text text-anchor="middle" x="237.5" y="-121.5" font-family="Helvetica,sans-Serif" font-size="10.00">tds_release_dynamic</text>
</a>
</g>
</g>
<!-- Node1&#45;&gt;Node10 -->
<g id="edge11" class="edge"><title>Node1&#45;&gt;Node10</title>
<path fill="none" stroke="midnightblue" d="M73.4946,-218.229C89.4313,-200.518 125.679,-163.091 164,-143 168.494,-140.644 173.302,-138.564 178.223,-136.732"/>
<polygon fill="midnightblue" stroke="midnightblue" points="179.42,-140.022 187.774,-133.506 177.18,-133.39 179.42,-140.022"/>
</g>
<!-- Node12 -->
<g id="node12" class="node"><title>Node12</title>
<g id="a_node12"><a xlink:href="a00356.html#gae8b7db85af16701fc0604eb117cbd4e4" target="_top" xlink:title="Set current dynamic. ">
<polygon fill="white" stroke="black" points="190,-76.5 190,-95.5 285,-95.5 285,-76.5 190,-76.5"/>
<text text-anchor="middle" x="237.5" y="-83.5" font-family="Helvetica,sans-Serif" font-size="10.00">tds_set_cur_dyn</text>
</a>
</g>
</g>
<!-- Node1&#45;&gt;Node12 -->
<g id="edge13" class="edge"><title>Node1&#45;&gt;Node12</title>
<path fill="none" stroke="midnightblue" d="M69.9671,-218.256C82.4093,-194.867 117.293,-135.248 164,-105 168.968,-101.783 174.459,-99.1092 180.13,-96.8873"/>
<polygon fill="midnightblue" stroke="midnightblue" points="181.472,-100.127 189.785,-93.5586 179.191,-93.5092 181.472,-100.127"/>
</g>
<!-- Node13 -->
<g id="node13" class="node"><title>Node13</title>
<g id="a_node13"><a xlink:href="a00356.html#ga024bc5482366735070befd6f4af59f71" target="_top" xlink:title="Convert a string in an allocated buffer. ">
<polygon fill="white" stroke="black" points="548,-392.5 548,-411.5 652,-411.5 652,-392.5 548,-392.5"/>
<text text-anchor="middle" x="600" y="-399.5" font-family="Helvetica,sans-Serif" font-size="10.00">tds_convert_string</text>
</a>
</g>
</g>
<!-- Node1&#45;&gt;Node13 -->
<g id="edge14" class="edge"><title>Node1&#45;&gt;Node13</title>
<path fill="none" stroke="midnightblue" d="M75.081,-237.629C92.0457,-253.297 127.99,-284.238 164,-301 198.336,-316.983 433.686,-367.409 543.186,-390.387"/>
<polygon fill="midnightblue" stroke="midnightblue" points="542.558,-393.832 553.063,-392.457 543.993,-386.981 542.558,-393.832"/>
</g>
<!-- Node17 -->
<g id="node17" class="node"><title>Node17</title>
<g id="a_node17"><a xlink:href="a00356.html#gab775332d378c7fe083750d624441b303" target="_top" xlink:title="Return string with parameters definition, useful for TDS7+. ">
<polygon fill="white" stroke="black" points="177,-191 177,-221 298,-221 298,-191 177,-191"/>
<text text-anchor="start" x="185" y="-209" font-family="Helvetica,sans-Serif" font-size="10.00">tds7_build_param_def</text>
<text text-anchor="middle" x="237.5" y="-198" font-family="Helvetica,sans-Serif" font-size="10.00">_from_query</text>
</a>
</g>
</g>
<!-- Node1&#45;&gt;Node17 -->
<g id="edge21" class="edge"><title>Node1&#45;&gt;Node17</title>
<path fill="none" stroke="midnightblue" d="M128.373,-219.871C140.871,-218.267 154.051,-216.576 166.747,-214.948"/>
<polygon fill="midnightblue" stroke="midnightblue" points="167.328,-218.402 176.802,-213.658 166.438,-211.459 167.328,-218.402"/>
</g>
<!-- Node24 -->
<g id="node24" class="node"><title>Node24</title>
<g id="a_node24"><a xlink:href="a00356.html#gab543692776c2bc0afc3bd056f074080c" target="_top" xlink:title="Start query packet of a given type. ">
<polygon fill="white" stroke="black" points="192.5,-392.5 192.5,-411.5 282.5,-411.5 282.5,-392.5 192.5,-392.5"/>
<text text-anchor="middle" x="237.5" y="-399.5" font-family="Helvetica,sans-Serif" font-size="10.00">tds_start_query</text>
</a>
</g>
</g>
<!-- Node1&#45;&gt;Node24 -->
<g id="edge29" class="edge"><title>Node1&#45;&gt;Node24</title>
<path fill="none" stroke="midnightblue" d="M68.7018,-237.681C79.3221,-264.179 112.473,-338.54 164,-378 169.717,-382.378 176.272,-385.979 183.051,-388.935"/>
<polygon fill="midnightblue" stroke="midnightblue" points="181.789,-392.2 192.377,-392.579 184.337,-385.68 181.789,-392.2"/>
</g>
<!-- Node26 -->
<g id="node26" class="node"><title>Node26</title>
<g id="a_node26"><a xlink:href="a00356.html#ga0f0b6bf447e9672e3b1ea8453ddeb113" target="_top" xlink:title="Send parameter definition to server. ">
<polygon fill="white" stroke="black" points="164,-38.5 164,-57.5 311,-57.5 311,-38.5 164,-38.5"/>
<text text-anchor="middle" x="237.5" y="-45.5" font-family="Helvetica,sans-Serif" font-size="10.00">tds7_put_params_definition</text>
</a>
</g>
</g>
<!-- Node1&#45;&gt;Node26 -->
<g id="edge33" class="edge"><title>Node1&#45;&gt;Node26</title>
<path fill="none" stroke="midnightblue" d="M68.0787,-218.248C77.4879,-190.086 108.643,-108.035 164,-67 166.532,-65.1234 169.233,-63.4318 172.05,-61.907"/>
<polygon fill="midnightblue" stroke="midnightblue" points="173.772,-64.9665 181.37,-57.5826 170.825,-58.6167 173.772,-64.9665"/>
</g>
<!-- Node27 -->
<g id="node27" class="node"><title>Node27</title>
<g id="a_node27"><a xlink:href="a00356.html#ga6e42b4a1d1d3898229ea2fe4afc2ecec" target="_top" xlink:title="Output params types and query (required by sp_prepare/sp_executesql/sp_prepexec) ">
<polygon fill="white" stroke="black" points="172,-240.5 172,-259.5 303,-259.5 303,-240.5 172,-240.5"/>
<text text-anchor="middle" x="237.5" y="-247.5" font-family="Helvetica,sans-Serif" font-size="10.00">tds7_put_query_params</text>
</a>
</g>
</g>
<!-- Node1&#45;&gt;Node27 -->
<g id="edge34" class="edge"><title>Node1&#45;&gt;Node27</title>
<path fill="none" stroke="midnightblue" d="M128.373,-236.129C139.258,-237.526 150.66,-238.989 161.809,-240.419"/>
<polygon fill="midnightblue" stroke="midnightblue" points="161.59,-243.919 171.954,-241.72 162.481,-236.976 161.59,-243.919"/>
</g>
<!-- Node32 -->
<g id="node32" class="node"><title>Node32</title>
<g id="a_node32"><a xlink:href="a00356.html#gafd74652c4722ddce4d642cc4209449d4" target="_top" xlink:title="Put data information to wire. ">
<polygon fill="white" stroke="black" points="371,-316.5 371,-335.5 472,-335.5 472,-316.5 371,-316.5"/>
<text text-anchor="middle" x="421.5" y="-323.5" font-family="Helvetica,sans-Serif" font-size="10.00">tds_put_data_info</text>
</a>
</g>
</g>
<!-- Node1&#45;&gt;Node32 -->
<g id="edge44" class="edge"><title>Node1&#45;&gt;Node32</title>
<path fill="none" stroke="midnightblue" d="M85.093,-237.536C104.828,-246.61 135.969,-260.155 164,-269 230.07,-289.848 308.024,-306.021 360.508,-315.728"/>
<polygon fill="midnightblue" stroke="midnightblue" points="360.187,-319.228 370.654,-317.583 361.446,-312.342 360.187,-319.228"/>
</g>
<!-- Node33 -->
<g id="node33" class="node"><title>Node33</title>
<g id="a_node33"><a xlink:href="a00356.html#ga9fcc0a3932dcad530511395ef8a767fb" target="_top" xlink:title="Write data to wire. ">
<polygon fill="white" stroke="black" points="198.5,-0.5 198.5,-19.5 276.5,-19.5 276.5,-0.5 198.5,-0.5"/>
<text text-anchor="middle" x="237.5" y="-7.5" font-family="Helvetica,sans-Serif" font-size="10.00">tds_put_data</text>
</a>
</g>
</g>
<!-- Node1&#45;&gt;Node33 -->
<g id="edge47" class="edge"><title>Node1&#45;&gt;Node33</title>
<path fill="none" stroke="midnightblue" d="M66.8516,-218.35C73.5539,-186.128 99.6325,-81.3431 164,-29 171.041,-23.274 179.628,-19.2577 188.395,-16.4446"/>
<polygon fill="midnightblue" stroke="midnightblue" points="189.565,-19.7535 198.297,-13.7527 187.729,-12.9987 189.565,-19.7535"/>
</g>
<!-- Node34 -->
<g id="node34" class="node"><title>Node34</title>
<g id="a_node34"><a xlink:href="a00356.html#gada27f4cfce925240ad33b71b63ca692d" target="_top" xlink:title="Flush query packet. ">
<polygon fill="white" stroke="black" points="357.5,-468.5 357.5,-487.5 485.5,-487.5 485.5,-468.5 357.5,-468.5"/>
<text text-anchor="middle" x="421.5" y="-475.5" font-family="Helvetica,sans-Serif" font-size="10.00">tds_query_flush_packet</text>
</a>
</g>
</g>
<!-- Node1&#45;&gt;Node34 -->
<g id="edge48" class="edge"><title>Node1&#45;&gt;Node34</title>
<path fill="none" stroke="midnightblue" d="M65.8929,-237.846C69.7371,-273.88 88.3044,-399.317 164,-454 220.145,-494.56 302.226,-494.831 358.318,-488.714"/>
<polygon fill="midnightblue" stroke="midnightblue" points="358.96,-492.162 368.477,-487.506 358.134,-485.211 358.96,-492.162"/>
</g>
<!-- Node3 -->
<g id="node3" class="node"><title>Node3</title>
<g id="a_node3"><a xlink:href="a00193.html#ab45c291105027e69836002e1dd586141" target="_top" xlink:title="Write a message to the debug log. ">
<polygon fill="white" stroke="black" points="1127,-411.5 1127,-430.5 1204,-430.5 1204,-411.5 1127,-411.5"/>
<text text-anchor="middle" x="1165.5" y="-418.5" font-family="Helvetica,sans-Serif" font-size="10.00">tdsdump_log</text>
</a>
</g>
</g>
<!-- Node2&#45;&gt;Node3 -->
<g id="edge2" class="edge"><title>Node2&#45;&gt;Node3</title>
<path fill="none" stroke="midnightblue" d="M621.912,-487.525C693.212,-518.471 931.194,-609.071 1091,-518 1122.36,-500.128 1144.6,-462.912 1155.92,-440.129"/>
<polygon fill="midnightblue" stroke="midnightblue" points="1159.22,-441.333 1160.35,-430.798 1152.9,-438.331 1159.22,-441.333"/>
</g>
<!-- Node4 -->
<g id="node4" class="node"><title>Node4</title>
<g id="a_node4"><a xlink:href="a00193.html#abf18b98efef6ce2dc0b97d658a3a1918" target="_top" xlink:title="Call the client library&#39;s error handler (for library&#45;generated errors only) ">
<polygon fill="white" stroke="black" points="708,-468.5 708,-487.5 762,-487.5 762,-468.5 708,-468.5"/>
<text text-anchor="middle" x="735" y="-475.5" font-family="Helvetica,sans-Serif" font-size="10.00">tdserror</text>
</a>
</g>
</g>
<!-- Node2&#45;&gt;Node4 -->
<g id="edge3" class="edge"><title>Node2&#45;&gt;Node4</title>
<path fill="none" stroke="midnightblue" d="M640.185,-478C658.376,-478 679.868,-478 697.688,-478"/>
<polygon fill="midnightblue" stroke="midnightblue" points="697.704,-481.5 707.704,-478 697.704,-474.5 697.704,-481.5"/>
</g>
<!-- Node4&#45;&gt;Node3 -->
<g id="edge4" class="edge"><title>Node4&#45;&gt;Node3</title>
<path fill="none" stroke="midnightblue" d="M762.443,-476.283C821.639,-472.18 969.189,-460.512 1091,-439 1100.31,-437.356 1110.2,-435.213 1119.6,-432.983"/>
<polygon fill="midnightblue" stroke="midnightblue" points="1120.67,-436.323 1129.56,-430.547 1119.01,-429.523 1120.67,-436.323"/>
</g>
<!-- Node5 -->
<g id="node5" class="node"><title>Node5</title>
<g id="a_node5"><a xlink:href="a00356.html#ga11338742dc30fd0c2711f58eb830316f" target="_top" xlink:title="tds_send_cancel() sends an empty packet (8 byte header only) tds_process_cancel should be called dire...">
<polygon fill="white" stroke="black" points="823.5,-506.5 823.5,-525.5 920.5,-525.5 920.5,-506.5 823.5,-506.5"/>
<text text-anchor="middle" x="872" y="-513.5" font-family="Helvetica,sans-Serif" font-size="10.00">tds_send_cancel</text>
</a>
</g>
</g>
<!-- Node4&#45;&gt;Node5 -->
<g id="edge5" class="edge"><title>Node4&#45;&gt;Node5</title>
<path fill="none" stroke="midnightblue" d="M762.029,-485.327C780.484,-490.521 805.69,-497.616 827.212,-503.675"/>
<polygon fill="midnightblue" stroke="midnightblue" points="826.545,-507.123 837.119,-506.463 828.441,-500.384 826.545,-507.123"/>
</g>
<!-- Node5&#45;&gt;Node3 -->
<g id="edge6" class="edge"><title>Node5&#45;&gt;Node3</title>
<path fill="none" stroke="midnightblue" d="M920.875,-519.393C966.709,-520.694 1036.71,-517.482 1091,-492 1116.57,-479.995 1138.77,-455.453 1151.9,-438.616"/>
<polygon fill="midnightblue" stroke="midnightblue" points="1154.7,-440.718 1157.91,-430.621 1149.1,-436.513 1154.7,-440.718"/>
</g>
<!-- Node6 -->
<g id="node6" class="node"><title>Node6</title>
<g id="a_node6"><a xlink:href="a00357.html#ga5feb53554e8917a81bbbc332163a61fb" target="_top" xlink:title="Flush packet to server. ">
<polygon fill="white" stroke="black" points="986.5,-582.5 986.5,-601.5 1082.5,-601.5 1082.5,-582.5 986.5,-582.5"/>
<text text-anchor="middle" x="1034.5" y="-589.5" font-family="Helvetica,sans-Serif" font-size="10.00">tds_flush_packet</text>
</a>
</g>
</g>
<!-- Node5&#45;&gt;Node6 -->
<g id="edge7" class="edge"><title>Node5&#45;&gt;Node6</title>
<path fill="none" stroke="midnightblue" d="M893.327,-525.625C921.306,-538.874 971.862,-562.813 1004,-578.031"/>
<polygon fill="midnightblue" stroke="midnightblue" points="1002.8,-581.336 1013.34,-582.453 1005.8,-575.01 1002.8,-581.336"/>
</g>
<!-- Node8 -->
<g id="node8" class="node"><title>Node8</title>
<g id="a_node8"><a xlink:href="a00359.html#ga595fe391e60a71bd98ffd53b4c015e44" target="_top" xlink:title="Finds a dynamic given string id. ">
<polygon fill="white" stroke="black" points="365,-76.5 365,-95.5 478,-95.5 478,-76.5 365,-76.5"/>
<text text-anchor="middle" x="421.5" y="-83.5" font-family="Helvetica,sans-Serif" font-size="10.00">tds_lookup_dynamic</text>
</a>
</g>
</g>
<!-- Node7&#45;&gt;Node8 -->
<g id="edge9" class="edge"><title>Node7&#45;&gt;Node8</title>
<path fill="none" stroke="midnightblue" d="M289.866,-152.382C297.232,-149.921 304.505,-146.844 311,-143 331.021,-131.152 326.959,-116.815 347,-105 350.704,-102.816 354.658,-100.881 358.737,-99.1651"/>
<polygon fill="midnightblue" stroke="midnightblue" points="360.282,-102.325 368.427,-95.549 357.834,-95.7665 360.282,-102.325"/>
</g>
<!-- Node9 -->
<g id="node9" class="node"><title>Node9</title>
<g id="a_node9"><a xlink:href="a00355.html#ga501af7e6186e59c257729599a044a30b" target="_top" xlink:title="Get an id for dynamic query based on TDS information. ">
<polygon fill="white" stroke="black" points="380,-38.5 380,-57.5 463,-57.5 463,-38.5 380,-38.5"/>
<text text-anchor="middle" x="421.5" y="-45.5" font-family="Helvetica,sans-Serif" font-size="10.00">tds_get_dynid</text>
</a>
</g>
</g>
<!-- Node7&#45;&gt;Node9 -->
<g id="edge10" class="edge"><title>Node7&#45;&gt;Node9</title>
<path fill="none" stroke="midnightblue" d="M289.604,-154.676C297.336,-151.92 304.79,-148.15 311,-143 339.769,-119.141 318.191,-90.811 347,-67 353.645,-61.5081 361.692,-57.5823 369.991,-54.7807"/>
<polygon fill="midnightblue" stroke="midnightblue" points="371.128,-58.096 379.781,-51.9819 369.204,-51.3657 371.128,-58.096"/>
</g>
<!-- Node11 -->
<g id="node11" class="node"><title>Node11</title>
<g id="a_node11"><a xlink:href="a00355.html#gabdc5fee73b22345c02ab894e49ad7f95" target="_top" xlink:title="Frees all allocated input parameters of a dynamic statement. ">
<polygon fill="white" stroke="black" points="359,-0.5 359,-19.5 484,-19.5 484,-0.5 359,-0.5"/>
<text text-anchor="middle" x="421.5" y="-7.5" font-family="Helvetica,sans-Serif" font-size="10.00">tds_free_input_params</text>
</a>
</g>
</g>
<!-- Node10&#45;&gt;Node11 -->
<g id="edge12" class="edge"><title>Node10&#45;&gt;Node11</title>
<path fill="none" stroke="midnightblue" d="M295.153,-114.492C300.87,-112.015 306.293,-108.904 311,-105 339.769,-81.141 318.191,-52.811 347,-29 349.045,-27.3102 351.222,-25.7687 353.498,-24.3625"/>
<polygon fill="midnightblue" stroke="midnightblue" points="355.439,-27.2983 362.701,-19.5829 352.213,-21.0863 355.439,-27.2983"/>
</g>
<!-- Node14 -->
<g id="node14" class="node"><title>Node14</title>
<g id="a_node14"><a xlink:href="a00354.html#ga87db49044919f1bc84c0ff5e9ab00304" target="_top" xlink:title="Wrapper around iconv(3). ">
<polygon fill="white" stroke="black" points="704,-392.5 704,-411.5 766,-411.5 766,-392.5 704,-392.5"/>
<text text-anchor="middle" x="735" y="-399.5" font-family="Helvetica,sans-Serif" font-size="10.00">tds_iconv</text>
</a>
</g>
</g>
<!-- Node13&#45;&gt;Node14 -->
<g id="edge15" class="edge"><title>Node13&#45;&gt;Node14</title>
<path fill="none" stroke="midnightblue" d="M652.041,-402C665.798,-402 680.49,-402 693.579,-402"/>
<polygon fill="midnightblue" stroke="midnightblue" points="693.685,-405.5 703.685,-402 693.685,-398.5 693.685,-405.5"/>
</g>
<!-- Node14&#45;&gt;Node3 -->
<g id="edge16" class="edge"><title>Node14&#45;&gt;Node3</title>
<path fill="none" stroke="midnightblue" d="M766.037,-409.567C777.249,-412.075 790.137,-414.585 802,-416 914.055,-429.365 1046.96,-426.462 1116.55,-423.522"/>
<polygon fill="midnightblue" stroke="midnightblue" points="1116.92,-427.009 1126.75,-423.071 1116.61,-420.016 1116.92,-427.009"/>
</g>
<!-- Node15 -->
<g id="node15" class="node"><title>Node15</title>
<g id="a_node15"><a xlink:href="a00354.html#ga3380140fc6eb9f2090c430f40e846876" target="_top" xlink:title="Move the input sequence pointer to the next valid position. ">
<polygon fill="white" stroke="black" points="802,-354.5 802,-373.5 942,-373.5 942,-354.5 802,-354.5"/>
<text text-anchor="middle" x="872" y="-361.5" font-family="Helvetica,sans-Serif" font-size="10.00">skip_one_input_sequence</text>
</a>
</g>
</g>
<!-- Node14&#45;&gt;Node15 -->
<g id="edge17" class="edge"><title>Node14&#45;&gt;Node15</title>
<path fill="none" stroke="midnightblue" d="M766.297,-393.472C784.253,-388.418 807.316,-381.926 827.225,-376.322"/>
<polygon fill="midnightblue" stroke="midnightblue" points="828.328,-379.647 837.006,-373.569 826.432,-372.909 828.328,-379.647"/>
</g>
<!-- Node16 -->
<g id="node16" class="node"><title>Node16</title>
<g id="a_node16"><a xlink:href="a00354.html#ga900b0bce08c6bfc2e7c988f4b5970516" target="_top" xlink:title="Inputs are FreeTDS canonical names, no other. ">
<polygon fill="white" stroke="black" points="978,-392.5 978,-411.5 1091,-411.5 1091,-392.5 978,-392.5"/>
<text text-anchor="middle" x="1034.5" y="-399.5" font-family="Helvetica,sans-Serif" font-size="10.00">tds_sys_iconv_open</text>
</a>
</g>
</g>
<!-- Node14&#45;&gt;Node16 -->
<g id="edge20" class="edge"><title>Node14&#45;&gt;Node16</title>
<path fill="none" stroke="midnightblue" d="M766.163,-402C813.11,-402 904.778,-402 967.56,-402"/>
<polygon fill="midnightblue" stroke="midnightblue" points="967.764,-405.5 977.764,-402 967.764,-398.5 967.764,-405.5"/>
</g>
<!-- Node15&#45;&gt;Node16 -->
<g id="edge18" class="edge"><title>Node15&#45;&gt;Node16</title>
<path fill="none" stroke="midnightblue" d="M913.501,-373.589C934.681,-378.604 960.802,-384.788 983.26,-390.105"/>
<polygon fill="midnightblue" stroke="midnightblue" points="982.753,-393.582 993.29,-392.48 984.366,-386.77 982.753,-393.582"/>
</g>
<!-- Node16&#45;&gt;Node3 -->
<g id="edge19" class="edge"><title>Node16&#45;&gt;Node3</title>
<path fill="none" stroke="midnightblue" d="M1091.33,-410.223C1099.85,-411.478 1108.58,-412.763 1116.9,-413.989"/>
<polygon fill="midnightblue" stroke="midnightblue" points="1116.41,-417.454 1126.81,-415.449 1117.43,-410.529 1116.41,-417.454"/>
</g>
<!-- Node18 -->
<g id="node18" class="node"><title>Node18</title>
<g id="a_node18"><a xlink:href="a00356.html#ga0cd19215e9169ea299a6c9cbf5b2fb60" target="_top" xlink:title="Count number of placeholders (?) in a query. ">
<polygon fill="white" stroke="black" points="357,-191 357,-221 486,-221 486,-191 357,-191"/>
<text text-anchor="start" x="365" y="-209" font-family="Helvetica,sans-Serif" font-size="10.00">tds_count_placeholders</text>
<text text-anchor="middle" x="421.5" y="-198" font-family="Helvetica,sans-Serif" font-size="10.00">_ucs2le</text>
</a>
</g>
</g>
<!-- Node17&#45;&gt;Node18 -->
<g id="edge22" class="edge"><title>Node17&#45;&gt;Node18</title>
<path fill="none" stroke="midnightblue" d="M298.094,-206C313.486,-206 330.245,-206 346.284,-206"/>
<polygon fill="midnightblue" stroke="midnightblue" points="346.697,-209.5 356.697,-206 346.697,-202.5 346.697,-209.5"/>
</g>
<!-- Node20 -->
<g id="node20" class="node"><title>Node20</title>
<g id="a_node20"><a xlink:href="a00356.html#ga50d62edeb2a432e2dc668263f3f958ff" target="_top" xlink:title="Return declaration for column (like &quot;varchar(20)&quot;) ">
<polygon fill="white" stroke="black" points="347,-152.5 347,-171.5 496,-171.5 496,-152.5 347,-152.5"/>
<text text-anchor="middle" x="421.5" y="-159.5" font-family="Helvetica,sans-Serif" font-size="10.00">tds_get_column_declaration</text>
</a>
</g>
</g>
<!-- Node17&#45;&gt;Node20 -->
<g id="edge24" class="edge"><title>Node17&#45;&gt;Node20</title>
<path fill="none" stroke="midnightblue" d="M298.094,-191.593C321.738,-185.877 348.606,-179.381 371.134,-173.935"/>
<polygon fill="midnightblue" stroke="midnightblue" points="372.255,-177.265 381.152,-171.513 370.61,-170.461 372.255,-177.265"/>
</g>
<!-- Node23 -->
<g id="node23" class="node"><title>Node23</title>
<g id="a_node23"><a xlink:href="a00356.html#gad05fc65e1d505c68d14c82b99a00e4eb" target="_top" xlink:title="Accept an ASCII string, convert it to UCS2&#45;LE The input is null&#45;terminated, but the output excludes t...">
<polygon fill="white" stroke="black" points="371,-114.5 371,-133.5 472,-133.5 472,-114.5 371,-114.5"/>
<text text-anchor="middle" x="421.5" y="-121.5" font-family="Helvetica,sans-Serif" font-size="10.00">tds_ascii_to_ucs2</text>
</a>
</g>
</g>
<!-- Node17&#45;&gt;Node23 -->
<g id="edge28" class="edge"><title>Node17&#45;&gt;Node23</title>
<path fill="none" stroke="midnightblue" d="M291.774,-190.979C298.484,-188.132 305.068,-184.821 311,-181 330.558,-168.402 326.959,-154.815 347,-143 351.428,-140.39 356.213,-138.134 361.142,-136.184"/>
<polygon fill="midnightblue" stroke="midnightblue" points="362.477,-139.425 370.746,-132.802 360.152,-132.823 362.477,-139.425"/>
</g>
<!-- Node19 -->
<g id="node19" class="node"><title>Node19</title>
<g id="a_node19"><a xlink:href="a00356.html#gaa823973b74efdf1ff00f340496bff614" target="_top" xlink:title="Found the next placeholder (? or @param) in a string. ">
<polygon fill="white" stroke="red" points="540.5,-191 540.5,-221 659.5,-221 659.5,-191 540.5,-191"/>
<text text-anchor="start" x="548.5" y="-209" font-family="Helvetica,sans-Serif" font-size="10.00">tds_next_placeholder</text>
<text text-anchor="middle" x="600" y="-198" font-family="Helvetica,sans-Serif" font-size="10.00">_ucs2le</text>
</a>
</g>
</g>
<!-- Node18&#45;&gt;Node19 -->
<g id="edge23" class="edge"><title>Node18&#45;&gt;Node19</title>
<path fill="none" stroke="midnightblue" d="M486.221,-206C500.443,-206 515.59,-206 530.014,-206"/>
<polygon fill="midnightblue" stroke="midnightblue" points="530.366,-209.5 540.366,-206 530.366,-202.5 530.366,-209.5"/>
</g>
<!-- Node20&#45;&gt;Node3 -->
<g id="edge27" class="edge"><title>Node20&#45;&gt;Node3</title>
<path fill="none" stroke="midnightblue" d="M496.138,-162C559.257,-162 652.61,-162 734,-162 734,-162 734,-162 873,-162 1017.95,-162 1124.35,-343.179 1155.28,-402.468"/>
<polygon fill="midnightblue" stroke="midnightblue" points="1152.22,-404.164 1159.89,-411.475 1158.45,-400.978 1152.22,-404.164"/>
</g>
<!-- Node21 -->
<g id="node21" class="node"><title>Node21</title>
<g id="a_node21"><a xlink:href="a00356.html#ga440f0f469afad1eac4c008979873ccdd" target="_top" xlink:title="Get column size for wire. ">
<polygon fill="white" stroke="black" points="544.5,-76.5 544.5,-95.5 655.5,-95.5 655.5,-76.5 544.5,-76.5"/>
<text text-anchor="middle" x="600" y="-83.5" font-family="Helvetica,sans-Serif" font-size="10.00">tds_fix_column_size</text>
</a>
</g>
</g>
<!-- Node20&#45;&gt;Node21 -->
<g id="edge25" class="edge"><title>Node20&#45;&gt;Node21</title>
<path fill="none" stroke="midnightblue" d="M474.573,-152.451C482.041,-149.981 489.415,-146.882 496,-143 516.041,-131.185 512.098,-117.048 532,-105 535.607,-102.816 539.475,-100.875 543.465,-99.1505"/>
<polygon fill="midnightblue" stroke="midnightblue" points="544.857,-102.365 552.934,-95.5082 542.344,-95.8318 544.857,-102.365"/>
</g>
<!-- Node22 -->
<g id="node22" class="node"><title>Node22</title>
<g id="a_node22"><a xlink:href="a00193.html#ae7f4c4d5f7352f1c814284c536659e6f" target="_top" xlink:title="Return type suitable for conversions (convert all nullable types to fixed type) ">
<polygon fill="white" stroke="black" points="532,-114.5 532,-133.5 668,-133.5 668,-114.5 532,-114.5"/>
<text text-anchor="middle" x="600" y="-121.5" font-family="Helvetica,sans-Serif" font-size="10.00">tds_get_conversion_type</text>
</a>
</g>
</g>
<!-- Node20&#45;&gt;Node22 -->
<g id="edge26" class="edge"><title>Node20&#45;&gt;Node22</title>
<path fill="none" stroke="midnightblue" d="M467.038,-152.411C490.644,-147.329 519.832,-141.045 544.751,-135.68"/>
<polygon fill="midnightblue" stroke="midnightblue" points="545.743,-139.046 554.782,-133.52 544.269,-132.203 545.743,-139.046"/>
</g>
<!-- Node25 -->
<g id="node25" class="node"><title>Node25</title>
<g id="a_node25"><a xlink:href="a00356.html#ga9ad2e6defce530a8778791cce0166ccd" target="_top" xlink:title="Start query packet of a given type. ">
<polygon fill="white" stroke="black" points="361.5,-392.5 361.5,-411.5 481.5,-411.5 481.5,-392.5 361.5,-392.5"/>
<text text-anchor="middle" x="421.5" y="-399.5" font-family="Helvetica,sans-Serif" font-size="10.00">tds_start_query_head</text>
</a>
</g>
</g>
<!-- Node24&#45;&gt;Node25 -->
<g id="edge30" class="edge"><title>Node24&#45;&gt;Node25</title>
<path fill="none" stroke="midnightblue" d="M282.557,-402C303.176,-402 328.223,-402 351.287,-402"/>
<polygon fill="midnightblue" stroke="midnightblue" points="351.374,-405.5 361.374,-402 351.374,-398.5 351.374,-405.5"/>
</g>
<!-- Node25&#45;&gt;Node2 -->
<g id="edge32" class="edge"><title>Node25&#45;&gt;Node2</title>
<path fill="none" stroke="midnightblue" d="M455.451,-411.585C468.266,-415.617 482.972,-420.621 496,-426 522.853,-437.087 552.338,-452.302 572.855,-463.408"/>
<polygon fill="midnightblue" stroke="midnightblue" points="571.428,-466.617 581.882,-468.344 574.786,-460.475 571.428,-466.617"/>
</g>
<!-- Node25&#45;&gt;Node13 -->
<g id="edge31" class="edge"><title>Node25&#45;&gt;Node13</title>
<path fill="none" stroke="midnightblue" d="M481.763,-402C499.762,-402 519.571,-402 537.701,-402"/>
<polygon fill="midnightblue" stroke="midnightblue" points="537.866,-405.5 547.866,-402 537.866,-398.5 537.866,-405.5"/>
</g>
<!-- Node27&#45;&gt;Node18 -->
<g id="edge35" class="edge"><title>Node27&#45;&gt;Node18</title>
<path fill="none" stroke="midnightblue" d="M277.991,-240.453C298.574,-235.477 324.398,-229.233 348.39,-223.433"/>
<polygon fill="midnightblue" stroke="midnightblue" points="349.287,-226.817 358.184,-221.065 347.642,-220.013 349.287,-226.817"/>
</g>
<!-- Node27&#45;&gt;Node19 -->
<g id="edge36" class="edge"><title>Node27&#45;&gt;Node19</title>
<path fill="none" stroke="midnightblue" d="M303.123,-248.175C355.406,-245.993 430.793,-241.248 496,-231 508.479,-229.039 521.672,-226.332 534.298,-223.42"/>
<polygon fill="midnightblue" stroke="midnightblue" points="535.357,-226.766 544.279,-221.051 533.741,-219.955 535.357,-226.766"/>
</g>
<!-- Node28 -->
<g id="node28" class="node"><title>Node28</title>
<g id="a_node28"><a xlink:href="a00357.html#ga1fcaf8d488cc1390f106ce3ad0bf37b4" target="_top" xlink:title="Output a string to wire automatic translate string to unicode if needed. ">
<polygon fill="white" stroke="black" points="380,-278.5 380,-297.5 463,-297.5 463,-278.5 380,-278.5"/>
<text text-anchor="middle" x="421.5" y="-285.5" font-family="Helvetica,sans-Serif" font-size="10.00">tds_put_string</text>
</a>
</g>
</g>
<!-- Node27&#45;&gt;Node28 -->
<g id="edge37" class="edge"><title>Node27&#45;&gt;Node28</title>
<path fill="none" stroke="midnightblue" d="M284.426,-259.589C310.478,-265.028 343.124,-271.844 369.908,-277.437"/>
<polygon fill="midnightblue" stroke="midnightblue" points="369.357,-280.897 379.861,-279.515 370.787,-274.045 369.357,-280.897"/>
</g>
<!-- Node29 -->
<g id="node29" class="node"><title>Node29</title>
<g id="a_node29"><a xlink:href="a00263.html#aa9e1e45f0305622dd6aed9f8fe158581" target="_top" xlink:title="Initialize an input stream for read from a static allocated buffer. ">
<polygon fill="white" stroke="red" points="536,-240.5 536,-259.5 664,-259.5 664,-240.5 536,-240.5"/>
<text text-anchor="middle" x="600" y="-247.5" font-family="Helvetica,sans-Serif" font-size="10.00">tds_staticin_stream_init</text>
</a>
</g>
</g>
<!-- Node28&#45;&gt;Node29 -->
<g id="edge38" class="edge"><title>Node28&#45;&gt;Node29</title>
<path fill="none" stroke="midnightblue" d="M463.436,-279.187C487.637,-273.976 518.576,-267.315 544.786,-261.672"/>
<polygon fill="midnightblue" stroke="midnightblue" points="545.536,-265.091 554.576,-259.564 544.063,-258.248 545.536,-265.091"/>
</g>
<!-- Node30 -->
<g id="node30" class="node"><title>Node30</title>
<g id="a_node30"><a xlink:href="a00263.html#aa038a9125979f8f0915dbd53cbf27e5a" target="_top" xlink:title="Initialize a data output stream. ">
<polygon fill="white" stroke="red" points="535,-278.5 535,-297.5 665,-297.5 665,-278.5 535,-278.5"/>
<text text-anchor="middle" x="600" y="-285.5" font-family="Helvetica,sans-Serif" font-size="10.00">tds_dataout_stream_init</text>
</a>
</g>
</g>
<!-- Node28&#45;&gt;Node30 -->
<g id="edge39" class="edge"><title>Node28&#45;&gt;Node30</title>
<path fill="none" stroke="midnightblue" d="M463.436,-288C481.639,-288 503.656,-288 524.604,-288"/>
<polygon fill="midnightblue" stroke="midnightblue" points="524.78,-291.5 534.78,-288 524.78,-284.5 524.78,-291.5"/>
</g>
<!-- Node31 -->
<g id="node31" class="node"><title>Node31</title>
<g id="a_node31"><a xlink:href="a00263.html#a9d8eb43a81ff58ab423dce0ce95b9564" target="_top" xlink:title="Reads and writes from a stream converting characters. ">
<polygon fill="white" stroke="red" points="545,-354.5 545,-373.5 655,-373.5 655,-354.5 545,-354.5"/>
<text text-anchor="middle" x="600" y="-361.5" font-family="Helvetica,sans-Serif" font-size="10.00">tds_convert_stream</text>
</a>
</g>
</g>
<!-- Node28&#45;&gt;Node31 -->
<g id="edge40" class="edge"><title>Node28&#45;&gt;Node31</title>
<path fill="none" stroke="midnightblue" d="M463.142,-296.556C473.994,-299.365 485.593,-302.853 496,-307 524.812,-318.481 555.66,-336.381 576.005,-349.055"/>
<polygon fill="midnightblue" stroke="midnightblue" points="574.246,-352.083 584.569,-354.468 577.987,-346.166 574.246,-352.083"/>
</g>
<!-- Node31&#45;&gt;Node3 -->
<g id="edge42" class="edge"><title>Node31&#45;&gt;Node3</title>
<path fill="none" stroke="midnightblue" d="M655.248,-354.974C722.7,-345.13 841.251,-332.355 942,-345 1009.81,-353.511 1027.12,-358.705 1091,-383 1107.8,-389.39 1125.74,-398.611 1139.68,-406.37"/>
<polygon fill="midnightblue" stroke="midnightblue" points="1138.22,-409.561 1148.64,-411.455 1141.67,-403.474 1138.22,-409.561"/>
</g>
<!-- Node31&#45;&gt;Node4 -->
<g id="edge43" class="edge"><title>Node31&#45;&gt;Node4</title>
<path fill="none" stroke="midnightblue" d="M650.042,-373.6C656.408,-376.056 662.588,-379.136 668,-383 695.516,-402.642 715.383,-437.531 725.763,-459.121"/>
<polygon fill="midnightblue" stroke="midnightblue" points="722.611,-460.645 729.973,-468.264 728.969,-457.717 722.611,-460.645"/>
</g>
<!-- Node31&#45;&gt;Node14 -->
<g id="edge41" class="edge"><title>Node31&#45;&gt;Node14</title>
<path fill="none" stroke="midnightblue" d="M634.748,-373.542C645.39,-376.559 657.188,-379.911 668,-383 676.405,-385.402 685.409,-387.986 693.979,-390.451"/>
<polygon fill="midnightblue" stroke="midnightblue" points="693.201,-393.869 703.779,-393.273 695.138,-387.143 693.201,-393.869"/>
</g>
<!-- Node32&#45;&gt;Node3 -->
<g id="edge45" class="edge"><title>Node32&#45;&gt;Node3</title>
<path fill="none" stroke="midnightblue" d="M472.151,-322.515C607.715,-313.775 981.338,-295.096 1091,-346 1117.61,-358.354 1139.82,-384.819 1152.63,-402.768"/>
<polygon fill="midnightblue" stroke="midnightblue" points="1149.91,-404.99 1158.45,-411.258 1155.69,-401.032 1149.91,-404.99"/>
</g>
<!-- Node32&#45;&gt;Node13 -->
<g id="edge46" class="edge"><title>Node32&#45;&gt;Node13</title>
<path fill="none" stroke="midnightblue" d="M462.357,-335.62C473.658,-339.236 485.685,-343.973 496,-350 514.741,-360.95 513.048,-372.42 532,-383 535.967,-385.215 540.213,-387.188 544.571,-388.944"/>
<polygon fill="midnightblue" stroke="midnightblue" points="543.63,-392.326 554.224,-392.45 546.019,-385.747 543.63,-392.326"/>
</g>
<!-- Node34&#45;&gt;Node2 -->
<g id="edge49" class="edge"><title>Node34&#45;&gt;Node2</title>
<path fill="none" stroke="midnightblue" d="M485.722,-478C506.78,-478 529.911,-478 549.75,-478"/>
<polygon fill="midnightblue" stroke="midnightblue" points="549.796,-481.5 559.796,-478 549.796,-474.5 549.796,-481.5"/>
</g>
<!-- Node34&#45;&gt;Node6 -->
<g id="edge50" class="edge"><title>Node34&#45;&gt;Node6</title>
<path fill="none" stroke="midnightblue" d="M458.078,-487.528C524.973,-505.136 674.272,-542.979 802,-565 861.067,-575.184 929.288,-582.622 976.293,-587.083"/>
<polygon fill="midnightblue" stroke="midnightblue" points="976.003,-590.571 986.285,-588.016 976.654,-583.601 976.003,-590.571"/>
</g>
</g>
</svg>
