<?xml version="1.0" encoding="UTF-8" standalone="no"?>
<!DOCTYPE svg PUBLIC "-//W3C//DTD SVG 1.1//EN"
 "http://www.w3.org/Graphics/SVG/1.1/DTD/svg11.dtd">
<!-- Generated by graphviz version 2.38.0 (20140413.2041)
 -->
<!-- Title: tds_process_auth Pages: 1 -->
<svg width="864pt" height="516pt"
 viewBox="0.00 0.00 864.00 516.33" xmlns="http://www.w3.org/2000/svg" xmlns:xlink="http://www.w3.org/1999/xlink">
<g id="graph0" class="graph" transform="scale(1 1) rotate(0) translate(4 512.333)">
<title>tds_process_auth</title>
<polygon fill="white" stroke="none" points="-4,4 -4,-512.333 860,-512.333 860,4 -4,4"/>
<!-- Node1 -->
<g id="node1" class="node"><title>Node1</title>
<polygon fill="#bfbfbf" stroke="black" points="0,-278.5 0,-297.5 101,-297.5 101,-278.5 0,-278.5"/>
<text text-anchor="middle" x="50.5" y="-285.5" font-family="Helvetica,sans-Serif" font-size="10.00">tds_process_auth</text>
</g>
<!-- Node2 -->
<g id="node2" class="node"><title>Node2</title>
<g id="a_node2"><a xlink:href="a00359.html#ga39453d084f3f780ac4602d4abf2839f7" target="_top" xlink:title="tds_process_default_tokens() is a catch all function that is called to process tokens not known to ot...">
<polygon fill="white" stroke="black" points="137,-273 137,-303 249,-303 249,-273 137,-273"/>
<text text-anchor="start" x="145" y="-291" font-family="Helvetica,sans-Serif" font-size="10.00">tds_process_default</text>
<text text-anchor="middle" x="193" y="-280" font-family="Helvetica,sans-Serif" font-size="10.00">_tokens</text>
</a>
</g>
</g>
<!-- Node1&#45;&gt;Node2 -->
<g id="edge1" class="edge"><title>Node1&#45;&gt;Node2</title>
<path fill="none" stroke="midnightblue" d="M111.209,-288C119.662,-288 128.324,-288 136.69,-288"/>
<polygon fill="midnightblue" stroke="midnightblue" points="111.035,-284.5 101.035,-288 111.035,-291.5 111.035,-284.5"/>
</g>
<!-- Node3 -->
<g id="node3" class="node"><title>Node3</title>
<g id="a_node3"><a xlink:href="a00359.html#ga93945b42d45ee28ae1296b35a1c1e9bb" target="_top" xlink:title="tds_process_login_tokens() is called after sending the login packet to the server. ">
<polygon fill="white" stroke="black" points="716,-487.5 716,-506.5 856,-506.5 856,-487.5 716,-487.5"/>
<text text-anchor="middle" x="786" y="-494.5" font-family="Helvetica,sans-Serif" font-size="10.00">tds_process_login_tokens</text>
</a>
</g>
</g>
<!-- Node2&#45;&gt;Node3 -->
<g id="edge2" class="edge"><title>Node2&#45;&gt;Node3</title>
<path fill="none" stroke="midnightblue" d="M220.807,-309.435C279.583,-354.893 425.988,-459.838 569,-497 616.909,-509.449 672.84,-509.06 715.782,-505.762"/>
<polygon fill="midnightblue" stroke="midnightblue" points="222.819,-306.566 212.782,-303.175 218.514,-312.086 222.819,-306.566"/>
</g>
<!-- Node4 -->
<g id="node4" class="node"><title>Node4</title>
<g id="a_node4"><a xlink:href="a00359.html#gabfc9de1d1fe718818caf63a4be4035a6" target="_top" xlink:title="process all streams. ">
<polygon fill="white" stroke="black" points="421,-259.5 421,-278.5 533,-278.5 533,-259.5 421,-259.5"/>
<text text-anchor="middle" x="477" y="-266.5" font-family="Helvetica,sans-Serif" font-size="10.00">tds_process_tokens</text>
</a>
</g>
</g>
<!-- Node2&#45;&gt;Node4 -->
<g id="edge3" class="edge"><title>Node2&#45;&gt;Node4</title>
<path fill="none" stroke="midnightblue" d="M259.463,-291.317C296.416,-292.36 343.393,-292.297 385,-288 402.98,-286.143 422.646,-282.274 439.08,-278.509"/>
<polygon fill="midnightblue" stroke="midnightblue" points="259.424,-287.814 249.318,-290.997 259.203,-294.811 259.424,-287.814"/>
</g>
<!-- Node18 -->
<g id="node18" class="node"><title>Node18</title>
<g id="a_node18"><a xlink:href="a00359.html#ga81cdf0ed9e8d29cf1ddf66e18efc407d" target="_top" xlink:title="tds_process_msg() is called for MSG, ERR, or EED tokens and is responsible for calling the CLI&#39;s mess...">
<polygon fill="white" stroke="black" points="285,-259.5 285,-278.5 385,-278.5 385,-259.5 285,-259.5"/>
<text text-anchor="middle" x="335" y="-266.5" font-family="Helvetica,sans-Serif" font-size="10.00">tds_process_msg</text>
</a>
</g>
</g>
<!-- Node2&#45;&gt;Node18 -->
<g id="edge20" class="edge"><title>Node2&#45;&gt;Node18</title>
<path fill="none" stroke="midnightblue" d="M259.369,-272.392C267.983,-271.174 276.69,-270.08 284.967,-269.181"/>
<polygon fill="midnightblue" stroke="midnightblue" points="258.713,-268.95 249.332,-273.874 259.736,-275.875 258.713,-268.95"/>
</g>
<!-- Node5 -->
<g id="node5" class="node"><title>Node5</title>
<g id="a_node5"><a xlink:href="a00344.html#gae67546338cb9542a4902aa914f57f314" target="_top" xlink:title="_bcp_exec_out">
<polygon fill="white" stroke="red" points="580.5,-430.5 580.5,-449.5 668.5,-449.5 668.5,-430.5 580.5,-430.5"/>
<text text-anchor="middle" x="624.5" y="-437.5" font-family="Helvetica,sans-Serif" font-size="10.00">_bcp_exec_out</text>
</a>
</g>
</g>
<!-- Node4&#45;&gt;Node5 -->
<g id="edge4" class="edge"><title>Node4&#45;&gt;Node5</title>
<path fill="none" stroke="midnightblue" d="M484.573,-288.324C496.44,-320.404 524.431,-384.708 569,-421 573.74,-424.86 579.315,-427.959 585.059,-430.44"/>
<polygon fill="midnightblue" stroke="midnightblue" points="487.821,-287.011 481.166,-278.767 481.227,-289.362 487.821,-287.011"/>
</g>
<!-- Node6 -->
<g id="node6" class="node"><title>Node6</title>
<g id="a_node6"><a xlink:href="a00341.html#gaf1879b85e8238c015b9648d077665285" target="_top" xlink:title="_dbresults">
<polygon fill="white" stroke="red" points="592,-392.5 592,-411.5 657,-411.5 657,-392.5 592,-392.5"/>
<text text-anchor="middle" x="624.5" y="-399.5" font-family="Helvetica,sans-Serif" font-size="10.00">_dbresults</text>
</a>
</g>
</g>
<!-- Node4&#45;&gt;Node6 -->
<g id="edge5" class="edge"><title>Node4&#45;&gt;Node6</title>
<path fill="none" stroke="midnightblue" d="M488.309,-287.653C503.069,-312.733 532.513,-357.156 569,-383 575.787,-387.807 583.902,-391.494 591.77,-394.283"/>
<polygon fill="midnightblue" stroke="midnightblue" points="491.232,-285.714 483.225,-278.776 485.158,-289.193 491.232,-285.714"/>
</g>
<!-- Node7 -->
<g id="node7" class="node"><title>Node7</title>
<g id="a_node7"><a xlink:href="a00342.html#gaff09873008411a0573f6d1a9e6c7cf4b" target="_top" xlink:title="Get count of output parameters filled by a stored procedure. ">
<polygon fill="white" stroke="red" points="592,-354.5 592,-373.5 657,-373.5 657,-354.5 592,-354.5"/>
<text text-anchor="middle" x="624.5" y="-361.5" font-family="Helvetica,sans-Serif" font-size="10.00">dbnumrets</text>
</a>
</g>
</g>
<!-- Node4&#45;&gt;Node7 -->
<g id="edge6" class="edge"><title>Node4&#45;&gt;Node7</title>
<path fill="none" stroke="midnightblue" d="M496.387,-285.576C514.1,-300.987 542.097,-323.922 569,-340 578.229,-345.516 588.955,-350.511 598.437,-354.498"/>
<polygon fill="midnightblue" stroke="midnightblue" points="498.382,-282.669 488.568,-278.678 493.751,-287.918 498.382,-282.669"/>
</g>
<!-- Node8 -->
<g id="node8" class="node"><title>Node8</title>
<g id="a_node8"><a xlink:href="a00341.html#gae1f50a6a2c31fda57cb481922b06841e" target="_top" xlink:title="Wait for results of a query from the server. ">
<polygon fill="white" stroke="red" points="598,-278.5 598,-297.5 651,-297.5 651,-278.5 598,-278.5"/>
<text text-anchor="middle" x="624.5" y="-285.5" font-family="Helvetica,sans-Serif" font-size="10.00">dbsqlok</text>
</a>
</g>
</g>
<!-- Node4&#45;&gt;Node8 -->
<g id="edge7" class="edge"><title>Node4&#45;&gt;Node8</title>
<path fill="none" stroke="midnightblue" d="M543.024,-277.491C562.364,-280.017 582.44,-282.638 597.702,-284.631"/>
<polygon fill="midnightblue" stroke="midnightblue" points="543.376,-274.007 533.007,-276.183 542.47,-280.949 543.376,-274.007"/>
</g>
<!-- Node9 -->
<g id="node9" class="node"><title>Node9</title>
<g id="a_node9"><a xlink:href="a00341.html#ga548153eb2eae76c48aa9d4b72258dc1c" target="_top" xlink:title="Send text or image data to the server. ">
<polygon fill="white" stroke="black" points="752,-297.5 752,-316.5 820,-316.5 820,-297.5 752,-297.5"/>
<text text-anchor="middle" x="786" y="-304.5" font-family="Helvetica,sans-Serif" font-size="10.00">dbwritetext</text>
</a>
</g>
</g>
<!-- Node4&#45;&gt;Node9 -->
<g id="edge10" class="edge"><title>Node4&#45;&gt;Node9</title>
<path fill="none" stroke="midnightblue" d="M504.252,-283.235C521.97,-292.01 546.196,-302.43 569,-307 632.61,-319.748 708.89,-315.266 751.666,-311.02"/>
<polygon fill="midnightblue" stroke="midnightblue" points="505.626,-280.007 495.128,-278.577 502.443,-286.242 505.626,-280.007"/>
</g>
<!-- Node10 -->
<g id="node10" class="node"><title>Node10</title>
<g id="a_node10"><a xlink:href="a00341.html#ga559e24ba70d0d96c3469eb6ab8f74e05" target="_top" xlink:title="Cancel the query currently being retrieved, discarding all pending rows. ">
<polygon fill="white" stroke="red" points="589,-240.5 589,-259.5 660,-259.5 660,-240.5 589,-240.5"/>
<text text-anchor="middle" x="624.5" y="-247.5" font-family="Helvetica,sans-Serif" font-size="10.00">dbcanquery</text>
</a>
</g>
</g>
<!-- Node4&#45;&gt;Node10 -->
<g id="edge9" class="edge"><title>Node4&#45;&gt;Node10</title>
<path fill="none" stroke="midnightblue" d="M543.202,-260.486C558.865,-258.44 575,-256.333 588.661,-254.549"/>
<polygon fill="midnightblue" stroke="midnightblue" points="542.47,-257.051 533.007,-261.817 543.376,-263.993 542.47,-257.051"/>
</g>
<!-- Node11 -->
<g id="node11" class="node"><title>Node11</title>
<g id="a_node11"><a xlink:href="a00341.html#gadd5685565c8c6c86079e17b8a73b324c" target="_top" xlink:title="Fetch part of a text or image value from the server. ">
<polygon fill="white" stroke="black" points="591,-202.5 591,-221.5 658,-221.5 658,-202.5 591,-202.5"/>
<text text-anchor="middle" x="624.5" y="-209.5" font-family="Helvetica,sans-Serif" font-size="10.00">dbreadtext</text>
</a>
</g>
</g>
<!-- Node4&#45;&gt;Node11 -->
<g id="edge11" class="edge"><title>Node4&#45;&gt;Node11</title>
<path fill="none" stroke="midnightblue" d="M509.585,-255.261C527.006,-247.823 549.084,-238.622 569,-231 577.423,-227.777 586.659,-224.471 595.096,-221.54"/>
<polygon fill="midnightblue" stroke="midnightblue" points="507.725,-252.251 499.917,-259.412 510.487,-258.683 507.725,-252.251"/>
</g>
<!-- Node12 -->
<g id="node12" class="node"><title>Node12</title>
<g id="a_node12"><a xlink:href="a00341.html#gac980139b9cea03cf93e373d425991481" target="_top" xlink:title="Transmit the command buffer to the server. ">
<polygon fill="white" stroke="red" points="592,-164.5 592,-183.5 657,-183.5 657,-164.5 592,-164.5"/>
<text text-anchor="middle" x="624.5" y="-171.5" font-family="Helvetica,sans-Serif" font-size="10.00">dbsqlsend</text>
</a>
</g>
</g>
<!-- Node4&#45;&gt;Node12 -->
<g id="edge12" class="edge"><title>Node4&#45;&gt;Node12</title>
<path fill="none" stroke="midnightblue" d="M494.288,-252.214C511.504,-235.283 540.116,-209.371 569,-193 576.061,-188.998 584.11,-185.626 591.815,-182.887"/>
<polygon fill="midnightblue" stroke="midnightblue" points="491.808,-249.745 487.22,-259.295 496.762,-254.69 491.808,-249.745"/>
</g>
<!-- Node13 -->
<g id="node13" class="node"><title>Node13</title>
<g id="a_node13"><a xlink:href="a00356.html#gaf0da49585d39e99780a004ee2ca23479" target="_top" xlink:title="Send option commands to server. ">
<polygon fill="white" stroke="black" points="725.5,-104.5 725.5,-123.5 846.5,-123.5 846.5,-104.5 725.5,-104.5"/>
<text text-anchor="middle" x="786" y="-111.5" font-family="Helvetica,sans-Serif" font-size="10.00">tds_submit_optioncmd</text>
</a>
</g>
</g>
<!-- Node4&#45;&gt;Node13 -->
<g id="edge13" class="edge"><title>Node4&#45;&gt;Node13</title>
<path fill="none" stroke="midnightblue" d="M487.366,-250.322C501.372,-224.462 530.321,-178.309 569,-155 616.404,-126.433 679.404,-117.074 725.125,-114.328"/>
<polygon fill="midnightblue" stroke="midnightblue" points="484.126,-248.964 482.59,-259.447 490.328,-252.21 484.126,-248.964"/>
</g>
<!-- Node14 -->
<g id="node14" class="node"><title>Node14</title>
<g id="a_node14"><a xlink:href="a00193.html#ac6610c72bd31bad5378f760fa9b12d66" target="_top" xlink:title="Initialize BCP information. ">
<polygon fill="white" stroke="red" points="588,-38.5 588,-57.5 661,-57.5 661,-38.5 588,-38.5"/>
<text text-anchor="middle" x="624.5" y="-45.5" font-family="Helvetica,sans-Serif" font-size="10.00">tds_bcp_init</text>
</a>
</g>
</g>
<!-- Node4&#45;&gt;Node14 -->
<g id="edge14" class="edge"><title>Node4&#45;&gt;Node14</title>
<path fill="none" stroke="midnightblue" d="M481.478,-249.367C489.571,-209.372 513.374,-117.944 569,-67 574.321,-62.1273 580.959,-58.4926 587.754,-55.7849"/>
<polygon fill="midnightblue" stroke="midnightblue" points="477.998,-248.935 479.562,-259.414 484.874,-250.247 477.998,-248.935"/>
</g>
<!-- Node15 -->
<g id="node15" class="node"><title>Node15</title>
<g id="a_node15"><a xlink:href="a00359.html#ga55f27c3e05d42c9b07ace1c74b11c5ab" target="_top" xlink:title="Retrieve and set @spid. ">
<polygon fill="white" stroke="black" points="586,-468.5 586,-487.5 663,-487.5 663,-468.5 586,-468.5"/>
<text text-anchor="middle" x="624.5" y="-475.5" font-family="Helvetica,sans-Serif" font-size="10.00">tds_set_spid</text>
</a>
</g>
</g>
<!-- Node4&#45;&gt;Node15 -->
<g id="edge15" class="edge"><title>Node4&#45;&gt;Node15</title>
<path fill="none" stroke="midnightblue" d="M482.141,-288.792C491.161,-327.092 516.154,-411.727 569,-459 573.854,-463.342 579.757,-466.705 585.863,-469.304"/>
<polygon fill="midnightblue" stroke="midnightblue" points="485.523,-287.88 479.925,-278.885 478.692,-289.408 485.523,-287.88"/>
</g>
<!-- Node16 -->
<g id="node16" class="node"><title>Node16</title>
<g id="a_node16"><a xlink:href="a00359.html#gaeeb1562044786ea17bea361ed83e6946" target="_top" xlink:title="Process results for simple query as &quot;SET TEXTSIZE&quot; or &quot;USE dbname&quot; If the statement returns results...">
<polygon fill="white" stroke="red" points="569.5,-77 569.5,-107 679.5,-107 679.5,-77 569.5,-77"/>
<text text-anchor="start" x="577.5" y="-95" font-family="Helvetica,sans-Serif" font-size="10.00">tds_process_simple</text>
<text text-anchor="middle" x="624.5" y="-84" font-family="Helvetica,sans-Serif" font-size="10.00">_query</text>
</a>
</g>
</g>
<!-- Node4&#45;&gt;Node16 -->
<g id="edge17" class="edge"><title>Node4&#45;&gt;Node16</title>
<path fill="none" stroke="midnightblue" d="M485.985,-249.819C499.381,-219.515 528.903,-160.098 569,-122 575.029,-116.272 582.362,-111.275 589.668,-107.088"/>
<polygon fill="midnightblue" stroke="midnightblue" points="482.668,-248.673 481.928,-259.242 489.098,-251.441 482.668,-248.673"/>
</g>
<!-- Node17 -->
<g id="node17" class="node"><title>Node17</title>
<g id="a_node17"><a xlink:href="a00359.html#gaf233e79967f82f4e0dd4d11524917a34" target="_top" xlink:title="tds_process_cancel">
<polygon fill="white" stroke="red" points="569,-0.5 569,-19.5 680,-19.5 680,-0.5 569,-0.5"/>
<text text-anchor="middle" x="624.5" y="-7.5" font-family="Helvetica,sans-Serif" font-size="10.00">tds_process_cancel</text>
</a>
</g>
</g>
<!-- Node4&#45;&gt;Node17 -->
<g id="edge19" class="edge"><title>Node4&#45;&gt;Node17</title>
<path fill="none" stroke="midnightblue" d="M479.911,-249.156C485.329,-203.762 504.827,-91.4647 569,-29 573.021,-25.086 577.891,-21.9752 583.045,-19.5035"/>
<polygon fill="midnightblue" stroke="midnightblue" points="476.422,-248.864 478.819,-259.185 483.381,-249.622 476.422,-248.864"/>
</g>
<!-- Node8&#45;&gt;Node9 -->
<g id="edge8" class="edge"><title>Node8&#45;&gt;Node9</title>
<path fill="none" stroke="midnightblue" d="M661.371,-292.273C688.525,-295.508 725.532,-299.916 751.965,-303.065"/>
<polygon fill="midnightblue" stroke="midnightblue" points="661.47,-288.76 651.126,-291.053 660.642,-295.711 661.47,-288.76"/>
</g>
<!-- Node15&#45;&gt;Node3 -->
<g id="edge16" class="edge"><title>Node15&#45;&gt;Node3</title>
<path fill="none" stroke="midnightblue" d="M673.245,-483.687C686.661,-485.286 701.527,-487.056 715.92,-488.771"/>
<polygon fill="midnightblue" stroke="midnightblue" points="673.643,-480.21 663.299,-482.503 672.815,-487.161 673.643,-480.21"/>
</g>
<!-- Node16&#45;&gt;Node13 -->
<g id="edge18" class="edge"><title>Node16&#45;&gt;Node13</title>
<path fill="none" stroke="midnightblue" d="M690.05,-100.903C701.711,-102.512 713.823,-104.182 725.337,-105.771"/>
<polygon fill="midnightblue" stroke="midnightblue" points="690.329,-97.4089 679.945,-99.5096 689.373,-104.343 690.329,-97.4089"/>
</g>
<!-- Node18&#45;&gt;Node2 -->
<g id="edge21" class="edge"><title>Node18&#45;&gt;Node2</title>
<path fill="none" stroke="midnightblue" d="M294.933,-280.428C280.81,-282.953 264.584,-285.319 249.332,-287.107"/>
<polygon fill="midnightblue" stroke="midnightblue" points="295.622,-283.86 304.801,-278.568 294.325,-276.981 295.622,-283.86"/>
</g>
<!-- Node18&#45;&gt;Node4 -->
<g id="edge22" class="edge"><title>Node18&#45;&gt;Node4</title>
<path fill="none" stroke="midnightblue" d="M395.497,-269C403.92,-269 412.551,-269 420.887,-269"/>
<polygon fill="midnightblue" stroke="midnightblue" points="395.359,-265.5 385.359,-269 395.359,-272.5 395.359,-265.5"/>
</g>
</g>
</svg>
