<?xml version="1.0" encoding="UTF-8" standalone="no"?>
<!DOCTYPE svg PUBLIC "-//W3C//DTD SVG 1.1//EN"
 "http://www.w3.org/Graphics/SVG/1.1/DTD/svg11.dtd">
<!-- Generated by graphviz version 2.38.0 (20140413.2041)
 -->
<!-- Title: tds_process_param_result Pages: 1 -->
<svg width="1051pt" height="648pt"
 viewBox="0.00 0.00 1051.00 648.00" xmlns="http://www.w3.org/2000/svg" xmlns:xlink="http://www.w3.org/1999/xlink">
<g id="graph0" class="graph" transform="scale(1 1) rotate(0) translate(4 644)">
<title>tds_process_param_result</title>
<polygon fill="white" stroke="none" points="-4,4 -4,-644 1047,-644 1047,4 -4,4"/>
<!-- Node1 -->
<g id="node1" class="node"><title>Node1</title>
<polygon fill="#bfbfbf" stroke="black" points="0,-370.5 0,-389.5 142,-389.5 142,-370.5 0,-370.5"/>
<text text-anchor="middle" x="71" y="-377.5" font-family="Helvetica,sans-Serif" font-size="10.00">tds_process_param_result</text>
</g>
<!-- Node2 -->
<g id="node2" class="node"><title>Node2</title>
<g id="a_node2"><a xlink:href="a00359.html#gabfc9de1d1fe718818caf63a4be4035a6" target="_top" xlink:title="process all streams. ">
<polygon fill="white" stroke="black" points="504,-373.5 504,-392.5 616,-392.5 616,-373.5 504,-373.5"/>
<text text-anchor="middle" x="560" y="-380.5" font-family="Helvetica,sans-Serif" font-size="10.00">tds_process_tokens</text>
</a>
</g>
</g>
<!-- Node1&#45;&gt;Node2 -->
<g id="edge1" class="edge"><title>Node1&#45;&gt;Node2</title>
<path fill="none" stroke="midnightblue" d="M152.107,-382.699C232.099,-385.044 358.558,-387.803 468,-386 479.538,-385.81 491.895,-385.484 503.666,-385.116"/>
<polygon fill="midnightblue" stroke="midnightblue" points="152.203,-379.2 142.103,-382.401 151.994,-386.197 152.203,-379.2"/>
</g>
<!-- Node30 -->
<g id="node30" class="node"><title>Node30</title>
<g id="a_node30"><a xlink:href="a00359.html#ga9fdef8228d29cab7fa9098f07fa73fba" target="_top" xlink:title="Process parameters from networks. ">
<polygon fill="white" stroke="black" points="178,-343 178,-373 320,-373 320,-343 178,-343"/>
<text text-anchor="start" x="186" y="-361" font-family="Helvetica,sans-Serif" font-size="10.00">tds_process_param_result</text>
<text text-anchor="middle" x="249" y="-350" font-family="Helvetica,sans-Serif" font-size="10.00">_tokens</text>
</a>
</g>
</g>
<!-- Node1&#45;&gt;Node30 -->
<g id="edge36" class="edge"><title>Node1&#45;&gt;Node30</title>
<path fill="none" stroke="midnightblue" d="M152.101,-369.987C160.706,-368.912 169.412,-367.823 177.888,-366.764"/>
<polygon fill="midnightblue" stroke="midnightblue" points="151.554,-366.528 142.066,-371.242 152.423,-373.474 151.554,-366.528"/>
</g>
<!-- Node3 -->
<g id="node3" class="node"><title>Node3</title>
<g id="a_node3"><a xlink:href="a00344.html#gae67546338cb9542a4902aa914f57f314" target="_top" xlink:title="_bcp_exec_out">
<polygon fill="white" stroke="black" points="663.5,-582.5 663.5,-601.5 751.5,-601.5 751.5,-582.5 663.5,-582.5"/>
<text text-anchor="middle" x="707.5" y="-589.5" font-family="Helvetica,sans-Serif" font-size="10.00">_bcp_exec_out</text>
</a>
</g>
</g>
<!-- Node2&#45;&gt;Node3 -->
<g id="edge2" class="edge"><title>Node2&#45;&gt;Node3</title>
<path fill="none" stroke="midnightblue" d="M565.141,-402.792C574.161,-441.092 599.154,-525.727 652,-573 656.332,-576.875 661.498,-579.969 666.898,-582.438"/>
<polygon fill="midnightblue" stroke="midnightblue" points="568.523,-401.88 562.925,-392.885 561.692,-403.408 568.523,-401.88"/>
</g>
<!-- Node5 -->
<g id="node5" class="node"><title>Node5</title>
<g id="a_node5"><a xlink:href="a00341.html#gaf1879b85e8238c015b9648d077665285" target="_top" xlink:title="_dbresults">
<polygon fill="white" stroke="black" points="675,-468.5 675,-487.5 740,-487.5 740,-468.5 675,-468.5"/>
<text text-anchor="middle" x="707.5" y="-475.5" font-family="Helvetica,sans-Serif" font-size="10.00">_dbresults</text>
</a>
</g>
</g>
<!-- Node2&#45;&gt;Node5 -->
<g id="edge4" class="edge"><title>Node2&#45;&gt;Node5</title>
<path fill="none" stroke="midnightblue" d="M577.288,-399.786C594.504,-416.717 623.116,-442.629 652,-459 659.061,-463.002 667.11,-466.374 674.815,-469.113"/>
<polygon fill="midnightblue" stroke="midnightblue" points="579.762,-397.31 570.22,-392.705 574.808,-402.255 579.762,-397.31"/>
</g>
<!-- Node8 -->
<g id="node8" class="node"><title>Node8</title>
<g id="a_node8"><a xlink:href="a00341.html#ga548153eb2eae76c48aa9d4b72258dc1c" target="_top" xlink:title="Send text or image data to the server. ">
<polygon fill="white" stroke="black" points="975,-411.5 975,-430.5 1043,-430.5 1043,-411.5 975,-411.5"/>
<text text-anchor="middle" x="1009" y="-418.5" font-family="Helvetica,sans-Serif" font-size="10.00">dbwritetext</text>
</a>
</g>
</g>
<!-- Node2&#45;&gt;Node8 -->
<g id="edge18" class="edge"><title>Node2&#45;&gt;Node8</title>
<path fill="none" stroke="midnightblue" d="M626.516,-388.57C723.378,-396.804 901.252,-411.925 974.811,-418.179"/>
<polygon fill="midnightblue" stroke="midnightblue" points="626.52,-385.057 616.259,-387.698 625.927,-392.032 626.52,-385.057"/>
</g>
<!-- Node9 -->
<g id="node9" class="node"><title>Node9</title>
<g id="a_node9"><a xlink:href="a00342.html#gaff09873008411a0573f6d1a9e6c7cf4b" target="_top" xlink:title="Get count of output parameters filled by a stored procedure. ">
<polygon fill="white" stroke="black" points="675,-152.5 675,-171.5 740,-171.5 740,-152.5 675,-152.5"/>
<text text-anchor="middle" x="707.5" y="-159.5" font-family="Helvetica,sans-Serif" font-size="10.00">dbnumrets</text>
</a>
</g>
</g>
<!-- Node2&#45;&gt;Node9 -->
<g id="edge8" class="edge"><title>Node2&#45;&gt;Node9</title>
<path fill="none" stroke="midnightblue" d="M573.004,-364.767C602.503,-319.962 677.762,-205.65 700.135,-171.668"/>
<polygon fill="midnightblue" stroke="midnightblue" points="570.015,-362.942 567.44,-373.219 575.862,-366.791 570.015,-362.942"/>
</g>
<!-- Node13 -->
<g id="node13" class="node"><title>Node13</title>
<g id="a_node13"><a xlink:href="a00341.html#gae1f50a6a2c31fda57cb481922b06841e" target="_top" xlink:title="Wait for results of a query from the server. ">
<polygon fill="white" stroke="black" points="681,-430.5 681,-449.5 734,-449.5 734,-430.5 681,-430.5"/>
<text text-anchor="middle" x="707.5" y="-437.5" font-family="Helvetica,sans-Serif" font-size="10.00">dbsqlok</text>
</a>
</g>
</g>
<!-- Node2&#45;&gt;Node13 -->
<g id="edge12" class="edge"><title>Node2&#45;&gt;Node13</title>
<path fill="none" stroke="midnightblue" d="M594.702,-396.203C621.418,-406.669 658.118,-421.046 682.067,-430.428"/>
<polygon fill="midnightblue" stroke="midnightblue" points="595.941,-392.929 585.353,-392.541 593.388,-399.447 595.941,-392.929"/>
</g>
<!-- Node15 -->
<g id="node15" class="node"><title>Node15</title>
<g id="a_node15"><a xlink:href="a00341.html#ga559e24ba70d0d96c3469eb6ab8f74e05" target="_top" xlink:title="Cancel the query currently being retrieved, discarding all pending rows. ">
<polygon fill="white" stroke="black" points="672,-544.5 672,-563.5 743,-563.5 743,-544.5 672,-544.5"/>
<text text-anchor="middle" x="707.5" y="-551.5" font-family="Helvetica,sans-Serif" font-size="10.00">dbcanquery</text>
</a>
</g>
</g>
<!-- Node2&#45;&gt;Node15 -->
<g id="edge16" class="edge"><title>Node2&#45;&gt;Node15</title>
<path fill="none" stroke="midnightblue" d="M567.573,-402.324C579.44,-434.404 607.431,-498.708 652,-535 657.75,-539.682 664.729,-543.245 671.747,-545.944"/>
<polygon fill="midnightblue" stroke="midnightblue" points="570.821,-401.011 564.166,-392.767 564.227,-403.362 570.821,-401.011"/>
</g>
<!-- Node16 -->
<g id="node16" class="node"><title>Node16</title>
<g id="a_node16"><a xlink:href="a00341.html#gadd5685565c8c6c86079e17b8a73b324c" target="_top" xlink:title="Fetch part of a text or image value from the server. ">
<polygon fill="white" stroke="black" points="674,-114.5 674,-133.5 741,-133.5 741,-114.5 674,-114.5"/>
<text text-anchor="middle" x="707.5" y="-121.5" font-family="Helvetica,sans-Serif" font-size="10.00">dbreadtext</text>
</a>
</g>
</g>
<!-- Node2&#45;&gt;Node16 -->
<g id="edge19" class="edge"><title>Node2&#45;&gt;Node16</title>
<path fill="none" stroke="midnightblue" d="M562.911,-363.156C568.329,-317.762 587.827,-205.465 652,-143 658.031,-137.129 665.973,-133.065 673.921,-130.255"/>
<polygon fill="midnightblue" stroke="midnightblue" points="559.422,-362.864 561.819,-373.185 566.381,-363.622 559.422,-362.864"/>
</g>
<!-- Node17 -->
<g id="node17" class="node"><title>Node17</title>
<g id="a_node17"><a xlink:href="a00341.html#gac980139b9cea03cf93e373d425991481" target="_top" xlink:title="Transmit the command buffer to the server. ">
<polygon fill="white" stroke="black" points="675,-506.5 675,-525.5 740,-525.5 740,-506.5 675,-506.5"/>
<text text-anchor="middle" x="707.5" y="-513.5" font-family="Helvetica,sans-Serif" font-size="10.00">dbsqlsend</text>
</a>
</g>
</g>
<!-- Node2&#45;&gt;Node17 -->
<g id="edge20" class="edge"><title>Node2&#45;&gt;Node17</title>
<path fill="none" stroke="midnightblue" d="M571.309,-401.653C586.069,-426.733 615.513,-471.156 652,-497 658.787,-501.807 666.902,-505.494 674.77,-508.283"/>
<polygon fill="midnightblue" stroke="midnightblue" points="574.232,-399.714 566.225,-392.776 568.158,-403.193 574.232,-399.714"/>
</g>
<!-- Node18 -->
<g id="node18" class="node"><title>Node18</title>
<g id="a_node18"><a xlink:href="a00356.html#gaf0da49585d39e99780a004ee2ca23479" target="_top" xlink:title="Send option commands to server. ">
<polygon fill="white" stroke="black" points="808.5,-354.5 808.5,-373.5 929.5,-373.5 929.5,-354.5 808.5,-354.5"/>
<text text-anchor="middle" x="869" y="-361.5" font-family="Helvetica,sans-Serif" font-size="10.00">tds_submit_optioncmd</text>
</a>
</g>
</g>
<!-- Node2&#45;&gt;Node18 -->
<g id="edge22" class="edge"><title>Node2&#45;&gt;Node18</title>
<path fill="none" stroke="midnightblue" d="M626.384,-378.953C680.327,-375.615 756.224,-370.918 808.487,-367.683"/>
<polygon fill="midnightblue" stroke="midnightblue" points="626.005,-375.47 616.24,-379.581 626.437,-382.457 626.005,-375.47"/>
</g>
<!-- Node19 -->
<g id="node19" class="node"><title>Node19</title>
<g id="a_node19"><a xlink:href="a00193.html#ac6610c72bd31bad5378f760fa9b12d66" target="_top" xlink:title="Initialize BCP information. ">
<polygon fill="white" stroke="black" points="671,-76.5 671,-95.5 744,-95.5 744,-76.5 671,-76.5"/>
<text text-anchor="middle" x="707.5" y="-83.5" font-family="Helvetica,sans-Serif" font-size="10.00">tds_bcp_init</text>
</a>
</g>
</g>
<!-- Node2&#45;&gt;Node19 -->
<g id="edge23" class="edge"><title>Node2&#45;&gt;Node19</title>
<path fill="none" stroke="midnightblue" d="M561.714,-363.166C564.593,-312.916 579.081,-179.325 652,-105 657.193,-99.7069 663.938,-95.8863 670.903,-93.1292"/>
<polygon fill="midnightblue" stroke="midnightblue" points="558.21,-363.169 561.23,-373.324 565.202,-363.502 558.21,-363.169"/>
</g>
<!-- Node21 -->
<g id="node21" class="node"><title>Node21</title>
<g id="a_node21"><a xlink:href="a00359.html#ga55f27c3e05d42c9b07ace1c74b11c5ab" target="_top" xlink:title="Retrieve and set @spid. ">
<polygon fill="white" stroke="black" points="669,-38.5 669,-57.5 746,-57.5 746,-38.5 669,-38.5"/>
<text text-anchor="middle" x="707.5" y="-45.5" font-family="Helvetica,sans-Serif" font-size="10.00">tds_set_spid</text>
</a>
</g>
</g>
<!-- Node2&#45;&gt;Node21 -->
<g id="edge25" class="edge"><title>Node2&#45;&gt;Node21</title>
<path fill="none" stroke="midnightblue" d="M560.784,-363.453C561.26,-308.932 570.117,-153.52 652,-67 656.615,-62.1239 662.547,-58.4987 668.791,-55.8036"/>
<polygon fill="midnightblue" stroke="midnightblue" points="557.284,-363.496 560.787,-373.495 564.284,-363.494 557.284,-363.496"/>
</g>
<!-- Node23 -->
<g id="node23" class="node"><title>Node23</title>
<g id="a_node23"><a xlink:href="a00359.html#gaeeb1562044786ea17bea361ed83e6946" target="_top" xlink:title="Process results for simple query as &quot;SET TEXTSIZE&quot; or &quot;USE dbname&quot; If the statement returns results...">
<polygon fill="white" stroke="black" points="652.5,-289 652.5,-319 762.5,-319 762.5,-289 652.5,-289"/>
<text text-anchor="start" x="660.5" y="-307" font-family="Helvetica,sans-Serif" font-size="10.00">tds_process_simple</text>
<text text-anchor="middle" x="707.5" y="-296" font-family="Helvetica,sans-Serif" font-size="10.00">_query</text>
</a>
</g>
</g>
<!-- Node2&#45;&gt;Node23 -->
<g id="edge27" class="edge"><title>Node2&#45;&gt;Node23</title>
<path fill="none" stroke="midnightblue" d="M587.411,-368.66C613.229,-354.642 652.387,-333.381 678.678,-319.106"/>
<polygon fill="midnightblue" stroke="midnightblue" points="585.669,-365.623 578.551,-373.471 589.009,-371.775 585.669,-365.623"/>
</g>
<!-- Node28 -->
<g id="node28" class="node"><title>Node28</title>
<g id="a_node28"><a xlink:href="a00359.html#gaf233e79967f82f4e0dd4d11524917a34" target="_top" xlink:title="tds_process_cancel">
<polygon fill="white" stroke="black" points="652,-620.5 652,-639.5 763,-639.5 763,-620.5 652,-620.5"/>
<text text-anchor="middle" x="707.5" y="-627.5" font-family="Helvetica,sans-Serif" font-size="10.00">tds_process_cancel</text>
</a>
</g>
</g>
<!-- Node2&#45;&gt;Node28 -->
<g id="edge34" class="edge"><title>Node2&#45;&gt;Node28</title>
<path fill="none" stroke="midnightblue" d="M563.352,-402.746C569.59,-446.46 590.523,-552.188 652,-611 656.055,-614.879 660.943,-617.97 666.107,-620.432"/>
<polygon fill="midnightblue" stroke="midnightblue" points="566.819,-402.267 562.039,-392.811 559.879,-403.183 566.819,-402.267"/>
</g>
<!-- Node4 -->
<g id="node4" class="node"><title>Node4</title>
<g id="a_node4"><a xlink:href="a00343.html#ga7a184158b27a50f713e9cfae3b746209" target="_top" xlink:title="Write a datafile to a table. ">
<polygon fill="white" stroke="black" points="838,-582.5 838,-601.5 900,-601.5 900,-582.5 838,-582.5"/>
<text text-anchor="middle" x="869" y="-589.5" font-family="Helvetica,sans-Serif" font-size="10.00">bcp_exec</text>
</a>
</g>
</g>
<!-- Node3&#45;&gt;Node4 -->
<g id="edge3" class="edge"><title>Node3&#45;&gt;Node4</title>
<path fill="none" stroke="midnightblue" d="M761.874,-592C787.205,-592 816.536,-592 837.935,-592"/>
<polygon fill="midnightblue" stroke="midnightblue" points="761.663,-588.5 751.663,-592 761.663,-595.5 761.663,-588.5"/>
</g>
<!-- Node6 -->
<g id="node6" class="node"><title>Node6</title>
<g id="a_node6"><a xlink:href="a00341.html#ga4e26d949be2c3bf71b1a33c75b11d931" target="_top" xlink:title="Set up query results. ">
<polygon fill="white" stroke="black" points="839.5,-468.5 839.5,-487.5 898.5,-487.5 898.5,-468.5 839.5,-468.5"/>
<text text-anchor="middle" x="869" y="-475.5" font-family="Helvetica,sans-Serif" font-size="10.00">dbresults</text>
</a>
</g>
</g>
<!-- Node5&#45;&gt;Node6 -->
<g id="edge5" class="edge"><title>Node5&#45;&gt;Node6</title>
<path fill="none" stroke="midnightblue" d="M750.337,-478C778.428,-478 814.698,-478 839.498,-478"/>
<polygon fill="midnightblue" stroke="midnightblue" points="750.012,-474.5 740.012,-478 750.012,-481.5 750.012,-474.5"/>
</g>
<!-- Node7 -->
<g id="node7" class="node"><title>Node7</title>
<g id="a_node7"><a xlink:href="a00341.html#ga66ea891910f0a357cc78107d6ab7d962" target="_top" xlink:title="Change current database. ">
<polygon fill="white" stroke="black" points="987,-506.5 987,-525.5 1031,-525.5 1031,-506.5 987,-506.5"/>
<text text-anchor="middle" x="1009" y="-513.5" font-family="Helvetica,sans-Serif" font-size="10.00">dbuse</text>
</a>
</g>
</g>
<!-- Node6&#45;&gt;Node7 -->
<g id="edge6" class="edge"><title>Node6&#45;&gt;Node7</title>
<path fill="none" stroke="midnightblue" d="M908.26,-488.535C933.562,-495.503 965.795,-504.378 986.66,-510.124"/>
<polygon fill="midnightblue" stroke="midnightblue" points="909.164,-485.154 898.594,-485.874 907.306,-491.903 909.164,-485.154"/>
</g>
<!-- Node6&#45;&gt;Node8 -->
<g id="edge7" class="edge"><title>Node6&#45;&gt;Node8</title>
<path fill="none" stroke="midnightblue" d="M908.517,-465.453C918.525,-461.961 929.236,-458.018 939,-454 956.437,-446.824 975.759,-437.455 989.511,-430.535"/>
<polygon fill="midnightblue" stroke="midnightblue" points="907.129,-462.228 898.803,-468.78 909.397,-468.851 907.129,-462.228"/>
</g>
<!-- Node10 -->
<g id="node10" class="node"><title>Node10</title>
<g id="a_node10"><a xlink:href="a00342.html#ga0311328d63bae5d9bd5aea5ea4914223" target="_top" xlink:title="Get name of an output parameter filled by a stored procedure. ">
<polygon fill="white" stroke="black" points="835.5,-114.5 835.5,-133.5 902.5,-133.5 902.5,-114.5 835.5,-114.5"/>
<text text-anchor="middle" x="869" y="-121.5" font-family="Helvetica,sans-Serif" font-size="10.00">dbretname</text>
</a>
</g>
</g>
<!-- Node9&#45;&gt;Node10 -->
<g id="edge9" class="edge"><title>Node9&#45;&gt;Node10</title>
<path fill="none" stroke="midnightblue" d="M749.831,-152.153C776.507,-145.798 810.718,-137.647 835.458,-131.753"/>
<polygon fill="midnightblue" stroke="midnightblue" points="748.929,-148.77 740.012,-154.492 750.551,-155.579 748.929,-148.77"/>
</g>
<!-- Node11 -->
<g id="node11" class="node"><title>Node11</title>
<g id="a_node11"><a xlink:href="a00342.html#ga42e187003b74fec6e9ca92d410bfb9c0" target="_top" xlink:title="Get value of an output parameter filled by a stored procedure. ">
<polygon fill="white" stroke="black" points="838,-76.5 838,-95.5 900,-95.5 900,-76.5 838,-76.5"/>
<text text-anchor="middle" x="869" y="-83.5" font-family="Helvetica,sans-Serif" font-size="10.00">dbretdata</text>
</a>
</g>
</g>
<!-- Node9&#45;&gt;Node11 -->
<g id="edge10" class="edge"><title>Node9&#45;&gt;Node11</title>
<path fill="none" stroke="midnightblue" d="M749.776,-150.012C754.393,-147.977 758.903,-145.649 763,-143 782.537,-130.369 779.053,-116.972 799,-105 810.719,-97.9665 825.106,-93.4694 837.705,-90.6276"/>
<polygon fill="midnightblue" stroke="midnightblue" points="748.255,-146.849 740.244,-153.782 750.83,-153.358 748.255,-146.849"/>
</g>
<!-- Node12 -->
<g id="node12" class="node"><title>Node12</title>
<g id="a_node12"><a xlink:href="a00342.html#gab705bf94be535e9d8fc4edc0f48c98b0" target="_top" xlink:title="Get size of an output parameter filled by a stored procedure. ">
<polygon fill="white" stroke="black" points="841.5,-152.5 841.5,-171.5 896.5,-171.5 896.5,-152.5 841.5,-152.5"/>
<text text-anchor="middle" x="869" y="-159.5" font-family="Helvetica,sans-Serif" font-size="10.00">dbretlen</text>
</a>
</g>
</g>
<!-- Node9&#45;&gt;Node12 -->
<g id="edge11" class="edge"><title>Node9&#45;&gt;Node12</title>
<path fill="none" stroke="midnightblue" d="M750.194,-162C778.999,-162 816.457,-162 841.317,-162"/>
<polygon fill="midnightblue" stroke="midnightblue" points="750.012,-158.5 740.012,-162 750.012,-165.5 750.012,-158.5"/>
</g>
<!-- Node13&#45;&gt;Node8 -->
<g id="edge15" class="edge"><title>Node13&#45;&gt;Node8</title>
<path fill="none" stroke="midnightblue" d="M744.275,-437.73C802.803,-434.018 918.171,-426.699 974.907,-423.099"/>
<polygon fill="midnightblue" stroke="midnightblue" points="743.794,-434.254 734.035,-438.38 744.237,-441.24 743.794,-434.254"/>
</g>
<!-- Node14 -->
<g id="node14" class="node"><title>Node14</title>
<g id="a_node14"><a xlink:href="a00341.html#gaae889abeb145ec41f7361aa8f597fe46" target="_top" xlink:title="send the SQL command to the server and wait for an answer. ">
<polygon fill="white" stroke="black" points="837,-506.5 837,-525.5 901,-525.5 901,-506.5 837,-506.5"/>
<text text-anchor="middle" x="869" y="-513.5" font-family="Helvetica,sans-Serif" font-size="10.00">dbsqlexec</text>
</a>
</g>
</g>
<!-- Node13&#45;&gt;Node14 -->
<g id="edge13" class="edge"><title>Node13&#45;&gt;Node14</title>
<path fill="none" stroke="midnightblue" d="M743.711,-449.498C750.39,-452.057 757.12,-455.199 763,-459 782.537,-471.631 779.053,-485.028 799,-497 810.399,-503.842 824.324,-508.283 836.671,-511.136"/>
<polygon fill="midnightblue" stroke="midnightblue" points="744.663,-446.124 734.069,-446.157 742.372,-452.738 744.663,-446.124"/>
</g>
<!-- Node14&#45;&gt;Node7 -->
<g id="edge14" class="edge"><title>Node14&#45;&gt;Node7</title>
<path fill="none" stroke="midnightblue" d="M911.535,-516C936.297,-516 966.699,-516 986.674,-516"/>
<polygon fill="midnightblue" stroke="midnightblue" points="911.314,-512.5 901.314,-516 911.314,-519.5 911.314,-512.5"/>
</g>
<!-- Node15&#45;&gt;Node7 -->
<g id="edge17" class="edge"><title>Node15&#45;&gt;Node7</title>
<path fill="none" stroke="midnightblue" d="M753.206,-552.781C799.878,-550.935 875.044,-546.339 939,-535 955.272,-532.115 973.26,-527.099 986.789,-522.946"/>
<polygon fill="midnightblue" stroke="midnightblue" points="752.986,-549.287 743.123,-553.155 753.246,-556.282 752.986,-549.287"/>
</g>
<!-- Node17&#45;&gt;Node14 -->
<g id="edge21" class="edge"><title>Node17&#45;&gt;Node14</title>
<path fill="none" stroke="midnightblue" d="M750.359,-516C777.453,-516 812.15,-516 836.825,-516"/>
<polygon fill="midnightblue" stroke="midnightblue" points="750.012,-512.5 740.012,-516 750.012,-519.5 750.012,-512.5"/>
</g>
<!-- Node20 -->
<g id="node20" class="node"><title>Node20</title>
<g id="a_node20"><a xlink:href="a00343.html#gada8e987c4a6225b9276c05ba3a4f47a0" target="_top" xlink:title="Prepare for bulk copy operation on a table. ">
<polygon fill="white" stroke="black" points="842.5,-38.5 842.5,-57.5 895.5,-57.5 895.5,-38.5 842.5,-38.5"/>
<text text-anchor="middle" x="869" y="-45.5" font-family="Helvetica,sans-Serif" font-size="10.00">bcp_init</text>
</a>
</g>
</g>
<!-- Node19&#45;&gt;Node20 -->
<g id="edge24" class="edge"><title>Node19&#45;&gt;Node20</title>
<path fill="none" stroke="midnightblue" d="M754.075,-75.1419C782.668,-68.3299 818.488,-59.7959 842.249,-54.135"/>
<polygon fill="midnightblue" stroke="midnightblue" points="753.211,-71.7497 744.295,-77.4721 754.834,-78.5591 753.211,-71.7497"/>
</g>
<!-- Node22 -->
<g id="node22" class="node"><title>Node22</title>
<g id="a_node22"><a xlink:href="a00359.html#ga93945b42d45ee28ae1296b35a1c1e9bb" target="_top" xlink:title="tds_process_login_tokens() is called after sending the login packet to the server. ">
<polygon fill="white" stroke="black" points="799,-0.5 799,-19.5 939,-19.5 939,-0.5 799,-0.5"/>
<text text-anchor="middle" x="869" y="-7.5" font-family="Helvetica,sans-Serif" font-size="10.00">tds_process_login_tokens</text>
</a>
</g>
</g>
<!-- Node21&#45;&gt;Node22 -->
<g id="edge26" class="edge"><title>Node21&#45;&gt;Node22</title>
<path fill="none" stroke="midnightblue" d="M756.151,-36.6473C779.039,-31.1944 806.161,-24.7327 827.965,-19.538"/>
<polygon fill="midnightblue" stroke="midnightblue" points="755.216,-33.2722 746.299,-38.9945 756.838,-40.0816 755.216,-33.2722"/>
</g>
<!-- Node23&#45;&gt;Node18 -->
<g id="edge28" class="edge"><title>Node23&#45;&gt;Node18</title>
<path fill="none" stroke="midnightblue" d="M747.961,-323.501C763.623,-330.81 781.94,-338.83 799,-345 808.581,-348.465 819.104,-351.66 828.982,-354.402"/>
<polygon fill="midnightblue" stroke="midnightblue" points="749.124,-320.179 738.588,-319.065 746.129,-326.506 749.124,-320.179"/>
</g>
<!-- Node24 -->
<g id="node24" class="node"><title>Node24</title>
<g id="a_node24"><a xlink:href="a00193.html#ade7df2db455b61edc83819ad60edb339" target="_top" xlink:title="Tell we finished sending BCP data to server. ">
<polygon fill="white" stroke="red" points="827.5,-278.5 827.5,-297.5 910.5,-297.5 910.5,-278.5 827.5,-278.5"/>
<text text-anchor="middle" x="869" y="-285.5" font-family="Helvetica,sans-Serif" font-size="10.00">tds_bcp_done</text>
</a>
</g>
</g>
<!-- Node23&#45;&gt;Node24 -->
<g id="edge29" class="edge"><title>Node23&#45;&gt;Node24</title>
<path fill="none" stroke="midnightblue" d="M773.011,-297.529C791.385,-295.686 810.879,-293.73 827.395,-292.073"/>
<polygon fill="midnightblue" stroke="midnightblue" points="772.545,-294.058 762.945,-298.538 773.244,-301.023 772.545,-294.058"/>
</g>
<!-- Node25 -->
<g id="node25" class="node"><title>Node25</title>
<g id="a_node25"><a xlink:href="a00193.html#a8208eef2a3974ae1f0cf3c8c8ab011ce" target="_top" xlink:title="Start sending BCP data to server. ">
<polygon fill="white" stroke="red" points="829,-240.5 829,-259.5 909,-259.5 909,-240.5 829,-240.5"/>
<text text-anchor="middle" x="869" y="-247.5" font-family="Helvetica,sans-Serif" font-size="10.00">tds_bcp_start</text>
</a>
</g>
</g>
<!-- Node23&#45;&gt;Node25 -->
<g id="edge30" class="edge"><title>Node23&#45;&gt;Node25</title>
<path fill="none" stroke="midnightblue" d="M754.682,-285.113C768.8,-279.617 784.443,-273.806 799,-269 809.147,-265.65 820.263,-262.407 830.553,-259.576"/>
<polygon fill="midnightblue" stroke="midnightblue" points="753.208,-281.931 745.184,-288.85 755.771,-288.445 753.208,-281.931"/>
</g>
<!-- Node26 -->
<g id="node26" class="node"><title>Node26</title>
<g id="a_node26"><a xlink:href="a00193.html#a7711612cc544a7da2c7aa212b870acb2" target="_top" xlink:title="Start writing writetext request. ">
<polygon fill="white" stroke="black" points="817,-316.5 817,-335.5 921,-335.5 921,-316.5 817,-316.5"/>
<text text-anchor="middle" x="869" y="-323.5" font-family="Helvetica,sans-Serif" font-size="10.00">tds_writetext_start</text>
</a>
</g>
</g>
<!-- Node23&#45;&gt;Node26 -->
<g id="edge31" class="edge"><title>Node23&#45;&gt;Node26</title>
<path fill="none" stroke="midnightblue" d="M772.906,-312.884C787.496,-314.896 802.798,-317.007 816.757,-318.932"/>
<polygon fill="midnightblue" stroke="midnightblue" points="773.329,-309.409 762.945,-311.51 772.373,-316.343 773.329,-309.409"/>
</g>
<!-- Node27 -->
<g id="node27" class="node"><title>Node27</title>
<g id="a_node27"><a xlink:href="a00359.html#ga69902dffb299d62a799888e0fa3ccd68" target="_top" xlink:title="Attempt to close all deferred closes (dynamics and cursors). ">
<polygon fill="white" stroke="red" points="809.5,-191 809.5,-221 928.5,-221 928.5,-191 809.5,-191"/>
<text text-anchor="start" x="817.5" y="-209" font-family="Helvetica,sans-Serif" font-size="10.00">tds_process_pending</text>
<text text-anchor="middle" x="869" y="-198" font-family="Helvetica,sans-Serif" font-size="10.00">_closes</text>
</a>
</g>
</g>
<!-- Node23&#45;&gt;Node27 -->
<g id="edge33" class="edge"><title>Node23&#45;&gt;Node27</title>
<path fill="none" stroke="midnightblue" d="M731.419,-281.91C748.837,-266.059 773.99,-245.095 799,-231 805.549,-227.309 812.744,-223.992 819.94,-221.072"/>
<polygon fill="midnightblue" stroke="midnightblue" points="728.949,-279.427 723.989,-288.79 733.705,-284.564 728.949,-279.427"/>
</g>
<!-- Node26&#45;&gt;Node8 -->
<g id="edge32" class="edge"><title>Node26&#45;&gt;Node8</title>
<path fill="none" stroke="midnightblue" d="M928.162,-339.36C931.934,-341.028 935.585,-342.901 939,-345 967.542,-362.545 991.375,-395.308 1002.02,-411.476"/>
<polygon fill="midnightblue" stroke="midnightblue" points="929.187,-336.003 918.6,-335.617 926.636,-342.521 929.187,-336.003"/>
</g>
<!-- Node29 -->
<g id="node29" class="node"><title>Node29</title>
<g id="a_node29"><a xlink:href="a00341.html#ga5ea23272124fff03b8d87538c1ec3ee5" target="_top" xlink:title="Cancel the current command batch. ">
<polygon fill="white" stroke="black" points="839.5,-620.5 839.5,-639.5 898.5,-639.5 898.5,-620.5 839.5,-620.5"/>
<text text-anchor="middle" x="869" y="-627.5" font-family="Helvetica,sans-Serif" font-size="10.00">dbcancel</text>
</a>
</g>
</g>
<!-- Node28&#45;&gt;Node29 -->
<g id="edge35" class="edge"><title>Node28&#45;&gt;Node29</title>
<path fill="none" stroke="midnightblue" d="M773.451,-630C796.421,-630 821.089,-630 839.467,-630"/>
<polygon fill="midnightblue" stroke="midnightblue" points="773.391,-626.5 763.391,-630 773.391,-633.5 773.391,-626.5"/>
</g>
<!-- Node30&#45;&gt;Node2 -->
<g id="edge40" class="edge"><title>Node30&#45;&gt;Node2</title>
<path fill="none" stroke="midnightblue" d="M330.089,-364.48C384.557,-368.886 455.234,-374.605 503.556,-378.514"/>
<polygon fill="midnightblue" stroke="midnightblue" points="330.367,-360.991 320.117,-363.673 329.802,-367.968 330.367,-360.991"/>
</g>
<!-- Node31 -->
<g id="node31" class="node"><title>Node31</title>
<g id="a_node31"><a xlink:href="a00359.html#ga39453d084f3f780ac4602d4abf2839f7" target="_top" xlink:title="tds_process_default_tokens() is a catch all function that is called to process tokens not known to ot...">
<polygon fill="white" stroke="red" points="356,-305 356,-335 468,-335 468,-305 356,-305"/>
<text text-anchor="start" x="364" y="-323" font-family="Helvetica,sans-Serif" font-size="10.00">tds_process_default</text>
<text text-anchor="middle" x="412" y="-312" font-family="Helvetica,sans-Serif" font-size="10.00">_tokens</text>
</a>
</g>
</g>
<!-- Node30&#45;&gt;Node31 -->
<g id="edge37" class="edge"><title>Node30&#45;&gt;Node31</title>
<path fill="none" stroke="midnightblue" d="M323.552,-340.64C334.431,-338.072 345.481,-335.464 355.899,-333.005"/>
<polygon fill="midnightblue" stroke="midnightblue" points="322.56,-337.278 313.631,-342.981 324.168,-344.091 322.56,-337.278"/>
</g>
<!-- Node31&#45;&gt;Node2 -->
<g id="edge39" class="edge"><title>Node31&#45;&gt;Node2</title>
<path fill="none" stroke="midnightblue" d="M457.322,-339.125C483.508,-350.425 515.547,-364.25 536.576,-373.324"/>
<polygon fill="midnightblue" stroke="midnightblue" points="458.539,-335.838 447.971,-335.09 455.766,-342.266 458.539,-335.838"/>
</g>
<!-- Node31&#45;&gt;Node22 -->
<g id="edge38" class="edge"><title>Node31&#45;&gt;Node22</title>
<path fill="none" stroke="midnightblue" d="M424.495,-295.511C453.3,-237.289 534.754,-90.8567 652,-29 696.949,-5.28604 754.558,-1.29916 798.976,-2.82811"/>
<polygon fill="midnightblue" stroke="midnightblue" points="421.254,-294.173 420.028,-304.696 427.549,-297.234 421.254,-294.173"/>
</g>
</g>
</svg>
