<?xml version="1.0" encoding="UTF-8" standalone="no"?>
<!DOCTYPE svg PUBLIC "-//W3C//DTD SVG 1.1//EN"
 "http://www.w3.org/Graphics/SVG/1.1/DTD/svg11.dtd">
<!-- Generated by graphviz version 2.38.0 (20140413.2041)
 -->
<!-- Title: dbspr1row Pages: 1 -->
<svg width="607pt" height="335pt"
 viewBox="0.00 0.00 607.00 335.08" xmlns="http://www.w3.org/2000/svg" xmlns:xlink="http://www.w3.org/1999/xlink">
<g id="graph0" class="graph" transform="scale(1 1) rotate(0) translate(4 331.082)">
<title>dbspr1row</title>
<polygon fill="white" stroke="none" points="-4,4 -4,-331.082 603,-331.082 603,4 -4,4"/>
<!-- Node1 -->
<g id="node1" class="node"><title>Node1</title>
<polygon fill="#bfbfbf" stroke="black" points="0,-207.671 0,-226.671 66,-226.671 66,-207.671 0,-207.671"/>
<text text-anchor="middle" x="33" y="-214.671" font-family="Helvetica,sans-Serif" font-size="10.00">dbspr1row</text>
</g>
<!-- Node2 -->
<g id="node2" class="node"><title>Node2</title>
<g id="a_node2"><a xlink:href="a00193.html#ab45c291105027e69836002e1dd586141" target="_top" xlink:title="Write a message to the debug log. ">
<polygon fill="white" stroke="black" points="522,-150.671 522,-169.671 599,-169.671 599,-150.671 522,-150.671"/>
<text text-anchor="middle" x="560.5" y="-157.671" font-family="Helvetica,sans-Serif" font-size="10.00">tdsdump_log</text>
</a>
</g>
</g>
<!-- Node1&#45;&gt;Node2 -->
<g id="edge1" class="edge"><title>Node1&#45;&gt;Node2</title>
<path fill="none" stroke="midnightblue" d="M37.3895,-226.763C45.1373,-247.022 66.2819,-293.812 102,-312.171 155.759,-339.802 178.222,-321.125 238,-312.171 352.01,-295.093 387.704,-296.402 486,-236.171 510.923,-220.899 533.279,-195.22 546.619,-177.99"/>
<polygon fill="midnightblue" stroke="midnightblue" points="549.527,-179.946 552.738,-169.849 543.931,-175.74 549.527,-179.946"/>
</g>
<!-- Node3 -->
<g id="node3" class="node"><title>Node3</title>
<g id="a_node3"><a xlink:href="a00193.html#ae7f4c4d5f7352f1c814284c536659e6f" target="_top" xlink:title="Return type suitable for conversions (convert all nullable types to fixed type) ">
<polygon fill="white" stroke="black" points="102,-283.671 102,-302.671 238,-302.671 238,-283.671 102,-283.671"/>
<text text-anchor="middle" x="170" y="-290.671" font-family="Helvetica,sans-Serif" font-size="10.00">tds_get_conversion_type</text>
</a>
</g>
</g>
<!-- Node1&#45;&gt;Node3 -->
<g id="edge2" class="edge"><title>Node1&#45;&gt;Node3</title>
<path fill="none" stroke="midnightblue" d="M42.7519,-226.674C54.8842,-239.3 78.0398,-261.483 102,-274.171 106.251,-276.421 110.798,-278.431 115.448,-280.221"/>
<polygon fill="midnightblue" stroke="midnightblue" points="114.477,-283.59 125.072,-283.592 116.791,-276.983 114.477,-283.59"/>
</g>
<!-- Node4 -->
<g id="node4" class="node"><title>Node4</title>
<g id="a_node4"><a xlink:href="a00353.html#ga883855e6e3793de6684b21db39c756c4" target="_top" xlink:title="Convert from db date format to a structured date format. ">
<polygon fill="white" stroke="black" points="128.5,-245.671 128.5,-264.671 211.5,-264.671 211.5,-245.671 128.5,-245.671"/>
<text text-anchor="middle" x="170" y="-252.671" font-family="Helvetica,sans-Serif" font-size="10.00">tds_datecrack</text>
</a>
</g>
</g>
<!-- Node1&#45;&gt;Node4 -->
<g id="edge3" class="edge"><title>Node1&#45;&gt;Node4</title>
<path fill="none" stroke="midnightblue" d="M66.3359,-226.273C84.0052,-231.246 106.135,-237.475 125.319,-242.875"/>
<polygon fill="midnightblue" stroke="midnightblue" points="124.47,-246.272 135.044,-245.613 126.367,-239.534 124.47,-246.272"/>
</g>
<!-- Node5 -->
<g id="node5" class="node"><title>Node5</title>
<g id="a_node5"><a xlink:href="a00341.html#gaee60c306a22383805a4b9caa647a1e16" target="_top" xlink:title="Get address of data in a regular result column. ">
<polygon fill="white" stroke="black" points="433,-207.671 433,-226.671 482,-226.671 482,-207.671 433,-207.671"/>
<text text-anchor="middle" x="457.5" y="-214.671" font-family="Helvetica,sans-Serif" font-size="10.00">dbdata</text>
</a>
</g>
</g>
<!-- Node1&#45;&gt;Node5 -->
<g id="edge4" class="edge"><title>Node1&#45;&gt;Node5</title>
<path fill="none" stroke="midnightblue" d="M66.1029,-217.171C143.993,-217.171 342.46,-217.171 422.384,-217.171"/>
<polygon fill="midnightblue" stroke="midnightblue" points="422.85,-220.671 432.85,-217.171 422.85,-213.671 422.85,-220.671"/>
</g>
<!-- Node6 -->
<g id="node6" class="node"><title>Node6</title>
<g id="a_node6"><a xlink:href="a00353.html#ga8c9652e8b1f3e56a3289fd71b12cee1d" target="_top" xlink:title="format a date string according to an &quot;extended&quot; strftime(3) formatting definition. ">
<polygon fill="white" stroke="black" points="134.5,-169.671 134.5,-188.671 205.5,-188.671 205.5,-169.671 134.5,-169.671"/>
<text text-anchor="middle" x="170" y="-176.671" font-family="Helvetica,sans-Serif" font-size="10.00">tds_strftime</text>
</a>
</g>
</g>
<!-- Node1&#45;&gt;Node6 -->
<g id="edge6" class="edge"><title>Node1&#45;&gt;Node6</title>
<path fill="none" stroke="midnightblue" d="M66.3359,-208.069C84.0052,-203.095 106.135,-196.866 125.319,-191.466"/>
<polygon fill="midnightblue" stroke="midnightblue" points="126.367,-194.807 135.044,-188.729 124.47,-188.069 126.367,-194.807"/>
</g>
<!-- Node7 -->
<g id="node7" class="node"><title>Node7</title>
<g id="a_node7"><a xlink:href="a00341.html#ga32eb72f6fb3edb130e59fb3dd0766e7e" target="_top" xlink:title="Convert one datatype to another. ">
<polygon fill="white" stroke="black" points="138.5,-112.671 138.5,-131.671 201.5,-131.671 201.5,-112.671 138.5,-112.671"/>
<text text-anchor="middle" x="170" y="-119.671" font-family="Helvetica,sans-Serif" font-size="10.00">dbconvert</text>
</a>
</g>
</g>
<!-- Node1&#45;&gt;Node7 -->
<g id="edge7" class="edge"><title>Node1&#45;&gt;Node7</title>
<path fill="none" stroke="midnightblue" d="M44.1289,-207.667C57.0198,-195.816 80.234,-175.279 102,-160.171 114.343,-151.603 128.758,-143.236 141.048,-136.544"/>
<polygon fill="midnightblue" stroke="midnightblue" points="142.795,-139.579 149.963,-131.777 139.494,-133.406 142.795,-139.579"/>
</g>
<!-- Node12 -->
<g id="node12" class="node"><title>Node12</title>
<g id="a_node12"><a xlink:href="a00341.html#gae666d141533126babb0235af21bdca0f" target="_top" xlink:title="Get size of current row&#39;s data in a regular result column. ">
<polygon fill="white" stroke="black" points="429,-17.6706 429,-36.6706 486,-36.6706 486,-17.6706 429,-17.6706"/>
<text text-anchor="middle" x="457.5" y="-24.6706" font-family="Helvetica,sans-Serif" font-size="10.00">dbdatlen</text>
</a>
</g>
</g>
<!-- Node1&#45;&gt;Node12 -->
<g id="edge16" class="edge"><title>Node1&#45;&gt;Node12</title>
<path fill="none" stroke="midnightblue" d="M37.7099,-207.475C46.2318,-186.255 69.0382,-135.056 102,-103.171 164.768,-42.4531 189.435,-29.972 274,-8.17065 325.214,5.03279 340.669,-0.50939 393,-8.17065 402.183,-9.51496 411.882,-11.8979 420.86,-14.5317"/>
<polygon fill="midnightblue" stroke="midnightblue" points="420.037,-17.9411 430.626,-17.57 422.117,-11.2571 420.037,-17.9411"/>
</g>
<!-- Node5&#45;&gt;Node2 -->
<g id="edge5" class="edge"><title>Node5&#45;&gt;Node2</title>
<path fill="none" stroke="midnightblue" d="M475.633,-207.501C491.545,-198.522 515.456,-185.027 533.68,-174.742"/>
<polygon fill="midnightblue" stroke="midnightblue" points="535.631,-177.66 542.62,-169.697 532.191,-171.564 535.631,-177.66"/>
</g>
<!-- Node7&#45;&gt;Node2 -->
<g id="edge8" class="edge"><title>Node7&#45;&gt;Node2</title>
<path fill="none" stroke="midnightblue" d="M190.545,-131.757C210.841,-141.137 243.791,-154.776 274,-160.171 356.453,-174.895 454.451,-170.181 511.545,-165.275"/>
<polygon fill="midnightblue" stroke="midnightblue" points="512.07,-168.742 521.717,-164.361 511.444,-161.77 512.07,-168.742"/>
</g>
<!-- Node8 -->
<g id="node8" class="node"><title>Node8</title>
<g id="a_node8"><a xlink:href="a00193.html#aa70b02ff34ac03040ca41f13d5fd35bd" target="_top" xlink:title="Return the number of bytes needed by specified type. ">
<polygon fill="white" stroke="black" points="274,-131.671 274,-150.671 393,-150.671 393,-131.671 274,-131.671"/>
<text text-anchor="middle" x="333.5" y="-138.671" font-family="Helvetica,sans-Serif" font-size="10.00">tds_get_size_by_type</text>
</a>
</g>
</g>
<!-- Node7&#45;&gt;Node8 -->
<g id="edge9" class="edge"><title>Node7&#45;&gt;Node8</title>
<path fill="none" stroke="midnightblue" d="M201.757,-125.789C219.297,-127.853 242.024,-130.526 263.598,-133.065"/>
<polygon fill="midnightblue" stroke="midnightblue" points="263.396,-136.565 273.736,-134.257 264.214,-129.613 263.396,-136.565"/>
</g>
<!-- Node9 -->
<g id="node9" class="node"><title>Node9</title>
<g id="a_node9"><a xlink:href="a00235.html#aea6a865806d454280126de940478c214" target="_top" xlink:title="dbgetnull">
<polygon fill="white" stroke="black" points="304,-93.6706 304,-112.671 363,-112.671 363,-93.6706 304,-93.6706"/>
<text text-anchor="middle" x="333.5" y="-100.671" font-family="Helvetica,sans-Serif" font-size="10.00">dbgetnull</text>
</a>
</g>
</g>
<!-- Node7&#45;&gt;Node9 -->
<g id="edge10" class="edge"><title>Node7&#45;&gt;Node9</title>
<path fill="none" stroke="midnightblue" d="M201.757,-118.552C227.807,-115.488 265.3,-111.077 293.462,-107.763"/>
<polygon fill="midnightblue" stroke="midnightblue" points="294.233,-111.197 303.756,-106.552 293.415,-104.245 294.233,-111.197"/>
</g>
<!-- Node10 -->
<g id="node10" class="node"><title>Node10</title>
<g id="a_node10"><a xlink:href="a00347.html#ga302a4ce6559b81808e3be51615cd1b67" target="_top" xlink:title="Call client&#45;installed error handler. ">
<polygon fill="white" stroke="black" points="429,-93.6706 429,-112.671 486,-112.671 486,-93.6706 429,-93.6706"/>
<text text-anchor="middle" x="457.5" y="-100.671" font-family="Helvetica,sans-Serif" font-size="10.00">dbperror</text>
</a>
</g>
</g>
<!-- Node7&#45;&gt;Node10 -->
<g id="edge14" class="edge"><title>Node7&#45;&gt;Node10</title>
<path fill="none" stroke="midnightblue" d="M190.545,-112.584C210.841,-103.204 243.791,-89.5654 274,-84.1706 326.065,-74.8727 340.669,-76.5094 393,-84.1706 402.183,-85.515 411.882,-87.8979 420.86,-90.5317"/>
<polygon fill="midnightblue" stroke="midnightblue" points="420.037,-93.9411 430.626,-93.57 422.117,-87.2571 420.037,-93.9411"/>
</g>
<!-- Node11 -->
<g id="node11" class="node"><title>Node11</title>
<g id="a_node11"><a xlink:href="a00353.html#gaa865e08f7ad70ef92b111c2ea3657457" target="_top" xlink:title="tds_convert convert a type to another. ">
<polygon fill="white" stroke="black" points="297.5,-17.6706 297.5,-36.6706 369.5,-36.6706 369.5,-17.6706 297.5,-17.6706"/>
<text text-anchor="middle" x="333.5" y="-24.6706" font-family="Helvetica,sans-Serif" font-size="10.00">tds_convert</text>
</a>
</g>
</g>
<!-- Node7&#45;&gt;Node11 -->
<g id="edge15" class="edge"><title>Node7&#45;&gt;Node11</title>
<path fill="none" stroke="midnightblue" d="M183.131,-112.522C201.847,-97.9404 239.243,-69.9971 274,-51.1706 281.058,-47.3473 288.858,-43.75 296.399,-40.5615"/>
<polygon fill="midnightblue" stroke="midnightblue" points="297.798,-43.7708 305.737,-36.7552 295.156,-37.2886 297.798,-43.7708"/>
</g>
<!-- Node9&#45;&gt;Node2 -->
<g id="edge11" class="edge"><title>Node9&#45;&gt;Node2</title>
<path fill="none" stroke="midnightblue" d="M363.454,-110.506C400.971,-120.01 466.887,-136.709 511.836,-148.096"/>
<polygon fill="midnightblue" stroke="midnightblue" points="511.1,-151.52 521.654,-150.583 512.819,-144.734 511.1,-151.52"/>
</g>
<!-- Node9&#45;&gt;Node10 -->
<g id="edge12" class="edge"><title>Node9&#45;&gt;Node10</title>
<path fill="none" stroke="midnightblue" d="M363.104,-103.171C379.706,-103.171 400.819,-103.171 418.77,-103.171"/>
<polygon fill="midnightblue" stroke="midnightblue" points="418.915,-106.671 428.915,-103.171 418.915,-99.6707 418.915,-106.671"/>
</g>
<!-- Node10&#45;&gt;Node2 -->
<g id="edge13" class="edge"><title>Node10&#45;&gt;Node2</title>
<path fill="none" stroke="midnightblue" d="M475.633,-112.84C491.545,-121.82 515.456,-135.314 533.68,-145.599"/>
<polygon fill="midnightblue" stroke="midnightblue" points="532.191,-148.777 542.62,-150.644 535.631,-142.681 532.191,-148.777"/>
</g>
<!-- Node12&#45;&gt;Node2 -->
<g id="edge17" class="edge"><title>Node12&#45;&gt;Node2</title>
<path fill="none" stroke="midnightblue" d="M465.764,-36.7357C482.497,-58.7713 523.99,-113.41 545.724,-142.03"/>
<polygon fill="midnightblue" stroke="midnightblue" points="543.194,-144.486 552.03,-150.333 548.769,-140.253 543.194,-144.486"/>
</g>
</g>
</svg>
