<?xml version="1.0" encoding="UTF-8" standalone="no"?>
<!DOCTYPE svg PUBLIC "-//W3C//DTD SVG 1.1//EN"
 "http://www.w3.org/Graphics/SVG/1.1/DTD/svg11.dtd">
<!-- Generated by graphviz version 2.38.0 (20140413.2041)
 -->
<!-- Title: bcp_control Pages: 1 -->
<svg width="285pt" height="47pt"
 viewBox="0.00 0.00 285.00 47.00" xmlns="http://www.w3.org/2000/svg" xmlns:xlink="http://www.w3.org/1999/xlink">
<g id="graph0" class="graph" transform="scale(1 1) rotate(0) translate(4 43)">
<title>bcp_control</title>
<polygon fill="white" stroke="none" points="-4,4 -4,-43 281,-43 281,4 -4,4"/>
<!-- Node1 -->
<g id="node1" class="node"><title>Node1</title>
<polygon fill="#bfbfbf" stroke="black" points="0,-19.5 0,-38.5 71,-38.5 71,-19.5 0,-19.5"/>
<text text-anchor="middle" x="35.5" y="-26.5" font-family="Helvetica,sans-Serif" font-size="10.00">bcp_control</text>
</g>
<!-- Node2 -->
<g id="node2" class="node"><title>Node2</title>
<g id="a_node2"><a xlink:href="a00193.html#ab45c291105027e69836002e1dd586141" target="_top" xlink:title="Write a message to the debug log. ">
<polygon fill="white" stroke="black" points="200,-19.5 200,-38.5 277,-38.5 277,-19.5 200,-19.5"/>
<text text-anchor="middle" x="238.5" y="-26.5" font-family="Helvetica,sans-Serif" font-size="10.00">tdsdump_log</text>
</a>
</g>
</g>
<!-- Node1&#45;&gt;Node2 -->
<g id="edge1" class="edge"><title>Node1&#45;&gt;Node2</title>
<path fill="none" stroke="midnightblue" d="M71.0531,-29C103.744,-29 153.103,-29 189.588,-29"/>
<polygon fill="midnightblue" stroke="midnightblue" points="189.988,-32.5001 199.988,-29 189.988,-25.5001 189.988,-32.5001"/>
</g>
<!-- Node3 -->
<g id="node3" class="node"><title>Node3</title>
<g id="a_node3"><a xlink:href="a00347.html#ga302a4ce6559b81808e3be51615cd1b67" target="_top" xlink:title="Call client&#45;installed error handler. ">
<polygon fill="white" stroke="black" points="107,-0.5 107,-19.5 164,-19.5 164,-0.5 107,-0.5"/>
<text text-anchor="middle" x="135.5" y="-7.5" font-family="Helvetica,sans-Serif" font-size="10.00">dbperror</text>
</a>
</g>
</g>
<!-- Node1&#45;&gt;Node3 -->
<g id="edge2" class="edge"><title>Node1&#45;&gt;Node3</title>
<path fill="none" stroke="midnightblue" d="M71.0511,-22.3013C79.3568,-20.691 88.2707,-18.9628 96.715,-17.3257"/>
<polygon fill="midnightblue" stroke="midnightblue" points="97.5589,-20.7273 106.71,-15.3879 96.2266,-13.8553 97.5589,-20.7273"/>
</g>
<!-- Node3&#45;&gt;Node2 -->
<g id="edge3" class="edge"><title>Node3&#45;&gt;Node2</title>
<path fill="none" stroke="midnightblue" d="M164.099,-15.1918C172.077,-16.6926 181.022,-18.3755 189.851,-20.0363"/>
<polygon fill="midnightblue" stroke="midnightblue" points="189.237,-23.4822 199.712,-21.8913 190.531,-16.6028 189.237,-23.4822"/>
</g>
</g>
</svg>
