<?xml version="1.0" encoding="UTF-8" standalone="no"?>
<!DOCTYPE svg PUBLIC "-//W3C//DTD SVG 1.1//EN"
 "http://www.w3.org/Graphics/SVG/1.1/DTD/svg11.dtd">
<!-- Generated by graphviz version 2.38.0 (20140413.2041)
 -->
<!-- Title: _cs_objdata Pages: 1 -->
<svg width="749pt" height="398pt"
 viewBox="0.00 0.00 749.00 398.00" xmlns="http://www.w3.org/2000/svg" xmlns:xlink="http://www.w3.org/1999/xlink">
<g id="graph0" class="graph" transform="scale(1 1) rotate(0) translate(4 394)">
<title>_cs_objdata</title>
<polygon fill="white" stroke="none" points="-4,4 -4,-394 745,-394 745,4 -4,4"/>
<!-- Node1 -->
<g id="node1" class="node"><title>Node1</title>
<polygon fill="#bfbfbf" stroke="black" points="62.5,-0.5 62.5,-19.5 136.5,-19.5 136.5,-0.5 62.5,-0.5"/>
<text text-anchor="middle" x="99.5" y="-7.5" font-family="Helvetica,sans-Serif" font-size="10.00">_cs_objdata</text>
</g>
<!-- Node2 -->
<g id="node2" class="node"><title>Node2</title>
<g id="a_node2"><a xlink:href="a00004.html" target="_top" xlink:title="_cs_command">
<polygon fill="white" stroke="black" points="141,-236.5 141,-255.5 226,-255.5 226,-236.5 141,-236.5"/>
<text text-anchor="middle" x="183.5" y="-243.5" font-family="Helvetica,sans-Serif" font-size="10.00">_cs_command</text>
</a>
</g>
</g>
<!-- Node2&#45;&gt;Node1 -->
<g id="edge1" class="edge"><title>Node2&#45;&gt;Node1</title>
<path fill="none" stroke="#9a32cd" stroke-dasharray="5,2" d="M155.866,-231.022C150.04,-227.295 144.232,-222.915 139.5,-218 111.207,-188.611 104.837,-177.463 94.5,-138 83.1493,-94.6686 92.9441,-40.2006 97.4863,-19.5047"/>
<polygon fill="#9a32cd" stroke="#9a32cd" points="154.491,-234.274 164.885,-236.327 158.04,-228.24 154.491,-234.274"/>
<text text-anchor="middle" x="119" y="-119" font-family="Helvetica,sans-Serif" font-size="10.00"> command</text>
</g>
<!-- Node10 -->
<g id="node10" class="node"><title>Node10</title>
<g id="a_node10"><a xlink:href="a00005.html" target="_top" xlink:title="_cs_command_list">
<polygon fill="white" stroke="black" points="162.5,-163 162.5,-182 266.5,-182 266.5,-163 162.5,-163"/>
<text text-anchor="middle" x="214.5" y="-170" font-family="Helvetica,sans-Serif" font-size="10.00">_cs_command_list</text>
</a>
</g>
</g>
<!-- Node2&#45;&gt;Node10 -->
<g id="edge16" class="edge"><title>Node2&#45;&gt;Node10</title>
<path fill="none" stroke="#9a32cd" stroke-dasharray="5,2" d="M191.335,-226.929C197.514,-212.678 205.865,-193.417 210.668,-182.339"/>
<polygon fill="#9a32cd" stroke="#9a32cd" points="188.068,-225.666 187.301,-236.233 194.49,-228.45 188.068,-225.666"/>
<text text-anchor="middle" x="212" y="-210" font-family="Helvetica,sans-Serif" font-size="10.00"> cmd</text>
</g>
<!-- Node3 -->
<g id="node3" class="node"><title>Node3</title>
<g id="a_node3"><a xlink:href="a00014.html" target="_top" xlink:title="_cs_iodesc">
<polygon fill="white" stroke="black" points="37.5,-303.5 37.5,-322.5 107.5,-322.5 107.5,-303.5 37.5,-303.5"/>
<text text-anchor="middle" x="72.5" y="-310.5" font-family="Helvetica,sans-Serif" font-size="10.00">_cs_iodesc</text>
</a>
</g>
</g>
<!-- Node3&#45;&gt;Node2 -->
<g id="edge2" class="edge"><title>Node3&#45;&gt;Node2</title>
<path fill="none" stroke="#9a32cd" stroke-dasharray="5,2" d="M96.2112,-298.115C118.203,-285.237 150.241,-266.476 168.767,-255.627"/>
<polygon fill="#9a32cd" stroke="#9a32cd" points="94.3306,-295.16 87.47,-303.234 97.8679,-301.201 94.3306,-295.16"/>
<text text-anchor="middle" x="152.5" y="-277" font-family="Helvetica,sans-Serif" font-size="10.00"> iodesc</text>
</g>
<!-- Node4 -->
<g id="node4" class="node"><title>Node4</title>
<g id="a_node4"><a xlink:href="a00015.html" target="_top" xlink:title="_cs_locale">
<polygon fill="white" stroke="black" points="0,-370.5 0,-389.5 67,-389.5 67,-370.5 0,-370.5"/>
<text text-anchor="middle" x="33.5" y="-377.5" font-family="Helvetica,sans-Serif" font-size="10.00">_cs_locale</text>
</a>
</g>
</g>
<!-- Node4&#45;&gt;Node3 -->
<g id="edge3" class="edge"><title>Node4&#45;&gt;Node3</title>
<path fill="none" stroke="#9a32cd" stroke-dasharray="5,2" d="M43.9792,-361.535C51.5301,-348.95 61.3957,-332.507 67.3236,-322.627"/>
<polygon fill="#9a32cd" stroke="#9a32cd" points="40.9035,-359.858 38.7597,-370.234 46.9059,-363.46 40.9035,-359.858"/>
<text text-anchor="middle" x="71" y="-344" font-family="Helvetica,sans-Serif" font-size="10.00"> locale</text>
</g>
<!-- Node9 -->
<g id="node9" class="node"><title>Node9</title>
<g id="a_node9"><a xlink:href="a00007.html" target="_top" xlink:title="_cs_connection">
<polygon fill="white" stroke="black" points="243,-67.5 243,-86.5 334,-86.5 334,-67.5 243,-67.5"/>
<text text-anchor="middle" x="288.5" y="-74.5" font-family="Helvetica,sans-Serif" font-size="10.00">_cs_connection</text>
</a>
</g>
</g>
<!-- Node4&#45;&gt;Node9 -->
<g id="edge17" class="edge"><title>Node4&#45;&gt;Node9</title>
<path fill="none" stroke="#9a32cd" stroke-dasharray="5,2" d="M28.9651,-360.449C25.9335,-344.853 23.3529,-322.11 28.5,-303 54.9663,-204.736 60.3422,-163.661 143.5,-105 159.245,-93.8929 206.592,-86.5137 242.942,-82.318"/>
<polygon fill="#9a32cd" stroke="#9a32cd" points="25.5842,-361.371 31.1482,-370.387 32.4212,-359.869 25.5842,-361.371"/>
<text text-anchor="middle" x="63" y="-243.5" font-family="Helvetica,sans-Serif" font-size="10.00"> locale</text>
</g>
<!-- Node5 -->
<g id="node5" class="node"><title>Node5</title>
<g id="a_node5"><a xlink:href="a00021.html" target="_top" xlink:title="_cs_param">
<polygon fill="white" stroke="black" points="221,-370.5 221,-389.5 290,-389.5 290,-370.5 221,-370.5"/>
<text text-anchor="middle" x="255.5" y="-377.5" font-family="Helvetica,sans-Serif" font-size="10.00">_cs_param</text>
</a>
</g>
</g>
<!-- Node5&#45;&gt;Node2 -->
<g id="edge4" class="edge"><title>Node5&#45;&gt;Node2</title>
<path fill="none" stroke="#9a32cd" stroke-dasharray="5,2" d="M250.471,-360.526C245.75,-344.685 237.864,-321.552 227.5,-303 217.248,-284.65 201.209,-265.976 191.59,-255.501"/>
<polygon fill="#9a32cd" stroke="#9a32cd" points="247.116,-361.526 253.226,-370.182 253.848,-359.605 247.116,-361.526"/>
<text text-anchor="middle" x="271" y="-310.5" font-family="Helvetica,sans-Serif" font-size="10.00"> input_params</text>
</g>
<!-- Node5&#45;&gt;Node5 -->
<g id="edge5" class="edge"><title>Node5&#45;&gt;Node5</title>
<path fill="none" stroke="#9a32cd" stroke-dasharray="5,2" d="M300.19,-384.995C304.946,-384.028 308,-382.363 308,-380 308,-376.219 300.181,-374.225 290.086,-374.018"/>
<polygon fill="#9a32cd" stroke="#9a32cd" points="299.699,-381.527 290.086,-385.982 300.379,-388.494 299.699,-381.527"/>
<text text-anchor="middle" x="320" y="-377.5" font-family="Helvetica,sans-Serif" font-size="10.00"> next</text>
</g>
<!-- Node6 -->
<g id="node6" class="node"><title>Node6</title>
<g id="a_node6"><a xlink:href="a00013.html" target="_top" xlink:title="_cs_dynamic">
<polygon fill="white" stroke="black" points="466.5,-303.5 466.5,-322.5 544.5,-322.5 544.5,-303.5 466.5,-303.5"/>
<text text-anchor="middle" x="505.5" y="-310.5" font-family="Helvetica,sans-Serif" font-size="10.00">_cs_dynamic</text>
</a>
</g>
</g>
<!-- Node5&#45;&gt;Node6 -->
<g id="edge9" class="edge"><title>Node5&#45;&gt;Node6</title>
<path fill="none" stroke="#9a32cd" stroke-dasharray="5,2" d="M298.177,-367.904C347.517,-355.076 427.669,-334.236 472.487,-322.583"/>
<polygon fill="#9a32cd" stroke="#9a32cd" points="297.238,-364.532 288.44,-370.436 298.999,-371.307 297.238,-364.532"/>
<text text-anchor="middle" x="421.5" y="-344" font-family="Helvetica,sans-Serif" font-size="10.00"> param_list</text>
</g>
<!-- Node14 -->
<g id="node14" class="node"><title>Node14</title>
<g id="a_node14"><a xlink:href="a00025.html" target="_top" xlink:title="_csremote_proc">
<polygon fill="white" stroke="black" points="126,-303.5 126,-322.5 219,-322.5 219,-303.5 126,-303.5"/>
<text text-anchor="middle" x="172.5" y="-310.5" font-family="Helvetica,sans-Serif" font-size="10.00">_csremote_proc</text>
</a>
</g>
</g>
<!-- Node5&#45;&gt;Node14 -->
<g id="edge27" class="edge"><title>Node5&#45;&gt;Node14</title>
<path fill="none" stroke="#9a32cd" stroke-dasharray="5,2" d="M211.615,-366.568C203.579,-362.837 195.765,-358.066 189.5,-352 181.192,-343.957 176.628,-331.124 174.374,-322.63"/>
<polygon fill="#9a32cd" stroke="#9a32cd" points="210.494,-369.892 221.072,-370.485 213.172,-363.425 210.494,-369.892"/>
<text text-anchor="middle" x="215.5" y="-344" font-family="Helvetica,sans-Serif" font-size="10.00"> param_list</text>
</g>
<!-- Node6&#45;&gt;Node2 -->
<g id="edge6" class="edge"><title>Node6&#45;&gt;Node2</title>
<path fill="none" stroke="#9a32cd" stroke-dasharray="5,2" d="M459.315,-301.098C425.191,-293.184 377.555,-282.431 335.5,-274 298.709,-266.624 256.699,-259.241 226.182,-254.064"/>
<polygon fill="#9a32cd" stroke="#9a32cd" points="458.917,-304.599 469.45,-303.457 460.504,-297.781 458.917,-304.599"/>
<text text-anchor="middle" x="398" y="-277" font-family="Helvetica,sans-Serif" font-size="10.00"> dyn</text>
</g>
<!-- Node6&#45;&gt;Node6 -->
<g id="edge10" class="edge"><title>Node6&#45;&gt;Node6</title>
<path fill="none" stroke="#9a32cd" stroke-dasharray="5,2" d="M554.775,-317.846C559.505,-316.862 562.5,-315.246 562.5,-313 562.5,-309.406 554.832,-307.427 544.662,-307.062"/>
<polygon fill="#9a32cd" stroke="#9a32cd" points="554.229,-314.385 544.662,-318.938 554.98,-321.345 554.229,-314.385"/>
<text text-anchor="middle" x="574.5" y="-310.5" font-family="Helvetica,sans-Serif" font-size="10.00"> next</text>
</g>
<!-- Node6&#45;&gt;Node9 -->
<g id="edge25" class="edge"><title>Node6&#45;&gt;Node9</title>
<path fill="none" stroke="#9a32cd" stroke-dasharray="5,2" d="M510.269,-293.605C517.18,-262.706 526.504,-199.5 500.5,-156 466.694,-99.4485 385.957,-83.5291 334.446,-79.2668"/>
<polygon fill="#9a32cd" stroke="#9a32cd" points="506.841,-292.889 507.902,-303.431 513.647,-294.528 506.841,-292.889"/>
<text text-anchor="middle" x="534.5" y="-210" font-family="Helvetica,sans-Serif" font-size="10.00"> dynlist</text>
</g>
<!-- Node7 -->
<g id="node7" class="node"><title>Node7</title>
<g id="a_node7"><a xlink:href="a00118.html" target="_top" xlink:title="Holds information for a dynamic (also called prepared) query. ">
<polygon fill="white" stroke="red" points="542.5,-370.5 542.5,-389.5 618.5,-389.5 618.5,-370.5 542.5,-370.5"/>
<text text-anchor="middle" x="580.5" y="-377.5" font-family="Helvetica,sans-Serif" font-size="10.00">tds_dynamic</text>
</a>
</g>
</g>
<!-- Node7&#45;&gt;Node6 -->
<g id="edge7" class="edge"><title>Node7&#45;&gt;Node6</title>
<path fill="none" stroke="#9a32cd" stroke-dasharray="5,2" d="M562.45,-363.356C547.705,-350.578 527.413,-332.992 515.455,-322.627"/>
<polygon fill="#9a32cd" stroke="#9a32cd" points="560.536,-366.329 570.385,-370.234 565.121,-361.04 560.536,-366.329"/>
<text text-anchor="middle" x="564" y="-344" font-family="Helvetica,sans-Serif" font-size="10.00"> tdsdyn</text>
</g>
<!-- Node7&#45;&gt;Node7 -->
<g id="edge8" class="edge"><title>Node7&#45;&gt;Node7</title>
<path fill="none" stroke="#9a32cd" stroke-dasharray="5,2" d="M628.789,-384.872C633.506,-383.89 636.5,-382.266 636.5,-380 636.5,-376.375 628.835,-374.393 618.714,-374.053"/>
<polygon fill="#9a32cd" stroke="#9a32cd" points="628.286,-381.406 618.714,-385.947 629.029,-388.366 628.286,-381.406"/>
<text text-anchor="middle" x="648.5" y="-377.5" font-family="Helvetica,sans-Serif" font-size="10.00"> next</text>
</g>
<!-- Node11 -->
<g id="node11" class="node"><title>Node11</title>
<g id="a_node11"><a xlink:href="a00148.html" target="_top" xlink:title="Information for a server connection. ">
<polygon fill="white" stroke="red" points="568.5,-236.5 568.5,-255.5 636.5,-255.5 636.5,-236.5 568.5,-236.5"/>
<text text-anchor="middle" x="602.5" y="-243.5" font-family="Helvetica,sans-Serif" font-size="10.00">tds_socket</text>
</a>
</g>
</g>
<!-- Node7&#45;&gt;Node11 -->
<g id="edge20" class="edge"><title>Node7&#45;&gt;Node11</title>
<path fill="none" stroke="#9a32cd" stroke-dasharray="5,2" d="M586.226,-360.765C589.426,-349.901 593.217,-335.781 595.5,-323 599.788,-298.999 601.528,-270.238 602.168,-255.958"/>
<polygon fill="#9a32cd" stroke="#9a32cd" points="582.865,-359.787 583.302,-370.373 589.562,-361.826 582.865,-359.787"/>
<text text-anchor="middle" x="618" y="-310.5" font-family="Helvetica,sans-Serif" font-size="10.00"> cur_dyn</text>
</g>
<!-- Node8 -->
<g id="node8" class="node"><title>Node8</title>
<g id="a_node8"><a xlink:href="a00110.html" target="_top" xlink:title="Holds informations about a cursor. ">
<polygon fill="white" stroke="red" points="340.5,-303.5 340.5,-322.5 406.5,-322.5 406.5,-303.5 340.5,-303.5"/>
<text text-anchor="middle" x="373.5" y="-310.5" font-family="Helvetica,sans-Serif" font-size="10.00">tds_cursor</text>
</a>
</g>
</g>
<!-- Node8&#45;&gt;Node2 -->
<g id="edge11" class="edge"><title>Node8&#45;&gt;Node2</title>
<path fill="none" stroke="#9a32cd" stroke-dasharray="5,2" d="M341.406,-299.839C320.918,-292.184 293.747,-282.231 269.5,-274 250.384,-267.511 228.696,-260.706 211.882,-255.551"/>
<polygon fill="#9a32cd" stroke="#9a32cd" points="340.292,-303.16 350.884,-303.395 342.751,-296.606 340.292,-303.16"/>
<text text-anchor="middle" x="315" y="-277" font-family="Helvetica,sans-Serif" font-size="10.00"> cursor</text>
</g>
<!-- Node8&#45;&gt;Node8 -->
<g id="edge12" class="edge"><title>Node8&#45;&gt;Node8</title>
<path fill="none" stroke="#9a32cd" stroke-dasharray="5,2" d="M417.147,-317.946C421.633,-316.972 424.5,-315.323 424.5,-313 424.5,-309.188 416.778,-307.192 406.854,-307.013"/>
<polygon fill="#9a32cd" stroke="#9a32cd" points="416.451,-314.498 406.854,-318.987 417.156,-321.463 416.451,-314.498"/>
<text text-anchor="middle" x="436.5" y="-310.5" font-family="Helvetica,sans-Serif" font-size="10.00"> next</text>
</g>
<!-- Node8&#45;&gt;Node11 -->
<g id="edge21" class="edge"><title>Node8&#45;&gt;Node11</title>
<path fill="none" stroke="#9a32cd" stroke-dasharray="5,2" d="M413.694,-300.591C458.998,-287.732 531.621,-267.118 572.33,-255.564"/>
<polygon fill="#9a32cd" stroke="#9a32cd" points="412.574,-297.271 403.909,-303.369 414.485,-304.005 412.574,-297.271"/>
<text text-anchor="middle" x="529" y="-277" font-family="Helvetica,sans-Serif" font-size="10.00"> cur_cursor</text>
</g>
<!-- Node9&#45;&gt;Node1 -->
<g id="edge28" class="edge"><title>Node9&#45;&gt;Node1</title>
<path fill="none" stroke="#9a32cd" stroke-dasharray="5,2" d="M253.902,-64.1013C216.429,-51.2138 157.575,-30.9728 124.401,-19.5637"/>
<polygon fill="#9a32cd" stroke="#9a32cd" points="252.808,-67.426 263.402,-67.3685 255.084,-60.8065 252.808,-67.426"/>
<text text-anchor="middle" x="233" y="-41" font-family="Helvetica,sans-Serif" font-size="10.00"> connection</text>
</g>
<!-- Node9&#45;&gt;Node2 -->
<g id="edge13" class="edge"><title>Node9&#45;&gt;Node2</title>
<path fill="none" stroke="#9a32cd" stroke-dasharray="5,2" d="M235.051,-89.3534C199.258,-100.034 154.763,-119.977 132.5,-156 114.618,-184.934 151.809,-220.236 171.847,-236.297"/>
<polygon fill="#9a32cd" stroke="#9a32cd" points="236.214,-92.662 244.889,-86.5807 234.315,-85.9244 236.214,-92.662"/>
<text text-anchor="middle" x="143" y="-170" font-family="Helvetica,sans-Serif" font-size="10.00"> con</text>
</g>
<!-- Node10&#45;&gt;Node9 -->
<g id="edge14" class="edge"><title>Node10&#45;&gt;Node9</title>
<path fill="none" stroke="#9a32cd" stroke-dasharray="5,2" d="M226.814,-154.328C236.712,-140.723 251.124,-121.351 264.5,-105 269.583,-98.7866 275.583,-92.0366 280.312,-86.8399"/>
<polygon fill="#9a32cd" stroke="#9a32cd" points="223.772,-152.563 220.751,-162.718 229.445,-156.663 223.772,-152.563"/>
<text text-anchor="middle" x="278.5" y="-119" font-family="Helvetica,sans-Serif" font-size="10.00"> cmds</text>
</g>
<!-- Node10&#45;&gt;Node10 -->
<g id="edge15" class="edge"><title>Node10&#45;&gt;Node10</title>
<path fill="none" stroke="#9a32cd" stroke-dasharray="5,2" d="M276.899,-178.11C281.606,-176.86 284.5,-174.99 284.5,-172.5 284.5,-168.516 277.092,-166.119 266.702,-165.309"/>
<polygon fill="#9a32cd" stroke="#9a32cd" points="276.048,-174.7 266.702,-179.691 277.12,-181.618 276.048,-174.7"/>
<text text-anchor="middle" x="296.5" y="-170" font-family="Helvetica,sans-Serif" font-size="10.00"> next</text>
</g>
<!-- Node11&#45;&gt;Node9 -->
<g id="edge18" class="edge"><title>Node11&#45;&gt;Node9</title>
<path fill="none" stroke="#9a32cd" stroke-dasharray="5,2" d="M599.211,-226.325C592.691,-195.4 575.002,-134.088 533.5,-105 502.312,-83.1411 396.048,-78.6263 334.188,-77.9044"/>
<polygon fill="#9a32cd" stroke="#9a32cd" points="595.791,-227.076 601.131,-236.227 602.663,-225.744 595.791,-227.076"/>
<text text-anchor="middle" x="616" y="-170" font-family="Helvetica,sans-Serif" font-size="10.00"> tds_socket</text>
</g>
<!-- Node12 -->
<g id="node12" class="node"><title>Node12</title>
<g id="a_node12"><a xlink:href="a00129.html" target="_top" xlink:title="tds_login">
<polygon fill="white" stroke="red" points="682,-303.5 682,-322.5 741,-322.5 741,-303.5 682,-303.5"/>
<text text-anchor="middle" x="711.5" y="-310.5" font-family="Helvetica,sans-Serif" font-size="10.00">tds_login</text>
</a>
</g>
</g>
<!-- Node12&#45;&gt;Node9 -->
<g id="edge22" class="edge"><title>Node12&#45;&gt;Node9</title>
<path fill="none" stroke="#9a32cd" stroke-dasharray="5,2" d="M707.837,-293.175C700.887,-261.642 683.182,-197.527 647.5,-156 618.788,-122.585 604.329,-118.83 562.5,-105 521.314,-91.3826 400.8,-83.5024 334.145,-80.0692"/>
<polygon fill="#9a32cd" stroke="#9a32cd" points="704.462,-294.138 709.924,-303.216 711.316,-292.713 704.462,-294.138"/>
<text text-anchor="middle" x="706.5" y="-210" font-family="Helvetica,sans-Serif" font-size="10.00"> tds_login</text>
</g>
<!-- Node12&#45;&gt;Node11 -->
<g id="edge19" class="edge"><title>Node12&#45;&gt;Node11</title>
<path fill="none" stroke="#9a32cd" stroke-dasharray="5,2" d="M687.926,-297.942C666.34,-285.07 635.078,-266.427 616.967,-255.627"/>
<polygon fill="#9a32cd" stroke="#9a32cd" points="686.418,-301.118 696.8,-303.234 690.004,-295.106 686.418,-301.118"/>
<text text-anchor="middle" x="676.5" y="-277" font-family="Helvetica,sans-Serif" font-size="10.00"> login</text>
</g>
<!-- Node13 -->
<g id="node13" class="node"><title>Node13</title>
<g id="a_node13"><a xlink:href="a00008.html" target="_top" xlink:title="_cs_context">
<polygon fill="white" stroke="red" points="326.5,-163 326.5,-182 400.5,-182 400.5,-163 326.5,-163"/>
<text text-anchor="middle" x="363.5" y="-170" font-family="Helvetica,sans-Serif" font-size="10.00">_cs_context</text>
</a>
</g>
</g>
<!-- Node13&#45;&gt;Node9 -->
<g id="edge23" class="edge"><title>Node13&#45;&gt;Node9</title>
<path fill="none" stroke="#9a32cd" stroke-dasharray="5,2" d="M350.218,-154.942C334.188,-134.957 307.838,-102.108 295.405,-86.6078"/>
<polygon fill="#9a32cd" stroke="#9a32cd" points="347.591,-157.261 356.579,-162.871 353.052,-152.881 347.591,-157.261"/>
<text text-anchor="middle" x="372" y="-130" font-family="Helvetica,sans-Serif" font-size="10.00"> ctx</text>
<text text-anchor="middle" x="372" y="-119" font-family="Helvetica,sans-Serif" font-size="10.00">_clientmsg_cb</text>
<text text-anchor="middle" x="372" y="-108" font-family="Helvetica,sans-Serif" font-size="10.00">_servermsg_cb</text>
</g>
<!-- Node13&#45;&gt;Node13 -->
<g id="edge24" class="edge"><title>Node13&#45;&gt;Node13</title>
<path fill="none" stroke="#9a32cd" stroke-dasharray="5,2" d="M410.686,-178.653C415.457,-177.432 418.5,-175.381 418.5,-172.5 418.5,-167.891 410.71,-165.406 400.515,-165.046"/>
<polygon fill="#9a32cd" stroke="#9a32cd" points="409.99,-175.213 400.515,-179.954 410.879,-182.157 409.99,-175.213"/>
<text text-anchor="middle" x="455" y="-181" font-family="Helvetica,sans-Serif" font-size="10.00"> _clientmsg_cb</text>
<text text-anchor="middle" x="455" y="-170" font-family="Helvetica,sans-Serif" font-size="10.00">_servermsg_cb</text>
<text text-anchor="middle" x="455" y="-159" font-family="Helvetica,sans-Serif" font-size="10.00">_cslibmsg_cb</text>
</g>
<!-- Node14&#45;&gt;Node2 -->
<g id="edge26" class="edge"><title>Node14&#45;&gt;Node2</title>
<path fill="none" stroke="#9a32cd" stroke-dasharray="5,2" d="M175.709,-293.037C177.802,-280.67 180.434,-265.12 182.04,-255.627"/>
<polygon fill="#9a32cd" stroke="#9a32cd" points="172.201,-292.79 173.984,-303.234 179.103,-293.958 172.201,-292.79"/>
<text text-anchor="middle" x="189" y="-277" font-family="Helvetica,sans-Serif" font-size="10.00"> rpc</text>
</g>
</g>
</svg>
