<?xml version="1.0" encoding="UTF-8" standalone="no"?>
<!DOCTYPE svg PUBLIC "-//W3C//DTD SVG 1.1//EN"
 "http://www.w3.org/Graphics/SVG/1.1/DTD/svg11.dtd">
<!-- Generated by graphviz version 2.38.0 (20140413.2041)
 -->
<!-- Title: _henv Pages: 1 -->
<svg width="320pt" height="162pt"
 viewBox="0.00 0.00 320.00 162.00" xmlns="http://www.w3.org/2000/svg" xmlns:xlink="http://www.w3.org/1999/xlink">
<g id="graph0" class="graph" transform="scale(1 1) rotate(0) translate(4 158)">
<title>_henv</title>
<polygon fill="white" stroke="none" points="-4,4 -4,-158 316,-158 316,4 -4,4"/>
<!-- Node1 -->
<g id="node1" class="node"><title>Node1</title>
<polygon fill="#bfbfbf" stroke="black" points="121.5,-0.5 121.5,-19.5 167.5,-19.5 167.5,-0.5 121.5,-0.5"/>
<text text-anchor="middle" x="144.5" y="-7.5" font-family="Helvetica,sans-Serif" font-size="10.00">_henv</text>
</g>
<!-- Node2 -->
<g id="node2" class="node"><title>Node2</title>
<g id="a_node2"><a xlink:href="a00109.html" target="_top" xlink:title="tds_context">
<polygon fill="white" stroke="black" points="0,-67.5 0,-86.5 71,-86.5 71,-67.5 0,-67.5"/>
<text text-anchor="middle" x="35.5" y="-74.5" font-family="Helvetica,sans-Serif" font-size="10.00">tds_context</text>
</a>
</g>
</g>
<!-- Node2&#45;&gt;Node1 -->
<g id="edge1" class="edge"><title>Node2&#45;&gt;Node1</title>
<path fill="none" stroke="#9a32cd" stroke-dasharray="5,2" d="M54.3071,-60.926C63.9364,-53.557 76.0231,-44.8287 87.5,-38 99.1686,-31.0573 112.907,-24.5056 123.971,-19.595"/>
<polygon fill="#9a32cd" stroke="#9a32cd" points="51.9741,-58.3069 46.2428,-67.2178 56.2801,-63.8259 51.9741,-58.3069"/>
<text text-anchor="middle" x="106" y="-41" font-family="Helvetica,sans-Serif" font-size="10.00"> tds_ctx</text>
</g>
<!-- Node3 -->
<g id="node3" class="node"><title>Node3</title>
<g id="a_node3"><a xlink:href="a00128.html" target="_top" xlink:title="tds_locale">
<polygon fill="white" stroke="black" points="3,-134.5 3,-153.5 68,-153.5 68,-134.5 3,-134.5"/>
<text text-anchor="middle" x="35.5" y="-141.5" font-family="Helvetica,sans-Serif" font-size="10.00">tds_locale</text>
</a>
</g>
</g>
<!-- Node3&#45;&gt;Node2 -->
<g id="edge2" class="edge"><title>Node3&#45;&gt;Node2</title>
<path fill="none" stroke="#9a32cd" stroke-dasharray="5,2" d="M35.5,-124.037C35.5,-111.67 35.5,-96.1198 35.5,-86.6273"/>
<polygon fill="#9a32cd" stroke="#9a32cd" points="32.0001,-124.234 35.5,-134.234 39.0001,-124.234 32.0001,-124.234"/>
<text text-anchor="middle" x="51" y="-108" font-family="Helvetica,sans-Serif" font-size="10.00"> locale</text>
</g>
<!-- Node4 -->
<g id="node4" class="node"><title>Node4</title>
<g id="a_node4"><a xlink:href="a00036.html" target="_top" xlink:title="_heattr">
<polygon fill="white" stroke="black" points="89.5,-67.5 89.5,-86.5 139.5,-86.5 139.5,-67.5 89.5,-67.5"/>
<text text-anchor="middle" x="114.5" y="-74.5" font-family="Helvetica,sans-Serif" font-size="10.00">_heattr</text>
</a>
</g>
</g>
<!-- Node4&#45;&gt;Node1 -->
<g id="edge3" class="edge"><title>Node4&#45;&gt;Node1</title>
<path fill="none" stroke="#9a32cd" stroke-dasharray="5,2" d="M122.905,-57.79C128.666,-45.3076 136.048,-29.3135 140.518,-19.6273"/>
<polygon fill="#9a32cd" stroke="#9a32cd" points="119.559,-56.6875 118.546,-67.2338 125.914,-59.6209 119.559,-56.6875"/>
<text text-anchor="middle" x="141" y="-41" font-family="Helvetica,sans-Serif" font-size="10.00"> attr</text>
</g>
<!-- Node5 -->
<g id="node5" class="node"><title>Node5</title>
<g id="a_node5"><a xlink:href="a00044.html" target="_top" xlink:title="_sql_errors">
<polygon fill="white" stroke="black" points="158,-67.5 158,-86.5 229,-86.5 229,-67.5 158,-67.5"/>
<text text-anchor="middle" x="193.5" y="-74.5" font-family="Helvetica,sans-Serif" font-size="10.00">_sql_errors</text>
</a>
</g>
</g>
<!-- Node5&#45;&gt;Node1 -->
<g id="edge4" class="edge"><title>Node5&#45;&gt;Node1</title>
<path fill="none" stroke="#9a32cd" stroke-dasharray="5,2" d="M180.612,-58.9037C171.09,-46.2729 158.525,-29.6041 151.004,-19.6273"/>
<polygon fill="#9a32cd" stroke="#9a32cd" points="178.077,-61.3554 186.892,-67.2338 183.667,-57.1417 178.077,-61.3554"/>
<text text-anchor="middle" x="183.5" y="-41" font-family="Helvetica,sans-Serif" font-size="10.00"> errs</text>
</g>
<!-- Node6 -->
<g id="node6" class="node"><title>Node6</title>
<g id="a_node6"><a xlink:href="a00043.html" target="_top" xlink:title="_sql_error">
<polygon fill="white" stroke="black" points="161,-134.5 161,-153.5 226,-153.5 226,-134.5 161,-134.5"/>
<text text-anchor="middle" x="193.5" y="-141.5" font-family="Helvetica,sans-Serif" font-size="10.00">_sql_error</text>
</a>
</g>
</g>
<!-- Node6&#45;&gt;Node5 -->
<g id="edge5" class="edge"><title>Node6&#45;&gt;Node5</title>
<path fill="none" stroke="#9a32cd" stroke-dasharray="5,2" d="M193.5,-124.037C193.5,-111.67 193.5,-96.1198 193.5,-86.6273"/>
<polygon fill="#9a32cd" stroke="#9a32cd" points="190,-124.234 193.5,-134.234 197,-124.234 190,-124.234"/>
<text text-anchor="middle" x="204.5" y="-108" font-family="Helvetica,sans-Serif" font-size="10.00"> errs</text>
</g>
<!-- Node7 -->
<g id="node7" class="node"><title>Node7</title>
<g id="a_node7"><a xlink:href="a00134.html" target="_top" xlink:title="tds_mutex">
<polygon fill="white" stroke="black" points="247,-67.5 247,-86.5 312,-86.5 312,-67.5 247,-67.5"/>
<text text-anchor="middle" x="279.5" y="-74.5" font-family="Helvetica,sans-Serif" font-size="10.00">tds_mutex</text>
</a>
</g>
</g>
<!-- Node7&#45;&gt;Node1 -->
<g id="edge6" class="edge"><title>Node7&#45;&gt;Node1</title>
<path fill="none" stroke="#9a32cd" stroke-dasharray="5,2" d="M252.383,-62.9436C225.644,-50.0691 185.534,-30.7573 162.501,-19.6672"/>
<polygon fill="#9a32cd" stroke="#9a32cd" points="251.045,-66.1838 261.573,-67.3685 254.081,-59.8768 251.045,-66.1838"/>
<text text-anchor="middle" x="230.5" y="-41" font-family="Helvetica,sans-Serif" font-size="10.00"> mtx</text>
</g>
</g>
</svg>
