<?xml version="1.0" encoding="UTF-8" standalone="no"?>
<!DOCTYPE svg PUBLIC "-//W3C//DTD SVG 1.1//EN"
 "http://www.w3.org/Graphics/SVG/1.1/DTD/svg11.dtd">
<!-- Generated by graphviz version 2.38.0 (20140413.2041)
 -->
<!-- Title: _options::pivot_t Pages: 1 -->
<svg width="116pt" height="162pt"
 viewBox="0.00 0.00 115.50 162.00" xmlns="http://www.w3.org/2000/svg" xmlns:xlink="http://www.w3.org/1999/xlink">
<g id="graph0" class="graph" transform="scale(1 1) rotate(0) translate(4 158)">
<title>_options::pivot_t</title>
<polygon fill="white" stroke="none" points="-4,4 -4,-158 111.5,-158 111.5,4 -4,4"/>
<!-- Node1 -->
<g id="node1" class="node"><title>Node1</title>
<polygon fill="#bfbfbf" stroke="black" points="-7.10543e-15,-0.5 -7.10543e-15,-19.5 93,-19.5 93,-0.5 -7.10543e-15,-0.5"/>
<text text-anchor="middle" x="46.5" y="-7.5" font-family="Helvetica,sans-Serif" font-size="10.00">_options::pivot_t</text>
</g>
<!-- Node2 -->
<g id="node2" class="node"><title>Node2</title>
<g id="a_node2"><a xlink:href="a00073.html" target="_top" xlink:title="key_t">
<polygon fill="white" stroke="black" points="64.5,-67.5 64.5,-86.5 106.5,-86.5 106.5,-67.5 64.5,-67.5"/>
<text text-anchor="middle" x="85.5" y="-74.5" font-family="Helvetica,sans-Serif" font-size="10.00">key_t</text>
</a>
</g>
</g>
<!-- Node2&#45;&gt;Node1 -->
<g id="edge1" class="edge"><title>Node2&#45;&gt;Node1</title>
<path fill="none" stroke="#9a32cd" stroke-dasharray="5,2" d="M75.0208,-58.5347C67.4699,-45.9499 57.6043,-29.5072 51.6764,-19.6273"/>
<polygon fill="#9a32cd" stroke="#9a32cd" points="72.0941,-60.4596 80.2403,-67.2338 78.0965,-56.8581 72.0941,-60.4596"/>
<text text-anchor="middle" x="87.5" y="-41" font-family="Helvetica,sans-Serif" font-size="10.00"> col_key</text>
</g>
<!-- Node3 -->
<g id="node3" class="node"><title>Node3</title>
<g id="a_node3"><a xlink:href="a00050.html" target="_top" xlink:title="col_t">
<polygon fill="white" stroke="black" points="27,-134.5 27,-153.5 66,-153.5 66,-134.5 27,-134.5"/>
<text text-anchor="middle" x="46.5" y="-141.5" font-family="Helvetica,sans-Serif" font-size="10.00">col_t</text>
</a>
</g>
</g>
<!-- Node3&#45;&gt;Node1 -->
<g id="edge3" class="edge"><title>Node3&#45;&gt;Node1</title>
<path fill="none" stroke="#9a32cd" stroke-dasharray="5,2" d="M39.8378,-124.376C35.1364,-109.048 30.0729,-86.7159 32.5,-67 34.6061,-49.8923 40.2019,-30.4938 43.6475,-19.6054"/>
<polygon fill="#9a32cd" stroke="#9a32cd" points="36.6134,-125.772 43.0849,-134.161 43.2572,-123.567 36.6134,-125.772"/>
<text text-anchor="middle" x="44" y="-74.5" font-family="Helvetica,sans-Serif" font-size="10.00"> func</text>
</g>
<!-- Node3&#45;&gt;Node2 -->
<g id="edge2" class="edge"><title>Node3&#45;&gt;Node2</title>
<path fill="none" stroke="#9a32cd" stroke-dasharray="5,2" d="M56.9792,-125.535C64.5301,-112.95 74.3957,-96.5072 80.3236,-86.6273"/>
<polygon fill="#9a32cd" stroke="#9a32cd" points="53.9035,-123.858 51.7597,-134.234 59.9059,-127.46 53.9035,-123.858"/>
<text text-anchor="middle" x="80" y="-108" font-family="Helvetica,sans-Serif" font-size="10.00"> keys</text>
</g>
</g>
</svg>
