<?xml version="1.0" encoding="UTF-8" standalone="no"?>
<!DOCTYPE svg PUBLIC "-//W3C//DTD SVG 1.1//EN"
 "http://www.w3.org/Graphics/SVG/1.1/DTD/svg11.dtd">
<!-- Generated by graphviz version 2.38.0 (20140413.2041)
 -->
<!-- Title: _hdbc Pages: 1 -->
<svg width="1092pt" height="598pt"
 viewBox="0.00 0.00 1092.00 598.00" xmlns="http://www.w3.org/2000/svg" xmlns:xlink="http://www.w3.org/1999/xlink">
<g id="graph0" class="graph" transform="scale(1 1) rotate(0) translate(4 594)">
<title>_hdbc</title>
<polygon fill="white" stroke="none" points="-4,4 -4,-594 1088,-594 1088,4 -4,4"/>
<!-- Node1 -->
<g id="node1" class="node"><title>Node1</title>
<polygon fill="#bfbfbf" stroke="black" points="382.5,-193.5 382.5,-212.5 427.5,-212.5 427.5,-193.5 382.5,-193.5"/>
<text text-anchor="middle" x="405" y="-200.5" font-family="Helvetica,sans-Serif" font-size="10.00">_hdbc</text>
</g>
<!-- Node2 -->
<g id="node2" class="node"><title>Node2</title>
<g id="a_node2"><a xlink:href="a00039.html" target="_top" xlink:title="_hstmt">
<polygon fill="white" stroke="black" points="515,-1.5 515,-20.5 563,-20.5 563,-1.5 515,-1.5"/>
<text text-anchor="middle" x="539" y="-8.5" font-family="Helvetica,sans-Serif" font-size="10.00">_hstmt</text>
</a>
</g>
</g>
<!-- Node1&#45;&gt;Node2 -->
<g id="edge22" class="edge"><title>Node1&#45;&gt;Node2</title>
<path fill="none" stroke="#9a32cd" stroke-dasharray="5,2" d="M416.936,-185.076C444.565,-145.901 512.138,-50.0883 532.858,-20.7085"/>
<polygon fill="#9a32cd" stroke="#9a32cd" points="414.009,-183.153 411.106,-193.342 419.73,-187.188 414.009,-183.153"/>
<text text-anchor="middle" x="509" y="-77.5" font-family="Helvetica,sans-Serif" font-size="10.00"> dbc</text>
</g>
<!-- Node2&#45;&gt;Node1 -->
<g id="edge1" class="edge"><title>Node2&#45;&gt;Node1</title>
<path fill="none" stroke="#9a32cd" stroke-dasharray="5,2" d="M504.649,-13.6612C467.637,-17.5045 410.372,-29.8569 383,-69 355.371,-108.51 386.453,-170.554 399.648,-193.283"/>
<polygon fill="#9a32cd" stroke="#9a32cd" points="505.315,-17.1163 514.97,-12.7542 504.702,-10.1432 505.315,-17.1163"/>
<text text-anchor="middle" x="426" y="-83" font-family="Helvetica,sans-Serif" font-size="10.00"> stmt_list</text>
<text text-anchor="middle" x="426" y="-72" font-family="Helvetica,sans-Serif" font-size="10.00">current_statement</text>
</g>
<!-- Node2&#45;&gt;Node2 -->
<g id="edge2" class="edge"><title>Node2&#45;&gt;Node2</title>
<path fill="none" stroke="#9a32cd" stroke-dasharray="5,2" d="M573.425,-16.6249C577.979,-15.6671 581,-13.7922 581,-11 581,-6.41797 572.864,-4.30594 563.17,-4.66391"/>
<polygon fill="#9a32cd" stroke="#9a32cd" points="572.904,-13.1525 563.17,-17.3361 573.388,-20.1358 572.904,-13.1525"/>
<text text-anchor="middle" x="593.5" y="-14" font-family="Helvetica,sans-Serif" font-size="10.00"> prev</text>
<text text-anchor="middle" x="593.5" y="-3" font-family="Helvetica,sans-Serif" font-size="10.00">next</text>
</g>
<!-- Node3 -->
<g id="node3" class="node"><title>Node3</title>
<g id="a_node3"><a xlink:href="a00148.html" target="_top" xlink:title="Information for a server connection. ">
<polygon fill="white" stroke="black" points="650,-293.5 650,-312.5 718,-312.5 718,-293.5 650,-293.5"/>
<text text-anchor="middle" x="684" y="-300.5" font-family="Helvetica,sans-Serif" font-size="10.00">tds_socket</text>
</a>
</g>
</g>
<!-- Node3&#45;&gt;Node1 -->
<g id="edge36" class="edge"><title>Node3&#45;&gt;Node1</title>
<path fill="none" stroke="#9a32cd" stroke-dasharray="5,2" d="M639.707,-296.79C618.535,-292.944 593.42,-286.325 573,-275 548.539,-261.433 552.613,-244.291 528,-231 495.874,-213.652 453.319,-207.448 427.614,-205.231"/>
<polygon fill="#9a32cd" stroke="#9a32cd" points="639.307,-300.272 649.747,-298.464 640.458,-293.367 639.307,-300.272"/>
<text text-anchor="middle" x="600.5" y="-250.5" font-family="Helvetica,sans-Serif" font-size="10.00"> tds_socket</text>
</g>
<!-- Node3&#45;&gt;Node2 -->
<g id="edge3" class="edge"><title>Node3&#45;&gt;Node2</title>
<path fill="none" stroke="#9a32cd" stroke-dasharray="5,2" d="M673.296,-284.397C671.485,-281.29 669.657,-278.069 668,-275 612.761,-172.679 604.557,-144.225 553,-40 549.819,-33.5697 546.196,-26.3263 543.433,-20.8179"/>
<polygon fill="#9a32cd" stroke="#9a32cd" points="670.358,-286.305 678.485,-293.103 676.371,-282.721 670.358,-286.305"/>
<text text-anchor="middle" x="626" y="-139.5" font-family="Helvetica,sans-Serif" font-size="10.00"> tds</text>
</g>
<!-- Node8 -->
<g id="node8" class="node"><title>Node8</title>
<g id="a_node8"><a xlink:href="a00144.html" target="_top" xlink:title="Hold information for any results. ">
<polygon fill="white" stroke="red" points="738,-193.5 738,-212.5 824,-212.5 824,-193.5 738,-193.5"/>
<text text-anchor="middle" x="781" y="-200.5" font-family="Helvetica,sans-Serif" font-size="10.00">tds_result_info</text>
</a>
</g>
</g>
<!-- Node3&#45;&gt;Node8 -->
<g id="edge11" class="edge"><title>Node3&#45;&gt;Node8</title>
<path fill="none" stroke="#9a32cd" stroke-dasharray="5,2" d="M683.715,-283.186C684.484,-267.377 688.069,-245.158 701,-231 710.589,-220.501 724.397,-214.082 737.85,-210.159"/>
<polygon fill="#9a32cd" stroke="#9a32cd" points="680.213,-283.305 683.56,-293.357 687.212,-283.412 680.213,-283.305"/>
<text text-anchor="middle" x="731" y="-250.5" font-family="Helvetica,sans-Serif" font-size="10.00"> attached_to</text>
</g>
<!-- Node4 -->
<g id="node4" class="node"><title>Node4</title>
<g id="a_node4"><a xlink:href="a00129.html" target="_top" xlink:title="tds_login">
<polygon fill="white" stroke="red" points="778.5,-371.5 778.5,-390.5 837.5,-390.5 837.5,-371.5 778.5,-371.5"/>
<text text-anchor="middle" x="808" y="-378.5" font-family="Helvetica,sans-Serif" font-size="10.00">tds_login</text>
</a>
</g>
</g>
<!-- Node4&#45;&gt;Node3 -->
<g id="edge4" class="edge"><title>Node4&#45;&gt;Node3</title>
<path fill="none" stroke="#9a32cd" stroke-dasharray="5,2" d="M807.951,-361.382C806.931,-351.121 803.928,-338.899 796,-331 785.126,-320.165 747.024,-312.616 718.257,-308.308"/>
<polygon fill="#9a32cd" stroke="#9a32cd" points="804.458,-361.622 808.418,-371.449 811.451,-361.298 804.458,-361.622"/>
<text text-anchor="middle" x="820" y="-339.5" font-family="Helvetica,sans-Serif" font-size="10.00"> login</text>
</g>
<!-- Node5 -->
<g id="node5" class="node"><title>Node5</title>
<g id="a_node5"><a xlink:href="a00117.html" target="_top" xlink:title="Structure to hold a string. ">
<polygon fill="white" stroke="black" points="322.5,-570.5 322.5,-589.5 377.5,-589.5 377.5,-570.5 322.5,-570.5"/>
<text text-anchor="middle" x="350" y="-577.5" font-family="Helvetica,sans-Serif" font-size="10.00">tds_dstr</text>
</a>
</g>
</g>
<!-- Node5&#45;&gt;Node1 -->
<g id="edge39" class="edge"><title>Node5&#45;&gt;Node1</title>
<path fill="none" stroke="#9a32cd" stroke-dasharray="5,2" d="M341.601,-560.817C323.557,-519.162 284.851,-414.027 312,-331 328.817,-279.57 375.253,-231.724 395.432,-212.683"/>
<polygon fill="#9a32cd" stroke="#9a32cd" points="338.514,-562.489 345.786,-570.195 344.907,-559.637 338.514,-562.489"/>
<text text-anchor="middle" x="329" y="-345" font-family="Helvetica,sans-Serif" font-size="10.00"> server</text>
<text text-anchor="middle" x="329" y="-334" font-family="Helvetica,sans-Serif" font-size="10.00">dsn</text>
</g>
<!-- Node5&#45;&gt;Node2 -->
<g id="edge27" class="edge"><title>Node5&#45;&gt;Node2</title>
<path fill="none" stroke="#9a32cd" stroke-dasharray="5,2" d="M311.959,-577.587C239.066,-574.561 85.2004,-566.524 66,-552 1.36138,-503.103 0,-463.05 0,-382 0,-382 0,-382 0,-79 0,-26.3707 409.913,-14.5804 514.793,-12.425"/>
<polygon fill="#9a32cd" stroke="#9a32cd" points="311.967,-581.09 322.101,-577.997 312.25,-574.095 311.967,-581.09"/>
<text text-anchor="middle" x="32.5" y="-250.5" font-family="Helvetica,sans-Serif" font-size="10.00"> cursor_name</text>
</g>
<!-- Node5&#45;&gt;Node4 -->
<g id="edge5" class="edge"><title>Node5&#45;&gt;Node4</title>
<path fill="none" stroke="#9a32cd" stroke-dasharray="5,2" d="M387.959,-572.137C410.186,-567.577 438.594,-560.803 463,-552 597.102,-503.628 747.484,-417.699 793.719,-390.501"/>
<polygon fill="#9a32cd" stroke="#9a32cd" points="387.029,-568.754 377.904,-574.137 388.395,-575.619 387.029,-568.754"/>
<text text-anchor="middle" x="808" y="-538.5" font-family="Helvetica,sans-Serif" font-size="10.00"> server_realm_name</text>
<text text-anchor="middle" x="808" y="-527.5" font-family="Helvetica,sans-Serif" font-size="10.00">password</text>
<text text-anchor="middle" x="808" y="-516.5" font-family="Helvetica,sans-Serif" font-size="10.00">server_name</text>
<text text-anchor="middle" x="808" y="-505.5" font-family="Helvetica,sans-Serif" font-size="10.00">dump_file</text>
<text text-anchor="middle" x="808" y="-494.5" font-family="Helvetica,sans-Serif" font-size="10.00">library</text>
<text text-anchor="middle" x="808" y="-483.5" font-family="Helvetica,sans-Serif" font-size="10.00">crlfile</text>
<text text-anchor="middle" x="808" y="-472.5" font-family="Helvetica,sans-Serif" font-size="10.00">server_spn</text>
<text text-anchor="start" x="759" y="-461.5" font-family="Helvetica,sans-Serif" font-size="10.00">client_host</text>
<text text-anchor="middle" x="808" y="-450.5" font-family="Helvetica,sans-Serif" font-size="10.00">_name</text>
<text text-anchor="middle" x="808" y="-439.5" font-family="Helvetica,sans-Serif" font-size="10.00">client_charset</text>
<text text-anchor="middle" x="808" y="-428.5" font-family="Helvetica,sans-Serif" font-size="10.00">server_charset</text>
<text text-anchor="middle" x="808" y="-417.5" font-family="Helvetica,sans-Serif" font-size="10.00">...</text>
</g>
<!-- Node13 -->
<g id="node13" class="node"><title>Node13</title>
<g id="a_node13"><a xlink:href="a00038.html" target="_top" xlink:title="_hsattr">
<polygon fill="white" stroke="black" points="1034,-332.5 1034,-351.5 1084,-351.5 1084,-332.5 1034,-332.5"/>
<text text-anchor="middle" x="1059" y="-339.5" font-family="Helvetica,sans-Serif" font-size="10.00">_hsattr</text>
</a>
</g>
</g>
<!-- Node5&#45;&gt;Node13 -->
<g id="edge24" class="edge"><title>Node5&#45;&gt;Node13</title>
<path fill="none" stroke="#9a32cd" stroke-dasharray="5,2" d="M387.578,-578.615C498.333,-577.259 818.417,-571.664 861,-552 960.831,-505.9 1035.31,-384.683 1054.28,-351.502"/>
<polygon fill="#9a32cd" stroke="#9a32cd" points="387.488,-575.116 377.529,-578.734 387.57,-582.116 387.488,-575.116"/>
<text text-anchor="middle" x="1043" y="-483.5" font-family="Helvetica,sans-Serif" font-size="10.00"> qn_msgtext</text>
<text text-anchor="middle" x="1043" y="-472.5" font-family="Helvetica,sans-Serif" font-size="10.00">qn_options</text>
</g>
<!-- Node16 -->
<g id="node16" class="node"><title>Node16</title>
<g id="a_node16"><a xlink:href="a00031.html" target="_top" xlink:title="_drecord">
<polygon fill="white" stroke="black" points="28.5,-371.5 28.5,-390.5 87.5,-390.5 87.5,-371.5 28.5,-371.5"/>
<text text-anchor="middle" x="58" y="-378.5" font-family="Helvetica,sans-Serif" font-size="10.00">_drecord</text>
</a>
</g>
</g>
<!-- Node5&#45;&gt;Node16 -->
<g id="edge31" class="edge"><title>Node5&#45;&gt;Node16</title>
<path fill="none" stroke="#9a32cd" stroke-dasharray="5,2" d="M312.289,-576.392C269.109,-572.827 201.556,-565.303 180,-552 113.534,-510.982 72.6588,-418.954 61.271,-390.528"/>
<polygon fill="#9a32cd" stroke="#9a32cd" points="312.188,-579.895 322.433,-577.195 312.74,-572.917 312.188,-579.895"/>
<text text-anchor="middle" x="240.5" y="-544" font-family="Helvetica,sans-Serif" font-size="10.00"> sql_desc_schema_name</text>
<text text-anchor="middle" x="240.5" y="-533" font-family="Helvetica,sans-Serif" font-size="10.00">sql_desc_name</text>
<text text-anchor="start" x="180" y="-522" font-family="Helvetica,sans-Serif" font-size="10.00">sql_desc_base_column</text>
<text text-anchor="middle" x="240.5" y="-511" font-family="Helvetica,sans-Serif" font-size="10.00">_name</text>
<text text-anchor="start" x="180" y="-500" font-family="Helvetica,sans-Serif" font-size="10.00">sql_desc_base_table</text>
<text text-anchor="middle" x="240.5" y="-489" font-family="Helvetica,sans-Serif" font-size="10.00">_name</text>
<text text-anchor="start" x="180" y="-478" font-family="Helvetica,sans-Serif" font-size="10.00">sql_desc_catalog</text>
<text text-anchor="middle" x="240.5" y="-467" font-family="Helvetica,sans-Serif" font-size="10.00">_name</text>
<text text-anchor="start" x="180" y="-456" font-family="Helvetica,sans-Serif" font-size="10.00">sql_desc_table</text>
<text text-anchor="middle" x="240.5" y="-445" font-family="Helvetica,sans-Serif" font-size="10.00">_name</text>
<text text-anchor="middle" x="240.5" y="-434" font-family="Helvetica,sans-Serif" font-size="10.00">sql_desc_label</text>
<text text-anchor="start" x="180" y="-423" font-family="Helvetica,sans-Serif" font-size="10.00">sql_desc_local</text>
<text text-anchor="middle" x="240.5" y="-412" font-family="Helvetica,sans-Serif" font-size="10.00">_type_name</text>
</g>
<!-- Node18 -->
<g id="node18" class="node"><title>Node18</title>
<g id="a_node18"><a xlink:href="a00032.html" target="_top" xlink:title="_hcattr">
<polygon fill="white" stroke="black" points="397,-332.5 397,-351.5 447,-351.5 447,-332.5 397,-332.5"/>
<text text-anchor="middle" x="422" y="-339.5" font-family="Helvetica,sans-Serif" font-size="10.00">_hcattr</text>
</a>
</g>
</g>
<!-- Node5&#45;&gt;Node18 -->
<g id="edge38" class="edge"><title>Node5&#45;&gt;Node18</title>
<path fill="none" stroke="#9a32cd" stroke-dasharray="5,2" d="M351.964,-560.13C355.706,-528.192 365.305,-461.805 385,-409 393.171,-387.092 407.867,-363.742 416.064,-351.546"/>
<polygon fill="#9a32cd" stroke="#9a32cd" points="348.465,-559.924 350.842,-570.249 355.423,-560.695 348.465,-559.924"/>
<text text-anchor="middle" x="422" y="-483.5" font-family="Helvetica,sans-Serif" font-size="10.00"> translate_lib</text>
<text text-anchor="middle" x="422" y="-472.5" font-family="Helvetica,sans-Serif" font-size="10.00">current_catalog</text>
</g>
<!-- Node6 -->
<g id="node6" class="node"><title>Node6</title>
<g id="a_node6"><a xlink:href="a00138.html" target="_top" xlink:title="tds_packet">
<polygon fill="white" stroke="black" points="640,-371.5 640,-390.5 708,-390.5 708,-371.5 640,-371.5"/>
<text text-anchor="middle" x="674" y="-378.5" font-family="Helvetica,sans-Serif" font-size="10.00">tds_packet</text>
</a>
</g>
</g>
<!-- Node6&#45;&gt;Node3 -->
<g id="edge6" class="edge"><title>Node6&#45;&gt;Node3</title>
<path fill="none" stroke="#9a32cd" stroke-dasharray="5,2" d="M673.065,-360.96C672.952,-351.835 673.309,-340.786 675,-331 676.077,-324.768 678.327,-318.018 680.308,-312.826"/>
<polygon fill="#9a32cd" stroke="#9a32cd" points="669.576,-361.367 673.392,-371.25 676.572,-361.144 669.576,-361.367"/>
<text text-anchor="middle" x="705.5" y="-345" font-family="Helvetica,sans-Serif" font-size="10.00"> recv_packet</text>
<text text-anchor="middle" x="705.5" y="-334" font-family="Helvetica,sans-Serif" font-size="10.00">send_packet</text>
</g>
<!-- Node6&#45;&gt;Node6 -->
<g id="edge7" class="edge"><title>Node6&#45;&gt;Node6</title>
<path fill="none" stroke="#9a32cd" stroke-dasharray="5,2" d="M718.148,-386.96C722.925,-385.816 726,-383.83 726,-381 726,-376.473 718.127,-374.103 708.008,-373.891"/>
<polygon fill="#9a32cd" stroke="#9a32cd" points="717.551,-383.506 708.008,-388.109 718.339,-390.461 717.551,-383.506"/>
<text text-anchor="middle" x="738" y="-378.5" font-family="Helvetica,sans-Serif" font-size="10.00"> next</text>
</g>
<!-- Node7 -->
<g id="node7" class="node"><title>Node7</title>
<g id="a_node7"><a xlink:href="a00118.html" target="_top" xlink:title="Holds information for a dynamic (also called prepared) query. ">
<polygon fill="white" stroke="black" points="814,-70.5 814,-89.5 890,-89.5 890,-70.5 814,-70.5"/>
<text text-anchor="middle" x="852" y="-77.5" font-family="Helvetica,sans-Serif" font-size="10.00">tds_dynamic</text>
</a>
</g>
</g>
<!-- Node7&#45;&gt;Node2 -->
<g id="edge21" class="edge"><title>Node7&#45;&gt;Node2</title>
<path fill="none" stroke="#9a32cd" stroke-dasharray="5,2" d="M845.6,-60.7632C841.949,-53.0787 836.56,-44.8151 829,-40 785.163,-12.0809 624.834,-10.9423 563.285,-11.5796"/>
<polygon fill="#9a32cd" stroke="#9a32cd" points="842.426,-62.2489 849.437,-70.1928 848.91,-59.611 842.426,-62.2489"/>
<text text-anchor="middle" x="850.5" y="-43" font-family="Helvetica,sans-Serif" font-size="10.00"> dyn</text>
</g>
<!-- Node7&#45;&gt;Node3 -->
<g id="edge8" class="edge"><title>Node7&#45;&gt;Node3</title>
<path fill="none" stroke="#9a32cd" stroke-dasharray="5,2" d="M859.219,-99.3562C872.775,-137.217 896.994,-224.639 854,-275 836.877,-295.057 762.556,-300.292 718.047,-301.609"/>
<polygon fill="#9a32cd" stroke="#9a32cd" points="862.378,-97.812 855.591,-89.6762 855.823,-100.269 862.378,-97.812"/>
<text text-anchor="middle" x="899.5" y="-200.5" font-family="Helvetica,sans-Serif" font-size="10.00"> cur_dyn</text>
</g>
<!-- Node7&#45;&gt;Node7 -->
<g id="edge9" class="edge"><title>Node7&#45;&gt;Node7</title>
<path fill="none" stroke="#9a32cd" stroke-dasharray="5,2" d="M900.289,-85.1765C905.006,-84.1327 908,-82.4072 908,-80 908,-76.1484 900.335,-74.0421 890.214,-73.681"/>
<polygon fill="#9a32cd" stroke="#9a32cd" points="899.756,-81.7144 890.214,-86.319 900.545,-88.6698 899.756,-81.7144"/>
<text text-anchor="middle" x="920" y="-77.5" font-family="Helvetica,sans-Serif" font-size="10.00"> next</text>
</g>
<!-- Node10 -->
<g id="node10" class="node"><title>Node10</title>
<g id="a_node10"><a xlink:href="a00108.html" target="_top" xlink:title="tds_connection">
<polygon fill="white" stroke="red" points="883.5,-1.5 883.5,-20.5 972.5,-20.5 972.5,-1.5 883.5,-1.5"/>
<text text-anchor="middle" x="928" y="-8.5" font-family="Helvetica,sans-Serif" font-size="10.00">tds_connection</text>
</a>
</g>
</g>
<!-- Node7&#45;&gt;Node10 -->
<g id="edge18" class="edge"><title>Node7&#45;&gt;Node10</title>
<path fill="none" stroke="#9a32cd" stroke-dasharray="5,2" d="M869.625,-63.4623C884.775,-50.1061 906.061,-31.3412 918.302,-20.5494"/>
<polygon fill="#9a32cd" stroke="#9a32cd" points="867.122,-61.0025 861.936,-70.2409 871.751,-66.2534 867.122,-61.0025"/>
<text text-anchor="middle" x="908" y="-43" font-family="Helvetica,sans-Serif" font-size="10.00"> dyns</text>
</g>
<!-- Node8&#45;&gt;Node2 -->
<g id="edge25" class="edge"><title>Node8&#45;&gt;Node2</title>
<path fill="none" stroke="#9a32cd" stroke-dasharray="5,2" d="M778.693,-182.991C774.261,-154.488 761.976,-100.651 730,-69 684.009,-23.4765 603.294,-14.0457 563.124,-12.269"/>
<polygon fill="#9a32cd" stroke="#9a32cd" points="775.269,-183.781 780.109,-193.205 782.202,-182.82 775.269,-183.781"/>
<text text-anchor="middle" x="767.5" y="-77.5" font-family="Helvetica,sans-Serif" font-size="10.00"> params</text>
</g>
<!-- Node8&#45;&gt;Node3 -->
<g id="edge12" class="edge"><title>Node8&#45;&gt;Node3</title>
<path fill="none" stroke="#9a32cd" stroke-dasharray="5,2" d="M780.356,-222.833C778.835,-238.653 774.263,-260.879 761,-275 749.847,-286.875 733.176,-293.529 718.195,-297.257"/>
<polygon fill="#9a32cd" stroke="#9a32cd" points="783.862,-222.855 781.005,-212.653 776.876,-222.41 783.862,-222.855"/>
<text text-anchor="middle" x="815" y="-267" font-family="Helvetica,sans-Serif" font-size="10.00"> param_info</text>
<text text-anchor="middle" x="815" y="-256" font-family="Helvetica,sans-Serif" font-size="10.00">current_results</text>
<text text-anchor="middle" x="815" y="-245" font-family="Helvetica,sans-Serif" font-size="10.00">res_info</text>
<text text-anchor="middle" x="815" y="-234" font-family="Helvetica,sans-Serif" font-size="10.00">comp_info</text>
</g>
<!-- Node8&#45;&gt;Node7 -->
<g id="edge10" class="edge"><title>Node8&#45;&gt;Node7</title>
<path fill="none" stroke="#9a32cd" stroke-dasharray="5,2" d="M783.627,-183.491C787.223,-163.484 795.249,-131.456 812,-109 817.981,-100.982 826.947,-94.4071 834.875,-89.6478"/>
<polygon fill="#9a32cd" stroke="#9a32cd" points="780.154,-183.046 782.024,-193.475 787.065,-184.157 780.154,-183.046"/>
<text text-anchor="middle" x="833" y="-145" font-family="Helvetica,sans-Serif" font-size="10.00"> res_info</text>
<text text-anchor="middle" x="833" y="-134" font-family="Helvetica,sans-Serif" font-size="10.00">params</text>
</g>
<!-- Node9 -->
<g id="node9" class="node"><title>Node9</title>
<g id="a_node9"><a xlink:href="a00110.html" target="_top" xlink:title="Holds informations about a cursor. ">
<polygon fill="white" stroke="red" points="613,-70.5 613,-89.5 679,-89.5 679,-70.5 613,-70.5"/>
<text text-anchor="middle" x="646" y="-77.5" font-family="Helvetica,sans-Serif" font-size="10.00">tds_cursor</text>
</a>
</g>
</g>
<!-- Node8&#45;&gt;Node9 -->
<g id="edge14" class="edge"><title>Node8&#45;&gt;Node9</title>
<path fill="none" stroke="#9a32cd" stroke-dasharray="5,2" d="M728.044,-191.714C718.107,-187.81 708.499,-182.425 701,-175 678.927,-153.143 695.376,-134.749 678,-109 672.88,-101.412 665.212,-94.606 658.666,-89.6041"/>
<polygon fill="#9a32cd" stroke="#9a32cd" points="727.021,-195.063 737.615,-195.021 729.307,-188.447 727.021,-195.063"/>
<text text-anchor="middle" x="722" y="-139.5" font-family="Helvetica,sans-Serif" font-size="10.00"> res_info</text>
</g>
<!-- Node9&#45;&gt;Node2 -->
<g id="edge26" class="edge"><title>Node9&#45;&gt;Node2</title>
<path fill="none" stroke="#9a32cd" stroke-dasharray="5,2" d="M629.67,-63.6771C620.977,-55.991 609.861,-46.8795 599,-40 586.959,-32.3726 572.505,-25.5649 560.801,-20.5724"/>
<polygon fill="#9a32cd" stroke="#9a32cd" points="627.418,-66.36 637.175,-70.49 632.123,-61.177 627.418,-66.36"/>
<text text-anchor="middle" x="631.5" y="-43" font-family="Helvetica,sans-Serif" font-size="10.00"> cursor</text>
</g>
<!-- Node9&#45;&gt;Node3 -->
<g id="edge13" class="edge"><title>Node9&#45;&gt;Node3</title>
<path fill="none" stroke="#9a32cd" stroke-dasharray="5,2" d="M649.245,-99.8719C657.103,-145.574 676.919,-260.819 682.51,-293.337"/>
<polygon fill="#9a32cd" stroke="#9a32cd" points="652.665,-99.106 647.521,-89.8437 645.766,-100.292 652.665,-99.106"/>
<text text-anchor="middle" x="695.5" y="-200.5" font-family="Helvetica,sans-Serif" font-size="10.00"> cur_cursor</text>
</g>
<!-- Node9&#45;&gt;Node9 -->
<g id="edge15" class="edge"><title>Node9&#45;&gt;Node9</title>
<path fill="none" stroke="#9a32cd" stroke-dasharray="5,2" d="M689.647,-85.2548C694.133,-84.22 697,-82.4684 697,-80 697,-75.9492 689.278,-73.8289 679.354,-73.639"/>
<polygon fill="#9a32cd" stroke="#9a32cd" points="688.923,-81.8123 679.354,-86.361 689.671,-88.7722 688.923,-81.8123"/>
<text text-anchor="middle" x="709" y="-77.5" font-family="Helvetica,sans-Serif" font-size="10.00"> next</text>
</g>
<!-- Node9&#45;&gt;Node10 -->
<g id="edge19" class="edge"><title>Node9&#45;&gt;Node10</title>
<path fill="none" stroke="#9a32cd" stroke-dasharray="5,2" d="M685.355,-67.7161C714.427,-59.5515 755.031,-48.5044 791,-40 821.713,-32.7384 856.561,-25.6314 883.426,-20.3945"/>
<polygon fill="#9a32cd" stroke="#9a32cd" points="684.253,-64.3904 675.58,-70.4749 686.154,-71.1272 684.253,-64.3904"/>
<text text-anchor="middle" x="810" y="-43" font-family="Helvetica,sans-Serif" font-size="10.00"> cursors</text>
</g>
<!-- Node10&#45;&gt;Node3 -->
<g id="edge16" class="edge"><title>Node10&#45;&gt;Node3</title>
<path fill="none" stroke="#9a32cd" stroke-dasharray="5,2" d="M933.342,-30.5595C936.246,-41.6169 939.535,-55.9888 941,-69 942.094,-78.7164 941.676,-81.2456 941,-91 935.031,-177.089 953.004,-230.612 879,-275 852.622,-290.822 766.933,-297.743 718.38,-300.457"/>
<polygon fill="#9a32cd" stroke="#9a32cd" points="936.679,-29.4921 930.65,-20.78 929.93,-31.3504 936.679,-29.4921"/>
<text text-anchor="middle" x="953.5" y="-139.5" font-family="Helvetica,sans-Serif" font-size="10.00"> conn</text>
</g>
<!-- Node11 -->
<g id="node11" class="node"><title>Node11</title>
<g id="a_node11"><a xlink:href="a00109.html" target="_top" xlink:title="tds_context">
<polygon fill="white" stroke="red" points="895.5,-371.5 895.5,-390.5 966.5,-390.5 966.5,-371.5 895.5,-371.5"/>
<text text-anchor="middle" x="931" y="-378.5" font-family="Helvetica,sans-Serif" font-size="10.00">tds_context</text>
</a>
</g>
</g>
<!-- Node11&#45;&gt;Node10 -->
<g id="edge17" class="edge"><title>Node11&#45;&gt;Node10</title>
<path fill="none" stroke="#9a32cd" stroke-dasharray="5,2" d="M954.952,-365.963C974.185,-352.695 998,-330.846 998,-304 998,-304 998,-304 998,-79 998,-51.0749 968.567,-31.1936 947.872,-20.666"/>
<polygon fill="#9a32cd" stroke="#9a32cd" points="953.009,-363.052 946.54,-371.443 956.829,-368.918 953.009,-363.052"/>
<text text-anchor="middle" x="1016.5" y="-200.5" font-family="Helvetica,sans-Serif" font-size="10.00"> tds_ctx</text>
</g>
<!-- Node19 -->
<g id="node19" class="node"><title>Node19</title>
<g id="a_node19"><a xlink:href="a00037.html" target="_top" xlink:title="_henv">
<polygon fill="white" stroke="black" points="442,-293.5 442,-312.5 488,-312.5 488,-293.5 442,-293.5"/>
<text text-anchor="middle" x="465" y="-300.5" font-family="Helvetica,sans-Serif" font-size="10.00">_henv</text>
</a>
</g>
</g>
<!-- Node11&#45;&gt;Node19 -->
<g id="edge44" class="edge"><title>Node11&#45;&gt;Node19</title>
<path fill="none" stroke="#9a32cd" stroke-dasharray="5,2" d="M885.355,-374.657C837.049,-368.74 766.238,-359.217 755,-353 743.695,-346.746 747.533,-336.823 736,-331 689.445,-307.492 553.507,-321.19 502,-313 497.56,-312.294 492.869,-311.328 488.372,-310.29"/>
<polygon fill="#9a32cd" stroke="#9a32cd" points="884.943,-378.133 895.292,-375.862 885.787,-371.184 884.943,-378.133"/>
<text text-anchor="middle" x="773.5" y="-339.5" font-family="Helvetica,sans-Serif" font-size="10.00"> tds_ctx</text>
</g>
<!-- Node12 -->
<g id="node12" class="node"><title>Node12</title>
<g id="a_node12"><a xlink:href="a00134.html" target="_top" xlink:title="tds_mutex">
<polygon fill="white" stroke="black" points="514.5,-371.5 514.5,-390.5 579.5,-390.5 579.5,-371.5 514.5,-371.5"/>
<text text-anchor="middle" x="547" y="-378.5" font-family="Helvetica,sans-Serif" font-size="10.00">tds_mutex</text>
</a>
</g>
</g>
<!-- Node12&#45;&gt;Node1 -->
<g id="edge42" class="edge"><title>Node12&#45;&gt;Node1</title>
<path fill="none" stroke="#9a32cd" stroke-dasharray="5,2" d="M542.86,-361.448C534.877,-329.979 514.367,-266.139 473,-231 460.028,-219.981 442.005,-213.1 427.773,-209.044"/>
<polygon fill="#9a32cd" stroke="#9a32cd" points="539.524,-362.549 545.25,-371.464 546.333,-360.925 539.524,-362.549"/>
<text text-anchor="middle" x="538" y="-300.5" font-family="Helvetica,sans-Serif" font-size="10.00"> mtx</text>
</g>
<!-- Node12&#45;&gt;Node2 -->
<g id="edge35" class="edge"><title>Node12&#45;&gt;Node2</title>
<path fill="none" stroke="#9a32cd" stroke-dasharray="5,2" d="M550.94,-361.178C551.379,-358.446 551.756,-355.658 552,-353 554.438,-326.445 552.616,-319.66 552,-293 549.517,-185.588 541.701,-55.2646 539.552,-20.7354"/>
<polygon fill="#9a32cd" stroke="#9a32cd" points="547.491,-360.583 549.082,-371.057 554.37,-361.877 547.491,-360.583"/>
<text text-anchor="middle" x="560" y="-200.5" font-family="Helvetica,sans-Serif" font-size="10.00"> mtx</text>
</g>
<!-- Node12&#45;&gt;Node3 -->
<g id="edge20" class="edge"><title>Node12&#45;&gt;Node3</title>
<path fill="none" stroke="#9a32cd" stroke-dasharray="5,2" d="M567.822,-365.594C583.042,-355.353 604.368,-341.593 624,-331 636.667,-324.166 651.399,-317.518 663.096,-312.529"/>
<polygon fill="#9a32cd" stroke="#9a32cd" points="565.505,-362.938 559.205,-371.456 569.442,-368.726 565.505,-362.938"/>
<text text-anchor="middle" x="647" y="-339.5" font-family="Helvetica,sans-Serif" font-size="10.00"> wire_mtx</text>
</g>
<!-- Node14 -->
<g id="node14" class="node"><title>Node14</title>
<g id="a_node14"><a xlink:href="a00035.html" target="_top" xlink:title="_hdesc">
<polygon fill="white" stroke="black" points="130.5,-293.5 130.5,-312.5 181.5,-312.5 181.5,-293.5 130.5,-293.5"/>
<text text-anchor="middle" x="156" y="-300.5" font-family="Helvetica,sans-Serif" font-size="10.00">_hdesc</text>
</a>
</g>
</g>
<!-- Node12&#45;&gt;Node14 -->
<g id="edge33" class="edge"><title>Node12&#45;&gt;Node14</title>
<path fill="none" stroke="#9a32cd" stroke-dasharray="5,2" d="M504.311,-371.053C504.207,-371.035 504.103,-371.018 504,-371 443.897,-360.747 421.262,-382.676 368,-353 356.964,-346.851 361.015,-337.186 350,-331 342.736,-326.921 232.876,-313.261 181.778,-307.082"/>
<polygon fill="#9a32cd" stroke="#9a32cd" points="503.712,-374.502 514.18,-372.867 504.978,-367.617 503.712,-374.502"/>
<text text-anchor="middle" x="378" y="-339.5" font-family="Helvetica,sans-Serif" font-size="10.00"> mtx</text>
</g>
<!-- Node12&#45;&gt;Node19 -->
<g id="edge47" class="edge"><title>Node12&#45;&gt;Node19</title>
<path fill="none" stroke="#9a32cd" stroke-dasharray="5,2" d="M527.238,-364.986C522.48,-361.187 517.48,-357.037 513,-353 498.138,-339.607 482.11,-322.69 472.848,-312.642"/>
<polygon fill="#9a32cd" stroke="#9a32cd" points="525.341,-367.945 535.376,-371.344 529.65,-362.429 525.341,-367.945"/>
<text text-anchor="middle" x="523" y="-339.5" font-family="Helvetica,sans-Serif" font-size="10.00"> mtx</text>
</g>
<!-- Node13&#45;&gt;Node2 -->
<g id="edge23" class="edge"><title>Node13&#45;&gt;Node2</title>
<path fill="none" stroke="#9a32cd" stroke-dasharray="5,2" d="M1059.49,-321.943C1059.57,-292.958 1057.09,-236.565 1039,-193 1006.17,-113.941 997.31,-80.6994 922,-40 890.511,-22.9822 642.336,-14.8122 563.175,-12.6211"/>
<polygon fill="#9a32cd" stroke="#9a32cd" points="1055.99,-322.209 1059.34,-332.257 1062.98,-322.307 1055.99,-322.209"/>
<text text-anchor="middle" x="1054.5" y="-200.5" font-family="Helvetica,sans-Serif" font-size="10.00"> attr</text>
</g>
<!-- Node14&#45;&gt;Node1 -->
<g id="edge40" class="edge"><title>Node14&#45;&gt;Node1</title>
<path fill="none" stroke="#9a32cd" stroke-dasharray="5,2" d="M171.179,-285.998C187.875,-269.44 216.303,-244.193 246,-231 291.546,-210.766 350.625,-205.616 382.398,-204.357"/>
<polygon fill="#9a32cd" stroke="#9a32cd" points="168.481,-283.75 163.971,-293.337 173.475,-288.655 168.481,-283.75"/>
<text text-anchor="middle" x="256.5" y="-250.5" font-family="Helvetica,sans-Serif" font-size="10.00"> uad</text>
</g>
<!-- Node14&#45;&gt;Node2 -->
<g id="edge28" class="edge"><title>Node14&#45;&gt;Node2</title>
<path fill="none" stroke="#9a32cd" stroke-dasharray="5,2" d="M151.29,-283.269C139.654,-232.013 116.099,-89.9565 198,-40 224.909,-23.5866 441.604,-15.1425 514.884,-12.7357"/>
<polygon fill="#9a32cd" stroke="#9a32cd" points="147.949,-284.347 153.675,-293.261 154.758,-282.722 147.949,-284.347"/>
<text text-anchor="middle" x="169.5" y="-167" font-family="Helvetica,sans-Serif" font-size="10.00"> apd</text>
<text text-anchor="middle" x="169.5" y="-156" font-family="Helvetica,sans-Serif" font-size="10.00">orig_apd</text>
<text text-anchor="middle" x="169.5" y="-145" font-family="Helvetica,sans-Serif" font-size="10.00">orig_ard</text>
<text text-anchor="middle" x="169.5" y="-134" font-family="Helvetica,sans-Serif" font-size="10.00">ird</text>
<text text-anchor="middle" x="169.5" y="-123" font-family="Helvetica,sans-Serif" font-size="10.00">ipd</text>
<text text-anchor="middle" x="169.5" y="-112" font-family="Helvetica,sans-Serif" font-size="10.00">ard</text>
</g>
<!-- Node15 -->
<g id="node15" class="node"><title>Node15</title>
<g id="a_node15"><a xlink:href="a00030.html" target="_top" xlink:title="_dheader">
<polygon fill="white" stroke="black" points="106,-371.5 106,-390.5 168,-390.5 168,-371.5 106,-371.5"/>
<text text-anchor="middle" x="137" y="-378.5" font-family="Helvetica,sans-Serif" font-size="10.00">_dheader</text>
</a>
</g>
</g>
<!-- Node15&#45;&gt;Node14 -->
<g id="edge29" class="edge"><title>Node15&#45;&gt;Node14</title>
<path fill="none" stroke="#9a32cd" stroke-dasharray="5,2" d="M121.557,-363.566C119.276,-360.284 117.27,-356.7 116,-353 112.827,-343.751 111.411,-339.634 116,-331 120.247,-323.01 128.029,-316.956 135.609,-312.627"/>
<polygon fill="#9a32cd" stroke="#9a32cd" points="118.903,-365.851 127.914,-371.423 124.345,-361.447 118.903,-365.851"/>
<text text-anchor="middle" x="134.5" y="-339.5" font-family="Helvetica,sans-Serif" font-size="10.00"> header</text>
</g>
<!-- Node16&#45;&gt;Node14 -->
<g id="edge30" class="edge"><title>Node16&#45;&gt;Node14</title>
<path fill="none" stroke="#9a32cd" stroke-dasharray="5,2" d="M58.3282,-360.904C59.4754,-350.849 62.5123,-338.983 70,-331 85.5232,-314.449 111.052,-307.986 130.271,-305.492"/>
<polygon fill="#9a32cd" stroke="#9a32cd" points="54.8166,-360.989 57.6994,-371.184 61.8035,-361.417 54.8166,-360.989"/>
<text text-anchor="middle" x="90" y="-339.5" font-family="Helvetica,sans-Serif" font-size="10.00"> records</text>
</g>
<!-- Node17 -->
<g id="node17" class="node"><title>Node17</title>
<g id="a_node17"><a xlink:href="a00044.html" target="_top" xlink:title="_sql_errors">
<polygon fill="white" stroke="red" points="196.5,-371.5 196.5,-390.5 267.5,-390.5 267.5,-371.5 196.5,-371.5"/>
<text text-anchor="middle" x="232" y="-378.5" font-family="Helvetica,sans-Serif" font-size="10.00">_sql_errors</text>
</a>
</g>
</g>
<!-- Node17&#45;&gt;Node1 -->
<g id="edge41" class="edge"><title>Node17&#45;&gt;Node1</title>
<path fill="none" stroke="#9a32cd" stroke-dasharray="5,2" d="M238.236,-361.545C250.716,-325.663 279.415,-248.475 301,-231 324.342,-212.102 359.459,-206.295 382.307,-204.588"/>
<polygon fill="#9a32cd" stroke="#9a32cd" points="234.844,-360.648 234.91,-371.242 241.465,-362.919 234.844,-360.648"/>
<text text-anchor="middle" x="276" y="-300.5" font-family="Helvetica,sans-Serif" font-size="10.00"> errs</text>
</g>
<!-- Node17&#45;&gt;Node2 -->
<g id="edge34" class="edge"><title>Node17&#45;&gt;Node2</title>
<path fill="none" stroke="#9a32cd" stroke-dasharray="5,2" d="M224.332,-361.635C218.69,-346.458 212,-324.201 212,-304 212,-304 212,-304 212,-79 212,-17.1381 439.438,-11.8594 514.955,-11.8117"/>
<polygon fill="#9a32cd" stroke="#9a32cd" points="221.22,-363.284 228.144,-371.304 227.732,-360.717 221.22,-363.284"/>
<text text-anchor="middle" x="223" y="-200.5" font-family="Helvetica,sans-Serif" font-size="10.00"> errs</text>
</g>
<!-- Node17&#45;&gt;Node14 -->
<g id="edge32" class="edge"><title>Node17&#45;&gt;Node14</title>
<path fill="none" stroke="#9a32cd" stroke-dasharray="5,2" d="M194.902,-366.904C187.987,-363.211 181.286,-358.623 176,-353 165.175,-341.485 159.868,-323.324 157.55,-312.646"/>
<polygon fill="#9a32cd" stroke="#9a32cd" points="193.815,-370.262 204.349,-371.397 196.822,-363.941 193.815,-370.262"/>
<text text-anchor="middle" x="187" y="-339.5" font-family="Helvetica,sans-Serif" font-size="10.00"> errs</text>
</g>
<!-- Node17&#45;&gt;Node19 -->
<g id="edge46" class="edge"><title>Node17&#45;&gt;Node19</title>
<path fill="none" stroke="#9a32cd" stroke-dasharray="5,2" d="M243.488,-362.883C252.277,-350.341 264.037,-334.861 271,-331 332.422,-296.937 358.855,-325.324 428,-313 432.426,-312.211 437.111,-311.206 441.605,-310.156"/>
<polygon fill="#9a32cd" stroke="#9a32cd" points="240.493,-361.061 237.723,-371.287 246.266,-365.02 240.493,-361.061"/>
<text text-anchor="middle" x="282" y="-339.5" font-family="Helvetica,sans-Serif" font-size="10.00"> errs</text>
</g>
<!-- Node18&#45;&gt;Node1 -->
<g id="edge37" class="edge"><title>Node18&#45;&gt;Node1</title>
<path fill="none" stroke="#9a32cd" stroke-dasharray="5,2" d="M416.144,-322.425C415.318,-319.303 414.561,-316.077 414,-313 407.257,-276.013 405.561,-231.036 405.138,-212.554"/>
<polygon fill="#9a32cd" stroke="#9a32cd" points="412.86,-323.664 419.03,-332.277 419.578,-321.696 412.86,-323.664"/>
<text text-anchor="middle" x="423.5" y="-300.5" font-family="Helvetica,sans-Serif" font-size="10.00"> attr</text>
</g>
<!-- Node19&#45;&gt;Node1 -->
<g id="edge43" class="edge"><title>Node19&#45;&gt;Node1</title>
<path fill="none" stroke="#9a32cd" stroke-dasharray="5,2" d="M454.39,-284.67C441.438,-263.515 420.05,-228.581 410.227,-212.537"/>
<polygon fill="#9a32cd" stroke="#9a32cd" points="451.469,-286.602 459.675,-293.303 457.439,-282.947 451.469,-286.602"/>
<text text-anchor="middle" x="458.5" y="-250.5" font-family="Helvetica,sans-Serif" font-size="10.00"> env</text>
</g>
<!-- Node20 -->
<g id="node20" class="node"><title>Node20</title>
<g id="a_node20"><a xlink:href="a00036.html" target="_top" xlink:title="_heattr">
<polygon fill="white" stroke="black" points="445,-371.5 445,-390.5 495,-390.5 495,-371.5 445,-371.5"/>
<text text-anchor="middle" x="470" y="-378.5" font-family="Helvetica,sans-Serif" font-size="10.00">_heattr</text>
</a>
</g>
</g>
<!-- Node20&#45;&gt;Node19 -->
<g id="edge45" class="edge"><title>Node20&#45;&gt;Node19</title>
<path fill="none" stroke="#9a32cd" stroke-dasharray="5,2" d="M468.765,-361.224C467.743,-345.697 466.339,-324.358 465.567,-312.616"/>
<polygon fill="#9a32cd" stroke="#9a32cd" points="465.277,-361.533 469.426,-371.282 472.262,-361.074 465.277,-361.533"/>
<text text-anchor="middle" x="478.5" y="-339.5" font-family="Helvetica,sans-Serif" font-size="10.00"> attr</text>
</g>
</g>
</svg>
