<?xml version="1.0" encoding="UTF-8" standalone="no"?>
<!DOCTYPE svg PUBLIC "-//W3C//DTD SVG 1.1//EN"
 "http://www.w3.org/Graphics/SVG/1.1/DTD/svg11.dtd">
<!-- Generated by graphviz version 2.38.0 (20140413.2041)
 -->
<!-- Title: _hdesc Pages: 1 -->
<svg width="320pt" height="294pt"
 viewBox="0.00 0.00 319.50 294.00" xmlns="http://www.w3.org/2000/svg" xmlns:xlink="http://www.w3.org/1999/xlink">
<g id="graph0" class="graph" transform="scale(1 1) rotate(0) translate(4 290)">
<title>_hdesc</title>
<polygon fill="white" stroke="none" points="-4,4 -4,-290 315.5,-290 315.5,4 -4,4"/>
<!-- Node1 -->
<g id="node1" class="node"><title>Node1</title>
<polygon fill="#bfbfbf" stroke="black" points="125.5,-0.5 125.5,-19.5 176.5,-19.5 176.5,-0.5 125.5,-0.5"/>
<text text-anchor="middle" x="151" y="-7.5" font-family="Helvetica,sans-Serif" font-size="10.00">_hdesc</text>
</g>
<!-- Node2 -->
<g id="node2" class="node"><title>Node2</title>
<g id="a_node2"><a xlink:href="a00030.html" target="_top" xlink:title="_dheader">
<polygon fill="white" stroke="black" points="0,-67.5 0,-86.5 62,-86.5 62,-67.5 0,-67.5"/>
<text text-anchor="middle" x="31" y="-74.5" font-family="Helvetica,sans-Serif" font-size="10.00">_dheader</text>
</a>
</g>
</g>
<!-- Node2&#45;&gt;Node1 -->
<g id="edge1" class="edge"><title>Node2&#45;&gt;Node1</title>
<path fill="none" stroke="#9a32cd" stroke-dasharray="5,2" d="M48.316,-60.5252C57.3152,-53.0296 68.7601,-44.3095 80,-38 94.2596,-29.9955 111.363,-23.4106 125.21,-18.7481"/>
<polygon fill="#9a32cd" stroke="#9a32cd" points="45.8294,-58.0471 40.5237,-67.2177 50.3902,-63.3574 45.8294,-58.0471"/>
<text text-anchor="middle" x="98.5" y="-41" font-family="Helvetica,sans-Serif" font-size="10.00"> header</text>
</g>
<!-- Node3 -->
<g id="node3" class="node"><title>Node3</title>
<g id="a_node3"><a xlink:href="a00031.html" target="_top" xlink:title="_drecord">
<polygon fill="white" stroke="black" points="80.5,-67.5 80.5,-86.5 139.5,-86.5 139.5,-67.5 80.5,-67.5"/>
<text text-anchor="middle" x="110" y="-74.5" font-family="Helvetica,sans-Serif" font-size="10.00">_drecord</text>
</a>
</g>
</g>
<!-- Node3&#45;&gt;Node1 -->
<g id="edge2" class="edge"><title>Node3&#45;&gt;Node1</title>
<path fill="none" stroke="#9a32cd" stroke-dasharray="5,2" d="M116.08,-58.0243C118.675,-51.4687 122.029,-44.1587 126,-38 130.293,-31.3426 136.293,-24.7998 141.338,-19.8226"/>
<polygon fill="#9a32cd" stroke="#9a32cd" points="112.787,-56.837 112.647,-67.4309 119.363,-59.237 112.787,-56.837"/>
<text text-anchor="middle" x="146" y="-41" font-family="Helvetica,sans-Serif" font-size="10.00"> records</text>
</g>
<!-- Node4 -->
<g id="node4" class="node"><title>Node4</title>
<g id="a_node4"><a xlink:href="a00117.html" target="_top" xlink:title="Structure to hold a string. ">
<polygon fill="white" stroke="black" points="52.5,-266.5 52.5,-285.5 107.5,-285.5 107.5,-266.5 52.5,-266.5"/>
<text text-anchor="middle" x="80" y="-273.5" font-family="Helvetica,sans-Serif" font-size="10.00">tds_dstr</text>
</a>
</g>
</g>
<!-- Node4&#45;&gt;Node3 -->
<g id="edge3" class="edge"><title>Node4&#45;&gt;Node3</title>
<path fill="none" stroke="#9a32cd" stroke-dasharray="5,2" d="M75.5363,-256.528C68.6956,-224.214 58.6164,-156.012 81,-105 84.2616,-97.5668 90.6778,-91.2496 96.6476,-86.5988"/>
<polygon fill="#9a32cd" stroke="#9a32cd" points="72.1432,-257.392 77.7623,-266.374 78.9709,-255.849 72.1432,-257.392"/>
<text text-anchor="middle" x="141.5" y="-240" font-family="Helvetica,sans-Serif" font-size="10.00"> sql_desc_schema_name</text>
<text text-anchor="middle" x="141.5" y="-229" font-family="Helvetica,sans-Serif" font-size="10.00">sql_desc_name</text>
<text text-anchor="start" x="81" y="-218" font-family="Helvetica,sans-Serif" font-size="10.00">sql_desc_base_column</text>
<text text-anchor="middle" x="141.5" y="-207" font-family="Helvetica,sans-Serif" font-size="10.00">_name</text>
<text text-anchor="start" x="81" y="-196" font-family="Helvetica,sans-Serif" font-size="10.00">sql_desc_base_table</text>
<text text-anchor="middle" x="141.5" y="-185" font-family="Helvetica,sans-Serif" font-size="10.00">_name</text>
<text text-anchor="start" x="81" y="-174" font-family="Helvetica,sans-Serif" font-size="10.00">sql_desc_catalog</text>
<text text-anchor="middle" x="141.5" y="-163" font-family="Helvetica,sans-Serif" font-size="10.00">_name</text>
<text text-anchor="start" x="81" y="-152" font-family="Helvetica,sans-Serif" font-size="10.00">sql_desc_table</text>
<text text-anchor="middle" x="141.5" y="-141" font-family="Helvetica,sans-Serif" font-size="10.00">_name</text>
<text text-anchor="middle" x="141.5" y="-130" font-family="Helvetica,sans-Serif" font-size="10.00">sql_desc_label</text>
<text text-anchor="start" x="81" y="-119" font-family="Helvetica,sans-Serif" font-size="10.00">sql_desc_local</text>
<text text-anchor="middle" x="141.5" y="-108" font-family="Helvetica,sans-Serif" font-size="10.00">_type_name</text>
</g>
<!-- Node5 -->
<g id="node5" class="node"><title>Node5</title>
<g id="a_node5"><a xlink:href="a00044.html" target="_top" xlink:title="_sql_errors">
<polygon fill="white" stroke="black" points="157.5,-67.5 157.5,-86.5 228.5,-86.5 228.5,-67.5 157.5,-67.5"/>
<text text-anchor="middle" x="193" y="-74.5" font-family="Helvetica,sans-Serif" font-size="10.00">_sql_errors</text>
</a>
</g>
</g>
<!-- Node5&#45;&gt;Node1 -->
<g id="edge4" class="edge"><title>Node5&#45;&gt;Node1</title>
<path fill="none" stroke="#9a32cd" stroke-dasharray="5,2" d="M181.715,-58.5347C173.583,-45.9499 162.959,-29.5072 156.575,-19.6273"/>
<polygon fill="#9a32cd" stroke="#9a32cd" points="178.969,-60.7341 187.336,-67.2338 184.848,-56.9351 178.969,-60.7341"/>
<text text-anchor="middle" x="186" y="-41" font-family="Helvetica,sans-Serif" font-size="10.00"> errs</text>
</g>
<!-- Node6 -->
<g id="node6" class="node"><title>Node6</title>
<g id="a_node6"><a xlink:href="a00043.html" target="_top" xlink:title="_sql_error">
<polygon fill="white" stroke="black" points="191.5,-266.5 191.5,-285.5 256.5,-285.5 256.5,-266.5 191.5,-266.5"/>
<text text-anchor="middle" x="224" y="-273.5" font-family="Helvetica,sans-Serif" font-size="10.00">_sql_error</text>
</a>
</g>
</g>
<!-- Node6&#45;&gt;Node5 -->
<g id="edge5" class="edge"><title>Node6&#45;&gt;Node5</title>
<path fill="none" stroke="#9a32cd" stroke-dasharray="5,2" d="M222.746,-256.029C220.388,-224.397 214.376,-159.017 202,-105 200.588,-98.8352 198.338,-92.0852 196.441,-86.8764"/>
<polygon fill="#9a32cd" stroke="#9a32cd" points="219.283,-256.677 223.476,-266.407 226.265,-256.185 219.283,-256.677"/>
<text text-anchor="middle" x="233" y="-174" font-family="Helvetica,sans-Serif" font-size="10.00"> errs</text>
</g>
<!-- Node7 -->
<g id="node7" class="node"><title>Node7</title>
<g id="a_node7"><a xlink:href="a00134.html" target="_top" xlink:title="tds_mutex">
<polygon fill="white" stroke="black" points="246.5,-67.5 246.5,-86.5 311.5,-86.5 311.5,-67.5 246.5,-67.5"/>
<text text-anchor="middle" x="279" y="-74.5" font-family="Helvetica,sans-Serif" font-size="10.00">tds_mutex</text>
</a>
</g>
</g>
<!-- Node7&#45;&gt;Node1 -->
<g id="edge6" class="edge"><title>Node7&#45;&gt;Node1</title>
<path fill="none" stroke="#9a32cd" stroke-dasharray="5,2" d="M252.955,-62.7739C227.603,-49.8999 189.811,-30.7086 168.068,-19.6672"/>
<polygon fill="#9a32cd" stroke="#9a32cd" points="251.502,-65.9614 262.003,-67.3685 254.671,-59.72 251.502,-65.9614"/>
<text text-anchor="middle" x="233" y="-41" font-family="Helvetica,sans-Serif" font-size="10.00"> mtx</text>
</g>
</g>
</svg>
