<?xml version="1.0" encoding="UTF-8" standalone="no"?>
<!DOCTYPE svg PUBLIC "-//W3C//DTD SVG 1.1//EN"
 "http://www.w3.org/Graphics/SVG/1.1/DTD/svg11.dtd">
<!-- Generated by graphviz version 2.38.0 (20140413.2041)
 -->
<!-- Title: metadata_t Pages: 1 -->
<svg width="103pt" height="162pt"
 viewBox="0.00 0.00 103.00 162.00" xmlns="http://www.w3.org/2000/svg" xmlns:xlink="http://www.w3.org/1999/xlink">
<g id="graph0" class="graph" transform="scale(1 1) rotate(0) translate(4 158)">
<title>metadata_t</title>
<polygon fill="white" stroke="none" points="-4,4 -4,-158 99,-158 99,4 -4,4"/>
<!-- Node1 -->
<g id="node1" class="node"><title>Node1</title>
<polygon fill="#bfbfbf" stroke="black" points="0,-0.5 0,-19.5 70,-19.5 70,-0.5 0,-0.5"/>
<text text-anchor="middle" x="35" y="-7.5" font-family="Helvetica,sans-Serif" font-size="10.00">metadata_t</text>
</g>
<!-- Node2 -->
<g id="node2" class="node"><title>Node2</title>
<g id="a_node2"><a xlink:href="a00073.html" target="_top" xlink:title="key_t">
<polygon fill="white" stroke="black" points="48,-67.5 48,-86.5 90,-86.5 90,-67.5 48,-67.5"/>
<text text-anchor="middle" x="69" y="-74.5" font-family="Helvetica,sans-Serif" font-size="10.00">key_t</text>
</a>
</g>
</g>
<!-- Node2&#45;&gt;Node1 -->
<g id="edge1" class="edge"><title>Node2&#45;&gt;Node1</title>
<path fill="none" stroke="#9a32cd" stroke-dasharray="5,2" d="M59.6701,-58.1635C53.1132,-45.6281 44.63,-29.4104 39.5127,-19.6273"/>
<polygon fill="#9a32cd" stroke="#9a32cd" points="56.6782,-59.9951 64.4146,-67.2338 62.8809,-56.7506 56.6782,-59.9951"/>
<text text-anchor="middle" x="74.5" y="-41" font-family="Helvetica,sans-Serif" font-size="10.00"> pacross</text>
</g>
<!-- Node3 -->
<g id="node3" class="node"><title>Node3</title>
<g id="a_node3"><a xlink:href="a00050.html" target="_top" xlink:title="col_t">
<polygon fill="white" stroke="black" points="15.5,-134.5 15.5,-153.5 54.5,-153.5 54.5,-134.5 15.5,-134.5"/>
<text text-anchor="middle" x="35" y="-141.5" font-family="Helvetica,sans-Serif" font-size="10.00">col_t</text>
</a>
</g>
</g>
<!-- Node3&#45;&gt;Node1 -->
<g id="edge3" class="edge"><title>Node3&#45;&gt;Node1</title>
<path fill="none" stroke="#9a32cd" stroke-dasharray="5,2" d="M28.8127,-124.362C24.4466,-109.027 19.7444,-86.691 22,-67 23.9537,-49.9446 29.1505,-30.5281 32.3506,-19.6223"/>
<polygon fill="#9a32cd" stroke="#9a32cd" points="25.5398,-125.627 31.8283,-134.153 32.2297,-123.566 25.5398,-125.627"/>
<text text-anchor="middle" x="30.5" y="-74.5" font-family="Helvetica,sans-Serif" font-size="10.00"> col</text>
</g>
<!-- Node3&#45;&gt;Node2 -->
<g id="edge2" class="edge"><title>Node3&#45;&gt;Node2</title>
<path fill="none" stroke="#9a32cd" stroke-dasharray="5,2" d="M44.3299,-125.163C50.8868,-112.628 59.37,-96.4104 64.4873,-86.6273"/>
<polygon fill="#9a32cd" stroke="#9a32cd" points="41.1191,-123.751 39.5854,-134.234 47.3218,-126.995 41.1191,-123.751"/>
<text text-anchor="middle" x="66.5" y="-108" font-family="Helvetica,sans-Serif" font-size="10.00"> keys</text>
</g>
</g>
</svg>
