<?xml version="1.0" encoding="UTF-8" standalone="no"?>
<!DOCTYPE svg PUBLIC "-//W3C//DTD SVG 1.1//EN"
 "http://www.w3.org/Graphics/SVG/1.1/DTD/svg11.dtd">
<!-- Generated by graphviz version 2.38.0 (20140413.2041)
 -->
<!-- Title: _hchk Pages: 1 -->
<svg width="162pt" height="162pt"
 viewBox="0.00 0.00 162.00 162.00" xmlns="http://www.w3.org/2000/svg" xmlns:xlink="http://www.w3.org/1999/xlink">
<g id="graph0" class="graph" transform="scale(1 1) rotate(0) translate(4 158)">
<title>_hchk</title>
<polygon fill="white" stroke="none" points="-4,4 -4,-158 158,-158 158,4 -4,4"/>
<!-- Node1 -->
<g id="node1" class="node"><title>Node1</title>
<polygon fill="#bfbfbf" stroke="black" points="76,-0.5 76,-19.5 121,-19.5 121,-0.5 76,-0.5"/>
<text text-anchor="middle" x="98.5" y="-7.5" font-family="Helvetica,sans-Serif" font-size="10.00">_hchk</text>
</g>
<!-- Node2 -->
<g id="node2" class="node"><title>Node2</title>
<g id="a_node2"><a xlink:href="a00044.html" target="_top" xlink:title="_sql_errors">
<polygon fill="white" stroke="black" points="0,-67.5 0,-86.5 71,-86.5 71,-67.5 0,-67.5"/>
<text text-anchor="middle" x="35.5" y="-74.5" font-family="Helvetica,sans-Serif" font-size="10.00">_sql_errors</text>
</a>
</g>
</g>
<!-- Node2&#45;&gt;Node1 -->
<g id="edge1" class="edge"><title>Node2&#45;&gt;Node1</title>
<path fill="none" stroke="#9a32cd" stroke-dasharray="5,2" d="M51.0108,-59.9968C63.3658,-47.2496 80.1867,-29.8947 90.1382,-19.6273"/>
<polygon fill="#9a32cd" stroke="#9a32cd" points="48.443,-57.6172 43.9965,-67.2338 53.4695,-62.489 48.443,-57.6172"/>
<text text-anchor="middle" x="82.5" y="-41" font-family="Helvetica,sans-Serif" font-size="10.00"> errs</text>
</g>
<!-- Node3 -->
<g id="node3" class="node"><title>Node3</title>
<g id="a_node3"><a xlink:href="a00043.html" target="_top" xlink:title="_sql_error">
<polygon fill="white" stroke="black" points="3,-134.5 3,-153.5 68,-153.5 68,-134.5 3,-134.5"/>
<text text-anchor="middle" x="35.5" y="-141.5" font-family="Helvetica,sans-Serif" font-size="10.00">_sql_error</text>
</a>
</g>
</g>
<!-- Node3&#45;&gt;Node2 -->
<g id="edge2" class="edge"><title>Node3&#45;&gt;Node2</title>
<path fill="none" stroke="#9a32cd" stroke-dasharray="5,2" d="M35.5,-124.037C35.5,-111.67 35.5,-96.1198 35.5,-86.6273"/>
<polygon fill="#9a32cd" stroke="#9a32cd" points="32.0001,-124.234 35.5,-134.234 39.0001,-124.234 32.0001,-124.234"/>
<text text-anchor="middle" x="46.5" y="-108" font-family="Helvetica,sans-Serif" font-size="10.00"> errs</text>
</g>
<!-- Node4 -->
<g id="node4" class="node"><title>Node4</title>
<g id="a_node4"><a xlink:href="a00134.html" target="_top" xlink:title="tds_mutex">
<polygon fill="white" stroke="black" points="89,-67.5 89,-86.5 154,-86.5 154,-67.5 89,-67.5"/>
<text text-anchor="middle" x="121.5" y="-74.5" font-family="Helvetica,sans-Serif" font-size="10.00">tds_mutex</text>
</a>
</g>
</g>
<!-- Node4&#45;&gt;Node1 -->
<g id="edge3" class="edge"><title>Node4&#45;&gt;Node1</title>
<path fill="none" stroke="#9a32cd" stroke-dasharray="5,2" d="M115.056,-57.79C110.64,-45.3076 104.98,-29.3135 101.553,-19.6273"/>
<polygon fill="#9a32cd" stroke="#9a32cd" points="111.763,-58.9741 118.398,-67.2338 118.362,-56.639 111.763,-58.9741"/>
<text text-anchor="middle" x="120.5" y="-41" font-family="Helvetica,sans-Serif" font-size="10.00"> mtx</text>
</g>
</g>
</svg>
