<?xml version="1.0" encoding="UTF-8" standalone="no"?>
<!DOCTYPE svg PUBLIC "-//W3C//DTD SVG 1.1//EN"
 "http://www.w3.org/Graphics/SVG/1.1/DTD/svg11.dtd">
<!-- Generated by graphviz version 2.38.0 (20140413.2041)
 -->
<!-- Title: dblib_buffer_row Pages: 1 -->
<svg width="1025pt" height="484pt"
 viewBox="0.00 0.00 1025.00 484.00" xmlns="http://www.w3.org/2000/svg" xmlns:xlink="http://www.w3.org/1999/xlink">
<g id="graph0" class="graph" transform="scale(1 1) rotate(0) translate(4 480)">
<title>dblib_buffer_row</title>
<polygon fill="white" stroke="none" points="-4,4 -4,-480 1021,-480 1021,4 -4,4"/>
<!-- Node1 -->
<g id="node1" class="node"><title>Node1</title>
<polygon fill="#bfbfbf" stroke="black" points="564,-103.5 564,-122.5 657,-122.5 657,-103.5 564,-103.5"/>
<text text-anchor="middle" x="610.5" y="-110.5" font-family="Helvetica,sans-Serif" font-size="10.00">dblib_buffer_row</text>
</g>
<!-- Node2 -->
<g id="node2" class="node"><title>Node2</title>
<g id="a_node2"><a xlink:href="a00144.html" target="_top" xlink:title="Hold information for any results. ">
<polygon fill="white" stroke="black" points="400,-208.5 400,-227.5 486,-227.5 486,-208.5 400,-208.5"/>
<text text-anchor="middle" x="443" y="-215.5" font-family="Helvetica,sans-Serif" font-size="10.00">tds_result_info</text>
</a>
</g>
</g>
<!-- Node2&#45;&gt;Node1 -->
<g id="edge1" class="edge"><title>Node2&#45;&gt;Node1</title>
<path fill="none" stroke="#9a32cd" stroke-dasharray="5,2" d="M458.837,-200.868C470.271,-188.401 486.962,-171.72 504,-160 528.245,-143.322 537.084,-143.894 564,-132 571.047,-128.886 578.763,-125.613 585.806,-122.678"/>
<polygon fill="#9a32cd" stroke="#9a32cd" points="456.194,-198.572 452.131,-208.357 461.41,-203.242 456.194,-198.572"/>
<text text-anchor="middle" x="525" y="-163" font-family="Helvetica,sans-Serif" font-size="10.00"> resinfo</text>
</g>
<!-- Node3 -->
<g id="node3" class="node"><title>Node3</title>
<g id="a_node3"><a xlink:href="a00148.html" target="_top" xlink:title="Information for a server connection. ">
<polygon fill="white" stroke="black" points="949,-187.5 949,-206.5 1017,-206.5 1017,-187.5 949,-187.5"/>
<text text-anchor="middle" x="983" y="-194.5" font-family="Helvetica,sans-Serif" font-size="10.00">tds_socket</text>
</a>
</g>
</g>
<!-- Node2&#45;&gt;Node3 -->
<g id="edge10" class="edge"><title>Node2&#45;&gt;Node3</title>
<path fill="none" stroke="#9a32cd" stroke-dasharray="5,2" d="M460.732,-235.017C472.091,-245.751 487.92,-259.2 504,-268 598.688,-319.815 637.204,-303.526 745,-298 829.09,-293.689 861.792,-309.959 931,-262 952.221,-247.294 968.814,-221.133 976.795,-206.897"/>
<polygon fill="#9a32cd" stroke="#9a32cd" points="462.916,-232.259 453.311,-227.786 458.031,-237.272 462.916,-232.259"/>
<text text-anchor="middle" x="710" y="-338" font-family="Helvetica,sans-Serif" font-size="10.00"> param_info</text>
<text text-anchor="middle" x="710" y="-327" font-family="Helvetica,sans-Serif" font-size="10.00">current_results</text>
<text text-anchor="middle" x="710" y="-316" font-family="Helvetica,sans-Serif" font-size="10.00">res_info</text>
<text text-anchor="middle" x="710" y="-305" font-family="Helvetica,sans-Serif" font-size="10.00">comp_info</text>
</g>
<!-- Node7 -->
<g id="node7" class="node"><title>Node7</title>
<g id="a_node7"><a xlink:href="a00118.html" target="_top" xlink:title="Holds information for a dynamic (also called prepared) query. ">
<polygon fill="white" stroke="black" points="572.5,-141.5 572.5,-160.5 648.5,-160.5 648.5,-141.5 572.5,-141.5"/>
<text text-anchor="middle" x="610.5" y="-148.5" font-family="Helvetica,sans-Serif" font-size="10.00">tds_dynamic</text>
</a>
</g>
</g>
<!-- Node2&#45;&gt;Node7 -->
<g id="edge9" class="edge"><title>Node2&#45;&gt;Node7</title>
<path fill="none" stroke="#9a32cd" stroke-dasharray="5,2" d="M474.876,-204.352C484.203,-200.302 494.492,-195.906 504,-192 531.265,-180.8 562.799,-168.648 584.239,-160.506"/>
<polygon fill="#9a32cd" stroke="#9a32cd" points="473.341,-201.203 465.577,-208.413 476.142,-207.618 473.341,-201.203"/>
<text text-anchor="middle" x="525" y="-206" font-family="Helvetica,sans-Serif" font-size="10.00"> res_info</text>
<text text-anchor="middle" x="525" y="-195" font-family="Helvetica,sans-Serif" font-size="10.00">params</text>
</g>
<!-- Node8 -->
<g id="node8" class="node"><title>Node8</title>
<g id="a_node8"><a xlink:href="a00110.html" target="_top" xlink:title="Holds informations about a cursor. ">
<polygon fill="white" stroke="red" points="577.5,-208.5 577.5,-227.5 643.5,-227.5 643.5,-208.5 577.5,-208.5"/>
<text text-anchor="middle" x="610.5" y="-215.5" font-family="Helvetica,sans-Serif" font-size="10.00">tds_cursor</text>
</a>
</g>
</g>
<!-- Node2&#45;&gt;Node8 -->
<g id="edge12" class="edge"><title>Node2&#45;&gt;Node8</title>
<path fill="none" stroke="#9a32cd" stroke-dasharray="5,2" d="M496.473,-218C523.011,-218 554.368,-218 577.314,-218"/>
<polygon fill="#9a32cd" stroke="#9a32cd" points="496.191,-214.5 486.191,-218 496.191,-221.5 496.191,-214.5"/>
<text text-anchor="middle" x="525" y="-221" font-family="Helvetica,sans-Serif" font-size="10.00"> res_info</text>
</g>
<!-- Node3&#45;&gt;Node2 -->
<g id="edge2" class="edge"><title>Node3&#45;&gt;Node2</title>
<path fill="none" stroke="#9a32cd" stroke-dasharray="5,2" d="M963.06,-213.012C953.792,-220.339 942.232,-228.759 931,-235 898.03,-253.319 889.06,-258.989 852,-266 726.231,-289.793 689.69,-290.206 564,-266 525.882,-258.659 484.481,-239.319 461.642,-227.55"/>
<polygon fill="#9a32cd" stroke="#9a32cd" points="965.296,-215.704 970.852,-206.683 960.883,-210.271 965.296,-215.704"/>
<text text-anchor="middle" x="710" y="-286" font-family="Helvetica,sans-Serif" font-size="10.00"> attached_to</text>
</g>
<!-- Node4 -->
<g id="node4" class="node"><title>Node4</title>
<g id="a_node4"><a xlink:href="a00129.html" target="_top" xlink:title="tds_login">
<polygon fill="white" stroke="red" points="323,-365.5 323,-384.5 382,-384.5 382,-365.5 323,-365.5"/>
<text text-anchor="middle" x="352.5" y="-372.5" font-family="Helvetica,sans-Serif" font-size="10.00">tds_login</text>
</a>
</g>
</g>
<!-- Node4&#45;&gt;Node3 -->
<g id="edge3" class="edge"><title>Node4&#45;&gt;Node3</title>
<path fill="none" stroke="#9a32cd" stroke-dasharray="5,2" d="M392.281,-377.499C426.826,-379.509 478.761,-382 524,-382 524,-382 524,-382 808.5,-382 905.592,-382 964.145,-244.751 978.517,-206.686"/>
<polygon fill="#9a32cd" stroke="#9a32cd" points="392.335,-373.996 382.144,-376.894 391.918,-380.984 392.335,-373.996"/>
<text text-anchor="middle" x="610.5" y="-385" font-family="Helvetica,sans-Serif" font-size="10.00"> login</text>
</g>
<!-- Node5 -->
<g id="node5" class="node"><title>Node5</title>
<g id="a_node5"><a xlink:href="a00117.html" target="_top" xlink:title="Structure to hold a string. ">
<polygon fill="white" stroke="black" points="23,-298.5 23,-317.5 78,-317.5 78,-298.5 23,-298.5"/>
<text text-anchor="middle" x="50.5" y="-305.5" font-family="Helvetica,sans-Serif" font-size="10.00">tds_dstr</text>
</a>
</g>
</g>
<!-- Node5&#45;&gt;Node4 -->
<g id="edge4" class="edge"><title>Node5&#45;&gt;Node4</title>
<path fill="none" stroke="#9a32cd" stroke-dasharray="5,2" d="M87.987,-316.149C148.381,-329.637 267.895,-356.328 322.752,-368.58"/>
<polygon fill="#9a32cd" stroke="#9a32cd" points="88.6455,-312.71 78.123,-313.946 87.1197,-319.541 88.6455,-312.71"/>
<text text-anchor="middle" x="168" y="-468" font-family="Helvetica,sans-Serif" font-size="10.00"> server_realm_name</text>
<text text-anchor="middle" x="168" y="-457" font-family="Helvetica,sans-Serif" font-size="10.00">password</text>
<text text-anchor="middle" x="168" y="-446" font-family="Helvetica,sans-Serif" font-size="10.00">server_name</text>
<text text-anchor="middle" x="168" y="-435" font-family="Helvetica,sans-Serif" font-size="10.00">dump_file</text>
<text text-anchor="middle" x="168" y="-424" font-family="Helvetica,sans-Serif" font-size="10.00">library</text>
<text text-anchor="middle" x="168" y="-413" font-family="Helvetica,sans-Serif" font-size="10.00">crlfile</text>
<text text-anchor="middle" x="168" y="-402" font-family="Helvetica,sans-Serif" font-size="10.00">server_spn</text>
<text text-anchor="start" x="119" y="-391" font-family="Helvetica,sans-Serif" font-size="10.00">client_host</text>
<text text-anchor="middle" x="168" y="-380" font-family="Helvetica,sans-Serif" font-size="10.00">_name</text>
<text text-anchor="middle" x="168" y="-369" font-family="Helvetica,sans-Serif" font-size="10.00">client_charset</text>
<text text-anchor="middle" x="168" y="-358" font-family="Helvetica,sans-Serif" font-size="10.00">server_charset</text>
<text text-anchor="middle" x="168" y="-347" font-family="Helvetica,sans-Serif" font-size="10.00">...</text>
</g>
<!-- Node12 -->
<g id="node12" class="node"><title>Node12</title>
<g id="a_node12"><a xlink:href="a00104.html" target="_top" xlink:title="Metadata about columns in regular and compute rows. ">
<polygon fill="white" stroke="black" points="235,-208.5 235,-227.5 305,-227.5 305,-208.5 235,-208.5"/>
<text text-anchor="middle" x="270" y="-215.5" font-family="Helvetica,sans-Serif" font-size="10.00">tds_column</text>
</a>
</g>
</g>
<!-- Node5&#45;&gt;Node12 -->
<g id="edge21" class="edge"><title>Node5&#45;&gt;Node12</title>
<path fill="none" stroke="#9a32cd" stroke-dasharray="5,2" d="M87.7329,-295.566C121.593,-283.629 173.335,-264.569 217,-245 228.882,-239.675 241.882,-232.925 251.911,-227.506"/>
<polygon fill="#9a32cd" stroke="#9a32cd" points="86.5341,-292.278 78.2535,-298.887 88.8483,-298.884 86.5341,-292.278"/>
<text text-anchor="middle" x="168" y="-309" font-family="Helvetica,sans-Serif" font-size="10.00"> column_name</text>
<text text-anchor="middle" x="168" y="-298" font-family="Helvetica,sans-Serif" font-size="10.00">table_name</text>
<text text-anchor="middle" x="168" y="-287" font-family="Helvetica,sans-Serif" font-size="10.00">table_column_name</text>
</g>
<!-- Node6 -->
<g id="node6" class="node"><title>Node6</title>
<g id="a_node6"><a xlink:href="a00138.html" target="_top" xlink:title="tds_packet">
<polygon fill="white" stroke="black" points="773.5,-208.5 773.5,-227.5 841.5,-227.5 841.5,-208.5 773.5,-208.5"/>
<text text-anchor="middle" x="807.5" y="-215.5" font-family="Helvetica,sans-Serif" font-size="10.00">tds_packet</text>
</a>
</g>
</g>
<!-- Node6&#45;&gt;Node3 -->
<g id="edge5" class="edge"><title>Node6&#45;&gt;Node3</title>
<path fill="none" stroke="#9a32cd" stroke-dasharray="5,2" d="M851.741,-212.766C881.779,-209.131 921.208,-204.358 948.786,-201.02"/>
<polygon fill="#9a32cd" stroke="#9a32cd" points="851.049,-209.324 841.542,-214.001 851.891,-216.274 851.049,-209.324"/>
<text text-anchor="middle" x="900.5" y="-223" font-family="Helvetica,sans-Serif" font-size="10.00"> recv_packet</text>
<text text-anchor="middle" x="900.5" y="-212" font-family="Helvetica,sans-Serif" font-size="10.00">send_packet</text>
</g>
<!-- Node6&#45;&gt;Node6 -->
<g id="edge6" class="edge"><title>Node6&#45;&gt;Node6</title>
<path fill="none" stroke="#9a32cd" stroke-dasharray="5,2" d="M790.464,-237.4C791.602,-242.315 797.28,-246 807.5,-246 823.852,-246 828.578,-236.565 821.68,-227.757"/>
<polygon fill="#9a32cd" stroke="#9a32cd" points="793.836,-238.339 793.32,-227.757 787.124,-236.351 793.836,-238.339"/>
<text text-anchor="middle" x="807.5" y="-249" font-family="Helvetica,sans-Serif" font-size="10.00"> next</text>
</g>
<!-- Node7&#45;&gt;Node3 -->
<g id="edge7" class="edge"><title>Node7&#45;&gt;Node3</title>
<path fill="none" stroke="#9a32cd" stroke-dasharray="5,2" d="M649.64,-136.863C652.219,-135.371 654.702,-133.751 657,-132 667.324,-124.132 663.779,-115.525 675,-109 743.188,-69.3485 774.744,-80.0812 852,-96 889.438,-103.714 900.88,-106.464 931,-130 951.734,-146.201 968.524,-172.743 976.666,-187.075"/>
<polygon fill="#9a32cd" stroke="#9a32cd" points="647.951,-133.795 640.63,-141.453 651.129,-140.033 647.951,-133.795"/>
<text text-anchor="middle" x="807.5" y="-99" font-family="Helvetica,sans-Serif" font-size="10.00"> cur_dyn</text>
</g>
<!-- Node7&#45;&gt;Node7 -->
<g id="edge8" class="edge"><title>Node7&#45;&gt;Node7</title>
<path fill="none" stroke="#9a32cd" stroke-dasharray="5,2" d="M595.031,-170.766C596.246,-175.497 601.402,-179 610.5,-179 625.43,-179 629.745,-169.565 623.447,-160.757"/>
<polygon fill="#9a32cd" stroke="#9a32cd" points="598.503,-171.309 597.553,-160.757 591.716,-169.599 598.503,-171.309"/>
<text text-anchor="middle" x="610.5" y="-182" font-family="Helvetica,sans-Serif" font-size="10.00"> next</text>
</g>
<!-- Node9 -->
<g id="node9" class="node"><title>Node9</title>
<g id="a_node9"><a xlink:href="a00108.html" target="_top" xlink:title="tds_connection">
<polygon fill="white" stroke="red" points="763,-116.5 763,-135.5 852,-135.5 852,-116.5 763,-116.5"/>
<text text-anchor="middle" x="807.5" y="-123.5" font-family="Helvetica,sans-Serif" font-size="10.00">tds_connection</text>
</a>
</g>
</g>
<!-- Node7&#45;&gt;Node9 -->
<g id="edge15" class="edge"><title>Node7&#45;&gt;Node9</title>
<path fill="none" stroke="#9a32cd" stroke-dasharray="5,2" d="M646.129,-137.367C649.846,-135.659 653.534,-133.857 657,-132 665.475,-127.46 665.798,-122.786 675,-120 703.435,-111.391 736.901,-113.072 762.956,-116.813"/>
<polygon fill="#9a32cd" stroke="#9a32cd" points="644.691,-134.175 636.934,-141.393 647.499,-140.588 644.691,-134.175"/>
<text text-anchor="middle" x="710" y="-123" font-family="Helvetica,sans-Serif" font-size="10.00"> dyns</text>
</g>
<!-- Node8&#45;&gt;Node3 -->
<g id="edge11" class="edge"><title>Node8&#45;&gt;Node3</title>
<path fill="none" stroke="#9a32cd" stroke-dasharray="5,2" d="M653.516,-207.383C683.741,-200.311 725.6,-191.667 763,-188 802.367,-184.14 812.468,-186.633 852,-188 885.011,-189.141 922.652,-191.908 948.905,-194.075"/>
<polygon fill="#9a32cd" stroke="#9a32cd" points="652.653,-203.991 643.735,-209.712 654.274,-210.801 652.653,-203.991"/>
<text text-anchor="middle" x="807.5" y="-191" font-family="Helvetica,sans-Serif" font-size="10.00"> cur_cursor</text>
</g>
<!-- Node8&#45;&gt;Node8 -->
<g id="edge13" class="edge"><title>Node8&#45;&gt;Node8</title>
<path fill="none" stroke="#9a32cd" stroke-dasharray="5,2" d="M595.031,-237.766C596.246,-242.497 601.402,-246 610.5,-246 625.43,-246 629.745,-236.565 623.447,-227.757"/>
<polygon fill="#9a32cd" stroke="#9a32cd" points="598.503,-238.309 597.553,-227.757 591.716,-236.599 598.503,-238.309"/>
<text text-anchor="middle" x="610.5" y="-249" font-family="Helvetica,sans-Serif" font-size="10.00"> next</text>
</g>
<!-- Node8&#45;&gt;Node9 -->
<g id="edge17" class="edge"><title>Node8&#45;&gt;Node9</title>
<path fill="none" stroke="#9a32cd" stroke-dasharray="5,2" d="M652.479,-202.958C654.085,-201.735 655.603,-200.418 657,-199 672.116,-183.654 658.525,-167.878 675,-154 688.166,-142.91 729.815,-135.304 762.754,-130.849"/>
<polygon fill="#9a32cd" stroke="#9a32cd" points="650.509,-200.061 643.87,-208.318 654.209,-206.004 650.509,-200.061"/>
<text text-anchor="middle" x="710" y="-157" font-family="Helvetica,sans-Serif" font-size="10.00"> cursors</text>
</g>
<!-- Node9&#45;&gt;Node3 -->
<g id="edge14" class="edge"><title>Node9&#45;&gt;Node3</title>
<path fill="none" stroke="#9a32cd" stroke-dasharray="5,2" d="M862.076,-132.567C884.23,-136.704 909.668,-143.362 931,-154 947.79,-162.373 963.753,-177.368 973.212,-187.252"/>
<polygon fill="#9a32cd" stroke="#9a32cd" points="862.608,-129.107 852.155,-130.838 861.406,-136.003 862.608,-129.107"/>
<text text-anchor="middle" x="900.5" y="-157" font-family="Helvetica,sans-Serif" font-size="10.00"> conn</text>
</g>
<!-- Node10 -->
<g id="node10" class="node"><title>Node10</title>
<g id="a_node10"><a xlink:href="a00161.html" target="_top" xlink:title="tdsiconvinfo">
<polygon fill="white" stroke="red" points="14,-108.5 14,-127.5 87,-127.5 87,-108.5 14,-108.5"/>
<text text-anchor="middle" x="50.5" y="-115.5" font-family="Helvetica,sans-Serif" font-size="10.00">tdsiconvinfo</text>
</a>
</g>
</g>
<!-- Node10&#45;&gt;Node9 -->
<g id="edge16" class="edge"><title>Node10&#45;&gt;Node9</title>
<path fill="none" stroke="#9a32cd" stroke-dasharray="5,2" d="M90.5004,-105.514C133.678,-92.8174 205.571,-75 269,-75 269,-75 269,-75 526,-75 617.568,-75 723.278,-101.634 774.87,-116.407"/>
<polygon fill="#9a32cd" stroke="#9a32cd" points="89.2616,-102.231 80.6888,-108.457 91.2728,-108.936 89.2616,-102.231"/>
<text text-anchor="middle" x="443" y="-78" font-family="Helvetica,sans-Serif" font-size="10.00"> char_convs</text>
</g>
<!-- Node10&#45;&gt;Node12 -->
<g id="edge20" class="edge"><title>Node10&#45;&gt;Node12</title>
<path fill="none" stroke="#9a32cd" stroke-dasharray="5,2" d="M89.9832,-130.878C124.154,-142.887 175.03,-162.189 217,-184 230.782,-191.162 245.513,-201.025 255.764,-208.284"/>
<polygon fill="#9a32cd" stroke="#9a32cd" points="90.9719,-127.517 80.3771,-127.54 88.6739,-134.129 90.9719,-127.517"/>
<text text-anchor="middle" x="168" y="-187" font-family="Helvetica,sans-Serif" font-size="10.00"> char_conv</text>
</g>
<!-- Node11 -->
<g id="node11" class="node"><title>Node11</title>
<g id="a_node11"><a xlink:href="a00134.html" target="_top" xlink:title="tds_mutex">
<polygon fill="white" stroke="black" points="775,-0.5 775,-19.5 840,-19.5 840,-0.5 775,-0.5"/>
<text text-anchor="middle" x="807.5" y="-7.5" font-family="Helvetica,sans-Serif" font-size="10.00">tds_mutex</text>
</a>
</g>
</g>
<!-- Node11&#45;&gt;Node3 -->
<g id="edge18" class="edge"><title>Node11&#45;&gt;Node3</title>
<path fill="none" stroke="#9a32cd" stroke-dasharray="5,2" d="M850.285,-6.74995C876.435,-7.00336 909.184,-11.8178 931,-31 978.773,-73.006 982.441,-158.538 982.255,-187.309"/>
<polygon fill="#9a32cd" stroke="#9a32cd" points="850.22,-3.25038 840.261,-6.86721 850.302,-10.2499 850.22,-3.25038"/>
<text text-anchor="middle" x="900.5" y="-34" font-family="Helvetica,sans-Serif" font-size="10.00"> wire_mtx</text>
</g>
<!-- Node12&#45;&gt;Node2 -->
<g id="edge19" class="edge"><title>Node12&#45;&gt;Node2</title>
<path fill="none" stroke="#9a32cd" stroke-dasharray="5,2" d="M315.211,-218C341.347,-218 374.257,-218 399.998,-218"/>
<polygon fill="#9a32cd" stroke="#9a32cd" points="315.193,-214.5 305.193,-218 315.193,-221.5 315.193,-214.5"/>
<text text-anchor="middle" x="352.5" y="-221" font-family="Helvetica,sans-Serif" font-size="10.00"> columns</text>
</g>
<!-- Node13 -->
<g id="node13" class="node"><title>Node13</title>
<g id="a_node13"><a xlink:href="a00105.html" target="_top" xlink:title="tds_column_funcs">
<polygon fill="white" stroke="black" points="0,-227.5 0,-246.5 101,-246.5 101,-227.5 0,-227.5"/>
<text text-anchor="middle" x="50.5" y="-234.5" font-family="Helvetica,sans-Serif" font-size="10.00">tds_column_funcs</text>
</a>
</g>
</g>
<!-- Node13&#45;&gt;Node12 -->
<g id="edge22" class="edge"><title>Node13&#45;&gt;Node12</title>
<path fill="none" stroke="#9a32cd" stroke-dasharray="5,2" d="M111.234,-231.782C150.975,-228.31 201.758,-223.874 234.815,-220.986"/>
<polygon fill="#9a32cd" stroke="#9a32cd" points="110.784,-228.308 101.126,-232.665 111.393,-235.281 110.784,-228.308"/>
<text text-anchor="middle" x="168" y="-233" font-family="Helvetica,sans-Serif" font-size="10.00"> funcs</text>
</g>
<!-- Node14 -->
<g id="node14" class="node"><title>Node14</title>
<g id="a_node14"><a xlink:href="a00099.html" target="_top" xlink:title="tds_bcpcoldata">
<polygon fill="white" stroke="black" points="6.5,-189.5 6.5,-208.5 94.5,-208.5 94.5,-189.5 6.5,-189.5"/>
<text text-anchor="middle" x="50.5" y="-196.5" font-family="Helvetica,sans-Serif" font-size="10.00">tds_bcpcoldata</text>
</a>
</g>
</g>
<!-- Node14&#45;&gt;Node12 -->
<g id="edge23" class="edge"><title>Node14&#45;&gt;Node12</title>
<path fill="none" stroke="#9a32cd" stroke-dasharray="5,2" d="M104.729,-199.411C137.269,-200.198 179.672,-202.181 217,-207 222.766,-207.744 228.843,-208.788 234.729,-209.94"/>
<polygon fill="#9a32cd" stroke="#9a32cd" points="104.602,-195.908 94.5298,-199.196 104.454,-202.906 104.602,-195.908"/>
<text text-anchor="middle" x="168" y="-210" font-family="Helvetica,sans-Serif" font-size="10.00"> bcp_column_data</text>
</g>
</g>
</svg>
