<?xml version="1.0" encoding="UTF-8" standalone="no"?>
<!DOCTYPE svg PUBLIC "-//W3C//DTD SVG 1.1//EN"
 "http://www.w3.org/Graphics/SVG/1.1/DTD/svg11.dtd">
<!-- Generated by graphviz version 2.38.0 (20140413.2041)
 -->
<!-- Title: _options Pages: 1 -->
<svg width="116pt" height="229pt"
 viewBox="0.00 0.00 115.50 229.00" xmlns="http://www.w3.org/2000/svg" xmlns:xlink="http://www.w3.org/1999/xlink">
<g id="graph0" class="graph" transform="scale(1 1) rotate(0) translate(4 225)">
<title>_options</title>
<polygon fill="white" stroke="none" points="-4,4 -4,-225 111.5,-225 111.5,4 -4,4"/>
<!-- Node1 -->
<g id="node1" class="node"><title>Node1</title>
<polygon fill="#bfbfbf" stroke="black" points="18,-0.5 18,-19.5 75,-19.5 75,-0.5 18,-0.5"/>
<text text-anchor="middle" x="46.5" y="-7.5" font-family="Helvetica,sans-Serif" font-size="10.00">_options</text>
</g>
<!-- Node2 -->
<g id="node2" class="node"><title>Node2</title>
<g id="a_node2"><a xlink:href="a00085.html" target="_top" xlink:title="_options::pivot_t">
<polygon fill="white" stroke="black" points="-7.10543e-15,-67.5 -7.10543e-15,-86.5 93,-86.5 93,-67.5 -7.10543e-15,-67.5"/>
<text text-anchor="middle" x="46.5" y="-74.5" font-family="Helvetica,sans-Serif" font-size="10.00">_options::pivot_t</text>
</a>
</g>
</g>
<!-- Node2&#45;&gt;Node1 -->
<g id="edge1" class="edge"><title>Node2&#45;&gt;Node1</title>
<path fill="none" stroke="#9a32cd" stroke-dasharray="5,2" d="M46.5,-57.037C46.5,-44.6703 46.5,-29.1198 46.5,-19.6273"/>
<polygon fill="#9a32cd" stroke="#9a32cd" points="43.0001,-57.2338 46.5,-67.2338 50.0001,-57.2338 43.0001,-57.2338"/>
<text text-anchor="middle" x="59.5" y="-41" font-family="Helvetica,sans-Serif" font-size="10.00"> pivot</text>
</g>
<!-- Node3 -->
<g id="node3" class="node"><title>Node3</title>
<g id="a_node3"><a xlink:href="a00073.html" target="_top" xlink:title="key_t">
<polygon fill="white" stroke="black" points="64.5,-134.5 64.5,-153.5 106.5,-153.5 106.5,-134.5 64.5,-134.5"/>
<text text-anchor="middle" x="85.5" y="-141.5" font-family="Helvetica,sans-Serif" font-size="10.00">key_t</text>
</a>
</g>
</g>
<!-- Node3&#45;&gt;Node2 -->
<g id="edge2" class="edge"><title>Node3&#45;&gt;Node2</title>
<path fill="none" stroke="#9a32cd" stroke-dasharray="5,2" d="M75.0208,-125.535C67.4699,-112.95 57.6043,-96.5072 51.6764,-86.6273"/>
<polygon fill="#9a32cd" stroke="#9a32cd" points="72.0941,-127.46 80.2403,-134.234 78.0965,-123.858 72.0941,-127.46"/>
<text text-anchor="middle" x="87.5" y="-108" font-family="Helvetica,sans-Serif" font-size="10.00"> col_key</text>
</g>
<!-- Node4 -->
<g id="node4" class="node"><title>Node4</title>
<g id="a_node4"><a xlink:href="a00050.html" target="_top" xlink:title="col_t">
<polygon fill="white" stroke="black" points="27,-201.5 27,-220.5 66,-220.5 66,-201.5 27,-201.5"/>
<text text-anchor="middle" x="46.5" y="-208.5" font-family="Helvetica,sans-Serif" font-size="10.00">col_t</text>
</a>
</g>
</g>
<!-- Node4&#45;&gt;Node2 -->
<g id="edge4" class="edge"><title>Node4&#45;&gt;Node2</title>
<path fill="none" stroke="#9a32cd" stroke-dasharray="5,2" d="M39.8378,-191.376C35.1364,-176.048 30.0729,-153.716 32.5,-134 34.6061,-116.892 40.2019,-97.4938 43.6475,-86.6054"/>
<polygon fill="#9a32cd" stroke="#9a32cd" points="36.6134,-192.772 43.0849,-201.161 43.2572,-190.567 36.6134,-192.772"/>
<text text-anchor="middle" x="44" y="-141.5" font-family="Helvetica,sans-Serif" font-size="10.00"> func</text>
</g>
<!-- Node4&#45;&gt;Node3 -->
<g id="edge3" class="edge"><title>Node4&#45;&gt;Node3</title>
<path fill="none" stroke="#9a32cd" stroke-dasharray="5,2" d="M56.9792,-192.535C64.5301,-179.95 74.3957,-163.507 80.3236,-153.627"/>
<polygon fill="#9a32cd" stroke="#9a32cd" points="53.9035,-190.858 51.7597,-201.234 59.9059,-194.46 53.9035,-190.858"/>
<text text-anchor="middle" x="80" y="-175" font-family="Helvetica,sans-Serif" font-size="10.00"> keys</text>
</g>
</g>
</svg>
