<?xml version="1.0" encoding="UTF-8" standalone="no"?>
<!DOCTYPE svg PUBLIC "-//W3C//DTD SVG 1.1//EN"
 "http://www.w3.org/Graphics/SVG/1.1/DTD/svg11.dtd">
<!-- Generated by graphviz version 2.38.0 (20140413.2041)
 -->
<!-- Title: _hstmt Pages: 1 -->
<svg width="1274pt" height="1085pt"
 viewBox="0.00 0.00 1274.00 1085.12" xmlns="http://www.w3.org/2000/svg" xmlns:xlink="http://www.w3.org/1999/xlink">
<g id="graph0" class="graph" transform="scale(1 1) rotate(0) translate(4 1081.12)">
<title>_hstmt</title>
<polygon fill="white" stroke="none" points="-4,4 -4,-1081.12 1270,-1081.12 1270,4 -4,4"/>
<!-- Node1 -->
<g id="node1" class="node"><title>Node1</title>
<polygon fill="#bfbfbf" stroke="black" points="1030.5,-607.617 1030.5,-626.617 1078.5,-626.617 1078.5,-607.617 1030.5,-607.617"/>
<text text-anchor="middle" x="1054.5" y="-614.617" font-family="Helvetica,sans-Serif" font-size="10.00">_hstmt</text>
</g>
<!-- Node1&#45;&gt;Node1 -->
<g id="edge1" class="edge"><title>Node1&#45;&gt;Node1</title>
<path fill="none" stroke="#9a32cd" stroke-dasharray="5,2" d="M1036.72,-636.517C1037.91,-641.432 1043.84,-645.117 1054.5,-645.117 1071.56,-645.117 1076.49,-635.683 1069.3,-626.874"/>
<polygon fill="#9a32cd" stroke="#9a32cd" points="1040.09,-637.462 1039.7,-626.874 1033.41,-635.395 1040.09,-637.462"/>
<text text-anchor="middle" x="1054.5" y="-659.117" font-family="Helvetica,sans-Serif" font-size="10.00"> prev</text>
<text text-anchor="middle" x="1054.5" y="-648.117" font-family="Helvetica,sans-Serif" font-size="10.00">next</text>
</g>
<!-- Node17 -->
<g id="node17" class="node"><title>Node17</title>
<g id="a_node17"><a xlink:href="a00034.html" target="_top" xlink:title="_hdbc">
<polygon fill="white" stroke="black" points="1221,-652.617 1221,-671.617 1266,-671.617 1266,-652.617 1221,-652.617"/>
<text text-anchor="middle" x="1243.5" y="-659.617" font-family="Helvetica,sans-Serif" font-size="10.00">_hdbc</text>
</a>
</g>
</g>
<!-- Node1&#45;&gt;Node17 -->
<g id="edge28" class="edge"><title>Node1&#45;&gt;Node17</title>
<path fill="none" stroke="#9a32cd" stroke-dasharray="5,2" d="M1088.43,-608.388C1119.53,-601.953 1166.69,-596.973 1203,-614.117 1219.79,-622.043 1231.85,-640.986 1237.95,-652.565"/>
<polygon fill="#9a32cd" stroke="#9a32cd" points="1087.54,-605.002 1078.54,-610.597 1089.06,-611.834 1087.54,-605.002"/>
<text text-anchor="middle" x="1160" y="-628.117" font-family="Helvetica,sans-Serif" font-size="10.00"> stmt_list</text>
<text text-anchor="middle" x="1160" y="-617.117" font-family="Helvetica,sans-Serif" font-size="10.00">current_statement</text>
</g>
<!-- Node2 -->
<g id="node2" class="node"><title>Node2</title>
<g id="a_node2"><a xlink:href="a00148.html" target="_top" xlink:title="Information for a server connection. ">
<polygon fill="white" stroke="black" points="441,-355.617 441,-374.617 509,-374.617 509,-355.617 441,-355.617"/>
<text text-anchor="middle" x="475" y="-362.617" font-family="Helvetica,sans-Serif" font-size="10.00">tds_socket</text>
</a>
</g>
</g>
<!-- Node2&#45;&gt;Node1 -->
<g id="edge2" class="edge"><title>Node2&#45;&gt;Node1</title>
<path fill="none" stroke="#9a32cd" stroke-dasharray="5,2" d="M480.612,-384.786C487.561,-411.659 502.567,-460.566 527,-496.117 556.938,-539.679 566.641,-554.781 615,-576.117 690.55,-609.451 950.784,-615.723 1030.26,-616.869"/>
<polygon fill="#9a32cd" stroke="#9a32cd" points="483.921,-383.589 478.123,-374.721 477.126,-385.269 483.921,-383.589"/>
<text text-anchor="middle" x="758" y="-609.117" font-family="Helvetica,sans-Serif" font-size="10.00"> tds</text>
</g>
<!-- Node8 -->
<g id="node8" class="node"><title>Node8</title>
<g id="a_node8"><a xlink:href="a00144.html" target="_top" xlink:title="Hold information for any results. ">
<polygon fill="white" stroke="red" points="622,-386.617 622,-405.617 708,-405.617 708,-386.617 622,-386.617"/>
<text text-anchor="middle" x="665" y="-393.617" font-family="Helvetica,sans-Serif" font-size="10.00">tds_result_info</text>
</a>
</g>
</g>
<!-- Node2&#45;&gt;Node8 -->
<g id="edge11" class="edge"><title>Node2&#45;&gt;Node8</title>
<path fill="none" stroke="#9a32cd" stroke-dasharray="5,2" d="M507.548,-378.368C513.896,-380.607 520.589,-382.67 527,-384.117 558.325,-391.188 594.551,-394.141 621.881,-395.352"/>
<polygon fill="#9a32cd" stroke="#9a32cd" points="508.539,-375.002 497.947,-374.771 506.083,-381.557 508.539,-375.002"/>
<text text-anchor="middle" x="562" y="-397.117" font-family="Helvetica,sans-Serif" font-size="10.00"> attached_to</text>
</g>
<!-- Node2&#45;&gt;Node17 -->
<g id="edge29" class="edge"><title>Node2&#45;&gt;Node17</title>
<path fill="none" stroke="#9a32cd" stroke-dasharray="5,2" d="M476.776,-344.843C479.143,-309.738 488.682,-237.083 527,-192.117 668.114,-26.5218 794.903,53.0134 992,-39.1173 1240.18,-155.125 1243.8,-583.131 1242.73,-652.57"/>
<polygon fill="#9a32cd" stroke="#9a32cd" points="473.26,-345.041 476.217,-355.215 480.25,-345.418 473.26,-345.041"/>
<text text-anchor="middle" x="852.5" y="-11.1173" font-family="Helvetica,sans-Serif" font-size="10.00"> tds_socket</text>
</g>
<!-- Node3 -->
<g id="node3" class="node"><title>Node3</title>
<g id="a_node3"><a xlink:href="a00129.html" target="_top" xlink:title="tds_login">
<polygon fill="white" stroke="black" points="254,-338.617 254,-357.617 313,-357.617 313,-338.617 254,-338.617"/>
<text text-anchor="middle" x="283.5" y="-345.617" font-family="Helvetica,sans-Serif" font-size="10.00">tds_login</text>
</a>
</g>
</g>
<!-- Node3&#45;&gt;Node2 -->
<g id="edge3" class="edge"><title>Node3&#45;&gt;Node2</title>
<path fill="none" stroke="#9a32cd" stroke-dasharray="5,2" d="M323.192,-346.422C351.085,-345.814 389.552,-346.24 423,-351.117 429.905,-352.124 437.205,-353.767 444.057,-355.58"/>
<polygon fill="#9a32cd" stroke="#9a32cd" points="322.953,-342.927 313.052,-346.698 323.144,-349.924 322.953,-342.927"/>
<text text-anchor="middle" x="392.5" y="-354.117" font-family="Helvetica,sans-Serif" font-size="10.00"> login</text>
</g>
<!-- Node4 -->
<g id="node4" class="node"><title>Node4</title>
<g id="a_node4"><a xlink:href="a00102.html" target="_top" xlink:title="tds_capabilities">
<polygon fill="white" stroke="red" points="0,-125.617 0,-144.617 89,-144.617 89,-125.617 0,-125.617"/>
<text text-anchor="middle" x="44.5" y="-132.617" font-family="Helvetica,sans-Serif" font-size="10.00">tds_capabilities</text>
</a>
</g>
</g>
<!-- Node4&#45;&gt;Node3 -->
<g id="edge4" class="edge"><title>Node4&#45;&gt;Node3</title>
<path fill="none" stroke="#9a32cd" stroke-dasharray="5,2" d="M63.9239,-151.675C111.056,-194.035 234.9,-305.337 271.908,-338.598"/>
<polygon fill="#9a32cd" stroke="#9a32cd" points="66.0765,-148.904 56.2992,-144.823 61.3973,-154.111 66.0765,-148.904"/>
<text text-anchor="middle" x="156" y="-277.117" font-family="Helvetica,sans-Serif" font-size="10.00"> capabilities</text>
</g>
<!-- Node11 -->
<g id="node11" class="node"><title>Node11</title>
<g id="a_node11"><a xlink:href="a00108.html" target="_top" xlink:title="tds_connection">
<polygon fill="white" stroke="black" points="1010,-176.617 1010,-195.617 1099,-195.617 1099,-176.617 1010,-176.617"/>
<text text-anchor="middle" x="1054.5" y="-183.617" font-family="Helvetica,sans-Serif" font-size="10.00">tds_connection</text>
</a>
</g>
</g>
<!-- Node4&#45;&gt;Node11 -->
<g id="edge18" class="edge"><title>Node4&#45;&gt;Node11</title>
<path fill="none" stroke="#9a32cd" stroke-dasharray="5,2" d="M69.9031,-120.583C111.835,-97.0267 200.937,-53.1173 282.5,-53.1173 282.5,-53.1173 282.5,-53.1173 853.5,-53.1173 917.214,-53.1173 940.556,-52.5265 992,-90.1173 1023.32,-113.006 1042.73,-157.12 1050.11,-176.541"/>
<polygon fill="#9a32cd" stroke="#9a32cd" points="68.1632,-117.546 61.2222,-125.55 71.64,-123.621 68.1632,-117.546"/>
<text text-anchor="middle" x="562" y="-56.1173" font-family="Helvetica,sans-Serif" font-size="10.00"> capabilities</text>
</g>
<!-- Node5 -->
<g id="node5" class="node"><title>Node5</title>
<g id="a_node5"><a xlink:href="a00117.html" target="_top" xlink:title="Structure to hold a string. ">
<polygon fill="white" stroke="black" points="17,-869.617 17,-888.617 72,-888.617 72,-869.617 17,-869.617"/>
<text text-anchor="middle" x="44.5" y="-876.617" font-family="Helvetica,sans-Serif" font-size="10.00">tds_dstr</text>
</a>
</g>
</g>
<!-- Node5&#45;&gt;Node1 -->
<g id="edge50" class="edge"><title>Node5&#45;&gt;Node1</title>
<path fill="none" stroke="#9a32cd" stroke-dasharray="5,2" d="M72.1462,-893.742C106.018,-911.421 166.854,-940.163 223,-951.117 445.976,-994.619 798.574,-891.619 904,-842.117 949.743,-820.639 964.145,-812.281 992,-770.117 1007.82,-746.176 999.778,-734.928 1010,-708.117 1021.66,-677.52 1039.5,-643.067 1048.27,-626.718"/>
<polygon fill="#9a32cd" stroke="#9a32cd" points="73.4087,-890.45 62.9341,-888.858 70.1296,-896.635 73.4087,-890.45"/>
<text text-anchor="middle" x="562" y="-948.117" font-family="Helvetica,sans-Serif" font-size="10.00"> cursor_name</text>
</g>
<!-- Node5&#45;&gt;Node3 -->
<g id="edge5" class="edge"><title>Node5&#45;&gt;Node3</title>
<path fill="none" stroke="#9a32cd" stroke-dasharray="5,2" d="M48.2464,-859.165C54.9647,-812.974 74.1246,-695.499 107,-602.117 145.679,-492.251 134.721,-443.1 223,-367.117 231.63,-359.69 243.19,-355.159 253.825,-352.398"/>
<polygon fill="#9a32cd" stroke="#9a32cd" points="44.7459,-858.922 46.8057,-869.315 51.6764,-859.906 44.7459,-858.922"/>
<text text-anchor="middle" x="156" y="-726.117" font-family="Helvetica,sans-Serif" font-size="10.00"> server_realm_name</text>
<text text-anchor="middle" x="156" y="-715.117" font-family="Helvetica,sans-Serif" font-size="10.00">password</text>
<text text-anchor="middle" x="156" y="-704.117" font-family="Helvetica,sans-Serif" font-size="10.00">server_name</text>
<text text-anchor="middle" x="156" y="-693.117" font-family="Helvetica,sans-Serif" font-size="10.00">dump_file</text>
<text text-anchor="middle" x="156" y="-682.117" font-family="Helvetica,sans-Serif" font-size="10.00">library</text>
<text text-anchor="middle" x="156" y="-671.117" font-family="Helvetica,sans-Serif" font-size="10.00">crlfile</text>
<text text-anchor="middle" x="156" y="-660.117" font-family="Helvetica,sans-Serif" font-size="10.00">server_spn</text>
<text text-anchor="start" x="107" y="-649.117" font-family="Helvetica,sans-Serif" font-size="10.00">client_host</text>
<text text-anchor="middle" x="156" y="-638.117" font-family="Helvetica,sans-Serif" font-size="10.00">_name</text>
<text text-anchor="middle" x="156" y="-627.117" font-family="Helvetica,sans-Serif" font-size="10.00">client_charset</text>
<text text-anchor="middle" x="156" y="-616.117" font-family="Helvetica,sans-Serif" font-size="10.00">server_charset</text>
<text text-anchor="middle" x="156" y="-605.117" font-family="Helvetica,sans-Serif" font-size="10.00">...</text>
</g>
<!-- Node5&#45;&gt;Node17 -->
<g id="edge32" class="edge"><title>Node5&#45;&gt;Node17</title>
<path fill="none" stroke="#9a32cd" stroke-dasharray="5,2" d="M58.5882,-896.828C69.9653,-911.105 87.629,-930.773 107,-943.117 176.517,-987.418 200.068,-1003.12 282.5,-1003.12 282.5,-1003.12 282.5,-1003.12 1055.5,-1003.12 1210.79,-1003.12 1237.99,-727.866 1241.91,-671.955"/>
<polygon fill="#9a32cd" stroke="#9a32cd" points="61.2361,-894.53 52.3578,-888.749 55.6929,-898.805 61.2361,-894.53"/>
<text text-anchor="middle" x="665" y="-1017.12" font-family="Helvetica,sans-Serif" font-size="10.00"> server</text>
<text text-anchor="middle" x="665" y="-1006.12" font-family="Helvetica,sans-Serif" font-size="10.00">dsn</text>
</g>
<!-- Node18 -->
<g id="node18" class="node"><title>Node18</title>
<g id="a_node18"><a xlink:href="a00032.html" target="_top" xlink:title="_hcattr">
<polygon fill="white" stroke="black" points="367.5,-1040.62 367.5,-1059.62 417.5,-1059.62 417.5,-1040.62 367.5,-1040.62"/>
<text text-anchor="middle" x="392.5" y="-1047.62" font-family="Helvetica,sans-Serif" font-size="10.00">_hcattr</text>
</a>
</g>
</g>
<!-- Node5&#45;&gt;Node18 -->
<g id="edge31" class="edge"><title>Node5&#45;&gt;Node18</title>
<path fill="none" stroke="#9a32cd" stroke-dasharray="5,2" d="M48.0968,-898.765C53.2917,-929.525 68.0267,-988.491 107,-1017.12 186.748,-1075.69 314.426,-1063.14 367.329,-1054.65"/>
<polygon fill="#9a32cd" stroke="#9a32cd" points="51.548,-898.178 46.5873,-888.817 44.6272,-899.229 51.548,-898.178"/>
<text text-anchor="middle" x="156" y="-1069.12" font-family="Helvetica,sans-Serif" font-size="10.00"> translate_lib</text>
<text text-anchor="middle" x="156" y="-1058.12" font-family="Helvetica,sans-Serif" font-size="10.00">current_catalog</text>
</g>
<!-- Node21 -->
<g id="node21" class="node"><title>Node21</title>
<g id="a_node21"><a xlink:href="a00031.html" target="_top" xlink:title="_drecord">
<polygon fill="white" stroke="black" points="532.5,-771.617 532.5,-790.617 591.5,-790.617 591.5,-771.617 532.5,-771.617"/>
<text text-anchor="middle" x="562" y="-778.617" font-family="Helvetica,sans-Serif" font-size="10.00">_drecord</text>
</a>
</g>
</g>
<!-- Node5&#45;&gt;Node21 -->
<g id="edge36" class="edge"><title>Node5&#45;&gt;Node21</title>
<path fill="none" stroke="#9a32cd" stroke-dasharray="5,2" d="M73.4166,-864.879C107.675,-848.137 168,-821.001 223,-808.117 335.052,-781.868 473.082,-779.964 532.064,-780.53"/>
<polygon fill="#9a32cd" stroke="#9a32cd" points="71.4725,-861.936 64.0635,-869.509 74.5782,-868.209 71.4725,-861.936"/>
<text text-anchor="middle" x="283.5" y="-943.117" font-family="Helvetica,sans-Serif" font-size="10.00"> sql_desc_schema_name</text>
<text text-anchor="middle" x="283.5" y="-932.117" font-family="Helvetica,sans-Serif" font-size="10.00">sql_desc_name</text>
<text text-anchor="start" x="223" y="-921.117" font-family="Helvetica,sans-Serif" font-size="10.00">sql_desc_base_column</text>
<text text-anchor="middle" x="283.5" y="-910.117" font-family="Helvetica,sans-Serif" font-size="10.00">_name</text>
<text text-anchor="start" x="223" y="-899.117" font-family="Helvetica,sans-Serif" font-size="10.00">sql_desc_base_table</text>
<text text-anchor="middle" x="283.5" y="-888.117" font-family="Helvetica,sans-Serif" font-size="10.00">_name</text>
<text text-anchor="start" x="223" y="-877.117" font-family="Helvetica,sans-Serif" font-size="10.00">sql_desc_catalog</text>
<text text-anchor="middle" x="283.5" y="-866.117" font-family="Helvetica,sans-Serif" font-size="10.00">_name</text>
<text text-anchor="start" x="223" y="-855.117" font-family="Helvetica,sans-Serif" font-size="10.00">sql_desc_table</text>
<text text-anchor="middle" x="283.5" y="-844.117" font-family="Helvetica,sans-Serif" font-size="10.00">_name</text>
<text text-anchor="middle" x="283.5" y="-833.117" font-family="Helvetica,sans-Serif" font-size="10.00">sql_desc_label</text>
<text text-anchor="start" x="223" y="-822.117" font-family="Helvetica,sans-Serif" font-size="10.00">sql_desc_local</text>
<text text-anchor="middle" x="283.5" y="-811.117" font-family="Helvetica,sans-Serif" font-size="10.00">_type_name</text>
</g>
<!-- Node25 -->
<g id="node25" class="node"><title>Node25</title>
<g id="a_node25"><a xlink:href="a00038.html" target="_top" xlink:title="_hsattr">
<polygon fill="white" stroke="black" points="733,-828.617 733,-847.617 783,-847.617 783,-828.617 733,-828.617"/>
<text text-anchor="middle" x="758" y="-835.617" font-family="Helvetica,sans-Serif" font-size="10.00">_hsattr</text>
</a>
</g>
</g>
<!-- Node5&#45;&gt;Node25 -->
<g id="edge47" class="edge"><title>Node5&#45;&gt;Node25</title>
<path fill="none" stroke="#9a32cd" stroke-dasharray="5,2" d="M56.3585,-860.767C67.0972,-844.311 85.0762,-820.856 107,-808.117 152.445,-781.712 170.692,-790.253 223,-785.117 276.52,-779.863 290.332,-781.688 344,-785.117 421.012,-790.039 656.824,-823.614 732.999,-834.627"/>
<polygon fill="#9a32cd" stroke="#9a32cd" points="53.2251,-859.177 50.8973,-869.513 59.1626,-862.884 53.2251,-859.177"/>
<text text-anchor="middle" x="392.5" y="-806.117" font-family="Helvetica,sans-Serif" font-size="10.00"> qn_msgtext</text>
<text text-anchor="middle" x="392.5" y="-795.117" font-family="Helvetica,sans-Serif" font-size="10.00">qn_options</text>
</g>
<!-- Node6 -->
<g id="node6" class="node"><title>Node6</title>
<g id="a_node6"><a xlink:href="a00138.html" target="_top" xlink:title="tds_packet">
<polygon fill="white" stroke="black" points="249.5,-376.617 249.5,-395.617 317.5,-395.617 317.5,-376.617 249.5,-376.617"/>
<text text-anchor="middle" x="283.5" y="-383.617" font-family="Helvetica,sans-Serif" font-size="10.00">tds_packet</text>
</a>
</g>
</g>
<!-- Node6&#45;&gt;Node2 -->
<g id="edge6" class="edge"><title>Node6&#45;&gt;Node2</title>
<path fill="none" stroke="#9a32cd" stroke-dasharray="5,2" d="M327.711,-381.329C362.031,-377.525 409.318,-372.285 440.734,-368.804"/>
<polygon fill="#9a32cd" stroke="#9a32cd" points="327.062,-377.879 317.508,-382.459 327.833,-384.837 327.062,-377.879"/>
<text text-anchor="middle" x="392.5" y="-392.117" font-family="Helvetica,sans-Serif" font-size="10.00"> recv_packet</text>
<text text-anchor="middle" x="392.5" y="-381.117" font-family="Helvetica,sans-Serif" font-size="10.00">send_packet</text>
</g>
<!-- Node6&#45;&gt;Node6 -->
<g id="edge7" class="edge"><title>Node6&#45;&gt;Node6</title>
<path fill="none" stroke="#9a32cd" stroke-dasharray="5,2" d="M263.501,-405.517C264.837,-410.432 271.503,-414.117 283.5,-414.117 302.695,-414.117 308.244,-404.683 300.146,-395.874"/>
<polygon fill="#9a32cd" stroke="#9a32cd" points="266.876,-406.469 266.854,-395.874 260.264,-404.17 266.876,-406.469"/>
<text text-anchor="middle" x="283.5" y="-417.117" font-family="Helvetica,sans-Serif" font-size="10.00"> next</text>
</g>
<!-- Node7 -->
<g id="node7" class="node"><title>Node7</title>
<g id="a_node7"><a xlink:href="a00118.html" target="_top" xlink:title="Holds information for a dynamic (also called prepared) query. ">
<polygon fill="white" stroke="black" points="814.5,-285.617 814.5,-304.617 890.5,-304.617 890.5,-285.617 814.5,-285.617"/>
<text text-anchor="middle" x="852.5" y="-292.617" font-family="Helvetica,sans-Serif" font-size="10.00">tds_dynamic</text>
</a>
</g>
</g>
<!-- Node7&#45;&gt;Node1 -->
<g id="edge26" class="edge"><title>Node7&#45;&gt;Node1</title>
<path fill="none" stroke="#9a32cd" stroke-dasharray="5,2" d="M874.256,-311.149C884.853,-320.48 896.964,-333.145 904,-347.117 926.28,-391.363 889.306,-419.899 922,-457.117 943.436,-481.52 967.642,-456.63 992,-478.117 1032.77,-514.078 1047.75,-582.17 1052.04,-607.397"/>
<polygon fill="#9a32cd" stroke="#9a32cd" points="876.468,-308.436 866.555,-304.696 871.972,-313.801 876.468,-308.436"/>
<text text-anchor="middle" x="957" y="-481.117" font-family="Helvetica,sans-Serif" font-size="10.00"> dyn</text>
</g>
<!-- Node7&#45;&gt;Node2 -->
<g id="edge8" class="edge"><title>Node7&#45;&gt;Node2</title>
<path fill="none" stroke="#9a32cd" stroke-dasharray="5,2" d="M835.301,-278.254C822.432,-266.15 803.28,-250.838 783,-244.117 711.462,-220.411 684.772,-238.631 615,-267.117 561.148,-289.104 507.865,-335.285 486.165,-355.404"/>
<polygon fill="#9a32cd" stroke="#9a32cd" points="832.865,-280.767 842.456,-285.269 837.766,-275.769 832.865,-280.767"/>
<text text-anchor="middle" x="665" y="-270.117" font-family="Helvetica,sans-Serif" font-size="10.00"> cur_dyn</text>
</g>
<!-- Node7&#45;&gt;Node7 -->
<g id="edge9" class="edge"><title>Node7&#45;&gt;Node7</title>
<path fill="none" stroke="#9a32cd" stroke-dasharray="5,2" d="M835.093,-314.517C836.256,-319.432 842.058,-323.117 852.5,-323.117 869.207,-323.117 874.036,-313.683 866.988,-304.874"/>
<polygon fill="#9a32cd" stroke="#9a32cd" points="838.465,-315.459 838.012,-304.874 831.765,-313.432 838.465,-315.459"/>
<text text-anchor="middle" x="852.5" y="-326.117" font-family="Helvetica,sans-Serif" font-size="10.00"> next</text>
</g>
<!-- Node7&#45;&gt;Node11 -->
<g id="edge22" class="edge"><title>Node7&#45;&gt;Node11</title>
<path fill="none" stroke="#9a32cd" stroke-dasharray="5,2" d="M900.851,-292.91C929.131,-289.718 964.732,-282.263 992,-265.117 1019.96,-247.538 1040.29,-212.537 1048.92,-195.657"/>
<polygon fill="#9a32cd" stroke="#9a32cd" points="900.401,-289.437 890.793,-293.903 901.088,-296.403 900.401,-289.437"/>
<text text-anchor="middle" x="957" y="-293.117" font-family="Helvetica,sans-Serif" font-size="10.00"> dyns</text>
</g>
<!-- Node8&#45;&gt;Node1 -->
<g id="edge48" class="edge"><title>Node8&#45;&gt;Node1</title>
<path fill="none" stroke="#9a32cd" stroke-dasharray="5,2" d="M704.974,-409.055C728.104,-417.235 757.747,-428.603 783,-441.117 784.528,-441.875 990.595,-569.15 992,-570.117 1009.71,-582.307 1029.31,-597.619 1041.51,-607.389"/>
<polygon fill="#9a32cd" stroke="#9a32cd" points="706.086,-405.736 695.491,-405.751 703.782,-412.346 706.086,-405.736"/>
<text text-anchor="middle" x="852.5" y="-517.117" font-family="Helvetica,sans-Serif" font-size="10.00"> params</text>
</g>
<!-- Node8&#45;&gt;Node2 -->
<g id="edge12" class="edge"><title>Node8&#45;&gt;Node2</title>
<path fill="none" stroke="#9a32cd" stroke-dasharray="5,2" d="M650.821,-378.693C638.668,-364.192 619.189,-344.601 597,-336.117 567.94,-325.007 557.077,-328.164 527,-336.117 512.82,-339.867 498.456,-348.574 488.601,-355.475"/>
<polygon fill="#9a32cd" stroke="#9a32cd" points="648.11,-380.906 657.095,-386.519 653.572,-376.528 648.11,-380.906"/>
<text text-anchor="middle" x="562" y="-372.117" font-family="Helvetica,sans-Serif" font-size="10.00"> param_info</text>
<text text-anchor="middle" x="562" y="-361.117" font-family="Helvetica,sans-Serif" font-size="10.00">current_results</text>
<text text-anchor="middle" x="562" y="-350.117" font-family="Helvetica,sans-Serif" font-size="10.00">res_info</text>
<text text-anchor="middle" x="562" y="-339.117" font-family="Helvetica,sans-Serif" font-size="10.00">comp_info</text>
</g>
<!-- Node8&#45;&gt;Node7 -->
<g id="edge10" class="edge"><title>Node8&#45;&gt;Node7</title>
<path fill="none" stroke="#9a32cd" stroke-dasharray="5,2" d="M680.139,-378.722C692.662,-364.36 712.148,-344.407 733,-332.117 758.252,-317.234 790.117,-307.722 814.443,-302.075"/>
<polygon fill="#9a32cd" stroke="#9a32cd" points="677.403,-376.538 673.614,-386.432 682.746,-381.06 677.403,-376.538"/>
<text text-anchor="middle" x="758" y="-346.117" font-family="Helvetica,sans-Serif" font-size="10.00"> res_info</text>
<text text-anchor="middle" x="758" y="-335.117" font-family="Helvetica,sans-Serif" font-size="10.00">params</text>
</g>
<!-- Node9 -->
<g id="node9" class="node"><title>Node9</title>
<g id="a_node9"><a xlink:href="a00110.html" target="_top" xlink:title="Holds informations about a cursor. ">
<polygon fill="white" stroke="black" points="819.5,-394.617 819.5,-413.617 885.5,-413.617 885.5,-394.617 819.5,-394.617"/>
<text text-anchor="middle" x="852.5" y="-401.617" font-family="Helvetica,sans-Serif" font-size="10.00">tds_cursor</text>
</a>
</g>
</g>
<!-- Node8&#45;&gt;Node9 -->
<g id="edge15" class="edge"><title>Node8&#45;&gt;Node9</title>
<path fill="none" stroke="#9a32cd" stroke-dasharray="5,2" d="M718.332,-398.374C750.843,-399.776 791.59,-401.534 819.394,-402.733"/>
<polygon fill="#9a32cd" stroke="#9a32cd" points="718.234,-394.867 708.093,-397.933 717.933,-401.86 718.234,-394.867"/>
<text text-anchor="middle" x="758" y="-404.117" font-family="Helvetica,sans-Serif" font-size="10.00"> res_info</text>
</g>
<!-- Node9&#45;&gt;Node1 -->
<g id="edge49" class="edge"><title>Node9&#45;&gt;Node1</title>
<path fill="none" stroke="#9a32cd" stroke-dasharray="5,2" d="M871.741,-420.833C881.967,-430.769 894.531,-443.967 904,-457.117 913.991,-470.992 908.93,-480.094 922,-491.117 947.032,-512.231 966.434,-493.654 992,-514.117 1024.03,-539.756 1043.18,-586.93 1050.31,-607.312"/>
<polygon fill="#9a32cd" stroke="#9a32cd" points="874.127,-418.273 864.465,-413.925 869.307,-423.349 874.127,-418.273"/>
<text text-anchor="middle" x="957" y="-517.117" font-family="Helvetica,sans-Serif" font-size="10.00"> cursor</text>
</g>
<!-- Node9&#45;&gt;Node2 -->
<g id="edge13" class="edge"><title>Node9&#45;&gt;Node2</title>
<path fill="none" stroke="#9a32cd" stroke-dasharray="5,2" d="M835.613,-421.191C817.509,-440.435 789.57,-469.41 783,-472.117 762.454,-480.584 754.978,-475.403 733,-472.117 638.311,-457.962 610.822,-455.381 527,-409.117 510.414,-399.963 494.397,-384.775 484.87,-374.855"/>
<polygon fill="#9a32cd" stroke="#9a32cd" points="838.174,-423.577 842.455,-413.885 833.064,-418.792 838.174,-423.577"/>
<text text-anchor="middle" x="665" y="-473.117" font-family="Helvetica,sans-Serif" font-size="10.00"> cur_cursor</text>
</g>
<!-- Node9&#45;&gt;Node9 -->
<g id="edge16" class="edge"><title>Node9&#45;&gt;Node9</title>
<path fill="none" stroke="#9a32cd" stroke-dasharray="5,2" d="M835.093,-423.517C836.256,-428.432 842.058,-432.117 852.5,-432.117 869.207,-432.117 874.036,-422.683 866.988,-413.874"/>
<polygon fill="#9a32cd" stroke="#9a32cd" points="838.465,-424.459 838.012,-413.874 831.765,-422.432 838.465,-424.459"/>
<text text-anchor="middle" x="852.5" y="-435.117" font-family="Helvetica,sans-Serif" font-size="10.00"> next</text>
</g>
<!-- Node9&#45;&gt;Node11 -->
<g id="edge24" class="edge"><title>Node9&#45;&gt;Node11</title>
<path fill="none" stroke="#9a32cd" stroke-dasharray="5,2" d="M893.901,-390.519C897.4,-388.866 900.816,-387.064 904,-385.117 949.094,-357.542 959.802,-347.036 992,-305.117 1020.19,-268.416 1041.72,-216.866 1049.9,-195.73"/>
<polygon fill="#9a32cd" stroke="#9a32cd" points="892.346,-387.378 884.548,-394.551 895.116,-393.806 892.346,-387.378"/>
<text text-anchor="middle" x="957" y="-376.117" font-family="Helvetica,sans-Serif" font-size="10.00"> cursors</text>
</g>
<!-- Node10 -->
<g id="node10" class="node"><title>Node10</title>
<g id="a_node10"><a xlink:href="a00111.html" target="_top" xlink:title="tds_cursor_status">
<polygon fill="white" stroke="black" points="615,-509.617 615,-528.617 715,-528.617 715,-509.617 615,-509.617"/>
<text text-anchor="middle" x="665" y="-516.617" font-family="Helvetica,sans-Serif" font-size="10.00">tds_cursor_status</text>
</a>
</g>
</g>
<!-- Node10&#45;&gt;Node9 -->
<g id="edge14" class="edge"><title>Node10&#45;&gt;Node9</title>
<path fill="none" stroke="#9a32cd" stroke-dasharray="5,2" d="M725.243,-518.815C745.316,-516.067 766.745,-509.913 783,-497.117 798.318,-485.059 790.121,-473.294 801,-457.117 812.348,-440.243 829.238,-423.759 840.309,-413.768"/>
<polygon fill="#9a32cd" stroke="#9a32cd" points="724.768,-515.346 715.217,-519.932 725.543,-522.303 724.768,-515.346"/>
<text text-anchor="middle" x="758" y="-521.117" font-family="Helvetica,sans-Serif" font-size="10.00"> status</text>
</g>
<!-- Node11&#45;&gt;Node2 -->
<g id="edge17" class="edge"><title>Node11&#45;&gt;Node2</title>
<path fill="none" stroke="#9a32cd" stroke-dasharray="5,2" d="M1004.1,-174.462C920.4,-157.209 746.97,-132.34 615,-186.117 536.661,-218.04 491.865,-322.598 479.526,-355.27"/>
<polygon fill="#9a32cd" stroke="#9a32cd" points="1003.58,-177.931 1014.09,-176.575 1005.03,-171.082 1003.58,-177.931"/>
<text text-anchor="middle" x="758" y="-161.117" font-family="Helvetica,sans-Serif" font-size="10.00"> conn</text>
</g>
<!-- Node12 -->
<g id="node12" class="node"><title>Node12</title>
<g id="a_node12"><a xlink:href="a00121.html" target="_top" xlink:title="Current environment as reported by the server. ">
<polygon fill="white" stroke="black" points="825.5,-81.6173 825.5,-100.617 879.5,-100.617 879.5,-81.6173 825.5,-81.6173"/>
<text text-anchor="middle" x="852.5" y="-88.6173" font-family="Helvetica,sans-Serif" font-size="10.00">tds_env</text>
</a>
</g>
</g>
<!-- Node12&#45;&gt;Node11 -->
<g id="edge19" class="edge"><title>Node12&#45;&gt;Node11</title>
<path fill="none" stroke="#9a32cd" stroke-dasharray="5,2" d="M889.974,-90.4732C919.296,-91.4694 960.624,-96.3925 992,-114.117 1018.77,-129.238 1039.24,-160.686 1048.34,-176.541"/>
<polygon fill="#9a32cd" stroke="#9a32cd" points="889.824,-86.9695 879.756,-90.2674 889.683,-93.9681 889.824,-86.9695"/>
<text text-anchor="middle" x="957" y="-117.117" font-family="Helvetica,sans-Serif" font-size="10.00"> env</text>
</g>
<!-- Node13 -->
<g id="node13" class="node"><title>Node13</title>
<g id="a_node13"><a xlink:href="a00109.html" target="_top" xlink:title="tds_context">
<polygon fill="white" stroke="red" points="629.5,-195.617 629.5,-214.617 700.5,-214.617 700.5,-195.617 629.5,-195.617"/>
<text text-anchor="middle" x="665" y="-202.617" font-family="Helvetica,sans-Serif" font-size="10.00">tds_context</text>
</a>
</g>
</g>
<!-- Node13&#45;&gt;Node11 -->
<g id="edge20" class="edge"><title>Node13&#45;&gt;Node11</title>
<path fill="none" stroke="#9a32cd" stroke-dasharray="5,2" d="M710.546,-208.843C732.487,-211.084 759.264,-214.429 783,-219.117 791.146,-220.726 792.773,-222.996 801,-224.117 885.226,-235.598 910.079,-236.807 992,-214.117 1007.6,-209.796 1024.25,-201.997 1036.29,-195.726"/>
<polygon fill="#9a32cd" stroke="#9a32cd" points="710.81,-205.352 700.517,-207.86 710.128,-212.318 710.81,-205.352"/>
<text text-anchor="middle" x="852.5" y="-236.117" font-family="Helvetica,sans-Serif" font-size="10.00"> tds_ctx</text>
</g>
<!-- Node23 -->
<g id="node23" class="node"><title>Node23</title>
<g id="a_node23"><a xlink:href="a00037.html" target="_top" xlink:title="_henv">
<polygon fill="white" stroke="black" points="829.5,-356.617 829.5,-375.617 875.5,-375.617 875.5,-356.617 829.5,-356.617"/>
<text text-anchor="middle" x="852.5" y="-363.617" font-family="Helvetica,sans-Serif" font-size="10.00">_henv</text>
</a>
</g>
</g>
<!-- Node13&#45;&gt;Node23 -->
<g id="edge42" class="edge"><title>Node13&#45;&gt;Node23</title>
<path fill="none" stroke="#9a32cd" stroke-dasharray="5,2" d="M707.866,-218.278C733.389,-228.441 764.545,-245.069 783,-270.117 802.821,-297.02 779.663,-317.4 801,-343.117 808.197,-351.792 819.364,-357.342 829.369,-360.811"/>
<polygon fill="#9a32cd" stroke="#9a32cd" points="708.99,-214.961 698.398,-214.695 706.512,-221.508 708.99,-214.961"/>
<text text-anchor="middle" x="758" y="-273.117" font-family="Helvetica,sans-Serif" font-size="10.00"> tds_ctx</text>
</g>
<!-- Node14 -->
<g id="node14" class="node"><title>Node14</title>
<g id="a_node14"><a xlink:href="a00098.html" target="_top" xlink:title="tds_authentication">
<polygon fill="white" stroke="black" points="801,-195.617 801,-214.617 904,-214.617 904,-195.617 801,-195.617"/>
<text text-anchor="middle" x="852.5" y="-202.617" font-family="Helvetica,sans-Serif" font-size="10.00">tds_authentication</text>
</a>
</g>
</g>
<!-- Node14&#45;&gt;Node11 -->
<g id="edge21" class="edge"><title>Node14&#45;&gt;Node11</title>
<path fill="none" stroke="#9a32cd" stroke-dasharray="5,2" d="M914.438,-199.328C945.275,-196.399 981.992,-192.911 1009.95,-190.254"/>
<polygon fill="#9a32cd" stroke="#9a32cd" points="913.851,-195.868 904.227,-200.298 914.513,-202.837 913.851,-195.868"/>
<text text-anchor="middle" x="957" y="-202.117" font-family="Helvetica,sans-Serif" font-size="10.00"> authentication</text>
</g>
<!-- Node15 -->
<g id="node15" class="node"><title>Node15</title>
<g id="a_node15"><a xlink:href="a00161.html" target="_top" xlink:title="tdsiconvinfo">
<polygon fill="white" stroke="red" points="816,-119.617 816,-138.617 889,-138.617 889,-119.617 816,-119.617"/>
<text text-anchor="middle" x="852.5" y="-126.617" font-family="Helvetica,sans-Serif" font-size="10.00">tdsiconvinfo</text>
</a>
</g>
</g>
<!-- Node15&#45;&gt;Node11 -->
<g id="edge23" class="edge"><title>Node15&#45;&gt;Node11</title>
<path fill="none" stroke="#9a32cd" stroke-dasharray="5,2" d="M899.249,-127.476C926.902,-127.917 962.408,-131.07 992,-142.117 1012.42,-149.739 1032.21,-165.977 1043.61,-176.453"/>
<polygon fill="#9a32cd" stroke="#9a32cd" points="899.08,-123.976 889.063,-127.429 899.047,-130.976 899.08,-123.976"/>
<text text-anchor="middle" x="957" y="-145.117" font-family="Helvetica,sans-Serif" font-size="10.00"> char_convs</text>
</g>
<!-- Node16 -->
<g id="node16" class="node"><title>Node16</title>
<g id="a_node16"><a xlink:href="a00134.html" target="_top" xlink:title="tds_mutex">
<polygon fill="white" stroke="black" points="251,-631.617 251,-650.617 316,-650.617 316,-631.617 251,-631.617"/>
<text text-anchor="middle" x="283.5" y="-638.617" font-family="Helvetica,sans-Serif" font-size="10.00">tds_mutex</text>
</a>
</g>
</g>
<!-- Node16&#45;&gt;Node1 -->
<g id="edge53" class="edge"><title>Node16&#45;&gt;Node1</title>
<path fill="none" stroke="#9a32cd" stroke-dasharray="5,2" d="M326.292,-641.117C364.69,-641.117 423.178,-641.117 474,-641.117 474,-641.117 474,-641.117 759,-641.117 860.313,-641.117 980.586,-626.833 1030.26,-620.304"/>
<polygon fill="#9a32cd" stroke="#9a32cd" points="326.018,-637.617 316.018,-641.117 326.018,-644.617 326.018,-637.617"/>
<text text-anchor="middle" x="665" y="-644.117" font-family="Helvetica,sans-Serif" font-size="10.00"> mtx</text>
</g>
<!-- Node16&#45;&gt;Node2 -->
<g id="edge25" class="edge"><title>Node16&#45;&gt;Node2</title>
<path fill="none" stroke="#9a32cd" stroke-dasharray="5,2" d="M289.333,-621.352C298.768,-585.651 322.268,-509.193 362,-456.117 369.507,-446.089 433.644,-396.188 461.344,-374.836"/>
<polygon fill="#9a32cd" stroke="#9a32cd" points="285.842,-620.875 286.761,-631.43 292.625,-622.606 285.842,-620.875"/>
<text text-anchor="middle" x="392.5" y="-459.117" font-family="Helvetica,sans-Serif" font-size="10.00"> wire_mtx</text>
</g>
<!-- Node16&#45;&gt;Node17 -->
<g id="edge40" class="edge"><title>Node16&#45;&gt;Node17</title>
<path fill="none" stroke="#9a32cd" stroke-dasharray="5,2" d="M316.75,-654.683C330.636,-660.459 347.078,-667.213 362,-673.117 465.849,-714.212 507.731,-695.003 597,-762.117 607.657,-770.13 603.273,-779.773 615,-786.117 671.536,-816.7 840.247,-806.316 904,-798.117 1041.9,-780.382 1088.83,-785.468 1203,-706.117 1216.66,-696.626 1228.85,-681.527 1235.96,-671.719"/>
<polygon fill="#9a32cd" stroke="#9a32cd" points="317.726,-651.298 307.149,-650.676 315.03,-657.757 317.726,-651.298"/>
<text text-anchor="middle" x="758" y="-809.117" font-family="Helvetica,sans-Serif" font-size="10.00"> mtx</text>
</g>
<!-- Node19 -->
<g id="node19" class="node"><title>Node19</title>
<g id="a_node19"><a xlink:href="a00035.html" target="_top" xlink:title="_hdesc">
<polygon fill="white" stroke="black" points="827,-690.617 827,-709.617 878,-709.617 878,-690.617 827,-690.617"/>
<text text-anchor="middle" x="852.5" y="-697.617" font-family="Helvetica,sans-Serif" font-size="10.00">_hdesc</text>
</a>
</g>
</g>
<!-- Node16&#45;&gt;Node19 -->
<g id="edge38" class="edge"><title>Node16&#45;&gt;Node19</title>
<path fill="none" stroke="#9a32cd" stroke-dasharray="5,2" d="M325.972,-649.297C337.597,-651.402 350.264,-653.521 362,-655.117 539.581,-679.273 755.209,-694.079 826.966,-698.62"/>
<polygon fill="#9a32cd" stroke="#9a32cd" points="326.545,-645.843 316.075,-647.464 325.27,-652.726 326.545,-645.843"/>
<text text-anchor="middle" x="562" y="-683.117" font-family="Helvetica,sans-Serif" font-size="10.00"> mtx</text>
</g>
<!-- Node16&#45;&gt;Node23 -->
<g id="edge45" class="edge"><title>Node16&#45;&gt;Node23</title>
<path fill="none" stroke="#9a32cd" stroke-dasharray="5,2" d="M314.371,-627.365C371.925,-601.094 502.454,-542.608 615,-500.117 658.785,-483.586 683.092,-501.356 715,-467.117 737.194,-443.302 709.977,-419.132 733,-396.117 758.665,-370.461 802.916,-365.694 829.472,-365.358"/>
<polygon fill="#9a32cd" stroke="#9a32cd" points="312.77,-624.248 305.133,-631.592 315.682,-630.614 312.77,-624.248"/>
<text text-anchor="middle" x="562" y="-537.117" font-family="Helvetica,sans-Serif" font-size="10.00"> mtx</text>
</g>
<!-- Node17&#45;&gt;Node1 -->
<g id="edge27" class="edge"><title>Node17&#45;&gt;Node1</title>
<path fill="none" stroke="#9a32cd" stroke-dasharray="5,2" d="M1210.68,-658.192C1185.1,-654.643 1148.38,-648.656 1117,-640.117 1103.8,-636.525 1089.46,-631.247 1077.95,-626.653"/>
<polygon fill="#9a32cd" stroke="#9a32cd" points="1210.54,-661.705 1220.92,-659.565 1211.47,-654.767 1210.54,-661.705"/>
<text text-anchor="middle" x="1160" y="-660.117" font-family="Helvetica,sans-Serif" font-size="10.00"> dbc</text>
</g>
<!-- Node18&#45;&gt;Node17 -->
<g id="edge30" class="edge"><title>Node18&#45;&gt;Node17</title>
<path fill="none" stroke="#9a32cd" stroke-dasharray="5,2" d="M427.911,-1051.09C461.77,-1051.97 514.941,-1053.12 561,-1053.12 561,-1053.12 561,-1053.12 1055.5,-1053.12 1122.98,-1053.12 1158.45,-1067.8 1203,-1017.12 1226.49,-990.394 1239.61,-726.277 1242.07,-671.883"/>
<polygon fill="#9a32cd" stroke="#9a32cd" points="427.719,-1047.59 417.63,-1050.82 427.533,-1054.58 427.719,-1047.59"/>
<text text-anchor="middle" x="758" y="-1056.12" font-family="Helvetica,sans-Serif" font-size="10.00"> attr</text>
</g>
<!-- Node19&#45;&gt;Node1 -->
<g id="edge51" class="edge"><title>Node19&#45;&gt;Node1</title>
<path fill="none" stroke="#9a32cd" stroke-dasharray="5,2" d="M879.915,-685.899C892.47,-679.429 907.806,-671.937 922,-666.117 952.3,-653.695 961.337,-654.614 992,-643.117 1005.46,-638.071 1020.31,-631.813 1032.04,-626.701"/>
<polygon fill="#9a32cd" stroke="#9a32cd" points="878.16,-682.867 870.921,-690.603 881.404,-689.07 878.16,-682.867"/>
<text text-anchor="middle" x="957" y="-724.117" font-family="Helvetica,sans-Serif" font-size="10.00"> apd</text>
<text text-anchor="middle" x="957" y="-713.117" font-family="Helvetica,sans-Serif" font-size="10.00">orig_apd</text>
<text text-anchor="middle" x="957" y="-702.117" font-family="Helvetica,sans-Serif" font-size="10.00">orig_ard</text>
<text text-anchor="middle" x="957" y="-691.117" font-family="Helvetica,sans-Serif" font-size="10.00">ird</text>
<text text-anchor="middle" x="957" y="-680.117" font-family="Helvetica,sans-Serif" font-size="10.00">ipd</text>
<text text-anchor="middle" x="957" y="-669.117" font-family="Helvetica,sans-Serif" font-size="10.00">ard</text>
</g>
<!-- Node19&#45;&gt;Node17 -->
<g id="edge33" class="edge"><title>Node19&#45;&gt;Node17</title>
<path fill="none" stroke="#9a32cd" stroke-dasharray="5,2" d="M875.49,-715.188C888.409,-723.118 905.417,-732.025 922,-736.117 952.205,-743.571 961.209,-740.57 992,-736.117 1079.07,-723.526 1178.03,-687.522 1220.86,-670.821"/>
<polygon fill="#9a32cd" stroke="#9a32cd" points="877.178,-712.113 866.869,-709.669 873.404,-718.009 877.178,-712.113"/>
<text text-anchor="middle" x="1054.5" y="-735.117" font-family="Helvetica,sans-Serif" font-size="10.00"> uad</text>
</g>
<!-- Node20 -->
<g id="node20" class="node"><title>Node20</title>
<g id="a_node20"><a xlink:href="a00030.html" target="_top" xlink:title="_dheader">
<polygon fill="white" stroke="black" points="634,-708.617 634,-727.617 696,-727.617 696,-708.617 634,-708.617"/>
<text text-anchor="middle" x="665" y="-715.617" font-family="Helvetica,sans-Serif" font-size="10.00">_dheader</text>
</a>
</g>
</g>
<!-- Node20&#45;&gt;Node19 -->
<g id="edge34" class="edge"><title>Node20&#45;&gt;Node19</title>
<path fill="none" stroke="#9a32cd" stroke-dasharray="5,2" d="M706.599,-716.682C729.149,-715.636 757.681,-713.901 783,-711.117 797.607,-709.512 813.848,-706.938 826.85,-704.684"/>
<polygon fill="#9a32cd" stroke="#9a32cd" points="706.21,-713.196 696.372,-717.129 706.516,-720.189 706.21,-713.196"/>
<text text-anchor="middle" x="758" y="-718.117" font-family="Helvetica,sans-Serif" font-size="10.00"> header</text>
</g>
<!-- Node21&#45;&gt;Node19 -->
<g id="edge35" class="edge"><title>Node21&#45;&gt;Node19</title>
<path fill="none" stroke="#9a32cd" stroke-dasharray="5,2" d="M601.666,-774.401C646.075,-766.173 720.815,-750.745 783,-730.117 800.128,-724.436 818.851,-716.079 832.387,-709.628"/>
<polygon fill="#9a32cd" stroke="#9a32cd" points="600.801,-771.001 591.592,-776.24 602.058,-777.887 600.801,-771.001"/>
<text text-anchor="middle" x="665" y="-774.117" font-family="Helvetica,sans-Serif" font-size="10.00"> records</text>
</g>
<!-- Node22 -->
<g id="node22" class="node"><title>Node22</title>
<g id="a_node22"><a xlink:href="a00044.html" target="_top" xlink:title="_sql_errors">
<polygon fill="white" stroke="red" points="629.5,-547.617 629.5,-566.617 700.5,-566.617 700.5,-547.617 629.5,-547.617"/>
<text text-anchor="middle" x="665" y="-554.617" font-family="Helvetica,sans-Serif" font-size="10.00">_sql_errors</text>
</a>
</g>
</g>
<!-- Node22&#45;&gt;Node1 -->
<g id="edge52" class="edge"><title>Node22&#45;&gt;Node1</title>
<path fill="none" stroke="#9a32cd" stroke-dasharray="5,2" d="M710.623,-556.539C774.286,-556.819 894.292,-561.465 992,-589.117 1007.58,-593.526 1024.23,-601.318 1036.28,-607.565"/>
<polygon fill="#9a32cd" stroke="#9a32cd" points="710.531,-553.039 700.528,-556.53 710.525,-560.039 710.531,-553.039"/>
<text text-anchor="middle" x="852.5" y="-573.117" font-family="Helvetica,sans-Serif" font-size="10.00"> errs</text>
</g>
<!-- Node22&#45;&gt;Node17 -->
<g id="edge39" class="edge"><title>Node22&#45;&gt;Node17</title>
<path fill="none" stroke="#9a32cd" stroke-dasharray="5,2" d="M710.539,-547.229C732.376,-542.379 759.067,-536.447 783,-531.117 836.783,-519.141 863.663,-541.653 904,-504.117 924.381,-485.151 899.664,-460.736 922,-444.117 946.96,-425.546 962.437,-434.426 992,-444.117 1102.57,-480.365 1123.8,-513.868 1203,-599.117 1218.46,-615.763 1231.34,-639.298 1237.87,-652.382"/>
<polygon fill="#9a32cd" stroke="#9a32cd" points="709.562,-543.861 700.558,-549.446 711.079,-550.695 709.562,-543.861"/>
<text text-anchor="middle" x="957" y="-447.117" font-family="Helvetica,sans-Serif" font-size="10.00"> errs</text>
</g>
<!-- Node22&#45;&gt;Node19 -->
<g id="edge37" class="edge"><title>Node22&#45;&gt;Node19</title>
<path fill="none" stroke="#9a32cd" stroke-dasharray="5,2" d="M683.046,-573.806C696.264,-586.455 715.26,-604.007 733,-618.117 768.439,-646.306 813.002,-675.625 836.072,-690.385"/>
<polygon fill="#9a32cd" stroke="#9a32cd" points="685.25,-571.069 675.625,-566.639 680.387,-576.104 685.25,-571.069"/>
<text text-anchor="middle" x="758" y="-657.117" font-family="Helvetica,sans-Serif" font-size="10.00"> errs</text>
</g>
<!-- Node22&#45;&gt;Node23 -->
<g id="edge44" class="edge"><title>Node22&#45;&gt;Node23</title>
<path fill="none" stroke="#9a32cd" stroke-dasharray="5,2" d="M709.199,-543.173C711.292,-541.656 713.248,-539.976 715,-538.117 732.933,-519.095 720.935,-505.31 733,-482.117 749.983,-449.47 762.611,-446.753 783,-416.117 791.827,-402.854 788.838,-395.409 801,-385.117 809.08,-378.28 819.867,-373.776 829.396,-370.879"/>
<polygon fill="#9a32cd" stroke="#9a32cd" points="707.418,-540.16 700.584,-548.256 710.975,-546.189 707.418,-540.16"/>
<text text-anchor="middle" x="758" y="-485.117" font-family="Helvetica,sans-Serif" font-size="10.00"> errs</text>
</g>
<!-- Node23&#45;&gt;Node17 -->
<g id="edge41" class="edge"><title>Node23&#45;&gt;Node17</title>
<path fill="none" stroke="#9a32cd" stroke-dasharray="5,2" d="M885.905,-360.947C955.394,-351.899 1119.21,-341.842 1203,-431.117 1233.84,-463.972 1240.88,-612.906 1242.22,-652.452"/>
<polygon fill="#9a32cd" stroke="#9a32cd" points="885.015,-357.537 875.589,-362.375 885.975,-364.471 885.015,-357.537"/>
<text text-anchor="middle" x="1054.5" y="-374.117" font-family="Helvetica,sans-Serif" font-size="10.00"> env</text>
</g>
<!-- Node24 -->
<g id="node24" class="node"><title>Node24</title>
<g id="a_node24"><a xlink:href="a00036.html" target="_top" xlink:title="_heattr">
<polygon fill="white" stroke="black" points="640,-287.617 640,-306.617 690,-306.617 690,-287.617 640,-287.617"/>
<text text-anchor="middle" x="665" y="-294.617" font-family="Helvetica,sans-Serif" font-size="10.00">_heattr</text>
</a>
</g>
</g>
<!-- Node24&#45;&gt;Node23 -->
<g id="edge43" class="edge"><title>Node24&#45;&gt;Node23</title>
<path fill="none" stroke="#9a32cd" stroke-dasharray="5,2" d="M700.107,-287.976C725.196,-283.344 758.972,-281.7 783,-298.117 800.785,-310.27 786.13,-327.533 801,-343.117 808.648,-351.133 819.616,-356.588 829.377,-360.166"/>
<polygon fill="#9a32cd" stroke="#9a32cd" points="699.357,-284.557 690.28,-290.022 700.784,-291.41 699.357,-284.557"/>
<text text-anchor="middle" x="758" y="-301.117" font-family="Helvetica,sans-Serif" font-size="10.00"> attr</text>
</g>
<!-- Node25&#45;&gt;Node1 -->
<g id="edge46" class="edge"><title>Node25&#45;&gt;Node1</title>
<path fill="none" stroke="#9a32cd" stroke-dasharray="5,2" d="M792.835,-830.146C841.977,-817.074 933.592,-786.894 992,-732.117 1025.03,-701.141 1043.99,-648.375 1050.7,-626.772"/>
<polygon fill="#9a32cd" stroke="#9a32cd" points="791.829,-826.791 783.021,-832.678 793.578,-833.569 791.829,-826.791"/>
<text text-anchor="middle" x="852.5" y="-830.117" font-family="Helvetica,sans-Serif" font-size="10.00"> attr</text>
</g>
</g>
</svg>
