<?xml version="1.0" encoding="UTF-8" standalone="no"?>
<!DOCTYPE svg PUBLIC "-//W3C//DTD SVG 1.1//EN"
 "http://www.w3.org/Graphics/SVG/1.1/DTD/svg11.dtd">
<!-- Generated by graphviz version 2.38.0 (20140413.2041)
 -->
<!-- Title: dblib_context Pages: 1 -->
<svg width="823pt" height="539pt"
 viewBox="0.00 0.00 822.50 539.00" xmlns="http://www.w3.org/2000/svg" xmlns:xlink="http://www.w3.org/1999/xlink">
<g id="graph0" class="graph" transform="scale(1 1) rotate(0) translate(4 535)">
<title>dblib_context</title>
<polygon fill="white" stroke="none" points="-4,4 -4,-535 818.5,-535 818.5,4 -4,4"/>
<!-- Node1 -->
<g id="node1" class="node"><title>Node1</title>
<polygon fill="#bfbfbf" stroke="black" points="486,-145.5 486,-164.5 564,-164.5 564,-145.5 486,-145.5"/>
<text text-anchor="middle" x="525" y="-152.5" font-family="Helvetica,sans-Serif" font-size="10.00">dblib_context</text>
</g>
<!-- Node2 -->
<g id="node2" class="node"><title>Node2</title>
<g id="a_node2"><a xlink:href="a00148.html" target="_top" xlink:title="Information for a server connection. ">
<polygon fill="white" stroke="black" points="155,-245.5 155,-264.5 223,-264.5 223,-245.5 155,-245.5"/>
<text text-anchor="middle" x="189" y="-252.5" font-family="Helvetica,sans-Serif" font-size="10.00">tds_socket</text>
</a>
</g>
</g>
<!-- Node2&#45;&gt;Node1 -->
<g id="edge1" class="edge"><title>Node2&#45;&gt;Node1</title>
<path fill="none" stroke="#9a32cd" stroke-dasharray="5,2" d="M233.501,-253.232C291.897,-251.483 390.545,-245.754 421,-227 440.943,-214.719 431.596,-197.485 450,-183 460.657,-174.612 474.146,-168.689 486.736,-164.574"/>
<polygon fill="#9a32cd" stroke="#9a32cd" points="233.342,-249.735 223.441,-253.506 233.533,-256.732 233.342,-249.735"/>
<text text-anchor="middle" x="487" y="-202.5" font-family="Helvetica,sans-Serif" font-size="10.00"> connection_list</text>
</g>
<!-- Node8 -->
<g id="node8" class="node"><title>Node8</title>
<g id="a_node8"><a xlink:href="a00144.html" target="_top" xlink:title="Hold information for any results. ">
<polygon fill="white" stroke="red" points="175,-145.5 175,-164.5 261,-164.5 261,-145.5 175,-145.5"/>
<text text-anchor="middle" x="218" y="-152.5" font-family="Helvetica,sans-Serif" font-size="10.00">tds_result_info</text>
</a>
</g>
</g>
<!-- Node2&#45;&gt;Node8 -->
<g id="edge10" class="edge"><title>Node2&#45;&gt;Node8</title>
<path fill="none" stroke="#9a32cd" stroke-dasharray="5,2" d="M174.831,-237.111C172.845,-233.927 171.106,-230.494 170,-227 164.098,-208.356 160.127,-199.881 170,-183 174.875,-174.664 183.375,-168.703 191.881,-164.541"/>
<polygon fill="#9a32cd" stroke="#9a32cd" points="172.054,-239.243 180.766,-245.272 177.715,-235.126 172.054,-239.243"/>
<text text-anchor="middle" x="200" y="-202.5" font-family="Helvetica,sans-Serif" font-size="10.00"> attached_to</text>
</g>
<!-- Node3 -->
<g id="node3" class="node"><title>Node3</title>
<g id="a_node3"><a xlink:href="a00129.html" target="_top" xlink:title="tds_login">
<polygon fill="white" stroke="black" points="239.5,-323.5 239.5,-342.5 298.5,-342.5 298.5,-323.5 239.5,-323.5"/>
<text text-anchor="middle" x="269" y="-330.5" font-family="Helvetica,sans-Serif" font-size="10.00">tds_login</text>
</a>
</g>
</g>
<!-- Node3&#45;&gt;Node2 -->
<g id="edge2" class="edge"><title>Node3&#45;&gt;Node2</title>
<path fill="none" stroke="#9a32cd" stroke-dasharray="5,2" d="M261.073,-314.32C255.887,-304.222 248.342,-291.849 239,-283 230.835,-275.266 220.027,-269.066 210.548,-264.567"/>
<polygon fill="#9a32cd" stroke="#9a32cd" points="257.971,-315.945 265.453,-323.446 264.282,-312.916 257.971,-315.945"/>
<text text-anchor="middle" x="269" y="-291.5" font-family="Helvetica,sans-Serif" font-size="10.00"> login</text>
</g>
<!-- Node4 -->
<g id="node4" class="node"><title>Node4</title>
<g id="a_node4"><a xlink:href="a00102.html" target="_top" xlink:title="tds_capabilities">
<polygon fill="white" stroke="red" points="45.5,-511.5 45.5,-530.5 134.5,-530.5 134.5,-511.5 45.5,-511.5"/>
<text text-anchor="middle" x="90" y="-518.5" font-family="Helvetica,sans-Serif" font-size="10.00">tds_capabilities</text>
</a>
</g>
</g>
<!-- Node4&#45;&gt;Node3 -->
<g id="edge3" class="edge"><title>Node4&#45;&gt;Node3</title>
<path fill="none" stroke="#9a32cd" stroke-dasharray="5,2" d="M99.4895,-502.15C117.313,-470.083 158.666,-402.235 210,-361 219.836,-353.099 232.359,-346.943 243.334,-342.518"/>
<polygon fill="#9a32cd" stroke="#9a32cd" points="96.2563,-500.768 94.5466,-511.224 102.404,-504.117 96.2563,-500.768"/>
<text text-anchor="middle" x="237.5" y="-424.5" font-family="Helvetica,sans-Serif" font-size="10.00"> capabilities</text>
</g>
<!-- Node11 -->
<g id="node11" class="node"><title>Node11</title>
<g id="a_node11"><a xlink:href="a00108.html" target="_top" xlink:title="tds_connection">
<polygon fill="white" stroke="black" points="358.5,-0.5 358.5,-19.5 447.5,-19.5 447.5,-0.5 358.5,-0.5"/>
<text text-anchor="middle" x="403" y="-7.5" font-family="Helvetica,sans-Serif" font-size="10.00">tds_connection</text>
</a>
</g>
</g>
<!-- Node4&#45;&gt;Node11 -->
<g id="edge17" class="edge"><title>Node4&#45;&gt;Node11</title>
<path fill="none" stroke="#9a32cd" stroke-dasharray="5,2" d="M75.593,-503.432C50.1687,-472.429 0,-402.566 0,-334 0,-334 0,-334 0,-76 0,-40.0337 253.406,-20.2358 358.332,-13.5797"/>
<polygon fill="#9a32cd" stroke="#9a32cd" points="73.2115,-506.038 82.3267,-511.439 78.5687,-501.533 73.2115,-506.038"/>
<text text-anchor="middle" x="27.5" y="-202.5" font-family="Helvetica,sans-Serif" font-size="10.00"> capabilities</text>
</g>
<!-- Node5 -->
<g id="node5" class="node"><title>Node5</title>
<g id="a_node5"><a xlink:href="a00117.html" target="_top" xlink:title="Structure to hold a string. ">
<polygon fill="white" stroke="black" points="241.5,-511.5 241.5,-530.5 296.5,-530.5 296.5,-511.5 241.5,-511.5"/>
<text text-anchor="middle" x="269" y="-518.5" font-family="Helvetica,sans-Serif" font-size="10.00">tds_dstr</text>
</a>
</g>
</g>
<!-- Node5&#45;&gt;Node3 -->
<g id="edge4" class="edge"><title>Node5&#45;&gt;Node3</title>
<path fill="none" stroke="#9a32cd" stroke-dasharray="5,2" d="M269,-500.86C269,-461.211 269,-371.417 269,-342.881"/>
<polygon fill="#9a32cd" stroke="#9a32cd" points="265.5,-501.029 269,-511.029 272.5,-501.029 265.5,-501.029"/>
<text text-anchor="middle" x="318" y="-485" font-family="Helvetica,sans-Serif" font-size="10.00"> server_realm_name</text>
<text text-anchor="middle" x="318" y="-474" font-family="Helvetica,sans-Serif" font-size="10.00">password</text>
<text text-anchor="middle" x="318" y="-463" font-family="Helvetica,sans-Serif" font-size="10.00">server_name</text>
<text text-anchor="middle" x="318" y="-452" font-family="Helvetica,sans-Serif" font-size="10.00">dump_file</text>
<text text-anchor="middle" x="318" y="-441" font-family="Helvetica,sans-Serif" font-size="10.00">library</text>
<text text-anchor="middle" x="318" y="-430" font-family="Helvetica,sans-Serif" font-size="10.00">crlfile</text>
<text text-anchor="middle" x="318" y="-419" font-family="Helvetica,sans-Serif" font-size="10.00">server_spn</text>
<text text-anchor="start" x="269" y="-408" font-family="Helvetica,sans-Serif" font-size="10.00">client_host</text>
<text text-anchor="middle" x="318" y="-397" font-family="Helvetica,sans-Serif" font-size="10.00">_name</text>
<text text-anchor="middle" x="318" y="-386" font-family="Helvetica,sans-Serif" font-size="10.00">client_charset</text>
<text text-anchor="middle" x="318" y="-375" font-family="Helvetica,sans-Serif" font-size="10.00">server_charset</text>
<text text-anchor="middle" x="318" y="-364" font-family="Helvetica,sans-Serif" font-size="10.00">...</text>
</g>
<!-- Node6 -->
<g id="node6" class="node"><title>Node6</title>
<g id="a_node6"><a xlink:href="a00138.html" target="_top" xlink:title="tds_packet">
<polygon fill="white" stroke="black" points="28,-323.5 28,-342.5 96,-342.5 96,-323.5 28,-323.5"/>
<text text-anchor="middle" x="62" y="-330.5" font-family="Helvetica,sans-Serif" font-size="10.00">tds_packet</text>
</a>
</g>
</g>
<!-- Node6&#45;&gt;Node2 -->
<g id="edge5" class="edge"><title>Node6&#45;&gt;Node2</title>
<path fill="none" stroke="#9a32cd" stroke-dasharray="5,2" d="M78.8645,-316.571C90.8366,-306.161 107.628,-292.62 124,-283 136.537,-275.633 151.464,-269.281 163.849,-264.592"/>
<polygon fill="#9a32cd" stroke="#9a32cd" points="76.222,-314.237 71.0737,-323.497 80.8729,-319.468 76.222,-314.237"/>
<text text-anchor="middle" x="154.5" y="-297" font-family="Helvetica,sans-Serif" font-size="10.00"> recv_packet</text>
<text text-anchor="middle" x="154.5" y="-286" font-family="Helvetica,sans-Serif" font-size="10.00">send_packet</text>
</g>
<!-- Node6&#45;&gt;Node6 -->
<g id="edge6" class="edge"><title>Node6&#45;&gt;Node6</title>
<path fill="none" stroke="#9a32cd" stroke-dasharray="5,2" d="M106.148,-338.96C110.925,-337.816 114,-335.83 114,-333 114,-328.473 106.127,-326.103 96.0085,-325.891"/>
<polygon fill="#9a32cd" stroke="#9a32cd" points="105.551,-335.506 96.0085,-340.109 106.339,-342.461 105.551,-335.506"/>
<text text-anchor="middle" x="126" y="-330.5" font-family="Helvetica,sans-Serif" font-size="10.00"> next</text>
</g>
<!-- Node7 -->
<g id="node7" class="node"><title>Node7</title>
<g id="a_node7"><a xlink:href="a00118.html" target="_top" xlink:title="Holds information for a dynamic (also called prepared) query. ">
<polygon fill="white" stroke="black" points="160,-67.5 160,-86.5 236,-86.5 236,-67.5 160,-67.5"/>
<text text-anchor="middle" x="198" y="-74.5" font-family="Helvetica,sans-Serif" font-size="10.00">tds_dynamic</text>
</a>
</g>
</g>
<!-- Node7&#45;&gt;Node2 -->
<g id="edge7" class="edge"><title>Node7&#45;&gt;Node2</title>
<path fill="none" stroke="#9a32cd" stroke-dasharray="5,2" d="M174.306,-92.0431C157.052,-103.763 135.021,-122.202 125,-145 107.693,-184.376 154.403,-227.351 177.249,-245.333"/>
<polygon fill="#9a32cd" stroke="#9a32cd" points="176.313,-94.913 182.804,-86.5394 172.508,-89.0375 176.313,-94.913"/>
<text text-anchor="middle" x="145.5" y="-152.5" font-family="Helvetica,sans-Serif" font-size="10.00"> cur_dyn</text>
</g>
<!-- Node7&#45;&gt;Node7 -->
<g id="edge8" class="edge"><title>Node7&#45;&gt;Node7</title>
<path fill="none" stroke="#9a32cd" stroke-dasharray="5,2" d="M246.289,-81.872C251.006,-80.8896 254,-79.2656 254,-77 254,-73.375 246.335,-71.3926 236.214,-71.0527"/>
<polygon fill="#9a32cd" stroke="#9a32cd" points="245.786,-78.4057 236.214,-82.9473 246.529,-85.3662 245.786,-78.4057"/>
<text text-anchor="middle" x="266" y="-74.5" font-family="Helvetica,sans-Serif" font-size="10.00"> next</text>
</g>
<!-- Node7&#45;&gt;Node11 -->
<g id="edge21" class="edge"><title>Node7&#45;&gt;Node11</title>
<path fill="none" stroke="#9a32cd" stroke-dasharray="5,2" d="M235.009,-64.2654C275.628,-51.3862 339.856,-31.0214 375.992,-19.5637"/>
<polygon fill="#9a32cd" stroke="#9a32cd" points="233.697,-61.0097 225.222,-67.3685 235.813,-67.6823 233.697,-61.0097"/>
<text text-anchor="middle" x="326" y="-41" font-family="Helvetica,sans-Serif" font-size="10.00"> dyns</text>
</g>
<!-- Node8&#45;&gt;Node2 -->
<g id="edge11" class="edge"><title>Node8&#45;&gt;Node2</title>
<path fill="none" stroke="#9a32cd" stroke-dasharray="5,2" d="M227.105,-174.097C233.284,-189.097 238.865,-210.547 230,-227 225.634,-235.103 217.654,-241.175 209.888,-245.487"/>
<polygon fill="#9a32cd" stroke="#9a32cd" points="230.237,-172.53 222.903,-164.884 223.869,-175.435 230.237,-172.53"/>
<text text-anchor="middle" x="270" y="-219" font-family="Helvetica,sans-Serif" font-size="10.00"> param_info</text>
<text text-anchor="middle" x="270" y="-208" font-family="Helvetica,sans-Serif" font-size="10.00">current_results</text>
<text text-anchor="middle" x="270" y="-197" font-family="Helvetica,sans-Serif" font-size="10.00">res_info</text>
<text text-anchor="middle" x="270" y="-186" font-family="Helvetica,sans-Serif" font-size="10.00">comp_info</text>
</g>
<!-- Node8&#45;&gt;Node7 -->
<g id="edge9" class="edge"><title>Node8&#45;&gt;Node7</title>
<path fill="none" stroke="#9a32cd" stroke-dasharray="5,2" d="M203.891,-137.092C201.898,-133.909 200.142,-130.482 199,-127 194.547,-113.417 195.508,-96.559 196.695,-86.5743"/>
<polygon fill="#9a32cd" stroke="#9a32cd" points="201.112,-139.221 209.821,-145.254 206.775,-135.107 201.112,-139.221"/>
<text text-anchor="middle" x="220" y="-119" font-family="Helvetica,sans-Serif" font-size="10.00"> res_info</text>
<text text-anchor="middle" x="220" y="-108" font-family="Helvetica,sans-Serif" font-size="10.00">params</text>
</g>
<!-- Node9 -->
<g id="node9" class="node"><title>Node9</title>
<g id="a_node9"><a xlink:href="a00110.html" target="_top" xlink:title="Holds informations about a cursor. ">
<polygon fill="white" stroke="black" points="296,-67.5 296,-86.5 362,-86.5 362,-67.5 296,-67.5"/>
<text text-anchor="middle" x="329" y="-74.5" font-family="Helvetica,sans-Serif" font-size="10.00">tds_cursor</text>
</a>
</g>
</g>
<!-- Node8&#45;&gt;Node9 -->
<g id="edge14" class="edge"><title>Node8&#45;&gt;Node9</title>
<path fill="none" stroke="#9a32cd" stroke-dasharray="5,2" d="M236.778,-138.935C249.539,-128.926 266.954,-115.706 283,-105 292.86,-98.4216 304.36,-91.6716 313.395,-86.5662"/>
<polygon fill="#9a32cd" stroke="#9a32cd" points="234.429,-136.331 228.76,-145.282 238.774,-141.819 234.429,-136.331"/>
<text text-anchor="middle" x="304" y="-113.5" font-family="Helvetica,sans-Serif" font-size="10.00"> res_info</text>
</g>
<!-- Node9&#45;&gt;Node2 -->
<g id="edge12" class="edge"><title>Node9&#45;&gt;Node2</title>
<path fill="none" stroke="#9a32cd" stroke-dasharray="5,2" d="M350.675,-92.6059C372.52,-109.274 401.248,-137.762 388,-165 358.203,-226.262 271.926,-245.374 223.324,-251.323"/>
<polygon fill="#9a32cd" stroke="#9a32cd" points="352.599,-89.6774 342.453,-86.6234 348.48,-95.3374 352.599,-89.6774"/>
<text text-anchor="middle" x="418.5" y="-152.5" font-family="Helvetica,sans-Serif" font-size="10.00"> cur_cursor</text>
</g>
<!-- Node9&#45;&gt;Node9 -->
<g id="edge15" class="edge"><title>Node9&#45;&gt;Node9</title>
<path fill="none" stroke="#9a32cd" stroke-dasharray="5,2" d="M372.647,-81.9457C377.133,-80.9718 380,-79.3232 380,-77 380,-73.1875 372.278,-71.1919 362.354,-71.0132"/>
<polygon fill="#9a32cd" stroke="#9a32cd" points="371.951,-78.4981 362.354,-82.9868 372.656,-85.4625 371.951,-78.4981"/>
<text text-anchor="middle" x="392" y="-74.5" font-family="Helvetica,sans-Serif" font-size="10.00"> next</text>
</g>
<!-- Node9&#45;&gt;Node11 -->
<g id="edge23" class="edge"><title>Node9&#45;&gt;Node11</title>
<path fill="none" stroke="#9a32cd" stroke-dasharray="5,2" d="M346.81,-60.3564C361.358,-47.5777 381.379,-29.9915 393.178,-19.6273"/>
<polygon fill="#9a32cd" stroke="#9a32cd" points="344.183,-58.0047 338.98,-67.2338 348.803,-63.264 344.183,-58.0047"/>
<text text-anchor="middle" x="390" y="-41" font-family="Helvetica,sans-Serif" font-size="10.00"> cursors</text>
</g>
<!-- Node10 -->
<g id="node10" class="node"><title>Node10</title>
<g id="a_node10"><a xlink:href="a00111.html" target="_top" xlink:title="tds_cursor_status">
<polygon fill="white" stroke="black" points="279,-145.5 279,-164.5 379,-164.5 379,-145.5 279,-145.5"/>
<text text-anchor="middle" x="329" y="-152.5" font-family="Helvetica,sans-Serif" font-size="10.00">tds_cursor_status</text>
</a>
</g>
</g>
<!-- Node10&#45;&gt;Node9 -->
<g id="edge13" class="edge"><title>Node10&#45;&gt;Node9</title>
<path fill="none" stroke="#9a32cd" stroke-dasharray="5,2" d="M329,-135.224C329,-119.697 329,-98.3582 329,-86.6165"/>
<polygon fill="#9a32cd" stroke="#9a32cd" points="325.5,-135.282 329,-145.282 332.5,-135.282 325.5,-135.282"/>
<text text-anchor="middle" x="344.5" y="-113.5" font-family="Helvetica,sans-Serif" font-size="10.00"> status</text>
</g>
<!-- Node11&#45;&gt;Node2 -->
<g id="edge16" class="edge"><title>Node11&#45;&gt;Node2</title>
<path fill="none" stroke="#9a32cd" stroke-dasharray="5,2" d="M347.879,-15.5749C295.059,-21.6902 214.251,-35.6652 151,-67 127.544,-78.6204 117.026,-81.2583 106,-105 82.966,-154.599 87.904,-184.244 122,-227 130.132,-237.197 142.714,-243.565 154.789,-247.532"/>
<polygon fill="#9a32cd" stroke="#9a32cd" points="348.5,-19.0277 358.057,-14.4538 347.734,-12.0698 348.5,-19.0277"/>
<text text-anchor="middle" x="119.5" y="-113.5" font-family="Helvetica,sans-Serif" font-size="10.00"> conn</text>
</g>
<!-- Node12 -->
<g id="node12" class="node"><title>Node12</title>
<g id="a_node12"><a xlink:href="a00121.html" target="_top" xlink:title="Current environment as reported by the server. ">
<polygon fill="white" stroke="black" points="422,-67.5 422,-86.5 476,-86.5 476,-67.5 422,-67.5"/>
<text text-anchor="middle" x="449" y="-74.5" font-family="Helvetica,sans-Serif" font-size="10.00">tds_env</text>
</a>
</g>
</g>
<!-- Node12&#45;&gt;Node11 -->
<g id="edge18" class="edge"><title>Node12&#45;&gt;Node11</title>
<path fill="none" stroke="#9a32cd" stroke-dasharray="5,2" d="M436.901,-58.9037C427.962,-46.2729 416.166,-29.6041 409.105,-19.6273"/>
<polygon fill="#9a32cd" stroke="#9a32cd" points="434.163,-61.0929 442.796,-67.2338 439.876,-57.0492 434.163,-61.0929"/>
<text text-anchor="middle" x="439.5" y="-41" font-family="Helvetica,sans-Serif" font-size="10.00"> env</text>
</g>
<!-- Node13 -->
<g id="node13" class="node"><title>Node13</title>
<g id="a_node13"><a xlink:href="a00109.html" target="_top" xlink:title="tds_context">
<polygon fill="white" stroke="red" points="530.5,-245.5 530.5,-264.5 601.5,-264.5 601.5,-245.5 530.5,-245.5"/>
<text text-anchor="middle" x="566" y="-252.5" font-family="Helvetica,sans-Serif" font-size="10.00">tds_context</text>
</a>
</g>
</g>
<!-- Node13&#45;&gt;Node1 -->
<g id="edge25" class="edge"><title>Node13&#45;&gt;Node1</title>
<path fill="none" stroke="#9a32cd" stroke-dasharray="5,2" d="M548.851,-238.183C545.875,-234.742 543.075,-230.943 541,-227 530.175,-206.424 526.645,-178.747 525.516,-164.807"/>
<polygon fill="#9a32cd" stroke="#9a32cd" points="546.399,-240.683 555.856,-245.459 551.442,-235.828 546.399,-240.683"/>
<text text-anchor="middle" x="559.5" y="-202.5" font-family="Helvetica,sans-Serif" font-size="10.00"> tds_ctx</text>
</g>
<!-- Node13&#45;&gt;Node11 -->
<g id="edge19" class="edge"><title>Node13&#45;&gt;Node11</title>
<path fill="none" stroke="#9a32cd" stroke-dasharray="5,2" d="M575.208,-236.049C576.362,-233.093 577.361,-230.011 578,-227 585.58,-191.283 590.011,-177.308 573,-145 539.122,-80.656 459.333,-37.0247 422.393,-19.5556"/>
<polygon fill="#9a32cd" stroke="#9a32cd" points="571.946,-234.767 570.978,-245.317 578.314,-237.673 571.946,-234.767"/>
<text text-anchor="middle" x="579.5" y="-113.5" font-family="Helvetica,sans-Serif" font-size="10.00"> tds_ctx</text>
</g>
<!-- Node14 -->
<g id="node14" class="node"><title>Node14</title>
<g id="a_node14"><a xlink:href="a00098.html" target="_top" xlink:title="tds_authentication">
<polygon fill="white" stroke="black" points="620.5,-67.5 620.5,-86.5 723.5,-86.5 723.5,-67.5 620.5,-67.5"/>
<text text-anchor="middle" x="672" y="-74.5" font-family="Helvetica,sans-Serif" font-size="10.00">tds_authentication</text>
</a>
</g>
</g>
<!-- Node14&#45;&gt;Node11 -->
<g id="edge20" class="edge"><title>Node14&#45;&gt;Node11</title>
<path fill="none" stroke="#9a32cd" stroke-dasharray="5,2" d="M651.706,-61.5295C639.134,-53.2927 622.321,-43.5414 606,-38 553.481,-20.1684 489.588,-14.0429 447.685,-11.9783"/>
<polygon fill="#9a32cd" stroke="#9a32cd" points="649.801,-64.4665 660.043,-67.1777 653.727,-58.6712 649.801,-64.4665"/>
<text text-anchor="middle" x="663" y="-41" font-family="Helvetica,sans-Serif" font-size="10.00"> authentication</text>
</g>
<!-- Node15 -->
<g id="node15" class="node"><title>Node15</title>
<g id="a_node15"><a xlink:href="a00161.html" target="_top" xlink:title="tdsiconvinfo">
<polygon fill="white" stroke="red" points="741.5,-67.5 741.5,-86.5 814.5,-86.5 814.5,-67.5 741.5,-67.5"/>
<text text-anchor="middle" x="778" y="-74.5" font-family="Helvetica,sans-Serif" font-size="10.00">tdsiconvinfo</text>
</a>
</g>
</g>
<!-- Node15&#45;&gt;Node11 -->
<g id="edge22" class="edge"><title>Node15&#45;&gt;Node11</title>
<path fill="none" stroke="#9a32cd" stroke-dasharray="5,2" d="M755.8,-62.1167C741.104,-53.6419 721.09,-43.4244 702,-38 655.436,-24.7689 519.028,-16.5236 447.67,-12.9946"/>
<polygon fill="#9a32cd" stroke="#9a32cd" points="754.241,-65.2622 764.625,-67.3664 757.82,-59.246 754.241,-65.2622"/>
<text text-anchor="middle" x="759" y="-41" font-family="Helvetica,sans-Serif" font-size="10.00"> char_convs</text>
</g>
<!-- Node16 -->
<g id="node16" class="node"><title>Node16</title>
<g id="a_node16"><a xlink:href="a00134.html" target="_top" xlink:title="tds_mutex">
<polygon fill="white" stroke="black" points="156.5,-323.5 156.5,-342.5 221.5,-342.5 221.5,-323.5 156.5,-323.5"/>
<text text-anchor="middle" x="189" y="-330.5" font-family="Helvetica,sans-Serif" font-size="10.00">tds_mutex</text>
</a>
</g>
</g>
<!-- Node16&#45;&gt;Node2 -->
<g id="edge24" class="edge"><title>Node16&#45;&gt;Node2</title>
<path fill="none" stroke="#9a32cd" stroke-dasharray="5,2" d="M189,-313.224C189,-297.697 189,-276.358 189,-264.616"/>
<polygon fill="#9a32cd" stroke="#9a32cd" points="185.5,-313.282 189,-323.282 192.5,-313.282 185.5,-313.282"/>
<text text-anchor="middle" x="212" y="-291.5" font-family="Helvetica,sans-Serif" font-size="10.00"> wire_mtx</text>
</g>
</g>
</svg>
