<?xml version="1.0" encoding="UTF-8" standalone="no"?>
<!DOCTYPE svg PUBLIC "-//W3C//DTD SVG 1.1//EN"
 "http://www.w3.org/Graphics/SVG/1.1/DTD/svg11.dtd">
<!-- Generated by graphviz version 2.38.0 (20140413.2041)
 -->
<!-- Title: agg_t Pages: 1 -->
<svg width="93pt" height="162pt"
 viewBox="0.00 0.00 93.00 162.00" xmlns="http://www.w3.org/2000/svg" xmlns:xlink="http://www.w3.org/1999/xlink">
<g id="graph0" class="graph" transform="scale(1 1) rotate(0) translate(4 158)">
<title>agg_t</title>
<polygon fill="white" stroke="none" points="-4,4 -4,-158 89,-158 89,4 -4,4"/>
<!-- Node1 -->
<g id="node1" class="node"><title>Node1</title>
<polygon fill="#bfbfbf" stroke="black" points="-3.55271e-15,-0.5 -3.55271e-15,-19.5 44,-19.5 44,-0.5 -3.55271e-15,-0.5"/>
<text text-anchor="middle" x="22" y="-7.5" font-family="Helvetica,sans-Serif" font-size="10.00">agg_t</text>
</g>
<!-- Node2 -->
<g id="node2" class="node"><title>Node2</title>
<g id="a_node2"><a xlink:href="a00073.html" target="_top" xlink:title="key_t">
<polygon fill="white" stroke="black" points="43,-67.5 43,-86.5 85,-86.5 85,-67.5 43,-67.5"/>
<text text-anchor="middle" x="64" y="-74.5" font-family="Helvetica,sans-Serif" font-size="10.00">key_t</text>
</a>
</g>
</g>
<!-- Node2&#45;&gt;Node1 -->
<g id="edge1" class="edge"><title>Node2&#45;&gt;Node1</title>
<path fill="none" stroke="#9a32cd" stroke-dasharray="5,2" d="M52.7147,-58.5347C44.583,-45.9499 33.9585,-29.5072 27.5746,-19.6273"/>
<polygon fill="#9a32cd" stroke="#9a32cd" points="49.9688,-60.7341 58.3357,-67.2338 55.8482,-56.9351 49.9688,-60.7341"/>
<text text-anchor="middle" x="65" y="-41" font-family="Helvetica,sans-Serif" font-size="10.00"> col_key</text>
</g>
<!-- Node3 -->
<g id="node3" class="node"><title>Node3</title>
<g id="a_node3"><a xlink:href="a00050.html" target="_top" xlink:title="col_t">
<polygon fill="white" stroke="black" points="2.5,-134.5 2.5,-153.5 41.5,-153.5 41.5,-134.5 2.5,-134.5"/>
<text text-anchor="middle" x="22" y="-141.5" font-family="Helvetica,sans-Serif" font-size="10.00">col_t</text>
</a>
</g>
</g>
<!-- Node3&#45;&gt;Node1 -->
<g id="edge3" class="edge"><title>Node3&#45;&gt;Node1</title>
<path fill="none" stroke="#9a32cd" stroke-dasharray="5,2" d="M15.4295,-124.865C11.8578,-114.036 7.80915,-99.9175 6,-87 2.55883,-62.4298 12.33,-33.9176 18.0984,-19.823"/>
<polygon fill="#9a32cd" stroke="#9a32cd" points="12.1625,-126.127 18.7417,-134.432 18.7773,-123.837 12.1625,-126.127"/>
<text text-anchor="middle" x="20" y="-74.5" font-family="Helvetica,sans-Serif" font-size="10.00"> value</text>
</g>
<!-- Node3&#45;&gt;Node2 -->
<g id="edge2" class="edge"><title>Node3&#45;&gt;Node2</title>
<path fill="none" stroke="#9a32cd" stroke-dasharray="5,2" d="M33.2853,-125.535C41.417,-112.95 52.0415,-96.5072 58.4254,-86.6273"/>
<polygon fill="#9a32cd" stroke="#9a32cd" points="30.1518,-123.935 27.6643,-134.234 36.0312,-127.734 30.1518,-123.935"/>
<text text-anchor="middle" x="57.5" y="-108" font-family="Helvetica,sans-Serif" font-size="10.00"> keys</text>
</g>
</g>
</svg>
