<?xml version="1.0" encoding="UTF-8" standalone="no"?>
<!DOCTYPE svg PUBLIC "-//W3C//DTD SVG 1.1//EN"
 "http://www.w3.org/Graphics/SVG/1.1/DTD/svg11.dtd">
<!-- Generated by graphviz version 2.38.0 (20140413.2041)
 -->
<!-- Title: tds_result_info Pages: 1 -->
<svg width="1028pt" height="695pt"
 viewBox="0.00 0.00 1028.00 695.00" xmlns="http://www.w3.org/2000/svg" xmlns:xlink="http://www.w3.org/1999/xlink">
<g id="graph0" class="graph" transform="scale(1 1) rotate(0) translate(4 691)">
<title>tds_result_info</title>
<polygon fill="white" stroke="none" points="-4,4 -4,-691 1024,-691 1024,4 -4,4"/>
<!-- Node1 -->
<g id="node1" class="node"><title>Node1</title>
<polygon fill="#bfbfbf" stroke="black" points="386,-208.5 386,-227.5 472,-227.5 472,-208.5 386,-208.5"/>
<text text-anchor="middle" x="429" y="-215.5" font-family="Helvetica,sans-Serif" font-size="10.00">tds_result_info</text>
</g>
<!-- Node2 -->
<g id="node2" class="node"><title>Node2</title>
<g id="a_node2"><a xlink:href="a00148.html" target="_top" xlink:title="Information for a server connection. ">
<polygon fill="white" stroke="black" points="952,-195.5 952,-214.5 1020,-214.5 1020,-195.5 952,-195.5"/>
<text text-anchor="middle" x="986" y="-202.5" font-family="Helvetica,sans-Serif" font-size="10.00">tds_socket</text>
</a>
</g>
</g>
<!-- Node1&#45;&gt;Node2 -->
<g id="edge10" class="edge"><title>Node1&#45;&gt;Node2</title>
<path fill="none" stroke="#9a32cd" stroke-dasharray="5,2" d="M463.909,-204.964C511.066,-187.61 599.514,-157.846 678,-147 784.924,-132.224 911.124,-175.467 962.021,-195.457"/>
<polygon fill="#9a32cd" stroke="#9a32cd" points="462.643,-201.701 454.491,-208.468 465.084,-208.262 462.643,-201.701"/>
<text text-anchor="middle" x="713" y="-183" font-family="Helvetica,sans-Serif" font-size="10.00"> param_info</text>
<text text-anchor="middle" x="713" y="-172" font-family="Helvetica,sans-Serif" font-size="10.00">current_results</text>
<text text-anchor="middle" x="713" y="-161" font-family="Helvetica,sans-Serif" font-size="10.00">res_info</text>
<text text-anchor="middle" x="713" y="-150" font-family="Helvetica,sans-Serif" font-size="10.00">comp_info</text>
</g>
<!-- Node7 -->
<g id="node7" class="node"><title>Node7</title>
<g id="a_node7"><a xlink:href="a00118.html" target="_top" xlink:title="Holds information for a dynamic (also called prepared) query. ">
<polygon fill="white" stroke="black" points="570.5,-210.5 570.5,-229.5 646.5,-229.5 646.5,-210.5 570.5,-210.5"/>
<text text-anchor="middle" x="608.5" y="-217.5" font-family="Helvetica,sans-Serif" font-size="10.00">tds_dynamic</text>
</a>
</g>
</g>
<!-- Node1&#45;&gt;Node7 -->
<g id="edge9" class="edge"><title>Node1&#45;&gt;Node7</title>
<path fill="none" stroke="#9a32cd" stroke-dasharray="5,2" d="M482.205,-218.421C500.201,-218.582 520.485,-218.78 539,-219 549.109,-219.12 560.057,-219.271 570.172,-219.418"/>
<polygon fill="#9a32cd" stroke="#9a32cd" points="482.217,-214.922 472.187,-218.334 482.155,-221.921 482.217,-214.922"/>
<text text-anchor="middle" x="518" y="-233" font-family="Helvetica,sans-Serif" font-size="10.00"> res_info</text>
<text text-anchor="middle" x="518" y="-222" font-family="Helvetica,sans-Serif" font-size="10.00">params</text>
</g>
<!-- Node8 -->
<g id="node8" class="node"><title>Node8</title>
<g id="a_node8"><a xlink:href="a00110.html" target="_top" xlink:title="Holds informations about a cursor. ">
<polygon fill="white" stroke="black" points="575.5,-277.5 575.5,-296.5 641.5,-296.5 641.5,-277.5 575.5,-277.5"/>
<text text-anchor="middle" x="608.5" y="-284.5" font-family="Helvetica,sans-Serif" font-size="10.00">tds_cursor</text>
</a>
</g>
</g>
<!-- Node1&#45;&gt;Node8 -->
<g id="edge13" class="edge"><title>Node1&#45;&gt;Node8</title>
<path fill="none" stroke="#9a32cd" stroke-dasharray="5,2" d="M463.424,-231.32C489.004,-241.474 525.178,-255.75 557,-268 565.043,-271.096 573.827,-274.421 581.781,-277.41"/>
<polygon fill="#9a32cd" stroke="#9a32cd" points="464.419,-227.948 453.833,-227.508 461.834,-234.454 464.419,-227.948"/>
<text text-anchor="middle" x="518" y="-262" font-family="Helvetica,sans-Serif" font-size="10.00"> res_info</text>
</g>
<!-- Node2&#45;&gt;Node1 -->
<g id="edge1" class="edge"><title>Node2&#45;&gt;Node1</title>
<path fill="none" stroke="#9a32cd" stroke-dasharray="5,2" d="M941.598,-202.189C864.2,-197.713 697.306,-190.486 557,-201 528.606,-203.128 496.856,-207.378 472.204,-211.096"/>
<polygon fill="#9a32cd" stroke="#9a32cd" points="941.723,-205.703 951.913,-202.801 942.137,-198.715 941.723,-205.703"/>
<text text-anchor="middle" x="713" y="-198" font-family="Helvetica,sans-Serif" font-size="10.00"> attached_to</text>
</g>
<!-- Node3 -->
<g id="node3" class="node"><title>Node3</title>
<g id="a_node3"><a xlink:href="a00129.html" target="_top" xlink:title="tds_login">
<polygon fill="white" stroke="black" points="781,-519.5 781,-538.5 840,-538.5 840,-519.5 781,-519.5"/>
<text text-anchor="middle" x="810.5" y="-526.5" font-family="Helvetica,sans-Serif" font-size="10.00">tds_login</text>
</a>
</g>
</g>
<!-- Node3&#45;&gt;Node2 -->
<g id="edge2" class="edge"><title>Node3&#45;&gt;Node2</title>
<path fill="none" stroke="#9a32cd" stroke-dasharray="5,2" d="M826.828,-511.614C852.188,-482.088 903.133,-419.45 934,-359 960.256,-307.579 977.165,-239.759 982.86,-214.778"/>
<polygon fill="#9a32cd" stroke="#9a32cd" points="824.021,-509.509 820.11,-519.355 829.308,-514.096 824.021,-509.509"/>
<text text-anchor="middle" x="903.5" y="-453" font-family="Helvetica,sans-Serif" font-size="10.00"> login</text>
</g>
<!-- Node4 -->
<g id="node4" class="node"><title>Node4</title>
<g id="a_node4"><a xlink:href="a00102.html" target="_top" xlink:title="tds_capabilities">
<polygon fill="white" stroke="red" points="564,-502.5 564,-521.5 653,-521.5 653,-502.5 564,-502.5"/>
<text text-anchor="middle" x="608.5" y="-509.5" font-family="Helvetica,sans-Serif" font-size="10.00">tds_capabilities</text>
</a>
</g>
</g>
<!-- Node4&#45;&gt;Node3 -->
<g id="edge3" class="edge"><title>Node4&#45;&gt;Node3</title>
<path fill="none" stroke="#9a32cd" stroke-dasharray="5,2" d="M663.725,-516.609C701.495,-519.82 750.376,-523.974 780.836,-526.564"/>
<polygon fill="#9a32cd" stroke="#9a32cd" points="663.651,-513.09 653.391,-515.731 663.058,-520.065 663.651,-513.09"/>
<text text-anchor="middle" x="713" y="-526" font-family="Helvetica,sans-Serif" font-size="10.00"> capabilities</text>
</g>
<!-- Node10 -->
<g id="node10" class="node"><title>Node10</title>
<g id="a_node10"><a xlink:href="a00108.html" target="_top" xlink:title="tds_connection">
<polygon fill="white" stroke="black" points="766,-363.5 766,-382.5 855,-382.5 855,-363.5 766,-363.5"/>
<text text-anchor="middle" x="810.5" y="-370.5" font-family="Helvetica,sans-Serif" font-size="10.00">tds_connection</text>
</a>
</g>
</g>
<!-- Node4&#45;&gt;Node10 -->
<g id="edge16" class="edge"><title>Node4&#45;&gt;Node10</title>
<path fill="none" stroke="#9a32cd" stroke-dasharray="5,2" d="M663.049,-501.139C695.985,-493.665 734.407,-483.268 748,-473 780.038,-448.798 799.187,-402.627 806.311,-382.63"/>
<polygon fill="#9a32cd" stroke="#9a32cd" points="662.041,-497.778 653.037,-503.362 663.558,-504.611 662.041,-497.778"/>
<text text-anchor="middle" x="713" y="-499" font-family="Helvetica,sans-Serif" font-size="10.00"> capabilities</text>
</g>
<!-- Node5 -->
<g id="node5" class="node"><title>Node5</title>
<g id="a_node5"><a xlink:href="a00117.html" target="_top" xlink:title="Structure to hold a string. ">
<polygon fill="white" stroke="black" points="23,-501.5 23,-520.5 78,-520.5 78,-501.5 23,-501.5"/>
<text text-anchor="middle" x="50.5" y="-508.5" font-family="Helvetica,sans-Serif" font-size="10.00">tds_dstr</text>
</a>
</g>
</g>
<!-- Node5&#45;&gt;Node3 -->
<g id="edge4" class="edge"><title>Node5&#45;&gt;Node3</title>
<path fill="none" stroke="#9a32cd" stroke-dasharray="5,2" d="M87.8943,-523.207C130.018,-536.228 201.718,-555 265,-555 265,-555 265,-555 609.5,-555 670.95,-555 742.141,-542.781 780.838,-535.096"/>
<polygon fill="#9a32cd" stroke="#9a32cd" points="88.689,-519.787 78.0993,-520.117 86.5831,-526.463 88.689,-519.787"/>
<text text-anchor="middle" x="429" y="-679" font-family="Helvetica,sans-Serif" font-size="10.00"> server_realm_name</text>
<text text-anchor="middle" x="429" y="-668" font-family="Helvetica,sans-Serif" font-size="10.00">password</text>
<text text-anchor="middle" x="429" y="-657" font-family="Helvetica,sans-Serif" font-size="10.00">server_name</text>
<text text-anchor="middle" x="429" y="-646" font-family="Helvetica,sans-Serif" font-size="10.00">dump_file</text>
<text text-anchor="middle" x="429" y="-635" font-family="Helvetica,sans-Serif" font-size="10.00">library</text>
<text text-anchor="middle" x="429" y="-624" font-family="Helvetica,sans-Serif" font-size="10.00">crlfile</text>
<text text-anchor="middle" x="429" y="-613" font-family="Helvetica,sans-Serif" font-size="10.00">server_spn</text>
<text text-anchor="start" x="380" y="-602" font-family="Helvetica,sans-Serif" font-size="10.00">client_host</text>
<text text-anchor="middle" x="429" y="-591" font-family="Helvetica,sans-Serif" font-size="10.00">_name</text>
<text text-anchor="middle" x="429" y="-580" font-family="Helvetica,sans-Serif" font-size="10.00">client_charset</text>
<text text-anchor="middle" x="429" y="-569" font-family="Helvetica,sans-Serif" font-size="10.00">server_charset</text>
<text text-anchor="middle" x="429" y="-558" font-family="Helvetica,sans-Serif" font-size="10.00">...</text>
</g>
<!-- Node16 -->
<g id="node16" class="node"><title>Node16</title>
<g id="a_node16"><a xlink:href="a00104.html" target="_top" xlink:title="Metadata about columns in regular and compute rows. ">
<polygon fill="white" stroke="black" points="231,-342.5 231,-361.5 301,-361.5 301,-342.5 231,-342.5"/>
<text text-anchor="middle" x="266" y="-349.5" font-family="Helvetica,sans-Serif" font-size="10.00">tds_column</text>
</a>
</g>
</g>
<!-- Node5&#45;&gt;Node16 -->
<g id="edge26" class="edge"><title>Node5&#45;&gt;Node16</title>
<path fill="none" stroke="#9a32cd" stroke-dasharray="5,2" d="M75.284,-495.591C107.327,-474.556 165.786,-435.205 213,-398 228.147,-386.064 244.673,-371.079 254.937,-361.519"/>
<polygon fill="#9a32cd" stroke="#9a32cd" points="73.059,-492.864 66.6035,-501.265 76.889,-498.723 73.059,-492.864"/>
<text text-anchor="middle" x="166" y="-489" font-family="Helvetica,sans-Serif" font-size="10.00"> column_name</text>
<text text-anchor="middle" x="166" y="-478" font-family="Helvetica,sans-Serif" font-size="10.00">table_name</text>
<text text-anchor="middle" x="166" y="-467" font-family="Helvetica,sans-Serif" font-size="10.00">table_column_name</text>
</g>
<!-- Node6 -->
<g id="node6" class="node"><title>Node6</title>
<g id="a_node6"><a xlink:href="a00138.html" target="_top" xlink:title="tds_packet">
<polygon fill="white" stroke="black" points="776.5,-38.5 776.5,-57.5 844.5,-57.5 844.5,-38.5 776.5,-38.5"/>
<text text-anchor="middle" x="810.5" y="-45.5" font-family="Helvetica,sans-Serif" font-size="10.00">tds_packet</text>
</a>
</g>
</g>
<!-- Node6&#45;&gt;Node2 -->
<g id="edge5" class="edge"><title>Node6&#45;&gt;Node2</title>
<path fill="none" stroke="#9a32cd" stroke-dasharray="5,2" d="M854.87,-49.4203C880.577,-52.3934 912.272,-60.0575 934,-79 970.288,-110.636 981.127,-171.863 984.034,-195.432"/>
<polygon fill="#9a32cd" stroke="#9a32cd" points="854.915,-45.9087 844.628,-48.4413 854.249,-52.877 854.915,-45.9087"/>
<text text-anchor="middle" x="903.5" y="-93" font-family="Helvetica,sans-Serif" font-size="10.00"> recv_packet</text>
<text text-anchor="middle" x="903.5" y="-82" font-family="Helvetica,sans-Serif" font-size="10.00">send_packet</text>
</g>
<!-- Node6&#45;&gt;Node6 -->
<g id="edge6" class="edge"><title>Node6&#45;&gt;Node6</title>
<path fill="none" stroke="#9a32cd" stroke-dasharray="5,2" d="M793.464,-67.4C794.602,-72.3146 800.28,-76 810.5,-76 826.852,-76 831.578,-66.5653 824.68,-57.7571"/>
<polygon fill="#9a32cd" stroke="#9a32cd" points="796.836,-68.3393 796.32,-57.7571 790.124,-66.3512 796.836,-68.3393"/>
<text text-anchor="middle" x="810.5" y="-79" font-family="Helvetica,sans-Serif" font-size="10.00"> next</text>
</g>
<!-- Node7&#45;&gt;Node2 -->
<g id="edge7" class="edge"><title>Node7&#45;&gt;Node2</title>
<path fill="none" stroke="#9a32cd" stroke-dasharray="5,2" d="M656.916,-218.106C734.086,-215.023 884.939,-208.997 951.769,-206.327"/>
<polygon fill="#9a32cd" stroke="#9a32cd" points="656.384,-214.624 646.532,-218.521 656.664,-221.619 656.384,-214.624"/>
<text text-anchor="middle" x="810.5" y="-216" font-family="Helvetica,sans-Serif" font-size="10.00"> cur_dyn</text>
</g>
<!-- Node7&#45;&gt;Node7 -->
<g id="edge8" class="edge"><title>Node7&#45;&gt;Node7</title>
<path fill="none" stroke="#9a32cd" stroke-dasharray="5,2" d="M591.834,-239.4C592.947,-244.315 598.502,-248 608.5,-248 624.496,-248 629.12,-238.565 622.372,-229.757"/>
<polygon fill="#9a32cd" stroke="#9a32cd" points="595.207,-240.336 594.628,-229.757 588.483,-238.388 595.207,-240.336"/>
<text text-anchor="middle" x="608.5" y="-251" font-family="Helvetica,sans-Serif" font-size="10.00"> next</text>
</g>
<!-- Node7&#45;&gt;Node10 -->
<g id="edge20" class="edge"><title>Node7&#45;&gt;Node10</title>
<path fill="none" stroke="#9a32cd" stroke-dasharray="5,2" d="M641.058,-233.955C670.534,-247.887 714.843,-271.192 748,-299 771.551,-318.751 793.018,-348.339 803.231,-363.419"/>
<polygon fill="#9a32cd" stroke="#9a32cd" points="642.212,-230.632 631.668,-229.597 639.265,-236.982 642.212,-230.632"/>
<text text-anchor="middle" x="713" y="-302" font-family="Helvetica,sans-Serif" font-size="10.00"> dyns</text>
</g>
<!-- Node8&#45;&gt;Node2 -->
<g id="edge11" class="edge"><title>Node8&#45;&gt;Node2</title>
<path fill="none" stroke="#9a32cd" stroke-dasharray="5,2" d="M651.712,-284.568C679.283,-282.53 715.977,-278.965 748,-273 832.268,-257.302 851.977,-246.896 934,-222 941.591,-219.696 949.764,-217.048 957.295,-214.538"/>
<polygon fill="#9a32cd" stroke="#9a32cd" points="651.352,-281.085 641.621,-285.277 651.842,-288.068 651.352,-281.085"/>
<text text-anchor="middle" x="810.5" y="-272" font-family="Helvetica,sans-Serif" font-size="10.00"> cur_cursor</text>
</g>
<!-- Node8&#45;&gt;Node8 -->
<g id="edge14" class="edge"><title>Node8&#45;&gt;Node8</title>
<path fill="none" stroke="#9a32cd" stroke-dasharray="5,2" d="M591.834,-306.4C592.947,-311.315 598.502,-315 608.5,-315 624.496,-315 629.12,-305.565 622.372,-296.757"/>
<polygon fill="#9a32cd" stroke="#9a32cd" points="595.207,-307.336 594.628,-296.757 588.483,-305.388 595.207,-307.336"/>
<text text-anchor="middle" x="608.5" y="-318" font-family="Helvetica,sans-Serif" font-size="10.00"> next</text>
</g>
<!-- Node8&#45;&gt;Node10 -->
<g id="edge22" class="edge"><title>Node8&#45;&gt;Node10</title>
<path fill="none" stroke="#9a32cd" stroke-dasharray="5,2" d="M644.16,-300.241C672.345,-311.194 713.031,-327.424 748,-343 762.541,-349.477 778.71,-357.393 790.818,-363.467"/>
<polygon fill="#9a32cd" stroke="#9a32cd" points="645.33,-296.941 634.741,-296.597 642.804,-303.47 645.33,-296.941"/>
<text text-anchor="middle" x="713" y="-346" font-family="Helvetica,sans-Serif" font-size="10.00"> cursors</text>
</g>
<!-- Node9 -->
<g id="node9" class="node"><title>Node9</title>
<g id="a_node9"><a xlink:href="a00111.html" target="_top" xlink:title="tds_cursor_status">
<polygon fill="white" stroke="black" points="379,-287.5 379,-306.5 479,-306.5 479,-287.5 379,-287.5"/>
<text text-anchor="middle" x="429" y="-294.5" font-family="Helvetica,sans-Serif" font-size="10.00">tds_cursor_status</text>
</a>
</g>
</g>
<!-- Node9&#45;&gt;Node8 -->
<g id="edge12" class="edge"><title>Node9&#45;&gt;Node8</title>
<path fill="none" stroke="#9a32cd" stroke-dasharray="5,2" d="M489.764,-293.633C518.4,-292.02 551.56,-290.152 575.377,-288.81"/>
<polygon fill="#9a32cd" stroke="#9a32cd" points="489.231,-290.157 479.444,-294.214 489.625,-297.146 489.231,-290.157"/>
<text text-anchor="middle" x="518" y="-296" font-family="Helvetica,sans-Serif" font-size="10.00"> status</text>
</g>
<!-- Node10&#45;&gt;Node2 -->
<g id="edge15" class="edge"><title>Node10&#45;&gt;Node2</title>
<path fill="none" stroke="#9a32cd" stroke-dasharray="5,2" d="M845.595,-359.188C872.271,-347.028 908.924,-327.179 934,-301 959.326,-274.56 975.556,-233.062 981.931,-214.513"/>
<polygon fill="#9a32cd" stroke="#9a32cd" points="843.989,-356.071 836.259,-363.317 846.82,-362.473 843.989,-356.071"/>
<text text-anchor="middle" x="903.5" y="-347" font-family="Helvetica,sans-Serif" font-size="10.00"> conn</text>
</g>
<!-- Node11 -->
<g id="node11" class="node"><title>Node11</title>
<g id="a_node11"><a xlink:href="a00121.html" target="_top" xlink:title="Current environment as reported by the server. ">
<polygon fill="white" stroke="black" points="581.5,-382.5 581.5,-401.5 635.5,-401.5 635.5,-382.5 581.5,-382.5"/>
<text text-anchor="middle" x="608.5" y="-389.5" font-family="Helvetica,sans-Serif" font-size="10.00">tds_env</text>
</a>
</g>
</g>
<!-- Node11&#45;&gt;Node10 -->
<g id="edge17" class="edge"><title>Node11&#45;&gt;Node10</title>
<path fill="none" stroke="#9a32cd" stroke-dasharray="5,2" d="M645.981,-388.534C679.712,-385.33 729.896,-380.562 765.764,-377.155"/>
<polygon fill="#9a32cd" stroke="#9a32cd" points="645.271,-385.086 635.647,-389.516 645.933,-392.055 645.271,-385.086"/>
<text text-anchor="middle" x="713" y="-388" font-family="Helvetica,sans-Serif" font-size="10.00"> env</text>
</g>
<!-- Node12 -->
<g id="node12" class="node"><title>Node12</title>
<g id="a_node12"><a xlink:href="a00109.html" target="_top" xlink:title="tds_context">
<polygon fill="white" stroke="red" points="573,-344.5 573,-363.5 644,-363.5 644,-344.5 573,-344.5"/>
<text text-anchor="middle" x="608.5" y="-351.5" font-family="Helvetica,sans-Serif" font-size="10.00">tds_context</text>
</a>
</g>
</g>
<!-- Node12&#45;&gt;Node10 -->
<g id="edge18" class="edge"><title>Node12&#45;&gt;Node10</title>
<path fill="none" stroke="#9a32cd" stroke-dasharray="5,2" d="M654.268,-356.399C681.428,-358.061 716.762,-360.591 748,-364 753.793,-364.632 759.878,-365.398 765.875,-366.213"/>
<polygon fill="#9a32cd" stroke="#9a32cd" points="654.475,-352.905 644.284,-355.804 654.058,-359.893 654.475,-352.905"/>
<text text-anchor="middle" x="713" y="-367" font-family="Helvetica,sans-Serif" font-size="10.00"> tds_ctx</text>
</g>
<!-- Node13 -->
<g id="node13" class="node"><title>Node13</title>
<g id="a_node13"><a xlink:href="a00098.html" target="_top" xlink:title="tds_authentication">
<polygon fill="white" stroke="black" points="557,-420.5 557,-439.5 660,-439.5 660,-420.5 557,-420.5"/>
<text text-anchor="middle" x="608.5" y="-427.5" font-family="Helvetica,sans-Serif" font-size="10.00">tds_authentication</text>
</a>
</g>
</g>
<!-- Node13&#45;&gt;Node10 -->
<g id="edge19" class="edge"><title>Node13&#45;&gt;Node10</title>
<path fill="none" stroke="#9a32cd" stroke-dasharray="5,2" d="M670.034,-419.623C694.534,-414.719 722.905,-408.136 748,-400 762.642,-395.253 778.535,-388.223 790.497,-382.526"/>
<polygon fill="#9a32cd" stroke="#9a32cd" points="669.29,-416.202 660.147,-421.555 670.632,-423.073 669.29,-416.202"/>
<text text-anchor="middle" x="713" y="-420" font-family="Helvetica,sans-Serif" font-size="10.00"> authentication</text>
</g>
<!-- Node14 -->
<g id="node14" class="node"><title>Node14</title>
<g id="a_node14"><a xlink:href="a00161.html" target="_top" xlink:title="tdsiconvinfo">
<polygon fill="white" stroke="red" points="14,-419.5 14,-438.5 87,-438.5 87,-419.5 14,-419.5"/>
<text text-anchor="middle" x="50.5" y="-426.5" font-family="Helvetica,sans-Serif" font-size="10.00">tdsiconvinfo</text>
</a>
</g>
</g>
<!-- Node14&#45;&gt;Node10 -->
<g id="edge21" class="edge"><title>Node14&#45;&gt;Node10</title>
<path fill="none" stroke="#9a32cd" stroke-dasharray="5,2" d="M82.3926,-442.357C93.7126,-446.737 106.752,-451.195 119,-454 182.541,-468.553 199.813,-468 265,-468 265,-468 265,-468 519,-468 622.028,-468 656.508,-479.37 748,-432 771.388,-419.891 791.985,-396.097 802.365,-382.722"/>
<polygon fill="#9a32cd" stroke="#9a32cd" points="83.5349,-439.044 72.9506,-438.571 80.93,-445.541 83.5349,-439.044"/>
<text text-anchor="middle" x="429" y="-471" font-family="Helvetica,sans-Serif" font-size="10.00"> char_convs</text>
</g>
<!-- Node14&#45;&gt;Node16 -->
<g id="edge25" class="edge"><title>Node14&#45;&gt;Node16</title>
<path fill="none" stroke="#9a32cd" stroke-dasharray="5,2" d="M72.4281,-413.521C85.2977,-404.643 102.445,-393.92 119,-387 124.216,-384.82 189.423,-369.518 230.909,-359.883"/>
<polygon fill="#9a32cd" stroke="#9a32cd" points="70.4002,-410.669 64.2618,-419.304 74.4455,-416.381 70.4002,-410.669"/>
<text text-anchor="middle" x="166" y="-390" font-family="Helvetica,sans-Serif" font-size="10.00"> char_conv</text>
</g>
<!-- Node15 -->
<g id="node15" class="node"><title>Node15</title>
<g id="a_node15"><a xlink:href="a00134.html" target="_top" xlink:title="tds_mutex">
<polygon fill="white" stroke="black" points="778,-0.5 778,-19.5 843,-19.5 843,-0.5 778,-0.5"/>
<text text-anchor="middle" x="810.5" y="-7.5" font-family="Helvetica,sans-Serif" font-size="10.00">tds_mutex</text>
</a>
</g>
</g>
<!-- Node15&#45;&gt;Node2 -->
<g id="edge23" class="edge"><title>Node15&#45;&gt;Node2</title>
<path fill="none" stroke="#9a32cd" stroke-dasharray="5,2" d="M853.225,-9.01049C879.498,-10.6118 912.407,-17.0247 934,-37 981.212,-80.6747 985.244,-166.483 985.203,-195.3"/>
<polygon fill="#9a32cd" stroke="#9a32cd" points="853.288,-5.51027 843.155,-8.60668 853.007,-12.5047 853.288,-5.51027"/>
<text text-anchor="middle" x="903.5" y="-40" font-family="Helvetica,sans-Serif" font-size="10.00"> wire_mtx</text>
</g>
<!-- Node16&#45;&gt;Node1 -->
<g id="edge24" class="edge"><title>Node16&#45;&gt;Node1</title>
<path fill="none" stroke="#9a32cd" stroke-dasharray="5,2" d="M286.39,-335.861C320.274,-307.66 389.248,-250.253 416.526,-227.55"/>
<polygon fill="#9a32cd" stroke="#9a32cd" points="284.026,-333.276 278.579,-342.363 288.504,-338.656 284.026,-333.276"/>
<text text-anchor="middle" x="340" y="-311" font-family="Helvetica,sans-Serif" font-size="10.00"> columns</text>
</g>
<!-- Node17 -->
<g id="node17" class="node"><title>Node17</title>
<g id="a_node17"><a xlink:href="a00105.html" target="_top" xlink:title="tds_column_funcs">
<polygon fill="white" stroke="black" points="0,-342.5 0,-361.5 101,-361.5 101,-342.5 0,-342.5"/>
<text text-anchor="middle" x="50.5" y="-349.5" font-family="Helvetica,sans-Serif" font-size="10.00">tds_column_funcs</text>
</a>
</g>
</g>
<!-- Node17&#45;&gt;Node16 -->
<g id="edge27" class="edge"><title>Node17&#45;&gt;Node16</title>
<path fill="none" stroke="#9a32cd" stroke-dasharray="5,2" d="M111.094,-352C149.672,-352 198.532,-352 230.727,-352"/>
<polygon fill="#9a32cd" stroke="#9a32cd" points="111.018,-348.5 101.018,-352 111.018,-355.5 111.018,-348.5"/>
<text text-anchor="middle" x="166" y="-355" font-family="Helvetica,sans-Serif" font-size="10.00"> funcs</text>
</g>
<!-- Node18 -->
<g id="node18" class="node"><title>Node18</title>
<g id="a_node18"><a xlink:href="a00099.html" target="_top" xlink:title="tds_bcpcoldata">
<polygon fill="white" stroke="black" points="6.5,-304.5 6.5,-323.5 94.5,-323.5 94.5,-304.5 6.5,-304.5"/>
<text text-anchor="middle" x="50.5" y="-311.5" font-family="Helvetica,sans-Serif" font-size="10.00">tds_bcpcoldata</text>
</a>
</g>
</g>
<!-- Node18&#45;&gt;Node16 -->
<g id="edge28" class="edge"><title>Node18&#45;&gt;Node16</title>
<path fill="none" stroke="#9a32cd" stroke-dasharray="5,2" d="M104.571,-319.668C136.241,-323.519 177.143,-329.314 213,-337 220.074,-338.516 227.597,-340.478 234.659,-342.479"/>
<polygon fill="#9a32cd" stroke="#9a32cd" points="104.975,-316.192 94.6316,-318.487 104.148,-323.143 104.975,-316.192"/>
<text text-anchor="middle" x="166" y="-340" font-family="Helvetica,sans-Serif" font-size="10.00"> bcp_column_data</text>
</g>
</g>
</svg>
