<?xml version="1.0" encoding="UTF-8" standalone="no"?>
<!DOCTYPE svg PUBLIC "-//W3C//DTD SVG 1.1//EN"
 "http://www.w3.org/Graphics/SVG/1.1/DTD/svg11.dtd">
<!-- Generated by graphviz version 2.38.0 (20140413.2041)
 -->
<!-- Title: tds_dataout_stream Pages: 1 -->
<svg width="1092pt" height="420pt"
 viewBox="0.00 0.00 1092.00 420.00" xmlns="http://www.w3.org/2000/svg" xmlns:xlink="http://www.w3.org/1999/xlink">
<g id="graph0" class="graph" transform="scale(1 1) rotate(0) translate(4 416)">
<title>tds_dataout_stream</title>
<polygon fill="white" stroke="none" points="-4,4 -4,-416 1088,-416 1088,4 -4,4"/>
<!-- Node1 -->
<g id="node1" class="node"><title>Node1</title>
<polygon fill="#bfbfbf" stroke="black" points="598,-339.5 598,-358.5 708,-358.5 708,-339.5 598,-339.5"/>
<text text-anchor="middle" x="653" y="-346.5" font-family="Helvetica,sans-Serif" font-size="10.00">tds_dataout_stream</text>
</g>
<!-- Node2 -->
<g id="node2" class="node"><title>Node2</title>
<g id="a_node2"><a xlink:href="a00148.html" target="_top" xlink:title="Information for a server connection. ">
<polygon fill="white" stroke="black" points="406,-229.5 406,-248.5 474,-248.5 474,-229.5 406,-229.5"/>
<text text-anchor="middle" x="440" y="-236.5" font-family="Helvetica,sans-Serif" font-size="10.00">tds_socket</text>
</a>
</g>
</g>
<!-- Node2&#45;&gt;Node1 -->
<g id="edge1" class="edge"><title>Node2&#45;&gt;Node1</title>
<path fill="none" stroke="#9a32cd" stroke-dasharray="5,2" d="M454.972,-257.077C467.746,-272.436 487.959,-294.002 510,-307 536.906,-322.867 570.258,-333.134 597.877,-339.541"/>
<polygon fill="#9a32cd" stroke="#9a32cd" points="457.353,-254.454 448.354,-248.863 451.903,-258.846 457.353,-254.454"/>
<text text-anchor="middle" x="545" y="-337" font-family="Helvetica,sans-Serif" font-size="10.00"> tds</text>
</g>
<!-- Node8 -->
<g id="node8" class="node"><title>Node8</title>
<g id="a_node8"><a xlink:href="a00144.html" target="_top" xlink:title="Hold information for any results. ">
<polygon fill="white" stroke="red" points="610,-184.5 610,-203.5 696,-203.5 696,-184.5 610,-184.5"/>
<text text-anchor="middle" x="653" y="-191.5" font-family="Helvetica,sans-Serif" font-size="10.00">tds_result_info</text>
</a>
</g>
</g>
<!-- Node2&#45;&gt;Node8 -->
<g id="edge10" class="edge"><title>Node2&#45;&gt;Node8</title>
<path fill="none" stroke="#9a32cd" stroke-dasharray="5,2" d="M451.566,-220.917C463.257,-202.9 483.937,-176.333 510,-165 538.53,-152.594 549.721,-157.852 580,-165 588.705,-167.055 589.794,-170.441 598,-174 606.53,-177.699 615.989,-181.35 624.576,-184.5"/>
<polygon fill="#9a32cd" stroke="#9a32cd" points="448.581,-219.09 446.291,-229.434 454.532,-222.776 448.581,-219.09"/>
<text text-anchor="middle" x="545" y="-168" font-family="Helvetica,sans-Serif" font-size="10.00"> attached_to</text>
</g>
<!-- Node3 -->
<g id="node3" class="node"><title>Node3</title>
<g id="a_node3"><a xlink:href="a00129.html" target="_top" xlink:title="tds_login">
<polygon fill="white" stroke="black" points="227.5,-229.5 227.5,-248.5 286.5,-248.5 286.5,-229.5 227.5,-229.5"/>
<text text-anchor="middle" x="257" y="-236.5" font-family="Helvetica,sans-Serif" font-size="10.00">tds_login</text>
</a>
</g>
</g>
<!-- Node3&#45;&gt;Node2 -->
<g id="edge2" class="edge"><title>Node3&#45;&gt;Node2</title>
<path fill="none" stroke="#9a32cd" stroke-dasharray="5,2" d="M296.714,-239C329.182,-239 375.052,-239 405.85,-239"/>
<polygon fill="#9a32cd" stroke="#9a32cd" points="296.68,-235.5 286.68,-239 296.68,-242.5 296.68,-235.5"/>
<text text-anchor="middle" x="339.5" y="-242" font-family="Helvetica,sans-Serif" font-size="10.00"> login</text>
</g>
<!-- Node4 -->
<g id="node4" class="node"><title>Node4</title>
<g id="a_node4"><a xlink:href="a00102.html" target="_top" xlink:title="tds_capabilities">
<polygon fill="white" stroke="red" points="0,-378.5 0,-397.5 89,-397.5 89,-378.5 0,-378.5"/>
<text text-anchor="middle" x="44.5" y="-385.5" font-family="Helvetica,sans-Serif" font-size="10.00">tds_capabilities</text>
</a>
</g>
</g>
<!-- Node4&#45;&gt;Node3 -->
<g id="edge3" class="edge"><title>Node4&#45;&gt;Node3</title>
<path fill="none" stroke="#9a32cd" stroke-dasharray="5,2" d="M98.9832,-376.982C144.58,-367.479 203.079,-354.977 205,-353 234.947,-322.179 198.107,-293.029 223,-258 225.681,-254.228 229.363,-251.098 233.298,-248.541"/>
<polygon fill="#9a32cd" stroke="#9a32cd" points="98.2599,-373.557 89.182,-379.02 99.6851,-380.411 98.2599,-373.557"/>
<text text-anchor="middle" x="156" y="-377" font-family="Helvetica,sans-Serif" font-size="10.00"> capabilities</text>
</g>
<!-- Node11 -->
<g id="node11" class="node"><title>Node11</title>
<g id="a_node11"><a xlink:href="a00108.html" target="_top" xlink:title="tds_connection">
<polygon fill="white" stroke="black" points="995,-132.5 995,-151.5 1084,-151.5 1084,-132.5 995,-132.5"/>
<text text-anchor="middle" x="1039.5" y="-139.5" font-family="Helvetica,sans-Serif" font-size="10.00">tds_connection</text>
</a>
</g>
</g>
<!-- Node4&#45;&gt;Node11 -->
<g id="edge17" class="edge"><title>Node4&#45;&gt;Node11</title>
<path fill="none" stroke="#9a32cd" stroke-dasharray="5,2" d="M99.5202,-393.175C142.008,-396.8 202.724,-401 256,-401 256,-401 256,-401 838.5,-401 967.177,-401 1024.72,-198.252 1036.27,-151.525"/>
<polygon fill="#9a32cd" stroke="#9a32cd" points="99.6627,-389.674 89.3965,-392.293 99.0548,-396.648 99.6627,-389.674"/>
<text text-anchor="middle" x="545" y="-404" font-family="Helvetica,sans-Serif" font-size="10.00"> capabilities</text>
</g>
<!-- Node5 -->
<g id="node5" class="node"><title>Node5</title>
<g id="a_node5"><a xlink:href="a00117.html" target="_top" xlink:title="Structure to hold a string. ">
<polygon fill="white" stroke="black" points="17,-210.5 17,-229.5 72,-229.5 72,-210.5 17,-210.5"/>
<text text-anchor="middle" x="44.5" y="-217.5" font-family="Helvetica,sans-Serif" font-size="10.00">tds_dstr</text>
</a>
</g>
</g>
<!-- Node5&#45;&gt;Node3 -->
<g id="edge4" class="edge"><title>Node5&#45;&gt;Node3</title>
<path fill="none" stroke="#9a32cd" stroke-dasharray="5,2" d="M82.6588,-216.772C115.185,-214.766 163.58,-213.771 205,-221 214.805,-222.711 225.234,-226.091 234.089,-229.465"/>
<polygon fill="#9a32cd" stroke="#9a32cd" points="82.0083,-213.308 72.2696,-217.48 82.4847,-220.292 82.0083,-213.308"/>
<text text-anchor="middle" x="156" y="-345" font-family="Helvetica,sans-Serif" font-size="10.00"> server_realm_name</text>
<text text-anchor="middle" x="156" y="-334" font-family="Helvetica,sans-Serif" font-size="10.00">password</text>
<text text-anchor="middle" x="156" y="-323" font-family="Helvetica,sans-Serif" font-size="10.00">server_name</text>
<text text-anchor="middle" x="156" y="-312" font-family="Helvetica,sans-Serif" font-size="10.00">dump_file</text>
<text text-anchor="middle" x="156" y="-301" font-family="Helvetica,sans-Serif" font-size="10.00">library</text>
<text text-anchor="middle" x="156" y="-290" font-family="Helvetica,sans-Serif" font-size="10.00">crlfile</text>
<text text-anchor="middle" x="156" y="-279" font-family="Helvetica,sans-Serif" font-size="10.00">server_spn</text>
<text text-anchor="start" x="107" y="-268" font-family="Helvetica,sans-Serif" font-size="10.00">client_host</text>
<text text-anchor="middle" x="156" y="-257" font-family="Helvetica,sans-Serif" font-size="10.00">_name</text>
<text text-anchor="middle" x="156" y="-246" font-family="Helvetica,sans-Serif" font-size="10.00">client_charset</text>
<text text-anchor="middle" x="156" y="-235" font-family="Helvetica,sans-Serif" font-size="10.00">server_charset</text>
<text text-anchor="middle" x="156" y="-224" font-family="Helvetica,sans-Serif" font-size="10.00">...</text>
</g>
<!-- Node6 -->
<g id="node6" class="node"><title>Node6</title>
<g id="a_node6"><a xlink:href="a00138.html" target="_top" xlink:title="tds_packet">
<polygon fill="white" stroke="black" points="223,-162.5 223,-181.5 291,-181.5 291,-162.5 223,-162.5"/>
<text text-anchor="middle" x="257" y="-169.5" font-family="Helvetica,sans-Serif" font-size="10.00">tds_packet</text>
</a>
</g>
</g>
<!-- Node6&#45;&gt;Node2 -->
<g id="edge5" class="edge"><title>Node6&#45;&gt;Node2</title>
<path fill="none" stroke="#9a32cd" stroke-dasharray="5,2" d="M293.872,-185.034C315.864,-193.049 344.583,-203.559 370,-213 384.52,-218.393 400.729,-224.497 413.787,-229.434"/>
<polygon fill="#9a32cd" stroke="#9a32cd" points="294.87,-181.673 284.276,-181.54 292.475,-188.25 294.87,-181.673"/>
<text text-anchor="middle" x="339.5" y="-227" font-family="Helvetica,sans-Serif" font-size="10.00"> recv_packet</text>
<text text-anchor="middle" x="339.5" y="-216" font-family="Helvetica,sans-Serif" font-size="10.00">send_packet</text>
</g>
<!-- Node6&#45;&gt;Node6 -->
<g id="edge6" class="edge"><title>Node6&#45;&gt;Node6</title>
<path fill="none" stroke="#9a32cd" stroke-dasharray="5,2" d="M241.899,-191.766C243.085,-196.497 248.119,-200 257,-200 271.574,-200 275.787,-190.565 269.639,-181.757"/>
<polygon fill="#9a32cd" stroke="#9a32cd" points="245.371,-192.304 244.361,-181.757 238.574,-190.631 245.371,-192.304"/>
<text text-anchor="middle" x="257" y="-203" font-family="Helvetica,sans-Serif" font-size="10.00"> next</text>
</g>
<!-- Node7 -->
<g id="node7" class="node"><title>Node7</title>
<g id="a_node7"><a xlink:href="a00118.html" target="_top" xlink:title="Holds information for a dynamic (also called prepared) query. ">
<polygon fill="white" stroke="black" points="799.5,-219.5 799.5,-238.5 875.5,-238.5 875.5,-219.5 799.5,-219.5"/>
<text text-anchor="middle" x="837.5" y="-226.5" font-family="Helvetica,sans-Serif" font-size="10.00">tds_dynamic</text>
</a>
</g>
</g>
<!-- Node7&#45;&gt;Node2 -->
<g id="edge7" class="edge"><title>Node7&#45;&gt;Node2</title>
<path fill="none" stroke="#9a32cd" stroke-dasharray="5,2" d="M789.166,-239.142C782.101,-240.319 774.881,-241.334 768,-242 660.915,-252.359 533.187,-245.738 474.055,-241.599"/>
<polygon fill="#9a32cd" stroke="#9a32cd" points="790.119,-242.528 799.349,-237.326 788.889,-235.637 790.119,-242.528"/>
<text text-anchor="middle" x="653" y="-250" font-family="Helvetica,sans-Serif" font-size="10.00"> cur_dyn</text>
</g>
<!-- Node7&#45;&gt;Node7 -->
<g id="edge8" class="edge"><title>Node7&#45;&gt;Node7</title>
<path fill="none" stroke="#9a32cd" stroke-dasharray="5,2" d="M820.834,-248.4C821.947,-253.315 827.502,-257 837.5,-257 853.496,-257 858.12,-247.565 851.372,-238.757"/>
<polygon fill="#9a32cd" stroke="#9a32cd" points="824.207,-249.336 823.628,-238.757 817.483,-247.388 824.207,-249.336"/>
<text text-anchor="middle" x="837.5" y="-260" font-family="Helvetica,sans-Serif" font-size="10.00"> next</text>
</g>
<!-- Node7&#45;&gt;Node11 -->
<g id="edge21" class="edge"><title>Node7&#45;&gt;Node11</title>
<path fill="none" stroke="#9a32cd" stroke-dasharray="5,2" d="M874.25,-215.889C879.225,-213.966 884.255,-211.969 889,-210 935.88,-190.552 989.845,-165.273 1018.38,-151.675"/>
<polygon fill="#9a32cd" stroke="#9a32cd" points="872.943,-212.641 864.841,-219.469 875.432,-219.184 872.943,-212.641"/>
<text text-anchor="middle" x="942" y="-205" font-family="Helvetica,sans-Serif" font-size="10.00"> dyns</text>
</g>
<!-- Node8&#45;&gt;Node2 -->
<g id="edge11" class="edge"><title>Node8&#45;&gt;Node2</title>
<path fill="none" stroke="#9a32cd" stroke-dasharray="5,2" d="M599.732,-189.831C572.484,-189.151 538.903,-190.68 510,-199 488.444,-205.205 466.539,-219.575 453.358,-229.291"/>
<polygon fill="#9a32cd" stroke="#9a32cd" points="599.724,-193.333 609.842,-190.191 599.973,-186.338 599.724,-193.333"/>
<text text-anchor="middle" x="545" y="-235" font-family="Helvetica,sans-Serif" font-size="10.00"> param_info</text>
<text text-anchor="middle" x="545" y="-224" font-family="Helvetica,sans-Serif" font-size="10.00">current_results</text>
<text text-anchor="middle" x="545" y="-213" font-family="Helvetica,sans-Serif" font-size="10.00">res_info</text>
<text text-anchor="middle" x="545" y="-202" font-family="Helvetica,sans-Serif" font-size="10.00">comp_info</text>
</g>
<!-- Node8&#45;&gt;Node7 -->
<g id="edge9" class="edge"><title>Node8&#45;&gt;Node7</title>
<path fill="none" stroke="#9a32cd" stroke-dasharray="5,2" d="M706.524,-204.073C736.216,-209.768 772.626,-216.75 799.348,-221.875"/>
<polygon fill="#9a32cd" stroke="#9a32cd" points="706.808,-200.564 696.328,-202.118 705.49,-207.439 706.808,-200.564"/>
<text text-anchor="middle" x="747" y="-230" font-family="Helvetica,sans-Serif" font-size="10.00"> res_info</text>
<text text-anchor="middle" x="747" y="-219" font-family="Helvetica,sans-Serif" font-size="10.00">params</text>
</g>
<!-- Node9 -->
<g id="node9" class="node"><title>Node9</title>
<g id="a_node9"><a xlink:href="a00110.html" target="_top" xlink:title="Holds informations about a cursor. ">
<polygon fill="white" stroke="black" points="804.5,-152.5 804.5,-171.5 870.5,-171.5 870.5,-152.5 804.5,-152.5"/>
<text text-anchor="middle" x="837.5" y="-159.5" font-family="Helvetica,sans-Serif" font-size="10.00">tds_cursor</text>
</a>
</g>
</g>
<!-- Node8&#45;&gt;Node9 -->
<g id="edge14" class="edge"><title>Node8&#45;&gt;Node9</title>
<path fill="none" stroke="#9a32cd" stroke-dasharray="5,2" d="M706.304,-184.829C737.941,-179.282 777.267,-172.386 804.371,-167.634"/>
<polygon fill="#9a32cd" stroke="#9a32cd" points="705.573,-181.404 696.328,-186.578 706.782,-188.298 705.573,-181.404"/>
<text text-anchor="middle" x="747" y="-184" font-family="Helvetica,sans-Serif" font-size="10.00"> res_info</text>
</g>
<!-- Node9&#45;&gt;Node2 -->
<g id="edge12" class="edge"><title>Node9&#45;&gt;Node2</title>
<path fill="none" stroke="#9a32cd" stroke-dasharray="5,2" d="M801.762,-149.124C776.229,-140.372 740.47,-129.582 708,-125 659.591,-118.169 646.271,-117.251 598,-125 557.34,-131.527 543.903,-130.625 510,-154 480.112,-174.607 456.413,-211.78 446.306,-229.329"/>
<polygon fill="#9a32cd" stroke="#9a32cd" points="800.764,-152.482 811.358,-152.482 803.076,-145.875 800.764,-152.482"/>
<text text-anchor="middle" x="653" y="-128" font-family="Helvetica,sans-Serif" font-size="10.00"> cur_cursor</text>
</g>
<!-- Node9&#45;&gt;Node9 -->
<g id="edge15" class="edge"><title>Node9&#45;&gt;Node9</title>
<path fill="none" stroke="#9a32cd" stroke-dasharray="5,2" d="M820.834,-181.4C821.947,-186.315 827.502,-190 837.5,-190 853.496,-190 858.12,-180.565 851.372,-171.757"/>
<polygon fill="#9a32cd" stroke="#9a32cd" points="824.207,-182.336 823.628,-171.757 817.483,-180.388 824.207,-182.336"/>
<text text-anchor="middle" x="837.5" y="-193" font-family="Helvetica,sans-Serif" font-size="10.00"> next</text>
</g>
<!-- Node9&#45;&gt;Node11 -->
<g id="edge23" class="edge"><title>Node9&#45;&gt;Node11</title>
<path fill="none" stroke="#9a32cd" stroke-dasharray="5,2" d="M880.589,-157.791C914.135,-154.437 960.946,-149.755 994.885,-146.361"/>
<polygon fill="#9a32cd" stroke="#9a32cd" points="880.236,-154.309 870.633,-158.787 880.932,-161.274 880.236,-154.309"/>
<text text-anchor="middle" x="942" y="-158" font-family="Helvetica,sans-Serif" font-size="10.00"> cursors</text>
</g>
<!-- Node10 -->
<g id="node10" class="node"><title>Node10</title>
<g id="a_node10"><a xlink:href="a00111.html" target="_top" xlink:title="tds_cursor_status">
<polygon fill="white" stroke="black" points="603,-145.5 603,-164.5 703,-164.5 703,-145.5 603,-145.5"/>
<text text-anchor="middle" x="653" y="-152.5" font-family="Helvetica,sans-Serif" font-size="10.00">tds_cursor_status</text>
</a>
</g>
</g>
<!-- Node10&#45;&gt;Node9 -->
<g id="edge13" class="edge"><title>Node10&#45;&gt;Node9</title>
<path fill="none" stroke="#9a32cd" stroke-dasharray="5,2" d="M713.293,-152.099C730.914,-151.739 750.25,-151.839 768,-153 779.849,-153.775 792.778,-155.297 804.18,-156.871"/>
<polygon fill="#9a32cd" stroke="#9a32cd" points="713.048,-148.604 703.141,-152.36 713.228,-155.602 713.048,-148.604"/>
<text text-anchor="middle" x="747" y="-156" font-family="Helvetica,sans-Serif" font-size="10.00"> status</text>
</g>
<!-- Node11&#45;&gt;Node2 -->
<g id="edge16" class="edge"><title>Node11&#45;&gt;Node2</title>
<path fill="none" stroke="#9a32cd" stroke-dasharray="5,2" d="M1026.55,-160.274C1004.21,-192.385 952.567,-257.391 889,-277 736.093,-324.167 540.796,-271.426 469.051,-248.539"/>
<polygon fill="#9a32cd" stroke="#9a32cd" points="1029.58,-162.043 1032.3,-151.802 1023.79,-158.115 1029.58,-162.043"/>
<text text-anchor="middle" x="747" y="-298" font-family="Helvetica,sans-Serif" font-size="10.00"> conn</text>
</g>
<!-- Node12 -->
<g id="node12" class="node"><title>Node12</title>
<g id="a_node12"><a xlink:href="a00121.html" target="_top" xlink:title="Current environment as reported by the server. ">
<polygon fill="white" stroke="black" points="810.5,-114.5 810.5,-133.5 864.5,-133.5 864.5,-114.5 810.5,-114.5"/>
<text text-anchor="middle" x="837.5" y="-121.5" font-family="Helvetica,sans-Serif" font-size="10.00">tds_env</text>
</a>
</g>
</g>
<!-- Node12&#45;&gt;Node11 -->
<g id="edge18" class="edge"><title>Node12&#45;&gt;Node11</title>
<path fill="none" stroke="#9a32cd" stroke-dasharray="5,2" d="M874.803,-122.639C902.837,-122.106 942.533,-122.478 977,-127 986.262,-128.215 996.154,-130.277 1005.24,-132.489"/>
<polygon fill="#9a32cd" stroke="#9a32cd" points="874.579,-119.144 864.665,-122.881 874.746,-126.142 874.579,-119.144"/>
<text text-anchor="middle" x="942" y="-130" font-family="Helvetica,sans-Serif" font-size="10.00"> env</text>
</g>
<!-- Node13 -->
<g id="node13" class="node"><title>Node13</title>
<g id="a_node13"><a xlink:href="a00109.html" target="_top" xlink:title="tds_context">
<polygon fill="white" stroke="red" points="802,-76.5 802,-95.5 873,-95.5 873,-76.5 802,-76.5"/>
<text text-anchor="middle" x="837.5" y="-83.5" font-family="Helvetica,sans-Serif" font-size="10.00">tds_context</text>
</a>
</g>
</g>
<!-- Node13&#45;&gt;Node11 -->
<g id="edge19" class="edge"><title>Node13&#45;&gt;Node11</title>
<path fill="none" stroke="#9a32cd" stroke-dasharray="5,2" d="M883.317,-89.1486C910.912,-92.0518 946.684,-97.5728 977,-108 994.305,-113.952 1012.45,-124.602 1024.5,-132.401"/>
<polygon fill="#9a32cd" stroke="#9a32cd" points="883.462,-85.6462 873.17,-88.1593 882.783,-92.6132 883.462,-85.6462"/>
<text text-anchor="middle" x="942" y="-111" font-family="Helvetica,sans-Serif" font-size="10.00"> tds_ctx</text>
</g>
<!-- Node14 -->
<g id="node14" class="node"><title>Node14</title>
<g id="a_node14"><a xlink:href="a00098.html" target="_top" xlink:title="tds_authentication">
<polygon fill="white" stroke="black" points="786,-38.5 786,-57.5 889,-57.5 889,-38.5 786,-38.5"/>
<text text-anchor="middle" x="837.5" y="-45.5" font-family="Helvetica,sans-Serif" font-size="10.00">tds_authentication</text>
</a>
</g>
</g>
<!-- Node14&#45;&gt;Node11 -->
<g id="edge20" class="edge"><title>Node14&#45;&gt;Node11</title>
<path fill="none" stroke="#9a32cd" stroke-dasharray="5,2" d="M899.3,-53.2831C924.549,-57.4285 953.401,-64.8211 977,-78 1001.49,-91.6744 1022.24,-118.253 1032.19,-132.476"/>
<polygon fill="#9a32cd" stroke="#9a32cd" points="899.501,-49.774 889.091,-51.7479 898.46,-56.6962 899.501,-49.774"/>
<text text-anchor="middle" x="942" y="-81" font-family="Helvetica,sans-Serif" font-size="10.00"> authentication</text>
</g>
<!-- Node15 -->
<g id="node15" class="node"><title>Node15</title>
<g id="a_node15"><a xlink:href="a00161.html" target="_top" xlink:title="tdsiconvinfo">
<polygon fill="white" stroke="red" points="801,-0.5 801,-19.5 874,-19.5 874,-0.5 801,-0.5"/>
<text text-anchor="middle" x="837.5" y="-7.5" font-family="Helvetica,sans-Serif" font-size="10.00">tdsiconvinfo</text>
</a>
</g>
</g>
<!-- Node15&#45;&gt;Node11 -->
<g id="edge22" class="edge"><title>Node15&#45;&gt;Node11</title>
<path fill="none" stroke="#9a32cd" stroke-dasharray="5,2" d="M884.3,-10.8526C913.227,-13.4506 950.086,-20.7548 977,-40 1010.3,-63.8146 1028.88,-111.808 1035.59,-132.333"/>
<polygon fill="#9a32cd" stroke="#9a32cd" points="884.265,-7.34061 874.035,-10.095 883.75,-14.3216 884.265,-7.34061"/>
<text text-anchor="middle" x="942" y="-43" font-family="Helvetica,sans-Serif" font-size="10.00"> char_convs</text>
</g>
<!-- Node16 -->
<g id="node16" class="node"><title>Node16</title>
<g id="a_node16"><a xlink:href="a00134.html" target="_top" xlink:title="tds_mutex">
<polygon fill="white" stroke="black" points="224.5,-267.5 224.5,-286.5 289.5,-286.5 289.5,-267.5 224.5,-267.5"/>
<text text-anchor="middle" x="257" y="-274.5" font-family="Helvetica,sans-Serif" font-size="10.00">tds_mutex</text>
</a>
</g>
</g>
<!-- Node16&#45;&gt;Node2 -->
<g id="edge24" class="edge"><title>Node16&#45;&gt;Node2</title>
<path fill="none" stroke="#9a32cd" stroke-dasharray="5,2" d="M299.8,-268.535C320.866,-264.239 346.801,-258.904 370,-254 381.634,-251.541 394.358,-248.792 405.676,-246.326"/>
<polygon fill="#9a32cd" stroke="#9a32cd" points="298.983,-265.129 289.883,-270.554 300.38,-271.989 298.983,-265.129"/>
<text text-anchor="middle" x="339.5" y="-269" font-family="Helvetica,sans-Serif" font-size="10.00"> wire_mtx</text>
</g>
<!-- Node17 -->
<g id="node17" class="node"><title>Node17</title>
<g id="a_node17"><a xlink:href="a00137.html" target="_top" xlink:title="define a stream of data used for output ">
<polygon fill="white" stroke="black" points="388,-353.5 388,-372.5 492,-372.5 492,-353.5 388,-353.5"/>
<text text-anchor="middle" x="440" y="-360.5" font-family="Helvetica,sans-Serif" font-size="10.00">tds_output_stream</text>
</a>
</g>
</g>
<!-- Node17&#45;&gt;Node1 -->
<g id="edge25" class="edge"><title>Node17&#45;&gt;Node1</title>
<path fill="none" stroke="#9a32cd" stroke-dasharray="5,2" d="M502.079,-358.947C532.298,-356.942 568.465,-354.543 597.705,-352.603"/>
<polygon fill="#9a32cd" stroke="#9a32cd" points="501.824,-355.457 492.077,-359.611 502.287,-362.441 501.824,-355.457"/>
<text text-anchor="middle" x="545" y="-361" font-family="Helvetica,sans-Serif" font-size="10.00"> stream</text>
</g>
</g>
</svg>
