<?xml version="1.0" encoding="UTF-8" standalone="no"?>
<!DOCTYPE svg PUBLIC "-//W3C//DTD SVG 1.1//EN"
 "http://www.w3.org/Graphics/SVG/1.1/DTD/svg11.dtd">
<!-- Generated by graphviz version 2.38.0 (20140413.2041)
 -->
<!-- Title: tds_dynamic Pages: 1 -->
<svg width="989pt" height="418pt"
 viewBox="0.00 0.00 989.00 418.00" xmlns="http://www.w3.org/2000/svg" xmlns:xlink="http://www.w3.org/1999/xlink">
<g id="graph0" class="graph" transform="scale(1 1) rotate(0) translate(4 414)">
<title>tds_dynamic</title>
<polygon fill="white" stroke="none" points="-4,4 -4,-414 985,-414 985,4 -4,4"/>
<!-- Node1 -->
<g id="node1" class="node"><title>Node1</title>
<polygon fill="#bfbfbf" stroke="black" points="201.5,-339.5 201.5,-358.5 277.5,-358.5 277.5,-339.5 201.5,-339.5"/>
<text text-anchor="middle" x="239.5" y="-346.5" font-family="Helvetica,sans-Serif" font-size="10.00">tds_dynamic</text>
</g>
<!-- Node1&#45;&gt;Node1 -->
<g id="edge1" class="edge"><title>Node1&#45;&gt;Node1</title>
<path fill="none" stroke="#9a32cd" stroke-dasharray="5,2" d="M219.131,-368.4C220.491,-373.315 227.281,-377 239.5,-377 259.051,-377 264.702,-367.565 256.454,-358.757"/>
<polygon fill="#9a32cd" stroke="#9a32cd" points="222.507,-369.352 222.546,-358.757 215.908,-367.015 222.507,-369.352"/>
<text text-anchor="middle" x="239.5" y="-380" font-family="Helvetica,sans-Serif" font-size="10.00"> next</text>
</g>
<!-- Node3 -->
<g id="node3" class="node"><title>Node3</title>
<g id="a_node3"><a xlink:href="a00148.html" target="_top" xlink:title="Information for a server connection. ">
<polygon fill="white" stroke="black" points="413,-245.5 413,-264.5 481,-264.5 481,-245.5 413,-245.5"/>
<text text-anchor="middle" x="447" y="-252.5" font-family="Helvetica,sans-Serif" font-size="10.00">tds_socket</text>
</a>
</g>
</g>
<!-- Node1&#45;&gt;Node3 -->
<g id="edge8" class="edge"><title>Node1&#45;&gt;Node3</title>
<path fill="none" stroke="#9a32cd" stroke-dasharray="5,2" d="M274.138,-335.838C284.884,-331.823 296.877,-327.539 308,-324 345.703,-312.005 359.142,-319.718 394,-301 411.628,-291.534 428.259,-275.003 437.774,-264.549"/>
<polygon fill="#9a32cd" stroke="#9a32cd" points="272.791,-332.606 264.68,-339.421 275.271,-339.152 272.791,-332.606"/>
<text text-anchor="middle" x="351" y="-327" font-family="Helvetica,sans-Serif" font-size="10.00"> cur_dyn</text>
</g>
<!-- Node8 -->
<g id="node8" class="node"><title>Node8</title>
<g id="a_node8"><a xlink:href="a00108.html" target="_top" xlink:title="tds_connection">
<polygon fill="white" stroke="red" points="892,-187.5 892,-206.5 981,-206.5 981,-187.5 892,-187.5"/>
<text text-anchor="middle" x="936.5" y="-194.5" font-family="Helvetica,sans-Serif" font-size="10.00">tds_connection</text>
</a>
</g>
</g>
<!-- Node1&#45;&gt;Node8 -->
<g id="edge14" class="edge"><title>Node1&#45;&gt;Node8</title>
<path fill="none" stroke="#9a32cd" stroke-dasharray="5,2" d="M273.299,-362.114C313.369,-376.929 383.548,-399 446,-399 446,-399 446,-399 786,-399 882.857,-399 924.154,-247.093 933.415,-206.743"/>
<polygon fill="#9a32cd" stroke="#9a32cd" points="274.375,-358.78 263.783,-358.522 271.903,-365.329 274.375,-358.78"/>
<text text-anchor="middle" x="631" y="-402" font-family="Helvetica,sans-Serif" font-size="10.00"> dyns</text>
</g>
<!-- Node2 -->
<g id="node2" class="node"><title>Node2</title>
<g id="a_node2"><a xlink:href="a00144.html" target="_top" xlink:title="Hold information for any results. ">
<polygon fill="white" stroke="black" points="588,-252.5 588,-271.5 674,-271.5 674,-252.5 588,-252.5"/>
<text text-anchor="middle" x="631" y="-259.5" font-family="Helvetica,sans-Serif" font-size="10.00">tds_result_info</text>
</a>
</g>
</g>
<!-- Node2&#45;&gt;Node1 -->
<g id="edge2" class="edge"><title>Node2&#45;&gt;Node1</title>
<path fill="none" stroke="#9a32cd" stroke-dasharray="5,2" d="M617.844,-280.142C607.11,-294.502 590.069,-313.645 570,-323 472.482,-368.458 341.055,-361.275 277.703,-354.176"/>
<polygon fill="#9a32cd" stroke="#9a32cd" points="620.729,-282.124 623.683,-271.95 615.029,-278.061 620.729,-282.124"/>
<text text-anchor="middle" x="447" y="-372" font-family="Helvetica,sans-Serif" font-size="10.00"> res_info</text>
<text text-anchor="middle" x="447" y="-361" font-family="Helvetica,sans-Serif" font-size="10.00">params</text>
</g>
<!-- Node2&#45;&gt;Node3 -->
<g id="edge9" class="edge"><title>Node2&#45;&gt;Node3</title>
<path fill="none" stroke="#9a32cd" stroke-dasharray="5,2" d="M577.715,-253.688C575.11,-253.421 572.528,-253.189 570,-253 538.975,-250.686 531.105,-252.402 500,-253 493.858,-253.118 487.31,-253.315 481.005,-253.539"/>
<polygon fill="#9a32cd" stroke="#9a32cd" points="577.465,-257.182 587.803,-254.865 578.276,-250.229 577.465,-257.182"/>
<text text-anchor="middle" x="535" y="-289" font-family="Helvetica,sans-Serif" font-size="10.00"> param_info</text>
<text text-anchor="middle" x="535" y="-278" font-family="Helvetica,sans-Serif" font-size="10.00">current_results</text>
<text text-anchor="middle" x="535" y="-267" font-family="Helvetica,sans-Serif" font-size="10.00">res_info</text>
<text text-anchor="middle" x="535" y="-256" font-family="Helvetica,sans-Serif" font-size="10.00">comp_info</text>
</g>
<!-- Node7 -->
<g id="node7" class="node"><title>Node7</title>
<g id="a_node7"><a xlink:href="a00110.html" target="_top" xlink:title="Holds informations about a cursor. ">
<polygon fill="white" stroke="red" points="752,-213.5 752,-232.5 818,-232.5 818,-213.5 752,-213.5"/>
<text text-anchor="middle" x="785" y="-220.5" font-family="Helvetica,sans-Serif" font-size="10.00">tds_cursor</text>
</a>
</g>
</g>
<!-- Node2&#45;&gt;Node7 -->
<g id="edge11" class="edge"><title>Node2&#45;&gt;Node7</title>
<path fill="none" stroke="#9a32cd" stroke-dasharray="5,2" d="M682.285,-250.021C698.79,-245.996 717.205,-241.408 734,-237 739.755,-235.49 745.865,-233.827 751.766,-232.192"/>
<polygon fill="#9a32cd" stroke="#9a32cd" points="681.179,-246.687 672.286,-252.447 682.829,-253.49 681.179,-246.687"/>
<text text-anchor="middle" x="713" y="-250" font-family="Helvetica,sans-Serif" font-size="10.00"> res_info</text>
</g>
<!-- Node3&#45;&gt;Node2 -->
<g id="edge3" class="edge"><title>Node3&#45;&gt;Node2</title>
<path fill="none" stroke="#9a32cd" stroke-dasharray="5,2" d="M461.853,-272.453C471.328,-282.917 484.88,-295.272 500,-301 529.093,-312.021 540.172,-309.842 570,-301 589.297,-295.28 608.198,-281.182 619.477,-271.599"/>
<polygon fill="#9a32cd" stroke="#9a32cd" points="464.329,-269.963 455.175,-264.628 459.005,-274.507 464.329,-269.963"/>
<text text-anchor="middle" x="535" y="-311" font-family="Helvetica,sans-Serif" font-size="10.00"> attached_to</text>
</g>
<!-- Node4 -->
<g id="node4" class="node"><title>Node4</title>
<g id="a_node4"><a xlink:href="a00129.html" target="_top" xlink:title="tds_login">
<polygon fill="white" stroke="red" points="210,-254.5 210,-273.5 269,-273.5 269,-254.5 210,-254.5"/>
<text text-anchor="middle" x="239.5" y="-261.5" font-family="Helvetica,sans-Serif" font-size="10.00">tds_login</text>
</a>
</g>
</g>
<!-- Node4&#45;&gt;Node3 -->
<g id="edge4" class="edge"><title>Node4&#45;&gt;Node3</title>
<path fill="none" stroke="#9a32cd" stroke-dasharray="5,2" d="M278.968,-258.695C288.441,-257.595 298.572,-256.591 308,-256 343.748,-253.759 384.807,-253.794 412.782,-254.212"/>
<polygon fill="#9a32cd" stroke="#9a32cd" points="278.512,-255.224 269.011,-259.912 279.362,-262.173 278.512,-255.224"/>
<text text-anchor="middle" x="351" y="-259" font-family="Helvetica,sans-Serif" font-size="10.00"> login</text>
</g>
<!-- Node5 -->
<g id="node5" class="node"><title>Node5</title>
<g id="a_node5"><a xlink:href="a00117.html" target="_top" xlink:title="Structure to hold a string. ">
<polygon fill="white" stroke="black" points="0,-137.5 0,-156.5 55,-156.5 55,-137.5 0,-137.5"/>
<text text-anchor="middle" x="27.5" y="-144.5" font-family="Helvetica,sans-Serif" font-size="10.00">tds_dstr</text>
</a>
</g>
</g>
<!-- Node5&#45;&gt;Node4 -->
<g id="edge5" class="edge"><title>Node5&#45;&gt;Node4</title>
<path fill="none" stroke="#9a32cd" stroke-dasharray="5,2" d="M50.718,-162.362C81.0367,-182.9 137.499,-219.655 189,-245 195.938,-248.414 203.652,-251.634 210.886,-254.418"/>
<polygon fill="#9a32cd" stroke="#9a32cd" points="52.4158,-159.283 42.1825,-156.539 48.4709,-165.066 52.4158,-159.283"/>
<text text-anchor="middle" x="122" y="-359" font-family="Helvetica,sans-Serif" font-size="10.00"> server_realm_name</text>
<text text-anchor="middle" x="122" y="-348" font-family="Helvetica,sans-Serif" font-size="10.00">password</text>
<text text-anchor="middle" x="122" y="-337" font-family="Helvetica,sans-Serif" font-size="10.00">server_name</text>
<text text-anchor="middle" x="122" y="-326" font-family="Helvetica,sans-Serif" font-size="10.00">dump_file</text>
<text text-anchor="middle" x="122" y="-315" font-family="Helvetica,sans-Serif" font-size="10.00">library</text>
<text text-anchor="middle" x="122" y="-304" font-family="Helvetica,sans-Serif" font-size="10.00">crlfile</text>
<text text-anchor="middle" x="122" y="-293" font-family="Helvetica,sans-Serif" font-size="10.00">server_spn</text>
<text text-anchor="start" x="73" y="-282" font-family="Helvetica,sans-Serif" font-size="10.00">client_host</text>
<text text-anchor="middle" x="122" y="-271" font-family="Helvetica,sans-Serif" font-size="10.00">_name</text>
<text text-anchor="middle" x="122" y="-260" font-family="Helvetica,sans-Serif" font-size="10.00">client_charset</text>
<text text-anchor="middle" x="122" y="-249" font-family="Helvetica,sans-Serif" font-size="10.00">server_charset</text>
<text text-anchor="middle" x="122" y="-238" font-family="Helvetica,sans-Serif" font-size="10.00">...</text>
</g>
<!-- Node11 -->
<g id="node11" class="node"><title>Node11</title>
<g id="a_node11"><a xlink:href="a00104.html" target="_top" xlink:title="Metadata about columns in regular and compute rows. ">
<polygon fill="white" stroke="black" points="412,-88.5 412,-107.5 482,-107.5 482,-88.5 412,-88.5"/>
<text text-anchor="middle" x="447" y="-95.5" font-family="Helvetica,sans-Serif" font-size="10.00">tds_column</text>
</a>
</g>
</g>
<!-- Node5&#45;&gt;Node11 -->
<g id="edge20" class="edge"><title>Node5&#45;&gt;Node11</title>
<path fill="none" stroke="#9a32cd" stroke-dasharray="5,2" d="M65.0142,-135.575C97.2686,-126.045 145.762,-113.077 189,-107 268.138,-95.878 362.255,-95.9093 411.713,-96.9343"/>
<polygon fill="#9a32cd" stroke="#9a32cd" points="63.7135,-132.311 55.1399,-138.536 65.7238,-139.016 63.7135,-132.311"/>
<text text-anchor="middle" x="239.5" y="-132" font-family="Helvetica,sans-Serif" font-size="10.00"> column_name</text>
<text text-anchor="middle" x="239.5" y="-121" font-family="Helvetica,sans-Serif" font-size="10.00">table_name</text>
<text text-anchor="middle" x="239.5" y="-110" font-family="Helvetica,sans-Serif" font-size="10.00">table_column_name</text>
</g>
<!-- Node6 -->
<g id="node6" class="node"><title>Node6</title>
<g id="a_node6"><a xlink:href="a00138.html" target="_top" xlink:title="tds_packet">
<polygon fill="white" stroke="black" points="205.5,-187.5 205.5,-206.5 273.5,-206.5 273.5,-187.5 205.5,-187.5"/>
<text text-anchor="middle" x="239.5" y="-194.5" font-family="Helvetica,sans-Serif" font-size="10.00">tds_packet</text>
</a>
</g>
</g>
<!-- Node6&#45;&gt;Node3 -->
<g id="edge6" class="edge"><title>Node6&#45;&gt;Node3</title>
<path fill="none" stroke="#9a32cd" stroke-dasharray="5,2" d="M283.737,-201.912C315.012,-206.309 357.936,-214.102 394,-227 407.13,-231.696 420.985,-239.305 431.089,-245.406"/>
<polygon fill="#9a32cd" stroke="#9a32cd" points="283.981,-198.413 273.604,-200.548 283.048,-205.351 283.981,-198.413"/>
<text text-anchor="middle" x="351" y="-241" font-family="Helvetica,sans-Serif" font-size="10.00"> recv_packet</text>
<text text-anchor="middle" x="351" y="-230" font-family="Helvetica,sans-Serif" font-size="10.00">send_packet</text>
</g>
<!-- Node6&#45;&gt;Node6 -->
<g id="edge7" class="edge"><title>Node6&#45;&gt;Node6</title>
<path fill="none" stroke="#9a32cd" stroke-dasharray="5,2" d="M219.131,-216.4C220.491,-221.315 227.281,-225 239.5,-225 259.051,-225 264.702,-215.565 256.454,-206.757"/>
<polygon fill="#9a32cd" stroke="#9a32cd" points="222.507,-217.352 222.546,-206.757 215.908,-215.015 222.507,-217.352"/>
<text text-anchor="middle" x="239.5" y="-228" font-family="Helvetica,sans-Serif" font-size="10.00"> next</text>
</g>
<!-- Node7&#45;&gt;Node3 -->
<g id="edge10" class="edge"><title>Node7&#45;&gt;Node3</title>
<path fill="none" stroke="#9a32cd" stroke-dasharray="5,2" d="M741.527,-223.519C701.754,-224.344 640.713,-226.479 588,-232 551.254,-235.849 509.504,-243.084 481.231,-248.415"/>
<polygon fill="#9a32cd" stroke="#9a32cd" points="741.726,-227.016 751.658,-223.328 741.594,-220.018 741.726,-227.016"/>
<text text-anchor="middle" x="631" y="-235" font-family="Helvetica,sans-Serif" font-size="10.00"> cur_cursor</text>
</g>
<!-- Node7&#45;&gt;Node7 -->
<g id="edge12" class="edge"><title>Node7&#45;&gt;Node7</title>
<path fill="none" stroke="#9a32cd" stroke-dasharray="5,2" d="M772.109,-242.766C773.122,-247.497 777.419,-251 785,-251 797.441,-251 801.038,-241.565 795.789,-232.757"/>
<polygon fill="#9a32cd" stroke="#9a32cd" points="775.581,-243.263 774.211,-232.757 768.73,-241.824 775.581,-243.263"/>
<text text-anchor="middle" x="785" y="-254" font-family="Helvetica,sans-Serif" font-size="10.00"> next</text>
</g>
<!-- Node7&#45;&gt;Node8 -->
<g id="edge16" class="edge"><title>Node7&#45;&gt;Node8</title>
<path fill="none" stroke="#9a32cd" stroke-dasharray="5,2" d="M828.091,-215.68C847.999,-212.218 871.753,-208.086 891.854,-204.591"/>
<polygon fill="#9a32cd" stroke="#9a32cd" points="827.324,-212.261 818.072,-217.422 828.523,-219.157 827.324,-212.261"/>
<text text-anchor="middle" x="855" y="-216" font-family="Helvetica,sans-Serif" font-size="10.00"> cursors</text>
</g>
<!-- Node8&#45;&gt;Node3 -->
<g id="edge13" class="edge"><title>Node8&#45;&gt;Node3</title>
<path fill="none" stroke="#9a32cd" stroke-dasharray="5,2" d="M881.805,-194.123C798.34,-191.183 633.219,-191.531 500,-230 487.489,-233.613 474.275,-240.003 464.298,-245.418"/>
<polygon fill="#9a32cd" stroke="#9a32cd" points="881.688,-197.621 891.815,-194.505 881.956,-190.626 881.688,-197.621"/>
<text text-anchor="middle" x="713" y="-200" font-family="Helvetica,sans-Serif" font-size="10.00"> conn</text>
</g>
<!-- Node9 -->
<g id="node9" class="node"><title>Node9</title>
<g id="a_node9"><a xlink:href="a00161.html" target="_top" xlink:title="tdsiconvinfo">
<polygon fill="white" stroke="red" points="203,-0.5 203,-19.5 276,-19.5 276,-0.5 203,-0.5"/>
<text text-anchor="middle" x="239.5" y="-7.5" font-family="Helvetica,sans-Serif" font-size="10.00">tdsiconvinfo</text>
</a>
</g>
</g>
<!-- Node9&#45;&gt;Node8 -->
<g id="edge15" class="edge"><title>Node9&#45;&gt;Node8</title>
<path fill="none" stroke="#9a32cd" stroke-dasharray="5,2" d="M286.237,-8.24993C327.877,-6.80829 391.058,-5 446,-5 446,-5 446,-5 786,-5 879.576,-5 923.142,-148.737 933.185,-187.479"/>
<polygon fill="#9a32cd" stroke="#9a32cd" points="286.003,-4.75592 276.133,-8.60722 286.251,-11.7515 286.003,-4.75592"/>
<text text-anchor="middle" x="631" y="-8" font-family="Helvetica,sans-Serif" font-size="10.00"> char_convs</text>
</g>
<!-- Node9&#45;&gt;Node11 -->
<g id="edge19" class="edge"><title>Node9&#45;&gt;Node11</title>
<path fill="none" stroke="#9a32cd" stroke-dasharray="5,2" d="M285.999,-16.7242C324.346,-22.9447 375.792,-32.753 394,-43 413.926,-54.2138 430.788,-75.5925 439.545,-88.1376"/>
<polygon fill="#9a32cd" stroke="#9a32cd" points="286.492,-13.2586 276.066,-15.1448 285.392,-20.1718 286.492,-13.2586"/>
<text text-anchor="middle" x="351" y="-46" font-family="Helvetica,sans-Serif" font-size="10.00"> char_conv</text>
</g>
<!-- Node10 -->
<g id="node10" class="node"><title>Node10</title>
<g id="a_node10"><a xlink:href="a00134.html" target="_top" xlink:title="tds_mutex">
<polygon fill="white" stroke="black" points="207,-292.5 207,-311.5 272,-311.5 272,-292.5 207,-292.5"/>
<text text-anchor="middle" x="239.5" y="-299.5" font-family="Helvetica,sans-Serif" font-size="10.00">tds_mutex</text>
</a>
</g>
</g>
<!-- Node10&#45;&gt;Node3 -->
<g id="edge17" class="edge"><title>Node10&#45;&gt;Node3</title>
<path fill="none" stroke="#9a32cd" stroke-dasharray="5,2" d="M282.233,-292.515C313.107,-285.491 356.182,-275.675 394,-267 400.141,-265.591 406.688,-264.084 412.993,-262.631"/>
<polygon fill="#9a32cd" stroke="#9a32cd" points="281.231,-289.154 272.256,-294.785 282.783,-295.98 281.231,-289.154"/>
<text text-anchor="middle" x="351" y="-289" font-family="Helvetica,sans-Serif" font-size="10.00"> wire_mtx</text>
</g>
<!-- Node11&#45;&gt;Node2 -->
<g id="edge18" class="edge"><title>Node11&#45;&gt;Node2</title>
<path fill="none" stroke="#9a32cd" stroke-dasharray="5,2" d="M462.72,-115.483C486.924,-143.553 537.498,-199.427 588,-238 594.941,-243.302 603.174,-248.257 610.504,-252.272"/>
<polygon fill="#9a32cd" stroke="#9a32cd" points="465.241,-113.045 456.085,-107.714 459.918,-117.591 465.241,-113.045"/>
<text text-anchor="middle" x="535" y="-224" font-family="Helvetica,sans-Serif" font-size="10.00"> columns</text>
</g>
<!-- Node12 -->
<g id="node12" class="node"><title>Node12</title>
<g id="a_node12"><a xlink:href="a00105.html" target="_top" xlink:title="tds_column_funcs">
<polygon fill="white" stroke="black" points="189,-42.5 189,-61.5 290,-61.5 290,-42.5 189,-42.5"/>
<text text-anchor="middle" x="239.5" y="-49.5" font-family="Helvetica,sans-Serif" font-size="10.00">tds_column_funcs</text>
</a>
</g>
</g>
<!-- Node12&#45;&gt;Node11 -->
<g id="edge21" class="edge"><title>Node12&#45;&gt;Node11</title>
<path fill="none" stroke="#9a32cd" stroke-dasharray="5,2" d="M300.378,-55.8275C329.14,-58.7637 363.832,-63.93 394,-73 406.279,-76.6916 419.279,-82.9416 429.209,-88.2687"/>
<polygon fill="#9a32cd" stroke="#9a32cd" points="300.356,-52.3096 290.069,-54.8436 299.691,-59.2779 300.356,-52.3096"/>
<text text-anchor="middle" x="351" y="-76" font-family="Helvetica,sans-Serif" font-size="10.00"> funcs</text>
</g>
<!-- Node13 -->
<g id="node13" class="node"><title>Node13</title>
<g id="a_node13"><a xlink:href="a00099.html" target="_top" xlink:title="tds_bcpcoldata">
<polygon fill="white" stroke="black" points="195.5,-149.5 195.5,-168.5 283.5,-168.5 283.5,-149.5 195.5,-149.5"/>
<text text-anchor="middle" x="239.5" y="-156.5" font-family="Helvetica,sans-Serif" font-size="10.00">tds_bcpcoldata</text>
</a>
</g>
</g>
<!-- Node13&#45;&gt;Node11 -->
<g id="edge22" class="edge"><title>Node13&#45;&gt;Node11</title>
<path fill="none" stroke="#9a32cd" stroke-dasharray="5,2" d="M282.572,-146.512C321.452,-134.97 378.396,-118.067 413.778,-107.565"/>
<polygon fill="#9a32cd" stroke="#9a32cd" points="281.2,-143.268 272.609,-149.469 283.192,-149.978 281.2,-143.268"/>
<text text-anchor="middle" x="351" y="-140" font-family="Helvetica,sans-Serif" font-size="10.00"> bcp_column_data</text>
</g>
</g>
</svg>
