<?xml version="1.0" encoding="UTF-8" standalone="no"?>
<!DOCTYPE svg PUBLIC "-//W3C//DTD SVG 1.1//EN"
 "http://www.w3.org/Graphics/SVG/1.1/DTD/svg11.dtd">
<!-- Generated by graphviz version 2.38.0 (20140413.2041)
 -->
<!-- Title: tds_cursor Pages: 1 -->
<svg width="1032pt" height="411pt"
 viewBox="0.00 0.00 1032.00 410.85" xmlns="http://www.w3.org/2000/svg" xmlns:xlink="http://www.w3.org/1999/xlink">
<g id="graph0" class="graph" transform="scale(1 1) rotate(0) translate(4 406.853)">
<title>tds_cursor</title>
<polygon fill="white" stroke="none" points="-4,4 -4,-406.853 1028,-406.853 1028,4 -4,4"/>
<!-- Node1 -->
<g id="node1" class="node"><title>Node1</title>
<polygon fill="#bfbfbf" stroke="black" points="251.5,-345.353 251.5,-364.353 317.5,-364.353 317.5,-345.353 251.5,-345.353"/>
<text text-anchor="middle" x="284.5" y="-352.353" font-family="Helvetica,sans-Serif" font-size="10.00">tds_cursor</text>
</g>
<!-- Node1&#45;&gt;Node1 -->
<g id="edge23" class="edge"><title>Node1&#45;&gt;Node1</title>
<path fill="none" stroke="#9a32cd" stroke-dasharray="5,2" d="M264.131,-374.253C265.491,-379.167 272.281,-382.853 284.5,-382.853 304.051,-382.853 309.702,-373.418 301.454,-364.61"/>
<polygon fill="#9a32cd" stroke="#9a32cd" points="267.507,-375.205 267.546,-364.61 260.908,-372.868 267.507,-375.205"/>
<text text-anchor="middle" x="284.5" y="-385.853" font-family="Helvetica,sans-Serif" font-size="10.00"> next</text>
</g>
<!-- Node4 -->
<g id="node4" class="node"><title>Node4</title>
<g id="a_node4"><a xlink:href="a00148.html" target="_top" xlink:title="Information for a server connection. ">
<polygon fill="white" stroke="black" points="458,-241.353 458,-260.353 526,-260.353 526,-241.353 458,-241.353"/>
<text text-anchor="middle" x="492" y="-248.353" font-family="Helvetica,sans-Serif" font-size="10.00">tds_socket</text>
</a>
</g>
</g>
<!-- Node1&#45;&gt;Node4 -->
<g id="edge12" class="edge"><title>Node1&#45;&gt;Node4</title>
<path fill="none" stroke="#9a32cd" stroke-dasharray="5,2" d="M320.734,-341.586C325.544,-339.7 330.404,-337.755 335,-335.853 343.089,-332.505 344.746,-330.771 353,-327.853 390.304,-314.667 404.919,-324.95 439,-304.853 458.507,-293.35 475.52,-272.537 484.417,-260.384"/>
<polygon fill="#9a32cd" stroke="#9a32cd" points="319.098,-338.466 311.036,-345.34 321.626,-344.994 319.098,-338.466"/>
<text text-anchor="middle" x="396" y="-330.853" font-family="Helvetica,sans-Serif" font-size="10.00"> cur_cursor</text>
</g>
<!-- Node9 -->
<g id="node9" class="node"><title>Node9</title>
<g id="a_node9"><a xlink:href="a00108.html" target="_top" xlink:title="tds_connection">
<polygon fill="white" stroke="red" points="935,-154.353 935,-173.353 1024,-173.353 1024,-154.353 935,-154.353"/>
<text text-anchor="middle" x="979.5" y="-161.353" font-family="Helvetica,sans-Serif" font-size="10.00">tds_connection</text>
</a>
</g>
</g>
<!-- Node1&#45;&gt;Node9 -->
<g id="edge16" class="edge"><title>Node1&#45;&gt;Node9</title>
<path fill="none" stroke="#9a32cd" stroke-dasharray="5,2" d="M318.662,-367.827C329.464,-371.599 341.609,-375.368 353,-377.853 413.232,-390.99 429.352,-391.853 491,-391.853 491,-391.853 491,-391.853 836,-391.853 940.793,-391.853 971.378,-216.51 977.318,-173.359"/>
<polygon fill="#9a32cd" stroke="#9a32cd" points="319.773,-364.507 309.179,-364.399 317.393,-371.09 319.773,-364.507"/>
<text text-anchor="middle" x="676" y="-394.853" font-family="Helvetica,sans-Serif" font-size="10.00"> cursors</text>
</g>
<!-- Node2 -->
<g id="node2" class="node"><title>Node2</title>
<g id="a_node2"><a xlink:href="a00111.html" target="_top" xlink:title="tds_cursor_status">
<polygon fill="white" stroke="black" points="0,-345.353 0,-364.353 100,-364.353 100,-345.353 0,-345.353"/>
<text text-anchor="middle" x="50" y="-352.353" font-family="Helvetica,sans-Serif" font-size="10.00">tds_cursor_status</text>
</a>
</g>
</g>
<!-- Node2&#45;&gt;Node1 -->
<g id="edge1" class="edge"><title>Node2&#45;&gt;Node1</title>
<path fill="none" stroke="#9a32cd" stroke-dasharray="5,2" d="M110.212,-354.853C155.064,-354.853 214.976,-354.853 251.32,-354.853"/>
<polygon fill="#9a32cd" stroke="#9a32cd" points="110.023,-351.353 100.023,-354.853 110.023,-358.353 110.023,-351.353"/>
<text text-anchor="middle" x="167" y="-357.853" font-family="Helvetica,sans-Serif" font-size="10.00"> status</text>
</g>
<!-- Node3 -->
<g id="node3" class="node"><title>Node3</title>
<g id="a_node3"><a xlink:href="a00144.html" target="_top" xlink:title="Hold information for any results. ">
<polygon fill="white" stroke="black" points="633,-247.353 633,-266.353 719,-266.353 719,-247.353 633,-247.353"/>
<text text-anchor="middle" x="676" y="-254.353" font-family="Helvetica,sans-Serif" font-size="10.00">tds_result_info</text>
</a>
</g>
</g>
<!-- Node3&#45;&gt;Node1 -->
<g id="edge2" class="edge"><title>Node3&#45;&gt;Node1</title>
<path fill="none" stroke="#9a32cd" stroke-dasharray="5,2" d="M664.612,-274.95C654.278,-291.074 636.833,-313.782 615,-324.853 516.124,-374.992 379.055,-366.582 317.58,-359.406"/>
<polygon fill="#9a32cd" stroke="#9a32cd" points="667.635,-276.714 669.853,-266.354 661.659,-273.07 667.635,-276.714"/>
<text text-anchor="middle" x="492" y="-365.853" font-family="Helvetica,sans-Serif" font-size="10.00"> res_info</text>
</g>
<!-- Node3&#45;&gt;Node4 -->
<g id="edge11" class="edge"><title>Node3&#45;&gt;Node4</title>
<path fill="none" stroke="#9a32cd" stroke-dasharray="5,2" d="M622.666,-254.158C620.074,-254.049 617.508,-253.946 615,-253.853 584.935,-252.732 550.687,-251.931 526.146,-251.441"/>
<polygon fill="#9a32cd" stroke="#9a32cd" points="622.574,-257.657 632.72,-254.604 622.885,-250.664 622.574,-257.657"/>
<text text-anchor="middle" x="580" y="-289.853" font-family="Helvetica,sans-Serif" font-size="10.00"> param_info</text>
<text text-anchor="middle" x="580" y="-278.853" font-family="Helvetica,sans-Serif" font-size="10.00">current_results</text>
<text text-anchor="middle" x="580" y="-267.853" font-family="Helvetica,sans-Serif" font-size="10.00">res_info</text>
<text text-anchor="middle" x="580" y="-256.853" font-family="Helvetica,sans-Serif" font-size="10.00">comp_info</text>
</g>
<!-- Node8 -->
<g id="node8" class="node"><title>Node8</title>
<g id="a_node8"><a xlink:href="a00118.html" target="_top" xlink:title="Holds information for a dynamic (also called prepared) query. ">
<polygon fill="white" stroke="black" points="797,-180.353 797,-199.353 873,-199.353 873,-180.353 797,-180.353"/>
<text text-anchor="middle" x="835" y="-187.353" font-family="Helvetica,sans-Serif" font-size="10.00">tds_dynamic</text>
</a>
</g>
</g>
<!-- Node3&#45;&gt;Node8 -->
<g id="edge10" class="edge"><title>Node3&#45;&gt;Node8</title>
<path fill="none" stroke="#9a32cd" stroke-dasharray="5,2" d="M708.841,-243.265C739.356,-230.242 784.635,-210.919 811.547,-199.435"/>
<polygon fill="#9a32cd" stroke="#9a32cd" points="707.318,-240.109 699.494,-247.253 710.066,-246.547 707.318,-240.109"/>
<text text-anchor="middle" x="758" y="-242.853" font-family="Helvetica,sans-Serif" font-size="10.00"> res_info</text>
<text text-anchor="middle" x="758" y="-231.853" font-family="Helvetica,sans-Serif" font-size="10.00">params</text>
</g>
<!-- Node4&#45;&gt;Node3 -->
<g id="edge3" class="edge"><title>Node4&#45;&gt;Node3</title>
<path fill="none" stroke="#9a32cd" stroke-dasharray="5,2" d="M505.53,-268.996C514.866,-280.813 528.769,-295.222 545,-301.853 573.8,-313.619 585.485,-311.691 615,-301.853 635.752,-294.935 655.107,-277.717 665.961,-266.697"/>
<polygon fill="#9a32cd" stroke="#9a32cd" points="508.092,-266.576 499.318,-260.637 502.474,-270.751 508.092,-266.576"/>
<text text-anchor="middle" x="580" y="-312.853" font-family="Helvetica,sans-Serif" font-size="10.00"> attached_to</text>
</g>
<!-- Node5 -->
<g id="node5" class="node"><title>Node5</title>
<g id="a_node5"><a xlink:href="a00129.html" target="_top" xlink:title="tds_login">
<polygon fill="white" stroke="red" points="255,-307.353 255,-326.353 314,-326.353 314,-307.353 255,-307.353"/>
<text text-anchor="middle" x="284.5" y="-314.353" font-family="Helvetica,sans-Serif" font-size="10.00">tds_login</text>
</a>
</g>
</g>
<!-- Node5&#45;&gt;Node4 -->
<g id="edge4" class="edge"><title>Node5&#45;&gt;Node4</title>
<path fill="none" stroke="#9a32cd" stroke-dasharray="5,2" d="M321.963,-303.929C331.979,-300.516 342.872,-296.929 353,-293.853 390.858,-282.355 401.372,-283.083 439,-270.853 448.475,-267.773 458.743,-263.934 467.633,-260.445"/>
<polygon fill="#9a32cd" stroke="#9a32cd" points="320.614,-300.692 312.3,-307.26 322.895,-307.31 320.614,-300.692"/>
<text text-anchor="middle" x="396" y="-296.853" font-family="Helvetica,sans-Serif" font-size="10.00"> login</text>
</g>
<!-- Node6 -->
<g id="node6" class="node"><title>Node6</title>
<g id="a_node6"><a xlink:href="a00117.html" target="_top" xlink:title="Structure to hold a string. ">
<polygon fill="white" stroke="black" points="22.5,-165.353 22.5,-184.353 77.5,-184.353 77.5,-165.353 22.5,-165.353"/>
<text text-anchor="middle" x="50" y="-172.353" font-family="Helvetica,sans-Serif" font-size="10.00">tds_dstr</text>
</a>
</g>
</g>
<!-- Node6&#45;&gt;Node5 -->
<g id="edge5" class="edge"><title>Node6&#45;&gt;Node5</title>
<path fill="none" stroke="#9a32cd" stroke-dasharray="5,2" d="M87.7481,-174.301C125.272,-175.816 182.615,-184.224 216,-218.853 240.994,-244.778 210.413,-270.641 234,-297.853 239.426,-304.113 247.155,-308.32 254.897,-311.143"/>
<polygon fill="#9a32cd" stroke="#9a32cd" points="87.8141,-170.802 77.7265,-174.041 87.6322,-177.799 87.8141,-170.802"/>
<text text-anchor="middle" x="167" y="-342.853" font-family="Helvetica,sans-Serif" font-size="10.00"> server_realm_name</text>
<text text-anchor="middle" x="167" y="-331.853" font-family="Helvetica,sans-Serif" font-size="10.00">password</text>
<text text-anchor="middle" x="167" y="-320.853" font-family="Helvetica,sans-Serif" font-size="10.00">server_name</text>
<text text-anchor="middle" x="167" y="-309.853" font-family="Helvetica,sans-Serif" font-size="10.00">dump_file</text>
<text text-anchor="middle" x="167" y="-298.853" font-family="Helvetica,sans-Serif" font-size="10.00">library</text>
<text text-anchor="middle" x="167" y="-287.853" font-family="Helvetica,sans-Serif" font-size="10.00">crlfile</text>
<text text-anchor="middle" x="167" y="-276.853" font-family="Helvetica,sans-Serif" font-size="10.00">server_spn</text>
<text text-anchor="start" x="118" y="-265.853" font-family="Helvetica,sans-Serif" font-size="10.00">client_host</text>
<text text-anchor="middle" x="167" y="-254.853" font-family="Helvetica,sans-Serif" font-size="10.00">_name</text>
<text text-anchor="middle" x="167" y="-243.853" font-family="Helvetica,sans-Serif" font-size="10.00">client_charset</text>
<text text-anchor="middle" x="167" y="-232.853" font-family="Helvetica,sans-Serif" font-size="10.00">server_charset</text>
<text text-anchor="middle" x="167" y="-221.853" font-family="Helvetica,sans-Serif" font-size="10.00">...</text>
</g>
<!-- Node12 -->
<g id="node12" class="node"><title>Node12</title>
<g id="a_node12"><a xlink:href="a00104.html" target="_top" xlink:title="Metadata about columns in regular and compute rows. ">
<polygon fill="white" stroke="black" points="457,-95.3529 457,-114.353 527,-114.353 527,-95.3529 457,-95.3529"/>
<text text-anchor="middle" x="492" y="-102.353" font-family="Helvetica,sans-Serif" font-size="10.00">tds_column</text>
</a>
</g>
</g>
<!-- Node6&#45;&gt;Node12 -->
<g id="edge20" class="edge"><title>Node6&#45;&gt;Node12</title>
<path fill="none" stroke="#9a32cd" stroke-dasharray="5,2" d="M87.5272,-171.399C156.663,-164.483 311.175,-147.208 439,-119.853 446.075,-118.339 453.598,-116.379 460.66,-114.377"/>
<polygon fill="#9a32cd" stroke="#9a32cd" points="87.1777,-167.917 77.5701,-172.383 87.8656,-174.883 87.1777,-167.917"/>
<text text-anchor="middle" x="284.5" y="-179.853" font-family="Helvetica,sans-Serif" font-size="10.00"> column_name</text>
<text text-anchor="middle" x="284.5" y="-168.853" font-family="Helvetica,sans-Serif" font-size="10.00">table_name</text>
<text text-anchor="middle" x="284.5" y="-157.853" font-family="Helvetica,sans-Serif" font-size="10.00">table_column_name</text>
</g>
<!-- Node7 -->
<g id="node7" class="node"><title>Node7</title>
<g id="a_node7"><a xlink:href="a00138.html" target="_top" xlink:title="tds_packet">
<polygon fill="white" stroke="black" points="250.5,-240.353 250.5,-259.353 318.5,-259.353 318.5,-240.353 250.5,-240.353"/>
<text text-anchor="middle" x="284.5" y="-247.353" font-family="Helvetica,sans-Serif" font-size="10.00">tds_packet</text>
</a>
</g>
</g>
<!-- Node7&#45;&gt;Node4 -->
<g id="edge6" class="edge"><title>Node7&#45;&gt;Node4</title>
<path fill="none" stroke="#9a32cd" stroke-dasharray="5,2" d="M329.107,-248.972C359.832,-248.497 401.937,-248.14 439,-248.853 445.142,-248.971 451.69,-249.167 457.995,-249.392"/>
<polygon fill="#9a32cd" stroke="#9a32cd" points="328.681,-245.479 318.74,-249.143 328.797,-252.478 328.681,-245.479"/>
<text text-anchor="middle" x="396" y="-262.853" font-family="Helvetica,sans-Serif" font-size="10.00"> recv_packet</text>
<text text-anchor="middle" x="396" y="-251.853" font-family="Helvetica,sans-Serif" font-size="10.00">send_packet</text>
</g>
<!-- Node7&#45;&gt;Node7 -->
<g id="edge7" class="edge"><title>Node7&#45;&gt;Node7</title>
<path fill="none" stroke="#9a32cd" stroke-dasharray="5,2" d="M264.131,-269.253C265.491,-274.167 272.281,-277.853 284.5,-277.853 304.051,-277.853 309.702,-268.418 301.454,-259.61"/>
<polygon fill="#9a32cd" stroke="#9a32cd" points="267.507,-270.205 267.546,-259.61 260.908,-267.868 267.507,-270.205"/>
<text text-anchor="middle" x="284.5" y="-280.853" font-family="Helvetica,sans-Serif" font-size="10.00"> next</text>
</g>
<!-- Node8&#45;&gt;Node4 -->
<g id="edge8" class="edge"><title>Node8&#45;&gt;Node4</title>
<path fill="none" stroke="#9a32cd" stroke-dasharray="5,2" d="M786.549,-182.696C727.496,-175.871 624.714,-170.93 545,-203.853 525.879,-211.75 509.222,-229.885 500.189,-241.178"/>
<polygon fill="#9a32cd" stroke="#9a32cd" points="786.347,-186.197 796.698,-183.938 787.197,-179.249 786.347,-186.197"/>
<text text-anchor="middle" x="676" y="-184.853" font-family="Helvetica,sans-Serif" font-size="10.00"> cur_dyn</text>
</g>
<!-- Node8&#45;&gt;Node8 -->
<g id="edge9" class="edge"><title>Node8&#45;&gt;Node8</title>
<path fill="none" stroke="#9a32cd" stroke-dasharray="5,2" d="M822.477,-209.619C823.461,-214.349 827.635,-217.853 835,-217.853 847.086,-217.853 850.58,-208.418 845.481,-199.61"/>
<polygon fill="#9a32cd" stroke="#9a32cd" points="825.95,-210.108 824.519,-199.61 819.091,-208.709 825.95,-210.108"/>
<text text-anchor="middle" x="835" y="-220.853" font-family="Helvetica,sans-Serif" font-size="10.00"> next</text>
</g>
<!-- Node8&#45;&gt;Node9 -->
<g id="edge14" class="edge"><title>Node8&#45;&gt;Node9</title>
<path fill="none" stroke="#9a32cd" stroke-dasharray="5,2" d="M883.139,-181.252C899.789,-178.214 918.43,-174.813 934.784,-171.829"/>
<polygon fill="#9a32cd" stroke="#9a32cd" points="882.278,-177.851 873.068,-183.09 883.534,-184.738 882.278,-177.851"/>
<text text-anchor="middle" x="904" y="-182.853" font-family="Helvetica,sans-Serif" font-size="10.00"> dyns</text>
</g>
<!-- Node9&#45;&gt;Node4 -->
<g id="edge13" class="edge"><title>Node9&#45;&gt;Node4</title>
<path fill="none" stroke="#9a32cd" stroke-dasharray="5,2" d="M928.651,-152.274C843.77,-135.379 668.396,-112.955 545,-181.853 520.64,-195.454 504.228,-225.716 497.074,-241.248"/>
<polygon fill="#9a32cd" stroke="#9a32cd" points="928.045,-155.722 938.544,-154.3 929.45,-148.864 928.045,-155.722"/>
<text text-anchor="middle" x="758" y="-138.853" font-family="Helvetica,sans-Serif" font-size="10.00"> conn</text>
</g>
<!-- Node10 -->
<g id="node10" class="node"><title>Node10</title>
<g id="a_node10"><a xlink:href="a00161.html" target="_top" xlink:title="tdsiconvinfo">
<polygon fill="white" stroke="red" points="248,-95.3529 248,-114.353 321,-114.353 321,-95.3529 248,-95.3529"/>
<text text-anchor="middle" x="284.5" y="-102.353" font-family="Helvetica,sans-Serif" font-size="10.00">tdsiconvinfo</text>
</a>
</g>
</g>
<!-- Node10&#45;&gt;Node9 -->
<g id="edge15" class="edge"><title>Node10&#45;&gt;Node9</title>
<path fill="none" stroke="#9a32cd" stroke-dasharray="5,2" d="M329.84,-90.3874C331.688,-89.0091 333.423,-87.5016 335,-85.8529 352.484,-67.5686 334.175,-48.7528 353,-31.8529 399.706,10.0764 428.234,-1.85289 491,-1.85289 491,-1.85289 491,-1.85289 836,-1.85289 917.657,-1.85289 963.577,-119.329 975.41,-154.204"/>
<polygon fill="#9a32cd" stroke="#9a32cd" points="327.9,-87.4704 321.153,-95.6392 331.521,-93.4607 327.9,-87.4704"/>
<text text-anchor="middle" x="676" y="-4.85289" font-family="Helvetica,sans-Serif" font-size="10.00"> char_convs</text>
</g>
<!-- Node10&#45;&gt;Node12 -->
<g id="edge19" class="edge"><title>Node10&#45;&gt;Node12</title>
<path fill="none" stroke="#9a32cd" stroke-dasharray="5,2" d="M331.594,-104.853C369.623,-104.853 422.717,-104.853 456.979,-104.853"/>
<polygon fill="#9a32cd" stroke="#9a32cd" points="331.295,-101.353 321.295,-104.853 331.295,-108.353 331.295,-101.353"/>
<text text-anchor="middle" x="396" y="-107.853" font-family="Helvetica,sans-Serif" font-size="10.00"> char_conv</text>
</g>
<!-- Node11 -->
<g id="node11" class="node"><title>Node11</title>
<g id="a_node11"><a xlink:href="a00134.html" target="_top" xlink:title="tds_mutex">
<polygon fill="white" stroke="black" points="252,-202.353 252,-221.353 317,-221.353 317,-202.353 252,-202.353"/>
<text text-anchor="middle" x="284.5" y="-209.353" font-family="Helvetica,sans-Serif" font-size="10.00">tds_mutex</text>
</a>
</g>
</g>
<!-- Node11&#45;&gt;Node4 -->
<g id="edge17" class="edge"><title>Node11&#45;&gt;Node4</title>
<path fill="none" stroke="#9a32cd" stroke-dasharray="5,2" d="M327.345,-215.329C358.442,-218.453 401.747,-223.949 439,-232.853 448.199,-235.051 458.059,-238.241 466.695,-241.327"/>
<polygon fill="#9a32cd" stroke="#9a32cd" points="327.583,-211.835 317.293,-214.358 326.911,-218.803 327.583,-211.835"/>
<text text-anchor="middle" x="396" y="-235.853" font-family="Helvetica,sans-Serif" font-size="10.00"> wire_mtx</text>
</g>
<!-- Node12&#45;&gt;Node3 -->
<g id="edge18" class="edge"><title>Node12&#45;&gt;Node3</title>
<path fill="none" stroke="#9a32cd" stroke-dasharray="5,2" d="M512.144,-120.842C549.968,-152.43 633.238,-221.975 663.619,-247.348"/>
<polygon fill="#9a32cd" stroke="#9a32cd" points="514.304,-118.085 504.385,-114.361 509.817,-123.458 514.304,-118.085"/>
<text text-anchor="middle" x="580" y="-205.853" font-family="Helvetica,sans-Serif" font-size="10.00"> columns</text>
</g>
<!-- Node13 -->
<g id="node13" class="node"><title>Node13</title>
<g id="a_node13"><a xlink:href="a00105.html" target="_top" xlink:title="tds_column_funcs">
<polygon fill="white" stroke="black" points="234,-57.3529 234,-76.3529 335,-76.3529 335,-57.3529 234,-57.3529"/>
<text text-anchor="middle" x="284.5" y="-64.3529" font-family="Helvetica,sans-Serif" font-size="10.00">tds_column_funcs</text>
</a>
</g>
</g>
<!-- Node13&#45;&gt;Node12 -->
<g id="edge21" class="edge"><title>Node13&#45;&gt;Node12</title>
<path fill="none" stroke="#9a32cd" stroke-dasharray="5,2" d="M345.444,-73.9653C373.946,-77.8227 408.4,-83.1776 439,-89.8529 445.977,-91.3749 453.394,-93.3152 460.376,-95.2913"/>
<polygon fill="#9a32cd" stroke="#9a32cd" points="345.603,-70.4559 335.23,-72.6122 344.684,-77.3953 345.603,-70.4559"/>
<text text-anchor="middle" x="396" y="-92.8529" font-family="Helvetica,sans-Serif" font-size="10.00"> funcs</text>
</g>
<!-- Node14 -->
<g id="node14" class="node"><title>Node14</title>
<g id="a_node14"><a xlink:href="a00099.html" target="_top" xlink:title="tds_bcpcoldata">
<polygon fill="white" stroke="black" points="240.5,-19.3529 240.5,-38.3529 328.5,-38.3529 328.5,-19.3529 240.5,-19.3529"/>
<text text-anchor="middle" x="284.5" y="-26.3529" font-family="Helvetica,sans-Serif" font-size="10.00">tds_bcpcoldata</text>
</a>
</g>
</g>
<!-- Node14&#45;&gt;Node12 -->
<g id="edge22" class="edge"><title>Node14&#45;&gt;Node12</title>
<path fill="none" stroke="#9a32cd" stroke-dasharray="5,2" d="M338.743,-33.3916C369.292,-37.5714 407.677,-45.5715 439,-60.8529 456.431,-69.3568 472.869,-85.0227 482.433,-95.1843"/>
<polygon fill="#9a32cd" stroke="#9a32cd" points="339.066,-29.9047 328.705,-32.1156 338.184,-36.8488 339.066,-29.9047"/>
<text text-anchor="middle" x="396" y="-63.8529" font-family="Helvetica,sans-Serif" font-size="10.00"> bcp_column_data</text>
</g>
</g>
</svg>
