<?xml version="1.0" encoding="UTF-8" standalone="no"?>
<!DOCTYPE svg PUBLIC "-//W3C//DTD SVG 1.1//EN"
 "http://www.w3.org/Graphics/SVG/1.1/DTD/svg11.dtd">
<!-- Generated by graphviz version 2.38.0 (20140413.2041)
 -->
<!-- Title: pivot_t Pages: 1 -->
<svg width="926pt" height="475pt"
 viewBox="0.00 0.00 926.00 475.00" xmlns="http://www.w3.org/2000/svg" xmlns:xlink="http://www.w3.org/1999/xlink">
<g id="graph0" class="graph" transform="scale(1 1) rotate(0) translate(4 471)">
<title>pivot_t</title>
<polygon fill="white" stroke="none" points="-4,4 -4,-471 922,-471 922,4 -4,4"/>
<!-- Node1 -->
<g id="node1" class="node"><title>Node1</title>
<polygon fill="#bfbfbf" stroke="black" points="870,-413.5 870,-432.5 918,-432.5 918,-413.5 870,-413.5"/>
<text text-anchor="middle" x="894" y="-420.5" font-family="Helvetica,sans-Serif" font-size="10.00">pivot_t</text>
</g>
<!-- Node2 -->
<g id="node2" class="node"><title>Node2</title>
<g id="a_node2"><a xlink:href="a00073.html" target="_top" xlink:title="key_t">
<polygon fill="white" stroke="black" points="506,-445.5 506,-464.5 548,-464.5 548,-445.5 506,-445.5"/>
<text text-anchor="middle" x="527" y="-452.5" font-family="Helvetica,sans-Serif" font-size="10.00">key_t</text>
</a>
</g>
</g>
<!-- Node2&#45;&gt;Node1 -->
<g id="edge1" class="edge"><title>Node2&#45;&gt;Node1</title>
<path fill="none" stroke="#9a32cd" stroke-dasharray="5,2" d="M558.375,-455.449C574.337,-455.662 594.226,-455.894 612,-456 718.964,-456.637 747.703,-461.746 852,-438 857.912,-436.654 864.133,-434.684 869.893,-432.612"/>
<polygon fill="#9a32cd" stroke="#9a32cd" points="558.074,-451.944 548.027,-455.305 557.977,-458.944 558.074,-451.944"/>
<text text-anchor="middle" x="741.5" y="-459" font-family="Helvetica,sans-Serif" font-size="10.00"> across</text>
</g>
<!-- Node4 -->
<g id="node4" class="node"><title>Node4</title>
<g id="a_node4"><a xlink:href="a00045.html" target="_top" xlink:title="agg_t">
<polygon fill="white" stroke="black" points="719.5,-413.5 719.5,-432.5 763.5,-432.5 763.5,-413.5 719.5,-413.5"/>
<text text-anchor="middle" x="741.5" y="-420.5" font-family="Helvetica,sans-Serif" font-size="10.00">agg_t</text>
</a>
</g>
</g>
<!-- Node2&#45;&gt;Node4 -->
<g id="edge4" class="edge"><title>Node2&#45;&gt;Node4</title>
<path fill="none" stroke="#9a32cd" stroke-dasharray="5,2" d="M558.4,-450.422C602.042,-443.85 681.356,-431.906 719.244,-426.201"/>
<polygon fill="#9a32cd" stroke="#9a32cd" points="557.743,-446.982 548.375,-451.932 558.785,-453.904 557.743,-446.982"/>
<text text-anchor="middle" x="639.5" y="-444" font-family="Helvetica,sans-Serif" font-size="10.00"> col_key</text>
</g>
<!-- Node3 -->
<g id="node3" class="node"><title>Node3</title>
<g id="a_node3"><a xlink:href="a00050.html" target="_top" xlink:title="col_t">
<polygon fill="white" stroke="black" points="253,-439.5 253,-458.5 292,-458.5 292,-439.5 253,-439.5"/>
<text text-anchor="middle" x="272.5" y="-446.5" font-family="Helvetica,sans-Serif" font-size="10.00">col_t</text>
</a>
</g>
</g>
<!-- Node3&#45;&gt;Node2 -->
<g id="edge2" class="edge"><title>Node3&#45;&gt;Node2</title>
<path fill="none" stroke="#9a32cd" stroke-dasharray="5,2" d="M302.185,-449.682C353.751,-450.907 460.903,-453.453 505.663,-454.517"/>
<polygon fill="#9a32cd" stroke="#9a32cd" points="302.147,-446.18 292.067,-449.441 301.981,-453.178 302.147,-446.18"/>
<text text-anchor="middle" x="406.5" y="-455" font-family="Helvetica,sans-Serif" font-size="10.00"> keys</text>
</g>
<!-- Node3&#45;&gt;Node4 -->
<g id="edge5" class="edge"><title>Node3&#45;&gt;Node4</title>
<path fill="none" stroke="#9a32cd" stroke-dasharray="5,2" d="M302.165,-444.216C338.688,-438.374 403.823,-428.801 460,-425 556.69,-418.458 672.553,-420.878 719.355,-422.28"/>
<polygon fill="#9a32cd" stroke="#9a32cd" points="301.532,-440.773 292.221,-445.828 302.652,-447.683 301.532,-440.773"/>
<text text-anchor="middle" x="527" y="-428" font-family="Helvetica,sans-Serif" font-size="10.00"> value</text>
</g>
<!-- Node4&#45;&gt;Node1 -->
<g id="edge3" class="edge"><title>Node4&#45;&gt;Node1</title>
<path fill="none" stroke="#9a32cd" stroke-dasharray="5,2" d="M774.025,-423C802.66,-423 844.23,-423 869.89,-423"/>
<polygon fill="#9a32cd" stroke="#9a32cd" points="773.744,-419.5 763.744,-423 773.744,-426.5 773.744,-419.5"/>
<text text-anchor="middle" x="834" y="-426" font-family="Helvetica,sans-Serif" font-size="10.00"> output</text>
</g>
<!-- Node5 -->
<g id="node5" class="node"><title>Node5</title>
<g id="a_node5"><a xlink:href="a00115.html" target="_top" xlink:title="tds_dblib_dbprocess">
<polygon fill="white" stroke="black" points="685,-191.5 685,-210.5 798,-210.5 798,-191.5 685,-191.5"/>
<text text-anchor="middle" x="741.5" y="-198.5" font-family="Helvetica,sans-Serif" font-size="10.00">tds_dblib_dbprocess</text>
</a>
</g>
</g>
<!-- Node5&#45;&gt;Node1 -->
<g id="edge6" class="edge"><title>Node5&#45;&gt;Node1</title>
<path fill="none" stroke="#9a32cd" stroke-dasharray="5,2" d="M754.691,-218.982C785.104,-263.845 863.537,-379.539 886.557,-413.496"/>
<polygon fill="#9a32cd" stroke="#9a32cd" points="757.475,-216.852 748.967,-210.539 751.681,-220.78 757.475,-216.852"/>
<text text-anchor="middle" x="834" y="-360" font-family="Helvetica,sans-Serif" font-size="10.00"> dbproc</text>
</g>
<!-- Node6 -->
<g id="node6" class="node"><title>Node6</title>
<g id="a_node6"><a xlink:href="a00093.html" target="_top" xlink:title="tag_DBPROC_ROWBUF">
<polygon fill="white" stroke="black" points="460,-360.5 460,-379.5 594,-379.5 594,-360.5 460,-360.5"/>
<text text-anchor="middle" x="527" y="-367.5" font-family="Helvetica,sans-Serif" font-size="10.00">tag_DBPROC_ROWBUF</text>
</a>
</g>
</g>
<!-- Node6&#45;&gt;Node5 -->
<g id="edge7" class="edge"><title>Node6&#45;&gt;Node5</title>
<path fill="none" stroke="#9a32cd" stroke-dasharray="5,2" d="M604.113,-368.858C626.095,-365.374 648.986,-358.368 667,-345 713.884,-310.209 733.103,-236.891 738.662,-210.62"/>
<polygon fill="#9a32cd" stroke="#9a32cd" points="603.535,-365.404 594.098,-370.221 604.479,-372.34 603.535,-365.404"/>
<text text-anchor="middle" x="639.5" y="-369" font-family="Helvetica,sans-Serif" font-size="10.00"> row_buf</text>
</g>
<!-- Node7 -->
<g id="node7" class="node"><title>Node7</title>
<g id="a_node7"><a xlink:href="a00060.html" target="_top" xlink:title="dblib_buffer_row">
<polygon fill="white" stroke="black" points="226,-400.5 226,-419.5 319,-419.5 319,-400.5 226,-400.5"/>
<text text-anchor="middle" x="272.5" y="-407.5" font-family="Helvetica,sans-Serif" font-size="10.00">dblib_buffer_row</text>
</a>
</g>
</g>
<!-- Node7&#45;&gt;Node6 -->
<g id="edge8" class="edge"><title>Node7&#45;&gt;Node6</title>
<path fill="none" stroke="#9a32cd" stroke-dasharray="5,2" d="M329.245,-398.561C342.876,-395.923 357.441,-393.238 371,-391 400.071,-386.202 432.342,-381.699 459.879,-378.103"/>
<polygon fill="#9a32cd" stroke="#9a32cd" points="328.176,-395.204 319.036,-400.561 329.522,-402.073 328.176,-395.204"/>
<text text-anchor="middle" x="406.5" y="-394" font-family="Helvetica,sans-Serif" font-size="10.00"> rows</text>
</g>
<!-- Node8 -->
<g id="node8" class="node"><title>Node8</title>
<g id="a_node8"><a xlink:href="a00144.html" target="_top" xlink:title="Hold information for any results. ">
<polygon fill="white" stroke="red" points="0,-318.5 0,-337.5 86,-337.5 86,-318.5 0,-318.5"/>
<text text-anchor="middle" x="43" y="-325.5" font-family="Helvetica,sans-Serif" font-size="10.00">tds_result_info</text>
</a>
</g>
</g>
<!-- Node8&#45;&gt;Node7 -->
<g id="edge9" class="edge"><title>Node8&#45;&gt;Node7</title>
<path fill="none" stroke="#9a32cd" stroke-dasharray="5,2" d="M60.0835,-344.885C71.3635,-355.716 87.352,-369.169 104,-377 142.755,-395.23 191.126,-403.394 225.91,-407.047"/>
<polygon fill="#9a32cd" stroke="#9a32cd" points="62.3116,-342.164 52.7599,-337.579 57.368,-347.12 62.3116,-342.164"/>
<text text-anchor="middle" x="139" y="-401" font-family="Helvetica,sans-Serif" font-size="10.00"> resinfo</text>
</g>
<!-- Node9 -->
<g id="node9" class="node"><title>Node9</title>
<g id="a_node9"><a xlink:href="a00148.html" target="_top" xlink:title="Information for a server connection. ">
<polygon fill="white" stroke="red" points="238.5,-321.5 238.5,-340.5 306.5,-340.5 306.5,-321.5 238.5,-321.5"/>
<text text-anchor="middle" x="272.5" y="-328.5" font-family="Helvetica,sans-Serif" font-size="10.00">tds_socket</text>
</a>
</g>
</g>
<!-- Node8&#45;&gt;Node9 -->
<g id="edge11" class="edge"><title>Node8&#45;&gt;Node9</title>
<path fill="none" stroke="#9a32cd" stroke-dasharray="5,2" d="M96.4174,-328.691C140.129,-329.268 201.079,-330.071 238.33,-330.563"/>
<polygon fill="#9a32cd" stroke="#9a32cd" points="96.3032,-325.19 86.2578,-328.557 96.2108,-332.189 96.3032,-325.19"/>
<text text-anchor="middle" x="139" y="-365" font-family="Helvetica,sans-Serif" font-size="10.00"> param_info</text>
<text text-anchor="middle" x="139" y="-354" font-family="Helvetica,sans-Serif" font-size="10.00">current_results</text>
<text text-anchor="middle" x="139" y="-343" font-family="Helvetica,sans-Serif" font-size="10.00">res_info</text>
<text text-anchor="middle" x="139" y="-332" font-family="Helvetica,sans-Serif" font-size="10.00">comp_info</text>
</g>
<!-- Node14 -->
<g id="node14" class="node"><title>Node14</title>
<g id="a_node14"><a xlink:href="a00100.html" target="_top" xlink:title="tds_bcpinfo">
<polygon fill="white" stroke="black" points="371,-271.5 371,-290.5 442,-290.5 442,-271.5 371,-271.5"/>
<text text-anchor="middle" x="406.5" y="-278.5" font-family="Helvetica,sans-Serif" font-size="10.00">tds_bcpinfo</text>
</a>
</g>
</g>
<!-- Node8&#45;&gt;Node14 -->
<g id="edge20" class="edge"><title>Node8&#45;&gt;Node14</title>
<path fill="none" stroke="#9a32cd" stroke-dasharray="5,2" d="M65.4612,-312.541C76.4352,-305.519 90.3332,-297.92 104,-294 197.421,-267.205 313.76,-272.416 370.752,-277.318"/>
<polygon fill="#9a32cd" stroke="#9a32cd" points="63.3597,-309.736 57.0001,-318.209 67.256,-315.551 63.3597,-309.736"/>
<text text-anchor="middle" x="139" y="-297" font-family="Helvetica,sans-Serif" font-size="10.00"> bindinfo</text>
</g>
<!-- Node9&#45;&gt;Node5 -->
<g id="edge14" class="edge"><title>Node9&#45;&gt;Node5</title>
<path fill="none" stroke="#9a32cd" stroke-dasharray="5,2" d="M317.171,-329.861C379.624,-327.3 497.558,-318.985 594,-292 628.289,-282.406 636.577,-277.499 667,-259 691.167,-244.306 716.437,-222.792 730.146,-210.517"/>
<polygon fill="#9a32cd" stroke="#9a32cd" points="316.764,-326.374 306.904,-330.25 317.03,-333.369 316.764,-326.374"/>
<text text-anchor="middle" x="527" y="-320" font-family="Helvetica,sans-Serif" font-size="10.00"> tds_socket</text>
</g>
<!-- Node9&#45;&gt;Node8 -->
<g id="edge10" class="edge"><title>Node9&#45;&gt;Node8</title>
<path fill="none" stroke="#9a32cd" stroke-dasharray="5,2" d="M228.385,-320.337C194.526,-313.357 146.208,-306.469 104,-312 93.9521,-313.317 83.1935,-315.824 73.6009,-318.469"/>
<polygon fill="#9a32cd" stroke="#9a32cd" points="227.893,-323.811 238.406,-322.492 229.366,-316.968 227.893,-323.811"/>
<text text-anchor="middle" x="139" y="-315" font-family="Helvetica,sans-Serif" font-size="10.00"> attached_to</text>
</g>
<!-- Node10 -->
<g id="node10" class="node"><title>Node10</title>
<g id="a_node10"><a xlink:href="a00047.html" target="_top" xlink:title="BCP_HOSTFILEINFO">
<polygon fill="white" stroke="black" points="467.5,-228.5 467.5,-247.5 586.5,-247.5 586.5,-228.5 467.5,-228.5"/>
<text text-anchor="middle" x="527" y="-235.5" font-family="Helvetica,sans-Serif" font-size="10.00">BCP_HOSTFILEINFO</text>
</a>
</g>
</g>
<!-- Node10&#45;&gt;Node5 -->
<g id="edge12" class="edge"><title>Node10&#45;&gt;Node5</title>
<path fill="none" stroke="#9a32cd" stroke-dasharray="5,2" d="M592.585,-226.755C622.295,-221.582 657.17,-215.509 685.592,-210.56"/>
<polygon fill="#9a32cd" stroke="#9a32cd" points="591.975,-223.308 582.724,-228.472 593.176,-230.204 591.975,-223.308"/>
<text text-anchor="middle" x="639.5" y="-225" font-family="Helvetica,sans-Serif" font-size="10.00"> hostfileinfo</text>
</g>
<!-- Node11 -->
<g id="node11" class="node"><title>Node11</title>
<g id="a_node11"><a xlink:href="a00046.html" target="_top" xlink:title="BCP_HOSTCOLINFO">
<polygon fill="white" stroke="black" points="213,-228.5 213,-247.5 332,-247.5 332,-228.5 213,-228.5"/>
<text text-anchor="middle" x="272.5" y="-235.5" font-family="Helvetica,sans-Serif" font-size="10.00">BCP_HOSTCOLINFO</text>
</a>
</g>
</g>
<!-- Node11&#45;&gt;Node10 -->
<g id="edge13" class="edge"><title>Node11&#45;&gt;Node10</title>
<path fill="none" stroke="#9a32cd" stroke-dasharray="5,2" d="M342.07,-238C381.263,-238 429.902,-238 467.318,-238"/>
<polygon fill="#9a32cd" stroke="#9a32cd" points="342.063,-234.5 332.063,-238 342.063,-241.5 342.063,-234.5"/>
<text text-anchor="middle" x="406.5" y="-241" font-family="Helvetica,sans-Serif" font-size="10.00"> host_columns</text>
</g>
<!-- Node12 -->
<g id="node12" class="node"><title>Node12</title>
<g id="a_node12"><a xlink:href="a00028.html" target="_top" xlink:title="_DBREMOTE_PROC">
<polygon fill="white" stroke="black" points="468,-161.5 468,-180.5 586,-180.5 586,-161.5 468,-161.5"/>
<text text-anchor="middle" x="527" y="-168.5" font-family="Helvetica,sans-Serif" font-size="10.00">_DBREMOTE_PROC</text>
</a>
</g>
</g>
<!-- Node12&#45;&gt;Node5 -->
<g id="edge15" class="edge"><title>Node12&#45;&gt;Node5</title>
<path fill="none" stroke="#9a32cd" stroke-dasharray="5,2" d="M596.364,-179.396C618.882,-182.284 644.033,-185.639 667,-189 672.757,-189.842 678.761,-190.76 684.747,-191.699"/>
<polygon fill="#9a32cd" stroke="#9a32cd" points="596.583,-175.896 586.221,-178.104 595.698,-182.84 596.583,-175.896"/>
<text text-anchor="middle" x="639.5" y="-192" font-family="Helvetica,sans-Serif" font-size="10.00"> rpc</text>
</g>
<!-- Node12&#45;&gt;Node12 -->
<g id="edge18" class="edge"><title>Node12&#45;&gt;Node12</title>
<path fill="none" stroke="#9a32cd" stroke-dasharray="5,2" d="M506.26,-190.4C507.645,-195.315 514.559,-199 527,-199 546.906,-199 552.66,-189.565 544.262,-180.757"/>
<polygon fill="#9a32cd" stroke="#9a32cd" points="509.638,-191.351 509.738,-180.757 503.053,-188.977 509.638,-191.351"/>
<text text-anchor="middle" x="527" y="-202" font-family="Helvetica,sans-Serif" font-size="10.00"> next</text>
</g>
<!-- Node13 -->
<g id="node13" class="node"><title>Node13</title>
<g id="a_node13"><a xlink:href="a00029.html" target="_top" xlink:title="_DBREMOTE_PROC_PARAM">
<polygon fill="white" stroke="black" points="192,-161.5 192,-180.5 353,-180.5 353,-161.5 192,-161.5"/>
<text text-anchor="middle" x="272.5" y="-168.5" font-family="Helvetica,sans-Serif" font-size="10.00">_DBREMOTE_PROC_PARAM</text>
</a>
</g>
</g>
<!-- Node13&#45;&gt;Node12 -->
<g id="edge16" class="edge"><title>Node13&#45;&gt;Node12</title>
<path fill="none" stroke="#9a32cd" stroke-dasharray="5,2" d="M363.2,-171C397.925,-171 436.688,-171 467.676,-171"/>
<polygon fill="#9a32cd" stroke="#9a32cd" points="363.046,-167.5 353.046,-171 363.046,-174.5 363.046,-167.5"/>
<text text-anchor="middle" x="406.5" y="-174" font-family="Helvetica,sans-Serif" font-size="10.00"> param_list</text>
</g>
<!-- Node13&#45;&gt;Node13 -->
<g id="edge17" class="edge"><title>Node13&#45;&gt;Node13</title>
<path fill="none" stroke="#9a32cd" stroke-dasharray="5,2" d="M247.947,-190.029C249.286,-195.128 257.47,-199 272.5,-199 295.961,-199 302.743,-189.565 292.845,-180.757"/>
<polygon fill="#9a32cd" stroke="#9a32cd" points="251.209,-191.31 252.155,-180.757 244.835,-188.416 251.209,-191.31"/>
<text text-anchor="middle" x="272.5" y="-202" font-family="Helvetica,sans-Serif" font-size="10.00"> next</text>
</g>
<!-- Node14&#45;&gt;Node5 -->
<g id="edge19" class="edge"><title>Node14&#45;&gt;Node5</title>
<path fill="none" stroke="#9a32cd" stroke-dasharray="5,2" d="M452.248,-278.653C505.077,-274.705 594.871,-264.267 667,-237 686.936,-229.463 708.744,-218.399 723.385,-210.529"/>
<polygon fill="#9a32cd" stroke="#9a32cd" points="451.921,-275.167 442.191,-279.359 452.411,-282.15 451.921,-275.167"/>
<text text-anchor="middle" x="527" y="-280" font-family="Helvetica,sans-Serif" font-size="10.00"> bcpinfo</text>
</g>
<!-- Node15 -->
<g id="node15" class="node"><title>Node15</title>
<g id="a_node15"><a xlink:href="a00066.html" target="_top" xlink:title="dbstring">
<polygon fill="white" stroke="black" points="245.5,-90.5 245.5,-109.5 299.5,-109.5 299.5,-90.5 245.5,-90.5"/>
<text text-anchor="middle" x="272.5" y="-97.5" font-family="Helvetica,sans-Serif" font-size="10.00">dbstring</text>
</a>
</g>
</g>
<!-- Node15&#45;&gt;Node5 -->
<g id="edge21" class="edge"><title>Node15&#45;&gt;Node5</title>
<path fill="none" stroke="#9a32cd" stroke-dasharray="5,2" d="M309.921,-104.116C388.077,-113.027 566.998,-133.875 594,-141 641.569,-153.551 694.241,-177.885 721.622,-191.387"/>
<polygon fill="#9a32cd" stroke="#9a32cd" points="309.919,-100.593 299.587,-102.94 309.128,-107.548 309.919,-100.593"/>
<text text-anchor="middle" x="527" y="-144" font-family="Helvetica,sans-Serif" font-size="10.00"> dboptcmd</text>
</g>
<!-- Node15&#45;&gt;Node15 -->
<g id="edge22" class="edge"><title>Node15&#45;&gt;Node15</title>
<path fill="none" stroke="#9a32cd" stroke-dasharray="5,2" d="M247.947,-119.029C249.286,-124.128 257.47,-128 272.5,-128 295.961,-128 302.743,-118.565 292.845,-109.757"/>
<polygon fill="#9a32cd" stroke="#9a32cd" points="251.209,-120.31 252.155,-109.757 244.835,-117.416 251.209,-120.31"/>
<text text-anchor="middle" x="272.5" y="-131" font-family="Helvetica,sans-Serif" font-size="10.00"> strnext</text>
</g>
<!-- Node16 -->
<g id="node16" class="node"><title>Node16</title>
<g id="a_node16"><a xlink:href="a00065.html" target="_top" xlink:title="dboption">
<polygon fill="white" stroke="black" points="498.5,-76.5 498.5,-95.5 555.5,-95.5 555.5,-76.5 498.5,-76.5"/>
<text text-anchor="middle" x="527" y="-83.5" font-family="Helvetica,sans-Serif" font-size="10.00">dboption</text>
</a>
</g>
</g>
<!-- Node15&#45;&gt;Node16 -->
<g id="edge24" class="edge"><title>Node15&#45;&gt;Node16</title>
<path fill="none" stroke="#9a32cd" stroke-dasharray="5,2" d="M309.788,-97.988C360.706,-95.1648 452.252,-90.089 498.157,-87.5437"/>
<polygon fill="#9a32cd" stroke="#9a32cd" points="309.362,-94.5062 299.571,-98.5545 309.749,-101.495 309.362,-94.5062"/>
<text text-anchor="middle" x="406.5" y="-98" font-family="Helvetica,sans-Serif" font-size="10.00"> param</text>
</g>
<!-- Node16&#45;&gt;Node5 -->
<g id="edge23" class="edge"><title>Node16&#45;&gt;Node5</title>
<path fill="none" stroke="#9a32cd" stroke-dasharray="5,2" d="M565.855,-84.3462C595.312,-84.7237 636.217,-89.0231 667,-107 702.062,-127.476 726.52,-171.699 736.058,-191.304"/>
<polygon fill="#9a32cd" stroke="#9a32cd" points="565.554,-80.8467 555.561,-84.3666 565.568,-87.8467 565.554,-80.8467"/>
<text text-anchor="middle" x="639.5" y="-110" font-family="Helvetica,sans-Serif" font-size="10.00"> dbopts</text>
</g>
<!-- Node17 -->
<g id="node17" class="node"><title>Node17</title>
<g id="a_node17"><a xlink:href="a00040.html" target="_top" xlink:title="_null_representation">
<polygon fill="white" stroke="black" points="470.5,-38.5 470.5,-57.5 583.5,-57.5 583.5,-38.5 470.5,-38.5"/>
<text text-anchor="middle" x="527" y="-45.5" font-family="Helvetica,sans-Serif" font-size="10.00">_null_representation</text>
</a>
</g>
</g>
<!-- Node17&#45;&gt;Node5 -->
<g id="edge25" class="edge"><title>Node17&#45;&gt;Node5</title>
<path fill="none" stroke="#9a32cd" stroke-dasharray="5,2" d="M593.732,-48.8892C618.545,-52.0047 645.859,-59.0495 667,-74 709.639,-104.154 731.121,-167.453 737.988,-191.477"/>
<polygon fill="#9a32cd" stroke="#9a32cd" points="593.956,-45.3933 583.642,-47.8148 593.215,-52.354 593.956,-45.3933"/>
<text text-anchor="middle" x="639.5" y="-77" font-family="Helvetica,sans-Serif" font-size="10.00"> nullreps</text>
</g>
<!-- Node18 -->
<g id="node18" class="node"><title>Node18</title>
<g id="a_node18"><a xlink:href="a00067.html" target="_top" xlink:title="dbtypeinfo">
<polygon fill="white" stroke="black" points="494.5,-0.5 494.5,-19.5 559.5,-19.5 559.5,-0.5 494.5,-0.5"/>
<text text-anchor="middle" x="527" y="-7.5" font-family="Helvetica,sans-Serif" font-size="10.00">dbtypeinfo</text>
</a>
</g>
</g>
<!-- Node18&#45;&gt;Node5 -->
<g id="edge26" class="edge"><title>Node18&#45;&gt;Node5</title>
<path fill="none" stroke="#9a32cd" stroke-dasharray="5,2" d="M569.736,-8.74415C599.759,-9.95944 639.621,-16.1761 667,-38 718.219,-78.8272 734.938,-163.085 739.233,-191.446"/>
<polygon fill="#9a32cd" stroke="#9a32cd" points="569.642,-5.24109 559.563,-8.50548 569.478,-12.2392 569.642,-5.24109"/>
<text text-anchor="middle" x="639.5" y="-41" font-family="Helvetica,sans-Serif" font-size="10.00"> typeinfo</text>
</g>
</g>
</svg>
