<?xml version="1.0" encoding="UTF-8" standalone="no"?>
<!DOCTYPE svg PUBLIC "-//W3C//DTD SVG 1.1//EN"
 "http://www.w3.org/Graphics/SVG/1.1/DTD/svg11.dtd">
<!-- Generated by graphviz version 2.38.0 (20140413.2041)
 -->
<!-- Title: tds_socket Pages: 1 -->
<svg width="1246pt" height="407pt"
 viewBox="0.00 0.00 1246.00 407.00" xmlns="http://www.w3.org/2000/svg" xmlns:xlink="http://www.w3.org/1999/xlink">
<g id="graph0" class="graph" transform="scale(1 1) rotate(0) translate(4 403)">
<title>tds_socket</title>
<polygon fill="white" stroke="none" points="-4,4 -4,-403 1242,-403 1242,4 -4,4"/>
<!-- Node1 -->
<g id="node1" class="node"><title>Node1</title>
<polygon fill="#bfbfbf" stroke="black" points="587,-272.5 587,-291.5 655,-291.5 655,-272.5 587,-272.5"/>
<text text-anchor="middle" x="621" y="-279.5" font-family="Helvetica,sans-Serif" font-size="10.00">tds_socket</text>
</g>
<!-- Node8 -->
<g id="node8" class="node"><title>Node8</title>
<g id="a_node8"><a xlink:href="a00144.html" target="_top" xlink:title="Hold information for any results. ">
<polygon fill="white" stroke="black" points="769,-198.5 769,-217.5 855,-217.5 855,-198.5 769,-198.5"/>
<text text-anchor="middle" x="812" y="-205.5" font-family="Helvetica,sans-Serif" font-size="10.00">tds_result_info</text>
</a>
</g>
</g>
<!-- Node1&#45;&gt;Node8 -->
<g id="edge10" class="edge"><title>Node1&#45;&gt;Node8</title>
<path fill="none" stroke="#9a32cd" stroke-dasharray="5,2" d="M665.158,-270.829C694.209,-263.079 729.723,-253.091 744,-247 763.188,-238.813 783.702,-226.243 796.903,-217.599"/>
<polygon fill="#9a32cd" stroke="#9a32cd" points="663.968,-267.523 655.197,-273.467 665.76,-274.29 663.968,-267.523"/>
<text text-anchor="middle" x="709" y="-270" font-family="Helvetica,sans-Serif" font-size="10.00"> attached_to</text>
</g>
<!-- Node2 -->
<g id="node2" class="node"><title>Node2</title>
<g id="a_node2"><a xlink:href="a00129.html" target="_top" xlink:title="tds_login">
<polygon fill="white" stroke="black" points="412.5,-287.5 412.5,-306.5 471.5,-306.5 471.5,-287.5 412.5,-287.5"/>
<text text-anchor="middle" x="442" y="-294.5" font-family="Helvetica,sans-Serif" font-size="10.00">tds_login</text>
</a>
</g>
</g>
<!-- Node2&#45;&gt;Node1 -->
<g id="edge1" class="edge"><title>Node2&#45;&gt;Node1</title>
<path fill="none" stroke="#9a32cd" stroke-dasharray="5,2" d="M481.99,-293.696C513.448,-291.03 557.21,-287.321 586.962,-284.8"/>
<polygon fill="#9a32cd" stroke="#9a32cd" points="481.501,-290.225 471.832,-294.557 482.092,-297.2 481.501,-290.225"/>
<text text-anchor="middle" x="537.5" y="-294" font-family="Helvetica,sans-Serif" font-size="10.00"> login</text>
</g>
<!-- Node3 -->
<g id="node3" class="node"><title>Node3</title>
<g id="a_node3"><a xlink:href="a00102.html" target="_top" xlink:title="tds_capabilities">
<polygon fill="white" stroke="black" points="172,-364.5 172,-383.5 261,-383.5 261,-364.5 172,-364.5"/>
<text text-anchor="middle" x="216.5" y="-371.5" font-family="Helvetica,sans-Serif" font-size="10.00">tds_capabilities</text>
</a>
</g>
</g>
<!-- Node3&#45;&gt;Node2 -->
<g id="edge2" class="edge"><title>Node3&#45;&gt;Node2</title>
<path fill="none" stroke="#9a32cd" stroke-dasharray="5,2" d="M271.076,-363.704C313.769,-355.202 367.862,-343.647 377,-338 387.747,-331.359 384.855,-323.528 395,-316 400.135,-312.19 406.145,-308.995 412.095,-306.378"/>
<polygon fill="#9a32cd" stroke="#9a32cd" points="270.188,-360.312 261.057,-365.685 271.546,-367.179 270.188,-360.312"/>
<text text-anchor="middle" x="328" y="-364" font-family="Helvetica,sans-Serif" font-size="10.00"> capabilities</text>
</g>
<!-- Node13 -->
<g id="node13" class="node"><title>Node13</title>
<g id="a_node13"><a xlink:href="a00108.html" target="_top" xlink:title="tds_connection">
<polygon fill="white" stroke="black" points="1149,-133.5 1149,-152.5 1238,-152.5 1238,-133.5 1149,-133.5"/>
<text text-anchor="middle" x="1193.5" y="-140.5" font-family="Helvetica,sans-Serif" font-size="10.00">tds_connection</text>
</a>
</g>
</g>
<!-- Node3&#45;&gt;Node13 -->
<g id="edge20" class="edge"><title>Node3&#45;&gt;Node13</title>
<path fill="none" stroke="#9a32cd" stroke-dasharray="5,2" d="M271.304,-379.264C316.538,-383.234 382.93,-388 441,-388 441,-388 441,-388 992.5,-388 1116.32,-388 1177.19,-197.901 1189.93,-152.604"/>
<polygon fill="#9a32cd" stroke="#9a32cd" points="271.404,-375.759 261.132,-378.353 270.78,-382.731 271.404,-375.759"/>
<text text-anchor="middle" x="709" y="-391" font-family="Helvetica,sans-Serif" font-size="10.00"> capabilities</text>
</g>
<!-- Node4 -->
<g id="node4" class="node"><title>Node4</title>
<g id="a_node4"><a xlink:href="a00103.html" target="_top" xlink:title="tds_capability_type">
<polygon fill="white" stroke="black" points="0,-364.5 0,-383.5 107,-383.5 107,-364.5 0,-364.5"/>
<text text-anchor="middle" x="53.5" y="-371.5" font-family="Helvetica,sans-Serif" font-size="10.00">tds_capability_type</text>
</a>
</g>
</g>
<!-- Node4&#45;&gt;Node3 -->
<g id="edge3" class="edge"><title>Node4&#45;&gt;Node3</title>
<path fill="none" stroke="#9a32cd" stroke-dasharray="5,2" d="M117.456,-374C135.639,-374 155.078,-374 171.812,-374"/>
<polygon fill="#9a32cd" stroke="#9a32cd" points="117.217,-370.5 107.217,-374 117.217,-377.5 117.217,-370.5"/>
<text text-anchor="middle" x="139.5" y="-377" font-family="Helvetica,sans-Serif" font-size="10.00"> types</text>
</g>
<!-- Node5 -->
<g id="node5" class="node"><title>Node5</title>
<g id="a_node5"><a xlink:href="a00117.html" target="_top" xlink:title="Structure to hold a string. ">
<polygon fill="white" stroke="black" points="189,-176.5 189,-195.5 244,-195.5 244,-176.5 189,-176.5"/>
<text text-anchor="middle" x="216.5" y="-183.5" font-family="Helvetica,sans-Serif" font-size="10.00">tds_dstr</text>
</a>
</g>
</g>
<!-- Node5&#45;&gt;Node2 -->
<g id="edge4" class="edge"><title>Node5&#45;&gt;Node2</title>
<path fill="none" stroke="#9a32cd" stroke-dasharray="5,2" d="M254.255,-184.919C295.61,-184.503 359.327,-186.527 377,-202 403.117,-224.865 372.483,-251.581 395,-278 399.484,-283.261 405.657,-287.089 412.027,-289.867"/>
<polygon fill="#9a32cd" stroke="#9a32cd" points="253.955,-181.423 244.009,-185.076 254.062,-188.422 253.955,-181.423"/>
<text text-anchor="middle" x="328" y="-326" font-family="Helvetica,sans-Serif" font-size="10.00"> server_realm_name</text>
<text text-anchor="middle" x="328" y="-315" font-family="Helvetica,sans-Serif" font-size="10.00">password</text>
<text text-anchor="middle" x="328" y="-304" font-family="Helvetica,sans-Serif" font-size="10.00">server_name</text>
<text text-anchor="middle" x="328" y="-293" font-family="Helvetica,sans-Serif" font-size="10.00">dump_file</text>
<text text-anchor="middle" x="328" y="-282" font-family="Helvetica,sans-Serif" font-size="10.00">library</text>
<text text-anchor="middle" x="328" y="-271" font-family="Helvetica,sans-Serif" font-size="10.00">crlfile</text>
<text text-anchor="middle" x="328" y="-260" font-family="Helvetica,sans-Serif" font-size="10.00">server_spn</text>
<text text-anchor="start" x="279" y="-249" font-family="Helvetica,sans-Serif" font-size="10.00">client_host</text>
<text text-anchor="middle" x="328" y="-238" font-family="Helvetica,sans-Serif" font-size="10.00">_name</text>
<text text-anchor="middle" x="328" y="-227" font-family="Helvetica,sans-Serif" font-size="10.00">client_charset</text>
<text text-anchor="middle" x="328" y="-216" font-family="Helvetica,sans-Serif" font-size="10.00">server_charset</text>
<text text-anchor="middle" x="328" y="-205" font-family="Helvetica,sans-Serif" font-size="10.00">...</text>
</g>
<!-- Node9 -->
<g id="node9" class="node"><title>Node9</title>
<g id="a_node9"><a xlink:href="a00104.html" target="_top" xlink:title="Metadata about columns in regular and compute rows. ">
<polygon fill="white" stroke="red" points="586,-138.5 586,-157.5 656,-157.5 656,-138.5 586,-138.5"/>
<text text-anchor="middle" x="621" y="-145.5" font-family="Helvetica,sans-Serif" font-size="10.00">tds_column</text>
</a>
</g>
</g>
<!-- Node5&#45;&gt;Node9 -->
<g id="edge13" class="edge"><title>Node5&#45;&gt;Node9</title>
<path fill="none" stroke="#9a32cd" stroke-dasharray="5,2" d="M254.333,-182.928C318.222,-177.534 453.714,-165.809 568,-154 573.785,-153.402 579.928,-152.728 585.888,-152.054"/>
<polygon fill="#9a32cd" stroke="#9a32cd" points="254.015,-179.442 244.344,-183.769 254.603,-186.418 254.015,-179.442"/>
<text text-anchor="middle" x="442" y="-196" font-family="Helvetica,sans-Serif" font-size="10.00"> column_name</text>
<text text-anchor="middle" x="442" y="-185" font-family="Helvetica,sans-Serif" font-size="10.00">table_name</text>
<text text-anchor="middle" x="442" y="-174" font-family="Helvetica,sans-Serif" font-size="10.00">table_column_name</text>
</g>
<!-- Node6 -->
<g id="node6" class="node"><title>Node6</title>
<g id="a_node6"><a xlink:href="a00138.html" target="_top" xlink:title="tds_packet">
<polygon fill="white" stroke="black" points="408,-220.5 408,-239.5 476,-239.5 476,-220.5 408,-220.5"/>
<text text-anchor="middle" x="442" y="-227.5" font-family="Helvetica,sans-Serif" font-size="10.00">tds_packet</text>
</a>
</g>
</g>
<!-- Node6&#45;&gt;Node1 -->
<g id="edge5" class="edge"><title>Node6&#45;&gt;Node1</title>
<path fill="none" stroke="#9a32cd" stroke-dasharray="5,2" d="M486.048,-238.497C510.377,-243.754 541.196,-251.18 568,-260 578.615,-263.493 590.088,-268.238 599.549,-272.427"/>
<polygon fill="#9a32cd" stroke="#9a32cd" points="486.557,-235.027 476.049,-236.379 485.106,-241.876 486.557,-235.027"/>
<text text-anchor="middle" x="537.5" y="-274" font-family="Helvetica,sans-Serif" font-size="10.00"> recv_packet</text>
<text text-anchor="middle" x="537.5" y="-263" font-family="Helvetica,sans-Serif" font-size="10.00">send_packet</text>
</g>
<!-- Node6&#45;&gt;Node6 -->
<g id="edge6" class="edge"><title>Node6&#45;&gt;Node6</title>
<path fill="none" stroke="#9a32cd" stroke-dasharray="5,2" d="M424.593,-249.4C425.756,-254.315 431.558,-258 442,-258 458.707,-258 463.536,-248.565 456.488,-239.757"/>
<polygon fill="#9a32cd" stroke="#9a32cd" points="427.965,-250.342 427.512,-239.757 421.265,-248.314 427.965,-250.342"/>
<text text-anchor="middle" x="442" y="-261" font-family="Helvetica,sans-Serif" font-size="10.00"> next</text>
</g>
<!-- Node7 -->
<g id="node7" class="node"><title>Node7</title>
<g id="a_node7"><a xlink:href="a00118.html" target="_top" xlink:title="Holds information for a dynamic (also called prepared) query. ">
<polygon fill="white" stroke="black" points="953.5,-159.5 953.5,-178.5 1029.5,-178.5 1029.5,-159.5 953.5,-159.5"/>
<text text-anchor="middle" x="991.5" y="-166.5" font-family="Helvetica,sans-Serif" font-size="10.00">tds_dynamic</text>
</a>
</g>
</g>
<!-- Node7&#45;&gt;Node1 -->
<g id="edge7" class="edge"><title>Node7&#45;&gt;Node1</title>
<path fill="none" stroke="#9a32cd" stroke-dasharray="5,2" d="M942.97,-165.559C865.69,-160.891 717.083,-156.048 674,-184 642.007,-204.756 628.397,-252.029 623.871,-272.385"/>
<polygon fill="#9a32cd" stroke="#9a32cd" points="943.183,-169.08 953.383,-166.214 943.622,-162.093 943.183,-169.08"/>
<text text-anchor="middle" x="812" y="-168" font-family="Helvetica,sans-Serif" font-size="10.00"> cur_dyn</text>
</g>
<!-- Node7&#45;&gt;Node7 -->
<g id="edge8" class="edge"><title>Node7&#45;&gt;Node7</title>
<path fill="none" stroke="#9a32cd" stroke-dasharray="5,2" d="M974.834,-188.4C975.947,-193.315 981.502,-197 991.5,-197 1007.5,-197 1012.12,-187.565 1005.37,-178.757"/>
<polygon fill="#9a32cd" stroke="#9a32cd" points="978.207,-189.336 977.628,-178.757 971.483,-187.388 978.207,-189.336"/>
<text text-anchor="middle" x="991.5" y="-200" font-family="Helvetica,sans-Serif" font-size="10.00"> next</text>
</g>
<!-- Node7&#45;&gt;Node13 -->
<g id="edge25" class="edge"><title>Node7&#45;&gt;Node13</title>
<path fill="none" stroke="#9a32cd" stroke-dasharray="5,2" d="M1039.98,-162.828C1073.03,-158.531 1116.77,-152.845 1148.93,-148.664"/>
<polygon fill="#9a32cd" stroke="#9a32cd" points="1039.12,-159.411 1029.65,-164.171 1040.02,-166.352 1039.12,-159.411"/>
<text text-anchor="middle" x="1096" y="-163" font-family="Helvetica,sans-Serif" font-size="10.00"> dyns</text>
</g>
<!-- Node8&#45;&gt;Node1 -->
<g id="edge14" class="edge"><title>Node8&#45;&gt;Node1</title>
<path fill="none" stroke="#9a32cd" stroke-dasharray="5,2" d="M775.456,-195.573C746.352,-187.666 705.06,-181.807 674,-199 645.287,-214.894 630.313,-253.998 624.681,-272.282"/>
<polygon fill="#9a32cd" stroke="#9a32cd" points="774.625,-198.977 785.205,-198.421 776.588,-192.258 774.625,-198.977"/>
<text text-anchor="middle" x="709" y="-235" font-family="Helvetica,sans-Serif" font-size="10.00"> param_info</text>
<text text-anchor="middle" x="709" y="-224" font-family="Helvetica,sans-Serif" font-size="10.00">current_results</text>
<text text-anchor="middle" x="709" y="-213" font-family="Helvetica,sans-Serif" font-size="10.00">res_info</text>
<text text-anchor="middle" x="709" y="-202" font-family="Helvetica,sans-Serif" font-size="10.00">comp_info</text>
</g>
<!-- Node8&#45;&gt;Node7 -->
<g id="edge9" class="edge"><title>Node8&#45;&gt;Node7</title>
<path fill="none" stroke="#9a32cd" stroke-dasharray="5,2" d="M865.18,-196.535C893.444,-190.325 927.707,-182.797 953.258,-177.183"/>
<polygon fill="#9a32cd" stroke="#9a32cd" points="864.081,-193.193 855.065,-198.758 865.583,-200.03 864.081,-193.193"/>
<text text-anchor="middle" x="901" y="-207" font-family="Helvetica,sans-Serif" font-size="10.00"> res_info</text>
<text text-anchor="middle" x="901" y="-196" font-family="Helvetica,sans-Serif" font-size="10.00">params</text>
</g>
<!-- Node11 -->
<g id="node11" class="node"><title>Node11</title>
<g id="a_node11"><a xlink:href="a00110.html" target="_top" xlink:title="Holds informations about a cursor. ">
<polygon fill="white" stroke="black" points="958.5,-250.5 958.5,-269.5 1024.5,-269.5 1024.5,-250.5 958.5,-250.5"/>
<text text-anchor="middle" x="991.5" y="-257.5" font-family="Helvetica,sans-Serif" font-size="10.00">tds_cursor</text>
</a>
</g>
</g>
<!-- Node8&#45;&gt;Node11 -->
<g id="edge17" class="edge"><title>Node8&#45;&gt;Node11</title>
<path fill="none" stroke="#9a32cd" stroke-dasharray="5,2" d="M855.415,-220.426C887.057,-229.695 929.619,-242.164 958.449,-250.61"/>
<polygon fill="#9a32cd" stroke="#9a32cd" points="856.137,-216.99 845.556,-217.538 854.169,-223.708 856.137,-216.99"/>
<text text-anchor="middle" x="901" y="-241" font-family="Helvetica,sans-Serif" font-size="10.00"> res_info</text>
</g>
<!-- Node9&#45;&gt;Node8 -->
<g id="edge11" class="edge"><title>Node9&#45;&gt;Node8</title>
<path fill="none" stroke="#9a32cd" stroke-dasharray="5,2" d="M666.234,-150.047C690.157,-152.503 719.694,-157.776 744,-169 753.454,-173.366 753.261,-178.336 762,-184 770.267,-189.358 779.904,-194.324 788.433,-198.332"/>
<polygon fill="#9a32cd" stroke="#9a32cd" points="666.289,-146.538 656.017,-149.132 665.665,-153.51 666.289,-146.538"/>
<text text-anchor="middle" x="709" y="-172" font-family="Helvetica,sans-Serif" font-size="10.00"> columns</text>
</g>
<!-- Node10 -->
<g id="node10" class="node"><title>Node10</title>
<g id="a_node10"><a xlink:href="a00161.html" target="_top" xlink:title="tdsiconvinfo">
<polygon fill="white" stroke="red" points="405.5,-107.5 405.5,-126.5 478.5,-126.5 478.5,-107.5 405.5,-107.5"/>
<text text-anchor="middle" x="442" y="-114.5" font-family="Helvetica,sans-Serif" font-size="10.00">tdsiconvinfo</text>
</a>
</g>
</g>
<!-- Node10&#45;&gt;Node9 -->
<g id="edge12" class="edge"><title>Node10&#45;&gt;Node9</title>
<path fill="none" stroke="#9a32cd" stroke-dasharray="5,2" d="M488.725,-125.008C519.018,-130.314 558.115,-137.161 585.738,-141.999"/>
<polygon fill="#9a32cd" stroke="#9a32cd" points="489.272,-121.551 478.819,-123.273 488.065,-128.446 489.272,-121.551"/>
<text text-anchor="middle" x="537.5" y="-142" font-family="Helvetica,sans-Serif" font-size="10.00"> char_conv</text>
</g>
<!-- Node10&#45;&gt;Node13 -->
<g id="edge26" class="edge"><title>Node10&#45;&gt;Node13</title>
<path fill="none" stroke="#9a32cd" stroke-dasharray="5,2" d="M489.026,-118.597C623.917,-123.276 1017.07,-136.914 1148.86,-141.486"/>
<polygon fill="#9a32cd" stroke="#9a32cd" points="488.761,-115.085 478.646,-118.237 488.518,-122.081 488.761,-115.085"/>
<text text-anchor="middle" x="812" y="-135" font-family="Helvetica,sans-Serif" font-size="10.00"> char_convs</text>
</g>
<!-- Node11&#45;&gt;Node1 -->
<g id="edge15" class="edge"><title>Node11&#45;&gt;Node1</title>
<path fill="none" stroke="#9a32cd" stroke-dasharray="5,2" d="M948.018,-264.617C898.945,-269.719 815.747,-277.655 744,-281 713.955,-282.401 679.705,-282.555 655.158,-282.415"/>
<polygon fill="#9a32cd" stroke="#9a32cd" points="948.671,-268.068 958.251,-263.543 947.94,-261.106 948.671,-268.068"/>
<text text-anchor="middle" x="812" y="-283" font-family="Helvetica,sans-Serif" font-size="10.00"> cur_cursor</text>
</g>
<!-- Node11&#45;&gt;Node11 -->
<g id="edge18" class="edge"><title>Node11&#45;&gt;Node11</title>
<path fill="none" stroke="#9a32cd" stroke-dasharray="5,2" d="M974.834,-279.4C975.947,-284.315 981.502,-288 991.5,-288 1007.5,-288 1012.12,-278.565 1005.37,-269.757"/>
<polygon fill="#9a32cd" stroke="#9a32cd" points="978.207,-280.336 977.628,-269.757 971.483,-278.388 978.207,-280.336"/>
<text text-anchor="middle" x="991.5" y="-291" font-family="Helvetica,sans-Serif" font-size="10.00"> next</text>
</g>
<!-- Node11&#45;&gt;Node13 -->
<g id="edge27" class="edge"><title>Node11&#45;&gt;Node13</title>
<path fill="none" stroke="#9a32cd" stroke-dasharray="5,2" d="M1017.57,-245.335C1059.16,-221.006 1141.28,-172.962 1176.19,-152.543"/>
<polygon fill="#9a32cd" stroke="#9a32cd" points="1015.73,-242.355 1008.87,-250.425 1019.27,-248.397 1015.73,-242.355"/>
<text text-anchor="middle" x="1096" y="-221" font-family="Helvetica,sans-Serif" font-size="10.00"> cursors</text>
</g>
<!-- Node12 -->
<g id="node12" class="node"><title>Node12</title>
<g id="a_node12"><a xlink:href="a00111.html" target="_top" xlink:title="tds_cursor_status">
<polygon fill="white" stroke="black" points="762,-302.5 762,-321.5 862,-321.5 862,-302.5 762,-302.5"/>
<text text-anchor="middle" x="812" y="-309.5" font-family="Helvetica,sans-Serif" font-size="10.00">tds_cursor_status</text>
</a>
</g>
</g>
<!-- Node12&#45;&gt;Node11 -->
<g id="edge16" class="edge"><title>Node12&#45;&gt;Node11</title>
<path fill="none" stroke="#9a32cd" stroke-dasharray="5,2" d="M871.722,-300.229C888.128,-296.483 905.874,-291.996 922,-287 937.873,-282.082 955.29,-275.196 968.588,-269.609"/>
<polygon fill="#9a32cd" stroke="#9a32cd" points="870.705,-296.87 861.707,-302.464 872.229,-303.702 870.705,-296.87"/>
<text text-anchor="middle" x="901" y="-301" font-family="Helvetica,sans-Serif" font-size="10.00"> status</text>
</g>
<!-- Node13&#45;&gt;Node1 -->
<g id="edge19" class="edge"><title>Node13&#45;&gt;Node1</title>
<path fill="none" stroke="#9a32cd" stroke-dasharray="5,2" d="M1182.73,-161.621C1162.44,-197.994 1111.84,-277.58 1043,-308 928.386,-358.649 885.535,-351.994 762,-331 717.826,-323.493 669.025,-303.554 642.293,-291.551"/>
<polygon fill="#9a32cd" stroke="#9a32cd" points="1185.94,-163.043 1187.64,-152.585 1179.79,-159.702 1185.94,-163.043"/>
<text text-anchor="middle" x="901" y="-349" font-family="Helvetica,sans-Serif" font-size="10.00"> conn</text>
</g>
<!-- Node14 -->
<g id="node14" class="node"><title>Node14</title>
<g id="a_node14"><a xlink:href="a00121.html" target="_top" xlink:title="Current environment as reported by the server. ">
<polygon fill="white" stroke="black" points="964.5,-76.5 964.5,-95.5 1018.5,-95.5 1018.5,-76.5 964.5,-76.5"/>
<text text-anchor="middle" x="991.5" y="-83.5" font-family="Helvetica,sans-Serif" font-size="10.00">tds_env</text>
</a>
</g>
</g>
<!-- Node14&#45;&gt;Node13 -->
<g id="edge21" class="edge"><title>Node14&#45;&gt;Node13</title>
<path fill="none" stroke="#9a32cd" stroke-dasharray="5,2" d="M1029.02,-84.3068C1057.64,-84.1783 1098,-86.6792 1131,-99 1151.42,-106.622 1171.21,-122.86 1182.61,-133.335"/>
<polygon fill="#9a32cd" stroke="#9a32cd" points="1028.61,-80.8128 1018.67,-84.4699 1028.72,-87.8119 1028.61,-80.8128"/>
<text text-anchor="middle" x="1096" y="-102" font-family="Helvetica,sans-Serif" font-size="10.00"> env</text>
</g>
<!-- Node15 -->
<g id="node15" class="node"><title>Node15</title>
<g id="a_node15"><a xlink:href="a00109.html" target="_top" xlink:title="tds_context">
<polygon fill="white" stroke="black" points="956,-38.5 956,-57.5 1027,-57.5 1027,-38.5 956,-38.5"/>
<text text-anchor="middle" x="991.5" y="-45.5" font-family="Helvetica,sans-Serif" font-size="10.00">tds_context</text>
</a>
</g>
</g>
<!-- Node15&#45;&gt;Node13 -->
<g id="edge22" class="edge"><title>Node15&#45;&gt;Node13</title>
<path fill="none" stroke="#9a32cd" stroke-dasharray="5,2" d="M1037.2,-47.7287C1065.68,-49.3463 1102.46,-54.8769 1131,-71 1157.77,-86.1205 1178.24,-117.569 1187.34,-133.423"/>
<polygon fill="#9a32cd" stroke="#9a32cd" points="1037.25,-44.2278 1027.11,-47.2974 1036.95,-51.2214 1037.25,-44.2278"/>
<text text-anchor="middle" x="1096" y="-74" font-family="Helvetica,sans-Serif" font-size="10.00"> tds_ctx</text>
</g>
<!-- Node16 -->
<g id="node16" class="node"><title>Node16</title>
<g id="a_node16"><a xlink:href="a00128.html" target="_top" xlink:title="tds_locale">
<polygon fill="white" stroke="black" points="779.5,-38.5 779.5,-57.5 844.5,-57.5 844.5,-38.5 779.5,-38.5"/>
<text text-anchor="middle" x="812" y="-45.5" font-family="Helvetica,sans-Serif" font-size="10.00">tds_locale</text>
</a>
</g>
</g>
<!-- Node16&#45;&gt;Node15 -->
<g id="edge23" class="edge"><title>Node16&#45;&gt;Node15</title>
<path fill="none" stroke="#9a32cd" stroke-dasharray="5,2" d="M855.116,-48C885.8,-48 926.871,-48 955.701,-48"/>
<polygon fill="#9a32cd" stroke="#9a32cd" points="854.733,-44.5001 844.733,-48 854.733,-51.5001 854.733,-44.5001"/>
<text text-anchor="middle" x="901" y="-51" font-family="Helvetica,sans-Serif" font-size="10.00"> locale</text>
</g>
<!-- Node17 -->
<g id="node17" class="node"><title>Node17</title>
<g id="a_node17"><a xlink:href="a00098.html" target="_top" xlink:title="tds_authentication">
<polygon fill="white" stroke="black" points="940,-0.5 940,-19.5 1043,-19.5 1043,-0.5 940,-0.5"/>
<text text-anchor="middle" x="991.5" y="-7.5" font-family="Helvetica,sans-Serif" font-size="10.00">tds_authentication</text>
</a>
</g>
</g>
<!-- Node17&#45;&gt;Node13 -->
<g id="edge24" class="edge"><title>Node17&#45;&gt;Node13</title>
<path fill="none" stroke="#9a32cd" stroke-dasharray="5,2" d="M1053.38,-10.3597C1079.29,-13.1643 1108.63,-20.1216 1131,-36 1165.94,-60.8063 1183.82,-112.16 1189.98,-133.441"/>
<polygon fill="#9a32cd" stroke="#9a32cd" points="1053.53,-6.85984 1043.26,-9.45112 1052.91,-13.8318 1053.53,-6.85984"/>
<text text-anchor="middle" x="1096" y="-39" font-family="Helvetica,sans-Serif" font-size="10.00"> authentication</text>
</g>
<!-- Node18 -->
<g id="node18" class="node"><title>Node18</title>
<g id="a_node18"><a xlink:href="a00134.html" target="_top" xlink:title="tds_mutex">
<polygon fill="white" stroke="black" points="409.5,-325.5 409.5,-344.5 474.5,-344.5 474.5,-325.5 409.5,-325.5"/>
<text text-anchor="middle" x="442" y="-332.5" font-family="Helvetica,sans-Serif" font-size="10.00">tds_mutex</text>
</a>
</g>
</g>
<!-- Node18&#45;&gt;Node1 -->
<g id="edge28" class="edge"><title>Node18&#45;&gt;Node1</title>
<path fill="none" stroke="#9a32cd" stroke-dasharray="5,2" d="M484.66,-327.556C509.256,-322.616 540.801,-315.322 568,-306 579.475,-302.067 591.823,-296.432 601.605,-291.61"/>
<polygon fill="#9a32cd" stroke="#9a32cd" points="483.719,-324.174 474.577,-329.529 485.063,-331.044 483.719,-324.174"/>
<text text-anchor="middle" x="537.5" y="-325" font-family="Helvetica,sans-Serif" font-size="10.00"> wire_mtx</text>
</g>
</g>
</svg>
