<?xml version="1.0" encoding="UTF-8" standalone="no"?>
<!DOCTYPE svg PUBLIC "-//W3C//DTD SVG 1.1//EN"
 "http://www.w3.org/Graphics/SVG/1.1/DTD/svg11.dtd">
<!-- Generated by graphviz version 2.38.0 (20140413.2041)
 -->
<!-- Title: tds_connection Pages: 1 -->
<svg width="1000pt" height="254pt"
 viewBox="0.00 0.00 1000.00 253.69" xmlns="http://www.w3.org/2000/svg" xmlns:xlink="http://www.w3.org/1999/xlink">
<g id="graph0" class="graph" transform="scale(1 1) rotate(0) translate(4 249.688)">
<title>tds_connection</title>
<polygon fill="white" stroke="none" points="-4,4 -4,-249.688 996,-249.688 996,4 -4,4"/>
<!-- Node1 -->
<g id="node1" class="node"><title>Node1</title>
<polygon fill="#bfbfbf" stroke="black" points="383,-148.188 383,-167.188 472,-167.188 472,-148.188 383,-148.188"/>
<text text-anchor="middle" x="427.5" y="-155.188" font-family="Helvetica,sans-Serif" font-size="10.00">tds_connection</text>
</g>
<!-- Node10 -->
<g id="node10" class="node"><title>Node10</title>
<g id="a_node10"><a xlink:href="a00148.html" target="_top" xlink:title="Information for a server connection. ">
<polygon fill="white" stroke="red" points="578,-147.188 578,-166.188 646,-166.188 646,-147.188 578,-147.188"/>
<text text-anchor="middle" x="612" y="-154.188" font-family="Helvetica,sans-Serif" font-size="10.00">tds_socket</text>
</a>
</g>
</g>
<!-- Node1&#45;&gt;Node10 -->
<g id="edge16" class="edge"><title>Node1&#45;&gt;Node10</title>
<path fill="none" stroke="#9a32cd" stroke-dasharray="5,2" d="M482.428,-157.392C513.409,-157.223 551.326,-157.015 577.927,-156.869"/>
<polygon fill="#9a32cd" stroke="#9a32cd" points="482.194,-153.894 472.213,-157.448 482.232,-160.894 482.194,-153.894"/>
<text text-anchor="middle" x="525" y="-160.688" font-family="Helvetica,sans-Serif" font-size="10.00"> conn</text>
</g>
<!-- Node2 -->
<g id="node2" class="node"><title>Node2</title>
<g id="a_node2"><a xlink:href="a00102.html" target="_top" xlink:title="tds_capabilities">
<polygon fill="white" stroke="black" points="181,-149.188 181,-168.188 270,-168.188 270,-149.188 181,-149.188"/>
<text text-anchor="middle" x="225.5" y="-156.188" font-family="Helvetica,sans-Serif" font-size="10.00">tds_capabilities</text>
</a>
</g>
</g>
<!-- Node2&#45;&gt;Node1 -->
<g id="edge1" class="edge"><title>Node2&#45;&gt;Node1</title>
<path fill="none" stroke="#9a32cd" stroke-dasharray="5,2" d="M280.489,-158.418C312.536,-158.258 352.645,-158.057 382.712,-157.907"/>
<polygon fill="#9a32cd" stroke="#9a32cd" points="280.373,-154.918 270.391,-158.469 280.408,-161.918 280.373,-154.918"/>
<text text-anchor="middle" x="330" y="-161.688" font-family="Helvetica,sans-Serif" font-size="10.00"> capabilities</text>
</g>
<!-- Node3 -->
<g id="node3" class="node"><title>Node3</title>
<g id="a_node3"><a xlink:href="a00103.html" target="_top" xlink:title="tds_capability_type">
<polygon fill="white" stroke="black" points="0,-149.188 0,-168.188 107,-168.188 107,-149.188 0,-149.188"/>
<text text-anchor="middle" x="53.5" y="-156.188" font-family="Helvetica,sans-Serif" font-size="10.00">tds_capability_type</text>
</a>
</g>
</g>
<!-- Node3&#45;&gt;Node2 -->
<g id="edge2" class="edge"><title>Node3&#45;&gt;Node2</title>
<path fill="none" stroke="#9a32cd" stroke-dasharray="5,2" d="M117.513,-158.688C138.568,-158.688 161.555,-158.688 180.807,-158.688"/>
<polygon fill="#9a32cd" stroke="#9a32cd" points="117.357,-155.188 107.357,-158.688 117.357,-162.188 117.357,-155.188"/>
<text text-anchor="middle" x="140.5" y="-161.688" font-family="Helvetica,sans-Serif" font-size="10.00"> types</text>
</g>
<!-- Node4 -->
<g id="node4" class="node"><title>Node4</title>
<g id="a_node4"><a xlink:href="a00121.html" target="_top" xlink:title="Current environment as reported by the server. ">
<polygon fill="white" stroke="black" points="198.5,-111.188 198.5,-130.188 252.5,-130.188 252.5,-111.188 198.5,-111.188"/>
<text text-anchor="middle" x="225.5" y="-118.188" font-family="Helvetica,sans-Serif" font-size="10.00">tds_env</text>
</a>
</g>
</g>
<!-- Node4&#45;&gt;Node1 -->
<g id="edge3" class="edge"><title>Node4&#45;&gt;Node1</title>
<path fill="none" stroke="#9a32cd" stroke-dasharray="5,2" d="M262.746,-126.105C290.749,-130.436 330.433,-136.889 365,-143.688 371.876,-145.04 379.158,-146.592 386.213,-148.158"/>
<polygon fill="#9a32cd" stroke="#9a32cd" points="263.035,-122.609 252.62,-124.553 261.974,-129.528 263.035,-122.609"/>
<text text-anchor="middle" x="330" y="-146.688" font-family="Helvetica,sans-Serif" font-size="10.00"> env</text>
</g>
<!-- Node5 -->
<g id="node5" class="node"><title>Node5</title>
<g id="a_node5"><a xlink:href="a00109.html" target="_top" xlink:title="tds_context">
<polygon fill="white" stroke="black" points="190,-225.188 190,-244.188 261,-244.188 261,-225.188 190,-225.188"/>
<text text-anchor="middle" x="225.5" y="-232.188" font-family="Helvetica,sans-Serif" font-size="10.00">tds_context</text>
</a>
</g>
</g>
<!-- Node5&#45;&gt;Node1 -->
<g id="edge4" class="edge"><title>Node5&#45;&gt;Node1</title>
<path fill="none" stroke="#9a32cd" stroke-dasharray="5,2" d="M271.109,-228.061C298.956,-222.887 335.073,-214.249 365,-200.688 384.224,-191.977 403.745,-177.071 415.49,-167.3"/>
<polygon fill="#9a32cd" stroke="#9a32cd" points="270.483,-224.618 261.25,-229.814 271.708,-231.51 270.483,-224.618"/>
<text text-anchor="middle" x="330" y="-224.688" font-family="Helvetica,sans-Serif" font-size="10.00"> tds_ctx</text>
</g>
<!-- Node6 -->
<g id="node6" class="node"><title>Node6</title>
<g id="a_node6"><a xlink:href="a00128.html" target="_top" xlink:title="tds_locale">
<polygon fill="white" stroke="black" points="21,-225.188 21,-244.188 86,-244.188 86,-225.188 21,-225.188"/>
<text text-anchor="middle" x="53.5" y="-232.188" font-family="Helvetica,sans-Serif" font-size="10.00">tds_locale</text>
</a>
</g>
</g>
<!-- Node6&#45;&gt;Node5 -->
<g id="edge5" class="edge"><title>Node6&#45;&gt;Node5</title>
<path fill="none" stroke="#9a32cd" stroke-dasharray="5,2" d="M96.2308,-234.688C124.997,-234.688 162.778,-234.688 189.875,-234.688"/>
<polygon fill="#9a32cd" stroke="#9a32cd" points="96.0773,-231.188 86.0773,-234.688 96.0773,-238.188 96.0773,-231.188"/>
<text text-anchor="middle" x="140.5" y="-237.688" font-family="Helvetica,sans-Serif" font-size="10.00"> locale</text>
</g>
<!-- Node7 -->
<g id="node7" class="node"><title>Node7</title>
<g id="a_node7"><a xlink:href="a00098.html" target="_top" xlink:title="tds_authentication">
<polygon fill="white" stroke="black" points="174,-187.188 174,-206.188 277,-206.188 277,-187.188 174,-187.188"/>
<text text-anchor="middle" x="225.5" y="-194.188" font-family="Helvetica,sans-Serif" font-size="10.00">tds_authentication</text>
</a>
</g>
</g>
<!-- Node7&#45;&gt;Node1 -->
<g id="edge6" class="edge"><title>Node7&#45;&gt;Node1</title>
<path fill="none" stroke="#9a32cd" stroke-dasharray="5,2" d="M287.184,-187.822C311.474,-183.958 339.654,-179.078 365,-173.688 373.849,-171.806 383.339,-169.488 392.151,-167.207"/>
<polygon fill="#9a32cd" stroke="#9a32cd" points="286.369,-184.407 277.032,-189.414 287.454,-191.322 286.369,-184.407"/>
<text text-anchor="middle" x="330" y="-188.688" font-family="Helvetica,sans-Serif" font-size="10.00"> authentication</text>
</g>
<!-- Node8 -->
<g id="node8" class="node"><title>Node8</title>
<g id="a_node8"><a xlink:href="a00118.html" target="_top" xlink:title="Holds information for a dynamic (also called prepared) query. ">
<polygon fill="white" stroke="black" points="916,-173.188 916,-192.188 992,-192.188 992,-173.188 916,-173.188"/>
<text text-anchor="middle" x="954" y="-180.188" font-family="Helvetica,sans-Serif" font-size="10.00">tds_dynamic</text>
</a>
</g>
</g>
<!-- Node8&#45;&gt;Node1 -->
<g id="edge7" class="edge"><title>Node8&#45;&gt;Node1</title>
<path fill="none" stroke="#9a32cd" stroke-dasharray="5,2" d="M907.978,-194.216C904.617,-194.804 901.265,-195.307 898,-195.688 717.6,-216.718 669.202,-202.232 490,-172.688 481.433,-171.276 472.297,-169.307 463.759,-167.259"/>
<polygon fill="#9a32cd" stroke="#9a32cd" points="908.873,-197.607 918.007,-192.238 907.519,-190.739 908.873,-197.607"/>
<text text-anchor="middle" x="699" y="-207.688" font-family="Helvetica,sans-Serif" font-size="10.00"> dyns</text>
</g>
<!-- Node8&#45;&gt;Node8 -->
<g id="edge8" class="edge"><title>Node8&#45;&gt;Node8</title>
<path fill="none" stroke="#9a32cd" stroke-dasharray="5,2" d="M940.004,-202.454C941.103,-207.185 945.769,-210.688 954,-210.688 967.508,-210.688 971.412,-201.253 965.714,-192.445"/>
<polygon fill="#9a32cd" stroke="#9a32cd" points="943.476,-202.973 942.286,-192.445 936.651,-201.417 943.476,-202.973"/>
<text text-anchor="middle" x="954" y="-213.688" font-family="Helvetica,sans-Serif" font-size="10.00"> next</text>
</g>
<!-- Node8&#45;&gt;Node10 -->
<g id="edge11" class="edge"><title>Node8&#45;&gt;Node10</title>
<path fill="none" stroke="#9a32cd" stroke-dasharray="5,2" d="M905.656,-182.556C848.238,-181.861 748.627,-178.937 664,-167.688 658.164,-166.912 652.003,-165.821 646.06,-164.625"/>
<polygon fill="#9a32cd" stroke="#9a32cd" points="905.837,-186.058 915.873,-182.661 905.91,-179.058 905.837,-186.058"/>
<text text-anchor="middle" x="795" y="-183.688" font-family="Helvetica,sans-Serif" font-size="10.00"> cur_dyn</text>
</g>
<!-- Node9 -->
<g id="node9" class="node"><title>Node9</title>
<g id="a_node9"><a xlink:href="a00144.html" target="_top" xlink:title="Hold information for any results. ">
<polygon fill="white" stroke="black" points="752,-81.188 752,-100.188 838,-100.188 838,-81.188 752,-81.188"/>
<text text-anchor="middle" x="795" y="-88.188" font-family="Helvetica,sans-Serif" font-size="10.00">tds_result_info</text>
</a>
</g>
</g>
<!-- Node9&#45;&gt;Node8 -->
<g id="edge9" class="edge"><title>Node9&#45;&gt;Node8</title>
<path fill="none" stroke="#9a32cd" stroke-dasharray="5,2" d="M823.563,-105.075C844.275,-116.065 873.22,-131.806 898,-146.688 912.088,-155.149 927.73,-165.482 938.719,-172.904"/>
<polygon fill="#9a32cd" stroke="#9a32cd" points="825.148,-101.954 814.67,-100.38 821.879,-108.144 825.148,-101.954"/>
<text text-anchor="middle" x="877" y="-160.688" font-family="Helvetica,sans-Serif" font-size="10.00"> res_info</text>
<text text-anchor="middle" x="877" y="-149.688" font-family="Helvetica,sans-Serif" font-size="10.00">params</text>
</g>
<!-- Node9&#45;&gt;Node10 -->
<g id="edge12" class="edge"><title>Node9&#45;&gt;Node10</title>
<path fill="none" stroke="#9a32cd" stroke-dasharray="5,2" d="M750.467,-79.2217C724.063,-74.6497 690.473,-73.2213 664,-86.688 660.733,-88.3497 632.852,-128.095 619.751,-146.942"/>
<polygon fill="#9a32cd" stroke="#9a32cd" points="750.085,-82.7127 760.569,-81.181 751.418,-75.8408 750.085,-82.7127"/>
<text text-anchor="middle" x="699" y="-122.688" font-family="Helvetica,sans-Serif" font-size="10.00"> param_info</text>
<text text-anchor="middle" x="699" y="-111.688" font-family="Helvetica,sans-Serif" font-size="10.00">current_results</text>
<text text-anchor="middle" x="699" y="-100.688" font-family="Helvetica,sans-Serif" font-size="10.00">res_info</text>
<text text-anchor="middle" x="699" y="-89.688" font-family="Helvetica,sans-Serif" font-size="10.00">comp_info</text>
</g>
<!-- Node11 -->
<g id="node11" class="node"><title>Node11</title>
<g id="a_node11"><a xlink:href="a00110.html" target="_top" xlink:title="Holds informations about a cursor. ">
<polygon fill="white" stroke="red" points="921,-42.188 921,-61.188 987,-61.188 987,-42.188 921,-42.188"/>
<text text-anchor="middle" x="954" y="-49.188" font-family="Helvetica,sans-Serif" font-size="10.00">tds_cursor</text>
</a>
</g>
</g>
<!-- Node9&#45;&gt;Node11 -->
<g id="edge14" class="edge"><title>Node9&#45;&gt;Node11</title>
<path fill="none" stroke="#9a32cd" stroke-dasharray="5,2" d="M845.365,-78.6824C862.085,-74.5913 880.861,-69.9695 898,-65.688 905.361,-63.8492 913.269,-61.8499 920.73,-59.9532"/>
<polygon fill="#9a32cd" stroke="#9a32cd" points="844.137,-75.3795 835.254,-81.1534 845.799,-82.1794 844.137,-75.3795"/>
<text text-anchor="middle" x="877" y="-78.688" font-family="Helvetica,sans-Serif" font-size="10.00"> res_info</text>
</g>
<!-- Node10&#45;&gt;Node9 -->
<g id="edge10" class="edge"><title>Node10&#45;&gt;Node9</title>
<path fill="none" stroke="#9a32cd" stroke-dasharray="5,2" d="M656.366,-153.588C680.059,-150.729 709.483,-145.236 734,-134.688 753.46,-126.316 772.611,-110.613 783.862,-100.408"/>
<polygon fill="#9a32cd" stroke="#9a32cd" points="655.819,-150.126 646.259,-154.692 656.58,-157.085 655.819,-150.126"/>
<text text-anchor="middle" x="699" y="-155.688" font-family="Helvetica,sans-Serif" font-size="10.00"> attached_to</text>
</g>
<!-- Node11&#45;&gt;Node1 -->
<g id="edge20" class="edge"><title>Node11&#45;&gt;Node1</title>
<path fill="none" stroke="#9a32cd" stroke-dasharray="5,2" d="M923.922,-38.0831C867.976,-14.1251 743.839,28.0389 664,-27.688 644.975,-40.967 662.369,-60.2461 646,-76.688 598.666,-124.233 520.899,-144.196 472.308,-152.343"/>
<polygon fill="#9a32cd" stroke="#9a32cd" points="922.674,-41.3578 933.237,-42.1765 925.49,-34.9492 922.674,-41.3578"/>
<text text-anchor="middle" x="699" y="-30.688" font-family="Helvetica,sans-Serif" font-size="10.00"> cursors</text>
</g>
<!-- Node11&#45;&gt;Node10 -->
<g id="edge13" class="edge"><title>Node11&#45;&gt;Node10</title>
<path fill="none" stroke="#9a32cd" stroke-dasharray="5,2" d="M910.706,-42.025C849.932,-30.723 737.18,-19.6922 664,-72.688 649.189,-83.414 655.284,-93.9325 646,-109.688 638.104,-123.088 627.577,-137.61 620.558,-146.91"/>
<polygon fill="#9a32cd" stroke="#9a32cd" points="910.229,-45.4978 920.714,-43.9769 911.569,-38.6273 910.229,-45.4978"/>
<text text-anchor="middle" x="795" y="-40.688" font-family="Helvetica,sans-Serif" font-size="10.00"> cur_cursor</text>
</g>
<!-- Node11&#45;&gt;Node11 -->
<g id="edge15" class="edge"><title>Node11&#45;&gt;Node11</title>
<path fill="none" stroke="#9a32cd" stroke-dasharray="5,2" d="M940.004,-71.4543C941.103,-76.1845 945.769,-79.688 954,-79.688 967.508,-79.688 971.412,-70.2532 965.714,-61.445"/>
<polygon fill="#9a32cd" stroke="#9a32cd" points="943.476,-71.9729 942.286,-61.445 936.651,-70.4168 943.476,-71.9729"/>
<text text-anchor="middle" x="954" y="-82.688" font-family="Helvetica,sans-Serif" font-size="10.00"> next</text>
</g>
<!-- Node12 -->
<g id="node12" class="node"><title>Node12</title>
<g id="a_node12"><a xlink:href="a00104.html" target="_top" xlink:title="Metadata about columns in regular and compute rows. ">
<polygon fill="white" stroke="red" points="490,-47.188 490,-66.188 560,-66.188 560,-47.188 490,-47.188"/>
<text text-anchor="middle" x="525" y="-54.188" font-family="Helvetica,sans-Serif" font-size="10.00">tds_column</text>
</a>
</g>
</g>
<!-- Node12&#45;&gt;Node9 -->
<g id="edge17" class="edge"><title>Node12&#45;&gt;Node9</title>
<path fill="none" stroke="#9a32cd" stroke-dasharray="5,2" d="M570.409,-57.3521C612.767,-58.6318 678.199,-62.2966 734,-72.688 744.798,-74.6989 756.416,-77.9249 766.524,-81.0941"/>
<polygon fill="#9a32cd" stroke="#9a32cd" points="570.247,-53.8466 560.157,-57.0755 570.058,-60.844 570.247,-53.8466"/>
<text text-anchor="middle" x="612" y="-64.688" font-family="Helvetica,sans-Serif" font-size="10.00"> columns</text>
</g>
<!-- Node13 -->
<g id="node13" class="node"><title>Node13</title>
<g id="a_node13"><a xlink:href="a00161.html" target="_top" xlink:title="tdsiconvinfo">
<polygon fill="white" stroke="red" points="189,-60.188 189,-79.188 262,-79.188 262,-60.188 189,-60.188"/>
<text text-anchor="middle" x="225.5" y="-67.188" font-family="Helvetica,sans-Serif" font-size="10.00">tdsiconvinfo</text>
</a>
</g>
</g>
<!-- Node13&#45;&gt;Node1 -->
<g id="edge19" class="edge"><title>Node13&#45;&gt;Node1</title>
<path fill="none" stroke="#9a32cd" stroke-dasharray="5,2" d="M272.021,-81.8659C299.633,-90.0444 335.176,-102.002 365,-116.688 382.959,-125.532 401.868,-138.822 413.9,-147.856"/>
<polygon fill="#9a32cd" stroke="#9a32cd" points="272.811,-78.4509 262.232,-79.0257 270.861,-85.1737 272.811,-78.4509"/>
<text text-anchor="middle" x="330" y="-119.688" font-family="Helvetica,sans-Serif" font-size="10.00"> char_convs</text>
</g>
<!-- Node13&#45;&gt;Node12 -->
<g id="edge18" class="edge"><title>Node13&#45;&gt;Node12</title>
<path fill="none" stroke="#9a32cd" stroke-dasharray="5,2" d="M272.405,-67.682C332.411,-65.06 436.153,-60.5267 489.747,-58.1847"/>
<polygon fill="#9a32cd" stroke="#9a32cd" points="271.928,-64.1995 262.09,-68.1328 272.233,-71.1928 271.928,-64.1995"/>
<text text-anchor="middle" x="330" y="-69.688" font-family="Helvetica,sans-Serif" font-size="10.00"> char_conv</text>
</g>
</g>
</svg>
