<?xml version="1.0" encoding="UTF-8" standalone="no"?>
<!DOCTYPE svg PUBLIC "-//W3C//DTD SVG 1.1//EN"
 "http://www.w3.org/Graphics/SVG/1.1/DTD/svg11.dtd">
<!-- Generated by graphviz version 2.38.0 (20140413.2041)
 -->
<!-- Title: tds_pool Pages: 1 -->
<svg width="218pt" height="229pt"
 viewBox="0.00 0.00 217.50 229.00" xmlns="http://www.w3.org/2000/svg" xmlns:xlink="http://www.w3.org/1999/xlink">
<g id="graph0" class="graph" transform="scale(1 1) rotate(0) translate(4 225)">
<title>tds_pool</title>
<polygon fill="white" stroke="none" points="-4,4 -4,-225 213.5,-225 213.5,4 -4,4"/>
<!-- Node1 -->
<g id="node1" class="node"><title>Node1</title>
<polygon fill="#bfbfbf" stroke="black" points="0,-0.5 0,-19.5 57,-19.5 57,-0.5 0,-0.5"/>
<text text-anchor="middle" x="28.5" y="-7.5" font-family="Helvetica,sans-Serif" font-size="10.00">tds_pool</text>
</g>
<!-- Node2 -->
<g id="node2" class="node"><title>Node2</title>
<g id="a_node2"><a xlink:href="a00142.html" target="_top" xlink:title="tds_pool_member">
<polygon fill="white" stroke="black" points="11,-134.5 11,-153.5 112,-153.5 112,-134.5 11,-134.5"/>
<text text-anchor="middle" x="61.5" y="-141.5" font-family="Helvetica,sans-Serif" font-size="10.00">tds_pool_member</text>
</a>
</g>
</g>
<!-- Node2&#45;&gt;Node1 -->
<g id="edge1" class="edge"><title>Node2&#45;&gt;Node1</title>
<path fill="none" stroke="#9a32cd" stroke-dasharray="5,2" d="M26.3807,-129.248C21.2339,-125.706 16.6232,-121.34 13.5,-116 -4.99974,-84.3683 14.3258,-38.4663 23.8488,-19.5938"/>
<polygon fill="#9a32cd" stroke="#9a32cd" points="24.9728,-132.477 35.3805,-134.459 28.4805,-126.42 24.9728,-132.477"/>
<text text-anchor="middle" x="30.5" y="-74.5" font-family="Helvetica,sans-Serif" font-size="10.00"> members</text>
</g>
<!-- Node3 -->
<g id="node3" class="node"><title>Node3</title>
<g id="a_node3"><a xlink:href="a00143.html" target="_top" xlink:title="tds_pool_user">
<polygon fill="white" stroke="black" points="74,-67.5 74,-86.5 157,-86.5 157,-67.5 74,-67.5"/>
<text text-anchor="middle" x="115.5" y="-74.5" font-family="Helvetica,sans-Serif" font-size="10.00">tds_pool_user</text>
</a>
</g>
</g>
<!-- Node2&#45;&gt;Node3 -->
<g id="edge3" class="edge"><title>Node2&#45;&gt;Node3</title>
<path fill="none" stroke="#9a32cd" stroke-dasharray="5,2" d="M31.3735,-129.492C20.589,-122.746 12.6127,-114.092 19.5,-105 32.0454,-88.4394 53.9233,-81.4718 73.6278,-78.7425"/>
<polygon fill="#9a32cd" stroke="#9a32cd" points="29.9472,-132.703 40.3943,-134.466 33.3271,-126.573 29.9472,-132.703"/>
<text text-anchor="middle" x="64.5" y="-108" font-family="Helvetica,sans-Serif" font-size="10.00"> assigned_member</text>
</g>
<!-- Node3&#45;&gt;Node1 -->
<g id="edge6" class="edge"><title>Node3&#45;&gt;Node1</title>
<path fill="none" stroke="#9a32cd" stroke-dasharray="5,2" d="M95.5138,-61.0678C78.3411,-48.2376 54.1787,-30.1853 40.0473,-19.6273"/>
<polygon fill="#9a32cd" stroke="#9a32cd" points="93.6609,-64.0524 103.767,-67.2338 97.8506,-58.4446 93.6609,-64.0524"/>
<text text-anchor="middle" x="92" y="-41" font-family="Helvetica,sans-Serif" font-size="10.00"> users</text>
</g>
<!-- Node3&#45;&gt;Node2 -->
<g id="edge2" class="edge"><title>Node3&#45;&gt;Node2</title>
<path fill="none" stroke="#9a32cd" stroke-dasharray="5,2" d="M118.162,-96.7109C118.191,-103.262 117.121,-110.378 113.5,-116 108.102,-124.381 99.2163,-130.302 90.3044,-134.418"/>
<polygon fill="#9a32cd" stroke="#9a32cd" points="121.637,-96.2646 117.33,-86.5847 114.661,-96.8377 121.637,-96.2646"/>
<text text-anchor="middle" x="149" y="-108" font-family="Helvetica,sans-Serif" font-size="10.00"> current_user</text>
</g>
<!-- Node4 -->
<g id="node4" class="node"><title>Node4</title>
<g id="a_node4"><a xlink:href="a00148.html" target="_top" xlink:title="Information for a server connection. ">
<polygon fill="white" stroke="red" points="123.5,-201.5 123.5,-220.5 191.5,-220.5 191.5,-201.5 123.5,-201.5"/>
<text text-anchor="middle" x="157.5" y="-208.5" font-family="Helvetica,sans-Serif" font-size="10.00">tds_socket</text>
</a>
</g>
</g>
<!-- Node4&#45;&gt;Node2 -->
<g id="edge5" class="edge"><title>Node4&#45;&gt;Node2</title>
<path fill="none" stroke="#9a32cd" stroke-dasharray="5,2" d="M136.224,-195.595C117.233,-182.736 90.0497,-164.331 74.2419,-153.627"/>
<polygon fill="#9a32cd" stroke="#9a32cd" points="134.31,-198.525 144.553,-201.234 138.235,-192.729 134.31,-198.525"/>
<text text-anchor="middle" x="124.5" y="-175" font-family="Helvetica,sans-Serif" font-size="10.00"> tds</text>
</g>
<!-- Node4&#45;&gt;Node3 -->
<g id="edge4" class="edge"><title>Node4&#45;&gt;Node3</title>
<path fill="none" stroke="#9a32cd" stroke-dasharray="5,2" d="M169.688,-192.956C183.827,-170.892 202.976,-132.07 184.5,-105 178.046,-95.544 167.74,-89.3995 157.04,-85.4069"/>
<polygon fill="#9a32cd" stroke="#9a32cd" points="166.749,-191.055 164.06,-201.303 172.553,-194.969 166.749,-191.055"/>
<text text-anchor="middle" x="200.5" y="-141.5" font-family="Helvetica,sans-Serif" font-size="10.00"> tds</text>
</g>
</g>
</svg>
