<?xml version="1.0" encoding="UTF-8" standalone="no"?>
<!DOCTYPE svg PUBLIC "-//W3C//DTD SVG 1.1//EN"
 "http://www.w3.org/Graphics/SVG/1.1/DTD/svg11.dtd">
<!-- Generated by graphviz version 2.38.0 (20140413.2041)
 -->
<!-- Title: tds_dblib_dbprocess Pages: 1 -->
<svg width="806pt" height="425pt"
 viewBox="0.00 0.00 806.00 425.00" xmlns="http://www.w3.org/2000/svg" xmlns:xlink="http://www.w3.org/1999/xlink">
<g id="graph0" class="graph" transform="scale(1 1) rotate(0) translate(4 421)">
<title>tds_dblib_dbprocess</title>
<polygon fill="white" stroke="none" points="-4,4 -4,-421 802,-421 802,4 -4,4"/>
<!-- Node1 -->
<g id="node1" class="node"><title>Node1</title>
<polygon fill="#bfbfbf" stroke="black" points="685,-161.5 685,-180.5 798,-180.5 798,-161.5 685,-161.5"/>
<text text-anchor="middle" x="741.5" y="-168.5" font-family="Helvetica,sans-Serif" font-size="10.00">tds_dblib_dbprocess</text>
</g>
<!-- Node2 -->
<g id="node2" class="node"><title>Node2</title>
<g id="a_node2"><a xlink:href="a00093.html" target="_top" xlink:title="tag_DBPROC_ROWBUF">
<polygon fill="white" stroke="black" points="460,-380.5 460,-399.5 594,-399.5 594,-380.5 460,-380.5"/>
<text text-anchor="middle" x="527" y="-387.5" font-family="Helvetica,sans-Serif" font-size="10.00">tag_DBPROC_ROWBUF</text>
</a>
</g>
</g>
<!-- Node2&#45;&gt;Node1 -->
<g id="edge1" class="edge"><title>Node2&#45;&gt;Node1</title>
<path fill="none" stroke="#9a32cd" stroke-dasharray="5,2" d="M604,-377.936C626.412,-371.287 649.575,-360.978 667,-345 717.998,-298.237 734.86,-210.355 739.213,-180.904"/>
<polygon fill="#9a32cd" stroke="#9a32cd" points="602.834,-374.627 594.12,-380.654 604.691,-381.376 602.834,-374.627"/>
<text text-anchor="middle" x="639.5" y="-378" font-family="Helvetica,sans-Serif" font-size="10.00"> row_buf</text>
</g>
<!-- Node3 -->
<g id="node3" class="node"><title>Node3</title>
<g id="a_node3"><a xlink:href="a00060.html" target="_top" xlink:title="dblib_buffer_row">
<polygon fill="white" stroke="black" points="226,-397.5 226,-416.5 319,-416.5 319,-397.5 226,-397.5"/>
<text text-anchor="middle" x="272.5" y="-404.5" font-family="Helvetica,sans-Serif" font-size="10.00">dblib_buffer_row</text>
</a>
</g>
</g>
<!-- Node3&#45;&gt;Node2 -->
<g id="edge2" class="edge"><title>Node3&#45;&gt;Node2</title>
<path fill="none" stroke="#9a32cd" stroke-dasharray="5,2" d="M329.221,-403.248C367.719,-400.657 419.1,-397.197 459.705,-394.463"/>
<polygon fill="#9a32cd" stroke="#9a32cd" points="328.968,-399.757 319.226,-403.921 329.438,-406.742 328.968,-399.757"/>
<text text-anchor="middle" x="406.5" y="-403" font-family="Helvetica,sans-Serif" font-size="10.00"> rows</text>
</g>
<!-- Node4 -->
<g id="node4" class="node"><title>Node4</title>
<g id="a_node4"><a xlink:href="a00144.html" target="_top" xlink:title="Hold information for any results. ">
<polygon fill="white" stroke="red" points="0,-319.5 0,-338.5 86,-338.5 86,-319.5 0,-319.5"/>
<text text-anchor="middle" x="43" y="-326.5" font-family="Helvetica,sans-Serif" font-size="10.00">tds_result_info</text>
</a>
</g>
</g>
<!-- Node4&#45;&gt;Node3 -->
<g id="edge3" class="edge"><title>Node4&#45;&gt;Node3</title>
<path fill="none" stroke="#9a32cd" stroke-dasharray="5,2" d="M60.0254,-346.01C71.2804,-356.895 87.2627,-370.362 104,-378 142.797,-395.705 191.162,-402.662 225.933,-405.364"/>
<polygon fill="#9a32cd" stroke="#9a32cd" points="62.2537,-343.287 52.7223,-338.661 57.2882,-348.221 62.2537,-343.287"/>
<text text-anchor="middle" x="139" y="-401" font-family="Helvetica,sans-Serif" font-size="10.00"> resinfo</text>
</g>
<!-- Node5 -->
<g id="node5" class="node"><title>Node5</title>
<g id="a_node5"><a xlink:href="a00148.html" target="_top" xlink:title="Information for a server connection. ">
<polygon fill="white" stroke="red" points="238.5,-321.5 238.5,-340.5 306.5,-340.5 306.5,-321.5 238.5,-321.5"/>
<text text-anchor="middle" x="272.5" y="-328.5" font-family="Helvetica,sans-Serif" font-size="10.00">tds_socket</text>
</a>
</g>
</g>
<!-- Node4&#45;&gt;Node5 -->
<g id="edge5" class="edge"><title>Node4&#45;&gt;Node5</title>
<path fill="none" stroke="#9a32cd" stroke-dasharray="5,2" d="M96.4174,-329.461C140.129,-329.845 201.079,-330.381 238.33,-330.708"/>
<polygon fill="#9a32cd" stroke="#9a32cd" points="96.2883,-325.96 86.2578,-329.371 96.2266,-332.959 96.2883,-325.96"/>
<text text-anchor="middle" x="139" y="-366" font-family="Helvetica,sans-Serif" font-size="10.00"> param_info</text>
<text text-anchor="middle" x="139" y="-355" font-family="Helvetica,sans-Serif" font-size="10.00">current_results</text>
<text text-anchor="middle" x="139" y="-344" font-family="Helvetica,sans-Serif" font-size="10.00">res_info</text>
<text text-anchor="middle" x="139" y="-333" font-family="Helvetica,sans-Serif" font-size="10.00">comp_info</text>
</g>
<!-- Node10 -->
<g id="node10" class="node"><title>Node10</title>
<g id="a_node10"><a xlink:href="a00100.html" target="_top" xlink:title="tds_bcpinfo">
<polygon fill="white" stroke="black" points="371,-272.5 371,-291.5 442,-291.5 442,-272.5 371,-272.5"/>
<text text-anchor="middle" x="406.5" y="-279.5" font-family="Helvetica,sans-Serif" font-size="10.00">tds_bcpinfo</text>
</a>
</g>
</g>
<!-- Node4&#45;&gt;Node10 -->
<g id="edge14" class="edge"><title>Node4&#45;&gt;Node10</title>
<path fill="none" stroke="#9a32cd" stroke-dasharray="5,2" d="M65.4612,-313.541C76.4352,-306.519 90.3332,-298.92 104,-295 197.421,-268.205 313.76,-273.416 370.752,-278.318"/>
<polygon fill="#9a32cd" stroke="#9a32cd" points="63.3597,-310.736 57.0001,-319.209 67.256,-316.551 63.3597,-310.736"/>
<text text-anchor="middle" x="139" y="-298" font-family="Helvetica,sans-Serif" font-size="10.00"> bindinfo</text>
</g>
<!-- Node5&#45;&gt;Node1 -->
<g id="edge8" class="edge"><title>Node5&#45;&gt;Node1</title>
<path fill="none" stroke="#9a32cd" stroke-dasharray="5,2" d="M317.096,-331.8C379.932,-331.694 498.855,-326.751 594,-295 629.718,-283.08 637.795,-275.768 667,-252 694.542,-229.586 721.065,-196.697 733.362,-180.596"/>
<polygon fill="#9a32cd" stroke="#9a32cd" points="316.778,-328.299 306.77,-331.774 316.761,-335.299 316.778,-328.299"/>
<text text-anchor="middle" x="527" y="-326" font-family="Helvetica,sans-Serif" font-size="10.00"> tds_socket</text>
</g>
<!-- Node5&#45;&gt;Node4 -->
<g id="edge4" class="edge"><title>Node5&#45;&gt;Node4</title>
<path fill="none" stroke="#9a32cd" stroke-dasharray="5,2" d="M228.37,-320.737C194.502,-314.037 146.18,-307.473 104,-313 93.9521,-314.317 83.1935,-316.824 73.6009,-319.469"/>
<polygon fill="#9a32cd" stroke="#9a32cd" points="227.892,-324.212 238.393,-322.808 229.308,-317.357 227.892,-324.212"/>
<text text-anchor="middle" x="139" y="-316" font-family="Helvetica,sans-Serif" font-size="10.00"> attached_to</text>
</g>
<!-- Node6 -->
<g id="node6" class="node"><title>Node6</title>
<g id="a_node6"><a xlink:href="a00047.html" target="_top" xlink:title="BCP_HOSTFILEINFO">
<polygon fill="white" stroke="black" points="467.5,-228.5 467.5,-247.5 586.5,-247.5 586.5,-228.5 467.5,-228.5"/>
<text text-anchor="middle" x="527" y="-235.5" font-family="Helvetica,sans-Serif" font-size="10.00">BCP_HOSTFILEINFO</text>
</a>
</g>
</g>
<!-- Node6&#45;&gt;Node1 -->
<g id="edge6" class="edge"><title>Node6&#45;&gt;Node1</title>
<path fill="none" stroke="#9a32cd" stroke-dasharray="5,2" d="M571.637,-225.68C579.111,-223.501 586.789,-221.218 594,-219 635.441,-206.25 683.1,-190.415 712.511,-180.505"/>
<polygon fill="#9a32cd" stroke="#9a32cd" points="570.619,-222.331 561.985,-228.472 572.564,-229.056 570.619,-222.331"/>
<text text-anchor="middle" x="639.5" y="-215" font-family="Helvetica,sans-Serif" font-size="10.00"> hostfileinfo</text>
</g>
<!-- Node7 -->
<g id="node7" class="node"><title>Node7</title>
<g id="a_node7"><a xlink:href="a00046.html" target="_top" xlink:title="BCP_HOSTCOLINFO">
<polygon fill="white" stroke="black" points="213,-228.5 213,-247.5 332,-247.5 332,-228.5 213,-228.5"/>
<text text-anchor="middle" x="272.5" y="-235.5" font-family="Helvetica,sans-Serif" font-size="10.00">BCP_HOSTCOLINFO</text>
</a>
</g>
</g>
<!-- Node7&#45;&gt;Node6 -->
<g id="edge7" class="edge"><title>Node7&#45;&gt;Node6</title>
<path fill="none" stroke="#9a32cd" stroke-dasharray="5,2" d="M342.07,-238C381.263,-238 429.902,-238 467.318,-238"/>
<polygon fill="#9a32cd" stroke="#9a32cd" points="342.063,-234.5 332.063,-238 342.063,-241.5 342.063,-234.5"/>
<text text-anchor="middle" x="406.5" y="-241" font-family="Helvetica,sans-Serif" font-size="10.00"> host_columns</text>
</g>
<!-- Node8 -->
<g id="node8" class="node"><title>Node8</title>
<g id="a_node8"><a xlink:href="a00028.html" target="_top" xlink:title="_DBREMOTE_PROC">
<polygon fill="white" stroke="black" points="468,-161.5 468,-180.5 586,-180.5 586,-161.5 468,-161.5"/>
<text text-anchor="middle" x="527" y="-168.5" font-family="Helvetica,sans-Serif" font-size="10.00">_DBREMOTE_PROC</text>
</a>
</g>
</g>
<!-- Node8&#45;&gt;Node1 -->
<g id="edge9" class="edge"><title>Node8&#45;&gt;Node1</title>
<path fill="none" stroke="#9a32cd" stroke-dasharray="5,2" d="M596.373,-171C624.914,-171 657.65,-171 684.703,-171"/>
<polygon fill="#9a32cd" stroke="#9a32cd" points="596.067,-167.5 586.067,-171 596.067,-174.5 596.067,-167.5"/>
<text text-anchor="middle" x="639.5" y="-174" font-family="Helvetica,sans-Serif" font-size="10.00"> rpc</text>
</g>
<!-- Node8&#45;&gt;Node8 -->
<g id="edge12" class="edge"><title>Node8&#45;&gt;Node8</title>
<path fill="none" stroke="#9a32cd" stroke-dasharray="5,2" d="M506.26,-190.4C507.645,-195.315 514.559,-199 527,-199 546.906,-199 552.66,-189.565 544.262,-180.757"/>
<polygon fill="#9a32cd" stroke="#9a32cd" points="509.638,-191.351 509.738,-180.757 503.053,-188.977 509.638,-191.351"/>
<text text-anchor="middle" x="527" y="-202" font-family="Helvetica,sans-Serif" font-size="10.00"> next</text>
</g>
<!-- Node9 -->
<g id="node9" class="node"><title>Node9</title>
<g id="a_node9"><a xlink:href="a00029.html" target="_top" xlink:title="_DBREMOTE_PROC_PARAM">
<polygon fill="white" stroke="black" points="192,-161.5 192,-180.5 353,-180.5 353,-161.5 192,-161.5"/>
<text text-anchor="middle" x="272.5" y="-168.5" font-family="Helvetica,sans-Serif" font-size="10.00">_DBREMOTE_PROC_PARAM</text>
</a>
</g>
</g>
<!-- Node9&#45;&gt;Node8 -->
<g id="edge10" class="edge"><title>Node9&#45;&gt;Node8</title>
<path fill="none" stroke="#9a32cd" stroke-dasharray="5,2" d="M363.2,-171C397.925,-171 436.688,-171 467.676,-171"/>
<polygon fill="#9a32cd" stroke="#9a32cd" points="363.046,-167.5 353.046,-171 363.046,-174.5 363.046,-167.5"/>
<text text-anchor="middle" x="406.5" y="-174" font-family="Helvetica,sans-Serif" font-size="10.00"> param_list</text>
</g>
<!-- Node9&#45;&gt;Node9 -->
<g id="edge11" class="edge"><title>Node9&#45;&gt;Node9</title>
<path fill="none" stroke="#9a32cd" stroke-dasharray="5,2" d="M247.947,-190.029C249.286,-195.128 257.47,-199 272.5,-199 295.961,-199 302.743,-189.565 292.845,-180.757"/>
<polygon fill="#9a32cd" stroke="#9a32cd" points="251.209,-191.31 252.155,-180.757 244.835,-188.416 251.209,-191.31"/>
<text text-anchor="middle" x="272.5" y="-202" font-family="Helvetica,sans-Serif" font-size="10.00"> next</text>
</g>
<!-- Node10&#45;&gt;Node1 -->
<g id="edge13" class="edge"><title>Node10&#45;&gt;Node1</title>
<path fill="none" stroke="#9a32cd" stroke-dasharray="5,2" d="M452.535,-280.74C506.761,-277.434 599.015,-265.97 667,-227 690.938,-213.278 715.889,-192.716 729.685,-180.699"/>
<polygon fill="#9a32cd" stroke="#9a32cd" points="452.012,-277.263 442.216,-281.298 452.39,-284.253 452.012,-277.263"/>
<text text-anchor="middle" x="527" y="-283" font-family="Helvetica,sans-Serif" font-size="10.00"> bcpinfo</text>
</g>
<!-- Node11 -->
<g id="node11" class="node"><title>Node11</title>
<g id="a_node11"><a xlink:href="a00066.html" target="_top" xlink:title="dbstring">
<polygon fill="white" stroke="black" points="245.5,-90.5 245.5,-109.5 299.5,-109.5 299.5,-90.5 245.5,-90.5"/>
<text text-anchor="middle" x="272.5" y="-97.5" font-family="Helvetica,sans-Serif" font-size="10.00">dbstring</text>
</a>
</g>
</g>
<!-- Node11&#45;&gt;Node1 -->
<g id="edge15" class="edge"><title>Node11&#45;&gt;Node1</title>
<path fill="none" stroke="#9a32cd" stroke-dasharray="5,2" d="M309.802,-103.749C369.351,-110.1 491.421,-123.96 594,-141 629.343,-146.871 669.153,-155.13 698.344,-161.496"/>
<polygon fill="#9a32cd" stroke="#9a32cd" points="310.083,-100.26 299.77,-102.688 309.346,-107.221 310.083,-100.26"/>
<text text-anchor="middle" x="527" y="-144" font-family="Helvetica,sans-Serif" font-size="10.00"> dboptcmd</text>
</g>
<!-- Node11&#45;&gt;Node11 -->
<g id="edge16" class="edge"><title>Node11&#45;&gt;Node11</title>
<path fill="none" stroke="#9a32cd" stroke-dasharray="5,2" d="M247.947,-119.029C249.286,-124.128 257.47,-128 272.5,-128 295.961,-128 302.743,-118.565 292.845,-109.757"/>
<polygon fill="#9a32cd" stroke="#9a32cd" points="251.209,-120.31 252.155,-109.757 244.835,-117.416 251.209,-120.31"/>
<text text-anchor="middle" x="272.5" y="-131" font-family="Helvetica,sans-Serif" font-size="10.00"> strnext</text>
</g>
<!-- Node12 -->
<g id="node12" class="node"><title>Node12</title>
<g id="a_node12"><a xlink:href="a00065.html" target="_top" xlink:title="dboption">
<polygon fill="white" stroke="black" points="498.5,-76.5 498.5,-95.5 555.5,-95.5 555.5,-76.5 498.5,-76.5"/>
<text text-anchor="middle" x="527" y="-83.5" font-family="Helvetica,sans-Serif" font-size="10.00">dboption</text>
</a>
</g>
</g>
<!-- Node11&#45;&gt;Node12 -->
<g id="edge18" class="edge"><title>Node11&#45;&gt;Node12</title>
<path fill="none" stroke="#9a32cd" stroke-dasharray="5,2" d="M309.788,-97.988C360.706,-95.1648 452.252,-90.089 498.157,-87.5437"/>
<polygon fill="#9a32cd" stroke="#9a32cd" points="309.362,-94.5062 299.571,-98.5545 309.749,-101.495 309.362,-94.5062"/>
<text text-anchor="middle" x="406.5" y="-98" font-family="Helvetica,sans-Serif" font-size="10.00"> param</text>
</g>
<!-- Node12&#45;&gt;Node1 -->
<g id="edge17" class="edge"><title>Node12&#45;&gt;Node1</title>
<path fill="none" stroke="#9a32cd" stroke-dasharray="5,2" d="M565.784,-86.0499C594.705,-87.3991 634.941,-92.1734 667,-107 694.95,-119.926 720.308,-146.821 732.632,-161.289"/>
<polygon fill="#9a32cd" stroke="#9a32cd" points="565.793,-82.5482 555.677,-85.6956 565.548,-89.5439 565.793,-82.5482"/>
<text text-anchor="middle" x="639.5" y="-110" font-family="Helvetica,sans-Serif" font-size="10.00"> dbopts</text>
</g>
<!-- Node13 -->
<g id="node13" class="node"><title>Node13</title>
<g id="a_node13"><a xlink:href="a00040.html" target="_top" xlink:title="_null_representation">
<polygon fill="white" stroke="black" points="470.5,-38.5 470.5,-57.5 583.5,-57.5 583.5,-38.5 470.5,-38.5"/>
<text text-anchor="middle" x="527" y="-45.5" font-family="Helvetica,sans-Serif" font-size="10.00">_null_representation</text>
</a>
</g>
</g>
<!-- Node13&#45;&gt;Node1 -->
<g id="edge19" class="edge"><title>Node13&#45;&gt;Node1</title>
<path fill="none" stroke="#9a32cd" stroke-dasharray="5,2" d="M593.688,-52.1924C618.129,-56.1131 645.198,-63.4397 667,-77 701.478,-98.445 726.246,-142.153 735.962,-161.464"/>
<polygon fill="#9a32cd" stroke="#9a32cd" points="594.153,-48.7233 583.755,-50.7584 593.152,-55.6515 594.153,-48.7233"/>
<text text-anchor="middle" x="639.5" y="-80" font-family="Helvetica,sans-Serif" font-size="10.00"> nullreps</text>
</g>
<!-- Node14 -->
<g id="node14" class="node"><title>Node14</title>
<g id="a_node14"><a xlink:href="a00067.html" target="_top" xlink:title="dbtypeinfo">
<polygon fill="white" stroke="black" points="494.5,-0.5 494.5,-19.5 559.5,-19.5 559.5,-0.5 494.5,-0.5"/>
<text text-anchor="middle" x="527" y="-7.5" font-family="Helvetica,sans-Serif" font-size="10.00">dbtypeinfo</text>
</a>
</g>
</g>
<!-- Node14&#45;&gt;Node1 -->
<g id="edge20" class="edge"><title>Node14&#45;&gt;Node1</title>
<path fill="none" stroke="#9a32cd" stroke-dasharray="5,2" d="M569.777,-10.9358C599.476,-13.5328 638.919,-21.1102 667,-42 709.396,-73.5388 731.024,-137.288 737.959,-161.436"/>
<polygon fill="#9a32cd" stroke="#9a32cd" points="569.938,-7.43844 559.713,-10.2112 569.435,-14.4204 569.938,-7.43844"/>
<text text-anchor="middle" x="639.5" y="-45" font-family="Helvetica,sans-Serif" font-size="10.00"> typeinfo</text>
</g>
</g>
</svg>
