<?xml version="1.0" encoding="UTF-8" standalone="no"?>
<!DOCTYPE svg PUBLIC "-//W3C//DTD SVG 1.1//EN"
 "http://www.w3.org/Graphics/SVG/1.1/DTD/svg11.dtd">
<!-- Generated by graphviz version 2.38.0 (20140413.2041)
 -->
<!-- Title: tds_bcpinfo Pages: 1 -->
<svg width="1008pt" height="484pt"
 viewBox="0.00 0.00 1008.00 484.00" xmlns="http://www.w3.org/2000/svg" xmlns:xlink="http://www.w3.org/1999/xlink">
<g id="graph0" class="graph" transform="scale(1 1) rotate(0) translate(4 480)">
<title>tds_bcpinfo</title>
<polygon fill="white" stroke="none" points="-4,4 -4,-480 1004,-480 1004,4 -4,4"/>
<!-- Node1 -->
<g id="node1" class="node"><title>Node1</title>
<polygon fill="#bfbfbf" stroke="black" points="566.5,-103.5 566.5,-122.5 637.5,-122.5 637.5,-103.5 566.5,-103.5"/>
<text text-anchor="middle" x="602" y="-110.5" font-family="Helvetica,sans-Serif" font-size="10.00">tds_bcpinfo</text>
</g>
<!-- Node2 -->
<g id="node2" class="node"><title>Node2</title>
<g id="a_node2"><a xlink:href="a00144.html" target="_top" xlink:title="Hold information for any results. ">
<polygon fill="white" stroke="black" points="400,-208.5 400,-227.5 486,-227.5 486,-208.5 400,-208.5"/>
<text text-anchor="middle" x="443" y="-215.5" font-family="Helvetica,sans-Serif" font-size="10.00">tds_result_info</text>
</a>
</g>
</g>
<!-- Node2&#45;&gt;Node1 -->
<g id="edge1" class="edge"><title>Node2&#45;&gt;Node1</title>
<path fill="none" stroke="#9a32cd" stroke-dasharray="5,2" d="M458.888,-200.941C470.347,-188.511 487.048,-171.844 504,-160 526.703,-144.138 555.576,-130.908 575.897,-122.568"/>
<polygon fill="#9a32cd" stroke="#9a32cd" points="456.257,-198.632 452.164,-208.404 461.458,-203.317 456.257,-198.632"/>
<text text-anchor="middle" x="525" y="-163" font-family="Helvetica,sans-Serif" font-size="10.00"> bindinfo</text>
</g>
<!-- Node3 -->
<g id="node3" class="node"><title>Node3</title>
<g id="a_node3"><a xlink:href="a00148.html" target="_top" xlink:title="Information for a server connection. ">
<polygon fill="white" stroke="black" points="932,-187.5 932,-206.5 1000,-206.5 1000,-187.5 932,-187.5"/>
<text text-anchor="middle" x="966" y="-194.5" font-family="Helvetica,sans-Serif" font-size="10.00">tds_socket</text>
</a>
</g>
</g>
<!-- Node2&#45;&gt;Node3 -->
<g id="edge10" class="edge"><title>Node2&#45;&gt;Node3</title>
<path fill="none" stroke="#9a32cd" stroke-dasharray="5,2" d="M460.687,-235.099C472.028,-245.867 487.853,-259.323 504,-268 592.427,-315.519 627.723,-301.676 728,-297 812.026,-293.082 844.861,-309.912 914,-262 935.221,-247.294 951.814,-221.133 959.795,-206.897"/>
<polygon fill="#9a32cd" stroke="#9a32cd" points="462.873,-232.341 453.282,-227.84 457.973,-237.34 462.873,-232.341"/>
<text text-anchor="middle" x="693" y="-337" font-family="Helvetica,sans-Serif" font-size="10.00"> param_info</text>
<text text-anchor="middle" x="693" y="-326" font-family="Helvetica,sans-Serif" font-size="10.00">current_results</text>
<text text-anchor="middle" x="693" y="-315" font-family="Helvetica,sans-Serif" font-size="10.00">res_info</text>
<text text-anchor="middle" x="693" y="-304" font-family="Helvetica,sans-Serif" font-size="10.00">comp_info</text>
</g>
<!-- Node7 -->
<g id="node7" class="node"><title>Node7</title>
<g id="a_node7"><a xlink:href="a00118.html" target="_top" xlink:title="Holds information for a dynamic (also called prepared) query. ">
<polygon fill="white" stroke="black" points="564,-141.5 564,-160.5 640,-160.5 640,-141.5 564,-141.5"/>
<text text-anchor="middle" x="602" y="-148.5" font-family="Helvetica,sans-Serif" font-size="10.00">tds_dynamic</text>
</a>
</g>
</g>
<!-- Node2&#45;&gt;Node7 -->
<g id="edge9" class="edge"><title>Node2&#45;&gt;Node7</title>
<path fill="none" stroke="#9a32cd" stroke-dasharray="5,2" d="M475.179,-204.426C484.447,-200.408 494.627,-196.012 504,-192 529.38,-181.137 558.567,-168.825 578.241,-160.552"/>
<polygon fill="#9a32cd" stroke="#9a32cd" points="473.702,-201.251 465.923,-208.444 476.489,-207.672 473.702,-201.251"/>
<text text-anchor="middle" x="525" y="-206" font-family="Helvetica,sans-Serif" font-size="10.00"> res_info</text>
<text text-anchor="middle" x="525" y="-195" font-family="Helvetica,sans-Serif" font-size="10.00">params</text>
</g>
<!-- Node8 -->
<g id="node8" class="node"><title>Node8</title>
<g id="a_node8"><a xlink:href="a00110.html" target="_top" xlink:title="Holds informations about a cursor. ">
<polygon fill="white" stroke="red" points="569,-208.5 569,-227.5 635,-227.5 635,-208.5 569,-208.5"/>
<text text-anchor="middle" x="602" y="-215.5" font-family="Helvetica,sans-Serif" font-size="10.00">tds_cursor</text>
</a>
</g>
</g>
<!-- Node2&#45;&gt;Node8 -->
<g id="edge12" class="edge"><title>Node2&#45;&gt;Node8</title>
<path fill="none" stroke="#9a32cd" stroke-dasharray="5,2" d="M496.105,-218C520.116,-218 547.855,-218 568.776,-218"/>
<polygon fill="#9a32cd" stroke="#9a32cd" points="496.073,-214.5 486.073,-218 496.073,-221.5 496.073,-214.5"/>
<text text-anchor="middle" x="525" y="-221" font-family="Helvetica,sans-Serif" font-size="10.00"> res_info</text>
</g>
<!-- Node3&#45;&gt;Node2 -->
<g id="edge2" class="edge"><title>Node3&#45;&gt;Node2</title>
<path fill="none" stroke="#9a32cd" stroke-dasharray="5,2" d="M946.06,-213.012C936.792,-220.339 925.232,-228.759 914,-235 881.03,-253.319 872.06,-258.989 835,-266 716.655,-288.389 682.271,-288.777 564,-266 525.882,-258.659 484.481,-239.319 461.642,-227.55"/>
<polygon fill="#9a32cd" stroke="#9a32cd" points="948.296,-215.704 953.852,-206.683 943.883,-210.271 948.296,-215.704"/>
<text text-anchor="middle" x="693" y="-285" font-family="Helvetica,sans-Serif" font-size="10.00"> attached_to</text>
</g>
<!-- Node4 -->
<g id="node4" class="node"><title>Node4</title>
<g id="a_node4"><a xlink:href="a00129.html" target="_top" xlink:title="tds_login">
<polygon fill="white" stroke="red" points="323,-365.5 323,-384.5 382,-384.5 382,-365.5 323,-365.5"/>
<text text-anchor="middle" x="352.5" y="-372.5" font-family="Helvetica,sans-Serif" font-size="10.00">tds_login</text>
</a>
</g>
</g>
<!-- Node4&#45;&gt;Node3 -->
<g id="edge3" class="edge"><title>Node4&#45;&gt;Node3</title>
<path fill="none" stroke="#9a32cd" stroke-dasharray="5,2" d="M392.281,-377.499C426.826,-379.509 478.761,-382 524,-382 524,-382 524,-382 791.5,-382 888.592,-382 947.145,-244.751 961.517,-206.686"/>
<polygon fill="#9a32cd" stroke="#9a32cd" points="392.335,-373.996 382.144,-376.894 391.918,-380.984 392.335,-373.996"/>
<text text-anchor="middle" x="602" y="-385" font-family="Helvetica,sans-Serif" font-size="10.00"> login</text>
</g>
<!-- Node5 -->
<g id="node5" class="node"><title>Node5</title>
<g id="a_node5"><a xlink:href="a00117.html" target="_top" xlink:title="Structure to hold a string. ">
<polygon fill="white" stroke="black" points="23,-298.5 23,-317.5 78,-317.5 78,-298.5 23,-298.5"/>
<text text-anchor="middle" x="50.5" y="-305.5" font-family="Helvetica,sans-Serif" font-size="10.00">tds_dstr</text>
</a>
</g>
</g>
<!-- Node5&#45;&gt;Node4 -->
<g id="edge4" class="edge"><title>Node5&#45;&gt;Node4</title>
<path fill="none" stroke="#9a32cd" stroke-dasharray="5,2" d="M87.987,-316.149C148.381,-329.637 267.895,-356.328 322.752,-368.58"/>
<polygon fill="#9a32cd" stroke="#9a32cd" points="88.6455,-312.71 78.123,-313.946 87.1197,-319.541 88.6455,-312.71"/>
<text text-anchor="middle" x="168" y="-468" font-family="Helvetica,sans-Serif" font-size="10.00"> server_realm_name</text>
<text text-anchor="middle" x="168" y="-457" font-family="Helvetica,sans-Serif" font-size="10.00">password</text>
<text text-anchor="middle" x="168" y="-446" font-family="Helvetica,sans-Serif" font-size="10.00">server_name</text>
<text text-anchor="middle" x="168" y="-435" font-family="Helvetica,sans-Serif" font-size="10.00">dump_file</text>
<text text-anchor="middle" x="168" y="-424" font-family="Helvetica,sans-Serif" font-size="10.00">library</text>
<text text-anchor="middle" x="168" y="-413" font-family="Helvetica,sans-Serif" font-size="10.00">crlfile</text>
<text text-anchor="middle" x="168" y="-402" font-family="Helvetica,sans-Serif" font-size="10.00">server_spn</text>
<text text-anchor="start" x="119" y="-391" font-family="Helvetica,sans-Serif" font-size="10.00">client_host</text>
<text text-anchor="middle" x="168" y="-380" font-family="Helvetica,sans-Serif" font-size="10.00">_name</text>
<text text-anchor="middle" x="168" y="-369" font-family="Helvetica,sans-Serif" font-size="10.00">client_charset</text>
<text text-anchor="middle" x="168" y="-358" font-family="Helvetica,sans-Serif" font-size="10.00">server_charset</text>
<text text-anchor="middle" x="168" y="-347" font-family="Helvetica,sans-Serif" font-size="10.00">...</text>
</g>
<!-- Node12 -->
<g id="node12" class="node"><title>Node12</title>
<g id="a_node12"><a xlink:href="a00104.html" target="_top" xlink:title="Metadata about columns in regular and compute rows. ">
<polygon fill="white" stroke="black" points="235,-208.5 235,-227.5 305,-227.5 305,-208.5 235,-208.5"/>
<text text-anchor="middle" x="270" y="-215.5" font-family="Helvetica,sans-Serif" font-size="10.00">tds_column</text>
</a>
</g>
</g>
<!-- Node5&#45;&gt;Node12 -->
<g id="edge21" class="edge"><title>Node5&#45;&gt;Node12</title>
<path fill="none" stroke="#9a32cd" stroke-dasharray="5,2" d="M87.7329,-295.566C121.593,-283.629 173.335,-264.569 217,-245 228.882,-239.675 241.882,-232.925 251.911,-227.506"/>
<polygon fill="#9a32cd" stroke="#9a32cd" points="86.5341,-292.278 78.2535,-298.887 88.8483,-298.884 86.5341,-292.278"/>
<text text-anchor="middle" x="168" y="-309" font-family="Helvetica,sans-Serif" font-size="10.00"> column_name</text>
<text text-anchor="middle" x="168" y="-298" font-family="Helvetica,sans-Serif" font-size="10.00">table_name</text>
<text text-anchor="middle" x="168" y="-287" font-family="Helvetica,sans-Serif" font-size="10.00">table_column_name</text>
</g>
<!-- Node6 -->
<g id="node6" class="node"><title>Node6</title>
<g id="a_node6"><a xlink:href="a00138.html" target="_top" xlink:title="tds_packet">
<polygon fill="white" stroke="black" points="756.5,-208.5 756.5,-227.5 824.5,-227.5 824.5,-208.5 756.5,-208.5"/>
<text text-anchor="middle" x="790.5" y="-215.5" font-family="Helvetica,sans-Serif" font-size="10.00">tds_packet</text>
</a>
</g>
</g>
<!-- Node6&#45;&gt;Node3 -->
<g id="edge5" class="edge"><title>Node6&#45;&gt;Node3</title>
<path fill="none" stroke="#9a32cd" stroke-dasharray="5,2" d="M834.741,-212.766C864.779,-209.131 904.208,-204.358 931.786,-201.02"/>
<polygon fill="#9a32cd" stroke="#9a32cd" points="834.049,-209.324 824.542,-214.001 834.891,-216.274 834.049,-209.324"/>
<text text-anchor="middle" x="883.5" y="-223" font-family="Helvetica,sans-Serif" font-size="10.00"> recv_packet</text>
<text text-anchor="middle" x="883.5" y="-212" font-family="Helvetica,sans-Serif" font-size="10.00">send_packet</text>
</g>
<!-- Node6&#45;&gt;Node6 -->
<g id="edge6" class="edge"><title>Node6&#45;&gt;Node6</title>
<path fill="none" stroke="#9a32cd" stroke-dasharray="5,2" d="M773.464,-237.4C774.602,-242.315 780.28,-246 790.5,-246 806.852,-246 811.578,-236.565 804.68,-227.757"/>
<polygon fill="#9a32cd" stroke="#9a32cd" points="776.836,-238.339 776.32,-227.757 770.124,-236.351 776.836,-238.339"/>
<text text-anchor="middle" x="790.5" y="-249" font-family="Helvetica,sans-Serif" font-size="10.00"> next</text>
</g>
<!-- Node7&#45;&gt;Node3 -->
<g id="edge7" class="edge"><title>Node7&#45;&gt;Node3</title>
<path fill="none" stroke="#9a32cd" stroke-dasharray="5,2" d="M634.377,-136.158C636.342,-134.845 638.236,-133.458 640,-132 650.006,-123.732 646.779,-115.525 658,-109 726.188,-69.3485 757.744,-80.0812 835,-96 872.438,-103.714 883.88,-106.464 914,-130 934.734,-146.201 951.524,-172.743 959.666,-187.075"/>
<polygon fill="#9a32cd" stroke="#9a32cd" points="632.312,-133.313 625.491,-141.42 635.879,-139.336 632.312,-133.313"/>
<text text-anchor="middle" x="790.5" y="-99" font-family="Helvetica,sans-Serif" font-size="10.00"> cur_dyn</text>
</g>
<!-- Node7&#45;&gt;Node7 -->
<g id="edge8" class="edge"><title>Node7&#45;&gt;Node7</title>
<path fill="none" stroke="#9a32cd" stroke-dasharray="5,2" d="M588.004,-170.766C589.103,-175.497 593.769,-179 602,-179 615.508,-179 619.412,-169.565 613.714,-160.757"/>
<polygon fill="#9a32cd" stroke="#9a32cd" points="591.476,-171.285 590.286,-160.757 584.651,-169.729 591.476,-171.285"/>
<text text-anchor="middle" x="602" y="-182" font-family="Helvetica,sans-Serif" font-size="10.00"> next</text>
</g>
<!-- Node9 -->
<g id="node9" class="node"><title>Node9</title>
<g id="a_node9"><a xlink:href="a00108.html" target="_top" xlink:title="tds_connection">
<polygon fill="white" stroke="red" points="746,-116.5 746,-135.5 835,-135.5 835,-116.5 746,-116.5"/>
<text text-anchor="middle" x="790.5" y="-123.5" font-family="Helvetica,sans-Serif" font-size="10.00">tds_connection</text>
</a>
</g>
</g>
<!-- Node7&#45;&gt;Node9 -->
<g id="edge15" class="edge"><title>Node7&#45;&gt;Node9</title>
<path fill="none" stroke="#9a32cd" stroke-dasharray="5,2" d="M631.733,-136.654C634.55,-135.126 637.346,-133.559 640,-132 648.29,-127.129 648.798,-122.786 658,-120 686.435,-111.391 719.901,-113.072 745.956,-116.813"/>
<polygon fill="#9a32cd" stroke="#9a32cd" points="630.03,-133.596 622.811,-141.351 633.29,-139.79 630.03,-133.596"/>
<text text-anchor="middle" x="693" y="-123" font-family="Helvetica,sans-Serif" font-size="10.00"> dyns</text>
</g>
<!-- Node8&#45;&gt;Node3 -->
<g id="edge11" class="edge"><title>Node8&#45;&gt;Node3</title>
<path fill="none" stroke="#9a32cd" stroke-dasharray="5,2" d="M645.02,-206.792C673.322,-199.837 711.618,-191.568 746,-188 785.344,-183.917 795.468,-186.633 835,-188 868.011,-189.141 905.652,-191.908 931.905,-194.075"/>
<polygon fill="#9a32cd" stroke="#9a32cd" points="643.921,-203.459 635.071,-209.284 645.622,-210.25 643.921,-203.459"/>
<text text-anchor="middle" x="790.5" y="-191" font-family="Helvetica,sans-Serif" font-size="10.00"> cur_cursor</text>
</g>
<!-- Node8&#45;&gt;Node8 -->
<g id="edge13" class="edge"><title>Node8&#45;&gt;Node8</title>
<path fill="none" stroke="#9a32cd" stroke-dasharray="5,2" d="M588.004,-237.766C589.103,-242.497 593.769,-246 602,-246 615.508,-246 619.412,-236.565 613.714,-227.757"/>
<polygon fill="#9a32cd" stroke="#9a32cd" points="591.476,-238.285 590.286,-227.757 584.651,-236.729 591.476,-238.285"/>
<text text-anchor="middle" x="602" y="-249" font-family="Helvetica,sans-Serif" font-size="10.00"> next</text>
</g>
<!-- Node8&#45;&gt;Node9 -->
<g id="edge17" class="edge"><title>Node8&#45;&gt;Node9</title>
<path fill="none" stroke="#9a32cd" stroke-dasharray="5,2" d="M636.201,-202.636C637.554,-201.496 638.83,-200.285 640,-199 654.5,-183.07 641.525,-167.878 658,-154 671.166,-142.91 712.815,-135.304 745.754,-130.849"/>
<polygon fill="#9a32cd" stroke="#9a32cd" points="634.075,-199.85 627.825,-208.405 638.046,-205.615 634.075,-199.85"/>
<text text-anchor="middle" x="693" y="-157" font-family="Helvetica,sans-Serif" font-size="10.00"> cursors</text>
</g>
<!-- Node9&#45;&gt;Node3 -->
<g id="edge14" class="edge"><title>Node9&#45;&gt;Node3</title>
<path fill="none" stroke="#9a32cd" stroke-dasharray="5,2" d="M845.076,-132.567C867.23,-136.704 892.668,-143.362 914,-154 930.79,-162.373 946.753,-177.368 956.212,-187.252"/>
<polygon fill="#9a32cd" stroke="#9a32cd" points="845.608,-129.107 835.155,-130.838 844.406,-136.003 845.608,-129.107"/>
<text text-anchor="middle" x="883.5" y="-157" font-family="Helvetica,sans-Serif" font-size="10.00"> conn</text>
</g>
<!-- Node10 -->
<g id="node10" class="node"><title>Node10</title>
<g id="a_node10"><a xlink:href="a00161.html" target="_top" xlink:title="tdsiconvinfo">
<polygon fill="white" stroke="red" points="14,-108.5 14,-127.5 87,-127.5 87,-108.5 14,-108.5"/>
<text text-anchor="middle" x="50.5" y="-115.5" font-family="Helvetica,sans-Serif" font-size="10.00">tdsiconvinfo</text>
</a>
</g>
</g>
<!-- Node10&#45;&gt;Node9 -->
<g id="edge16" class="edge"><title>Node10&#45;&gt;Node9</title>
<path fill="none" stroke="#9a32cd" stroke-dasharray="5,2" d="M90.5004,-105.514C133.678,-92.8174 205.571,-75 269,-75 269,-75 269,-75 526,-75 612.202,-75 711.423,-101.634 759.829,-116.407"/>
<polygon fill="#9a32cd" stroke="#9a32cd" points="89.2616,-102.231 80.6888,-108.457 91.2728,-108.936 89.2616,-102.231"/>
<text text-anchor="middle" x="443" y="-78" font-family="Helvetica,sans-Serif" font-size="10.00"> char_convs</text>
</g>
<!-- Node10&#45;&gt;Node12 -->
<g id="edge20" class="edge"><title>Node10&#45;&gt;Node12</title>
<path fill="none" stroke="#9a32cd" stroke-dasharray="5,2" d="M89.9832,-130.878C124.154,-142.887 175.03,-162.189 217,-184 230.782,-191.162 245.513,-201.025 255.764,-208.284"/>
<polygon fill="#9a32cd" stroke="#9a32cd" points="90.9719,-127.517 80.3771,-127.54 88.6739,-134.129 90.9719,-127.517"/>
<text text-anchor="middle" x="168" y="-187" font-family="Helvetica,sans-Serif" font-size="10.00"> char_conv</text>
</g>
<!-- Node11 -->
<g id="node11" class="node"><title>Node11</title>
<g id="a_node11"><a xlink:href="a00134.html" target="_top" xlink:title="tds_mutex">
<polygon fill="white" stroke="black" points="758,-0.5 758,-19.5 823,-19.5 823,-0.5 758,-0.5"/>
<text text-anchor="middle" x="790.5" y="-7.5" font-family="Helvetica,sans-Serif" font-size="10.00">tds_mutex</text>
</a>
</g>
</g>
<!-- Node11&#45;&gt;Node3 -->
<g id="edge18" class="edge"><title>Node11&#45;&gt;Node3</title>
<path fill="none" stroke="#9a32cd" stroke-dasharray="5,2" d="M833.285,-6.74995C859.435,-7.00336 892.184,-11.8178 914,-31 961.773,-73.006 965.441,-158.538 965.255,-187.309"/>
<polygon fill="#9a32cd" stroke="#9a32cd" points="833.22,-3.25038 823.261,-6.86721 833.302,-10.2499 833.22,-3.25038"/>
<text text-anchor="middle" x="883.5" y="-34" font-family="Helvetica,sans-Serif" font-size="10.00"> wire_mtx</text>
</g>
<!-- Node12&#45;&gt;Node2 -->
<g id="edge19" class="edge"><title>Node12&#45;&gt;Node2</title>
<path fill="none" stroke="#9a32cd" stroke-dasharray="5,2" d="M315.211,-218C341.347,-218 374.257,-218 399.998,-218"/>
<polygon fill="#9a32cd" stroke="#9a32cd" points="315.193,-214.5 305.193,-218 315.193,-221.5 315.193,-214.5"/>
<text text-anchor="middle" x="352.5" y="-221" font-family="Helvetica,sans-Serif" font-size="10.00"> columns</text>
</g>
<!-- Node13 -->
<g id="node13" class="node"><title>Node13</title>
<g id="a_node13"><a xlink:href="a00105.html" target="_top" xlink:title="tds_column_funcs">
<polygon fill="white" stroke="black" points="0,-227.5 0,-246.5 101,-246.5 101,-227.5 0,-227.5"/>
<text text-anchor="middle" x="50.5" y="-234.5" font-family="Helvetica,sans-Serif" font-size="10.00">tds_column_funcs</text>
</a>
</g>
</g>
<!-- Node13&#45;&gt;Node12 -->
<g id="edge22" class="edge"><title>Node13&#45;&gt;Node12</title>
<path fill="none" stroke="#9a32cd" stroke-dasharray="5,2" d="M111.234,-231.782C150.975,-228.31 201.758,-223.874 234.815,-220.986"/>
<polygon fill="#9a32cd" stroke="#9a32cd" points="110.784,-228.308 101.126,-232.665 111.393,-235.281 110.784,-228.308"/>
<text text-anchor="middle" x="168" y="-233" font-family="Helvetica,sans-Serif" font-size="10.00"> funcs</text>
</g>
<!-- Node14 -->
<g id="node14" class="node"><title>Node14</title>
<g id="a_node14"><a xlink:href="a00099.html" target="_top" xlink:title="tds_bcpcoldata">
<polygon fill="white" stroke="black" points="6.5,-189.5 6.5,-208.5 94.5,-208.5 94.5,-189.5 6.5,-189.5"/>
<text text-anchor="middle" x="50.5" y="-196.5" font-family="Helvetica,sans-Serif" font-size="10.00">tds_bcpcoldata</text>
</a>
</g>
</g>
<!-- Node14&#45;&gt;Node12 -->
<g id="edge23" class="edge"><title>Node14&#45;&gt;Node12</title>
<path fill="none" stroke="#9a32cd" stroke-dasharray="5,2" d="M104.729,-199.411C137.269,-200.198 179.672,-202.181 217,-207 222.766,-207.744 228.843,-208.788 234.729,-209.94"/>
<polygon fill="#9a32cd" stroke="#9a32cd" points="104.602,-195.908 94.5298,-199.196 104.454,-202.906 104.602,-195.908"/>
<text text-anchor="middle" x="168" y="-210" font-family="Helvetica,sans-Serif" font-size="10.00"> bcp_column_data</text>
</g>
</g>
</svg>
