<?xml version="1.0" encoding="UTF-8" standalone="no"?>
<!DOCTYPE svg PUBLIC "-//W3C//DTD SVG 1.1//EN"
 "http://www.w3.org/Graphics/SVG/1.1/DTD/svg11.dtd">
<!-- Generated by graphviz version 2.38.0 (20140413.2041)
 -->
<!-- Title: tds_pool_member Pages: 1 -->
<svg width="543pt" height="351pt"
 viewBox="0.00 0.00 542.50 351.00" xmlns="http://www.w3.org/2000/svg" xmlns:xlink="http://www.w3.org/1999/xlink">
<g id="graph0" class="graph" transform="scale(1 1) rotate(0) translate(4 347)">
<title>tds_pool_member</title>
<polygon fill="white" stroke="none" points="-4,4 -4,-347 538.5,-347 538.5,4 -4,4"/>
<!-- Node1 -->
<g id="node1" class="node"><title>Node1</title>
<polygon fill="#bfbfbf" stroke="black" points="95,-145.5 95,-164.5 196,-164.5 196,-145.5 95,-145.5"/>
<text text-anchor="middle" x="145.5" y="-152.5" font-family="Helvetica,sans-Serif" font-size="10.00">tds_pool_member</text>
</g>
<!-- Node2 -->
<g id="node2" class="node"><title>Node2</title>
<g id="a_node2"><a xlink:href="a00143.html" target="_top" xlink:title="tds_pool_user">
<polygon fill="white" stroke="black" points="0,-67.5 0,-86.5 83,-86.5 83,-67.5 0,-67.5"/>
<text text-anchor="middle" x="41.5" y="-74.5" font-family="Helvetica,sans-Serif" font-size="10.00">tds_pool_user</text>
</a>
</g>
</g>
<!-- Node1&#45;&gt;Node2 -->
<g id="edge2" class="edge"><title>Node1&#45;&gt;Node2</title>
<path fill="none" stroke="#9a32cd" stroke-dasharray="5,2" d="M84.8771,-145.327C64.2249,-141.037 44.751,-135.024 38.5,-127 29.4912,-115.436 33.9422,-97.2914 37.8331,-86.6295"/>
<polygon fill="#9a32cd" stroke="#9a32cd" points="84.2468,-148.769 94.7301,-147.236 85.5787,-141.897 84.2468,-148.769"/>
<text text-anchor="middle" x="83.5" y="-113.5" font-family="Helvetica,sans-Serif" font-size="10.00"> assigned_member</text>
</g>
<!-- Node2&#45;&gt;Node1 -->
<g id="edge1" class="edge"><title>Node2&#45;&gt;Node1</title>
<path fill="none" stroke="#9a32cd" stroke-dasharray="5,2" d="M93.1574,-83.7844C107.533,-87.7218 122.051,-94.2429 132.5,-105 143.047,-115.859 145.29,-134.246 145.626,-145.143"/>
<polygon fill="#9a32cd" stroke="#9a32cd" points="93.817,-80.3439 83.2801,-81.4509 92.2075,-87.1564 93.817,-80.3439"/>
<text text-anchor="middle" x="175" y="-113.5" font-family="Helvetica,sans-Serif" font-size="10.00"> current_user</text>
</g>
<!-- Node3 -->
<g id="node3" class="node"><title>Node3</title>
<g id="a_node3"><a xlink:href="a00148.html" target="_top" xlink:title="Information for a server connection. ">
<polygon fill="white" stroke="black" points="231.5,-245.5 231.5,-264.5 299.5,-264.5 299.5,-245.5 231.5,-245.5"/>
<text text-anchor="middle" x="265.5" y="-252.5" font-family="Helvetica,sans-Serif" font-size="10.00">tds_socket</text>
</a>
</g>
</g>
<!-- Node3&#45;&gt;Node1 -->
<g id="edge19" class="edge"><title>Node3&#45;&gt;Node1</title>
<path fill="none" stroke="#9a32cd" stroke-dasharray="5,2" d="M226.641,-241.704C217.562,-237.819 208.281,-232.949 200.5,-227 177.212,-209.197 158.466,-179.251 150.151,-164.599"/>
<polygon fill="#9a32cd" stroke="#9a32cd" points="225.371,-244.965 235.957,-245.398 227.952,-238.458 225.371,-244.965"/>
<text text-anchor="middle" x="209.5" y="-202.5" font-family="Helvetica,sans-Serif" font-size="10.00"> tds</text>
</g>
<!-- Node3&#45;&gt;Node2 -->
<g id="edge3" class="edge"><title>Node3&#45;&gt;Node2</title>
<path fill="none" stroke="#9a32cd" stroke-dasharray="5,2" d="M221.256,-246.479C201.512,-242.21 178.29,-235.9 158.5,-227 113.867,-206.927 105.19,-196.217 67.5,-165 49.1056,-149.765 38.6402,-149.066 29.5,-127 23.8692,-113.406 30.7968,-96.5516 36.2249,-86.5705"/>
<polygon fill="#9a32cd" stroke="#9a32cd" points="220.727,-249.944 231.227,-248.529 222.137,-243.087 220.727,-249.944"/>
<text text-anchor="middle" x="76.5" y="-152.5" font-family="Helvetica,sans-Serif" font-size="10.00"> tds</text>
</g>
<!-- Node7 -->
<g id="node7" class="node"><title>Node7</title>
<g id="a_node7"><a xlink:href="a00144.html" target="_top" xlink:title="Hold information for any results. ">
<polygon fill="white" stroke="red" points="301.5,-145.5 301.5,-164.5 387.5,-164.5 387.5,-145.5 301.5,-145.5"/>
<text text-anchor="middle" x="344.5" y="-152.5" font-family="Helvetica,sans-Serif" font-size="10.00">tds_result_info</text>
</a>
</g>
</g>
<!-- Node3&#45;&gt;Node7 -->
<g id="edge10" class="edge"><title>Node3&#45;&gt;Node7</title>
<path fill="none" stroke="#9a32cd" stroke-dasharray="5,2" d="M309.307,-245.698C319.679,-241.699 329.692,-235.775 336.5,-227 350.642,-208.77 348.457,-179.55 346.205,-164.934"/>
<polygon fill="#9a32cd" stroke="#9a32cd" points="308.157,-242.391 299.763,-248.855 310.356,-249.037 308.157,-242.391"/>
<text text-anchor="middle" x="378.5" y="-202.5" font-family="Helvetica,sans-Serif" font-size="10.00"> attached_to</text>
</g>
<!-- Node4 -->
<g id="node4" class="node"><title>Node4</title>
<g id="a_node4"><a xlink:href="a00129.html" target="_top" xlink:title="tds_login">
<polygon fill="white" stroke="red" points="154,-323.5 154,-342.5 213,-342.5 213,-323.5 154,-323.5"/>
<text text-anchor="middle" x="183.5" y="-330.5" font-family="Helvetica,sans-Serif" font-size="10.00">tds_login</text>
</a>
</g>
</g>
<!-- Node4&#45;&gt;Node3 -->
<g id="edge4" class="edge"><title>Node4&#45;&gt;Node3</title>
<path fill="none" stroke="#9a32cd" stroke-dasharray="5,2" d="M200.04,-316.231C210.214,-306.578 223.548,-294.007 235.5,-283 242.201,-276.829 249.832,-269.963 255.721,-264.699"/>
<polygon fill="#9a32cd" stroke="#9a32cd" points="197.481,-313.835 192.646,-323.262 202.305,-318.908 197.481,-313.835"/>
<text text-anchor="middle" x="248.5" y="-291.5" font-family="Helvetica,sans-Serif" font-size="10.00"> login</text>
</g>
<!-- Node5 -->
<g id="node5" class="node"><title>Node5</title>
<g id="a_node5"><a xlink:href="a00138.html" target="_top" xlink:title="tds_packet">
<polygon fill="white" stroke="black" points="231.5,-323.5 231.5,-342.5 299.5,-342.5 299.5,-323.5 231.5,-323.5"/>
<text text-anchor="middle" x="265.5" y="-330.5" font-family="Helvetica,sans-Serif" font-size="10.00">tds_packet</text>
</a>
</g>
</g>
<!-- Node5&#45;&gt;Node3 -->
<g id="edge5" class="edge"><title>Node5&#45;&gt;Node3</title>
<path fill="none" stroke="#9a32cd" stroke-dasharray="5,2" d="M265.5,-313.224C265.5,-297.697 265.5,-276.358 265.5,-264.616"/>
<polygon fill="#9a32cd" stroke="#9a32cd" points="262,-313.282 265.5,-323.282 269,-313.282 262,-313.282"/>
<text text-anchor="middle" x="296" y="-297" font-family="Helvetica,sans-Serif" font-size="10.00"> recv_packet</text>
<text text-anchor="middle" x="296" y="-286" font-family="Helvetica,sans-Serif" font-size="10.00">send_packet</text>
</g>
<!-- Node5&#45;&gt;Node5 -->
<g id="edge6" class="edge"><title>Node5&#45;&gt;Node5</title>
<path fill="none" stroke="#9a32cd" stroke-dasharray="5,2" d="M309.648,-338.96C314.425,-337.816 317.5,-335.83 317.5,-333 317.5,-328.473 309.627,-326.103 299.508,-325.891"/>
<polygon fill="#9a32cd" stroke="#9a32cd" points="309.051,-335.506 299.508,-340.109 309.839,-342.461 309.051,-335.506"/>
<text text-anchor="middle" x="329.5" y="-330.5" font-family="Helvetica,sans-Serif" font-size="10.00"> next</text>
</g>
<!-- Node6 -->
<g id="node6" class="node"><title>Node6</title>
<g id="a_node6"><a xlink:href="a00118.html" target="_top" xlink:title="Holds information for a dynamic (also called prepared) query. ">
<polygon fill="white" stroke="black" points="242.5,-67.5 242.5,-86.5 318.5,-86.5 318.5,-67.5 242.5,-67.5"/>
<text text-anchor="middle" x="280.5" y="-74.5" font-family="Helvetica,sans-Serif" font-size="10.00">tds_dynamic</text>
</a>
</g>
</g>
<!-- Node6&#45;&gt;Node3 -->
<g id="edge7" class="edge"><title>Node6&#45;&gt;Node3</title>
<path fill="none" stroke="#9a32cd" stroke-dasharray="5,2" d="M270.518,-95.5845C263.655,-108.73 255.147,-127.395 251.5,-145 244.108,-180.687 242.866,-191.593 251.5,-227 253.101,-233.566 256.601,-240.316 259.701,-245.425"/>
<polygon fill="#9a32cd" stroke="#9a32cd" points="273.638,-97.1742 275.338,-86.7167 267.488,-93.8313 273.638,-97.1742"/>
<text text-anchor="middle" x="272" y="-152.5" font-family="Helvetica,sans-Serif" font-size="10.00"> cur_dyn</text>
</g>
<!-- Node6&#45;&gt;Node6 -->
<g id="edge8" class="edge"><title>Node6&#45;&gt;Node6</title>
<path fill="none" stroke="#9a32cd" stroke-dasharray="5,2" d="M328.789,-81.872C333.506,-80.8896 336.5,-79.2656 336.5,-77 336.5,-73.375 328.835,-71.3926 318.714,-71.0527"/>
<polygon fill="#9a32cd" stroke="#9a32cd" points="328.286,-78.4057 318.714,-82.9473 329.029,-85.3662 328.286,-78.4057"/>
<text text-anchor="middle" x="348.5" y="-74.5" font-family="Helvetica,sans-Serif" font-size="10.00"> next</text>
</g>
<!-- Node9 -->
<g id="node9" class="node"><title>Node9</title>
<g id="a_node9"><a xlink:href="a00108.html" target="_top" xlink:title="tds_connection">
<polygon fill="white" stroke="red" points="367,-0.5 367,-19.5 456,-19.5 456,-0.5 367,-0.5"/>
<text text-anchor="middle" x="411.5" y="-7.5" font-family="Helvetica,sans-Serif" font-size="10.00">tds_connection</text>
</a>
</g>
</g>
<!-- Node6&#45;&gt;Node9 -->
<g id="edge16" class="edge"><title>Node6&#45;&gt;Node9</title>
<path fill="none" stroke="#9a32cd" stroke-dasharray="5,2" d="M307.156,-62.7739C333.102,-49.8999 371.78,-30.7086 394.032,-19.6672"/>
<polygon fill="#9a32cd" stroke="#9a32cd" points="305.298,-59.7884 297.896,-67.3685 308.409,-66.059 305.298,-59.7884"/>
<text text-anchor="middle" x="367.5" y="-41" font-family="Helvetica,sans-Serif" font-size="10.00"> dyns</text>
</g>
<!-- Node7&#45;&gt;Node3 -->
<g id="edge11" class="edge"><title>Node7&#45;&gt;Node3</title>
<path fill="none" stroke="#9a32cd" stroke-dasharray="5,2" d="M291.684,-162.892C280.297,-166.933 269.57,-173.229 262.5,-183 249.048,-201.591 256.727,-230.648 261.932,-245.148"/>
<polygon fill="#9a32cd" stroke="#9a32cd" points="292.762,-166.223 301.338,-160.002 290.755,-159.517 292.762,-166.223"/>
<text text-anchor="middle" x="297.5" y="-219" font-family="Helvetica,sans-Serif" font-size="10.00"> param_info</text>
<text text-anchor="middle" x="297.5" y="-208" font-family="Helvetica,sans-Serif" font-size="10.00">current_results</text>
<text text-anchor="middle" x="297.5" y="-197" font-family="Helvetica,sans-Serif" font-size="10.00">res_info</text>
<text text-anchor="middle" x="297.5" y="-186" font-family="Helvetica,sans-Serif" font-size="10.00">comp_info</text>
</g>
<!-- Node7&#45;&gt;Node6 -->
<g id="edge9" class="edge"><title>Node7&#45;&gt;Node6</title>
<path fill="none" stroke="#9a32cd" stroke-dasharray="5,2" d="M319.099,-139.79C313.849,-136.087 308.658,-131.777 304.5,-127 293.927,-114.854 286.813,-97.2312 283.226,-86.7619"/>
<polygon fill="#9a32cd" stroke="#9a32cd" points="317.52,-142.937 327.82,-145.422 321.318,-137.057 317.52,-142.937"/>
<text text-anchor="middle" x="325.5" y="-119" font-family="Helvetica,sans-Serif" font-size="10.00"> res_info</text>
<text text-anchor="middle" x="325.5" y="-108" font-family="Helvetica,sans-Serif" font-size="10.00">params</text>
</g>
<!-- Node8 -->
<g id="node8" class="node"><title>Node8</title>
<g id="a_node8"><a xlink:href="a00110.html" target="_top" xlink:title="Holds informations about a cursor. ">
<polygon fill="white" stroke="red" points="378.5,-67.5 378.5,-86.5 444.5,-86.5 444.5,-67.5 378.5,-67.5"/>
<text text-anchor="middle" x="411.5" y="-74.5" font-family="Helvetica,sans-Serif" font-size="10.00">tds_cursor</text>
</a>
</g>
</g>
<!-- Node7&#45;&gt;Node8 -->
<g id="edge13" class="edge"><title>Node7&#45;&gt;Node8</title>
<path fill="none" stroke="#9a32cd" stroke-dasharray="5,2" d="M354.387,-136.614C360.403,-126.794 368.623,-114.602 377.5,-105 383.845,-98.1369 392.02,-91.5877 398.764,-86.6585"/>
<polygon fill="#9a32cd" stroke="#9a32cd" points="351.234,-135.07 349.163,-145.46 357.262,-138.629 351.234,-135.07"/>
<text text-anchor="middle" x="398.5" y="-113.5" font-family="Helvetica,sans-Serif" font-size="10.00"> res_info</text>
</g>
<!-- Node8&#45;&gt;Node3 -->
<g id="edge12" class="edge"><title>Node8&#45;&gt;Node3</title>
<path fill="none" stroke="#9a32cd" stroke-dasharray="5,2" d="M418.561,-96.3533C429.206,-127.482 444.889,-190.773 412.5,-227 397.886,-243.346 338.504,-249.877 299.83,-252.428"/>
<polygon fill="#9a32cd" stroke="#9a32cd" points="421.79,-94.9906 415.092,-86.7809 415.208,-97.3751 421.79,-94.9906"/>
<text text-anchor="middle" x="459" y="-152.5" font-family="Helvetica,sans-Serif" font-size="10.00"> cur_cursor</text>
</g>
<!-- Node8&#45;&gt;Node8 -->
<g id="edge14" class="edge"><title>Node8&#45;&gt;Node8</title>
<path fill="none" stroke="#9a32cd" stroke-dasharray="5,2" d="M455.147,-81.9457C459.633,-80.9718 462.5,-79.3232 462.5,-77 462.5,-73.1875 454.778,-71.1919 444.854,-71.0132"/>
<polygon fill="#9a32cd" stroke="#9a32cd" points="454.451,-78.4981 444.854,-82.9868 455.156,-85.4625 454.451,-78.4981"/>
<text text-anchor="middle" x="474.5" y="-74.5" font-family="Helvetica,sans-Serif" font-size="10.00"> next</text>
</g>
<!-- Node8&#45;&gt;Node9 -->
<g id="edge17" class="edge"><title>Node8&#45;&gt;Node9</title>
<path fill="none" stroke="#9a32cd" stroke-dasharray="5,2" d="M411.5,-57.037C411.5,-44.6703 411.5,-29.1198 411.5,-19.6273"/>
<polygon fill="#9a32cd" stroke="#9a32cd" points="408,-57.2338 411.5,-67.2338 415,-57.2338 408,-57.2338"/>
<text text-anchor="middle" x="430.5" y="-41" font-family="Helvetica,sans-Serif" font-size="10.00"> cursors</text>
</g>
<!-- Node9&#45;&gt;Node3 -->
<g id="edge15" class="edge"><title>Node9&#45;&gt;Node3</title>
<path fill="none" stroke="#9a32cd" stroke-dasharray="5,2" d="M444.808,-23.6745C463.407,-32.6915 484.91,-46.8192 495.5,-67 515.776,-105.64 506.172,-124.673 489.5,-165 475.649,-198.501 468.137,-209.301 436.5,-227 413.614,-239.803 342.476,-247.697 299.5,-251.426"/>
<polygon fill="#9a32cd" stroke="#9a32cd" points="446.249,-20.485 435.697,-19.5373 443.355,-26.8587 446.249,-20.485"/>
<text text-anchor="middle" x="521" y="-113.5" font-family="Helvetica,sans-Serif" font-size="10.00"> conn</text>
</g>
<!-- Node10 -->
<g id="node10" class="node"><title>Node10</title>
<g id="a_node10"><a xlink:href="a00134.html" target="_top" xlink:title="tds_mutex">
<polygon fill="white" stroke="black" points="360,-323.5 360,-342.5 425,-342.5 425,-323.5 360,-323.5"/>
<text text-anchor="middle" x="392.5" y="-330.5" font-family="Helvetica,sans-Serif" font-size="10.00">tds_mutex</text>
</a>
</g>
</g>
<!-- Node10&#45;&gt;Node3 -->
<g id="edge18" class="edge"><title>Node10&#45;&gt;Node3</title>
<path fill="none" stroke="#9a32cd" stroke-dasharray="5,2" d="M375.635,-316.571C363.663,-306.161 346.872,-292.62 330.5,-283 317.963,-275.633 303.036,-269.281 290.651,-264.592"/>
<polygon fill="#9a32cd" stroke="#9a32cd" points="373.627,-319.468 383.426,-323.497 378.278,-314.237 373.627,-319.468"/>
<text text-anchor="middle" x="384.5" y="-291.5" font-family="Helvetica,sans-Serif" font-size="10.00"> wire_mtx</text>
</g>
</g>
</svg>
