<?xml version="1.0" encoding="UTF-8" standalone="no"?>
<!DOCTYPE svg PUBLIC "-//W3C//DTD SVG 1.1//EN"
 "http://www.w3.org/Graphics/SVG/1.1/DTD/svg11.dtd">
<!-- Generated by graphviz version 2.38.0 (20140413.2041)
 -->
<!-- Title: tds_pool_user Pages: 1 -->
<svg width="552pt" height="351pt"
 viewBox="0.00 0.00 551.50 351.00" xmlns="http://www.w3.org/2000/svg" xmlns:xlink="http://www.w3.org/1999/xlink">
<g id="graph0" class="graph" transform="scale(1 1) rotate(0) translate(4 347)">
<title>tds_pool_user</title>
<polygon fill="white" stroke="none" points="-4,4 -4,-347 547.5,-347 547.5,4 -4,4"/>
<!-- Node1 -->
<g id="node1" class="node"><title>Node1</title>
<polygon fill="#bfbfbf" stroke="black" points="95,-145.5 95,-164.5 178,-164.5 178,-145.5 95,-145.5"/>
<text text-anchor="middle" x="136.5" y="-152.5" font-family="Helvetica,sans-Serif" font-size="10.00">tds_pool_user</text>
</g>
<!-- Node2 -->
<g id="node2" class="node"><title>Node2</title>
<g id="a_node2"><a xlink:href="a00142.html" target="_top" xlink:title="tds_pool_member">
<polygon fill="white" stroke="black" points="0,-67.5 0,-86.5 101,-86.5 101,-67.5 0,-67.5"/>
<text text-anchor="middle" x="50.5" y="-74.5" font-family="Helvetica,sans-Serif" font-size="10.00">tds_pool_member</text>
</a>
</g>
</g>
<!-- Node1&#45;&gt;Node2 -->
<g id="edge2" class="edge"><title>Node1&#45;&gt;Node2</title>
<path fill="none" stroke="#9a32cd" stroke-dasharray="5,2" d="M84.9076,-149.724C70.5224,-145.867 56.4091,-139.013 47.5,-127 38.7676,-115.225 43.1236,-97.1535 46.9224,-86.5616"/>
<polygon fill="#9a32cd" stroke="#9a32cd" points="84.3273,-153.18 94.8495,-151.941 85.8512,-146.348 84.3273,-153.18"/>
<text text-anchor="middle" x="79" y="-113.5" font-family="Helvetica,sans-Serif" font-size="10.00"> current_user</text>
</g>
<!-- Node2&#45;&gt;Node1 -->
<g id="edge1" class="edge"><title>Node2&#45;&gt;Node1</title>
<path fill="none" stroke="#9a32cd" stroke-dasharray="5,2" d="M92.8174,-90.5202C100.694,-94.2521 108.364,-99.0018 114.5,-105 125.97,-116.211 131.958,-134.477 134.653,-145.256"/>
<polygon fill="#9a32cd" stroke="#9a32cd" points="94.1285,-87.2745 83.5555,-86.593 91.3958,-93.7191 94.1285,-87.2745"/>
<text text-anchor="middle" x="174.5" y="-113.5" font-family="Helvetica,sans-Serif" font-size="10.00"> assigned_member</text>
</g>
<!-- Node3 -->
<g id="node3" class="node"><title>Node3</title>
<g id="a_node3"><a xlink:href="a00148.html" target="_top" xlink:title="Information for a server connection. ">
<polygon fill="white" stroke="black" points="240.5,-245.5 240.5,-264.5 308.5,-264.5 308.5,-245.5 240.5,-245.5"/>
<text text-anchor="middle" x="274.5" y="-252.5" font-family="Helvetica,sans-Serif" font-size="10.00">tds_socket</text>
</a>
</g>
</g>
<!-- Node3&#45;&gt;Node1 -->
<g id="edge19" class="edge"><title>Node3&#45;&gt;Node1</title>
<path fill="none" stroke="#9a32cd" stroke-dasharray="5,2" d="M238.272,-241.778C228.549,-237.755 218.301,-232.799 209.5,-227 182.041,-208.907 155.947,-179.625 143.73,-164.964"/>
<polygon fill="#9a32cd" stroke="#9a32cd" points="237.157,-245.1 247.745,-245.487 239.709,-238.582 237.157,-245.1"/>
<text text-anchor="middle" x="218.5" y="-202.5" font-family="Helvetica,sans-Serif" font-size="10.00"> tds</text>
</g>
<!-- Node3&#45;&gt;Node2 -->
<g id="edge3" class="edge"><title>Node3&#45;&gt;Node2</title>
<path fill="none" stroke="#9a32cd" stroke-dasharray="5,2" d="M230.292,-248.021C207.572,-243.931 179.831,-237.327 156.5,-227 112.418,-207.488 102.32,-198.34 67.5,-165 52.1549,-150.307 45.3026,-147.127 38.5,-127 33.8447,-113.227 40.2724,-96.7125 45.3673,-86.8033"/>
<polygon fill="#9a32cd" stroke="#9a32cd" points="229.9,-251.505 240.345,-249.728 231.072,-244.603 229.9,-251.505"/>
<text text-anchor="middle" x="76.5" y="-152.5" font-family="Helvetica,sans-Serif" font-size="10.00"> tds</text>
</g>
<!-- Node7 -->
<g id="node7" class="node"><title>Node7</title>
<g id="a_node7"><a xlink:href="a00144.html" target="_top" xlink:title="Hold information for any results. ">
<polygon fill="white" stroke="red" points="310.5,-145.5 310.5,-164.5 396.5,-164.5 396.5,-145.5 310.5,-145.5"/>
<text text-anchor="middle" x="353.5" y="-152.5" font-family="Helvetica,sans-Serif" font-size="10.00">tds_result_info</text>
</a>
</g>
</g>
<!-- Node3&#45;&gt;Node7 -->
<g id="edge10" class="edge"><title>Node3&#45;&gt;Node7</title>
<path fill="none" stroke="#9a32cd" stroke-dasharray="5,2" d="M318.307,-245.698C328.679,-241.699 338.692,-235.775 345.5,-227 359.642,-208.77 357.457,-179.55 355.205,-164.934"/>
<polygon fill="#9a32cd" stroke="#9a32cd" points="317.157,-242.391 308.763,-248.855 319.356,-249.037 317.157,-242.391"/>
<text text-anchor="middle" x="387.5" y="-202.5" font-family="Helvetica,sans-Serif" font-size="10.00"> attached_to</text>
</g>
<!-- Node4 -->
<g id="node4" class="node"><title>Node4</title>
<g id="a_node4"><a xlink:href="a00129.html" target="_top" xlink:title="tds_login">
<polygon fill="white" stroke="red" points="163,-323.5 163,-342.5 222,-342.5 222,-323.5 163,-323.5"/>
<text text-anchor="middle" x="192.5" y="-330.5" font-family="Helvetica,sans-Serif" font-size="10.00">tds_login</text>
</a>
</g>
</g>
<!-- Node4&#45;&gt;Node3 -->
<g id="edge4" class="edge"><title>Node4&#45;&gt;Node3</title>
<path fill="none" stroke="#9a32cd" stroke-dasharray="5,2" d="M209.04,-316.231C219.214,-306.578 232.548,-294.007 244.5,-283 251.201,-276.829 258.832,-269.963 264.721,-264.699"/>
<polygon fill="#9a32cd" stroke="#9a32cd" points="206.481,-313.835 201.646,-323.262 211.305,-318.908 206.481,-313.835"/>
<text text-anchor="middle" x="257.5" y="-291.5" font-family="Helvetica,sans-Serif" font-size="10.00"> login</text>
</g>
<!-- Node5 -->
<g id="node5" class="node"><title>Node5</title>
<g id="a_node5"><a xlink:href="a00138.html" target="_top" xlink:title="tds_packet">
<polygon fill="white" stroke="black" points="240.5,-323.5 240.5,-342.5 308.5,-342.5 308.5,-323.5 240.5,-323.5"/>
<text text-anchor="middle" x="274.5" y="-330.5" font-family="Helvetica,sans-Serif" font-size="10.00">tds_packet</text>
</a>
</g>
</g>
<!-- Node5&#45;&gt;Node3 -->
<g id="edge5" class="edge"><title>Node5&#45;&gt;Node3</title>
<path fill="none" stroke="#9a32cd" stroke-dasharray="5,2" d="M274.5,-313.224C274.5,-297.697 274.5,-276.358 274.5,-264.616"/>
<polygon fill="#9a32cd" stroke="#9a32cd" points="271,-313.282 274.5,-323.282 278,-313.282 271,-313.282"/>
<text text-anchor="middle" x="305" y="-297" font-family="Helvetica,sans-Serif" font-size="10.00"> recv_packet</text>
<text text-anchor="middle" x="305" y="-286" font-family="Helvetica,sans-Serif" font-size="10.00">send_packet</text>
</g>
<!-- Node5&#45;&gt;Node5 -->
<g id="edge6" class="edge"><title>Node5&#45;&gt;Node5</title>
<path fill="none" stroke="#9a32cd" stroke-dasharray="5,2" d="M318.648,-338.96C323.425,-337.816 326.5,-335.83 326.5,-333 326.5,-328.473 318.627,-326.103 308.508,-325.891"/>
<polygon fill="#9a32cd" stroke="#9a32cd" points="318.051,-335.506 308.508,-340.109 318.839,-342.461 318.051,-335.506"/>
<text text-anchor="middle" x="338.5" y="-330.5" font-family="Helvetica,sans-Serif" font-size="10.00"> next</text>
</g>
<!-- Node6 -->
<g id="node6" class="node"><title>Node6</title>
<g id="a_node6"><a xlink:href="a00118.html" target="_top" xlink:title="Holds information for a dynamic (also called prepared) query. ">
<polygon fill="white" stroke="black" points="251.5,-67.5 251.5,-86.5 327.5,-86.5 327.5,-67.5 251.5,-67.5"/>
<text text-anchor="middle" x="289.5" y="-74.5" font-family="Helvetica,sans-Serif" font-size="10.00">tds_dynamic</text>
</a>
</g>
</g>
<!-- Node6&#45;&gt;Node3 -->
<g id="edge7" class="edge"><title>Node6&#45;&gt;Node3</title>
<path fill="none" stroke="#9a32cd" stroke-dasharray="5,2" d="M279.518,-95.5845C272.655,-108.73 264.147,-127.395 260.5,-145 253.108,-180.687 251.866,-191.593 260.5,-227 262.101,-233.566 265.601,-240.316 268.701,-245.425"/>
<polygon fill="#9a32cd" stroke="#9a32cd" points="282.638,-97.1742 284.338,-86.7167 276.488,-93.8313 282.638,-97.1742"/>
<text text-anchor="middle" x="281" y="-152.5" font-family="Helvetica,sans-Serif" font-size="10.00"> cur_dyn</text>
</g>
<!-- Node6&#45;&gt;Node6 -->
<g id="edge8" class="edge"><title>Node6&#45;&gt;Node6</title>
<path fill="none" stroke="#9a32cd" stroke-dasharray="5,2" d="M337.789,-81.872C342.506,-80.8896 345.5,-79.2656 345.5,-77 345.5,-73.375 337.835,-71.3926 327.714,-71.0527"/>
<polygon fill="#9a32cd" stroke="#9a32cd" points="337.286,-78.4057 327.714,-82.9473 338.029,-85.3662 337.286,-78.4057"/>
<text text-anchor="middle" x="357.5" y="-74.5" font-family="Helvetica,sans-Serif" font-size="10.00"> next</text>
</g>
<!-- Node9 -->
<g id="node9" class="node"><title>Node9</title>
<g id="a_node9"><a xlink:href="a00108.html" target="_top" xlink:title="tds_connection">
<polygon fill="white" stroke="red" points="376,-0.5 376,-19.5 465,-19.5 465,-0.5 376,-0.5"/>
<text text-anchor="middle" x="420.5" y="-7.5" font-family="Helvetica,sans-Serif" font-size="10.00">tds_connection</text>
</a>
</g>
</g>
<!-- Node6&#45;&gt;Node9 -->
<g id="edge16" class="edge"><title>Node6&#45;&gt;Node9</title>
<path fill="none" stroke="#9a32cd" stroke-dasharray="5,2" d="M316.156,-62.7739C342.102,-49.8999 380.78,-30.7086 403.032,-19.6672"/>
<polygon fill="#9a32cd" stroke="#9a32cd" points="314.298,-59.7884 306.896,-67.3685 317.409,-66.059 314.298,-59.7884"/>
<text text-anchor="middle" x="376.5" y="-41" font-family="Helvetica,sans-Serif" font-size="10.00"> dyns</text>
</g>
<!-- Node7&#45;&gt;Node3 -->
<g id="edge11" class="edge"><title>Node7&#45;&gt;Node3</title>
<path fill="none" stroke="#9a32cd" stroke-dasharray="5,2" d="M300.684,-162.892C289.297,-166.933 278.57,-173.229 271.5,-183 258.048,-201.591 265.727,-230.648 270.932,-245.148"/>
<polygon fill="#9a32cd" stroke="#9a32cd" points="301.762,-166.223 310.338,-160.002 299.755,-159.517 301.762,-166.223"/>
<text text-anchor="middle" x="306.5" y="-219" font-family="Helvetica,sans-Serif" font-size="10.00"> param_info</text>
<text text-anchor="middle" x="306.5" y="-208" font-family="Helvetica,sans-Serif" font-size="10.00">current_results</text>
<text text-anchor="middle" x="306.5" y="-197" font-family="Helvetica,sans-Serif" font-size="10.00">res_info</text>
<text text-anchor="middle" x="306.5" y="-186" font-family="Helvetica,sans-Serif" font-size="10.00">comp_info</text>
</g>
<!-- Node7&#45;&gt;Node6 -->
<g id="edge9" class="edge"><title>Node7&#45;&gt;Node6</title>
<path fill="none" stroke="#9a32cd" stroke-dasharray="5,2" d="M328.099,-139.79C322.849,-136.087 317.658,-131.777 313.5,-127 302.927,-114.854 295.813,-97.2312 292.226,-86.7619"/>
<polygon fill="#9a32cd" stroke="#9a32cd" points="326.52,-142.937 336.82,-145.422 330.318,-137.057 326.52,-142.937"/>
<text text-anchor="middle" x="334.5" y="-119" font-family="Helvetica,sans-Serif" font-size="10.00"> res_info</text>
<text text-anchor="middle" x="334.5" y="-108" font-family="Helvetica,sans-Serif" font-size="10.00">params</text>
</g>
<!-- Node8 -->
<g id="node8" class="node"><title>Node8</title>
<g id="a_node8"><a xlink:href="a00110.html" target="_top" xlink:title="Holds informations about a cursor. ">
<polygon fill="white" stroke="red" points="387.5,-67.5 387.5,-86.5 453.5,-86.5 453.5,-67.5 387.5,-67.5"/>
<text text-anchor="middle" x="420.5" y="-74.5" font-family="Helvetica,sans-Serif" font-size="10.00">tds_cursor</text>
</a>
</g>
</g>
<!-- Node7&#45;&gt;Node8 -->
<g id="edge13" class="edge"><title>Node7&#45;&gt;Node8</title>
<path fill="none" stroke="#9a32cd" stroke-dasharray="5,2" d="M363.387,-136.614C369.403,-126.794 377.623,-114.602 386.5,-105 392.845,-98.1369 401.02,-91.5877 407.764,-86.6585"/>
<polygon fill="#9a32cd" stroke="#9a32cd" points="360.234,-135.07 358.163,-145.46 366.262,-138.629 360.234,-135.07"/>
<text text-anchor="middle" x="407.5" y="-113.5" font-family="Helvetica,sans-Serif" font-size="10.00"> res_info</text>
</g>
<!-- Node8&#45;&gt;Node3 -->
<g id="edge12" class="edge"><title>Node8&#45;&gt;Node3</title>
<path fill="none" stroke="#9a32cd" stroke-dasharray="5,2" d="M427.561,-96.3533C438.206,-127.482 453.889,-190.773 421.5,-227 406.886,-243.346 347.504,-249.877 308.83,-252.428"/>
<polygon fill="#9a32cd" stroke="#9a32cd" points="430.79,-94.9906 424.092,-86.7809 424.208,-97.3751 430.79,-94.9906"/>
<text text-anchor="middle" x="468" y="-152.5" font-family="Helvetica,sans-Serif" font-size="10.00"> cur_cursor</text>
</g>
<!-- Node8&#45;&gt;Node8 -->
<g id="edge14" class="edge"><title>Node8&#45;&gt;Node8</title>
<path fill="none" stroke="#9a32cd" stroke-dasharray="5,2" d="M464.147,-81.9457C468.633,-80.9718 471.5,-79.3232 471.5,-77 471.5,-73.1875 463.778,-71.1919 453.854,-71.0132"/>
<polygon fill="#9a32cd" stroke="#9a32cd" points="463.451,-78.4981 453.854,-82.9868 464.156,-85.4625 463.451,-78.4981"/>
<text text-anchor="middle" x="483.5" y="-74.5" font-family="Helvetica,sans-Serif" font-size="10.00"> next</text>
</g>
<!-- Node8&#45;&gt;Node9 -->
<g id="edge17" class="edge"><title>Node8&#45;&gt;Node9</title>
<path fill="none" stroke="#9a32cd" stroke-dasharray="5,2" d="M420.5,-57.037C420.5,-44.6703 420.5,-29.1198 420.5,-19.6273"/>
<polygon fill="#9a32cd" stroke="#9a32cd" points="417,-57.2338 420.5,-67.2338 424,-57.2338 417,-57.2338"/>
<text text-anchor="middle" x="439.5" y="-41" font-family="Helvetica,sans-Serif" font-size="10.00"> cursors</text>
</g>
<!-- Node9&#45;&gt;Node3 -->
<g id="edge15" class="edge"><title>Node9&#45;&gt;Node3</title>
<path fill="none" stroke="#9a32cd" stroke-dasharray="5,2" d="M453.808,-23.6745C472.407,-32.6915 493.91,-46.8192 504.5,-67 524.776,-105.64 515.172,-124.673 498.5,-165 484.649,-198.501 477.137,-209.301 445.5,-227 422.614,-239.803 351.476,-247.697 308.5,-251.426"/>
<polygon fill="#9a32cd" stroke="#9a32cd" points="455.249,-20.485 444.697,-19.5373 452.355,-26.8587 455.249,-20.485"/>
<text text-anchor="middle" x="530" y="-113.5" font-family="Helvetica,sans-Serif" font-size="10.00"> conn</text>
</g>
<!-- Node10 -->
<g id="node10" class="node"><title>Node10</title>
<g id="a_node10"><a xlink:href="a00134.html" target="_top" xlink:title="tds_mutex">
<polygon fill="white" stroke="black" points="369,-323.5 369,-342.5 434,-342.5 434,-323.5 369,-323.5"/>
<text text-anchor="middle" x="401.5" y="-330.5" font-family="Helvetica,sans-Serif" font-size="10.00">tds_mutex</text>
</a>
</g>
</g>
<!-- Node10&#45;&gt;Node3 -->
<g id="edge18" class="edge"><title>Node10&#45;&gt;Node3</title>
<path fill="none" stroke="#9a32cd" stroke-dasharray="5,2" d="M384.635,-316.571C372.663,-306.161 355.872,-292.62 339.5,-283 326.963,-275.633 312.036,-269.281 299.651,-264.592"/>
<polygon fill="#9a32cd" stroke="#9a32cd" points="382.627,-319.468 392.426,-323.497 387.278,-314.237 382.627,-319.468"/>
<text text-anchor="middle" x="393.5" y="-291.5" font-family="Helvetica,sans-Serif" font-size="10.00"> wire_mtx</text>
</g>
</g>
</svg>
