<?xml version="1.0" encoding="UTF-8" standalone="no"?>
<!DOCTYPE svg PUBLIC "-//W3C//DTD SVG 1.1//EN"
 "http://www.w3.org/Graphics/SVG/1.1/DTD/svg11.dtd">
<!-- Generated by graphviz version 2.38.0 (20140413.2041)
 -->
<!-- Title: tds_varmax_stream Pages: 1 -->
<svg width="1086pt" height="420pt"
 viewBox="0.00 0.00 1086.00 420.00" xmlns="http://www.w3.org/2000/svg" xmlns:xlink="http://www.w3.org/1999/xlink">
<g id="graph0" class="graph" transform="scale(1 1) rotate(0) translate(4 416)">
<title>tds_varmax_stream</title>
<polygon fill="white" stroke="none" points="-4,4 -4,-416 1082,-416 1082,4 -4,4"/>
<!-- Node1 -->
<g id="node1" class="node"><title>Node1</title>
<polygon fill="#bfbfbf" stroke="black" points="592,-339.5 592,-358.5 702,-358.5 702,-339.5 592,-339.5"/>
<text text-anchor="middle" x="647" y="-346.5" font-family="Helvetica,sans-Serif" font-size="10.00">tds_varmax_stream</text>
</g>
<!-- Node2 -->
<g id="node2" class="node"><title>Node2</title>
<g id="a_node2"><a xlink:href="a00148.html" target="_top" xlink:title="Information for a server connection. ">
<polygon fill="white" stroke="black" points="403,-229.5 403,-248.5 471,-248.5 471,-229.5 403,-229.5"/>
<text text-anchor="middle" x="437" y="-236.5" font-family="Helvetica,sans-Serif" font-size="10.00">tds_socket</text>
</a>
</g>
</g>
<!-- Node2&#45;&gt;Node1 -->
<g id="edge1" class="edge"><title>Node2&#45;&gt;Node1</title>
<path fill="none" stroke="#9a32cd" stroke-dasharray="5,2" d="M451.2,-257.099C463.311,-272.472 482.583,-294.046 504,-307 530.728,-323.165 564.071,-333.447 591.73,-339.788"/>
<polygon fill="#9a32cd" stroke="#9a32cd" points="453.779,-254.709 444.934,-248.876 448.211,-258.952 453.779,-254.709"/>
<text text-anchor="middle" x="539" y="-337" font-family="Helvetica,sans-Serif" font-size="10.00"> tds</text>
</g>
<!-- Node8 -->
<g id="node8" class="node"><title>Node8</title>
<g id="a_node8"><a xlink:href="a00144.html" target="_top" xlink:title="Hold information for any results. ">
<polygon fill="white" stroke="red" points="604,-184.5 604,-203.5 690,-203.5 690,-184.5 604,-184.5"/>
<text text-anchor="middle" x="647" y="-191.5" font-family="Helvetica,sans-Serif" font-size="10.00">tds_result_info</text>
</a>
</g>
</g>
<!-- Node2&#45;&gt;Node8 -->
<g id="edge10" class="edge"><title>Node2&#45;&gt;Node8</title>
<path fill="none" stroke="#9a32cd" stroke-dasharray="5,2" d="M448.214,-220.443C459.291,-202.455 478.815,-176.284 504,-165 532.391,-152.279 543.721,-157.852 574,-165 582.705,-167.055 583.794,-170.441 592,-174 600.53,-177.699 609.989,-181.35 618.576,-184.5"/>
<polygon fill="#9a32cd" stroke="#9a32cd" points="444.975,-219.048 442.947,-229.447 451.017,-222.583 444.975,-219.048"/>
<text text-anchor="middle" x="539" y="-168" font-family="Helvetica,sans-Serif" font-size="10.00"> attached_to</text>
</g>
<!-- Node3 -->
<g id="node3" class="node"><title>Node3</title>
<g id="a_node3"><a xlink:href="a00129.html" target="_top" xlink:title="tds_login">
<polygon fill="white" stroke="black" points="227.5,-229.5 227.5,-248.5 286.5,-248.5 286.5,-229.5 227.5,-229.5"/>
<text text-anchor="middle" x="257" y="-236.5" font-family="Helvetica,sans-Serif" font-size="10.00">tds_login</text>
</a>
</g>
</g>
<!-- Node3&#45;&gt;Node2 -->
<g id="edge2" class="edge"><title>Node3&#45;&gt;Node2</title>
<path fill="none" stroke="#9a32cd" stroke-dasharray="5,2" d="M296.832,-239C328.549,-239 372.889,-239 402.932,-239"/>
<polygon fill="#9a32cd" stroke="#9a32cd" points="296.599,-235.5 286.599,-239 296.599,-242.5 296.599,-235.5"/>
<text text-anchor="middle" x="339.5" y="-242" font-family="Helvetica,sans-Serif" font-size="10.00"> login</text>
</g>
<!-- Node4 -->
<g id="node4" class="node"><title>Node4</title>
<g id="a_node4"><a xlink:href="a00102.html" target="_top" xlink:title="tds_capabilities">
<polygon fill="white" stroke="red" points="0,-378.5 0,-397.5 89,-397.5 89,-378.5 0,-378.5"/>
<text text-anchor="middle" x="44.5" y="-385.5" font-family="Helvetica,sans-Serif" font-size="10.00">tds_capabilities</text>
</a>
</g>
</g>
<!-- Node4&#45;&gt;Node3 -->
<g id="edge3" class="edge"><title>Node4&#45;&gt;Node3</title>
<path fill="none" stroke="#9a32cd" stroke-dasharray="5,2" d="M98.9832,-376.982C144.58,-367.479 203.079,-354.977 205,-353 234.947,-322.179 198.107,-293.029 223,-258 225.681,-254.228 229.363,-251.098 233.298,-248.541"/>
<polygon fill="#9a32cd" stroke="#9a32cd" points="98.2599,-373.557 89.182,-379.02 99.6851,-380.411 98.2599,-373.557"/>
<text text-anchor="middle" x="156" y="-377" font-family="Helvetica,sans-Serif" font-size="10.00"> capabilities</text>
</g>
<!-- Node11 -->
<g id="node11" class="node"><title>Node11</title>
<g id="a_node11"><a xlink:href="a00108.html" target="_top" xlink:title="tds_connection">
<polygon fill="white" stroke="black" points="989,-132.5 989,-151.5 1078,-151.5 1078,-132.5 989,-132.5"/>
<text text-anchor="middle" x="1033.5" y="-139.5" font-family="Helvetica,sans-Serif" font-size="10.00">tds_connection</text>
</a>
</g>
</g>
<!-- Node4&#45;&gt;Node11 -->
<g id="edge17" class="edge"><title>Node4&#45;&gt;Node11</title>
<path fill="none" stroke="#9a32cd" stroke-dasharray="5,2" d="M99.5202,-393.175C142.008,-396.8 202.724,-401 256,-401 256,-401 256,-401 832.5,-401 961.177,-401 1018.72,-198.252 1030.27,-151.525"/>
<polygon fill="#9a32cd" stroke="#9a32cd" points="99.6627,-389.674 89.3965,-392.293 99.0548,-396.648 99.6627,-389.674"/>
<text text-anchor="middle" x="539" y="-404" font-family="Helvetica,sans-Serif" font-size="10.00"> capabilities</text>
</g>
<!-- Node5 -->
<g id="node5" class="node"><title>Node5</title>
<g id="a_node5"><a xlink:href="a00117.html" target="_top" xlink:title="Structure to hold a string. ">
<polygon fill="white" stroke="black" points="17,-210.5 17,-229.5 72,-229.5 72,-210.5 17,-210.5"/>
<text text-anchor="middle" x="44.5" y="-217.5" font-family="Helvetica,sans-Serif" font-size="10.00">tds_dstr</text>
</a>
</g>
</g>
<!-- Node5&#45;&gt;Node3 -->
<g id="edge4" class="edge"><title>Node5&#45;&gt;Node3</title>
<path fill="none" stroke="#9a32cd" stroke-dasharray="5,2" d="M82.6588,-216.772C115.185,-214.766 163.58,-213.771 205,-221 214.805,-222.711 225.234,-226.091 234.089,-229.465"/>
<polygon fill="#9a32cd" stroke="#9a32cd" points="82.0083,-213.308 72.2696,-217.48 82.4847,-220.292 82.0083,-213.308"/>
<text text-anchor="middle" x="156" y="-345" font-family="Helvetica,sans-Serif" font-size="10.00"> server_realm_name</text>
<text text-anchor="middle" x="156" y="-334" font-family="Helvetica,sans-Serif" font-size="10.00">password</text>
<text text-anchor="middle" x="156" y="-323" font-family="Helvetica,sans-Serif" font-size="10.00">server_name</text>
<text text-anchor="middle" x="156" y="-312" font-family="Helvetica,sans-Serif" font-size="10.00">dump_file</text>
<text text-anchor="middle" x="156" y="-301" font-family="Helvetica,sans-Serif" font-size="10.00">library</text>
<text text-anchor="middle" x="156" y="-290" font-family="Helvetica,sans-Serif" font-size="10.00">crlfile</text>
<text text-anchor="middle" x="156" y="-279" font-family="Helvetica,sans-Serif" font-size="10.00">server_spn</text>
<text text-anchor="start" x="107" y="-268" font-family="Helvetica,sans-Serif" font-size="10.00">client_host</text>
<text text-anchor="middle" x="156" y="-257" font-family="Helvetica,sans-Serif" font-size="10.00">_name</text>
<text text-anchor="middle" x="156" y="-246" font-family="Helvetica,sans-Serif" font-size="10.00">client_charset</text>
<text text-anchor="middle" x="156" y="-235" font-family="Helvetica,sans-Serif" font-size="10.00">server_charset</text>
<text text-anchor="middle" x="156" y="-224" font-family="Helvetica,sans-Serif" font-size="10.00">...</text>
</g>
<!-- Node6 -->
<g id="node6" class="node"><title>Node6</title>
<g id="a_node6"><a xlink:href="a00138.html" target="_top" xlink:title="tds_packet">
<polygon fill="white" stroke="black" points="223,-162.5 223,-181.5 291,-181.5 291,-162.5 223,-162.5"/>
<text text-anchor="middle" x="257" y="-169.5" font-family="Helvetica,sans-Serif" font-size="10.00">tds_packet</text>
</a>
</g>
</g>
<!-- Node6&#45;&gt;Node2 -->
<g id="edge5" class="edge"><title>Node6&#45;&gt;Node2</title>
<path fill="none" stroke="#9a32cd" stroke-dasharray="5,2" d="M294.361,-185.057C316.314,-193.003 344.822,-203.434 370,-213 384.045,-218.336 399.693,-224.491 412.226,-229.473"/>
<polygon fill="#9a32cd" stroke="#9a32cd" points="295.365,-181.699 284.771,-181.593 292.987,-188.282 295.365,-181.699"/>
<text text-anchor="middle" x="339.5" y="-227" font-family="Helvetica,sans-Serif" font-size="10.00"> recv_packet</text>
<text text-anchor="middle" x="339.5" y="-216" font-family="Helvetica,sans-Serif" font-size="10.00">send_packet</text>
</g>
<!-- Node6&#45;&gt;Node6 -->
<g id="edge6" class="edge"><title>Node6&#45;&gt;Node6</title>
<path fill="none" stroke="#9a32cd" stroke-dasharray="5,2" d="M241.899,-191.766C243.085,-196.497 248.119,-200 257,-200 271.574,-200 275.787,-190.565 269.639,-181.757"/>
<polygon fill="#9a32cd" stroke="#9a32cd" points="245.371,-192.304 244.361,-181.757 238.574,-190.631 245.371,-192.304"/>
<text text-anchor="middle" x="257" y="-203" font-family="Helvetica,sans-Serif" font-size="10.00"> next</text>
</g>
<!-- Node7 -->
<g id="node7" class="node"><title>Node7</title>
<g id="a_node7"><a xlink:href="a00118.html" target="_top" xlink:title="Holds information for a dynamic (also called prepared) query. ">
<polygon fill="white" stroke="black" points="793.5,-219.5 793.5,-238.5 869.5,-238.5 869.5,-219.5 793.5,-219.5"/>
<text text-anchor="middle" x="831.5" y="-226.5" font-family="Helvetica,sans-Serif" font-size="10.00">tds_dynamic</text>
</a>
</g>
</g>
<!-- Node7&#45;&gt;Node2 -->
<g id="edge7" class="edge"><title>Node7&#45;&gt;Node2</title>
<path fill="none" stroke="#9a32cd" stroke-dasharray="5,2" d="M783.166,-239.142C776.101,-240.319 768.881,-241.334 762,-242 656.177,-252.237 530.009,-245.723 471.217,-241.612"/>
<polygon fill="#9a32cd" stroke="#9a32cd" points="784.119,-242.528 793.349,-237.326 782.889,-235.637 784.119,-242.528"/>
<text text-anchor="middle" x="647" y="-250" font-family="Helvetica,sans-Serif" font-size="10.00"> cur_dyn</text>
</g>
<!-- Node7&#45;&gt;Node7 -->
<g id="edge8" class="edge"><title>Node7&#45;&gt;Node7</title>
<path fill="none" stroke="#9a32cd" stroke-dasharray="5,2" d="M814.834,-248.4C815.947,-253.315 821.502,-257 831.5,-257 847.496,-257 852.12,-247.565 845.372,-238.757"/>
<polygon fill="#9a32cd" stroke="#9a32cd" points="818.207,-249.336 817.628,-238.757 811.483,-247.388 818.207,-249.336"/>
<text text-anchor="middle" x="831.5" y="-260" font-family="Helvetica,sans-Serif" font-size="10.00"> next</text>
</g>
<!-- Node7&#45;&gt;Node11 -->
<g id="edge21" class="edge"><title>Node7&#45;&gt;Node11</title>
<path fill="none" stroke="#9a32cd" stroke-dasharray="5,2" d="M868.25,-215.889C873.225,-213.966 878.255,-211.969 883,-210 929.88,-190.552 983.845,-165.273 1012.38,-151.675"/>
<polygon fill="#9a32cd" stroke="#9a32cd" points="866.943,-212.641 858.841,-219.469 869.432,-219.184 866.943,-212.641"/>
<text text-anchor="middle" x="936" y="-205" font-family="Helvetica,sans-Serif" font-size="10.00"> dyns</text>
</g>
<!-- Node8&#45;&gt;Node2 -->
<g id="edge11" class="edge"><title>Node8&#45;&gt;Node2</title>
<path fill="none" stroke="#9a32cd" stroke-dasharray="5,2" d="M593.664,-189.6C566.398,-188.856 532.82,-190.399 504,-199 483.201,-205.207 462.296,-219.577 449.748,-229.292"/>
<polygon fill="#9a32cd" stroke="#9a32cd" points="593.656,-193.102 603.782,-189.987 593.923,-186.107 593.656,-193.102"/>
<text text-anchor="middle" x="539" y="-235" font-family="Helvetica,sans-Serif" font-size="10.00"> param_info</text>
<text text-anchor="middle" x="539" y="-224" font-family="Helvetica,sans-Serif" font-size="10.00">current_results</text>
<text text-anchor="middle" x="539" y="-213" font-family="Helvetica,sans-Serif" font-size="10.00">res_info</text>
<text text-anchor="middle" x="539" y="-202" font-family="Helvetica,sans-Serif" font-size="10.00">comp_info</text>
</g>
<!-- Node8&#45;&gt;Node7 -->
<g id="edge9" class="edge"><title>Node8&#45;&gt;Node7</title>
<path fill="none" stroke="#9a32cd" stroke-dasharray="5,2" d="M700.524,-204.073C730.216,-209.768 766.626,-216.75 793.348,-221.875"/>
<polygon fill="#9a32cd" stroke="#9a32cd" points="700.808,-200.564 690.328,-202.118 699.49,-207.439 700.808,-200.564"/>
<text text-anchor="middle" x="741" y="-230" font-family="Helvetica,sans-Serif" font-size="10.00"> res_info</text>
<text text-anchor="middle" x="741" y="-219" font-family="Helvetica,sans-Serif" font-size="10.00">params</text>
</g>
<!-- Node9 -->
<g id="node9" class="node"><title>Node9</title>
<g id="a_node9"><a xlink:href="a00110.html" target="_top" xlink:title="Holds informations about a cursor. ">
<polygon fill="white" stroke="black" points="798.5,-152.5 798.5,-171.5 864.5,-171.5 864.5,-152.5 798.5,-152.5"/>
<text text-anchor="middle" x="831.5" y="-159.5" font-family="Helvetica,sans-Serif" font-size="10.00">tds_cursor</text>
</a>
</g>
</g>
<!-- Node8&#45;&gt;Node9 -->
<g id="edge14" class="edge"><title>Node8&#45;&gt;Node9</title>
<path fill="none" stroke="#9a32cd" stroke-dasharray="5,2" d="M700.304,-184.829C731.941,-179.282 771.267,-172.386 798.371,-167.634"/>
<polygon fill="#9a32cd" stroke="#9a32cd" points="699.573,-181.404 690.328,-186.578 700.782,-188.298 699.573,-181.404"/>
<text text-anchor="middle" x="741" y="-184" font-family="Helvetica,sans-Serif" font-size="10.00"> res_info</text>
</g>
<!-- Node9&#45;&gt;Node2 -->
<g id="edge12" class="edge"><title>Node9&#45;&gt;Node2</title>
<path fill="none" stroke="#9a32cd" stroke-dasharray="5,2" d="M795.762,-149.124C770.229,-140.372 734.47,-129.582 702,-125 653.591,-118.169 640.271,-117.251 592,-125 551.34,-131.527 537.648,-130.259 504,-154 474.842,-174.573 452.454,-211.763 442.965,-229.322"/>
<polygon fill="#9a32cd" stroke="#9a32cd" points="794.764,-152.482 805.358,-152.482 797.076,-145.875 794.764,-152.482"/>
<text text-anchor="middle" x="647" y="-128" font-family="Helvetica,sans-Serif" font-size="10.00"> cur_cursor</text>
</g>
<!-- Node9&#45;&gt;Node9 -->
<g id="edge15" class="edge"><title>Node9&#45;&gt;Node9</title>
<path fill="none" stroke="#9a32cd" stroke-dasharray="5,2" d="M814.834,-181.4C815.947,-186.315 821.502,-190 831.5,-190 847.496,-190 852.12,-180.565 845.372,-171.757"/>
<polygon fill="#9a32cd" stroke="#9a32cd" points="818.207,-182.336 817.628,-171.757 811.483,-180.388 818.207,-182.336"/>
<text text-anchor="middle" x="831.5" y="-193" font-family="Helvetica,sans-Serif" font-size="10.00"> next</text>
</g>
<!-- Node9&#45;&gt;Node11 -->
<g id="edge23" class="edge"><title>Node9&#45;&gt;Node11</title>
<path fill="none" stroke="#9a32cd" stroke-dasharray="5,2" d="M874.589,-157.791C908.135,-154.437 954.946,-149.755 988.885,-146.361"/>
<polygon fill="#9a32cd" stroke="#9a32cd" points="874.236,-154.309 864.633,-158.787 874.932,-161.274 874.236,-154.309"/>
<text text-anchor="middle" x="936" y="-158" font-family="Helvetica,sans-Serif" font-size="10.00"> cursors</text>
</g>
<!-- Node10 -->
<g id="node10" class="node"><title>Node10</title>
<g id="a_node10"><a xlink:href="a00111.html" target="_top" xlink:title="tds_cursor_status">
<polygon fill="white" stroke="black" points="597,-145.5 597,-164.5 697,-164.5 697,-145.5 597,-145.5"/>
<text text-anchor="middle" x="647" y="-152.5" font-family="Helvetica,sans-Serif" font-size="10.00">tds_cursor_status</text>
</a>
</g>
</g>
<!-- Node10&#45;&gt;Node9 -->
<g id="edge13" class="edge"><title>Node10&#45;&gt;Node9</title>
<path fill="none" stroke="#9a32cd" stroke-dasharray="5,2" d="M707.293,-152.099C724.914,-151.739 744.25,-151.839 762,-153 773.849,-153.775 786.778,-155.297 798.18,-156.871"/>
<polygon fill="#9a32cd" stroke="#9a32cd" points="707.048,-148.604 697.141,-152.36 707.228,-155.602 707.048,-148.604"/>
<text text-anchor="middle" x="741" y="-156" font-family="Helvetica,sans-Serif" font-size="10.00"> status</text>
</g>
<!-- Node11&#45;&gt;Node2 -->
<g id="edge16" class="edge"><title>Node11&#45;&gt;Node2</title>
<path fill="none" stroke="#9a32cd" stroke-dasharray="5,2" d="M1020.55,-160.274C998.21,-192.385 946.567,-257.391 883,-277 731.109,-323.854 537.124,-271.301 465.862,-248.502"/>
<polygon fill="#9a32cd" stroke="#9a32cd" points="1023.58,-162.043 1026.3,-151.802 1017.79,-158.115 1023.58,-162.043"/>
<text text-anchor="middle" x="741" y="-298" font-family="Helvetica,sans-Serif" font-size="10.00"> conn</text>
</g>
<!-- Node12 -->
<g id="node12" class="node"><title>Node12</title>
<g id="a_node12"><a xlink:href="a00121.html" target="_top" xlink:title="Current environment as reported by the server. ">
<polygon fill="white" stroke="black" points="804.5,-114.5 804.5,-133.5 858.5,-133.5 858.5,-114.5 804.5,-114.5"/>
<text text-anchor="middle" x="831.5" y="-121.5" font-family="Helvetica,sans-Serif" font-size="10.00">tds_env</text>
</a>
</g>
</g>
<!-- Node12&#45;&gt;Node11 -->
<g id="edge18" class="edge"><title>Node12&#45;&gt;Node11</title>
<path fill="none" stroke="#9a32cd" stroke-dasharray="5,2" d="M868.803,-122.639C896.837,-122.106 936.533,-122.478 971,-127 980.262,-128.215 990.154,-130.277 999.236,-132.489"/>
<polygon fill="#9a32cd" stroke="#9a32cd" points="868.579,-119.144 858.665,-122.881 868.746,-126.142 868.579,-119.144"/>
<text text-anchor="middle" x="936" y="-130" font-family="Helvetica,sans-Serif" font-size="10.00"> env</text>
</g>
<!-- Node13 -->
<g id="node13" class="node"><title>Node13</title>
<g id="a_node13"><a xlink:href="a00109.html" target="_top" xlink:title="tds_context">
<polygon fill="white" stroke="red" points="796,-76.5 796,-95.5 867,-95.5 867,-76.5 796,-76.5"/>
<text text-anchor="middle" x="831.5" y="-83.5" font-family="Helvetica,sans-Serif" font-size="10.00">tds_context</text>
</a>
</g>
</g>
<!-- Node13&#45;&gt;Node11 -->
<g id="edge19" class="edge"><title>Node13&#45;&gt;Node11</title>
<path fill="none" stroke="#9a32cd" stroke-dasharray="5,2" d="M877.317,-89.1486C904.912,-92.0518 940.684,-97.5728 971,-108 988.305,-113.952 1006.45,-124.602 1018.5,-132.401"/>
<polygon fill="#9a32cd" stroke="#9a32cd" points="877.462,-85.6462 867.17,-88.1593 876.783,-92.6132 877.462,-85.6462"/>
<text text-anchor="middle" x="936" y="-111" font-family="Helvetica,sans-Serif" font-size="10.00"> tds_ctx</text>
</g>
<!-- Node14 -->
<g id="node14" class="node"><title>Node14</title>
<g id="a_node14"><a xlink:href="a00098.html" target="_top" xlink:title="tds_authentication">
<polygon fill="white" stroke="black" points="780,-38.5 780,-57.5 883,-57.5 883,-38.5 780,-38.5"/>
<text text-anchor="middle" x="831.5" y="-45.5" font-family="Helvetica,sans-Serif" font-size="10.00">tds_authentication</text>
</a>
</g>
</g>
<!-- Node14&#45;&gt;Node11 -->
<g id="edge20" class="edge"><title>Node14&#45;&gt;Node11</title>
<path fill="none" stroke="#9a32cd" stroke-dasharray="5,2" d="M893.3,-53.2831C918.549,-57.4285 947.401,-64.8211 971,-78 995.486,-91.6744 1016.24,-118.253 1026.19,-132.476"/>
<polygon fill="#9a32cd" stroke="#9a32cd" points="893.501,-49.774 883.091,-51.7479 892.46,-56.6962 893.501,-49.774"/>
<text text-anchor="middle" x="936" y="-81" font-family="Helvetica,sans-Serif" font-size="10.00"> authentication</text>
</g>
<!-- Node15 -->
<g id="node15" class="node"><title>Node15</title>
<g id="a_node15"><a xlink:href="a00161.html" target="_top" xlink:title="tdsiconvinfo">
<polygon fill="white" stroke="red" points="795,-0.5 795,-19.5 868,-19.5 868,-0.5 795,-0.5"/>
<text text-anchor="middle" x="831.5" y="-7.5" font-family="Helvetica,sans-Serif" font-size="10.00">tdsiconvinfo</text>
</a>
</g>
</g>
<!-- Node15&#45;&gt;Node11 -->
<g id="edge22" class="edge"><title>Node15&#45;&gt;Node11</title>
<path fill="none" stroke="#9a32cd" stroke-dasharray="5,2" d="M878.3,-10.8526C907.227,-13.4506 944.086,-20.7548 971,-40 1004.3,-63.8146 1022.88,-111.808 1029.59,-132.333"/>
<polygon fill="#9a32cd" stroke="#9a32cd" points="878.265,-7.34061 868.035,-10.095 877.75,-14.3216 878.265,-7.34061"/>
<text text-anchor="middle" x="936" y="-43" font-family="Helvetica,sans-Serif" font-size="10.00"> char_convs</text>
</g>
<!-- Node16 -->
<g id="node16" class="node"><title>Node16</title>
<g id="a_node16"><a xlink:href="a00134.html" target="_top" xlink:title="tds_mutex">
<polygon fill="white" stroke="black" points="224.5,-267.5 224.5,-286.5 289.5,-286.5 289.5,-267.5 224.5,-267.5"/>
<text text-anchor="middle" x="257" y="-274.5" font-family="Helvetica,sans-Serif" font-size="10.00">tds_mutex</text>
</a>
</g>
</g>
<!-- Node16&#45;&gt;Node2 -->
<g id="edge24" class="edge"><title>Node16&#45;&gt;Node2</title>
<path fill="none" stroke="#9a32cd" stroke-dasharray="5,2" d="M299.82,-268.628C320.891,-264.355 346.824,-259.013 370,-254 380.681,-251.69 392.312,-249.079 402.793,-246.69"/>
<polygon fill="#9a32cd" stroke="#9a32cd" points="299.008,-265.222 289.9,-270.634 300.395,-272.083 299.008,-265.222"/>
<text text-anchor="middle" x="339.5" y="-269" font-family="Helvetica,sans-Serif" font-size="10.00"> wire_mtx</text>
</g>
<!-- Node17 -->
<g id="node17" class="node"><title>Node17</title>
<g id="a_node17"><a xlink:href="a00127.html" target="_top" xlink:title="define a stream of data used for input ">
<polygon fill="white" stroke="black" points="388,-353.5 388,-372.5 486,-372.5 486,-353.5 388,-353.5"/>
<text text-anchor="middle" x="437" y="-360.5" font-family="Helvetica,sans-Serif" font-size="10.00">tds_input_stream</text>
</a>
</g>
</g>
<!-- Node17&#45;&gt;Node1 -->
<g id="edge25" class="edge"><title>Node17&#45;&gt;Node1</title>
<path fill="none" stroke="#9a32cd" stroke-dasharray="5,2" d="M496.532,-359.06C526.419,-357.049 562.544,-354.617 591.792,-352.649"/>
<polygon fill="#9a32cd" stroke="#9a32cd" points="495.985,-355.589 486.242,-359.753 496.455,-362.573 495.985,-355.589"/>
<text text-anchor="middle" x="539" y="-361" font-family="Helvetica,sans-Serif" font-size="10.00"> stream</text>
</g>
</g>
</svg>
