<?xml version="1.0" encoding="UTF-8" standalone="no"?>
<!DOCTYPE svg PUBLIC "-//W3C//DTD SVG 1.1//EN"
 "http://www.w3.org/Graphics/SVG/1.1/DTD/svg11.dtd">
<!-- Generated by graphviz version 2.38.0 (20140413.2041)
 -->
<!-- Title: include Pages: 1 -->
<svg width="192pt" height="148pt"
 viewBox="0.00 0.00 192.00 148.00" xmlns="http://www.w3.org/2000/svg" xmlns:xlink="http://www.w3.org/1999/xlink">
<g id="graph0" class="graph" transform="scale(1 1) rotate(0) translate(4 144)">
<title>include</title>
<polygon fill="white" stroke="none" points="-4,4 -4,-144 188,-144 188,4 -4,4"/>
<g id="clust1" class="cluster"><title>clusterdir_000000</title>
<g id="a_clust1"><a xlink:href="dir_000000.html" target="_top">
<polygon fill="#eeeeff" stroke="black" points="8,-8 8,-132 176,-132 176,-8 8,-8"/>
</a>
</g>
</g>
<!-- dir_000000 -->
<g id="node1" class="node"><title>dir_000000</title>
<text text-anchor="middle" x="141" y="-103.5" font-family="Helvetica,sans-Serif" font-size="10.00">include</text>
</g>
<!-- dir_000002 -->
<g id="node2" class="node"><title>dir_000002</title>
<g id="a_node2"><a xlink:href="dir_000002.html" target="_top" xlink:title="freetds">
<polygon fill="white" stroke="black" points="168,-52 114,-52 114,-16 168,-16 168,-52"/>
<text text-anchor="middle" x="141" y="-31.5" font-family="Helvetica,sans-Serif" font-size="10.00">freetds</text>
</a>
</g>
</g>
<!-- dir_000000&#45;&gt;dir_000002 -->
<g id="edge1" class="edge"><title>dir_000000&#45;&gt;dir_000002</title>
<path fill="none" stroke="black" d="M141,-87.6966C141,-79.9827 141,-70.7125 141,-62.1124"/>
<polygon fill="black" stroke="black" points="144.5,-62.1043 141,-52.1043 137.5,-62.1044 144.5,-62.1043"/>
<g id="a_edge1&#45;headlabel"><a xlink:href="dir_000000_000002.html" target="_top" xlink:title="1">
<text text-anchor="middle" x="147.339" y="-63.199" font-family="Helvetica,sans-Serif" font-size="10.00">1</text>
</a>
</g>
</g>
<!-- dir_000003 -->
<g id="node3" class="node"><title>dir_000003</title>
<g id="a_node3"><a xlink:href="dir_000003.html" target="_top" xlink:title="replacements">
<polygon fill="white" stroke="black" points="96,-124 16,-124 16,-88 96,-88 96,-124"/>
<text text-anchor="middle" x="56" y="-103.5" font-family="Helvetica,sans-Serif" font-size="10.00">replacements</text>
</a>
</g>
</g>
</g>
</svg>
