<?xml version="1.0" encoding="UTF-8" standalone="no"?>
<!DOCTYPE svg PUBLIC "-//W3C//DTD SVG 1.1//EN"
 "http://www.w3.org/Graphics/SVG/1.1/DTD/svg11.dtd">
<!-- Generated by graphviz version 2.38.0 (20140413.2041)
 -->
<!-- Title: src Pages: 1 -->
<svg width="696pt" height="132pt"
 viewBox="0.00 0.00 696.00 132.00" xmlns="http://www.w3.org/2000/svg" xmlns:xlink="http://www.w3.org/1999/xlink">
<g id="graph0" class="graph" transform="scale(1 1) rotate(0) translate(4 128)">
<title>src</title>
<polygon fill="white" stroke="none" points="-4,4 -4,-128 692,-128 692,4 -4,4"/>
<g id="clust1" class="cluster"><title>clusterdir_000004</title>
<g id="a_clust1"><a xlink:href="dir_000004.html" target="_top">
<polygon fill="#eeeeff" stroke="black" points="8,-64 8,-116 680,-116 680,-64 8,-64"/>
</a>
</g>
</g>
<!-- dir_000004 -->
<g id="node1" class="node"><title>dir_000004</title>
<text text-anchor="middle" x="645" y="-87.5" font-family="Helvetica,sans-Serif" font-size="10.00">src</text>
</g>
<!-- dir_000005 -->
<g id="node2" class="node"><title>dir_000005</title>
<g id="a_node2"><a xlink:href="dir_000005.html" target="_top" xlink:title="apps">
<polygon fill="white" stroke="red" points="600,-108 546,-108 546,-72 600,-72 600,-108"/>
<text text-anchor="middle" x="573" y="-87.5" font-family="Helvetica,sans-Serif" font-size="10.00">apps</text>
</a>
</g>
</g>
<!-- dir_000000 -->
<g id="node10" class="node"><title>dir_000000</title>
<g id="a_node10"><a xlink:href="dir_000000.html" target="_top" xlink:title="include">
<polygon fill="white" stroke="red" points="312,-36 258,-36 258,-0 312,-0 312,-36"/>
<text text-anchor="middle" x="285" y="-15.5" font-family="Helvetica,sans-Serif" font-size="10.00">include</text>
</a>
</g>
</g>
<!-- dir_000005&#45;&gt;dir_000000 -->
<g id="edge1" class="edge"><title>dir_000005&#45;&gt;dir_000000</title>
<path fill="none" stroke="black" d="M551.399,-71.8068C546.845,-68.8251 541.923,-66.0342 537,-64 464.718,-34.1317 372.728,-24.0629 322.284,-20.6867"/>
<polygon fill="black" stroke="black" points="322.369,-17.1854 312.172,-20.0631 321.938,-24.1721 322.369,-17.1854"/>
<g id="a_edge1&#45;headlabel"><a xlink:href="dir_000005_000000.html" target="_top" xlink:title="10">
<text text-anchor="middle" x="326.131" y="-12.0726" font-family="Helvetica,sans-Serif" font-size="10.00">10</text>
</a>
</g>
</g>
<!-- dir_000008 -->
<g id="node3" class="node"><title>dir_000008</title>
<g id="a_node3"><a xlink:href="dir_000008.html" target="_top" xlink:title="ctlib">
<polygon fill="white" stroke="black" points="528,-108 474,-108 474,-72 528,-72 528,-108"/>
<text text-anchor="middle" x="501" y="-87.5" font-family="Helvetica,sans-Serif" font-size="10.00">ctlib</text>
</a>
</g>
</g>
<!-- dir_000008&#45;&gt;dir_000000 -->
<g id="edge2" class="edge"><title>dir_000008&#45;&gt;dir_000000</title>
<path fill="none" stroke="black" d="M478.894,-71.8139C474.461,-68.9042 469.712,-66.1381 465,-64 418.079,-42.7085 359.516,-30.4553 322.181,-24.2583"/>
<polygon fill="black" stroke="black" points="322.668,-20.7917 312.24,-22.6685 321.562,-27.7039 322.668,-20.7917"/>
<g id="a_edge2&#45;headlabel"><a xlink:href="dir_000008_000000.html" target="_top" xlink:title="1">
<text text-anchor="middle" x="326.665" y="-16.0557" font-family="Helvetica,sans-Serif" font-size="10.00">1</text>
</a>
</g>
</g>
<!-- dir_000009 -->
<g id="node4" class="node"><title>dir_000009</title>
<g id="a_node4"><a xlink:href="dir_000009.html" target="_top" xlink:title="dblib">
<polygon fill="white" stroke="black" points="456,-108 402,-108 402,-72 456,-72 456,-108"/>
<text text-anchor="middle" x="429" y="-87.5" font-family="Helvetica,sans-Serif" font-size="10.00">dblib</text>
</a>
</g>
</g>
<!-- dir_000009&#45;&gt;dir_000000 -->
<g id="edge3" class="edge"><title>dir_000009&#45;&gt;dir_000000</title>
<path fill="none" stroke="black" d="M405.833,-71.8526C401.658,-69.0703 397.272,-66.3386 393,-64 370.236,-51.5375 343.293,-40.3059 322.013,-32.1807"/>
<polygon fill="black" stroke="black" points="322.959,-28.7977 312.367,-28.5615 320.5,-35.3515 322.959,-28.7977"/>
<g id="a_edge3&#45;headlabel"><a xlink:href="dir_000009_000000.html" target="_top" xlink:title="14">
<text text-anchor="middle" x="327.322" y="-24.9022" font-family="Helvetica,sans-Serif" font-size="10.00">14</text>
</a>
</g>
</g>
<!-- dir_000010 -->
<g id="node5" class="node"><title>dir_000010</title>
<g id="a_node5"><a xlink:href="dir_000010.html" target="_top" xlink:title="odbc">
<polygon fill="white" stroke="black" points="384,-108 330,-108 330,-72 384,-72 384,-108"/>
<text text-anchor="middle" x="357" y="-87.5" font-family="Helvetica,sans-Serif" font-size="10.00">odbc</text>
</a>
</g>
</g>
<!-- dir_000011 -->
<g id="node6" class="node"><title>dir_000011</title>
<g id="a_node6"><a xlink:href="dir_000011.html" target="_top" xlink:title="pool">
<polygon fill="white" stroke="black" points="312,-108 258,-108 258,-72 312,-72 312,-108"/>
<text text-anchor="middle" x="285" y="-87.5" font-family="Helvetica,sans-Serif" font-size="10.00">pool</text>
</a>
</g>
</g>
<!-- dir_000011&#45;&gt;dir_000000 -->
<g id="edge4" class="edge"><title>dir_000011&#45;&gt;dir_000000</title>
<path fill="none" stroke="black" d="M285,-71.6966C285,-63.9827 285,-54.7125 285,-46.1124"/>
<polygon fill="black" stroke="black" points="288.5,-46.1043 285,-36.1043 281.5,-46.1044 288.5,-46.1043"/>
<g id="a_edge4&#45;headlabel"><a xlink:href="dir_000011_000000.html" target="_top" xlink:title="2">
<text text-anchor="middle" x="291.339" y="-47.199" font-family="Helvetica,sans-Serif" font-size="10.00">2</text>
</a>
</g>
</g>
<!-- dir_000013 -->
<g id="node7" class="node"><title>dir_000013</title>
<g id="a_node7"><a xlink:href="dir_000013.html" target="_top" xlink:title="replacements">
<polygon fill="white" stroke="black" points="240,-108 160,-108 160,-72 240,-72 240,-108"/>
<text text-anchor="middle" x="200" y="-87.5" font-family="Helvetica,sans-Serif" font-size="10.00">replacements</text>
</a>
</g>
</g>
<!-- dir_000013&#45;&gt;dir_000000 -->
<g id="edge6" class="edge"><title>dir_000013&#45;&gt;dir_000000</title>
<path fill="none" stroke="black" d="M221.011,-71.6966C231.716,-62.8807 244.89,-52.0321 256.496,-42.4742"/>
<polygon fill="black" stroke="black" points="258.736,-45.1632 264.23,-36.1043 254.286,-39.7597 258.736,-45.1632"/>
<g id="a_edge6&#45;headlabel"><a xlink:href="dir_000013_000000.html" target="_top" xlink:title="4">
<text text-anchor="middle" x="257.766" y="-47.14" font-family="Helvetica,sans-Serif" font-size="10.00">4</text>
</a>
</g>
</g>
<!-- dir_000014 -->
<g id="node8" class="node"><title>dir_000014</title>
<g id="a_node8"><a xlink:href="dir_000014.html" target="_top" xlink:title="server">
<polygon fill="white" stroke="black" points="142,-108 88,-108 88,-72 142,-72 142,-108"/>
<text text-anchor="middle" x="115" y="-87.5" font-family="Helvetica,sans-Serif" font-size="10.00">server</text>
</a>
</g>
</g>
<!-- dir_000014&#45;&gt;dir_000000 -->
<g id="edge7" class="edge"><title>dir_000014&#45;&gt;dir_000000</title>
<path fill="none" stroke="black" d="M137.639,-71.8534C141.946,-69.0078 146.512,-66.2542 151,-64 182.307,-48.2744 220.369,-36.0935 247.916,-28.3943"/>
<polygon fill="black" stroke="black" points="249.196,-31.6731 257.922,-25.6649 247.354,-24.9198 249.196,-31.6731"/>
<g id="a_edge7&#45;headlabel"><a xlink:href="dir_000014_000000.html" target="_top" xlink:title="4">
<text text-anchor="middle" x="246.475" y="-32.8581" font-family="Helvetica,sans-Serif" font-size="10.00">4</text>
</a>
</g>
</g>
<!-- dir_000012 -->
<g id="node9" class="node"><title>dir_000012</title>
<g id="a_node9"><a xlink:href="dir_000012.html" target="_top" xlink:title="tds">
<polygon fill="white" stroke="red" points="70,-108 16,-108 16,-72 70,-72 70,-108"/>
<text text-anchor="middle" x="43" y="-87.5" font-family="Helvetica,sans-Serif" font-size="10.00">tds</text>
</a>
</g>
</g>
<!-- dir_000012&#45;&gt;dir_000000 -->
<g id="edge5" class="edge"><title>dir_000012&#45;&gt;dir_000000</title>
<path fill="none" stroke="black" d="M64.6642,-71.9558C69.213,-68.9617 74.1172,-66.1282 79,-64 134.995,-39.5943 205.512,-27.886 247.831,-22.6913"/>
<polygon fill="black" stroke="black" points="248.431,-26.1451 257.957,-21.5072 247.618,-19.1925 248.431,-26.1451"/>
<g id="a_edge5&#45;headlabel"><a xlink:href="dir_000012_000000.html" target="_top" xlink:title="29">
<text text-anchor="middle" x="245.191" y="-26.8826" font-family="Helvetica,sans-Serif" font-size="10.00">29</text>
</a>
</g>
</g>
</g>
</svg>
